<svg width="718" height="444" viewBox="0 0 718 444" fill="none" xmlns="http://www.w3.org/2000/svg">
<g id="Frame">
<g clip-path="url(#clip0_1_2)">
<path id="Vector" d="M0 0H718V444H0V0Z" fill="white"/>
<path id="Vector_2" d="M188.5 91.5V369.5" stroke="#CCCCCC" stroke-miterlimit="10"/>
<path id="Vector_3" d="M310.5 91.5V369.5" stroke="#CCCCCC" stroke-miterlimit="10"/>
<path id="Vector_4" d="M432.5 91.5V369.5" stroke="#CCCCCC" stroke-miterlimit="10"/>
<path id="Vector_5" d="M554.5 91.5V369.5" stroke="#CCCCCC" stroke-miterlimit="10"/>
<path id="Vector_6" d="M675.5 91.5V369.5" stroke="#CCCCCC" stroke-miterlimit="10"/>
<path id="Vector_7" d="M95.5 369.5H695.5" stroke="#333333" stroke-miterlimit="10"/>
<path id="Vector_8" d="M95.5 300.5H695.5" stroke="#CCCCCC" stroke-miterlimit="10"/>
<path id="Vector_9" d="M95.5 230.5H695.5" stroke="#CCCCCC" stroke-miterlimit="10"/>
<path id="Vector_10" d="M95.5 161.5H695.5" stroke="#CCCCCC" stroke-miterlimit="10"/>
<path id="Vector_11" d="M95.5 91.5H695.5" stroke="#CCCCCC" stroke-miterlimit="10"/>
<g id="Group">
<path id="Vector_12" d="M95.2 369.8H101.89H102.5H103.11H112.24H112.85H113.46H115.28L115.89 369.74H116.5H117.11L117.71 369.57L118.32 369.63H118.93L119.54 369.77L120.15 369.58L120.76 369.38L121.37 369.47L121.97 369.69L122.58 369.74L123.19 369.66L123.8 369.74H124.41H125.02L125.63 369.58H126.23L126.84 369.72L127.45 369.61L128.06 369.72L128.67 369.61L129.28 369.52H129.89L130.49 369.58L131.1 369.66H131.71L132.32 369.77L132.93 369.71H133.54H134.14H134.75H135.36L135.97 369.79H136.58L137.19 369.71L137.8 369.79H138.4H139.01H139.62L140.23 369.87H140.84L141.45 369.73L142.06 369.79L142.66 369.73L143.27 369.79H143.88H144.49L145.1 369.68L145.71 369.51L146.31 369.29L146.92 369.43L147.53 369.34L148.14 369.46L148.75 369.65L149.36 369.29L149.97 369.15H150.57L151.18 368.87L151.79 368.73L152.4 369.04L153.01 369.32L153.62 369.18H154.23L154.83 368.54L155.44 369.18L156.05 368.7L156.66 369.4L157.27 368.82L157.88 368.73H158.49L159.09 368.65L159.7 369.18L160.31 368.87L160.92 369.07L161.53 368.93L162.14 369.46L162.74 369.15L163.35 369.4L163.96 369.62L164.57 369.48L165.18 369.54L165.79 369.46H166.4L167 369.71L167.61 369.65L168.22 369.54L168.83 369.63H169.44L170.05 369.82H170.66H171.26L171.87 369.74H172.48L173.09 369.66L173.7 369.49L174.31 369.83L174.91 369.69L175.52 369.77L176.13 369.72L176.74 369.83H177.35L177.96 369.77H178.57L179.17 369.83H180.39H181L181.61 369.72L182.22 369.83H182.83L183.43 369.75L184.04 369.8L184.65 369.75L185.26 369.66H185.87L186.48 369.72H187.09L187.69 369.83L188.3 369.72H188.91L189.52 369.78H190.13H190.74H191.34H191.95L192.56 369.53L193.17 369.64H193.78L194.39 369.75L195 369.31L195.6 369.47L196.21 369.42L196.82 369.67L197.43 369.56L198.04 369.78H198.65H199.26H199.86H200.47L201.08 369.7L201.69 369.78L202.3 369.64L202.91 369.78L203.51 369.7L204.12 369.75L204.73 369.59L205.34 369.45L205.95 369.64L206.56 369.73L207.17 369.45L207.77 369.56L208.38 369.73L208.99 369.53L209.6 369.64L210.21 369.7L210.82 369.64L211.43 369.56L212.03 369.67H212.64L213.25 369.73L213.86 369.67L214.47 369.56L215.08 369.39L215.69 369.31L216.29 369.56L216.9 369.17L217.51 369.5L218.12 369.42L218.73 369.5L219.34 369.42H219.94L220.55 369.47L221.16 369.42H221.77L222.38 369.7L222.99 369.53H223.6L224.2 369.47L224.81 369.64L225.42 369.72H226.03L226.64 369.67L227.25 369.19L227.86 369.61L228.46 369.42L229.07 369.5L229.68 369.67H230.29H230.9L231.51 369.58L232.11 369.41L232.72 369.61L233.33 369.75L233.94 369.64L234.55 369.41L235.16 369.69H235.77H236.37L236.98 369.55L237.59 369.72L238.2 369.66L238.81 369.52L239.42 369.72L240.03 369.52L240.63 369.66H241.24L241.85 369.77L242.46 369.63H243.07L243.68 369.54L244.29 369.66L244.89 369.38H245.5H246.11H246.72L247.33 369.55L247.94 369.47H248.54L249.15 369.08L249.76 369.59L250.37 369.25L250.98 369.31H251.59H252.2L252.8 369.23L253.41 369.34L254.02 369.26L254.63 369.15L255.24 368.76L255.85 369.43L256.46 368.7L257.06 368.95L257.67 369.01L258.28 369.09L258.89 368.9L259.5 369.43L260.11 369.2H260.71L261.32 368.93H261.93L262.54 369.04L263.15 369.12L263.76 369.32L264.37 368.93L264.97 369.18L265.58 368.68L266.19 368.37L266.8 368.12L267.41 368.65L268.02 368.4L268.63 369.04L269.23 368.34H269.84L270.45 367.89L271.06 367.56L271.67 367.92L272.28 367.14L272.89 367.83L273.49 367.72L274.1 366.53L274.71 366.61L275.32 364.61L275.93 365.55L276.54 364.24L277.14 365.19L277.75 364.33L278.36 363.24H278.97L279.58 363.38L280.19 363.96L280.8 364.52L281.4 364.3L282.01 363.3L282.62 362.35L283.23 361.35L283.84 363.35L284.45 363.04L285.06 364.13L285.66 363.85L286.27 364.85L286.88 362.77L287.49 362.88H288.1L288.71 364.55L289.31 365.69L289.92 364.16L290.53 364.99L291.14 364.16L291.75 363.99L292.36 364.8L292.97 364.69L293.57 366.44L294.18 364.21L294.79 364.41L295.4 363.18L296.01 364.96L296.62 364.63L297.23 365.33L297.83 366.41L298.44 367L299.05 367.5L299.66 366.02L300.27 365.97L300.88 366.22L301.49 366.13L302.09 366.83L302.7 367.83L303.31 366.72L303.92 366.47L304.53 367.19L305.14 365.41L305.74 367.52L306.35 367.27L306.96 367.47L307.57 366.19L308.18 365.19L308.79 367.11L309.4 367.7L310 367.95L310.61 367.25L311.22 367.64L311.83 366.64L312.44 365.36L313.05 364.8L313.66 363.86L314.26 364.61L314.87 366.08L315.48 365.8L316.09 366.8L316.7 364.43L317.31 364.21L317.91 364.49L318.52 366.38H319.13L319.74 367.3L320.35 365.3L320.96 366.24L321.57 366.77L322.17 366.02L322.78 367.24L323.39 367.41L324 366.91L324.61 365.77L325.22 366.66L325.83 366.77L326.43 366.91L327.04 366.97L327.65 367.74L328.26 366.94L328.87 367.24L329.48 366.52L330.09 367.27L330.69 367.69L331.3 367.94L331.91 368.47L332.52 368.72L333.13 368.08L333.74 367.3L334.34 367.77L334.95 368.77L335.56 368.41L336.17 368.72L336.78 368.64L337.39 368.08L338 368.97L338.6 368.66L339.21 368.91L339.82 368.11L340.43 369.28L341 368L341.61 368.64H342.22L342.82 368.84L343.43 368.64L344.04 369.09L344.65 369.03H345.26L345.87 368.17L346.47 368L347.08 368.06L347.69 368.53L348.3 367.53L348.91 368.12H349.52L350.13 368.06L350.73 367.89L351.34 368.4L351.95 368.26L352.56 368.62L353.17 368.37L353.78 367.95L354.39 367.84L354.99 367.2L355.6 367.7L356.21 368.45L356.82 368.2L357.43 368.48L358.04 368.7L358.65 367.62L359.25 368.01L359.86 367.95L360.47 368.14L361.08 367.81L361.69 368.59L362.3 368.31L362.9 367.75L363.51 368.28H364.12L364.73 368.03L365.34 368.4L365.95 367.89L366.56 368.12L367.16 367.87L367.77 367.67L368.38 367.56L368.99 366.64L369.6 367.95L370.21 368.26L370.82 368.2L371.42 367.73L372.03 367.06L372.64 367.14L373.25 366.84L373.86 367.14L374.47 367.7L375.07 366.92L375.68 366.42L376.29 365.61L376.9 365.47H377.51L378.12 366.86L378.73 366.05L379.33 366.55L379.94 363.83L380.55 363.41L381.16 364.72L381.77 364.91L382.38 360.85L382.99 366.75L383.59 363.44L384.2 364.88L384.81 361.01L385.42 363.01L386.03 358.69L386.64 355.83L387.25 358.53L387.85 358.19L388.46 355.19L389.07 350.1L389.68 353.41L390.29 354.16L390.9 356.25L391.5 359.56L392.11 355.08L392.72 353.08L393.33 350.94L393.94 349.66L394.55 351.58L395.16 353.05L395.76 359.7L396.37 357.12L396.98 354.56L397.59 354.03L398.2 358.12L398.81 357.59L399.42 361.87L400.02 362.13L400.63 362.82L401.24 361.07L401.85 361.54L402.46 364.24L403.07 362.24L403.67 364.83L404.28 365.83L404.89 366.58L405.5 364.94L406.11 364.85L406.72 365.85L407.33 366.41L407.93 367.61L408.54 367.83L409.15 367.47H409.76L410.37 367.89L410.98 367.8L411.59 367.89L412.19 368.47L412.8 368.89L413.41 369.11L414.02 368.56L414.63 369.2L415.24 369L415.85 368.61L416.45 369.14H417.06L417.67 369.25L418.28 368.83H418.89L419.5 369.2L420.1 369.09L420.71 368.83L421.32 369.11L421.93 368.97L422.54 368.06L423.15 368.19L423.76 368.53L424.36 368.14L424.97 368.36L425.58 368.61L426.19 368.25L426.8 367.83L427.41 367.55L428.02 367.89L428.62 366.83L429.23 366.94L429.84 367.94L430.45 367L431.06 366.61L431.67 365.99L432.27 367.69L432.88 366.61L433.49 366.75L434.1 366.08H434.71L435.32 363.6L435.93 362.68L436.53 362.96L437.14 362.02L437.75 362.49L438.36 363.88L438.97 364.05L439.58 359.73L440.19 360.4L440.79 362.04L441.4 360.26L442.01 361.35L442.62 361.29L443.23 360.29L443.84 360.18L444.45 356.59L445.05 357.32L445.66 356.62L446.27 359.76L446.88 360.01L447.49 358.54L448.1 353.39L448.7 353.95L449.31 355.39L449.92 353.84L450.53 355.23L451.14 358.23L451.75 358.06L452.36 354.11L452.96 355.89L453.57 359.29L454.18 357.2L454.79 359.93L455.4 362.52L456.01 361.43L456.62 360.15L457.22 361.15L457.83 362.9L458.44 363.66L459.05 363.82L459.66 366.47L460.27 366.08L460.87 364.88L461.48 365.88L462.09 366.63L462.7 365.55L463.31 367.55L463.92 368.27L464.53 367.32L465.13 366.99L465.74 367.1L466.35 367.49L466.96 367.71L467.57 368.27L468.18 368.6L468.79 369.02L469.39 367.57L470 367.96L470.61 367.91L471.22 368.58L471.83 368.88L472.44 369.47L473.05 369.11L473.65 368.44L474.26 368.97L474.87 369.24H475.48L476.09 369.6L476.7 369.69L477.3 369.38H477.91L478.52 369.49L479.13 369.38L479.74 368.82L480.35 369.24L480.96 369.46L481.56 369.16L482.17 369.07L482.78 368.91L483.39 369.18L484 368.93L484.61 369.13L485.22 369.74L485.82 369.55H486.43H487.04L487.65 369.47L488.26 369.41L488.87 369.67L489.47 369.72L490.08 369.55L490.69 369.67L491.3 369.75L491.91 369.58L492.52 369.64L493.13 369.58L493.73 369.69L494.34 369.39L494.95 369.61L495.56 369.69L496.17 369.53L496.78 369.41L497.39 369.67H497.99L498.6 369.48L499.21 369.56L499.82 369.67L500.43 369.2L501.04 369.28L501.65 369.59L502.25 369.73L502.86 369.12L503.47 369.26L504.08 369.34H504.69L505.3 369.56L505.9 369.31L506.51 369.73L507.12 369.48L507.73 369.64L508.34 369.48H509H509.61L510.21 369.65L510.82 369.7L511.43 369.59L512.04 369.76H512.65L513.26 369.65H513.87H514.47L515.08 369.76H515.69H516.3L516.91 369.67L517.52 369.76L518.12 369.67L518.73 369.73L519.34 369.81L519.95 369.7H520.56L521.17 369.45L521.78 369.67L522.38 369.59L522.99 369.39L523.6 369.53L524.21 369.17L524.82 369.37L525.43 369.14L526.04 369.53L526.64 369.06H527.25L527.86 369.54L528.47 369.23H529.08L529.69 368.9L530.3 369.23H530.9L531.51 369.73L532.12 369.48L532.73 369.07L533.34 368.23L533.95 368.17L534.55 367.17L535.16 365.78L535.77 367.14L536.38 367.26L536.99 366.73L537.6 363.17L538.21 360.17L538.81 356.17L539.42 350.27L540.03 354.06L540.64 357.62L541.25 345.12L541.86 336.89L542.47 330.1L543.07 327.79L543.68 320.05L544.29 332.15L544.9 349.15L545.51 316.81L546.12 311.63L546.72 310.83L547.33 311.02L547.94 250.69L548.55 296.61L549.16 335.68L549.77 274.01L550.38 268.01L550.98 287.4L551.59 264.81L552.2 268.28L552.8 296L553.41 320.05L554 274.7L554.61 270.17L555.21 279.24H555.82L556.43 309.49L557.04 303.43L557.65 327.67L558.26 287.9L558.87 274.84L559.47 292.96L560.08 299.47L560.69 293.77L561.3 312.16L561.91 335.16L562.52 298.96L563.12 282.51L563.73 327.84L564.34 306.16L565 293L565.61 332L566.22 341.38L566.83 309.27L567.43 304.98L568.04 317.78L568.65 323.78L569.26 326.78L569.87 333.1L570.48 349.49L571.09 305.1L571.69 314.54L572.3 322.86L572.91 331.4L573.52 325.84L574.13 341.42L574.74 344.51L575.34 318.57L575.95 319.3L576.56 323.67L577.17 337.58L577.78 321.91L578.39 338.58L579 340.73L579.6 347.73L580.21 317.67L580.82 314.22L581.43 318.84L582.04 322.66L582.65 337.66L583.26 348.9L583.86 313.53L584.47 317.4L585.08 316.03L585.69 322.63L586.3 317.79L586.91 336.93L587.52 345.37L588.12 308.66L588.73 301.66L589.34 311.29L589.95 310.99L590.56 303.47L591.17 328.27L591.77 343.33L592.38 294.07L592.99 292.07L593.6 305.37L594.21 300.92L594.82 299.03L595.43 323.74L596.03 345.74L596.64 291.58L597.25 275.66L597.86 295.56L598.47 295.14L599.08 290.47L599.69 315.18L600.29 339.95L600.9 285.21L601.51 281.21L602.12 293.07L602.73 295.66L603.34 331.06L603.94 326.55L604.55 333.31L605.16 290.79L605.77 322.54L606.38 328.86L606.99 330.42L607.6 277.21L608.2 291.93L608.81 325.41L609.42 274.9L610.03 279.63L610.64 290.54L611.25 296.27L611.86 294.6L612.46 316.5L613.07 334.76L613.68 294.07L614.29 294.82L614.9 308.24L615.51 307.51L616.12 309.71L616.72 330L617.33 346.5L617.94 313.5L618.55 311.86L619.16 326.33L619.77 331.39L620.37 331.03L620.98 343.78L621.59 354.96L622.2 336.12L622.81 335.34L623.42 342.8L624.03 343.05L624.63 342.52L625.24 351.76L625.85 358.44L626.46 337.18L627.07 342.18L627.68 344.74L628.29 347.33L628.89 345.74L629.5 353.39L630.11 358.93L630.72 344.27L631.33 345.52L631.94 346.83L632.54 349.47L633.15 349.94L633.76 355.79L634.37 362.08L634.98 349.36L635.59 349.8L636.2 351.5L636.8 352.84L637.41 354.42L638.02 358.49L638.63 362.66L639.24 352.22L639.85 351.03L640.46 353.64L641 352L641.61 352.42L642.22 352.67L642.83 358.51L643.44 354.23L644.05 346.99L644.66 344.77L645.26 345.15L645.87 344.49L646.48 345.93L647.09 353.09L647.7 347.49L648.31 332.3L648.91 322.17L649.52 321.58L650.13 316.18L650.74 318.83L651.35 327.68L651.96 336.86L652.57 312.51L653.17 259.51L653.78 245.63L654.39 240.84L655 256.54L655.61 276.32L656.22 278.91L656.83 216.18L657.43 211.9L658.04 186.35L658.65 194.92L659.26 201.07L659.87 242.32L660.48 240.92L661.08 177L661.69 169.37L662.3 169.21L662.91 178.36L663.52 193.92L664.13 227.98L664.74 215.51L665.34 153.51L665.95 156.65L666.56 173.41L667.2 195L667.81 202.68L668.42 222.61L669.03 215.61L669.63 178.32L670.24 138.38L670.85 129.56L671.46 158.56L672.07 192.79L672.68 219.59L673.29 214.3L673.89 178.15L674.5 187.5L675.11 191.82L675.72 210.18L676.33 226.18L676.94 267.76L677.54 261.63L678.15 203.63L678.76 212.87L679.37 214.87L680 223L680.61 247.93L681.22 279.74L681.82 269.92L682.43 225.67L683.04 221.44L683.65 245.99L684.26 265.44L684.87 278.13L685.48 310.08L686.08 303.96L686.69 266.27L687.3 273.27L687.91 286.49L688.52 298.29L689.13 309.06L689.73 323.59L690.34 331.91L690.95 313.1L691.56 276.89L692.17 281.82L692.78 308.45L693.39 314.29L693.99 303.55L694.6 298.63L695.21 283.93L695.82 306.5" stroke="#4285F4" stroke-width="2" stroke-miterlimit="10"/>
</g>
<path id="Vector_13" d="M383.42 418.8V410.21H386.42C386.933 410.196 387.446 410.237 387.95 410.33C388.409 410.433 388.837 410.642 389.2 410.94C389.657 411.337 390.002 411.848 390.2 412.42C390.433 413.061 390.548 413.738 390.54 414.42C390.548 415.005 390.471 415.588 390.31 416.15C390.188 416.596 389.992 417.019 389.73 417.4C389.513 417.706 389.242 417.971 388.93 418.18C388.624 418.383 388.286 418.531 387.93 418.62C387.477 418.717 387.014 418.764 386.55 418.76L383.42 418.8ZM384.56 417.8H386.39C386.842 417.815 387.293 417.764 387.73 417.65C388.021 417.563 388.286 417.405 388.5 417.19C388.795 416.893 389.009 416.524 389.12 416.12C389.292 415.584 389.373 415.023 389.36 414.46C389.402 413.745 389.247 413.032 388.91 412.4C388.672 411.959 388.297 411.607 387.84 411.4C387.365 411.267 386.873 411.21 386.38 411.23H384.56V417.8ZM396.36 418.05C396.023 418.349 395.637 418.589 395.22 418.76C394.848 418.894 394.455 418.962 394.06 418.96C393.489 418.995 392.926 418.817 392.48 418.46C392.303 418.298 392.163 418.1 392.07 417.879C391.976 417.658 391.932 417.42 391.94 417.18C391.938 416.891 392.007 416.606 392.14 416.35C392.268 416.103 392.458 415.893 392.69 415.74C392.922 415.585 393.179 415.47 393.45 415.4C393.758 415.318 394.073 415.261 394.39 415.23C395.027 415.171 395.656 415.05 396.27 414.87V414.6C396.288 414.434 396.27 414.266 396.219 414.108C396.167 413.949 396.082 413.803 395.97 413.68C395.623 413.428 395.198 413.308 394.77 413.34C394.385 413.309 394 413.4 393.67 413.6C393.394 413.833 393.207 414.155 393.14 414.51L392.14 414.37C392.21 413.981 392.371 413.615 392.61 413.3C392.861 413.011 393.186 412.797 393.55 412.68C394 412.524 394.474 412.449 394.95 412.46C395.391 412.444 395.832 412.508 396.25 412.65C396.532 412.737 396.784 412.9 396.98 413.12C397.153 413.326 397.266 413.575 397.31 413.84C397.352 414.172 397.369 414.506 397.36 414.84V416.25C397.346 416.871 397.366 417.492 397.42 418.11C397.474 418.373 397.569 418.626 397.7 418.86H396.59C396.461 418.59 396.383 418.298 396.36 418V418.05ZM396.27 415.69C395.715 415.893 395.137 416.031 394.55 416.1C394.232 416.133 393.919 416.207 393.62 416.32C393.453 416.39 393.308 416.504 393.2 416.65C393.083 416.839 393.037 417.063 393.07 417.283C393.103 417.503 393.213 417.704 393.38 417.85C393.645 418.055 393.976 418.154 394.31 418.13C394.686 418.137 395.058 418.047 395.39 417.87C395.697 417.706 395.943 417.446 396.09 417.13C396.221 416.813 396.282 416.472 396.27 416.13V415.69ZM401.59 417.88L401.75 418.8C401.488 418.864 401.22 418.897 400.95 418.9C400.644 418.912 400.34 418.854 400.06 418.73C399.863 418.617 399.706 418.445 399.61 418.24C399.501 417.833 399.457 417.411 399.48 416.99V413.41H398.72V412.6H399.48V411L400.48 410.38V412.55H401.54V413.36H400.48V417C400.47 417.195 400.486 417.39 400.53 417.58C400.571 417.668 400.637 417.741 400.72 417.79C400.828 417.844 400.949 417.868 401.07 417.86L401.59 417.88ZM406.59 416.82L407.68 416.94C407.545 417.532 407.21 418.058 406.73 418.43C406.125 418.833 405.402 419.022 404.676 418.966C403.951 418.91 403.266 418.612 402.73 418.12C402.171 417.466 401.887 416.619 401.94 415.76C401.884 414.879 402.175 414.01 402.75 413.34C403.014 413.051 403.338 412.823 403.699 412.671C404.059 412.519 404.449 412.447 404.84 412.46C405.214 412.452 405.585 412.523 405.929 412.668C406.274 412.812 406.584 413.028 406.84 413.3C407.403 413.964 407.686 414.821 407.63 415.69V416H403C403.002 416.575 403.208 417.131 403.58 417.57C403.746 417.747 403.948 417.886 404.172 417.979C404.396 418.072 404.637 418.117 404.88 418.11C405.237 418.124 405.589 418.018 405.88 417.81C406.202 417.551 406.436 417.198 406.55 416.8L406.59 416.82ZM403.13 415.12H406.6C406.596 414.693 406.46 414.277 406.21 413.93C406.053 413.734 405.853 413.578 405.626 413.472C405.399 413.366 405.151 413.314 404.9 413.32C404.439 413.31 403.993 413.482 403.66 413.8C403.317 414.149 403.115 414.612 403.09 415.1L403.13 415.12Z" fill="black"/>
<path id="Vector_14" d="M33.2 262.18H24.61V261.06H28.14V256.59H24.61V255.45H33.2V256.59H29.15V261.06H33.2V262.18ZM30.09 253.74C29.6157 253.775 29.1397 253.703 28.6968 253.53C28.2538 253.357 27.8552 253.087 27.53 252.74C27.0656 252.198 26.8196 251.503 26.84 250.79C26.8263 250.401 26.8939 250.013 27.0385 249.651C27.1831 249.29 27.4016 248.962 27.68 248.69C27.9922 248.405 28.3584 248.186 28.7569 248.045C29.1554 247.904 29.5781 247.845 30 247.87C30.6484 247.842 31.2948 247.961 31.89 248.22C32.3674 248.469 32.7554 248.86 33 249.34C33.2483 249.801 33.3757 250.317 33.37 250.84C33.384 251.23 33.3175 251.618 33.1747 251.981C33.0319 252.344 32.8158 252.674 32.54 252.95C31.859 253.525 30.9788 253.809 30.09 253.74V253.74ZM30.09 252.67C30.7265 252.716 31.3582 252.531 31.87 252.15C32.0585 251.987 32.2097 251.785 32.3133 251.558C32.4169 251.331 32.4705 251.084 32.4705 250.835C32.4705 250.586 32.4169 250.339 32.3133 250.112C32.2097 249.885 32.0585 249.683 31.87 249.52C31.3465 249.14 30.7048 248.959 30.06 249.01C29.4315 248.967 28.8091 249.156 28.31 249.54C28.1195 249.698 27.9673 249.897 27.8651 250.122C27.7629 250.347 27.7132 250.593 27.72 250.84C27.7139 251.089 27.7638 251.335 27.8659 251.562C27.968 251.789 28.1198 251.99 28.31 252.15C28.8205 252.534 29.4532 252.719 30.09 252.67V252.67ZM33.2 246.35H24.61V245.29H29.51L27 242.81V241.43L29.3 243.82L33.22 241.2V242.49L30 244.56L30.72 245.29H33.2V246.35ZM33.2 240.35H24.61V239.29H29.51L27 236.81V235.43L29.3 237.82L33.22 235.2V236.49L30 238.56L30.72 239.29H33.2V240.35ZM32.43 230.29C32.7292 230.627 32.9693 231.013 33.14 231.43C33.2744 231.802 33.3421 232.195 33.34 232.59C33.3754 233.16 33.1972 233.724 32.84 234.17C32.6783 234.347 32.4802 234.487 32.2592 234.58C32.0382 234.674 31.7997 234.718 31.56 234.71C31.2712 234.712 30.9863 234.643 30.73 234.51C30.483 234.382 30.273 234.192 30.12 233.96C29.9648 233.728 29.8499 233.471 29.78 233.2C29.6976 232.892 29.6408 232.577 29.61 232.26C29.5509 231.623 29.4303 230.994 29.25 230.38H29C28.8341 230.362 28.6664 230.38 28.5078 230.431C28.3492 230.483 28.2034 230.568 28.08 230.68C27.8281 231.027 27.7076 231.452 27.74 231.88C27.7048 232.272 27.7959 232.664 28 233C28.2333 233.276 28.5547 233.463 28.91 233.53L28.77 234.53C28.3813 234.46 28.0147 234.299 27.7 234.06C27.4112 233.809 27.1968 233.484 27.08 233.12C26.9239 232.67 26.8494 232.196 26.86 231.72C26.8439 231.279 26.9083 230.838 27.05 230.42C27.1373 230.138 27.2998 229.886 27.52 229.69C27.7261 229.517 27.9748 229.404 28.24 229.36C28.5715 229.318 28.9059 229.301 29.24 229.31H30.65C31.2706 229.324 31.8916 229.304 32.51 229.25C32.7729 229.196 33.0258 229.101 33.26 228.97V230.08C32.9981 230.199 32.717 230.27 32.43 230.29ZM30.07 230.38C30.273 230.935 30.4106 231.513 30.48 232.1C30.5112 232.415 30.5852 232.725 30.7 233.02C30.7654 233.193 30.8801 233.342 31.03 233.45C31.219 233.567 31.4433 233.613 31.6629 233.58C31.8826 233.547 32.0835 233.437 32.23 233.27C32.4346 233.005 32.5343 232.674 32.51 232.34C32.5167 231.964 32.4272 231.592 32.25 231.26C32.0856 230.953 31.8259 230.707 31.51 230.56C31.1933 230.429 30.8523 230.368 30.51 230.38H30.07ZM25.82 227.38H24.61V226.32H25.82V227.38ZM33.2 227.38H27V226.32H33.2V227.38ZM33.2 220.38H32.42C32.7103 220.566 32.9476 220.824 33.1088 221.129C33.27 221.434 33.3497 221.775 33.34 222.12C33.3457 222.608 33.2027 223.086 32.93 223.49C32.6489 223.925 32.2502 224.272 31.78 224.49C31.2489 224.727 30.6716 224.843 30.09 224.83C29.5118 224.838 28.9376 224.733 28.4 224.52C27.9251 224.339 27.5216 224.009 27.25 223.58C26.9785 223.168 26.8358 222.684 26.84 222.19C26.8356 221.843 26.9145 221.5 27.07 221.19C27.2201 220.91 27.428 220.664 27.68 220.47H24.61V219.47H33.2V220.38ZM30.09 223.71C30.7297 223.756 31.3656 223.579 31.89 223.21C32.0691 223.067 32.214 222.886 32.3144 222.68C32.4147 222.475 32.4679 222.249 32.47 222.02C32.4704 221.794 32.4193 221.572 32.3205 221.369C32.2217 221.166 32.0779 220.989 31.9 220.85C31.4021 220.49 30.7922 220.32 30.18 220.37C29.5173 220.313 28.8555 220.489 28.31 220.87C28.1238 221.009 27.9732 221.19 27.8706 221.399C27.7681 221.608 27.7164 221.838 27.72 222.07C27.7173 222.296 27.7674 222.519 27.8663 222.723C27.9653 222.926 28.1104 223.103 28.29 223.24C28.8273 223.574 29.461 223.718 30.09 223.65V223.71ZM30.09 217.8C29.6157 217.835 29.1397 217.763 28.6968 217.59C28.2538 217.417 27.8552 217.147 27.53 216.8C27.0656 216.258 26.8196 215.563 26.84 214.85C26.8263 214.461 26.8939 214.073 27.0385 213.711C27.1831 213.35 27.4016 213.022 27.68 212.75C27.9922 212.465 28.3584 212.246 28.7569 212.105C29.1554 211.964 29.5781 211.905 30 211.93C30.6484 211.902 31.2948 212.021 31.89 212.28C32.3586 212.513 32.7456 212.883 33 213.34C33.2483 213.801 33.3757 214.317 33.37 214.84C33.384 215.23 33.3175 215.618 33.1747 215.981C33.0319 216.344 32.8158 216.674 32.54 216.95C31.859 217.525 30.9788 217.809 30.09 217.74V217.8ZM30.09 216.73C30.7265 216.776 31.3582 216.591 31.87 216.21C32.0585 216.047 32.2097 215.845 32.3133 215.618C32.4169 215.391 32.4705 215.144 32.4705 214.895C32.4705 214.646 32.4169 214.399 32.3133 214.172C32.2097 213.945 32.0585 213.743 31.87 213.58C31.3465 213.2 30.7048 213.019 30.06 213.07C29.4315 213.027 28.8091 213.216 28.31 213.6C28.1195 213.758 27.9673 213.957 27.8651 214.182C27.7629 214.407 27.7132 214.653 27.72 214.9C27.7139 215.149 27.7638 215.395 27.8659 215.622C27.968 215.849 28.1198 216.05 28.31 216.21C28.8287 216.572 29.4606 216.736 30.09 216.67V216.73Z" fill="black"/>
<path id="Vector_15" d="M82.7 369.57C82.6722 368.739 82.7768 367.908 83.01 367.11C83.1796 366.555 83.4977 366.057 83.93 365.67C84.3803 365.328 84.9348 365.151 85.5 365.17C85.9184 365.161 86.3318 365.261 86.7 365.46C87.0594 365.644 87.3606 365.925 87.57 366.27C87.8201 366.656 88.0027 367.082 88.11 367.53C88.2434 368.188 88.3037 368.859 88.29 369.53C88.3282 370.364 88.2302 371.198 88 372C87.8394 372.559 87.5198 373.059 87.08 373.44C86.5493 373.823 85.8953 373.995 85.2449 373.923C84.5945 373.851 83.9941 373.54 83.56 373.05C82.9045 372.014 82.6028 370.792 82.7 369.57V369.57ZM83.78 369.57C83.6856 370.535 83.8585 371.507 84.28 372.38C84.4039 372.594 84.5818 372.771 84.796 372.895C85.0101 373.018 85.2529 373.083 85.5 373.083C85.7471 373.083 85.9899 373.018 86.2041 372.895C86.4182 372.771 86.5961 372.594 86.72 372.38C87.387 370.563 87.387 368.567 86.72 366.75C86.5903 366.537 86.4082 366.361 86.1911 366.239C85.9741 366.116 85.7293 366.051 85.48 366.05C85.2511 366.047 85.025 366.101 84.8223 366.207C84.6197 366.314 84.447 366.47 84.32 366.66C83.8775 367.562 83.6907 368.569 83.78 369.57V369.57Z" fill="black"/>
<path id="Vector_16" d="M67.25 303.21V304.21H61.56C61.56 303.958 61.6005 303.709 61.68 303.47C61.8499 303.057 62.0827 302.672 62.37 302.33C62.7967 301.859 63.2616 301.424 63.76 301.03C64.4573 300.497 65.0914 299.887 65.65 299.21C65.9521 298.853 66.1279 298.407 66.15 297.94C66.1473 297.751 66.106 297.565 66.0286 297.393C65.9512 297.221 65.8394 297.067 65.7 296.94C65.5433 296.794 65.3592 296.681 65.1583 296.607C64.9574 296.533 64.7438 296.5 64.53 296.51C64.3068 296.498 64.0835 296.532 63.8738 296.61C63.6641 296.687 63.4723 296.806 63.31 296.96C63.1524 297.129 63.0298 297.327 62.9491 297.543C62.8685 297.759 62.8314 297.989 62.84 298.22L61.76 298.11C61.7852 297.412 62.0832 296.751 62.59 296.27C63.1524 295.813 63.8665 295.584 64.59 295.63C64.9526 295.604 65.3167 295.652 65.6604 295.771C66.0041 295.89 66.3202 296.076 66.59 296.32C66.8234 296.536 67.0083 296.8 67.1324 297.093C67.2565 297.386 67.317 297.702 67.31 298.02C67.3064 298.365 67.2315 298.705 67.09 299.02C66.9122 299.389 66.6758 299.727 66.39 300.02C65.8901 300.558 65.352 301.059 64.78 301.52C64.3487 301.862 63.938 302.229 63.55 302.62C63.3798 302.787 63.232 302.975 63.11 303.18L67.25 303.21ZM68.7 302L69.81 301.9C69.8505 302.359 70.0484 302.79 70.37 303.12C70.6709 303.392 71.0645 303.539 71.47 303.53C71.7123 303.53 71.9517 303.478 72.1723 303.378C72.393 303.278 72.5899 303.132 72.75 302.95C73.1141 302.53 73.3037 301.986 73.28 301.43C73.2951 301.17 73.2568 300.91 73.1674 300.666C73.0779 300.422 72.9393 300.199 72.76 300.01C72.5886 299.832 72.3813 299.693 72.152 299.602C71.9227 299.511 71.6766 299.469 71.43 299.48C71.1209 299.474 70.8154 299.548 70.5425 299.693C70.2696 299.838 70.0381 300.051 69.87 300.31L68.87 300.18L69.7 295.78H74V296.78H70.56L70.11 299.09C70.5727 298.737 71.1378 298.544 71.72 298.54C72.0719 298.532 72.4216 298.597 72.7469 298.731C73.0723 298.866 73.3662 299.066 73.61 299.32C73.8679 299.584 74.07 299.897 74.204 300.24C74.338 300.584 74.4013 300.951 74.39 301.32C74.3991 302.043 74.1629 302.748 73.72 303.32C73.4485 303.65 73.1037 303.912 72.7132 304.086C72.3226 304.259 71.897 304.34 71.47 304.32C70.7667 304.35 70.078 304.114 69.54 303.66C69.0633 303.23 68.7638 302.639 68.7 302ZM75.7 300C75.6721 299.172 75.7767 298.345 76.01 297.55C76.1742 296.993 76.4932 296.493 76.93 296.11C77.3803 295.768 77.9347 295.591 78.5 295.61C78.9175 295.598 79.3309 295.695 79.7 295.89C80.0551 296.08 80.3549 296.359 80.57 296.7C80.8183 297.091 81.0007 297.52 81.11 297.97C81.2437 298.628 81.304 299.299 81.29 299.97C81.3165 300.795 81.2119 301.618 80.98 302.41C80.8194 302.969 80.4998 303.469 80.06 303.85C79.5293 304.233 78.8753 304.405 78.2249 304.333C77.5745 304.261 76.9741 303.95 76.54 303.46C75.8964 302.427 75.6019 301.214 75.7 300V300ZM76.78 300C76.6845 300.965 76.8575 301.937 77.28 302.81C77.4018 303.026 77.579 303.207 77.7934 303.332C78.0078 303.457 78.2517 303.523 78.5 303.523C78.7483 303.523 78.9922 303.457 79.2066 303.332C79.421 303.207 79.5982 303.026 79.72 302.81C80.3863 300.996 80.3863 299.004 79.72 297.19C79.5903 296.977 79.4082 296.801 79.1911 296.679C78.9741 296.556 78.7293 296.491 78.48 296.49C78.2521 296.486 78.0269 296.539 77.8245 296.644C77.6221 296.749 77.4488 296.902 77.32 297.09C76.8785 297.993 76.6917 298.999 76.78 300V300ZM82.7 300C82.6721 299.172 82.7767 298.345 83.01 297.55C83.1742 296.993 83.4932 296.493 83.93 296.11C84.3803 295.768 84.9347 295.591 85.5 295.61C85.9175 295.598 86.3309 295.695 86.7 295.89C87.0551 296.08 87.3549 296.359 87.57 296.7C87.8183 297.091 88.0007 297.52 88.11 297.97C88.2437 298.628 88.304 299.299 88.29 299.97C88.3165 300.795 88.2119 301.618 87.98 302.41C87.8194 302.969 87.4998 303.469 87.06 303.85C86.5293 304.233 85.8753 304.405 85.2249 304.333C84.5745 304.261 83.9741 303.95 83.54 303.46C82.8964 302.427 82.6019 301.214 82.7 300V300ZM83.78 300C83.6845 300.965 83.8575 301.937 84.28 302.81C84.4018 303.026 84.579 303.207 84.7934 303.332C85.0078 303.457 85.2517 303.523 85.5 303.523C85.7483 303.523 85.9922 303.457 86.2066 303.332C86.421 303.207 86.5982 303.026 86.72 302.81C87.3863 300.996 87.3863 299.004 86.72 297.19C86.5903 296.977 86.4082 296.801 86.1911 296.679C85.9741 296.556 85.7293 296.491 85.48 296.49C85.2521 296.486 85.0269 296.539 84.8245 296.644C84.6221 296.749 84.4488 296.902 84.32 297.09C83.8785 297.993 83.6917 298.999 83.78 300V300Z" fill="black"/>
<path id="Vector_17" d="M61.7 232.4L62.81 232.31C62.8528 232.766 63.0504 233.193 63.37 233.52C63.6687 233.796 64.0638 233.943 64.47 233.93C64.7127 233.932 64.9529 233.881 65.174 233.781C65.395 233.681 65.5916 233.534 65.75 233.35C66.1135 232.933 66.3032 232.393 66.28 231.84C66.2964 231.58 66.2586 231.32 66.1691 231.075C66.0796 230.831 65.9403 230.608 65.76 230.42C65.5907 230.239 65.3841 230.097 65.1544 230.004C64.9248 229.91 64.6776 229.868 64.43 229.88C64.1219 229.88 63.8184 229.956 63.5464 230.1C63.2744 230.245 63.0421 230.454 62.87 230.71L61.87 230.59L62.7 226.18H67V227.18H63.56L63.11 229.49C63.5756 229.143 64.1396 228.954 64.72 228.95C65.0719 228.942 65.4216 229.007 65.747 229.141C66.0723 229.276 66.3662 229.476 66.61 229.73C66.8689 229.993 67.0716 230.306 67.2057 230.65C67.3398 230.994 67.4025 231.361 67.39 231.73C67.3968 232.453 67.1609 233.157 66.72 233.73C66.449 234.061 66.1044 234.323 65.7137 234.497C65.323 234.671 64.8971 234.75 64.47 234.73C63.7667 234.759 63.078 234.524 62.54 234.07C62.0579 233.64 61.7575 233.043 61.7 232.4V232.4ZM68.7 230.4C68.6753 229.589 68.7765 228.78 69 228C69.1696 227.445 69.4877 226.947 69.92 226.56C70.3703 226.218 70.9248 226.041 71.49 226.06C71.9084 226.051 72.3218 226.151 72.69 226.35C73.0494 226.534 73.3506 226.815 73.56 227.16C73.8101 227.546 73.9927 227.972 74.1 228.42C74.2334 229.078 74.2937 229.749 74.28 230.42C74.3074 231.241 74.2027 232.062 73.97 232.85C73.8094 233.409 73.4898 233.909 73.05 234.29C72.5193 234.673 71.8653 234.845 71.2149 234.773C70.5645 234.701 69.9641 234.39 69.53 233.9C68.885 232.86 68.5939 231.639 68.7 230.42V230.4ZM69.78 230.4C69.6856 231.365 69.8585 232.337 70.28 233.21C70.4039 233.424 70.5818 233.601 70.796 233.725C71.0101 233.848 71.2529 233.913 71.5 233.913C71.7471 233.913 71.9899 233.848 72.2041 233.725C72.4182 233.601 72.5961 233.424 72.72 233.21C73.387 231.393 73.387 229.397 72.72 227.58C72.5903 227.367 72.4082 227.191 72.1911 227.069C71.9741 226.946 71.7293 226.881 71.48 226.88C71.2511 226.877 71.025 226.931 70.8223 227.037C70.6197 227.144 70.447 227.299 70.32 227.49C69.8739 228.398 69.687 229.412 69.78 230.42V230.4ZM75.7 230.4C75.6753 229.589 75.7765 228.78 76 228C76.1696 227.445 76.4877 226.947 76.92 226.56C77.3703 226.218 77.9248 226.041 78.49 226.06C78.9084 226.051 79.3218 226.151 79.69 226.35C80.0494 226.534 80.3506 226.815 80.56 227.16C80.8101 227.546 80.9927 227.972 81.1 228.42C81.2334 229.078 81.2937 229.749 81.28 230.42C81.3074 231.241 81.2027 232.062 80.97 232.85C80.8094 233.409 80.4898 233.909 80.05 234.29C79.5193 234.673 78.8653 234.845 78.2149 234.773C77.5645 234.701 76.9641 234.39 76.53 233.9C75.885 232.86 75.5939 231.639 75.7 230.42V230.4ZM76.78 230.4C76.6856 231.365 76.8585 232.337 77.28 233.21C77.4039 233.424 77.5818 233.601 77.796 233.725C78.0101 233.848 78.2529 233.913 78.5 233.913C78.7471 233.913 78.9899 233.848 79.2041 233.725C79.4182 233.601 79.5961 233.424 79.72 233.21C80.387 231.393 80.387 229.397 79.72 227.58C79.5903 227.367 79.4082 227.191 79.1911 227.069C78.9741 226.946 78.7293 226.881 78.48 226.88C78.2511 226.877 78.025 226.931 77.8223 227.037C77.6197 227.144 77.447 227.299 77.32 227.49C76.8739 228.398 76.687 229.412 76.78 230.42V230.4ZM82.7 230.4C82.6753 229.589 82.7765 228.78 83 228C83.1696 227.445 83.4877 226.947 83.92 226.56C84.3703 226.218 84.9248 226.041 85.49 226.06C85.9084 226.051 86.3218 226.151 86.69 226.35C87.0494 226.534 87.3506 226.815 87.56 227.16C87.8101 227.546 87.9927 227.972 88.1 228.42C88.2334 229.078 88.2937 229.749 88.28 230.42C88.3074 231.241 88.2027 232.062 87.97 232.85C87.8094 233.409 87.4898 233.909 87.05 234.29C86.5193 234.673 85.8653 234.845 85.2149 234.773C84.5645 234.701 83.9641 234.39 83.53 233.9C82.885 232.86 82.5939 231.639 82.7 230.42V230.4ZM83.78 230.4C83.6856 231.365 83.8585 232.337 84.28 233.21C84.4039 233.424 84.5818 233.601 84.796 233.725C85.0101 233.848 85.2529 233.913 85.5 233.913C85.7471 233.913 85.9899 233.848 86.2041 233.725C86.4182 233.601 86.5961 233.424 86.72 233.21C87.387 231.393 87.387 229.397 86.72 227.58C86.5903 227.367 86.4082 227.191 86.1911 227.069C85.9741 226.946 85.7293 226.881 85.48 226.88C85.2511 226.877 85.025 226.931 84.8223 227.037C84.6197 227.144 84.447 227.299 84.32 227.49C83.8739 228.398 83.687 229.412 83.78 230.42V230.4Z" fill="black"/>
<path id="Vector_18" d="M61.76 157.61V156.61H67.32V157.44C66.6898 158.15 66.1459 158.932 65.7 159.77C65.1745 160.719 64.7617 161.725 64.47 162.77C64.2394 163.534 64.1017 164.323 64.06 165.12H63C63.0341 164.291 63.165 163.469 63.39 162.67C63.6476 161.712 64.0133 160.786 64.48 159.91C64.896 159.087 65.4061 158.315 66 157.61H61.76ZM68.7 162.82L69.81 162.73C69.8505 163.189 70.0484 163.62 70.37 163.95C70.671 164.222 71.0645 164.369 71.47 164.36C71.7123 164.36 71.9517 164.308 72.1723 164.208C72.393 164.108 72.5899 163.962 72.75 163.78C73.1141 163.359 73.3037 162.816 73.28 162.26C73.2952 162 73.2568 161.74 73.1674 161.496C73.0779 161.252 72.9393 161.028 72.76 160.84C72.5886 160.662 72.3814 160.523 72.1521 160.432C71.9227 160.34 71.6766 160.299 71.43 160.31C71.1209 160.304 70.8155 160.378 70.5425 160.523C70.2696 160.668 70.0381 160.881 69.87 161.14L68.87 161.01L69.7 156.61H74V157.61H70.56L70.11 159.92C70.5727 159.567 71.1379 159.374 71.72 159.37C72.0719 159.362 72.4216 159.427 72.747 159.561C73.0723 159.696 73.3662 159.896 73.61 160.15C73.868 160.414 74.07 160.727 74.204 161.07C74.3381 161.414 74.4013 161.781 74.39 162.15C74.3991 162.873 74.163 163.578 73.72 164.15C73.4485 164.48 73.1038 164.742 72.7132 164.916C72.3226 165.089 71.897 165.17 71.47 165.15C70.7667 165.179 70.078 164.944 69.54 164.49C69.0611 164.058 68.7614 163.462 68.7 162.82V162.82ZM75.7 160.82C75.6721 159.992 75.7767 159.165 76.01 158.37C76.1742 157.813 76.4932 157.313 76.93 156.93C77.3803 156.588 77.9348 156.411 78.5 156.43C78.9175 156.418 79.3309 156.515 79.7 156.71C80.0552 156.9 80.3549 157.179 80.57 157.52C80.8183 157.911 81.0007 158.34 81.11 158.79C81.2437 159.448 81.3041 160.119 81.29 160.79C81.3165 161.615 81.2119 162.438 80.98 163.23C80.8194 163.789 80.4998 164.289 80.06 164.67C79.6143 165.014 79.0624 165.191 78.5 165.17C78.1188 165.192 77.7379 165.122 77.3896 164.965C77.0414 164.809 76.7362 164.57 76.5 164.27C75.8734 163.242 75.593 162.039 75.7 160.84V160.82ZM76.78 160.82C76.6845 161.785 76.8575 162.757 77.28 163.63C77.4018 163.846 77.579 164.027 77.7934 164.152C78.0078 164.277 78.2517 164.343 78.5 164.343C78.7484 164.343 78.9922 164.277 79.2066 164.152C79.421 164.027 79.5982 163.846 79.72 163.63C80.3863 161.816 80.3863 159.824 79.72 158.01C79.5908 157.796 79.4091 157.618 79.1921 157.494C78.9751 157.37 78.73 157.303 78.48 157.3C78.2514 157.298 78.0259 157.353 77.8236 157.46C77.6213 157.566 77.4483 157.721 77.32 157.91C76.8749 158.819 76.6881 159.832 76.78 160.84V160.82ZM82.7 160.82C82.6721 159.992 82.7767 159.165 83.01 158.37C83.1742 157.813 83.4932 157.313 83.93 156.93C84.3803 156.588 84.9348 156.411 85.5 156.43C85.9175 156.418 86.3309 156.515 86.7 156.71C87.0552 156.9 87.3549 157.179 87.57 157.52C87.8183 157.911 88.0007 158.34 88.11 158.79C88.2437 159.448 88.3041 160.119 88.29 160.79C88.3165 161.615 88.2119 162.438 87.98 163.23C87.8194 163.789 87.4998 164.289 87.06 164.67C86.6143 165.014 86.0624 165.191 85.5 165.17C85.1188 165.192 84.7379 165.122 84.3896 164.965C84.0414 164.809 83.7362 164.57 83.5 164.27C82.8734 163.242 82.593 162.039 82.7 160.84V160.82ZM83.78 160.82C83.6845 161.785 83.8575 162.757 84.28 163.63C84.4018 163.846 84.579 164.027 84.7934 164.152C85.0078 164.277 85.2517 164.343 85.5 164.343C85.7484 164.343 85.9922 164.277 86.2066 164.152C86.421 164.027 86.5982 163.846 86.72 163.63C87.3863 161.816 87.3863 159.824 86.72 158.01C86.5908 157.796 86.4091 157.618 86.1921 157.494C85.9751 157.37 85.73 157.303 85.48 157.3C85.2514 157.298 85.0259 157.353 84.8236 157.46C84.6213 157.566 84.4483 157.721 84.32 157.91C83.8749 158.819 83.6881 159.832 83.78 160.84V160.82Z" fill="black"/>
<path id="Vector_19" d="M58.67 95.5H57.62V88.78C57.3112 89.0583 56.9764 89.3061 56.62 89.52C56.2701 89.7295 55.9019 89.9069 55.52 90.05V89C56.0588 88.7395 56.5572 88.4027 57 88C57.4039 87.6843 57.7434 87.2939 58 86.85H58.67V95.5ZM61.67 91.27C61.6487 90.4377 61.7601 89.6073 62 88.81C62.1669 88.2567 62.4856 87.7613 62.92 87.38C63.3188 87.0967 63.787 86.9267 64.2746 86.888C64.7623 86.8492 65.2514 86.9432 65.69 87.16C66.0494 87.3442 66.3506 87.6246 66.56 87.97C66.8101 88.3564 66.9927 88.7824 67.1 89.23C67.2333 89.888 67.2937 90.5588 67.28 91.23C67.3214 92.0631 67.2268 92.8973 67 93.7C66.8394 94.259 66.5198 94.7593 66.08 95.14C65.5493 95.5228 64.8953 95.6949 64.2449 95.6228C63.5945 95.5507 62.994 95.2397 62.56 94.75C61.9045 93.7135 61.6028 92.4925 61.7 91.27H61.67ZM62.75 91.27C62.6555 92.2348 62.8285 93.207 63.25 94.08C63.3739 94.2938 63.5518 94.4714 63.7659 94.5948C63.9801 94.7182 64.2229 94.7831 64.47 94.7831C64.7171 94.7831 64.9599 94.7182 65.174 94.5948C65.3882 94.4714 65.5661 94.2938 65.69 94.08C66.1066 93.2054 66.2794 92.2346 66.19 91.27C66.2827 90.302 66.1098 89.3271 65.69 88.45C65.5602 88.2372 65.3782 88.0611 65.1611 87.9386C64.9441 87.8161 64.6992 87.7511 64.45 87.75C64.2223 87.7456 63.9972 87.7992 63.7959 87.906C63.5947 88.0127 63.424 88.169 63.3 88.36C62.8583 89.2624 62.6782 90.2705 62.78 91.27H62.75ZM68.67 91.27C68.6487 90.4377 68.7601 89.6073 69 88.81C69.1669 88.2567 69.4856 87.7613 69.92 87.38C70.3188 87.0967 70.787 86.9267 71.2746 86.888C71.7623 86.8492 72.2514 86.9432 72.69 87.16C73.0494 87.3442 73.3506 87.6246 73.56 87.97C73.8101 88.3564 73.9927 88.7824 74.1 89.23C74.2333 89.888 74.2937 90.5588 74.28 91.23C74.3214 92.0631 74.2268 92.8973 74 93.7C73.8394 94.259 73.5198 94.7593 73.08 95.14C72.5493 95.5228 71.8953 95.6949 71.2449 95.6228C70.5945 95.5507 69.994 95.2397 69.56 94.75C68.9045 93.7135 68.6028 92.4925 68.7 91.27H68.67ZM69.75 91.27C69.6555 92.2348 69.8285 93.207 70.25 94.08C70.3739 94.2938 70.5518 94.4714 70.7659 94.5948C70.9801 94.7182 71.2229 94.7831 71.47 94.7831C71.7171 94.7831 71.9599 94.7182 72.174 94.5948C72.3882 94.4714 72.5661 94.2938 72.69 94.08C73.1066 93.2054 73.2794 92.2346 73.19 91.27C73.2827 90.302 73.1098 89.3271 72.69 88.45C72.5602 88.2372 72.3782 88.0611 72.1611 87.9386C71.9441 87.8161 71.6992 87.7511 71.45 87.75C71.2211 87.7467 70.995 87.8007 70.7923 87.9073C70.5897 88.0139 70.417 88.1695 70.29 88.36C69.8578 89.2653 69.6814 90.2716 69.78 91.27H69.75ZM75.67 91.27C75.6487 90.4377 75.7601 89.6073 76 88.81C76.1669 88.2567 76.4856 87.7613 76.92 87.38C77.3188 87.0967 77.787 86.9267 78.2746 86.888C78.7623 86.8492 79.2514 86.9432 79.69 87.16C80.0494 87.3442 80.3506 87.6246 80.56 87.97C80.8101 88.3564 80.9927 88.7824 81.1 89.23C81.2333 89.888 81.2937 90.5588 81.28 91.23C81.3214 92.0631 81.2268 92.8973 81 93.7C80.8394 94.259 80.5198 94.7593 80.08 95.14C79.5493 95.5228 78.8953 95.6949 78.2449 95.6228C77.5945 95.5507 76.994 95.2397 76.56 94.75C75.9045 93.7135 75.6028 92.4925 75.7 91.27H75.67ZM76.75 91.27C76.6555 92.2348 76.8285 93.207 77.25 94.08C77.3739 94.2938 77.5518 94.4714 77.7659 94.5948C77.9801 94.7182 78.2229 94.7831 78.47 94.7831C78.7171 94.7831 78.9599 94.7182 79.174 94.5948C79.3882 94.4714 79.5661 94.2938 79.69 94.08C80.1066 93.2054 80.2794 92.2346 80.19 91.27C80.2827 90.302 80.1098 89.3271 79.69 88.45C79.5602 88.2372 79.3782 88.0611 79.1611 87.9386C78.9441 87.8161 78.6992 87.7511 78.45 87.75C78.2211 87.7467 77.995 87.8007 77.7923 87.9073C77.5897 88.0139 77.417 88.1695 77.29 88.36C76.8578 89.2653 76.6814 90.2716 76.78 91.27H76.75ZM82.67 91.27C82.6487 90.4377 82.7601 89.6073 83 88.81C83.1669 88.2567 83.4856 87.7613 83.92 87.38C84.3188 87.0967 84.787 86.9267 85.2746 86.888C85.7623 86.8492 86.2514 86.9432 86.69 87.16C87.0494 87.3442 87.3506 87.6246 87.56 87.97C87.8101 88.3564 87.9927 88.7824 88.1 89.23C88.2333 89.888 88.2937 90.5588 88.28 91.23C88.3214 92.0631 88.2268 92.8973 88 93.7C87.8394 94.259 87.5198 94.7593 87.08 95.14C86.5493 95.5228 85.8953 95.6949 85.2449 95.6228C84.5945 95.5507 83.994 95.2397 83.56 94.75C82.9045 93.7135 82.6028 92.4925 82.7 91.27H82.67ZM83.75 91.27C83.6555 92.2348 83.8285 93.207 84.25 94.08C84.3739 94.2938 84.5518 94.4714 84.7659 94.5948C84.9801 94.7182 85.2229 94.7831 85.47 94.7831C85.7171 94.7831 85.9599 94.7182 86.174 94.5948C86.3882 94.4714 86.5661 94.2938 86.69 94.08C87.1066 93.2054 87.2794 92.2346 87.19 91.27C87.2827 90.302 87.1098 89.3271 86.69 88.45C86.5602 88.2372 86.3782 88.0611 86.1611 87.9386C85.9441 87.8161 85.6992 87.7511 85.45 87.75C85.2211 87.7467 84.995 87.8007 84.7923 87.9073C84.5897 88.0139 84.417 88.1695 84.29 88.36C83.8578 89.2653 83.6814 90.2716 83.78 91.27H83.75Z" fill="black"/>
<path id="Vector_20" d="M175.29 386.8V384.74H171.57V383.74L175.49 378.18H176.35V383.74H177.5V384.74H176.35V386.8H175.29ZM175.29 383.8V379.94L172.6 383.8H175.29ZM182.29 386.8V384.74H178.57V383.74L182.49 378.18H183.35V383.74H184.5V384.74H183.35V386.8H182.29ZM182.29 383.8V379.94L179.6 383.8H182.29ZM185.91 382.6C185.882 381.769 185.987 380.938 186.22 380.14C186.389 379.582 186.711 379.083 187.15 378.7C187.546 378.415 188.014 378.245 188.501 378.208C188.987 378.171 189.475 378.268 189.91 378.49C190.27 378.676 190.574 378.956 190.79 379.3C191.033 379.689 191.211 380.114 191.32 380.56C191.453 381.218 191.514 381.889 191.5 382.56C191.527 383.381 191.423 384.202 191.19 384.99C191.029 385.549 190.71 386.049 190.27 386.43C189.739 386.813 189.085 386.985 188.435 386.913C187.785 386.841 187.184 386.53 186.75 386.04C186.104 385.004 185.809 383.787 185.91 382.57V382.6ZM186.99 382.6C186.901 383.565 187.073 384.535 187.49 385.41C187.614 385.624 187.792 385.801 188.006 385.925C188.22 386.048 188.463 386.113 188.71 386.113C188.957 386.113 189.2 386.048 189.414 385.925C189.628 385.801 189.806 385.624 189.93 385.41C190.597 383.593 190.597 381.597 189.93 379.78C189.8 379.567 189.618 379.391 189.401 379.269C189.184 379.146 188.939 379.081 188.69 379.08C188.462 379.076 188.237 379.129 188.036 379.236C187.835 379.343 187.664 379.499 187.54 379.69C187.097 380.582 186.91 381.579 187 382.57L186.99 382.6ZM192.91 382.6C192.882 381.769 192.987 380.938 193.22 380.14C193.389 379.582 193.711 379.083 194.15 378.7C194.546 378.415 195.014 378.245 195.501 378.208C195.987 378.171 196.475 378.268 196.91 378.49C197.27 378.676 197.574 378.956 197.79 379.3C198.033 379.689 198.211 380.114 198.32 380.56C198.453 381.218 198.514 381.889 198.5 382.56C198.527 383.381 198.423 384.202 198.19 384.99C198.029 385.549 197.71 386.049 197.27 386.43C196.739 386.813 196.085 386.985 195.435 386.913C194.785 386.841 194.184 386.53 193.75 386.04C193.104 385.004 192.809 383.787 192.91 382.57V382.6ZM193.99 382.6C193.901 383.565 194.073 384.535 194.49 385.41C194.614 385.624 194.792 385.801 195.006 385.925C195.22 386.048 195.463 386.113 195.71 386.113C195.957 386.113 196.2 386.048 196.414 385.925C196.628 385.801 196.806 385.624 196.93 385.41C197.597 383.593 197.597 381.597 196.93 379.78C196.8 379.567 196.618 379.391 196.401 379.269C196.184 379.146 195.939 379.081 195.69 379.08C195.462 379.076 195.237 379.129 195.036 379.236C194.835 379.343 194.664 379.499 194.54 379.69C194.097 380.582 193.91 381.579 194 382.57L193.99 382.6ZM199.91 382.6C199.882 381.769 199.987 380.938 200.22 380.14C200.389 379.582 200.711 379.083 201.15 378.7C201.546 378.415 202.014 378.245 202.501 378.208C202.987 378.171 203.475 378.268 203.91 378.49C204.27 378.676 204.574 378.956 204.79 379.3C205.033 379.689 205.211 380.114 205.32 380.56C205.453 381.218 205.514 381.889 205.5 382.56C205.527 383.381 205.423 384.202 205.19 384.99C205.029 385.549 204.71 386.049 204.27 386.43C203.739 386.813 203.085 386.985 202.435 386.913C201.785 386.841 201.184 386.53 200.75 386.04C200.104 385.004 199.809 383.787 199.91 382.57V382.6ZM200.99 382.6C200.901 383.565 201.073 384.535 201.49 385.41C201.614 385.624 201.792 385.801 202.006 385.925C202.22 386.048 202.463 386.113 202.71 386.113C202.957 386.113 203.2 386.048 203.414 385.925C203.628 385.801 203.806 385.624 203.93 385.41C204.597 383.593 204.597 381.597 203.93 379.78C203.8 379.567 203.618 379.391 203.401 379.269C203.184 379.146 202.939 379.081 202.69 379.08C202.462 379.076 202.237 379.129 202.036 379.236C201.835 379.343 201.664 379.499 201.54 379.69C201.097 380.582 200.91 381.579 201 382.57L200.99 382.6Z" fill="black"/>
<path id="Vector_21" d="M297 386.8V384.74H293.28V383.74L297.2 378.18H298.06V383.74H299.22V384.74H298.06V386.8H297ZM297 383.8V379.94L294.31 383.8H297ZM304 386.8V384.74H300.28V383.74L304.2 378.18H305.06V383.74H306.22V384.74H305.06V386.8H304ZM304 383.8V379.94L301.31 383.8H304ZM313.17 385.8V386.8H307.48C307.477 386.551 307.522 386.303 307.61 386.07C307.771 385.651 308 385.263 308.29 384.92C308.721 384.453 309.189 384.021 309.69 383.63C310.386 383.092 311.019 382.478 311.58 381.8C311.878 381.441 312.053 380.996 312.08 380.53C312.076 380.341 312.033 380.154 311.954 379.982C311.875 379.81 311.761 379.656 311.62 379.53C311.464 379.383 311.28 379.268 311.079 379.193C310.878 379.117 310.664 379.082 310.45 379.09C310.227 379.078 310.004 379.112 309.794 379.19C309.584 379.267 309.392 379.386 309.23 379.54C308.914 379.886 308.745 380.342 308.76 380.81L307.69 380.7C307.698 380.354 307.775 380.014 307.915 379.698C308.056 379.382 308.258 379.097 308.51 378.86C309.071 378.4 309.785 378.168 310.51 378.21C310.873 378.185 311.237 378.233 311.58 378.352C311.924 378.47 312.24 378.657 312.51 378.9C312.74 379.12 312.922 379.386 313.045 379.68C313.167 379.975 313.227 380.291 313.22 380.61C313.217 380.954 313.146 381.294 313.01 381.61C312.831 381.995 312.591 382.35 312.3 382.66C311.795 383.193 311.257 383.694 310.69 384.16C310.06 384.69 309.69 385.05 309.46 385.25C309.297 385.424 309.15 385.611 309.02 385.81L313.17 385.8ZM314.62 382.59C314.595 381.758 314.703 380.928 314.94 380.13C315.101 379.571 315.42 379.071 315.86 378.69C316.256 378.405 316.724 378.235 317.211 378.198C317.697 378.161 318.185 378.258 318.62 378.48C318.983 378.664 319.287 378.944 319.5 379.29C319.747 379.677 319.926 380.103 320.03 380.55C320.168 381.207 320.232 381.878 320.22 382.55C320.245 383.372 320.137 384.193 319.9 384.98C319.746 385.542 319.425 386.044 318.98 386.42C318.452 386.804 317.799 386.977 317.149 386.905C316.5 386.833 315.901 386.521 315.47 386.03C314.813 385.001 314.511 383.786 314.61 382.57L314.62 382.59ZM315.7 382.59C315.611 383.555 315.783 384.525 316.2 385.4C316.327 385.611 316.506 385.785 316.719 385.908C316.933 386.03 317.174 386.096 317.42 386.1C317.666 386.098 317.908 386.033 318.122 385.91C318.336 385.788 318.514 385.612 318.64 385.4C319.307 383.583 319.307 381.587 318.64 379.77C318.511 379.557 318.329 379.38 318.112 379.257C317.895 379.135 317.649 379.07 317.4 379.07C317.172 379.066 316.947 379.119 316.746 379.226C316.545 379.333 316.374 379.489 316.25 379.68C315.798 380.573 315.604 381.573 315.69 382.57L315.7 382.59ZM321.62 382.59C321.595 381.758 321.703 380.928 321.94 380.13C322.101 379.571 322.42 379.071 322.86 378.69C323.256 378.405 323.724 378.235 324.211 378.198C324.697 378.161 325.185 378.258 325.62 378.48C325.983 378.664 326.287 378.944 326.5 379.29C326.747 379.677 326.926 380.103 327.03 380.55C327.168 381.207 327.232 381.878 327.22 382.55C327.245 383.372 327.137 384.193 326.9 384.98C326.746 385.542 326.425 386.044 325.98 386.42C325.452 386.804 324.799 386.977 324.149 386.905C323.5 386.833 322.901 386.521 322.47 386.03C321.813 385.001 321.511 383.786 321.61 382.57L321.62 382.59ZM322.7 382.59C322.611 383.555 322.783 384.525 323.2 385.4C323.327 385.611 323.506 385.785 323.719 385.908C323.933 386.03 324.174 386.096 324.42 386.1C324.666 386.098 324.908 386.033 325.122 385.91C325.336 385.788 325.514 385.612 325.64 385.4C326.307 383.583 326.307 381.587 325.64 379.77C325.511 379.557 325.329 379.38 325.112 379.257C324.895 379.135 324.649 379.07 324.4 379.07C324.172 379.066 323.947 379.119 323.746 379.226C323.545 379.333 323.374 379.489 323.25 379.68C322.798 380.573 322.604 381.573 322.69 382.57L322.7 382.59Z" fill="black"/>
<path id="Vector_22" d="M418.69 386.8V384.74H415V383.74L418.92 378.18H419.78V383.74H420.94V384.74H419.78V386.8H418.69ZM418.69 383.8V379.94L416 383.77L418.69 383.8ZM425.69 386.8V384.74H422V383.74L425.92 378.18H426.78V383.74H427.94V384.74H426.78V386.8H425.69ZM425.69 383.8V379.94L423 383.77L425.69 383.8ZM432.69 386.8V384.74H429V383.74L432.92 378.18H433.78V383.74H434.94V384.74H433.78V386.8H432.69ZM432.69 383.8V379.94L430 383.77L432.69 383.8ZM436.31 382.6C436.285 381.768 436.393 380.938 436.63 380.14C436.796 379.583 437.114 379.084 437.55 378.7C437.997 378.359 438.548 378.183 439.11 378.2C439.528 378.191 439.942 378.291 440.31 378.49C440.673 378.674 440.977 378.954 441.19 379.3C441.441 379.685 441.62 380.112 441.72 380.56C441.862 381.217 441.926 381.888 441.91 382.56C441.932 383.381 441.827 384.201 441.6 384.99C441.437 385.55 441.113 386.051 440.67 386.43C440.142 386.814 439.489 386.987 438.839 386.915C438.19 386.843 437.591 386.531 437.16 386.04C436.509 385.005 436.211 383.788 436.31 382.57V382.6ZM437.39 382.6C437.301 383.565 437.473 384.535 437.89 385.41C438.019 385.619 438.198 385.793 438.411 385.915C438.624 386.038 438.864 386.105 439.11 386.11C439.356 386.108 439.598 386.043 439.812 385.92C440.026 385.798 440.204 385.622 440.33 385.41C440.997 383.593 440.997 381.597 440.33 379.78C440.203 379.567 440.023 379.39 439.808 379.267C439.592 379.144 439.348 379.08 439.1 379.08C438.871 379.075 438.644 379.128 438.441 379.235C438.238 379.342 438.066 379.498 437.94 379.69C437.498 380.582 437.308 381.578 437.39 382.57V382.6ZM443.31 382.6C443.285 381.768 443.393 380.938 443.63 380.14C443.796 379.583 444.114 379.084 444.55 378.7C444.997 378.359 445.548 378.183 446.11 378.2C446.528 378.191 446.942 378.291 447.31 378.49C447.673 378.674 447.977 378.954 448.19 379.3C448.441 379.685 448.62 380.112 448.72 380.56C448.862 381.217 448.926 381.888 448.91 382.56C448.932 383.381 448.827 384.201 448.6 384.99C448.437 385.55 448.113 386.051 447.67 386.43C447.142 386.814 446.489 386.987 445.839 386.915C445.19 386.843 444.591 386.531 444.16 386.04C443.509 385.005 443.211 383.788 443.31 382.57V382.6ZM444.39 382.6C444.301 383.565 444.473 384.535 444.89 385.41C445.019 385.619 445.198 385.793 445.411 385.915C445.624 386.038 445.864 386.105 446.11 386.11C446.356 386.108 446.598 386.043 446.812 385.92C447.026 385.798 447.204 385.622 447.33 385.41C447.997 383.593 447.997 381.597 447.33 379.78C447.203 379.567 447.023 379.39 446.808 379.267C446.592 379.144 446.348 379.08 446.1 379.08C445.871 379.075 445.644 379.128 445.441 379.235C445.238 379.342 445.066 379.498 444.94 379.69C444.498 380.582 444.308 381.578 444.39 382.57V382.6Z" fill="black"/>
<path id="Vector_23" d="M540.39 386.8V384.74H536.67V383.74L540.6 378.18H541.45V383.74H542.61V384.74H541.45V386.8H540.39ZM540.39 383.8V379.94L537.7 383.8H540.39ZM547.39 386.8V384.74H543.67V383.74L547.6 378.18H548.45V383.74H549.61V384.74H548.45V386.8H547.39ZM547.39 383.8V379.94L544.7 383.8H547.39ZM556.49 380.35L555.49 380.42C555.437 380.092 555.303 379.783 555.1 379.52C554.966 379.358 554.798 379.228 554.608 379.138C554.418 379.048 554.21 379.001 554 379C553.68 378.996 553.367 379.098 553.11 379.29C552.756 379.57 552.484 379.939 552.32 380.36C552.107 381.005 552.009 381.681 552.03 382.36C552.256 381.997 552.573 381.701 552.95 381.5C553.313 381.318 553.714 381.222 554.12 381.22C554.455 381.216 554.787 381.283 555.094 381.417C555.401 381.552 555.676 381.751 555.9 382C556.151 382.267 556.347 382.581 556.476 382.925C556.604 383.268 556.664 383.634 556.65 384C556.653 384.528 556.53 385.049 556.29 385.52C556.082 385.958 555.752 386.326 555.34 386.58C554.771 386.897 554.11 387.01 553.467 386.899C552.825 386.788 552.24 386.46 551.81 385.97C551.173 385.034 550.88 383.907 550.98 382.78C550.874 381.505 551.198 380.23 551.9 379.16C552.156 378.835 552.484 378.574 552.86 378.401C553.235 378.227 553.647 378.144 554.06 378.16C554.664 378.136 555.254 378.343 555.71 378.74C556.161 379.149 556.44 379.713 556.49 380.32V380.35ZM552.19 384.05C552.189 384.412 552.264 384.769 552.41 385.1C552.55 385.404 552.771 385.664 553.05 385.85C553.317 386.017 553.625 386.107 553.94 386.11C554.157 386.109 554.371 386.062 554.568 385.97C554.765 385.879 554.94 385.746 555.08 385.58C555.419 385.167 555.59 384.643 555.56 384.11C555.588 383.596 555.416 383.091 555.08 382.7C554.931 382.534 554.747 382.402 554.541 382.314C554.336 382.226 554.113 382.184 553.89 382.19C553.662 382.186 553.437 382.23 553.227 382.317C553.017 382.405 552.827 382.535 552.67 382.7C552.354 383.058 552.183 383.522 552.19 384V384.05ZM558.02 382.6C557.992 381.769 558.097 380.938 558.33 380.14C558.5 379.585 558.818 379.087 559.25 378.7C559.697 378.359 560.248 378.183 560.81 378.2C561.231 378.193 561.648 378.292 562.02 378.49C562.378 378.677 562.678 378.957 562.89 379.3C563.141 379.685 563.32 380.112 563.42 380.56C563.562 381.217 563.626 381.888 563.61 382.56C563.637 383.381 563.533 384.202 563.3 384.99C563.139 385.549 562.82 386.049 562.38 386.43C561.931 386.775 561.376 386.952 560.81 386.93C560.438 386.944 560.068 386.87 559.73 386.716C559.391 386.561 559.093 386.33 558.86 386.04C558.207 385.006 557.905 383.789 558 382.57L558.02 382.6ZM559.1 382.6C559.006 383.565 559.179 384.537 559.6 385.41C559.723 385.624 559.899 385.802 560.113 385.926C560.326 386.049 560.568 386.114 560.815 386.114C561.062 386.114 561.304 386.049 561.517 385.926C561.731 385.802 561.908 385.624 562.03 385.41C562.697 383.593 562.697 381.597 562.03 379.78C561.903 379.567 561.723 379.39 561.508 379.267C561.292 379.144 561.048 379.08 560.8 379.08C560.571 379.075 560.344 379.128 560.141 379.235C559.938 379.342 559.766 379.498 559.64 379.69C559.203 380.584 559.016 381.579 559.1 382.57V382.6ZM565.02 382.6C564.992 381.769 565.097 380.938 565.33 380.14C565.5 379.585 565.818 379.087 566.25 378.7C566.697 378.359 567.248 378.183 567.81 378.2C568.231 378.193 568.648 378.292 569.02 378.49C569.378 378.677 569.678 378.957 569.89 379.3C570.141 379.685 570.32 380.112 570.42 380.56C570.562 381.217 570.626 381.888 570.61 382.56C570.637 383.381 570.533 384.202 570.3 384.99C570.139 385.549 569.82 386.049 569.38 386.43C568.931 386.775 568.376 386.952 567.81 386.93C567.438 386.944 567.068 386.87 566.73 386.716C566.391 386.561 566.093 386.33 565.86 386.04C565.207 385.006 564.905 383.789 565 382.57L565.02 382.6ZM566.1 382.6C566.006 383.565 566.179 384.537 566.6 385.41C566.723 385.624 566.899 385.802 567.113 385.926C567.326 386.049 567.568 386.114 567.815 386.114C568.062 386.114 568.304 386.049 568.517 385.926C568.731 385.802 568.908 385.624 569.03 385.41C569.697 383.593 569.697 381.597 569.03 379.78C568.903 379.567 568.723 379.39 568.508 379.267C568.292 379.144 568.048 379.08 567.8 379.08C567.571 379.075 567.344 379.128 567.141 379.235C566.938 379.342 566.766 379.498 566.64 379.69C566.203 380.584 566.016 381.579 566.1 382.57V382.6Z" fill="black"/>
<path id="Vector_24" d="M662.09 386.8V384.74H658.38V383.74L662.3 378.18H663.16V383.74H664.31V384.74H663.16V386.8H662.09ZM662.09 383.8V379.94L659.41 383.8H662.09ZM669.09 386.8V384.74H665.38V383.74L669.3 378.18H670.16V383.74H671.31V384.74H670.16V386.8H669.09ZM669.09 383.8V379.94L666.41 383.8H669.09ZM674.34 382.17C673.948 382.045 673.601 381.809 673.34 381.49C673.129 381.174 673.02 380.8 673.03 380.42C673.023 380.126 673.079 379.833 673.195 379.562C673.31 379.292 673.483 379.049 673.7 378.85C674.192 378.406 674.838 378.173 675.5 378.2C675.83 378.185 676.16 378.235 676.471 378.349C676.782 378.462 677.067 378.636 677.31 378.86C677.531 379.061 677.706 379.307 677.825 379.581C677.944 379.855 678.003 380.151 678 380.45C677.998 380.808 677.886 381.157 677.68 381.45C677.428 381.778 677.078 382.016 676.68 382.13C677.16 382.267 677.582 382.559 677.88 382.96C678.156 383.366 678.3 383.849 678.29 384.34C678.297 384.684 678.231 385.026 678.096 385.343C677.962 385.66 677.762 385.945 677.51 386.18C677.236 386.436 676.913 386.634 676.561 386.763C676.209 386.892 675.835 386.949 675.46 386.93C674.722 386.948 674.005 386.679 673.46 386.18C673.206 385.941 673.005 385.651 672.87 385.328C672.736 385.006 672.671 384.659 672.68 384.31C672.658 383.805 672.81 383.307 673.11 382.9C673.421 382.513 673.855 382.245 674.34 382.14V382.17ZM674.13 380.38C674.124 380.564 674.155 380.748 674.222 380.92C674.289 381.092 674.391 381.248 674.52 381.38C674.789 381.636 675.148 381.776 675.52 381.77C675.891 381.781 676.25 381.644 676.52 381.39C676.647 381.264 676.748 381.115 676.817 380.95C676.885 380.785 676.921 380.609 676.921 380.43C676.921 380.251 676.885 380.075 676.817 379.91C676.748 379.745 676.647 379.596 676.52 379.47C676.39 379.337 676.234 379.232 676.062 379.161C675.891 379.091 675.706 379.056 675.52 379.06C675.336 379.056 675.153 379.088 674.981 379.155C674.81 379.222 674.653 379.322 674.52 379.45C674.277 379.687 674.136 380.01 674.13 380.35V380.38ZM673.8 384.38C673.797 384.682 673.866 384.98 674 385.25C674.146 385.527 674.368 385.756 674.64 385.91C674.919 386.062 675.232 386.141 675.55 386.14C675.778 386.147 676.005 386.107 676.218 386.023C676.43 385.939 676.623 385.813 676.785 385.652C676.947 385.491 677.074 385.299 677.159 385.087C677.244 384.875 677.286 384.648 677.28 384.42C677.287 384.187 677.246 383.955 677.16 383.738C677.074 383.522 676.945 383.325 676.78 383.16C676.617 382.993 676.42 382.863 676.203 382.776C675.986 382.69 675.753 382.651 675.52 382.66C675.29 382.651 675.06 382.691 674.846 382.777C674.633 382.863 674.44 382.994 674.28 383.16C673.974 383.469 673.802 383.885 673.8 384.32V384.38ZM679.72 382.63C679.692 381.799 679.797 380.968 680.03 380.17C680.2 379.615 680.518 379.117 680.95 378.73C681.348 378.445 681.817 378.275 682.306 378.238C682.794 378.201 683.283 378.299 683.72 378.52C684.078 378.707 684.378 378.987 684.59 379.33C684.84 379.716 685.023 380.142 685.13 380.59C685.263 381.248 685.324 381.919 685.31 382.59C685.335 383.405 685.231 384.218 685 385C684.839 385.559 684.52 386.059 684.08 386.44C683.549 386.823 682.895 386.995 682.245 386.923C681.594 386.851 680.994 386.54 680.56 386.05C679.912 385.011 679.617 383.79 679.72 382.57V382.63ZM680.8 382.63C680.706 383.595 680.879 384.567 681.3 385.44C681.427 385.651 681.606 385.825 681.819 385.948C682.033 386.07 682.274 386.136 682.52 386.14C682.765 386.139 683.006 386.073 683.218 385.951C683.43 385.828 683.607 385.652 683.73 385.44C684.397 383.623 684.397 381.627 683.73 379.81C683.603 379.597 683.423 379.42 683.208 379.297C682.992 379.174 682.748 379.11 682.5 379.11C682.271 379.107 682.045 379.161 681.842 379.267C681.64 379.374 681.467 379.529 681.34 379.72C680.908 380.605 680.722 381.589 680.8 382.57V382.63ZM686.72 382.63C686.692 381.799 686.797 380.968 687.03 380.17C687.2 379.615 687.518 379.117 687.95 378.73C688.348 378.445 688.817 378.275 689.306 378.238C689.794 378.201 690.283 378.299 690.72 378.52C691.078 378.707 691.378 378.987 691.59 379.33C691.84 379.716 692.023 380.142 692.13 380.59C692.263 381.248 692.324 381.919 692.31 382.59C692.335 383.405 692.231 384.218 692 385C691.839 385.559 691.52 386.059 691.08 386.44C690.549 386.823 689.895 386.995 689.245 386.923C688.594 386.851 687.994 386.54 687.56 386.05C686.912 385.011 686.617 383.79 686.72 382.57V382.63ZM687.8 382.63C687.706 383.595 687.879 384.567 688.3 385.44C688.427 385.651 688.606 385.825 688.819 385.948C689.033 386.07 689.274 386.136 689.52 386.14C689.765 386.139 690.006 386.073 690.218 385.951C690.43 385.828 690.607 385.652 690.73 385.44C691.397 383.623 691.397 381.627 690.73 379.81C690.603 379.597 690.423 379.42 690.208 379.297C689.992 379.174 689.748 379.11 689.5 379.11C689.271 379.107 689.045 379.161 688.842 379.267C688.64 379.374 688.467 379.529 688.34 379.72C687.908 380.605 687.722 381.589 687.8 382.57V382.63Z" fill="black"/>
<path id="Vector_25" d="M576.85 65.51V66.7H570.22C570.212 66.4071 570.259 66.1152 570.36 65.84C570.56 65.3579 570.834 64.9093 571.17 64.51C571.665 63.9642 572.204 63.4593 572.78 63C573.599 62.3774 574.344 61.6627 575 60.87C575.346 60.4511 575.549 59.9325 575.58 59.39C575.583 59.1568 575.537 58.9256 575.444 58.7117C575.351 58.4979 575.213 58.3064 575.04 58.15C574.861 57.9819 574.65 57.8511 574.42 57.7653C574.19 57.6794 573.945 57.6402 573.7 57.65C573.437 57.6392 573.174 57.6805 572.927 57.7714C572.68 57.8624 572.453 58.0012 572.26 58.18C572.075 58.3793 571.933 58.6142 571.842 58.8704C571.75 59.1266 571.712 59.3987 571.73 59.67L570.47 59.53C570.486 59.1247 570.583 58.7267 570.754 58.3593C570.926 57.9918 571.169 57.6623 571.47 57.39C572.115 56.8671 572.93 56.6002 573.76 56.64C574.595 56.5914 575.414 56.8754 576.04 57.43C576.313 57.6852 576.529 57.9954 576.674 58.3401C576.819 58.6848 576.889 59.0562 576.88 59.43C576.879 59.8396 576.794 60.2446 576.63 60.62C576.429 61.0655 576.155 61.4745 575.82 61.83C575.229 62.46 574.597 63.0513 573.93 63.6C573.432 63.9953 572.958 64.4193 572.51 64.87C572.313 65.067 572.139 65.2849 571.99 65.52L576.85 65.51ZM578.38 61.76C578.35 60.7937 578.472 59.8287 578.74 58.9C578.937 58.2509 579.315 57.6715 579.83 57.23C580.345 56.8257 580.986 56.6167 581.64 56.64C582.137 56.6299 582.628 56.7433 583.07 56.97C583.478 57.1888 583.822 57.5091 584.07 57.9C584.359 58.3585 584.568 58.8621 584.69 59.39C584.858 60.1683 584.932 60.964 584.91 61.76C584.939 62.723 584.818 63.6846 584.55 64.61C584.352 65.2564 583.978 65.8347 583.47 66.28C582.948 66.6857 582.3 66.8946 581.64 66.87C581.207 66.8869 580.776 66.8005 580.383 66.6179C579.99 66.4353 579.646 66.1618 579.38 65.82C578.608 64.614 578.256 63.1866 578.38 61.76V61.76ZM579.64 61.76C579.535 62.8856 579.735 64.0187 580.22 65.04C580.367 65.2888 580.576 65.495 580.827 65.6383C581.077 65.7816 581.361 65.857 581.65 65.857C581.939 65.857 582.223 65.7816 582.473 65.6383C582.724 65.495 582.933 65.2888 583.08 65.04C583.567 64.0196 583.768 62.8857 583.66 61.76C583.77 60.631 583.569 59.4934 583.08 58.47C582.928 58.221 582.715 58.015 582.462 57.8715C582.208 57.728 581.922 57.6517 581.63 57.65C581.362 57.6459 581.098 57.7098 580.862 57.8357C580.626 57.9616 580.426 58.1455 580.28 58.37C579.763 59.4209 579.542 60.5928 579.64 61.76V61.76ZM592.85 65.51V66.7H586.22C586.212 66.4071 586.259 66.1152 586.36 65.84C586.56 65.3579 586.834 64.9093 587.17 64.51C587.665 63.9642 588.204 63.4593 588.78 63C589.599 62.3774 590.344 61.6627 591 60.87C591.346 60.4511 591.549 59.9325 591.58 59.39C591.583 59.1568 591.537 58.9256 591.444 58.7117C591.351 58.4979 591.213 58.3064 591.04 58.15C590.861 57.9819 590.65 57.8511 590.42 57.7653C590.19 57.6794 589.945 57.6402 589.7 57.65C589.437 57.6392 589.174 57.6805 588.927 57.7714C588.68 57.8624 588.453 58.0012 588.26 58.18C588.075 58.3793 587.933 58.6142 587.842 58.8704C587.75 59.1266 587.712 59.3987 587.73 59.67L586.47 59.53C586.486 59.1247 586.583 58.7267 586.754 58.3593C586.926 57.9918 587.169 57.6623 587.47 57.39C588.115 56.8671 588.93 56.6002 589.76 56.64C590.595 56.5914 591.414 56.8754 592.04 57.43C592.313 57.6852 592.529 57.9954 592.674 58.3401C592.819 58.6848 592.889 59.0562 592.88 59.43C592.879 59.8396 592.794 60.2446 592.63 60.62C592.429 61.0655 592.155 61.4745 591.82 61.83C591.229 62.46 590.597 63.0513 589.93 63.6C589.432 63.9953 588.958 64.4193 588.51 64.87C588.313 65.067 588.139 65.2849 587.99 65.52L592.85 65.51ZM600.85 65.51V66.7H594.22C594.212 66.4071 594.259 66.1152 594.36 65.84C594.56 65.3579 594.834 64.9093 595.17 64.51C595.665 63.9642 596.204 63.4593 596.78 63C597.599 62.3774 598.344 61.6627 599 60.87C599.346 60.4511 599.549 59.9325 599.58 59.39C599.583 59.1568 599.537 58.9256 599.444 58.7117C599.351 58.4979 599.213 58.3064 599.04 58.15C598.861 57.9819 598.65 57.8511 598.42 57.7653C598.19 57.6794 597.945 57.6402 597.7 57.65C597.437 57.6392 597.174 57.6805 596.927 57.7714C596.68 57.8624 596.453 58.0012 596.26 58.18C596.075 58.3793 595.933 58.6142 595.842 58.8704C595.75 59.1266 595.712 59.3987 595.73 59.67L594.47 59.53C594.486 59.1247 594.583 58.7267 594.754 58.3593C594.926 57.9918 595.169 57.6623 595.47 57.39C596.115 56.8671 596.93 56.6002 597.76 56.64C598.595 56.5914 599.414 56.8754 600.04 57.43C600.313 57.6852 600.529 57.9954 600.674 58.3401C600.819 58.6848 600.889 59.0562 600.88 59.43C600.879 59.8396 600.794 60.2446 600.63 60.62C600.429 61.0655 600.155 61.4745 599.82 61.83C599.229 62.46 598.597 63.0513 597.93 63.6C597.432 63.9953 596.958 64.4193 596.51 64.87C596.313 65.067 596.139 65.2849 595.99 65.52L600.85 65.51Z" fill="#999999"/>
<path id="Vector_26" d="M606.17 58.17C605.522 59.3285 604.652 60.3479 603.61 61.17L602.85 60.17C604.397 58.9956 605.48 57.3138 605.91 55.42L607.16 55.75C607.31 55.9 607.25 55.99 607 56.02L606.57 57.11H614.27V58.16H610.27V60H613.56V61H610.27V63.47H614.87V64.47H610.27V67.77H609.18V64.47H602.88V63.47H605.35V60H609.18V58.17H606.17ZM606.46 63.53H609.19V61.06H606.46V63.53Z" fill="#999999"/>
<path id="Vector_27" d="M616.57 64.39L617.75 64.28C617.798 64.7333 617.999 65.1566 618.32 65.48C618.624 65.7371 619.012 65.8724 619.41 65.86C619.759 65.8655 620.104 65.7793 620.41 65.61C620.701 65.4342 620.944 65.1906 621.12 64.9C621.333 64.5348 621.491 64.1407 621.59 63.73C621.71 63.2391 621.771 62.7354 621.77 62.23C621.77 62.23 621.77 62.1 621.77 61.98C621.521 62.3896 621.17 62.7274 620.751 62.9606C620.332 63.1937 619.859 63.3141 619.38 63.31C618.984 63.3188 618.59 63.2421 618.226 63.085C617.862 62.928 617.536 62.6944 617.27 62.4C616.976 62.0818 616.749 61.7084 616.602 61.3015C616.454 60.8946 616.389 60.4624 616.41 60.03C616.387 59.5814 616.455 59.1328 616.607 58.7104C616.76 58.288 616.996 57.9003 617.3 57.57C617.59 57.2651 617.942 57.0247 618.331 56.8644C618.72 56.7042 619.139 56.6277 619.56 56.64C620.202 56.6387 620.83 56.8281 621.364 57.1842C621.898 57.5402 622.314 58.0469 622.56 58.64C622.882 59.5402 623.025 60.4949 622.98 61.45C623.016 62.4865 622.874 63.5215 622.56 64.51C622.338 65.2026 621.909 65.8101 621.33 66.25C620.761 66.6454 620.083 66.8518 619.39 66.84C619.042 66.8644 618.693 66.8193 618.362 66.7075C618.032 66.5956 617.727 66.4191 617.466 66.1883C617.204 65.9575 616.991 65.677 616.839 65.3631C616.687 65.0493 616.599 64.7083 616.58 64.36L616.57 64.39ZM621.57 59.97C621.604 59.3544 621.4 58.7492 621 58.28C620.837 58.0824 620.633 57.9233 620.401 57.8144C620.169 57.7055 619.916 57.6493 619.66 57.65C619.386 57.6525 619.116 57.7136 618.867 57.8291C618.619 57.9447 618.398 58.1121 618.22 58.32C617.805 58.8026 617.587 59.4239 617.61 60.06C617.592 60.6359 617.8 61.196 618.19 61.62C618.372 61.8137 618.592 61.9671 618.836 62.0705C619.081 62.1738 619.344 62.2248 619.61 62.22C619.875 62.2292 620.138 62.1802 620.382 62.0766C620.625 61.9729 620.843 61.8171 621.02 61.62C621.407 61.1703 621.614 60.5931 621.6 60L621.57 59.97Z" fill="#999999"/>
<path id="Vector_28" d="M633.71 63.53H628.5C628.451 64.4052 628.21 65.2589 627.796 66.0312C627.381 66.8034 626.802 67.4755 626.1 68L625.17 67C625.892 66.5545 626.481 65.9231 626.875 65.1719C627.269 64.4206 627.454 63.5772 627.41 62.73V56H634.8V66.76C634.8 67.35 634.49 67.64 633.86 67.64H632.55L632.33 66.42H633.49C633.52 66.4231 633.55 66.4196 633.578 66.4097C633.606 66.3997 633.631 66.3836 633.653 66.3625C633.674 66.3414 633.69 66.3159 633.7 66.2878C633.71 66.2597 633.713 66.2297 633.71 66.2V63.53ZM628.5 62.32H633.71V60.32H628.5V62.32ZM628.5 59.15H633.71V57.15H628.5V59.15Z" fill="#999999"/>
<path id="Vector_29" d="M644.85 65.51V66.7H638.22C638.212 66.4071 638.259 66.1152 638.36 65.84C638.56 65.3579 638.834 64.9093 639.17 64.51C639.665 63.9642 640.204 63.4593 640.78 63C641.599 62.3774 642.344 61.6627 643 60.87C643.346 60.4511 643.549 59.9325 643.58 59.39C643.583 59.1568 643.537 58.9256 643.444 58.7117C643.351 58.4979 643.213 58.3064 643.04 58.15C642.861 57.9819 642.65 57.8511 642.42 57.7653C642.19 57.6794 641.945 57.6402 641.7 57.65C641.437 57.6392 641.174 57.6805 640.927 57.7714C640.68 57.8624 640.453 58.0012 640.26 58.18C640.075 58.3793 639.933 58.6142 639.842 58.8704C639.75 59.1266 639.712 59.3987 639.73 59.67L638.47 59.53C638.486 59.1247 638.583 58.7267 638.754 58.3593C638.926 57.9918 639.169 57.6623 639.47 57.39C640.115 56.8671 640.93 56.6002 641.76 56.64C642.595 56.5914 643.414 56.8754 644.04 57.43C644.313 57.6852 644.529 57.9954 644.674 58.3401C644.819 58.6848 644.889 59.0562 644.88 59.43C644.879 59.8396 644.794 60.2446 644.63 60.62C644.429 61.0655 644.155 61.4745 643.82 61.83C643.229 62.46 642.597 63.0513 641.93 63.6C641.432 63.9953 640.958 64.4193 640.51 64.87C640.313 65.067 640.139 65.2849 639.99 65.52L644.85 65.51ZM646.57 64.39L647.75 64.28C647.798 64.7333 647.999 65.1566 648.32 65.48C648.624 65.737 649.012 65.8724 649.41 65.86C649.759 65.8655 650.104 65.7793 650.41 65.61C650.701 65.4342 650.944 65.1906 651.12 64.9C651.333 64.5348 651.491 64.1407 651.59 63.73C651.71 63.2391 651.771 62.7354 651.77 62.23C651.77 62.23 651.77 62.1 651.77 61.98C651.521 62.3896 651.17 62.7274 650.751 62.9606C650.332 63.1937 649.859 63.3141 649.38 63.31C648.984 63.3188 648.59 63.2421 648.226 63.085C647.862 62.928 647.536 62.6944 647.27 62.4C646.977 62.0818 646.749 61.7084 646.602 61.3015C646.454 60.8946 646.389 60.4624 646.41 60.03C646.387 59.5814 646.455 59.1328 646.607 58.7104C646.76 58.288 646.996 57.9003 647.3 57.57C647.59 57.2651 647.942 57.0247 648.331 56.8644C648.72 56.7042 649.139 56.6277 649.56 56.64C650.202 56.6387 650.83 56.8281 651.364 57.1841C651.898 57.5402 652.314 58.0469 652.56 58.64C652.882 59.5402 653.025 60.4949 652.98 61.45C653.016 62.4865 652.874 63.5215 652.56 64.51C652.338 65.2026 651.909 65.8101 651.33 66.25C650.761 66.6454 650.083 66.8518 649.39 66.84C649.042 66.8644 648.693 66.8193 648.362 66.7074C648.032 66.5956 647.727 66.4191 647.466 66.1883C647.204 65.9575 646.991 65.677 646.839 65.3631C646.687 65.0493 646.599 64.7083 646.58 64.36L646.57 64.39ZM651.57 59.97C651.604 59.3544 651.4 58.7492 651 58.28C650.837 58.0824 650.633 57.9233 650.401 57.8144C650.169 57.7054 649.916 57.6493 649.66 57.65C649.386 57.6525 649.116 57.7136 648.868 57.8291C648.619 57.9447 648.398 58.1121 648.22 58.32C647.805 58.8026 647.587 59.4239 647.61 60.06C647.592 60.6359 647.8 61.196 648.19 61.62C648.372 61.8137 648.592 61.9671 648.836 62.0705C649.081 62.1738 649.345 62.2248 649.61 62.22C649.875 62.2292 650.138 62.1802 650.382 62.0766C650.625 61.9729 650.843 61.817 651.02 61.62C651.407 61.1702 651.614 60.5931 651.6 60L651.57 59.97Z" fill="#999999"/>
<path id="Vector_30" d="M657.8 67.2H656.53V56.64H665.13V67H663.86V66.2H657.8V67.2ZM663.86 60.79V57.67H657.8V60.79H663.86ZM663.86 65.17V61.82H657.8V65.17H663.86ZM678.08 59.86H680.66V60.73H678.36V62H680.22V62.87H678.36V64.18H680.22V65.06H678.36V66.42H681.1V67.31H675.57V67.86H674.64V61.78C674.331 62.194 673.964 62.5611 673.55 62.87L673.16 61.87C674.394 60.851 675.325 59.5122 675.85 58H674.58V59.2H673.66V57.07H676.07C676.21 56.49 676.34 55.87 676.44 55.22L677.53 55.48C677.65 55.6 677.61 55.71 677.42 55.81C677.32 56.25 677.21 56.67 677.1 57.07H681V59H680.06V58H676.89C676.709 58.6825 676.411 59.3286 676.01 59.91H677.17L677.87 58.27L678.87 58.48C679.05 58.56 679.01 58.65 678.76 58.77L678.08 59.86ZM668.85 57.34V56.34H673.49V57.34H671.58C671.524 58.4173 671.28 59.4766 670.86 60.47H673V67H672.07V66.11H670.64V67.55H669.72V62.59C669.514 62.9464 669.273 63.2814 669 63.59L668.3 62.67C669.6 61.1889 670.383 59.3251 670.53 57.36L668.85 57.34ZM675.57 62.87V64.18H677.42V62.87H675.57ZM675.57 60.73V62H677.42V60.73H675.57ZM675.57 65.06V66.42H677.42V65.06H675.57ZM670.64 61.34V65.22H672.07V61.34H670.64ZM687.22 61.45C687.796 61.3462 688.335 61.0943 688.783 60.7191C689.232 60.3438 689.576 59.8582 689.78 59.31L688.32 58.72L688.69 57.78L690 58.28L690.11 56.97H687.82V55.97H694.38L694.27 60.67C694.27 61.59 693.89 62.05 693.13 62.05H691.86L691.75 61.05H692.91C692.955 61.0568 693.001 61.0529 693.044 61.0387C693.087 61.0245 693.126 61.0004 693.158 60.9683C693.19 60.9362 693.215 60.897 693.229 60.8539C693.243 60.8108 693.247 60.7649 693.24 60.72L693.35 57.07H691.21L691.05 58.82L692.36 59.52L691.86 60.52L690.77 59.93C690.519 60.6075 690.103 61.2119 689.56 61.6885C689.017 62.1651 688.364 62.499 687.66 62.66L687.22 61.45ZM694.16 66.92C693.898 65.8901 693.436 64.9217 692.8 64.07L693.8 63.64C694.513 64.441 695.039 65.3906 695.34 66.42L694.16 66.92ZM686.83 63.47V67.68H685.91V67.31H684.05V67.9H683.11V63.47H686.83ZM687.27 66.98C687.548 65.9609 687.715 64.9149 687.77 63.86L688.86 63.97C688.94 63.97 688.86 64.09 688.75 64.23C688.73 65.249 688.562 66.2597 688.25 67.23L687.27 66.98ZM690.77 61.67C691.397 62.1147 691.92 62.6916 692.3 63.36L691.3 63.97C690.948 63.3304 690.511 62.7417 690 62.22L690.77 61.67ZM683.33 55.67H686.61V56.67H683.33V55.67ZM682.63 57.53H687.33V58.53H682.63V57.53ZM683.33 59.53H686.61V60.53H683.33V59.53ZM683.33 61.39H686.61V62.39H683.33V61.39ZM684.05 64.28V66.36H685.91V64.34L684.05 64.28ZM690.22 63.28C690.507 63.28 690.527 63.39 690.28 63.61V66.2C690.28 66.46 690.39 66.59 690.61 66.59H691.82C691.866 66.5941 691.913 66.5887 691.957 66.5741C692.001 66.5595 692.042 66.536 692.076 66.5051C692.111 66.4742 692.139 66.4365 692.159 66.3943C692.178 66.3522 692.189 66.3064 692.19 66.26L692.3 65.39L693.39 65.65L693.17 66.81C693.16 66.9306 693.126 67.048 693.07 67.1553C693.014 67.2626 692.937 67.3577 692.844 67.435C692.751 67.5123 692.644 67.5702 692.528 67.6054C692.412 67.6406 692.29 67.6524 692.17 67.64H690.09C689.48 67.64 689.17 67.3 689.17 66.64V63.31L690.22 63.28Z" fill="#999999"/>
<path id="Vector_31" d="M24.45 42.86C26.4342 42.1944 28.3662 41.3821 30.23 40.43V35.9H25.08V34.18H30.23V29.42H31.72C32.24 29.52 32.26 29.73 31.79 30.04V46.29H30.23V42.23C28.88 43.01 27.39 43.77 25.78 44.5C25.73 44.97 25.6 45.07 25.39 44.81L24.45 42.86ZM35.78 35.36C37.2216 34.5131 38.5634 33.5068 39.78 32.36L40.95 33.92C41.16 34.29 41.01 34.42 40.49 34.31C39.0036 35.3458 37.4273 36.246 35.78 37V43.72C35.78 44.13 35.96 44.34 36.33 44.34H39C39.47 44.34 39.73 44.18 39.78 43.87L40.17 41.87L41.97 42.26L41.5 44.61C41.4717 45.0211 41.2849 45.4052 40.979 45.6813C40.6731 45.9574 40.2719 46.1039 39.86 46.09H35.62C34.68 46.09 34.22 45.59 34.22 44.61V29.42H35.7C36.22 29.52 36.25 29.73 35.78 30.04V35.36ZM60.08 34.36V38.74H62.08V40.2H60.08L59.92 43.2H61.56V44.68H59.84L59.68 45.86C59.679 46.0097 59.6474 46.1576 59.5871 46.2947C59.5269 46.4317 59.4394 46.555 59.3299 46.6571C59.2203 46.7591 59.0911 46.8377 58.9501 46.8881C58.8092 46.9385 58.6594 46.9595 58.51 46.95H56.4L56.09 45.46H57.81C57.9024 45.4686 57.9946 45.4411 58.0673 45.3834C58.14 45.3256 58.1875 45.242 58.2 45.15L58.28 44.68H51.17L51 45.83H49.45L50.08 40.2H48.2V38.72H50.15L50.39 34.89C49.9962 35.3289 49.5789 35.7462 49.14 36.14L48 34.81C49.8119 33.2332 51.1369 31.1727 51.82 28.87L53.46 29.42C53.72 29.52 53.65 29.65 53.23 29.81L52.68 31.14H61.51V32.62H52C51.6718 33.2527 51.2504 33.8325 50.75 34.34L60.08 34.36ZM55.86 40.2L55.62 43.2H58.36L58.51 40.2H55.86ZM52 35.83L51.77 38.72H54.42L54.5 35.83H52ZM56 38.72H58.58V35.83H56V38.72ZM54.29 40.2H51.64L51.4 43.2H54.06L54.29 40.2ZM44.14 45.28C45.3444 43.59 46.2664 41.7156 46.87 39.73L48.2 40.73C47.7369 42.6366 46.9704 44.4565 45.93 46.12C45.99 46.64 45.86 46.77 45.54 46.51L44.14 45.28ZM47 37.86C46.1357 37.0971 45.1939 36.4268 44.19 35.86L45.28 34.38C46.3073 34.8551 47.2551 35.4858 48.09 36.25L47 37.86ZM47.78 33.17C46.8829 32.3802 45.9155 31.674 44.89 31.06L46.14 29.58C47.2145 30.1276 48.2213 30.7988 49.14 31.58L47.78 33.17ZM72.34 46.53C71.5026 46.5087 70.6779 46.3209 69.9139 45.9775C69.1499 45.6341 68.4619 45.142 67.89 44.53C67.0773 45.3425 66.1863 46.0728 65.23 46.71L64.37 45L67.18 43.43V38.48H64.61V37H68.75V43.4C69.2692 43.9466 69.9016 44.373 70.6029 44.6494C71.3043 44.9258 72.0575 45.0454 72.81 45H82.26L82 46.53H72.34ZM67.5 33.64C66.7201 32.535 65.8287 31.513 64.84 30.59L66.09 29.59C67.1237 30.454 68.0654 31.4225 68.9 32.48L67.5 33.64ZM76.56 32.7L75.7 34.18H80V44H78.67V43.4H72.5V44.26H71.17V34.18H74.17L74.71 32.7H69.45V31.45H72.89C72.4285 30.8724 71.9308 30.3246 71.4 29.81L72.65 28.87C73.2631 29.3761 73.8137 29.9535 74.29 30.59L73.12 31.45H76.25L77.25 28.79L78.97 29.11C79.18 29.31 79.1 29.44 78.74 29.5L77.56 31.45H81.78V32.7H76.56ZM78.67 40.7H72.5V42.18H78.67V40.7ZM78.67 38.12H72.5V39.45H78.67V38.12ZM78.67 35.46H72.5V36.87H78.67V35.46ZM94 34.18C93.12 39.3933 92.0534 42.6233 90.8 43.87C90.533 44.1693 90.2087 44.412 89.8463 44.5837C89.4839 44.7555 89.0907 44.8528 88.69 44.87C88.3256 44.8977 87.9593 44.8489 87.6149 44.7266C87.2705 44.6043 86.9554 44.4113 86.69 44.16C86.0736 43.5497 85.5888 42.8196 85.2655 42.0147C84.9421 41.2098 84.7871 40.3471 84.81 39.48C84.7928 38.3899 84.9986 37.3078 85.4147 36.3C85.8309 35.2923 86.4486 34.3803 87.23 33.62C88.0796 32.7603 89.0967 32.0842 90.2182 31.6335C91.3397 31.1829 92.5418 30.9672 93.75 31C94.7336 30.944 95.7183 31.0879 96.6447 31.423C97.5711 31.7582 98.42 32.2776 99.14 32.95C100.509 34.3254 101.29 36.1791 101.318 38.1197C101.346 40.0603 100.619 41.9357 99.29 43.35C98.0949 44.4343 96.7213 45.3037 95.23 45.92L93.59 44.28C95.1975 43.8318 96.6727 43.0015 97.89 41.86C98.3688 41.3944 98.7471 40.8356 99.0016 40.2182C99.2562 39.6008 99.3815 38.9378 99.37 38.27C99.3937 37.5045 99.2604 36.7423 98.9784 36.0303C98.6963 35.3183 98.2715 34.6716 97.73 34.13C96.64 33.03 94.92 32.54 92.57 32.64L93.98 33.35C94.61 33.59 94.61 33.87 94 34.18ZM92.2 32.7C90.8674 33.0003 89.6491 33.6772 88.69 34.65C88.0328 35.3026 87.5163 36.083 87.1723 36.9429C86.8283 37.8029 86.6642 38.7242 86.69 39.65C86.6665 40.2038 86.7584 40.7565 86.9598 41.2729C87.1612 41.7894 87.4678 42.2583 87.86 42.65C87.9544 42.7353 88.0651 42.8005 88.1854 42.8418C88.3057 42.883 88.4332 42.8994 88.56 42.89C88.9502 42.8377 89.3068 42.6415 89.56 42.34C90.74 41.12 91.6133 37.9067 92.18 32.7H92.2ZM111.34 45.51C113.48 44.37 114.55 42.41 114.55 39.65V30.65L116.19 30.96L120.41 29.63L121.58 31.2C121.68 31.51 121.5 31.56 121.03 31.35L116.11 32.29V35.65H122.28V37.13H119.94V46.9H118.38V37.15H116.11V40.15C116.164 41.5456 115.824 42.9281 115.129 44.1395C114.434 45.3509 113.412 46.3422 112.18 47L111.34 45.51ZM109.84 47H108.28V42.31C107.558 43.5269 106.631 44.6096 105.54 45.51L104.37 44.11C105.819 43.0514 107.052 41.724 108 40.2H104.72V38.72H108.24V37H104.24V35.51H109.71L110.57 32.7H104.79V31.22H108.23V29H109.71C110.13 29 110.16 29.21 109.79 29.47V31.19H113.23V32.7H112.23L111.14 35.51H113.64V37H109.81V38.72H113.25V40.2H109.81V40.9C110.882 41.3027 111.892 41.8548 112.81 42.54L112 44.11C111.368 43.4545 110.66 42.877 109.89 42.39L109.84 47ZM106.72 35.36C106.509 34.6282 106.221 33.9209 105.86 33.25L107.34 32.78C107.749 33.4368 108.065 34.1468 108.28 34.89L106.72 35.36ZM139.45 37.54H134.37V39.26H139.45V37.54ZM137.34 40.75H135.93V41.53C135.93 44.76 134.09 46.66 130.39 47.23L129.92 45.59C132.893 45.23 134.377 43.8233 134.37 41.37V40.75H132.81V29.81H141V40.75H138.9V44.65C138.9 45.07 139.09 45.28 139.45 45.28H140.23C140.49 45.28 140.65 45.02 140.7 44.5L140.86 43.17L142.42 43.64L142.18 45.43C142.181 45.618 142.143 45.8042 142.067 45.9762C141.99 46.1481 141.879 46.3021 141.739 46.4277C141.599 46.5534 141.434 46.648 141.255 46.7053C141.076 46.7626 140.887 46.7812 140.7 46.76H138.75C137.81 46.76 137.34 46.32 137.34 45.43V40.75ZM134.34 36.06H139.42V34.42H134.34V36.06ZM134.34 32.93H139.42V31.29H134.34V32.93ZM128.72 39.93C130.061 40.6088 131.297 41.4778 132.39 42.51L131.29 44.15C130.431 43.1565 129.461 42.2641 128.4 41.49C127.981 43.6191 126.818 45.5296 125.12 46.88L124 45.43C125.108 44.5347 125.985 43.3859 126.556 42.0805C127.127 40.7751 127.375 39.3516 127.28 37.93H124.28V36.45H127.28V33.64H124.78V32.15H127.28V29H128.76C129.18 29 129.21 29.21 128.84 29.47V32.12H131.58V33.61H128.9V36.42H132V37.9H128.79C128.82 38.77 128.8 39.42 128.75 39.89L128.72 39.93ZM148.79 36.18C149.732 37.3875 150.255 38.8689 150.28 40.4C150.28 42.4 149.68 43.4 148.48 43.4H147.54L147.23 41.84H148C148.52 41.84 148.76 41.29 148.71 40.2C148.683 38.7496 148.189 37.3465 147.3 36.2L148.86 31.12H146.44V46.76H144.88V29.89H149.25L149.57 29.5L150.89 30.67L150.58 30.98L148.79 36.18ZM160.12 40.55H159.34C158.507 44.35 155.72 46.54 150.98 47.12L150.51 45.63C154.58 45.32 157.02 43.63 157.86 40.55H156.76C155.88 42.74 154 44.07 151.14 44.55L150.67 43.22C153.07 42.7 154.553 41.8133 155.12 40.56H153.9C153.101 41.333 152.142 41.9202 151.09 42.28L150.47 40.95C151.232 40.7438 151.937 40.3665 152.532 39.8466C153.126 39.3267 153.594 38.678 153.9 37.95H150.39V36.68H162.11V37.93H155.54C155.335 38.4034 155.073 38.85 154.76 39.26H161.64L161.48 44.18C161.48 45.85 160.83 46.68 159.68 46.68H158.12L157.89 45.2H159.22C159.68 45.2 159.94 44.89 160 44.26L160.12 40.55ZM153.48 34.46H158.79V33.09H153.48V34.46ZM153.48 31.88H158.79V30.59H153.48V31.88ZM160.12 29.38V35.71H152.12V29.34L160.12 29.38ZM173.4 33.38H175.51V29.26H177C177.41 29.26 177.44 29.47 177.08 29.73V33.33H181.29V34.81H177.08V38.56H181.08V40H177.08V44.61H182.23V46.1H170.31V44.65H175.54V40H171.72V38.56H175.54V34.81H173C172.587 35.9309 172.008 36.9828 171.28 37.93L169.95 36.93C171.351 35.0459 172.261 32.8432 172.6 30.52L174.09 30.84C174.51 30.99 174.51 31.15 174.09 31.3L173.4 33.38ZM166.79 29H168.28C168.69 29 168.72 29.21 168.36 29.47V46.84H166.79V29ZM169.79 32.2C170.271 32.8487 170.665 33.5582 170.96 34.31L169.71 35.17C169.403 34.4143 169.028 33.688 168.59 33L169.79 32.2ZM166.35 33.06C166.72 33.16 166.72 33.32 166.35 33.53C166.265 35.1119 166.03 36.6822 165.65 38.22L164.17 37.75C164.628 36.1499 164.864 34.4944 164.87 32.83L166.35 33.06ZM199.17 37.59V46.65H197.6V45.9H190.6V46.9H189V39.81C187.615 40.5514 186.149 41.1286 184.63 41.53L184.08 40.12C185.79 39.6623 187.441 39.008 189 38.17V37.62H190.09C191.078 37.0716 192.021 36.4463 192.91 35.75H184.7V34.26H191.58V32.39H186.74V30.9H191.58V29H193C193.42 29 193.45 29.21 193.08 29.47V30.87H196.83V32.2C197.46 31.52 198.08 30.77 198.71 29.94L199.8 30.64C200.17 30.9 200.11 31.06 199.64 31.11C198.722 32.2259 197.719 33.269 196.64 34.23H202.03V35.72H195.03C194.251 36.4123 193.414 37.0378 192.53 37.59H199.17ZM194.64 34.23C195.382 33.6523 196.087 33.0277 196.75 32.36H193.15V34.23H194.64ZM190.54 41H197.54V38.87H190.54V41ZM190.54 44.67H197.54V42.23H190.54V44.67ZM217.73 40.92C218.597 38.8971 219.049 36.7208 219.06 34.52H216.4C216.413 36.7141 216.866 38.8833 217.73 40.9V40.92ZM220.62 34.52C220.644 37.2371 220.002 39.9187 218.75 42.33C219.721 43.4549 220.917 44.3644 222.26 45L221.26 46.72C219.901 45.9106 218.707 44.8521 217.74 43.6C216.185 45.1813 214.285 46.3824 212.19 47.11L211.41 45.55C214.123 44.4567 215.92 43.3367 216.8 42.19C215.953 40.5954 215.449 38.8411 215.32 37.04C215.085 37.6747 214.769 38.2764 214.38 38.83L213.05 37.83C214.703 35.2777 215.674 32.3443 215.87 29.31L217.51 29.7C217.82 29.91 217.74 30.07 217.27 30.17C217.117 31.1177 216.91 32.0559 216.65 32.98H222V34.5L220.62 34.52ZM213.36 30.77C213.094 31.4871 212.723 32.161 212.26 32.77L211 32C211.455 31.251 211.847 30.4648 212.17 29.65L213.58 30.36C213.8 30.56 213.72 30.69 213.36 30.75V30.77ZM208.36 41.77C209.027 41.9585 209.678 42.1958 210.31 42.48C210.795 41.8594 211.137 41.1387 211.31 40.37H209.05C208.85 40.83 208.62 41.29 208.36 41.76V41.77ZM207.26 43.77L206 43C206.566 42.1443 207.086 41.2598 207.56 40.35H204.56V39.11H208C208.268 38.5502 208.505 37.976 208.71 37.39L210.19 37.78C210.4 37.99 210.32 38.12 209.96 38.17L209.49 39.11H214V40.36H212.83C212.603 41.3069 212.199 42.2025 211.64 43C212.148 43.2309 212.642 43.4914 213.12 43.78L212.42 45.03C211.92 44.7092 211.398 44.4219 210.86 44.17C209.367 45.5913 207.442 46.4715 205.39 46.67L204.84 45.27C206.542 45.1862 208.178 44.5862 209.53 43.55C208.96 43.29 208.38 43.05 207.81 42.85L207.26 43.77ZM208.82 29H210.07C210.49 29 210.52 29.21 210.15 29.47V32.83H214.15V34.08H210.87C211.62 34.9075 212.519 35.5861 213.52 36.08L212.66 37.41C211.707 36.8293 210.861 36.0884 210.16 35.22V37.1H208.83V35.59C207.876 36.7362 206.712 37.6899 205.4 38.4L204.4 37.15C205.91 36.4102 207.267 35.3925 208.4 34.15H204.8V32.86H208.86L208.82 29ZM206.64 32.59C206.287 31.848 205.81 31.1716 205.23 30.59L206.48 29.81C207.065 30.3876 207.543 31.0649 207.89 31.81L206.64 32.59ZM234 34.18C233.12 39.3933 232.053 42.6233 230.8 43.87C230.533 44.1693 230.209 44.412 229.846 44.5837C229.484 44.7555 229.091 44.8528 228.69 44.87C228.334 44.8907 227.977 44.8384 227.642 44.7163C227.306 44.5942 227 44.4049 226.74 44.16C226.124 43.5497 225.639 42.8196 225.315 42.0147C224.992 41.2098 224.837 40.3471 224.86 39.48C224.843 38.3899 225.049 37.3078 225.465 36.3C225.881 35.2923 226.499 34.3803 227.28 33.62C228.124 32.7665 229.133 32.094 230.245 31.6435C231.358 31.1931 232.55 30.9741 233.75 31C234.734 30.944 235.718 31.0879 236.645 31.423C237.571 31.7582 238.42 32.2776 239.14 32.95C240.509 34.3254 241.29 36.1791 241.318 38.1197C241.346 40.0603 240.619 41.9357 239.29 43.35C238.095 44.4343 236.721 45.3037 235.23 45.92L233.59 44.28C235.197 43.8318 236.673 43.0015 237.89 41.86C238.369 41.3944 238.747 40.8356 239.002 40.2182C239.256 39.6008 239.382 38.9378 239.37 38.27C239.394 37.5045 239.26 36.7423 238.978 36.0303C238.696 35.3183 238.271 34.6716 237.73 34.13C236.64 33.03 234.92 32.54 232.57 32.64L233.98 33.35C234.61 33.59 234.61 33.87 234 34.18ZM232.2 32.7C230.867 33.0003 229.649 33.6772 228.69 34.65C228.033 35.3026 227.516 36.083 227.172 36.9429C226.828 37.8029 226.664 38.7242 226.69 39.65C226.667 40.2038 226.758 40.7565 226.96 41.2729C227.161 41.7894 227.468 42.2583 227.86 42.65C227.954 42.7353 228.065 42.8005 228.185 42.8418C228.306 42.883 228.433 42.8994 228.56 42.89C228.95 42.8377 229.307 42.6415 229.56 42.34C230.74 41.12 231.613 37.9067 232.18 32.7H232.2ZM249.78 35.83C251.697 33.8827 253.076 31.4705 253.78 28.83L255.34 29.3C255.6 29.51 255.55 29.64 255.18 29.69C254.77 30.69 254.35 31.69 253.93 32.58H256.28C256.786 31.5403 257.23 30.4718 257.61 29.38L259.09 29.93C259.3 30.14 259.22 30.27 258.86 30.32C258.49 31.15 258.13 31.91 257.76 32.58H261.76V34H257.76V36.42H260.96V37.9H257.76V40.4H260.96V41.89H257.76V44.78H262.21V46.26H253.62V47H252V35.67C251.647 36.1695 251.256 36.6409 250.83 37.08L249.78 35.83ZM245.88 46.83L245.56 45.35H246.89C246.933 45.3551 246.976 45.3503 247.017 45.3358C247.058 45.3214 247.094 45.2978 247.124 45.2668C247.154 45.2358 247.177 45.1983 247.19 45.1573C247.203 45.1162 247.206 45.0726 247.2 45.03V40.2L245.2 40.67C245.15 41.03 245.02 41.11 244.81 40.9L244.5 39.11L247.23 38.56V34.42H244.81V32.93H247.23V29H248.72C249.14 29.05 249.16 29.21 248.8 29.47V32.98H250.8V34.47H248.8V38.3L250.8 37.75L251.03 39.16L248.77 39.86V45.64C248.793 45.8096 248.777 45.9823 248.722 46.1445C248.668 46.3067 248.576 46.4541 248.455 46.5751C248.334 46.6961 248.187 46.7875 248.024 46.8422C247.862 46.8968 247.69 46.9132 247.52 46.89L245.88 46.83ZM253.61 44.83H256.19V41.92H253.61V44.83ZM253.61 40.45H256.19V37.95H253.61V40.45ZM253.61 36.45H256.19V34H253.61V36.45ZM279.86 31.14L280.1 30.83L281.35 31.83L281.11 32.07C280.176 33.9313 278.803 35.5375 277.11 36.75L277.89 36.99C278.25 37.14 278.23 37.3 277.81 37.46C277.724 37.7867 277.593 38.0998 277.42 38.39H280.78L281.01 38.08L282.42 39.08L282.11 39.39C280.443 43.8167 277.057 46.3167 271.95 46.89L271.33 45.4C273.4 45.2567 275.394 44.5665 277.11 43.4C276.433 42.717 275.701 42.0915 274.92 41.53C274.092 42.1868 273.168 42.7128 272.18 43.09L271.48 41.68C272.607 41.2942 273.638 40.669 274.501 39.8474C275.364 39.0258 276.039 38.0271 276.48 36.92C275.238 37.8639 273.793 38.5043 272.26 38.79L271.56 37.39C273.123 37.1471 274.628 36.6183 276 35.83C275.466 35.1862 274.835 34.6295 274.13 34.18C273.791 34.5246 273.423 34.8391 273.03 35.12L272 34C273.54 32.8017 274.683 31.1674 275.28 29.31L276.69 29.78C277.05 29.94 277.03 30.09 276.61 30.25C276.55 30.588 276.417 30.9088 276.22 31.19L279.86 31.14ZM269.24 34.14H271.81V35.63H269.24V37.58C270.362 38.091 271.38 38.8065 272.24 39.69L271.24 41.1C270.623 40.4648 269.972 39.8639 269.29 39.3V46.88H267.72V39.18C267.136 40.6699 266.262 42.0294 265.15 43.18L263.97 41.69C265.759 40.1087 267.017 38.0131 267.57 35.69H264.52V34.18H267.72V31.61L264.91 32L264.52 30.51C266.712 30.282 268.88 29.8638 271 29.26L271.86 30.43C272.07 30.75 271.94 30.85 271.47 30.75C270.74 30.96 270.01 31.14 269.29 31.29L269.24 34.14ZM274.94 33.21C275.752 33.6396 276.51 34.1632 277.2 34.77C277.982 34.0663 278.656 33.2508 279.2 32.35H275.6C275.418 32.6814 275.189 32.9845 274.92 33.25L274.94 33.21ZM275.8 40.63C276.693 41.1699 277.53 41.7963 278.3 42.5C279.213 41.7325 279.903 40.7346 280.3 39.61H276.71C276.44 39.9968 276.128 40.3524 275.78 40.67L275.8 40.63ZM287.8 33.29C288.524 31.893 289.504 30.6447 290.69 29.61L291.55 30.39C290.433 31.3564 289.508 32.5231 288.82 33.83C288.212 35.1799 287.918 36.6501 287.96 38.13C287.947 39.5106 288.24 40.8769 288.82 42.13C289.522 43.5571 290.447 44.8634 291.56 46L290.7 46.86C289.549 45.6209 288.576 44.2275 287.81 42.72C287.136 41.3058 286.794 39.7564 286.81 38.19C286.769 36.515 287.111 34.8527 287.81 33.33L287.8 33.29ZM298.9 45.9H297.11V30.83H309.37V45.59H307.58V44.5H298.9V45.9ZM307.58 36.76V32.31H298.9V36.76H307.58ZM307.58 43.01V38.25H298.9V43L307.58 43.01ZM322.34 39.81H319.34C319.148 41.202 318.675 42.5404 317.95 43.7438C317.224 44.9472 316.261 45.9904 315.12 46.81L314.34 45.33C315.484 44.5086 316.419 43.4301 317.071 42.1813C317.722 40.9325 318.071 39.5483 318.09 38.14L318.25 35.72H317.15V36.72H315.59V30H323.48V36.41H322V35.71H319.73L319.58 38.29H323.95L323.56 44.46C323.46 45.71 322.94 46.33 322 46.33H319.89L319.66 44.85H321.38C321.84 44.85 322.1 44.59 322.16 44.07L322.34 39.81ZM330.78 45.2C330.78 46.09 330.36 46.53 329.53 46.53H327.81L327.5 45H329C329.16 45 329.24 44.93 329.24 44.77V29.77H330.72C331.14 29.82 331.16 29.98 330.8 30.24L330.78 45.2ZM327 31.68C327.41 31.74 327.44 31.89 327.08 32.15V42.86H325.51V31.68H327ZM322 34.5V31.29H317.23V34.5H322ZM338.56 42.7C337.794 44.2075 336.821 45.6009 335.67 46.84L334.81 45.98C335.919 44.8556 336.844 43.563 337.55 42.15C338.125 40.8954 338.419 39.5301 338.41 38.15C338.447 36.6705 338.154 35.2013 337.55 33.85C336.859 32.5429 335.929 31.3763 334.81 30.41L335.67 29.63C336.859 30.6618 337.839 31.9108 338.56 33.31C339.256 34.8266 339.598 36.4817 339.56 38.15C339.563 39.7271 339.204 41.2838 338.51 42.7H338.56Z" fill="#757575"/>
</g>
<rect x="2" y="2" width="714" height="440" stroke="black" stroke-width="4"/>
</g>
<defs>
<clipPath id="clip0_1_2">
<rect width="718" height="444" fill="white"/>
</clipPath>
</defs>
</svg>
