<svg width="718" height="444" viewBox="0 0 718 444" fill="none" xmlns="http://www.w3.org/2000/svg">
<g id="Frame">
<g clip-path="url(#clip0_1_2019)">
<g id="iwate 1" clip-path="url(#clip1_1_2019)">
<path id="Vector" d="M0 0H718V444H0V0Z" fill="white"/>
<path id="Vector_2" d="M183.5 91.5V369.5" stroke="#CCCCCC" stroke-miterlimit="10"/>
<path id="Vector_3" d="M306.5 91.5V369.5" stroke="#CCCCCC" stroke-miterlimit="10"/>
<path id="Vector_4" d="M429.5 91.5V369.5" stroke="#CCCCCC" stroke-miterlimit="10"/>
<path id="Vector_5" d="M552.5 91.5V369.5" stroke="#CCCCCC" stroke-miterlimit="10"/>
<path id="Vector_6" d="M675.5 91.5V369.5" stroke="#CCCCCC" stroke-miterlimit="10"/>
<path id="Vector_7" d="M88.5 369.5H695.5" stroke="#333333" stroke-miterlimit="10"/>
<path id="Vector_8" d="M88.5 314.5H695.5" stroke="#CCCCCC" stroke-miterlimit="10"/>
<path id="Vector_9" d="M88.5 258.5H695.5" stroke="#CCCCCC" stroke-miterlimit="10"/>
<path id="Vector_10" d="M88.5 202.5H695.5" stroke="#CCCCCC" stroke-miterlimit="10"/>
<path id="Vector_11" d="M88.5 147.5H695.5" stroke="#CCCCCC" stroke-miterlimit="10"/>
<path id="Vector_12" d="M88.5 91.5H695.5" stroke="#CCCCCC" stroke-miterlimit="10"/>
<path id="Vector_13" d="M88.2 369.8H88.8156H89.4312H90.0468H90.6624H91.278H91.8936H92.5092H93.1248H93.7404H94.356H94.9716H95.5872H96.2029H96.8185H97.4341H98.0497H98.6653H99.2809H99.8965H100.512H101.128H101.743H102.359H102.974H103.59H104.206H104.821H105.437H106.052H106.668H107.284H107.899H108.515H109.131H109.746H110.362H110.977H111.593H112.209H112.824H113.44H114.055H114.671H115.287H115.902H116.518H117.133H117.749H118.365H118.98H119.596H120.211H120.827H121.443H122.058H122.674H123.289H123.905H124.521H125.136H125.752H126.367H126.983H127.599H128.214H128.83H129.445H130.061H130.677H131.292H131.908H132.523H133.139H133.755H134.37H134.986H135.601H136.217H136.833H137.448H138.064H138.679H139.295H139.911H140.526H141.142H141.757H142.373H142.989H143.604H144.22H144.835H145.451H146.067H146.682H147.298H147.913H148.529H149.145H149.76H150.376H150.992H151.607H152.223H152.838H153.454H154.07H154.685H155.301H155.916H156.532H157.148H157.763H158.379H158.994H159.61H160.226H160.841H161.457H162.072H162.688H163.304H163.919H164.535H165.15H165.766H166.382H166.997H167.613H168.228H168.844H169.46H170.075H170.691H171.306H171.922H172.538H173.153H173.769H174.384H175H175.616H176.231H176.847H177.462H178.078H178.694H179.309H179.925H180.54H181.156H181.772H182.387H183.003H183.618H184.234H184.85H185.465H186.081H186.696H187.312H187.928H188.543H189.159H189.774H190.39H191.006H191.621H192.237H192.852H193.468H194.084H194.699H195.315H195.931H196.546H197.162H197.777H198.393H199.009H199.624H200.24H200.855H201.471H202.087H202.702H203.318H203.933H204.549H205.165H205.78H206.396H207.011H207.627L208.243 369.577L208.858 369.689L209.474 369.8L210.089 369.689L210.705 369.8H211.321H211.936H212.552L213.167 369.689H213.783H214.399L215.014 369.8H215.63H216.245H216.861H217.477L218.092 369.689L218.708 369.8L219.323 369.689L219.939 369.8H220.555H221.17L221.786 369.689H222.401L223.017 369.8H223.633L224.248 369.689L224.864 369.8L225.479 369.689L226.095 369.132L226.711 369.8H227.326H227.942H228.557H229.173L229.789 369.466L230.404 369.8H231.02L231.635 369.689L232.251 369.8H232.867H233.482H234.098H234.713H235.329H235.945H236.56H237.176H237.792H238.407H239.023H239.638H240.254H240.87H241.485H242.101H242.716H243.332H243.948H244.563H245.179H245.794H246.41H247.026H247.641H248.257H248.872L249.488 369.689L250.104 369.8H250.719H251.335H251.95H252.566H253.182H253.797H254.413H255.028L255.644 369.689L256.26 369.8L256.875 369.689L257.491 369.8H258.106H258.722H259.338H259.953H260.569L261.184 369.689L261.8 369.8H262.416H263.031H263.647H264.262H264.878H265.494H266.109H266.725H267.34L267.956 369.689H268.572L269.187 369.8H269.803L270.418 369.689L271.034 369.8H271.65L272.265 369.689L272.881 368.687L273.496 369.689L274.112 368.13L274.728 369.021L275.343 369.243L275.959 369.132L276.574 369.355L277.19 368.687L277.806 368.909L278.421 367.462L279.037 368.13L279.653 369.355H280.268L280.884 368.242L281.499 369.021L282.115 368.353L282.731 369.355H283.346L283.962 368.909L284.577 369.466L285.193 368.687L285.809 369.355H286.424L287.04 369.689L287.655 369.021L288.271 369.8H288.887L289.502 369.355L290.118 369.689L290.733 369.243L291.349 367.351L291.965 365.013L292.58 369.021L293.196 369.355L293.811 368.798L294.427 369.466L295.043 368.798L295.658 369.8L296.274 369.466L296.889 369.243L297.505 369.689L298.121 369.243L298.736 369.577L299.352 369.243H299.967L300.583 368.687L301.199 368.798L301.814 369.021L302.43 369.689L303.045 369.577L303.661 369.466L304.277 369.355L304.892 369.577L305.508 369.466L306.123 369.8L306.739 369.132L307.355 369.577L307.97 369.466L308.586 369.243L309.201 369.021L309.817 368.464L310.433 369.466L311.048 369.577L311.664 368.687L312.279 369.243H312.895L313.511 369.466L314.126 368.687L314.742 369.355H315.357L315.973 368.909L316.589 369.689H317.204L317.82 369.577L318.435 369.689L319.051 369.8L319.667 369.689L320.282 369.132L320.898 369.8H321.514L322.129 369.689L322.745 369.8H323.36L323.976 369.466L324.592 369.132L325.207 369.355L325.823 369.577H326.438L327.054 369.689L327.67 369.8L328.285 369.577H328.901L329.516 369.689L330.132 369.8L330.748 369.689H331.363L331.979 369.466L332.594 369.132L333.21 368.798L333.826 369.355L334.441 369.132L335.057 369.355L335.672 369.8H336.288H336.904H337.519H338.135H338.75L339.366 369.689L339.982 369.8H340.597H341.213H341.828H342.444L343.06 369.689L343.675 369.8H344.291H344.906H345.522H346.138L346.753 369.577L347.369 369.689L347.984 369.466H348.6L349.216 369.689L349.831 369.8L350.447 369.132L351.062 369.355L351.678 368.909L352.294 369.577H352.909L353.525 369.689H354.14L354.756 369.577L355.372 369.243H355.987L356.603 369.466L357.218 369.355L357.834 369.689L358.45 369.243L359.065 369.021L359.681 367.017L360.296 366.794L360.912 368.242L361.528 367.908L362.143 369.689L362.759 368.909L363.375 368.798L363.99 368.687L364.606 369.243L365.221 368.909L365.837 369.021L366.453 368.798L367.068 369.577H367.684L368.299 369.132L368.915 369.466L369.531 369.577L370.146 369.466L370.762 369.577L371.377 369.243L371.993 368.909H372.609L373.224 368.798L373.84 366.794L374.455 368.687L375.071 369.466L375.687 369.021L376.302 368.798L376.918 366.015L377.533 368.575L378.149 365.792L378.765 367.351L379.38 367.796L379.996 368.242L380.611 368.798L381.227 366.683L381.843 367.574L382.458 367.908L383.074 368.13L383.689 368.353L384.305 367.796L384.921 368.019H385.536L386.152 367.128L386.767 366.683L387.383 367.908L387.999 367.796L388.614 368.019L389.23 367.796L389.845 367.017L390.461 368.353L391.077 367.685L391.692 368.575L392.308 368.798L392.923 368.353L393.539 368.13L394.155 368.019L394.77 368.575L395.386 367.574L396.001 368.798L396.617 369.132H397.233L397.848 367.908L398.464 369.021L399.079 368.798H399.695L400.311 368.464L400.926 368.909L401.542 369.132L402.157 367.796L402.773 368.242L403.389 368.019H404.004L404.62 368.687L405.235 368.798L405.851 369.021L406.467 368.687L407.082 369.355L407.698 369.243L408.313 369.021L408.929 369.689L409.545 369.8L410.16 369.243H410.776L411.391 368.687L412.007 369.355L412.623 369.577L413.238 368.909L413.854 369.8L414.47 369.466L415.085 368.798L415.701 369.577L416.316 368.464L416.932 368.242L417.548 369.132L418.163 367.908L418.779 369.021L419.394 368.798L420.01 368.909L420.626 368.464L421.241 368.909L421.857 368.242L422.472 368.464H423.088L423.704 368.909L424.319 369.132L424.935 368.798L425.55 368.687H426.166L426.782 369.355L427.397 369.132L428.013 368.798L428.628 369.243L429.244 368.909L429.86 368.464L430.475 368.353L431.091 368.575L431.706 368.687L432.322 367.908L432.938 368.464L433.553 367.685L434.169 367.462L434.784 368.798L435.4 368.242L436.016 367.462L436.631 367.685L437.247 368.353L437.862 366.683L438.478 365.459L439.094 367.462L439.709 368.353L440.325 366.906L440.94 365.347L441.556 365.792L442.172 363.789L442.787 364.123L443.403 365.125L444.018 366.906L444.634 365.013L445.25 364.568L445.865 364.679L446.481 362.787L447.096 367.017L447.712 367.574L448.328 369.466L448.943 365.459L449.559 365.347L450.174 366.46L450.79 365.236L451.406 365.125L452.021 363.343L452.637 367.796L453.253 365.904L453.868 364.902H454.484L455.099 364.457L455.715 365.125H456.331L456.946 367.017L457.562 367.351H458.177L458.793 366.683L459.409 367.462L460.024 367.128L460.64 367.685L461.255 368.909L461.871 368.13L462.487 367.796L463.102 368.575L463.718 369.577L464.333 368.13L464.949 369.021L465.565 369.689L466.18 369.577L466.796 369.243L467.411 369.577L468.027 369.8L468.643 369.689L469.258 369.466L469.874 369.689L470.489 369.8H471.105L471.721 369.689L472.336 369.577H472.952L473.567 369.8H474.183L474.799 369.577L475.414 369.689L476.03 369.8H476.645H477.261L477.877 369.689L478.492 369.8L479.108 369.577L479.723 369.8H480.339L480.955 369.689L481.57 369.8H482.186H482.801H483.417H484.033H484.648H485.264H485.879H486.495H487.111H487.726H488.342H488.957H489.573H490.189H490.804H491.42H492.035H492.651H493.267H493.882H494.498H495.113H495.729H496.345H496.96H497.576H498.192H498.807L499.423 369.689L500.038 369.8H500.654H501.27H501.885H502.501H503.116H503.732H504.348H504.963H505.579H506.194H506.81H507.426H508.041H508.657H509.272H509.888H510.504H511.119H511.735H512.35H512.966H513.582H514.197H514.813H515.428H516.044H516.66H517.275H517.891H518.506H519.122H519.738H520.353H520.969H521.584H522.2H522.816H523.431H524.047H524.662H525.278L525.894 369.689L526.509 369.8H527.125L527.74 369.355L528.356 369.8L528.972 369.689L529.587 369.8L530.203 369.466L530.818 369.689L531.434 369.466L532.05 369.132L532.665 368.909L533.281 368.687L533.896 369.243L534.512 369.689L535.128 369.243L535.743 369.132L536.359 368.798L536.974 366.349L537.59 367.574L538.206 368.019L538.821 368.909L539.437 367.574L540.052 367.128L540.668 368.019L541.284 365.792L541.899 363.9L542.515 363.789L543.13 364.234L543.746 357.889L544.362 352.434L544.977 357.666L545.593 352.768L546.208 353.102L546.824 358.445L547.44 358.334L548.055 352.991L548.671 350.987L549.286 350.876L549.902 352.434L550.518 350.208L551.133 357.11L551.749 358.445L552.365 349.985H552.98L553.596 348.427L554.211 347.536L554.827 355.551L555.443 350.653L556.058 359.113L556.674 341.525L557.289 342.081L557.905 342.304L558.521 342.415L559.136 335.959L559.752 341.191L560.367 354.66L560.983 325.495L561.599 324.715L562.214 346.534L562.83 328.055L563.445 328.946L564.061 339.076L564.677 350.987L565.292 328.946L565.908 340.412L566.523 332.174L567.139 342.861L567.755 340.3L568.37 349.094L568.986 359.559L569.601 335.513L570.217 336.849L570.833 338.296L571.448 344.196L572.064 339.187L572.679 350.319L573.295 357.889L573.911 332.285L574.526 332.953L575.142 341.859H575.757L576.373 342.527L576.989 352.434L577.604 355.328L578.22 361.451L578.835 338.074L579.451 339.187L580.067 342.638L580.682 340.189L581.298 349.206L581.913 356.998L582.529 343.417L583.145 342.527L583.76 340.968L584.376 345.198L584.992 344.085L585.607 348.649L586.223 357.889L586.838 320.819L587.454 319.706L588.07 328.723L588.685 323.157L589.301 327.944L589.916 341.636L590.532 355.551L591.148 320.374L591.763 321.376L592.379 329.168L592.994 336.738L593.61 333.621L594.226 342.304L594.841 353.77L595.457 325.049L596.072 325.383L596.688 326.385L597.304 326.274L597.919 327.944L598.535 340.523L599.15 355.328L599.766 324.047L600.382 333.398L600.997 338.519L601.613 338.296L602.228 355.885L602.844 349.874L603.46 358.111L604.075 334.289L604.691 351.766L605.306 349.206L605.922 352.879L606.538 321.153L607.153 338.63L607.769 348.761L608.384 325.495L609 337.851L609.616 341.747L610.231 339.744L610.847 337.295L611.462 343.083L612.078 355.662L612.694 336.293L613.309 338.964L613.925 342.304L614.54 341.747L615.156 343.862L615.772 352.657L616.387 359.67L617.003 337.629L617.618 341.747L618.234 341.413L618.85 347.536L619.465 346.868L620.081 351.877L620.696 364.011L621.312 348.983L621.928 348.315L622.543 351.321L623.159 349.985L623.774 350.319L624.39 355.885L625.006 364.011L625.621 348.427L626.237 353.213L626.852 356.442L627.468 357.777L628.084 354.215L628.699 359.67L629.315 363.9L629.93 350.542L630.546 350.208L631.162 356.553L631.777 359.781L632.393 357.221L633.008 362.119L633.624 363.566L634.24 358.111L634.855 361.006L635.471 362.23L636.087 361.674L636.702 360.894L637.318 365.347L637.933 366.46L638.549 359.113L639.165 359.893L639.78 360.226L640.396 361.674L641.011 360.115L641.627 358.334L642.243 364.011L642.858 355.996L643.474 344.976L644.089 346.645L644.705 347.202L645.321 335.959L645.936 341.191L646.552 349.651L647.167 333.732L647.783 303.342L648.399 307.906L649.014 304.789L649.63 304.121L650.245 308.129L650.861 326.497L651.477 331.951L652.092 303.676L652.708 261.263L653.323 261.152L653.939 252.803L654.555 268.387L655.17 302.785L655.786 289.984L656.401 249.908L657.017 256.81L657.633 266.495L658.248 256.81L658.864 262.376L659.479 270.169L660.095 272.061L660.711 254.25L661.326 257.923L661.942 254.695L662.557 243.786L663.173 261.931L663.789 280.41L664.404 281.412L665.02 204.824L665.635 216.958L666.251 245.901L666.867 244.231L667.482 246.569L668.098 281.969L668.714 261.931L669.329 228.869L669.945 198.701L670.56 185.565L671.176 186.679L671.792 145.268L672.407 222.301L673.023 219.518L673.638 165.528L674.254 204.601L674.87 225.084L675.485 251.133L676.101 264.38L676.716 306.57L677.332 288.202L677.948 224.973L678.563 240.446L679.179 265.827L679.794 266.829L680.41 280.744L681.026 305.68L681.641 296.885L682.257 229.982L682.872 275.735L683.488 288.759L684.104 292.099L684.719 304.344L685.335 327.944L685.95 320.151L686.566 281.412L687.182 303.008L687.797 316.366L688.413 317.814L689.028 326.051L689.644 336.961L690.26 341.747L690.875 319.706L691.491 298.221L692.106 328.055L692.722 329.947L693.338 328.834L693.953 325.829L694.569 323.046L695.184 325.161L695.8 329.725" stroke="#4285F4" stroke-width="2" stroke-miterlimit="10"/>
<path id="Vector_14" d="M379.922 418.8V410.206H382.891C383.557 410.206 384.068 410.248 384.422 410.331C384.911 410.446 385.328 410.649 385.672 410.941C386.13 411.326 386.469 411.821 386.688 412.425C386.917 413.019 387.031 413.696 387.031 414.456C387.031 415.112 386.953 415.691 386.797 416.191C386.651 416.691 386.458 417.107 386.219 417.441C385.979 417.774 385.714 418.034 385.422 418.222C385.141 418.409 384.802 418.555 384.406 418.659C384.01 418.753 383.552 418.8 383.031 418.8H379.922ZM381.062 417.784H382.891C383.464 417.784 383.911 417.732 384.234 417.628C384.557 417.524 384.812 417.373 385 417.175C385.271 416.915 385.479 416.555 385.625 416.097C385.781 415.639 385.859 415.086 385.859 414.441C385.859 413.545 385.708 412.857 385.406 412.378C385.115 411.889 384.76 411.56 384.344 411.394C384.031 411.279 383.542 411.222 382.875 411.222H381.062V417.784ZM392.859 418.034C392.464 418.368 392.083 418.602 391.719 418.737C391.365 418.873 390.979 418.941 390.562 418.941C389.875 418.941 389.349 418.774 388.984 418.441C388.62 418.107 388.438 417.68 388.438 417.159C388.438 416.857 388.505 416.581 388.641 416.331C388.776 416.071 388.958 415.868 389.188 415.722C389.417 415.566 389.672 415.451 389.953 415.378C390.151 415.316 390.464 415.258 390.891 415.206C391.734 415.112 392.359 414.993 392.766 414.847C392.766 414.701 392.766 414.612 392.766 414.581C392.766 414.144 392.667 413.836 392.469 413.659C392.198 413.43 391.797 413.316 391.266 413.316C390.776 413.316 390.411 413.404 390.172 413.581C389.932 413.748 389.755 414.05 389.641 414.487L388.609 414.347C388.703 413.909 388.859 413.555 389.078 413.284C389.297 413.014 389.609 412.805 390.016 412.659C390.422 412.514 390.891 412.441 391.422 412.441C391.953 412.441 392.385 412.503 392.719 412.628C393.052 412.753 393.297 412.909 393.453 413.097C393.609 413.284 393.719 413.524 393.781 413.816C393.812 413.993 393.828 414.316 393.828 414.784V416.191C393.828 417.17 393.849 417.79 393.891 418.05C393.943 418.31 394.036 418.56 394.172 418.8H393.062C392.958 418.581 392.891 418.326 392.859 418.034ZM392.766 415.675C392.38 415.831 391.807 415.967 391.047 416.081C390.609 416.144 390.302 416.217 390.125 416.3C389.948 416.373 389.807 416.482 389.703 416.628C389.609 416.774 389.562 416.941 389.562 417.128C389.562 417.409 389.667 417.644 389.875 417.831C390.094 418.019 390.406 418.112 390.812 418.112C391.219 418.112 391.578 418.024 391.891 417.847C392.214 417.67 392.448 417.425 392.594 417.112C392.708 416.873 392.766 416.524 392.766 416.066V415.675ZM398.094 417.862L398.25 418.784C397.948 418.847 397.682 418.878 397.453 418.878C397.068 418.878 396.771 418.821 396.562 418.706C396.354 418.581 396.203 418.42 396.109 418.222C396.026 418.024 395.984 417.607 395.984 416.972V413.394H395.219V412.581H395.984V411.034L397.031 410.409V412.581H398.094V413.394H397.031V417.034C397.031 417.336 397.047 417.529 397.078 417.612C397.12 417.696 397.182 417.764 397.266 417.816C397.349 417.868 397.469 417.894 397.625 417.894C397.75 417.894 397.906 417.883 398.094 417.862ZM403.047 416.8L404.141 416.925C403.974 417.56 403.656 418.055 403.188 418.409C402.719 418.764 402.125 418.941 401.406 418.941C400.5 418.941 399.776 418.659 399.234 418.097C398.703 417.534 398.438 416.748 398.438 415.737C398.438 414.696 398.708 413.889 399.25 413.316C399.792 412.732 400.49 412.441 401.344 412.441C402.177 412.441 402.854 412.722 403.375 413.284C403.906 413.847 404.172 414.644 404.172 415.675C404.172 415.737 404.172 415.831 404.172 415.956H399.531C399.573 416.644 399.766 417.17 400.109 417.534C400.453 417.889 400.885 418.066 401.406 418.066C401.792 418.066 402.12 417.967 402.391 417.769C402.672 417.56 402.891 417.237 403.047 416.8ZM399.594 415.097H403.062C403.021 414.566 402.891 414.17 402.672 413.909C402.328 413.503 401.891 413.3 401.359 413.3C400.87 413.3 400.458 413.461 400.125 413.784C399.802 414.107 399.625 414.545 399.594 415.097Z" fill="black"/>
<path id="Vector_15" d="M33.2 250.525H24.6062V249.4H33.2V250.525ZM33.2 246.712L26.9812 248.619V247.525L30.575 246.541L31.9031 246.166C31.8406 246.145 31.4135 246.035 30.6219 245.837L26.9812 244.853V243.775L30.5906 242.837L31.7781 242.525L30.575 242.166L26.9812 241.103V240.072L33.2 242.025V243.119L29.4656 244.103L28.4187 244.353L33.2 245.603V246.712ZM32.4344 234.791C32.7677 235.186 33.0021 235.567 33.1375 235.931C33.2729 236.285 33.3406 236.671 33.3406 237.087C33.3406 237.775 33.1739 238.301 32.8406 238.666C32.5073 239.03 32.0802 239.212 31.5594 239.212C31.2573 239.212 30.9812 239.145 30.7312 239.009C30.4708 238.874 30.2677 238.692 30.1219 238.462C29.9656 238.233 29.851 237.978 29.7781 237.697C29.7156 237.499 29.6583 237.186 29.6062 236.759C29.5125 235.916 29.3927 235.291 29.2469 234.884C29.101 234.884 29.0125 234.884 28.9812 234.884C28.5437 234.884 28.2364 234.983 28.0594 235.181C27.8302 235.452 27.7156 235.853 27.7156 236.384C27.7156 236.874 27.8041 237.239 27.9812 237.478C28.1479 237.718 28.45 237.895 28.8875 238.009L28.7469 239.041C28.3094 238.947 27.9552 238.791 27.6844 238.572C27.4135 238.353 27.2052 238.041 27.0594 237.634C26.9135 237.228 26.8406 236.759 26.8406 236.228C26.8406 235.697 26.9031 235.265 27.0281 234.931C27.1531 234.598 27.3094 234.353 27.4969 234.197C27.6844 234.041 27.9239 233.931 28.2156 233.869C28.3927 233.837 28.7156 233.822 29.1844 233.822H30.5906C31.5698 233.822 32.1896 233.801 32.45 233.759C32.7104 233.707 32.9604 233.614 33.2 233.478V234.587C32.9812 234.692 32.726 234.759 32.4344 234.791ZM30.075 234.884C30.2312 235.27 30.3666 235.843 30.4812 236.603C30.5437 237.041 30.6166 237.348 30.7 237.525C30.7729 237.702 30.8823 237.843 31.0281 237.947C31.1739 238.041 31.3406 238.087 31.5281 238.087C31.8094 238.087 32.0437 237.983 32.2312 237.775C32.4187 237.556 32.5125 237.244 32.5125 236.837C32.5125 236.431 32.4239 236.072 32.2469 235.759C32.0698 235.436 31.825 235.202 31.5125 235.056C31.2729 234.942 30.9239 234.884 30.4656 234.884H30.075ZM32.2625 229.556L33.1844 229.4C33.2469 229.702 33.2781 229.968 33.2781 230.197C33.2781 230.582 33.2208 230.879 33.1062 231.087C32.9812 231.296 32.8198 231.447 32.6219 231.541C32.4239 231.624 32.0073 231.666 31.3719 231.666H27.7937V232.431H26.9812V231.666H25.4344L24.8094 230.619H26.9812V229.556H27.7937V230.619H31.4344C31.7364 230.619 31.9291 230.603 32.0125 230.572C32.0958 230.53 32.1635 230.468 32.2156 230.384C32.2677 230.301 32.2937 230.181 32.2937 230.025C32.2937 229.9 32.2833 229.744 32.2625 229.556ZM31.2 224.603L31.325 223.509C31.9604 223.676 32.4552 223.994 32.8094 224.462C33.1635 224.931 33.3406 225.525 33.3406 226.244C33.3406 227.15 33.0594 227.874 32.4969 228.416C31.9344 228.947 31.1479 229.212 30.1375 229.212C29.0958 229.212 28.2885 228.942 27.7156 228.4C27.1323 227.858 26.8406 227.16 26.8406 226.306C26.8406 225.473 27.1219 224.796 27.6844 224.275C28.2469 223.744 29.0437 223.478 30.075 223.478C30.1375 223.478 30.2312 223.478 30.3562 223.478V228.119C31.0437 228.077 31.5698 227.884 31.9344 227.541C32.2885 227.197 32.4656 226.765 32.4656 226.244C32.4656 225.858 32.3666 225.53 32.1687 225.259C31.9604 224.978 31.6375 224.759 31.2 224.603ZM29.4969 228.056V224.587C28.9656 224.629 28.5698 224.759 28.3094 224.978C27.9031 225.322 27.7 225.759 27.7 226.291C27.7 226.78 27.8614 227.192 28.1844 227.525C28.5073 227.848 28.9448 228.025 29.4969 228.056Z" fill="black"/>
<path id="Vector_16" d="M75.7 369.566C75.7 368.545 75.8042 367.727 76.0125 367.112C76.2208 366.487 76.5281 366.008 76.9344 365.675C77.3511 365.342 77.8719 365.175 78.4969 365.175C78.9552 365.175 79.3563 365.269 79.7 365.456C80.0542 365.644 80.3458 365.915 80.575 366.269C80.8042 366.612 80.9813 367.034 81.1063 367.534C81.2313 368.034 81.2938 368.711 81.2938 369.566C81.2938 370.576 81.1896 371.389 80.9813 372.003C80.7833 372.618 80.4761 373.097 80.0594 373.441C79.6531 373.774 79.1323 373.941 78.4969 373.941C77.674 373.941 77.0229 373.644 76.5438 373.05C75.9813 372.342 75.7 371.18 75.7 369.566ZM76.7781 369.566C76.7781 370.972 76.9448 371.909 77.2781 372.378C77.6115 372.847 78.0177 373.081 78.4969 373.081C78.9865 373.081 79.3927 372.847 79.7156 372.378C80.049 371.909 80.2156 370.972 80.2156 369.566C80.2156 368.149 80.049 367.211 79.7156 366.753C79.3927 366.284 78.9813 366.05 78.4813 366.05C78.0021 366.05 77.6167 366.253 77.325 366.659C76.9604 367.18 76.7781 368.149 76.7781 369.566Z" fill="black"/>
<path id="Vector_17" d="M61.7 315.89L62.8094 315.796C62.8927 316.338 63.0802 316.744 63.3719 317.015C63.674 317.286 64.0386 317.421 64.4656 317.421C64.9656 317.421 65.3927 317.229 65.7469 316.843C66.1011 316.458 66.2781 315.953 66.2781 315.328C66.2781 314.723 66.1063 314.249 65.7625 313.906C65.4292 313.551 64.9865 313.374 64.4344 313.374C64.1011 313.374 63.7938 313.453 63.5125 313.609C63.2417 313.765 63.0281 313.963 62.8719 314.203L61.8875 314.078L62.7156 309.671H66.9969V310.671H63.5594L63.1063 312.984C63.6167 312.619 64.1531 312.437 64.7156 312.437C65.4656 312.437 66.0958 312.697 66.6063 313.218C67.1271 313.739 67.3875 314.411 67.3875 315.234C67.3875 316.005 67.1636 316.676 66.7156 317.249C66.1636 317.937 65.4136 318.281 64.4656 318.281C63.6844 318.281 63.0438 318.062 62.5438 317.624C62.0542 317.187 61.7729 316.609 61.7 315.89ZM68.7 313.906C68.7 312.885 68.8042 312.067 69.0125 311.453C69.2208 310.828 69.5281 310.348 69.9344 310.015C70.3511 309.682 70.8719 309.515 71.4969 309.515C71.9552 309.515 72.3563 309.609 72.7 309.796C73.0542 309.984 73.3458 310.255 73.575 310.609C73.8042 310.953 73.9813 311.374 74.1063 311.874C74.2313 312.374 74.2938 313.051 74.2938 313.906C74.2938 314.916 74.1896 315.729 73.9813 316.343C73.7833 316.958 73.4761 317.437 73.0594 317.781C72.6531 318.114 72.1323 318.281 71.4969 318.281C70.674 318.281 70.0229 317.984 69.5438 317.39C68.9813 316.682 68.7 315.52 68.7 313.906ZM69.7781 313.906C69.7781 315.312 69.9448 316.249 70.2781 316.718C70.6115 317.187 71.0177 317.421 71.4969 317.421C71.9865 317.421 72.3927 317.187 72.7156 316.718C73.049 316.249 73.2156 315.312 73.2156 313.906C73.2156 312.489 73.049 311.551 72.7156 311.093C72.3927 310.624 71.9813 310.39 71.4813 310.39C71.0021 310.39 70.6167 310.593 70.325 310.999C69.9604 311.52 69.7781 312.489 69.7781 313.906ZM75.7 313.906C75.7 312.885 75.8042 312.067 76.0125 311.453C76.2208 310.828 76.5281 310.348 76.9344 310.015C77.3511 309.682 77.8719 309.515 78.4969 309.515C78.9552 309.515 79.3563 309.609 79.7 309.796C80.0542 309.984 80.3458 310.255 80.575 310.609C80.8042 310.953 80.9813 311.374 81.1063 311.874C81.2313 312.374 81.2938 313.051 81.2938 313.906C81.2938 314.916 81.1896 315.729 80.9813 316.343C80.7833 316.958 80.4761 317.437 80.0594 317.781C79.6531 318.114 79.1323 318.281 78.4969 318.281C77.674 318.281 77.0229 317.984 76.5438 317.39C75.9813 316.682 75.7 315.52 75.7 313.906ZM76.7781 313.906C76.7781 315.312 76.9448 316.249 77.2781 316.718C77.6115 317.187 78.0177 317.421 78.4969 317.421C78.9865 317.421 79.3927 317.187 79.7156 316.718C80.049 316.249 80.2156 315.312 80.2156 313.906C80.2156 312.489 80.049 311.551 79.7156 311.093C79.3927 310.624 78.9813 310.39 78.4813 310.39C78.0021 310.39 77.6167 310.593 77.325 310.999C76.9604 311.52 76.7781 312.489 76.7781 313.906Z" fill="black"/>
<path id="Vector_18" d="M58.6688 262.48H57.6219V255.761C57.3615 256.001 57.0229 256.246 56.6063 256.496C56.2 256.735 55.8354 256.912 55.5125 257.027V256.011C56.0958 255.73 56.6063 255.397 57.0438 255.011C57.4917 254.615 57.8094 254.23 57.9969 253.855H58.6688V262.48ZM61.7 258.246C61.7 257.225 61.8042 256.407 62.0125 255.793C62.2208 255.168 62.5281 254.688 62.9344 254.355C63.3511 254.022 63.8719 253.855 64.4969 253.855C64.9552 253.855 65.3563 253.949 65.7 254.136C66.0542 254.324 66.3458 254.595 66.575 254.949C66.8042 255.293 66.9813 255.714 67.1063 256.214C67.2313 256.714 67.2938 257.391 67.2938 258.246C67.2938 259.256 67.1896 260.069 66.9813 260.683C66.7833 261.298 66.4761 261.777 66.0594 262.121C65.6531 262.454 65.1323 262.621 64.4969 262.621C63.674 262.621 63.0229 262.324 62.5438 261.73C61.9813 261.022 61.7 259.86 61.7 258.246ZM62.7781 258.246C62.7781 259.652 62.9448 260.589 63.2781 261.058C63.6115 261.527 64.0177 261.761 64.4969 261.761C64.9865 261.761 65.3927 261.527 65.7156 261.058C66.049 260.589 66.2156 259.652 66.2156 258.246C66.2156 256.829 66.049 255.891 65.7156 255.433C65.3927 254.964 64.9813 254.73 64.4813 254.73C64.0021 254.73 63.6167 254.933 63.325 255.339C62.9604 255.86 62.7781 256.829 62.7781 258.246ZM68.7 258.246C68.7 257.225 68.8042 256.407 69.0125 255.793C69.2208 255.168 69.5281 254.688 69.9344 254.355C70.3511 254.022 70.8719 253.855 71.4969 253.855C71.9552 253.855 72.3563 253.949 72.7 254.136C73.0542 254.324 73.3458 254.595 73.575 254.949C73.8042 255.293 73.9813 255.714 74.1063 256.214C74.2313 256.714 74.2938 257.391 74.2938 258.246C74.2938 259.256 74.1896 260.069 73.9813 260.683C73.7833 261.298 73.4761 261.777 73.0594 262.121C72.6531 262.454 72.1323 262.621 71.4969 262.621C70.674 262.621 70.0229 262.324 69.5438 261.73C68.9813 261.022 68.7 259.86 68.7 258.246ZM69.7781 258.246C69.7781 259.652 69.9448 260.589 70.2781 261.058C70.6115 261.527 71.0177 261.761 71.4969 261.761C71.9865 261.761 72.3927 261.527 72.7156 261.058C73.049 260.589 73.2156 259.652 73.2156 258.246C73.2156 256.829 73.049 255.891 72.7156 255.433C72.3927 254.964 71.9813 254.73 71.4813 254.73C71.0021 254.73 70.6167 254.933 70.325 255.339C69.9604 255.86 69.7781 256.829 69.7781 258.246ZM75.7 258.246C75.7 257.225 75.8042 256.407 76.0125 255.793C76.2208 255.168 76.5281 254.688 76.9344 254.355C77.3511 254.022 77.8719 253.855 78.4969 253.855C78.9552 253.855 79.3563 253.949 79.7 254.136C80.0542 254.324 80.3458 254.595 80.575 254.949C80.8042 255.293 80.9813 255.714 81.1063 256.214C81.2313 256.714 81.2938 257.391 81.2938 258.246C81.2938 259.256 81.1896 260.069 80.9813 260.683C80.7833 261.298 80.4761 261.777 80.0594 262.121C79.6531 262.454 79.1323 262.621 78.4969 262.621C77.674 262.621 77.0229 262.324 76.5438 261.73C75.9813 261.022 75.7 259.86 75.7 258.246ZM76.7781 258.246C76.7781 259.652 76.9448 260.589 77.2781 261.058C77.6115 261.527 78.0177 261.761 78.4969 261.761C78.9865 261.761 79.3927 261.527 79.7156 261.058C80.049 260.589 80.2156 259.652 80.2156 258.246C80.2156 256.829 80.049 255.891 79.7156 255.433C79.3927 254.964 78.9813 254.73 78.4813 254.73C78.0021 254.73 77.6167 254.933 77.325 255.339C76.9604 255.86 76.7781 256.829 76.7781 258.246Z" fill="black"/>
<path id="Vector_19" d="M58.6688 206.82H57.6219V200.101C57.3615 200.341 57.0229 200.586 56.6063 200.836C56.2 201.075 55.8354 201.252 55.5125 201.367V200.351C56.0958 200.07 56.6063 199.737 57.0438 199.351C57.4917 198.955 57.8094 198.57 57.9969 198.195H58.6688V206.82ZM61.7 204.57L62.8094 204.476C62.8927 205.018 63.0802 205.424 63.3719 205.695C63.674 205.966 64.0386 206.101 64.4656 206.101C64.9656 206.101 65.3927 205.909 65.7469 205.523C66.1011 205.138 66.2781 204.633 66.2781 204.008C66.2781 203.403 66.1063 202.929 65.7625 202.586C65.4292 202.231 64.9865 202.054 64.4344 202.054C64.1011 202.054 63.7938 202.133 63.5125 202.289C63.2417 202.445 63.0281 202.643 62.8719 202.883L61.8875 202.758L62.7156 198.351H66.9969V199.351H63.5594L63.1063 201.664C63.6167 201.299 64.1531 201.117 64.7156 201.117C65.4656 201.117 66.0958 201.377 66.6063 201.898C67.1271 202.419 67.3875 203.091 67.3875 203.914C67.3875 204.685 67.1636 205.356 66.7156 205.929C66.1636 206.617 65.4136 206.961 64.4656 206.961C63.6844 206.961 63.0438 206.742 62.5438 206.304C62.0542 205.867 61.7729 205.289 61.7 204.57ZM68.7 202.586C68.7 201.565 68.8042 200.747 69.0125 200.133C69.2208 199.508 69.5281 199.028 69.9344 198.695C70.3511 198.362 70.8719 198.195 71.4969 198.195C71.9552 198.195 72.3563 198.289 72.7 198.476C73.0542 198.664 73.3458 198.935 73.575 199.289C73.8042 199.633 73.9813 200.054 74.1063 200.554C74.2313 201.054 74.2938 201.731 74.2938 202.586C74.2938 203.596 74.1896 204.409 73.9813 205.023C73.7833 205.638 73.4761 206.117 73.0594 206.461C72.6531 206.794 72.1323 206.961 71.4969 206.961C70.674 206.961 70.0229 206.664 69.5438 206.07C68.9813 205.362 68.7 204.2 68.7 202.586ZM69.7781 202.586C69.7781 203.992 69.9448 204.929 70.2781 205.398C70.6115 205.867 71.0177 206.101 71.4969 206.101C71.9865 206.101 72.3927 205.867 72.7156 205.398C73.049 204.929 73.2156 203.992 73.2156 202.586C73.2156 201.169 73.049 200.231 72.7156 199.773C72.3927 199.304 71.9813 199.07 71.4813 199.07C71.0021 199.07 70.6167 199.273 70.325 199.679C69.9604 200.2 69.7781 201.169 69.7781 202.586ZM75.7 202.586C75.7 201.565 75.8042 200.747 76.0125 200.133C76.2208 199.508 76.5281 199.028 76.9344 198.695C77.3511 198.362 77.8719 198.195 78.4969 198.195C78.9552 198.195 79.3563 198.289 79.7 198.476C80.0542 198.664 80.3458 198.935 80.575 199.289C80.8042 199.633 80.9813 200.054 81.1063 200.554C81.2313 201.054 81.2938 201.731 81.2938 202.586C81.2938 203.596 81.1896 204.409 80.9813 205.023C80.7833 205.638 80.4761 206.117 80.0594 206.461C79.6531 206.794 79.1323 206.961 78.4969 206.961C77.674 206.961 77.0229 206.664 76.5438 206.07C75.9813 205.362 75.7 204.2 75.7 202.586ZM76.7781 202.586C76.7781 203.992 76.9448 204.929 77.2781 205.398C77.6115 205.867 78.0177 206.101 78.4969 206.101C78.9865 206.101 79.3927 205.867 79.7156 205.398C80.049 204.929 80.2156 203.992 80.2156 202.586C80.2156 201.169 80.049 200.231 79.7156 199.773C79.3927 199.304 78.9813 199.07 78.4813 199.07C78.0021 199.07 77.6167 199.273 77.325 199.679C76.9604 200.2 76.7781 201.169 76.7781 202.586Z" fill="black"/>
<path id="Vector_20" d="M60.2469 150.144V151.16H54.5594C54.5594 150.91 54.6011 150.665 54.6844 150.426C54.8302 150.04 55.0594 149.66 55.3719 149.285C55.6948 148.91 56.1583 148.478 56.7625 147.988C57.7 147.217 58.3302 146.608 58.6531 146.16C58.9865 145.712 59.1531 145.29 59.1531 144.894C59.1531 144.478 59.0021 144.129 58.7 143.848C58.3979 143.556 58.0073 143.41 57.5281 143.41C57.0177 143.41 56.6115 143.561 56.3094 143.863C56.0073 144.165 55.8511 144.587 55.8406 145.129L54.7625 145.019C54.8354 144.207 55.1115 143.592 55.5906 143.176C56.0802 142.749 56.7365 142.535 57.5594 142.535C58.3823 142.535 59.0333 142.764 59.5125 143.223C59.9917 143.681 60.2313 144.249 60.2313 144.926C60.2313 145.269 60.1583 145.608 60.0125 145.941C59.8771 146.264 59.6427 146.613 59.3094 146.988C58.9865 147.353 58.45 147.853 57.7 148.488C57.0646 149.019 56.6531 149.384 56.4656 149.582C56.2886 149.769 56.1427 149.957 56.0281 150.144H60.2469ZM61.7 146.926C61.7 145.905 61.8042 145.087 62.0125 144.473C62.2208 143.848 62.5281 143.368 62.9344 143.035C63.3511 142.702 63.8719 142.535 64.4969 142.535C64.9552 142.535 65.3563 142.629 65.7 142.816C66.0542 143.004 66.3458 143.275 66.575 143.629C66.8042 143.973 66.9813 144.394 67.1063 144.894C67.2313 145.394 67.2938 146.071 67.2938 146.926C67.2938 147.936 67.1896 148.749 66.9813 149.363C66.7833 149.978 66.4761 150.457 66.0594 150.801C65.6531 151.134 65.1323 151.301 64.4969 151.301C63.674 151.301 63.0229 151.004 62.5438 150.41C61.9813 149.702 61.7 148.54 61.7 146.926ZM62.7781 146.926C62.7781 148.332 62.9448 149.269 63.2781 149.738C63.6115 150.207 64.0177 150.441 64.4969 150.441C64.9865 150.441 65.3927 150.207 65.7156 149.738C66.049 149.269 66.2156 148.332 66.2156 146.926C66.2156 145.509 66.049 144.571 65.7156 144.113C65.3927 143.644 64.9813 143.41 64.4813 143.41C64.0021 143.41 63.6167 143.613 63.325 144.019C62.9604 144.54 62.7781 145.509 62.7781 146.926ZM68.7 146.926C68.7 145.905 68.8042 145.087 69.0125 144.473C69.2208 143.848 69.5281 143.368 69.9344 143.035C70.3511 142.702 70.8719 142.535 71.4969 142.535C71.9552 142.535 72.3563 142.629 72.7 142.816C73.0542 143.004 73.3458 143.275 73.575 143.629C73.8042 143.973 73.9813 144.394 74.1063 144.894C74.2313 145.394 74.2938 146.071 74.2938 146.926C74.2938 147.936 74.1896 148.749 73.9813 149.363C73.7833 149.978 73.4761 150.457 73.0594 150.801C72.6531 151.134 72.1323 151.301 71.4969 151.301C70.674 151.301 70.0229 151.004 69.5438 150.41C68.9813 149.702 68.7 148.54 68.7 146.926ZM69.7781 146.926C69.7781 148.332 69.9448 149.269 70.2781 149.738C70.6115 150.207 71.0177 150.441 71.4969 150.441C71.9865 150.441 72.3927 150.207 72.7156 149.738C73.049 149.269 73.2156 148.332 73.2156 146.926C73.2156 145.509 73.049 144.571 72.7156 144.113C72.3927 143.644 71.9813 143.41 71.4813 143.41C71.0021 143.41 70.6167 143.613 70.325 144.019C69.9604 144.54 69.7781 145.509 69.7781 146.926ZM75.7 146.926C75.7 145.905 75.8042 145.087 76.0125 144.473C76.2208 143.848 76.5281 143.368 76.9344 143.035C77.3511 142.702 77.8719 142.535 78.4969 142.535C78.9552 142.535 79.3563 142.629 79.7 142.816C80.0542 143.004 80.3458 143.275 80.575 143.629C80.8042 143.973 80.9813 144.394 81.1063 144.894C81.2313 145.394 81.2938 146.071 81.2938 146.926C81.2938 147.936 81.1896 148.749 80.9813 149.363C80.7833 149.978 80.4761 150.457 80.0594 150.801C79.6531 151.134 79.1323 151.301 78.4969 151.301C77.674 151.301 77.0229 151.004 76.5438 150.41C75.9813 149.702 75.7 148.54 75.7 146.926ZM76.7781 146.926C76.7781 148.332 76.9448 149.269 77.2781 149.738C77.6115 150.207 78.0177 150.441 78.4969 150.441C78.9865 150.441 79.3927 150.207 79.7156 149.738C80.049 149.269 80.2156 148.332 80.2156 146.926C80.2156 145.509 80.049 144.571 79.7156 144.113C79.3927 143.644 78.9813 143.41 78.4813 143.41C78.0021 143.41 77.6167 143.613 77.325 144.019C76.9604 144.54 76.7781 145.509 76.7781 146.926Z" fill="black"/>
<path id="Vector_21" d="M60.2469 94.4844V95.5H54.5594C54.5594 95.25 54.6011 95.0052 54.6844 94.7656C54.8302 94.3802 55.0594 94 55.3719 93.625C55.6948 93.25 56.1583 92.8177 56.7625 92.3281C57.7 91.5573 58.3302 90.9479 58.6531 90.5C58.9865 90.0521 59.1531 89.6302 59.1531 89.2344C59.1531 88.8177 59.0021 88.4688 58.7 88.1875C58.3979 87.8958 58.0073 87.75 57.5281 87.75C57.0177 87.75 56.6115 87.901 56.3094 88.2031C56.0073 88.5052 55.8511 88.9271 55.8406 89.4688L54.7625 89.3594C54.8354 88.5469 55.1115 87.9323 55.5906 87.5156C56.0802 87.0885 56.7365 86.875 57.5594 86.875C58.3823 86.875 59.0333 87.1042 59.5125 87.5625C59.9917 88.0208 60.2313 88.5885 60.2313 89.2656C60.2313 89.6094 60.1583 89.9479 60.0125 90.2812C59.8771 90.6042 59.6427 90.9531 59.3094 91.3281C58.9865 91.6927 58.45 92.1927 57.7 92.8281C57.0646 93.3594 56.6531 93.724 56.4656 93.9219C56.2886 94.1094 56.1427 94.2969 56.0281 94.4844H60.2469ZM61.7 93.25L62.8094 93.1562C62.8927 93.6979 63.0802 94.1042 63.3719 94.375C63.674 94.6458 64.0386 94.7812 64.4656 94.7812C64.9656 94.7812 65.3927 94.5885 65.7469 94.2031C66.1011 93.8177 66.2781 93.3125 66.2781 92.6875C66.2781 92.0833 66.1063 91.6094 65.7625 91.2656C65.4292 90.9115 64.9865 90.7344 64.4344 90.7344C64.1011 90.7344 63.7938 90.8125 63.5125 90.9688C63.2417 91.125 63.0281 91.3229 62.8719 91.5625L61.8875 91.4375L62.7156 87.0312H66.9969V88.0312H63.5594L63.1063 90.3438C63.6167 89.9792 64.1531 89.7969 64.7156 89.7969C65.4656 89.7969 66.0958 90.0573 66.6063 90.5781C67.1271 91.099 67.3875 91.7708 67.3875 92.5938C67.3875 93.3646 67.1636 94.0365 66.7156 94.6094C66.1636 95.2969 65.4136 95.6406 64.4656 95.6406C63.6844 95.6406 63.0438 95.4219 62.5438 94.9844C62.0542 94.5469 61.7729 93.9688 61.7 93.25ZM68.7 91.2656C68.7 90.2448 68.8042 89.4271 69.0125 88.8125C69.2208 88.1875 69.5281 87.7083 69.9344 87.375C70.3511 87.0417 70.8719 86.875 71.4969 86.875C71.9552 86.875 72.3563 86.9688 72.7 87.1562C73.0542 87.3438 73.3458 87.6146 73.575 87.9688C73.8042 88.3125 73.9813 88.7344 74.1063 89.2344C74.2313 89.7344 74.2938 90.4115 74.2938 91.2656C74.2938 92.276 74.1896 93.0885 73.9813 93.7031C73.7833 94.3177 73.4761 94.7969 73.0594 95.1406C72.6531 95.474 72.1323 95.6406 71.4969 95.6406C70.674 95.6406 70.0229 95.3438 69.5438 94.75C68.9813 94.0417 68.7 92.8802 68.7 91.2656ZM69.7781 91.2656C69.7781 92.6719 69.9448 93.6094 70.2781 94.0781C70.6115 94.5469 71.0177 94.7812 71.4969 94.7812C71.9865 94.7812 72.3927 94.5469 72.7156 94.0781C73.049 93.6094 73.2156 92.6719 73.2156 91.2656C73.2156 89.849 73.049 88.9115 72.7156 88.4531C72.3927 87.9844 71.9813 87.75 71.4813 87.75C71.0021 87.75 70.6167 87.9531 70.325 88.3594C69.9604 88.8802 69.7781 89.849 69.7781 91.2656ZM75.7 91.2656C75.7 90.2448 75.8042 89.4271 76.0125 88.8125C76.2208 88.1875 76.5281 87.7083 76.9344 87.375C77.3511 87.0417 77.8719 86.875 78.4969 86.875C78.9552 86.875 79.3563 86.9688 79.7 87.1562C80.0542 87.3438 80.3458 87.6146 80.575 87.9688C80.8042 88.3125 80.9813 88.7344 81.1063 89.2344C81.2313 89.7344 81.2938 90.4115 81.2938 91.2656C81.2938 92.276 81.1896 93.0885 80.9813 93.7031C80.7833 94.3177 80.4761 94.7969 80.0594 95.1406C79.6531 95.474 79.1323 95.6406 78.4969 95.6406C77.674 95.6406 77.0229 95.3438 76.5438 94.75C75.9813 94.0417 75.7 92.8802 75.7 91.2656ZM76.7781 91.2656C76.7781 92.6719 76.9448 93.6094 77.2781 94.0781C77.6115 94.5469 78.0177 94.7812 78.4969 94.7812C78.9865 94.7812 79.3927 94.5469 79.7156 94.0781C80.049 93.6094 80.2156 92.6719 80.2156 91.2656C80.2156 89.849 80.049 88.9115 79.7156 88.4531C79.3927 87.9844 78.9813 87.75 78.4813 87.75C78.0021 87.75 77.6167 87.9531 77.325 88.3594C76.9604 88.8802 76.7781 89.849 76.7781 91.2656Z" fill="black"/>
<path id="Vector_22" d="M169.378 386.8V384.737H165.659V383.769L169.581 378.206H170.44V383.769H171.597V384.737H170.44V386.8H169.378ZM169.378 383.769V379.909L166.69 383.769H169.378ZM176.378 386.8V384.737H172.659V383.769L176.581 378.206H177.44V383.769H178.597V384.737H177.44V386.8H176.378ZM176.378 383.769V379.909L173.69 383.769H176.378ZM180.003 382.566C180.003 381.545 180.107 380.727 180.315 380.112C180.524 379.487 180.831 379.008 181.237 378.675C181.654 378.342 182.175 378.175 182.8 378.175C183.258 378.175 183.659 378.269 184.003 378.456C184.357 378.644 184.649 378.915 184.878 379.269C185.107 379.612 185.284 380.034 185.409 380.534C185.534 381.034 185.597 381.711 185.597 382.566C185.597 383.576 185.492 384.389 185.284 385.003C185.086 385.618 184.779 386.097 184.362 386.441C183.956 386.774 183.435 386.941 182.8 386.941C181.977 386.941 181.326 386.644 180.847 386.05C180.284 385.342 180.003 384.18 180.003 382.566ZM181.081 382.566C181.081 383.972 181.248 384.909 181.581 385.378C181.914 385.847 182.321 386.081 182.8 386.081C183.289 386.081 183.696 385.847 184.018 385.378C184.352 384.909 184.518 383.972 184.518 382.566C184.518 381.149 184.352 380.211 184.018 379.753C183.696 379.284 183.284 379.05 182.784 379.05C182.305 379.05 181.92 379.253 181.628 379.659C181.263 380.18 181.081 381.149 181.081 382.566ZM187.003 382.566C187.003 381.545 187.107 380.727 187.315 380.112C187.524 379.487 187.831 379.008 188.237 378.675C188.654 378.342 189.175 378.175 189.8 378.175C190.258 378.175 190.659 378.269 191.003 378.456C191.357 378.644 191.649 378.915 191.878 379.269C192.107 379.612 192.284 380.034 192.409 380.534C192.534 381.034 192.597 381.711 192.597 382.566C192.597 383.576 192.492 384.389 192.284 385.003C192.086 385.618 191.779 386.097 191.362 386.441C190.956 386.774 190.435 386.941 189.8 386.941C188.977 386.941 188.326 386.644 187.847 386.05C187.284 385.342 187.003 384.18 187.003 382.566ZM188.081 382.566C188.081 383.972 188.248 384.909 188.581 385.378C188.914 385.847 189.321 386.081 189.8 386.081C190.289 386.081 190.696 385.847 191.018 385.378C191.352 384.909 191.518 383.972 191.518 382.566C191.518 381.149 191.352 380.211 191.018 379.753C190.696 379.284 190.284 379.05 189.784 379.05C189.305 379.05 188.92 379.253 188.628 379.659C188.263 380.18 188.081 381.149 188.081 382.566ZM194.003 382.566C194.003 381.545 194.107 380.727 194.315 380.112C194.524 379.487 194.831 379.008 195.237 378.675C195.654 378.342 196.175 378.175 196.8 378.175C197.258 378.175 197.659 378.269 198.003 378.456C198.357 378.644 198.649 378.915 198.878 379.269C199.107 379.612 199.284 380.034 199.409 380.534C199.534 381.034 199.597 381.711 199.597 382.566C199.597 383.576 199.492 384.389 199.284 385.003C199.086 385.618 198.779 386.097 198.362 386.441C197.956 386.774 197.435 386.941 196.8 386.941C195.977 386.941 195.326 386.644 194.847 386.05C194.284 385.342 194.003 384.18 194.003 382.566ZM195.081 382.566C195.081 383.972 195.248 384.909 195.581 385.378C195.914 385.847 196.321 386.081 196.8 386.081C197.289 386.081 197.696 385.847 198.018 385.378C198.352 384.909 198.518 383.972 198.518 382.566C198.518 381.149 198.352 380.211 198.018 379.753C197.696 379.284 197.284 379.05 196.784 379.05C196.305 379.05 195.92 379.253 195.628 379.659C195.263 380.18 195.081 381.149 195.081 382.566Z" fill="black"/>
<path id="Vector_23" d="M292.498 386.8V384.737H288.78V383.769L292.702 378.206H293.561V383.769H294.717V384.737H293.561V386.8H292.498ZM292.498 383.769V379.909L289.811 383.769H292.498ZM299.498 386.8V384.737H295.78V383.769L299.702 378.206H300.561V383.769H301.717V384.737H300.561V386.8H299.498ZM299.498 383.769V379.909L296.811 383.769H299.498ZM308.67 385.784V386.8H302.983C302.983 386.55 303.024 386.305 303.108 386.066C303.254 385.68 303.483 385.3 303.795 384.925C304.118 384.55 304.582 384.118 305.186 383.628C306.123 382.857 306.754 382.248 307.077 381.8C307.41 381.352 307.577 380.93 307.577 380.534C307.577 380.118 307.426 379.769 307.123 379.487C306.821 379.196 306.431 379.05 305.952 379.05C305.441 379.05 305.035 379.201 304.733 379.503C304.431 379.805 304.274 380.227 304.264 380.769L303.186 380.659C303.259 379.847 303.535 379.232 304.014 378.816C304.504 378.389 305.16 378.175 305.983 378.175C306.806 378.175 307.457 378.404 307.936 378.862C308.415 379.321 308.655 379.889 308.655 380.566C308.655 380.909 308.582 381.248 308.436 381.581C308.301 381.904 308.066 382.253 307.733 382.628C307.41 382.993 306.873 383.493 306.123 384.128C305.488 384.659 305.077 385.024 304.889 385.222C304.712 385.409 304.566 385.597 304.452 385.784H308.67ZM310.123 382.566C310.123 381.545 310.228 380.727 310.436 380.112C310.644 379.487 310.952 379.008 311.358 378.675C311.774 378.342 312.295 378.175 312.92 378.175C313.379 378.175 313.78 378.269 314.123 378.456C314.478 378.644 314.769 378.915 314.998 379.269C315.228 379.612 315.405 380.034 315.53 380.534C315.655 381.034 315.717 381.711 315.717 382.566C315.717 383.576 315.613 384.389 315.405 385.003C315.207 385.618 314.899 386.097 314.483 386.441C314.077 386.774 313.556 386.941 312.92 386.941C312.097 386.941 311.446 386.644 310.967 386.05C310.405 385.342 310.123 384.18 310.123 382.566ZM311.202 382.566C311.202 383.972 311.368 384.909 311.702 385.378C312.035 385.847 312.441 386.081 312.92 386.081C313.41 386.081 313.816 385.847 314.139 385.378C314.472 384.909 314.639 383.972 314.639 382.566C314.639 381.149 314.472 380.211 314.139 379.753C313.816 379.284 313.405 379.05 312.905 379.05C312.425 379.05 312.04 379.253 311.748 379.659C311.384 380.18 311.202 381.149 311.202 382.566ZM317.123 382.566C317.123 381.545 317.228 380.727 317.436 380.112C317.644 379.487 317.952 379.008 318.358 378.675C318.774 378.342 319.295 378.175 319.92 378.175C320.379 378.175 320.78 378.269 321.123 378.456C321.478 378.644 321.769 378.915 321.998 379.269C322.228 379.612 322.405 380.034 322.53 380.534C322.655 381.034 322.717 381.711 322.717 382.566C322.717 383.576 322.613 384.389 322.405 385.003C322.207 385.618 321.899 386.097 321.483 386.441C321.077 386.774 320.556 386.941 319.92 386.941C319.097 386.941 318.446 386.644 317.967 386.05C317.405 385.342 317.123 384.18 317.123 382.566ZM318.202 382.566C318.202 383.972 318.368 384.909 318.702 385.378C319.035 385.847 319.441 386.081 319.92 386.081C320.41 386.081 320.816 385.847 321.139 385.378C321.472 384.909 321.639 383.972 321.639 382.566C321.639 381.149 321.472 380.211 321.139 379.753C320.816 379.284 320.405 379.05 319.905 379.05C319.425 379.05 319.04 379.253 318.748 379.659C318.384 380.18 318.202 381.149 318.202 382.566Z" fill="black"/>
<path id="Vector_24" d="M415.619 386.8V384.737H411.9V383.769L415.822 378.206H416.681V383.769H417.838V384.737H416.681V386.8H415.619ZM415.619 383.769V379.909L412.931 383.769H415.619ZM422.619 386.8V384.737H418.9V383.769L422.822 378.206H423.681V383.769H424.838V384.737H423.681V386.8H422.619ZM422.619 383.769V379.909L419.931 383.769H422.619ZM429.619 386.8V384.737H425.9V383.769L429.822 378.206H430.681V383.769H431.838V384.737H430.681V386.8H429.619ZM429.619 383.769V379.909L426.931 383.769H429.619ZM433.244 382.566C433.244 381.545 433.348 380.727 433.556 380.112C433.765 379.487 434.072 379.008 434.478 378.675C434.895 378.342 435.416 378.175 436.041 378.175C436.499 378.175 436.9 378.269 437.244 378.456C437.598 378.644 437.89 378.915 438.119 379.269C438.348 379.612 438.525 380.034 438.65 380.534C438.775 381.034 438.838 381.711 438.838 382.566C438.838 383.576 438.734 384.389 438.525 385.003C438.327 385.618 438.02 386.097 437.603 386.441C437.197 386.774 436.676 386.941 436.041 386.941C435.218 386.941 434.567 386.644 434.088 386.05C433.525 385.342 433.244 384.18 433.244 382.566ZM434.322 382.566C434.322 383.972 434.489 384.909 434.822 385.378C435.155 385.847 435.562 386.081 436.041 386.081C436.53 386.081 436.937 385.847 437.26 385.378C437.593 384.909 437.76 383.972 437.76 382.566C437.76 381.149 437.593 380.211 437.26 379.753C436.937 379.284 436.525 379.05 436.025 379.05C435.546 379.05 435.161 379.253 434.869 379.659C434.504 380.18 434.322 381.149 434.322 382.566ZM440.244 382.566C440.244 381.545 440.348 380.727 440.556 380.112C440.765 379.487 441.072 379.008 441.478 378.675C441.895 378.342 442.416 378.175 443.041 378.175C443.499 378.175 443.9 378.269 444.244 378.456C444.598 378.644 444.89 378.915 445.119 379.269C445.348 379.612 445.525 380.034 445.65 380.534C445.775 381.034 445.838 381.711 445.838 382.566C445.838 383.576 445.734 384.389 445.525 385.003C445.327 385.618 445.02 386.097 444.603 386.441C444.197 386.774 443.676 386.941 443.041 386.941C442.218 386.941 441.567 386.644 441.088 386.05C440.525 385.342 440.244 384.18 440.244 382.566ZM441.322 382.566C441.322 383.972 441.489 384.909 441.822 385.378C442.155 385.847 442.562 386.081 443.041 386.081C443.53 386.081 443.937 385.847 444.26 385.378C444.593 384.909 444.76 383.972 444.76 382.566C444.76 381.149 444.593 380.211 444.26 379.753C443.937 379.284 443.525 379.05 443.025 379.05C442.546 379.05 442.161 379.253 441.869 379.659C441.504 380.18 441.322 381.149 441.322 382.566Z" fill="black"/>
<path id="Vector_25" d="M538.74 386.8V384.737H535.021V383.769L538.943 378.206H539.802V383.769H540.958V384.737H539.802V386.8H538.74ZM538.74 383.769V379.909L536.052 383.769H538.74ZM545.74 386.8V384.737H542.021V383.769L545.943 378.206H546.802V383.769H547.958V384.737H546.802V386.8H545.74ZM545.74 383.769V379.909L543.052 383.769H545.74ZM554.833 380.316L553.786 380.394C553.693 379.977 553.562 379.675 553.396 379.487C553.104 379.185 552.75 379.034 552.333 379.034C552 379.034 551.703 379.128 551.443 379.316C551.12 379.566 550.859 379.925 550.661 380.394C550.474 380.852 550.375 381.508 550.365 382.362C550.615 381.977 550.922 381.691 551.286 381.503C551.661 381.316 552.052 381.222 552.458 381.222C553.156 381.222 553.75 381.482 554.24 382.003C554.74 382.524 554.99 383.191 554.99 384.003C554.99 384.545 554.87 385.05 554.63 385.519C554.401 385.977 554.083 386.331 553.677 386.581C553.271 386.821 552.812 386.941 552.302 386.941C551.417 386.941 550.698 386.618 550.146 385.972C549.594 385.326 549.318 384.264 549.318 382.784C549.318 381.118 549.625 379.909 550.24 379.159C550.771 378.503 551.49 378.175 552.396 378.175C553.073 378.175 553.625 378.368 554.052 378.753C554.49 379.128 554.75 379.649 554.833 380.316ZM550.536 384.019C550.536 384.383 550.609 384.732 550.755 385.066C550.911 385.389 551.125 385.639 551.396 385.816C551.677 385.993 551.974 386.081 552.286 386.081C552.724 386.081 553.104 385.904 553.427 385.55C553.75 385.185 553.911 384.696 553.911 384.081C553.911 383.487 553.75 383.019 553.427 382.675C553.115 382.331 552.719 382.159 552.24 382.159C551.76 382.159 551.354 382.331 551.021 382.675C550.698 383.019 550.536 383.467 550.536 384.019ZM556.365 382.566C556.365 381.545 556.469 380.727 556.677 380.112C556.885 379.487 557.193 379.008 557.599 378.675C558.016 378.342 558.536 378.175 559.161 378.175C559.62 378.175 560.021 378.269 560.365 378.456C560.719 378.644 561.01 378.915 561.24 379.269C561.469 379.612 561.646 380.034 561.771 380.534C561.896 381.034 561.958 381.711 561.958 382.566C561.958 383.576 561.854 384.389 561.646 385.003C561.448 385.618 561.141 386.097 560.724 386.441C560.318 386.774 559.797 386.941 559.161 386.941C558.339 386.941 557.687 386.644 557.208 386.05C556.646 385.342 556.365 384.18 556.365 382.566ZM557.443 382.566C557.443 383.972 557.609 384.909 557.943 385.378C558.276 385.847 558.682 386.081 559.161 386.081C559.651 386.081 560.057 385.847 560.38 385.378C560.714 384.909 560.88 383.972 560.88 382.566C560.88 381.149 560.714 380.211 560.38 379.753C560.057 379.284 559.646 379.05 559.146 379.05C558.667 379.05 558.281 379.253 557.99 379.659C557.625 380.18 557.443 381.149 557.443 382.566ZM563.365 382.566C563.365 381.545 563.469 380.727 563.677 380.112C563.885 379.487 564.193 379.008 564.599 378.675C565.016 378.342 565.536 378.175 566.161 378.175C566.62 378.175 567.021 378.269 567.365 378.456C567.719 378.644 568.01 378.915 568.24 379.269C568.469 379.612 568.646 380.034 568.771 380.534C568.896 381.034 568.958 381.711 568.958 382.566C568.958 383.576 568.854 384.389 568.646 385.003C568.448 385.618 568.141 386.097 567.724 386.441C567.318 386.774 566.797 386.941 566.161 386.941C565.339 386.941 564.687 386.644 564.208 386.05C563.646 385.342 563.365 384.18 563.365 382.566ZM564.443 382.566C564.443 383.972 564.609 384.909 564.943 385.378C565.276 385.847 565.682 386.081 566.161 386.081C566.651 386.081 567.057 385.847 567.38 385.378C567.714 384.909 567.88 383.972 567.88 382.566C567.88 381.149 567.714 380.211 567.38 379.753C567.057 379.284 566.646 379.05 566.146 379.05C565.667 379.05 565.281 379.253 564.99 379.659C564.625 380.18 564.443 381.149 564.443 382.566Z" fill="black"/>
<path id="Vector_26" d="M661.86 386.8V384.737H658.141V383.769L662.063 378.206H662.923V383.769H664.079V384.737H662.923V386.8H661.86ZM661.86 383.769V379.909L659.173 383.769H661.86ZM668.86 386.8V384.737H665.141V383.769L669.063 378.206H669.923V383.769H671.079V384.737H669.923V386.8H668.86ZM668.86 383.769V379.909L666.173 383.769H668.86ZM674.11 382.144C673.673 381.977 673.344 381.748 673.126 381.456C672.917 381.154 672.813 380.8 672.813 380.394C672.813 379.769 673.037 379.243 673.485 378.816C673.943 378.389 674.542 378.175 675.282 378.175C676.032 378.175 676.636 378.394 677.094 378.831C677.553 379.269 677.782 379.8 677.782 380.425C677.782 380.821 677.678 381.165 677.469 381.456C677.261 381.748 676.943 381.977 676.516 382.144C677.048 382.31 677.449 382.586 677.719 382.972C677.99 383.357 678.126 383.816 678.126 384.347C678.126 385.076 677.865 385.691 677.344 386.191C676.834 386.691 676.152 386.941 675.298 386.941C674.454 386.941 673.772 386.691 673.251 386.191C672.73 385.691 672.469 385.066 672.469 384.316C672.469 383.753 672.61 383.284 672.891 382.909C673.183 382.534 673.589 382.279 674.11 382.144ZM673.891 380.347C673.891 380.753 674.022 381.086 674.282 381.347C674.553 381.607 674.897 381.737 675.313 381.737C675.719 381.737 676.053 381.612 676.313 381.362C676.574 381.102 676.704 380.784 676.704 380.409C676.704 380.024 676.568 379.701 676.298 379.441C676.027 379.17 675.693 379.034 675.298 379.034C674.891 379.034 674.553 379.165 674.282 379.425C674.022 379.685 673.891 379.993 673.891 380.347ZM673.563 384.316C673.563 384.618 673.631 384.909 673.766 385.191C673.912 385.472 674.126 385.691 674.407 385.847C674.688 386.003 674.99 386.081 675.313 386.081C675.813 386.081 676.225 385.92 676.548 385.597C676.881 385.274 677.048 384.862 677.048 384.362C677.048 383.852 676.881 383.43 676.548 383.097C676.214 382.764 675.792 382.597 675.282 382.597C674.782 382.597 674.371 382.764 674.048 383.097C673.725 383.42 673.563 383.826 673.563 384.316ZM679.485 382.566C679.485 381.545 679.589 380.727 679.798 380.112C680.006 379.487 680.313 379.008 680.719 378.675C681.136 378.342 681.657 378.175 682.282 378.175C682.74 378.175 683.141 378.269 683.485 378.456C683.839 378.644 684.131 378.915 684.36 379.269C684.589 379.612 684.766 380.034 684.891 380.534C685.016 381.034 685.079 381.711 685.079 382.566C685.079 383.576 684.975 384.389 684.766 385.003C684.568 385.618 684.261 386.097 683.844 386.441C683.438 386.774 682.917 386.941 682.282 386.941C681.459 386.941 680.808 386.644 680.329 386.05C679.766 385.342 679.485 384.18 679.485 382.566ZM680.563 382.566C680.563 383.972 680.73 384.909 681.063 385.378C681.397 385.847 681.803 386.081 682.282 386.081C682.772 386.081 683.178 385.847 683.501 385.378C683.834 384.909 684.001 383.972 684.001 382.566C684.001 381.149 683.834 380.211 683.501 379.753C683.178 379.284 682.766 379.05 682.266 379.05C681.787 379.05 681.402 379.253 681.11 379.659C680.746 380.18 680.563 381.149 680.563 382.566ZM686.485 382.566C686.485 381.545 686.589 380.727 686.798 380.112C687.006 379.487 687.313 379.008 687.719 378.675C688.136 378.342 688.657 378.175 689.282 378.175C689.74 378.175 690.141 378.269 690.485 378.456C690.839 378.644 691.131 378.915 691.36 379.269C691.589 379.612 691.766 380.034 691.891 380.534C692.016 381.034 692.079 381.711 692.079 382.566C692.079 383.576 691.975 384.389 691.766 385.003C691.568 385.618 691.261 386.097 690.844 386.441C690.438 386.774 689.917 386.941 689.282 386.941C688.459 386.941 687.808 386.644 687.329 386.05C686.766 385.342 686.485 384.18 686.485 382.566ZM687.563 382.566C687.563 383.972 687.73 384.909 688.063 385.378C688.397 385.847 688.803 386.081 689.282 386.081C689.772 386.081 690.178 385.847 690.501 385.378C690.834 384.909 691.001 383.972 691.001 382.566C691.001 381.149 690.834 380.211 690.501 379.753C690.178 379.284 689.766 379.05 689.266 379.05C688.787 379.05 688.402 379.253 688.11 379.659C687.746 380.18 687.563 381.149 687.563 382.566Z" fill="black"/>
<path id="Vector_27" d="M576.847 65.5125V66.7H570.222C570.211 66.4083 570.258 66.1219 570.363 65.8406C570.54 65.3927 570.81 64.95 571.175 64.5125C571.55 64.075 572.086 63.5698 572.784 62.9969C573.878 62.101 574.613 61.3927 574.988 60.8719C575.373 60.351 575.566 59.8562 575.566 59.3875C575.566 58.8979 575.389 58.4865 575.034 58.1531C574.691 57.8198 574.243 57.6531 573.691 57.6531C573.097 57.6531 572.618 57.8302 572.253 58.1844C571.899 58.5385 571.722 59.0333 571.722 59.6687L570.456 59.5281C570.54 58.5906 570.862 57.8771 571.425 57.3875C571.998 56.8875 572.758 56.6375 573.706 56.6375C574.675 56.6375 575.435 56.9031 575.988 57.4344C576.55 57.9656 576.831 58.6271 576.831 59.4187C576.831 59.825 576.748 60.2208 576.581 60.6062C576.425 60.9917 576.154 61.3979 575.769 61.825C575.394 62.2521 574.764 62.8406 573.878 63.5906C573.139 64.2052 572.665 64.6271 572.456 64.8562C572.248 65.075 572.076 65.2937 571.941 65.5125H576.847ZM578.378 61.7625C578.378 60.575 578.498 59.6219 578.738 58.9031C578.988 58.174 579.352 57.6167 579.831 57.2312C580.31 56.8354 580.915 56.6375 581.644 56.6375C582.185 56.6375 582.659 56.7469 583.066 56.9656C583.472 57.1844 583.805 57.4969 584.066 57.9031C584.336 58.3094 584.545 58.8042 584.691 59.3875C584.836 59.9708 584.909 60.7625 584.909 61.7625C584.909 62.9396 584.79 63.8875 584.55 64.6062C584.31 65.325 583.951 65.8823 583.472 66.2781C582.993 66.674 582.383 66.8719 581.644 66.8719C580.685 66.8719 579.93 66.5229 579.378 65.825C578.711 64.9917 578.378 63.6375 578.378 61.7625ZM579.644 61.7625C579.644 63.4083 579.836 64.5021 580.222 65.0437C580.607 65.5854 581.081 65.8562 581.644 65.8562C582.217 65.8562 582.696 65.5854 583.081 65.0437C583.467 64.4917 583.659 63.3979 583.659 61.7625C583.659 60.1062 583.467 59.0073 583.081 58.4656C582.696 57.924 582.211 57.6531 581.628 57.6531C581.066 57.6531 580.618 57.8927 580.284 58.3719C579.857 58.9865 579.644 60.1167 579.644 61.7625ZM592.847 65.5125V66.7H586.222C586.211 66.4083 586.258 66.1219 586.363 65.8406C586.54 65.3927 586.81 64.95 587.175 64.5125C587.55 64.075 588.086 63.5698 588.784 62.9969C589.878 62.101 590.613 61.3927 590.988 60.8719C591.373 60.351 591.566 59.8562 591.566 59.3875C591.566 58.8979 591.389 58.4865 591.034 58.1531C590.691 57.8198 590.243 57.6531 589.691 57.6531C589.097 57.6531 588.618 57.8302 588.253 58.1844C587.899 58.5385 587.722 59.0333 587.722 59.6687L586.456 59.5281C586.54 58.5906 586.862 57.8771 587.425 57.3875C587.998 56.8875 588.758 56.6375 589.706 56.6375C590.675 56.6375 591.435 56.9031 591.988 57.4344C592.55 57.9656 592.831 58.6271 592.831 59.4187C592.831 59.825 592.748 60.2208 592.581 60.6062C592.425 60.9917 592.154 61.3979 591.769 61.825C591.394 62.2521 590.764 62.8406 589.878 63.5906C589.139 64.2052 588.665 64.6271 588.456 64.8562C588.248 65.075 588.076 65.2937 587.941 65.5125H592.847ZM600.847 65.5125V66.7H594.222C594.211 66.4083 594.258 66.1219 594.363 65.8406C594.54 65.3927 594.81 64.95 595.175 64.5125C595.55 64.075 596.086 63.5698 596.784 62.9969C597.878 62.101 598.613 61.3927 598.988 60.8719C599.373 60.351 599.566 59.8562 599.566 59.3875C599.566 58.8979 599.389 58.4865 599.034 58.1531C598.691 57.8198 598.243 57.6531 597.691 57.6531C597.097 57.6531 596.618 57.8302 596.253 58.1844C595.899 58.5385 595.722 59.0333 595.722 59.6687L594.456 59.5281C594.54 58.5906 594.862 57.8771 595.425 57.3875C595.998 56.8875 596.758 56.6375 597.706 56.6375C598.675 56.6375 599.435 56.9031 599.988 57.4344C600.55 57.9656 600.831 58.6271 600.831 59.4187C600.831 59.825 600.748 60.2208 600.581 60.6062C600.425 60.9917 600.154 61.3979 599.769 61.825C599.394 62.2521 598.764 62.8406 597.878 63.5906C597.139 64.2052 596.665 64.6271 596.456 64.8562C596.248 65.075 596.076 65.2937 595.941 65.5125H600.847Z" fill="#999999"/>
<path id="Vector_28" d="M606.175 58.1687C605.487 59.3667 604.633 60.3667 603.612 61.1687L602.847 60.1844C604.336 59.0906 605.357 57.5073 605.909 55.4344L607.159 55.7625C607.305 55.9083 607.253 55.9969 607.003 56.0281L606.566 57.1219H614.269V58.1687H610.284V60.0281H613.566V61.0594H610.284V63.5281H614.878V64.5594H610.284V67.8562H609.191V64.5594H602.894V63.5281H605.362V60.0281H609.191V58.1687H606.175ZM606.456 63.5281H609.191V61.0594H606.456V63.5281Z" fill="#999999"/>
<path id="Vector_29" d="M616.566 64.3875L617.753 64.2781C617.847 64.8302 618.034 65.2312 618.316 65.4812C618.607 65.7312 618.972 65.8562 619.409 65.8562C619.784 65.8562 620.112 65.7729 620.394 65.6062C620.685 65.4292 620.92 65.1948 621.097 64.9031C621.284 64.6115 621.441 64.2208 621.566 63.7312C621.691 63.2417 621.753 62.7417 621.753 62.2312C621.753 62.1792 621.748 62.0958 621.737 61.9812C621.498 62.3771 621.165 62.7 620.737 62.95C620.31 63.1896 619.847 63.3094 619.347 63.3094C618.514 63.3094 617.81 63.0073 617.237 62.4031C616.665 61.799 616.378 61.0073 616.378 60.0281C616.378 59.0073 616.675 58.1896 617.269 57.575C617.873 56.95 618.628 56.6375 619.534 56.6375C620.18 56.6375 620.774 56.8146 621.316 57.1687C621.857 57.5125 622.269 58.0125 622.55 58.6687C622.831 59.3146 622.972 60.2521 622.972 61.4812C622.972 62.7625 622.831 63.7833 622.55 64.5437C622.279 65.3042 621.868 65.8823 621.316 66.2781C620.764 66.674 620.118 66.8719 619.378 66.8719C618.597 66.8719 617.956 66.6531 617.456 66.2156C616.967 65.7781 616.67 65.1687 616.566 64.3875ZM621.597 59.9656C621.597 59.2573 621.409 58.6948 621.034 58.2781C620.659 57.8615 620.211 57.6531 619.691 57.6531C619.139 57.6531 618.659 57.8771 618.253 58.325C617.847 58.7729 617.644 59.351 617.644 60.0594C617.644 60.6948 617.836 61.2156 618.222 61.6219C618.607 62.0177 619.081 62.2156 619.644 62.2156C620.217 62.2156 620.685 62.0177 621.05 61.6219C621.415 61.2156 621.597 60.6635 621.597 59.9656Z" fill="#999999"/>
<path id="Vector_30" d="M633.706 63.5281H628.503C628.503 65.0906 627.701 66.5698 626.097 67.9656L625.175 66.9187C626.665 65.9708 627.409 64.549 627.409 62.6531V55.9812H634.8V66.7625C634.8 67.3458 634.487 67.6375 633.862 67.6375H632.55L632.331 66.4187H633.487C633.633 66.4187 633.706 66.3458 633.706 66.2V63.5281ZM628.503 62.325H633.706V60.3562H628.503V62.325ZM628.503 59.1531H633.706V57.1844H628.503V59.1531Z" fill="#999999"/>
<path id="Vector_31" d="M644.847 65.5125V66.7H638.222C638.211 66.4083 638.258 66.1219 638.363 65.8406C638.54 65.3927 638.81 64.95 639.175 64.5125C639.55 64.075 640.086 63.5698 640.784 62.9969C641.878 62.101 642.613 61.3927 642.988 60.8719C643.373 60.351 643.566 59.8562 643.566 59.3875C643.566 58.8979 643.389 58.4865 643.034 58.1531C642.691 57.8198 642.243 57.6531 641.691 57.6531C641.097 57.6531 640.618 57.8302 640.253 58.1844C639.899 58.5385 639.722 59.0333 639.722 59.6687L638.456 59.5281C638.54 58.5906 638.862 57.8771 639.425 57.3875C639.998 56.8875 640.758 56.6375 641.706 56.6375C642.675 56.6375 643.435 56.9031 643.988 57.4344C644.55 57.9656 644.831 58.6271 644.831 59.4187C644.831 59.825 644.748 60.2208 644.581 60.6062C644.425 60.9917 644.154 61.3979 643.769 61.825C643.394 62.2521 642.764 62.8406 641.878 63.5906C641.139 64.2052 640.665 64.6271 640.456 64.8562C640.248 65.075 640.076 65.2937 639.941 65.5125H644.847ZM646.566 64.3875L647.753 64.2781C647.847 64.8302 648.034 65.2312 648.316 65.4812C648.607 65.7312 648.972 65.8562 649.409 65.8562C649.784 65.8562 650.113 65.7729 650.394 65.6062C650.685 65.4292 650.92 65.1948 651.097 64.9031C651.284 64.6115 651.441 64.2208 651.566 63.7312C651.691 63.2417 651.753 62.7417 651.753 62.2312C651.753 62.1792 651.748 62.0958 651.738 61.9812C651.498 62.3771 651.165 62.7 650.738 62.95C650.31 63.1896 649.847 63.3094 649.347 63.3094C648.514 63.3094 647.81 63.0073 647.238 62.4031C646.665 61.799 646.378 61.0073 646.378 60.0281C646.378 59.0073 646.675 58.1896 647.269 57.575C647.873 56.95 648.628 56.6375 649.534 56.6375C650.18 56.6375 650.774 56.8146 651.316 57.1687C651.857 57.5125 652.269 58.0125 652.55 58.6687C652.831 59.3146 652.972 60.2521 652.972 61.4812C652.972 62.7625 652.831 63.7833 652.55 64.5437C652.279 65.3042 651.868 65.8823 651.316 66.2781C650.764 66.674 650.118 66.8719 649.378 66.8719C648.597 66.8719 647.956 66.6531 647.456 66.2156C646.967 65.7781 646.67 65.1687 646.566 64.3875ZM651.597 59.9656C651.597 59.2573 651.409 58.6948 651.034 58.2781C650.659 57.8615 650.211 57.6531 649.691 57.6531C649.139 57.6531 648.659 57.8771 648.253 58.325C647.847 58.7729 647.644 59.351 647.644 60.0594C647.644 60.6948 647.836 61.2156 648.222 61.6219C648.607 62.0177 649.081 62.2156 649.644 62.2156C650.217 62.2156 650.685 62.0177 651.05 61.6219C651.415 61.2156 651.597 60.6635 651.597 59.9656Z" fill="#999999"/>
<path id="Vector_32" d="M657.8 67.2H656.534V56.6375H665.128V66.9812H663.862V66.2H657.8V67.2ZM663.862 60.7937V57.6687H657.8V60.7937H663.862ZM663.862 65.1687V61.825H657.8V65.1687H663.862ZM678.081 59.8562H680.659V60.7312H678.362V61.9969H680.222V62.8719H678.362V64.1844H680.222V65.0594H678.362V66.4187H681.097V67.3094H675.566V67.8562H674.644V61.7781C674.352 62.174 673.987 62.5385 673.55 62.8719L673.159 61.825C674.545 60.5854 675.441 59.2937 675.847 57.95H674.581V59.2H673.659V57.075H676.066C676.211 56.4917 676.336 55.8719 676.441 55.2156L677.534 55.4812C677.649 55.5958 677.612 55.7052 677.425 55.8094C677.321 56.2469 677.211 56.6687 677.097 57.075H680.987V58.9812H680.05V57.95H676.878C676.659 58.7104 676.368 59.3458 676.003 59.8562H677.159L677.862 58.2156L678.909 58.4344C679.086 58.5073 679.05 58.601 678.8 58.7156L678.081 59.8562ZM668.847 57.3406V56.3094H673.487V57.3406H671.581C671.508 58.476 671.269 59.5177 670.862 60.4656H673.003V66.9812H672.066V66.0906H670.644V67.5281H669.722V62.5906C669.503 62.9552 669.264 63.2833 669.003 63.575L668.3 62.6531C669.571 61.226 670.316 59.4552 670.534 57.3406H668.847ZM675.566 62.8719V64.1844H677.425V62.8719H675.566ZM675.566 60.7312V61.9969H677.425V60.7312H675.566ZM675.566 65.0594V66.4187H677.425V65.0594H675.566ZM670.644 61.3406V65.2156H672.066V61.3406H670.644ZM687.222 61.45C688.566 61.0854 689.42 60.3719 689.784 59.3094L688.316 58.7156L688.691 57.7781L690.003 58.2781L690.112 56.9656H687.816V55.9187H694.378L694.269 60.6219C694.237 61.5385 693.857 61.9969 693.128 61.9969H691.862L691.753 60.95H692.909C693.128 60.95 693.237 60.8406 693.237 60.6219L693.347 56.9656H691.206L691.05 58.7156L692.362 59.4187L691.862 60.4031L690.769 59.8094C690.3 61.1531 689.264 62.0646 687.659 62.5437L687.222 61.45ZM694.159 66.9187C693.868 65.825 693.415 64.8771 692.8 64.075L693.784 63.6375C694.586 64.6167 695.097 65.5437 695.316 66.4187L694.159 66.9187ZM686.831 63.4656V67.6844H685.909V67.3094H684.05V67.9031H683.112V63.4656H686.831ZM687.269 66.9812C687.529 66.0646 687.696 65.0229 687.769 63.8562L688.862 63.9656C688.935 63.9969 688.899 64.0854 688.753 64.2312C688.711 65.3979 688.545 66.4031 688.253 67.2469L687.269 66.9812ZM690.769 61.6687C691.279 61.9917 691.79 62.5542 692.3 63.3562L691.269 63.9656C691.008 63.4552 690.571 62.8719 689.956 62.2156L690.769 61.6687ZM683.331 55.7H686.612V56.7469H683.331V55.7ZM682.628 57.5594H687.331V58.6062H682.628V57.5594ZM683.331 59.5906H686.612V60.6219H683.331V59.5906ZM683.331 61.45H686.612V62.4812H683.331V61.45ZM684.05 64.3406V66.4187H685.909V64.3406H684.05ZM690.222 63.3094C690.514 63.3406 690.534 63.45 690.284 63.6375V66.2C690.284 66.4604 690.394 66.5906 690.612 66.5906H691.816C692.034 66.5906 692.159 66.4812 692.191 66.2625L692.3 65.3875L693.394 65.6531L693.175 66.8094C693.071 67.3615 692.743 67.6375 692.191 67.6375H690.112C689.498 67.6375 689.191 67.3042 689.191 66.6375V63.3094H690.222Z" fill="#999999"/>
<path id="Vector_33" d="M37.4344 37.2156H29.6219V40.2625H37.4344V37.2156ZM23.2156 39.8719C26.1323 38.2052 27.9292 36.174 28.6063 33.7781H23.9969V32.2937H41.0281V33.7781H30.2469C29.9865 34.7156 29.7261 35.3667 29.4656 35.7312H38.9969V42.6062H37.4344V41.7469H29.6219V42.9187H28.0594V37.9187C27.174 39.1167 25.8979 40.2104 24.2313 41.2L23.2156 39.8719ZM37.3563 30.4187H27.0438V31.0437H25.4813V26.1219H26.9656C27.4865 26.174 27.5125 26.3302 27.0438 26.5906V29.1687H31.4188V25.1844H32.9031C33.424 25.2365 33.45 25.3927 32.9813 25.6531V29.1687H37.3563V26.1219H38.8406C39.3615 26.174 39.3875 26.3302 38.9188 26.5906V30.9656H37.3563V30.4187ZM44.7 27.1375C49.1792 27.0854 53.424 26.5646 57.4344 25.575L58.45 26.825C58.8146 27.2937 58.6844 27.45 58.0594 27.2937C56.3927 27.6583 54.7261 27.9187 53.0594 28.075V30.8875H59.2313V32.3719H53.0594V35.0281H60.8719V36.5125H53.0594V41.2C53.0594 42.1375 52.6167 42.6062 51.7313 42.6062H49.7L49.3094 40.8875H51.2625C51.4188 40.8875 51.4969 40.8094 51.4969 40.6531V36.5125H43.5281V35.0281H51.4969V32.3719H45.1688V30.8875H51.4969V28.3094C49.3094 28.5177 47.174 28.6219 45.0906 28.6219L44.7 27.1375ZM76.1844 37.6062C77.2261 38.6479 78.7625 39.6896 80.7938 40.7312L79.8563 42.3719C78.0854 41.5385 76.4188 40.3406 74.8563 38.7781L76.1844 37.6062ZM69.3875 39.0125C68.5021 40.2625 67.1479 41.4865 65.325 42.6844L64.1531 41.2C65.8198 40.2104 67.1479 39.0385 68.1375 37.6844L69.6219 38.5437C69.8823 38.7521 69.8042 38.9083 69.3875 39.0125ZM66.1844 36.9812V37.7625H64.6219V26.5125H66.1063C66.5229 26.5646 66.549 26.7208 66.1844 26.9812V35.4969H80.5594V36.9812H73.2938V42.9969H71.4969V36.9812H66.1844ZM69.6219 33.2312H76.4188V31.7469H69.6219V33.2312ZM69.6219 30.4969H76.4188V29.2469H69.6219V30.4969ZM69.6219 27.9969H76.4188V26.7469H69.6219V27.9969ZM68.0594 34.4812V25.4969H77.9813V34.4812H68.0594ZM92.9813 30.1844C92.0958 35.3927 91.0281 38.6219 89.7781 39.8719C89.1011 40.549 88.3979 40.8875 87.6688 40.8875C86.8354 40.8875 86.1844 40.6531 85.7156 40.1844C84.4656 38.9344 83.8406 37.3719 83.8406 35.4969C83.8406 33.2052 84.6479 31.2521 86.2625 29.6375C88.0333 27.8667 90.1948 26.9812 92.7469 26.9812C95.0386 26.9812 96.8354 27.6323 98.1375 28.9344C99.5958 30.3927 100.325 32.1115 100.325 34.0906C100.325 36.226 99.6479 37.9708 98.2938 39.325C97.4083 40.2104 96.0542 41.0698 94.2313 41.9031L92.5906 40.2625C94.4136 39.6896 95.8458 38.8823 96.8875 37.8406C97.8771 36.851 98.3719 35.6531 98.3719 34.2469C98.3719 32.5802 97.825 31.2 96.7313 30.1062C95.6375 29.0125 93.9188 28.5177 91.575 28.6219L92.9813 29.325C93.6063 29.5854 93.6063 29.8719 92.9813 30.1844ZM91.1844 28.7C89.8302 29.0125 88.6583 29.6635 87.6688 30.6531C86.3146 32.0073 85.6375 33.674 85.6375 35.6531C85.6375 36.851 86.0281 37.8406 86.8094 38.6219C86.9656 38.7781 87.2 38.8562 87.5125 38.8562C87.825 38.8562 88.1636 38.674 88.5281 38.3094C89.7261 37.1115 90.6115 33.9083 91.1844 28.7ZM110.325 41.5125C112.46 40.3667 113.528 38.4135 113.528 35.6531V26.6687L115.169 26.9812L119.388 25.6531L120.559 27.2156C120.664 27.5281 120.481 27.5802 120.013 27.3719L115.091 28.3094V31.6687H121.263V33.1531H118.919V42.9187H117.356V33.1531H115.091V36.1219C115.091 39.1948 113.789 41.4865 111.184 42.9969L110.325 41.5125ZM108.841 42.9969H107.278V38.3094C106.445 39.6635 105.533 40.7312 104.544 41.5125L103.372 40.1062C104.83 39.0646 106.054 37.7625 107.044 36.2H103.763V34.7156H107.278V32.9969H103.294V31.5125H108.763L109.622 28.7H103.841V27.2156H107.278V25.0281H108.763C109.179 25.0802 109.205 25.2365 108.841 25.4969V27.2156H112.278V28.7H111.263L110.169 31.5125H112.669V32.9969H108.841V34.7156H112.278V36.2H108.841V36.9031C109.57 37.1115 110.585 37.6583 111.888 38.5437L110.95 40.1062C110.221 39.3771 109.518 38.8042 108.841 38.3875V42.9969ZM105.716 31.3562C105.507 30.6271 105.221 29.924 104.856 29.2469L106.341 28.7781C106.757 29.4552 107.07 30.1583 107.278 30.8875L105.716 31.3562ZM138.45 33.5437H133.372V35.2625H138.45V33.5437ZM136.341 36.7469H134.934V37.5281C134.934 40.7573 133.085 42.6583 129.388 43.2312L128.919 41.5906C131.888 41.226 133.372 39.8198 133.372 37.3719V36.7469H132.591H131.809V25.8094H140.013V36.7469H137.903V40.6531C137.903 41.0698 138.085 41.2781 138.45 41.2781H139.231C139.492 41.2781 139.648 41.0177 139.7 40.4969L139.856 39.1687L141.419 39.6375L141.184 41.4344C141.08 42.3198 140.585 42.7625 139.7 42.7625H137.747C136.809 42.7625 136.341 42.3198 136.341 41.4344V36.7469ZM133.372 32.0594H138.45V30.4187H133.372V32.0594ZM133.372 28.9344H138.45V27.2937H133.372V28.9344ZM127.747 35.8875C128.789 36.3562 130.013 37.2156 131.419 38.4656L130.325 40.1062C129.231 38.9083 128.268 38.0229 127.434 37.45C126.914 39.7417 125.82 41.5385 124.153 42.8406L122.981 41.4344C125.273 39.5073 126.367 37.0073 126.263 33.9344H123.294V32.45H126.341V29.6375H123.841V28.1531H126.341V25.0281H127.825C128.242 25.0802 128.268 25.2365 127.903 25.4969V28.1531H130.638V29.6375H127.903V32.45H131.028V33.9344H127.825C127.825 34.7677 127.799 35.4187 127.747 35.8875ZM147.825 32.1375C148.815 33.4917 149.309 34.8979 149.309 36.3562C149.309 38.3875 148.71 39.4031 147.513 39.4031H146.575L146.263 37.8406H147.044C147.565 37.8406 147.799 37.2937 147.747 36.2C147.695 34.6896 147.226 33.3615 146.341 32.2156L147.903 27.1375H145.481V42.7625H143.919V25.8875H148.294L148.606 25.4969L149.934 26.6687L149.622 26.9812L147.825 32.1375ZM159.153 36.5125H158.372C157.539 40.3146 154.752 42.5021 150.013 43.075L149.544 41.5906C153.606 41.2781 156.054 39.5854 156.888 36.5125H155.794C154.908 38.7 153.033 40.0281 150.169 40.4969L149.7 39.1687C152.096 38.6479 153.58 37.7625 154.153 36.5125H152.903C152.174 37.2417 151.236 37.8146 150.091 38.2312L149.466 36.9031C151.132 36.3823 152.278 35.3927 152.903 33.9344H149.388V32.6844H161.106V33.9344H154.544C154.335 34.4031 154.075 34.8458 153.763 35.2625H160.638L160.481 40.1844C160.429 41.851 159.83 42.6844 158.684 42.6844H157.122L156.888 41.2H158.216C158.684 41.2 158.945 40.8875 158.997 40.2625L159.153 36.5125ZM152.513 30.4187H157.825V29.0906H152.513V30.4187ZM152.513 27.8406H157.825V26.5906H152.513V27.8406ZM159.153 25.3406V31.6687H151.184V25.3406H159.153ZM172.434 29.325H174.544V25.2625H176.028C176.445 25.3146 176.471 25.4708 176.106 25.7312V29.325H180.325V30.8094H176.106V34.5594H180.091V36.0437H176.106V40.6531H181.263V42.1375H169.309V40.6531H174.544V36.0437H170.716V34.5594H174.544V30.8094H171.966C171.601 31.851 171.028 32.8927 170.247 33.9344L168.919 32.9187C170.273 31.1479 171.158 29.0125 171.575 26.5125L173.059 26.825C173.476 26.9812 173.476 27.1375 173.059 27.2937L172.434 29.325ZM165.794 25.0281H167.278C167.695 25.0802 167.721 25.2365 167.356 25.4969V42.8406H165.794V25.0281ZM168.763 28.2312C169.231 28.8562 169.622 29.5594 169.934 30.3406L168.684 31.2C168.32 30.3146 167.955 29.5854 167.591 29.0125L168.763 28.2312ZM165.325 29.0906C165.69 29.1948 165.69 29.351 165.325 29.5594C165.221 31.226 164.986 32.7885 164.622 34.2469L163.138 33.7781C163.554 32.476 163.789 30.8354 163.841 28.8562L165.325 29.0906ZM198.138 33.6219V42.6844H196.575V41.9031H189.544V42.9187H187.981V35.8094C186.627 36.5385 185.169 37.1115 183.606 37.5281L183.059 36.1219C184.518 35.7573 186.158 35.1062 187.981 34.1687V33.6219H189.075C190.169 32.9969 191.106 32.3719 191.888 31.7469H183.684V30.2625H190.559V28.3875H185.716V26.9031H190.559V25.0281H192.044C192.46 25.0802 192.486 25.2365 192.122 25.4969V26.9031H195.872V28.2312C196.497 27.5542 197.122 26.799 197.747 25.9656L198.841 26.6687C199.205 26.9292 199.153 27.0854 198.684 27.1375C197.695 28.3354 196.705 29.3771 195.716 30.2625H201.106V31.7469H194.075C193.033 32.6323 192.2 33.2573 191.575 33.6219H198.138ZM193.606 30.2625C194.231 29.7937 194.934 29.1687 195.716 28.3875H192.122V30.2625H193.606ZM189.544 36.9812H196.575V34.8719H189.544V36.9812ZM189.544 40.6531H196.575V38.2312H189.544V40.6531ZM216.731 36.9031C217.46 35.4969 217.903 33.3615 218.059 30.4969H215.403C215.559 33.3615 216.002 35.4969 216.731 36.9031ZM219.622 30.4969C219.518 33.726 218.893 36.3302 217.747 38.3094C218.58 39.351 219.752 40.2625 221.263 41.0437L220.247 42.7625C218.58 41.6687 217.408 40.6271 216.731 39.6375C215.533 40.9917 213.684 42.1635 211.184 43.1531L210.403 41.5906C213.111 40.4969 214.908 39.3771 215.794 38.2312C214.908 36.5125 214.414 34.7937 214.309 33.075C213.997 33.8562 213.684 34.4552 213.372 34.8719L212.044 33.8562C213.606 31.5646 214.544 28.726 214.856 25.3406L216.497 25.7312C216.809 25.9396 216.731 26.0958 216.263 26.2C216.106 27.1375 215.898 28.075 215.638 29.0125H220.95V30.4969H219.622ZM212.356 26.7469C212.044 27.5281 211.679 28.1792 211.263 28.7L210.013 27.9969C210.429 27.3198 210.82 26.5385 211.184 25.6531L212.591 26.3562C212.799 26.5646 212.721 26.6948 212.356 26.7469ZM207.356 37.7625C208.085 37.9708 208.736 38.2052 209.309 38.4656C209.726 37.9969 210.065 37.2937 210.325 36.3562H208.059C207.851 36.825 207.617 37.2937 207.356 37.7625ZM206.263 39.7156L205.013 39.0125C205.533 38.2312 206.054 37.3458 206.575 36.3562H203.606V35.1062H207.044C207.356 34.4292 207.591 33.8562 207.747 33.3875L209.231 33.7781C209.44 33.9865 209.361 34.1167 208.997 34.1687L208.528 35.1062H212.981V36.3562H211.809C211.549 37.3979 211.158 38.2833 210.638 39.0125C211.106 39.2208 211.601 39.4812 212.122 39.7937L211.419 41.0437C210.846 40.6792 210.325 40.3927 209.856 40.1844C208.502 41.5385 206.679 42.3719 204.388 42.6844L203.841 41.2781C205.872 41.0698 207.434 40.4969 208.528 39.5594C207.955 39.299 207.382 39.0646 206.809 38.8562L206.263 39.7156ZM207.825 25.0281H209.075C209.492 25.0802 209.518 25.2365 209.153 25.4969V28.8562H213.138V30.1062H209.856C210.429 30.7833 211.315 31.4344 212.513 32.0594L211.653 33.3875C210.768 32.8667 209.934 32.1375 209.153 31.2V33.075H207.825V31.5906C206.992 32.6323 205.846 33.5698 204.388 34.4031L203.372 33.1531C204.986 32.3198 206.315 31.3042 207.356 30.1062H203.763V28.8562H207.825V25.0281ZM205.638 28.6219C205.273 27.8406 204.804 27.1635 204.231 26.5906L205.481 25.8094C206.106 26.4344 206.575 27.0854 206.888 27.7625L205.638 28.6219ZM232.981 30.1844C232.096 35.3927 231.028 38.6219 229.778 39.8719C229.101 40.549 228.398 40.8875 227.669 40.8875C226.835 40.8875 226.184 40.6531 225.716 40.1844C224.466 38.9344 223.841 37.3719 223.841 35.4969C223.841 33.2052 224.648 31.2521 226.263 29.6375C228.033 27.8667 230.195 26.9812 232.747 26.9812C235.039 26.9812 236.835 27.6323 238.138 28.9344C239.596 30.3927 240.325 32.1115 240.325 34.0906C240.325 36.226 239.648 37.9708 238.294 39.325C237.408 40.2104 236.054 41.0698 234.231 41.9031L232.591 40.2625C234.414 39.6896 235.846 38.8823 236.888 37.8406C237.877 36.851 238.372 35.6531 238.372 34.2469C238.372 32.5802 237.825 31.2 236.731 30.1062C235.638 29.0125 233.919 28.5177 231.575 28.6219L232.981 29.325C233.606 29.5854 233.606 29.8719 232.981 30.1844ZM231.184 28.7C229.83 29.0125 228.658 29.6635 227.669 30.6531C226.315 32.0073 225.638 33.674 225.638 35.6531C225.638 36.851 226.028 37.8406 226.809 38.6219C226.966 38.7781 227.2 38.8562 227.513 38.8562C227.825 38.8562 228.164 38.674 228.528 38.3094C229.726 37.1115 230.611 33.9083 231.184 28.7ZM248.763 31.825C250.481 30.2104 251.809 27.8667 252.747 24.7937L254.309 25.2625C254.57 25.4708 254.518 25.601 254.153 25.6531C253.736 26.6948 253.32 27.6583 252.903 28.5437H255.247C255.82 27.3458 256.263 26.2781 256.575 25.3406L258.059 25.8875C258.268 26.0958 258.19 26.226 257.825 26.2781C257.46 27.1115 257.096 27.8667 256.731 28.5437H260.716V30.0281H256.731V32.45H259.934V33.9344H256.731V36.4344H259.934V37.9187H256.731V40.8094H261.184V42.2937H252.591V42.9969H251.028V31.6687C250.664 32.1896 250.273 32.6583 249.856 33.075L248.763 31.825ZM244.856 42.8406L244.544 41.3562H245.872C246.08 41.3562 246.184 41.2521 246.184 41.0437V36.2L244.153 36.6687C244.101 37.0333 243.971 37.1115 243.763 36.9031L243.45 35.1062L246.184 34.5594V30.4187H243.763V28.9344H246.184V24.95H247.669C248.085 25.0021 248.111 25.1583 247.747 25.4187V28.9344H249.778V30.4187H247.747V34.2469L249.778 33.7L250.013 35.1062L247.747 35.8094V41.5906C247.747 42.424 247.33 42.8406 246.497 42.8406H244.856ZM252.591 40.8094H255.169V37.9187H252.591V40.8094ZM252.591 36.4344H255.169V33.9344H252.591V36.4344ZM252.591 32.45H255.169V30.0281H252.591V32.45ZM278.841 27.1375L279.075 26.825L280.325 27.8406L280.091 28.075C278.736 30.4187 277.408 31.9812 276.106 32.7625L276.888 32.9969C277.252 33.1531 277.226 33.3094 276.809 33.4656C276.705 33.8302 276.575 34.1427 276.419 34.4031H279.778L280.013 34.0906L281.419 35.1062L281.106 35.4187C279.44 39.8458 276.054 42.3458 270.95 42.9187L270.325 41.4344C272.773 41.174 274.7 40.5229 276.106 39.4812C275.377 38.7521 274.648 38.1271 273.919 37.6062C273.242 38.1792 272.33 38.7 271.184 39.1687L270.481 37.7625C273.033 36.7208 274.7 35.1323 275.481 32.9969C274.7 33.726 273.294 34.351 271.263 34.8719L270.559 33.4656C272.539 33.049 274.023 32.5021 275.013 31.825C274.492 31.2 273.867 30.6531 273.138 30.1844C272.773 30.549 272.408 30.8615 272.044 31.1219L270.95 29.95C272.669 28.4917 273.763 26.9292 274.231 25.2625L275.638 25.7312C276.002 25.8875 275.976 26.0437 275.559 26.2C275.507 26.5125 275.377 26.825 275.169 27.1375H278.841ZM268.216 30.1844H270.794V31.6687H268.216V33.6219C269.257 34.0906 270.247 34.7937 271.184 35.7312L270.169 37.1375C269.335 36.3042 268.684 35.7052 268.216 35.3406V42.9187H266.653V35.1844C266.341 36.226 265.481 37.5542 264.075 39.1687L262.903 37.6844C264.83 35.8615 266.028 33.8562 266.497 31.6687H263.45V30.1844H266.653V27.6062C265.611 27.7625 264.674 27.8927 263.841 27.9969L263.45 26.5125C265.533 26.3042 267.695 25.8875 269.934 25.2625L270.794 26.4344C271.002 26.7469 270.872 26.851 270.403 26.7469C269.674 26.9552 268.945 27.1375 268.216 27.2937V30.1844ZM273.919 29.2469C274.7 29.6635 275.455 30.1844 276.184 30.8094C276.966 30.0802 277.617 29.2729 278.138 28.3875H274.544C274.335 28.7521 274.127 29.0385 273.919 29.2469ZM274.778 36.6687C275.507 37.0854 276.341 37.7104 277.278 38.5437C278.059 37.9708 278.736 37.0073 279.309 35.6531H275.716C275.403 36.0698 275.091 36.4083 274.778 36.6687ZM286.809 29.325C287.382 28.1271 288.346 26.9031 289.7 25.6531L290.559 26.4344C289.257 27.6323 288.346 28.7781 287.825 29.8719C287.252 31.0698 286.966 32.5021 286.966 34.1687C286.966 35.575 287.252 36.9031 287.825 38.1531C288.346 39.299 289.257 40.575 290.559 41.9812L289.7 42.8406C288.398 41.3823 287.434 40.0021 286.809 38.7C286.132 37.2937 285.794 35.7833 285.794 34.1687C285.794 32.3458 286.132 30.7312 286.809 29.325ZM297.903 41.9031H296.106V26.825H308.372V41.5906H306.575V40.4969H297.903V41.9031ZM306.575 32.7625V28.3094H297.903V32.7625H306.575ZM306.575 39.0125V34.2469H297.903V39.0125H306.575ZM321.341 35.8094H318.372C317.903 38.7781 316.497 41.1219 314.153 42.8406L313.372 41.3562C315.664 39.7417 316.914 37.3458 317.122 34.1687L317.278 31.7469H316.184V32.7625H314.622V26.0437H322.513V32.45H320.95V31.7469H318.684L318.528 34.325H322.903L322.513 40.4969C322.408 41.7469 321.888 42.3719 320.95 42.3719H318.841L318.606 40.8875H320.325C320.794 40.8875 321.054 40.6271 321.106 40.1062L321.341 35.8094ZM329.778 41.2C329.778 42.0854 329.361 42.5281 328.528 42.5281H326.809L326.497 41.0437H327.981C328.138 41.0437 328.216 40.9656 328.216 40.8094V25.8094H329.7C330.117 25.8615 330.143 26.0177 329.778 26.2781V41.2ZM326.028 27.6844C326.445 27.7365 326.471 27.8927 326.106 28.1531V38.8562H324.544V27.6844H326.028ZM320.95 30.4969V27.2937H316.184V30.4969H320.95ZM337.513 38.7C336.888 40.0021 335.924 41.3823 334.622 42.8406L333.763 41.9812C335.065 40.575 335.976 39.299 336.497 38.1531C337.07 36.9031 337.356 35.575 337.356 34.1687C337.356 32.5021 337.07 31.0698 336.497 29.8719C335.976 28.7781 335.065 27.6323 333.763 26.4344L334.622 25.6531C335.976 26.9031 336.94 28.1271 337.513 29.325C338.19 30.7312 338.528 32.3458 338.528 34.1687C338.528 35.7833 338.19 37.2937 337.513 38.7Z" fill="#757575"/>
</g>
</g>
<rect x="2" y="2" width="714" height="440" stroke="black" stroke-width="4"/>
</g>
<defs>
<clipPath id="clip0_1_2019">
<rect width="718" height="444" fill="white"/>
</clipPath>
<clipPath id="clip1_1_2019">
<rect width="718" height="444" fill="white"/>
</clipPath>
</defs>
</svg>
