<svg width="424" height="515" viewBox="0 0 424 515" fill="none" xmlns="http://www.w3.org/2000/svg">
<g id="map">
<path id="Iwate" d="M289.21 251.78L296.21 254.78L297.12 256.29L299.84 255.38L300.75 255.69L303.18 250.84L304.39 250.53L305.6 251.14L307.73 251.75V250.23L309.24 249.93L309.54 248.41L310.15 247.5L309.85 245.99L311.36 245.08L310.45 244.47L311.36 243.26L310.76 242.35V240.78L312.58 239.57L311.67 238.96L312.58 236.24V235.02L311.67 234.42V231.69L311.06 229.87L310.76 228.05V226.84L310.15 225.62L309.85 224.72L308.33 224.11L308.63 222.29L307.73 221.38V218.96L304.37 214.78L303.16 215.69L302.25 216.6L297.1 217.78L291.94 220.51L291.03 219.6L289.21 220.78V223.21L288.61 224.12L289.21 226.85L289.52 229.85L288.61 232.58V235.31L287.39 238.94L285.58 240.16L286.18 242.88L288.61 245.61V246.83L288 247.73L288.61 249.25L289.21 251.78Z" fill="#BDBEBE" stroke="white" stroke-width="0.5" stroke-miterlimit="10"/>
<path id="Aomori" d="M272.24 216.56V214.78L271.02 214.18L271.63 211.75L273.45 209.93L277.69 208.72L278.6 203.87L279.51 202.96V201.75L278.6 201.14L279.21 197.2L281.94 198.11L283.76 197.81L285.57 205.69L287.39 206.9L289.82 205.38V202.66L292.55 204.17L294.06 205.69L295.58 204.78L295.28 202.05L296.79 200.23L296.49 197.5L294.67 195.99L292.55 197.78L289.82 198.08L287.39 199.29V195.96L288 192.96L289.82 190.23H292.24L295.88 193.56L299.52 192.96L298.61 199.32L299.52 201.14V207.78L301.34 212.93L304.07 214.15L304.37 215.06L302.85 215.66L302.55 216.57L297.7 217.78L292.24 220.78L291.03 219.87V215.92L287.39 215.32L284.97 216.83L279.51 215.32L277.69 216.23L274.05 215.92L272.24 216.56Z" fill="#BDBEBE" stroke="white" stroke-width="0.5" stroke-miterlimit="10"/>
<g id="COVID">
<path id="Vector" d="M27.06 21.58C27.0326 22.616 26.798 23.6361 26.37 24.58C25.2111 27.1867 23.0849 29.2412 20.44 30.31C18.7493 31.0007 16.936 31.3409 15.11 31.31C13.6944 31.327 12.2815 31.1794 10.9 30.87C8.44402 30.3397 6.23653 29.0019 4.63 27.07C3.83391 26.1334 3.16171 25.0983 2.63 23.99C2.07169 22.8354 1.65854 21.6161 1.4 20.36C1.12185 19.0078 0.984454 17.6305 0.989999 16.25C0.950138 14.1043 1.28865 11.9683 1.99 9.94001C2.62071 8.15953 3.62287 6.53356 4.93 5.17C6.19359 3.8635 7.72075 2.84085 9.41 2.17C11.1549 1.48587 13.0159 1.14628 14.89 1.17C17.0756 1.131 19.2389 1.6144 21.2 2.58001C22.8795 3.38051 24.3358 4.58263 25.44 6.08001C26.3332 7.20241 26.851 8.57723 26.92 10.01C26.9368 10.6631 26.7003 11.2973 26.26 11.78C26.0446 12.0266 25.7785 12.224 25.48 12.3585C25.1815 12.4931 24.8575 12.5619 24.53 12.56C23.9232 12.5836 23.33 12.3764 22.87 11.98C22.3597 11.4299 21.935 10.8063 21.61 10.13C20.9693 8.84342 20.0297 7.72901 18.87 6.88C17.7206 6.12296 16.3657 5.73883 14.99 5.78C13.8706 5.74324 12.7587 5.97562 11.7477 6.45762C10.7368 6.93961 9.8562 7.65716 9.18 8.55C7.74 10.39 7.02 13.02 7.02 16.41C6.97341 18.3477 7.31336 20.2752 8.02 22.08C8.55054 23.4578 9.49347 24.6382 10.72 25.46C11.9545 26.2182 13.3817 26.6036 14.83 26.57C16.3641 26.6188 17.8738 26.1774 19.14 25.31C20.3857 24.3707 21.314 23.0725 21.8 21.59C21.9976 20.941 22.3017 20.3293 22.7 19.78C22.9186 19.5245 23.1951 19.3249 23.5065 19.1979C23.8178 19.071 24.1551 19.0202 24.49 19.05C24.8259 19.046 25.1591 19.1094 25.47 19.2365C25.7809 19.3636 26.0632 19.5518 26.3 19.79C26.5412 20.0214 26.7329 20.2994 26.8636 20.6071C26.9942 20.9147 27.061 21.2457 27.06 21.58V21.58Z" fill="black" stroke="white" stroke-width="0.5" stroke-miterlimit="10"/>
<path id="Vector_2" d="M45.22 1.11C47.936 1.03224 50.6251 1.66658 53.02 2.95C55.1646 4.14616 56.8867 5.9765 57.95 8.19C59.1207 10.6907 59.6924 13.4298 59.62 16.19C59.6465 18.2754 59.3393 20.3516 58.71 22.34C58.141 24.1155 57.2039 25.7511 55.96 27.14C54.7175 28.5071 53.1781 29.5711 51.46 30.25C49.5067 30.9929 47.4295 31.356 45.34 31.32C43.2448 31.3527 41.1631 30.9792 39.21 30.22C37.4844 29.5396 35.9381 28.4722 34.69 27.1C33.4418 25.7007 32.5075 24.0504 31.95 22.26C31.3157 20.2861 31.0017 18.2233 31.02 16.15C31.0041 14.0485 31.3421 11.9593 32.02 9.97C32.6031 8.1958 33.5576 6.56625 34.82 5.19C36.0634 3.86879 37.5875 2.84358 39.28 2.19C41.1747 1.46028 43.1898 1.0939 45.22 1.11V1.11ZM53.63 16.11C53.686 14.2074 53.3454 12.3139 52.63 10.55C52.0207 9.08255 50.973 7.83919 49.63 6.99C48.3046 6.17758 46.7744 5.76121 45.22 5.79C44.0946 5.77695 42.9796 6.00542 41.95 6.46C40.947 6.8955 40.06 7.55992 39.36 8.4C38.5736 9.3564 37.9885 10.4619 37.64 11.65C37.2111 13.0972 37.0022 14.6007 37.02 16.11C37.0024 17.6324 37.2113 19.1491 37.64 20.61C37.9945 21.832 38.6009 22.9663 39.42 23.94C40.1343 24.7969 41.0335 25.4807 42.05 25.94C43.2414 26.4395 44.5323 26.6561 45.8214 26.5728C47.1105 26.4895 48.3628 26.1086 49.48 25.46C50.8068 24.6144 51.8514 23.3923 52.48 21.95C53.2892 20.119 53.682 18.1312 53.63 16.13V16.11Z" fill="black" stroke="white" stroke-width="0.5" stroke-miterlimit="10"/>
<path id="Vector_3" d="M67.95 4.99L74.56 24.57L81.2 4.85C81.54 3.85 81.8 3.1 81.97 2.69C82.1617 2.26089 82.4573 1.88628 82.83 1.6C83.2985 1.24949 83.8759 1.07593 84.46 1.11C84.9466 1.11253 85.4243 1.24094 85.8466 1.48276C86.269 1.72458 86.6215 2.07158 86.87 2.49C87.1079 2.87118 87.2359 3.31067 87.24 3.76C87.2365 4.07692 87.1962 4.39235 87.12 4.7C87.0398 5.03895 86.9396 5.37287 86.82 5.7C86.7 6.02 86.58 6.36 86.46 6.7L79.4 25.78C79.15 26.51 78.9 27.2 78.65 27.86C78.4156 28.4648 78.1208 29.0444 77.77 29.59C77.4308 30.0999 76.9749 30.5216 76.44 30.82C75.8159 31.1197 75.1324 31.2753 74.44 31.2753C73.7476 31.2753 73.0641 31.1197 72.44 30.82C71.9074 30.5143 71.4523 30.09 71.11 29.58C70.7501 29.0346 70.4517 28.451 70.22 27.84C69.97 27.19 69.72 26.5 69.46 25.77L62.46 6.83999C62.34 6.49999 62.22 6.15999 62.09 5.83999C61.9614 5.48685 61.8546 5.12618 61.77 4.76C61.6957 4.43169 61.6555 4.09658 61.65 3.76C61.6546 3.41169 61.7286 3.06779 61.8677 2.74842C62.0067 2.42905 62.2081 2.14062 62.46 1.9C62.7267 1.62875 63.0463 1.41513 63.3989 1.27236C63.7515 1.12959 64.1297 1.06072 64.51 1.07C64.9155 1.02904 65.3247 1.09201 65.6991 1.25297C66.0735 1.41392 66.4007 1.66757 66.65 1.99C67.2133 2.9285 67.6504 3.9372 67.95 4.99Z" fill="black" stroke="white" stroke-width="0.5" stroke-miterlimit="10"/>
<path id="Vector_4" d="M91.93 27.7V4.69999C91.8563 3.73222 92.149 2.77211 92.75 2.00999C93.0167 1.71822 93.3433 1.48761 93.7075 1.33398C94.0718 1.18036 94.4649 1.10735 94.86 1.11999C95.262 1.10346 95.663 1.17348 96.0356 1.3253C96.4083 1.47712 96.7439 1.70721 97.02 1.99999C97.6296 2.76185 97.9264 3.72722 97.85 4.69999V27.7C97.924 28.6756 97.6276 29.6432 97.02 30.41C96.7444 30.7041 96.4091 30.9357 96.0365 31.0892C95.6639 31.2427 95.2627 31.3146 94.86 31.3C94.4656 31.3112 94.0735 31.2366 93.7109 31.0812C93.3483 30.9258 93.0238 30.6933 92.76 30.4C92.1565 29.6349 91.8605 28.672 91.93 27.7Z" fill="black" stroke="white" stroke-width="0.5" stroke-miterlimit="10"/>
<path id="Vector_5" d="M108.12 1.61H115.87C117.606 1.57785 119.34 1.76261 121.03 2.16C122.455 2.54797 123.77 3.26367 124.87 4.25C127.87 6.86 129.43 10.81 129.43 16.13C129.44 17.7415 129.286 19.3498 128.97 20.93C128.69 22.2957 128.212 23.613 127.55 24.84C126.912 26.0087 126.084 27.0631 125.1 27.96C124.337 28.6498 123.474 29.2196 122.54 29.65C121.584 30.0813 120.575 30.3839 119.54 30.55C118.342 30.731 117.132 30.818 115.92 30.81H108.21C107.371 30.8572 106.535 30.6885 105.78 30.32C105.258 30.0182 104.877 29.522 104.72 28.94C104.532 28.1883 104.448 27.4145 104.47 26.64V5.23C104.377 4.73429 104.406 4.22331 104.555 3.74138C104.704 3.25945 104.968 2.82113 105.324 2.46446C105.681 2.10778 106.119 1.84353 106.601 1.69463C107.083 1.54573 107.594 1.51668 108.09 1.61H108.12ZM110.42 6.29V26.1H114.87C115.87 26.1 116.62 26.1 117.18 26.02C117.77 25.9614 118.351 25.8304 118.91 25.63C119.48 25.4334 120.007 25.1277 120.46 24.73C122.46 23.0567 123.46 20.1767 123.46 16.09C123.46 13.2 123.03 11.09 122.16 9.61C121.464 8.32902 120.316 7.3525 118.94 6.87C117.437 6.45242 115.88 6.25702 114.32 6.29H110.42Z" fill="black" stroke="white" stroke-width="0.5" stroke-miterlimit="10"/>
<path id="Vector_6" d="M148.52 1.61H156.23C157.966 1.5793 159.699 1.76404 161.39 2.16C162.836 2.54034 164.172 3.25639 165.29 4.25C168.29 6.86 169.85 10.81 169.85 16.13C169.865 17.7417 169.711 19.3505 169.39 20.93C169.117 22.2962 168.642 23.6141 167.98 24.84C167.335 26.0041 166.508 27.0574 165.53 27.96C164.766 28.6525 163.899 29.2226 162.96 29.65C162.005 30.0827 160.996 30.3853 159.96 30.55C158.765 30.731 157.558 30.818 156.35 30.81H148.64C147.801 30.8595 146.964 30.6906 146.21 30.32C145.686 30.0185 145.301 29.5228 145.14 28.94C144.957 28.1874 144.873 27.4143 144.89 26.64V5.23C144.796 4.73331 144.825 4.22121 144.975 3.73832C145.124 3.25543 145.389 2.8164 145.747 2.45947C146.105 2.10254 146.545 1.83854 147.028 1.69049C147.511 1.54243 148.024 1.5148 148.52 1.61V1.61ZM150.81 6.29V26.1H155.29C156.29 26.1 157.04 26.1 157.6 26.02C158.191 25.9639 158.772 25.8328 159.33 25.63C159.891 25.4439 160.413 25.1558 160.87 24.78C162.87 23.1067 163.87 20.2267 163.87 16.14C164.011 13.9024 163.559 11.6671 162.56 9.66C161.866 8.37717 160.717 7.39996 159.34 6.92C157.837 6.501 156.28 6.30557 154.72 6.34L150.81 6.29Z" fill="black" stroke="white" stroke-width="0.5" stroke-miterlimit="10"/>
<path id="Vector_7" d="M192.18 27.5L190.79 23.83H178.87L177.48 27.58C177.14 28.6326 176.673 29.64 176.09 30.58C175.857 30.8491 175.563 31.0586 175.232 31.1908C174.902 31.323 174.544 31.3742 174.19 31.34C173.82 31.3445 173.452 31.2752 173.109 31.1362C172.765 30.9971 172.453 30.791 172.19 30.53C171.925 30.2971 171.711 30.0113 171.563 29.691C171.415 29.3706 171.336 29.0229 171.33 28.67C171.335 28.2523 171.403 27.8378 171.53 27.44C171.67 27.0067 171.89 26.4167 172.19 25.67L179.66 6.67L180.43 4.67C180.695 4.00315 181.031 3.36627 181.43 2.77C181.776 2.26474 182.235 1.84702 182.77 1.55C183.384 1.22187 184.074 1.05987 184.77 1.08C185.486 1.05163 186.197 1.21381 186.83 1.55C187.362 1.84307 187.82 2.25345 188.17 2.75C188.506 3.24659 188.791 3.77596 189.02 4.33C189.25 4.9 189.55 5.65 189.91 6.59L197.54 25.44C198.012 26.4217 198.313 27.4769 198.43 28.56C198.423 28.9122 198.345 29.2593 198.2 29.5806C198.056 29.9019 197.849 30.1908 197.59 30.43C197.329 30.6956 197.018 30.9066 196.674 31.0508C196.331 31.195 195.962 31.2695 195.59 31.27C195.176 31.2835 194.764 31.1978 194.39 31.02C194.065 30.8605 193.778 30.6318 193.55 30.35C193.262 29.9378 193.021 29.4952 192.83 29.03C192.59 28.47 192.36 27.95 192.18 27.5ZM180.47 19.39H189.19L184.79 7.39L180.47 19.39Z" fill="black" stroke="white" stroke-width="0.5" stroke-miterlimit="10"/>
<path id="Vector_8" d="M218.21 6.48999H211.76V27.7C211.84 28.6777 211.547 29.6496 210.94 30.42C210.673 30.7105 210.346 30.9396 209.982 31.0915C209.617 31.2434 209.224 31.3145 208.83 31.3C208.43 31.3137 208.032 31.2413 207.663 31.0877C207.294 30.9342 206.962 30.703 206.69 30.41C206.082 29.6432 205.786 28.6756 205.86 27.7V6.48999H199.41C198.603 6.55095 197.802 6.31242 197.16 5.81999C196.922 5.58881 196.732 5.31214 196.603 5.00638C196.474 4.70061 196.407 4.372 196.407 4.03999C196.407 3.70799 196.474 3.37936 196.603 3.0736C196.732 2.76784 196.922 2.49117 197.16 2.25999C197.798 1.78339 198.586 1.55262 199.38 1.60999H218.18C218.997 1.54243 219.81 1.78126 220.46 2.27999C220.707 2.50414 220.902 2.77958 221.032 3.08704C221.161 3.39451 221.222 3.72657 221.21 4.05999C221.223 4.3915 221.161 4.72167 221.03 5.02625C220.898 5.33083 220.7 5.60206 220.45 5.81999C219.808 6.30428 219.013 6.54202 218.21 6.48999Z" fill="black" stroke="white" stroke-width="0.5" stroke-miterlimit="10"/>
<path id="Vector_9" d="M240.87 27.5L239.48 23.83H227.59L226.2 27.58C225.864 28.6343 225.397 29.6423 224.81 30.58C224.577 30.8491 224.283 31.0586 223.952 31.1908C223.622 31.323 223.264 31.3742 222.91 31.34C222.54 31.3445 222.172 31.2752 221.829 31.1362C221.485 30.9971 221.173 30.791 220.91 30.53C220.646 30.2966 220.434 30.0105 220.288 29.6901C220.141 29.3697 220.064 29.0222 220.06 28.67C220.062 28.2528 220.126 27.8383 220.25 27.44C220.39 27.0067 220.61 26.4167 220.91 25.67L228.38 6.67L229.15 4.67C229.404 4.00704 229.722 3.37064 230.1 2.77C230.446 2.26474 230.905 1.84702 231.44 1.55C232.054 1.22187 232.744 1.05987 233.44 1.08C234.156 1.05163 234.867 1.21381 235.5 1.55C236.046 1.84789 236.515 2.26905 236.87 2.78C237.206 3.27658 237.491 3.80596 237.72 4.36C237.95 4.93 238.25 5.68 238.61 6.62L246.24 25.47C246.717 26.4499 247.018 27.5059 247.13 28.59C247.123 28.9422 247.045 29.2893 246.9 29.6106C246.756 29.9319 246.549 30.2208 246.29 30.46C246.029 30.7256 245.718 30.9366 245.374 31.0808C245.031 31.225 244.662 31.2995 244.29 31.3C243.876 31.3135 243.464 31.2278 243.09 31.05C242.765 30.8905 242.478 30.6618 242.25 30.38C241.962 29.9678 241.721 29.5252 241.53 29.06C241.27 28.47 241.04 27.95 240.87 27.5ZM229.16 19.39H237.87L233.47 7.39L229.16 19.39Z" fill="black" stroke="white" stroke-width="0.5" stroke-miterlimit="10"/>
<path id="Vector_10" d="M286.59 21.58C286.563 22.616 286.328 23.6361 285.9 24.58C285.382 25.7699 284.65 26.8546 283.74 27.78C282.677 28.8788 281.396 29.7438 279.98 30.32C278.286 31.0099 276.469 31.35 274.64 31.32C273.228 31.337 271.818 31.1893 270.44 30.88C267.98 30.3533 265.768 29.0149 264.16 27.08C263.367 26.1408 262.695 25.1061 262.16 24C261.609 22.8432 261.2 21.6245 260.94 20.37C260.657 19.0185 260.52 17.6407 260.53 16.26C260.49 14.1143 260.829 11.9783 261.53 9.95C262.169 8.17329 263.17 6.54887 264.47 5.18C265.735 3.8756 267.262 2.85328 268.95 2.18C270.695 1.49685 272.556 1.15729 274.43 1.18C276.619 1.14095 278.785 1.62431 280.75 2.59C282.428 3.39328 283.883 4.59489 284.99 6.09C285.876 7.21564 286.39 8.58916 286.46 10.02C286.464 10.6861 286.21 11.3279 285.75 11.81C285.533 12.0579 285.266 12.256 284.965 12.3906C284.665 12.5253 284.339 12.5933 284.01 12.59C283.395 12.6361 282.786 12.4426 282.31 12.05C281.796 11.5008 281.368 10.8771 281.04 10.2C280.41 8.91519 279.481 7.80057 278.33 6.95C277.208 6.18369 275.879 5.77575 274.52 5.78C273.402 5.74485 272.292 5.97801 271.283 6.45995C270.274 6.94188 269.395 7.65857 268.72 8.55C267.27 10.39 266.55 13.02 266.55 16.41C266.503 18.3477 266.843 20.2752 267.55 22.08C268.084 23.4585 269.031 24.6387 270.26 25.46C271.491 26.2179 272.915 26.6034 274.36 26.57C275.894 26.6202 277.404 26.1787 278.67 25.31C279.918 24.3734 280.847 23.0743 281.33 21.59C281.541 20.9171 281.858 20.2823 282.27 19.71C282.49 19.4558 282.766 19.2571 283.077 19.1302C283.389 19.0034 283.725 18.9519 284.06 18.98C284.4 18.9849 284.735 19.0582 285.046 19.1957C285.357 19.3331 285.638 19.5319 285.87 19.78C286.106 20.0156 286.291 20.2967 286.415 20.6061C286.539 20.9155 286.598 21.2468 286.59 21.58V21.58Z" fill="black" stroke="white" stroke-width="0.5" stroke-miterlimit="10"/>
<path id="Vector_11" d="M304.76 1.11C307.476 1.03363 310.165 1.66789 312.56 2.95C314.701 4.15133 316.421 5.98022 317.49 8.19C318.656 10.6923 319.227 13.4303 319.16 16.19C319.183 18.2759 318.873 20.3522 318.24 22.34C317.671 24.1155 316.734 25.7511 315.49 27.14C314.248 28.5071 312.708 29.5711 310.99 30.25C307.035 31.6967 302.695 31.6967 298.74 30.25C297.017 29.5646 295.472 28.4979 294.22 27.13C292.975 25.7281 292.041 24.0786 291.48 22.29C290.849 20.3155 290.538 18.2527 290.56 16.18C290.549 14.0789 290.887 11.9905 291.56 10C292.147 8.22755 293.101 6.59879 294.36 5.22C295.605 3.90087 297.129 2.87599 298.82 2.22C300.713 1.48141 302.728 1.10489 304.76 1.11ZM313.16 16.11C313.216 14.2074 312.875 12.314 312.16 10.55C311.547 9.0846 310.5 7.84215 309.16 6.99C307.835 6.17758 306.304 5.76121 304.75 5.79C303.621 5.77707 302.503 6.00551 301.47 6.46C300.464 6.90405 299.574 7.57487 298.87 8.42C298.091 9.37949 297.509 10.4842 297.16 11.67C296.723 13.1156 296.51 14.6198 296.53 16.13C296.51 17.6533 296.723 19.1707 297.16 20.63C297.515 21.8497 298.118 22.9832 298.93 23.96C299.644 24.8169 300.543 25.5007 301.56 25.96C302.751 26.4595 304.042 26.6761 305.331 26.5928C306.621 26.5095 307.873 26.1286 308.99 25.48C310.318 24.6363 311.363 23.4136 311.99 21.97C312.809 20.1344 313.209 18.1394 313.16 16.13V16.11Z" fill="black" stroke="white" stroke-width="0.5" stroke-miterlimit="10"/>
<path id="Vector_12" d="M334.08 26.4L329.4 7.78V27.96C329.467 28.8604 329.2 29.7541 328.65 30.47C328.398 30.7466 328.088 30.9644 327.742 31.1078C327.397 31.2513 327.024 31.3169 326.65 31.3C326.285 31.3135 325.921 31.2471 325.584 31.1055C325.248 30.9638 324.946 30.7504 324.7 30.48C324.138 29.766 323.866 28.8658 323.94 27.96V4.85C323.88 4.3708 323.94 3.88429 324.115 3.43403C324.29 2.98378 324.573 2.58383 324.94 2.27C325.753 1.79156 326.688 1.56209 327.63 1.61001H329.47C330.281 1.56676 331.093 1.66489 331.87 1.90001C332.116 1.9983 332.339 2.14438 332.528 2.32976C332.717 2.51515 332.867 2.73616 332.97 2.98C333.309 3.80073 333.583 4.64663 333.79 5.51001L338.03 21.51L342.27 5.51001C342.477 4.64663 342.751 3.80073 343.09 2.98C343.194 2.73523 343.346 2.51364 343.536 2.3282C343.727 2.14276 343.952 1.99719 344.2 1.90001C344.977 1.66489 345.789 1.56676 346.6 1.61001H348.43C349.372 1.56209 350.307 1.79156 351.12 2.27C351.487 2.58383 351.77 2.98378 351.945 3.43403C352.12 3.88429 352.18 4.3708 352.12 4.85V27.96C352.185 28.8587 351.923 29.7506 351.38 30.47C351.126 30.7445 350.816 30.9608 350.471 31.104C350.126 31.2473 349.754 31.3142 349.38 31.3C349.018 31.3086 348.657 31.239 348.324 31.0957C347.991 30.9525 347.693 30.7391 347.45 30.47C346.9 29.7541 346.633 28.8604 346.7 27.96V7.78L342.01 26.38C341.71 27.59 341.46 28.48 341.27 29.04C341.051 29.6393 340.683 30.1728 340.2 30.59C339.595 31.0804 338.828 31.3265 338.05 31.28C337.471 31.3065 336.897 31.1719 336.39 30.8912C335.883 30.6105 335.464 30.1947 335.18 29.69C334.909 29.2048 334.701 28.6874 334.56 28.15C334.39 27.6 334.24 27.01 334.08 26.4Z" fill="black" stroke="white" stroke-width="0.5" stroke-miterlimit="10"/>
<path id="Vector_13" d="M358.44 27.7V4.7C358.367 3.73395 358.656 2.77537 359.25 2.01001C359.519 1.71799 359.847 1.48733 360.213 1.33374C360.579 1.18015 360.973 1.10724 361.37 1.12C361.772 1.10542 362.172 1.17633 362.545 1.32803C362.917 1.47974 363.253 1.70878 363.53 2.00001C364.136 2.76332 364.429 3.72855 364.35 4.7V27.7C364.427 28.6743 364.134 29.6417 363.53 30.41C363.253 30.7025 362.918 30.9331 362.545 31.0865C362.173 31.2399 361.772 31.3127 361.37 31.3C360.974 31.312 360.58 31.2378 360.216 31.0824C359.852 30.927 359.525 30.6941 359.26 30.4C358.66 29.6334 358.368 28.6707 358.44 27.7V27.7Z" fill="black" stroke="white" stroke-width="0.5" stroke-miterlimit="10"/>
<path id="Vector_14" d="M395.87 21.58C395.842 22.6148 395.611 23.634 395.19 24.58C394.655 25.7679 393.914 26.8514 393 27.78C391.932 28.8772 390.648 29.742 389.23 30.32C387.536 31.0099 385.719 31.35 383.89 31.32C382.478 31.337 381.068 31.1893 379.69 30.88C378.479 30.6116 377.317 30.1526 376.25 29.52C375.18 28.8661 374.224 28.0419 373.42 27.08C372.624 26.1432 371.952 25.108 371.42 24C370.869 22.8432 370.46 21.6245 370.2 20.37C369.922 19.0178 369.784 17.6405 369.79 16.26C369.744 14.1139 370.083 11.9769 370.79 9.94999C371.421 8.17196 372.419 6.54671 373.72 5.17999C374.987 3.87326 376.518 2.85068 378.21 2.17999C379.951 1.49591 381.809 1.1563 383.68 1.17999C385.869 1.13978 388.036 1.6232 390 2.58999C391.678 3.39327 393.133 4.59488 394.24 6.08999C395.126 7.21563 395.64 8.58915 395.71 10.02C395.714 10.6861 395.46 11.3279 395 11.81C394.783 12.0579 394.516 12.256 394.215 12.3906C393.915 12.5253 393.589 12.5933 393.26 12.59C392.645 12.6361 392.036 12.4426 391.56 12.05C391.047 11.5025 390.621 10.8783 390.3 10.2C389.665 8.91559 388.732 7.80136 387.58 6.94999C386.458 6.18368 385.129 5.77574 383.77 5.77999C382.652 5.74484 381.542 5.978 380.533 6.45994C379.524 6.94187 378.645 7.65856 377.97 8.54999C376.53 10.39 375.81 13.02 375.81 16.41C375.748 18.3443 376.071 20.2716 376.76 22.08C377.294 23.4585 378.241 24.6387 379.47 25.46C380.701 26.2168 382.125 26.6022 383.57 26.57C385.097 26.6227 386.602 26.1923 387.87 25.34C389.112 24.3975 390.04 23.1005 390.53 21.62C390.733 20.946 391.048 20.3107 391.46 19.74C391.68 19.4858 391.956 19.2871 392.267 19.1602C392.579 19.0334 392.915 18.9819 393.25 19.01C393.587 19.0057 393.922 19.069 394.235 19.1961C394.547 19.3232 394.831 19.5115 395.07 19.75C395.324 19.9821 395.526 20.2649 395.664 20.5802C395.802 20.8954 395.872 21.236 395.87 21.58V21.58Z" fill="black" stroke="white" stroke-width="0.5" stroke-miterlimit="10"/>
<path id="Vector_15" d="M423.35 22.04C423.371 23.7191 422.898 25.3674 421.99 26.78C421.008 28.2499 419.618 29.4005 417.99 30.09C416.021 30.9247 413.898 31.3304 411.76 31.28C409.281 31.378 406.82 30.8155 404.63 29.65C403.312 28.8803 402.201 27.8029 401.39 26.51C400.619 25.3856 400.188 24.0628 400.15 22.7C400.143 22.3639 400.202 22.0298 400.326 21.7172C400.45 21.4047 400.635 21.12 400.87 20.88C401.117 20.6259 401.415 20.4262 401.744 20.2936C402.073 20.161 402.426 20.0985 402.78 20.11C403.365 20.096 403.932 20.3114 404.36 20.71C404.855 21.2098 405.231 21.8148 405.46 22.48C405.787 23.2883 406.199 24.0593 406.69 24.78C407.16 25.4359 407.785 25.965 408.51 26.32C409.476 26.7675 410.536 26.9766 411.6 26.93C413.11 27.0181 414.608 26.6147 415.87 25.78C416.374 25.4443 416.787 24.9893 417.074 24.4555C417.36 23.9218 417.51 23.3256 417.51 22.72C417.529 22.2877 417.462 21.8559 417.31 21.4504C417.159 21.0449 416.928 20.674 416.63 20.36C415.988 19.7216 415.203 19.2452 414.34 18.97C413.4 18.66 412.15 18.32 410.58 17.97C408.771 17.5718 407.006 16.9956 405.31 16.25C403.98 15.6526 402.824 14.727 401.95 13.56C401.086 12.3188 400.648 10.8312 400.7 9.31999C400.678 7.78987 401.14 6.29189 402.02 5.04C402.975 3.72607 404.297 2.724 405.82 2.15999C407.691 1.45412 409.681 1.11462 411.68 1.15999C413.255 1.12849 414.826 1.35135 416.33 1.81999C417.519 2.20323 418.625 2.8071 419.59 3.59999C420.372 4.23615 421.015 5.02571 421.48 5.91999C421.861 6.65283 422.066 7.46418 422.08 8.29C422.079 8.99537 421.811 9.67424 421.33 10.19C421.102 10.4599 420.817 10.6761 420.495 10.823C420.174 10.97 419.824 11.044 419.47 11.04C418.906 11.0803 418.35 10.8971 417.92 10.53C417.453 10.0083 417.068 9.41809 416.78 8.77999C416.334 7.80532 415.683 6.93878 414.87 6.23999C413.814 5.53125 412.548 5.20326 411.28 5.30999C409.975 5.24493 408.683 5.59502 407.59 6.30999C407.163 6.56666 406.81 6.92854 406.563 7.361C406.316 7.79347 406.184 8.28204 406.18 8.77999C406.168 9.3226 406.337 9.85372 406.66 10.29C407.017 10.7419 407.463 11.1161 407.97 11.39C408.511 11.685 409.08 11.9229 409.67 12.1C410.24 12.28 411.18 12.53 412.5 12.86C414.011 13.2065 415.503 13.6303 416.97 14.13C418.178 14.5333 419.323 15.1057 420.37 15.83C421.298 16.4756 422.05 17.3415 422.56 18.35C423.114 19.4994 423.385 20.7646 423.35 22.04V22.04Z" fill="black" stroke="white" stroke-width="0.5" stroke-miterlimit="10"/>
</g>
<path id="AREA" d="M12.16 284.51C12.16 284.51 112.87 293.02 180.08 225.83C247.29 158.64 238.75 57.91 238.75 57.91" stroke="white" stroke-width="0.5" stroke-miterlimit="10"/>
<g id="Hopporyodo">
<path id="Vector_16" d="M390.47 110.46H392.87L394.08 108.03L397.72 105.91L398.33 103.18L402.27 98.94L403.18 95.6L406.51 95.91L409.24 93.48L414.09 88.33L418.94 84.99H421.06L422.58 84.08L422.28 79.84L421.06 80.14L417.12 83.14L413.79 86.48L409.24 87.39L406.87 84.69V88.33L403.53 91.66L403.23 92.27L400.8 93.18L399.26 96.78L397.44 97.99L396.83 100.41L394.41 101.32L395.32 104.32L392.59 105.53V106.44L391.37 106.74L391.68 107.95L390.77 108.56L391.07 110.98L390.47 110.46Z" fill="#BDBEBE" stroke="white" stroke-width="0.5" stroke-miterlimit="10"/>
<path id="Vector_17" d="M367.43 129.25L369.24 130.77H370.15V127.43L371.06 125.92L373.19 124.71L374.7 121.98L375.31 120.16L377.73 118.34L378.34 116.22L381.07 115.31L383.19 113.79L385.31 112.58L385.92 110.76L383.19 111.67L378.34 110.15L375 115.91V117.13L373.49 118.04L372.88 121.04L371.06 122.55L370.76 123.46L367.42 127.4V129.22L367.43 129.25Z" fill="#BDBEBE" stroke="white" stroke-width="0.5" stroke-miterlimit="10"/>
<path id="Vector_18" d="M388.34 128.04L389.56 128.95L393.5 126.22L391.98 124.71L389.86 125.31L388.34 126.83V128.04Z" fill="#BDBEBE" stroke="white" stroke-width="0.5" stroke-miterlimit="10"/>
<path id="Vector_19" d="M380.16 135.32H381.37V133.78H380.16V135.32Z" fill="#BDBEBE" stroke="white" stroke-width="0.5" stroke-miterlimit="10"/>
</g>
<g id="Hokkaido">
<path id="Vector_20" d="M291.03 100.15H293.15L292.85 98.33L291.64 97.12L289.82 98.03V98.94L291.03 100.15Z" fill="#BDBEBE" stroke="white" stroke-width="0.5" stroke-miterlimit="10"/>
<path id="Vector_21" d="M287.39 95.6L288.3 94.39V92.57L286.79 92.87L287.39 95.6Z" fill="#BDBEBE" stroke="white" stroke-width="0.5" stroke-miterlimit="10"/>
<path id="Vector_22" d="M264.05 173.21L263.44 176.21L262.54 177.73L261.32 176.21L261.93 174.39L264.05 173.21Z" fill="#BDBEBE" stroke="white" stroke-width="0.5" stroke-miterlimit="10"/>
<path id="a" d="M275.87 192.61L277.09 192.31V191.4L278.87 189.88L280.68 189.28L280.38 186.55L283.38 184.12L284.59 182.3L286.11 183.21L291.26 185.03L293.99 182.61L292.48 180.49L289.48 179.58L285.87 175.33L284.35 175.03L282.53 175.94L279.8 172.94L278.59 172.63L277.39 170.78V169.87L278.3 168.97L279.51 165.33L280.72 164.12L282.87 163.78L284.68 164.09L286.2 165.3L288.32 167.72L289.53 169.84H291.05L292.26 168.03L297.72 164.39L305 162.27L322.87 172.6L331.66 177.45L332.87 173.78V168.62L334.08 164.98L335.59 163.77L337.41 160.44L345.9 151.95L348.02 150.43L351.36 150.74L352.27 151.34L356.82 151.04L357.12 148.61L358.03 148.31L358.94 149.22L361.36 149.83L363.79 147.1L364.39 145.28L369.87 143.78L371.08 142.27L374.42 139.54V138.33L372.87 137.78L370.45 140.78L366.2 141.99L365.6 140.18L366.81 139.87L364.69 134.72L366.2 135.33V133.78L363.47 133.48L361.96 131.35L361.66 128.35L362.87 122.28L364.99 120.76V116.22L363.78 115.91L360.15 120.78L358.03 123.21L355.03 126.85L351.08 127.15L348.36 126.24L345.63 122.6L344.72 124.42L343.2 122.3L338.35 123.51L336.53 122.3V120.78L332.59 119.27L325.29 113.78L320.13 108.93L316.19 103.78L311.34 97.41L307.1 94.08L303.46 90.44H302.55V91.95L298.91 92.26L298 93.77L298.31 96.77L297.4 97.68L297.7 100.41L301.03 105.57L302.25 109.51V114.36L301.64 118.3L299.87 120.78L301.08 124.42L300.78 126.85L300.17 128.67L299.57 131.09L296.23 133.52L295.63 135.03L295.93 138.03L297.75 143.79L296.84 146.52L293.2 149.52L290.78 149.22L289.21 147.78L286.79 148.39L283.79 147.18L282.28 145.36L279.28 145.06L277.76 145.97L278.06 148.09L280.79 152.63V154.45L278.67 156.27L278.06 157.18L277.16 159.91L275.34 158.7L273.45 160.78L269.81 162.3L269.2 164.11L269.51 168.36L267.69 170.78L269.81 174.12L272.54 175.94L274.66 179.57V182.3L272.54 188.06L273.45 192L275.87 192.61Z" fill="#BDBEBE" stroke="white" stroke-width="0.5" stroke-miterlimit="10"/>
</g>
<g id="Miyagi">
<path id="Vector_23" d="M280.72 276.58L284.36 277.19L284.97 278.1L288.3 278.4L289.52 280.83L292.24 278.71H293.46L293.15 274.16L295.28 270.52V267.52L298.61 266.61L299.22 265.4H301.04L303.76 268.4L304.37 267.79V265.07H303.16L304.07 262.64L303.16 262.03L303.46 260.52L303.16 257.79L304.37 257.18L304.67 255.36L304.98 253.55L306.19 254.15L305.58 251.15L303.46 250.24L300.73 255.7L299.82 255.09L296.82 256.3L295.87 254.78L288.87 251.78L287.66 252.08L287.35 252.99L284.93 254.2V255.11L286.44 257.84L286.14 260.26L284.93 259.96L284.32 261.17V262.08L285.23 262.69V264.51L285.53 266.02L284.36 267.78L283.76 269.91V271.78L282.54 272.39L282.24 273.91L280.42 274.82L280.72 276.58Z" fill="#BDBEBE" stroke="white" stroke-width="0.5" stroke-miterlimit="10"/>
</g>
<g id="Akita">
<path id="Vector_24" d="M272.24 216.56L276.48 215.95H278L279.51 215.35L284.97 216.56L287.09 215.05L291.03 215.95V219.59L289.21 220.78V223.21L288.61 224.12L289.21 226.54L289.52 230.18L288.61 232.3V235.3L287.4 238.93L285.58 240.15L286.18 242.87L288.61 245.6L288.91 246.82L288 247.73L288.61 249.54L288.87 251.78L287.36 252.08L287.05 252.99L284.93 254.2L282.24 251.78L278 250.56L274.06 248.44H272.24L274.97 242.38L275.27 235.1L274.06 232.98V230.56H269.51L268.6 229.65L268.3 227.52H269.51L270.72 228.43L272.24 227.22V226.01L273.75 223.89V221.16L274.36 219.64L272.24 216.56Z" fill="#BDBEBE" stroke="white" stroke-width="0.5" stroke-miterlimit="10"/>
</g>
<g id="Yamagata">
<path id="Vector_25" d="M271.93 248.09L274.06 248.39L278 250.51L282.24 251.73L284.67 253.85L284.97 255.06L286.48 257.49L285.88 260.21L284.97 259.91L284.36 261.12V262.03L285.27 262.64L285.58 265.97L283.45 269.61L283.76 271.73L282.54 272.34L281.94 273.86L280.12 274.77V275.98L280.72 276.89L279.51 277.8L280.12 281.13L278.87 281.78L270.07 280.26L267.95 278.75L269.47 274.2L268.56 273.59L269.77 271.47H270.98L272.5 269.96V268.74L270.38 266.92H269.17L268.86 264.2L266.74 262.38L269.74 258.44L272.17 250.55L271.93 248.09Z" fill="#BDBEBE" stroke="white" stroke-width="0.5" stroke-miterlimit="10"/>
</g>
<g id="Fukushima">
<path id="Vector_26" d="M270.42 280.22L278.87 281.78L280.08 281.17L279.47 277.84L280.68 276.62L284.32 277.23L284.93 278.14L288.26 278.44L289.48 280.87L292.2 278.75H293.42L295.24 283.29V287.54L295.54 292.39L296.15 294.51L295.54 295.72L294.93 296.94V300.27L291.93 303.91L288.6 303L287.69 302.09L284.69 304.82L282.56 303H281.35L280.14 299.67L277.41 297.54L275.89 297.24H272.89L267.74 300.24L266.53 301.15L263.53 302.67H262.31L261.4 302.06L262.01 301.15V298.73L260.49 296L259.89 294.78L260.19 293.88L260.49 292.66L259.89 291.75L260.19 290.24L265.34 288.12L267.16 287.21L266.56 286.3V285.08L268.07 284.48L268.98 282.05L270.42 280.22Z" fill="#BDBEBE" stroke="white" stroke-width="0.5" stroke-miterlimit="10"/>
</g>
<g id="Ibaraki">
<path id="Vector_27" d="M274.66 326.3L275.87 327.51L279.51 327.82L280.12 329.03H283.45L285.27 327.51H288L289.21 328.12L291.64 330.55H293.15L288.61 322.66L288.3 321.45L287.39 320.54L287.7 317.21L288.91 315.99V315.09L288.3 313.87L289.21 312.05L291.03 306.6L291.94 303.87L288.3 302.96L287.7 302.05L284.7 304.78L282.57 302.96H281.36L280.75 304.17V307.78L280.45 308.69L281.06 312.63L279.24 315.36H278.33L272.57 318.36H271.36L268.36 318.66L269.26 319.57L270.17 320.18L270.48 322.91L273.48 324.42L274.66 326.3Z" fill="#BDBEBE" stroke="white" stroke-width="0.5" stroke-miterlimit="10"/>
</g>
<g id="Tochigi">
<path id="Vector_28" d="M261.93 302.35H263.45L266.78 301.14L267.99 299.93L272.84 296.93L275.84 297.23L277.36 297.53L280.09 299.66L281.3 302.66L280.7 304.17L281 307.81L280.7 312.66L278.87 315.09L277.96 315.39L272.2 318.39H268.26L265.53 318.09L264.31 315.36V313.24L265.22 310.24H263.1L263.41 309.02V308.11L262.87 304.78L261.93 302.35Z" fill="#BDBEBE" stroke="white" stroke-width="0.5" stroke-miterlimit="10"/>
</g>
<g id="Gumma">
<path id="Vector_29" d="M261.93 302.35L261.02 301.75L258.59 301.14H257.08L255.87 303.87L254.35 305.69H253.14L252.53 306.29L251.62 308.72L250.11 309.02L248.59 308.72L245.59 311.45V315.09H247.41L249.53 316L248.92 318.72L249.23 322.06L249.53 324.18L250.14 325.7L251.65 326.3L253.77 323.88L256.5 322.97L257.72 322.06L258.02 320.24L259.84 319.33H261.96L264.38 320.54L267.72 320.85H269.24V319.63L268.33 318.42L265.6 318.12L264.38 315.12V312.99L264.99 310.27H263.17L263.48 308.45L262.87 304.78L261.93 302.35Z" fill="#BDBEBE" stroke="white" stroke-width="0.5" stroke-miterlimit="10"/>
</g>
<g id="Saitama">
<path id="Vector_30" d="M251.32 326L253.44 323.88L256.17 322.97L257.69 321.75V319.94L259.5 319.03L261.93 319.33L264.35 320.54L268.9 320.85L269.21 319.63L270.11 320.24L270.42 322.97L273.15 324.48L274.36 326.3L274.66 330.55H271.33L269.21 331.15H266.48L263.14 330.85L257.69 329.03L256.47 329.64L253.14 329.33L251.93 328.12L251.32 326Z" fill="#BDBEBE" stroke="white" stroke-width="0.5" stroke-miterlimit="10"/>
</g>
<g id="Chiba">
<path id="Vector_31" d="M274.96 334.49L274.66 330.55L274.36 326.3L275.57 327.51L279.51 327.82L279.82 329.03L283.45 328.73L285.27 327.51H288L288.91 327.82L291.64 330.55H292.87L293.78 332.37L290.45 332.67L287.11 335.09L286.2 338.73L285.9 342.98L284.69 345.4L283.78 346.92L279.23 347.83L276.8 350.25L276.5 351.16L275.29 352.07L274.08 352.37V349.95L274.68 347.52L274.08 345.4L274.68 343.58L273.77 343.28V342.07L279.23 335.7V334.78L277.41 333.27L274.96 334.49Z" fill="#BDBEBE" stroke="white" stroke-width="0.5" stroke-miterlimit="10"/>
</g>
<g id="Tokyo">
<path id="Vector_32" d="M256.47 329.33L257.69 328.73L263.14 330.55L266.14 331.15H269.14L270.96 330.55H274.3L274.9 334.49L271.57 334.79L269.14 335.4H264.6L260.35 334.79L260.05 333.88L259.14 332.97L256.71 330.85L256.47 329.33Z" fill="#BDBEBE" stroke="white" stroke-width="0.5" stroke-miterlimit="10"/>
<path id="Vector_33" d="M265.26 357.53H267.39V356.62L265.26 355.1V357.53Z" fill="#BDBEBE" stroke="white" stroke-width="0.5" stroke-miterlimit="10"/>
<path id="Vector_34" d="M262.54 360.26V361.47L262.84 360.26H262.54Z" fill="#BDBEBE" stroke="white" stroke-width="0.5" stroke-miterlimit="10"/>
<path id="Vector_35" d="M264.05 362.07L264.96 361.47L263.75 362.07H264.05Z" fill="#BDBEBE" stroke="white" stroke-width="0.5" stroke-miterlimit="10"/>
</g>
<g id="Kanagawa">
<path id="Vector_36" d="M260.11 334.49L264.96 335.4H269.2L271.33 334.49H274.96L273.45 335.09L272.54 336V337.52L270.72 339.03L270.42 342.37L272.24 343.28L271.93 345.1L270.11 346.31V344.19L269.2 342.67L264.96 342.07L263.14 343.28L261.63 343.88V345.4L260.41 346.92L257.08 345.4L257.38 344.19V341.46L256.17 340.55V339.34L258.29 338.12L259.81 337.22L260.11 336.31V334.49V334.49Z" fill="#BDBEBE" stroke="white" stroke-width="0.5" stroke-miterlimit="10"/>
</g>
<g id="Nigata">
<path id="Vector_37" d="M252.23 306.29L253.14 305.69H254.35L255.87 303.87L257.08 301.14H258.59L261.32 301.75L261.93 300.84L261.63 298.41L259.81 294.78L260.41 292.66L259.5 291.75L260.11 289.93L265.26 288.12L267.08 287.21L266.17 286.3V285.08L267.99 284.17L268.87 281.78L270.39 280.57L267.96 278.75L269.48 274.2L268.57 273.59L269.78 271.47H270.69L272.21 269.96V268.74L270.39 266.92H269.17L268.87 263.92L266.75 262.41L266.14 263.92L264.02 268.17V273.93L254.32 280.93L252.87 282.35L251.66 287.5L248.66 290.23L247.45 292.96L242.6 297.2H240.17L236.23 299.63L234.11 301.44L231.38 302.66L232.29 305.99L234.11 304.48L234.72 303.26H237.14L238.35 305.38L242.6 304.17L244.11 302.35L245.63 300.84H247.45L249.57 303.57L252.23 306.29Z" fill="#BDBEBE" stroke="white" stroke-width="0.5" stroke-miterlimit="10"/>
<path id="Vector_38" d="M241.31 281.78L244.31 281.48L247.31 278.48L247.61 275.48L245.79 276.09V273.36L246.4 271.84L246.09 269.42L242.46 273.06L241.55 276.69L243.37 277.91V279.12L241.31 281.78Z" fill="#BDBEBE" stroke="white" stroke-width="0.5" stroke-miterlimit="10"/>
</g>
<g id="Toyama">
<path id="Vector_39" d="M231.01 302.35L231.92 305.99L232.22 307.2V309.63L230.1 313.27V314.48L229.19 316.3L224.34 315.09L219.79 315.39L218.27 317.21L216.76 319.33L215.87 317.78H213.75L213.44 314.78L214.05 313.57L214.35 306.9L215.26 304.78L216.48 303.87L216.78 302.66H218.87V306.29L219.78 307.81L223.72 308.11L224.93 307.51L226.75 303.87L228.57 302.35H231.01Z" fill="#BDBEBE" stroke="white" stroke-width="0.5" stroke-miterlimit="10"/>
</g>
<g id="Ishikawa">
<path id="Vector_40" d="M218.87 302.66H216.75L216.45 303.87L215.23 304.78L214.32 306.9L214.02 313.9L213.41 314.81L213.72 317.81L213.41 319.63L213.72 321.15L212.81 321.75L212.51 323.57L210.38 324.48L209.78 322.66L208.26 322.06H205.53L204.02 320.54L202.8 319.94L207.35 316.3L210.99 309.63L212.5 308.11L213.72 303.87L212.81 302.66L213.11 299.66L211.87 297.2L212.47 295.68L212.78 293.56L215.78 292.05H217.6L223.66 288.71L224.87 290.53L223.06 292.35L222.75 294.17L221.24 295.08L220.33 294.77L218.2 297.2L216.39 296.59L215.78 299.02L217.3 300.53L218.51 300.23L218.87 302.66Z" fill="#BDBEBE" stroke="white" stroke-width="0.5" stroke-miterlimit="10"/>
</g>
<g id="Fukui">
<path id="Vector_41" d="M202.81 319.94L204.03 320.54L205.24 322.06H207.97L209.48 322.66L210.39 324.79L213.39 329.64L213.09 331.76L208.85 332.36H205.21L203.12 334.78L202.21 335.08L201.6 335.99L200.39 336.9L195.24 339.02L194.63 342.02L193.72 342.62L192.51 341.71L188.26 340.8L187.66 339.29L187.05 336.56L188.26 336.86L189.17 337.16L189.48 338.38H190.69V337.78H191.6V338.99L193.11 338.69V337.17L194.02 337.48L194.93 336.87V335.66L196.45 335.36L197.96 334.45V332.93H199.18L200.39 334.14L200.09 331.14L197.96 326.59V325.38L200.96 320.84L202.81 319.94Z" fill="#BDBEBE" stroke="white" stroke-width="0.5" stroke-miterlimit="10"/>
</g>
<g id="Yamanashi">
<path id="Vector_42" d="M251.62 328.12L252.83 329.33H256.47L256.78 330.85L260.11 333.58V336.31L259.81 337.22L255.87 339.34V340.25H254.35L252.23 340.85H250.11L248.89 339.94H247.38V344.78L246.16 346L244.65 344.18L244.35 342.66H242.53V340.24L242.22 338.42V335.99L241.31 335.08V330.23L244.65 327.5L245.86 328.11L248.59 328.72L251.62 328.12Z" fill="#BDBEBE" stroke="white" stroke-width="0.5" stroke-miterlimit="10"/>
</g>
<g id="Nagano">
<path id="Vector_43" d="M231.92 305.69L234.04 304.48L234.34 303.26H237.07L237.98 305.38L242.53 304.17L245.53 300.84H247.35L249.47 303.84L252.2 306.26L251.59 308.69L249.77 308.99L248.56 308.69L245.23 311.69L245.53 314.69H247.04L249.47 315.9L248.86 318.9L249.17 324.05L250.08 325.57L251.29 326.17L251.59 327.69L248.59 328.6L245.86 327.99L244.65 327.38L241.32 330.11V334.96L240.41 335.27L239.5 338.6L239.19 341.33L237.37 343.15L233.43 344.97L228.28 344.36L229.19 340.72L230.1 339.51L229.8 337.69L228.58 336.78V335.57L227.07 333.14L224.95 330.72L224.64 329.51L227.07 327.99L228.58 326.17L229.19 324.66L228.58 321.32L229.8 318.9L229.49 317.38L229.19 315.86L230.1 314.35V313.14L232.22 309.5L231.92 305.69Z" fill="#BDBEBE" stroke="white" stroke-width="0.5" stroke-miterlimit="10"/>
</g>
<g id="Gifu">
<path id="Vector_44" d="M203.12 334.78L205.24 332.66L208.57 332.36L212.87 331.78L213.47 329.35L210.14 324.5L212.56 323.29V321.78L213.78 321.18L213.47 319.66V317.78H215.87L216.78 319.3L218.29 316.87L219.51 315.36L224.36 315.06L229.21 316.27L229.82 319L228.28 321.78L228.88 324.78L228.58 326.29L226.76 328.41L224.64 329.63L224.94 330.54L227.07 333.26L228.58 335.39V336.9L229.8 338.12L230.1 339.63L229.19 340.84L228.28 344.48H224.64L220.4 343.27L217.06 341.45L212.82 342.06L210.7 345.06V346.27H209.79L208.57 345.06L206.76 344.76L206.15 340.21L203.12 334.78Z" fill="#BDBEBE" stroke="white" stroke-width="0.5" stroke-miterlimit="10"/>
</g>
<g id="Shizuoka">
<path id="Vector_45" d="M233.43 345.1L237.07 342.98L239.19 341.46L239.5 338.73L240.71 335.4L241.31 335.09L241.92 336L242.22 338.43L242.53 340.55V342.67H244.04L244.35 344.19L246.17 346.01L247.38 344.79V339.94H248.87L250.09 340.85H252.21L254.03 340.25H255.87L257.08 341.46V345.1L260.08 346.92L259.78 350.55L260.69 352.37L257.69 357.22V359.04H256.17L255.26 360.25H254.35L253.74 357.25L253.44 349.98L255.26 349.67L253.14 347.25L250.14 347.55L248.32 349.37L248.01 351.49L245.01 352.71L243.8 356.65L242.59 357.56L241.98 360.28L238.98 359.07L235.98 359.38L234.46 360.28L230.82 359.07H227.37V355.13L229.8 353.31L233.74 347.25L233.43 345.1Z" fill="#BDBEBE" stroke="white" stroke-width="0.5" stroke-miterlimit="10"/>
</g>
<g id="Aichi">
<path id="Vector_46" d="M210.09 346.31L210.7 346.01V345.1L212.82 342.1L217.06 341.49L220.4 343.31L224.64 344.52H228.28L233.43 345.13L233.74 347.55L229.79 353.62L227.37 355.13V359.07H224.94L220.7 360.89H219.18V359.98L223.73 357.25L223.43 356.04L218.88 356.34L217.97 355.74L217.67 353.92L216.76 356.04L217.36 358.16L215.24 357.25V355.43L214.33 353.92V352.4L216.15 350.28L214.94 349.37L212.51 350.28L210.09 346.31Z" fill="#BDBEBE" stroke="white" stroke-width="0.5" stroke-miterlimit="10"/>
</g>
<g id="Mie">
<path id="Vector_47" d="M206.76 344.49L208.57 345.1L209.48 346.31H210.39L212.21 349.95L211.3 351.46L210.7 355.1L208.87 356.62L208.56 359.62L211.56 362.04L213.98 363.56L216.41 365.08L216.1 368.41L213.98 369.02L214.59 367.8H211.59L206.73 370.23H204.92L204.31 370.84V372.35L202.79 372.96L203.1 376.29L199.78 378.78L198.27 383.02L194.93 380.29L195.24 378.17L197.05 376.96V375.14L199.48 373.32V369.38L199.78 367.56L198.87 366.65V364.78L201.6 364.48L202.51 363.87L201.6 361.75L200.09 361.45L198.87 359.95V357.83L197.96 357.22L198.57 355.71L200.09 353.89H202.81L204.33 352.68L205.24 350.86L206.15 350.25V347.25L206.76 344.49Z" fill="#BDBEBE" stroke="white" stroke-width="0.5" stroke-miterlimit="10"/>
</g>
<g id="Shiga">
<path id="Vector_48" d="M193.72 342.67L194.63 342.07L194.93 339.07L200.39 336.94L201.6 336.03L202.21 335.12H203.12L206.12 340.58L206.73 344.83L206.12 347.25V350.58L205.21 350.89L204.3 352.71L202.78 353.92H200.06L198.24 356.04L196.11 353.92L194.3 349.37L193.72 342.67Z" fill="#BDBEBE" stroke="white" stroke-width="0.5" stroke-miterlimit="10"/>
</g>
<g id="Kyoto">
<path id="Vector_49" d="M186.75 336.61L188.26 340.85L192.51 341.76L193.72 342.67L194.33 349.67L196.14 353.92L198.27 356.04L197.96 356.95L194.02 357.56L192.81 356.65L192.51 354.83L192.2 352.1L190.38 351.8V350.58L188.57 349.07L183.41 346.95L180.99 343.61L178.56 343.31L177.05 342.09V341.19H178.56L178.87 340.28V337.78L176.44 336.57L175.87 334.78L178.3 334.48L180.12 332.66H184.06L182.85 336.9L184.36 337.51L184.97 339.02L186.18 338.72L186.75 336.61Z" fill="#BDBEBE" stroke="white" stroke-width="0.5" stroke-miterlimit="10"/>
</g>
<g id="Osaka">
<path id="Vector_50" d="M190.38 351.78L192.2 352.08L192.51 356.63L194.02 357.54L190.69 361.48L190.38 365.42L182.81 367.54H179.81L183.45 365.72L186.18 363.3L187.39 359.96L186.18 357.23L186.79 353.29L184.97 351.47V350.26H186.18L188.3 352.38L190.38 351.78Z" fill="#BDBEBE" stroke="white" stroke-width="0.5" stroke-miterlimit="10"/>
</g>
<g id="Hyogo">
<path id="Vector_51" d="M175.87 334.49L176.48 336.91L178.87 337.78V340.21L178.26 341.12H177.05V342.03L178.56 343.24L180.99 343.54L183.41 346.88L188.57 349L190.38 350.51V351.78L188.26 352.38L185.87 350.25H184.96V351.46L186.78 353.28L186.17 357.22L183.44 357.83L181.32 359.65H179.17L171.29 355.4L166.43 356.92L163.71 357.22L164.01 354.8L162.8 352.98L163.71 348.13L166.13 346.31L165.83 345.1L168.25 343.28L168.56 341.16L167.34 337.78L165.53 335.66L168.53 334.75L175.87 334.49Z" fill="#BDBEBE" stroke="white" stroke-width="0.5" stroke-miterlimit="10"/>
<path id="Vector_52" d="M170.98 367.53L173.11 365.71V364.2L177.35 360.86L177.96 362.07L176.44 363.59L176.74 368.74L174.01 370.26L170.98 367.53Z" fill="#BDBEBE" stroke="white" stroke-width="0.5" stroke-miterlimit="10"/>
</g>
<g id="Nara">
<path id="Vector_53" d="M190.38 365.41L190.69 361.16L194.02 357.53L197.66 356.92L198.87 357.83V359.95L200.09 361.47L201.6 361.77L202.51 363.89L201.6 364.5L198.87 364.78V366.6L199.78 367.81L199.48 369.33V373.27L196.75 374.78V376.9L195.24 378.11H189.17L188.87 374.47V372.38L191.6 369.65L190.99 367.53V365.71L190.38 365.41Z" fill="#BDBEBE" stroke="white" stroke-width="0.5" stroke-miterlimit="10"/>
</g>
<g id="Wakayama">
<path id="Vector_54" d="M179.77 367.53H183.11L190.39 365.41L190.99 365.71V367.53L191.29 369.65L188.57 372.65L188.87 374.47L189.17 378.11H194.93V380.23L197.93 382.96L197.02 385.39L193.42 388.78L191.9 389.09L188.9 387.27L186.17 386.05L184.96 382.72L183.75 380.6L180.11 378.17L179.8 375.75L180.71 375.14L180.41 373.93L179.5 373.32L179.8 371.8V367.56L179.77 367.53Z" fill="#BDBEBE" stroke="white" stroke-width="0.5" stroke-miterlimit="10"/>
</g>
<g id="Tottori">
<path id="Vector_55" d="M165.22 335.7L167.35 337.82L168.56 341.16L168.25 343.58L165.87 345.1H164.35L162.23 345.4L160.11 342.98L157.99 342.37L156.47 343.28H153.47L152.56 342.07H151.05L144.05 348.74L141.63 347.22L141.93 343.89L144.36 342.37V338.12L146.78 338.43L149.78 336.91L155.54 337.82L165.22 335.7Z" fill="#BDBEBE" stroke="white" stroke-width="0.5" stroke-miterlimit="10"/>
</g>
<g id="Shimane">
<path id="Vector_56" d="M144.31 338.12V342.37L141.87 343.89L141.57 347.22L136.11 346.61L133.69 347.52L133.08 348.43V349.34L131.56 351.46L129.14 352.98L126.14 353.28L124.32 353.89L123.11 353.59L120.98 355.1L119.47 359.65L118.86 362.07L118.25 364.8H116.44L113.1 366.02L113.71 363.29V361.47L112.8 359.95L111.28 358.44V356.31L114.01 356.01L123.1 348.13L125.83 346.61L127.96 343.61L131.29 342.1L132.81 340.58L131.9 338.46L140.39 335.46L143.72 336.06L144.31 338.12Z" fill="#BDBEBE" stroke="white" stroke-width="0.5" stroke-miterlimit="10"/>
</g>
<g id="Okayama">
<path id="Vector_57" d="M143.7 348.78L150.7 342.11H152.52L153.43 343.02L156.43 343.32L157.64 342.41L159.77 343.02L161.89 345.44L164.31 344.83L165.83 345.14V346.35L163.4 347.87L162.8 353.02L164.01 355.14L163.71 357.26L161.59 358.48L160.68 359.99H157.34L156.73 360.6H159.16L156.43 363.33H154.61L151.87 361.78L148.24 362.99L147.93 362.08H147.02L145.87 360.26L143.7 348.78Z" fill="#BDBEBE" stroke="white" stroke-width="0.5" stroke-miterlimit="10"/>
</g>
<g id="Hiroshima">
<path id="Vector_58" d="M118.23 364.78L119.14 361.78L119.45 359.36L120.66 355.11L123.08 353.6L124.3 353.9L126.12 352.99H129.12L131.54 351.47L133.06 349.35V348.14L136.06 346.62L141.52 347.23L143.94 348.75L145.87 360.56L147.08 362.07L144.66 365.71L143.45 364.2L141.87 365.41V366.92L139.14 367.23L140.66 365.11L139.75 364.5L137.93 365.71H134.93L131.59 368.14L128.86 368.44L128.26 366.32L127.02 364.78L124.9 365.09L122.48 368.09L119.75 365.36L118.23 364.78Z" fill="#BDBEBE" stroke="white" stroke-width="0.5" stroke-miterlimit="10"/>
<path id="Vector_59" d="M137.33 369.05H138.87V368.14L138.57 366.92L137.33 369.05Z" fill="#BDBEBE" stroke="white" stroke-width="0.5" stroke-miterlimit="10"/>
<path id="Vector_60" d="M127.33 370.87L129.15 371.77L128.84 370.56V369.05H127.94L127.33 370.87Z" fill="#BDBEBE" stroke="white" stroke-width="0.5" stroke-miterlimit="10"/>
</g>
<g id="Yamaguchi">
<path id="Vector_61" d="M111.26 356.31L110.96 358.44L112.78 359.95L113.69 361.77V363.29L112.78 365.71L116.42 364.8H118.23L120.05 365.41L122.48 368.14L121.87 369.35V370.87L122.18 372.99L120.36 374.5L120.05 377.5L118.84 378.41V375.41L115.84 374.5L114.63 373.29L113.11 373.9V371.47L109.17 372.99L108.56 372.38H106.74L106.14 372.99L105.53 371.47L103.71 373.9L101.29 373.6L99.47 370.6L96.47 373.03L94.87 368.44L96.08 367.83L95.78 366.32L95.17 364.8L98.17 361.8L99.68 361.5L101.2 362.71L101.8 361.8L103.02 362.71L105.14 362.41L106.96 360.89L107.56 359.68L110.29 356.68L111.26 356.31Z" fill="#BDBEBE" stroke="white" stroke-width="0.5" stroke-miterlimit="10"/>
<path id="Vector_62" d="M121.87 374.78L121.57 375.99L122.48 376.6L126.12 375.99L126.72 374.78H121.87Z" fill="#BDBEBE" stroke="white" stroke-width="0.5" stroke-miterlimit="10"/>
</g>
<g id="Tokushima">
<path id="Vector_63" d="M150.37 372.38H153.37L154.58 371.77L157.92 372.08L160.65 370.56H162.47L163.68 369.96H166.41L167.32 369.35L169.44 369.05L170.65 370.26L170.35 371.17L169.44 372.38V374.78L171.26 376.29V379.63L168.26 382.05L165.26 383.27L163.75 386.27L160.75 385.05L159.53 382.63L158.32 382.33L158.02 380.2L156.81 378.99L154.38 379.6L153.47 378.69H151.87L150.35 377.17V372.38H150.37Z" fill="#BDBEBE" stroke="white" stroke-width="0.5" stroke-miterlimit="10"/>
</g>
<g id="Kagawa">
<path id="Vector_64" d="M150.37 372.38H153.37L154.58 371.47L157.92 371.77L160.65 370.56H162.47L163.37 369.65L166.37 369.96L166.97 369.35L163.97 367.83L162.76 366.32H161.55L160.94 365.41L159.42 365.11L155.48 366.01L155.18 366.92L153.36 368.14H150.07V369.65L150.67 370.56L150.37 372.38Z" fill="#BDBEBE" stroke="white" stroke-width="0.5" stroke-miterlimit="10"/>
<path id="Vector_65" d="M162.19 363.29L163.71 362.98L164.01 362.07L163.71 361.16H162.5L162.19 363.29Z" fill="#BDBEBE" stroke="white" stroke-width="0.5" stroke-miterlimit="10"/>
</g>
<g id="Ehime">
<path id="Vector_66" d="M150.37 372.38V377.23L147.37 378.44L142.52 378.75L139.18 380.87L137.97 382.99L137.06 385.99L136.15 386.9L133.73 387.21L134.33 388.42L134.03 389.33L133.73 391.15L130.36 394.78L126.42 395.09L124.87 393.6L127.6 392.69V391.48L126.69 390.57H124.57V387.84L123.66 386.93L119.42 389.05L117.6 389.66L120.02 386.93L123.36 386.02L124.87 384.2L129.12 382.39L131.24 380.26L133.06 374.5L135.87 372.68L136.78 371.47L137.99 372.38L139.5 375.38H142.5L146.13 374.47L148.56 374.17L150.37 372.38Z" fill="#BDBEBE" stroke="white" stroke-width="0.5" stroke-miterlimit="10"/>
</g>
<g id="Kochi">
<path id="Vector_67" d="M126.42 395.12L130.66 394.51L133.66 391.18L134.26 388.45L133.66 387.24H136.08L137.29 385.72L137.9 382.72L139.11 381.2L142.45 378.47H147.3L150.3 377.26L151.87 378.78H153.69L154.3 379.69L156.73 379.08L158.24 380.6V382.41L159.45 382.72L160.67 385.14L163.67 386.05L161.85 389.05L160.64 393.3L156.69 388.45L154.57 386.63L153.06 386.02L149.42 386.33L146.42 389.05L142.78 390.27L142.48 393L139.14 396.94V398.15L137.02 397.85L136.72 400.27L135.81 401.18V403.61L137.02 405.73L135.2 403.91H133.68L132.17 404.82L129.44 403.3V402.09L130.35 401.48L130.05 399.67H126.11L125.8 397.85L126.42 395.12Z" fill="#BDBEBE" stroke="white" stroke-width="0.5" stroke-miterlimit="10"/>
</g>
<g id="Fukuoka">
<path id="Vector_68" d="M79.13 383.3L79.43 381.17L80.95 379.96L82.46 380.26L83.67 381.17L84.89 380.87L84.28 378.75L85.8 378.14L86.4 377.23L86.71 375.11L89.71 374.2L90.62 373.29L95.17 374.2L96.68 373.9L98.5 380.9L100.32 381.51V382.72L98.8 383.63L95.16 383.93L93.95 385.14L92.44 387.57V390L93.04 392.12L92.44 393.63H91.53L90.62 392.42H88.87L85.87 394.24L84.05 395.45V393.63L82.46 391.78L83.98 389.36L85.49 388.75L86.1 387.54L84.89 386.63L84.58 385.72L83.07 383.9L79.13 383.3Z" fill="#BDBEBE" stroke="white" stroke-width="0.5" stroke-miterlimit="10"/>
</g>
<g id="Saga">
<path id="Vector_69" d="M79.13 383.3L83.07 383.9L85.19 386.9L86.1 387.21L85.49 388.72L83.98 389.03L82.46 391.78L81.25 391.18H80.04L78.87 392.39L79.78 395.12V396.63L77.06 395.72L76.45 394.82L74.93 394.21L72.81 389.97L71.9 390.27L71.3 389.06V386.93H72.81L73.72 386.02L72.51 384.21L73.42 383.6L74.02 382.69L75.54 382.39L76.45 383.9L79.13 383.3Z" fill="#BDBEBE" stroke="white" stroke-width="0.5" stroke-miterlimit="10"/>
</g>
<g id="Nagasaki">
<path id="Vector_70" d="M72.76 386.93H71.55L71.25 389.36L71.85 390.27L72.76 389.96L74.88 394.21L76.4 394.81L76.7 395.42L80.04 396.63L78.52 399.06H80.95L82.46 399.66V402.39L81.86 403.91L78.86 404.51H77.96V403.3L78.56 400.88L77.05 400.27L74.92 400.88L70.98 405.12L70.38 404.51L70.98 400.27L67.98 396.63L68.59 394.81L69.8 393.3L71.62 395.42V398.15L74.35 398.45L74.65 396.94L73.74 395.12L71.87 393H70.66L69.45 390.27L67.32 389.66L67.93 385.72L71.57 386.33L72.76 386.93Z" fill="#BDBEBE" stroke="white" stroke-width="0.5" stroke-miterlimit="10"/>
<path id="Vector_71" d="M66.7 385.11L67.61 385.72L65.79 389.05H64.27V387.84L66.7 385.11Z" fill="#BDBEBE" stroke="white" stroke-width="0.5" stroke-miterlimit="10"/>
<path id="Vector_72" d="M55.48 394.78L57.6 392.66L58.21 394.18L57.3 395.69L55.79 397.82L56.09 396L55.48 394.78Z" fill="#BDBEBE" stroke="white" stroke-width="0.5" stroke-miterlimit="10"/>
<path id="Vector_73" d="M47.87 398.78H51.21L52.42 401.2L50.3 401.5L49.09 402.11H46.66L47.87 398.78Z" fill="#BDBEBE" stroke="white" stroke-width="0.5" stroke-miterlimit="10"/>
<path id="Vector_74" d="M70.94 374.2V377.2L72.46 376.6V373.87L71.55 373.56L70.94 374.2Z" fill="#BDBEBE" stroke="white" stroke-width="0.5" stroke-miterlimit="10"/>
<path id="Vector_75" d="M62.15 362.38H63.97L64.88 363.29L63.36 366.29L62.15 367.5L60.94 366.59L62.15 362.38Z" fill="#BDBEBE" stroke="white" stroke-width="0.5" stroke-miterlimit="10"/>
<path id="Vector_76" d="M63.36 360.56H65.18V361.78L65.79 358.45L67.61 357.23L68.21 356.02L67.91 353.6L67 352.99L64.88 353.9V356.32L63.36 360.56Z" fill="#BDBEBE" stroke="white" stroke-width="0.5" stroke-miterlimit="10"/>
</g>
<g id="Kumamoto">
<path id="Vector_77" d="M83.98 395.42L86.1 393.91L88.83 392.39L90.65 392.69L91.25 393.3L92.77 393.6L93.38 394.81L95.5 394.21L95.19 392.69L96.41 392.09L98.23 392.39L99.44 394.51L100.35 395.12V397.24L100.65 401.18L97.32 404.52L96.1 405.42L95.8 408.15L96.1 410.88L96.41 413.61L95.8 416.34L93.68 416.64L92.77 417.55H88.53L87.01 415.78L80.01 416.39L86.07 409.72V408.2L88.19 405.2L84.86 404.29L86.68 402.47H88.5L88.19 401.26L85.49 398.78L84.28 397.56L83.98 395.42Z" fill="#BDBEBE" stroke="white" stroke-width="0.5" stroke-miterlimit="10"/>
<path id="Vector_78" d="M79.73 407.85L83.67 406.94V408.15L82.77 409.06V410.28L80.04 409.67L79.73 407.85Z" fill="#BDBEBE" stroke="white" stroke-width="0.5" stroke-miterlimit="10"/>
<path id="Vector_79" d="M75.49 406.33L77.31 406.03L78.52 406.64L78.82 411.18L75.49 413.91H74.28V412.7L75.49 412.09L74.58 410.88V408.78L75.49 406.33Z" fill="#BDBEBE" stroke="white" stroke-width="0.5" stroke-miterlimit="10"/>
</g>
<g id="Oita">
<path id="Vector_80" d="M92.77 393.3L93.07 392.09L92.47 390.27L92.77 387.54L93.98 384.81L95.5 383.9L99.14 383.6L100.35 382.39V381.48L102.17 382.69H105.81L107.93 380.57H109.44L111.57 383.3V385.72L110.66 386.93L108.23 388.45H106.71L107.02 389.96L114.02 391.48L113.41 394.82L116.14 396.03L114.32 397.85L116.45 399.36L115.54 400.58V402.09H114.02L113.11 403.91L112.2 401.48L109.47 401.79L105.83 402.39L105.23 400.88L100.68 400.27L100.38 395.12L99.47 394.51L98.26 392.39L96.44 392.09L95.22 392.69L95.53 394.21L93.41 394.82L92.77 393.3Z" fill="#BDBEBE" stroke="white" stroke-width="0.5" stroke-miterlimit="10"/>
</g>
<g id="Miyazaki">
<path id="Vector_81" d="M88.53 417.55H92.77L93.98 416.64L95.8 416.34L96.41 413.61V410.61L96.1 407.88V405.45L100.65 401.51V400.3L105.2 401.21L105.81 402.42L112.17 401.51L113.08 403.94L109.44 407.58L110.05 409.4L108.53 410.61L105.53 417.28V420.28L103.11 424.52L104.32 426.04L101.59 433.62L100.08 435.44L97.65 433.92H96.74V432.1L97.04 429.98L94.32 429.07L93.41 428.16L93.71 426.34L91.87 425.13L91.57 423.61L88.53 417.55Z" fill="#BDBEBE" stroke="white" stroke-width="0.5" stroke-miterlimit="10"/>
</g>
<g id="Kagoshima">
<path id="Vector_82" d="M80.04 416.34L87.04 415.73L88.25 417.55L91.59 423.31V425.13L93.41 426.04V428.16L94.01 429.07L97.01 429.98L96.41 432.41V433.92H95.19L93.98 435.44L95.8 438.44L92.8 439.95L92.5 441.47L87.34 443.9L86.74 442.68L88.56 440.26L89.46 437.26L89.16 434.53L87.34 433.31L86.43 430.89V429.37L88.86 430.28L90.07 429.07V427.55L87.95 426.95L86.74 427.25L84.87 429.37L83.35 433.01L84.26 435.13L85.78 438.47V439.68L84.56 440.59L81.87 438.16L77.93 437.56L76.41 435.13V433.92L78.83 433.01L79.74 431.8L80.05 429.98L79.74 426.98L77.62 425.46L77.93 417.88L78.53 416.37L80.04 416.34Z" fill="#BDBEBE" stroke="white" stroke-width="0.5" stroke-miterlimit="10"/>
<path id="Vector_83" d="M89.74 459.69L91.86 459.08L92.47 455.75L93.38 454.84L94.29 451.2L94.59 449.38H93.38L91.25 452.72V455.14L89.74 457.26V459.69V459.69Z" fill="#BDBEBE" stroke="white" stroke-width="0.5" stroke-miterlimit="10"/>
<path id="Vector_84" d="M79.13 459.08L81.86 457.26L84.86 459.08V460.9L83.34 462.72H80.61L79.13 459.08Z" fill="#BDBEBE" stroke="white" stroke-width="0.5" stroke-miterlimit="10"/>
<path id="Vector_85" d="M50.33 510.01L53.06 512.13L55.78 511.53V510.01L61.54 506.07V504.86L51.84 507.59V509.1L50.33 510.01Z" fill="#BDBEBE" stroke="white" stroke-width="0.5" stroke-miterlimit="10"/>
<path id="Vector_86" d="M50.02 513.04L53.36 513.95L50.36 511.53L50.02 513.04Z" fill="#BDBEBE" stroke="white" stroke-width="0.5" stroke-miterlimit="10"/>
<path id="Vector_87" d="M66.7 509.71L67.61 510.32L68.21 508.8L66.7 509.71Z" fill="#BDBEBE" stroke="white" stroke-width="0.5" stroke-miterlimit="10"/>
</g>
<g id="Okinawa">
<path id="Vector_88" d="M146.97 150.46L149.09 148.95L148.79 147.43L149.4 144.7L151.22 144.4L150.31 143.19L150.61 141.98L153.34 140.46L154.25 139.25L156.67 138.64L156.37 137.13L158.19 136.52L160.01 134.7L160.31 133.18L160.01 131.67L158.8 131.06L155.8 134.4L155.5 136.22L150.35 135.61V136.52L152.47 138.64L147.62 141.64L147.32 145.58L145.8 146.8V149.22L146.97 150.46Z" fill="#BDBEBE" stroke="white" stroke-width="0.5" stroke-miterlimit="10"/>
<path id="Vector_89" d="M125.15 143.19L126.96 143.49L126.66 145.31L125.15 143.19Z" fill="#BDBEBE" stroke="white" stroke-width="0.5" stroke-miterlimit="10"/>
<path id="Vector_90" d="M92.71 180.48V184.72L96.65 183.51L93.92 182.6L93.62 181.38L92.71 180.48Z" fill="#BDBEBE" stroke="white" stroke-width="0.5" stroke-miterlimit="10"/>
<path id="Vector_91" d="M66.33 190.48L66.94 193.48L69.67 192.87L69.36 190.75L71.18 188.63L71.49 186.81H70.27L70.58 188.02L68.46 190.45L66.33 190.48Z" fill="#BDBEBE" stroke="white" stroke-width="0.5" stroke-miterlimit="10"/>
<path id="Vector_92" d="M56.63 193.51H58.45L58.75 191.09L62.09 191.69L62.7 192.3V193.21L60.87 195.03L56.62 194.72L56.63 193.51Z" fill="#BDBEBE" stroke="white" stroke-width="0.5" stroke-miterlimit="10"/>
</g>
</g>
</svg>
