<svg width="291" height="353" viewBox="0 0 291 353" fill="none" xmlns="http://www.w3.org/2000/svg">
<g id="map">
<path id="c" d="M198.07 172.27L202.85 174.35L203.48 175.35L205.35 174.73L205.97 174.94L207.64 171.61L208.47 171.4L209.3 171.82L210.76 172.23V171.23L211.76 171.02L211.97 170.02L212.38 169.4L212.17 168.4L213.17 167.77L212.54 167.36L213.17 166.53L212.75 165.9V164.9L214 164.07L213.37 163.65L214 161.78V160.95L213.37 160.53V158.54L212.96 157.29L212.75 156.04V155.21L212.33 154.38L212.12 153.75L211.12 153.34L211.33 152.09L210.71 151.46V149.8L208.42 146.89L207.59 147.51L206.96 148.13L203.43 148.97L199.99 150.84L199.36 150.21L198.12 151.05V152.71L197.7 153.34L198.12 155.21L198.32 157.29L197.7 159.16V161.03L196.87 163.53L195.62 164.36L196.03 166.24L197.7 168.11V168.94L197.28 169.57L197.7 170.57L198.07 172.27Z" fill="#BDBEBE" stroke="white" stroke-width="0.5" stroke-miterlimit="10"/>
<path id="b" d="M186.41 148.13V146.89L185.58 146.47L186 144.81L187.24 143.56L190.16 142.72L190.78 139.39L191.41 138.77V137.94L190.78 137.52L191.2 134.82L193.07 135.44L194.32 135.23L195.57 140.64L196.82 141.48L198.48 140.48V138.6L200.35 139.6L201.35 140.6L202.35 139.98L202.15 138.11L203.15 136.86L202.94 134.99L201.69 133.99L200.23 135.23L198.36 135.44L196.7 136.27V133.99L197.11 131.9L198.36 130.03H200.03L202.52 132.32L205.02 131.9L204.4 136.27L205.02 137.52V142.1L206.27 145.64L208.14 146.47L208.35 147.09L207.35 147.51L207.14 148.13L203.81 148.97L200.07 151.05L199.23 150.42V147.72L196.74 147.3L195.07 148.3L191.33 147.3L190.08 147.93L187.58 147.72L186.41 148.13Z" fill="#BDBEBE" stroke="white" stroke-width="0.5" stroke-miterlimit="10"/>
<path id="a" d="M188.91 131.7L189.74 131.49V130.86L190.99 129.86L192.24 129.45L192.03 127.57L194.11 125.91L194.94 124.66L195.94 125.28L199.48 126.53L201.35 124.87L200.35 123.41L198.27 122.79L195.78 119.87L194.78 119.67L193.53 120.29L191.65 118.21L190.82 118L189.99 116.75V116.13L190.61 115.51L191.45 113.01L192.28 112.18L193.74 111.97L194.98 112.18L195.98 113.01L197.44 114.67L198.27 116.13H199.27L200.11 114.88L203.85 112.38L208.85 110.93L221.13 118L227.13 121.33L227.96 118.83V115.3L228.79 112.8L229.79 111.97L231.04 109.68L236.87 103.85L238.32 102.85L240.61 103.06L241.24 103.48L244.36 103.27L244.57 101.6L245.19 101.4L245.81 102.02L247.48 102.44L249.14 100.56L249.56 99.31L253.3 98.31L254.14 97.31L256.43 95.44V94.44L255.43 94.02L253.76 96.1L250.85 96.94L250.43 95.69L251.26 95.48L249.81 91.94L250.81 92.36V91.36L248.94 91.15L247.99 89.66L247.79 87.58L248.62 83.42L250.08 82.42V79.3L249.24 79.09L246.75 82.42L245.29 84.08L243.21 86.58L240.5 86.79L238.63 86.16L236.76 83.67L236.13 84.92L235.13 83.46L231.8 84.29L230.55 83.46V82.46L227.85 81.46L222.85 77.71L219.31 74.38L216.6 70.85L213.27 66.48L210.36 64.19L207.86 61.69H207.24V62.69L204.74 62.9L204.12 63.9L204.33 65.98L203.7 66.6L203.91 68.48L206.2 72.02L207.03 74.72V78.05L206.62 80.75L205.37 82.42L206.2 84.92L205.99 86.54L205.57 87.79L205.16 89.45L202.87 91.12L202.45 92.12L202.66 94.2L203.91 98.15L203.29 100.03L200.79 102.11L199.12 101.9L198.12 100.9L196.46 101.32L194.38 100.48L193.38 99.23L191.3 99.03L190.3 99.65L190.5 101.11L192.38 104.23V105.44L190.92 106.68L190.5 107.31L189.88 109.18L188.49 108.44L187.24 109.9L184.75 110.9L184.33 112.15L184.54 115.06L183.29 116.72L184.75 119.01L186.62 120.26L188.08 122.76V124.63L186.62 128.58L187.24 131.29L188.91 131.7Z" fill="#BDBEBE" stroke="white" stroke-width="0.5" stroke-miterlimit="10"/>
<g id="COVID">
<path id="Vector" d="M18.12 14.3C18.1018 15.0143 17.9421 15.7179 17.65 16.37C17.2938 17.1839 16.7923 17.926 16.17 18.56C15.4388 19.3158 14.5562 19.9088 13.58 20.3C12.4181 20.7695 11.1728 20.9974 9.92 20.97C8.94844 20.9792 7.97895 20.8786 7.03001 20.67C5.34374 20.3088 3.82868 19.3892 2.73001 18.06C2.19128 17.4155 1.73446 16.7068 1.37001 15.95C0.99347 15.1523 0.711553 14.3132 0.530005 13.45C0.342202 12.5252 0.248389 11.5837 0.250003 10.64C0.237954 9.16094 0.488508 7.69149 0.990004 6.29999C1.42421 5.08382 2.10513 3.97053 2.99 3.02999C3.85626 2.127 4.90671 1.42101 6.07001 0.959995C7.26495 0.48007 8.54233 0.238863 9.83 0.249996C11.3328 0.229709 12.8183 0.572773 14.16 1.25C15.3111 1.80528 16.3123 2.62824 17.08 3.64999C17.6846 4.42486 18.034 5.36821 18.08 6.34999C18.0782 6.80914 17.8991 7.24983 17.58 7.57999C17.4331 7.74811 17.2516 7.8825 17.0479 7.97398C16.8443 8.06545 16.6233 8.11185 16.4 8.10999C15.9767 8.14377 15.5569 8.01102 15.23 7.73999C14.8701 7.3557 14.5731 6.91696 14.35 6.43999C13.9154 5.55689 13.2739 4.79186 12.48 4.20999C11.7002 3.68777 10.7783 3.41887 9.84 3.43999C9.06995 3.41393 8.30486 3.57285 7.60889 3.90344C6.91292 4.23403 6.30634 4.72664 5.84 5.34C4.75883 6.92484 4.23794 8.82537 4.36 10.74C4.31017 12.0754 4.52426 13.4075 4.99 14.66C5.35588 15.6067 6.00556 16.417 6.85001 16.98C7.69613 17.5031 8.67543 17.7705 9.67 17.75C10.7378 17.7921 11.7904 17.4868 12.67 16.88C13.5235 16.2343 14.1615 15.3453 14.5 14.33C14.6354 13.8655 14.8521 13.4288 15.14 13.04C15.2888 12.8627 15.4786 12.7245 15.693 12.6374C15.9073 12.5502 16.1398 12.5168 16.37 12.54C16.5995 12.5369 16.8274 12.5795 17.0403 12.6654C17.2531 12.7512 17.4468 12.8786 17.61 13.04C17.7781 13.2029 17.9103 13.3991 17.9981 13.6161C18.086 13.8331 18.1275 14.066 18.12 14.3Z" fill="black" stroke="white" stroke-width="0.5" stroke-miterlimit="10"/>
<path id="Vector_2" d="M30.59 0.250003C32.4694 0.189141 34.3317 0.623677 35.99 1.51C37.4615 2.33516 38.6447 3.59161 39.38 5.11C40.1777 6.82103 40.5712 8.69261 40.53 10.58C40.5475 12.0146 40.3348 13.4427 39.9 14.81C39.5001 16.028 38.8494 17.1487 37.99 18.1C37.1356 19.0384 36.0789 19.7702 34.9 20.24C33.5597 20.75 32.1338 20.9978 30.7 20.97C29.2605 20.9946 27.8301 20.7364 26.49 20.21C25.3066 19.7478 24.2458 19.0189 23.39 18.08C22.5355 17.115 21.8949 15.9801 21.51 14.75C21.0722 13.397 20.8561 11.982 20.87 10.56C20.8519 9.11894 21.0785 7.68527 21.54 6.32C21.9392 5.10246 22.5938 3.98419 23.46 3.04C24.3082 2.12259 25.3549 1.41115 26.52 0.960002C27.8208 0.472768 29.201 0.231999 30.59 0.250003ZM36.36 10.56C36.389 9.25135 36.1473 7.95082 35.65 6.74C35.2432 5.74444 34.5464 4.89427 33.65 4.3C32.8609 3.82765 31.9716 3.54799 31.0542 3.4837C30.1369 3.41942 29.2172 3.57232 28.37 3.93C27.6844 4.23422 27.0761 4.68877 26.59 5.26C26.0589 5.92406 25.6616 6.68475 25.42 7.5C25.1199 8.49177 24.9749 9.52394 24.99 10.56C24.975 11.6059 25.12 12.6479 25.42 13.65C25.6642 14.4894 26.0796 15.2691 26.64 15.94C27.1312 16.5218 27.7462 16.9864 28.44 17.3C29.2571 17.6457 30.1437 17.7959 31.0291 17.7386C31.9145 17.6813 32.7743 17.4181 33.54 16.97C34.4594 16.3935 35.1841 15.5538 35.62 14.56C36.1572 13.2971 36.4099 11.9315 36.36 10.56V10.56Z" fill="black" stroke="white" stroke-width="0.5" stroke-miterlimit="10"/>
<path id="Vector_3" d="M46.19 2.91001L50.73 16.35L55.28 2.82001C55.52 2.11001 55.7 1.61001 55.82 1.33001C55.9504 1.03713 56.1494 0.779906 56.4 0.580007C56.7249 0.345767 57.12 0.22936 57.52 0.250009C57.8714 0.23882 58.2186 0.329084 58.52 0.510007C58.809 0.675742 59.0501 0.913449 59.22 1.20001C59.3786 1.46287 59.4649 1.76303 59.47 2.07001C59.4664 2.2856 59.4396 2.50017 59.39 2.71001C59.3319 2.94346 59.2618 3.17377 59.18 3.40001C59.1 3.62001 59.02 3.85001 58.94 4.09001L54.08 17.19C53.91 17.69 53.73 18.19 53.56 18.62C53.4068 19.0355 53.2055 19.4315 52.96 19.8C52.7282 20.1514 52.4163 20.4427 52.05 20.65C51.6216 20.8736 51.1431 20.9838 50.66 20.97C50.1796 20.989 49.703 20.8785 49.28 20.65C48.9064 20.449 48.5899 20.1565 48.36 19.8C48.113 19.4273 47.9084 19.0282 47.75 18.61C47.58 18.16 47.4 17.69 47.23 17.19L42.46 4.19001C42.38 3.95001 42.29 3.72001 42.21 3.49001C42.1177 3.24938 42.0442 3.00198 41.99 2.75001C41.9349 2.53078 41.9047 2.30602 41.9 2.08001C41.9047 1.84179 41.9565 1.60687 42.0527 1.38886C42.1488 1.17085 42.2873 0.974097 42.46 0.810007C42.6424 0.622025 42.862 0.474219 43.1048 0.376062C43.3476 0.277905 43.6082 0.231564 43.87 0.240007C44.1483 0.212728 44.4289 0.256173 44.6859 0.366308C44.9429 0.476443 45.1679 0.6497 45.34 0.870008C45.7116 1.50976 45.9974 2.19566 46.19 2.91001V2.91001Z" fill="black" stroke="white" stroke-width="0.5" stroke-miterlimit="10"/>
<path id="Vector_4" d="M62.65 18.5V2.71C62.601 2.04525 62.8006 1.38598 63.21 0.859995C63.3929 0.659096 63.6173 0.500455 63.8677 0.39511C64.1182 0.289764 64.3885 0.240246 64.66 0.249998C64.9362 0.237869 65.2118 0.286166 65.4674 0.391524C65.723 0.496882 65.9526 0.656759 66.14 0.859995C66.5601 1.3808 66.7642 2.04306 66.71 2.71V18.5C66.7627 19.1698 66.5589 19.8347 66.14 20.36C65.9526 20.5632 65.723 20.7231 65.4674 20.8285C65.2118 20.9338 64.9362 20.9821 64.66 20.97C64.3892 20.9784 64.1199 20.9272 63.8711 20.8201C63.6223 20.7129 63.4 20.5525 63.22 20.35C62.8026 19.8278 62.5989 19.1666 62.65 18.5Z" fill="black" stroke="white" stroke-width="0.5" stroke-miterlimit="10"/>
<path id="Vector_5" d="M73.77 0.589995H79.06C80.2511 0.571672 81.4399 0.699286 82.6 0.969993C83.5959 1.24387 84.5138 1.74733 85.28 2.43999C87.3733 4.21999 88.4167 6.93666 88.41 10.59C88.418 11.6948 88.3108 12.7974 88.09 13.88C87.8912 14.8211 87.5542 15.7276 87.09 16.57C86.6563 17.374 86.0881 18.0978 85.41 18.71C84.8853 19.1833 84.2919 19.5744 83.65 19.87C82.9948 20.1674 82.3015 20.3727 81.59 20.48C80.7695 20.6067 79.9402 20.6669 79.11 20.66H73.82C73.2442 20.6956 72.669 20.582 72.15 20.33C71.9669 20.2215 71.8078 20.0769 71.6823 19.905C71.5568 19.7331 71.4675 19.5375 71.42 19.33C71.2901 18.8138 71.2329 18.282 71.25 17.75V3.07999C71.2166 2.73995 71.2516 2.39665 71.3529 2.07033C71.4542 1.74402 71.6198 1.44129 71.84 1.18C72.1061 0.957981 72.414 0.791415 72.7454 0.690093C73.0769 0.588771 73.4252 0.554739 73.77 0.589995V0.589995ZM75.34 3.79999V17.44H78.41C79.0767 17.44 79.6067 17.42 80 17.38C80.4055 17.3347 80.8046 17.2441 81.19 17.11C81.5833 16.9742 81.9466 16.7636 82.26 16.49C83.61 15.34 84.26 13.37 84.26 10.56C84.3562 9.02766 84.0493 7.49687 83.37 6.11999C82.9001 5.23438 82.1095 4.56183 81.16 4.23999C80.1295 3.94685 79.0612 3.80867 77.99 3.82999L75.34 3.79999Z" fill="black" stroke="white" stroke-width="0.5" stroke-miterlimit="10"/>
<path id="Vector_6" d="M101.49 0.589998H106.78C107.971 0.570459 109.16 0.698089 110.32 0.969996C111.313 1.24323 112.228 1.74686 112.99 2.44C115.077 4.22 116.123 6.93666 116.13 10.59C116.138 11.6948 116.031 12.7974 115.81 13.88C115.611 14.8211 115.274 15.7276 114.81 16.57C114.369 17.3694 113.802 18.0921 113.13 18.71C112.604 19.1815 112.011 19.5724 111.37 19.87C110.715 20.1674 110.022 20.3727 109.31 20.48C108.49 20.6063 107.66 20.6665 106.83 20.66H101.53C100.957 20.6948 100.386 20.5811 99.87 20.33C99.6858 20.2229 99.5257 20.0787 99.4001 19.9066C99.2744 19.7345 99.1859 19.5381 99.14 19.33C99.0061 18.8144 98.9455 18.2825 98.96 17.75V3.08C98.8977 2.73933 98.919 2.38864 99.0221 2.05803C99.1252 1.72742 99.307 1.42677 99.5519 1.18189C99.7968 0.937011 100.097 0.75522 100.428 0.652124C100.759 0.549029 101.109 0.527711 101.45 0.589998H101.49ZM103.07 3.8V17.44H106.14C106.82 17.44 107.34 17.44 107.73 17.38C108.136 17.3347 108.535 17.2441 108.92 17.11C109.318 16.9602 109.682 16.7324 109.99 16.44C111.35 15.29 111.99 13.32 111.99 10.51C112.089 8.97639 111.778 7.44408 111.09 6.07C110.624 5.18503 109.837 4.51224 108.89 4.19C107.856 3.89761 106.784 3.75945 105.71 3.78L103.07 3.8Z" fill="black" stroke="white" stroke-width="0.5" stroke-miterlimit="10"/>
<path id="Vector_7" d="M131.46 18.36L130.46 15.85H122.32L121.32 18.42C121.075 19.1273 120.739 19.7996 120.32 20.42C120.161 20.6045 119.96 20.7481 119.733 20.8386C119.507 20.9291 119.263 20.9639 119.02 20.94C118.563 20.9294 118.125 20.7515 117.79 20.44C117.608 20.2819 117.461 20.0871 117.359 19.8682C117.257 19.6493 117.203 19.4113 117.2 19.17C117.206 18.8814 117.253 18.5951 117.34 18.32C117.43 18.03 117.58 17.63 117.79 17.11L122.92 4.11C123.06 3.74 123.24 3.29 123.44 2.76C123.617 2.30613 123.838 1.87071 124.1 1.46C124.333 1.10878 124.649 0.820308 125.02 0.619998C125.449 0.389372 125.933 0.278824 126.42 0.299998C126.91 0.280437 127.396 0.390838 127.83 0.619998C128.198 0.819445 128.514 1.10401 128.75 1.45C128.984 1.78856 129.181 2.15051 129.34 2.53C129.49 2.92 129.7 3.44 129.94 4.08L135.18 17.02C135.508 17.6926 135.717 18.4165 135.8 19.16C135.795 19.4025 135.74 19.6414 135.639 19.8616C135.537 20.0819 135.391 20.2788 135.21 20.44C135.03 20.6285 134.812 20.7775 134.571 20.8773C134.33 20.9772 134.071 21.0258 133.81 21.02C133.527 21.0309 133.245 20.9726 132.99 20.85C132.767 20.7425 132.572 20.5851 132.42 20.39C132.218 20.1107 132.051 19.8087 131.92 19.49C131.74 19.03 131.59 18.67 131.46 18.36ZM123.46 12.8H129.46L126.46 4.53L123.46 12.8Z" fill="black" stroke="white" stroke-width="0.5" stroke-miterlimit="10"/>
<path id="Vector_8" d="M149.33 3.94H144.9V18.5C144.952 19.1713 144.752 19.8379 144.34 20.37C144.149 20.5623 143.921 20.7149 143.671 20.819C143.42 20.9231 143.151 20.9767 142.88 20.9767C142.609 20.9767 142.34 20.9231 142.089 20.819C141.839 20.7149 141.611 20.5623 141.42 20.37C141.001 19.8447 140.797 19.1798 140.85 18.51V3.94H136.42C135.867 3.9844 135.318 3.8203 134.88 3.48C134.715 3.32226 134.585 3.13287 134.495 2.9232C134.406 2.71354 134.359 2.48795 134.359 2.26C134.359 2.03206 134.406 1.80646 134.495 1.5968C134.585 1.38714 134.715 1.19774 134.88 1.04C135.317 0.713026 135.856 0.553372 136.4 0.590005H149.31C149.872 0.545741 150.431 0.709438 150.88 1.05C151.048 1.20445 151.181 1.39348 151.269 1.60408C151.357 1.81469 151.398 2.04188 151.39 2.27001C151.396 2.48957 151.355 2.70786 151.268 2.90984C151.182 3.11182 151.053 3.29269 150.89 3.44C150.449 3.79332 149.894 3.97139 149.33 3.94V3.94Z" fill="black" stroke="white" stroke-width="0.5" stroke-miterlimit="10"/>
<path id="Vector_9" d="M164.88 18.36L163.88 15.85H155.73L154.73 18.42C154.496 19.1228 154.177 19.7944 153.78 20.42C153.62 20.6039 153.419 20.747 153.193 20.8374C152.967 20.9279 152.722 20.9631 152.48 20.94C152.228 20.9412 151.977 20.8923 151.744 20.7962C151.511 20.7 151.298 20.5586 151.12 20.38C150.939 20.2214 150.794 20.0262 150.694 19.8073C150.594 19.5884 150.541 19.3507 150.54 19.11C150.541 18.8218 150.585 18.5354 150.67 18.26C150.76 17.97 150.91 17.57 151.12 17.05L156.25 4.05001C156.4 3.68001 156.57 3.23001 156.78 2.70001C156.95 2.24479 157.168 1.80899 157.43 1.40001C157.666 1.05088 157.981 0.762924 158.35 0.56001C158.78 0.330769 159.263 0.220309 159.75 0.24001C160.243 0.219148 160.733 0.329573 161.17 0.56001C161.533 0.762576 161.845 1.04669 162.08 1.39001C162.314 1.72858 162.511 2.09052 162.67 2.47001C162.83 2.86001 163.03 3.38001 163.28 4.02001L168.51 16.96C168.838 17.6326 169.047 18.3565 169.13 19.1C169.127 19.3419 169.074 19.5805 168.974 19.8008C168.874 20.0211 168.73 20.2183 168.55 20.38C168.369 20.5671 168.151 20.7151 167.91 20.8148C167.669 20.9145 167.411 20.964 167.15 20.96C166.867 20.9718 166.585 20.9134 166.33 20.79C166.106 20.6801 165.908 20.5232 165.75 20.33C165.552 20.0484 165.385 19.7467 165.25 19.43C165.16 19.03 164.99 18.67 164.88 18.36ZM156.88 12.8H162.88L159.88 4.53001L156.88 12.8Z" fill="black" stroke="white" stroke-width="0.5" stroke-miterlimit="10"/>
<path id="Vector_10" d="M196.27 14.3C196.253 15.0155 196.09 15.72 195.79 16.37C195.438 17.186 194.936 17.9288 194.31 18.56C193.584 19.318 192.705 19.9113 191.73 20.3C190.565 20.7703 189.316 20.9982 188.06 20.97C187.092 20.9793 186.126 20.8786 185.18 20.67C184.35 20.4844 183.554 20.1707 182.82 19.74C182.067 19.2923 181.391 18.7249 180.82 18.06C180.281 17.4177 179.827 16.7085 179.47 15.95C179.085 15.1559 178.802 14.3157 178.63 13.45C178.437 12.5259 178.344 11.5839 178.35 10.64C178.325 9.16335 178.562 7.694 179.05 6.3C179.481 5.08231 180.162 3.96839 181.05 3.03C181.913 2.12722 182.96 1.42116 184.12 0.959998C185.315 0.480073 186.592 0.238866 187.88 0.249998C189.386 0.229678 190.875 0.5727 192.22 1.25C193.369 1.80363 194.368 2.62704 195.13 3.65C195.735 4.42486 196.084 5.36821 196.13 6.35C196.133 6.80815 195.957 7.2494 195.64 7.58C195.49 7.74735 195.307 7.88111 195.102 7.97246C194.897 8.06381 194.675 8.11068 194.45 8.11C194.027 8.14378 193.607 8.01103 193.28 7.74C192.952 7.34949 192.685 6.91109 192.49 6.44C192.056 5.55969 191.418 4.79533 190.63 4.21C189.849 3.68955 188.928 3.42082 187.99 3.44C187.22 3.41142 186.454 3.56922 185.757 3.9C185.061 4.23079 184.455 4.72478 183.99 5.34C182.905 6.92359 182.381 8.82423 182.5 10.74C182.459 12.0676 182.684 13.39 183.16 14.63C183.513 15.5836 184.152 16.4046 184.99 16.98C185.832 17.5034 186.809 17.7709 187.8 17.75C188.868 17.7936 189.921 17.4882 190.8 16.88C191.656 16.2369 192.295 15.347 192.63 14.33C192.769 13.8671 192.986 13.4311 193.27 13.04C193.42 12.8641 193.61 12.7268 193.824 12.6398C194.038 12.5527 194.27 12.5185 194.5 12.54C194.731 12.5367 194.96 12.5792 195.175 12.665C195.39 12.7508 195.585 12.8783 195.75 13.04C195.918 13.2035 196.051 13.3996 196.14 13.6163C196.23 13.833 196.274 14.0656 196.27 14.3V14.3Z" fill="black" stroke="white" stroke-width="0.5" stroke-miterlimit="10"/>
<path id="Vector_11" d="M208.74 0.249999C210.602 0.1993 212.446 0.63349 214.09 1.51C215.561 2.33263 216.742 3.59009 217.47 5.11C218.272 6.81953 218.666 8.69217 218.62 10.58C218.637 12.0146 218.425 13.4427 217.99 14.81C217.596 16.0263 216.952 17.1469 216.1 18.1C215.244 19.0452 214.179 19.7779 212.99 20.24C211.653 20.749 210.23 20.9968 208.8 20.97C207.36 20.9946 205.93 20.7364 204.59 20.21C203.404 19.7479 202.34 19.0191 201.48 18.08C200.629 17.1124 199.989 15.9784 199.6 14.75C199.17 13.3953 198.958 11.9811 198.97 10.56C198.954 9.11986 199.177 7.68702 199.63 6.32C200.029 5.10246 200.684 3.98419 201.55 3.04C202.4 2.12472 203.446 1.41364 204.61 0.959998C205.93 0.466525 207.331 0.225675 208.74 0.249999ZM214.5 10.56C214.534 9.25097 214.292 7.94948 213.79 6.74C213.386 5.7425 212.689 4.89145 211.79 4.3C210.889 3.74488 209.848 3.45705 208.79 3.47C208.016 3.46389 207.249 3.62062 206.54 3.93C205.854 4.23421 205.246 4.68877 204.76 5.26C204.222 5.92094 203.821 6.68241 203.58 7.5C203.285 8.49283 203.14 9.52426 203.15 10.56C203.14 11.6056 203.285 12.6469 203.58 13.65C203.828 14.4877 204.243 15.2666 204.8 15.94C205.291 16.5218 205.906 16.9864 206.6 17.3C207.417 17.6457 208.304 17.7959 209.189 17.7386C210.074 17.6813 210.934 17.4181 211.7 16.97C212.622 16.3963 213.347 15.5558 213.78 14.56C214.315 13.2969 214.561 11.9303 214.5 10.56V10.56Z" fill="black" stroke="white" stroke-width="0.5" stroke-miterlimit="10"/>
<path id="Vector_12" d="M228.86 17.61L225.65 4.84V18.68C225.699 19.2983 225.513 19.9123 225.13 20.4C224.959 20.5893 224.749 20.7386 224.514 20.8372C224.279 20.9357 224.025 20.9811 223.77 20.97C223.52 20.9767 223.271 20.9303 223.04 20.8338C222.809 20.7372 222.601 20.5928 222.43 20.41C222.051 19.9165 221.865 19.3009 221.91 18.68V2.82C221.869 2.49089 221.911 2.15681 222.031 1.84784C222.152 1.53887 222.347 1.26469 222.6 1.05C223.153 0.714833 223.794 0.554501 224.44 0.589997H225.7C226.257 0.564143 226.815 0.63174 227.35 0.789994C227.688 0.930969 227.96 1.19561 228.11 1.53C228.339 2.0954 228.526 2.67699 228.67 3.27L231.58 14.27L234.49 3.27C234.634 2.67699 234.821 2.0954 235.05 1.53C235.2 1.19561 235.472 0.930969 235.81 0.789994C236.345 0.63174 236.903 0.564143 237.46 0.589997H238.72C239.366 0.554501 240.007 0.714833 240.56 1.05C240.813 1.26469 241.008 1.53887 241.129 1.84784C241.249 2.15681 241.291 2.49089 241.25 2.82V18.68C241.299 19.2983 241.113 19.9123 240.73 20.4C240.557 20.5896 240.345 20.7389 240.108 20.8374C239.872 20.9359 239.616 20.9812 239.36 20.97C239.107 20.9883 238.852 20.9502 238.616 20.8586C238.379 20.767 238.165 20.624 237.99 20.44C237.612 19.9496 237.427 19.3376 237.47 18.72V4.84L234.26 17.61C234.08 18.4367 233.923 19.0467 233.79 19.44C233.639 19.8489 233.388 20.2134 233.06 20.5C232.641 20.8322 232.114 20.9994 231.58 20.97C231.16 20.983 230.745 20.8792 230.38 20.67C230.061 20.475 229.797 20.2034 229.61 19.88C229.425 19.5451 229.281 19.1892 229.18 18.82C229.08 18.44 228.99 18.03 228.86 17.61Z" fill="black" stroke="white" stroke-width="0.5" stroke-miterlimit="10"/>
<path id="Vector_13" d="M245.58 18.5V2.71C245.531 2.04525 245.731 1.38598 246.14 0.859995C246.323 0.659096 246.547 0.500455 246.798 0.39511C247.048 0.289764 247.319 0.240246 247.59 0.249998C247.866 0.237869 248.142 0.286166 248.397 0.391524C248.653 0.496882 248.883 0.656759 249.07 0.859995C249.49 1.3808 249.694 2.04306 249.64 2.71V18.5C249.693 19.1698 249.489 19.8347 249.07 20.36C248.883 20.5632 248.653 20.7231 248.397 20.8285C248.142 20.9338 247.866 20.9821 247.59 20.97C247.319 20.9784 247.05 20.9272 246.801 20.8201C246.552 20.7129 246.33 20.5525 246.15 20.35C245.733 19.8278 245.529 19.1666 245.58 18.5V18.5Z" fill="black" stroke="white" stroke-width="0.5" stroke-miterlimit="10"/>
<path id="Vector_14" d="M271.26 14.3C271.243 15.0155 271.08 15.72 270.78 16.37C270.428 17.186 269.926 17.9288 269.3 18.56C268.574 19.318 267.695 19.9113 266.72 20.3C265.555 20.7703 264.306 20.9982 263.05 20.97C262.082 20.9793 261.116 20.8786 260.17 20.67C259.34 20.4844 258.544 20.1707 257.81 19.74C257.074 19.2879 256.416 18.7207 255.86 18.06C255.321 17.4177 254.867 16.7085 254.51 15.95C254.125 15.1559 253.842 14.3157 253.67 13.45C253.477 12.5259 253.384 11.5839 253.39 10.64C253.365 9.16335 253.602 7.694 254.09 6.3C254.521 5.08231 255.202 3.96839 256.09 3.03C256.953 2.12722 258 1.42116 259.16 0.959998C260.355 0.480073 261.632 0.238866 262.92 0.249998C264.426 0.229678 265.915 0.5727 267.26 1.25C268.409 1.80363 269.408 2.62704 270.17 3.65C270.775 4.42486 271.124 5.36821 271.17 6.35C271.173 6.80815 270.997 7.2494 270.68 7.58C270.531 7.74836 270.348 7.88281 270.143 7.97425C269.937 8.06568 269.715 8.11197 269.49 8.11C269.067 8.14378 268.647 8.01103 268.32 7.74C267.966 7.36411 267.673 6.9357 267.45 6.47C267.016 5.58969 266.378 4.82533 265.59 4.24C264.824 3.71674 263.918 3.43782 262.99 3.44C262.22 3.41142 261.454 3.56922 260.757 3.9C260.061 4.23079 259.455 4.72478 258.99 5.34C257.905 6.92359 257.381 8.82423 257.5 10.74C257.459 12.0676 257.684 13.39 258.16 14.63C258.513 15.5836 259.152 16.4046 259.99 16.98C260.832 17.5034 261.809 17.7709 262.8 17.75C263.868 17.7936 264.921 17.4882 265.8 16.88C266.656 16.2369 267.295 15.347 267.63 14.33C267.77 13.8671 267.986 13.4311 268.27 13.04C268.42 12.8641 268.61 12.7268 268.824 12.6398C269.038 12.5527 269.27 12.5185 269.5 12.54C269.731 12.5367 269.96 12.5792 270.175 12.665C270.39 12.7508 270.585 12.8783 270.75 13.04C270.916 13.2044 271.047 13.4008 271.135 13.6175C271.222 13.8341 271.265 14.0663 271.26 14.3Z" fill="black" stroke="white" stroke-width="0.5" stroke-miterlimit="10"/>
<path id="Vector_15" d="M290.14 14.62C290.153 15.7753 289.826 16.9091 289.2 17.88C288.531 18.8905 287.577 19.6804 286.46 20.15C285.109 20.7282 283.649 21.0079 282.18 20.97C280.479 21.0381 278.791 20.6515 277.29 19.85C276.381 19.3274 275.615 18.589 275.06 17.7C274.531 16.9264 274.236 16.0168 274.21 15.08C274.209 14.8454 274.254 14.6129 274.343 14.3958C274.431 14.1786 274.562 13.9812 274.728 13.8149C274.893 13.6485 275.09 13.5165 275.307 13.4264C275.523 13.3364 275.755 13.29 275.99 13.29C276.39 13.2803 276.777 13.4275 277.07 13.7C277.414 14.0429 277.674 14.4604 277.83 14.92C278.047 15.4823 278.325 16.0189 278.66 16.52C279.005 16.9812 279.463 17.3462 279.99 17.58C280.806 17.9112 281.689 18.0449 282.567 17.9702C283.444 17.8955 284.292 17.6145 285.04 17.15C285.388 16.9211 285.673 16.6094 285.87 16.2428C286.068 15.8762 286.171 15.4663 286.17 15.05C286.182 14.7529 286.134 14.4564 286.029 14.1781C285.925 13.8998 285.765 13.6454 285.56 13.43C285.122 12.9815 284.584 12.6423 283.99 12.44C283.143 12.1639 282.282 11.9336 281.41 11.75C280.17 11.4746 278.961 11.076 277.8 10.56C276.885 10.1555 276.089 9.52174 275.49 8.72C274.896 7.86852 274.594 6.84748 274.63 5.81C274.614 4.7598 274.929 3.73115 275.53 2.87C276.191 1.96358 277.101 1.26876 278.15 0.870004C279.427 0.385209 280.785 0.15094 282.15 0.180005C283.231 0.156421 284.309 0.31185 285.34 0.640004C286.154 0.896947 286.911 1.30771 287.57 1.85C288.109 2.28434 288.551 2.82576 288.87 3.44C289.133 3.94351 289.273 4.50198 289.28 5.07C289.281 5.55526 289.099 6.02298 288.77 6.38C288.613 6.56603 288.417 6.71467 288.196 6.81503C287.974 6.91538 287.733 6.96492 287.49 6.96C287.105 6.9851 286.725 6.85962 286.43 6.61C286.114 6.27152 285.851 5.88717 285.65 5.47C285.342 4.79215 284.892 4.18849 284.33 3.7C283.608 3.21061 282.739 2.98462 281.87 3.06C280.975 3.01618 280.089 3.2578 279.34 3.75001C279.046 3.91928 278.8 4.16042 278.626 4.4508C278.451 4.74117 278.352 5.07124 278.34 5.41C278.34 5.77009 278.456 6.12065 278.67 6.41C278.914 6.72025 279.221 6.97576 279.57 7.16C279.939 7.36422 280.328 7.53169 280.73 7.66C281.13 7.78 281.73 7.95001 282.68 8.18001C283.718 8.41437 284.743 8.70479 285.75 9.05C286.576 9.32864 287.36 9.71892 288.08 10.21C288.715 10.6566 289.233 11.2501 289.59 11.94C289.994 12.7734 290.183 13.6948 290.14 14.62Z" fill="black" stroke="white" stroke-width="0.5" stroke-miterlimit="10"/>
</g>
<path id="AREA" d="M7.90001 194.77C7.90001 194.77 77.04 200.61 123.16 154.5C169.28 108.39 163.43 39.24 163.43 39.24" stroke="white" stroke-width="0.5" stroke-miterlimit="10"/>
<g id="Hopporyodo">
<path id="Vector_16" d="M267.57 75.31H269.23L270.06 73.64L272.56 72.18L272.98 70.31L275.68 67.4L276.3 65.11L278.59 65.32L280.47 63.65L283.8 60.12L287.13 57.83H288.58L289.58 57.2L289.37 54.29L288.54 54.5L285.84 56.58L283.55 58.87L280.43 59.49L278.76 57.62V60.12L276.51 62.44L276.3 62.86L274.64 63.48L273.64 65.98L272.39 66.81L271.99 68.44L270.32 69.06L270.94 71.14L269.07 71.98V72.6L268.24 72.81L268.45 73.64L267.82 74.06L268.03 75.72L267.57 75.31Z" fill="#BDBEBE" stroke="white" stroke-width="0.5" stroke-miterlimit="10"/>
<path id="Vector_17" d="M251.75 88.21L253 89.21H253.62V86.92L254.25 85.92L255.7 85.09L256.7 83.21L257.12 81.96L258.79 80.72L259.2 79.26L261.07 78.63L262.53 77.63L263.99 76.8L264.4 75.55L262.53 76.18L259.2 75.18L256.91 79.18V80.01L255.91 80.64L255.5 82.72L254.25 83.72L254.04 84.34L251.75 87.05V88.3V88.21Z" fill="#BDBEBE" stroke="white" stroke-width="0.5" stroke-miterlimit="10"/>
<path id="Vector_18" d="M266.11 87.37L266.94 88L269.65 86.13L268.65 85.13L267.19 85.54L266.19 86.54L266.11 87.37Z" fill="#BDBEBE" stroke="white" stroke-width="0.5" stroke-miterlimit="10"/>
<path id="Vector_19" d="M260.49 92.37H261.32V91.37H260.49V92.37Z" fill="#BDBEBE" stroke="white" stroke-width="0.5" stroke-miterlimit="10"/>
</g>
<g id="Hokkaido">
<path id="Vector_20" d="M199.31 68.23H200.77L200.56 66.98L199.73 66.15L198.48 66.77V67.44L199.31 68.23Z" fill="#BDBEBE" stroke="white" stroke-width="0.5" stroke-miterlimit="10"/>
<path id="Vector_21" d="M196.82 65.11L197.44 64.28V63.03L196.44 63.24L196.82 65.11Z" fill="#BDBEBE" stroke="white" stroke-width="0.5" stroke-miterlimit="10"/>
<path id="Vector_22" d="M180.79 118.38L180.38 120.46L179.75 121.46L178.92 120.46L179.34 119.21L180.79 118.38Z" fill="#BDBEBE" stroke="white" stroke-width="0.5" stroke-miterlimit="10"/>
</g>
<g id="Miyagi">
<path id="Vector_23" d="M192.24 189.33L194.74 189.75L195.15 190.38L197.44 190.58L198.27 192.25L200.15 190.79H200.99L200.78 187.67L202.24 185.17V183.09L204.53 182.47L204.94 181.64H206.19L208.06 183.72L208.48 183.3V181.44H207.65L208.27 179.77L207.65 179.36L207.86 178.36L207.65 176.48L208.48 176.07L208.69 174.82L208.9 173.57L209.73 173.99L209.31 171.91L207.86 171.28L205.99 174.98L205.37 174.56L203.29 175.39L202.66 174.39L197.88 172.31L196.99 172.44L196.79 173.06L195.12 173.9V174.52L196.12 176.39L195.91 178.06L195.08 177.85L194.67 178.68V179.31L195.29 179.72V180.97L195.5 181.97L194.67 183.22L194.25 184.68V185.93L193.42 186.34L193.21 187.34L191.96 187.97L192.24 189.33Z" fill="#BDBEBE" stroke="white" stroke-width="0.5" stroke-miterlimit="10"/>
</g>
<g id="Akita">
<path id="Vector_24" d="M186.41 148.13L189.33 147.72H190.33L191.33 147.3L195.07 148.13L196.53 147.13L199.23 147.76V150.26L197.99 151.09V152.75L197.57 153.38L197.99 155.04L198.19 157.54L197.57 158.99V161.08L196.74 163.57L195.49 164.4L195.9 166.28L197.57 168.15L197.78 168.98L197.15 169.61L197.57 170.86L197.78 172.31L196.78 172.52L196.57 173.14L195.11 173.98L193.24 172.31L190.33 171.48L187.62 170.02H186.37L188.25 165.86L188.45 160.86L187.62 159.4V157.74H184.5L183.88 157.11L183.67 155.66H184.5L185.33 156.28L186.33 155.45V154.61L187.33 153.16V151.29L187.75 150.29L186.41 148.13Z" fill="#BDBEBE" stroke="white" stroke-width="0.5" stroke-miterlimit="10"/>
</g>
<g id="Yamagata">
<path id="Vector_25" d="M186.2 169.78L187.66 169.98L190.37 171.44L193.28 172.27L194.94 173.73L195.15 174.56L196.15 176.23L195.74 178.1L195.11 177.89L194.7 178.72V179.35L195.32 179.76L195.53 182.05L194.07 184.55L194.28 186.01L193.45 186.42L193.03 187.42L191.78 188.05V188.88L192.2 189.5L191.37 190.13L191.78 192.42L190.95 192.83L184.95 191.83L183.49 190.83L184.49 187.71L183.87 187.29L184.7 185.84H185.53L186.53 184.84V184L185.07 182.76H184.24L184.03 180.88L182.58 179.63L184.66 176.93L186.32 171.52L186.2 169.78Z" fill="#BDBEBE" stroke="white" stroke-width="0.5" stroke-miterlimit="10"/>
</g>
<g id="Fukushima">
<path id="Vector_26" d="M185.16 191.83L190.99 192.83L191.82 192.42L191.41 190.13L192.24 189.3L194.74 189.71L195.15 190.34L197.44 190.54L198.27 192.21L200.15 190.75H200.99L202.24 193.87V196.79L202.45 200.12L202.86 201.57L202.45 202.4L202.03 203.24V205.53L199.99 208.06L197.7 207.44L197.08 206.81L194.99 208.69L193.49 207.44H192.66L191.82 205.15L189.99 203.69L188.99 203.49H186.91L183.37 205.57L182.54 206.19L180.46 207.19H179.63L179 206.78L179.42 206.15V204.49L178.42 202.61L178 201.78L178.21 201.16L178.42 200.32L178 199.7L178.21 198.7L181.75 197.24L183 196.62L182.58 195.99V195.16L183.58 194.75L184.2 193.08L185.16 191.83Z" fill="#BDBEBE" stroke="white" stroke-width="0.5" stroke-miterlimit="10"/>
</g>
<g id="Ibaraki">
<path id="Vector_27" d="M188.08 223.44L188.91 224.27L191.41 224.48L191.82 225.31H194.11L195.36 224.31H197.23L198.07 224.73L199.73 226.39H200.73L197.61 220.98L197.4 220.15L196.78 219.53L196.98 217.24L197.82 216.41V215.78L197.4 214.95L198.03 213.7L199.27 209.96L199.9 208.08L197.4 207.46L196.98 206.83L194.99 208.69L193.49 207.44H192.66L192.24 208.27V210.77L191.99 211.44L192.41 214.15L191.16 216.02H190.53L186.53 218.1H185.7L183.62 218.31L184.24 218.93L184.87 219.35L185.07 221.22L187.15 222.22L188.08 223.44Z" fill="#BDBEBE" stroke="white" stroke-width="0.5" stroke-miterlimit="10"/>
</g>
<g id="Tochigi">
<path id="Vector_28" d="M179.34 207.02H180.34L182.63 206.19L183.46 205.36L186.79 203.28L188.87 203.49L189.87 203.69L191.74 205.15L192.58 207.23L192.16 208.23L192.37 210.73L192.16 214.06L190.99 215.76L190.37 215.97L186.37 218.05H183.67L181.79 217.84L180.96 215.97V214.51L181.59 212.43H180.13L180.34 211.6V210.98L179.92 208.69L179.34 207.02Z" fill="#BDBEBE" stroke="white" stroke-width="0.5" stroke-miterlimit="10"/>
</g>
<g id="Gumma">
<path id="Vector_29" d="M179.34 207.02L178.71 206.61L177.05 206.19H176.05L175.22 208.06L174.22 209.31H173.38L172.97 209.73L172.34 211.39L171.34 211.6L170.34 211.39L168.26 213.27V215.76H169.51L170.97 216.39L170.55 218.26L170.76 220.55L170.97 222L171.38 223.05L172.38 223.46L173.84 221.8L175.71 221.17L176.54 220.55L176.75 219.3L178 218.68H179.46L181.12 219.51L183.41 219.72H184.41V218.88L183.79 218.05L181.91 217.84L181.08 215.76V214.31L181.5 212.43H180.25L180.46 211.18L180.04 208.69L179.34 207.02Z" fill="#BDBEBE" stroke="white" stroke-width="0.5" stroke-miterlimit="10"/>
</g>
<g id="Saitama">
<path id="Vector_30" d="M172.05 223.25L173.51 221.8L175.38 221.17L176.38 220.34V219.09L177.63 218.47L179.3 218.68L180.96 219.51L184.08 219.72L184.29 218.88L184.92 219.3L185.12 221.17L187 222.17L187.83 223.42L188.04 226.33H185.79L184.33 226.75H182.46L180.17 226.54L176.43 225.29L175.59 225.71L173.3 225.5L172.47 224.67L172.05 223.25Z" fill="#BDBEBE" stroke="white" stroke-width="0.5" stroke-miterlimit="10"/>
</g>
<g id="Chiba">
<path id="Vector_31" d="M188.29 229.08L188.08 226.37L187.87 223.46L188.7 224.29L191.41 224.5L191.61 225.33L194.11 225.13L195.36 224.29H197.23L197.86 224.5L199.73 226.37H200.56L201.19 227.62L198.9 227.83L196.61 229.5L195.98 231.99L195.78 234.91L194.94 236.57L194.32 237.57L191.2 238.2L189.53 239.86L189.33 240.48L188.49 241.11L187.66 241.32V239.65L188.08 237.99L187.66 236.53L188.08 235.28L187.45 235.07V234.24L191.2 229.87V229.25L189.95 228.25L188.29 229.08Z" fill="#BDBEBE" stroke="white" stroke-width="0.5" stroke-miterlimit="10"/>
</g>
<g id="Tokyo">
<path id="Vector_32" d="M175.59 225.54L176.42 225.13L180.17 226.37L182.25 226.79H184.33L185.58 226.37H187.87L188.28 229.08L186 229.29L184.33 229.7H181.21L178.3 229.29L178.09 228.66L177.46 228.04L175.8 226.58L175.59 225.54Z" fill="#BDBEBE" stroke="white" stroke-width="0.5" stroke-miterlimit="10"/>
<path id="Vector_33" d="M181.63 244.89H183.08V244.27L181.63 243.27V244.89Z" fill="#BDBEBE" stroke="white" stroke-width="0.5" stroke-miterlimit="10"/>
<path id="Vector_34" d="M179.75 246.77V247.6L179.96 246.77H179.75Z" fill="#BDBEBE" stroke="white" stroke-width="0.5" stroke-miterlimit="10"/>
<path id="Vector_35" d="M180.79 248.01L181.42 247.6L180.59 248.01H180.79Z" fill="#BDBEBE" stroke="white" stroke-width="0.5" stroke-miterlimit="10"/>
</g>
<g id="Kanagawa">
<path id="Vector_36" d="M178.09 229.08L181.42 229.7H184.33L185.79 229.08H188.29L187.24 229.5L186.62 230.12V231.12L185.37 232.12L185.16 234.41L186.41 235.03L186.2 236.28L184.96 237.11V235.74L184.33 234.74L181.42 234.32L180.17 235.15L179.17 235.57V236.57L178.34 237.57L176.05 236.57L176.26 235.74V233.87L175.42 233.24V232.44L176.88 231.61L177.88 230.98L178.09 230.36V229.11V229.08Z" fill="#BDBEBE" stroke="white" stroke-width="0.5" stroke-miterlimit="10"/>
</g>
<g id="Nigata">
<path id="Vector_37" d="M172.68 209.73L173.3 209.31H174.14L175.14 208.06L175.97 206.19H176.97L178.84 206.61L179.26 205.98L179.05 204.32L177.8 201.82L178.22 200.36L177.59 199.74L178.01 198.49L181.55 197.24L182.79 196.62L182.17 195.99V195.16L183.42 194.54L184.04 192.87L185.04 192.04L183.38 190.79L184.38 187.67L183.76 187.25L184.59 185.8H185.21L186.21 184.8V183.97L184.96 182.72H184.13L183.92 180.64L182.47 179.64L182.05 180.64L180.59 183.55V187.55L173.94 192.34L172.94 193.34L172.1 196.88L170.02 198.75L169.19 200.62L165.99 203.49H164.33L161.62 205.15L160.19 206.44L158.32 207.27L158.95 209.56L160.19 208.56L160.61 207.73H162.27L163.11 209.18L166.02 208.35L167.02 207.1L168.02 206.1H169.27L170.73 207.97L172.68 209.73Z" fill="#BDBEBE" stroke="white" stroke-width="0.5" stroke-miterlimit="10"/>
<path id="Vector_38" d="M165.19 192.87L167.27 192.66L169.35 190.58L169.56 188.5L168.31 188.92V187.05L168.73 186.05L168.52 184.38L166.02 186.88L165.4 189.37L166.64 190.21V191.04L165.19 192.87Z" fill="#BDBEBE" stroke="white" stroke-width="0.5" stroke-miterlimit="10"/>
</g>
<g id="Toyama">
<path id="Vector_39" d="M158.11 207.02L158.74 209.52L158.95 210.35V212.02L157.49 214.51V215.35L156.86 216.59L153.54 215.76L150.41 215.97L149.41 217.22L148.41 218.67L147.79 217.67H146.33L146.12 215.59L146.54 214.76L146.75 210.18L147.37 208.73L148.2 208.1L148.41 207.27H149.87V209.77L150.49 210.77L153.2 210.98L154.03 210.56L155.28 208.06L156.53 207.06L158.11 207.02Z" fill="#BDBEBE" stroke="white" stroke-width="0.5" stroke-miterlimit="10"/>
</g>
<g id="Ishikawa">
<path id="Vector_40" d="M149.79 207.23H148.33L148.13 208.06L147.29 208.69L146.67 210.14L146.46 214.93L146.04 215.55L146.25 217.63L146.04 218.88L146.25 219.88L145.63 220.3L145.42 221.55L143.96 222.17L143.55 220.92L142.55 220.51H140.67L139.67 219.51L138.84 219.09L141.96 216.59L144.46 212.02L145.46 211.02L146.29 208.1L145.67 207.27L145.88 205.19L144.99 203.44L145.41 202.44L145.62 200.99L147.7 199.99H148.99L153.15 197.7L153.98 198.95L152.73 200.19L152.49 201.44L151.49 202.07L150.87 201.86L149.37 203.44L148.13 203.03L147.71 204.69L148.71 205.69L149.54 205.49L149.79 207.23Z" fill="#BDBEBE" stroke="white" stroke-width="0.5" stroke-miterlimit="10"/>
</g>
<g id="Fukui">
<path id="Vector_41" d="M138.76 219.09L139.59 219.51L140.43 220.51H142.3L143.3 220.92L143.99 222.44L146.07 225.77L145.87 227.23L142.95 227.64H140.46L138.99 229.29L138.37 229.5L137.95 230.12L137.12 230.74L133.58 232.2L133.16 234.28L132.54 234.7L131.71 234.07L128.79 233.45L128.38 232.45L127.99 230.54L128.82 230.74L129.45 230.95L129.66 231.78H130.49V231.37H131.11V232.2L132.11 231.99V230.99L132.74 231.2L133.36 230.78V229.95L134.36 229.74L135.36 229.12V228.12H136.19L137.03 228.95L136.82 226.87L135.36 223.75V222.92L137.44 219.8L138.76 219.09Z" fill="#BDBEBE" stroke="white" stroke-width="0.5" stroke-miterlimit="10"/>
</g>
<g id="Yamanashi">
<path id="Vector_42" d="M172.26 224.71L173.1 225.54H175.59L175.8 226.54L178.09 228.44V230.31L177.88 230.93L175.18 232.39V233.01H174.18L172.72 233.43H171.26L170.43 232.8H169.43V236.13L168.6 236.97L167.6 235.72L167.39 234.72H165.99V233.05L165.78 231.8V230.14L165.16 229.52V226.19L167.45 224.31L168.28 224.73L170.15 225.15L172.26 224.71Z" fill="#BDBEBE" stroke="white" stroke-width="0.5" stroke-miterlimit="10"/>
</g>
<g id="Nagano">
<path id="Vector_43" d="M158.74 209.31L160.19 208.48L160.4 207.65H162.27L162.9 209.1L166.02 208.27L168.1 205.98H169.35L170.81 208.06L172.68 209.73L172.26 211.39L171.01 211.6L170.18 211.39L167.89 213.44L168.1 215.52H169.1L170.77 216.36L170.39 218.44L170.6 221.97L171.22 222.97L172.06 223.39L172.26 224.39L170.18 225.01L168.31 224.6L167.48 224.18L165.19 226.06V229.39L164.56 229.59L163.94 231.88L163.73 233.76L162.48 235L159.78 236.25L156.24 235.84L156.87 233.34L157.49 232.51L157.28 231.26L156.45 230.63V229.8L155.45 228.14L153.99 226.58L153.78 225.75L155.45 224.75L156.45 223.5L156.87 222.5L156.45 220.21L157.28 218.55L157.07 217.55L156.87 216.55L157.49 215.55V214.71L158.95 212.22L158.74 209.31Z" fill="#BDBEBE" stroke="white" stroke-width="0.5" stroke-miterlimit="10"/>
</g>
<g id="Gifu">
<path id="Vector_44" d="M138.99 229.29L140.45 227.83L142.73 227.62L145.65 227.21L146.06 225.54L143.78 222.21L145.44 221.38V220.38L146.27 219.96L146.06 218.96V217.71H147.73L148.35 218.76L149.35 217.09L150.19 216.09L153.52 215.88L156.84 216.71L157.26 218.59L156.26 220.46L156.68 222.54L156.47 223.54L155.22 225L153.76 225.83L153.97 226.45L155.43 228.33L156.43 229.78V230.78L157.26 231.62L157.47 232.62L156.84 233.45L156.22 235.95H153.72L150.81 235.11L148.52 233.87L145.61 234.28L144.15 236.36V237.2H143.53L142.69 236.36L141.45 236.15L141.03 233.03L138.99 229.29Z" fill="#BDBEBE" stroke="white" stroke-width="0.5" stroke-miterlimit="10"/>
</g>
<g id="Shizuoka">
<path id="Vector_45" d="M159.78 236.36L162.27 234.91L163.73 233.86L163.94 231.99L164.77 229.7L165.19 229.5L165.6 230.12L165.81 231.78L166.02 233.24V234.7H167.02L167.23 235.7L168.48 236.95L169.31 236.11V232.78H170.31L171.14 233.41H172.6L173.85 232.99H175.1L175.93 233.82V236.32L178.01 237.57L177.8 240.07L178.42 241.32L176.34 244.64V245.89H175.34L174.72 246.73H174.1L173.68 244.64L173.47 239.64L174.72 239.43L173.26 237.77L171.18 237.98L169.99 239.27L169.79 240.73L167.71 241.56L166.87 244.27L166.04 244.89L165.62 246.77L163.54 245.93L161.46 246.14L160.46 246.77L157.97 245.93H155.68V243.23L157.34 241.98L160.05 237.82L159.78 236.36Z" fill="#BDBEBE" stroke="white" stroke-width="0.5" stroke-miterlimit="10"/>
</g>
<g id="Aichi">
<path id="Vector_46" d="M143.76 237.19L144.17 236.99V236.36L145.63 234.28L148.54 233.86L150.83 235.11L153.74 235.95H156.24L159.78 236.36L159.99 238.03L157.28 242.19L155.62 243.19V245.89H153.99L151.08 247.14H150.08V246.52L153.2 244.64L152.99 243.81L149.87 244.02L149.25 243.6L148.99 242.44L148.36 243.89L148.78 245.35L147.32 244.73V243.44L146.7 242.44V241.44L147.95 239.98L147.11 239.36L145.45 239.98L143.76 237.19Z" fill="#BDBEBE" stroke="white" stroke-width="0.5" stroke-miterlimit="10"/>
</g>
<g id="Mie">
<path id="Vector_47" d="M141.47 235.95L142.71 236.36L143.34 237.19H143.99L145.24 239.69L144.62 240.69L144.2 243.19L142.95 244.19L142.74 246.27L144.83 247.93L146.49 248.98L148.16 249.98L147.95 252.26L146.49 252.68L146.91 251.85H144.83L141.5 253.51H140.25L139.83 253.93V254.93L138.83 255.35L139.04 257.63L136.68 259.44L135.68 262.35L133.39 260.48L133.6 259.02L134.85 258.19V256.94L136.51 255.69V252.99L136.72 251.74L136.1 251.12V249.87L137.97 249.66L138.59 249.24L137.97 247.79L136.97 247.58L136.14 246.58V245.12L135.51 244.71L135.93 243.66L136.93 242.42H138.8L139.8 241.58L140.43 240.34L141.05 239.92V237.84L141.47 235.95Z" fill="#BDBEBE" stroke="white" stroke-width="0.5" stroke-miterlimit="10"/>
</g>
<g id="Shiga">
<path id="Vector_48" d="M132.52 234.7L133.14 234.28L133.35 232.2L137.1 230.74L137.93 230.12L138.35 229.5H138.99L141.07 233.24L141.49 236.15L141.07 237.82V240.11L140.45 240.32L139.82 241.56L138.82 242.4H136.89L135.64 243.85L134.18 242.44L132.93 239.32L132.52 234.7Z" fill="#BDBEBE" stroke="white" stroke-width="0.5" stroke-miterlimit="10"/>
</g>
<g id="Kyoto">
<path id="Vector_49" d="M127.73 230.54L128.73 233.45L131.65 234.07L132.48 234.7L132.89 239.48L134.14 242.4L135.6 243.85L135.39 244.48L132.69 244.89L131.85 244.27L131.65 243.02L131.44 241.15L130.19 240.94V240.11L128.94 239.11L125.4 237.65L123.74 235.36L122.07 235.15L121.07 234.32V233.7H122.07L122.28 233.07V231.41L120.62 230.58L120.2 229.33L121.87 229.12L123.11 227.87H125.82L124.99 230.74L125.99 231.16L126.4 232.16L127.24 231.95L127.73 230.54Z" fill="#BDBEBE" stroke="white" stroke-width="0.5" stroke-miterlimit="10"/>
</g>
<g id="Osaka">
<path id="Vector_50" d="M130.23 240.94L131.48 241.15L131.69 244.27L132.69 244.89L130.4 247.6L130.19 250.3L124.99 251.76H122.99L125.48 250.51L127.36 248.85L128.19 246.56L127.36 244.69L127.77 241.98L126.52 240.73V239.9H127.36L128.81 241.36L130.23 240.94Z" fill="#BDBEBE" stroke="white" stroke-width="0.5" stroke-miterlimit="10"/>
</g>
<g id="Hyogo">
<path id="Vector_51" d="M120.24 229.08L120.66 230.74L122.32 231.37V233.03L121.91 233.66H121.07V234.28L122.07 235.11L123.74 235.32L125.4 237.61L128.94 239.07L130.19 240.07V240.9L128.73 241.32L127.07 239.86H126.44V240.69L127.69 241.94L127.28 244.65L125.4 245.06L123.99 246.35H122.53L117.12 243.44L113.79 244.44L111.92 244.65L112.13 242.98L111.29 241.73L111.92 238.4L113.58 237.15L113.37 236.32L115.04 235.07L115.25 233.62L114.42 231.33L113.17 229.87L115.25 229.25L120.24 229.08Z" fill="#BDBEBE" stroke="white" stroke-width="0.5" stroke-miterlimit="10"/>
<path id="Vector_52" d="M116.91 251.76L118.37 250.51V249.51L121.28 247.22L121.7 248.05L120.7 249.1L120.91 252.63L119.03 253.63L116.91 251.76Z" fill="#BDBEBE" stroke="white" stroke-width="0.5" stroke-miterlimit="10"/>
</g>
<g id="Nara">
<path id="Vector_53" d="M130.23 250.3L130.44 247.39L132.73 244.89L135.22 244.48L136.06 245.1V246.56L136.89 247.56L137.89 247.77L138.51 249.22L137.89 249.64L136.02 249.85V251.1L136.64 251.93L136.43 252.93V255.63L134.56 256.63V258.09L133.56 258.92H129.4L129.19 256.43V254.97L131.06 253.1L130.65 251.64V250.39L130.23 250.3Z" fill="#BDBEBE" stroke="white" stroke-width="0.5" stroke-miterlimit="10"/>
</g>
<g id="Wakayama">
<path id="Vector_54" d="M122.99 251.76H125.28L130.28 250.3L130.7 250.51V251.76L130.9 253.22L128.99 255.3L129.2 256.55L129.41 259.04H133.41V260.5L135.49 262.37L134.87 264.04L132.37 266.33L131.37 266.53L129.29 265.29L127.42 264.45L126.58 262.16L125.75 260.71L123.26 259.04L123.05 257.38L123.67 256.96L123.46 256.13L122.84 255.71L123.05 254.71V251.8L122.99 251.76Z" fill="#BDBEBE" stroke="white" stroke-width="0.5" stroke-miterlimit="10"/>
</g>
<g id="Tottori">
<path id="Vector_55" d="M112.99 229.91L114.45 231.37L115.28 233.66L115.07 235.32L113.41 236.32H112.41L110.96 236.53L109.5 234.87L108.04 234.45L107.04 235.07H104.96L104.34 234.24H103.34L98.55 238.82L96.89 237.82L97.1 235.53L98.76 234.53V231.62L100.43 231.82L102.51 230.82L106.46 231.45L112.99 229.91Z" fill="#BDBEBE" stroke="white" stroke-width="0.5" stroke-miterlimit="10"/>
</g>
<g id="Shimane">
<path id="Vector_56" d="M98.6 231.58V234.49L96.94 235.49L96.73 237.78L92.99 237.44L91.33 238.07L90.91 238.69V239.32L89.91 240.77L88.25 241.77L86.17 241.98L84.92 242.4L84.09 242.19L82.63 243.19L81.63 246.31L81.21 247.97L80.8 249.85H79.55L77.26 250.68L77.67 248.81V247.56L77.05 246.56L76.05 245.56V244.1L77.92 243.89L84.17 238.48L86.04 237.48L87.49 235.4L89.78 234.4L90.78 233.4L90.16 231.94L95.99 229.86L98.28 230.28L98.6 231.58Z" fill="#BDBEBE" stroke="white" stroke-width="0.5" stroke-miterlimit="10"/>
</g>
<g id="Okayama">
<path id="Vector_57" d="M98.18 238.86L102.97 234.28H104.22L104.84 234.91L106.92 235.11L107.76 234.49L109.21 234.91L110.67 236.57L112.33 236.15L113.33 236.36V237.19L111.66 238.24L111.24 241.77L112.08 243.23L111.87 244.69L110.41 245.52L109.79 246.52H107.5L107.08 246.93H108.75L106.87 248.81H105.63L103.75 247.81L101.26 248.64L101.05 248.02H100.42L99.59 246.77L98.18 238.86Z" fill="#BDBEBE" stroke="white" stroke-width="0.5" stroke-miterlimit="10"/>
</g>
<g id="Hiroshima">
<path id="Vector_58" d="M80.71 249.89L81.33 247.81L81.54 246.14L82.37 243.23L84.04 242.23L84.87 242.44L86.12 241.81H88.2L89.86 240.81L90.86 239.36V238.44L92.94 237.44L96.69 237.86L98.35 238.86L99.6 246.97L100.43 247.97L98.77 250.47L97.94 249.47L96.94 250.3V251.3L95.06 251.51L96.06 250.06L95.44 249.64L94.19 250.47H92.11L89.82 252.14L87.95 252.34L87.53 250.89L86.7 249.89L85.24 250.1L83.58 252.18L81.71 250.3L80.71 249.89Z" fill="#BDBEBE" stroke="white" stroke-width="0.5" stroke-miterlimit="10"/>
<path id="Vector_59" d="M93.82 252.8H94.82V252.18L94.61 251.34L93.82 252.8Z" fill="#BDBEBE" stroke="white" stroke-width="0.5" stroke-miterlimit="10"/>
<path id="Vector_60" d="M86.99 254.05L88.24 254.67L88.03 253.84V252.84H87.4L86.99 254.05Z" fill="#BDBEBE" stroke="white" stroke-width="0.5" stroke-miterlimit="10"/>
</g>
<g id="Yamaguchi">
<path id="Vector_61" d="M75.92 244.06L75.71 245.52L76.96 246.52L77.58 247.77V248.77L76.96 250.43L79.46 249.81H80.71L81.95 250.22L83.62 252.1L83.2 252.93V253.93L83.41 255.39L82.16 256.39L81.95 258.47L81.12 259.09V257.01L79.04 256.39L78.21 255.55L77.21 255.97V254.44L74.5 255.44L74.09 255.02H72.84L72.42 255.44L72.01 254.44L70.76 256.1L69.09 255.89L67.84 253.81L65.76 255.48L64.76 252.35L65.6 251.94L65.39 250.94L64.97 249.94L67.05 247.86L68.05 247.65L69.05 248.48L69.47 247.86L70.3 248.48L71.76 248.27L73.01 247.27L73.42 246.44L75.3 244.36L75.92 244.06Z" fill="#BDBEBE" stroke="white" stroke-width="0.5" stroke-miterlimit="10"/>
<path id="Vector_62" d="M83.2 256.75L82.99 257.59L83.62 258L86.12 257.59L86.53 256.75H83.2Z" fill="#BDBEBE" stroke="white" stroke-width="0.5" stroke-miterlimit="10"/>
</g>
<g id="Tokushima">
<path id="Vector_63" d="M102.76 255.09H104.84L105.68 254.67L107.96 254.88L109.84 253.88H111.09L111.92 253.46H113.79L114.42 253.05L115.87 252.84L116.7 253.67L116.5 254.3L115.87 255.13V256.79L117.12 257.84V260.12L115.04 261.79L112.96 262.62L111.96 264.7L109.88 263.87L109.05 262.2L108.21 262L108.01 260.54L107.17 259.71L105.51 260.12L104.88 259.5H103.88L102.88 258.5V255.17L102.76 255.09Z" fill="#BDBEBE" stroke="white" stroke-width="0.5" stroke-miterlimit="10"/>
</g>
<g id="Kagawa">
<path id="Vector_64" d="M102.76 255.09H104.84L105.68 254.47L107.96 254.67L109.84 253.84H111.09L111.71 253.22L113.79 253.42L114.21 253.01L112.13 252.01L111.29 251.01H110.46L110.05 250.38L109.05 250.18L106.34 250.8L106.13 251.42L104.88 252.26H102.59V253.26L103.01 253.88L102.76 255.09Z" fill="#BDBEBE" stroke="white" stroke-width="0.5" stroke-miterlimit="10"/>
<path id="Vector_65" d="M110.88 248.85L111.88 248.64L112.09 248.01L111.88 247.39H111.05L110.88 248.85Z" fill="#BDBEBE" stroke="white" stroke-width="0.5" stroke-miterlimit="10"/>
</g>
<g id="Ehime">
<path id="Vector_66" d="M102.76 255.09V258.44L100.68 259.27L97.35 259.48L95.06 260.94L94.23 262.39L93.61 264.47L92.98 265.1L91.32 265.31L91.73 266.14L91.53 266.76L91.32 268.01L89.03 270.51L86.32 270.72L85.32 269.72L87.2 269.09V268.26L86.57 267.63H85.12V265.76L84.49 265.14L81.58 266.59L80.33 267.01L81.99 265.14L84.28 264.51L85.28 263.26L88.2 262.02L89.65 260.56L90.9 256.61L92.77 255.36L93.4 254.53L94.23 255.15L95.23 257.23H97.31L99.81 256.61L101.47 256.4L102.76 255.09Z" fill="#BDBEBE" stroke="white" stroke-width="0.5" stroke-miterlimit="10"/>
</g>
<g id="Kochi">
<path id="Vector_67" d="M86.32 270.7L89.24 270.28L91.32 267.99L91.73 266.12L91.32 265.29H92.99L93.83 264.24L94.24 262.16L95.07 261.16L97.36 259.29H100.69L102.77 258.46L103.77 259.46H105.02L105.44 260.08L107.1 259.67L108.1 260.67V261.92L108.94 262.12L109.77 263.79L111.85 264.41L110.6 266.49L109.77 269.41L107.06 266.08L105.61 264.83L104.61 264.41L102.11 264.62L100.03 266.49L97.53 267.33L97.32 269.2L95.03 271.9V272.74L93.58 272.53L93.37 274.19L92.74 274.82V276.48L93.58 277.94L92.33 276.69H91.33L90.33 277.31L88.45 276.31V275.44L89.08 275.03L88.87 273.78H86.17L85.96 272.53L86.32 270.7Z" fill="#BDBEBE" stroke="white" stroke-width="0.5" stroke-miterlimit="10"/>
</g>
<g id="Fukuoka">
<path id="Vector_68" d="M53.86 262.58L54.07 261.12L55.07 260.29L56.07 260.5L56.9 261.12L57.74 260.92L57.32 259.46L58.32 259.04L58.74 258.42L58.95 256.96L61.03 256.34L61.65 255.71L64.77 256.34L65.77 256.13L67.02 260.92L68.27 261.33V262.16L67.27 262.79L64.77 263L63.94 263.83L62.94 265.49V267.16L63.35 268.62L62.94 269.62H62.31L61.69 268.78H60.44L58.36 270.03L57.11 270.86V269.62L56.11 268.37L57.11 266.7L58.11 266.29L58.53 265.45L57.7 264.83L57.49 264.21L56.49 262.96L53.86 262.58Z" fill="#BDBEBE" stroke="white" stroke-width="0.5" stroke-miterlimit="10"/>
</g>
<g id="Saga">
<path id="Vector_69" d="M53.86 262.58L56.57 263L58.02 265.08L58.65 265.29L58.23 266.29L57.23 266.49L56.23 268.37L55.4 267.95H54.49L53.65 268.78L54.28 270.66V271.66L52.41 271.03L51.99 270.41L50.99 269.99L49.53 267.08L48.91 267.29L48.49 266.46V265H49.49L50.12 264.37L49.29 263.13L49.91 262.71L50.33 262.09L51.33 261.88L51.95 262.88L53.86 262.58Z" fill="#BDBEBE" stroke="white" stroke-width="0.5" stroke-miterlimit="10"/>
</g>
<g id="Nagasaki">
<path id="Vector_70" d="M49.49 265.08H48.66L48.45 266.74L48.87 267.37L49.49 267.16L50.99 270.07L51.99 270.49L52.2 270.9L54.49 271.74L53.49 273.4H55.15L56.15 273.82V275.69L55.74 276.69L53.65 277.11H52.99V276.27L53.41 274.61L52.41 274.19L50.95 274.61L48.24 277.52L47.83 277.11L48.24 274.19L46.16 271.7L46.58 270.45L47.41 269.45L48.66 270.9V272.78L50.53 272.98L50.74 271.98L50.12 270.74L48.87 269.28H48.04L47.2 267.41L45.75 266.99L46.16 264.28L48.66 264.7L49.49 265.08Z" fill="#BDBEBE" stroke="white" stroke-width="0.5" stroke-miterlimit="10"/>
<path id="Vector_71" d="M45.33 263.83L45.96 264.25L44.71 266.53H43.71V265.7L45.33 263.83Z" fill="#BDBEBE" stroke="white" stroke-width="0.5" stroke-miterlimit="10"/>
<path id="Vector_72" d="M37.63 270.49L39.09 269.03L39.51 270.03L38.88 271.03L37.88 272.49L38.09 271.24L37.63 270.49Z" fill="#BDBEBE" stroke="white" stroke-width="0.5" stroke-miterlimit="10"/>
<path id="Vector_73" d="M32.43 273.19H34.72L35.55 274.86L34.09 275.07L33.26 275.48H31.6L32.43 273.19Z" fill="#BDBEBE" stroke="white" stroke-width="0.5" stroke-miterlimit="10"/>
<path id="Vector_74" d="M48.24 256.34V258.44L49.24 258.02V256.15L48.61 255.94L48.24 256.34Z" fill="#BDBEBE" stroke="white" stroke-width="0.5" stroke-miterlimit="10"/>
<path id="Vector_75" d="M42.21 248.22H43.46L44.08 248.85L43.08 250.93L42.25 251.76L41.42 251.14L42.21 248.22Z" fill="#BDBEBE" stroke="white" stroke-width="0.5" stroke-miterlimit="10"/>
<path id="Vector_76" d="M43.04 246.97H44.29V247.81L44.71 245.52L45.96 244.69L46.37 243.85L46.16 242.19L45.54 241.77L44.08 242.4V244.06L43.04 246.97Z" fill="#BDBEBE" stroke="white" stroke-width="0.5" stroke-miterlimit="10"/>
</g>
<g id="Kumamoto">
<path id="Vector_77" d="M57.19 270.9L58.65 269.9L60.52 268.9L61.77 269.11L62.19 269.53L63.19 269.74L63.6 270.57L65.06 270.15L64.85 269.15L65.68 268.73L66.93 268.94L67.76 270.4L68.39 270.82V272.27L68.6 274.98L66.31 277.27L65.48 277.89L65.27 279.76L65.48 281.64L65.68 283.51L65.27 285.38L63.81 285.59L63.19 286.21H60.27L59.27 284.97L54.49 285.38L58.65 280.8V279.8L60.11 277.72L57.82 277.1L59.07 275.85H60.31L60.11 275.02L58.23 273.35L57.4 272.52L57.19 270.9Z" fill="#BDBEBE" stroke="white" stroke-width="0.5" stroke-miterlimit="10"/>
<path id="Vector_78" d="M54.28 279.44L56.98 278.81V279.64L56.36 280.27V281.1L54.49 280.68L54.28 279.44Z" fill="#BDBEBE" stroke="white" stroke-width="0.5" stroke-miterlimit="10"/>
<path id="Vector_79" d="M51.37 278.44L52.61 278.24L53.45 278.65L53.65 281.77L51.37 283.65H50.53V282.81L51.37 282.4L50.74 281.57V280.11L51.37 278.44Z" fill="#BDBEBE" stroke="white" stroke-width="0.5" stroke-miterlimit="10"/>
</g>
<g id="Oita">
<path id="Vector_80" d="M63.23 269.44L63.43 268.61L63.02 267.36L63.23 265.48L64.06 263.61L65.06 262.99L67.56 262.78L68.39 261.95V261.32L69.64 262.15H72.13L73.59 260.7H74.59L76.05 262.57V264.24L75.42 265.07L73.76 266.07H72.76L72.97 267.07L77.75 268.07L77.34 270.36L79.21 271.19L77.99 272.57L79.45 273.57L78.82 274.4V275.4H77.82L77.2 276.65L76.57 274.99L74.7 275.19L72.2 275.61L71.79 274.61L68.67 274.19L68.46 270.66L67.83 270.24L67 268.78L65.75 268.58L64.92 268.99L65.13 269.99L63.67 270.41L63.23 269.44Z" fill="#BDBEBE" stroke="white" stroke-width="0.5" stroke-miterlimit="10"/>
</g>
<g id="Miyazaki">
<path id="Vector_81" d="M60.31 286.09H63.23L64.06 285.47L65.31 285.26L65.72 283.39V281.31L65.52 279.43V277.77L68.64 275.07V274.23L71.76 274.86L72.17 275.69L76.54 275.07L77.17 276.73L74.67 279.23L75.09 280.48L74.09 281.31L71.99 285.89V287.97L70.32 290.88L71.15 291.88L69.28 297.08L68.28 298.33L66.62 297.33H65.99V296.08L66.2 294.63L64.33 294L63.7 293.38L63.91 292.13L62.66 291.3L62.45 290.3L60.31 286.09Z" fill="#BDBEBE" stroke="white" stroke-width="0.5" stroke-miterlimit="10"/>
</g>
<g id="Kagoshima">
<path id="Vector_82" d="M54.49 285.26L59.27 284.85L60.11 286.09L62.39 290.09V291.34L63.64 291.96V293.42L64.06 294.04L66.14 294.67L65.72 296.33V297.33H64.89L64.06 298.33L65.31 300.41L63.23 301.41L63.02 302.41L59.48 304.08L59.07 303.25L60.31 301.58L60.94 299.5L60.73 297.63L59.48 296.79L58.86 295.13V294.13L60.52 294.75L61.35 293.92V292.92L59.9 292.5L59.07 292.71L57.82 294.17L56.82 296.67L57.44 298.12L58.44 300.41V301.24L57.61 301.87L55.74 300.2L52.99 299.83L51.99 298.16V297.33L53.65 296.71L54.28 295.87L54.49 294.63L54.28 292.54L52.82 291.54L53.03 286.34L53.45 285.34L54.49 285.26Z" fill="#BDBEBE" stroke="white" stroke-width="0.5" stroke-miterlimit="10"/>
<path id="Vector_83" d="M61.15 315.02L62.6 314.6L63.02 312.31L63.64 311.69L64.27 309.19L64.48 307.94H63.64L62.19 310.23V311.9L61.19 313.35V315.02H61.15Z" fill="#BDBEBE" stroke="white" stroke-width="0.5" stroke-miterlimit="10"/>
<path id="Vector_84" d="M53.86 314.6L55.74 313.35L57.82 314.6V315.85L56.82 317.1H54.9L53.86 314.6Z" fill="#BDBEBE" stroke="white" stroke-width="0.5" stroke-miterlimit="10"/>
<path id="Vector_85" d="M34.09 349.56L35.99 351.02L37.86 350.6V349.6L41.86 346.89V346.06L35.21 347.93V348.98L34.09 349.56Z" fill="#BDBEBE" stroke="white" stroke-width="0.5" stroke-miterlimit="10"/>
<path id="Vector_86" d="M33.89 351.64L36.18 352.26L34.09 350.6L33.89 351.64Z" fill="#BDBEBE" stroke="white" stroke-width="0.5" stroke-miterlimit="10"/>
<path id="Vector_87" d="M45.33 349.35L45.96 349.77L46.37 348.77L45.33 349.35Z" fill="#BDBEBE" stroke="white" stroke-width="0.5" stroke-miterlimit="10"/>
</g>
<g id="Okinawa">
<path id="Vector_88" d="M100.43 102.77L101.89 101.72L101.68 100.72L102.1 98.85L103.34 98.64L102.72 97.81L102.93 96.98L104.8 95.98L105.43 95.15L107.09 94.73L106.88 93.73L108.13 93.31L109.38 92.07L109.59 91.07L109.38 90.07L108.55 89.66L106.47 91.95L106.26 93.2L102.72 92.78V93.4L104.18 94.86L100.85 96.94L100.64 99.65L99.64 100.48V102.14L100.43 102.77Z" fill="#BDBEBE" stroke="white" stroke-width="0.5" stroke-miterlimit="10"/>
<path id="Vector_89" d="M85.45 97.77L86.7 97.98L86.49 99.23L85.45 97.77Z" fill="#BDBEBE" stroke="white" stroke-width="0.5" stroke-miterlimit="10"/>
<path id="Vector_90" d="M63.18 123.37V126.28L65.89 125.45L64.02 124.82L63.81 123.99L63.18 123.37Z" fill="#BDBEBE" stroke="white" stroke-width="0.5" stroke-miterlimit="10"/>
<path id="Vector_91" d="M45.08 130.23L45.5 132.31L47.37 131.9L47.16 130.44L48.41 128.98L48.62 127.74H47.79L47.99 128.57L46.54 130.23H45.08Z" fill="#BDBEBE" stroke="white" stroke-width="0.5" stroke-miterlimit="10"/>
<path id="Vector_92" d="M38.42 132.31H39.67L39.88 130.65L42.17 131.06L42.58 131.48V132.1L41.34 133.35L38.42 133.15V132.31Z" fill="#BDBEBE" stroke="white" stroke-width="0.5" stroke-miterlimit="10"/>
</g>
</g>
</svg>
