<svg width="571" height="619" viewBox="0 0 571 619" fill="none" xmlns="http://www.w3.org/2000/svg">
<g id="Frame" clip-path="url(#clip0_1_2)">
<g id="map">
<g id="Rectangle 83">
<path id="Vector" d="M2 2H568.72V616.78H2V2Z" fill="#F3F3F3" stroke="#231815" stroke-width="4" stroke-miterlimit="10"/>
<path id="Vector_2" d="M2 2H568.72V616.78H2V2Z" fill="#F3F3F3" stroke="#231815" stroke-width="4" stroke-miterlimit="10"/>
</g>
<path id="Iwate" d="M353.21 323.78L360.21 326.78L361.12 328.29L363.84 327.38L364.75 327.69L367.18 322.84L368.39 322.53L369.6 323.14L371.73 323.75V322.23L373.24 321.93L373.54 320.41L374.15 319.5L373.85 317.99L375.36 317.08L374.45 316.47L375.36 315.26L374.76 314.35V312.78L376.58 311.57L375.67 310.96L376.58 308.24V307.02L375.67 306.42V303.69L375.06 301.87L374.76 300.05V298.84L374.15 297.62L373.85 296.72L372.33 296.11L372.63 294.29L371.73 293.38V290.96L368.37 286.78L367.16 287.69L366.25 288.6L361.1 289.78L355.94 292.51L355.03 291.6L353.21 292.78V295.21L352.61 296.12L353.21 298.85L353.52 301.85L352.61 304.58V307.31L351.39 310.94L349.58 312.16L350.18 314.88L352.61 317.61V318.83L352 319.73L352.61 321.25L353.21 323.78Z" fill="#BDBEBE" stroke="white" stroke-width="0.5" stroke-miterlimit="10"/>
<path id="Aomori" d="M336.24 288.56V286.78L335.02 286.18L335.63 283.75L337.45 281.93L341.69 280.72L342.6 275.87L343.51 274.96V273.75L342.6 273.14L343.21 269.2L345.94 270.11L347.76 269.81L349.57 277.69L351.39 278.9L353.82 277.38V274.66L356.55 276.17L358.06 277.69L359.58 276.78L359.28 274.05L360.79 272.23L360.49 269.5L358.67 267.99L356.55 269.78L353.82 270.08L351.39 271.29V267.96L352 264.96L353.82 262.23H356.24L359.88 265.56L363.52 264.96L362.61 271.32L363.52 273.14V279.78L365.34 284.93L368.07 286.15L368.37 287.06L366.85 287.66L366.55 288.57L361.7 289.78L356.24 292.78L355.03 291.87V287.92L351.39 287.32L348.97 288.83L343.51 287.32L341.69 288.23L338.05 287.92L336.24 288.56Z" fill="#BDBEBE" stroke="white" stroke-width="0.5" stroke-miterlimit="10"/>
<g id="COVID">
<path id="Vector_3" d="M91.06 93.58C91.0326 94.616 90.798 95.6361 90.37 96.58C89.2111 99.1867 87.0849 101.241 84.44 102.31C82.7493 103.001 80.936 103.341 79.11 103.31C77.6944 103.327 76.2815 103.179 74.9 102.87C72.444 102.34 70.2365 101.002 68.63 99.07C67.8339 98.1334 67.1617 97.0983 66.63 95.99C66.0717 94.8354 65.6585 93.6161 65.4 92.36C65.1219 91.0078 64.9845 89.6305 64.99 88.25C64.9501 86.1043 65.2886 83.9683 65.99 81.94C66.6207 80.1595 67.6229 78.5336 68.93 77.17C70.1936 75.8635 71.7207 74.8408 73.41 74.17C75.1549 73.4859 77.0159 73.1463 78.89 73.17C81.0756 73.131 83.2389 73.6144 85.2 74.58C86.8795 75.3805 88.3358 76.5826 89.44 78.08C90.3332 79.2024 90.851 80.5772 90.92 82.01C90.9368 82.6631 90.7003 83.2973 90.26 83.78C90.0446 84.0266 89.7785 84.224 89.48 84.3585C89.1815 84.4931 88.8575 84.5619 88.53 84.56C87.9232 84.5836 87.33 84.3764 86.87 83.98C86.3597 83.4299 85.935 82.8063 85.61 82.13C84.9693 80.8434 84.0297 79.729 82.87 78.88C81.7206 78.123 80.3657 77.7388 78.99 77.78C77.8706 77.7432 76.7587 77.9756 75.7477 78.4576C74.7368 78.9396 73.8562 79.6572 73.18 80.55C71.74 82.39 71.02 85.02 71.02 88.41C70.9734 90.3477 71.3134 92.2752 72.02 94.08C72.5505 95.4578 73.4935 96.6382 74.72 97.46C75.9545 98.2182 77.3817 98.6036 78.83 98.57C80.3641 98.6188 81.8738 98.1774 83.14 97.31C84.3857 96.3707 85.314 95.0725 85.8 93.59C85.9976 92.941 86.3017 92.3293 86.7 91.78C86.9186 91.5245 87.1951 91.3249 87.5065 91.1979C87.8178 91.071 88.1551 91.0202 88.49 91.05C88.8259 91.046 89.1591 91.1094 89.47 91.2365C89.7809 91.3636 90.0632 91.5518 90.3 91.79C90.5412 92.0214 90.7329 92.2994 90.8636 92.6071C90.9942 92.9147 91.061 93.2457 91.06 93.58V93.58Z" fill="black" stroke="white" stroke-width="0.5" stroke-miterlimit="10"/>
<path id="Vector_4" d="M109.22 73.11C111.936 73.0322 114.625 73.6666 117.02 74.95C119.165 76.1462 120.887 77.9765 121.95 80.19C123.121 82.6907 123.692 85.4298 123.62 88.19C123.646 90.2754 123.339 92.3516 122.71 94.34C122.141 96.1155 121.204 97.7511 119.96 99.14C118.718 100.507 117.178 101.571 115.46 102.25C113.507 102.993 111.43 103.356 109.34 103.32C107.245 103.353 105.163 102.979 103.21 102.22C101.484 101.54 99.9381 100.472 98.69 99.1C97.4418 97.7007 96.5075 96.0504 95.95 94.26C95.3157 92.2861 95.0017 90.2233 95.02 88.15C95.0041 86.0485 95.3421 83.9593 96.02 81.97C96.6031 80.1958 97.5576 78.5663 98.82 77.19C100.063 75.8688 101.588 74.8436 103.28 74.19C105.175 73.4603 107.19 73.0939 109.22 73.11V73.11ZM117.63 88.11C117.686 86.2074 117.345 84.3139 116.63 82.55C116.021 81.0826 114.973 79.8392 113.63 78.99C112.305 78.1776 110.774 77.7612 109.22 77.79C108.095 77.777 106.98 78.0054 105.95 78.46C104.947 78.8955 104.06 79.5599 103.36 80.4C102.574 81.3564 101.989 82.4619 101.64 83.65C101.211 85.0972 101.002 86.6007 101.02 88.11C101.002 89.6324 101.211 91.1491 101.64 92.61C101.995 93.832 102.601 94.9663 103.42 95.94C104.134 96.7969 105.033 97.4807 106.05 97.94C107.241 98.4395 108.532 98.6561 109.821 98.5728C111.111 98.4895 112.363 98.1086 113.48 97.46C114.807 96.6144 115.851 95.3923 116.48 93.95C117.289 92.119 117.682 90.1312 117.63 88.13V88.11Z" fill="black" stroke="white" stroke-width="0.5" stroke-miterlimit="10"/>
<path id="Vector_5" d="M131.95 76.99L138.56 96.57L145.2 76.85C145.54 75.85 145.8 75.1 145.97 74.69C146.162 74.2609 146.457 73.8863 146.83 73.6C147.299 73.2495 147.876 73.0759 148.46 73.11C148.947 73.1125 149.424 73.2409 149.847 73.4828C150.269 73.7246 150.622 74.0716 150.87 74.49C151.108 74.8712 151.236 75.3107 151.24 75.76C151.236 76.0769 151.196 76.3924 151.12 76.7C151.04 77.039 150.94 77.3729 150.82 77.7C150.7 78.02 150.58 78.36 150.46 78.7L143.4 97.78C143.15 98.51 142.9 99.2 142.65 99.86C142.416 100.465 142.121 101.044 141.77 101.59C141.431 102.1 140.975 102.522 140.44 102.82C139.816 103.12 139.132 103.275 138.44 103.275C137.748 103.275 137.064 103.12 136.44 102.82C135.907 102.514 135.452 102.09 135.11 101.58C134.75 101.035 134.452 100.451 134.22 99.84C133.97 99.19 133.72 98.5 133.46 97.77L126.46 78.84C126.34 78.5 126.22 78.16 126.09 77.84C125.961 77.4868 125.855 77.1262 125.77 76.76C125.696 76.4317 125.655 76.0966 125.65 75.76C125.655 75.4117 125.729 75.0678 125.868 74.7484C126.007 74.429 126.208 74.1406 126.46 73.9C126.727 73.6288 127.046 73.4151 127.399 73.2724C127.752 73.1296 128.13 73.0607 128.51 73.07C128.915 73.029 129.325 73.092 129.699 73.253C130.073 73.4139 130.401 73.6676 130.65 73.99C131.213 74.9285 131.65 75.9372 131.95 76.99Z" fill="black" stroke="white" stroke-width="0.5" stroke-miterlimit="10"/>
<path id="Vector_6" d="M155.93 99.7V76.7C155.856 75.7322 156.149 74.7721 156.75 74.01C157.017 73.7182 157.343 73.4876 157.708 73.334C158.072 73.1804 158.465 73.1074 158.86 73.12C159.262 73.1035 159.663 73.1735 160.036 73.3253C160.408 73.4771 160.744 73.7072 161.02 74C161.63 74.7618 161.926 75.7272 161.85 76.7V99.7C161.924 100.676 161.628 101.643 161.02 102.41C160.744 102.704 160.409 102.936 160.036 103.089C159.664 103.243 159.263 103.315 158.86 103.3C158.466 103.311 158.074 103.237 157.711 103.081C157.348 102.926 157.024 102.693 156.76 102.4C156.157 101.635 155.861 100.672 155.93 99.7Z" fill="black" stroke="white" stroke-width="0.5" stroke-miterlimit="10"/>
<path id="Vector_7" d="M172.12 73.61H179.87C181.606 73.5778 183.34 73.7626 185.03 74.16C186.455 74.548 187.77 75.2637 188.87 76.25C191.87 78.86 193.43 82.81 193.43 88.13C193.44 89.7415 193.286 91.3498 192.97 92.93C192.69 94.2957 192.212 95.613 191.55 96.84C190.912 98.0087 190.084 99.0631 189.1 99.96C188.337 100.65 187.474 101.22 186.54 101.65C185.584 102.081 184.575 102.384 183.54 102.55C182.342 102.731 181.132 102.818 179.92 102.81H172.21C171.371 102.857 170.535 102.688 169.78 102.32C169.258 102.018 168.877 101.522 168.72 100.94C168.532 100.188 168.448 99.4145 168.47 98.64V77.23C168.377 76.7343 168.406 76.2233 168.555 75.7414C168.704 75.2594 168.968 74.8211 169.324 74.4645C169.681 74.1078 170.119 73.8435 170.601 73.6946C171.083 73.5457 171.594 73.5167 172.09 73.61H172.12ZM174.42 78.29V98.1H178.87C179.87 98.1 180.62 98.1 181.18 98.02C181.77 97.9614 182.351 97.8304 182.91 97.63C183.48 97.4334 184.007 97.1277 184.46 96.73C186.46 95.0567 187.46 92.1767 187.46 88.09C187.46 85.2 187.03 83.09 186.16 81.61C185.464 80.329 184.316 79.3525 182.94 78.87C181.437 78.4524 179.88 78.257 178.32 78.29H174.42Z" fill="black" stroke="white" stroke-width="0.5" stroke-miterlimit="10"/>
<path id="Vector_8" d="M212.52 73.61H220.23C221.966 73.5793 223.699 73.764 225.39 74.16C226.836 74.5403 228.172 75.2564 229.29 76.25C232.29 78.86 233.85 82.81 233.85 88.13C233.865 89.7417 233.711 91.3505 233.39 92.93C233.117 94.2962 232.642 95.6141 231.98 96.84C231.335 98.0041 230.508 99.0574 229.53 99.96C228.766 100.653 227.899 101.223 226.96 101.65C226.005 102.083 224.996 102.385 223.96 102.55C222.765 102.731 221.558 102.818 220.35 102.81H212.64C211.801 102.859 210.964 102.691 210.21 102.32C209.686 102.019 209.301 101.523 209.14 100.94C208.957 100.187 208.873 99.4143 208.89 98.64V77.23C208.796 76.7333 208.825 76.2212 208.975 75.7383C209.124 75.2554 209.389 74.8164 209.747 74.4595C210.105 74.1025 210.545 73.8385 211.028 73.6905C211.511 73.5424 212.024 73.5148 212.52 73.61V73.61ZM214.81 78.29V98.1H219.29C220.29 98.1 221.04 98.1 221.6 98.02C222.191 97.9639 222.772 97.8328 223.33 97.63C223.891 97.4439 224.413 97.1558 224.87 96.78C226.87 95.1067 227.87 92.2267 227.87 88.14C228.011 85.9024 227.559 83.6671 226.56 81.66C225.866 80.3772 224.717 79.4 223.34 78.92C221.837 78.501 220.28 78.3056 218.72 78.34L214.81 78.29Z" fill="black" stroke="white" stroke-width="0.5" stroke-miterlimit="10"/>
<path id="Vector_9" d="M256.18 99.5L254.79 95.83H242.87L241.48 99.58C241.14 100.633 240.673 101.64 240.09 102.58C239.857 102.849 239.563 103.059 239.232 103.191C238.902 103.323 238.544 103.374 238.19 103.34C237.82 103.345 237.452 103.275 237.109 103.136C236.765 102.997 236.453 102.791 236.19 102.53C235.925 102.297 235.711 102.011 235.563 101.691C235.415 101.371 235.336 101.023 235.33 100.67C235.335 100.252 235.403 99.8378 235.53 99.44C235.67 99.0067 235.89 98.4167 236.19 97.67L243.66 78.67L244.43 76.67C244.695 76.0032 245.031 75.3663 245.43 74.77C245.776 74.2647 246.235 73.847 246.77 73.55C247.384 73.2219 248.074 73.0599 248.77 73.08C249.486 73.0516 250.197 73.2138 250.83 73.55C251.362 73.8431 251.82 74.2535 252.17 74.75C252.506 75.2466 252.791 75.776 253.02 76.33C253.25 76.9 253.55 77.65 253.91 78.59L261.54 97.44C262.012 98.4217 262.313 99.4769 262.43 100.56C262.423 100.912 262.345 101.259 262.2 101.581C262.056 101.902 261.849 102.191 261.59 102.43C261.329 102.696 261.018 102.907 260.674 103.051C260.331 103.195 259.962 103.269 259.59 103.27C259.176 103.283 258.764 103.198 258.39 103.02C258.065 102.86 257.778 102.632 257.55 102.35C257.262 101.938 257.021 101.495 256.83 101.03C256.59 100.47 256.36 99.95 256.18 99.5ZM244.47 91.39H253.19L248.79 79.39L244.47 91.39Z" fill="black" stroke="white" stroke-width="0.5" stroke-miterlimit="10"/>
<path id="Vector_10" d="M282.21 78.49H275.76V99.7C275.84 100.678 275.547 101.65 274.94 102.42C274.673 102.71 274.346 102.94 273.982 103.091C273.617 103.243 273.224 103.315 272.83 103.3C272.43 103.314 272.032 103.241 271.663 103.088C271.294 102.934 270.962 102.703 270.69 102.41C270.082 101.643 269.786 100.676 269.86 99.7V78.49H263.41C262.603 78.5509 261.802 78.3124 261.16 77.82C260.922 77.5888 260.732 77.3121 260.603 77.0064C260.474 76.7006 260.407 76.372 260.407 76.04C260.407 75.708 260.474 75.3794 260.603 75.0736C260.732 74.7678 260.922 74.4912 261.16 74.26C261.798 73.7834 262.586 73.5526 263.38 73.61H282.18C282.997 73.5424 283.81 73.7813 284.46 74.28C284.707 74.5041 284.902 74.7796 285.032 75.087C285.161 75.3945 285.222 75.7266 285.21 76.06C285.223 76.3915 285.161 76.7217 285.03 77.0263C284.898 77.3308 284.7 77.6021 284.45 77.82C283.808 78.3043 283.013 78.542 282.21 78.49Z" fill="black" stroke="white" stroke-width="0.5" stroke-miterlimit="10"/>
<path id="Vector_11" d="M304.87 99.5L303.48 95.83H291.59L290.2 99.58C289.864 100.634 289.397 101.642 288.81 102.58C288.577 102.849 288.283 103.059 287.952 103.191C287.622 103.323 287.264 103.374 286.91 103.34C286.54 103.345 286.172 103.275 285.829 103.136C285.485 102.997 285.173 102.791 284.91 102.53C284.646 102.297 284.434 102.01 284.288 101.69C284.141 101.37 284.064 101.022 284.06 100.67C284.062 100.253 284.126 99.8383 284.25 99.44C284.39 99.0067 284.61 98.4167 284.91 97.67L292.38 78.67L293.15 76.67C293.404 76.007 293.722 75.3706 294.1 74.77C294.446 74.2647 294.905 73.847 295.44 73.55C296.054 73.2219 296.744 73.0599 297.44 73.08C298.156 73.0516 298.867 73.2138 299.5 73.55C300.046 73.8479 300.515 74.269 300.87 74.78C301.206 75.2766 301.491 75.806 301.72 76.36C301.95 76.93 302.25 77.68 302.61 78.62L310.24 97.47C310.717 98.4499 311.018 99.5059 311.13 100.59C311.123 100.942 311.045 101.289 310.9 101.611C310.756 101.932 310.549 102.221 310.29 102.46C310.029 102.726 309.718 102.937 309.374 103.081C309.031 103.225 308.662 103.299 308.29 103.3C307.876 103.313 307.464 103.228 307.09 103.05C306.765 102.89 306.478 102.662 306.25 102.38C305.962 101.968 305.721 101.525 305.53 101.06C305.27 100.47 305.04 99.95 304.87 99.5ZM293.16 91.39H301.87L297.47 79.39L293.16 91.39Z" fill="black" stroke="white" stroke-width="0.5" stroke-miterlimit="10"/>
<path id="Vector_12" d="M350.59 93.58C350.563 94.616 350.328 95.6361 349.9 96.58C349.382 97.7699 348.65 98.8546 347.74 99.78C346.677 100.879 345.396 101.744 343.98 102.32C342.286 103.01 340.469 103.35 338.64 103.32C337.228 103.337 335.818 103.189 334.44 102.88C331.98 102.353 329.768 101.015 328.16 99.08C327.367 98.1408 326.695 97.1061 326.16 96C325.609 94.8432 325.2 93.6245 324.94 92.37C324.657 91.0185 324.52 89.6407 324.53 88.26C324.49 86.1143 324.829 83.9783 325.53 81.95C326.169 80.1733 327.17 78.5489 328.47 77.18C329.735 75.8756 331.262 74.8533 332.95 74.18C334.695 73.4968 336.556 73.1573 338.43 73.18C340.619 73.1409 342.785 73.6243 344.75 74.59C346.428 75.3933 347.883 76.5949 348.99 78.09C349.876 79.2156 350.39 80.5892 350.46 82.02C350.464 82.6861 350.21 83.3279 349.75 83.81C349.533 84.0579 349.266 84.256 348.965 84.3906C348.665 84.5253 348.339 84.5933 348.01 84.59C347.395 84.6361 346.786 84.4426 346.31 84.05C345.796 83.5008 345.368 82.8771 345.04 82.2C344.41 80.9152 343.481 79.8006 342.33 78.95C341.208 78.1837 339.879 77.7757 338.52 77.78C337.402 77.7449 336.292 77.978 335.283 78.4599C334.274 78.9419 333.395 79.6586 332.72 80.55C331.27 82.39 330.55 85.02 330.55 88.41C330.503 90.3477 330.843 92.2752 331.55 94.08C332.084 95.4585 333.031 96.6387 334.26 97.46C335.491 98.2179 336.915 98.6034 338.36 98.57C339.894 98.6202 341.404 98.1787 342.67 97.31C343.918 96.3734 344.847 95.0743 345.33 93.59C345.541 92.9171 345.858 92.2823 346.27 91.71C346.49 91.4558 346.766 91.2571 347.077 91.1302C347.389 91.0034 347.725 90.9519 348.06 90.98C348.4 90.9849 348.735 91.0582 349.046 91.1957C349.357 91.3331 349.638 91.5319 349.87 91.78C350.106 92.0156 350.291 92.2967 350.415 92.6061C350.539 92.9155 350.598 93.2468 350.59 93.58V93.58Z" fill="black" stroke="white" stroke-width="0.5" stroke-miterlimit="10"/>
<path id="Vector_13" d="M368.76 73.11C371.476 73.0336 374.165 73.6679 376.56 74.95C378.701 76.1513 380.421 77.9802 381.49 80.19C382.656 82.6923 383.227 85.4303 383.16 88.19C383.183 90.2759 382.873 92.3522 382.24 94.34C381.671 96.1155 380.734 97.7511 379.49 99.14C378.248 100.507 376.708 101.571 374.99 102.25C371.035 103.697 366.695 103.697 362.74 102.25C361.017 101.565 359.472 100.498 358.22 99.13C356.975 97.7281 356.041 96.0786 355.48 94.29C354.849 92.3155 354.538 90.2527 354.56 88.18C354.549 86.0789 354.887 83.9905 355.56 82C356.147 80.2275 357.101 78.5988 358.36 77.22C359.605 75.9009 361.129 74.876 362.82 74.22C364.713 73.4814 366.728 73.1049 368.76 73.11ZM377.16 88.11C377.216 86.2074 376.875 84.314 376.16 82.55C375.547 81.0846 374.5 79.8422 373.16 78.99C371.835 78.1776 370.304 77.7612 368.75 77.79C367.621 77.7771 366.503 78.0055 365.47 78.46C364.464 78.9041 363.574 79.5749 362.87 80.42C362.091 81.3795 361.509 82.4842 361.16 83.67C360.723 85.1156 360.51 86.6198 360.53 88.13C360.51 89.6533 360.723 91.1707 361.16 92.63C361.515 93.8497 362.118 94.9832 362.93 95.96C363.644 96.8169 364.543 97.5007 365.56 97.96C366.751 98.4595 368.042 98.6761 369.331 98.5928C370.621 98.5095 371.873 98.1286 372.99 97.48C374.318 96.6363 375.363 95.4136 375.99 93.97C376.809 92.1344 377.209 90.1394 377.16 88.13V88.11Z" fill="black" stroke="white" stroke-width="0.5" stroke-miterlimit="10"/>
<path id="Vector_14" d="M398.08 98.4L393.4 79.78V99.96C393.467 100.86 393.2 101.754 392.65 102.47C392.398 102.747 392.088 102.964 391.742 103.108C391.397 103.251 391.024 103.317 390.65 103.3C390.285 103.313 389.921 103.247 389.584 103.105C389.248 102.964 388.946 102.75 388.7 102.48C388.138 101.766 387.866 100.866 387.94 99.96V76.85C387.88 76.3708 387.94 75.8843 388.115 75.434C388.29 74.9838 388.573 74.5838 388.94 74.27C389.753 73.7916 390.688 73.5621 391.63 73.61H393.47C394.281 73.5668 395.093 73.6649 395.87 73.9C396.116 73.9983 396.339 74.1444 396.528 74.3298C396.717 74.5152 396.867 74.7362 396.97 74.98C397.309 75.8007 397.583 76.6466 397.79 77.51L402.03 93.51L406.27 77.51C406.477 76.6466 406.751 75.8007 407.09 74.98C407.194 74.7352 407.346 74.5136 407.536 74.3282C407.727 74.1428 407.952 73.9972 408.2 73.9C408.977 73.6649 409.789 73.5668 410.6 73.61H412.43C413.372 73.5621 414.307 73.7916 415.12 74.27C415.487 74.5838 415.77 74.9838 415.945 75.434C416.12 75.8843 416.18 76.3708 416.12 76.85V99.96C416.185 100.859 415.923 101.751 415.38 102.47C415.126 102.744 414.816 102.961 414.471 103.104C414.126 103.247 413.754 103.314 413.38 103.3C413.018 103.309 412.657 103.239 412.324 103.096C411.991 102.952 411.693 102.739 411.45 102.47C410.9 101.754 410.633 100.86 410.7 99.96V79.78L406.01 98.38C405.71 99.59 405.46 100.48 405.27 101.04C405.051 101.639 404.683 102.173 404.2 102.59C403.595 103.08 402.828 103.326 402.05 103.28C401.471 103.307 400.897 103.172 400.39 102.891C399.883 102.61 399.464 102.195 399.18 101.69C398.909 101.205 398.701 100.687 398.56 100.15C398.39 99.6 398.24 99.01 398.08 98.4Z" fill="black" stroke="white" stroke-width="0.5" stroke-miterlimit="10"/>
<path id="Vector_15" d="M422.44 99.7V76.7C422.367 75.734 422.656 74.7754 423.25 74.01C423.519 73.718 423.847 73.4873 424.213 73.3337C424.579 73.1802 424.973 73.1072 425.37 73.12C425.772 73.1054 426.172 73.1763 426.545 73.328C426.917 73.4797 427.253 73.7088 427.53 74C428.136 74.7633 428.429 75.7286 428.35 76.7V99.7C428.427 100.674 428.134 101.642 427.53 102.41C427.253 102.703 426.918 102.933 426.545 103.086C426.173 103.24 425.772 103.313 425.37 103.3C424.974 103.312 424.58 103.238 424.216 103.082C423.852 102.927 423.525 102.694 423.26 102.4C422.66 101.633 422.368 100.671 422.44 99.7V99.7Z" fill="black" stroke="white" stroke-width="0.5" stroke-miterlimit="10"/>
<path id="Vector_16" d="M459.87 93.58C459.842 94.6148 459.611 95.634 459.19 96.58C458.655 97.7679 457.914 98.8514 457 99.78C455.932 100.877 454.648 101.742 453.23 102.32C451.536 103.01 449.719 103.35 447.89 103.32C446.478 103.337 445.068 103.189 443.69 102.88C442.479 102.612 441.317 102.153 440.25 101.52C439.18 100.866 438.224 100.042 437.42 99.08C436.624 98.1432 435.952 97.108 435.42 96C434.869 94.8432 434.46 93.6245 434.2 92.37C433.922 91.0178 433.784 89.6405 433.79 88.26C433.744 86.1139 434.083 83.9769 434.79 81.95C435.421 80.172 436.419 78.5467 437.72 77.18C438.987 75.8733 440.518 74.8507 442.21 74.18C443.951 73.4959 445.809 73.1563 447.68 73.18C449.869 73.1398 452.036 73.6232 454 74.59C455.678 75.3933 457.133 76.5949 458.24 78.09C459.126 79.2156 459.64 80.5892 459.71 82.02C459.714 82.6861 459.46 83.3279 459 83.81C458.783 84.0579 458.516 84.256 458.215 84.3906C457.915 84.5253 457.589 84.5933 457.26 84.59C456.645 84.6361 456.036 84.4426 455.56 84.05C455.047 83.5025 454.621 82.8783 454.3 82.2C453.665 80.9156 452.732 79.8014 451.58 78.95C450.458 78.1837 449.129 77.7757 447.77 77.78C446.652 77.7448 445.542 77.978 444.533 78.4599C443.524 78.9419 442.645 79.6586 441.97 80.55C440.53 82.39 439.81 85.02 439.81 88.41C439.748 90.3443 440.071 92.2716 440.76 94.08C441.294 95.4585 442.241 96.6387 443.47 97.46C444.701 98.2168 446.125 98.6022 447.57 98.57C449.097 98.6227 450.602 98.1923 451.87 97.34C453.112 96.3975 454.04 95.1005 454.53 93.62C454.733 92.946 455.048 92.3107 455.46 91.74C455.68 91.4858 455.956 91.2871 456.267 91.1602C456.579 91.0334 456.915 90.9819 457.25 91.01C457.587 91.0057 457.922 91.069 458.235 91.1961C458.547 91.3232 458.831 91.5115 459.07 91.75C459.324 91.9821 459.526 92.2649 459.664 92.5802C459.802 92.8954 459.872 93.236 459.87 93.58V93.58Z" fill="black" stroke="white" stroke-width="0.5" stroke-miterlimit="10"/>
<path id="Vector_17" d="M487.35 94.04C487.371 95.7191 486.898 97.3674 485.99 98.78C485.008 100.25 483.618 101.401 481.99 102.09C480.021 102.925 477.898 103.33 475.76 103.28C473.281 103.378 470.82 102.816 468.63 101.65C467.312 100.88 466.201 99.8029 465.39 98.51C464.619 97.3856 464.188 96.0628 464.15 94.7C464.143 94.3639 464.202 94.0298 464.326 93.7172C464.45 93.4047 464.635 93.12 464.87 92.88C465.117 92.6259 465.415 92.4262 465.744 92.2936C466.073 92.161 466.426 92.0985 466.78 92.11C467.365 92.096 467.932 92.3114 468.36 92.71C468.855 93.2098 469.231 93.8148 469.46 94.48C469.787 95.2883 470.199 96.0593 470.69 96.78C471.16 97.4359 471.785 97.965 472.51 98.32C473.476 98.7675 474.536 98.9766 475.6 98.93C477.11 99.0181 478.608 98.6147 479.87 97.78C480.374 97.4443 480.787 96.9893 481.074 96.4555C481.36 95.9218 481.51 95.3256 481.51 94.72C481.529 94.2877 481.462 93.8559 481.31 93.4504C481.159 93.0449 480.928 92.674 480.63 92.36C479.988 91.7216 479.203 91.2452 478.34 90.97C477.4 90.66 476.15 90.32 474.58 89.97C472.771 89.5718 471.006 88.9956 469.31 88.25C467.98 87.6526 466.824 86.727 465.95 85.56C465.086 84.3188 464.648 82.8312 464.7 81.32C464.678 79.7899 465.14 78.2919 466.02 77.04C466.975 75.7261 468.297 74.724 469.82 74.16C471.691 73.4541 473.681 73.1146 475.68 73.16C477.255 73.1285 478.826 73.3514 480.33 73.82C481.519 74.2032 482.625 74.8071 483.59 75.6C484.372 76.2361 485.015 77.0257 485.48 77.92C485.861 78.6528 486.066 79.4642 486.08 80.29C486.079 80.9954 485.811 81.6742 485.33 82.19C485.102 82.4599 484.817 82.6761 484.495 82.823C484.174 82.97 483.824 83.044 483.47 83.04C482.906 83.0803 482.35 82.8971 481.92 82.53C481.453 82.0083 481.068 81.4181 480.78 80.78C480.334 79.8053 479.683 78.9388 478.87 78.24C477.814 77.5313 476.548 77.2033 475.28 77.31C473.975 77.2449 472.683 77.595 471.59 78.31C471.163 78.5667 470.81 78.9285 470.563 79.361C470.316 79.7935 470.184 80.282 470.18 80.78C470.168 81.3226 470.337 81.8537 470.66 82.29C471.017 82.7419 471.463 83.1161 471.97 83.39C472.511 83.685 473.08 83.9229 473.67 84.1C474.24 84.28 475.18 84.53 476.5 84.86C478.011 85.2065 479.503 85.6303 480.97 86.13C482.178 86.5333 483.323 87.1057 484.37 87.83C485.298 88.4756 486.05 89.3415 486.56 90.35C487.114 91.4994 487.385 92.7646 487.35 94.04V94.04Z" fill="black" stroke="white" stroke-width="0.5" stroke-miterlimit="10"/>
</g>
<path id="AREA" d="M76.16 356.51C76.16 356.51 176.87 365.02 244.08 297.83C311.29 230.64 302.75 129.91 302.75 129.91" stroke="white" stroke-width="0.5" stroke-miterlimit="10"/>
<g id="Hopporyodo">
<path id="Vector_18" d="M454.47 182.46H456.87L458.08 180.03L461.72 177.91L462.33 175.18L466.27 170.94L467.18 167.6L470.51 167.91L473.24 165.48L478.09 160.33L482.94 156.99H485.06L486.58 156.08L486.28 151.84L485.06 152.14L481.12 155.14L477.79 158.48L473.24 159.39L470.87 156.69V160.33L467.53 163.66L467.23 164.27L464.8 165.18L463.26 168.78L461.44 169.99L460.83 172.41L458.41 173.32L459.32 176.32L456.59 177.53V178.44L455.37 178.74L455.68 179.95L454.77 180.56L455.07 182.98L454.47 182.46Z" fill="#BDBEBE" stroke="white" stroke-width="0.5" stroke-miterlimit="10"/>
<path id="Vector_19" d="M431.43 201.25L433.24 202.77H434.15V199.43L435.06 197.92L437.19 196.71L438.7 193.98L439.31 192.16L441.73 190.34L442.34 188.22L445.07 187.31L447.19 185.79L449.31 184.58L449.92 182.76L447.19 183.67L442.34 182.15L439 187.91V189.13L437.49 190.04L436.88 193.04L435.06 194.55L434.76 195.46L431.42 199.4V201.22L431.43 201.25Z" fill="#BDBEBE" stroke="white" stroke-width="0.5" stroke-miterlimit="10"/>
<path id="Vector_20" d="M452.34 200.04L453.56 200.95L457.5 198.22L455.98 196.71L453.86 197.31L452.34 198.83V200.04Z" fill="#BDBEBE" stroke="white" stroke-width="0.5" stroke-miterlimit="10"/>
<path id="Vector_21" d="M444.16 207.32H445.37V205.78H444.16V207.32Z" fill="#BDBEBE" stroke="white" stroke-width="0.5" stroke-miterlimit="10"/>
</g>
<g id="Hokkaido">
<path id="Vector_22" d="M355.03 172.15H357.15L356.85 170.33L355.64 169.12L353.82 170.03V170.94L355.03 172.15Z" fill="#BDBEBE" stroke="white" stroke-width="0.5" stroke-miterlimit="10"/>
<path id="Vector_23" d="M351.39 167.6L352.3 166.39V164.57L350.79 164.87L351.39 167.6Z" fill="#BDBEBE" stroke="white" stroke-width="0.5" stroke-miterlimit="10"/>
<path id="Vector_24" d="M328.05 245.21L327.44 248.21L326.54 249.73L325.32 248.21L325.93 246.39L328.05 245.21Z" fill="#BDBEBE" stroke="white" stroke-width="0.5" stroke-miterlimit="10"/>
<path id="a" d="M339.87 264.61L341.09 264.31V263.4L342.87 261.88L344.68 261.28L344.38 258.55L347.38 256.12L348.59 254.3L350.11 255.21L355.26 257.03L357.99 254.61L356.48 252.49L353.48 251.58L349.87 247.33L348.35 247.03L346.53 247.94L343.8 244.94L342.59 244.63L341.39 242.78V241.87L342.3 240.97L343.51 237.33L344.72 236.12L346.87 235.78L348.68 236.09L350.2 237.3L352.32 239.72L353.53 241.84H355.05L356.26 240.03L361.72 236.39L369 234.27L386.87 244.6L395.66 249.45L396.87 245.78V240.62L398.08 236.98L399.59 235.77L401.41 232.44L409.9 223.95L412.02 222.43L415.36 222.74L416.27 223.34L420.82 223.04L421.12 220.61L422.03 220.31L422.94 221.22L425.36 221.83L427.79 219.1L428.39 217.28L433.87 215.78L435.08 214.27L438.42 211.54V210.33L436.87 209.78L434.45 212.78L430.2 213.99L429.6 212.18L430.81 211.87L428.69 206.72L430.2 207.33V205.78L427.47 205.48L425.96 203.35L425.66 200.35L426.87 194.28L428.99 192.76V188.22L427.78 187.91L424.15 192.78L422.03 195.21L419.03 198.85L415.08 199.15L412.36 198.24L409.63 194.6L408.72 196.42L407.2 194.3L402.35 195.51L400.53 194.3V192.78L396.59 191.27L389.29 185.78L384.13 180.93L380.19 175.78L375.34 169.41L371.1 166.08L367.46 162.44H366.55V163.95L362.91 164.26L362 165.77L362.31 168.77L361.4 169.68L361.7 172.41L365.03 177.57L366.25 181.51V186.36L365.64 190.3L363.87 192.78L365.08 196.42L364.78 198.85L364.17 200.67L363.57 203.09L360.23 205.52L359.63 207.03L359.93 210.03L361.75 215.79L360.84 218.52L357.2 221.52L354.78 221.22L353.21 219.78L350.79 220.39L347.79 219.18L346.28 217.36L343.28 217.06L341.76 217.97L342.06 220.09L344.79 224.63V226.45L342.67 228.27L342.06 229.18L341.16 231.91L339.34 230.7L337.45 232.78L333.81 234.3L333.2 236.11L333.51 240.36L331.69 242.78L333.81 246.12L336.54 247.94L338.66 251.57V254.3L336.54 260.06L337.45 264L339.87 264.61Z" fill="#BDBEBE" stroke="white" stroke-width="0.5" stroke-miterlimit="10"/>
</g>
<g id="Miyagi">
<path id="Vector_25" d="M344.72 348.58L348.36 349.19L348.97 350.1L352.3 350.4L353.52 352.83L356.24 350.71H357.46L357.15 346.16L359.28 342.52V339.52L362.61 338.61L363.22 337.4H365.04L367.76 340.4L368.37 339.79V337.07H367.16L368.07 334.64L367.16 334.03L367.46 332.52L367.16 329.79L368.37 329.18L368.67 327.36L368.98 325.55L370.19 326.15L369.58 323.15L367.46 322.24L364.73 327.7L363.82 327.09L360.82 328.3L359.87 326.78L352.87 323.78L351.66 324.08L351.35 324.99L348.93 326.2V327.11L350.44 329.84L350.14 332.26L348.93 331.96L348.32 333.17V334.08L349.23 334.69V336.51L349.53 338.02L348.36 339.78L347.76 341.91V343.78L346.54 344.39L346.24 345.91L344.42 346.82L344.72 348.58Z" fill="#BDBEBE" stroke="white" stroke-width="0.5" stroke-miterlimit="10"/>
</g>
<g id="Akita">
<path id="Vector_26" d="M336.24 288.56L340.48 287.95H342L343.51 287.35L348.97 288.56L351.09 287.05L355.03 287.95V291.59L353.21 292.78V295.21L352.61 296.12L353.21 298.54L353.52 302.18L352.61 304.3V307.3L351.4 310.93L349.58 312.15L350.18 314.87L352.61 317.6L352.91 318.82L352 319.73L352.61 321.54L352.87 323.78L351.36 324.08L351.05 324.99L348.93 326.2L346.24 323.78L342 322.56L338.06 320.44H336.24L338.97 314.38L339.27 307.1L338.06 304.98V302.56H333.51L332.6 301.65L332.3 299.52H333.51L334.72 300.43L336.24 299.22V298.01L337.75 295.89V293.16L338.36 291.64L336.24 288.56Z" fill="#BDBEBE" stroke="white" stroke-width="0.5" stroke-miterlimit="10"/>
</g>
<g id="Yamagata">
<path id="Vector_27" d="M335.93 320.09L338.06 320.39L342 322.51L346.24 323.73L348.67 325.85L348.97 327.06L350.48 329.49L349.88 332.21L348.97 331.91L348.36 333.12V334.03L349.27 334.64L349.58 337.97L347.45 341.61L347.76 343.73L346.54 344.34L345.94 345.86L344.12 346.77V347.98L344.72 348.89L343.51 349.8L344.12 353.13L342.87 353.78L334.07 352.26L331.95 350.75L333.47 346.2L332.56 345.59L333.77 343.47H334.98L336.5 341.96V340.74L334.38 338.92H333.17L332.86 336.2L330.74 334.38L333.74 330.44L336.17 322.55L335.93 320.09Z" fill="#BDBEBE" stroke="white" stroke-width="0.5" stroke-miterlimit="10"/>
</g>
<g id="Fukushima">
<path id="Vector_28" d="M334.42 352.22L342.87 353.78L344.08 353.17L343.47 349.84L344.68 348.62L348.32 349.23L348.93 350.14L352.26 350.44L353.48 352.87L356.2 350.75H357.42L359.24 355.29V359.54L359.54 364.39L360.15 366.51L359.54 367.72L358.93 368.94V372.27L355.93 375.91L352.6 375L351.69 374.09L348.69 376.82L346.56 375H345.35L344.14 371.67L341.41 369.54L339.89 369.24H336.89L331.74 372.24L330.53 373.15L327.53 374.67H326.31L325.4 374.06L326.01 373.15V370.73L324.49 368L323.89 366.78L324.19 365.88L324.49 364.66L323.89 363.75L324.19 362.24L329.34 360.12L331.16 359.21L330.56 358.3V357.08L332.07 356.48L332.98 354.05L334.42 352.22Z" fill="#BDBEBE" stroke="white" stroke-width="0.5" stroke-miterlimit="10"/>
</g>
<g id="Ibaraki">
<path id="Vector_29" d="M338.66 398.3L339.87 399.51L343.51 399.82L344.12 401.03H347.45L349.27 399.51H352L353.21 400.12L355.64 402.55H357.15L352.61 394.66L352.3 393.45L351.39 392.54L351.7 389.21L352.91 387.99V387.09L352.3 385.87L353.21 384.05L355.03 378.6L355.94 375.87L352.3 374.96L351.7 374.05L348.7 376.78L346.57 374.96H345.36L344.75 376.17V379.78L344.45 380.69L345.06 384.63L343.24 387.36H342.33L336.57 390.36H335.36L332.36 390.66L333.26 391.57L334.17 392.18L334.48 394.91L337.48 396.42L338.66 398.3Z" fill="#BDBEBE" stroke="white" stroke-width="0.5" stroke-miterlimit="10"/>
</g>
<g id="Tochigi">
<path id="Vector_30" d="M325.93 374.35H327.45L330.78 373.14L331.99 371.93L336.84 368.93L339.84 369.23L341.36 369.53L344.09 371.66L345.3 374.66L344.7 376.17L345 379.81L344.7 384.66L342.87 387.09L341.96 387.39L336.2 390.39H332.26L329.53 390.09L328.31 387.36V385.24L329.22 382.24H327.1L327.41 381.02V380.11L326.87 376.78L325.93 374.35Z" fill="#BDBEBE" stroke="white" stroke-width="0.5" stroke-miterlimit="10"/>
</g>
<g id="Gumma">
<path id="Vector_31" d="M325.93 374.35L325.02 373.75L322.59 373.14H321.08L319.87 375.87L318.35 377.69H317.14L316.53 378.29L315.62 380.72L314.11 381.02L312.59 380.72L309.59 383.45V387.09H311.41L313.53 388L312.92 390.72L313.23 394.06L313.53 396.18L314.14 397.7L315.65 398.3L317.77 395.88L320.5 394.97L321.72 394.06L322.02 392.24L323.84 391.33H325.96L328.38 392.54L331.72 392.85H333.24V391.63L332.33 390.42L329.6 390.12L328.38 387.12V384.99L328.99 382.27H327.17L327.48 380.45L326.87 376.78L325.93 374.35Z" fill="#BDBEBE" stroke="white" stroke-width="0.5" stroke-miterlimit="10"/>
</g>
<g id="Saitama">
<path id="Vector_32" d="M315.32 398L317.44 395.88L320.17 394.97L321.69 393.75V391.94L323.5 391.03L325.93 391.33L328.35 392.54L332.9 392.85L333.21 391.63L334.11 392.24L334.42 394.97L337.15 396.48L338.36 398.3L338.66 402.55H335.33L333.21 403.15H330.48L327.14 402.85L321.69 401.03L320.47 401.64L317.14 401.33L315.93 400.12L315.32 398Z" fill="#BDBEBE" stroke="white" stroke-width="0.5" stroke-miterlimit="10"/>
</g>
<g id="Chiba">
<path id="Vector_33" d="M338.96 406.49L338.66 402.55L338.36 398.3L339.57 399.51L343.51 399.82L343.82 401.03L347.45 400.73L349.27 399.51H352L352.91 399.82L355.64 402.55H356.87L357.78 404.37L354.45 404.67L351.11 407.09L350.2 410.73L349.9 414.98L348.69 417.4L347.78 418.92L343.23 419.83L340.8 422.25L340.5 423.16L339.29 424.07L338.08 424.37V421.95L338.68 419.52L338.08 417.4L338.68 415.58L337.77 415.28V414.07L343.23 407.7V406.78L341.41 405.27L338.96 406.49Z" fill="#BDBEBE" stroke="white" stroke-width="0.5" stroke-miterlimit="10"/>
</g>
<g id="Tokyo">
<path id="Vector_34" d="M320.47 401.33L321.69 400.73L327.14 402.55L330.14 403.15H333.14L334.96 402.55H338.3L338.9 406.49L335.57 406.79L333.14 407.4H328.6L324.35 406.79L324.05 405.88L323.14 404.97L320.71 402.85L320.47 401.33Z" fill="#BDBEBE" stroke="white" stroke-width="0.5" stroke-miterlimit="10"/>
<path id="Vector_35" d="M329.26 429.53H331.39V428.62L329.26 427.1V429.53Z" fill="#BDBEBE" stroke="white" stroke-width="0.5" stroke-miterlimit="10"/>
<path id="Vector_36" d="M326.54 432.26V433.47L326.84 432.26H326.54Z" fill="#BDBEBE" stroke="white" stroke-width="0.5" stroke-miterlimit="10"/>
<path id="Vector_37" d="M328.05 434.07L328.96 433.47L327.75 434.07H328.05Z" fill="#BDBEBE" stroke="white" stroke-width="0.5" stroke-miterlimit="10"/>
</g>
<g id="Kanagawa">
<path id="Vector_38" d="M324.11 406.49L328.96 407.4H333.2L335.33 406.49H338.96L337.45 407.09L336.54 408V409.52L334.72 411.03L334.42 414.37L336.24 415.28L335.93 417.1L334.11 418.31V416.19L333.2 414.67L328.96 414.07L327.14 415.28L325.63 415.88V417.4L324.41 418.92L321.08 417.4L321.38 416.19V413.46L320.17 412.55V411.34L322.29 410.12L323.81 409.22L324.11 408.31V406.49V406.49Z" fill="#BDBEBE" stroke="white" stroke-width="0.5" stroke-miterlimit="10"/>
</g>
<g id="Nigata">
<path id="Vector_39" d="M316.23 378.29L317.14 377.69H318.35L319.87 375.87L321.08 373.14H322.59L325.32 373.75L325.93 372.84L325.63 370.41L323.81 366.78L324.41 364.66L323.5 363.75L324.11 361.93L329.26 360.12L331.08 359.21L330.17 358.3V357.08L331.99 356.17L332.87 353.78L334.39 352.57L331.96 350.75L333.48 346.2L332.57 345.59L333.78 343.47H334.69L336.21 341.96V340.74L334.39 338.92H333.17L332.87 335.92L330.75 334.41L330.14 335.92L328.02 340.17V345.93L318.32 352.93L316.87 354.35L315.66 359.5L312.66 362.23L311.45 364.96L306.6 369.2H304.17L300.23 371.63L298.11 373.44L295.38 374.66L296.29 377.99L298.11 376.48L298.72 375.26H301.14L302.35 377.38L306.6 376.17L308.11 374.35L309.63 372.84H311.45L313.57 375.57L316.23 378.29Z" fill="#BDBEBE" stroke="white" stroke-width="0.5" stroke-miterlimit="10"/>
<path id="Vector_40" d="M305.31 353.78L308.31 353.48L311.31 350.48L311.61 347.48L309.79 348.09V345.36L310.4 343.84L310.09 341.42L306.46 345.06L305.55 348.69L307.37 349.91V351.12L305.31 353.78Z" fill="#BDBEBE" stroke="white" stroke-width="0.5" stroke-miterlimit="10"/>
</g>
<g id="Toyama">
<path id="Vector_41" d="M295.01 374.35L295.92 377.99L296.22 379.2V381.63L294.1 385.27V386.48L293.19 388.3L288.34 387.09L283.79 387.39L282.27 389.21L280.76 391.33L279.87 389.78H277.75L277.44 386.78L278.05 385.57L278.35 378.9L279.26 376.78L280.48 375.87L280.78 374.66H282.87V378.29L283.78 379.81L287.72 380.11L288.93 379.51L290.75 375.87L292.57 374.35H295.01Z" fill="#BDBEBE" stroke="white" stroke-width="0.5" stroke-miterlimit="10"/>
</g>
<g id="Ishikawa">
<path id="Vector_42" d="M282.87 374.66H280.75L280.45 375.87L279.23 376.78L278.32 378.9L278.02 385.9L277.41 386.81L277.72 389.81L277.41 391.63L277.72 393.15L276.81 393.75L276.51 395.57L274.38 396.48L273.78 394.66L272.26 394.06H269.53L268.02 392.54L266.8 391.94L271.35 388.3L274.99 381.63L276.5 380.11L277.72 375.87L276.81 374.66L277.11 371.66L275.87 369.2L276.47 367.68L276.78 365.56L279.78 364.05H281.6L287.66 360.71L288.87 362.53L287.06 364.35L286.75 366.17L285.24 367.08L284.33 366.77L282.2 369.2L280.39 368.59L279.78 371.02L281.3 372.53L282.51 372.23L282.87 374.66Z" fill="#BDBEBE" stroke="white" stroke-width="0.5" stroke-miterlimit="10"/>
</g>
<g id="Fukui">
<path id="Vector_43" d="M266.81 391.94L268.03 392.54L269.24 394.06H271.97L273.48 394.66L274.39 396.79L277.39 401.64L277.09 403.76L272.85 404.36H269.21L267.12 406.78L266.21 407.08L265.6 407.99L264.39 408.9L259.24 411.02L258.63 414.02L257.72 414.62L256.51 413.71L252.26 412.8L251.66 411.29L251.05 408.56L252.26 408.86L253.17 409.16L253.48 410.38H254.69V409.78H255.6V410.99L257.11 410.69V409.17L258.02 409.48L258.93 408.87V407.66L260.45 407.36L261.96 406.45V404.93H263.18L264.39 406.14L264.09 403.14L261.96 398.59V397.38L264.96 392.84L266.81 391.94Z" fill="#BDBEBE" stroke="white" stroke-width="0.5" stroke-miterlimit="10"/>
</g>
<g id="Yamanashi">
<path id="Vector_44" d="M315.62 400.12L316.83 401.33H320.47L320.78 402.85L324.11 405.58V408.31L323.81 409.22L319.87 411.34V412.25H318.35L316.23 412.85H314.11L312.89 411.94H311.38V416.78L310.16 418L308.65 416.18L308.35 414.66H306.53V412.24L306.22 410.42V407.99L305.31 407.08V402.23L308.65 399.5L309.86 400.11L312.59 400.72L315.62 400.12Z" fill="#BDBEBE" stroke="white" stroke-width="0.5" stroke-miterlimit="10"/>
</g>
<g id="Nagano">
<path id="Vector_45" d="M295.92 377.69L298.04 376.48L298.34 375.26H301.07L301.98 377.38L306.53 376.17L309.53 372.84H311.35L313.47 375.84L316.2 378.26L315.59 380.69L313.77 380.99L312.56 380.69L309.23 383.69L309.53 386.69H311.04L313.47 387.9L312.86 390.9L313.17 396.05L314.08 397.57L315.29 398.17L315.59 399.69L312.59 400.6L309.86 399.99L308.65 399.38L305.32 402.11V406.96L304.41 407.27L303.5 410.6L303.19 413.33L301.37 415.15L297.43 416.97L292.28 416.36L293.19 412.72L294.1 411.51L293.8 409.69L292.58 408.78V407.57L291.07 405.14L288.95 402.72L288.64 401.51L291.07 399.99L292.58 398.17L293.19 396.66L292.58 393.32L293.8 390.9L293.49 389.38L293.19 387.86L294.1 386.35V385.14L296.22 381.5L295.92 377.69Z" fill="#BDBEBE" stroke="white" stroke-width="0.5" stroke-miterlimit="10"/>
</g>
<g id="Gifu">
<path id="Vector_46" d="M267.12 406.78L269.24 404.66L272.57 404.36L276.87 403.78L277.47 401.35L274.14 396.5L276.56 395.29V393.78L277.78 393.18L277.47 391.66V389.78H279.87L280.78 391.3L282.29 388.87L283.51 387.36L288.36 387.06L293.21 388.27L293.82 391L292.28 393.78L292.88 396.78L292.58 398.29L290.76 400.41L288.64 401.63L288.94 402.54L291.07 405.26L292.58 407.39V408.9L293.8 410.12L294.1 411.63L293.19 412.84L292.28 416.48H288.64L284.4 415.27L281.06 413.45L276.82 414.06L274.7 417.06V418.27H273.79L272.57 417.06L270.76 416.76L270.15 412.21L267.12 406.78Z" fill="#BDBEBE" stroke="white" stroke-width="0.5" stroke-miterlimit="10"/>
</g>
<g id="Shizuoka">
<path id="Vector_47" d="M297.43 417.1L301.07 414.98L303.19 413.46L303.5 410.73L304.71 407.4L305.31 407.09L305.92 408L306.22 410.43L306.53 412.55V414.67H308.04L308.35 416.19L310.17 418.01L311.38 416.79V411.94H312.87L314.09 412.85H316.21L318.03 412.25H319.87L321.08 413.46V417.1L324.08 418.92L323.78 422.55L324.69 424.37L321.69 429.22V431.04H320.17L319.26 432.25H318.35L317.74 429.25L317.44 421.98L319.26 421.67L317.14 419.25L314.14 419.55L312.32 421.37L312.01 423.49L309.01 424.71L307.8 428.65L306.59 429.56L305.98 432.28L302.98 431.07L299.98 431.38L298.46 432.28L294.82 431.07H291.37V427.13L293.8 425.31L297.74 419.25L297.43 417.1Z" fill="#BDBEBE" stroke="white" stroke-width="0.5" stroke-miterlimit="10"/>
</g>
<g id="Aichi">
<path id="Vector_48" d="M274.09 418.31L274.7 418.01V417.1L276.82 414.1L281.06 413.49L284.4 415.31L288.64 416.52H292.28L297.43 417.13L297.74 419.55L293.79 425.62L291.37 427.13V431.07H288.94L284.7 432.89H283.18V431.98L287.73 429.25L287.43 428.04L282.88 428.34L281.97 427.74L281.67 425.92L280.76 428.04L281.36 430.16L279.24 429.25V427.43L278.33 425.92V424.4L280.15 422.28L278.94 421.37L276.51 422.28L274.09 418.31Z" fill="#BDBEBE" stroke="white" stroke-width="0.5" stroke-miterlimit="10"/>
</g>
<g id="Mie">
<path id="Vector_49" d="M270.76 416.49L272.57 417.1L273.48 418.31H274.39L276.21 421.95L275.3 423.46L274.7 427.1L272.87 428.62L272.56 431.62L275.56 434.04L277.98 435.56L280.41 437.08L280.1 440.41L277.98 441.02L278.59 439.8H275.59L270.73 442.23H268.92L268.31 442.84V444.35L266.79 444.96L267.1 448.29L263.78 450.78L262.27 455.02L258.93 452.29L259.24 450.17L261.05 448.96V447.14L263.48 445.32V441.38L263.78 439.56L262.87 438.65V436.78L265.6 436.48L266.51 435.87L265.6 433.75L264.09 433.45L262.87 431.95V429.83L261.96 429.22L262.57 427.71L264.09 425.89H266.81L268.33 424.68L269.24 422.86L270.15 422.25V419.25L270.76 416.49Z" fill="#BDBEBE" stroke="white" stroke-width="0.5" stroke-miterlimit="10"/>
</g>
<g id="Shiga">
<path id="Vector_50" d="M257.72 414.67L258.63 414.07L258.93 411.07L264.39 408.94L265.6 408.03L266.21 407.12H267.12L270.12 412.58L270.73 416.83L270.12 419.25V422.58L269.21 422.89L268.3 424.71L266.78 425.92H264.06L262.24 428.04L260.11 425.92L258.3 421.37L257.72 414.67Z" fill="#BDBEBE" stroke="white" stroke-width="0.5" stroke-miterlimit="10"/>
</g>
<g id="Kyoto">
<path id="Vector_51" d="M250.75 408.61L252.26 412.85L256.51 413.76L257.72 414.67L258.33 421.67L260.14 425.92L262.27 428.04L261.96 428.95L258.02 429.56L256.81 428.65L256.51 426.83L256.2 424.1L254.38 423.8V422.58L252.57 421.07L247.41 418.95L244.99 415.61L242.56 415.31L241.05 414.09V413.19H242.56L242.87 412.28V409.78L240.44 408.57L239.87 406.78L242.3 406.48L244.12 404.66H248.06L246.85 408.9L248.36 409.51L248.97 411.02L250.18 410.72L250.75 408.61Z" fill="#BDBEBE" stroke="white" stroke-width="0.5" stroke-miterlimit="10"/>
</g>
<g id="Osaka">
<path id="Vector_52" d="M254.38 423.78L256.2 424.08L256.51 428.63L258.02 429.54L254.69 433.48L254.38 437.42L246.81 439.54H243.81L247.45 437.72L250.18 435.3L251.39 431.96L250.18 429.23L250.79 425.29L248.97 423.47V422.26H250.18L252.3 424.38L254.38 423.78Z" fill="#BDBEBE" stroke="white" stroke-width="0.5" stroke-miterlimit="10"/>
</g>
<g id="Hyogo">
<path id="Vector_53" d="M239.87 406.49L240.48 408.91L242.87 409.78V412.21L242.26 413.12H241.05V414.03L242.56 415.24L244.99 415.54L247.41 418.88L252.57 421L254.38 422.51V423.78L252.26 424.38L249.87 422.25H248.96V423.46L250.78 425.28L250.17 429.22L247.44 429.83L245.32 431.65H243.17L235.29 427.4L230.43 428.92L227.71 429.22L228.01 426.8L226.8 424.98L227.71 420.13L230.13 418.31L229.83 417.1L232.25 415.28L232.56 413.16L231.34 409.78L229.53 407.66L232.53 406.75L239.87 406.49Z" fill="#BDBEBE" stroke="white" stroke-width="0.5" stroke-miterlimit="10"/>
<path id="Vector_54" d="M234.98 439.53L237.11 437.71V436.2L241.35 432.86L241.96 434.07L240.44 435.59L240.74 440.74L238.01 442.26L234.98 439.53Z" fill="#BDBEBE" stroke="white" stroke-width="0.5" stroke-miterlimit="10"/>
</g>
<g id="Nara">
<path id="Vector_55" d="M254.38 437.41L254.69 433.16L258.02 429.53L261.66 428.92L262.87 429.83V431.95L264.09 433.47L265.6 433.77L266.51 435.89L265.6 436.5L262.87 436.78V438.6L263.78 439.81L263.48 441.33V445.27L260.75 446.78V448.9L259.24 450.11H253.17L252.87 446.47V444.38L255.6 441.65L254.99 439.53V437.71L254.38 437.41Z" fill="#BDBEBE" stroke="white" stroke-width="0.5" stroke-miterlimit="10"/>
</g>
<g id="Wakayama">
<path id="Vector_56" d="M243.77 439.53H247.11L254.39 437.41L254.99 437.71V439.53L255.29 441.65L252.57 444.65L252.87 446.47L253.17 450.11H258.93V452.23L261.93 454.96L261.02 457.39L257.42 460.78L255.9 461.09L252.9 459.27L250.17 458.05L248.96 454.72L247.75 452.6L244.11 450.17L243.8 447.75L244.71 447.14L244.41 445.93L243.5 445.32L243.8 443.8V439.56L243.77 439.53Z" fill="#BDBEBE" stroke="white" stroke-width="0.5" stroke-miterlimit="10"/>
</g>
<g id="Tottori">
<path id="Vector_57" d="M229.22 407.7L231.35 409.82L232.56 413.16L232.25 415.58L229.87 417.1H228.35L226.23 417.4L224.11 414.98L221.99 414.37L220.47 415.28H217.47L216.56 414.07H215.05L208.05 420.74L205.63 419.22L205.93 415.89L208.36 414.37V410.12L210.78 410.43L213.78 408.91L219.54 409.82L229.22 407.7Z" fill="#BDBEBE" stroke="white" stroke-width="0.5" stroke-miterlimit="10"/>
</g>
<g id="Shimane">
<path id="Vector_58" d="M208.31 410.12V414.37L205.87 415.89L205.57 419.22L200.11 418.61L197.69 419.52L197.08 420.43V421.34L195.56 423.46L193.14 424.98L190.14 425.28L188.32 425.89L187.11 425.59L184.98 427.1L183.47 431.65L182.86 434.07L182.25 436.8H180.44L177.1 438.02L177.71 435.29V433.47L176.8 431.95L175.28 430.44V428.31L178.01 428.01L187.1 420.13L189.83 418.61L191.96 415.61L195.29 414.1L196.81 412.58L195.9 410.46L204.39 407.46L207.72 408.06L208.31 410.12Z" fill="#BDBEBE" stroke="white" stroke-width="0.5" stroke-miterlimit="10"/>
</g>
<g id="Okayama">
<path id="Vector_59" d="M207.7 420.78L214.7 414.11H216.52L217.43 415.02L220.43 415.32L221.64 414.41L223.77 415.02L225.89 417.44L228.31 416.83L229.83 417.14V418.35L227.4 419.87L226.8 425.02L228.01 427.14L227.71 429.26L225.59 430.48L224.68 431.99H221.34L220.73 432.6H223.16L220.43 435.33H218.61L215.87 433.78L212.24 434.99L211.93 434.08H211.02L209.87 432.26L207.7 420.78Z" fill="#BDBEBE" stroke="white" stroke-width="0.5" stroke-miterlimit="10"/>
</g>
<g id="Hiroshima">
<path id="Vector_60" d="M182.23 436.78L183.14 433.78L183.45 431.36L184.66 427.11L187.08 425.6L188.3 425.9L190.12 424.99H193.12L195.54 423.47L197.06 421.35V420.14L200.06 418.62L205.52 419.23L207.94 420.75L209.87 432.56L211.08 434.07L208.66 437.71L207.45 436.2L205.87 437.41V438.92L203.14 439.23L204.66 437.11L203.75 436.5L201.93 437.71H198.93L195.59 440.14L192.86 440.44L192.26 438.32L191.02 436.78L188.9 437.09L186.48 440.09L183.75 437.36L182.23 436.78Z" fill="#BDBEBE" stroke="white" stroke-width="0.5" stroke-miterlimit="10"/>
<path id="Vector_61" d="M201.33 441.05H202.87V440.14L202.57 438.92L201.33 441.05Z" fill="#BDBEBE" stroke="white" stroke-width="0.5" stroke-miterlimit="10"/>
<path id="Vector_62" d="M191.33 442.87L193.15 443.77L192.84 442.56V441.05H191.94L191.33 442.87Z" fill="#BDBEBE" stroke="white" stroke-width="0.5" stroke-miterlimit="10"/>
</g>
<g id="Yamaguchi">
<path id="Vector_63" d="M175.26 428.31L174.96 430.44L176.78 431.95L177.69 433.77V435.29L176.78 437.71L180.42 436.8H182.23L184.05 437.41L186.48 440.14L185.87 441.35V442.87L186.18 444.99L184.36 446.5L184.05 449.5L182.84 450.41V447.41L179.84 446.5L178.63 445.29L177.11 445.9V443.47L173.17 444.99L172.56 444.38H170.74L170.14 444.99L169.53 443.47L167.71 445.9L165.29 445.6L163.47 442.6L160.47 445.03L158.87 440.44L160.08 439.83L159.78 438.32L159.17 436.8L162.17 433.8L163.68 433.5L165.2 434.71L165.8 433.8L167.02 434.71L169.14 434.41L170.96 432.89L171.56 431.68L174.29 428.68L175.26 428.31Z" fill="#BDBEBE" stroke="white" stroke-width="0.5" stroke-miterlimit="10"/>
<path id="Vector_64" d="M185.87 446.78L185.57 447.99L186.48 448.6L190.12 447.99L190.72 446.78H185.87Z" fill="#BDBEBE" stroke="white" stroke-width="0.5" stroke-miterlimit="10"/>
</g>
<g id="Tokushima">
<path id="Vector_65" d="M214.37 444.38H217.37L218.58 443.77L221.92 444.08L224.65 442.56H226.47L227.68 441.96H230.41L231.32 441.35L233.44 441.05L234.65 442.26L234.35 443.17L233.44 444.38V446.78L235.26 448.29V451.63L232.26 454.05L229.26 455.27L227.75 458.27L224.75 457.05L223.53 454.63L222.32 454.33L222.02 452.2L220.81 450.99L218.38 451.6L217.47 450.69H215.87L214.35 449.17V444.38H214.37Z" fill="#BDBEBE" stroke="white" stroke-width="0.5" stroke-miterlimit="10"/>
</g>
<g id="Kagawa">
<path id="Vector_66" d="M214.37 444.38H217.37L218.58 443.47L221.92 443.77L224.65 442.56H226.47L227.37 441.65L230.37 441.96L230.97 441.35L227.97 439.83L226.76 438.32H225.55L224.94 437.41L223.42 437.11L219.48 438.01L219.18 438.92L217.36 440.14H214.07V441.65L214.67 442.56L214.37 444.38Z" fill="#BDBEBE" stroke="white" stroke-width="0.5" stroke-miterlimit="10"/>
<path id="Vector_67" d="M226.19 435.29L227.71 434.98L228.01 434.07L227.71 433.16H226.5L226.19 435.29Z" fill="#BDBEBE" stroke="white" stroke-width="0.5" stroke-miterlimit="10"/>
</g>
<g id="Ehime">
<path id="Vector_68" d="M214.37 444.38V449.23L211.37 450.44L206.52 450.75L203.18 452.87L201.97 454.99L201.06 457.99L200.15 458.9L197.73 459.21L198.33 460.42L198.03 461.33L197.73 463.15L194.36 466.78L190.42 467.09L188.87 465.6L191.6 464.69V463.48L190.69 462.57H188.57V459.84L187.66 458.93L183.42 461.05L181.6 461.66L184.02 458.93L187.36 458.02L188.87 456.2L193.12 454.39L195.24 452.26L197.06 446.5L199.87 444.68L200.78 443.47L201.99 444.38L203.5 447.38H206.5L210.13 446.47L212.56 446.17L214.37 444.38Z" fill="#BDBEBE" stroke="white" stroke-width="0.5" stroke-miterlimit="10"/>
</g>
<g id="Kochi">
<path id="Vector_69" d="M190.42 467.12L194.66 466.51L197.66 463.18L198.26 460.45L197.66 459.24H200.08L201.29 457.72L201.9 454.72L203.11 453.2L206.45 450.47H211.3L214.3 449.26L215.87 450.78H217.69L218.3 451.69L220.73 451.08L222.24 452.6V454.41L223.45 454.72L224.67 457.14L227.67 458.05L225.85 461.05L224.64 465.3L220.69 460.45L218.57 458.63L217.06 458.02L213.42 458.33L210.42 461.05L206.78 462.27L206.48 465L203.14 468.94V470.15L201.02 469.85L200.72 472.27L199.81 473.18V475.61L201.02 477.73L199.2 475.91H197.68L196.17 476.82L193.44 475.3V474.09L194.35 473.48L194.05 471.67H190.11L189.8 469.85L190.42 467.12Z" fill="#BDBEBE" stroke="white" stroke-width="0.5" stroke-miterlimit="10"/>
</g>
<g id="Fukuoka">
<path id="Vector_70" d="M143.13 455.3L143.43 453.17L144.95 451.96L146.46 452.26L147.67 453.17L148.89 452.87L148.28 450.75L149.8 450.14L150.4 449.23L150.71 447.11L153.71 446.2L154.62 445.29L159.17 446.2L160.68 445.9L162.5 452.9L164.32 453.51V454.72L162.8 455.63L159.16 455.93L157.95 457.14L156.44 459.57V462L157.04 464.12L156.44 465.63H155.53L154.62 464.42H152.87L149.87 466.24L148.05 467.45V465.63L146.46 463.78L147.98 461.36L149.49 460.75L150.1 459.54L148.89 458.63L148.58 457.72L147.07 455.9L143.13 455.3Z" fill="#BDBEBE" stroke="white" stroke-width="0.5" stroke-miterlimit="10"/>
</g>
<g id="Saga">
<path id="Vector_71" d="M143.13 455.3L147.07 455.9L149.19 458.9L150.1 459.21L149.49 460.72L147.98 461.03L146.46 463.78L145.25 463.18H144.04L142.87 464.39L143.78 467.12V468.63L141.06 467.72L140.45 466.82L138.93 466.21L136.81 461.97L135.9 462.27L135.3 461.06V458.93H136.81L137.72 458.02L136.51 456.21L137.42 455.6L138.02 454.69L139.54 454.39L140.45 455.9L143.13 455.3Z" fill="#BDBEBE" stroke="white" stroke-width="0.5" stroke-miterlimit="10"/>
</g>
<g id="Nagasaki">
<path id="Vector_72" d="M136.76 458.93H135.55L135.25 461.36L135.85 462.27L136.76 461.96L138.88 466.21L140.4 466.81L140.7 467.42L144.04 468.63L142.52 471.06H144.95L146.46 471.66V474.39L145.86 475.91L142.86 476.51H141.96V475.3L142.56 472.88L141.05 472.27L138.92 472.88L134.98 477.12L134.38 476.51L134.98 472.27L131.98 468.63L132.59 466.81L133.8 465.3L135.62 467.42V470.15L138.35 470.45L138.65 468.94L137.74 467.12L135.87 465H134.66L133.45 462.27L131.32 461.66L131.93 457.72L135.57 458.33L136.76 458.93Z" fill="#BDBEBE" stroke="white" stroke-width="0.5" stroke-miterlimit="10"/>
<path id="Vector_73" d="M130.7 457.11L131.61 457.72L129.79 461.05H128.27V459.84L130.7 457.11Z" fill="#BDBEBE" stroke="white" stroke-width="0.5" stroke-miterlimit="10"/>
<path id="Vector_74" d="M119.48 466.78L121.6 464.66L122.21 466.18L121.3 467.69L119.79 469.82L120.09 468L119.48 466.78Z" fill="#BDBEBE" stroke="white" stroke-width="0.5" stroke-miterlimit="10"/>
<path id="Vector_75" d="M111.87 470.78H115.21L116.42 473.2L114.3 473.5L113.09 474.11H110.66L111.87 470.78Z" fill="#BDBEBE" stroke="white" stroke-width="0.5" stroke-miterlimit="10"/>
<path id="Vector_76" d="M134.94 446.2V449.2L136.46 448.6V445.87L135.55 445.56L134.94 446.2Z" fill="#BDBEBE" stroke="white" stroke-width="0.5" stroke-miterlimit="10"/>
<path id="Vector_77" d="M126.15 434.38H127.97L128.88 435.29L127.36 438.29L126.15 439.5L124.94 438.59L126.15 434.38Z" fill="#BDBEBE" stroke="white" stroke-width="0.5" stroke-miterlimit="10"/>
<path id="Vector_78" d="M127.36 432.56H129.18V433.78L129.79 430.45L131.61 429.23L132.21 428.02L131.91 425.6L131 424.99L128.88 425.9V428.32L127.36 432.56Z" fill="#BDBEBE" stroke="white" stroke-width="0.5" stroke-miterlimit="10"/>
</g>
<g id="Kumamoto">
<path id="Vector_79" d="M147.98 467.42L150.1 465.91L152.83 464.39L154.65 464.69L155.25 465.3L156.77 465.6L157.38 466.81L159.5 466.21L159.19 464.69L160.41 464.09L162.23 464.39L163.44 466.51L164.35 467.12V469.24L164.65 473.18L161.32 476.52L160.1 477.42L159.8 480.15L160.1 482.88L160.41 485.61L159.8 488.34L157.68 488.64L156.77 489.55H152.53L151.01 487.78L144.01 488.39L150.07 481.72V480.2L152.19 477.2L148.86 476.29L150.68 474.47H152.5L152.19 473.26L149.49 470.78L148.28 469.56L147.98 467.42Z" fill="#BDBEBE" stroke="white" stroke-width="0.5" stroke-miterlimit="10"/>
<path id="Vector_80" d="M143.73 479.85L147.67 478.94V480.15L146.77 481.06V482.28L144.04 481.67L143.73 479.85Z" fill="#BDBEBE" stroke="white" stroke-width="0.5" stroke-miterlimit="10"/>
<path id="Vector_81" d="M139.49 478.33L141.31 478.03L142.52 478.64L142.82 483.18L139.49 485.91H138.28V484.7L139.49 484.09L138.58 482.88V480.78L139.49 478.33Z" fill="#BDBEBE" stroke="white" stroke-width="0.5" stroke-miterlimit="10"/>
</g>
<g id="Oita">
<path id="Vector_82" d="M156.77 465.3L157.07 464.09L156.47 462.27L156.77 459.54L157.98 456.81L159.5 455.9L163.14 455.6L164.35 454.39V453.48L166.17 454.69H169.81L171.93 452.57H173.44L175.57 455.3V457.72L174.66 458.93L172.23 460.45H170.71L171.02 461.96L178.02 463.48L177.41 466.82L180.14 468.03L178.32 469.85L180.45 471.36L179.54 472.58V474.09H178.02L177.11 475.91L176.2 473.48L173.47 473.79L169.83 474.39L169.23 472.88L164.68 472.27L164.38 467.12L163.47 466.51L162.26 464.39L160.44 464.09L159.22 464.69L159.53 466.21L157.41 466.82L156.77 465.3Z" fill="#BDBEBE" stroke="white" stroke-width="0.5" stroke-miterlimit="10"/>
</g>
<g id="Miyazaki">
<path id="Vector_83" d="M152.53 489.55H156.77L157.98 488.64L159.8 488.34L160.41 485.61V482.61L160.1 479.88V477.45L164.65 473.51V472.3L169.2 473.21L169.81 474.42L176.17 473.51L177.08 475.94L173.44 479.58L174.05 481.4L172.53 482.61L169.53 489.28V492.28L167.11 496.52L168.32 498.04L165.59 505.62L164.08 507.44L161.65 505.92H160.74V504.1L161.04 501.98L158.32 501.07L157.41 500.16L157.71 498.34L155.87 497.13L155.57 495.61L152.53 489.55Z" fill="#BDBEBE" stroke="white" stroke-width="0.5" stroke-miterlimit="10"/>
</g>
<g id="Kagoshima">
<path id="Vector_84" d="M144.04 488.34L151.04 487.73L152.25 489.55L155.59 495.31V497.13L157.41 498.04V500.16L158.01 501.07L161.01 501.98L160.41 504.41V505.92H159.19L157.98 507.44L159.8 510.44L156.8 511.95L156.5 513.47L151.34 515.9L150.74 514.68L152.56 512.26L153.46 509.26L153.16 506.53L151.34 505.31L150.43 502.89V501.37L152.86 502.28L154.07 501.07V499.55L151.95 498.95L150.74 499.25L148.87 501.37L147.35 505.01L148.26 507.13L149.78 510.47V511.68L148.56 512.59L145.87 510.16L141.93 509.56L140.41 507.13V505.92L142.83 505.01L143.74 503.8L144.05 501.98L143.74 498.98L141.62 497.46L141.93 489.88L142.53 488.37L144.04 488.34Z" fill="#BDBEBE" stroke="white" stroke-width="0.5" stroke-miterlimit="10"/>
<path id="Vector_85" d="M153.74 531.69L155.86 531.08L156.47 527.75L157.38 526.84L158.29 523.2L158.59 521.38H157.38L155.25 524.72V527.14L153.74 529.26V531.69V531.69Z" fill="#BDBEBE" stroke="white" stroke-width="0.5" stroke-miterlimit="10"/>
<path id="Vector_86" d="M143.13 531.08L145.86 529.26L148.86 531.08V532.9L147.34 534.72H144.61L143.13 531.08Z" fill="#BDBEBE" stroke="white" stroke-width="0.5" stroke-miterlimit="10"/>
<path id="Vector_87" d="M114.33 582.01L117.06 584.13L119.78 583.53V582.01L125.54 578.07V576.86L115.84 579.59V581.1L114.33 582.01Z" fill="#BDBEBE" stroke="white" stroke-width="0.5" stroke-miterlimit="10"/>
<path id="Vector_88" d="M114.02 585.04L117.36 585.95L114.36 583.53L114.02 585.04Z" fill="#BDBEBE" stroke="white" stroke-width="0.5" stroke-miterlimit="10"/>
<path id="Vector_89" d="M130.7 581.71L131.61 582.32L132.21 580.8L130.7 581.71Z" fill="#BDBEBE" stroke="white" stroke-width="0.5" stroke-miterlimit="10"/>
</g>
<g id="Okinawa">
<path id="Vector_90" d="M210.97 222.46L213.09 220.95L212.79 219.43L213.4 216.7L215.22 216.4L214.31 215.19L214.61 213.98L217.34 212.46L218.25 211.25L220.67 210.64L220.37 209.13L222.19 208.52L224.01 206.7L224.31 205.18L224.01 203.67L222.8 203.06L219.8 206.4L219.5 208.22L214.35 207.61V208.52L216.47 210.64L211.62 213.64L211.32 217.58L209.8 218.8V221.22L210.97 222.46Z" fill="#BDBEBE" stroke="white" stroke-width="0.5" stroke-miterlimit="10"/>
<path id="Vector_91" d="M189.15 215.19L190.96 215.49L190.66 217.31L189.15 215.19Z" fill="#BDBEBE" stroke="white" stroke-width="0.5" stroke-miterlimit="10"/>
<path id="Vector_92" d="M156.71 252.48V256.72L160.65 255.51L157.92 254.6L157.62 253.38L156.71 252.48Z" fill="#BDBEBE" stroke="white" stroke-width="0.5" stroke-miterlimit="10"/>
<path id="Vector_93" d="M130.33 262.48L130.94 265.48L133.67 264.87L133.36 262.75L135.18 260.63L135.49 258.81H134.27L134.58 260.02L132.46 262.45L130.33 262.48Z" fill="#BDBEBE" stroke="white" stroke-width="0.5" stroke-miterlimit="10"/>
<path id="Vector_94" d="M120.63 265.51H122.45L122.75 263.09L126.09 263.69L126.7 264.3V265.21L124.87 267.03L120.62 266.72L120.63 265.51Z" fill="#BDBEBE" stroke="white" stroke-width="0.5" stroke-miterlimit="10"/>
</g>
</g>
</g>
<defs>
<clipPath id="clip0_1_2">
<rect width="570.73" height="618.8" fill="white"/>
</clipPath>
</defs>
</svg>
