<?xml version="1.0" encoding="utf-8"?>
<!-- Generator: Adobe Illustrator 26.0.3, SVG Export Plug-In . SVG Version: 6.00 Build 0)  -->
<svg version="1.1" id="レイヤー_1" xmlns="http://www.w3.org/2000/svg" xmlns:xlink="http://www.w3.org/1999/xlink" x="0px"
	 y="0px" viewBox="0 0 974.7 1082.9" style="enable-background:new 0 0 974.7 1082.9;" xml:space="preserve">
<style type="text/css">
	.st0{fill:none;stroke:#040000;stroke-width:2;}
	.st1{fill:#27903A;stroke:#040000;}
</style>
<path id="AREA" class="st0" d="M0.1,537.9c0,0,239.1,20.2,398.5-139.3C558.1,239.2,537.9,0.1,537.9,0.1"/>
<g id="map">
	<g id="Hopporyodo">
		<path class="st1" d="M898,124.8h5.8l2.9-5.8l8.6-5l1.4-6.5l9.4-10.1l2.2-7.9l7.9,0.7l6.5-5.8l11.5-12.2l11.5-7.9h5l3.6-2.2
			l-0.7-10.1l-2.9,0.7l-9.4,7.2l-7.9,7.9l-10.8,2.2l-5.8-6.5v8.6l-7.9,7.9l-0.7,1.4l-5.8,2.2l-3.6,8.6l-4.3,2.9l-1.4,5.8l-5.8,2.2
			l2.2,7.2l-6.5,2.9v2.2l-2.9,0.7l0.7,2.9l-2.2,1.4l0.7,5.8L898,124.8z"/>
		<path class="st1" d="M843.3,169.4l4.3,3.6h2.2v-7.9l2.2-3.6l5-2.9l3.6-6.5l1.4-4.3l5.8-4.3l1.4-5l6.5-2.2l5-3.6l5-2.9l1.4-4.3
			l-6.5,2.2l-11.5-3.6l-7.9,13.7v2.9l-3.6,2.2l-1.4,7.2l-4.3,3.6l-0.7,2.2l-7.9,9.4L843.3,169.4L843.3,169.4z"/>
		<path class="st1" d="M892.9,166.5l2.9,2.2l9.4-6.5l-3.6-3.6l-5,1.4l-3.6,3.6V166.5z"/>
		<path class="st1" d="M873.5,183.8h2.9v-3.6h-2.9V183.8z"/>
	</g>
	<g id="Hokkaido">
		<path class="st1" d="M626,319.8l2.9-0.7v-2.2l4.3-3.6l4.3-1.4l-0.7-6.5l7.2-5.8l2.9-4.3l3.6,2.2l12.2,4.3l6.5-5.8l-3.6-5l-7.2-2.2
			l-8.6-10.1l-3.6-0.7l-4.3,2.2l-6.5-7.2l-2.9-0.7l-2.9-4.3v-2.2l2.2-2.2l2.9-8.6l2.9-2.9l5-0.7l4.3,0.7l3.6,2.9l5,5.8l2.9,5h3.6
			l2.9-4.3l13-8.6l17.3-5l42.5,24.5l20.9,11.5l2.9-8.6v-12.2l2.9-8.6l3.6-2.9l4.3-7.9l20.1-20.1l5-3.6l7.9,0.7l2.2,1.4l10.8-0.7
			l0.7-5.8l2.2-0.7l2.2,2.2l5.8,1.4l5.8-6.5l1.4-4.3l13-3.6l2.9-3.6l7.9-6.5V191l-3.6-1.4l-5.8,7.2l-10.1,2.9l-1.4-4.3l2.9-0.7
			l-5-12.2l3.6,1.4v-3.6l-6.5-0.7l-3.6-5l-0.7-7.2l2.9-14.4l5-3.6v-10.8l-2.9-0.7l-8.6,11.5l-5,5.8l-7.2,8.6l-9.4,0.7l-6.5-2.2
			l-6.5-8.6l-2.2,4.3l-3.6-5l-11.5,2.9l-4.3-2.9v-3.6l-9.4-3.6l-17.3-13L731,121.2l-9.4-12.2l-11.5-15.1l-10.1-7.9l-8.6-8.6h-2.2
			v3.6l-8.6,0.7l-2.2,3.6l0.7,7.2l-2.2,2.2l0.7,6.5l7.9,12.2l2.9,9.4v11.5l-1.4,9.4l-4.3,5.8l2.9,8.6l-0.7,5.8l-1.4,4.3l-1.4,5.8
			l-7.9,5.8l-1.4,3.6l0.7,7.2l4.3,13.7l-2.2,6.5l-8.6,7.2l-5.8-0.7l-3.6-3.6l-5.8,1.4l-7.2-2.9l-3.6-4.3l-7.2-0.7l-3.6,2.2l0.7,5
			l6.5,10.8v4.3l-5,4.3l-1.4,2.2l-2.2,6.5l-4.3-2.9l-4.3,5l-8.6,3.6l-1.4,4.3l0.7,10.1l-4.3,5.8l5,7.9l6.5,4.3l5,8.6v6.5l-5,13.7
			l2.2,9.4L626,319.8z"/>
		<path class="st1" d="M662,100.3h5l-0.7-4.3l-2.9-2.9l-4.3,2.2v2.2L662,100.3z"/>
		<path class="st1" d="M653.3,89.5l2.2-2.9v-4.3l-3.6,0.7L653.3,89.5z"/>
		<path class="st1" d="M597.9,273.7l-1.4,7.2l-2.2,3.6l-2.9-3.6l1.4-4.3L597.9,273.7z"/>
	</g>
	<g id="Aomori">
		<path class="st1" d="M617.4,376.6v-4.3l-2.9-1.4l1.4-5.8l4.3-4.3l10.1-2.9l2.2-11.5l2.2-2.2v-2.9l-2.2-1.4l1.4-9.4l6.5,2.2
			l4.3-0.7l4.3,18.7l4.3,2.9l5.8-3.6v-6.5l6.5,3.6l3.6,3.6l3.6-2.2l-0.7-6.5l3.6-4.3l-0.7-6.5l-4.3-3.6l-5,4.3l-6.5,0.7l-5.8,2.9
			v-7.9l1.4-7.2l4.3-6.5h5.8l8.6,7.9l8.6-1.4l-2.2,15.1l2.2,4.3v15.8l4.3,12.2l6.5,2.9l0.7,2.2l-3.6,1.4l-0.7,2.2l-11.5,2.9l-13,7.2
			l-2.9-2.2v-9.4l-8.6-1.4l-5.8,3.6l-13-3.6l-4.3,2.2l-8.6-0.7L617.4,376.6z"/>
	</g>
	<g id="Iwate">
		<path class="st1" d="M657.6,460.1l16.5,7.2l2.2,3.6l6.5-2.2l2.2,0.7l5.8-11.5l2.9-0.7l2.9,1.4l5,1.4v-3.6l3.6-0.7l0.7-3.6l1.4-2.2
			l-0.7-3.6l3.6-2.2l-2.2-1.4l2.2-2.9l-1.4-2.2v-3.6l4.3-2.9l-2.2-1.4l2.2-6.5v-2.9l-2.2-1.4v-6.5l-1.4-4.3l-0.7-4.3v-2.9l-1.4-2.9
			l-0.7-2.2l-3.6-1.4l0.7-4.3l-2.2-2.2v-5.8l-7.9-10.1l-2.9,2.2l-2.2,2.2l-12.2,2.9l-12.2,6.5l-2.2-2.2l-4.3,2.9v5.8l-1.4,2.2
			l1.4,6.5l0.7,7.2l-2.2,6.5v6.5l-2.9,8.6l-4.3,2.9l1.4,6.5l5.8,6.5v2.9l-1.4,2.2l1.4,3.6L657.6,460.1z"/>
	</g>
	<g id="Miyagi">
		<path class="st1" d="M637.5,519.1l8.6,1.4l1.4,2.2l7.9,0.7l2.9,5.8l6.5-5h2.9l-0.7-10.8l5-8.6v-7.2l7.9-2.2l1.4-2.9h4.3l6.5,7.2
			l1.4-1.4v-6.5h-2.9l2.2-5.8l-2.2-1.4l0.7-3.6l-0.7-6.5l2.9-1.4l0.7-4.3l0.7-4.3l2.9,1.4l-1.4-7.2l-5-2.2l-6.5,13l-2.2-1.4
			l-7.2,2.9l-2.2-3.6l-16.5-7.2l-2.9,0.7l-0.7,2.2l-5.8,2.9v2.2l3.6,6.5l-0.7,5.8l-2.9-0.7l-1.4,2.9v2.2l2.2,1.4v4.3l0.7,3.6
			l-2.9,4.3l-1.4,5v4.3l-2.9,1.4l-0.7,3.6l-4.3,2.2L637.5,519.1z"/>
	</g>
	<g id="Akita">
		<path class="st1" d="M617.4,376.6l10.1-1.4h3.6l3.6-1.4l13,2.9l5-3.6l9.4,2.2v8.6l-4.3,2.9v5.8l-1.4,2.2l1.4,5.8l0.7,8.6l-2.2,5
			v7.2l-2.9,8.6l-4.3,2.9l1.4,6.5l5.8,6.5l0.7,2.9l-2.2,2.2l1.4,4.3l0.7,5l-3.6,0.7l-0.7,2.2l-5,2.9l-6.5-5.8l-10.1-2.9l-9.4-5h-4.3
			l6.5-14.4l0.7-17.3l-2.9-5v-5.8h-10.8l-2.2-2.2l-0.7-5h2.9l2.9,2.2l3.6-2.9v-2.9l3.6-5v-6.5l1.4-3.6L617.4,376.6z"/>
	</g>
	<g id="Yamagata">
		<path class="st1" d="M616.6,451.4l5,0.7l9.4,5l10.1,2.9l5.8,5l0.7,2.9l3.6,5.8l-1.4,6.5l-2.2-0.7l-1.4,2.9v2.2l2.2,1.4l0.7,7.9
			l-5,8.6l0.7,5l-2.9,1.4l-1.4,3.6l-4.3,2.2v2.9l1.4,2.2l-2.9,2.2l1.4,7.9l-2.9,1.4l-20.9-3.6l-5-3.6l3.6-10.8l-2.2-1.4l2.9-5h2.9
			l3.6-3.6v-2.9l-5-4.3h-2.9l-0.7-6.5l-5-4.3l7.2-9.4l5.8-18.7L616.6,451.4z"/>
	</g>
	<g id="Fukushima">
		<path class="st1" d="M613,527.7l20.1,3.6l2.9-1.4l-1.4-7.9l2.9-2.9l8.6,1.4l1.4,2.2l7.9,0.7l2.9,5.8l6.5-5h2.9l4.3,10.8V545
			l0.7,11.5l1.4,5l-1.4,2.9l-1.4,2.9v7.9l-7.2,8.6l-7.9-2.2l-2.2-2.2l-7.2,6.5l-5-4.3h-2.9l-2.9-7.9l-6.5-5L626,568h-7.2l-12.2,7.2
			l-2.9,2.2l-7.2,3.6h-2.9l-2.2-1.4l1.4-2.2v-5.8l-3.6-6.5l-1.4-2.9l0.7-2.2l0.7-2.9l-1.4-2.2l0.7-3.6l12.2-5l4.3-2.2l-1.4-2.2v-2.9
			l3.6-1.4l2.2-5.8L613,527.7z"/>
	</g>
	<g id="Ibaraki">
		<path class="st1" d="M623.1,637.1l2.9,2.9l8.6,0.7l1.4,2.9h7.9l4.3-3.6h6.5l2.9,1.4l5.8,5.8h3.6l-10.8-18.7l-0.7-2.9l-2.2-2.2
			l0.7-7.9l2.9-2.9v-2.2l-1.4-2.9l2.2-4.3l4.3-13l2.2-6.5l-8.6-2.2l-1.4-2.2l-7.2,6.5l-5-4.3h-2.9l-1.4,2.9v8.6l-0.7,2.2l1.4,9.4
			l-4.3,6.5h-2.2l-13.7,7.2h-2.9l-7.2,0.7l2.2,2.2l2.2,1.4l0.7,6.5l7.2,3.6L623.1,637.1z"/>
	</g>
	<g id="Tochigi">
		<path class="st1" d="M592.9,580.2h3.6l7.9-2.9l2.9-2.9l11.5-7.2l7.2,0.7l3.6,0.7l6.5,5l2.9,7.2l-1.4,3.6l0.7,8.6l-0.7,11.5
			l-4.3,5.8l-2.2,0.7l-13.7,7.2H608l-6.5-0.7l-2.9-6.5v-5l2.2-7.2h-5l0.7-2.9v-2.2L595,586L592.9,580.2z"/>
	</g>
	<g id="Gumma">
		<path class="st1" d="M592.9,580.2l-2.2-1.4l-5.8-1.4h-3.6l-2.9,6.5l-3.6,4.3H572l-1.4,1.4l-2.2,5.8l-3.6,0.7l-3.6-0.7l-7.2,6.5
			v8.6h4.3l5,2.2l-1.4,6.5l0.7,7.9l0.7,5l1.4,3.6l3.6,1.4l5-5.8l6.5-2.2l2.9-2.2l0.7-4.3l4.3-2.2h5l5.8,2.9l7.9,0.7h3.6v-2.9
			l-2.2-2.9l-6.5-0.7l-2.9-7.2v-5l1.4-6.5h-4.3l0.7-4.3L595,586L592.9,580.2z"/>
	</g>
	<g id="Saitama">
		<path class="st1" d="M567.7,636.4l5-5l6.5-2.2l3.6-2.9V622l4.3-2.2l5.8,0.7l5.8,2.9l10.8,0.7l0.7-2.9l2.2,1.4l0.7,6.5l6.5,3.6
			l2.9,4.3l0.7,10.1h-7.9l-5,1.4h-6.5l-7.9-0.7l-12.9-4.3l-2.9,1.4l-7.9-0.7l-2.9-2.9L567.7,636.4z"/>
	</g>
	<g id="Chiba">
		<path class="st1" d="M623.8,656.5l-0.7-9.4l-0.7-10.1l2.9,2.9l9.4,0.7l0.7,2.9l8.6-0.7l4.3-2.9h6.5l2.2,0.7l6.5,6.5h2.9l2.2,4.3
			l-7.9,0.7l-7.9,5.8l-2.2,8.6l-0.7,10.1l-2.9,5.8l-2.2,3.6l-10.8,2.2l-5.8,5.8l-0.7,2.2l-2.9,2.2l-2.9,0.7v-5.8l1.4-5.8l-1.4-5
			l1.4-4.3l-2.2-0.7v-2.9l13-15.1v-2.2l-4.3-3.6L623.8,656.5z"/>
	</g>
	<g id="Tokyo">
		<path class="st1" d="M579.9,644.3l2.9-1.4l12.9,4.3l7.2,1.4h7.2l4.3-1.4h7.9l1.4,9.4l-7.9,0.7l-5.8,1.4h-10.8l-10.1-1.4l-0.7-2.2
			l-2.2-2.2l-5.8-5L579.9,644.3z"/>
		<path class="st1" d="M600.8,711.2h5V709l-5-3.6V711.2z"/>
		<path class="st1" d="M594.3,717.7v2.9l0.7-2.9H594.3z"/>
		<path class="st1" d="M597.9,722l2.2-1.4l-2.9,1.4H597.9z"/>
	</g>
	<g id="Kanagawa">
		<path class="st1" d="M588.6,656.5l11.5,2.2h10.1l5-2.2h8.6l-3.6,1.4l-2.2,2.2v3.6l-4.3,3.6l-0.7,7.9l4.3,2.2l-0.7,4.3l-4.3,2.9v-5
			l-2.2-3.6l-10.1-1.4l-4.3,2.9l-3.6,1.4v3.6l-2.9,3.6l-7.9-3.6l0.7-2.9v-6.5l-2.9-2.2V668l5-2.9l3.6-2.2l0.7-2.2L588.6,656.5
			L588.6,656.5z"/>
	</g>
	<g id="Nigata">
		<path class="st1" d="M569.9,589.6l2.2-1.4h2.9l3.6-4.3l2.9-6.5h3.6l6.5,1.4l1.4-2.2l-0.7-5.8l-4.3-8.6l1.4-5l-2.2-2.2l1.4-4.3
			l12.2-4.3l4.3-2.2l-2.2-2.2v-2.9l4.3-2.2l2.2-5.8l3.6-2.9l-5.8-4.3l3.6-10.8l-2.2-1.4l2.9-5h2.2l3.6-3.6v-2.9l-4.3-4.3h-2.9
			l-0.7-7.2l-5-3.6l-1.4,3.6l-5,10.1v13.7l-23,16.5l-3.6,3.6l-2.9,12.2l-7.2,6.5l-2.9,6.5L546.8,568h-5.8l-9.4,5.8l-5,4.3l-6.5,2.9
			l2.2,7.9l4.3-3.6l1.4-2.9h5.8l2.9,5l10.1-2.9l3.6-4.3l3.6-3.6h4.3l5,6.5L569.9,589.6z"/>
		<path class="st1" d="M544,531.3l7.2-0.7l7.2-7.2l0.7-7.2l-4.3,1.4v-6.5l1.4-3.6l-0.7-5.8l-8.6,8.6l-2.2,8.6l4.3,2.9v2.9L544,531.3
			z"/>
	</g>
	<g id="Toyama">
		<path class="st1" d="M519.5,580.2l2.2,8.6l0.7,2.9v5.8l-5,8.6v2.9l-2.2,4.3l-11.5-2.9l-10.8,0.7l-3.6,4.3l-3.6,5l-2.2-3.6h-5
			l-0.7-7.2l1.4-2.9l0.7-15.8l2.2-5l2.9-2.2l0.7-2.9h5v8.6l2.2,3.6l9.4,0.7l2.9-1.4l4.3-8.6l4.3-3.6L519.5,580.2L519.5,580.2z"/>
	</g>
	<g id="Ishikawa">
		<path class="st1" d="M490.7,581h-5l-0.7,2.9l-2.9,2.2l-2.2,5l-0.7,16.5l-1.4,2.2l0.7,7.2l-0.7,4.3l0.7,3.6l-2.2,1.4l-0.7,4.3
			l-5,2.2l-1.4-4.3l-3.6-1.4h-6.5l-3.6-3.6l-2.9-1.4l10.8-8.6l8.6-15.8l3.6-3.6l2.9-10.1l-2.2-2.9l0.7-7.2l-2.9-5.8l1.4-3.6l0.7-5
			l7.2-3.6h4.3l14.4-7.9l2.9,4.3l-4.3,4.3l-0.7,4.3l-3.6,2.2l-2.2-0.7l-5,5.8l-4.3-1.4l-1.4,5.8l3.6,3.6l2.9-0.7L490.7,581z"/>
	</g>
	<g id="Fukui">
		<path class="st1" d="M452.6,622l2.9,1.4l2.9,3.6h6.5l3.6,1.4l2.2,5l7.2,11.5l-0.7,5l-10.1,1.4h-8.6l-5,5.8l-2.2,0.7l-1.4,2.2
			l-2.9,2.2l-12.2,5l-1.4,7.2l-2.2,1.4l-2.9-2.2l-10.1-2.2l-1.4-3.6l-1.4-6.5l2.9,0.7l2.2,0.7l0.7,2.9h2.9v-1.4h2.2v2.9l3.6-0.7V663
			l2.2,0.7l2.2-1.4v-2.9l3.6-0.7l3.6-2.2v-3.6h2.9l2.9,2.9l-0.7-7.2l-5-10.8v-2.9l7.2-10.8L452.6,622z"/>
	</g>
	<g id="Yamanashi">
		<path class="st1" d="M568.4,641.4l2.9,2.9h8.6l0.7,3.6l7.9,6.5v2.9v3.6l-0.7,2.2l-9.4,5v2.2h-3.6l-5,1.4h-5l-2.9-2.2h-3.6V681
			l-2.9,2.9l-3.6-4.3l-0.7-3.6h-4.3v-5.8l-0.7-4.3v-5.8l-2.2-2.2v-5v-6.5l7.9-6.5l2.9,1.4l6.5,1.4L568.4,641.4z"/>
	</g>
	<g id="Nagano">
		<path class="st1" d="M521.7,588.2l5-2.9l0.7-2.9h6.5l2.2,5l10.8-2.9l7.2-7.9h4.3l5,7.2l6.5,5.8l-1.4,5.8l-4.3,0.7l-2.9-0.7
			l-7.9,7.2l0.7,7.2h3.6l5.8,2.9l-1.4,7.2l0.7,12.2l2.2,3.6l2.9,1.4l0.7,3.6l-7.2,2.2l-6.5-1.4l-2.9-1.4l-7.9,6.5v6.5v5l-2.2,0.7
			l-2.2,7.9l-0.7,6.5l-4.3,4.3l-9.4,4.3l-12.2-1.4l2.2-8.6l2.2-2.9l-0.7-4.3l-2.9-2.2v-2.9l-3.6-5.8l-5-5.8l-0.7-2.9l5.8-3.6
			l3.6-4.3l1.4-3.6l-1.4-7.9l2.9-5.8l-0.7-3.6l-0.7-3.6l2.2-3.6v-2.9l5-8.6L521.7,588.2z"/>
	</g>
	<g id="Gifu">
		<path class="st1" d="M453.3,657.2l5-5l7.9-0.7l10.1-1.4l1.4-5.8l-7.9-11.5l5.8-2.9v-3.6l2.9-1.4l-0.7-3.6v-4.3h5.8l2.2,3.6
			l3.6-5.8l2.9-3.6l11.5-0.7l11.5,2.9l1.4,6.5l-3.6,6.5l1.4,7.2l-0.7,3.6l-4.3,5l-5,2.9l0.7,2.2l5,6.5l3.6,5v3.6l2.9,2.9l0.7,3.6
			l-2.2,2.9l-2.2,8.6h-8.6l-10.1-2.9l-7.9-4.3l-10.1,1.4l-5,7.2v2.9h-2.2l-2.9-2.9l-4.3-0.7l-1.4-10.8L453.3,657.2z"/>
	</g>
	<g id="Shizuoka">
		<path class="st1" d="M525.3,681.7l8.6-5l5-3.6l0.7-6.5l2.9-7.9l1.4-0.7l1.4,2.2l0.7,5.8l0.7,5v5h3.6l0.7,3.6l4.3,4.3l2.9-2.9
			v-11.5h3.6l2.9,2.2h5l4.3-1.4h4.3l2.9,2.9v6.5v2.2l7.2,4.3l-0.7,8.6l2.2,4.3l-7.2,11.5v4.3h-3.6l-2.2,2.9h-2.2l-1.4-7.2l-0.7-17.3
			l4.3-0.7l-5-5.8l-7.2,0.7l-4.3,4.3l-0.7,5l-7.2,2.9l-2.9,9.4l-2.9,2.2l-1.4,6.5l-7.2-2.9l-7.2,0.7l-3.6,2.2l-8.6-2.9h-7.9v-9.4
			l5.8-4.3l9.4-14.4L525.3,681.7z"/>
	</g>
	<g id="Aichi">
		<path class="st1" d="M469.9,684.6l1.4-0.7v-2.2l5-7.2l10.1-1.4l7.9,4.3l10.1,2.9h8.6l12.2,1.4l0.7,5.8l-9.4,14.4l-5.8,3.6v9.4
			h-5.8l-10.1,4.3h-3.6v-2.2l10.8-6.5l-0.7-2.9l-10.8,0.7l-2.2-1.4l-0.7-4.3l-2.2,5l1.4,5l-5-2.2v-4.3l-2.2-3.6V699l4.3-5l-2.9-2.2
			l-5.8,2.2L469.9,684.6z"/>
	</g>
	<g id="Mie">
		<path class="st1" d="M461.9,680.3l4.3,1.4l2.2,2.9h2.2l4.3,8.6l-2.2,3.6l-1.4,8.6L467,709l-0.7,7.2l7.2,5.8l5.8,3.6l5.8,3.6
			l-0.7,7.9l-5,1.4l1.4-2.9h-7.2l-11.5,5.8h-4.3l-1.4,1.4v3.6l-3.6,1.4l0.7,7.9l-7.9,5.8l-3.6,10.1l-7.9-6.5l0.7-5l4.3-2.9v-4.3
			l5.8-4.3v-9.4l0.7-4.3l-2.2-2.2v-4.3l6.5-0.7l2.2-1.4l-2.2-5l-3.6-0.7l-2.9-3.6v-5l-2.2-1.4l1.4-3.6l3.6-4.3h6.5l3.6-2.9l2.2-4.3
			l2.2-1.4v-7.2L461.9,680.3z"/>
	</g>
	<g id="Shiga">
		<path class="st1" d="M431,675.9l2.2-1.4l0.7-7.2l13-5l2.9-2.2l1.4-2.2h2.2l7.2,12.9l1.4,10.1l-1.4,5.8v7.9l-2.2,0.7l-2.2,4.3
			l-3.6,2.9h-6.5l-4.3,5l-5-5l-4.3-10.8L431,675.9z"/>
	</g>
	<g id="Kyoto">
		<path class="st1" d="M414.4,661.5l3.6,10.1l10.1,2.2l2.9,2.2l1.4,16.5l4.3,10.1l5,5l-0.7,2.2l-9.4,1.4l-2.9-2.2l-0.7-4.3l-0.7-6.5
			l-4.3-0.7v-2.9l-4.3-3.6l-12.2-5l-5.8-7.9l-5.8-0.7l-3.6-2.9v-2.2h3.6l0.7-2.2v-5.8l-5.8-2.9l-1.4-4.3l5.8-0.7l4.3-4.3h9.4
			l-2.9,10.1l3.6,1.4l1.4,3.6l2.9-0.7L414.4,661.5z"/>
	</g>
	<g id="Osaka">
		<path class="st1" d="M423.1,697.5l4.3,0.7l0.7,10.8l3.6,2.2l-7.9,9.4l-0.7,9.4l-18,5h-7.2l8.6-4.3l6.5-5.8l2.9-7.9l-2.9-6.5
			l1.4-9.4l-4.3-4.3v-2.9h2.9l5,5L423.1,697.5z"/>
	</g>
	<g id="Hyogo">
		<path class="st1" d="M388.5,656.5l1.4,5.8l5.8,2.2v5.8l-1.4,2.2h-2.9v2.2l3.6,2.9l5.8,0.7l5.8,7.9l12.2,5l4.3,3.6v2.9l-5,1.4
			l-5.8-5h-2.2v2.9l4.3,4.3l-1.4,9.4l-6.5,1.4l-5,4.3h-5l-18.7-10.1l-11.5,3.6l-6.5,0.7l0.7-5.8l-2.9-4.3l2.2-11.5l5.8-4.3l-0.7-2.9
			l5.8-4.3l0.7-5l-2.9-7.9l-4.3-5l7.2-2.2L388.5,656.5z"/>
		<path class="st1" d="M377,734.9l5-4.3V727l10.1-7.9l1.4,2.9l-3.6,3.6l0.7,12.2l-6.5,3.6L377,734.9z"/>
	</g>
	<g id="Nara">
		<path class="st1" d="M423.1,729.9l0.7-10.1l7.9-8.6l8.6-1.4l2.9,2.2v5l2.9,3.6l3.6,0.7l2.2,5l-2.2,1.4l-6.5,0.7v4.3l2.2,2.9
			l-0.7,3.6v9.4l-6.5,3.6v5l-3.6,2.9h-14.4l-0.7-8.6v-5l6.5-6.5l-1.4-5v-4.3L423.1,729.9z"/>
	</g>
	<g id="Wakayama">
		<path class="st1" d="M397.9,734.9h7.9l17.3-5l1.4,0.7v4.3l0.7,5l-6.5,7.2l0.7,4.3l0.7,8.6h13.7v5l7.2,6.5l-2.2,5.8l-8.6,7.9
			l-3.6,0.7l-7.2-4.3l-6.5-2.9l-2.9-7.9l-2.9-5l-8.6-5.8l-0.7-5.8l2.2-1.4l-0.7-2.9l-2.2-1.4l0.7-3.6L397.9,734.9L397.9,734.9z"/>
	</g>
	<g id="Tottori">
		<path class="st1" d="M363.4,659.4l5,5l2.9,7.9l-0.7,5.8l-5.8,3.6h-3.6l-5,0.7l-5-5.8l-5-1.4l-3.6,2.2h-7.2l-2.2-2.9h-3.6
			L313,690.3l-5.8-3.6l0.7-7.9l5.8-3.6v-10.1l5.8,0.7l7.2-3.6l13.7,2.2L363.4,659.4z"/>
	</g>
	<g id="Shimane">
		<path class="st1" d="M313.7,665.1v10.1l-5.8,3.6l-0.7,7.9l-13-1.4l-5.8,2.2l-1.4,2.2v2.2l-3.6,5l-5.8,3.6l-7.2,0.7l-4.3,1.4
			l-2.9-0.7l-5,3.6l-3.6,10.8l-1.4,5.8l-1.4,6.5h-4.3l-7.9,2.9l1.4-6.5v-4.3l-2.2-3.6l-3.6-3.6v-5l6.5-0.7l21.6-18.7l6.5-3.6l5-7.2
			l7.9-3.6l3.6-3.6l-2.2-5l20.1-7.2l7.9,1.4L313.7,665.1z"/>
	</g>
	<g id="Okayama">
		<path class="st1" d="M312.3,690.3l16.5-15.8h4.3l2.2,2.2l7.2,0.7l2.9-2.2l5,1.4l5,5.8l5.8-1.4l3.6,0.7v2.9l-5.8,3.6l-1.4,12.2
			l2.9,5l-0.7,5l-5,2.9l-2.2,3.6h-7.9l-1.4,1.4h5.8l-6.5,6.5h-4.3l-6.5-3.6l-8.6,2.9l-0.7-2.2h-2.2l-2.9-4.3L312.3,690.3z"/>
	</g>
	<g id="Hiroshima">
		<path class="st1" d="M251.8,728.5l2.2-7.2l0.7-5.8l2.9-10.1l5.8-3.6l2.9,0.7l4.3-2.2h7.2l5.8-3.6l3.6-5v-2.9l7.2-3.6l13,1.4
			l5.8,3.6l4.3,28.1l2.9,3.6l-5.8,8.6l-2.9-3.6l-3.6,2.9v3.6l-6.5,0.7l3.6-5l-2.2-1.4l-4.3,2.9h-7.2l-7.9,5.8l-6.5,0.7l-1.4-5
			l-2.9-3.6l-5,0.7l-5.8,7.2l-6.5-6.5L251.8,728.5z"/>
		<path class="st1" d="M297.2,738.5h3.6v-2.2l-0.7-2.9L297.2,738.5z"/>
		<path class="st1" d="M273.4,742.8l4.3,2.2l-0.7-2.9v-3.6h-2.2L273.4,742.8z"/>
	</g>
	<g id="Yamaguchi">
		<path class="st1" d="M235.3,708.3l-0.7,5l4.3,3.6l2.2,4.3v3.6l-2.2,5.8l8.6-2.2h4.3l4.3,1.4l5.8,6.5l-1.4,2.9v3.6l0.7,5l-4.3,3.6
			l-0.7,7.2l-2.9,2.2v-7.2l-7.2-2.2l-2.9-2.9l-3.6,1.4v-5.8l-9.4,3.6l-1.4-1.4h-4.3l-1.4,1.4l-1.4-3.6l-4.3,5.8l-5.8-0.7l-4.3-7.2
			l-7.2,5.8l-3.6-10.8l2.9-1.4l-0.7-3.6l-1.4-3.6l7.2-7.2l3.6-0.7l3.6,2.9l1.4-2.2l2.9,2.2l5-0.7l4.3-3.6l1.4-2.9l6.5-7.2
			L235.3,708.3z"/>
		<path class="st1" d="M260.5,752.2l-0.7,2.9l2.2,1.4l8.6-1.4l1.4-2.9h-7.9H260.5z"/>
	</g>
	<g id="Tokushima">
		<path class="st1" d="M328.1,746.4h7.2l2.9-1.4l7.9,0.7l6.5-3.6h4.3l2.9-1.4h6.5l2.2-1.4l5-0.7l2.9,2.9l-0.7,2.2l-2.2,2.9v5.8
			l4.3,3.6v7.9l-7.2,5.8l-7.2,2.9l-3.6,7.2l-7.2-2.9l-2.9-5.8l-2.9-0.7l-0.7-5l-2.9-2.9l-5.8,1.4l-2.2-2.2h-3.6l-3.6-3.6
			L328.1,746.4L328.1,746.4z"/>
	</g>
	<g id="Kagawa">
		<path class="st1" d="M328.1,746.4h7.2l2.9-2.2l7.9,0.7l6.5-2.9h4.3l2.2-2.2l7.2,0.7l1.4-1.4l-7.2-3.6l-2.9-3.6h-2.9l-1.4-2.2
			l-3.6-0.7l-9.4,2.2l-0.7,2.2l-4.3,2.9h-7.9v3.6l1.4,2.2L328.1,746.4z"/>
		<path class="st1" d="M356.2,724.9l3.6-0.7l0.7-2.2l-0.7-2.2h-2.9L356.2,724.9z"/>
	</g>
	<g id="Ehime">
		<path class="st1" d="M328.1,746.4V758l-7.2,2.9l-11.5,0.7l-7.9,5l-2.9,5l-2.2,7.2l-2.2,2.2l-5.8,0.7l1.4,2.9l-0.7,2.2l-0.7,4.3
			l-7.9,8.6l-9.4,0.7l-3.6-3.6l6.5-2.2v-2.9l-2.2-2.2h-5v-6.5l-2.2-2.2l-10.1,5l-4.3,1.4l5.8-6.5l7.9-2.2l3.6-4.3l10.1-4.3l5-5
			l4.3-13.7l6.5-4.3l2.2-2.9l2.9,2.2l3.6,7.2h7.2l8.6-2.2l5.8-0.7L328.1,746.4z"/>
	</g>
	<g id="Kochi">
		<path class="st1" d="M271.3,800.4l10.1-1.4l7.2-7.9l1.4-6.5l-1.4-2.9h5.8l2.9-3.6l1.4-7.2l2.9-3.6l7.9-6.5h11.5l7.2-2.9l3.6,3.6
			h4.3l1.4,2.2l5.8-1.4l3.6,3.6v4.3l2.9,0.7l2.9,5.8l7.2,2.2l-4.3,7.2l-2.9,10.1l-9.4-11.5l-5-4.3l-3.6-1.4l-8.6,0.7l-7.2,6.5
			l-8.6,2.9l-0.7,6.5l-7.9,9.4v2.9l-5-0.7l-0.7,5.8l-2.2,2.2v5.8l2.9,5l-4.3-4.3h-3.6l-3.6,2.2l-6.5-3.6V817l2.2-1.4l-0.7-4.3h-9.4
			l-0.7-4.3L271.3,800.4z"/>
	</g>
	<g id="Fukuoka">
		<path class="st1" d="M159,772.3l0.7-5l3.6-2.9l3.6,0.7l2.9,2.2l2.9-0.7l-1.4-5l3.6-1.4l1.4-2.2l0.7-5l7.2-2.2l2.2-2.2l10.8,2.2
			l3.6-0.7l4.3,16.5l4.3,1.4v2.9l-3.6,2.2l-8.6,0.7l-2.9,2.9l-3.6,5.8v5.8l1.4,5l-1.4,3.6h-2.2l-2.2-2.9H182l-7.2,4.3l-4.3,2.9v-4.3
			l-3.6-4.3l3.6-5.8l3.6-1.4l1.4-2.9l-2.9-2.2l-0.7-2.2l-3.6-4.3L159,772.3z"/>
	</g>
	<g id="Saga">
		<path class="st1" d="M159,772.3l9.4,1.4l5,7.2l2.2,0.7l-1.4,3.6l-3.6,0.7l-3.6,6.5l-2.9-1.4h-2.9l-2.9,2.9l2.2,6.5v3.6l-6.5-2.2
			l-1.4-2.2l-3.6-1.4l-5-10.1l-2.2,0.7l-1.4-2.9v-5h3.6l2.2-2.2l-2.9-4.3l2.2-1.4l1.4-2.2l3.6-0.7l2.2,3.6L159,772.3z"/>
	</g>
	<g id="Nagasaki">
		<path class="st1" d="M143.9,781H141l-0.7,5.8l1.4,2.2l2.2-0.7l5,10.1l3.6,1.4l0.7,1.4l7.9,2.9l-3.6,5.8h5.8l3.6,1.4v6.5l-1.4,3.6
			l-7.2,1.4h-2.2v-2.9l1.4-5.8l-3.6-1.4l-5,1.4l-9.4,10.1l-1.4-1.4l1.4-10.1l-7.2-8.6l1.4-4.3l2.9-3.6l4.3,5v6.5l6.5,0.7l0.7-3.6
			l-2.2-4.3l-4.3-5h-2.9l-2.9-6.5l-5-1.4l1.4-9.4l8.6,1.4L143.9,781z"/>
		<path class="st1" d="M129.5,776.7l2.2,1.4l-4.3,7.9h-3.6v-2.9L129.5,776.7z"/>
		<path class="st1" d="M102.9,799.7l5-5l1.4,3.6l-2.2,3.6l-3.6,5l0.7-4.3L102.9,799.7z"/>
		<path class="st1" d="M84.9,809h7.9l2.9,5.8l-5,0.7l-2.9,1.4H82L84.9,809z"/>
		<path class="st1" d="M139.6,750.8v7.2l3.6-1.4V750l-2.2-0.7L139.6,750.8z"/>
		<path class="st1" d="M118.7,722.7h4.3l2.2,2.2l-3.6,7.2l-2.9,2.9l-2.9-2.2L118.7,722.7z"/>
		<path class="st1" d="M121.6,718.4h4.3v2.9l1.4-7.9l4.3-2.9l1.4-2.9l-0.7-5.8l-2.2-1.4l-5,2.2v5.8L121.6,718.4z"/>
	</g>
	<g id="Kumamoto">
		<path class="st1" d="M170.5,801.1l5-3.6l6.5-3.6l4.3,0.7l1.4,1.4l3.6,0.7l1.4,2.9l5-1.4l-0.7-3.6l2.9-1.4l4.3,0.7l2.9,5l2.2,1.4v5
			l0.7,9.4l-7.9,7.9l-2.9,2.2l-0.7,6.5l0.7,6.5l0.7,6.5l-1.4,6.5l-5,0.7l-2.2,2.2h-10.1l-3.6-4.3l-16.5,1.4l14.4-15.8v-3.6l5-7.2
			l-7.9-2.2l4.3-4.3h4.3l-0.7-2.9l-6.5-5.8l-2.9-2.9L170.5,801.1z"/>
		<path class="st1" d="M160.5,830.6l9.4-2.2v2.9l-2.2,2.2v2.9l-6.5-1.4L160.5,830.6z"/>
		<path class="st1" d="M150.4,827l4.3-0.7l2.9,1.4l0.7,10.8l-7.9,6.5h-2.9v-2.9l2.9-1.4l-2.2-2.9v-5L150.4,827z"/>
	</g>
	<g id="Oita">
		<path class="st1" d="M191.4,796.1l0.7-2.9l-1.4-4.3l0.7-6.5l2.9-6.5l3.6-2.2l8.6-0.7l2.9-2.9V768l4.3,2.9h8.6l5-5h3.6l5,6.5v5.8
			l-2.2,2.9l-5.8,3.6h-3.6l0.7,3.6l16.5,3.6l-1.4,7.9l6.5,2.9l-4.3,4.3l5,3.6l-2.2,2.9v3.6h-3.6l-2.2,4.3l-2.2-5.8l-6.5,0.7
			l-8.6,1.4l-1.4-3.6l-10.8-1.4l-0.7-12.2l-2.2-1.4l-2.9-5l-4.3-0.7l-2.9,1.4l0.7,3.6l-5,1.4L191.4,796.1z"/>
	</g>
	<g id="Miyazaki">
		<path class="st1" d="M181.3,853.7h10.1l2.9-2.2l4.3-0.7l1.4-6.5v-7.2l-0.7-6.5v-5.8l10.8-9.4v-2.9l10.8,2.2l1.4,2.9l15.1-2.2
			l2.2,5.8l-8.6,8.6l1.4,4.3l-3.6,2.9l-7.2,15.8v7.2l-5.8,10.1l2.9,3.6l-6.5,18l-3.6,4.3l-5.8-3.6h-2.2v-4.3l0.7-5L195,881l-2.2-2.2
			l0.7-4.3l-4.3-2.9l-0.7-3.6L181.3,853.7z"/>
	</g>
	<g id="Kagoshima">
		<path class="st1" d="M161.2,850.8l16.5-1.4l2.9,4.3l7.9,13.7v4.3l4.3,2.2v5l1.4,2.2l7.2,2.2l-1.4,5.8v3.6h-2.9l-2.9,3.6l4.3,7.2
			l-7.2,3.6l-0.7,3.6l-12.2,5.8l-1.4-2.9l4.3-5.8l2.2-7.2l-0.7-6.5l-4.3-2.9l-2.2-5.8v-3.6l5.8,2.2l2.9-2.9v-3.6l-5-1.4l-2.9,0.7
			l-4.3,5l-3.6,8.6l2.2,5l3.6,7.9v2.9l-2.9,2.2l-6.5-5.8l-9.4-1.4l-3.6-5.8v-2.9l5.8-2.2l2.2-2.9l0.7-4.3l-0.7-7.2l-5-3.6l0.7-18
			l1.4-3.6L161.2,850.8L161.2,850.8z"/>
		<path class="st1" d="M184.2,953.7l5-1.4l1.4-7.9l2.2-2.2l2.2-8.6l0.7-4.3h-2.9l-5,7.9v5.8l-3.6,5L184.2,953.7L184.2,953.7z"/>
		<path class="st1" d="M159,952.2l6.5-4.3l7.2,4.3v4.3l-3.6,4.3h-6.5L159,952.2z"/>
		<path class="st1" d="M90.7,1073.1l6.5,5l6.5-1.4v-3.6l13.7-9.4v-2.9l-23,6.5v3.6L90.7,1073.1z"/>
		<path class="st1" d="M89.9,1080.3l7.9,2.2l-7.2-5.8L89.9,1080.3z"/>
		<path class="st1" d="M129.5,1072.4l2.2,1.4l1.4-3.6L129.5,1072.4z"/>
	</g>
	<g id="Okinawa">
		<path class="st1" d="M320,219.7l5-3.6l-0.7-3.6l1.4-6.5l4.3-0.7l-2.2-2.9l0.7-2.9l6.5-3.6l2.2-2.9l5.8-1.4l-0.7-3.6l4.3-1.4
			l4.3-4.3l0.7-3.6l-0.7-3.6l-2.9-1.4l-7.2,7.9l-0.7,4.3l-12.2-1.4v2.2l5,5l-11.5,7.2l-0.7,9.4l-3.6,2.9v5.8L320,219.7z"/>
		<path class="st1" d="M268.2,202.5l4.3,0.7l-0.7,4.3L268.2,202.5z"/>
		<path class="st1" d="M191.3,291v4.3v5.8l9.4-2.9l-6.5-2.2l-0.7-2.9L191.3,291z"/>
		<path class="st1" d="M128.7,314.7l1.4,7.2l6.5-1.4l-0.7-5l4.3-5l0.7-4.3H138l0.7,2.9l-5,5.8L128.7,314.7L128.7,314.7z"/>
		<path class="st1" d="M105.6,321.9h4.3l0.7-5.8l7.9,1.4l1.4,1.4v2.2l-4.3,4.3l-10.1-0.7C105.6,324.8,105.6,321.9,105.6,321.9z"/>
	</g>
</g>
</svg>
