<?xml version="1.0" encoding="utf-8"?>
<!-- Generator: Adobe Illustrator 26.0.3, SVG Export Plug-In . SVG Version: 6.00 Build 0)  -->
<svg version="1.1" id="レイヤー_1" xmlns="http://www.w3.org/2000/svg" xmlns:xlink="http://www.w3.org/1999/xlink" x="0px"
	 y="0px" viewBox="0 0 389 422" style="enable-background:new 0 0 389 422;" xml:space="preserve">
<style type="text/css">
	.st0{fill:#F3F3F3;}
	.st1{fill:#C4C4C4;}
	.st2{fill:none;}
	.st3{font-family:'ArialRoundedMTBold';}
	.st4{font-size:28px;}
</style>
<g id="price">
	<g id="Rectangle_83">
		<path class="st0" d="M0,0h389v422H0V0z"/>
		<path class="st0" d="M0,0h389v422H0V0z"/>
	</g>
	<rect id="a" x="117" y="132" class="st1" width="46" height="46"/>
	<rect id="b" x="172" y="132" class="st1" width="46" height="46"/>
	<rect id="c" x="227" y="132" class="st1" width="46" height="46"/>
	<path id="A_B_C" d="M143,207.4h-7.3l-1.2,3.5h-5l7.1-19.7h5.5l7.1,19.7h-5.1L143,207.4z M141.7,203.7l-2.4-7.2l-2.4,7.2H141.7z
		 M198.9,200.8c1.1,0.2,2.1,0.8,2.7,1.7c0.7,0.9,1,1.9,1,3c0,1.6-0.6,2.9-1.7,3.9c-1.1,1-2.7,1.4-4.8,1.4H187v-19.7h8.8
		c2,0,3.6,0.5,4.7,1.4c1.1,0.9,1.7,2.2,1.7,3.7c0,1.2-0.3,2.1-0.9,2.9C200.7,199.9,199.9,200.5,198.9,200.8z M191.8,199.2h3.1
		c0.8,0,1.4-0.2,1.8-0.5c0.4-0.4,0.6-0.9,0.6-1.5c0-0.7-0.2-1.2-0.6-1.5c-0.4-0.4-1-0.5-1.8-0.5h-3.1V199.2z M195.3,207
		c0.8,0,1.4-0.2,1.8-0.5c0.4-0.4,0.7-0.9,0.7-1.6s-0.2-1.2-0.7-1.6c-0.4-0.4-1.1-0.6-1.9-0.6h-3.5v4.3H195.3z M240.2,201
		c0-1.9,0.4-3.7,1.3-5.2c0.8-1.5,2-2.7,3.5-3.6c1.5-0.9,3.2-1.3,5.1-1.3c2.3,0,4.3,0.6,6,1.8c1.7,1.2,2.8,2.9,3.3,5h-5.3
		c-0.4-0.8-1-1.4-1.7-1.9c-0.7-0.4-1.5-0.6-2.4-0.6c-1.5,0-2.7,0.5-3.6,1.5c-0.9,1-1.4,2.4-1.4,4.1c0,1.7,0.5,3.1,1.4,4.1
		c0.9,1,2.1,1.5,3.6,1.5c0.9,0,1.7-0.2,2.4-0.6c0.7-0.4,1.3-1.1,1.7-1.9h5.3c-0.6,2.1-1.7,3.8-3.3,5c-1.7,1.2-3.7,1.8-6,1.8
		c-1.9,0-3.6-0.4-5.1-1.3c-1.5-0.9-2.7-2-3.5-3.6S240.2,202.9,240.2,201z"/>
</g>
<rect x="41.9" y="45" class="st2" width="355.1" height="74"/>
<text transform="matrix(1 0 0 1 41.8679 69.1919)" class="st3 st4">COVID DATA COMICS</text>
</svg>
