<?xml version="1.0" encoding="utf-8"?>
<!-- Generator: Adobe Illustrator 26.0.3, SVG Export Plug-In . SVG Version: 6.00 Build 0)  -->
<svg version="1.1" id="レイヤー_1" xmlns="http://www.w3.org/2000/svg" xmlns:xlink="http://www.w3.org/1999/xlink" x="0px"
	 y="0px" viewBox="0 0 389 422" style="enable-background:new 0 0 389 422;" xml:space="preserve">
<style type="text/css">
	.st0{fill:#F3F3F3;}
	.st1{fill:#BDBEBE;}
	.st2{fill:none;}
</style>
<g id="Rectangle_83">
	<path class="st0" d="M0,0h389v422H0V0z"/>
	<path class="st0" d="M0,0h389v422H0V0z"/>
</g>
<g id="price_00000031189383722547056240000011101753392797752246_">
	<path id="c_00000077295869565292353740000000132343401560449468_" class="st1" d="M241.1,220.8l4.8,2.1l0.6,1l1.9-0.6l0.6,0.2
		l1.7-3.3l0.8-0.2l0.8,0.4l1.5,0.4v-1l1-0.2l0.2-1l0.4-0.6l-0.2-1l1-0.6l-0.6-0.4l0.6-0.8l-0.4-0.6v-1l1.2-0.8l-0.6-0.4l0.6-1.9
		v-0.8l-0.6-0.4v-1.9l-0.4-1.2l-0.2-1.2v-0.8l-0.4-0.8l-0.2-0.6l-1-0.4l0.2-1.2l-0.6-0.6v-1.7l-2.3-2.9l-0.8,0.6l-0.6,0.6l-3.5,0.8
		l-3.5,1.9l-0.6-0.6l-1.2,0.8v1.7l-0.4,0.6l0.4,1.9l0.2,2.1l-0.6,1.9v1.9l-0.8,2.5l-1.2,0.8l0.4,1.9l1.7,1.9v0.8l-0.4,0.6l0.4,1
		L241.1,220.8z"/>
	<path id="b_00000070835441722342505560000016522795622244271280_" class="st1" d="M229.4,196.7v-1.2l-0.8-0.4l0.4-1.7l1.2-1.2
		l2.9-0.8l0.6-3.3l0.6-0.6v-0.8l-0.6-0.4l0.4-2.7l1.9,0.6l1.2-0.2l1.2,5.4l1.2,0.8l1.7-1v-1.9l1.9,1l1,1l1-0.6l-0.2-1.9l1-1.2
		l-0.2-1.9l-1.2-1l-1.5,1.2l-1.9,0.2l-1.7,0.8v-2.3l0.4-2.1l1.2-1.9h1.7l2.5,2.3l2.5-0.4l-0.6,4.4l0.6,1.2v4.6l1.2,3.5l1.9,0.8
		l0.2,0.6l-1,0.4l-0.2,0.6l-3.3,0.8l-3.7,2.1l-0.8-0.6v-2.7l-2.5-0.4l-1.7,1l-3.7-1l-1.2,0.6l-2.5-0.2L229.4,196.7z"/>
	<path id="a_00000011020252360539071770000007140820116232534698_" class="st1" d="M231.9,180.3l0.8-0.2v-0.6l1.2-1l1.2-0.4
		l-0.2-1.9l2.1-1.7l0.8-1.2l1,0.6l3.5,1.2l1.9-1.7l-1-1.5l-2.1-0.6l-2.5-2.9l-1-0.2l-1.2,0.6l-1.9-2.1l-0.8-0.2l-0.8-1.2v-0.6
		l0.6-0.6l0.8-2.5l0.8-0.8l1.5-0.2l1.2,0.2l1,0.8l1.5,1.7l0.8,1.5h1l0.8-1.2l3.7-2.5l5-1.5l12.3,7.1l6,3.3l0.8-2.5v-3.5l0.8-2.5
		l1-0.8l1.2-2.3l5.8-5.8l1.5-1l2.3,0.2l0.6,0.4l3.1-0.2l0.2-1.7l0.6-0.2l0.6,0.6l1.7,0.4l1.7-1.9l0.4-1.2l3.7-1l0.8-1l2.3-1.9V143
		l-1-0.4l-1.7,2.1l-2.9,0.8l-0.4-1.2l0.8-0.2l-1.5-3.5l1,0.4v-1l-1.9-0.2l-1-1.5l-0.2-2.1l0.8-4.2l1.5-1v-3.1l-0.8-0.2l-2.5,3.3
		l-1.5,1.7l-2.1,2.5l-2.7,0.2l-1.9-0.6l-1.9-2.5l-0.6,1.2l-1-1.5l-3.3,0.8l-1.2-0.8v-1l-2.7-1l-5-3.7l-3.5-3.3l-2.7-3.5l-3.3-4.4
		l-2.9-2.3l-2.5-2.5h-0.6v1l-2.5,0.2l-0.6,1l0.2,2.1l-0.6,0.6l0.2,1.9l2.3,3.5l0.8,2.7v3.3l-0.4,2.7l-1.2,1.7l0.8,2.5l-0.2,1.7
		l-0.4,1.2l-0.4,1.7l-2.3,1.7l-0.4,1l0.2,2.1l1.2,4l-0.6,1.9l-2.5,2.1l-1.7-0.2l-1-1l-1.7,0.4l-2.1-0.8l-1-1.2l-2.1-0.2l-1,0.6
		l0.2,1.5l1.9,3.1v1.2l-1.5,1.2l-0.4,0.6l-0.6,1.9l-1.2-0.8l-1.2,1.5l-2.5,1l-0.4,1.2l0.2,2.9l-1.2,1.7l1.5,2.3l1.9,1.2l1.5,2.5v1.9
		l-1.5,4l0.6,2.7L231.9,180.3z"/>
	<g id="COVID">
		<path d="M61.1,62.9c0,0.6-0.2,1.3-0.5,2.1c-0.3,0.7-0.8,1.5-1.5,2.2c-0.7,0.7-1.5,1.3-2.6,1.7c-1,0.4-2.3,0.7-3.7,0.7
			c-1.1,0-2-0.1-2.9-0.3c-0.9-0.2-1.7-0.5-2.4-0.9c-0.7-0.4-1.4-1-1.9-1.7c-0.5-0.6-1-1.3-1.4-2.1c-0.4-0.8-0.7-1.6-0.8-2.5
			c-0.2-0.9-0.3-1.8-0.3-2.8c0-1.6,0.2-3.1,0.7-4.3c0.5-1.3,1.1-2.4,2-3.3c0.9-0.9,1.9-1.6,3.1-2.1c1.2-0.5,2.4-0.7,3.8-0.7
			c1.6,0,3.1,0.3,4.3,1c1.3,0.6,2.2,1.4,2.9,2.4c0.7,1,1,1.9,1,2.7c0,0.5-0.2,0.9-0.5,1.2s-0.7,0.5-1.2,0.5c-0.5,0-0.9-0.1-1.2-0.4
			s-0.5-0.7-0.9-1.3c-0.5-1-1.2-1.7-1.9-2.2c-0.7-0.5-1.6-0.7-2.6-0.7c-1.7,0-3,0.6-4,1.9c-1,1.3-1.5,3.1-1.5,5.4
			c0,1.6,0.2,2.9,0.7,3.9c0.4,1,1.1,1.8,1.9,2.3c0.8,0.5,1.7,0.8,2.8,0.8c1.2,0,2.2-0.3,3-0.9c0.8-0.6,1.4-1.4,1.8-2.5
			c0.2-0.5,0.4-1,0.6-1.3c0.3-0.3,0.7-0.5,1.2-0.5c0.5,0,0.9,0.2,1.2,0.5C61,61.9,61.1,62.4,61.1,62.9z"/>
		<path d="M73.6,48.8c2.1,0,3.9,0.4,5.4,1.3c1.5,0.8,2.6,2,3.4,3.6c0.8,1.6,1.1,3.4,1.1,5.5c0,1.5-0.2,3-0.6,4.2
			c-0.4,1.3-1,2.4-1.9,3.3c-0.8,0.9-1.9,1.6-3.1,2.1c-1.2,0.5-2.6,0.7-4.2,0.7c-1.6,0-3-0.3-4.2-0.8c-1.2-0.5-2.3-1.2-3.1-2.1
			c-0.8-0.9-1.5-2-1.9-3.3c-0.4-1.3-0.6-2.7-0.6-4.2c0-1.5,0.2-3,0.7-4.2c0.4-1.3,1.1-2.4,1.9-3.3c0.8-0.9,1.9-1.6,3.1-2.1
			S72.1,48.8,73.6,48.8z M79.4,59.1c0-1.5-0.2-2.7-0.7-3.8c-0.5-1.1-1.2-1.9-2-2.4c-0.9-0.6-1.9-0.8-3-0.8c-0.8,0-1.6,0.2-2.2,0.5
			c-0.7,0.3-1.3,0.8-1.8,1.3c-0.5,0.6-0.9,1.3-1.2,2.2C68.1,57,68,58,68,59.1c0,1.1,0.1,2.2,0.4,3.1c0.3,0.9,0.7,1.7,1.2,2.3
			c0.5,0.6,1.1,1.1,1.8,1.4c0.7,0.3,1.4,0.5,2.2,0.5c1,0,2-0.3,2.9-0.8c0.9-0.5,1.6-1.3,2.1-2.4C79.1,62,79.4,60.7,79.4,59.1z"/>
		<path d="M89.2,51.5l4.5,13.4l4.6-13.5c0.2-0.7,0.4-1.2,0.5-1.5c0.1-0.3,0.3-0.5,0.6-0.8c0.3-0.2,0.6-0.3,1.1-0.3
			c0.3,0,0.7,0.1,1,0.3c0.3,0.2,0.5,0.4,0.7,0.7c0.2,0.3,0.3,0.6,0.3,0.9c0,0.2,0,0.4-0.1,0.6s-0.1,0.5-0.2,0.7
			c-0.1,0.2-0.2,0.5-0.2,0.7l-4.9,13.1c-0.2,0.5-0.3,1-0.5,1.4c-0.2,0.5-0.4,0.8-0.6,1.2c-0.2,0.3-0.5,0.6-0.9,0.8
			c-0.4,0.2-0.8,0.3-1.4,0.3s-1-0.1-1.4-0.3c-0.4-0.2-0.7-0.5-0.9-0.8c-0.2-0.4-0.4-0.7-0.6-1.2c-0.2-0.4-0.3-0.9-0.5-1.4l-4.8-13
			c-0.1-0.2-0.2-0.5-0.3-0.7c-0.1-0.2-0.2-0.5-0.2-0.7c-0.1-0.3-0.1-0.5-0.1-0.7c0-0.5,0.2-0.9,0.6-1.3c0.4-0.4,0.8-0.6,1.4-0.6
			c0.7,0,1.2,0.2,1.5,0.6S88.9,50.5,89.2,51.5z"/>
		<path d="M105.7,67.1V51.3c0-0.8,0.2-1.4,0.6-1.8c0.4-0.4,0.9-0.6,1.4-0.6c0.6,0,1.1,0.2,1.5,0.6c0.4,0.4,0.6,1,0.6,1.9v15.8
			c0,0.8-0.2,1.4-0.6,1.9c-0.4,0.4-0.9,0.6-1.5,0.6c-0.6,0-1.1-0.2-1.4-0.6C105.8,68.5,105.7,67.9,105.7,67.1z"/>
		<path d="M116.8,49.1h5.3c1.4,0,2.6,0.1,3.5,0.4c1,0.3,1.9,0.7,2.7,1.4c2.1,1.8,3.1,4.5,3.1,8.1c0,1.2-0.1,2.3-0.3,3.3
			c-0.2,1-0.5,1.9-1,2.7c-0.4,0.8-1,1.5-1.7,2.1c-0.5,0.5-1.1,0.9-1.8,1.2c-0.6,0.3-1.3,0.5-2.1,0.6c-0.7,0.1-1.6,0.2-2.5,0.2h-5.3
			c-0.7,0-1.3-0.1-1.7-0.3c-0.4-0.2-0.6-0.5-0.7-0.9c-0.1-0.4-0.2-0.9-0.2-1.6V51.6c0-0.9,0.2-1.5,0.6-1.9
			C115.3,49.3,115.9,49.1,116.8,49.1z M118.3,52.4V66h3.1c0.7,0,1.2,0,1.6-0.1c0.4,0,0.8-0.1,1.2-0.3c0.4-0.1,0.8-0.4,1.1-0.6
			c1.4-1.1,2-3.1,2-5.9c0-2-0.3-3.5-0.9-4.4c-0.6-1-1.3-1.6-2.2-1.9c-0.9-0.3-1.9-0.4-3.2-0.4H118.3z"/>
		<path d="M144.5,49.1h5.3c1.4,0,2.6,0.1,3.5,0.4c1,0.3,1.9,0.7,2.7,1.4c2.1,1.8,3.1,4.5,3.1,8.1c0,1.2-0.1,2.3-0.3,3.3
			c-0.2,1-0.5,1.9-1,2.7c-0.4,0.8-1,1.5-1.7,2.1c-0.5,0.5-1.1,0.9-1.8,1.2c-0.6,0.3-1.3,0.5-2.1,0.6c-0.7,0.1-1.6,0.2-2.5,0.2h-5.3
			c-0.7,0-1.3-0.1-1.7-0.3c-0.4-0.2-0.6-0.5-0.7-0.9c-0.1-0.4-0.2-0.9-0.2-1.6V51.6c0-0.9,0.2-1.5,0.6-1.9
			C143,49.3,143.6,49.1,144.5,49.1z M146.1,52.4V66h3.1c0.7,0,1.2,0,1.6-0.1c0.4,0,0.8-0.1,1.2-0.3c0.4-0.1,0.8-0.4,1.1-0.6
			c1.4-1.1,2-3.1,2-5.9c0-2-0.3-3.5-0.9-4.4c-0.6-1-1.3-1.6-2.2-1.9c-0.9-0.3-1.9-0.4-3.2-0.4H146.1z"/>
		<path d="M174.5,66.9l-1-2.5h-8.1l-1,2.6c-0.4,1-0.7,1.7-1,2c-0.3,0.4-0.7,0.5-1.3,0.5c-0.5,0-1-0.2-1.4-0.6
			c-0.4-0.4-0.6-0.8-0.6-1.3c0-0.3,0-0.6,0.1-0.8c0.1-0.3,0.2-0.7,0.5-1.2l5.1-13c0.1-0.4,0.3-0.8,0.5-1.3c0.2-0.5,0.4-1,0.7-1.3
			c0.2-0.3,0.5-0.6,0.9-0.8c0.4-0.2,0.8-0.3,1.4-0.3c0.6,0,1,0.1,1.4,0.3c0.4,0.2,0.7,0.5,0.9,0.8c0.2,0.3,0.4,0.7,0.6,1.1
			c0.2,0.4,0.4,0.9,0.6,1.6l5.2,12.9c0.4,1,0.6,1.7,0.6,2.1c0,0.5-0.2,0.9-0.6,1.3c-0.4,0.4-0.9,0.6-1.4,0.6c-0.3,0-0.6-0.1-0.8-0.2
			c-0.2-0.1-0.4-0.3-0.6-0.5c-0.2-0.2-0.3-0.5-0.5-0.9C174.8,67.6,174.6,67.2,174.5,66.9z M166.4,61.4h6l-3-8.3L166.4,61.4z"/>
		<path d="M192.3,52.5h-4.4v14.6c0,0.8-0.2,1.5-0.6,1.9c-0.4,0.4-0.9,0.6-1.4,0.6c-0.6,0-1.1-0.2-1.5-0.6c-0.4-0.4-0.6-1-0.6-1.9
			V52.5h-4.4c-0.7,0-1.2-0.2-1.5-0.5c-0.3-0.3-0.5-0.7-0.5-1.2c0-0.5,0.2-0.9,0.5-1.2c0.4-0.3,0.9-0.5,1.5-0.5h12.9
			c0.7,0,1.2,0.2,1.6,0.5c0.3,0.3,0.5,0.7,0.5,1.2c0,0.5-0.2,0.9-0.5,1.2C193.6,52.3,193,52.5,192.3,52.5z"/>
		<path d="M207.9,66.9l-1-2.5h-8.1l-1,2.6c-0.4,1-0.7,1.7-1,2c-0.3,0.4-0.7,0.5-1.3,0.5c-0.5,0-1-0.2-1.4-0.6
			c-0.4-0.4-0.6-0.8-0.6-1.3c0-0.3,0-0.6,0.1-0.8c0.1-0.3,0.2-0.7,0.5-1.2l5.1-13c0.1-0.4,0.3-0.8,0.5-1.3c0.2-0.5,0.4-1,0.7-1.3
			c0.2-0.3,0.5-0.6,0.9-0.8c0.4-0.2,0.8-0.3,1.4-0.3c0.6,0,1,0.1,1.4,0.3c0.4,0.2,0.7,0.5,0.9,0.8c0.2,0.3,0.4,0.7,0.6,1.1
			c0.2,0.4,0.4,0.9,0.6,1.6l5.2,12.9c0.4,1,0.6,1.7,0.6,2.1c0,0.5-0.2,0.9-0.6,1.3c-0.4,0.4-0.9,0.6-1.4,0.6c-0.3,0-0.6-0.1-0.8-0.2
			c-0.2-0.1-0.4-0.3-0.6-0.5c-0.2-0.2-0.3-0.5-0.5-0.9C208.2,67.6,208,67.2,207.9,66.9z M199.8,61.4h6l-3-8.3L199.8,61.4z"/>
		<path d="M239.3,62.9c0,0.6-0.2,1.3-0.5,2.1c-0.3,0.7-0.8,1.5-1.5,2.2c-0.7,0.7-1.5,1.3-2.6,1.7c-1,0.4-2.3,0.7-3.7,0.7
			c-1.1,0-2-0.1-2.9-0.3c-0.9-0.2-1.7-0.5-2.4-0.9c-0.7-0.4-1.4-1-1.9-1.7c-0.5-0.6-1-1.3-1.4-2.1c-0.4-0.8-0.7-1.6-0.8-2.5
			c-0.2-0.9-0.3-1.8-0.3-2.8c0-1.6,0.2-3.1,0.7-4.3c0.5-1.3,1.1-2.4,2-3.3c0.9-0.9,1.9-1.6,3.1-2.1c1.2-0.5,2.4-0.7,3.8-0.7
			c1.6,0,3.1,0.3,4.3,1c1.3,0.6,2.2,1.4,2.9,2.4c0.7,1,1,1.9,1,2.7c0,0.5-0.2,0.9-0.5,1.2s-0.7,0.5-1.2,0.5c-0.5,0-0.9-0.1-1.2-0.4
			s-0.5-0.7-0.9-1.3c-0.5-1-1.2-1.7-1.9-2.2c-0.7-0.5-1.6-0.7-2.6-0.7c-1.7,0-3,0.6-4,1.9c-1,1.3-1.5,3.1-1.5,5.4
			c0,1.6,0.2,2.9,0.7,3.9c0.4,1,1.1,1.8,1.9,2.3c0.8,0.5,1.7,0.8,2.8,0.8c1.2,0,2.2-0.3,3-0.9c0.8-0.6,1.4-1.4,1.8-2.5
			c0.2-0.5,0.4-1,0.6-1.3c0.3-0.3,0.7-0.5,1.2-0.5c0.5,0,0.9,0.2,1.2,0.5C239.1,61.9,239.3,62.4,239.3,62.9z"/>
		<path d="M251.7,48.8c2.1,0,3.9,0.4,5.4,1.3c1.5,0.8,2.6,2,3.4,3.6c0.8,1.6,1.1,3.4,1.1,5.5c0,1.5-0.2,3-0.6,4.2
			c-0.4,1.3-1,2.4-1.9,3.3c-0.8,0.9-1.9,1.6-3.1,2.1c-1.2,0.5-2.6,0.7-4.2,0.7c-1.6,0-3-0.3-4.2-0.8c-1.2-0.5-2.3-1.2-3.1-2.1
			c-0.8-0.9-1.5-2-1.9-3.3c-0.4-1.3-0.6-2.7-0.6-4.2c0-1.5,0.2-3,0.7-4.2c0.4-1.3,1.1-2.4,1.9-3.3c0.8-0.9,1.9-1.6,3.1-2.1
			S250.2,48.8,251.7,48.8z M257.5,59.1c0-1.5-0.2-2.7-0.7-3.8c-0.5-1.1-1.2-1.9-2-2.4c-0.9-0.6-1.9-0.8-3-0.8
			c-0.8,0-1.6,0.2-2.2,0.5c-0.7,0.3-1.3,0.8-1.8,1.3c-0.5,0.6-0.9,1.3-1.2,2.2c-0.3,0.9-0.4,1.9-0.4,3.1c0,1.1,0.1,2.2,0.4,3.1
			c0.3,0.9,0.7,1.7,1.2,2.3c0.5,0.6,1.1,1.1,1.8,1.4c0.7,0.3,1.4,0.5,2.2,0.5c1,0,2-0.3,2.9-0.8c0.9-0.5,1.6-1.3,2.1-2.4
			C257.3,62,257.5,60.7,257.5,59.1z"/>
		<path d="M271.9,66.2l-3.2-12.8v13.8c0,0.8-0.2,1.3-0.5,1.7s-0.8,0.6-1.4,0.6c-0.5,0-1-0.2-1.3-0.6c-0.3-0.4-0.5-1-0.5-1.7V51.4
			c0-0.9,0.2-1.5,0.7-1.8c0.5-0.3,1.1-0.5,1.8-0.5h1.3c0.8,0,1.3,0.1,1.6,0.2s0.6,0.4,0.8,0.7s0.4,0.9,0.6,1.7l2.9,11l2.9-11
			c0.2-0.8,0.4-1.4,0.6-1.7s0.4-0.6,0.8-0.7s0.9-0.2,1.6-0.2h1.3c0.8,0,1.4,0.2,1.8,0.5c0.5,0.3,0.7,0.9,0.7,1.8v15.9
			c0,0.8-0.2,1.3-0.5,1.7s-0.8,0.6-1.4,0.6c-0.5,0-1-0.2-1.3-0.6c-0.3-0.4-0.5-1-0.5-1.7V53.4l-3.2,12.8c-0.2,0.8-0.4,1.4-0.5,1.8
			c-0.1,0.4-0.4,0.7-0.7,1.1s-0.8,0.5-1.5,0.5c-0.5,0-0.9-0.1-1.2-0.3s-0.6-0.5-0.8-0.8c-0.2-0.3-0.3-0.7-0.4-1.1
			C272.1,67,272,66.6,271.9,66.2z"/>
		<path d="M288.6,67.1V51.3c0-0.8,0.2-1.4,0.6-1.8c0.4-0.4,0.9-0.6,1.4-0.6c0.6,0,1.1,0.2,1.5,0.6c0.4,0.4,0.6,1,0.6,1.9v15.8
			c0,0.8-0.2,1.4-0.6,1.9c-0.4,0.4-0.9,0.6-1.5,0.6c-0.6,0-1.1-0.2-1.4-0.6C288.8,68.5,288.6,67.9,288.6,67.1z"/>
		<path d="M314.3,62.9c0,0.6-0.2,1.3-0.5,2.1c-0.3,0.7-0.8,1.5-1.5,2.2c-0.7,0.7-1.5,1.3-2.6,1.7c-1,0.4-2.3,0.7-3.7,0.7
			c-1.1,0-2-0.1-2.9-0.3c-0.9-0.2-1.7-0.5-2.4-0.9c-0.7-0.4-1.4-1-1.9-1.7c-0.5-0.6-1-1.3-1.4-2.1c-0.4-0.8-0.7-1.6-0.8-2.5
			c-0.2-0.9-0.3-1.8-0.3-2.8c0-1.6,0.2-3.1,0.7-4.3c0.5-1.3,1.1-2.4,2-3.3c0.9-0.9,1.9-1.6,3.1-2.1c1.2-0.5,2.4-0.7,3.8-0.7
			c1.6,0,3.1,0.3,4.3,1c1.3,0.6,2.2,1.4,2.9,2.4c0.7,1,1,1.9,1,2.7c0,0.5-0.2,0.9-0.5,1.2s-0.7,0.5-1.2,0.5c-0.5,0-0.9-0.1-1.2-0.4
			s-0.5-0.7-0.9-1.3c-0.5-1-1.2-1.7-1.9-2.2c-0.7-0.5-1.6-0.7-2.6-0.7c-1.7,0-3,0.6-4,1.9c-1,1.3-1.5,3.1-1.5,5.4
			c0,1.6,0.2,2.9,0.7,3.9c0.4,1,1.1,1.8,1.9,2.3c0.8,0.5,1.7,0.8,2.8,0.8c1.2,0,2.2-0.3,3-0.9c0.8-0.6,1.4-1.4,1.8-2.5
			c0.2-0.5,0.4-1,0.6-1.3c0.3-0.3,0.7-0.5,1.2-0.5c0.5,0,0.9,0.2,1.2,0.5C314.1,61.9,314.3,62.4,314.3,62.9z"/>
		<path d="M333.1,63.2c0,1.2-0.3,2.3-0.9,3.3c-0.6,1-1.5,1.7-2.7,2.3s-2.6,0.8-4.3,0.8c-2,0-3.6-0.4-4.9-1.1
			c-0.9-0.5-1.7-1.3-2.2-2.2c-0.6-0.9-0.9-1.8-0.9-2.6c0-0.5,0.2-0.9,0.5-1.3c0.3-0.4,0.8-0.5,1.3-0.5c0.4,0,0.8,0.1,1.1,0.4
			c0.3,0.3,0.5,0.7,0.8,1.2c0.3,0.6,0.5,1.2,0.8,1.6c0.3,0.4,0.7,0.8,1.3,1.1c0.5,0.3,1.2,0.4,2.1,0.4c1.2,0,2.2-0.3,2.9-0.8
			s1.1-1.3,1.1-2.1c0-0.7-0.2-1.2-0.6-1.6c-0.4-0.4-0.9-0.7-1.6-1s-1.5-0.5-2.6-0.7c-1.4-0.3-2.6-0.7-3.6-1.2s-1.7-1.1-2.3-1.8
			c-0.6-0.8-0.9-1.7-0.9-2.9c0-1.1,0.3-2.1,0.9-2.9c0.6-0.9,1.5-1.5,2.6-2c1.1-0.5,2.5-0.7,4-0.7c1.2,0,2.3,0.2,3.2,0.5
			c0.9,0.3,1.6,0.7,2.2,1.2c0.6,0.5,1,1,1.3,1.6c0.3,0.6,0.4,1.1,0.4,1.6c0,0.5-0.2,0.9-0.5,1.3c-0.3,0.4-0.8,0.6-1.3,0.6
			c-0.5,0-0.8-0.1-1.1-0.3c-0.2-0.2-0.5-0.6-0.8-1.1c-0.4-0.8-0.8-1.3-1.3-1.8c-0.5-0.4-1.3-0.6-2.5-0.6c-1,0-1.9,0.2-2.5,0.7
			c-0.6,0.5-1,1-1,1.7c0,0.4,0.1,0.7,0.3,1c0.2,0.3,0.5,0.5,0.9,0.8c0.4,0.2,0.8,0.4,1.2,0.5c0.4,0.1,1,0.3,1.9,0.5
			c1.1,0.3,2.2,0.6,3.1,0.9c0.9,0.3,1.7,0.7,2.3,1.2c0.6,0.5,1.1,1,1.5,1.7C333,61.3,333.1,62.2,333.1,63.2z"/>
	</g>
	<path id="AREA" class="st2" d="M50.9,243.3c0,0,69.1,5.8,115.3-40.3c46.1-46.1,40.3-115.3,40.3-115.3"/>
	<g id="Hopporyodo">
		<path class="st1" d="M310.6,123.9h1.7l0.8-1.7l2.5-1.5l0.4-1.9l2.7-2.9l0.6-2.3l2.3,0.2l1.9-1.7l3.3-3.5l3.3-2.3h1.5l1-0.6
			l-0.2-2.9l-0.8,0.2l-2.7,2.1l-2.3,2.3l-3.1,0.6l-1.7-1.9v2.5l-2.3,2.3l-0.2,0.4l-1.7,0.6l-1,2.5l-1.2,0.8l-0.4,1.7l-1.7,0.6
			l0.6,2.1l-1.9,0.8v0.6l-0.8,0.2l0.2,0.8l-0.6,0.4l0.2,1.7L310.6,123.9z"/>
		<path class="st1" d="M294.8,136.8l1.2,1h0.6v-2.3l0.6-1l1.5-0.8l1-1.9l0.4-1.2l1.7-1.2l0.4-1.5l1.9-0.6l1.5-1l1.5-0.8l0.4-1.2
			l-1.9,0.6l-3.3-1l-2.3,4v0.8l-1,0.6l-0.4,2.1l-1.2,1l-0.2,0.6l-2.3,2.7L294.8,136.8L294.8,136.8z"/>
		<path class="st1" d="M309.1,135.9l0.8,0.6l2.7-1.9l-1-1l-1.5,0.4l-1,1V135.9z"/>
		<path class="st1" d="M303.5,140.9h0.8v-1h-0.8V140.9z"/>
	</g>
	<g id="Hokkaido">
		<path class="st1" d="M242.3,116.8h1.5l-0.2-1.2l-0.8-0.8l-1.2,0.6v0.6L242.3,116.8z"/>
		<path class="st1" d="M239.8,113.7l0.6-0.8v-1.2l-1,0.2L239.8,113.7z"/>
		<path class="st1" d="M223.8,166.9l-0.4,2.1l-0.6,1l-0.8-1l0.4-1.2L223.8,166.9z"/>
	</g>
	<g id="Miyagi">
		<path class="st1" d="M235.2,237.9l2.5,0.4l0.4,0.6l2.3,0.2l0.8,1.7l1.9-1.5h0.8l-0.2-3.1l1.5-2.5v-2.1l2.3-0.6l0.4-0.8h1.2
			l1.9,2.1l0.4-0.4V230h-0.8l0.6-1.7l-0.6-0.4l0.2-1l-0.2-1.9l0.8-0.4l0.2-1.2l0.2-1.2l0.8,0.4l-0.4-2.1l-1.5-0.6l-1.9,3.7l-0.6-0.4
			l-2.1,0.8l-0.6-1l-4.8-2.1L240,221l-0.2,0.6l-1.7,0.8v0.6l1,1.9l-0.2,1.7l-0.8-0.2l-0.4,0.8v0.6l0.6,0.4v1.2l0.2,1l-0.8,1.2
			l-0.4,1.5v1.2l-0.8,0.4l-0.2,1l-1.2,0.6L235.2,237.9z"/>
	</g>
	<g id="Akita">
		<path class="st1" d="M229.4,196.7l2.9-0.4h1l1-0.4l3.7,0.8l1.5-1l2.7,0.6v2.5l-1.2,0.8v1.7l-0.4,0.6l0.4,1.7l0.2,2.5l-0.6,1.5v2.1
			l-0.8,2.5l-1.2,0.8l0.4,1.9l1.7,1.9l0.2,0.8l-0.6,0.6l0.4,1.2l0.2,1.5l-1,0.2l-0.2,0.6l-1.5,0.8l-1.9-1.7l-2.9-0.8l-2.7-1.5h-1.2
			l1.9-4.2l0.2-5l-0.8-1.5v-1.7h-3.1l-0.6-0.6l-0.2-1.5h0.8l0.8,0.6l1-0.8v-0.8l1-1.5v-1.9l0.4-1L229.4,196.7z"/>
	</g>
	<g id="Yamagata">
		<path class="st1" d="M229.2,218.3l1.5,0.2l2.7,1.5l2.9,0.8l1.7,1.5l0.2,0.8l1,1.7l-0.4,1.9l-0.6-0.2l-0.4,0.8v0.6l0.6,0.4l0.2,2.3
			l-1.5,2.5l0.2,1.5l-0.8,0.4l-0.4,1l-1.2,0.6v0.8l0.4,0.6l-0.8,0.6l0.4,2.3l-0.8,0.4l-6-1l-1.5-1l1-3.1l-0.6-0.4l0.8-1.5h0.8l1-1
			v-0.8l-1.5-1.2h-0.8l-0.2-1.9l-1.5-1.2l2.1-2.7l1.7-5.4L229.2,218.3z"/>
	</g>
	<g id="Fukushima">
		<path class="st1" d="M228.2,240.4l5.8,1l0.8-0.4l-0.4-2.3l0.8-0.8l2.5,0.4l0.4,0.6l2.3,0.2l0.8,1.7l1.9-1.5h0.8l1.2,3.1v2.9
			l0.2,3.3l0.4,1.5l-0.4,0.8l-0.4,0.8v2.3l-2.1,2.5l-2.3-0.6l-0.6-0.6l-2.1,1.9l-1.5-1.2h-0.8l-0.8-2.3l-1.9-1.5l-1-0.2h-2.1
			l-3.5,2.1l-0.8,0.6l-2.1,1h-0.8l-0.6-0.4l0.4-0.6v-1.7l-1-1.9l-0.4-0.8l0.2-0.6l0.2-0.8l-0.4-0.6l0.2-1l3.5-1.5l1.2-0.6l-0.4-0.6
			v-0.8l1-0.4l0.6-1.7L228.2,240.4z"/>
	</g>
	<g id="Ibaraki">
		<path class="st1" d="M231.1,272l0.8,0.8l2.5,0.2l0.4,0.8h2.3l1.2-1h1.9l0.8,0.4l1.7,1.7h1l-3.1-5.4l-0.2-0.8l-0.6-0.6l0.2-2.3
			l0.8-0.8v-0.6l-0.4-0.8l0.6-1.2l1.2-3.7l0.6-1.9l-2.5-0.6l-0.4-0.6l-2.1,1.9l-1.5-1.2h-0.8l-0.4,0.8v2.5L235,260l0.4,2.7l-1.2,1.9
			h-0.6l-4,2.1h-0.8l-2.1,0.2l0.6,0.6l0.6,0.4l0.2,1.9l2.1,1L231.1,272z"/>
	</g>
	<g id="Tochigi">
		<path class="st1" d="M222.3,255.6h1l2.3-0.8l0.8-0.8l3.3-2.1l2.1,0.2l1,0.2l1.9,1.5l0.8,2.1l-0.4,1l0.2,2.5l-0.2,3.3l-1.2,1.7
			l-0.6,0.2l-4,2.1h-2.7l-1.9-0.2l-0.8-1.9v-1.5l0.6-2.1h-1.5l0.2-0.8v-0.6l-0.4-2.3L222.3,255.6z"/>
	</g>
	<g id="Gumma">
		<path class="st1" d="M222.3,255.6l-0.6-0.4l-1.7-0.4h-1l-0.8,1.9l-1,1.2h-0.8l-0.4,0.4l-0.6,1.7l-1,0.2l-1-0.2l-2.1,1.9v2.5h1.2
			l1.5,0.6l-0.4,1.9l0.2,2.3l0.2,1.5l0.4,1l1,0.4l1.5-1.7l1.9-0.6l0.8-0.6l0.2-1.2l1.2-0.6h1.5l1.7,0.8l2.3,0.2h1v-0.8l-0.6-0.8
			l-1.9-0.2l-0.8-2.1v-1.5l0.4-1.9h-1.2l0.2-1.2l-0.4-2.5L222.3,255.6z"/>
	</g>
	<g id="Saitama">
		<path class="st1" d="M215.1,271.8l1.5-1.5l1.9-0.6l1-0.8v-1.2l1.2-0.6l1.7,0.2l1.7,0.8l3.1,0.2l0.2-0.8l0.6,0.4l0.2,1.9l1.9,1
			l0.8,1.2l0.2,2.9h-2.3l-1.5,0.4h-1.9l-2.3-0.2l-3.7-1.2l-0.8,0.4l-2.3-0.2l-0.8-0.8L215.1,271.8z"/>
	</g>
	<g id="Chiba">
		<path class="st1" d="M231.3,277.6l-0.2-2.7l-0.2-2.9l0.8,0.8l2.7,0.2l0.2,0.8l2.5-0.2l1.2-0.8h1.9l0.6,0.2l1.9,1.9h0.8l0.6,1.2
			l-2.3,0.2l-2.3,1.7l-0.6,2.5l-0.2,2.9l-0.8,1.7l-0.6,1l-3.1,0.6l-1.7,1.7l-0.2,0.6l-0.8,0.6l-0.8,0.2v-1.7l0.4-1.7l-0.4-1.5
			l0.4-1.2l-0.6-0.2v-0.8l3.7-4.4v-0.6l-1.2-1L231.3,277.6z"/>
	</g>
	<g id="Tokyo">
		<path class="st1" d="M218.6,274.1l0.8-0.4l3.7,1.2l2.1,0.4h2.1l1.2-0.4h2.3l0.4,2.7l-2.3,0.2l-1.7,0.4h-3.1l-2.9-0.4l-0.2-0.6
			l-0.6-0.6l-1.7-1.5L218.6,274.1z"/>
		<path class="st1" d="M224.6,293.5h1.5v-0.6l-1.5-1V293.5z"/>
		<path class="st1" d="M222.8,295.3v0.8l0.2-0.8H222.8z"/>
		<path class="st1" d="M223.8,296.6l0.6-0.4l-0.8,0.4H223.8z"/>
	</g>
	<g id="Kanagawa">
		<path class="st1" d="M221.1,277.6l3.3,0.6h2.9l1.5-0.6h2.5l-1,0.4l-0.6,0.6v1l-1.2,1l-0.2,2.3l1.2,0.6l-0.2,1.2l-1.2,0.8v-1.5
			l-0.6-1l-2.9-0.4l-1.2,0.8l-1,0.4v1l-0.8,1l-2.3-1l0.2-0.8v-1.9l-0.8-0.6V281l1.5-0.8l1-0.6l0.2-0.6L221.1,277.6L221.1,277.6z"/>
	</g>
	<g id="Nigata">
		<path class="st1" d="M215.7,258.3l0.6-0.4h0.8l1-1.2l0.8-1.9h1l1.9,0.4l0.4-0.6l-0.2-1.7l-1.2-2.5l0.4-1.5l-0.6-0.6l0.4-1.2
			l3.5-1.2l1.2-0.6l-0.6-0.6v-0.8l1.2-0.6l0.6-1.7l1-0.8l-1.7-1.2l1-3.1l-0.6-0.4l0.8-1.5h0.6l1-1v-0.8l-1.2-1.2h-0.8l-0.2-2.1
			l-1.5-1l-0.4,1l-1.5,2.9v4l-6.7,4.8l-1,1l-0.8,3.5l-2.1,1.9l-0.8,1.9L209,252h-1.7l-2.7,1.7l-1.5,1.2l-1.9,0.8l0.6,2.3l1.2-1
			l0.4-0.8h1.7l0.8,1.5l2.9-0.8l1-1.2l1-1h1.2l1.5,1.9L215.7,258.3z"/>
		<path class="st1" d="M208.2,241.4l2.1-0.2l2.1-2.1l0.2-2.1l-1.2,0.4v-1.9l0.4-1l-0.2-1.7l-2.5,2.5l-0.6,2.5l1.2,0.8v0.8
			L208.2,241.4z"/>
	</g>
	<g id="Toyama">
		<path class="st1" d="M201.1,255.6l0.6,2.5l0.2,0.8v1.7l-1.5,2.5v0.8l-0.6,1.2l-3.3-0.8l-3.1,0.2l-1,1.2l-1,1.5l-0.6-1h-1.5
			l-0.2-2.1l0.4-0.8l0.2-4.6l0.6-1.5l0.8-0.6l0.2-0.8h1.5v2.5l0.6,1l2.7,0.2l0.8-0.4l1.2-2.5l1.2-1L201.1,255.6L201.1,255.6z"/>
	</g>
	<g id="Ishikawa">
		<path class="st1" d="M192.8,255.8h-1.5l-0.2,0.8l-0.8,0.6l-0.6,1.5l-0.2,4.8l-0.4,0.6l0.2,2.1l-0.2,1.2l0.2,1l-0.6,0.4l-0.2,1.2
			l-1.5,0.6l-0.4-1.2l-1-0.4h-1.9l-1-1l-0.8-0.4l3.1-2.5l2.5-4.6l1-1l0.8-2.9l-0.6-0.8l0.2-2.1L188,252l0.4-1l0.2-1.5l2.1-1h1.2
			l4.2-2.3l0.8,1.2l-1.2,1.2l-0.2,1.2l-1,0.6l-0.6-0.2l-1.5,1.7l-1.2-0.4l-0.4,1.7l1,1l0.8-0.2L192.8,255.8z"/>
	</g>
	<g id="Fukui">
		<path class="st1" d="M181.8,267.7l0.8,0.4l0.8,1h1.9l1,0.4l0.6,1.5l2.1,3.3l-0.2,1.5l-2.9,0.4h-2.5l-1.5,1.7l-0.6,0.2l-0.4,0.6
			l-0.8,0.6l-3.5,1.5l-0.4,2.1l-0.6,0.4l-0.8-0.6l-2.9-0.6l-0.4-1l-0.4-1.9l0.8,0.2l0.6,0.2l0.2,0.8h0.8v-0.4h0.6v0.8l1-0.2v-1
			l0.6,0.2l0.6-0.4v-0.8l1-0.2l1-0.6v-1h0.8l0.8,0.8l-0.2-2.1l-1.5-3.1v-0.8l2.1-3.1L181.8,267.7z"/>
	</g>
	<g id="Yamanashi">
		<path class="st1" d="M215.3,273.3l0.8,0.8h2.5l0.2,1l2.3,1.9v0.8v1l-0.2,0.6l-2.7,1.5v0.6h-1l-1.5,0.4h-1.5l-0.8-0.6h-1v3.3
			l-0.8,0.8l-1-1.2l-0.2-1H209v-1.7l-0.2-1.2v-1.7l-0.6-0.6v-1.5v-1.9l2.3-1.9l0.8,0.4l1.9,0.4L215.3,273.3z"/>
	</g>
	<g id="Nagano">
		<path class="st1" d="M201.7,257.9l1.5-0.8l0.2-0.8h1.9l0.6,1.5l3.1-0.8l2.1-2.3h1.2l1.5,2.1l1.9,1.7l-0.4,1.7l-1.2,0.2l-0.8-0.2
			l-2.3,2.1l0.2,2.1h1l1.7,0.8l-0.4,2.1l0.2,3.5l0.6,1l0.8,0.4l0.2,1l-2.1,0.6l-1.9-0.4l-0.8-0.4l-2.3,1.9v1.9v1.5l-0.6,0.2
			l-0.6,2.3l-0.2,1.9l-1.2,1.2l-2.7,1.2l-3.5-0.4l0.6-2.5l0.6-0.8l-0.2-1.2l-0.8-0.6v-0.8l-1-1.7l-1.5-1.7l-0.2-0.8l1.7-1l1-1.2
			l0.4-1l-0.4-2.3l0.8-1.7l-0.2-1l-0.2-1l0.6-1v-0.8l1.5-2.5L201.7,257.9z"/>
	</g>
	<g id="Gifu">
		<path class="st1" d="M182,277.8l1.5-1.5l2.3-0.2l2.9-0.4l0.4-1.7l-2.3-3.3l1.7-0.8v-1l0.8-0.4l-0.2-1v-1.2h1.7l0.6,1l1-1.7l0.8-1
			l3.3-0.2l3.3,0.8l0.4,1.9l-1,1.9l0.4,2.1l-0.2,1l-1.2,1.5l-1.5,0.8l0.2,0.6l1.5,1.9l1,1.5v1l0.8,0.8l0.2,1l-0.6,0.8l-0.6,2.5h-2.5
			l-2.9-0.8l-2.3-1.2l-2.9,0.4l-1.5,2.1v0.8h-0.6l-0.8-0.8l-1.2-0.2l-0.4-3.1L182,277.8z"/>
	</g>
	<g id="Shizuoka">
		<path class="st1" d="M202.8,284.9l2.5-1.5l1.5-1l0.2-1.9l0.8-2.3l0.4-0.2l0.4,0.6l0.2,1.7l0.2,1.5v1.5h1l0.2,1l1.2,1.2l0.8-0.8
			v-3.3h1l0.8,0.6h1.5l1.2-0.4h1.2l0.8,0.8v1.9v0.6l2.1,1.2l-0.2,2.5l0.6,1.2l-2.1,3.3v1.2h-1l-0.6,0.8h-0.6l-0.4-2.1l-0.2-5
			l1.2-0.2l-1.5-1.7l-2.1,0.2l-1.2,1.2l-0.2,1.5l-2.1,0.8l-0.8,2.7l-0.8,0.6l-0.4,1.9l-2.1-0.8l-2.1,0.2l-1,0.6l-2.5-0.8h-2.3v-2.7
			l1.7-1.2l2.7-4.2L202.8,284.9z"/>
	</g>
	<g id="Aichi">
		<path class="st1" d="M186.8,285.8l0.4-0.2v-0.6l1.5-2.1l2.9-0.4l2.3,1.2l2.9,0.8h2.5l3.5,0.4l0.2,1.7l-2.7,4.2l-1.7,1v2.7H197
			l-2.9,1.2h-1v-0.6l3.1-1.9l-0.2-0.8l-3.1,0.2l-0.6-0.4L192,291l-0.6,1.5l0.4,1.5l-1.5-0.6V292l-0.6-1v-1l1.2-1.5l-0.8-0.6
			l-1.7,0.6L186.8,285.8z"/>
	</g>
	<g id="Mie">
		<path class="st1" d="M184.5,284.5l1.2,0.4l0.6,0.8h0.6l1.2,2.5l-0.6,1l-0.4,2.5l-1.2,1l-0.2,2.1l2.1,1.7l1.7,1l1.7,1l-0.2,2.3
			l-1.5,0.4l0.4-0.8h-2.1l-3.3,1.7h-1.2l-0.4,0.4v1l-1,0.4l0.2,2.3l-2.3,1.7l-1,2.9l-2.3-1.9l0.2-1.5l1.2-0.8v-1.2l1.7-1.2v-2.7
			l0.2-1.2l-0.6-0.6v-1.2l1.9-0.2l0.6-0.4l-0.6-1.5l-1-0.2l-0.8-1v-1.5l-0.6-0.4l0.4-1l1-1.2h1.9l1-0.8l0.6-1.2l0.6-0.4v-2.1
			L184.5,284.5z"/>
	</g>
	<g id="Shiga">
		<path class="st1" d="M175.5,283.3l0.6-0.4l0.2-2.1l3.7-1.5l0.8-0.6l0.4-0.6h0.6l2.1,3.7l0.4,2.9l-0.4,1.7v2.3l-0.6,0.2l-0.6,1.2
			l-1,0.8h-1.9l-1.2,1.5l-1.5-1.5l-1.2-3.1L175.5,283.3z"/>
	</g>
	<g id="Kyoto">
		<path class="st1" d="M170.7,279.1l1,2.9l2.9,0.6l0.8,0.6l0.4,4.8l1.2,2.9l1.5,1.5l-0.2,0.6l-2.7,0.4l-0.8-0.6l-0.2-1.2l-0.2-1.9
			l-1.2-0.2v-0.8l-1.2-1l-3.5-1.5l-1.7-2.3l-1.7-0.2l-1-0.8v-0.6h1l0.2-0.6v-1.7l-1.7-0.8l-0.4-1.2l1.7-0.2l1.2-1.2h2.7l-0.8,2.9
			l1,0.4l0.4,1l0.8-0.2L170.7,279.1z"/>
	</g>
	<g id="Osaka">
		<path class="st1" d="M173.2,289.5l1.2,0.2l0.2,3.1l1,0.6l-2.3,2.7l-0.2,2.7l-5.2,1.5H166l2.5-1.2l1.9-1.7l0.8-2.3l-0.8-1.9
			l0.4-2.7l-1.2-1.2v-0.8h0.8l1.5,1.5L173.2,289.5z"/>
	</g>
	<g id="Hyogo">
		<path class="st1" d="M163.3,277.6l0.4,1.7l1.7,0.6v1.7l-0.4,0.6h-0.8v0.6l1,0.8l1.7,0.2l1.7,2.3l3.5,1.5l1.2,1v0.8l-1.5,0.4
			l-1.7-1.5h-0.6v0.8l1.2,1.2l-0.4,2.7l-1.9,0.4l-1.5,1.2h-1.5l-5.4-2.9l-3.3,1l-1.9,0.2l0.2-1.7l-0.8-1.2l0.6-3.3l1.7-1.2l-0.2-0.8
			l1.7-1.2l0.2-1.5l-0.8-2.3l-1.2-1.5l2.1-0.6L163.3,277.6z"/>
		<path class="st1" d="M159.9,300.3l1.5-1.2v-1l2.9-2.3l0.4,0.8l-1,1l0.2,3.5l-1.9,1L159.9,300.3z"/>
	</g>
	<g id="Nara">
		<path class="st1" d="M173.2,298.9l0.2-2.9l2.3-2.5l2.5-0.4l0.8,0.6v1.5l0.8,1l1,0.2l0.6,1.5l-0.6,0.4l-1.9,0.2v1.2l0.6,0.8l-0.2,1
			v2.7l-1.9,1v1.5l-1,0.8h-4.2l-0.2-2.5v-1.5l1.9-1.9l-0.4-1.5v-1.2L173.2,298.9z"/>
	</g>
	<g id="Wakayama">
		<path class="st1" d="M166,300.3h2.3l5-1.5l0.4,0.2v1.2l0.2,1.5l-1.9,2.1l0.2,1.2l0.2,2.5h4v1.5l2.1,1.9l-0.6,1.7l-2.5,2.3l-1,0.2
			l-2.1-1.2l-1.9-0.8l-0.8-2.3l-0.8-1.5l-2.5-1.7l-0.2-1.7l0.6-0.4l-0.2-0.8l-0.6-0.4l0.2-1L166,300.3L166,300.3z"/>
	</g>
	<g id="Tottori">
		<path class="st1" d="M156,278.5l1.5,1.5l0.8,2.3l-0.2,1.7l-1.7,1h-1l-1.5,0.2l-1.5-1.7L151,283l-1,0.6h-2.1l-0.6-0.8h-1l-4.8,4.6
			l-1.7-1l0.2-2.3l1.7-1v-2.9l1.7,0.2l2.1-1l4,0.6L156,278.5z"/>
	</g>
	<g id="Shimane">
		<path class="st1" d="M141.6,280.1v2.9l-1.7,1l-0.2,2.3L136,286l-1.7,0.6l-0.4,0.6v0.6l-1,1.5l-1.7,1l-2.1,0.2l-1.2,0.4l-0.8-0.2
			l-1.5,1l-1,3.1l-0.4,1.7l-0.4,1.9h-1.2l-2.3,0.8l0.4-1.9v-1.2l-0.6-1l-1-1v-1.5l1.9-0.2l6.2-5.4l1.9-1l1.5-2.1l2.3-1l1-1l-0.6-1.5
			l5.8-2.1l2.3,0.4L141.6,280.1z"/>
	</g>
	<g id="Okayama">
		<path class="st1" d="M141.2,287.4l4.8-4.6h1.2l0.6,0.6l2.1,0.2l0.8-0.6l1.5,0.4l1.5,1.7l1.7-0.4l1,0.2v0.8l-1.7,1l-0.4,3.5
			l0.8,1.5l-0.2,1.5l-1.5,0.8l-0.6,1h-2.3l-0.4,0.4h1.7l-1.9,1.9h-1.2l-1.9-1l-2.5,0.8l-0.2-0.6h-0.6l-0.8-1.2L141.2,287.4z"/>
	</g>
	<g id="Hiroshima">
		<path class="st1" d="M123.7,298.4l0.6-2.1l0.2-1.7l0.8-2.9l1.7-1l0.8,0.2l1.2-0.6h2.1l1.7-1l1-1.5V287l2.1-1l3.7,0.4l1.7,1
			l1.2,8.1l0.8,1l-1.7,2.5l-0.8-1l-1,0.8v1l-1.9,0.2l1-1.5l-0.6-0.4l-1.2,0.8h-2.1l-2.3,1.7l-1.9,0.2l-0.4-1.5l-0.8-1l-1.5,0.2
			l-1.7,2.1l-1.9-1.9L123.7,298.4z"/>
		<path class="st1" d="M136.8,301.4h1v-0.6l-0.2-0.8L136.8,301.4z"/>
		<path class="st1" d="M130,302.6l1.2,0.6l-0.2-0.8v-1h-0.6L130,302.6z"/>
	</g>
	<g id="Yamaguchi">
		<path class="st1" d="M118.9,292.6l-0.2,1.5l1.2,1l0.6,1.2v1l-0.6,1.7l2.5-0.6h1.2l1.2,0.4l1.7,1.9l-0.4,0.8v1l0.2,1.5l-1.2,1
			l-0.2,2.1l-0.8,0.6v-2.1l-2.1-0.6l-0.8-0.8l-1,0.4V303l-2.7,1l-0.4-0.4h-1.2l-0.4,0.4l-0.4-1l-1.2,1.7l-1.7-0.2l-1.2-2.1l-2.1,1.7
			l-1-3.1l0.8-0.4l-0.2-1l-0.4-1l2.1-2.1l1-0.2l1,0.8l0.4-0.6l0.8,0.6l1.5-0.2l1.2-1l0.4-0.8l1.9-2.1L118.9,292.6z"/>
		<path class="st1" d="M126.2,305.3l-0.2,0.8l0.6,0.4l2.5-0.4l0.4-0.8h-2.3H126.2z"/>
	</g>
	<g id="Tokushima">
		<path class="st1" d="M145.8,303.6h2.1l0.8-0.4l2.3,0.2l1.9-1h1.2l0.8-0.4h1.9l0.6-0.4l1.5-0.2l0.8,0.8l-0.2,0.6l-0.6,0.8v1.7
			l1.2,1v2.3l-2.1,1.7l-2.1,0.8l-1,2.1l-2.1-0.8l-0.8-1.7l-0.8-0.2l-0.2-1.5l-0.8-0.8l-1.7,0.4l-0.6-0.6h-1l-1-1L145.8,303.6
			L145.8,303.6z"/>
	</g>
	<g id="Kagawa">
		<path class="st1" d="M145.8,303.6h2.1l0.8-0.6l2.3,0.2l1.9-0.8h1.2l0.6-0.6l2.1,0.2l0.4-0.4l-2.1-1l-0.8-1h-0.8l-0.4-0.6l-1-0.2
			l-2.7,0.6l-0.2,0.6l-1.2,0.8h-2.3v1l0.4,0.6L145.8,303.6z"/>
		<path class="st1" d="M153.9,297.4l1-0.2l0.2-0.6l-0.2-0.6h-0.8L153.9,297.4z"/>
	</g>
	<g id="Ehime">
		<path class="st1" d="M145.8,303.6v3.3l-2.1,0.8l-3.3,0.2l-2.3,1.5l-0.8,1.5l-0.6,2.1l-0.6,0.6l-1.7,0.2l0.4,0.8l-0.2,0.6l-0.2,1.2
			L132,319l-2.7,0.2l-1-1l1.9-0.6v-0.8l-0.6-0.6h-1.5v-1.9l-0.6-0.6l-2.9,1.5l-1.2,0.4l1.7-1.9l2.3-0.6l1-1.2l2.9-1.2l1.5-1.5l1.2-4
			l1.9-1.2l0.6-0.8l0.8,0.6l1,2.1h2.1l2.5-0.6l1.7-0.2L145.8,303.6z"/>
	</g>
	<g id="Kochi">
		<path class="st1" d="M129.3,319.3l2.9-0.4l2.1-2.3l0.4-1.9l-0.4-0.8h1.7l0.8-1l0.4-2.1l0.8-1l2.3-1.9h3.3l2.1-0.8l1,1h1.2l0.4,0.6
			l1.7-0.4l1,1v1.2l0.8,0.2l0.8,1.7l2.1,0.6l-1.2,2.1l-0.8,2.9l-2.7-3.3l-1.5-1.2l-1-0.4l-2.5,0.2l-2.1,1.9l-2.5,0.8l-0.2,1.9
			l-2.3,2.7v0.8l-1.5-0.2l-0.2,1.7l-0.6,0.6v1.7l0.8,1.5l-1.2-1.2h-1l-1,0.6l-1.9-1V324l0.6-0.4l-0.2-1.2h-2.7l-0.2-1.2L129.3,319.3
			z"/>
	</g>
	<g id="Fukuoka">
		<path class="st1" d="M96.9,311.1l0.2-1.5l1-0.8l1,0.2l0.8,0.6l0.8-0.2l-0.4-1.5l1-0.4l0.4-0.6l0.2-1.5l2.1-0.6l0.6-0.6l3.1,0.6
			l1-0.2l1.2,4.8l1.2,0.4v0.8l-1,0.6l-2.5,0.2l-0.8,0.8l-1,1.7v1.7l0.4,1.5l-0.4,1h-0.6l-0.6-0.8h-1.2l-2.1,1.2l-1.2,0.8v-1.2
			l-1-1.2l1-1.7l1-0.4l0.4-0.8l-0.8-0.6l-0.2-0.6l-1-1.2L96.9,311.1z"/>
	</g>
	<g id="Saga">
		<path class="st1" d="M96.9,311.1l2.7,0.4l1.5,2.1l0.6,0.2l-0.4,1l-1,0.2l-1,1.9l-0.8-0.4h-0.8l-0.8,0.8l0.6,1.9v1l-1.9-0.6L95,319
			l-1-0.4l-1.5-2.9l-0.6,0.2l-0.4-0.8v-1.5h1l0.6-0.6l-0.8-1.2l0.6-0.4l0.4-0.6l1-0.2l0.6,1L96.9,311.1z"/>
	</g>
	<g id="Nagasaki">
		<path class="st1" d="M92.5,313.6h-0.8l-0.2,1.7l0.4,0.6l0.6-0.2l1.5,2.9l1,0.4l0.2,0.4l2.3,0.8l-1,1.7h1.7l1,0.4v1.9l-0.4,1
			l-2.1,0.4H96v-0.8l0.4-1.7l-1-0.4l-1.5,0.4l-2.7,2.9l-0.4-0.4l0.4-2.9l-2.1-2.5l0.4-1.2l0.8-1l1.2,1.5v1.9l1.9,0.2l0.2-1l-0.6-1.2
			l-1.2-1.5H91l-0.8-1.9l-1.5-0.4l0.4-2.7l2.5,0.4L92.5,313.6z"/>
		<path class="st1" d="M88.3,312.4l0.6,0.4l-1.2,2.3h-1v-0.8L88.3,312.4z"/>
		<path class="st1" d="M80.6,319l1.5-1.5l0.4,1l-0.6,1l-1,1.5l0.2-1.2L80.6,319z"/>
		<path class="st1" d="M75.4,321.8h2.3l0.8,1.7l-1.5,0.2l-0.8,0.4h-1.7L75.4,321.8z"/>
		<path class="st1" d="M91.3,304.9v2.1l1-0.4v-1.9l-0.6-0.2L91.3,304.9z"/>
		<path class="st1" d="M85.2,296.8h1.2l0.6,0.6l-1,2.1l-0.8,0.8l-0.8-0.6L85.2,296.8z"/>
		<path class="st1" d="M86.1,295.5h1.2v0.8l0.4-2.3l1.2-0.8l0.4-0.8l-0.2-1.7l-0.6-0.4l-1.5,0.6v1.7L86.1,295.5z"/>
	</g>
	<g id="Kumamoto">
		<path class="st1" d="M100.2,319.5l1.5-1l1.9-1l1.2,0.2l0.4,0.4l1,0.2l0.4,0.8l1.5-0.4l-0.2-1l0.8-0.4l1.2,0.2l0.8,1.5l0.6,0.4v1.5
			l0.2,2.7l-2.3,2.3l-0.8,0.6l-0.2,1.9l0.2,1.9l0.2,1.9l-0.4,1.9l-1.5,0.2l-0.6,0.6h-2.9l-1-1.2l-4.8,0.4l4.2-4.6v-1l1.5-2.1
			l-2.3-0.6l1.2-1.2h1.2l-0.2-0.8l-1.9-1.7l-0.8-0.8L100.2,319.5z"/>
		<path class="st1" d="M97.3,328l2.7-0.6v0.8l-0.6,0.6v0.8l-1.9-0.4L97.3,328z"/>
		<path class="st1" d="M94.4,327l1.2-0.2l0.8,0.4l0.2,3.1l-2.3,1.9h-0.8v-0.8l0.8-0.4l-0.6-0.8v-1.5L94.4,327z"/>
	</g>
	<g id="Oita">
		<path class="st1" d="M106.2,318l0.2-0.8l-0.4-1.2l0.2-1.9l0.8-1.9l1-0.6l2.5-0.2l0.8-0.8v-0.6l1.2,0.8h2.5l1.5-1.5h1l1.5,1.9v1.7
			l-0.6,0.8l-1.7,1h-1l0.2,1l4.8,1l-0.4,2.3l1.9,0.8l-1.2,1.2l1.5,1l-0.6,0.8v1h-1l-0.6,1.2l-0.6-1.7l-1.9,0.2l-2.5,0.4l-0.4-1
			l-3.1-0.4l-0.2-3.5l-0.6-0.4l-0.8-1.5l-1.2-0.2l-0.8,0.4l0.2,1l-1.5,0.4L106.2,318z"/>
	</g>
	<g id="Miyazaki">
		<path class="st1" d="M103.3,334.7h2.9l0.8-0.6l1.2-0.2l0.4-1.9v-2.1l-0.2-1.9v-1.7l3.1-2.7v-0.8l3.1,0.6l0.4,0.8l4.4-0.6l0.6,1.7
			l-2.5,2.5l0.4,1.2l-1,0.8l-2.1,4.6v2.1l-1.7,2.9l0.8,1l-1.9,5.2l-1,1.2l-1.7-1h-0.6v-1.2l0.2-1.5l-1.9-0.6l-0.6-0.6l0.2-1.2
			l-1.2-0.8l-0.2-1L103.3,334.7z"/>
	</g>
	<g id="Kagoshima">
		<path class="st1" d="M97.5,333.8l4.8-0.4l0.8,1.2l2.3,4v1.2l1.2,0.6v1.5l0.4,0.6l2.1,0.6l-0.4,1.7v1h-0.8l-0.8,1l1.2,2.1l-2.1,1
			l-0.2,1l-3.5,1.7l-0.4-0.8l1.2-1.7l0.6-2.1l-0.2-1.9l-1.2-0.8l-0.6-1.7v-1l1.7,0.6l0.8-0.8v-1l-1.5-0.4l-0.8,0.2l-1.2,1.5l-1,2.5
			l0.6,1.5l1,2.3v0.8l-0.8,0.6l-1.9-1.7l-2.7-0.4l-1-1.7v-0.8l1.7-0.6l0.6-0.8l0.2-1.2l-0.2-2.1l-1.5-1l0.2-5.2l0.4-1L97.5,333.8
			L97.5,333.8z"/>
		<path class="st1" d="M104.2,363.6l1.5-0.4l0.4-2.3l0.6-0.6l0.6-2.5l0.2-1.2h-0.8l-1.5,2.3v1.7l-1,1.5L104.2,363.6L104.2,363.6z"/>
		<path class="st1" d="M96.9,363.2l1.9-1.2l2.1,1.2v1.2l-1,1.2h-1.9L96.9,363.2z"/>
		<path class="st1" d="M77.1,398.1l1.9,1.5l1.9-0.4v-1l4-2.7v-0.8l-6.7,1.9v1L77.1,398.1z"/>
		<path class="st1" d="M76.9,400.2l2.3,0.6l-2.1-1.7L76.9,400.2z"/>
		<path class="st1" d="M88.3,397.9l0.6,0.4l0.4-1L88.3,397.9z"/>
	</g>
	<g id="Okinawa">
		<path class="st1" d="M143.4,151.3l1.5-1l-0.2-1l0.4-1.9l1.2-0.2l-0.6-0.8l0.2-0.8l1.9-1l0.6-0.8l1.7-0.4l-0.2-1l1.2-0.4l1.2-1.2
			l0.2-1l-0.2-1l-0.8-0.4l-2.1,2.3l-0.2,1.2l-3.5-0.4v0.6l1.5,1.5l-3.3,2.1l-0.2,2.7l-1,0.8v1.7L143.4,151.3z"/>
		<path class="st1" d="M128.5,146.3l1.2,0.2l-0.2,1.2L128.5,146.3z"/>
		<path class="st1" d="M106.2,171.9v1.2v1.7l2.7-0.8l-1.9-0.6l-0.2-0.8L106.2,171.9z"/>
		<path class="st1" d="M88.1,178.8l0.4,2.1l1.9-0.4l-0.2-1.5l1.2-1.5l0.2-1.2h-0.8l0.2,0.8l-1.5,1.7L88.1,178.8L88.1,178.8z"/>
		<path class="st1" d="M81.4,180.9h1.2l0.2-1.7l2.3,0.4l0.4,0.4v0.6l-1.2,1.2l-2.9-0.2C81.4,181.7,81.4,180.9,81.4,180.9z"/>
	</g>
</g>
</svg>
