<svg width="718" height="444" viewBox="0 0 718 444" fill="none" xmlns="http://www.w3.org/2000/svg">
<g clip-path="url(#clip0_5_2)">
<path d="M2 2H716V442H2V2Z" fill="white" stroke="black" stroke-width="4"/>
<path d="M187.5 91.5V369.5" stroke="#CCCCCC" stroke-miterlimit="10"/>
<path d="M307.5 91.5V369.5" stroke="#CCCCCC" stroke-miterlimit="10"/>
<path d="M427.5 91.5V369.5" stroke="#CCCCCC" stroke-miterlimit="10"/>
<path d="M547.5 91.5V369.5" stroke="#CCCCCC" stroke-miterlimit="10"/>
<path d="M667.5 91.5V369.5" stroke="#CCCCCC" stroke-miterlimit="10"/>
<path d="M95.5 369.5H695.5" stroke="#333333" stroke-miterlimit="10"/>
<path d="M95.5 300.5H695.5" stroke="#CCCCCC" stroke-miterlimit="10"/>
<path d="M95.5 230.5H695.5" stroke="#CCCCCC" stroke-miterlimit="10"/>
<path d="M95.5 161.5H695.5" stroke="#CCCCCC" stroke-miterlimit="10"/>
<path d="M95.5 91.5H695.5" stroke="#CCCCCC" stroke-miterlimit="10"/>
<path d="M95.2 369.8H95.8H96.4H97H97.6H98.2H98.8H99.4H100H100.6L101.2 369.786L101.8 369.8L102.4 369.786L103 369.8H103.6H104.2H104.8H105.4H106H106.6H107.2H107.8H108.4H109H109.6H110.2H110.8H111.4H112L112.6 369.786H113.2H113.8H114.4H115H115.6H116.2L116.8 369.772L117.4 369.744L118 369.772L118.6 369.8L119.2 369.758L119.8 369.73L120.4 369.772L121 369.786H121.6L122.2 369.758L122.8 369.8L123.4 369.675L124 369.689H124.6L125.2 369.73L125.8 369.703L126.4 369.647L127 369.717L127.6 369.619L128.2 369.73L128.8 369.703L129.4 369.758L130 369.703L130.6 369.8L131.2 369.772H131.8L132.4 369.73L133 369.744L133.6 369.73L134.2 369.772H134.8H135.4L136 369.758L136.6 369.717L137.2 369.758H137.8L138.4 369.744L139 369.758H139.6L140.2 369.689L140.8 369.73L141.4 369.703L142 369.633L142.6 369.536L143.2 369.703L143.8 369.647L144.4 369.508L145 369.522L145.6 369.508L146.2 369.605L146.8 369.661L147.4 369.772L148 369.675L148.6 369.661L149.2 369.633L149.8 369.605L150.4 369.661L151 369.563L151.6 369.661L152.2 369.73L152.8 369.577L153.4 369.536L154 369.633L154.6 369.605L155.2 369.786H155.8L156.4 369.8L157 369.73L157.6 369.744L158.2 369.786L158.8 369.758L159.4 369.8L160 369.772L160.6 369.758H161.2L161.8 369.8H162.4H163L163.6 369.758L164.2 369.8L164.8 369.786H165.4H166L166.6 369.772L167.2 369.786L167.8 369.772L168.4 369.8H169H169.6H170.2H170.8H171.4L172 369.786L172.6 369.8H173.2H173.8H174.4H175H175.6L176.2 369.786L176.8 369.8H177.4L178 369.786L178.6 369.8H179.2L179.8 369.786L180.4 369.8L181 369.786L181.6 369.8H182.2L182.8 369.772L183.4 369.8L184 369.772L184.6 369.786L185.2 369.8L185.8 369.786H186.4L187 369.758L187.6 369.8L188.2 369.786H188.8L189.4 369.8H190H190.6H191.2H191.8H192.4H193H193.6L194.2 369.786H194.8L195.4 369.8H196H196.6H197.2H197.8L198.4 369.772L199 369.8L199.6 369.772L200.2 369.8H200.8L201.4 369.772L202 369.8L202.6 369.772L203.2 369.73L203.8 369.577L204.4 369.508L205 369.536L205.6 369.466L206.2 369.508H206.8L207.4 369.062L208 368.909L208.6 368.45L209.2 368.923L209.8 368.715L210.4 368.631L211 368.701L211.6 368.228L212.2 367.407L212.8 367.462L213.4 367.031L214 367.281L214.6 367.56L215.2 367.977L215.8 368.019L216.4 367.713L217 367.824L217.6 367.588L218.2 367.295L218.8 367.991L219.4 368.395L220 368.868L220.6 368.603L221.2 368.269L221.8 368.575L222.4 368.798L223 368.645L223.6 369.202L224.2 369.007H224.8L225.4 368.659L226 368.548L226.6 368.826L227.2 369.104L227.8 369.202H228.4L229 369.104L229.6 369.257L230.2 369.09L230.8 369.174L231.4 369.299L232 369.216L232.6 369.466L233.2 369.41L233.8 369.55L234.4 369.341L235 369.327L235.6 369.424L236.2 369.508L236.8 369.633L237.4 369.508L238 369.299L238.6 369.132L239.2 369.396L239.8 369.341L240.4 369.48L241 369.508L241.6 369.494L242.2 369.299L242.8 369.243L243.4 369.369L244 369.341L244.6 369.536L245.2 369.675L245.8 369.605L246.4 369.327L247 369.271L247.6 369.466L248.2 369.118L248.8 369.536L249.4 369.41L250 369.438L250.6 369.508L251.2 369.536L251.8 369.577L252.4 369.55L253 369.633L253.6 369.605L254.2 369.591H254.8L255.4 369.647L256 369.508L256.6 369.605L257.2 369.55L257.8 369.466L258.4 369.591L259 369.536L259.6 369.508L260.2 369.41L260.8 369.508L261.4 369.591L262 369.619L262.6 369.299L263.2 369.536L263.8 369.202L264.4 369.216L265 369.577L265.6 369.285L266.2 369.313L266.8 369.09L267.4 368.589L268 369.09L268.6 368.45L269.2 369.132L269.8 369.188L270.4 368.617L271 369.076L271.6 368.701L272.2 368.659L272.8 368.228L273.4 368.673L274 369.007L274.6 368.019L275.2 368.353L275.8 367.81L276.4 367.741L277 367.685L277.6 368.381L278.2 368.923L278.8 367.88L279.4 367.838L280 366.753L280.6 366.989L281.2 366.864L281.8 367.796L282.4 368.478L283 368.269L283.6 367.337L284.2 367.045L284.8 366.544L285.4 366.78L286 367.643L286.6 368.297L287.2 367.059L287.8 366.753L288.4 367.087L289 366.808L289.6 366.753L290.2 367.434L290.8 368.255L291.4 367.031L292 366.391L292.6 366.433L293.2 367.073L293.8 366.934L294.4 367.281L295 368.214L295.6 366.794L296.2 366.349L296.8 366.488L297.4 366.753L298 365.625L298.6 368.548L299.2 368.52L299.8 367.156L300.4 366.474L301 366.043L301.6 366.113H302.2L302.8 366.794L303.4 368.102L304 366.53L304.6 365.709L305.2 366.474L305.8 367.114L306.4 367.601L307 367.226L307.6 367.685L308.2 366.001L308.8 364.735L309.4 363.803L310 364.164L310.6 364.763L311.2 365.027L311.8 367.045L312.4 367.963L313 365.361L313.6 365.459L314.2 364.902L314.8 365.305L315.4 366.767L316 367.699L316.6 366.377H317.2L317.8 366.043L318.4 366.377H319L319.6 367.518L320.2 368.562L320.8 366.808L321.4 366.641L322 366.405L322.6 367.518L323.2 368.047L323.8 368.116L324.4 368.687L325 368.395L325.6 368.214L326.2 368.395L326.8 368.603L327.4 368.13L328 368.798L328.6 369.202L329.2 368.631L329.8 368.214L330.4 368.687L331 369.062L331.6 368.979L332.2 368.742L332.8 369.216L333.4 368.923L334 368.673L334.6 369.09H335.2L335.8 369.16L336.4 369.341L337 369.383L337.6 369.09L338.2 369.16L338.8 369.229L339.4 369.243L340 369.062L340.6 369.369L341.2 369.355L341.8 369.327L342.4 369.035L343 368.854L343.6 369.104L344.2 369.313L344.8 369.424L345.4 369.689L346 369.257L346.6 369.188L347.2 368.882L347.8 369.076L348.4 369.035L349 369.466L349.6 369.591L350.2 369.383L350.8 369.132L351.4 369.271L352 369.146L352.6 369.035L353.2 369.327L353.8 369.369L354.4 368.923L355 368.77L355.6 368.701L356.2 368.909L356.8 368.993L357.4 368.603L358 369.257L358.6 369.021L359.2 368.422L359.8 368.645L360.4 367.782L361 368.158L361.6 368.186L362.2 369.174L362.8 368.242L363.4 367.184L364 367.796L364.6 367.407L365.2 367.059L365.8 368.005L366.4 368.102L367 367.462L367.6 366.794L368.2 366.767L368.8 366.683L369.4 366.6L370 366.92L370.6 368.075L371.2 367.156L371.8 365.459L372.4 365.709L373 365.848L373.6 365.083L374.2 366.669L374.8 367.56L375.4 365.89L376 365.305L376.6 363.817L377.2 365.765L377.8 364.262L378.4 364.93L379 365.57L379.6 366.753L380.2 366.683L380.8 365.765L381.4 363.636L382 361.799L382.6 363.218L383.2 363.872L383.8 361.757L384.4 360.352L385 361.117L385.6 361.479L386.2 361.507L386.8 362.536L387.4 364.763L388 362.3L388.6 360.533L389.2 360.992L389.8 361.493L390.4 361.228L391 363.803L391.6 365.904L392.2 363.997L392.8 363.608L393.4 364.318L394 364.471L394.6 364.971L395.2 365.556L395.8 367.782L396.4 365.556L397 365.806L397.6 365.792L398.2 366.099L398.8 366.767L399.4 367.448L400 368.45L400.6 367.434L401.2 366.363L401.8 367.421L402.4 367.727L403 368.088L403.6 368.381L404.2 369.16L404.8 368.436L405.4 368.269L406 368.422L406.6 368.325L407.2 368.562L407.8 368.631L408.4 369.313L409 368.464L409.6 368.756L410.2 368.409L410.8 368.882L411.4 369.16L412 369.229L412.6 369.522L413.2 369.118L413.8 369.062L414.4 369.118L415 369.188L415.6 369.174L416.2 368.909L416.8 369.508L417.4 369.076L418 368.617L418.6 369.118L419.2 368.882L419.8 368.909H420.4L421 369.216L421.6 368.826L422.2 368.812L422.8 368.77L423.4 368.868L424 368.756L424.6 368.492L425.2 369.299L425.8 368.492L426.4 368.283L427 367.768L427.6 368.84H428.2L428.8 368.297L429.4 368.826L430 367.379L430.6 366.113L431.2 366.321L431.8 366.6L432.4 365.806L433 366.586L433.6 367.754L434.2 366.21L434.8 364.568L435.4 364.735L436 364.415L436.6 363.413L437.2 364.582L437.8 366.238L438.4 366.196L439 362.62L439.6 360.018L440.2 360.922L440.8 360.087L441.4 361.326L442 361.855L442.6 356.344L443.2 352.726L443.8 352.81L444.4 351.056L445 349.693L445.6 353.074L446.2 355.064L446.8 347.299L447.4 344.544L448 340.008L448.6 337.155L449.2 343.487L449.8 350.556L450.4 348.83L451 347.397L451.6 343.695L452.2 345.894L452.8 345.866L453.4 345.087L454 350.653L454.6 353.241L455.2 352.865L455.8 351.864L456.4 353.533L457 355.454L457.6 356.302L458.2 361.27L458.8 366.739L459.4 360.853L460 360.129L460.6 361.66L461.2 364.248L461.8 363.789L462.4 364.902L463 366.961L463.6 367.156L464.2 364.29L464.8 365.111L465.4 367.977L466 366.307L466.6 367.017L467.2 368.422L467.8 367.741H468.4L469 368.047L469.6 368.589L470.2 368.687L470.8 368.951L471.4 369.563L472 368.033L472.6 368.742L473.2 368.979L473.8 369.076L474.4 369.118L475 369.424L475.6 369.619L476.2 369.243L476.8 369.132L477.4 369.383L478 369.313L478.6 369.271L479.2 369.508L479.8 369.661L480.4 369.605L481 369.41L481.6 369.522L482.2 369.299L482.8 369.494L483.4 369.577L484 369.689L484.6 369.285L485.2 369.48L485.8 369.466L486.4 369.536L487 369.508L487.6 369.563L488.2 369.717L488.8 369.633L489.4 369.55L490 369.772L490.6 369.591L491.2 369.605L491.8 369.633L492.4 369.689L493 369.717L493.6 369.661L494.2 369.647L494.8 369.577L495.4 369.689L496 369.619L496.6 369.772L497.2 369.661L497.8 369.647L498.4 369.717H499L499.6 369.73H500.2L500.8 369.8L501.4 369.563L502 369.786L502.6 369.661L503.2 369.744L503.8 369.661L504.4 369.744L505 369.8L505.6 369.619L506.2 369.717L506.8 369.744L507.4 369.73L508 369.675L508.6 369.758L509.2 369.8L509.8 369.633L510.4 369.717L511 369.689L511.6 369.661L512.2 369.758L512.8 369.675L513.4 369.8L514 369.689L514.6 369.73L515.2 369.758L515.8 369.717L516.4 369.703L517 369.758L517.6 369.8L518.2 369.703L518.8 369.744H519.4H520L520.6 369.717L521.2 369.772L521.8 369.73L522.4 369.661L523 369.563L523.6 369.633L524.2 369.508L524.8 369.591L525.4 369.536L526 369.508L526.6 369.355L527.2 368.756L527.8 367.657L528.4 366.405L529 364.749L529.6 364.359L530.2 366.586L530.8 366.558L531.4 357.527L532 353.937L532.6 350.695L533.2 345.991L533.8 349.665L534.4 357.346L535 331.784L535.6 321.167L536.2 321.64L536.8 319.316L537.4 309.325L538 321.237L538.6 340.982L539.2 287.214L539.8 287.465L540.4 279.603L541 286.63L541.6 272.298L542.2 296.051L542.8 331.13L543.4 260.776L544 259.357L544.6 273.063L545.2 278.42L545.8 274.691L546.4 296.315L547 334.192L547.6 273.48L548.2 265.911L548.8 287.799L549.4 279.798L550 330.796L550.6 290.331L551.2 333.788L551.8 270.739L552.4 271.658L553 284.404L553.6 300.573L554.2 296.565L554.8 312.025L555.4 345.852L556 290.777L556.6 284.404L557.2 341.984L557.8 303.745L558.4 300.851L559 321.362L559.6 347.55L560.2 297.414L560.8 302.771L561.4 317.605L562 319.622L562.6 316.283L563.2 328.166L563.8 352.768L564.4 314.488L565 311.733L565.6 325.745L566.2 327.498L566.8 326.524L567.4 335.472L568 354.507L568.6 316.283L569.2 320.012L569.8 331.339L570.4 335.764L571 335.346L571.6 342.443L572.2 354.967L572.8 358.223L573.4 323.908L574 324.91L574.6 334.4L575.2 332.758L575.8 340.022L576.4 356.581L577 325.62L577.6 324.521L578.2 333.162L578.8 332.87L579.4 331.645L580 341.093L580.6 358.96L581.2 323.046L581.8 324.576L582.4 330.476L583 332.229L583.6 330.003L584.2 338.978L584.8 356.247L585.4 318.829L586 321.195L586.6 331.701L587.2 336.237L587.8 335.11L588.4 345.143L589 360.602L589.6 332.118L590.2 332.508L590.8 336.251L591.4 339.117L592 335.36L592.6 341.483L593.2 357.805L593.8 329.627L594.4 332.299L595 339.354L595.6 342.179L596.2 359.976L596.8 348.872L597.4 360.867L598 338.074L598.6 356.97L599.2 357.805L599.8 357.068L600.4 329.182L601 337.865L601.6 356.316L602.2 325.717L602.8 330.629L603.4 336.933L604 338.088L604.6 334.692L605.2 343.709L605.8 359.92L606.4 326.956L607 331.896L607.6 337.545L608.2 338.797L608.8 336.947L609.4 346.27L610 361.228L610.6 332.786L611.2 335.861L611.8 343.515L612.4 346.798L613 347.063L613.6 353.993L614.2 363.608L614.8 345.226L615.4 347.119L616 352.114L616.6 352.768L617.2 353.478L617.8 357.43L618.4 365.111L619 350.138L619.6 353.923L620.2 356.831L620.8 356.984L621.4 357.193L622 360.338L622.6 365.987L623.2 354.02L623.8 356.692L624.4 358.96L625 358.807L625.6 358.014L626.2 360.658L626.8 366.321L627.4 354.215L628 355.509L628.6 357.263L629.2 357.917L629.8 357.527L630.4 359.893L631 364.846L631.6 349.067L632.2 350.291L632.8 351.488L633.4 351.794L634 349.345L634.6 353.603L635.2 360.477L635.8 335.277L636.4 331.715L637 332.063L637.6 330.56L638.2 324.896L638.8 326.83L639.4 348.301L640 285.169L640.6 281.245L641.2 284.473L641.8 281.426L642.4 268.652L643 283.221L643.6 324.465L644.2 318.76L644.8 180.166L645.4 184.369L646 201.874L646.6 170.148L647.2 209.583L647.8 299.975L648.4 156.692L649 163.844L649.6 151.682L650.2 169.466L650.8 165.361L651.4 215.552L652 286.477L652.6 134.316L653.2 122.419L653.8 147.09L654.4 166.377L655 148.037L655.6 185.955L656.2 295.104L656.8 134.08L657.4 107.335L658 132.146L658.6 264.77L659.2 200.343L659.8 230.706L660.4 284.821L661 213.381L661.6 105.624L662.2 119.427L662.8 123.282L663.4 120.109L664 168.019L664.6 284.64L665.2 118.495L665.8 116.561L666.4 170.231L667 191.897L667.6 198.506L668.2 235.924L668.8 313.542L669.4 177.982L670 194.304L670.6 229.245L671.2 251.676L671.8 247.487L672.4 275.053L673 324.785L673.6 226.893L674.2 248.503L674.8 269.974L675.4 281.551L676 278.406L676.6 297.539L677.2 334.846L677.8 247.946L678.4 270.238L679 287.548L679.6 296.83L680.2 298.026L680.8 317.285L681.4 344.141L682 346.033L682.6 277.627L683.2 305.944L683.8 319.289L684.4 349.957L685 321.376L685.6 348.204L686.2 332.049L686.8 328.681L687.4 337.782L688 343.751L688.6 339.257L689.2 346.882L689.8 361.284L690.4 336.251L691 338.171L691.6 346.047L692.2 351.446L692.8 351.613L693.4 355.551L694 364.707L694.6 362.411L695.2 332.424L695.8 340.412" stroke="#4285F4" stroke-width="2" stroke-miterlimit="10"/>
<path d="M383.422 418.8V410.206H386.391C387.057 410.206 387.568 410.248 387.922 410.331C388.411 410.446 388.828 410.649 389.172 410.941C389.63 411.326 389.969 411.821 390.188 412.425C390.417 413.019 390.531 413.696 390.531 414.456C390.531 415.112 390.453 415.691 390.297 416.191C390.151 416.691 389.958 417.107 389.719 417.441C389.479 417.774 389.214 418.034 388.922 418.222C388.641 418.409 388.302 418.555 387.906 418.659C387.51 418.753 387.052 418.8 386.531 418.8H383.422ZM384.562 417.784H386.391C386.964 417.784 387.411 417.732 387.734 417.628C388.057 417.524 388.312 417.373 388.5 417.175C388.771 416.915 388.979 416.555 389.125 416.097C389.281 415.639 389.359 415.086 389.359 414.441C389.359 413.545 389.208 412.857 388.906 412.378C388.615 411.889 388.26 411.56 387.844 411.394C387.531 411.279 387.042 411.222 386.375 411.222H384.562V417.784ZM396.359 418.034C395.964 418.368 395.583 418.602 395.219 418.737C394.865 418.873 394.479 418.941 394.062 418.941C393.375 418.941 392.849 418.774 392.484 418.441C392.12 418.107 391.938 417.68 391.938 417.159C391.938 416.857 392.005 416.581 392.141 416.331C392.276 416.071 392.458 415.868 392.688 415.722C392.917 415.566 393.172 415.451 393.453 415.378C393.651 415.316 393.964 415.258 394.391 415.206C395.234 415.112 395.859 414.993 396.266 414.847C396.266 414.701 396.266 414.612 396.266 414.581C396.266 414.144 396.167 413.836 395.969 413.659C395.698 413.43 395.297 413.316 394.766 413.316C394.276 413.316 393.911 413.404 393.672 413.581C393.432 413.748 393.255 414.05 393.141 414.487L392.109 414.347C392.203 413.909 392.359 413.555 392.578 413.284C392.797 413.014 393.109 412.805 393.516 412.659C393.922 412.514 394.391 412.441 394.922 412.441C395.453 412.441 395.885 412.503 396.219 412.628C396.552 412.753 396.797 412.909 396.953 413.097C397.109 413.284 397.219 413.524 397.281 413.816C397.312 413.993 397.328 414.316 397.328 414.784V416.191C397.328 417.17 397.349 417.79 397.391 418.05C397.443 418.31 397.536 418.56 397.672 418.8H396.562C396.458 418.581 396.391 418.326 396.359 418.034ZM396.266 415.675C395.88 415.831 395.307 415.967 394.547 416.081C394.109 416.144 393.802 416.217 393.625 416.3C393.448 416.373 393.307 416.482 393.203 416.628C393.109 416.774 393.062 416.941 393.062 417.128C393.062 417.409 393.167 417.644 393.375 417.831C393.594 418.019 393.906 418.112 394.312 418.112C394.719 418.112 395.078 418.024 395.391 417.847C395.714 417.67 395.948 417.425 396.094 417.112C396.208 416.873 396.266 416.524 396.266 416.066V415.675ZM401.594 417.862L401.75 418.784C401.448 418.847 401.182 418.878 400.953 418.878C400.568 418.878 400.271 418.821 400.062 418.706C399.854 418.581 399.703 418.42 399.609 418.222C399.526 418.024 399.484 417.607 399.484 416.972V413.394H398.719V412.581H399.484V411.034L400.531 410.409V412.581H401.594V413.394H400.531V417.034C400.531 417.336 400.547 417.529 400.578 417.612C400.62 417.696 400.682 417.764 400.766 417.816C400.849 417.868 400.969 417.894 401.125 417.894C401.25 417.894 401.406 417.883 401.594 417.862ZM406.547 416.8L407.641 416.925C407.474 417.56 407.156 418.055 406.688 418.409C406.219 418.764 405.625 418.941 404.906 418.941C404 418.941 403.276 418.659 402.734 418.097C402.203 417.534 401.938 416.748 401.938 415.737C401.938 414.696 402.208 413.889 402.75 413.316C403.292 412.732 403.99 412.441 404.844 412.441C405.677 412.441 406.354 412.722 406.875 413.284C407.406 413.847 407.672 414.644 407.672 415.675C407.672 415.737 407.672 415.831 407.672 415.956H403.031C403.073 416.644 403.266 417.17 403.609 417.534C403.953 417.889 404.385 418.066 404.906 418.066C405.292 418.066 405.62 417.967 405.891 417.769C406.172 417.56 406.391 417.237 406.547 416.8ZM403.094 415.097H406.562C406.521 414.566 406.391 414.17 406.172 413.909C405.828 413.503 405.391 413.3 404.859 413.3C404.37 413.3 403.958 413.461 403.625 413.784C403.302 414.107 403.125 414.545 403.094 415.097Z" fill="black"/>
<path d="M33.2 250.166L24.6062 246.869V245.65L33.2 242.134V243.416L30.5906 244.431V248.009L33.2 248.962V250.166ZM29.6687 247.681V244.775L27.2937 245.666C26.575 245.947 25.9812 246.15 25.5125 246.275C26.0646 246.39 26.6114 246.546 27.1531 246.744L29.6687 247.681ZM25.825 242.353H24.6062V241.291H25.825V242.353ZM33.2 242.353H26.9812V241.291H33.2V242.353ZM30.9187 235.291L31.0594 234.259C31.7677 234.374 32.325 234.666 32.7312 235.134C33.1375 235.603 33.3406 236.176 33.3406 236.853C33.3406 237.707 33.0646 238.395 32.5125 238.916C31.95 239.426 31.1479 239.681 30.1062 239.681C29.4396 239.681 28.8562 239.572 28.3562 239.353C27.8458 239.124 27.4656 238.785 27.2156 238.337C26.9656 237.879 26.8406 237.379 26.8406 236.837C26.8406 236.171 27.0125 235.624 27.3562 235.197C27.6896 234.759 28.1739 234.478 28.8094 234.353L28.9656 235.384C28.5489 235.478 28.2364 235.65 28.0281 235.9C27.8094 236.15 27.7 236.452 27.7 236.806C27.7 237.337 27.8927 237.77 28.2781 238.103C28.6531 238.436 29.2521 238.603 30.075 238.603C30.9187 238.603 31.5281 238.442 31.9031 238.119C32.2781 237.796 32.4656 237.379 32.4656 236.869C32.4656 236.452 32.3406 236.108 32.0906 235.837C31.8406 235.556 31.45 235.374 30.9187 235.291ZM33.2 233.353H24.6062V232.306H27.6844C27.1219 231.817 26.8406 231.197 26.8406 230.447C26.8406 229.978 26.9344 229.577 27.1219 229.244C27.2989 228.9 27.5489 228.655 27.8719 228.509C28.1844 228.364 28.6479 228.291 29.2625 228.291H33.2V229.337H29.2625C28.7312 229.337 28.3458 229.452 28.1062 229.681C27.8666 229.91 27.7469 230.233 27.7469 230.65C27.7469 230.962 27.8302 231.259 27.9969 231.541C28.1531 231.811 28.3719 232.009 28.6531 232.134C28.9239 232.249 29.3041 232.306 29.7937 232.306H33.2V233.353ZM25.825 226.353H24.6062V225.291H25.825V226.353ZM33.2 226.353H26.9812V225.291H33.2V226.353Z" fill="black"/>
<path d="M82.7 369.566C82.7 368.545 82.8042 367.727 83.0125 367.112C83.2208 366.487 83.5281 366.008 83.9344 365.675C84.351 365.342 84.8719 365.175 85.4969 365.175C85.9552 365.175 86.3562 365.269 86.7 365.456C87.0542 365.644 87.3458 365.915 87.575 366.269C87.8042 366.612 87.9812 367.034 88.1062 367.534C88.2312 368.034 88.2937 368.711 88.2937 369.566C88.2937 370.576 88.1896 371.389 87.9812 372.003C87.7833 372.618 87.476 373.097 87.0594 373.441C86.6531 373.774 86.1323 373.941 85.4969 373.941C84.674 373.941 84.0229 373.644 83.5437 373.05C82.9812 372.342 82.7 371.18 82.7 369.566ZM83.7781 369.566C83.7781 370.972 83.9448 371.909 84.2781 372.378C84.6115 372.847 85.0177 373.081 85.4969 373.081C85.9865 373.081 86.3927 372.847 86.7156 372.378C87.049 371.909 87.2156 370.972 87.2156 369.566C87.2156 368.149 87.049 367.211 86.7156 366.753C86.3927 366.284 85.9812 366.05 85.4812 366.05C85.0021 366.05 84.6167 366.253 84.325 366.659C83.9604 367.18 83.7781 368.149 83.7781 369.566Z" fill="black"/>
<path d="M61.7 301.975L62.8094 301.881C62.8927 302.423 63.0802 302.829 63.3719 303.1C63.674 303.371 64.0385 303.506 64.4656 303.506C64.9656 303.506 65.3927 303.314 65.7469 302.928C66.101 302.543 66.2781 302.038 66.2781 301.413C66.2781 300.808 66.1062 300.334 65.7625 299.991C65.4292 299.636 64.9865 299.459 64.4344 299.459C64.101 299.459 63.7937 299.538 63.5125 299.694C63.2417 299.85 63.0281 300.048 62.8719 300.288L61.8875 300.163L62.7156 295.756H66.9969V296.756H63.5594L63.1062 299.069C63.6167 298.704 64.1531 298.522 64.7156 298.522C65.4656 298.522 66.0958 298.782 66.6062 299.303C67.1271 299.824 67.3875 300.496 67.3875 301.319C67.3875 302.09 67.1635 302.761 66.7156 303.334C66.1635 304.022 65.4135 304.366 64.4656 304.366C63.6844 304.366 63.0437 304.147 62.5437 303.709C62.0542 303.272 61.7729 302.694 61.7 301.975ZM68.7 299.991C68.7 298.97 68.8042 298.152 69.0125 297.538C69.2208 296.913 69.5281 296.433 69.9344 296.1C70.351 295.767 70.8719 295.6 71.4969 295.6C71.9552 295.6 72.3562 295.694 72.7 295.881C73.0542 296.069 73.3458 296.34 73.575 296.694C73.8042 297.038 73.9812 297.459 74.1062 297.959C74.2312 298.459 74.2937 299.136 74.2937 299.991C74.2937 301.001 74.1896 301.814 73.9812 302.428C73.7833 303.043 73.476 303.522 73.0594 303.866C72.6531 304.199 72.1323 304.366 71.4969 304.366C70.674 304.366 70.0229 304.069 69.5437 303.475C68.9812 302.767 68.7 301.605 68.7 299.991ZM69.7781 299.991C69.7781 301.397 69.9448 302.334 70.2781 302.803C70.6115 303.272 71.0177 303.506 71.4969 303.506C71.9865 303.506 72.3927 303.272 72.7156 302.803C73.049 302.334 73.2156 301.397 73.2156 299.991C73.2156 298.574 73.049 297.636 72.7156 297.178C72.3927 296.709 71.9812 296.475 71.4812 296.475C71.0021 296.475 70.6167 296.678 70.325 297.084C69.9604 297.605 69.7781 298.574 69.7781 299.991ZM75.7 299.991C75.7 298.97 75.8042 298.152 76.0125 297.538C76.2208 296.913 76.5281 296.433 76.9344 296.1C77.351 295.767 77.8719 295.6 78.4969 295.6C78.9552 295.6 79.3562 295.694 79.7 295.881C80.0542 296.069 80.3458 296.34 80.575 296.694C80.8042 297.038 80.9812 297.459 81.1062 297.959C81.2312 298.459 81.2937 299.136 81.2937 299.991C81.2937 301.001 81.1896 301.814 80.9812 302.428C80.7833 303.043 80.476 303.522 80.0594 303.866C79.6531 304.199 79.1323 304.366 78.4969 304.366C77.674 304.366 77.0229 304.069 76.5437 303.475C75.9812 302.767 75.7 301.605 75.7 299.991ZM76.7781 299.991C76.7781 301.397 76.9448 302.334 77.2781 302.803C77.6115 303.272 78.0177 303.506 78.4969 303.506C78.9865 303.506 79.3927 303.272 79.7156 302.803C80.049 302.334 80.2156 301.397 80.2156 299.991C80.2156 298.574 80.049 297.636 79.7156 297.178C79.3927 296.709 78.9812 296.475 78.4812 296.475C78.0021 296.475 77.6167 296.678 77.325 297.084C76.9604 297.605 76.7781 298.574 76.7781 299.991ZM82.7 299.991C82.7 298.97 82.8042 298.152 83.0125 297.538C83.2208 296.913 83.5281 296.433 83.9344 296.1C84.351 295.767 84.8719 295.6 85.4969 295.6C85.9552 295.6 86.3562 295.694 86.7 295.881C87.0542 296.069 87.3458 296.34 87.575 296.694C87.8042 297.038 87.9812 297.459 88.1062 297.959C88.2312 298.459 88.2937 299.136 88.2937 299.991C88.2937 301.001 88.1896 301.814 87.9812 302.428C87.7833 303.043 87.476 303.522 87.0594 303.866C86.6531 304.199 86.1323 304.366 85.4969 304.366C84.674 304.366 84.0229 304.069 83.5437 303.475C82.9812 302.767 82.7 301.605 82.7 299.991ZM83.7781 299.991C83.7781 301.397 83.9448 302.334 84.2781 302.803C84.6115 303.272 85.0177 303.506 85.4969 303.506C85.9865 303.506 86.3927 303.272 86.7156 302.803C87.049 302.334 87.2156 301.397 87.2156 299.991C87.2156 298.574 87.049 297.636 86.7156 297.178C86.3927 296.709 85.9812 296.475 85.4812 296.475C85.0021 296.475 84.6167 296.678 84.325 297.084C83.9604 297.605 83.7781 298.574 83.7781 299.991Z" fill="black"/>
<path d="M58.6687 234.65H57.6219V227.931C57.3615 228.171 57.0229 228.416 56.6062 228.666C56.2 228.905 55.8354 229.082 55.5125 229.197V228.181C56.0958 227.9 56.6062 227.567 57.0437 227.181C57.4917 226.785 57.8094 226.4 57.9969 226.025H58.6687V234.65ZM61.7 230.416C61.7 229.395 61.8042 228.577 62.0125 227.962C62.2208 227.337 62.5281 226.858 62.9344 226.525C63.351 226.192 63.8719 226.025 64.4969 226.025C64.9552 226.025 65.3562 226.119 65.7 226.306C66.0542 226.494 66.3458 226.765 66.575 227.119C66.8042 227.462 66.9812 227.884 67.1062 228.384C67.2312 228.884 67.2937 229.561 67.2937 230.416C67.2937 231.426 67.1896 232.239 66.9812 232.853C66.7833 233.468 66.476 233.947 66.0594 234.291C65.6531 234.624 65.1323 234.791 64.4969 234.791C63.674 234.791 63.0229 234.494 62.5437 233.9C61.9812 233.192 61.7 232.03 61.7 230.416ZM62.7781 230.416C62.7781 231.822 62.9448 232.759 63.2781 233.228C63.6115 233.697 64.0177 233.931 64.4969 233.931C64.9865 233.931 65.3927 233.697 65.7156 233.228C66.049 232.759 66.2156 231.822 66.2156 230.416C66.2156 228.999 66.049 228.061 65.7156 227.603C65.3927 227.134 64.9812 226.9 64.4812 226.9C64.0021 226.9 63.6167 227.103 63.325 227.509C62.9604 228.03 62.7781 228.999 62.7781 230.416ZM68.7 230.416C68.7 229.395 68.8042 228.577 69.0125 227.962C69.2208 227.337 69.5281 226.858 69.9344 226.525C70.351 226.192 70.8719 226.025 71.4969 226.025C71.9552 226.025 72.3562 226.119 72.7 226.306C73.0542 226.494 73.3458 226.765 73.575 227.119C73.8042 227.462 73.9812 227.884 74.1062 228.384C74.2312 228.884 74.2937 229.561 74.2937 230.416C74.2937 231.426 74.1896 232.239 73.9812 232.853C73.7833 233.468 73.476 233.947 73.0594 234.291C72.6531 234.624 72.1323 234.791 71.4969 234.791C70.674 234.791 70.0229 234.494 69.5437 233.9C68.9812 233.192 68.7 232.03 68.7 230.416ZM69.7781 230.416C69.7781 231.822 69.9448 232.759 70.2781 233.228C70.6115 233.697 71.0177 233.931 71.4969 233.931C71.9865 233.931 72.3927 233.697 72.7156 233.228C73.049 232.759 73.2156 231.822 73.2156 230.416C73.2156 228.999 73.049 228.061 72.7156 227.603C72.3927 227.134 71.9812 226.9 71.4812 226.9C71.0021 226.9 70.6167 227.103 70.325 227.509C69.9604 228.03 69.7781 228.999 69.7781 230.416ZM75.7 230.416C75.7 229.395 75.8042 228.577 76.0125 227.962C76.2208 227.337 76.5281 226.858 76.9344 226.525C77.351 226.192 77.8719 226.025 78.4969 226.025C78.9552 226.025 79.3562 226.119 79.7 226.306C80.0542 226.494 80.3458 226.765 80.575 227.119C80.8042 227.462 80.9812 227.884 81.1062 228.384C81.2312 228.884 81.2937 229.561 81.2937 230.416C81.2937 231.426 81.1896 232.239 80.9812 232.853C80.7833 233.468 80.476 233.947 80.0594 234.291C79.6531 234.624 79.1323 234.791 78.4969 234.791C77.674 234.791 77.0229 234.494 76.5437 233.9C75.9812 233.192 75.7 232.03 75.7 230.416ZM76.7781 230.416C76.7781 231.822 76.9448 232.759 77.2781 233.228C77.6115 233.697 78.0177 233.931 78.4969 233.931C78.9865 233.931 79.3927 233.697 79.7156 233.228C80.049 232.759 80.2156 231.822 80.2156 230.416C80.2156 228.999 80.049 228.061 79.7156 227.603C79.3927 227.134 78.9812 226.9 78.4812 226.9C78.0021 226.9 77.6167 227.103 77.325 227.509C76.9604 228.03 76.7781 228.999 76.7781 230.416ZM82.7 230.416C82.7 229.395 82.8042 228.577 83.0125 227.962C83.2208 227.337 83.5281 226.858 83.9344 226.525C84.351 226.192 84.8719 226.025 85.4969 226.025C85.9552 226.025 86.3562 226.119 86.7 226.306C87.0542 226.494 87.3458 226.765 87.575 227.119C87.8042 227.462 87.9812 227.884 88.1062 228.384C88.2312 228.884 88.2937 229.561 88.2937 230.416C88.2937 231.426 88.1896 232.239 87.9812 232.853C87.7833 233.468 87.476 233.947 87.0594 234.291C86.6531 234.624 86.1323 234.791 85.4969 234.791C84.674 234.791 84.0229 234.494 83.5437 233.9C82.9812 233.192 82.7 232.03 82.7 230.416ZM83.7781 230.416C83.7781 231.822 83.9448 232.759 84.2781 233.228C84.6115 233.697 85.0177 233.931 85.4969 233.931C85.9865 233.931 86.3927 233.697 86.7156 233.228C87.049 232.759 87.2156 231.822 87.2156 230.416C87.2156 228.999 87.049 228.061 86.7156 227.603C86.3927 227.134 85.9812 226.9 85.4812 226.9C85.0021 226.9 84.6167 227.103 84.325 227.509C83.9604 228.03 83.7781 228.999 83.7781 230.416Z" fill="black"/>
<path d="M58.6687 165.075H57.6219V158.356C57.3615 158.596 57.0229 158.841 56.6062 159.091C56.2 159.33 55.8354 159.507 55.5125 159.622V158.606C56.0958 158.325 56.6062 157.992 57.0437 157.606C57.4917 157.21 57.8094 156.825 57.9969 156.45H58.6687V165.075ZM61.7 162.825L62.8094 162.731C62.8927 163.273 63.0802 163.679 63.3719 163.95C63.674 164.221 64.0385 164.356 64.4656 164.356C64.9656 164.356 65.3927 164.164 65.7469 163.778C66.101 163.393 66.2781 162.887 66.2781 162.262C66.2781 161.658 66.1062 161.184 65.7625 160.841C65.4292 160.486 64.9865 160.309 64.4344 160.309C64.101 160.309 63.7937 160.387 63.5125 160.544C63.2417 160.7 63.0281 160.898 62.8719 161.137L61.8875 161.012L62.7156 156.606H66.9969V157.606H63.5594L63.1062 159.919C63.6167 159.554 64.1531 159.372 64.7156 159.372C65.4656 159.372 66.0958 159.632 66.6062 160.153C67.1271 160.674 67.3875 161.346 67.3875 162.169C67.3875 162.94 67.1635 163.611 66.7156 164.184C66.1635 164.872 65.4135 165.216 64.4656 165.216C63.6844 165.216 63.0437 164.997 62.5437 164.559C62.0542 164.122 61.7729 163.544 61.7 162.825ZM68.7 160.841C68.7 159.82 68.8042 159.002 69.0125 158.387C69.2208 157.762 69.5281 157.283 69.9344 156.95C70.351 156.617 70.8719 156.45 71.4969 156.45C71.9552 156.45 72.3562 156.544 72.7 156.731C73.0542 156.919 73.3458 157.19 73.575 157.544C73.8042 157.887 73.9812 158.309 74.1062 158.809C74.2312 159.309 74.2937 159.986 74.2937 160.841C74.2937 161.851 74.1896 162.664 73.9812 163.278C73.7833 163.893 73.476 164.372 73.0594 164.716C72.6531 165.049 72.1323 165.216 71.4969 165.216C70.674 165.216 70.0229 164.919 69.5437 164.325C68.9812 163.617 68.7 162.455 68.7 160.841ZM69.7781 160.841C69.7781 162.247 69.9448 163.184 70.2781 163.653C70.6115 164.122 71.0177 164.356 71.4969 164.356C71.9865 164.356 72.3927 164.122 72.7156 163.653C73.049 163.184 73.2156 162.247 73.2156 160.841C73.2156 159.424 73.049 158.486 72.7156 158.028C72.3927 157.559 71.9812 157.325 71.4812 157.325C71.0021 157.325 70.6167 157.528 70.325 157.934C69.9604 158.455 69.7781 159.424 69.7781 160.841ZM75.7 160.841C75.7 159.82 75.8042 159.002 76.0125 158.387C76.2208 157.762 76.5281 157.283 76.9344 156.95C77.351 156.617 77.8719 156.45 78.4969 156.45C78.9552 156.45 79.3562 156.544 79.7 156.731C80.0542 156.919 80.3458 157.19 80.575 157.544C80.8042 157.887 80.9812 158.309 81.1062 158.809C81.2312 159.309 81.2937 159.986 81.2937 160.841C81.2937 161.851 81.1896 162.664 80.9812 163.278C80.7833 163.893 80.476 164.372 80.0594 164.716C79.6531 165.049 79.1323 165.216 78.4969 165.216C77.674 165.216 77.0229 164.919 76.5437 164.325C75.9812 163.617 75.7 162.455 75.7 160.841ZM76.7781 160.841C76.7781 162.247 76.9448 163.184 77.2781 163.653C77.6115 164.122 78.0177 164.356 78.4969 164.356C78.9865 164.356 79.3927 164.122 79.7156 163.653C80.049 163.184 80.2156 162.247 80.2156 160.841C80.2156 159.424 80.049 158.486 79.7156 158.028C79.3927 157.559 78.9812 157.325 78.4812 157.325C78.0021 157.325 77.6167 157.528 77.325 157.934C76.9604 158.455 76.7781 159.424 76.7781 160.841ZM82.7 160.841C82.7 159.82 82.8042 159.002 83.0125 158.387C83.2208 157.762 83.5281 157.283 83.9344 156.95C84.351 156.617 84.8719 156.45 85.4969 156.45C85.9552 156.45 86.3562 156.544 86.7 156.731C87.0542 156.919 87.3458 157.19 87.575 157.544C87.8042 157.887 87.9812 158.309 88.1062 158.809C88.2312 159.309 88.2937 159.986 88.2937 160.841C88.2937 161.851 88.1896 162.664 87.9812 163.278C87.7833 163.893 87.476 164.372 87.0594 164.716C86.6531 165.049 86.1323 165.216 85.4969 165.216C84.674 165.216 84.0229 164.919 83.5437 164.325C82.9812 163.617 82.7 162.455 82.7 160.841ZM83.7781 160.841C83.7781 162.247 83.9448 163.184 84.2781 163.653C84.6115 164.122 85.0177 164.356 85.4969 164.356C85.9865 164.356 86.3927 164.122 86.7156 163.653C87.049 163.184 87.2156 162.247 87.2156 160.841C87.2156 159.424 87.049 158.486 86.7156 158.028C86.3927 157.559 85.9812 157.325 85.4812 157.325C85.0021 157.325 84.6167 157.528 84.325 157.934C83.9604 158.455 83.7781 159.424 83.7781 160.841Z" fill="black"/>
<path d="M60.2469 94.4844V95.5H54.5594C54.5594 95.25 54.601 95.0052 54.6844 94.7656C54.8302 94.3802 55.0594 94 55.3719 93.625C55.6948 93.25 56.1583 92.8177 56.7625 92.3281C57.7 91.5573 58.3302 90.9479 58.6531 90.5C58.9865 90.0521 59.1531 89.6302 59.1531 89.2344C59.1531 88.8177 59.0021 88.4688 58.7 88.1875C58.3979 87.8958 58.0073 87.75 57.5281 87.75C57.0177 87.75 56.6115 87.901 56.3094 88.2031C56.0073 88.5052 55.851 88.9271 55.8406 89.4688L54.7625 89.3594C54.8354 88.5469 55.1115 87.9323 55.5906 87.5156C56.0802 87.0885 56.7365 86.875 57.5594 86.875C58.3823 86.875 59.0333 87.1042 59.5125 87.5625C59.9917 88.0208 60.2312 88.5885 60.2312 89.2656C60.2312 89.6094 60.1583 89.9479 60.0125 90.2812C59.8771 90.6042 59.6427 90.9531 59.3094 91.3281C58.9865 91.6927 58.45 92.1927 57.7 92.8281C57.0646 93.3594 56.6531 93.724 56.4656 93.9219C56.2885 94.1094 56.1427 94.2969 56.0281 94.4844H60.2469ZM61.7 91.2656C61.7 90.2448 61.8042 89.4271 62.0125 88.8125C62.2208 88.1875 62.5281 87.7083 62.9344 87.375C63.351 87.0417 63.8719 86.875 64.4969 86.875C64.9552 86.875 65.3562 86.9688 65.7 87.1562C66.0542 87.3438 66.3458 87.6146 66.575 87.9688C66.8042 88.3125 66.9812 88.7344 67.1062 89.2344C67.2312 89.7344 67.2937 90.4115 67.2937 91.2656C67.2937 92.276 67.1896 93.0885 66.9812 93.7031C66.7833 94.3177 66.476 94.7969 66.0594 95.1406C65.6531 95.474 65.1323 95.6406 64.4969 95.6406C63.674 95.6406 63.0229 95.3438 62.5437 94.75C61.9812 94.0417 61.7 92.8802 61.7 91.2656ZM62.7781 91.2656C62.7781 92.6719 62.9448 93.6094 63.2781 94.0781C63.6115 94.5469 64.0177 94.7812 64.4969 94.7812C64.9865 94.7812 65.3927 94.5469 65.7156 94.0781C66.049 93.6094 66.2156 92.6719 66.2156 91.2656C66.2156 89.849 66.049 88.9115 65.7156 88.4531C65.3927 87.9844 64.9812 87.75 64.4812 87.75C64.0021 87.75 63.6167 87.9531 63.325 88.3594C62.9604 88.8802 62.7781 89.849 62.7781 91.2656ZM68.7 91.2656C68.7 90.2448 68.8042 89.4271 69.0125 88.8125C69.2208 88.1875 69.5281 87.7083 69.9344 87.375C70.351 87.0417 70.8719 86.875 71.4969 86.875C71.9552 86.875 72.3562 86.9688 72.7 87.1562C73.0542 87.3438 73.3458 87.6146 73.575 87.9688C73.8042 88.3125 73.9812 88.7344 74.1062 89.2344C74.2312 89.7344 74.2937 90.4115 74.2937 91.2656C74.2937 92.276 74.1896 93.0885 73.9812 93.7031C73.7833 94.3177 73.476 94.7969 73.0594 95.1406C72.6531 95.474 72.1323 95.6406 71.4969 95.6406C70.674 95.6406 70.0229 95.3438 69.5437 94.75C68.9812 94.0417 68.7 92.8802 68.7 91.2656ZM69.7781 91.2656C69.7781 92.6719 69.9448 93.6094 70.2781 94.0781C70.6115 94.5469 71.0177 94.7812 71.4969 94.7812C71.9865 94.7812 72.3927 94.5469 72.7156 94.0781C73.049 93.6094 73.2156 92.6719 73.2156 91.2656C73.2156 89.849 73.049 88.9115 72.7156 88.4531C72.3927 87.9844 71.9812 87.75 71.4812 87.75C71.0021 87.75 70.6167 87.9531 70.325 88.3594C69.9604 88.8802 69.7781 89.849 69.7781 91.2656ZM75.7 91.2656C75.7 90.2448 75.8042 89.4271 76.0125 88.8125C76.2208 88.1875 76.5281 87.7083 76.9344 87.375C77.351 87.0417 77.8719 86.875 78.4969 86.875C78.9552 86.875 79.3562 86.9688 79.7 87.1562C80.0542 87.3438 80.3458 87.6146 80.575 87.9688C80.8042 88.3125 80.9812 88.7344 81.1062 89.2344C81.2312 89.7344 81.2937 90.4115 81.2937 91.2656C81.2937 92.276 81.1896 93.0885 80.9812 93.7031C80.7833 94.3177 80.476 94.7969 80.0594 95.1406C79.6531 95.474 79.1323 95.6406 78.4969 95.6406C77.674 95.6406 77.0229 95.3438 76.5437 94.75C75.9812 94.0417 75.7 92.8802 75.7 91.2656ZM76.7781 91.2656C76.7781 92.6719 76.9448 93.6094 77.2781 94.0781C77.6115 94.5469 78.0177 94.7812 78.4969 94.7812C78.9865 94.7812 79.3927 94.5469 79.7156 94.0781C80.049 93.6094 80.2156 92.6719 80.2156 91.2656C80.2156 89.849 80.049 88.9115 79.7156 88.4531C79.3927 87.9844 78.9812 87.75 78.4812 87.75C78.0021 87.75 77.6167 87.9531 77.325 88.3594C76.9604 88.8802 76.7781 89.849 76.7781 91.2656ZM82.7 91.2656C82.7 90.2448 82.8042 89.4271 83.0125 88.8125C83.2208 88.1875 83.5281 87.7083 83.9344 87.375C84.351 87.0417 84.8719 86.875 85.4969 86.875C85.9552 86.875 86.3562 86.9688 86.7 87.1562C87.0542 87.3438 87.3458 87.6146 87.575 87.9688C87.8042 88.3125 87.9812 88.7344 88.1062 89.2344C88.2312 89.7344 88.2937 90.4115 88.2937 91.2656C88.2937 92.276 88.1896 93.0885 87.9812 93.7031C87.7833 94.3177 87.476 94.7969 87.0594 95.1406C86.6531 95.474 86.1323 95.6406 85.4969 95.6406C84.674 95.6406 84.0229 95.3438 83.5437 94.75C82.9812 94.0417 82.7 92.8802 82.7 91.2656ZM83.7781 91.2656C83.7781 92.6719 83.9448 93.6094 84.2781 94.0781C84.6115 94.5469 85.0177 94.7812 85.4969 94.7812C85.9865 94.7812 86.3927 94.5469 86.7156 94.0781C87.049 93.6094 87.2156 92.6719 87.2156 91.2656C87.2156 89.849 87.049 88.9115 86.7156 88.4531C86.3927 87.9844 85.9812 87.75 85.4812 87.75C85.0021 87.75 84.6167 87.9531 84.325 88.3594C83.9604 88.8802 83.7781 89.849 83.7781 91.2656Z" fill="black"/>
<path d="M173.975 386.8V384.737H170.256V383.769L174.178 378.206H175.038V383.769H176.194V384.737H175.038V386.8H173.975ZM173.975 383.769V379.909L171.288 383.769H173.975ZM180.975 386.8V384.737H177.256V383.769L181.178 378.206H182.038V383.769H183.194V384.737H182.038V386.8H180.975ZM180.975 383.769V379.909L178.288 383.769H180.975ZM184.6 382.566C184.6 381.545 184.704 380.727 184.913 380.112C185.121 379.487 185.428 379.008 185.834 378.675C186.251 378.342 186.772 378.175 187.397 378.175C187.855 378.175 188.256 378.269 188.6 378.456C188.954 378.644 189.246 378.915 189.475 379.269C189.704 379.612 189.881 380.034 190.006 380.534C190.131 381.034 190.194 381.711 190.194 382.566C190.194 383.576 190.09 384.389 189.881 385.003C189.683 385.618 189.376 386.097 188.959 386.441C188.553 386.774 188.032 386.941 187.397 386.941C186.574 386.941 185.923 386.644 185.444 386.05C184.881 385.342 184.6 384.18 184.6 382.566ZM185.678 382.566C185.678 383.972 185.845 384.909 186.178 385.378C186.511 385.847 186.918 386.081 187.397 386.081C187.886 386.081 188.293 385.847 188.616 385.378C188.949 384.909 189.116 383.972 189.116 382.566C189.116 381.149 188.949 380.211 188.616 379.753C188.293 379.284 187.881 379.05 187.381 379.05C186.902 379.05 186.517 379.253 186.225 379.659C185.86 380.18 185.678 381.149 185.678 382.566ZM191.6 382.566C191.6 381.545 191.704 380.727 191.913 380.112C192.121 379.487 192.428 379.008 192.834 378.675C193.251 378.342 193.772 378.175 194.397 378.175C194.855 378.175 195.256 378.269 195.6 378.456C195.954 378.644 196.246 378.915 196.475 379.269C196.704 379.612 196.881 380.034 197.006 380.534C197.131 381.034 197.194 381.711 197.194 382.566C197.194 383.576 197.09 384.389 196.881 385.003C196.683 385.618 196.376 386.097 195.959 386.441C195.553 386.774 195.032 386.941 194.397 386.941C193.574 386.941 192.923 386.644 192.444 386.05C191.881 385.342 191.6 384.18 191.6 382.566ZM192.678 382.566C192.678 383.972 192.845 384.909 193.178 385.378C193.511 385.847 193.918 386.081 194.397 386.081C194.886 386.081 195.293 385.847 195.616 385.378C195.949 384.909 196.116 383.972 196.116 382.566C196.116 381.149 195.949 380.211 195.616 379.753C195.293 379.284 194.881 379.05 194.381 379.05C193.902 379.05 193.517 379.253 193.225 379.659C192.86 380.18 192.678 381.149 192.678 382.566ZM198.6 382.566C198.6 381.545 198.704 380.727 198.913 380.112C199.121 379.487 199.428 379.008 199.834 378.675C200.251 378.342 200.772 378.175 201.397 378.175C201.855 378.175 202.256 378.269 202.6 378.456C202.954 378.644 203.246 378.915 203.475 379.269C203.704 379.612 203.881 380.034 204.006 380.534C204.131 381.034 204.194 381.711 204.194 382.566C204.194 383.576 204.09 384.389 203.881 385.003C203.683 385.618 203.376 386.097 202.959 386.441C202.553 386.774 202.032 386.941 201.397 386.941C200.574 386.941 199.923 386.644 199.444 386.05C198.881 385.342 198.6 384.18 198.6 382.566ZM199.678 382.566C199.678 383.972 199.845 384.909 200.178 385.378C200.511 385.847 200.918 386.081 201.397 386.081C201.886 386.081 202.293 385.847 202.616 385.378C202.949 384.909 203.116 383.972 203.116 382.566C203.116 381.149 202.949 380.211 202.616 379.753C202.293 379.284 201.881 379.05 201.381 379.05C200.902 379.05 200.517 379.253 200.225 379.659C199.86 380.18 199.678 381.149 199.678 382.566Z" fill="black"/>
<path d="M293.975 386.8V384.737H290.256V383.769L294.178 378.206H295.038V383.769H296.194V384.737H295.038V386.8H293.975ZM293.975 383.769V379.909L291.288 383.769H293.975ZM300.975 386.8V384.737H297.256V383.769L301.178 378.206H302.038V383.769H303.194V384.737H302.038V386.8H300.975ZM300.975 383.769V379.909L298.288 383.769H300.975ZM310.147 385.784V386.8H304.459C304.459 386.55 304.501 386.305 304.584 386.066C304.73 385.68 304.959 385.3 305.272 384.925C305.595 384.55 306.058 384.118 306.663 383.628C307.6 382.857 308.23 382.248 308.553 381.8C308.886 381.352 309.053 380.93 309.053 380.534C309.053 380.118 308.902 379.769 308.6 379.487C308.298 379.196 307.907 379.05 307.428 379.05C306.918 379.05 306.511 379.201 306.209 379.503C305.907 379.805 305.751 380.227 305.741 380.769L304.663 380.659C304.735 379.847 305.011 379.232 305.491 378.816C305.98 378.389 306.636 378.175 307.459 378.175C308.282 378.175 308.933 378.404 309.413 378.862C309.892 379.321 310.131 379.889 310.131 380.566C310.131 380.909 310.058 381.248 309.913 381.581C309.777 381.904 309.543 382.253 309.209 382.628C308.886 382.993 308.35 383.493 307.6 384.128C306.965 384.659 306.553 385.024 306.366 385.222C306.189 385.409 306.043 385.597 305.928 385.784H310.147ZM311.6 382.566C311.6 381.545 311.704 380.727 311.913 380.112C312.121 379.487 312.428 379.008 312.834 378.675C313.251 378.342 313.772 378.175 314.397 378.175C314.855 378.175 315.256 378.269 315.6 378.456C315.954 378.644 316.246 378.915 316.475 379.269C316.704 379.612 316.881 380.034 317.006 380.534C317.131 381.034 317.194 381.711 317.194 382.566C317.194 383.576 317.09 384.389 316.881 385.003C316.683 385.618 316.376 386.097 315.959 386.441C315.553 386.774 315.032 386.941 314.397 386.941C313.574 386.941 312.923 386.644 312.444 386.05C311.881 385.342 311.6 384.18 311.6 382.566ZM312.678 382.566C312.678 383.972 312.845 384.909 313.178 385.378C313.511 385.847 313.918 386.081 314.397 386.081C314.886 386.081 315.293 385.847 315.616 385.378C315.949 384.909 316.116 383.972 316.116 382.566C316.116 381.149 315.949 380.211 315.616 379.753C315.293 379.284 314.881 379.05 314.381 379.05C313.902 379.05 313.517 379.253 313.225 379.659C312.86 380.18 312.678 381.149 312.678 382.566ZM318.6 382.566C318.6 381.545 318.704 380.727 318.913 380.112C319.121 379.487 319.428 379.008 319.834 378.675C320.251 378.342 320.772 378.175 321.397 378.175C321.855 378.175 322.256 378.269 322.6 378.456C322.954 378.644 323.246 378.915 323.475 379.269C323.704 379.612 323.881 380.034 324.006 380.534C324.131 381.034 324.194 381.711 324.194 382.566C324.194 383.576 324.09 384.389 323.881 385.003C323.683 385.618 323.376 386.097 322.959 386.441C322.553 386.774 322.032 386.941 321.397 386.941C320.574 386.941 319.923 386.644 319.444 386.05C318.881 385.342 318.6 384.18 318.6 382.566ZM319.678 382.566C319.678 383.972 319.845 384.909 320.178 385.378C320.511 385.847 320.918 386.081 321.397 386.081C321.886 386.081 322.293 385.847 322.616 385.378C322.949 384.909 323.116 383.972 323.116 382.566C323.116 381.149 322.949 380.211 322.616 379.753C322.293 379.284 321.881 379.05 321.381 379.05C320.902 379.05 320.517 379.253 320.225 379.659C319.86 380.18 319.678 381.149 319.678 382.566Z" fill="black"/>
<path d="M413.975 386.8V384.737H410.256V383.769L414.178 378.206H415.038V383.769H416.194V384.737H415.038V386.8H413.975ZM413.975 383.769V379.909L411.288 383.769H413.975ZM420.975 386.8V384.737H417.256V383.769L421.178 378.206H422.038V383.769H423.194V384.737H422.038V386.8H420.975ZM420.975 383.769V379.909L418.288 383.769H420.975ZM427.975 386.8V384.737H424.256V383.769L428.178 378.206H429.038V383.769H430.194V384.737H429.038V386.8H427.975ZM427.975 383.769V379.909L425.288 383.769H427.975ZM431.6 382.566C431.6 381.545 431.704 380.727 431.913 380.112C432.121 379.487 432.428 379.008 432.834 378.675C433.251 378.342 433.772 378.175 434.397 378.175C434.855 378.175 435.256 378.269 435.6 378.456C435.954 378.644 436.246 378.915 436.475 379.269C436.704 379.612 436.881 380.034 437.006 380.534C437.131 381.034 437.194 381.711 437.194 382.566C437.194 383.576 437.09 384.389 436.881 385.003C436.683 385.618 436.376 386.097 435.959 386.441C435.553 386.774 435.032 386.941 434.397 386.941C433.574 386.941 432.923 386.644 432.444 386.05C431.881 385.342 431.6 384.18 431.6 382.566ZM432.678 382.566C432.678 383.972 432.845 384.909 433.178 385.378C433.511 385.847 433.918 386.081 434.397 386.081C434.886 386.081 435.293 385.847 435.616 385.378C435.949 384.909 436.116 383.972 436.116 382.566C436.116 381.149 435.949 380.211 435.616 379.753C435.293 379.284 434.881 379.05 434.381 379.05C433.902 379.05 433.517 379.253 433.225 379.659C432.86 380.18 432.678 381.149 432.678 382.566ZM438.6 382.566C438.6 381.545 438.704 380.727 438.913 380.112C439.121 379.487 439.428 379.008 439.834 378.675C440.251 378.342 440.772 378.175 441.397 378.175C441.855 378.175 442.256 378.269 442.6 378.456C442.954 378.644 443.246 378.915 443.475 379.269C443.704 379.612 443.881 380.034 444.006 380.534C444.131 381.034 444.194 381.711 444.194 382.566C444.194 383.576 444.09 384.389 443.881 385.003C443.683 385.618 443.376 386.097 442.959 386.441C442.553 386.774 442.032 386.941 441.397 386.941C440.574 386.941 439.923 386.644 439.444 386.05C438.881 385.342 438.6 384.18 438.6 382.566ZM439.678 382.566C439.678 383.972 439.845 384.909 440.178 385.378C440.511 385.847 440.918 386.081 441.397 386.081C441.886 386.081 442.293 385.847 442.616 385.378C442.949 384.909 443.116 383.972 443.116 382.566C443.116 381.149 442.949 380.211 442.616 379.753C442.293 379.284 441.881 379.05 441.381 379.05C440.902 379.05 440.517 379.253 440.225 379.659C439.86 380.18 439.678 381.149 439.678 382.566Z" fill="black"/>
<path d="M533.975 386.8V384.737H530.256V383.769L534.178 378.206H535.037V383.769H536.194V384.737H535.037V386.8H533.975ZM533.975 383.769V379.909L531.287 383.769H533.975ZM540.975 386.8V384.737H537.256V383.769L541.178 378.206H542.037V383.769H543.194V384.737H542.037V386.8H540.975ZM540.975 383.769V379.909L538.287 383.769H540.975ZM550.069 380.316L549.022 380.394C548.928 379.977 548.798 379.675 548.631 379.487C548.34 379.185 547.985 379.034 547.569 379.034C547.235 379.034 546.939 379.128 546.678 379.316C546.355 379.566 546.095 379.925 545.897 380.394C545.709 380.852 545.61 381.508 545.6 382.362C545.85 381.977 546.157 381.691 546.522 381.503C546.897 381.316 547.287 381.222 547.694 381.222C548.392 381.222 548.985 381.482 549.475 382.003C549.975 382.524 550.225 383.191 550.225 384.003C550.225 384.545 550.105 385.05 549.866 385.519C549.636 385.977 549.319 386.331 548.912 386.581C548.506 386.821 548.048 386.941 547.537 386.941C546.652 386.941 545.933 386.618 545.381 385.972C544.829 385.326 544.553 384.264 544.553 382.784C544.553 381.118 544.86 379.909 545.475 379.159C546.006 378.503 546.725 378.175 547.631 378.175C548.308 378.175 548.86 378.368 549.287 378.753C549.725 379.128 549.985 379.649 550.069 380.316ZM545.772 384.019C545.772 384.383 545.845 384.732 545.991 385.066C546.147 385.389 546.36 385.639 546.631 385.816C546.912 385.993 547.209 386.081 547.522 386.081C547.959 386.081 548.34 385.904 548.662 385.55C548.985 385.185 549.147 384.696 549.147 384.081C549.147 383.487 548.985 383.019 548.662 382.675C548.35 382.331 547.954 382.159 547.475 382.159C546.996 382.159 546.59 382.331 546.256 382.675C545.933 383.019 545.772 383.467 545.772 384.019ZM551.6 382.566C551.6 381.545 551.704 380.727 551.912 380.112C552.121 379.487 552.428 379.008 552.834 378.675C553.251 378.342 553.772 378.175 554.397 378.175C554.855 378.175 555.256 378.269 555.6 378.456C555.954 378.644 556.246 378.915 556.475 379.269C556.704 379.612 556.881 380.034 557.006 380.534C557.131 381.034 557.194 381.711 557.194 382.566C557.194 383.576 557.09 384.389 556.881 385.003C556.683 385.618 556.376 386.097 555.959 386.441C555.553 386.774 555.032 386.941 554.397 386.941C553.574 386.941 552.923 386.644 552.444 386.05C551.881 385.342 551.6 384.18 551.6 382.566ZM552.678 382.566C552.678 383.972 552.845 384.909 553.178 385.378C553.511 385.847 553.918 386.081 554.397 386.081C554.886 386.081 555.293 385.847 555.616 385.378C555.949 384.909 556.116 383.972 556.116 382.566C556.116 381.149 555.949 380.211 555.616 379.753C555.293 379.284 554.881 379.05 554.381 379.05C553.902 379.05 553.517 379.253 553.225 379.659C552.86 380.18 552.678 381.149 552.678 382.566ZM558.6 382.566C558.6 381.545 558.704 380.727 558.912 380.112C559.121 379.487 559.428 379.008 559.834 378.675C560.251 378.342 560.772 378.175 561.397 378.175C561.855 378.175 562.256 378.269 562.6 378.456C562.954 378.644 563.246 378.915 563.475 379.269C563.704 379.612 563.881 380.034 564.006 380.534C564.131 381.034 564.194 381.711 564.194 382.566C564.194 383.576 564.09 384.389 563.881 385.003C563.683 385.618 563.376 386.097 562.959 386.441C562.553 386.774 562.032 386.941 561.397 386.941C560.574 386.941 559.923 386.644 559.444 386.05C558.881 385.342 558.6 384.18 558.6 382.566ZM559.678 382.566C559.678 383.972 559.845 384.909 560.178 385.378C560.511 385.847 560.918 386.081 561.397 386.081C561.886 386.081 562.293 385.847 562.616 385.378C562.949 384.909 563.116 383.972 563.116 382.566C563.116 381.149 562.949 380.211 562.616 379.753C562.293 379.284 561.881 379.05 561.381 379.05C560.902 379.05 560.517 379.253 560.225 379.659C559.86 380.18 559.678 381.149 559.678 382.566Z" fill="black"/>
<path d="M653.975 386.8V384.737H650.256V383.769L654.178 378.206H655.037V383.769H656.194V384.737H655.037V386.8H653.975ZM653.975 383.769V379.909L651.287 383.769H653.975ZM660.975 386.8V384.737H657.256V383.769L661.178 378.206H662.037V383.769H663.194V384.737H662.037V386.8H660.975ZM660.975 383.769V379.909L658.287 383.769H660.975ZM666.225 382.144C665.787 381.977 665.459 381.748 665.241 381.456C665.032 381.154 664.928 380.8 664.928 380.394C664.928 379.769 665.152 379.243 665.6 378.816C666.058 378.389 666.657 378.175 667.397 378.175C668.147 378.175 668.751 378.394 669.209 378.831C669.668 379.269 669.897 379.8 669.897 380.425C669.897 380.821 669.793 381.165 669.584 381.456C669.376 381.748 669.058 381.977 668.631 382.144C669.162 382.31 669.564 382.586 669.834 382.972C670.105 383.357 670.241 383.816 670.241 384.347C670.241 385.076 669.98 385.691 669.459 386.191C668.949 386.691 668.267 386.941 667.412 386.941C666.569 386.941 665.886 386.691 665.366 386.191C664.845 385.691 664.584 385.066 664.584 384.316C664.584 383.753 664.725 383.284 665.006 382.909C665.298 382.534 665.704 382.279 666.225 382.144ZM666.006 380.347C666.006 380.753 666.136 381.086 666.397 381.347C666.668 381.607 667.011 381.737 667.428 381.737C667.834 381.737 668.168 381.612 668.428 381.362C668.689 381.102 668.819 380.784 668.819 380.409C668.819 380.024 668.683 379.701 668.412 379.441C668.142 379.17 667.808 379.034 667.412 379.034C667.006 379.034 666.668 379.165 666.397 379.425C666.136 379.685 666.006 379.993 666.006 380.347ZM665.678 384.316C665.678 384.618 665.746 384.909 665.881 385.191C666.027 385.472 666.241 385.691 666.522 385.847C666.803 386.003 667.105 386.081 667.428 386.081C667.928 386.081 668.34 385.92 668.662 385.597C668.996 385.274 669.162 384.862 669.162 384.362C669.162 383.852 668.996 383.43 668.662 383.097C668.329 382.764 667.907 382.597 667.397 382.597C666.897 382.597 666.485 382.764 666.162 383.097C665.84 383.42 665.678 383.826 665.678 384.316ZM671.6 382.566C671.6 381.545 671.704 380.727 671.912 380.112C672.121 379.487 672.428 379.008 672.834 378.675C673.251 378.342 673.772 378.175 674.397 378.175C674.855 378.175 675.256 378.269 675.6 378.456C675.954 378.644 676.246 378.915 676.475 379.269C676.704 379.612 676.881 380.034 677.006 380.534C677.131 381.034 677.194 381.711 677.194 382.566C677.194 383.576 677.09 384.389 676.881 385.003C676.683 385.618 676.376 386.097 675.959 386.441C675.553 386.774 675.032 386.941 674.397 386.941C673.574 386.941 672.923 386.644 672.444 386.05C671.881 385.342 671.6 384.18 671.6 382.566ZM672.678 382.566C672.678 383.972 672.845 384.909 673.178 385.378C673.511 385.847 673.918 386.081 674.397 386.081C674.886 386.081 675.293 385.847 675.616 385.378C675.949 384.909 676.116 383.972 676.116 382.566C676.116 381.149 675.949 380.211 675.616 379.753C675.293 379.284 674.881 379.05 674.381 379.05C673.902 379.05 673.517 379.253 673.225 379.659C672.86 380.18 672.678 381.149 672.678 382.566ZM678.6 382.566C678.6 381.545 678.704 380.727 678.912 380.112C679.121 379.487 679.428 379.008 679.834 378.675C680.251 378.342 680.772 378.175 681.397 378.175C681.855 378.175 682.256 378.269 682.6 378.456C682.954 378.644 683.246 378.915 683.475 379.269C683.704 379.612 683.881 380.034 684.006 380.534C684.131 381.034 684.194 381.711 684.194 382.566C684.194 383.576 684.09 384.389 683.881 385.003C683.683 385.618 683.376 386.097 682.959 386.441C682.553 386.774 682.032 386.941 681.397 386.941C680.574 386.941 679.923 386.644 679.444 386.05C678.881 385.342 678.6 384.18 678.6 382.566ZM679.678 382.566C679.678 383.972 679.845 384.909 680.178 385.378C680.511 385.847 680.918 386.081 681.397 386.081C681.886 386.081 682.293 385.847 682.616 385.378C682.949 384.909 683.116 383.972 683.116 382.566C683.116 381.149 682.949 380.211 682.616 379.753C682.293 379.284 681.881 379.05 681.381 379.05C680.902 379.05 680.517 379.253 680.225 379.659C679.86 380.18 679.678 381.149 679.678 382.566Z" fill="black"/>
<path d="M576.847 65.5125V66.7H570.222C570.211 66.4083 570.258 66.1219 570.363 65.8406C570.54 65.3927 570.81 64.95 571.175 64.5125C571.55 64.075 572.086 63.5698 572.784 62.9969C573.878 62.101 574.613 61.3927 574.988 60.8719C575.373 60.351 575.566 59.8562 575.566 59.3875C575.566 58.8979 575.389 58.4865 575.034 58.1531C574.691 57.8198 574.243 57.6531 573.691 57.6531C573.097 57.6531 572.618 57.8302 572.253 58.1844C571.899 58.5385 571.722 59.0333 571.722 59.6687L570.456 59.5281C570.54 58.5906 570.862 57.8771 571.425 57.3875C571.998 56.8875 572.758 56.6375 573.706 56.6375C574.675 56.6375 575.435 56.9031 575.988 57.4344C576.55 57.9656 576.831 58.6271 576.831 59.4187C576.831 59.825 576.748 60.2208 576.581 60.6062C576.425 60.9917 576.154 61.3979 575.769 61.825C575.394 62.2521 574.764 62.8406 573.878 63.5906C573.139 64.2052 572.665 64.6271 572.456 64.8562C572.248 65.075 572.076 65.2937 571.941 65.5125H576.847ZM578.378 61.7625C578.378 60.575 578.498 59.6219 578.738 58.9031C578.988 58.174 579.352 57.6167 579.831 57.2312C580.31 56.8354 580.915 56.6375 581.644 56.6375C582.185 56.6375 582.659 56.7469 583.066 56.9656C583.472 57.1844 583.805 57.4969 584.066 57.9031C584.336 58.3094 584.545 58.8042 584.691 59.3875C584.836 59.9708 584.909 60.7625 584.909 61.7625C584.909 62.9396 584.79 63.8875 584.55 64.6062C584.31 65.325 583.951 65.8823 583.472 66.2781C582.993 66.674 582.383 66.8719 581.644 66.8719C580.685 66.8719 579.93 66.5229 579.378 65.825C578.711 64.9917 578.378 63.6375 578.378 61.7625ZM579.644 61.7625C579.644 63.4083 579.836 64.5021 580.222 65.0437C580.607 65.5854 581.081 65.8562 581.644 65.8562C582.217 65.8562 582.696 65.5854 583.081 65.0437C583.467 64.4917 583.659 63.3979 583.659 61.7625C583.659 60.1062 583.467 59.0073 583.081 58.4656C582.696 57.924 582.211 57.6531 581.628 57.6531C581.066 57.6531 580.618 57.8927 580.284 58.3719C579.857 58.9865 579.644 60.1167 579.644 61.7625ZM592.847 65.5125V66.7H586.222C586.211 66.4083 586.258 66.1219 586.363 65.8406C586.54 65.3927 586.81 64.95 587.175 64.5125C587.55 64.075 588.086 63.5698 588.784 62.9969C589.878 62.101 590.613 61.3927 590.988 60.8719C591.373 60.351 591.566 59.8562 591.566 59.3875C591.566 58.8979 591.389 58.4865 591.034 58.1531C590.691 57.8198 590.243 57.6531 589.691 57.6531C589.097 57.6531 588.618 57.8302 588.253 58.1844C587.899 58.5385 587.722 59.0333 587.722 59.6687L586.456 59.5281C586.54 58.5906 586.862 57.8771 587.425 57.3875C587.998 56.8875 588.758 56.6375 589.706 56.6375C590.675 56.6375 591.435 56.9031 591.988 57.4344C592.55 57.9656 592.831 58.6271 592.831 59.4187C592.831 59.825 592.748 60.2208 592.581 60.6062C592.425 60.9917 592.154 61.3979 591.769 61.825C591.394 62.2521 590.764 62.8406 589.878 63.5906C589.139 64.2052 588.665 64.6271 588.456 64.8562C588.248 65.075 588.076 65.2937 587.941 65.5125H592.847ZM600.847 65.5125V66.7H594.222C594.211 66.4083 594.258 66.1219 594.363 65.8406C594.54 65.3927 594.81 64.95 595.175 64.5125C595.55 64.075 596.086 63.5698 596.784 62.9969C597.878 62.101 598.613 61.3927 598.988 60.8719C599.373 60.351 599.566 59.8562 599.566 59.3875C599.566 58.8979 599.389 58.4865 599.034 58.1531C598.691 57.8198 598.243 57.6531 597.691 57.6531C597.097 57.6531 596.618 57.8302 596.253 58.1844C595.899 58.5385 595.722 59.0333 595.722 59.6687L594.456 59.5281C594.54 58.5906 594.862 57.8771 595.425 57.3875C595.998 56.8875 596.758 56.6375 597.706 56.6375C598.675 56.6375 599.435 56.9031 599.988 57.4344C600.55 57.9656 600.831 58.6271 600.831 59.4187C600.831 59.825 600.748 60.2208 600.581 60.6062C600.425 60.9917 600.154 61.3979 599.769 61.825C599.394 62.2521 598.764 62.8406 597.878 63.5906C597.139 64.2052 596.665 64.6271 596.456 64.8562C596.248 65.075 596.076 65.2937 595.941 65.5125H600.847Z" fill="#999999"/>
<path d="M606.175 58.1687C605.487 59.3667 604.633 60.3667 603.612 61.1687L602.847 60.1844C604.336 59.0906 605.357 57.5073 605.909 55.4344L607.159 55.7625C607.305 55.9083 607.253 55.9969 607.003 56.0281L606.566 57.1219H614.269V58.1687H610.284V60.0281H613.566V61.0594H610.284V63.5281H614.878V64.5594H610.284V67.8562H609.191V64.5594H602.894V63.5281H605.362V60.0281H609.191V58.1687H606.175ZM606.456 63.5281H609.191V61.0594H606.456V63.5281Z" fill="#999999"/>
<path d="M616.566 64.3875L617.753 64.2781C617.847 64.8302 618.034 65.2312 618.316 65.4812C618.607 65.7312 618.972 65.8562 619.409 65.8562C619.784 65.8562 620.112 65.7729 620.394 65.6062C620.685 65.4292 620.92 65.1948 621.097 64.9031C621.284 64.6115 621.441 64.2208 621.566 63.7312C621.691 63.2417 621.753 62.7417 621.753 62.2312C621.753 62.1792 621.748 62.0958 621.737 61.9812C621.498 62.3771 621.165 62.7 620.737 62.95C620.31 63.1896 619.847 63.3094 619.347 63.3094C618.514 63.3094 617.81 63.0073 617.237 62.4031C616.665 61.799 616.378 61.0073 616.378 60.0281C616.378 59.0073 616.675 58.1896 617.269 57.575C617.873 56.95 618.628 56.6375 619.534 56.6375C620.18 56.6375 620.774 56.8146 621.316 57.1687C621.857 57.5125 622.269 58.0125 622.55 58.6687C622.831 59.3146 622.972 60.2521 622.972 61.4812C622.972 62.7625 622.831 63.7833 622.55 64.5437C622.279 65.3042 621.868 65.8823 621.316 66.2781C620.764 66.674 620.118 66.8719 619.378 66.8719C618.597 66.8719 617.956 66.6531 617.456 66.2156C616.967 65.7781 616.67 65.1687 616.566 64.3875ZM621.597 59.9656C621.597 59.2573 621.409 58.6948 621.034 58.2781C620.659 57.8615 620.211 57.6531 619.691 57.6531C619.139 57.6531 618.659 57.8771 618.253 58.325C617.847 58.7729 617.644 59.351 617.644 60.0594C617.644 60.6948 617.836 61.2156 618.222 61.6219C618.607 62.0177 619.081 62.2156 619.644 62.2156C620.217 62.2156 620.685 62.0177 621.05 61.6219C621.415 61.2156 621.597 60.6635 621.597 59.9656Z" fill="#999999"/>
<path d="M633.706 63.5281H628.503C628.503 65.0906 627.701 66.5698 626.097 67.9656L625.175 66.9187C626.665 65.9708 627.409 64.549 627.409 62.6531V55.9812H634.8V66.7625C634.8 67.3458 634.487 67.6375 633.862 67.6375H632.55L632.331 66.4187H633.487C633.633 66.4187 633.706 66.3458 633.706 66.2V63.5281ZM628.503 62.325H633.706V60.3562H628.503V62.325ZM628.503 59.1531H633.706V57.1844H628.503V59.1531Z" fill="#999999"/>
<path d="M644.847 65.5125V66.7H638.222C638.211 66.4083 638.258 66.1219 638.363 65.8406C638.54 65.3927 638.81 64.95 639.175 64.5125C639.55 64.075 640.086 63.5698 640.784 62.9969C641.878 62.101 642.613 61.3927 642.988 60.8719C643.373 60.351 643.566 59.8562 643.566 59.3875C643.566 58.8979 643.389 58.4865 643.034 58.1531C642.691 57.8198 642.243 57.6531 641.691 57.6531C641.097 57.6531 640.618 57.8302 640.253 58.1844C639.899 58.5385 639.722 59.0333 639.722 59.6687L638.456 59.5281C638.54 58.5906 638.862 57.8771 639.425 57.3875C639.998 56.8875 640.758 56.6375 641.706 56.6375C642.675 56.6375 643.435 56.9031 643.988 57.4344C644.55 57.9656 644.831 58.6271 644.831 59.4187C644.831 59.825 644.748 60.2208 644.581 60.6062C644.425 60.9917 644.154 61.3979 643.769 61.825C643.394 62.2521 642.764 62.8406 641.878 63.5906C641.139 64.2052 640.665 64.6271 640.456 64.8562C640.248 65.075 640.076 65.2937 639.941 65.5125H644.847ZM646.566 64.3875L647.753 64.2781C647.847 64.8302 648.034 65.2312 648.316 65.4812C648.607 65.7312 648.972 65.8562 649.409 65.8562C649.784 65.8562 650.113 65.7729 650.394 65.6062C650.685 65.4292 650.92 65.1948 651.097 64.9031C651.284 64.6115 651.441 64.2208 651.566 63.7312C651.691 63.2417 651.753 62.7417 651.753 62.2312C651.753 62.1792 651.748 62.0958 651.738 61.9812C651.498 62.3771 651.165 62.7 650.738 62.95C650.31 63.1896 649.847 63.3094 649.347 63.3094C648.514 63.3094 647.81 63.0073 647.238 62.4031C646.665 61.799 646.378 61.0073 646.378 60.0281C646.378 59.0073 646.675 58.1896 647.269 57.575C647.873 56.95 648.628 56.6375 649.534 56.6375C650.18 56.6375 650.774 56.8146 651.316 57.1687C651.857 57.5125 652.269 58.0125 652.55 58.6687C652.831 59.3146 652.972 60.2521 652.972 61.4812C652.972 62.7625 652.831 63.7833 652.55 64.5437C652.279 65.3042 651.868 65.8823 651.316 66.2781C650.764 66.674 650.118 66.8719 649.378 66.8719C648.597 66.8719 647.956 66.6531 647.456 66.2156C646.967 65.7781 646.67 65.1687 646.566 64.3875ZM651.597 59.9656C651.597 59.2573 651.409 58.6948 651.034 58.2781C650.659 57.8615 650.211 57.6531 649.691 57.6531C649.139 57.6531 648.659 57.8771 648.253 58.325C647.847 58.7729 647.644 59.351 647.644 60.0594C647.644 60.6948 647.836 61.2156 648.222 61.6219C648.607 62.0177 649.081 62.2156 649.644 62.2156C650.217 62.2156 650.685 62.0177 651.05 61.6219C651.415 61.2156 651.597 60.6635 651.597 59.9656Z" fill="#999999"/>
<path d="M657.8 67.2H656.534V56.6375H665.128V66.9812H663.862V66.2H657.8V67.2ZM663.862 60.7937V57.6687H657.8V60.7937H663.862ZM663.862 65.1687V61.825H657.8V65.1687H663.862ZM678.081 59.8562H680.659V60.7312H678.362V61.9969H680.222V62.8719H678.362V64.1844H680.222V65.0594H678.362V66.4187H681.097V67.3094H675.566V67.8562H674.644V61.7781C674.352 62.174 673.987 62.5385 673.55 62.8719L673.159 61.825C674.545 60.5854 675.441 59.2937 675.847 57.95H674.581V59.2H673.659V57.075H676.066C676.211 56.4917 676.336 55.8719 676.441 55.2156L677.534 55.4812C677.649 55.5958 677.612 55.7052 677.425 55.8094C677.321 56.2469 677.211 56.6687 677.097 57.075H680.987V58.9812H680.05V57.95H676.878C676.659 58.7104 676.368 59.3458 676.003 59.8562H677.159L677.862 58.2156L678.909 58.4344C679.086 58.5073 679.05 58.601 678.8 58.7156L678.081 59.8562ZM668.847 57.3406V56.3094H673.487V57.3406H671.581C671.508 58.476 671.269 59.5177 670.862 60.4656H673.003V66.9812H672.066V66.0906H670.644V67.5281H669.722V62.5906C669.503 62.9552 669.264 63.2833 669.003 63.575L668.3 62.6531C669.571 61.226 670.316 59.4552 670.534 57.3406H668.847ZM675.566 62.8719V64.1844H677.425V62.8719H675.566ZM675.566 60.7312V61.9969H677.425V60.7312H675.566ZM675.566 65.0594V66.4187H677.425V65.0594H675.566ZM670.644 61.3406V65.2156H672.066V61.3406H670.644ZM687.222 61.45C688.566 61.0854 689.42 60.3719 689.784 59.3094L688.316 58.7156L688.691 57.7781L690.003 58.2781L690.112 56.9656H687.816V55.9187H694.378L694.269 60.6219C694.237 61.5385 693.857 61.9969 693.128 61.9969H691.862L691.753 60.95H692.909C693.128 60.95 693.237 60.8406 693.237 60.6219L693.347 56.9656H691.206L691.05 58.7156L692.362 59.4187L691.862 60.4031L690.769 59.8094C690.3 61.1531 689.264 62.0646 687.659 62.5437L687.222 61.45ZM694.159 66.9187C693.868 65.825 693.415 64.8771 692.8 64.075L693.784 63.6375C694.586 64.6167 695.097 65.5437 695.316 66.4187L694.159 66.9187ZM686.831 63.4656V67.6844H685.909V67.3094H684.05V67.9031H683.112V63.4656H686.831ZM687.269 66.9812C687.529 66.0646 687.696 65.0229 687.769 63.8562L688.862 63.9656C688.935 63.9969 688.899 64.0854 688.753 64.2312C688.711 65.3979 688.545 66.4031 688.253 67.2469L687.269 66.9812ZM690.769 61.6687C691.279 61.9917 691.79 62.5542 692.3 63.3562L691.269 63.9656C691.008 63.4552 690.571 62.8719 689.956 62.2156L690.769 61.6687ZM683.331 55.7H686.612V56.7469H683.331V55.7ZM682.628 57.5594H687.331V58.6062H682.628V57.5594ZM683.331 59.5906H686.612V60.6219H683.331V59.5906ZM683.331 61.45H686.612V62.4812H683.331V61.45ZM684.05 64.3406V66.4187H685.909V64.3406H684.05ZM690.222 63.3094C690.514 63.3406 690.534 63.45 690.284 63.6375V66.2C690.284 66.4604 690.394 66.5906 690.612 66.5906H691.816C692.034 66.5906 692.159 66.4812 692.191 66.2625L692.3 65.3875L693.394 65.6531L693.175 66.8094C693.071 67.3615 692.743 67.6375 692.191 67.6375H690.112C689.498 67.6375 689.191 67.3042 689.191 66.6375V63.3094H690.222Z" fill="#999999"/>
<path d="M30.2736 40.8094C28.1903 41.7469 25.4038 42.3979 21.9142 42.7625L21.5236 41.2C24.1278 41.1479 26.6017 40.7573 28.9455 40.0281C28.1121 39.5594 27.3309 38.9083 26.6017 38.075C25.6642 38.7521 24.31 39.325 22.5392 39.7938L21.9923 38.4656C24.4403 37.9448 26.2371 36.9552 27.383 35.4969C26.7059 35.4448 26.3673 35.0802 26.3673 34.4031V31.7469H27.6173C28.0861 31.7469 28.1121 31.9031 27.6955 32.2156V33.7C27.6955 34.0646 27.8778 34.2469 28.2423 34.2469H31.9142C32.1225 34.2469 32.2267 34.1427 32.2267 33.9344L32.3048 32.9188L33.633 33.2313L33.5548 34.4813C33.5028 35.1583 33.06 35.4969 32.2267 35.4969H29.0236C28.8673 35.8094 28.633 36.1219 28.3205 36.4344H33.9455L34.258 36.2L35.508 37.1375L35.0392 37.45C34.0496 38.4396 32.9819 39.2729 31.8361 39.95C33.659 40.575 35.9246 40.8875 38.633 40.8875L37.9298 42.6063C34.6486 42.3458 32.0965 41.7469 30.2736 40.8094ZM35.6642 26.7469C30.6642 27.1636 26.3413 27.45 22.6955 27.6063L22.2267 26.2781C27.1746 26.0698 31.5236 25.7313 35.2736 25.2625L36.2111 26.4344C36.5236 26.799 36.3413 26.9031 35.6642 26.7469ZM35.9767 35.2625C35.1955 34.1688 34.4403 33.3094 33.7111 32.6844L34.883 31.9031C35.508 32.3719 36.3413 33.2052 37.383 34.4031L35.9767 35.2625ZM29.7267 33.7C29.31 32.8667 28.9455 32.2938 28.633 31.9813L29.9611 31.4344C30.3778 31.8511 30.7944 32.3719 31.2111 32.9969L29.7267 33.7ZM25.1173 29.7938C24.8569 29.325 24.4923 28.8563 24.0236 28.3875L25.6642 27.8406C26.133 28.3094 26.5236 28.7781 26.8361 29.2469L25.1173 29.7938ZM36.6017 33.2313V31.2H22.7736V33.4656H21.2111V29.95H32.3048C32.8257 29.2729 33.3205 28.3354 33.7892 27.1375L35.2736 27.7625C35.7944 27.9708 35.7423 28.1531 35.1173 28.3094C34.7528 28.8823 34.3621 29.4292 33.9455 29.95H38.1642V33.2313H36.6017ZM30.3517 39.4031C31.3413 38.8823 32.2007 38.3094 32.9298 37.6844H27.7736C28.5548 38.4656 29.4142 39.0386 30.3517 39.4031ZM29.3361 29.7156C28.9194 28.9865 28.5288 28.4396 28.1642 28.075L29.8048 27.6063C30.3257 28.1271 30.7423 28.6479 31.0548 29.1688L29.3361 29.7156ZM25.5861 32.9188C25.8465 33.1792 25.7423 33.3354 25.2736 33.3875C24.8569 34.2208 24.3361 35.0281 23.7111 35.8094L22.4611 34.95C23.2423 34.1167 23.8413 33.2313 24.258 32.2938L25.5861 32.9188ZM41.133 34.325V32.8406H45.1955V29.6375H44.1798C43.7111 30.575 43.06 31.4083 42.2267 32.1375L41.0548 30.9656C42.6173 29.6636 43.7111 27.7365 44.3361 25.1844L45.8986 25.6531C46.2111 25.8094 46.133 25.9656 45.6642 26.1219C45.4559 26.7469 45.1694 27.424 44.8048 28.1531H49.7267V29.6375H46.758V32.8406H50.6642V34.325H46.758C46.758 35.0021 46.7059 35.6792 46.6017 36.3563C47.6955 37.1375 48.9975 38.3615 50.508 40.0281L49.4142 41.5125C47.9559 39.6896 46.8882 38.4136 46.2111 37.6844C45.6382 39.5073 44.31 41.0958 42.2267 42.45L41.133 41.0438C43.8413 39.7417 45.1955 37.5021 45.1955 34.325H41.133ZM57.7736 27.6063V41.6688H56.2111V40.4188H52.9298V41.9031H51.3673V27.6063H57.7736ZM56.2111 29.0906H52.9298V38.9344H56.2111V29.0906ZM73.7892 37.6063C74.8309 38.6479 76.3673 39.6896 78.3986 40.7313L77.4611 42.3719C75.6903 41.5386 74.0236 40.3406 72.4611 38.7781L73.7892 37.6063ZM66.9923 39.0125C66.1069 40.2625 64.7528 41.4865 62.9298 42.6844L61.758 41.2C63.4246 40.2104 64.7528 39.0386 65.7423 37.6844L67.2267 38.5438C67.4871 38.7521 67.409 38.9083 66.9923 39.0125ZM63.7892 36.9813V37.7625H62.2267V26.5125H63.7111C64.1278 26.5646 64.1538 26.7208 63.7892 26.9813V35.4969H78.1642V36.9813H70.8986V42.9969H69.1017V36.9813H63.7892ZM67.2267 33.2313H74.0236V31.7469H67.2267V33.2313ZM67.2267 30.4969H74.0236V29.2469H67.2267V30.4969ZM67.2267 27.9969H74.0236V26.7469H67.2267V27.9969ZM65.6642 34.4813V25.4969H75.5861V34.4813H65.6642ZM90.5861 30.1844C89.7007 35.3927 88.633 38.6219 87.383 39.8719C86.7059 40.549 86.0028 40.8875 85.2736 40.8875C84.4403 40.8875 83.7892 40.6531 83.3205 40.1844C82.0705 38.9344 81.4455 37.3719 81.4455 35.4969C81.4455 33.2052 82.2528 31.2521 83.8673 29.6375C85.6382 27.8667 87.7996 26.9813 90.3517 26.9813C92.6434 26.9813 94.4403 27.6323 95.7423 28.9344C97.2007 30.3927 97.9298 32.1115 97.9298 34.0906C97.9298 36.2261 97.2528 37.9708 95.8986 39.325C95.0132 40.2104 93.659 41.0698 91.8361 41.9031L90.1955 40.2625C92.0184 39.6896 93.4507 38.8823 94.4923 37.8406C95.4819 36.8511 95.9767 35.6531 95.9767 34.2469C95.9767 32.5802 95.4298 31.2 94.3361 30.1063C93.2423 29.0125 91.5236 28.5177 89.1798 28.6219L90.5861 29.325C91.2111 29.5854 91.2111 29.8719 90.5861 30.1844ZM88.7892 28.7C87.4351 29.0125 86.2632 29.6636 85.2736 30.6531C83.9194 32.0073 83.2423 33.674 83.2423 35.6531C83.2423 36.8511 83.633 37.8406 84.4142 38.6219C84.5705 38.7781 84.8048 38.8563 85.1173 38.8563C85.4298 38.8563 85.7684 38.674 86.133 38.3094C87.3309 37.1115 88.2163 33.9083 88.7892 28.7ZM107.93 41.5125C110.065 40.3667 111.133 38.4136 111.133 35.6531V26.6688L112.774 26.9813L116.992 25.6531L118.164 27.2156C118.268 27.5281 118.086 27.5802 117.617 27.3719L112.695 28.3094V31.6688H118.867V33.1531H116.524V42.9188H114.961V33.1531H112.695V36.1219C112.695 39.1948 111.393 41.4865 108.789 42.9969L107.93 41.5125ZM106.445 42.9969H104.883V38.3094C104.05 39.6636 103.138 40.7313 102.149 41.5125L100.977 40.1063C102.435 39.0646 103.659 37.7625 104.649 36.2H101.367V34.7156H104.883V32.9969H100.899V31.5125H106.367L107.227 28.7H101.445V27.2156H104.883V25.0281H106.367C106.784 25.0802 106.81 25.2365 106.445 25.4969V27.2156H109.883V28.7H108.867L107.774 31.5125H110.274V32.9969H106.445V34.7156H109.883V36.2H106.445V36.9031C107.175 37.1115 108.19 37.6583 109.492 38.5438L108.555 40.1063C107.826 39.3771 107.123 38.8042 106.445 38.3875V42.9969ZM103.32 31.3563C103.112 30.6271 102.826 29.924 102.461 29.2469L103.945 28.7781C104.362 29.4552 104.675 30.1583 104.883 30.8875L103.32 31.3563ZM136.055 33.5438H130.977V35.2625H136.055V33.5438ZM133.945 36.7469H132.539V37.5281C132.539 40.7573 130.69 42.6583 126.992 43.2313L126.524 41.5906C129.492 41.2261 130.977 39.8198 130.977 37.3719V36.7469H130.195H129.414V25.8094H137.617V36.7469H135.508V40.6531C135.508 41.0698 135.69 41.2781 136.055 41.2781H136.836C137.097 41.2781 137.253 41.0177 137.305 40.4969L137.461 39.1688L139.024 39.6375L138.789 41.4344C138.685 42.3198 138.19 42.7625 137.305 42.7625H135.352C134.414 42.7625 133.945 42.3198 133.945 41.4344V36.7469ZM130.977 32.0594H136.055V30.4188H130.977V32.0594ZM130.977 28.9344H136.055V27.2938H130.977V28.9344ZM125.352 35.8875C126.393 36.3563 127.617 37.2156 129.024 38.4656L127.93 40.1063C126.836 38.9083 125.873 38.0229 125.039 37.45C124.518 39.7417 123.425 41.5386 121.758 42.8406L120.586 41.4344C122.878 39.5073 123.972 37.0073 123.867 33.9344H120.899V32.45H123.945V29.6375H121.445V28.1531H123.945V25.0281H125.43C125.847 25.0802 125.873 25.2365 125.508 25.4969V28.1531H128.242V29.6375H125.508V32.45H128.633V33.9344H125.43C125.43 34.7677 125.404 35.4188 125.352 35.8875ZM145.43 32.1375C146.419 33.4917 146.914 34.8979 146.914 36.3563C146.914 38.3875 146.315 39.4031 145.117 39.4031H144.18L143.867 37.8406H144.649C145.169 37.8406 145.404 37.2938 145.352 36.2C145.3 34.6896 144.831 33.3615 143.945 32.2156L145.508 27.1375H143.086V42.7625H141.524V25.8875H145.899L146.211 25.4969L147.539 26.6688L147.227 26.9813L145.43 32.1375ZM156.758 36.5125H155.977C155.143 40.3146 152.357 42.5021 147.617 43.075L147.149 41.5906C151.211 41.2781 153.659 39.5854 154.492 36.5125H153.399C152.513 38.7 150.638 40.0281 147.774 40.4969L147.305 39.1688C149.701 38.6479 151.185 37.7625 151.758 36.5125H150.508C149.779 37.2417 148.841 37.8146 147.695 38.2313L147.07 36.9031C148.737 36.3823 149.883 35.3927 150.508 33.9344H146.992V32.6844H158.711V33.9344H152.149C151.94 34.4031 151.68 34.8458 151.367 35.2625H158.242L158.086 40.1844C158.034 41.8511 157.435 42.6844 156.289 42.6844H154.727L154.492 41.2H155.82C156.289 41.2 156.55 40.8875 156.602 40.2625L156.758 36.5125ZM150.117 30.4188H155.43V29.0906H150.117V30.4188ZM150.117 27.8406H155.43V26.5906H150.117V27.8406ZM156.758 25.3406V31.6688H148.789V25.3406H156.758ZM170.039 29.325H172.149V25.2625H173.633C174.05 25.3146 174.076 25.4708 173.711 25.7313V29.325H177.93V30.8094H173.711V34.5594H177.695V36.0438H173.711V40.6531H178.867V42.1375H166.914V40.6531H172.149V36.0438H168.32V34.5594H172.149V30.8094H169.57C169.206 31.8511 168.633 32.8927 167.852 33.9344L166.524 32.9188C167.878 31.1479 168.763 29.0125 169.18 26.5125L170.664 26.825C171.081 26.9813 171.081 27.1375 170.664 27.2938L170.039 29.325ZM163.399 25.0281H164.883C165.3 25.0802 165.326 25.2365 164.961 25.4969V42.8406H163.399V25.0281ZM166.367 28.2313C166.836 28.8563 167.227 29.5594 167.539 30.3406L166.289 31.2C165.925 30.3146 165.56 29.5854 165.195 29.0125L166.367 28.2313ZM162.93 29.0906C163.294 29.1948 163.294 29.3511 162.93 29.5594C162.826 31.2261 162.591 32.7886 162.227 34.2469L160.742 33.7781C161.159 32.4761 161.393 30.8354 161.445 28.8563L162.93 29.0906ZM195.742 33.6219V42.6844H194.18V41.9031H187.149V42.9188H185.586V35.8094C184.232 36.5386 182.774 37.1115 181.211 37.5281L180.664 36.1219C182.123 35.7573 183.763 35.1063 185.586 34.1688V33.6219H186.68C187.774 32.9969 188.711 32.3719 189.492 31.7469H181.289V30.2625H188.164V28.3875H183.32V26.9031H188.164V25.0281H189.649C190.065 25.0802 190.091 25.2365 189.727 25.4969V26.9031H193.477V28.2313C194.102 27.5542 194.727 26.799 195.352 25.9656L196.445 26.6688C196.81 26.9292 196.758 27.0854 196.289 27.1375C195.3 28.3354 194.31 29.3771 193.32 30.2625H198.711V31.7469H191.68C190.638 32.6323 189.805 33.2573 189.18 33.6219H195.742ZM191.211 30.2625C191.836 29.7938 192.539 29.1688 193.32 28.3875H189.727V30.2625H191.211ZM187.149 36.9813H194.18V34.8719H187.149V36.9813ZM187.149 40.6531H194.18V38.2313H187.149V40.6531ZM214.336 36.9031C215.065 35.4969 215.508 33.3615 215.664 30.4969H213.008C213.164 33.3615 213.607 35.4969 214.336 36.9031ZM217.227 30.4969C217.123 33.7261 216.498 36.3302 215.352 38.3094C216.185 39.3511 217.357 40.2625 218.867 41.0438L217.852 42.7625C216.185 41.6688 215.013 40.6271 214.336 39.6375C213.138 40.9917 211.289 42.1636 208.789 43.1531L208.008 41.5906C210.716 40.4969 212.513 39.3771 213.399 38.2313C212.513 36.5125 212.018 34.7938 211.914 33.075C211.602 33.8563 211.289 34.4552 210.977 34.8719L209.649 33.8563C211.211 31.5646 212.149 28.7261 212.461 25.3406L214.102 25.7313C214.414 25.9396 214.336 26.0958 213.867 26.2C213.711 27.1375 213.503 28.075 213.242 29.0125H218.555V30.4969H217.227ZM209.961 26.7469C209.649 27.5281 209.284 28.1792 208.867 28.7L207.617 27.9969C208.034 27.3198 208.425 26.5386 208.789 25.6531L210.195 26.3563C210.404 26.5646 210.326 26.6948 209.961 26.7469ZM204.961 37.7625C205.69 37.9708 206.341 38.2052 206.914 38.4656C207.331 37.9969 207.669 37.2938 207.93 36.3563H205.664C205.456 36.825 205.222 37.2938 204.961 37.7625ZM203.867 39.7156L202.617 39.0125C203.138 38.2313 203.659 37.3458 204.18 36.3563H201.211V35.1063H204.649C204.961 34.4292 205.195 33.8563 205.352 33.3875L206.836 33.7781C207.044 33.9865 206.966 34.1167 206.602 34.1688L206.133 35.1063H210.586V36.3563H209.414C209.154 37.3979 208.763 38.2833 208.242 39.0125C208.711 39.2208 209.206 39.4813 209.727 39.7938L209.024 41.0438C208.451 40.6792 207.93 40.3927 207.461 40.1844C206.107 41.5386 204.284 42.3719 201.992 42.6844L201.445 41.2781C203.477 41.0698 205.039 40.4969 206.133 39.5594C205.56 39.299 204.987 39.0646 204.414 38.8563L203.867 39.7156ZM205.43 25.0281H206.68C207.097 25.0802 207.123 25.2365 206.758 25.4969V28.8563H210.742V30.1063H207.461C208.034 30.7833 208.919 31.4344 210.117 32.0594L209.258 33.3875C208.373 32.8667 207.539 32.1375 206.758 31.2V33.075H205.43V31.5906C204.597 32.6323 203.451 33.5698 201.992 34.4031L200.977 33.1531C202.591 32.3198 203.919 31.3042 204.961 30.1063H201.367V28.8563H205.43V25.0281ZM203.242 28.6219C202.878 27.8406 202.409 27.1636 201.836 26.5906L203.086 25.8094C203.711 26.4344 204.18 27.0854 204.492 27.7625L203.242 28.6219ZM230.586 30.1844C229.701 35.3927 228.633 38.6219 227.383 39.8719C226.706 40.549 226.003 40.8875 225.274 40.8875C224.44 40.8875 223.789 40.6531 223.32 40.1844C222.07 38.9344 221.445 37.3719 221.445 35.4969C221.445 33.2052 222.253 31.2521 223.867 29.6375C225.638 27.8667 227.8 26.9813 230.352 26.9813C232.643 26.9813 234.44 27.6323 235.742 28.9344C237.201 30.3927 237.93 32.1115 237.93 34.0906C237.93 36.2261 237.253 37.9708 235.899 39.325C235.013 40.2104 233.659 41.0698 231.836 41.9031L230.195 40.2625C232.018 39.6896 233.451 38.8823 234.492 37.8406C235.482 36.8511 235.977 35.6531 235.977 34.2469C235.977 32.5802 235.43 31.2 234.336 30.1063C233.242 29.0125 231.524 28.5177 229.18 28.6219L230.586 29.325C231.211 29.5854 231.211 29.8719 230.586 30.1844ZM228.789 28.7C227.435 29.0125 226.263 29.6636 225.274 30.6531C223.919 32.0073 223.242 33.674 223.242 35.6531C223.242 36.8511 223.633 37.8406 224.414 38.6219C224.57 38.7781 224.805 38.8563 225.117 38.8563C225.43 38.8563 225.768 38.674 226.133 38.3094C227.331 37.1115 228.216 33.9083 228.789 28.7ZM246.367 31.825C248.086 30.2104 249.414 27.8667 250.352 24.7938L251.914 25.2625C252.175 25.4708 252.123 25.6011 251.758 25.6531C251.341 26.6948 250.925 27.6583 250.508 28.5438H252.852C253.425 27.3458 253.867 26.2781 254.18 25.3406L255.664 25.8875C255.873 26.0958 255.794 26.2261 255.43 26.2781C255.065 27.1115 254.701 27.8667 254.336 28.5438H258.32V30.0281H254.336V32.45H257.539V33.9344H254.336V36.4344H257.539V37.9188H254.336V40.8094H258.789V42.2938H250.195V42.9969H248.633V31.6688C248.268 32.1896 247.878 32.6583 247.461 33.075L246.367 31.825ZM242.461 42.8406L242.149 41.3563H243.477C243.685 41.3563 243.789 41.2521 243.789 41.0438V36.2L241.758 36.6688C241.706 37.0333 241.576 37.1115 241.367 36.9031L241.055 35.1063L243.789 34.5594V30.4188H241.367V28.9344H243.789V24.95H245.274C245.69 25.0021 245.716 25.1583 245.352 25.4188V28.9344H247.383V30.4188H245.352V34.2469L247.383 33.7L247.617 35.1063L245.352 35.8094V41.5906C245.352 42.424 244.935 42.8406 244.102 42.8406H242.461ZM250.195 40.8094H252.774V37.9188H250.195V40.8094ZM250.195 36.4344H252.774V33.9344H250.195V36.4344ZM250.195 32.45H252.774V30.0281H250.195V32.45ZM276.445 27.1375L276.68 26.825L277.93 27.8406L277.695 28.075C276.341 30.4188 275.013 31.9813 273.711 32.7625L274.492 32.9969C274.857 33.1531 274.831 33.3094 274.414 33.4656C274.31 33.8302 274.18 34.1427 274.024 34.4031H277.383L277.617 34.0906L279.024 35.1063L278.711 35.4188C277.044 39.8458 273.659 42.3458 268.555 42.9188L267.93 41.4344C270.378 41.174 272.305 40.5229 273.711 39.4813C272.982 38.7521 272.253 38.1271 271.524 37.6063C270.846 38.1792 269.935 38.7 268.789 39.1688L268.086 37.7625C270.638 36.7208 272.305 35.1323 273.086 32.9969C272.305 33.7261 270.899 34.3511 268.867 34.8719L268.164 33.4656C270.143 33.049 271.628 32.5021 272.617 31.825C272.097 31.2 271.472 30.6531 270.742 30.1844C270.378 30.549 270.013 30.8615 269.649 31.1219L268.555 29.95C270.274 28.4917 271.367 26.9292 271.836 25.2625L273.242 25.7313C273.607 25.8875 273.581 26.0438 273.164 26.2C273.112 26.5125 272.982 26.825 272.774 27.1375H276.445ZM265.82 30.1844H268.399V31.6688H265.82V33.6219C266.862 34.0906 267.852 34.7938 268.789 35.7313L267.774 37.1375C266.94 36.3042 266.289 35.7052 265.82 35.3406V42.9188H264.258V35.1844C263.945 36.2261 263.086 37.5542 261.68 39.1688L260.508 37.6844C262.435 35.8615 263.633 33.8563 264.102 31.6688H261.055V30.1844H264.258V27.6063C263.216 27.7625 262.279 27.8927 261.445 27.9969L261.055 26.5125C263.138 26.3042 265.3 25.8875 267.539 25.2625L268.399 26.4344C268.607 26.7469 268.477 26.8511 268.008 26.7469C267.279 26.9552 266.55 27.1375 265.82 27.2938V30.1844ZM271.524 29.2469C272.305 29.6636 273.06 30.1844 273.789 30.8094C274.57 30.0802 275.222 29.2729 275.742 28.3875H272.149C271.94 28.7521 271.732 29.0386 271.524 29.2469ZM272.383 36.6688C273.112 37.0854 273.945 37.7104 274.883 38.5438C275.664 37.9708 276.341 37.0073 276.914 35.6531H273.32C273.008 36.0698 272.695 36.4083 272.383 36.6688ZM284.414 29.325C284.987 28.1271 285.951 26.9031 287.305 25.6531L288.164 26.4344C286.862 27.6323 285.951 28.7781 285.43 29.8719C284.857 31.0698 284.57 32.5021 284.57 34.1688C284.57 35.575 284.857 36.9031 285.43 38.1531C285.951 39.299 286.862 40.575 288.164 41.9813L287.305 42.8406C286.003 41.3823 285.039 40.0021 284.414 38.7C283.737 37.2938 283.399 35.7833 283.399 34.1688C283.399 32.3458 283.737 30.7313 284.414 29.325ZM295.508 41.9031H293.711V26.825H305.977V41.5906H304.18V40.4969H295.508V41.9031ZM304.18 32.7625V28.3094H295.508V32.7625H304.18ZM304.18 39.0125V34.2469H295.508V39.0125H304.18ZM318.945 35.8094H315.977C315.508 38.7781 314.102 41.1219 311.758 42.8406L310.977 41.3563C313.268 39.7417 314.518 37.3458 314.727 34.1688L314.883 31.7469H313.789V32.7625H312.227V26.0438H320.117V32.45H318.555V31.7469H316.289L316.133 34.325H320.508L320.117 40.4969C320.013 41.7469 319.492 42.3719 318.555 42.3719H316.445L316.211 40.8875H317.93C318.399 40.8875 318.659 40.6271 318.711 40.1063L318.945 35.8094ZM327.383 41.2C327.383 42.0854 326.966 42.5281 326.133 42.5281H324.414L324.102 41.0438H325.586C325.742 41.0438 325.82 40.9656 325.82 40.8094V25.8094H327.305C327.721 25.8615 327.748 26.0177 327.383 26.2781V41.2ZM323.633 27.6844C324.05 27.7365 324.076 27.8927 323.711 28.1531V38.8563H322.149V27.6844H323.633ZM318.555 30.4969V27.2938H313.789V30.4969H318.555ZM335.117 38.7C334.492 40.0021 333.529 41.3823 332.227 42.8406L331.367 41.9813C332.669 40.575 333.581 39.299 334.102 38.1531C334.675 36.9031 334.961 35.575 334.961 34.1688C334.961 32.5021 334.675 31.0698 334.102 29.8719C333.581 28.7781 332.669 27.6323 331.367 26.4344L332.227 25.6531C333.581 26.9031 334.544 28.1271 335.117 29.325C335.794 30.7313 336.133 32.3458 336.133 34.1688C336.133 35.7833 335.794 37.2938 335.117 38.7Z" fill="#757575"/>
</g>
<defs>
<clipPath id="clip0_5_2">
<rect width="718" height="444" fill="white"/>
</clipPath>
</defs>
</svg>
