<svg width="718" height="444" viewBox="0 0 718 444" fill="none" xmlns="http://www.w3.org/2000/svg">
<rect width="718" height="444" fill="#1E1E1E"/>
<g clip-path="url(#clip0_0_1)">
<path d="M0 0H718V444H0V0Z" fill="white"/>
<path d="M181.5 91.5V369.5" stroke="#CCCCCC" stroke-miterlimit="10"/>
<path d="M303.5 91.5V369.5" stroke="#CCCCCC" stroke-miterlimit="10"/>
<path d="M424.5 91.5V369.5" stroke="#CCCCCC" stroke-miterlimit="10"/>
<path d="M545.5 91.5V369.5" stroke="#CCCCCC" stroke-miterlimit="10"/>
<path d="M667.5 91.5V369.5" stroke="#CCCCCC" stroke-miterlimit="10"/>
<path d="M88.5 369.5H695.5" stroke="#333333" stroke-miterlimit="10"/>
<path d="M88.5 300.5H695.5" stroke="#CCCCCC" stroke-miterlimit="10"/>
<path d="M88.5 230.5H695.5" stroke="#CCCCCC" stroke-miterlimit="10"/>
<path d="M88.5 161.5H695.5" stroke="#CCCCCC" stroke-miterlimit="10"/>
<path d="M88.5 91.5H695.5" stroke="#CCCCCC" stroke-miterlimit="10"/>
<path d="M88.2 369.8H88.807H89.414H90.021H90.628H91.235H91.842H92.449H93.056H93.6629H94.2699H94.8769H95.4839H96.0909H96.6979H97.3049H97.9119H98.5189H99.1259H99.7329H100.34H100.947H101.554H102.161H102.768H103.375H103.982H104.589H105.196H105.803H106.41H107.017H107.624H108.231H108.838H109.445H110.052H110.659H111.266H111.873H112.48H113.087H113.694H114.301H114.908H115.515H116.122H116.729H117.336H117.943L118.55 369.522L119.157 369.8H119.764H120.371H120.978H121.585H122.192H122.799H123.406H124.013H124.62H125.227H125.834H126.441H127.048H127.655H128.262H128.869H129.476H130.083H130.69L131.297 369.522L131.904 369.8H132.51L133.117 369.661H133.724H134.331L134.938 369.522L135.545 369.661H136.152L136.759 369.8H137.366H137.973H138.58H139.187L139.794 369.522H140.401L141.008 369.8H141.615L142.222 369.661L142.829 369.8H143.436H144.043H144.65H145.257H145.864H146.471H147.078H147.685H148.292H148.899H149.506H150.113H150.72H151.327H151.934H152.541H153.148H153.755H154.362H154.969H155.576H156.183H156.79H157.397H158.004H158.611H159.218H159.825H160.432H161.039H161.646H162.253H162.86H163.467H164.074H164.681H165.288H165.895H166.502H167.109H167.716H168.323H168.93H169.537H170.144H170.751H171.358H171.965H172.572H173.179H173.786H174.393H175H175.607H176.214H176.821H177.428H178.035H178.642H179.249H179.856H180.463H181.07H181.677H182.284H182.891H183.498H184.105H184.712H185.319H185.926H186.533H187.14H187.747H188.354H188.961H189.568H190.175H190.782H191.389H191.996H192.603H193.21H193.817H194.424H195.031H195.638H196.245H196.852H197.459H198.066H198.673H199.28H199.887H200.494H201.101H201.708H202.315H202.922H203.529L204.136 369.661H204.743L205.35 369.8H205.957H206.564H207.171H207.778H208.385H208.992H209.599H210.206H210.813H211.42L212.027 368.409L212.634 368.965L213.241 369.661L213.848 369.8H214.455L215.062 369.661H215.669H216.276L216.883 369.522H217.49L218.097 369.661H218.704L219.311 369.8L219.917 369.661L220.524 369.8H221.131H221.738H222.345L222.952 369.661L223.559 369.522L224.166 369.8H224.773L225.38 369.661L225.987 369.8H226.594H227.201H227.808L228.415 369.661L229.022 369.8H229.629H230.236H230.843H231.45H232.057H232.664H233.271H233.878H234.485L235.092 369.661L235.699 369.8H236.306H236.913H237.52L238.127 369.661H238.734L239.341 369.8H239.948H240.555H241.162H241.769H242.376H242.983H243.59H244.197H244.804H245.411H246.018H246.625L247.232 369.104L247.839 369.8H248.446H249.053H249.66H250.267H250.874L251.481 369.661L252.088 369.8H252.695H253.302H253.909H254.516H255.123H255.73H256.337L256.944 369.661H257.551L258.158 369.8H258.765H259.372H259.979H260.586H261.193H261.8H262.407H263.014L263.621 369.522L264.228 369.8L264.835 369.661L265.442 369.8H266.049L266.656 369.383L267.263 369.8H267.87H268.477H269.084L269.691 369.661L270.298 369.8L270.905 369.522L271.512 369.8L272.119 369.661L272.726 369.522L273.333 369.8L273.94 369.661L274.547 369.8H275.154H275.761H276.368H276.975H277.582L278.189 369.661L278.796 368.687L279.403 369.661L280.01 369.104L280.617 369.661L281.224 369.8H281.831H282.438H283.045H283.652H284.259H284.866H285.473H286.08H286.687H287.294H287.901H288.508L289.115 369.522H289.722L290.329 369.8H290.936H291.543H292.15H292.757L293.364 369.661L293.971 369.8H294.578L295.185 369.661L295.792 368.687L296.399 369.661L297.006 368.687L297.613 368.409L298.22 369.522L298.827 369.661L299.434 368.965L300.041 369.243H300.648L301.255 369.383L301.862 369.8L302.469 369.383H303.076L303.683 368.687L304.29 369.522H304.897L305.504 369.243L306.111 369.522L306.717 368.965L307.324 369.661L307.931 369.522H308.538L309.145 369.383L309.752 368.687L310.359 368.826L310.966 368.409H311.573L312.18 369.383L312.787 368.687L313.394 369.522L314.001 368.965L314.608 368.826L315.215 369.104L315.822 369.383L316.429 369.661L317.036 369.522H317.643L318.25 369.104L318.857 369.8L319.464 369.661L320.071 369.8L320.678 369.661L321.285 369.243L321.892 369.661L322.499 369.522L323.106 369.8H323.713H324.32H324.927H325.534H326.141H326.748H327.355H327.962H328.569H329.176H329.783H330.39H330.997H331.604H332.211H332.818H333.425H334.032H334.639H335.246H335.853H336.46H337.067H337.674H338.281H338.888H339.495H340.102H340.709H341.316H341.923H342.53H343.137H343.744H344.351H344.958H345.565L346.172 369.661L346.779 369.522L347.386 369.661H347.993L348.6 369.383L349.207 369.8H349.814L350.421 369.661L351.028 369.8L351.635 369.661L352.242 369.522H352.849L353.456 369.8H354.063H354.67H355.277L355.884 369.522L356.491 369.383L357.098 367.991L357.705 369.8H358.312L358.919 369.522L359.526 368.687H360.133L360.74 369.661L361.347 369.104L361.954 368.965L362.561 369.243L363.168 368.965L363.775 369.383L364.382 369.104L364.989 368.826L365.596 368.965L366.203 369.104L366.81 368.409L367.417 367.991L368.024 369.104L368.631 369.243L369.238 369.383L369.845 368.269L370.452 369.661L371.059 369.383L371.666 368.687L372.273 369.104L372.88 367.434L373.487 368.687L374.094 366.321L374.701 368.13L375.308 367.852L375.915 368.269L376.522 367.156L377.129 368.965L377.736 367.574L378.343 366.6L378.95 367.713L379.557 369.104L380.164 367.156L380.771 366.6L381.378 368.826L381.985 367.156L382.592 367.713L383.199 369.243H383.806L384.413 367.156L385.02 368.826L385.627 368.548L386.234 368.965L386.841 368.826L387.448 369.661H388.055L388.662 368.687L389.269 369.383L389.876 369.522L390.483 369.8H391.09H391.697H392.304L392.911 369.383L393.518 369.8L394.125 369.522L394.732 369.8H395.339H395.945H396.552H397.159L397.766 369.661L398.373 369.8H398.98L399.587 369.661H400.194L400.801 369.8L401.408 369.661L402.015 369.8H402.622H403.229L403.836 369.661L404.443 369.243L405.05 368.826L405.657 368.548L406.264 369.522L406.871 369.104L407.478 368.13L408.085 366.878L408.692 368.409L409.299 367.991L409.906 367.852L410.513 367.991L411.12 367.713L411.727 368.826H412.334L412.941 369.383L413.548 369.661L414.155 368.826L414.762 369.383L415.369 368.269L415.976 369.522L416.583 369.243H417.19L417.797 369.522L418.404 369.383L419.011 368.965L419.618 369.104L420.225 368.548L420.832 368.687L421.439 369.522L422.046 369.8L422.653 369.383L423.26 368.826L423.867 369.522H424.474H425.081L425.688 369.243L426.295 369.522L426.902 369.661L427.509 369.243L428.116 369.104L428.723 368.826H429.33L429.937 369.661L430.544 369.383L431.151 368.965L431.758 368.687L432.365 368.965L432.972 367.991L433.579 367.574L434.186 367.852L434.793 368.548L435.4 368.687L436.007 367.991L436.614 368.13L437.221 366.321L437.828 367.017L438.435 368.269L439.042 368.687L439.649 365.765H440.256L440.863 364.373L441.47 364.512L442.077 364.791L442.684 366.043L443.291 366.739L443.898 362.842L444.505 364.651L445.112 364.512L445.719 367.156L446.326 366.182L446.933 367.852L447.54 368.687L448.147 367.156L448.754 368.269L449.361 367.295L449.968 367.991L450.575 367.713L451.182 368.965L451.789 368.548L452.396 368.409L453.003 367.574L453.61 367.434L454.217 368.965L454.824 368.13L455.431 368.548L456.038 368.687L456.645 367.574L457.252 368.826L457.859 368.269L458.466 369.522H459.073L459.68 368.13L460.287 368.826L460.894 369.661L461.501 368.826L462.108 368.409L462.715 369.661L463.322 369.383L463.929 369.8L464.536 369.661L465.143 369.104L465.75 369.8L466.357 369.383L466.964 369.661L467.571 368.269L468.178 369.104L468.785 368.965L469.392 369.661L469.999 369.383L470.606 369.661L471.213 369.8L471.82 369.661H472.427L473.034 369.8H473.641H474.248H474.855H475.462L476.069 369.661L476.676 369.8H477.283H477.89L478.497 369.661H479.104L479.711 369.8L480.318 369.383L480.924 369.8H481.531H482.138L482.745 369.661L483.352 369.8L483.959 369.383H484.566L485.173 369.522L485.78 369.8H486.387H486.994L487.601 369.661L488.208 369.8H488.815L489.422 369.661L490.029 369.8L490.636 369.522L491.243 368.965L491.85 369.104L492.457 369.661L493.064 369.8H493.671H494.278H494.885H495.492H496.099H496.706H497.313H497.92H498.527H499.134H499.741H500.348H500.955H501.562H502.169H502.776H503.383L503.99 369.661H504.597L505.204 369.383H505.811L506.418 369.8H507.025L507.632 369.661L508.239 369.8H508.846H509.453H510.06H510.667H511.274H511.881H512.488H513.095H513.702H514.309H514.916H515.523H516.13H516.737H517.344H517.951H518.558H519.165H519.772H520.379H520.986H521.593H522.2H522.807H523.414H524.021H524.628H525.235L525.842 369.522L526.449 369.8H527.056L527.663 369.661L528.27 368.687L528.877 368.826L529.484 366.6L530.091 366.321L530.698 367.295L531.305 364.791L531.912 365.347L532.519 363.956L533.126 364.93L533.733 363.677L534.34 363.538L534.947 362.842L535.554 360.616L536.161 360.06L536.768 360.894L537.375 345.17L537.982 334.178L538.589 342.109L539.196 328.751L539.803 332.09L540.41 350.18L541.017 360.755L541.624 338.074L542.231 332.508L542.838 344.753L543.445 347.536L544.052 336.265L544.659 345.449L545.266 353.241L545.873 336.961L546.48 343.918L547.087 338.63L547.694 340.996L548.301 355.05L548.908 349.067L549.515 355.607L550.122 339.744L550.729 339.048L551.336 348.927L551.943 337.796L552.55 341.553L553.157 350.736L553.764 353.102L554.371 331.812L554.978 333.76L555.585 353.937L556.192 337.935L556.799 335.987L557.406 344.614L558.013 357.833L558.62 328.333L559.227 343.083L559.834 342.527L560.441 336.821L561.048 330.977L561.655 349.484L562.262 347.814L562.869 338.77L563.476 345.031L564.083 336.821L564.69 345.588L565.297 340.3L565.904 348.371L566.51 355.05L567.117 331.673L567.724 336.543L568.331 338.352L568.938 342.387L569.545 340.022L570.152 346.701L570.759 351.85L571.366 354.076L571.973 331.812L572.58 337.1L573.187 331.951L573.794 330.003L574.401 339.883L575.008 347.536L575.615 326.246L576.222 325.272L576.829 331.255L577.436 334.038L578.043 332.09L578.65 339.744L579.257 350.319L579.864 314.418L580.471 324.437L581.078 324.994L581.685 321.237L582.292 331.255L582.899 336.961L583.506 349.484L584.113 308.157L584.72 323.185L585.327 325.968L585.934 318.315L586.541 330.977L587.148 333.343L587.755 349.902L588.362 315.671L588.969 330.003L589.576 331.951L590.183 337.656L590.79 331.534L591.397 331.951L592.004 356.581L592.611 319.567L593.218 327.638L593.825 328.751L594.432 333.899L595.039 347.675L595.646 336.961L596.253 353.519L596.86 323.463L597.467 351.154L598.074 346.284L598.681 348.093L599.288 321.376L599.895 335.152L600.502 346.979L601.109 315.81L601.716 335.43L602.323 338.909L602.93 336.821L603.537 343.64L604.144 346.84L604.751 355.746L605.358 340.022L605.965 345.449L606.572 349.206L607.179 353.38L607.786 347.814L608.393 356.72L609 360.477L609.607 341.97L610.214 353.798L610.821 349.623L611.428 356.72L612.035 355.885L612.642 358.946L613.249 363.817L613.856 349.484L614.463 358.39L615.07 360.06L615.677 359.642L616.284 359.364L616.891 362.564L617.498 365.625L618.105 358.251L618.712 359.225H619.319L619.926 357.137L620.533 355.885L621.14 360.894L621.747 364.512L622.354 355.746L622.961 362.842H623.568L624.175 360.894L624.782 362.286L625.389 365.347L625.996 367.991L626.603 363.817L627.21 363.399L627.817 365.486L628.424 363.121L629.031 366.043L629.638 366.739L630.245 368.13L630.852 363.538L631.459 363.956L632.066 366.043L632.673 366.182L633.28 367.017L633.887 364.095L634.494 367.017L635.101 358.39L635.708 358.111L636.315 356.998L636.922 352.406L637.529 351.989L638.136 354.354L638.743 355.05L639.35 330.699L639.957 332.508L640.564 326.664L641.171 324.437L641.778 320.402L642.385 326.803L642.992 337.656L643.599 336.265L644.206 254.306L644.813 257.784L645.42 272.395L646.027 253.888L646.634 280.744L647.241 319.706L647.848 191.131L648.455 228.145L649.062 224.806L649.669 238.999L650.276 232.042L650.883 258.063L651.49 309.826L652.096 199.62L652.703 218.822L653.31 235.938L653.917 232.737L654.524 227.867L655.131 254.445L655.738 313.583L656.345 184.452L656.952 181.808L657.559 195.167L658.166 301.199L658.773 216.318L659.38 256.114L659.987 267.942L660.594 205.464L661.201 137.002L661.808 110.285L662.415 126.844L663.022 116.13L663.629 172.068L664.236 267.525L664.843 108.337L665.45 136.167L666.057 165.528L666.664 186.957L667.271 193.497L667.878 260.846L668.485 308.574L669.092 151.891L669.699 184.452L670.306 220.77L670.913 238.999L671.52 228.145L672.127 264.463L672.734 332.09L673.341 205.881L673.948 218.266L674.555 257.923L675.162 263.489L675.769 293.963L676.376 291.598L676.983 340.022L677.59 242.478L678.197 265.438L678.804 275.039L679.411 269.473L680.018 289.65L680.625 300.782L681.232 336.404L681.839 339.604L682.446 233.99L683.053 260.706L683.66 296.607L684.267 342.666L684.874 294.659L685.481 329.168L686.088 268.22L686.695 310.105L687.302 312.331L687.909 321.376L688.516 322.628L689.123 336.265L689.73 361.451L690.337 282.135L690.944 305.095L691.551 318.454L692.158 319.01L692.765 323.602L693.372 338.491L693.979 356.72L694.586 362.425L695.193 246.791L695.8 292.154" stroke="#4285F4" stroke-width="2" stroke-miterlimit="10"/>
<path d="M379.922 418.8V410.206H382.891C383.557 410.206 384.068 410.248 384.422 410.331C384.911 410.446 385.328 410.649 385.672 410.941C386.13 411.326 386.469 411.821 386.688 412.425C386.917 413.019 387.031 413.696 387.031 414.456C387.031 415.112 386.953 415.691 386.797 416.191C386.651 416.691 386.458 417.107 386.219 417.441C385.979 417.774 385.714 418.034 385.422 418.222C385.141 418.409 384.802 418.555 384.406 418.659C384.01 418.753 383.552 418.8 383.031 418.8H379.922ZM381.062 417.784H382.891C383.464 417.784 383.911 417.732 384.234 417.628C384.557 417.524 384.812 417.373 385 417.175C385.271 416.915 385.479 416.555 385.625 416.097C385.781 415.639 385.859 415.086 385.859 414.441C385.859 413.545 385.708 412.857 385.406 412.378C385.115 411.889 384.76 411.56 384.344 411.394C384.031 411.279 383.542 411.222 382.875 411.222H381.062V417.784ZM392.859 418.034C392.464 418.368 392.083 418.602 391.719 418.737C391.365 418.873 390.979 418.941 390.562 418.941C389.875 418.941 389.349 418.774 388.984 418.441C388.62 418.107 388.438 417.68 388.438 417.159C388.438 416.857 388.505 416.581 388.641 416.331C388.776 416.071 388.958 415.868 389.188 415.722C389.417 415.566 389.672 415.451 389.953 415.378C390.151 415.316 390.464 415.258 390.891 415.206C391.734 415.112 392.359 414.993 392.766 414.847C392.766 414.701 392.766 414.612 392.766 414.581C392.766 414.144 392.667 413.836 392.469 413.659C392.198 413.43 391.797 413.316 391.266 413.316C390.776 413.316 390.411 413.404 390.172 413.581C389.932 413.748 389.755 414.05 389.641 414.487L388.609 414.347C388.703 413.909 388.859 413.555 389.078 413.284C389.297 413.014 389.609 412.805 390.016 412.659C390.422 412.514 390.891 412.441 391.422 412.441C391.953 412.441 392.385 412.503 392.719 412.628C393.052 412.753 393.297 412.909 393.453 413.097C393.609 413.284 393.719 413.524 393.781 413.816C393.812 413.993 393.828 414.316 393.828 414.784V416.191C393.828 417.17 393.849 417.79 393.891 418.05C393.943 418.31 394.036 418.56 394.172 418.8H393.062C392.958 418.581 392.891 418.326 392.859 418.034ZM392.766 415.675C392.38 415.831 391.807 415.967 391.047 416.081C390.609 416.144 390.302 416.217 390.125 416.3C389.948 416.373 389.807 416.482 389.703 416.628C389.609 416.774 389.562 416.941 389.562 417.128C389.562 417.409 389.667 417.644 389.875 417.831C390.094 418.019 390.406 418.112 390.812 418.112C391.219 418.112 391.578 418.024 391.891 417.847C392.214 417.67 392.448 417.425 392.594 417.112C392.708 416.873 392.766 416.524 392.766 416.066V415.675ZM398.094 417.862L398.25 418.784C397.948 418.847 397.682 418.878 397.453 418.878C397.068 418.878 396.771 418.821 396.562 418.706C396.354 418.581 396.203 418.42 396.109 418.222C396.026 418.024 395.984 417.607 395.984 416.972V413.394H395.219V412.581H395.984V411.034L397.031 410.409V412.581H398.094V413.394H397.031V417.034C397.031 417.336 397.047 417.529 397.078 417.612C397.12 417.696 397.182 417.764 397.266 417.816C397.349 417.868 397.469 417.894 397.625 417.894C397.75 417.894 397.906 417.883 398.094 417.862ZM403.047 416.8L404.141 416.925C403.974 417.56 403.656 418.055 403.188 418.409C402.719 418.764 402.125 418.941 401.406 418.941C400.5 418.941 399.776 418.659 399.234 418.097C398.703 417.534 398.438 416.748 398.438 415.737C398.438 414.696 398.708 413.889 399.25 413.316C399.792 412.732 400.49 412.441 401.344 412.441C402.177 412.441 402.854 412.722 403.375 413.284C403.906 413.847 404.172 414.644 404.172 415.675C404.172 415.737 404.172 415.831 404.172 415.956H399.531C399.573 416.644 399.766 417.17 400.109 417.534C400.453 417.889 400.885 418.066 401.406 418.066C401.792 418.066 402.12 417.967 402.391 417.769C402.672 417.56 402.891 417.237 403.047 416.8ZM399.594 415.097H403.062C403.021 414.566 402.891 414.17 402.672 413.909C402.328 413.503 401.891 413.3 401.359 413.3C400.87 413.3 400.458 413.461 400.125 413.784C399.802 414.107 399.625 414.545 399.594 415.097Z" fill="black"/>
<path d="M33.2 250.166L24.6062 246.869V245.65L33.2 242.134V243.416L30.5906 244.431V248.009L33.2 248.962V250.166ZM29.6687 247.681V244.775L27.2937 245.666C26.575 245.947 25.9812 246.15 25.5125 246.275C26.0646 246.39 26.6114 246.546 27.1531 246.744L29.6687 247.681ZM33.2 242.353H24.6062V241.291H29.5125L26.9812 238.806V237.431L29.2781 239.822L33.2 237.197V238.494L30.0125 240.556L30.7312 241.291H33.2V242.353ZM25.825 236.353H24.6062V235.291H25.825V236.353ZM33.2 236.353H26.9812V235.291H33.2V236.353ZM32.2625 231.056L33.1844 230.9C33.2469 231.202 33.2781 231.468 33.2781 231.697C33.2781 232.082 33.2208 232.379 33.1062 232.587C32.9812 232.796 32.8198 232.947 32.6219 233.041C32.4239 233.124 32.0073 233.166 31.3719 233.166H27.7937V233.931H26.9812V233.166H25.4344L24.8094 232.119H26.9812V231.056H27.7937V232.119H31.4344C31.7364 232.119 31.9291 232.103 32.0125 232.072C32.0958 232.03 32.1635 231.968 32.2156 231.884C32.2677 231.801 32.2937 231.681 32.2937 231.525C32.2937 231.4 32.2833 231.244 32.2625 231.056ZM32.4344 226.291C32.7677 226.686 33.0021 227.067 33.1375 227.431C33.2729 227.785 33.3406 228.171 33.3406 228.587C33.3406 229.275 33.1739 229.801 32.8406 230.166C32.5073 230.53 32.0802 230.712 31.5594 230.712C31.2573 230.712 30.9812 230.645 30.7312 230.509C30.4708 230.374 30.2677 230.192 30.1219 229.962C29.9656 229.733 29.851 229.478 29.7781 229.197C29.7156 228.999 29.6583 228.686 29.6062 228.259C29.5125 227.416 29.3927 226.791 29.2469 226.384C29.101 226.384 29.0125 226.384 28.9812 226.384C28.5437 226.384 28.2364 226.483 28.0594 226.681C27.8302 226.952 27.7156 227.353 27.7156 227.884C27.7156 228.374 27.8041 228.739 27.9812 228.978C28.1479 229.218 28.45 229.395 28.8875 229.509L28.7469 230.541C28.3094 230.447 27.9552 230.291 27.6844 230.072C27.4135 229.853 27.2052 229.541 27.0594 229.134C26.9135 228.728 26.8406 228.259 26.8406 227.728C26.8406 227.197 26.9031 226.765 27.0281 226.431C27.1531 226.098 27.3094 225.853 27.4969 225.697C27.6844 225.541 27.9239 225.431 28.2156 225.369C28.3927 225.337 28.7156 225.322 29.1844 225.322H30.5906C31.5698 225.322 32.1896 225.301 32.45 225.259C32.7104 225.207 32.9604 225.114 33.2 224.978V226.087C32.9812 226.192 32.726 226.259 32.4344 226.291ZM30.075 226.384C30.2312 226.77 30.3666 227.343 30.4812 228.103C30.5437 228.541 30.6166 228.848 30.7 229.025C30.7729 229.202 30.8823 229.343 31.0281 229.447C31.1739 229.541 31.3406 229.587 31.5281 229.587C31.8094 229.587 32.0437 229.483 32.2312 229.275C32.4187 229.056 32.5125 228.744 32.5125 228.337C32.5125 227.931 32.4239 227.572 32.2469 227.259C32.0698 226.936 31.825 226.702 31.5125 226.556C31.2729 226.442 30.9239 226.384 30.4656 226.384H30.075Z" fill="black"/>
<path d="M75.7 369.566C75.7 368.545 75.8042 367.727 76.0125 367.112C76.2208 366.487 76.5281 366.008 76.9344 365.675C77.3511 365.342 77.8719 365.175 78.4969 365.175C78.9552 365.175 79.3563 365.269 79.7 365.456C80.0542 365.644 80.3458 365.915 80.575 366.269C80.8042 366.612 80.9813 367.034 81.1063 367.534C81.2313 368.034 81.2938 368.711 81.2938 369.566C81.2938 370.576 81.1896 371.389 80.9813 372.003C80.7833 372.618 80.4761 373.097 80.0594 373.441C79.6531 373.774 79.1323 373.941 78.4969 373.941C77.674 373.941 77.0229 373.644 76.5438 373.05C75.9813 372.342 75.7 371.18 75.7 369.566ZM76.7781 369.566C76.7781 370.972 76.9448 371.909 77.2781 372.378C77.6115 372.847 78.0177 373.081 78.4969 373.081C78.9865 373.081 79.3927 372.847 79.7156 372.378C80.049 371.909 80.2156 370.972 80.2156 369.566C80.2156 368.149 80.049 367.211 79.7156 366.753C79.3927 366.284 78.9813 366.05 78.4813 366.05C78.0021 366.05 77.6167 366.253 77.325 366.659C76.9604 367.18 76.7781 368.149 76.7781 369.566Z" fill="black"/>
<path d="M61.7 301.975L62.8094 301.881C62.8927 302.423 63.0802 302.829 63.3719 303.1C63.674 303.371 64.0386 303.506 64.4656 303.506C64.9656 303.506 65.3927 303.314 65.7469 302.928C66.1011 302.543 66.2781 302.038 66.2781 301.413C66.2781 300.808 66.1063 300.334 65.7625 299.991C65.4292 299.636 64.9865 299.459 64.4344 299.459C64.1011 299.459 63.7938 299.538 63.5125 299.694C63.2417 299.85 63.0281 300.048 62.8719 300.288L61.8875 300.163L62.7156 295.756H66.9969V296.756H63.5594L63.1063 299.069C63.6167 298.704 64.1531 298.522 64.7156 298.522C65.4656 298.522 66.0958 298.782 66.6063 299.303C67.1271 299.824 67.3875 300.496 67.3875 301.319C67.3875 302.09 67.1636 302.761 66.7156 303.334C66.1636 304.022 65.4136 304.366 64.4656 304.366C63.6844 304.366 63.0438 304.147 62.5438 303.709C62.0542 303.272 61.7729 302.694 61.7 301.975ZM68.7 299.991C68.7 298.97 68.8042 298.152 69.0125 297.538C69.2208 296.913 69.5281 296.433 69.9344 296.1C70.3511 295.767 70.8719 295.6 71.4969 295.6C71.9552 295.6 72.3563 295.694 72.7 295.881C73.0542 296.069 73.3458 296.34 73.575 296.694C73.8042 297.038 73.9813 297.459 74.1063 297.959C74.2313 298.459 74.2938 299.136 74.2938 299.991C74.2938 301.001 74.1896 301.814 73.9813 302.428C73.7833 303.043 73.4761 303.522 73.0594 303.866C72.6531 304.199 72.1323 304.366 71.4969 304.366C70.674 304.366 70.0229 304.069 69.5438 303.475C68.9813 302.767 68.7 301.605 68.7 299.991ZM69.7781 299.991C69.7781 301.397 69.9448 302.334 70.2781 302.803C70.6115 303.272 71.0177 303.506 71.4969 303.506C71.9865 303.506 72.3927 303.272 72.7156 302.803C73.049 302.334 73.2156 301.397 73.2156 299.991C73.2156 298.574 73.049 297.636 72.7156 297.178C72.3927 296.709 71.9813 296.475 71.4813 296.475C71.0021 296.475 70.6167 296.678 70.325 297.084C69.9604 297.605 69.7781 298.574 69.7781 299.991ZM75.7 299.991C75.7 298.97 75.8042 298.152 76.0125 297.538C76.2208 296.913 76.5281 296.433 76.9344 296.1C77.3511 295.767 77.8719 295.6 78.4969 295.6C78.9552 295.6 79.3563 295.694 79.7 295.881C80.0542 296.069 80.3458 296.34 80.575 296.694C80.8042 297.038 80.9813 297.459 81.1063 297.959C81.2313 298.459 81.2938 299.136 81.2938 299.991C81.2938 301.001 81.1896 301.814 80.9813 302.428C80.7833 303.043 80.4761 303.522 80.0594 303.866C79.6531 304.199 79.1323 304.366 78.4969 304.366C77.674 304.366 77.0229 304.069 76.5438 303.475C75.9813 302.767 75.7 301.605 75.7 299.991ZM76.7781 299.991C76.7781 301.397 76.9448 302.334 77.2781 302.803C77.6115 303.272 78.0177 303.506 78.4969 303.506C78.9865 303.506 79.3927 303.272 79.7156 302.803C80.049 302.334 80.2156 301.397 80.2156 299.991C80.2156 298.574 80.049 297.636 79.7156 297.178C79.3927 296.709 78.9813 296.475 78.4813 296.475C78.0021 296.475 77.6167 296.678 77.325 297.084C76.9604 297.605 76.7781 298.574 76.7781 299.991Z" fill="black"/>
<path d="M58.6688 234.65H57.6219V227.931C57.3615 228.171 57.0229 228.416 56.6063 228.666C56.2 228.905 55.8354 229.082 55.5125 229.197V228.181C56.0958 227.9 56.6063 227.567 57.0438 227.181C57.4917 226.785 57.8094 226.4 57.9969 226.025H58.6688V234.65ZM61.7 230.416C61.7 229.395 61.8042 228.577 62.0125 227.962C62.2208 227.337 62.5281 226.858 62.9344 226.525C63.3511 226.192 63.8719 226.025 64.4969 226.025C64.9552 226.025 65.3563 226.119 65.7 226.306C66.0542 226.494 66.3458 226.765 66.575 227.119C66.8042 227.462 66.9813 227.884 67.1063 228.384C67.2313 228.884 67.2938 229.561 67.2938 230.416C67.2938 231.426 67.1896 232.239 66.9813 232.853C66.7833 233.468 66.4761 233.947 66.0594 234.291C65.6531 234.624 65.1323 234.791 64.4969 234.791C63.674 234.791 63.0229 234.494 62.5438 233.9C61.9813 233.192 61.7 232.03 61.7 230.416ZM62.7781 230.416C62.7781 231.822 62.9448 232.759 63.2781 233.228C63.6115 233.697 64.0177 233.931 64.4969 233.931C64.9865 233.931 65.3927 233.697 65.7156 233.228C66.049 232.759 66.2156 231.822 66.2156 230.416C66.2156 228.999 66.049 228.061 65.7156 227.603C65.3927 227.134 64.9813 226.9 64.4813 226.9C64.0021 226.9 63.6167 227.103 63.325 227.509C62.9604 228.03 62.7781 228.999 62.7781 230.416ZM68.7 230.416C68.7 229.395 68.8042 228.577 69.0125 227.962C69.2208 227.337 69.5281 226.858 69.9344 226.525C70.3511 226.192 70.8719 226.025 71.4969 226.025C71.9552 226.025 72.3563 226.119 72.7 226.306C73.0542 226.494 73.3458 226.765 73.575 227.119C73.8042 227.462 73.9813 227.884 74.1063 228.384C74.2313 228.884 74.2938 229.561 74.2938 230.416C74.2938 231.426 74.1896 232.239 73.9813 232.853C73.7833 233.468 73.4761 233.947 73.0594 234.291C72.6531 234.624 72.1323 234.791 71.4969 234.791C70.674 234.791 70.0229 234.494 69.5438 233.9C68.9813 233.192 68.7 232.03 68.7 230.416ZM69.7781 230.416C69.7781 231.822 69.9448 232.759 70.2781 233.228C70.6115 233.697 71.0177 233.931 71.4969 233.931C71.9865 233.931 72.3927 233.697 72.7156 233.228C73.049 232.759 73.2156 231.822 73.2156 230.416C73.2156 228.999 73.049 228.061 72.7156 227.603C72.3927 227.134 71.9813 226.9 71.4813 226.9C71.0021 226.9 70.6167 227.103 70.325 227.509C69.9604 228.03 69.7781 228.999 69.7781 230.416ZM75.7 230.416C75.7 229.395 75.8042 228.577 76.0125 227.962C76.2208 227.337 76.5281 226.858 76.9344 226.525C77.3511 226.192 77.8719 226.025 78.4969 226.025C78.9552 226.025 79.3563 226.119 79.7 226.306C80.0542 226.494 80.3458 226.765 80.575 227.119C80.8042 227.462 80.9813 227.884 81.1063 228.384C81.2313 228.884 81.2938 229.561 81.2938 230.416C81.2938 231.426 81.1896 232.239 80.9813 232.853C80.7833 233.468 80.4761 233.947 80.0594 234.291C79.6531 234.624 79.1323 234.791 78.4969 234.791C77.674 234.791 77.0229 234.494 76.5438 233.9C75.9813 233.192 75.7 232.03 75.7 230.416ZM76.7781 230.416C76.7781 231.822 76.9448 232.759 77.2781 233.228C77.6115 233.697 78.0177 233.931 78.4969 233.931C78.9865 233.931 79.3927 233.697 79.7156 233.228C80.049 232.759 80.2156 231.822 80.2156 230.416C80.2156 228.999 80.049 228.061 79.7156 227.603C79.3927 227.134 78.9813 226.9 78.4813 226.9C78.0021 226.9 77.6167 227.103 77.325 227.509C76.9604 228.03 76.7781 228.999 76.7781 230.416Z" fill="black"/>
<path d="M58.6688 165.075H57.6219V158.356C57.3615 158.596 57.0229 158.841 56.6063 159.091C56.2 159.33 55.8354 159.507 55.5125 159.622V158.606C56.0958 158.325 56.6063 157.992 57.0438 157.606C57.4917 157.21 57.8094 156.825 57.9969 156.45H58.6688V165.075ZM61.7 162.825L62.8094 162.731C62.8927 163.273 63.0802 163.679 63.3719 163.95C63.674 164.221 64.0386 164.356 64.4656 164.356C64.9656 164.356 65.3927 164.164 65.7469 163.778C66.1011 163.393 66.2781 162.888 66.2781 162.263C66.2781 161.658 66.1063 161.184 65.7625 160.841C65.4292 160.486 64.9865 160.309 64.4344 160.309C64.1011 160.309 63.7938 160.388 63.5125 160.544C63.2417 160.7 63.0281 160.898 62.8719 161.138L61.8875 161.013L62.7156 156.606H66.9969V157.606H63.5594L63.1063 159.919C63.6167 159.554 64.1531 159.372 64.7156 159.372C65.4656 159.372 66.0958 159.632 66.6063 160.153C67.1271 160.674 67.3875 161.346 67.3875 162.169C67.3875 162.94 67.1636 163.611 66.7156 164.184C66.1636 164.872 65.4136 165.216 64.4656 165.216C63.6844 165.216 63.0438 164.997 62.5438 164.559C62.0542 164.122 61.7729 163.544 61.7 162.825ZM68.7 160.841C68.7 159.82 68.8042 159.002 69.0125 158.388C69.2208 157.763 69.5281 157.283 69.9344 156.95C70.3511 156.617 70.8719 156.45 71.4969 156.45C71.9552 156.45 72.3563 156.544 72.7 156.731C73.0542 156.919 73.3458 157.19 73.575 157.544C73.8042 157.888 73.9813 158.309 74.1063 158.809C74.2313 159.309 74.2938 159.986 74.2938 160.841C74.2938 161.851 74.1896 162.664 73.9813 163.278C73.7833 163.893 73.4761 164.372 73.0594 164.716C72.6531 165.049 72.1323 165.216 71.4969 165.216C70.674 165.216 70.0229 164.919 69.5438 164.325C68.9813 163.617 68.7 162.455 68.7 160.841ZM69.7781 160.841C69.7781 162.247 69.9448 163.184 70.2781 163.653C70.6115 164.122 71.0177 164.356 71.4969 164.356C71.9865 164.356 72.3927 164.122 72.7156 163.653C73.049 163.184 73.2156 162.247 73.2156 160.841C73.2156 159.424 73.049 158.486 72.7156 158.028C72.3927 157.559 71.9813 157.325 71.4813 157.325C71.0021 157.325 70.6167 157.528 70.325 157.934C69.9604 158.455 69.7781 159.424 69.7781 160.841ZM75.7 160.841C75.7 159.82 75.8042 159.002 76.0125 158.388C76.2208 157.763 76.5281 157.283 76.9344 156.95C77.3511 156.617 77.8719 156.45 78.4969 156.45C78.9552 156.45 79.3563 156.544 79.7 156.731C80.0542 156.919 80.3458 157.19 80.575 157.544C80.8042 157.888 80.9813 158.309 81.1063 158.809C81.2313 159.309 81.2938 159.986 81.2938 160.841C81.2938 161.851 81.1896 162.664 80.9813 163.278C80.7833 163.893 80.4761 164.372 80.0594 164.716C79.6531 165.049 79.1323 165.216 78.4969 165.216C77.674 165.216 77.0229 164.919 76.5438 164.325C75.9813 163.617 75.7 162.455 75.7 160.841ZM76.7781 160.841C76.7781 162.247 76.9448 163.184 77.2781 163.653C77.6115 164.122 78.0177 164.356 78.4969 164.356C78.9865 164.356 79.3927 164.122 79.7156 163.653C80.049 163.184 80.2156 162.247 80.2156 160.841C80.2156 159.424 80.049 158.486 79.7156 158.028C79.3927 157.559 78.9813 157.325 78.4813 157.325C78.0021 157.325 77.6167 157.528 77.325 157.934C76.9604 158.455 76.7781 159.424 76.7781 160.841Z" fill="black"/>
<path d="M60.2469 94.4844V95.5H54.5594C54.5594 95.25 54.6011 95.0052 54.6844 94.7656C54.8302 94.3802 55.0594 94 55.3719 93.625C55.6948 93.25 56.1583 92.8177 56.7625 92.3281C57.7 91.5573 58.3302 90.9479 58.6531 90.5C58.9865 90.0521 59.1531 89.6302 59.1531 89.2344C59.1531 88.8177 59.0021 88.4688 58.7 88.1875C58.3979 87.8958 58.0073 87.75 57.5281 87.75C57.0177 87.75 56.6115 87.901 56.3094 88.2031C56.0073 88.5052 55.8511 88.9271 55.8406 89.4688L54.7625 89.3594C54.8354 88.5469 55.1115 87.9323 55.5906 87.5156C56.0802 87.0885 56.7365 86.875 57.5594 86.875C58.3823 86.875 59.0333 87.1042 59.5125 87.5625C59.9917 88.0208 60.2313 88.5885 60.2313 89.2656C60.2313 89.6094 60.1583 89.9479 60.0125 90.2812C59.8771 90.6042 59.6427 90.9531 59.3094 91.3281C58.9865 91.6927 58.45 92.1927 57.7 92.8281C57.0646 93.3594 56.6531 93.724 56.4656 93.9219C56.2886 94.1094 56.1427 94.2969 56.0281 94.4844H60.2469ZM61.7 91.2656C61.7 90.2448 61.8042 89.4271 62.0125 88.8125C62.2208 88.1875 62.5281 87.7083 62.9344 87.375C63.3511 87.0417 63.8719 86.875 64.4969 86.875C64.9552 86.875 65.3563 86.9688 65.7 87.1562C66.0542 87.3438 66.3458 87.6146 66.575 87.9688C66.8042 88.3125 66.9813 88.7344 67.1063 89.2344C67.2313 89.7344 67.2938 90.4115 67.2938 91.2656C67.2938 92.276 67.1896 93.0885 66.9813 93.7031C66.7833 94.3177 66.4761 94.7969 66.0594 95.1406C65.6531 95.474 65.1323 95.6406 64.4969 95.6406C63.674 95.6406 63.0229 95.3438 62.5438 94.75C61.9813 94.0417 61.7 92.8802 61.7 91.2656ZM62.7781 91.2656C62.7781 92.6719 62.9448 93.6094 63.2781 94.0781C63.6115 94.5469 64.0177 94.7812 64.4969 94.7812C64.9865 94.7812 65.3927 94.5469 65.7156 94.0781C66.049 93.6094 66.2156 92.6719 66.2156 91.2656C66.2156 89.849 66.049 88.9115 65.7156 88.4531C65.3927 87.9844 64.9813 87.75 64.4813 87.75C64.0021 87.75 63.6167 87.9531 63.325 88.3594C62.9604 88.8802 62.7781 89.849 62.7781 91.2656ZM68.7 91.2656C68.7 90.2448 68.8042 89.4271 69.0125 88.8125C69.2208 88.1875 69.5281 87.7083 69.9344 87.375C70.3511 87.0417 70.8719 86.875 71.4969 86.875C71.9552 86.875 72.3563 86.9688 72.7 87.1562C73.0542 87.3438 73.3458 87.6146 73.575 87.9688C73.8042 88.3125 73.9813 88.7344 74.1063 89.2344C74.2313 89.7344 74.2938 90.4115 74.2938 91.2656C74.2938 92.276 74.1896 93.0885 73.9813 93.7031C73.7833 94.3177 73.4761 94.7969 73.0594 95.1406C72.6531 95.474 72.1323 95.6406 71.4969 95.6406C70.674 95.6406 70.0229 95.3438 69.5438 94.75C68.9813 94.0417 68.7 92.8802 68.7 91.2656ZM69.7781 91.2656C69.7781 92.6719 69.9448 93.6094 70.2781 94.0781C70.6115 94.5469 71.0177 94.7812 71.4969 94.7812C71.9865 94.7812 72.3927 94.5469 72.7156 94.0781C73.049 93.6094 73.2156 92.6719 73.2156 91.2656C73.2156 89.849 73.049 88.9115 72.7156 88.4531C72.3927 87.9844 71.9813 87.75 71.4813 87.75C71.0021 87.75 70.6167 87.9531 70.325 88.3594C69.9604 88.8802 69.7781 89.849 69.7781 91.2656ZM75.7 91.2656C75.7 90.2448 75.8042 89.4271 76.0125 88.8125C76.2208 88.1875 76.5281 87.7083 76.9344 87.375C77.3511 87.0417 77.8719 86.875 78.4969 86.875C78.9552 86.875 79.3563 86.9688 79.7 87.1562C80.0542 87.3438 80.3458 87.6146 80.575 87.9688C80.8042 88.3125 80.9813 88.7344 81.1063 89.2344C81.2313 89.7344 81.2938 90.4115 81.2938 91.2656C81.2938 92.276 81.1896 93.0885 80.9813 93.7031C80.7833 94.3177 80.4761 94.7969 80.0594 95.1406C79.6531 95.474 79.1323 95.6406 78.4969 95.6406C77.674 95.6406 77.0229 95.3438 76.5438 94.75C75.9813 94.0417 75.7 92.8802 75.7 91.2656ZM76.7781 91.2656C76.7781 92.6719 76.9448 93.6094 77.2781 94.0781C77.6115 94.5469 78.0177 94.7812 78.4969 94.7812C78.9865 94.7812 79.3927 94.5469 79.7156 94.0781C80.049 93.6094 80.2156 92.6719 80.2156 91.2656C80.2156 89.849 80.049 88.9115 79.7156 88.4531C79.3927 87.9844 78.9813 87.75 78.4813 87.75C78.0021 87.75 77.6167 87.9531 77.325 88.3594C76.9604 88.8802 76.7781 89.849 76.7781 91.2656Z" fill="black"/>
<path d="M168.052 386.8V384.737H164.333V383.769L168.255 378.206H169.114V383.769H170.271V384.737H169.114V386.8H168.052ZM168.052 383.769V379.909L165.364 383.769H168.052ZM175.052 386.8V384.737H171.333V383.769L175.255 378.206H176.114V383.769H177.271V384.737H176.114V386.8H175.052ZM175.052 383.769V379.909L172.364 383.769H175.052ZM178.677 382.566C178.677 381.545 178.781 380.727 178.989 380.112C179.198 379.487 179.505 379.008 179.911 378.675C180.328 378.342 180.849 378.175 181.474 378.175C181.932 378.175 182.333 378.269 182.677 378.456C183.031 378.644 183.323 378.915 183.552 379.269C183.781 379.612 183.958 380.034 184.083 380.534C184.208 381.034 184.271 381.711 184.271 382.566C184.271 383.576 184.167 384.389 183.958 385.003C183.76 385.618 183.453 386.097 183.036 386.441C182.63 386.774 182.109 386.941 181.474 386.941C180.651 386.941 180 386.644 179.521 386.05C178.958 385.342 178.677 384.18 178.677 382.566ZM179.755 382.566C179.755 383.972 179.922 384.909 180.255 385.378C180.588 385.847 180.995 386.081 181.474 386.081C181.963 386.081 182.37 385.847 182.693 385.378C183.026 384.909 183.193 383.972 183.193 382.566C183.193 381.149 183.026 380.211 182.693 379.753C182.37 379.284 181.958 379.05 181.458 379.05C180.979 379.05 180.594 379.253 180.302 379.659C179.937 380.18 179.755 381.149 179.755 382.566ZM185.677 382.566C185.677 381.545 185.781 380.727 185.989 380.112C186.198 379.487 186.505 379.008 186.911 378.675C187.328 378.342 187.849 378.175 188.474 378.175C188.932 378.175 189.333 378.269 189.677 378.456C190.031 378.644 190.323 378.915 190.552 379.269C190.781 379.612 190.958 380.034 191.083 380.534C191.208 381.034 191.271 381.711 191.271 382.566C191.271 383.576 191.167 384.389 190.958 385.003C190.76 385.618 190.453 386.097 190.036 386.441C189.63 386.774 189.109 386.941 188.474 386.941C187.651 386.941 187 386.644 186.521 386.05C185.958 385.342 185.677 384.18 185.677 382.566ZM186.755 382.566C186.755 383.972 186.922 384.909 187.255 385.378C187.588 385.847 187.995 386.081 188.474 386.081C188.963 386.081 189.37 385.847 189.693 385.378C190.026 384.909 190.193 383.972 190.193 382.566C190.193 381.149 190.026 380.211 189.693 379.753C189.37 379.284 188.958 379.05 188.458 379.05C187.979 379.05 187.594 379.253 187.302 379.659C186.937 380.18 186.755 381.149 186.755 382.566ZM192.677 382.566C192.677 381.545 192.781 380.727 192.989 380.112C193.198 379.487 193.505 379.008 193.911 378.675C194.328 378.342 194.849 378.175 195.474 378.175C195.932 378.175 196.333 378.269 196.677 378.456C197.031 378.644 197.323 378.915 197.552 379.269C197.781 379.612 197.958 380.034 198.083 380.534C198.208 381.034 198.271 381.711 198.271 382.566C198.271 383.576 198.167 384.389 197.958 385.003C197.76 385.618 197.453 386.097 197.036 386.441C196.63 386.774 196.109 386.941 195.474 386.941C194.651 386.941 194 386.644 193.521 386.05C192.958 385.342 192.677 384.18 192.677 382.566ZM193.755 382.566C193.755 383.972 193.922 384.909 194.255 385.378C194.588 385.847 194.995 386.081 195.474 386.081C195.963 386.081 196.37 385.847 196.693 385.378C197.026 384.909 197.193 383.972 197.193 382.566C197.193 381.149 197.026 380.211 196.693 379.753C196.37 379.284 195.958 379.05 195.458 379.05C194.979 379.05 194.594 379.253 194.302 379.659C193.937 380.18 193.755 381.149 193.755 382.566Z" fill="black"/>
<path d="M289.451 386.8V384.737H285.732V383.769L289.654 378.206H290.513V383.769H291.669V384.737H290.513V386.8H289.451ZM289.451 383.769V379.909L286.763 383.769H289.451ZM296.451 386.8V384.737H292.732V383.769L296.654 378.206H297.513V383.769H298.669V384.737H297.513V386.8H296.451ZM296.451 383.769V379.909L293.763 383.769H296.451ZM305.622 385.784V386.8H299.935C299.935 386.55 299.977 386.305 300.06 386.066C300.206 385.68 300.435 385.3 300.747 384.925C301.07 384.55 301.534 384.118 302.138 383.628C303.076 382.857 303.706 382.248 304.029 381.8C304.362 381.352 304.529 380.93 304.529 380.534C304.529 380.118 304.378 379.769 304.076 379.487C303.773 379.196 303.383 379.05 302.904 379.05C302.393 379.05 301.987 379.201 301.685 379.503C301.383 379.805 301.227 380.227 301.216 380.769L300.138 380.659C300.211 379.847 300.487 379.232 300.966 378.816C301.456 378.389 302.112 378.175 302.935 378.175C303.758 378.175 304.409 378.404 304.888 378.862C305.367 379.321 305.607 379.889 305.607 380.566C305.607 380.909 305.534 381.248 305.388 381.581C305.253 381.904 305.018 382.253 304.685 382.628C304.362 382.993 303.826 383.493 303.076 384.128C302.44 384.659 302.029 385.024 301.841 385.222C301.664 385.409 301.518 385.597 301.404 385.784H305.622ZM307.076 382.566C307.076 381.545 307.18 380.727 307.388 380.112C307.596 379.487 307.904 379.008 308.31 378.675C308.727 378.342 309.247 378.175 309.872 378.175C310.331 378.175 310.732 378.269 311.076 378.456C311.43 378.644 311.721 378.915 311.951 379.269C312.18 379.612 312.357 380.034 312.482 380.534C312.607 381.034 312.669 381.711 312.669 382.566C312.669 383.576 312.565 384.389 312.357 385.003C312.159 385.618 311.852 386.097 311.435 386.441C311.029 386.774 310.508 386.941 309.872 386.941C309.049 386.941 308.398 386.644 307.919 386.05C307.357 385.342 307.076 384.18 307.076 382.566ZM308.154 382.566C308.154 383.972 308.32 384.909 308.654 385.378C308.987 385.847 309.393 386.081 309.872 386.081C310.362 386.081 310.768 385.847 311.091 385.378C311.424 384.909 311.591 383.972 311.591 382.566C311.591 381.149 311.424 380.211 311.091 379.753C310.768 379.284 310.357 379.05 309.857 379.05C309.378 379.05 308.992 379.253 308.701 379.659C308.336 380.18 308.154 381.149 308.154 382.566ZM314.076 382.566C314.076 381.545 314.18 380.727 314.388 380.112C314.596 379.487 314.904 379.008 315.31 378.675C315.727 378.342 316.247 378.175 316.872 378.175C317.331 378.175 317.732 378.269 318.076 378.456C318.43 378.644 318.721 378.915 318.951 379.269C319.18 379.612 319.357 380.034 319.482 380.534C319.607 381.034 319.669 381.711 319.669 382.566C319.669 383.576 319.565 384.389 319.357 385.003C319.159 385.618 318.852 386.097 318.435 386.441C318.029 386.774 317.508 386.941 316.872 386.941C316.049 386.941 315.398 386.644 314.919 386.05C314.357 385.342 314.076 384.18 314.076 382.566ZM315.154 382.566C315.154 383.972 315.32 384.909 315.654 385.378C315.987 385.847 316.393 386.081 316.872 386.081C317.362 386.081 317.768 385.847 318.091 385.378C318.424 384.909 318.591 383.972 318.591 382.566C318.591 381.149 318.424 380.211 318.091 379.753C317.768 379.284 317.357 379.05 316.857 379.05C316.378 379.05 315.992 379.253 315.701 379.659C315.336 380.18 315.154 381.149 315.154 382.566Z" fill="black"/>
<path d="M410.849 386.8V384.737H407.13V383.769L411.052 378.206H411.912V383.769H413.068V384.737H411.912V386.8H410.849ZM410.849 383.769V379.909L408.162 383.769H410.849ZM417.849 386.8V384.737H414.13V383.769L418.052 378.206H418.912V383.769H420.068V384.737H418.912V386.8H417.849ZM417.849 383.769V379.909L415.162 383.769H417.849ZM424.849 386.8V384.737H421.13V383.769L425.052 378.206H425.912V383.769H427.068V384.737H425.912V386.8H424.849ZM424.849 383.769V379.909L422.162 383.769H424.849ZM428.474 382.566C428.474 381.545 428.578 380.727 428.787 380.112C428.995 379.487 429.302 379.008 429.708 378.675C430.125 378.342 430.646 378.175 431.271 378.175C431.729 378.175 432.13 378.269 432.474 378.456C432.828 378.644 433.12 378.915 433.349 379.269C433.578 379.612 433.755 380.034 433.88 380.534C434.005 381.034 434.068 381.711 434.068 382.566C434.068 383.576 433.964 384.389 433.755 385.003C433.557 385.618 433.25 386.097 432.833 386.441C432.427 386.774 431.906 386.941 431.271 386.941C430.448 386.941 429.797 386.644 429.318 386.05C428.755 385.342 428.474 384.18 428.474 382.566ZM429.552 382.566C429.552 383.972 429.719 384.909 430.052 385.378C430.386 385.847 430.792 386.081 431.271 386.081C431.761 386.081 432.167 385.847 432.49 385.378C432.823 384.909 432.99 383.972 432.99 382.566C432.99 381.149 432.823 380.211 432.49 379.753C432.167 379.284 431.755 379.05 431.255 379.05C430.776 379.05 430.391 379.253 430.099 379.659C429.735 380.18 429.552 381.149 429.552 382.566ZM435.474 382.566C435.474 381.545 435.578 380.727 435.787 380.112C435.995 379.487 436.302 379.008 436.708 378.675C437.125 378.342 437.646 378.175 438.271 378.175C438.729 378.175 439.13 378.269 439.474 378.456C439.828 378.644 440.12 378.915 440.349 379.269C440.578 379.612 440.755 380.034 440.88 380.534C441.005 381.034 441.068 381.711 441.068 382.566C441.068 383.576 440.964 384.389 440.755 385.003C440.557 385.618 440.25 386.097 439.833 386.441C439.427 386.774 438.906 386.941 438.271 386.941C437.448 386.941 436.797 386.644 436.318 386.05C435.755 385.342 435.474 384.18 435.474 382.566ZM436.552 382.566C436.552 383.972 436.719 384.909 437.052 385.378C437.386 385.847 437.792 386.081 438.271 386.081C438.761 386.081 439.167 385.847 439.49 385.378C439.823 384.909 439.99 383.972 439.99 382.566C439.99 381.149 439.823 380.211 439.49 379.753C439.167 379.284 438.755 379.05 438.255 379.05C437.776 379.05 437.391 379.253 437.099 379.659C436.735 380.18 436.552 381.149 436.552 382.566Z" fill="black"/>
<path d="M532.248 386.8V384.737H528.529V383.769L532.451 378.206H533.31V383.769H534.466V384.737H533.31V386.8H532.248ZM532.248 383.769V379.909L529.56 383.769H532.248ZM539.248 386.8V384.737H535.529V383.769L539.451 378.206H540.31V383.769H541.466V384.737H540.31V386.8H539.248ZM539.248 383.769V379.909L536.56 383.769H539.248ZM548.341 380.316L547.295 380.394C547.201 379.977 547.071 379.675 546.904 379.487C546.612 379.185 546.258 379.034 545.841 379.034C545.508 379.034 545.211 379.128 544.951 379.316C544.628 379.566 544.368 379.925 544.17 380.394C543.982 380.852 543.883 381.508 543.873 382.362C544.123 381.977 544.43 381.691 544.795 381.503C545.17 381.316 545.56 381.222 545.966 381.222C546.664 381.222 547.258 381.482 547.748 382.003C548.248 382.524 548.498 383.191 548.498 384.003C548.498 384.545 548.378 385.05 548.138 385.519C547.909 385.977 547.591 386.331 547.185 386.581C546.779 386.821 546.321 386.941 545.81 386.941C544.925 386.941 544.206 386.618 543.654 385.972C543.102 385.326 542.826 384.264 542.826 382.784C542.826 381.118 543.133 379.909 543.748 379.159C544.279 378.503 544.998 378.175 545.904 378.175C546.581 378.175 547.133 378.368 547.56 378.753C547.998 379.128 548.258 379.649 548.341 380.316ZM544.045 384.019C544.045 384.383 544.118 384.732 544.263 385.066C544.42 385.389 544.633 385.639 544.904 385.816C545.185 385.993 545.482 386.081 545.795 386.081C546.232 386.081 546.612 385.904 546.935 385.55C547.258 385.185 547.42 384.696 547.42 384.081C547.42 383.487 547.258 383.019 546.935 382.675C546.623 382.331 546.227 382.159 545.748 382.159C545.269 382.159 544.862 382.331 544.529 382.675C544.206 383.019 544.045 383.467 544.045 384.019ZM549.873 382.566C549.873 381.545 549.977 380.727 550.185 380.112C550.394 379.487 550.701 379.008 551.107 378.675C551.524 378.342 552.045 378.175 552.67 378.175C553.128 378.175 553.529 378.269 553.873 378.456C554.227 378.644 554.519 378.915 554.748 379.269C554.977 379.612 555.154 380.034 555.279 380.534C555.404 381.034 555.466 381.711 555.466 382.566C555.466 383.576 555.362 384.389 555.154 385.003C554.956 385.618 554.649 386.097 554.232 386.441C553.826 386.774 553.305 386.941 552.67 386.941C551.847 386.941 551.196 386.644 550.716 386.05C550.154 385.342 549.873 384.18 549.873 382.566ZM550.951 382.566C550.951 383.972 551.118 384.909 551.451 385.378C551.784 385.847 552.19 386.081 552.67 386.081C553.159 386.081 553.565 385.847 553.888 385.378C554.222 384.909 554.388 383.972 554.388 382.566C554.388 381.149 554.222 380.211 553.888 379.753C553.565 379.284 553.154 379.05 552.654 379.05C552.175 379.05 551.789 379.253 551.498 379.659C551.133 380.18 550.951 381.149 550.951 382.566ZM556.873 382.566C556.873 381.545 556.977 380.727 557.185 380.112C557.394 379.487 557.701 379.008 558.107 378.675C558.524 378.342 559.045 378.175 559.67 378.175C560.128 378.175 560.529 378.269 560.873 378.456C561.227 378.644 561.519 378.915 561.748 379.269C561.977 379.612 562.154 380.034 562.279 380.534C562.404 381.034 562.466 381.711 562.466 382.566C562.466 383.576 562.362 384.389 562.154 385.003C561.956 385.618 561.649 386.097 561.232 386.441C560.826 386.774 560.305 386.941 559.67 386.941C558.847 386.941 558.196 386.644 557.716 386.05C557.154 385.342 556.873 384.18 556.873 382.566ZM557.951 382.566C557.951 383.972 558.118 384.909 558.451 385.378C558.784 385.847 559.19 386.081 559.67 386.081C560.159 386.081 560.565 385.847 560.888 385.378C561.222 384.909 561.388 383.972 561.388 382.566C561.388 381.149 561.222 380.211 560.888 379.753C560.565 379.284 560.154 379.05 559.654 379.05C559.175 379.05 558.789 379.253 558.498 379.659C558.133 380.18 557.951 381.149 557.951 382.566Z" fill="black"/>
<path d="M653.646 386.8V384.737H649.928V383.769L653.849 378.206H654.709V383.769H655.865V384.737H654.709V386.8H653.646ZM653.646 383.769V379.909L650.959 383.769H653.646ZM660.646 386.8V384.737H656.928V383.769L660.849 378.206H661.709V383.769H662.865V384.737H661.709V386.8H660.646ZM660.646 383.769V379.909L657.959 383.769H660.646ZM665.896 382.144C665.459 381.977 665.131 381.748 664.912 381.456C664.704 381.154 664.599 380.8 664.599 380.394C664.599 379.769 664.823 379.243 665.271 378.816C665.73 378.389 666.329 378.175 667.068 378.175C667.818 378.175 668.422 378.394 668.881 378.831C669.339 379.269 669.568 379.8 669.568 380.425C669.568 380.821 669.464 381.165 669.256 381.456C669.047 381.748 668.73 381.977 668.303 382.144C668.834 382.31 669.235 382.586 669.506 382.972C669.776 383.357 669.912 383.816 669.912 384.347C669.912 385.076 669.651 385.691 669.131 386.191C668.62 386.691 667.938 386.941 667.084 386.941C666.24 386.941 665.558 386.691 665.037 386.191C664.516 385.691 664.256 385.066 664.256 384.316C664.256 383.753 664.396 383.284 664.678 382.909C664.969 382.534 665.375 382.279 665.896 382.144ZM665.678 380.347C665.678 380.753 665.808 381.086 666.068 381.347C666.339 381.607 666.683 381.737 667.099 381.737C667.506 381.737 667.839 381.612 668.099 381.362C668.36 381.102 668.49 380.784 668.49 380.409C668.49 380.024 668.355 379.701 668.084 379.441C667.813 379.17 667.48 379.034 667.084 379.034C666.678 379.034 666.339 379.165 666.068 379.425C665.808 379.685 665.678 379.993 665.678 380.347ZM665.349 384.316C665.349 384.618 665.417 384.909 665.553 385.191C665.698 385.472 665.912 385.691 666.193 385.847C666.474 386.003 666.777 386.081 667.099 386.081C667.599 386.081 668.011 385.92 668.334 385.597C668.667 385.274 668.834 384.862 668.834 384.362C668.834 383.852 668.667 383.43 668.334 383.097C668 382.764 667.579 382.597 667.068 382.597C666.568 382.597 666.157 382.764 665.834 383.097C665.511 383.42 665.349 383.826 665.349 384.316ZM671.271 382.566C671.271 381.545 671.375 380.727 671.584 380.112C671.792 379.487 672.099 379.008 672.506 378.675C672.922 378.342 673.443 378.175 674.068 378.175C674.527 378.175 674.928 378.269 675.271 378.456C675.625 378.644 675.917 378.915 676.146 379.269C676.375 379.612 676.553 380.034 676.678 380.534C676.803 381.034 676.865 381.711 676.865 382.566C676.865 383.576 676.761 384.389 676.553 385.003C676.355 385.618 676.047 386.097 675.631 386.441C675.224 386.774 674.704 386.941 674.068 386.941C673.245 386.941 672.594 386.644 672.115 386.05C671.553 385.342 671.271 384.18 671.271 382.566ZM672.349 382.566C672.349 383.972 672.516 384.909 672.849 385.378C673.183 385.847 673.589 386.081 674.068 386.081C674.558 386.081 674.964 385.847 675.287 385.378C675.62 384.909 675.787 383.972 675.787 382.566C675.787 381.149 675.62 380.211 675.287 379.753C674.964 379.284 674.553 379.05 674.053 379.05C673.573 379.05 673.188 379.253 672.896 379.659C672.532 380.18 672.349 381.149 672.349 382.566ZM678.271 382.566C678.271 381.545 678.375 380.727 678.584 380.112C678.792 379.487 679.099 379.008 679.506 378.675C679.922 378.342 680.443 378.175 681.068 378.175C681.527 378.175 681.928 378.269 682.271 378.456C682.625 378.644 682.917 378.915 683.146 379.269C683.375 379.612 683.553 380.034 683.678 380.534C683.803 381.034 683.865 381.711 683.865 382.566C683.865 383.576 683.761 384.389 683.553 385.003C683.355 385.618 683.047 386.097 682.631 386.441C682.224 386.774 681.704 386.941 681.068 386.941C680.245 386.941 679.594 386.644 679.115 386.05C678.553 385.342 678.271 384.18 678.271 382.566ZM679.349 382.566C679.349 383.972 679.516 384.909 679.849 385.378C680.183 385.847 680.589 386.081 681.068 386.081C681.558 386.081 681.964 385.847 682.287 385.378C682.62 384.909 682.787 383.972 682.787 382.566C682.787 381.149 682.62 380.211 682.287 379.753C681.964 379.284 681.553 379.05 681.053 379.05C680.573 379.05 680.188 379.253 679.896 379.659C679.532 380.18 679.349 381.149 679.349 382.566Z" fill="black"/>
<path d="M576.847 65.5125V66.7H570.222C570.211 66.4083 570.258 66.1219 570.363 65.8406C570.54 65.3927 570.81 64.95 571.175 64.5125C571.55 64.075 572.086 63.5698 572.784 62.9969C573.878 62.1011 574.613 61.3927 574.988 60.8719C575.373 60.3511 575.566 59.8563 575.566 59.3875C575.566 58.8979 575.389 58.4865 575.034 58.1531C574.691 57.8198 574.243 57.6531 573.691 57.6531C573.097 57.6531 572.618 57.8302 572.253 58.1844C571.899 58.5386 571.722 59.0333 571.722 59.6688L570.456 59.5281C570.54 58.5906 570.862 57.8771 571.425 57.3875C571.998 56.8875 572.758 56.6375 573.706 56.6375C574.675 56.6375 575.435 56.9031 575.988 57.4344C576.55 57.9656 576.831 58.6271 576.831 59.4188C576.831 59.825 576.748 60.2208 576.581 60.6063C576.425 60.9917 576.154 61.3979 575.769 61.825C575.394 62.2521 574.764 62.8406 573.878 63.5906C573.139 64.2052 572.665 64.6271 572.456 64.8563C572.248 65.075 572.076 65.2938 571.941 65.5125H576.847ZM578.378 61.7625C578.378 60.575 578.498 59.6219 578.738 58.9031C578.988 58.174 579.352 57.6167 579.831 57.2313C580.31 56.8354 580.915 56.6375 581.644 56.6375C582.185 56.6375 582.659 56.7469 583.066 56.9656C583.472 57.1844 583.805 57.4969 584.066 57.9031C584.336 58.3094 584.545 58.8042 584.691 59.3875C584.836 59.9708 584.909 60.7625 584.909 61.7625C584.909 62.9396 584.79 63.8875 584.55 64.6063C584.31 65.325 583.951 65.8823 583.472 66.2781C582.993 66.674 582.383 66.8719 581.644 66.8719C580.685 66.8719 579.93 66.5229 579.378 65.825C578.711 64.9917 578.378 63.6375 578.378 61.7625ZM579.644 61.7625C579.644 63.4083 579.836 64.5021 580.222 65.0438C580.607 65.5854 581.081 65.8563 581.644 65.8563C582.217 65.8563 582.696 65.5854 583.081 65.0438C583.467 64.4917 583.659 63.3979 583.659 61.7625C583.659 60.1063 583.467 59.0073 583.081 58.4656C582.696 57.924 582.211 57.6531 581.628 57.6531C581.066 57.6531 580.618 57.8927 580.284 58.3719C579.857 58.9865 579.644 60.1167 579.644 61.7625ZM592.847 65.5125V66.7H586.222C586.211 66.4083 586.258 66.1219 586.363 65.8406C586.54 65.3927 586.81 64.95 587.175 64.5125C587.55 64.075 588.086 63.5698 588.784 62.9969C589.878 62.1011 590.613 61.3927 590.988 60.8719C591.373 60.3511 591.566 59.8563 591.566 59.3875C591.566 58.8979 591.389 58.4865 591.034 58.1531C590.691 57.8198 590.243 57.6531 589.691 57.6531C589.097 57.6531 588.618 57.8302 588.253 58.1844C587.899 58.5386 587.722 59.0333 587.722 59.6688L586.456 59.5281C586.54 58.5906 586.862 57.8771 587.425 57.3875C587.998 56.8875 588.758 56.6375 589.706 56.6375C590.675 56.6375 591.435 56.9031 591.988 57.4344C592.55 57.9656 592.831 58.6271 592.831 59.4188C592.831 59.825 592.748 60.2208 592.581 60.6063C592.425 60.9917 592.154 61.3979 591.769 61.825C591.394 62.2521 590.764 62.8406 589.878 63.5906C589.139 64.2052 588.665 64.6271 588.456 64.8563C588.248 65.075 588.076 65.2938 587.941 65.5125H592.847ZM600.847 65.5125V66.7H594.222C594.211 66.4083 594.258 66.1219 594.363 65.8406C594.54 65.3927 594.81 64.95 595.175 64.5125C595.55 64.075 596.086 63.5698 596.784 62.9969C597.878 62.1011 598.613 61.3927 598.988 60.8719C599.373 60.3511 599.566 59.8563 599.566 59.3875C599.566 58.8979 599.389 58.4865 599.034 58.1531C598.691 57.8198 598.243 57.6531 597.691 57.6531C597.097 57.6531 596.618 57.8302 596.253 58.1844C595.899 58.5386 595.722 59.0333 595.722 59.6688L594.456 59.5281C594.54 58.5906 594.862 57.8771 595.425 57.3875C595.998 56.8875 596.758 56.6375 597.706 56.6375C598.675 56.6375 599.435 56.9031 599.988 57.4344C600.55 57.9656 600.831 58.6271 600.831 59.4188C600.831 59.825 600.748 60.2208 600.581 60.6063C600.425 60.9917 600.154 61.3979 599.769 61.825C599.394 62.2521 598.764 62.8406 597.878 63.5906C597.139 64.2052 596.665 64.6271 596.456 64.8563C596.248 65.075 596.076 65.2938 595.941 65.5125H600.847Z" fill="#999999"/>
<path d="M606.175 58.1688C605.487 59.3667 604.633 60.3667 603.612 61.1688L602.847 60.1844C604.336 59.0906 605.357 57.5073 605.909 55.4344L607.159 55.7625C607.305 55.9083 607.253 55.9969 607.003 56.0281L606.566 57.1219H614.269V58.1688H610.284V60.0281H613.566V61.0594H610.284V63.5281H614.878V64.5594H610.284V67.8563H609.191V64.5594H602.894V63.5281H605.362V60.0281H609.191V58.1688H606.175ZM606.456 63.5281H609.191V61.0594H606.456V63.5281Z" fill="#999999"/>
<path d="M616.566 64.3875L617.753 64.2781C617.847 64.8302 618.034 65.2313 618.316 65.4813C618.607 65.7313 618.972 65.8563 619.409 65.8563C619.784 65.8563 620.112 65.7729 620.394 65.6063C620.685 65.4292 620.92 65.1948 621.097 64.9031C621.284 64.6115 621.441 64.2208 621.566 63.7313C621.691 63.2417 621.753 62.7417 621.753 62.2313C621.753 62.1792 621.748 62.0958 621.737 61.9813C621.498 62.3771 621.165 62.7 620.737 62.95C620.31 63.1896 619.847 63.3094 619.347 63.3094C618.514 63.3094 617.81 63.0073 617.237 62.4031C616.665 61.799 616.378 61.0073 616.378 60.0281C616.378 59.0073 616.675 58.1896 617.269 57.575C617.873 56.95 618.628 56.6375 619.534 56.6375C620.18 56.6375 620.774 56.8146 621.316 57.1688C621.857 57.5125 622.269 58.0125 622.55 58.6688C622.831 59.3146 622.972 60.2521 622.972 61.4813C622.972 62.7625 622.831 63.7833 622.55 64.5438C622.279 65.3042 621.868 65.8823 621.316 66.2781C620.764 66.674 620.118 66.8719 619.378 66.8719C618.597 66.8719 617.956 66.6531 617.456 66.2156C616.967 65.7781 616.67 65.1688 616.566 64.3875ZM621.597 59.9656C621.597 59.2573 621.409 58.6948 621.034 58.2781C620.659 57.8615 620.211 57.6531 619.691 57.6531C619.139 57.6531 618.659 57.8771 618.253 58.325C617.847 58.7729 617.644 59.3511 617.644 60.0594C617.644 60.6948 617.836 61.2156 618.222 61.6219C618.607 62.0177 619.081 62.2156 619.644 62.2156C620.217 62.2156 620.685 62.0177 621.05 61.6219C621.415 61.2156 621.597 60.6636 621.597 59.9656Z" fill="#999999"/>
<path d="M633.706 63.5281H628.503C628.503 65.0906 627.701 66.5698 626.097 67.9656L625.175 66.9188C626.665 65.9708 627.409 64.549 627.409 62.6531V55.9813H634.8V66.7625C634.8 67.3458 634.487 67.6375 633.862 67.6375H632.55L632.331 66.4188H633.487C633.633 66.4188 633.706 66.3458 633.706 66.2V63.5281ZM628.503 62.325H633.706V60.3563H628.503V62.325ZM628.503 59.1531H633.706V57.1844H628.503V59.1531Z" fill="#999999"/>
<path d="M644.847 65.5125V66.7H638.222C638.211 66.4083 638.258 66.1219 638.363 65.8406C638.54 65.3927 638.81 64.95 639.175 64.5125C639.55 64.075 640.086 63.5698 640.784 62.9969C641.878 62.1011 642.613 61.3927 642.988 60.8719C643.373 60.3511 643.566 59.8563 643.566 59.3875C643.566 58.8979 643.389 58.4865 643.034 58.1531C642.691 57.8198 642.243 57.6531 641.691 57.6531C641.097 57.6531 640.618 57.8302 640.253 58.1844C639.899 58.5386 639.722 59.0333 639.722 59.6688L638.456 59.5281C638.54 58.5906 638.862 57.8771 639.425 57.3875C639.998 56.8875 640.758 56.6375 641.706 56.6375C642.675 56.6375 643.435 56.9031 643.988 57.4344C644.55 57.9656 644.831 58.6271 644.831 59.4188C644.831 59.825 644.748 60.2208 644.581 60.6063C644.425 60.9917 644.154 61.3979 643.769 61.825C643.394 62.2521 642.764 62.8406 641.878 63.5906C641.139 64.2052 640.665 64.6271 640.456 64.8563C640.248 65.075 640.076 65.2938 639.941 65.5125H644.847ZM646.566 64.3875L647.753 64.2781C647.847 64.8302 648.034 65.2313 648.316 65.4813C648.607 65.7313 648.972 65.8563 649.409 65.8563C649.784 65.8563 650.113 65.7729 650.394 65.6063C650.685 65.4292 650.92 65.1948 651.097 64.9031C651.284 64.6115 651.441 64.2208 651.566 63.7313C651.691 63.2417 651.753 62.7417 651.753 62.2313C651.753 62.1792 651.748 62.0958 651.738 61.9813C651.498 62.3771 651.165 62.7 650.738 62.95C650.31 63.1896 649.847 63.3094 649.347 63.3094C648.514 63.3094 647.81 63.0073 647.238 62.4031C646.665 61.799 646.378 61.0073 646.378 60.0281C646.378 59.0073 646.675 58.1896 647.269 57.575C647.873 56.95 648.628 56.6375 649.534 56.6375C650.18 56.6375 650.774 56.8146 651.316 57.1688C651.857 57.5125 652.269 58.0125 652.55 58.6688C652.831 59.3146 652.972 60.2521 652.972 61.4813C652.972 62.7625 652.831 63.7833 652.55 64.5438C652.279 65.3042 651.868 65.8823 651.316 66.2781C650.764 66.674 650.118 66.8719 649.378 66.8719C648.597 66.8719 647.956 66.6531 647.456 66.2156C646.967 65.7781 646.67 65.1688 646.566 64.3875ZM651.597 59.9656C651.597 59.2573 651.409 58.6948 651.034 58.2781C650.659 57.8615 650.211 57.6531 649.691 57.6531C649.139 57.6531 648.659 57.8771 648.253 58.325C647.847 58.7729 647.644 59.3511 647.644 60.0594C647.644 60.6948 647.836 61.2156 648.222 61.6219C648.607 62.0177 649.081 62.2156 649.644 62.2156C650.217 62.2156 650.685 62.0177 651.05 61.6219C651.415 61.2156 651.597 60.6636 651.597 59.9656Z" fill="#999999"/>
<path d="M657.8 67.2H656.534V56.6375H665.128V66.9813H663.862V66.2H657.8V67.2ZM663.862 60.7938V57.6688H657.8V60.7938H663.862ZM663.862 65.1688V61.825H657.8V65.1688H663.862ZM678.081 59.8563H680.659V60.7313H678.362V61.9969H680.222V62.8719H678.362V64.1844H680.222V65.0594H678.362V66.4188H681.097V67.3094H675.566V67.8563H674.644V61.7781C674.352 62.174 673.987 62.5386 673.55 62.8719L673.159 61.825C674.545 60.5854 675.441 59.2938 675.847 57.95H674.581V59.2H673.659V57.075H676.066C676.211 56.4917 676.336 55.8719 676.441 55.2156L677.534 55.4813C677.649 55.5958 677.612 55.7052 677.425 55.8094C677.321 56.2469 677.211 56.6688 677.097 57.075H680.987V58.9813H680.05V57.95H676.878C676.659 58.7104 676.368 59.3458 676.003 59.8563H677.159L677.862 58.2156L678.909 58.4344C679.086 58.5073 679.05 58.6011 678.8 58.7156L678.081 59.8563ZM668.847 57.3406V56.3094H673.487V57.3406H671.581C671.508 58.4761 671.269 59.5177 670.862 60.4656H673.003V66.9813H672.066V66.0906H670.644V67.5281H669.722V62.5906C669.503 62.9552 669.264 63.2833 669.003 63.575L668.3 62.6531C669.571 61.2261 670.316 59.4552 670.534 57.3406H668.847ZM675.566 62.8719V64.1844H677.425V62.8719H675.566ZM675.566 60.7313V61.9969H677.425V60.7313H675.566ZM675.566 65.0594V66.4188H677.425V65.0594H675.566ZM670.644 61.3406V65.2156H672.066V61.3406H670.644ZM687.222 61.45C688.566 61.0854 689.42 60.3719 689.784 59.3094L688.316 58.7156L688.691 57.7781L690.003 58.2781L690.112 56.9656H687.816V55.9188H694.378L694.269 60.6219C694.237 61.5386 693.857 61.9969 693.128 61.9969H691.862L691.753 60.95H692.909C693.128 60.95 693.237 60.8406 693.237 60.6219L693.347 56.9656H691.206L691.05 58.7156L692.362 59.4188L691.862 60.4031L690.769 59.8094C690.3 61.1531 689.264 62.0646 687.659 62.5438L687.222 61.45ZM694.159 66.9188C693.868 65.825 693.415 64.8771 692.8 64.075L693.784 63.6375C694.586 64.6167 695.097 65.5438 695.316 66.4188L694.159 66.9188ZM686.831 63.4656V67.6844H685.909V67.3094H684.05V67.9031H683.112V63.4656H686.831ZM687.269 66.9813C687.529 66.0646 687.696 65.0229 687.769 63.8563L688.862 63.9656C688.935 63.9969 688.899 64.0854 688.753 64.2313C688.711 65.3979 688.545 66.4031 688.253 67.2469L687.269 66.9813ZM690.769 61.6688C691.279 61.9917 691.79 62.5542 692.3 63.3563L691.269 63.9656C691.008 63.4552 690.571 62.8719 689.956 62.2156L690.769 61.6688ZM683.331 55.7H686.612V56.7469H683.331V55.7ZM682.628 57.5594H687.331V58.6063H682.628V57.5594ZM683.331 59.5906H686.612V60.6219H683.331V59.5906ZM683.331 61.45H686.612V62.4813H683.331V61.45ZM684.05 64.3406V66.4188H685.909V64.3406H684.05ZM690.222 63.3094C690.514 63.3406 690.534 63.45 690.284 63.6375V66.2C690.284 66.4604 690.394 66.5906 690.612 66.5906H691.816C692.034 66.5906 692.159 66.4813 692.191 66.2625L692.3 65.3875L693.394 65.6531L693.175 66.8094C693.071 67.3615 692.743 67.6375 692.191 67.6375H690.112C689.498 67.6375 689.191 67.3042 689.191 66.6375V63.3094H690.222Z" fill="#999999"/>
<path d="M23.6063 26.6688C26.0542 26.3042 27.9552 25.7833 29.3094 25.1063L30.4813 26.5125C30.5333 26.8771 30.3771 26.9552 30.0125 26.7469C29.4917 26.9031 28.8667 27.0854 28.1375 27.2938V29.95H30.8719V31.4344H28.1375V32.9188C29.2833 33.5958 30.2729 34.325 31.1063 35.1063L30.0906 36.825C29.4656 36.0438 28.8146 35.3667 28.1375 34.7938V42.9969H26.575V34.95C26.0021 36.1479 25.1948 37.3719 24.1531 38.6219L22.9813 37.45C24.8042 35.3667 25.9761 33.3615 26.4969 31.4344H23.5281V29.95H26.575V27.6063C25.7417 27.7625 24.9604 27.8667 24.2313 27.9188L23.6063 26.6688ZM33.3719 28.8563C33.8927 29.0125 33.8927 29.1948 33.3719 29.4031C33.424 30.8094 33.2677 32.5542 32.9031 34.6375L31.1844 34.325C31.549 32.7104 31.7052 30.8875 31.6531 28.8563H33.3719ZM40.8719 28.8563C41.0802 29.0646 41.0021 29.1948 40.6375 29.2469C40.4292 31.1219 39.9865 32.9188 39.3094 34.6375L37.7469 34.0125C38.424 32.6063 38.8927 30.7573 39.1531 28.4656L40.8719 28.8563ZM36.4969 31.5125C36.4969 35.5229 38.1375 38.6219 41.4188 40.8094L40.325 42.5281C38.1375 41.0177 36.6792 38.9344 35.95 36.2781C35.2729 39.1427 33.5281 41.3302 30.7156 42.8406L29.5438 41.4344C33.1375 39.4552 34.9344 36.6427 34.9344 32.9969V25.1844H36.4188C36.8354 25.2365 36.8615 25.3927 36.4969 25.6531V31.5125ZM51.3406 34.4813H46.6531V39.2469H51.3406V34.4813ZM51.3406 32.9969V28.3875H46.6531V32.9969H51.3406ZM52.9031 28.3875V32.9969H57.6688V28.3875H52.9031ZM57.6688 39.2469V34.4813H52.9031V39.2469H57.6688ZM59.4656 41.6688H57.6688V40.7313H46.6531V41.9031H44.8563V26.9031H59.4656V41.6688ZM76.1844 37.6063C77.2261 38.6479 78.7625 39.6896 80.7938 40.7313L79.8563 42.3719C78.0854 41.5386 76.4188 40.3406 74.8563 38.7781L76.1844 37.6063ZM69.3875 39.0125C68.5021 40.2625 67.1479 41.4865 65.325 42.6844L64.1531 41.2C65.8198 40.2104 67.1479 39.0386 68.1375 37.6844L69.6219 38.5438C69.8823 38.7521 69.8042 38.9083 69.3875 39.0125ZM66.1844 36.9813V37.7625H64.6219V26.5125H66.1063C66.5229 26.5646 66.549 26.7208 66.1844 26.9813V35.4969H80.5594V36.9813H73.2938V42.9969H71.4969V36.9813H66.1844ZM69.6219 33.2313H76.4188V31.7469H69.6219V33.2313ZM69.6219 30.4969H76.4188V29.2469H69.6219V30.4969ZM69.6219 27.9969H76.4188V26.7469H69.6219V27.9969ZM68.0594 34.4813V25.4969H77.9813V34.4813H68.0594ZM92.9813 30.1844C92.0958 35.3927 91.0281 38.6219 89.7781 39.8719C89.1011 40.549 88.3979 40.8875 87.6688 40.8875C86.8354 40.8875 86.1844 40.6531 85.7156 40.1844C84.4656 38.9344 83.8406 37.3719 83.8406 35.4969C83.8406 33.2052 84.6479 31.2521 86.2625 29.6375C88.0333 27.8667 90.1948 26.9813 92.7469 26.9813C95.0386 26.9813 96.8354 27.6323 98.1375 28.9344C99.5958 30.3927 100.325 32.1115 100.325 34.0906C100.325 36.2261 99.6479 37.9708 98.2938 39.325C97.4083 40.2104 96.0542 41.0698 94.2313 41.9031L92.5906 40.2625C94.4136 39.6896 95.8458 38.8823 96.8875 37.8406C97.8771 36.8511 98.3719 35.6531 98.3719 34.2469C98.3719 32.5802 97.825 31.2 96.7313 30.1063C95.6375 29.0125 93.9188 28.5177 91.575 28.6219L92.9813 29.325C93.6063 29.5854 93.6063 29.8719 92.9813 30.1844ZM91.1844 28.7C89.8302 29.0125 88.6583 29.6636 87.6688 30.6531C86.3146 32.0073 85.6375 33.674 85.6375 35.6531C85.6375 36.8511 86.0281 37.8406 86.8094 38.6219C86.9656 38.7781 87.2 38.8563 87.5125 38.8563C87.825 38.8563 88.1636 38.674 88.5281 38.3094C89.7261 37.1115 90.6115 33.9083 91.1844 28.7ZM110.325 41.5125C112.46 40.3667 113.528 38.4136 113.528 35.6531V26.6688L115.169 26.9813L119.388 25.6531L120.559 27.2156C120.664 27.5281 120.481 27.5802 120.013 27.3719L115.091 28.3094V31.6688H121.263V33.1531H118.919V42.9188H117.356V33.1531H115.091V36.1219C115.091 39.1948 113.789 41.4865 111.184 42.9969L110.325 41.5125ZM108.841 42.9969H107.278V38.3094C106.445 39.6636 105.533 40.7313 104.544 41.5125L103.372 40.1063C104.83 39.0646 106.054 37.7625 107.044 36.2H103.763V34.7156H107.278V32.9969H103.294V31.5125H108.763L109.622 28.7H103.841V27.2156H107.278V25.0281H108.763C109.179 25.0802 109.205 25.2365 108.841 25.4969V27.2156H112.278V28.7H111.263L110.169 31.5125H112.669V32.9969H108.841V34.7156H112.278V36.2H108.841V36.9031C109.57 37.1115 110.585 37.6583 111.888 38.5438L110.95 40.1063C110.221 39.3771 109.518 38.8042 108.841 38.3875V42.9969ZM105.716 31.3563C105.507 30.6271 105.221 29.924 104.856 29.2469L106.341 28.7781C106.757 29.4552 107.07 30.1583 107.278 30.8875L105.716 31.3563ZM138.45 33.5438H133.372V35.2625H138.45V33.5438ZM136.341 36.7469H134.934V37.5281C134.934 40.7573 133.085 42.6583 129.388 43.2313L128.919 41.5906C131.888 41.2261 133.372 39.8198 133.372 37.3719V36.7469H132.591H131.809V25.8094H140.013V36.7469H137.903V40.6531C137.903 41.0698 138.085 41.2781 138.45 41.2781H139.231C139.492 41.2781 139.648 41.0177 139.7 40.4969L139.856 39.1688L141.419 39.6375L141.184 41.4344C141.08 42.3198 140.585 42.7625 139.7 42.7625H137.747C136.809 42.7625 136.341 42.3198 136.341 41.4344V36.7469ZM133.372 32.0594H138.45V30.4188H133.372V32.0594ZM133.372 28.9344H138.45V27.2938H133.372V28.9344ZM127.747 35.8875C128.789 36.3563 130.013 37.2156 131.419 38.4656L130.325 40.1063C129.231 38.9083 128.268 38.0229 127.434 37.45C126.914 39.7417 125.82 41.5386 124.153 42.8406L122.981 41.4344C125.273 39.5073 126.367 37.0073 126.263 33.9344H123.294V32.45H126.341V29.6375H123.841V28.1531H126.341V25.0281H127.825C128.242 25.0802 128.268 25.2365 127.903 25.4969V28.1531H130.638V29.6375H127.903V32.45H131.028V33.9344H127.825C127.825 34.7677 127.799 35.4188 127.747 35.8875ZM147.825 32.1375C148.815 33.4917 149.309 34.8979 149.309 36.3563C149.309 38.3875 148.71 39.4031 147.513 39.4031H146.575L146.263 37.8406H147.044C147.565 37.8406 147.799 37.2938 147.747 36.2C147.695 34.6896 147.226 33.3615 146.341 32.2156L147.903 27.1375H145.481V42.7625H143.919V25.8875H148.294L148.606 25.4969L149.934 26.6688L149.622 26.9813L147.825 32.1375ZM159.153 36.5125H158.372C157.539 40.3146 154.752 42.5021 150.013 43.075L149.544 41.5906C153.606 41.2781 156.054 39.5854 156.888 36.5125H155.794C154.908 38.7 153.033 40.0281 150.169 40.4969L149.7 39.1688C152.096 38.6479 153.58 37.7625 154.153 36.5125H152.903C152.174 37.2417 151.236 37.8146 150.091 38.2313L149.466 36.9031C151.132 36.3823 152.278 35.3927 152.903 33.9344H149.388V32.6844H161.106V33.9344H154.544C154.335 34.4031 154.075 34.8458 153.763 35.2625H160.638L160.481 40.1844C160.429 41.8511 159.83 42.6844 158.684 42.6844H157.122L156.888 41.2H158.216C158.684 41.2 158.945 40.8875 158.997 40.2625L159.153 36.5125ZM152.513 30.4188H157.825V29.0906H152.513V30.4188ZM152.513 27.8406H157.825V26.5906H152.513V27.8406ZM159.153 25.3406V31.6688H151.184V25.3406H159.153ZM172.434 29.325H174.544V25.2625H176.028C176.445 25.3146 176.471 25.4708 176.106 25.7313V29.325H180.325V30.8094H176.106V34.5594H180.091V36.0438H176.106V40.6531H181.263V42.1375H169.309V40.6531H174.544V36.0438H170.716V34.5594H174.544V30.8094H171.966C171.601 31.8511 171.028 32.8927 170.247 33.9344L168.919 32.9188C170.273 31.1479 171.158 29.0125 171.575 26.5125L173.059 26.825C173.476 26.9813 173.476 27.1375 173.059 27.2938L172.434 29.325ZM165.794 25.0281H167.278C167.695 25.0802 167.721 25.2365 167.356 25.4969V42.8406H165.794V25.0281ZM168.763 28.2313C169.231 28.8563 169.622 29.5594 169.934 30.3406L168.684 31.2C168.32 30.3146 167.955 29.5854 167.591 29.0125L168.763 28.2313ZM165.325 29.0906C165.69 29.1948 165.69 29.3511 165.325 29.5594C165.221 31.2261 164.986 32.7886 164.622 34.2469L163.138 33.7781C163.554 32.4761 163.789 30.8354 163.841 28.8563L165.325 29.0906ZM198.138 33.6219V42.6844H196.575V41.9031H189.544V42.9188H187.981V35.8094C186.627 36.5386 185.169 37.1115 183.606 37.5281L183.059 36.1219C184.518 35.7573 186.158 35.1063 187.981 34.1688V33.6219H189.075C190.169 32.9969 191.106 32.3719 191.888 31.7469H183.684V30.2625H190.559V28.3875H185.716V26.9031H190.559V25.0281H192.044C192.46 25.0802 192.486 25.2365 192.122 25.4969V26.9031H195.872V28.2313C196.497 27.5542 197.122 26.799 197.747 25.9656L198.841 26.6688C199.205 26.9292 199.153 27.0854 198.684 27.1375C197.695 28.3354 196.705 29.3771 195.716 30.2625H201.106V31.7469H194.075C193.033 32.6323 192.2 33.2573 191.575 33.6219H198.138ZM193.606 30.2625C194.231 29.7938 194.934 29.1688 195.716 28.3875H192.122V30.2625H193.606ZM189.544 36.9813H196.575V34.8719H189.544V36.9813ZM189.544 40.6531H196.575V38.2313H189.544V40.6531ZM216.731 36.9031C217.46 35.4969 217.903 33.3615 218.059 30.4969H215.403C215.559 33.3615 216.002 35.4969 216.731 36.9031ZM219.622 30.4969C219.518 33.7261 218.893 36.3302 217.747 38.3094C218.58 39.3511 219.752 40.2625 221.263 41.0438L220.247 42.7625C218.58 41.6688 217.408 40.6271 216.731 39.6375C215.533 40.9917 213.684 42.1636 211.184 43.1531L210.403 41.5906C213.111 40.4969 214.908 39.3771 215.794 38.2313C214.908 36.5125 214.414 34.7938 214.309 33.075C213.997 33.8563 213.684 34.4552 213.372 34.8719L212.044 33.8563C213.606 31.5646 214.544 28.7261 214.856 25.3406L216.497 25.7313C216.809 25.9396 216.731 26.0958 216.263 26.2C216.106 27.1375 215.898 28.075 215.638 29.0125H220.95V30.4969H219.622ZM212.356 26.7469C212.044 27.5281 211.679 28.1792 211.263 28.7L210.013 27.9969C210.429 27.3198 210.82 26.5386 211.184 25.6531L212.591 26.3563C212.799 26.5646 212.721 26.6948 212.356 26.7469ZM207.356 37.7625C208.085 37.9708 208.736 38.2052 209.309 38.4656C209.726 37.9969 210.065 37.2938 210.325 36.3563H208.059C207.851 36.825 207.617 37.2938 207.356 37.7625ZM206.263 39.7156L205.013 39.0125C205.533 38.2313 206.054 37.3458 206.575 36.3563H203.606V35.1063H207.044C207.356 34.4292 207.591 33.8563 207.747 33.3875L209.231 33.7781C209.44 33.9865 209.361 34.1167 208.997 34.1688L208.528 35.1063H212.981V36.3563H211.809C211.549 37.3979 211.158 38.2833 210.638 39.0125C211.106 39.2208 211.601 39.4813 212.122 39.7938L211.419 41.0438C210.846 40.6792 210.325 40.3927 209.856 40.1844C208.502 41.5386 206.679 42.3719 204.388 42.6844L203.841 41.2781C205.872 41.0698 207.434 40.4969 208.528 39.5594C207.955 39.299 207.382 39.0646 206.809 38.8563L206.263 39.7156ZM207.825 25.0281H209.075C209.492 25.0802 209.518 25.2365 209.153 25.4969V28.8563H213.138V30.1063H209.856C210.429 30.7833 211.315 31.4344 212.513 32.0594L211.653 33.3875C210.768 32.8667 209.934 32.1375 209.153 31.2V33.075H207.825V31.5906C206.992 32.6323 205.846 33.5698 204.388 34.4031L203.372 33.1531C204.986 32.3198 206.315 31.3042 207.356 30.1063H203.763V28.8563H207.825V25.0281ZM205.638 28.6219C205.273 27.8406 204.804 27.1636 204.231 26.5906L205.481 25.8094C206.106 26.4344 206.575 27.0854 206.888 27.7625L205.638 28.6219ZM232.981 30.1844C232.096 35.3927 231.028 38.6219 229.778 39.8719C229.101 40.549 228.398 40.8875 227.669 40.8875C226.835 40.8875 226.184 40.6531 225.716 40.1844C224.466 38.9344 223.841 37.3719 223.841 35.4969C223.841 33.2052 224.648 31.2521 226.263 29.6375C228.033 27.8667 230.195 26.9813 232.747 26.9813C235.039 26.9813 236.835 27.6323 238.138 28.9344C239.596 30.3927 240.325 32.1115 240.325 34.0906C240.325 36.2261 239.648 37.9708 238.294 39.325C237.408 40.2104 236.054 41.0698 234.231 41.9031L232.591 40.2625C234.414 39.6896 235.846 38.8823 236.888 37.8406C237.877 36.8511 238.372 35.6531 238.372 34.2469C238.372 32.5802 237.825 31.2 236.731 30.1063C235.638 29.0125 233.919 28.5177 231.575 28.6219L232.981 29.325C233.606 29.5854 233.606 29.8719 232.981 30.1844ZM231.184 28.7C229.83 29.0125 228.658 29.6636 227.669 30.6531C226.315 32.0073 225.638 33.674 225.638 35.6531C225.638 36.8511 226.028 37.8406 226.809 38.6219C226.966 38.7781 227.2 38.8563 227.513 38.8563C227.825 38.8563 228.164 38.674 228.528 38.3094C229.726 37.1115 230.611 33.9083 231.184 28.7ZM248.763 31.825C250.481 30.2104 251.809 27.8667 252.747 24.7938L254.309 25.2625C254.57 25.4708 254.518 25.6011 254.153 25.6531C253.736 26.6948 253.32 27.6583 252.903 28.5438H255.247C255.82 27.3458 256.263 26.2781 256.575 25.3406L258.059 25.8875C258.268 26.0958 258.19 26.2261 257.825 26.2781C257.46 27.1115 257.096 27.8667 256.731 28.5438H260.716V30.0281H256.731V32.45H259.934V33.9344H256.731V36.4344H259.934V37.9188H256.731V40.8094H261.184V42.2938H252.591V42.9969H251.028V31.6688C250.664 32.1896 250.273 32.6583 249.856 33.075L248.763 31.825ZM244.856 42.8406L244.544 41.3563H245.872C246.08 41.3563 246.184 41.2521 246.184 41.0438V36.2L244.153 36.6688C244.101 37.0333 243.971 37.1115 243.763 36.9031L243.45 35.1063L246.184 34.5594V30.4188H243.763V28.9344H246.184V24.95H247.669C248.085 25.0021 248.111 25.1583 247.747 25.4188V28.9344H249.778V30.4188H247.747V34.2469L249.778 33.7L250.013 35.1063L247.747 35.8094V41.5906C247.747 42.424 247.33 42.8406 246.497 42.8406H244.856ZM252.591 40.8094H255.169V37.9188H252.591V40.8094ZM252.591 36.4344H255.169V33.9344H252.591V36.4344ZM252.591 32.45H255.169V30.0281H252.591V32.45ZM278.841 27.1375L279.075 26.825L280.325 27.8406L280.091 28.075C278.736 30.4188 277.408 31.9813 276.106 32.7625L276.888 32.9969C277.252 33.1531 277.226 33.3094 276.809 33.4656C276.705 33.8302 276.575 34.1427 276.419 34.4031H279.778L280.013 34.0906L281.419 35.1063L281.106 35.4188C279.44 39.8458 276.054 42.3458 270.95 42.9188L270.325 41.4344C272.773 41.174 274.7 40.5229 276.106 39.4813C275.377 38.7521 274.648 38.1271 273.919 37.6063C273.242 38.1792 272.33 38.7 271.184 39.1688L270.481 37.7625C273.033 36.7208 274.7 35.1323 275.481 32.9969C274.7 33.7261 273.294 34.3511 271.263 34.8719L270.559 33.4656C272.539 33.049 274.023 32.5021 275.013 31.825C274.492 31.2 273.867 30.6531 273.138 30.1844C272.773 30.549 272.408 30.8615 272.044 31.1219L270.95 29.95C272.669 28.4917 273.763 26.9292 274.231 25.2625L275.638 25.7313C276.002 25.8875 275.976 26.0438 275.559 26.2C275.507 26.5125 275.377 26.825 275.169 27.1375H278.841ZM268.216 30.1844H270.794V31.6688H268.216V33.6219C269.257 34.0906 270.247 34.7938 271.184 35.7313L270.169 37.1375C269.335 36.3042 268.684 35.7052 268.216 35.3406V42.9188H266.653V35.1844C266.341 36.2261 265.481 37.5542 264.075 39.1688L262.903 37.6844C264.83 35.8615 266.028 33.8563 266.497 31.6688H263.45V30.1844H266.653V27.6063C265.611 27.7625 264.674 27.8927 263.841 27.9969L263.45 26.5125C265.533 26.3042 267.695 25.8875 269.934 25.2625L270.794 26.4344C271.002 26.7469 270.872 26.8511 270.403 26.7469C269.674 26.9552 268.945 27.1375 268.216 27.2938V30.1844ZM273.919 29.2469C274.7 29.6636 275.455 30.1844 276.184 30.8094C276.966 30.0802 277.617 29.2729 278.138 28.3875H274.544C274.335 28.7521 274.127 29.0386 273.919 29.2469ZM274.778 36.6688C275.507 37.0854 276.341 37.7104 277.278 38.5438C278.059 37.9708 278.736 37.0073 279.309 35.6531H275.716C275.403 36.0698 275.091 36.4083 274.778 36.6688ZM286.809 29.325C287.382 28.1271 288.346 26.9031 289.7 25.6531L290.559 26.4344C289.257 27.6323 288.346 28.7781 287.825 29.8719C287.252 31.0698 286.966 32.5021 286.966 34.1688C286.966 35.575 287.252 36.9031 287.825 38.1531C288.346 39.299 289.257 40.575 290.559 41.9813L289.7 42.8406C288.398 41.3823 287.434 40.0021 286.809 38.7C286.132 37.2938 285.794 35.7833 285.794 34.1688C285.794 32.3458 286.132 30.7313 286.809 29.325ZM297.903 41.9031H296.106V26.825H308.372V41.5906H306.575V40.4969H297.903V41.9031ZM306.575 32.7625V28.3094H297.903V32.7625H306.575ZM306.575 39.0125V34.2469H297.903V39.0125H306.575ZM321.341 35.8094H318.372C317.903 38.7781 316.497 41.1219 314.153 42.8406L313.372 41.3563C315.664 39.7417 316.914 37.3458 317.122 34.1688L317.278 31.7469H316.184V32.7625H314.622V26.0438H322.513V32.45H320.95V31.7469H318.684L318.528 34.325H322.903L322.513 40.4969C322.408 41.7469 321.888 42.3719 320.95 42.3719H318.841L318.606 40.8875H320.325C320.794 40.8875 321.054 40.6271 321.106 40.1063L321.341 35.8094ZM329.778 41.2C329.778 42.0854 329.361 42.5281 328.528 42.5281H326.809L326.497 41.0438H327.981C328.138 41.0438 328.216 40.9656 328.216 40.8094V25.8094H329.7C330.117 25.8615 330.143 26.0177 329.778 26.2781V41.2ZM326.028 27.6844C326.445 27.7365 326.471 27.8927 326.106 28.1531V38.8563H324.544V27.6844H326.028ZM320.95 30.4969V27.2938H316.184V30.4969H320.95ZM337.513 38.7C336.888 40.0021 335.924 41.3823 334.622 42.8406L333.763 41.9813C335.065 40.575 335.976 39.299 336.497 38.1531C337.07 36.9031 337.356 35.575 337.356 34.1688C337.356 32.5021 337.07 31.0698 336.497 29.8719C335.976 28.7781 335.065 27.6323 333.763 26.4344L334.622 25.6531C335.976 26.9031 336.94 28.1271 337.513 29.325C338.19 30.7313 338.528 32.3458 338.528 34.1688C338.528 35.7833 338.19 37.2938 337.513 38.7Z" fill="#757575"/>
</g>
<rect x="2" y="2" width="714" height="440" stroke="black" stroke-width="4"/>
<defs>
<clipPath id="clip0_0_1">
<rect width="718" height="444" fill="white"/>
</clipPath>
</defs>
</svg>
