<svg width="718" height="444" viewBox="0 0 718 444" fill="none" xmlns="http://www.w3.org/2000/svg">
<g id="Frame">
<g clip-path="url(#clip0_1_2019)">
<path id="Vector" d="M0 0H718V444H0V0Z" fill="white"/>
<path id="Vector_2" d="M183.5 91.5V369.5" stroke="#CCCCCC" stroke-miterlimit="10"/>
<path id="Vector_3" d="M306.5 91.5V369.5" stroke="#CCCCCC" stroke-miterlimit="10"/>
<path id="Vector_4" d="M429.5 91.5V369.5" stroke="#CCCCCC" stroke-miterlimit="10"/>
<path id="Vector_5" d="M552.5 91.5V369.5" stroke="#CCCCCC" stroke-miterlimit="10"/>
<path id="Vector_6" d="M675.5 91.5V369.5" stroke="#CCCCCC" stroke-miterlimit="10"/>
<path id="Vector_7" d="M88.5 369.5H695.5" stroke="#333333" stroke-miterlimit="10"/>
<path id="Vector_8" d="M88.5 277.5H695.5" stroke="#CCCCCC" stroke-miterlimit="10"/>
<path id="Vector_9" d="M88.5 184.5H695.5" stroke="#CCCCCC" stroke-miterlimit="10"/>
<path id="Vector_10" d="M88.5 91.5H695.5" stroke="#CCCCCC" stroke-miterlimit="10"/>
<g id="Group">
<path id="Vector_11" d="M88.2 369.8H128.83L129.45 369.61L130.06 369.8L130.68 369.43L131.29 369.8H131.91L132.52 369.71L133.14 369.8L133.75 369.71L134.37 369.8H135L135.61 369.71L136.23 369.61L136.84 369.8H138.07L138.69 369.71L139.31 369.8L139.92 369.61L140.54 369.52L141.15 369.34L141.77 369.8H150.39L151 369.71L151.62 369.52L152.23 369.8H156.54L157.16 369.71L157.77 369.8H195.32L195.94 369.71H197.17L197.79 369.8H199.63L200.25 369.71L200.87 369.8H208.87L209.48 369.71L210.1 369.8H217.49L218.1 369.71L218.72 369.8H225.49L226.11 369.61L226.72 369.8H245.19L245.8 369.71L246.42 369.8H247.65L248.27 369.71L248.88 369.8H253.81L254.42 369.61L255.04 369.8L255.65 369.61L256.27 368.32L256.89 367.39L257.5 368.22L258.12 369.43L258.73 368.13L259.35 368.69L259.96 368.97L260.58 369.24L261.19 368.97L261.81 368.22L262.43 369.52L263.04 368.78L263.66 368.32L264.27 369.15L264.89 369.34H266.12L266.73 368.97L267.35 369.06L267.97 369.71L268.58 368.78L269.2 369.06L269.81 369.34L270.43 369.61H271L271.62 369.71L272.24 369.8L272.85 369.71L273.47 369.8H274.08L274.7 369.52L275.31 369.8L275.93 369.71H276.54L277.16 369.8H279.62L280.24 369.71L280.85 369.8L281.47 369.61H282.7L283.32 369.8H284L284.62 369.06L285.23 369.43L285.85 369.06H286.46L287.08 369.24L287.7 369.52L288.31 369.24L288.93 368.59L289.54 369.59L290.16 368.95L290.77 369.41L291.39 369.22L292 369.13L292.62 369.59H293.24L293.85 369.13L294.47 369.69L295.08 369.13L295.7 369.78H296.93L297.54 369.69L298.16 369.32L298.78 369.13L299.39 369.41L300.01 369.13L300.62 369.04L301.24 369.22L301.85 368.85L302.47 368.39L303.09 369.22L303.7 367.65L304.32 368.85L304.93 369.41L305.55 368.85H306.16L306.78 369.13L307.39 368.48L308.01 369.04L308.63 368.95L309.24 369.32L309.86 369.59L310.47 369.22L311.09 369.59L311.7 368.59L312.32 367.48L312.94 368.41L313.55 368.59L314.17 369.06L314.78 369.71L315.4 368.71L316.01 369.45L316.63 369.26L317.24 369.63L317.86 368.99L318.48 369.82L319.09 369.45L319.71 368.89L320.32 369.45H320.94L321.55 369.54L322.17 368.99L322.78 369.26L323.4 369.82L324.02 369.17L324.63 369.26H325.25L325.86 369.63H326.48L327.09 369.45L327.71 369.82L328.33 369.26L328.94 366.11L329.56 369.45L330.17 369.82L330.79 369.17L331.4 369.45L332.02 369.73L332.63 369.45L333.25 369.63L333.87 369.82H336.33L336.94 369.73L337.56 369.82L338.17 369.73L338.79 369.63L339.41 369.82H340.64L341.25 369.73L341.87 369.82L342.48 369.73L343.1 369.63L343.72 369.82H344.95L345.56 369.63L346.18 369.26L346.79 369.08H348L348.62 369.17L349.24 369.45L349.85 368.52L350.47 369.45H351.08L351.7 369.36H352.31L352.93 369.73L353.54 369.82L354.16 369.26L354.78 369.17L355.39 368.71L356.01 369.08L356.62 369.54L357.24 368.71L357.85 369.82L358.47 369.26L359.09 362.31L359.7 369.08L360.32 368.08L360.93 368.73L361.55 368.91L362.16 369.28L362.78 367.8L363.39 368.8L364.01 368.71L364.63 368.61L365.24 368.43L365.86 369.43L366.47 368.5L367.09 368.04H367.7L368.32 365.63L368.93 368.63L369.55 367.43L370.17 369.28L370.78 368.45L371.4 368.36L372.01 366.13L372.63 366.87L373.24 367.34H373.86L374.48 367.98L375.09 369.19L375.71 368.54L376.32 367.24L376.94 367.8L377.55 367.71L378.17 367.8H378.78L379.4 368.73L380.02 369.1L380.63 367.71L381.25 366.31L381.86 367.61L382.48 365.85L383.09 368.63L383.71 366.87L384.32 367.52L384.94 366.59L385.56 367.8L386.17 366.96L386.79 368.36L387.4 368.91L388.02 367.15L388.63 367.24L389.25 367.61L389.87 363.72L390.48 367.15L391.1 368.08L391.71 368.82L392.33 367.98L392.94 366.69L393.56 365.11L394.17 367.98L394.79 366.87L395.41 367.52L396.02 369.75L396.64 368.82L397.25 368.36L397.87 368.45L398.48 368.91L399.1 368.63L399.72 369.01L400.33 369.65L400.95 369.01L401.56 368.91L402.18 369.47L402.79 369.65H403.41L404.02 369.56L404.64 369.75L405.26 369.84L405.87 369.56L406.49 369.75L407.1 369.84H407.72L408.33 369.75L408.95 369.84H410.18L410.8 369.65L411.41 369.1L412.03 369.65L412.64 368.82L413.26 369.75L413.87 369.65L414.49 368.82L415.11 368.91L415.72 369.65L416.34 369.01L416.95 369.19L417.57 369.65L418.18 369.75L418.8 369.38H419.41L420.03 369.19L420.65 369.84H421.26L421.88 369.75L422.49 369.65L423.11 369.19L423.72 369.28L424.34 369.19L424.95 369.56L425.57 369.1L426.19 369.19L426.8 369.84L427.42 367.98L428.03 369.56L428.65 369.47L429.26 369.65L429.88 369.84L430.5 369.1L431.11 369.56L431.73 369.01L432.34 369.1L432.96 367.52L433.57 368.45L434.19 367.8L434.8 368.54L435.42 368.63L436.04 367.43L436.65 368.36L437.27 367.43L437.88 367.34L438.5 367.06L439.11 367.8L439.73 368.8L440.34 367.41L440.96 362.68L441.58 365.92L442.19 365.65L442.81 364.65L443.42 368.82L444.04 368.36L444.65 361.36L445.27 364.42L445.89 362.47L446.5 362.94L447.12 362.1L447.73 364.1L448.35 367.44L448.96 362.25L449.58 360.11L450.19 356.87L450.81 360.21L451.43 360.48L452.04 363.54L452.66 364.75L453.27 361.97L453.89 357.42L454.5 360.48L455.12 363.82L455.73 362.99L456.35 364.57L456.97 367.9L457.58 364.19L458.2 363.08L458.81 362.9L459.43 365.68H460L460.62 366.14L461.24 367.26L461.85 365.59L462.47 363.27L463.08 366.79L463.7 366.23L464.31 361.78L464.93 368.28L465.54 367.9L466.16 368.09L466.78 367.81L467.39 363.64L468.01 369.02L468.62 366.61L469.24 369.02L469.85 369.11L470.47 367.53L471.08 367.35L471.7 368L472.32 367.9L472.93 368.65L473.55 369.3L474.16 369.67L474.78 369.02L475.39 368.74H476L476.62 369.74L477.23 369.28L477.85 367.61L478.46 369.55L479.08 367.55L479.69 367.37L480.31 368.2L481 368L481.62 368.83L482.24 369.67L482.85 369.76L483.47 369.48H484L484.62 369.39L485.23 369.57L485.85 369.48H486.47L487.08 369.76L487.7 369.67L488.31 369.11L488.93 369.76H490.77L491.39 369.67L492.01 369.57L492.62 369.76H496.31L496.93 369.67L497.55 369.76H498.16L498.78 369.67L499.39 369.76H514.78L515.4 369.48L516.01 369.76H529.56L530.17 369.57H530.79L531.4 369.11L532.02 369.39L532.64 369.3L533.25 369.02L533.87 368.83L534.48 368L535.1 367.9L535.71 364.47L536.33 361.32L536.94 359.37L537.56 356.49L538.18 359.83L538.79 362.06L539.41 357.06L540.02 349.18L540.64 344.63L541.25 346.39L541.87 352.7L542.48 355.02L543.1 362.81L543.72 346.81L544.33 341.99L544.95 337.35L545.56 341.71L546.18 344.77L546.79 339.39L547.41 359.62L548.03 331.32L548.64 329.37L549.26 330.21L549.87 327.33L550.49 328.45L551.1 345.05L551.72 357.76L552.33 316.02L552.95 323.34L553.57 328.91L554.18 312.58L554.8 354.51L555.41 343.94L556.03 361.66L556.64 318.71L557.26 324.36L557.87 322.69L558.49 334.1L559.11 326.22L559.72 348.39L560.34 358.13L561 313L561.62 317.91L562.23 349.27L562.85 326.63L563.47 325.89L564.08 343.33L564.7 349.18L565.31 310.86H565.93L566.54 325.61L567.16 324.61L567.77 320.25L568.39 339.92L569.01 352.63L569.62 305.87L570.24 313.48L570.85 318.95L571.47 322.76L572.08 323.13L572.7 340.01L573.32 345.3L573.93 312L574.55 318.12L575.16 314.12L575.78 321.12L576.39 320.75L577 341L577.61 340.72L578.23 354.36L578.85 320.78L579.46 302.78L580.08 326.99L580.69 315.21L581.31 329.68L581.92 353.89L582.54 321.61L583.15 309.83L583.77 315.21L584.39 328.85L585 331.91L585.62 344.15L586.23 359.65L586.85 318.92L587.46 313.63L588.08 312.98L588.7 322.91L589.31 324.02L589.93 346.1L590.54 352.78L591.16 320.5L591.77 324.67L592.39 336.92L593 333.3L593.62 327.3L594.24 352.07L594.85 360.42L595.47 323.42L596.08 325.37L596.7 334.09L597.31 331.03L597.93 335.3L598.54 345.69L599.16 353.11L599.78 324.63L600.39 323.63L601.01 327.34L601.62 333.28L602.24 353.41L602.85 352.29L603.47 358.88L604.09 335.13L604.7 352.94L605.32 355.94L605.93 357.89L606.55 320.89L607.16 331.74L607.78 357.16L608.39 324.69L609 321L609.62 338L610.23 334.75L610.85 338.46L611.46 344.77L612.08 361.19L612.69 330.58L613.31 334.48L613.92 337.17L614.54 324.74L615.16 341.06L615.77 350.43L616.39 360.08L617 337.8L617.62 342.43L618.23 341.69L618.85 347.44L619.47 343.27L620.08 357.18L620.7 363.12L621.31 347.44L621.93 347.54L622.54 346.79L623.16 350.04L623.77 349.58L624.39 360.06L625.01 365.25L625.62 343.55L626.24 347.72L626.85 349.95L627.47 350.6L628.08 355.6L628.7 360.98L629.31 362.65L629.93 347.71L630.55 344.19L631.16 352.44L631.78 347.25L632.39 347.71L633 354L633.61 362.53L634.23 345.74L634.85 344.74L635.46 344.46L636.08 342.61L636.69 351.61L637.31 356.99L637.92 362.74L638.54 341.31L639.15 340.31L639.77 343.46L640.39 346.15L641 344.3L641.62 348.2L642.23 350.14L642.85 341.52L643.46 333.63L644.08 328.06L644.69 332.24L645.31 323.52L645.93 331.03L646.54 329.09L647.16 304.97L647.77 304.87L648.39 285.21L649 284.46L649.62 279.46L650.24 293.74L650.85 297.54L651.47 305.24L652.08 236.69L652.7 223.52L653.31 219.52L653.93 222.76L654.54 248.46L655.16 283.16L655.78 229.82H656.39L657.01 224.06L657.62 233.15L658.24 228.7L658.85 261.63L659.47 287.98L660.09 223.6L660.7 245.31L661.32 235.38L661.93 231.21L662.55 226.75L663.16 254.03L663.78 269.33L664.39 273.79L665 178.7L665.62 211.17L666.23 239.93L666.85 235.01L667.46 229.82L668.08 294.2L668.69 255.51L669.31 189.18L669.92 180.28L670.54 149.76L671.16 152.54L671.77 197.54L672.39 249.4L673 282.33L673.62 181.4L674.23 109.97L674.85 153.97L675.47 166.03L676.08 201.65L676.7 248.13L677.31 252.49L677.93 189.32L678.54 180.97L679.16 219.37L679.77 235.88L680.39 242.38L681.01 283.29L681.62 303.05L682.24 219.19L682.85 257.78L683.47 275.13L684.08 286.35L684.7 296.18L685.31 323.09L685.93 326.24L686.55 292.19L687.16 315.01L687.78 317.8L688.39 320.58L689.01 325.96L689.62 341.73L690.24 349.25L690.86 335.25L691.47 316.05L692.09 330.8L692.7 335.16L693.32 347.96L693.93 338.12L694.55 340.44L695.16 337.94L695.78 341.74" stroke="#4285F4" stroke-width="2" stroke-miterlimit="10"/>
</g>
<path id="Vector_12" d="M379.92 418.8V410.21H382.92C383.433 410.196 383.946 410.237 384.45 410.33C384.909 410.433 385.337 410.642 385.7 410.94C386.157 411.337 386.502 411.848 386.7 412.42C386.933 413.061 387.048 413.738 387.04 414.42C387.048 415.005 386.971 415.588 386.81 416.15C386.688 416.596 386.492 417.019 386.23 417.4C386.013 417.706 385.742 417.971 385.43 418.18C385.124 418.383 384.786 418.531 384.43 418.62C383.977 418.717 383.514 418.764 383.05 418.76L379.92 418.8ZM381.06 417.8H382.89C383.342 417.815 383.793 417.764 384.23 417.65C384.521 417.563 384.786 417.405 385 417.19C385.295 416.893 385.509 416.524 385.62 416.12C385.792 415.584 385.873 415.023 385.86 414.46C385.902 413.745 385.747 413.032 385.41 412.4C385.172 411.959 384.797 411.607 384.34 411.4C383.865 411.267 383.373 411.21 382.88 411.23H381.06V417.8ZM392.86 418.05C392.523 418.349 392.137 418.589 391.72 418.76C391.348 418.894 390.955 418.962 390.56 418.96C389.989 418.995 389.426 418.817 388.98 418.46C388.803 418.298 388.663 418.1 388.57 417.879C388.476 417.658 388.432 417.42 388.44 417.18C388.438 416.891 388.507 416.606 388.64 416.35C388.768 416.103 388.958 415.893 389.19 415.74C389.422 415.585 389.679 415.47 389.95 415.4C390.258 415.318 390.573 415.261 390.89 415.23C391.527 415.171 392.156 415.05 392.77 414.87V414.6C392.788 414.434 392.77 414.266 392.719 414.108C392.667 413.949 392.582 413.803 392.47 413.68C392.123 413.428 391.698 413.308 391.27 413.34C390.885 413.309 390.5 413.4 390.17 413.6C389.894 413.833 389.707 414.155 389.64 414.51L388.64 414.37C388.71 413.981 388.871 413.615 389.11 413.3C389.361 413.011 389.686 412.797 390.05 412.68C390.5 412.524 390.974 412.449 391.45 412.46C391.891 412.444 392.332 412.508 392.75 412.65C393.032 412.737 393.284 412.9 393.48 413.12C393.653 413.326 393.766 413.575 393.81 413.84C393.852 414.172 393.869 414.506 393.86 414.84V416.25C393.846 416.871 393.866 417.492 393.92 418.11C393.974 418.373 394.069 418.626 394.2 418.86H393.09C392.961 418.59 392.883 418.298 392.86 418V418.05ZM392.77 415.69C392.215 415.893 391.637 416.031 391.05 416.1C390.732 416.133 390.419 416.207 390.12 416.32C389.953 416.39 389.808 416.504 389.7 416.65C389.583 416.839 389.537 417.063 389.57 417.283C389.603 417.503 389.713 417.704 389.88 417.85C390.145 418.055 390.476 418.154 390.81 418.13C391.186 418.137 391.558 418.047 391.89 417.87C392.197 417.706 392.443 417.446 392.59 417.13C392.721 416.813 392.782 416.472 392.77 416.13V415.69ZM398.09 417.88L398.25 418.8C397.988 418.864 397.72 418.897 397.45 418.9C397.144 418.912 396.84 418.854 396.56 418.73C396.363 418.617 396.206 418.445 396.11 418.24C396.009 417.835 395.972 417.417 396 417V413.42H395.24V412.61H396V411L397 410.38V412.55H398.06V413.36H397V417C396.99 417.195 397.006 417.39 397.05 417.58C397.091 417.668 397.157 417.741 397.24 417.79C397.348 417.844 397.469 417.868 397.59 417.86L398.09 417.88ZM403.09 416.82L404.18 416.94C404.045 417.532 403.71 418.058 403.23 418.43C402.625 418.833 401.902 419.022 401.176 418.966C400.451 418.91 399.766 418.612 399.23 418.12C398.671 417.466 398.387 416.619 398.44 415.76C398.384 414.879 398.675 414.01 399.25 413.34C399.514 413.051 399.838 412.823 400.199 412.671C400.559 412.519 400.949 412.447 401.34 412.46C401.714 412.452 402.085 412.523 402.429 412.668C402.774 412.812 403.084 413.028 403.34 413.3C403.903 413.964 404.186 414.821 404.13 415.69V416H399.49C399.492 416.575 399.698 417.131 400.07 417.57C400.236 417.747 400.438 417.886 400.662 417.979C400.886 418.072 401.127 418.117 401.37 418.11C401.727 418.124 402.079 418.018 402.37 417.81C402.696 417.552 402.934 417.199 403.05 416.8L403.09 416.82ZM399.63 415.12H403.1C403.096 414.693 402.96 414.277 402.71 413.93C402.553 413.734 402.353 413.578 402.126 413.472C401.899 413.366 401.651 413.314 401.4 413.32C400.939 413.31 400.493 413.482 400.16 413.8C399.817 414.149 399.615 414.612 399.59 415.1L399.63 415.12Z" fill="black"/>
<path id="Vector_13" d="M33.2 256.67L24.61 253.37V252.15L33.2 248.63V249.92L30.59 250.92V254.5L33.2 255.5V256.67ZM29.67 254.18V251.27L27.29 252.17C26.7088 252.404 26.1144 252.605 25.51 252.77C26.0658 252.893 26.6135 253.05 27.15 253.24L29.67 254.18ZM30.09 249.24C29.6157 249.275 29.1397 249.203 28.6968 249.03C28.2538 248.857 27.8552 248.587 27.53 248.24C27.0656 247.698 26.8196 247.003 26.84 246.29C26.8263 245.901 26.8939 245.513 27.0385 245.151C27.1831 244.79 27.4016 244.462 27.68 244.19C27.9922 243.905 28.3584 243.686 28.7569 243.545C29.1554 243.404 29.5781 243.345 30 243.37C30.6484 243.342 31.2948 243.461 31.89 243.72C32.3674 243.969 32.7554 244.36 33 244.84C33.2483 245.301 33.3757 245.817 33.37 246.34C33.384 246.73 33.3175 247.118 33.1747 247.481C33.0319 247.844 32.8158 248.174 32.54 248.45C31.859 249.025 30.9788 249.309 30.09 249.24V249.24ZM30.09 248.17C30.7265 248.216 31.3582 248.031 31.87 247.65C32.0585 247.487 32.2097 247.285 32.3133 247.058C32.4169 246.831 32.4705 246.584 32.4705 246.335C32.4705 246.086 32.4169 245.839 32.3133 245.612C32.2097 245.385 32.0585 245.183 31.87 245.02C31.3465 244.64 30.7048 244.459 30.06 244.51C29.4315 244.467 28.8091 244.656 28.31 245.04C28.1195 245.198 27.9673 245.397 27.8651 245.622C27.7629 245.847 27.7132 246.093 27.72 246.34C27.7139 246.589 27.7638 246.835 27.8659 247.062C27.968 247.289 28.1198 247.49 28.31 247.65C28.8205 248.034 29.4532 248.219 30.09 248.17V248.17ZM33.2 241.85H27V240.92H27.88C27.5679 240.727 27.3126 240.454 27.14 240.13C26.9471 239.792 26.8503 239.409 26.86 239.02C26.8412 238.627 26.9386 238.238 27.14 237.9C27.3237 237.602 27.6072 237.379 27.94 237.27C27.6111 237.069 27.3392 236.787 27.1502 236.451C26.9612 236.114 26.8613 235.736 26.86 235.35C26.8411 235.09 26.8777 234.829 26.9674 234.584C27.057 234.339 27.1977 234.116 27.38 233.93C27.8167 233.562 28.3811 233.383 28.95 233.43H33.2V234.43H29.28C28.9725 234.411 28.6642 234.449 28.37 234.54C28.1805 234.6 28.0201 234.728 27.92 234.9C27.7983 235.091 27.7389 235.314 27.75 235.54C27.7443 235.741 27.7794 235.942 27.8533 236.129C27.9272 236.316 28.0384 236.487 28.18 236.63C28.5796 236.944 29.0837 237.094 29.59 237.05H33.2V238.12H29.15C28.7975 238.098 28.4472 238.189 28.15 238.38C28.025 238.477 27.9265 238.604 27.8636 238.749C27.8006 238.894 27.7753 239.053 27.79 239.21C27.7845 239.503 27.8644 239.792 28.02 240.04C28.183 240.292 28.426 240.482 28.71 240.58C29.1288 240.718 29.5693 240.779 30.01 240.76H33.2V241.85ZM30.09 231.24C29.6157 231.275 29.1397 231.203 28.6968 231.03C28.2538 230.857 27.8552 230.587 27.53 230.24C27.0656 229.698 26.8196 229.003 26.84 228.29C26.8263 227.901 26.8939 227.513 27.0385 227.151C27.1831 226.79 27.4016 226.462 27.68 226.19C27.9922 225.905 28.3584 225.686 28.7569 225.545C29.1554 225.404 29.5781 225.345 30 225.37C30.6484 225.342 31.2948 225.461 31.89 225.72C32.3674 225.969 32.7554 226.36 33 226.84C33.2483 227.301 33.3757 227.817 33.37 228.34C33.384 228.73 33.3175 229.118 33.1747 229.481C33.0319 229.844 32.8158 230.174 32.54 230.45C31.859 231.025 30.9788 231.309 30.09 231.24V231.24ZM30.09 230.17C30.7265 230.216 31.3582 230.031 31.87 229.65C32.0585 229.487 32.2097 229.285 32.3133 229.058C32.4169 228.831 32.4705 228.584 32.4705 228.335C32.4705 228.086 32.4169 227.839 32.3133 227.612C32.2097 227.385 32.0585 227.183 31.87 227.02C31.3465 226.64 30.7048 226.459 30.06 226.51C29.4315 226.467 28.8091 226.656 28.31 227.04C28.1195 227.198 27.9673 227.397 27.8651 227.622C27.7629 227.847 27.7132 228.093 27.72 228.34C27.7139 228.589 27.7638 228.835 27.8659 229.062C27.968 229.289 28.1198 229.49 28.31 229.65C28.8205 230.034 29.4532 230.219 30.09 230.17V230.17ZM33.2 223.87H27V222.87H27.94C27.6075 222.717 27.3135 222.492 27.08 222.21C26.9349 222.009 26.8578 221.768 26.86 221.52C26.8698 221.137 26.9839 220.763 27.19 220.44L28.19 220.8C28.047 221.032 27.9676 221.298 27.96 221.57C27.9567 221.802 28.0345 222.029 28.18 222.21C28.3235 222.398 28.529 222.529 28.76 222.58C29.1497 222.711 29.5588 222.775 29.97 222.77H33.2V223.87ZM25.82 219.87H24.61V218.81H25.82V219.87ZM33.2 219.87H27V218.81H33.2V219.87Z" fill="black"/>
<path id="Vector_14" d="M75.7 369.57C75.6722 368.739 75.7768 367.908 76.01 367.11C76.1796 366.555 76.4977 366.057 76.93 365.67C77.3803 365.328 77.9348 365.151 78.5 365.17C78.9184 365.161 79.3318 365.261 79.7 365.46C80.0594 365.644 80.3606 365.925 80.57 366.27C80.8201 366.656 81.0027 367.082 81.11 367.53C81.2434 368.188 81.3037 368.859 81.29 369.53C81.3282 370.364 81.2302 371.198 81 372C80.8394 372.559 80.5198 373.059 80.08 373.44C79.5493 373.823 78.8953 373.995 78.2449 373.923C77.5945 373.851 76.9941 373.54 76.56 373.05C75.9045 372.014 75.6028 370.792 75.7 369.57V369.57ZM76.78 369.57C76.6856 370.535 76.8585 371.507 77.28 372.38C77.4039 372.594 77.5818 372.771 77.796 372.895C78.0101 373.018 78.2529 373.083 78.5 373.083C78.7471 373.083 78.9899 373.018 79.2041 372.895C79.4182 372.771 79.5961 372.594 79.72 372.38C80.387 370.563 80.387 368.567 79.72 366.75C79.5903 366.537 79.4082 366.361 79.1911 366.239C78.9741 366.116 78.7293 366.051 78.48 366.05C78.2511 366.047 78.025 366.101 77.8223 366.207C77.6197 366.314 77.447 366.47 77.32 366.66C76.8775 367.562 76.6907 368.569 76.78 369.57V369.57Z" fill="black"/>
<path id="Vector_15" d="M58.67 281H57.62V274.28C57.3112 274.558 56.9764 274.806 56.62 275.02C56.2723 275.234 55.9037 275.411 55.52 275.55V274.55C56.0764 274.294 56.5919 273.957 57.05 273.55C57.4539 273.234 57.7934 272.844 58.05 272.4H58.72L58.67 281ZM61.67 276.77C61.642 275.942 61.7467 275.115 61.98 274.32C62.1442 273.763 62.4632 273.263 62.9 272.88C63.2989 272.597 63.767 272.427 64.2546 272.388C64.7423 272.349 65.2314 272.443 65.67 272.66C66.0251 272.85 66.3249 273.129 66.54 273.47C66.7883 273.861 66.9707 274.29 67.08 274.74C67.2144 275.398 67.2748 276.069 67.26 276.74C67.2865 277.565 67.1819 278.388 66.95 279.18C66.7876 279.735 66.4681 280.232 66.03 280.61C65.4993 280.993 64.8453 281.165 64.1949 281.093C63.5445 281.021 62.944 280.71 62.51 280.22C61.8846 279.195 61.6009 277.997 61.7 276.8L61.67 276.77ZM62.75 276.77C62.6545 277.735 62.8275 278.707 63.25 279.58C63.3739 279.794 63.5518 279.971 63.7659 280.095C63.9801 280.218 64.2229 280.283 64.47 280.283C64.7171 280.283 64.9599 280.218 65.174 280.095C65.3882 279.971 65.5661 279.794 65.69 279.58C66.1076 278.706 66.2804 277.735 66.19 276.77C66.2839 275.805 66.111 274.833 65.69 273.96C65.5607 273.746 65.379 273.568 65.1621 273.444C64.9451 273.32 64.7 273.253 64.45 273.25C64.2226 273.247 63.9982 273.302 63.7973 273.408C63.5964 273.515 63.4254 273.67 63.3 273.86C62.8528 274.771 62.6725 275.791 62.78 276.8L62.75 276.77ZM68.67 276.77C68.642 275.942 68.7467 275.115 68.98 274.32C69.1442 273.763 69.4632 273.263 69.9 272.88C70.2989 272.597 70.767 272.427 71.2546 272.388C71.7423 272.349 72.2314 272.443 72.67 272.66C73.0251 272.85 73.3249 273.129 73.54 273.47C73.7883 273.861 73.9707 274.29 74.08 274.74C74.2144 275.398 74.2748 276.069 74.26 276.74C74.2865 277.565 74.1819 278.388 73.95 279.18C73.7876 279.735 73.4681 280.232 73.03 280.61C72.4993 280.993 71.8453 281.165 71.1949 281.093C70.5445 281.021 69.944 280.71 69.51 280.22C68.8846 279.195 68.6009 277.997 68.7 276.8L68.67 276.77ZM69.75 276.77C69.6545 277.735 69.8275 278.707 70.25 279.58C70.3739 279.794 70.5518 279.971 70.7659 280.095C70.9801 280.218 71.2229 280.283 71.47 280.283C71.7171 280.283 71.9599 280.218 72.174 280.095C72.3882 279.971 72.5661 279.794 72.69 279.58C73.1076 278.706 73.2804 277.735 73.19 276.77C73.2839 275.805 73.111 274.833 72.69 273.96C72.5607 273.746 72.379 273.568 72.1621 273.444C71.9451 273.32 71.7 273.253 71.45 273.25C71.2214 273.248 70.9959 273.303 70.7936 273.41C70.5912 273.516 70.4183 273.671 70.29 273.86C69.8523 274.774 69.6758 275.792 69.78 276.8L69.75 276.77ZM75.67 276.77C75.642 275.942 75.7467 275.115 75.98 274.32C76.1442 273.763 76.4632 273.263 76.9 272.88C77.2989 272.597 77.767 272.427 78.2546 272.388C78.7423 272.349 79.2314 272.443 79.67 272.66C80.0251 272.85 80.3249 273.129 80.54 273.47C80.7883 273.861 80.9707 274.29 81.08 274.74C81.2144 275.398 81.2748 276.069 81.26 276.74C81.2865 277.565 81.1819 278.388 80.95 279.18C80.7876 279.735 80.4681 280.232 80.03 280.61C79.4993 280.993 78.8453 281.165 78.1949 281.093C77.5445 281.021 76.944 280.71 76.51 280.22C75.8846 279.195 75.6009 277.997 75.7 276.8L75.67 276.77ZM76.75 276.77C76.6545 277.735 76.8275 278.707 77.25 279.58C77.3739 279.794 77.5518 279.971 77.7659 280.095C77.9801 280.218 78.2229 280.283 78.47 280.283C78.7171 280.283 78.9599 280.218 79.174 280.095C79.3882 279.971 79.5661 279.794 79.69 279.58C80.1076 278.706 80.2804 277.735 80.19 276.77C80.2839 275.805 80.111 274.833 79.69 273.96C79.5607 273.746 79.379 273.568 79.1621 273.444C78.9451 273.32 78.7 273.253 78.45 273.25C78.2214 273.248 77.9959 273.303 77.7936 273.41C77.5912 273.516 77.4183 273.671 77.29 273.86C76.8523 274.774 76.6758 275.792 76.78 276.8L76.75 276.77Z" fill="black"/>
<path id="Vector_16" d="M60.25 187.25V188.25H54.56C54.56 187.998 54.6005 187.749 54.68 187.51C54.8499 187.097 55.0827 186.712 55.37 186.37C55.7967 185.899 56.2616 185.464 56.76 185.07C57.4573 184.537 58.0914 183.927 58.65 183.25C58.9521 182.893 59.1279 182.447 59.15 181.98C59.1441 181.795 59.1012 181.613 59.0239 181.445C58.9466 181.276 58.8365 181.125 58.7 181C58.5433 180.854 58.3592 180.741 58.1583 180.667C57.9574 180.593 57.7438 180.56 57.53 180.57C57.3068 180.558 57.0835 180.592 56.8738 180.67C56.6641 180.747 56.4723 180.866 56.31 181.02C56.1517 181.19 56.0286 181.39 55.948 181.608C55.8673 181.826 55.8306 182.058 55.84 182.29L54.76 182.18C54.7837 181.478 55.0817 180.814 55.59 180.33C56.1547 179.877 56.8672 179.649 57.59 179.69C57.9444 179.671 58.2991 179.722 58.6337 179.841C58.9683 179.959 59.2763 180.142 59.54 180.38C59.7724 180.597 59.9566 180.861 60.0806 181.154C60.2047 181.446 60.2658 181.762 60.26 182.08C60.2573 182.425 60.1824 182.766 60.04 183.08C59.8622 183.449 59.6258 183.787 59.34 184.08C58.8401 184.618 58.302 185.119 57.73 185.58C57.3013 185.925 56.8907 186.292 56.5 186.68C56.3322 186.849 56.1845 187.037 56.06 187.24L60.25 187.25ZM61.7 184C61.6721 183.172 61.7767 182.345 62.01 181.55C62.1742 180.993 62.4932 180.493 62.93 180.11C63.3803 179.768 63.9347 179.591 64.5 179.61C64.917 179.603 65.3292 179.699 65.7 179.89C66.0578 180.081 66.3581 180.364 66.57 180.71C66.8201 181.096 67.0027 181.522 67.11 181.97C67.2437 182.628 67.304 183.299 67.29 183.97C67.3174 184.795 67.2127 185.618 66.98 186.41C66.8194 186.969 66.4998 187.469 66.06 187.85C65.5293 188.233 64.8753 188.405 64.2249 188.333C63.5745 188.261 62.9741 187.95 62.54 187.46C61.8964 186.427 61.6019 185.214 61.7 184V184ZM62.78 184C62.6834 184.965 62.8565 185.938 63.28 186.81C63.4018 187.026 63.579 187.207 63.7934 187.332C64.0078 187.457 64.2517 187.523 64.5 187.523C64.7483 187.523 64.9922 187.457 65.2066 187.332C65.421 187.207 65.5982 187.026 65.72 186.81C66.3863 184.996 66.3863 183.004 65.72 181.19C65.5903 180.977 65.4082 180.801 65.1911 180.679C64.9741 180.556 64.7293 180.491 64.48 180.49C64.2523 180.486 64.0272 180.539 63.8259 180.646C63.6247 180.753 63.454 180.909 63.33 181.1C62.8789 181.996 62.6883 183.001 62.78 184V184ZM68.7 184C68.6721 183.172 68.7767 182.345 69.01 181.55C69.1742 180.993 69.4932 180.493 69.93 180.11C70.3803 179.768 70.9347 179.591 71.5 179.61C71.917 179.603 72.3292 179.699 72.7 179.89C73.0578 180.081 73.3581 180.364 73.57 180.71C73.8201 181.096 74.0027 181.522 74.11 181.97C74.2437 182.628 74.304 183.299 74.29 183.97C74.3174 184.795 74.2127 185.618 73.98 186.41C73.8194 186.969 73.4998 187.469 73.06 187.85C72.5293 188.233 71.8753 188.405 71.2249 188.333C70.5745 188.261 69.9741 187.95 69.54 187.46C68.8964 186.427 68.6019 185.214 68.7 184V184ZM69.78 184C69.6834 184.965 69.8565 185.938 70.28 186.81C70.4018 187.026 70.579 187.207 70.7934 187.332C71.0078 187.457 71.2517 187.523 71.5 187.523C71.7483 187.523 71.9922 187.457 72.2066 187.332C72.421 187.207 72.5982 187.026 72.72 186.81C73.3863 184.996 73.3863 183.004 72.72 181.19C72.5903 180.977 72.4082 180.801 72.1911 180.679C71.9741 180.556 71.7293 180.491 71.48 180.49C71.2511 180.487 71.025 180.541 70.8223 180.647C70.6197 180.754 70.447 180.909 70.32 181.1C69.8783 181.999 69.6915 183.002 69.78 184ZM75.7 184C75.6721 183.172 75.7767 182.345 76.01 181.55C76.1742 180.993 76.4932 180.493 76.93 180.11C77.3803 179.768 77.9347 179.591 78.5 179.61C78.917 179.603 79.3292 179.699 79.7 179.89C80.0578 180.081 80.3581 180.364 80.57 180.71C80.8201 181.096 81.0027 181.522 81.11 181.97C81.2437 182.628 81.304 183.299 81.29 183.97C81.3174 184.795 81.2127 185.618 80.98 186.41C80.8194 186.969 80.4998 187.469 80.06 187.85C79.5293 188.233 78.8753 188.405 78.2249 188.333C77.5745 188.261 76.9741 187.95 76.54 187.46C75.8964 186.427 75.6019 185.214 75.7 184ZM76.78 184C76.6834 184.965 76.8565 185.938 77.28 186.81C77.4018 187.026 77.579 187.207 77.7934 187.332C78.0078 187.457 78.2517 187.523 78.5 187.523C78.7483 187.523 78.9922 187.457 79.2066 187.332C79.421 187.207 79.5982 187.026 79.72 186.81C80.3863 184.996 80.3863 183.004 79.72 181.19C79.5903 180.977 79.4082 180.801 79.1911 180.679C78.9741 180.556 78.7293 180.491 78.48 180.49C78.2511 180.487 78.025 180.541 77.8223 180.647C77.6197 180.754 77.447 180.909 77.32 181.1C76.8783 181.999 76.6915 183.002 76.78 184Z" fill="black"/>
<path id="Vector_17" d="M54.7 93.23L55.76 93.09C55.8234 93.5762 56.0366 94.0306 56.37 94.39C56.6612 94.6496 57.04 94.7889 57.43 94.78C57.6653 94.7858 57.8992 94.7436 58.1176 94.6559C58.336 94.5682 58.5341 94.4369 58.7 94.27C58.866 94.1029 58.9973 93.9047 59.0866 93.6868C59.1758 93.4689 59.2211 93.2355 59.22 93C59.2244 92.7801 59.1831 92.5617 59.0988 92.3586C59.0144 92.1555 58.8889 91.9721 58.73 91.82C58.5764 91.6576 58.3899 91.5299 58.1829 91.4454C57.976 91.3609 57.7534 91.3215 57.53 91.33C57.2751 91.3374 57.0226 91.3812 56.78 91.46L56.9 90.52H57.08C57.5055 90.5224 57.9225 90.4008 58.28 90.17C58.4594 90.0526 58.6046 89.8901 58.7012 89.6987C58.7977 89.5074 58.8422 89.294 58.83 89.08C58.8387 88.8944 58.8074 88.7091 58.7384 88.5366C58.6694 88.3641 58.5643 88.2084 58.43 88.08C58.2985 87.9506 58.142 87.8492 57.9701 87.7822C57.7982 87.7151 57.6144 87.6838 57.43 87.69C57.0591 87.6873 56.7012 87.8269 56.43 88.08C56.1351 88.3998 55.9526 88.8071 55.91 89.24L54.85 89.05C54.9374 88.4235 55.246 87.8489 55.72 87.43C56.1969 87.0276 56.8065 86.8173 57.43 86.84C57.8792 86.8331 58.3229 86.9398 58.72 87.15C59.0942 87.328 59.4098 87.609 59.63 87.96C59.8363 88.2932 59.9438 88.6781 59.94 89.07C59.9447 89.4433 59.8352 89.8091 59.626 90.1183C59.4169 90.4275 59.1182 90.6654 58.77 90.8C59.2357 90.8995 59.6505 91.1619 59.94 91.54C60.2367 91.9661 60.3748 92.4827 60.33 93C60.3339 93.3588 60.2619 93.7145 60.1189 94.0436C59.9759 94.3727 59.765 94.668 59.5 94.91C59.2241 95.1709 58.8989 95.3743 58.5435 95.5082C58.1881 95.6422 57.8096 95.7039 57.43 95.69C56.7413 95.7079 56.072 95.461 55.56 95C55.0542 94.5442 54.7458 93.9093 54.7 93.23V93.23ZM61.7 91.23C61.6732 90.4126 61.7744 89.5961 62 88.81C62.1669 88.2567 62.4856 87.7612 62.92 87.38C63.3189 87.0967 63.787 86.9267 64.2747 86.888C64.7624 86.8492 65.2514 86.9432 65.69 87.16C66.0494 87.3442 66.3506 87.6246 66.56 87.97C66.8101 88.3564 66.9927 88.7824 67.1 89.23C67.2334 89.888 67.2937 90.5587 67.28 91.23C67.3214 92.0631 67.2269 92.8973 67 93.7C66.8394 94.259 66.5198 94.7593 66.08 95.14C65.5493 95.5228 64.8953 95.6949 64.2449 95.6228C63.5945 95.5507 62.9941 95.2397 62.56 94.75C61.9046 93.7135 61.6028 92.4925 61.7 91.27V91.23ZM62.78 91.23C62.6856 92.1948 62.8585 93.167 63.28 94.04C63.4039 94.2538 63.5818 94.4313 63.796 94.5547C64.0101 94.6782 64.2529 94.7431 64.5 94.7431C64.7471 94.7431 64.9899 94.6782 65.2041 94.5547C65.4182 94.4313 65.5961 94.2538 65.72 94.04C66.1366 93.1654 66.3094 92.1946 66.22 91.23C66.3127 90.262 66.1399 89.2871 65.72 88.41C65.5903 88.1972 65.4082 88.0211 65.1911 87.8986C64.9741 87.7761 64.7293 87.7111 64.48 87.71C64.2523 87.7056 64.0272 87.7592 63.826 87.866C63.6247 87.9727 63.4541 88.129 63.33 88.32C62.8706 89.2313 62.6798 90.2544 62.78 91.27V91.23ZM68.7 91.23C68.6732 90.4126 68.7744 89.5961 69 88.81C69.1669 88.2567 69.4856 87.7612 69.92 87.38C70.3189 87.0967 70.787 86.9267 71.2747 86.888C71.7624 86.8492 72.2514 86.9432 72.69 87.16C73.0494 87.3442 73.3506 87.6246 73.56 87.97C73.8101 88.3564 73.9927 88.7824 74.1 89.23C74.2334 89.888 74.2937 90.5587 74.28 91.23C74.3214 92.0631 74.2269 92.8973 74 93.7C73.8394 94.259 73.5198 94.7593 73.08 95.14C72.5493 95.5228 71.8953 95.6949 71.2449 95.6228C70.5945 95.5507 69.9941 95.2397 69.56 94.75C68.9045 93.7135 68.6028 92.4925 68.7 91.27V91.23ZM69.78 91.23C69.6856 92.1948 69.8585 93.167 70.28 94.04C70.4039 94.2538 70.5818 94.4313 70.796 94.5547C71.0101 94.6782 71.2529 94.7431 71.5 94.7431C71.7471 94.7431 71.9899 94.6782 72.2041 94.5547C72.4182 94.4313 72.5961 94.2538 72.72 94.04C73.1366 93.1654 73.3094 92.1946 73.22 91.23C73.3127 90.262 73.1399 89.2871 72.72 88.41C72.5903 88.1972 72.4082 88.0211 72.1911 87.8986C71.9741 87.7761 71.7293 87.7111 71.48 87.71C71.2511 87.7067 71.025 87.7607 70.8223 87.8673C70.6197 87.9738 70.447 88.1295 70.32 88.32C69.8702 89.2343 69.6833 90.2556 69.78 91.27V91.23ZM75.7 91.23C75.6732 90.4126 75.7744 89.5961 76 88.81C76.1669 88.2567 76.4856 87.7612 76.92 87.38C77.3189 87.0967 77.787 86.9267 78.2747 86.888C78.7624 86.8492 79.2514 86.9432 79.69 87.16C80.0494 87.3442 80.3506 87.6246 80.56 87.97C80.8101 88.3564 80.9927 88.7824 81.1 89.23C81.2334 89.888 81.2937 90.5587 81.28 91.23C81.3214 92.0631 81.2269 92.8973 81 93.7C80.8394 94.259 80.5198 94.7593 80.08 95.14C79.5493 95.5228 78.8953 95.6949 78.2449 95.6228C77.5945 95.5507 76.9941 95.2397 76.56 94.75C75.9045 93.7135 75.6028 92.4925 75.7 91.27V91.23ZM76.78 91.23C76.6856 92.1948 76.8585 93.167 77.28 94.04C77.4039 94.2538 77.5818 94.4313 77.796 94.5547C78.0101 94.6782 78.2529 94.7431 78.5 94.7431C78.7471 94.7431 78.9899 94.6782 79.2041 94.5547C79.4182 94.4313 79.5961 94.2538 79.72 94.04C80.1366 93.1654 80.3094 92.1946 80.22 91.23C80.3127 90.262 80.1399 89.2871 79.72 88.41C79.5903 88.1972 79.4082 88.0211 79.1911 87.8986C78.9741 87.7761 78.7293 87.7111 78.48 87.71C78.2511 87.7067 78.025 87.7607 77.8223 87.8673C77.6197 87.9738 77.447 88.1295 77.32 88.32C76.8702 89.2343 76.6833 90.2556 76.78 91.27V91.23Z" fill="black"/>
<path id="Vector_18" d="M169.38 386.8V384.74H165.66V383.74L169.58 378.18H170.44V383.74H171.6V384.74H170.44V386.8H169.38ZM169.38 383.8V379.94L166.69 383.8H169.38ZM176.38 386.8V384.74H172.66V383.74L176.58 378.18H177.44V383.74H178.6V384.74H177.44V386.8H176.38ZM176.38 383.8V379.94L173.69 383.8H176.38ZM180 382.6C179.975 381.768 180.083 380.938 180.32 380.14C180.481 379.581 180.8 379.081 181.24 378.7C181.636 378.415 182.104 378.245 182.591 378.208C183.077 378.171 183.565 378.268 184 378.49C184.363 378.674 184.667 378.954 184.88 379.3C185.127 379.687 185.306 380.113 185.41 380.56C185.548 381.217 185.612 381.888 185.6 382.56C185.625 383.382 185.517 384.202 185.28 384.99C185.126 385.552 184.805 386.054 184.36 386.43C183.832 386.814 183.179 386.987 182.529 386.915C181.88 386.843 181.281 386.531 180.85 386.04C180.195 385.007 179.896 383.789 180 382.57V382.6ZM181.08 382.6C180.991 383.565 181.163 384.535 181.58 385.41C181.707 385.621 181.886 385.795 182.099 385.918C182.313 386.04 182.554 386.106 182.8 386.11C183.046 386.108 183.288 386.043 183.502 385.92C183.716 385.798 183.894 385.622 184.02 385.41C184.687 383.593 184.687 381.597 184.02 379.78C183.891 379.567 183.709 379.39 183.492 379.267C183.275 379.145 183.029 379.08 182.78 379.08C182.552 379.076 182.327 379.129 182.126 379.236C181.925 379.343 181.754 379.499 181.63 379.69C181.184 380.581 180.993 381.578 181.08 382.57V382.6ZM187 382.6C186.975 381.768 187.083 380.938 187.32 380.14C187.481 379.581 187.8 379.081 188.24 378.7C188.636 378.415 189.104 378.245 189.591 378.208C190.077 378.171 190.565 378.268 191 378.49C191.363 378.674 191.667 378.954 191.88 379.3C192.127 379.687 192.306 380.113 192.41 380.56C192.548 381.217 192.612 381.888 192.6 382.56C192.625 383.382 192.517 384.202 192.28 384.99C192.126 385.552 191.805 386.054 191.36 386.43C190.832 386.814 190.179 386.987 189.529 386.915C188.88 386.843 188.281 386.531 187.85 386.04C187.195 385.007 186.896 383.789 187 382.57V382.6ZM188.08 382.6C187.991 383.565 188.163 384.535 188.58 385.41C188.707 385.621 188.886 385.795 189.099 385.918C189.313 386.04 189.554 386.106 189.8 386.11C190.046 386.108 190.288 386.043 190.502 385.92C190.716 385.798 190.894 385.622 191.02 385.41C191.687 383.593 191.687 381.597 191.02 379.78C190.891 379.567 190.709 379.39 190.492 379.267C190.275 379.145 190.029 379.08 189.78 379.08C189.552 379.076 189.327 379.129 189.126 379.236C188.925 379.343 188.754 379.499 188.63 379.69C188.184 380.581 187.993 381.578 188.08 382.57V382.6ZM194 382.6C193.975 381.768 194.083 380.938 194.32 380.14C194.481 379.581 194.8 379.081 195.24 378.7C195.636 378.415 196.104 378.245 196.591 378.208C197.077 378.171 197.565 378.268 198 378.49C198.363 378.674 198.667 378.954 198.88 379.3C199.127 379.687 199.306 380.113 199.41 380.56C199.548 381.217 199.612 381.888 199.6 382.56C199.625 383.382 199.517 384.202 199.28 384.99C199.126 385.552 198.805 386.054 198.36 386.43C197.832 386.814 197.179 386.987 196.529 386.915C195.88 386.843 195.281 386.531 194.85 386.04C194.195 385.007 193.896 383.789 194 382.57V382.6ZM195.08 382.6C194.991 383.565 195.163 384.535 195.58 385.41C195.707 385.621 195.886 385.795 196.099 385.918C196.313 386.04 196.554 386.106 196.8 386.11C197.046 386.108 197.288 386.043 197.502 385.92C197.716 385.798 197.894 385.622 198.02 385.41C198.687 383.593 198.687 381.597 198.02 379.78C197.891 379.567 197.709 379.39 197.492 379.267C197.275 379.145 197.029 379.08 196.78 379.08C196.552 379.076 196.327 379.129 196.126 379.236C195.925 379.343 195.754 379.499 195.63 379.69C195.184 380.581 194.993 381.578 195.08 382.57V382.6Z" fill="black"/>
<path id="Vector_19" d="M292.5 386.8V384.74H288.78V383.74L292.7 378.18H293.56V383.74H294.72V384.74H293.56V386.8H292.5ZM292.5 383.8V379.94L289.81 383.8H292.5ZM299.5 386.8V384.74H295.78V383.74L299.7 378.18H300.56V383.74H301.72V384.74H300.56V386.8H299.5ZM299.5 383.8V379.94L296.81 383.8H299.5ZM308.67 385.8V386.8H303C302.997 386.551 303.042 386.303 303.13 386.07C303.29 385.649 303.523 385.259 303.82 384.92C304.245 384.45 304.71 384.019 305.21 383.63C305.906 383.092 306.539 382.478 307.1 381.8C307.398 381.441 307.573 380.996 307.6 380.53C307.598 380.34 307.556 380.153 307.477 379.981C307.397 379.809 307.283 379.655 307.14 379.53C306.984 379.383 306.8 379.268 306.599 379.193C306.398 379.117 306.184 379.082 305.97 379.09C305.747 379.078 305.524 379.112 305.314 379.19C305.104 379.267 304.912 379.386 304.75 379.54C304.434 379.886 304.265 380.342 304.28 380.81L303.21 380.7C303.218 380.354 303.295 380.014 303.435 379.698C303.576 379.382 303.778 379.097 304.03 378.86C304.591 378.4 305.305 378.168 306.03 378.21C306.393 378.185 306.757 378.233 307.1 378.352C307.444 378.47 307.76 378.657 308.03 378.9C308.262 379.119 308.446 379.384 308.568 379.679C308.691 379.974 308.749 380.291 308.74 380.61C308.737 380.954 308.666 381.294 308.53 381.61C308.351 381.995 308.111 382.35 307.82 382.66C307.315 383.193 306.777 383.694 306.21 384.16C305.58 384.69 305.21 385.05 304.98 385.25C304.817 385.424 304.67 385.611 304.54 385.81L308.67 385.8ZM310.12 382.59C310.095 381.758 310.203 380.928 310.44 380.13C310.601 379.571 310.92 379.071 311.36 378.69C311.756 378.405 312.224 378.235 312.711 378.198C313.197 378.161 313.685 378.258 314.12 378.48C314.483 378.664 314.787 378.944 315 379.29C315.247 379.677 315.426 380.103 315.53 380.55C315.668 381.207 315.732 381.878 315.72 382.55C315.745 383.372 315.637 384.193 315.4 384.98C315.246 385.542 314.925 386.044 314.48 386.42C313.952 386.804 313.299 386.977 312.649 386.905C312 386.833 311.401 386.521 310.97 386.03C310.317 385 310.018 383.785 310.12 382.57V382.59ZM311.2 382.59C311.111 383.555 311.283 384.525 311.7 385.4C311.827 385.611 312.006 385.785 312.219 385.908C312.433 386.03 312.674 386.096 312.92 386.1C313.166 386.098 313.408 386.033 313.622 385.91C313.836 385.788 314.014 385.612 314.14 385.4C314.807 383.583 314.807 381.587 314.14 379.77C314.011 379.557 313.829 379.38 313.612 379.257C313.395 379.135 313.149 379.07 312.9 379.07C312.672 379.067 312.448 379.121 312.247 379.227C312.046 379.334 311.875 379.49 311.75 379.68C311.302 380.574 311.111 381.574 311.2 382.57V382.59ZM317.12 382.59C317.095 381.758 317.203 380.928 317.44 380.13C317.601 379.571 317.92 379.071 318.36 378.69C318.756 378.405 319.224 378.235 319.711 378.198C320.197 378.161 320.685 378.258 321.12 378.48C321.483 378.664 321.787 378.944 322 379.29C322.247 379.677 322.426 380.103 322.53 380.55C322.668 381.207 322.732 381.878 322.72 382.55C322.745 383.372 322.637 384.193 322.4 384.98C322.246 385.542 321.925 386.044 321.48 386.42C320.952 386.804 320.299 386.977 319.649 386.905C319 386.833 318.401 386.521 317.97 386.03C317.317 385 317.018 383.785 317.12 382.57V382.59ZM318.2 382.59C318.111 383.555 318.283 384.525 318.7 385.4C318.827 385.611 319.006 385.785 319.219 385.908C319.433 386.03 319.674 386.096 319.92 386.1C320.166 386.098 320.408 386.033 320.622 385.91C320.836 385.788 321.014 385.612 321.14 385.4C321.807 383.583 321.807 381.587 321.14 379.77C321.011 379.557 320.829 379.38 320.612 379.257C320.395 379.135 320.149 379.07 319.9 379.07C319.672 379.067 319.448 379.121 319.247 379.227C319.046 379.334 318.875 379.49 318.75 379.68C318.302 380.574 318.111 381.574 318.2 382.57V382.59Z" fill="black"/>
<path id="Vector_20" d="M415.62 386.8V384.74H411.9V383.74L415.82 378.18H416.68V383.74H417.84V384.74H416.68V386.8H415.62ZM415.62 383.8V379.94L412.93 383.8H415.62ZM422.62 386.8V384.74H418.9V383.74L422.82 378.18H423.68V383.74H424.84V384.74H423.68V386.8H422.62ZM422.62 383.8V379.94L419.93 383.8H422.62ZM429.62 386.8V384.74H425.9V383.74L429.82 378.18H430.68V383.74H431.84V384.74H430.68V386.8H429.62ZM429.62 383.8V379.94L426.93 383.8H429.62ZM433.24 382.6C433.215 381.768 433.323 380.938 433.56 380.14C433.721 379.581 434.04 379.081 434.48 378.7C434.927 378.359 435.478 378.183 436.04 378.2C436.458 378.191 436.872 378.291 437.24 378.49C437.602 378.674 437.907 378.954 438.12 379.3C438.371 379.685 438.55 380.112 438.65 380.56C438.792 381.217 438.856 381.888 438.84 382.56C438.862 383.381 438.757 384.201 438.53 384.99C438.367 385.55 438.043 386.051 437.6 386.43C437.072 386.814 436.419 386.987 435.769 386.915C435.12 386.843 434.521 386.531 434.09 386.04C433.439 385.005 433.141 383.788 433.24 382.57V382.6ZM434.32 382.6C434.231 383.565 434.403 384.535 434.82 385.41C434.949 385.619 435.128 385.793 435.341 385.915C435.554 386.038 435.794 386.105 436.04 386.11C436.286 386.108 436.528 386.043 436.742 385.92C436.956 385.798 437.134 385.622 437.26 385.41C437.927 383.593 437.927 381.597 437.26 379.78C437.133 379.567 436.953 379.39 436.738 379.267C436.522 379.144 436.278 379.08 436.03 379.08C435.801 379.075 435.574 379.128 435.371 379.235C435.168 379.342 434.996 379.498 434.87 379.69C434.424 380.581 434.233 381.578 434.32 382.57V382.6ZM440.24 382.6C440.215 381.768 440.323 380.938 440.56 380.14C440.721 379.581 441.04 379.081 441.48 378.7C441.927 378.359 442.478 378.183 443.04 378.2C443.458 378.191 443.872 378.291 444.24 378.49C444.602 378.674 444.907 378.954 445.12 379.3C445.371 379.685 445.55 380.112 445.65 380.56C445.792 381.217 445.856 381.888 445.84 382.56C445.862 383.381 445.757 384.201 445.53 384.99C445.367 385.55 445.043 386.051 444.6 386.43C444.072 386.814 443.419 386.987 442.769 386.915C442.12 386.843 441.521 386.531 441.09 386.04C440.439 385.005 440.141 383.788 440.24 382.57V382.6ZM441.32 382.6C441.231 383.565 441.403 384.535 441.82 385.41C441.949 385.619 442.128 385.793 442.341 385.915C442.554 386.038 442.794 386.105 443.04 386.11C443.286 386.108 443.528 386.043 443.742 385.92C443.956 385.798 444.134 385.622 444.26 385.41C444.927 383.593 444.927 381.597 444.26 379.78C444.133 379.567 443.953 379.39 443.738 379.267C443.522 379.144 443.278 379.08 443.03 379.08C442.801 379.075 442.574 379.128 442.371 379.235C442.168 379.342 441.996 379.498 441.87 379.69C441.424 380.581 441.233 381.578 441.32 382.57V382.6Z" fill="black"/>
<path id="Vector_21" d="M538.74 386.8V384.74H535V383.74L538.92 378.18H539.78V383.74H541V384.74H539.8V386.8H538.74ZM538.74 383.8V379.94L536.05 383.8H538.74ZM545.74 386.8V384.74H542V383.74L545.92 378.18H546.78V383.74H548V384.74H546.8V386.8H545.74ZM545.74 383.8V379.94L543.05 383.8H545.74ZM554.83 380.35L553.83 380.42C553.77 380.094 553.637 379.786 553.44 379.52C553.303 379.374 553.137 379.258 552.953 379.179C552.769 379.1 552.57 379.059 552.37 379.06C552.05 379.058 551.737 379.16 551.48 379.35C551.132 379.634 550.864 380.002 550.7 380.42C550.483 381.064 550.382 381.741 550.4 382.42C550.63 382.057 550.95 381.761 551.33 381.56C551.693 381.378 552.094 381.282 552.5 381.28C552.835 381.276 553.167 381.343 553.474 381.477C553.781 381.612 554.056 381.811 554.28 382.06C554.531 382.327 554.727 382.641 554.856 382.985C554.984 383.328 555.044 383.694 555.03 384.06C555.033 384.588 554.91 385.109 554.67 385.58C554.445 386.022 554.098 386.39 553.67 386.64C553.101 386.957 552.44 387.07 551.797 386.959C551.155 386.848 550.57 386.52 550.14 386.03C549.499 385.097 549.205 383.968 549.31 382.84C549.2 381.564 549.524 380.288 550.23 379.22C550.485 378.895 550.814 378.634 551.19 378.461C551.565 378.287 551.977 378.204 552.39 378.22C552.993 378.2 553.582 378.407 554.04 378.8C554.485 379.189 554.767 379.732 554.83 380.32V380.35ZM550.54 384.05C550.539 384.412 550.614 384.769 550.76 385.1C550.897 385.406 551.119 385.667 551.4 385.85C551.666 386.018 551.975 386.109 552.29 386.11C552.507 386.107 552.72 386.059 552.917 385.967C553.113 385.876 553.288 385.744 553.43 385.58C553.768 385.167 553.94 384.643 553.91 384.11C553.937 383.596 553.766 383.091 553.43 382.7C553.28 382.535 553.096 382.404 552.89 382.316C552.685 382.228 552.463 382.185 552.24 382.19C552.012 382.186 551.786 382.229 551.576 382.317C551.366 382.404 551.177 382.535 551.02 382.7C550.704 383.058 550.533 383.522 550.54 384V384.05ZM556.36 382.6C556.335 381.768 556.443 380.938 556.68 380.14C556.846 379.583 557.164 379.084 557.6 378.7C558.047 378.359 558.598 378.183 559.16 378.2C559.578 378.191 559.992 378.291 560.36 378.49C560.722 378.674 561.027 378.954 561.24 379.3C561.491 379.685 561.67 380.112 561.77 380.56C561.912 381.217 561.976 381.888 561.96 382.56C561.982 383.381 561.877 384.201 561.65 384.99C561.487 385.55 561.163 386.051 560.72 386.43C560.192 386.814 559.539 386.987 558.889 386.915C558.24 386.843 557.641 386.531 557.21 386.04C556.56 385.005 556.261 383.788 556.36 382.57V382.6ZM557.44 382.6C557.351 383.565 557.523 384.535 557.94 385.41C558.069 385.619 558.248 385.793 558.461 385.915C558.674 386.038 558.914 386.105 559.16 386.11C559.406 386.108 559.648 386.043 559.862 385.92C560.076 385.798 560.254 385.622 560.38 385.41C561.047 383.593 561.047 381.597 560.38 379.78C560.253 379.567 560.073 379.39 559.858 379.267C559.642 379.144 559.398 379.08 559.15 379.08C558.921 379.075 558.694 379.128 558.491 379.235C558.288 379.342 558.116 379.498 557.99 379.69C557.544 380.581 557.353 381.578 557.44 382.57V382.6ZM563.36 382.6C563.335 381.768 563.443 380.938 563.68 380.14C563.846 379.583 564.164 379.084 564.6 378.7C565.047 378.359 565.598 378.183 566.16 378.2C566.578 378.191 566.992 378.291 567.36 378.49C567.722 378.674 568.027 378.954 568.24 379.3C568.491 379.685 568.67 380.112 568.77 380.56C568.912 381.217 568.976 381.888 568.96 382.56C568.982 383.381 568.877 384.201 568.65 384.99C568.487 385.55 568.163 386.051 567.72 386.43C567.192 386.814 566.539 386.987 565.889 386.915C565.24 386.843 564.641 386.531 564.21 386.04C563.56 385.005 563.261 383.788 563.36 382.57V382.6ZM564.44 382.6C564.351 383.565 564.523 384.535 564.94 385.41C565.069 385.619 565.248 385.793 565.461 385.915C565.674 386.038 565.914 386.105 566.16 386.11C566.406 386.108 566.648 386.043 566.862 385.92C567.076 385.798 567.254 385.622 567.38 385.41C568.047 383.593 568.047 381.597 567.38 379.78C567.253 379.567 567.073 379.39 566.858 379.267C566.642 379.144 566.398 379.08 566.15 379.08C565.921 379.075 565.694 379.128 565.491 379.235C565.288 379.342 565.116 379.498 564.99 379.69C564.544 380.581 564.353 381.578 564.44 382.57V382.6Z" fill="black"/>
<path id="Vector_22" d="M661.86 386.8V384.74H658.14V383.74L662.06 378.18H662.92V383.74H664.08V384.74H662.92V386.8H661.86ZM661.86 383.8V379.94L659.17 383.8H661.86ZM668.86 386.8V384.74H665.14V383.74L669.06 378.18H669.92V383.74H671.08V384.74H669.92V386.8H668.86ZM668.86 383.8V379.94L666.17 383.8H668.86ZM674.11 382.17C673.714 382.052 673.365 381.814 673.11 381.49C672.896 381.175 672.784 380.801 672.79 380.42C672.785 380.125 672.843 379.832 672.96 379.561C673.077 379.291 673.251 379.048 673.47 378.85C673.974 378.427 674.612 378.195 675.27 378.195C675.928 378.195 676.566 378.427 677.07 378.85C677.291 379.051 677.466 379.297 677.585 379.571C677.704 379.845 677.764 380.141 677.76 380.44C677.761 380.797 677.653 381.146 677.45 381.44C677.195 381.764 676.846 382.002 676.45 382.12C676.93 382.257 677.352 382.549 677.65 382.95C677.926 383.356 678.07 383.839 678.06 384.33C678.067 384.675 678.001 385.018 677.864 385.336C677.728 385.653 677.525 385.937 677.27 386.17C677.002 386.42 676.688 386.615 676.345 386.744C676.001 386.873 675.636 386.932 675.27 386.92C674.531 386.941 673.813 386.672 673.27 386.17C673.016 385.931 672.815 385.641 672.68 385.318C672.546 384.996 672.481 384.649 672.49 384.3C672.47 383.796 672.617 383.3 672.91 382.89C673.216 382.514 673.638 382.25 674.11 382.14V382.17ZM673.89 380.38C673.884 380.564 673.915 380.748 673.982 380.92C674.049 381.092 674.151 381.248 674.28 381.38C674.551 381.634 674.909 381.774 675.28 381.77C675.464 381.776 675.647 381.746 675.818 381.681C675.99 381.616 676.147 381.517 676.28 381.39C676.406 381.266 676.506 381.118 676.573 380.955C676.64 380.792 676.673 380.617 676.67 380.44C676.68 380.254 676.649 380.069 676.58 379.896C676.511 379.723 676.405 379.568 676.27 379.44C676.14 379.307 675.984 379.203 675.812 379.132C675.64 379.062 675.456 379.027 675.27 379.03C674.898 379.023 674.539 379.163 674.27 379.42C674.148 379.542 674.051 379.687 673.986 379.846C673.92 380.006 673.888 380.177 673.89 380.35V380.38ZM673.56 384.38C673.56 384.682 673.632 384.981 673.77 385.25C673.913 385.529 674.136 385.759 674.41 385.91C674.686 386.061 674.995 386.14 675.31 386.14C675.538 386.147 675.766 386.109 675.979 386.026C676.192 385.944 676.386 385.819 676.55 385.66C676.714 385.499 676.843 385.305 676.929 385.092C677.015 384.879 677.056 384.65 677.05 384.42C677.057 384.186 677.016 383.953 676.929 383.736C676.843 383.519 676.712 383.321 676.547 383.156C676.381 382.991 676.183 382.862 675.965 382.777C675.747 382.691 675.514 382.652 675.28 382.66C675.051 382.651 674.823 382.691 674.611 382.777C674.399 382.864 674.208 382.994 674.05 383.16C673.895 383.311 673.773 383.492 673.688 383.691C673.604 383.89 673.561 384.104 673.56 384.32V384.38ZM679.49 382.63C679.462 381.799 679.567 380.968 679.8 380.17C679.966 379.613 680.284 379.114 680.72 378.73C681.167 378.389 681.718 378.213 682.28 378.23C682.701 378.223 683.118 378.322 683.49 378.52C683.848 378.707 684.148 378.987 684.36 379.33C684.611 379.715 684.79 380.142 684.89 380.59C685.032 381.247 685.096 381.918 685.08 382.59C685.102 383.411 684.997 384.231 684.77 385.02C684.607 385.58 684.283 386.081 683.84 386.46C683.312 386.844 682.659 387.017 682.009 386.945C681.36 386.873 680.761 386.561 680.33 386.07C679.677 385.026 679.382 383.797 679.49 382.57V382.63ZM680.56 382.63C680.471 383.595 680.643 384.565 681.06 385.44C681.189 385.649 681.368 385.823 681.581 385.945C681.794 386.068 682.034 386.135 682.28 386.14C682.526 386.138 682.768 386.073 682.982 385.95C683.196 385.828 683.374 385.652 683.5 385.44C684.167 383.623 684.167 381.627 683.5 379.81C683.373 379.597 683.193 379.42 682.978 379.297C682.762 379.174 682.518 379.11 682.27 379.11C682.041 379.105 681.814 379.158 681.611 379.265C681.408 379.372 681.236 379.528 681.11 379.72C680.674 380.603 680.484 381.588 680.56 382.57V382.63ZM686.49 382.63C686.462 381.799 686.567 380.968 686.8 380.17C686.966 379.613 687.284 379.114 687.72 378.73C688.167 378.389 688.718 378.213 689.28 378.23C689.701 378.223 690.118 378.322 690.49 378.52C690.848 378.707 691.148 378.987 691.36 379.33C691.611 379.715 691.79 380.142 691.89 380.59C692.032 381.247 692.096 381.918 692.08 382.59C692.102 383.411 691.997 384.231 691.77 385.02C691.607 385.58 691.283 386.081 690.84 386.46C690.312 386.844 689.659 387.017 689.009 386.945C688.36 386.873 687.761 386.561 687.33 386.07C686.677 385.026 686.382 383.797 686.49 382.57V382.63ZM687.56 382.63C687.471 383.595 687.643 384.565 688.06 385.44C688.189 385.649 688.368 385.823 688.581 385.945C688.794 386.068 689.034 386.135 689.28 386.14C689.526 386.138 689.768 386.073 689.982 385.95C690.196 385.828 690.374 385.652 690.5 385.44C691.167 383.623 691.167 381.627 690.5 379.81C690.373 379.597 690.193 379.42 689.978 379.297C689.762 379.174 689.518 379.11 689.27 379.11C689.041 379.105 688.814 379.158 688.611 379.265C688.408 379.372 688.236 379.528 688.11 379.72C687.674 380.603 687.484 381.588 687.56 382.57V382.63Z" fill="black"/>
<path id="Vector_23" d="M576.85 65.51V66.7H570.22C570.212 66.4071 570.259 66.1152 570.36 65.84C570.56 65.3579 570.834 64.9093 571.17 64.51C571.665 63.9642 572.204 63.4593 572.78 63C573.599 62.3774 574.344 61.6627 575 60.87C575.346 60.4511 575.549 59.9325 575.58 59.39C575.583 59.1568 575.537 58.9256 575.444 58.7117C575.351 58.4979 575.213 58.3064 575.04 58.15C574.861 57.9819 574.65 57.8511 574.42 57.7653C574.19 57.6794 573.945 57.6402 573.7 57.65C573.437 57.6392 573.174 57.6805 572.927 57.7714C572.68 57.8624 572.453 58.0012 572.26 58.18C572.075 58.3793 571.933 58.6142 571.842 58.8704C571.75 59.1266 571.712 59.3987 571.73 59.67L570.47 59.53C570.486 59.1247 570.583 58.7267 570.754 58.3593C570.926 57.9918 571.169 57.6623 571.47 57.39C572.115 56.8671 572.93 56.6002 573.76 56.64C574.595 56.5914 575.414 56.8754 576.04 57.43C576.313 57.6852 576.529 57.9954 576.674 58.3401C576.819 58.6848 576.889 59.0562 576.88 59.43C576.879 59.8396 576.794 60.2446 576.63 60.62C576.429 61.0655 576.155 61.4745 575.82 61.83C575.229 62.46 574.597 63.0513 573.93 63.6C573.432 63.9953 572.958 64.4193 572.51 64.87C572.313 65.067 572.139 65.2849 571.99 65.52L576.85 65.51ZM578.38 61.76C578.35 60.7937 578.472 59.8287 578.74 58.9C578.937 58.2509 579.315 57.6715 579.83 57.23C580.345 56.8257 580.986 56.6167 581.64 56.64C582.137 56.6299 582.628 56.7433 583.07 56.97C583.478 57.1888 583.822 57.5091 584.07 57.9C584.359 58.3585 584.568 58.8621 584.69 59.39C584.858 60.1683 584.932 60.964 584.91 61.76C584.939 62.723 584.818 63.6846 584.55 64.61C584.352 65.2564 583.978 65.8347 583.47 66.28C582.948 66.6857 582.3 66.8946 581.64 66.87C581.207 66.8869 580.776 66.8005 580.383 66.6179C579.99 66.4353 579.646 66.1618 579.38 65.82C578.608 64.614 578.256 63.1866 578.38 61.76V61.76ZM579.64 61.76C579.535 62.8856 579.735 64.0187 580.22 65.04C580.367 65.2888 580.576 65.495 580.827 65.6383C581.077 65.7816 581.361 65.857 581.65 65.857C581.939 65.857 582.223 65.7816 582.473 65.6383C582.724 65.495 582.933 65.2888 583.08 65.04C583.567 64.0196 583.768 62.8857 583.66 61.76C583.77 60.631 583.569 59.4934 583.08 58.47C582.928 58.221 582.715 58.015 582.462 57.8715C582.208 57.728 581.922 57.6517 581.63 57.65C581.362 57.6459 581.098 57.7098 580.862 57.8357C580.626 57.9616 580.426 58.1455 580.28 58.37C579.763 59.4209 579.542 60.5928 579.64 61.76V61.76ZM592.85 65.51V66.7H586.22C586.212 66.4071 586.259 66.1152 586.36 65.84C586.56 65.3579 586.834 64.9093 587.17 64.51C587.665 63.9642 588.204 63.4593 588.78 63C589.599 62.3774 590.344 61.6627 591 60.87C591.346 60.4511 591.549 59.9325 591.58 59.39C591.583 59.1568 591.537 58.9256 591.444 58.7117C591.351 58.4979 591.213 58.3064 591.04 58.15C590.861 57.9819 590.65 57.8511 590.42 57.7653C590.19 57.6794 589.945 57.6402 589.7 57.65C589.437 57.6392 589.174 57.6805 588.927 57.7714C588.68 57.8624 588.453 58.0012 588.26 58.18C588.075 58.3793 587.933 58.6142 587.842 58.8704C587.75 59.1266 587.712 59.3987 587.73 59.67L586.47 59.53C586.486 59.1247 586.583 58.7267 586.754 58.3593C586.926 57.9918 587.169 57.6623 587.47 57.39C588.115 56.8671 588.93 56.6002 589.76 56.64C590.595 56.5914 591.414 56.8754 592.04 57.43C592.313 57.6852 592.529 57.9954 592.674 58.3401C592.819 58.6848 592.889 59.0562 592.88 59.43C592.879 59.8396 592.794 60.2446 592.63 60.62C592.429 61.0655 592.155 61.4745 591.82 61.83C591.229 62.46 590.597 63.0513 589.93 63.6C589.432 63.9953 588.958 64.4193 588.51 64.87C588.313 65.067 588.139 65.2849 587.99 65.52L592.85 65.51ZM600.85 65.51V66.7H594.22C594.212 66.4071 594.259 66.1152 594.36 65.84C594.56 65.3579 594.834 64.9093 595.17 64.51C595.665 63.9642 596.204 63.4593 596.78 63C597.599 62.3774 598.344 61.6627 599 60.87C599.346 60.4511 599.549 59.9325 599.58 59.39C599.583 59.1568 599.537 58.9256 599.444 58.7117C599.351 58.4979 599.213 58.3064 599.04 58.15C598.861 57.9819 598.65 57.8511 598.42 57.7653C598.19 57.6794 597.945 57.6402 597.7 57.65C597.437 57.6392 597.174 57.6805 596.927 57.7714C596.68 57.8624 596.453 58.0012 596.26 58.18C596.075 58.3793 595.933 58.6142 595.842 58.8704C595.75 59.1266 595.712 59.3987 595.73 59.67L594.47 59.53C594.486 59.1247 594.583 58.7267 594.754 58.3593C594.926 57.9918 595.169 57.6623 595.47 57.39C596.115 56.8671 596.93 56.6002 597.76 56.64C598.595 56.5914 599.414 56.8754 600.04 57.43C600.313 57.6852 600.529 57.9954 600.674 58.3401C600.819 58.6848 600.889 59.0562 600.88 59.43C600.879 59.8396 600.794 60.2446 600.63 60.62C600.429 61.0655 600.155 61.4745 599.82 61.83C599.229 62.46 598.597 63.0513 597.93 63.6C597.432 63.9953 596.958 64.4193 596.51 64.87C596.313 65.067 596.139 65.2849 595.99 65.52L600.85 65.51Z" fill="#999999"/>
<path id="Vector_24" d="M606.17 58.17C605.522 59.3285 604.652 60.3479 603.61 61.17L602.85 60.17C604.397 58.9956 605.48 57.3138 605.91 55.42L607.16 55.75C607.31 55.9 607.25 55.99 607 56.02L606.57 57.11H614.27V58.16H610.27V60H613.56V61H610.27V63.47H614.87V64.47H610.27V67.77H609.18V64.47H602.88V63.47H605.35V60H609.18V58.17H606.17ZM606.46 63.53H609.19V61.06H606.46V63.53Z" fill="#999999"/>
<path id="Vector_25" d="M616.57 64.39L617.75 64.28C617.798 64.7333 617.999 65.1566 618.32 65.48C618.624 65.7371 619.012 65.8724 619.41 65.86C619.759 65.8655 620.104 65.7793 620.41 65.61C620.701 65.4342 620.944 65.1906 621.12 64.9C621.333 64.5348 621.491 64.1407 621.59 63.73C621.71 63.2391 621.771 62.7354 621.77 62.23C621.77 62.23 621.77 62.1 621.77 61.98C621.521 62.3896 621.17 62.7274 620.751 62.9606C620.332 63.1937 619.859 63.3141 619.38 63.31C618.984 63.3188 618.59 63.2421 618.226 63.085C617.862 62.928 617.536 62.6944 617.27 62.4C616.976 62.0818 616.749 61.7084 616.602 61.3015C616.454 60.8946 616.389 60.4624 616.41 60.03C616.387 59.5814 616.455 59.1328 616.607 58.7104C616.76 58.288 616.996 57.9003 617.3 57.57C617.59 57.2651 617.942 57.0247 618.331 56.8644C618.72 56.7042 619.139 56.6277 619.56 56.64C620.202 56.6387 620.83 56.8281 621.364 57.1842C621.898 57.5402 622.314 58.0469 622.56 58.64C622.882 59.5402 623.025 60.4949 622.98 61.45C623.016 62.4865 622.874 63.5215 622.56 64.51C622.338 65.2026 621.909 65.8101 621.33 66.25C620.761 66.6454 620.083 66.8518 619.39 66.84C619.042 66.8644 618.693 66.8193 618.362 66.7075C618.032 66.5956 617.727 66.4191 617.466 66.1883C617.204 65.9575 616.991 65.677 616.839 65.3631C616.687 65.0493 616.599 64.7083 616.58 64.36L616.57 64.39ZM621.57 59.97C621.604 59.3544 621.4 58.7492 621 58.28C620.837 58.0824 620.633 57.9233 620.401 57.8144C620.169 57.7055 619.916 57.6493 619.66 57.65C619.386 57.6525 619.116 57.7136 618.867 57.8291C618.619 57.9447 618.398 58.1121 618.22 58.32C617.805 58.8026 617.587 59.4239 617.61 60.06C617.592 60.6359 617.8 61.196 618.19 61.62C618.372 61.8137 618.592 61.9671 618.836 62.0705C619.081 62.1738 619.344 62.2248 619.61 62.22C619.875 62.2292 620.138 62.1802 620.382 62.0766C620.625 61.9729 620.843 61.8171 621.02 61.62C621.407 61.1703 621.614 60.5931 621.6 60L621.57 59.97Z" fill="#999999"/>
<path id="Vector_26" d="M633.71 63.53H628.5C628.451 64.4052 628.21 65.2589 627.796 66.0312C627.381 66.8034 626.802 67.4755 626.1 68L625.17 67C625.892 66.5545 626.481 65.9231 626.875 65.1719C627.269 64.4206 627.454 63.5772 627.41 62.73V56H634.8V66.76C634.8 67.35 634.49 67.64 633.86 67.64H632.55L632.33 66.42H633.49C633.52 66.4231 633.55 66.4196 633.578 66.4097C633.606 66.3997 633.631 66.3836 633.653 66.3625C633.674 66.3414 633.69 66.3159 633.7 66.2878C633.71 66.2597 633.713 66.2297 633.71 66.2V63.53ZM628.5 62.32H633.71V60.32H628.5V62.32ZM628.5 59.15H633.71V57.15H628.5V59.15Z" fill="#999999"/>
<path id="Vector_27" d="M644.85 65.51V66.7H638.22C638.212 66.4071 638.259 66.1152 638.36 65.84C638.56 65.3579 638.834 64.9093 639.17 64.51C639.665 63.9642 640.204 63.4593 640.78 63C641.599 62.3774 642.344 61.6627 643 60.87C643.346 60.4511 643.549 59.9325 643.58 59.39C643.583 59.1568 643.537 58.9256 643.444 58.7117C643.351 58.4979 643.213 58.3064 643.04 58.15C642.861 57.9819 642.65 57.8511 642.42 57.7653C642.19 57.6794 641.945 57.6402 641.7 57.65C641.437 57.6392 641.174 57.6805 640.927 57.7714C640.68 57.8624 640.453 58.0012 640.26 58.18C640.075 58.3793 639.933 58.6142 639.842 58.8704C639.75 59.1266 639.712 59.3987 639.73 59.67L638.47 59.53C638.486 59.1247 638.583 58.7267 638.754 58.3593C638.926 57.9918 639.169 57.6623 639.47 57.39C640.115 56.8671 640.93 56.6002 641.76 56.64C642.595 56.5914 643.414 56.8754 644.04 57.43C644.313 57.6852 644.529 57.9954 644.674 58.3401C644.819 58.6848 644.889 59.0562 644.88 59.43C644.879 59.8396 644.794 60.2446 644.63 60.62C644.429 61.0655 644.155 61.4745 643.82 61.83C643.229 62.46 642.597 63.0513 641.93 63.6C641.432 63.9953 640.958 64.4193 640.51 64.87C640.313 65.067 640.139 65.2849 639.99 65.52L644.85 65.51ZM646.57 64.39L647.75 64.28C647.798 64.7333 647.999 65.1566 648.32 65.48C648.624 65.737 649.012 65.8724 649.41 65.86C649.759 65.8655 650.104 65.7793 650.41 65.61C650.701 65.4342 650.944 65.1906 651.12 64.9C651.333 64.5348 651.491 64.1407 651.59 63.73C651.71 63.2391 651.771 62.7354 651.77 62.23C651.77 62.23 651.77 62.1 651.77 61.98C651.521 62.3896 651.17 62.7274 650.751 62.9606C650.332 63.1937 649.859 63.3141 649.38 63.31C648.984 63.3188 648.59 63.2421 648.226 63.085C647.862 62.928 647.536 62.6944 647.27 62.4C646.977 62.0818 646.749 61.7084 646.602 61.3015C646.454 60.8946 646.389 60.4624 646.41 60.03C646.387 59.5814 646.455 59.1328 646.607 58.7104C646.76 58.288 646.996 57.9003 647.3 57.57C647.59 57.2651 647.942 57.0247 648.331 56.8644C648.72 56.7042 649.139 56.6277 649.56 56.64C650.202 56.6387 650.83 56.8281 651.364 57.1841C651.898 57.5402 652.314 58.0469 652.56 58.64C652.882 59.5402 653.025 60.4949 652.98 61.45C653.016 62.4865 652.874 63.5215 652.56 64.51C652.338 65.2026 651.909 65.8101 651.33 66.25C650.761 66.6454 650.083 66.8518 649.39 66.84C649.042 66.8644 648.693 66.8193 648.362 66.7074C648.032 66.5956 647.727 66.4191 647.466 66.1883C647.204 65.9575 646.991 65.677 646.839 65.3631C646.687 65.0493 646.599 64.7083 646.58 64.36L646.57 64.39ZM651.57 59.97C651.604 59.3544 651.4 58.7492 651 58.28C650.837 58.0824 650.633 57.9233 650.401 57.8144C650.169 57.7054 649.916 57.6493 649.66 57.65C649.386 57.6525 649.116 57.7136 648.868 57.8291C648.619 57.9447 648.398 58.1121 648.22 58.32C647.805 58.8026 647.587 59.4239 647.61 60.06C647.592 60.6359 647.8 61.196 648.19 61.62C648.372 61.8137 648.592 61.9671 648.836 62.0705C649.081 62.1738 649.345 62.2248 649.61 62.22C649.875 62.2292 650.138 62.1802 650.382 62.0766C650.625 61.9729 650.843 61.817 651.02 61.62C651.407 61.1702 651.614 60.5931 651.6 60L651.57 59.97Z" fill="#999999"/>
<path id="Vector_28" d="M657.8 67.2H656.53V56.64H665.13V67H663.86V66.2H657.8V67.2ZM663.86 60.79V57.67H657.8V60.79H663.86ZM663.86 65.17V61.82H657.8V65.17H663.86ZM678.08 59.86H680.66V60.73H678.36V62H680.22V62.87H678.36V64.18H680.22V65.06H678.36V66.42H681.1V67.31H675.57V67.86H674.64V61.78C674.331 62.194 673.964 62.5611 673.55 62.87L673.16 61.87C674.394 60.851 675.325 59.5122 675.85 58H674.58V59.2H673.66V57.07H676.07C676.21 56.49 676.34 55.87 676.44 55.22L677.53 55.48C677.65 55.6 677.61 55.71 677.42 55.81C677.32 56.25 677.21 56.67 677.1 57.07H681V59H680.06V58H676.89C676.709 58.6825 676.411 59.3286 676.01 59.91H677.17L677.87 58.27L678.87 58.48C679.05 58.56 679.01 58.65 678.76 58.77L678.08 59.86ZM668.85 57.34V56.34H673.49V57.34H671.58C671.524 58.4173 671.28 59.4766 670.86 60.47H673V67H672.07V66.11H670.64V67.55H669.72V62.59C669.514 62.9464 669.273 63.2814 669 63.59L668.3 62.67C669.6 61.1889 670.383 59.3251 670.53 57.36L668.85 57.34ZM675.57 62.87V64.18H677.42V62.87H675.57ZM675.57 60.73V62H677.42V60.73H675.57ZM675.57 65.06V66.42H677.42V65.06H675.57ZM670.64 61.34V65.22H672.07V61.34H670.64ZM687.22 61.45C687.796 61.3462 688.335 61.0943 688.783 60.7191C689.232 60.3438 689.576 59.8582 689.78 59.31L688.32 58.72L688.69 57.78L690 58.28L690.11 56.97H687.82V55.97H694.38L694.27 60.67C694.27 61.59 693.89 62.05 693.13 62.05H691.86L691.75 61.05H692.91C692.955 61.0568 693.001 61.0529 693.044 61.0387C693.087 61.0245 693.126 61.0004 693.158 60.9683C693.19 60.9362 693.215 60.897 693.229 60.8539C693.243 60.8108 693.247 60.7649 693.24 60.72L693.35 57.07H691.21L691.05 58.82L692.36 59.52L691.86 60.52L690.77 59.93C690.519 60.6075 690.103 61.2119 689.56 61.6885C689.017 62.1651 688.364 62.499 687.66 62.66L687.22 61.45ZM694.16 66.92C693.898 65.8901 693.436 64.9217 692.8 64.07L693.8 63.64C694.513 64.441 695.039 65.3906 695.34 66.42L694.16 66.92ZM686.83 63.47V67.68H685.91V67.31H684.05V67.9H683.11V63.47H686.83ZM687.27 66.98C687.548 65.9609 687.715 64.9149 687.77 63.86L688.86 63.97C688.94 63.97 688.86 64.09 688.75 64.23C688.73 65.249 688.562 66.2597 688.25 67.23L687.27 66.98ZM690.77 61.67C691.397 62.1147 691.92 62.6916 692.3 63.36L691.3 63.97C690.948 63.3304 690.511 62.7417 690 62.22L690.77 61.67ZM683.33 55.67H686.61V56.67H683.33V55.67ZM682.63 57.53H687.33V58.53H682.63V57.53ZM683.33 59.53H686.61V60.53H683.33V59.53ZM683.33 61.39H686.61V62.39H683.33V61.39ZM684.05 64.28V66.36H685.91V64.34L684.05 64.28ZM690.22 63.28C690.507 63.28 690.527 63.39 690.28 63.61V66.2C690.28 66.46 690.39 66.59 690.61 66.59H691.82C691.866 66.5941 691.913 66.5887 691.957 66.5741C692.001 66.5595 692.042 66.536 692.076 66.5051C692.111 66.4742 692.139 66.4365 692.159 66.3943C692.178 66.3522 692.189 66.3064 692.19 66.26L692.3 65.39L693.39 65.65L693.17 66.81C693.16 66.9306 693.126 67.048 693.07 67.1553C693.014 67.2626 692.937 67.3577 692.844 67.435C692.751 67.5123 692.644 67.5702 692.528 67.6054C692.412 67.6406 692.29 67.6524 692.17 67.64H690.09C689.48 67.64 689.17 67.3 689.17 66.64V63.31L690.22 63.28Z" fill="#999999"/>
<path id="Vector_29" d="M35.79 41.36C35.8332 41.3648 35.8769 41.3598 35.9179 41.3454C35.9589 41.331 35.9961 41.3075 36.0268 41.2768C36.0575 41.2461 36.081 41.2089 36.0954 41.1679C36.1098 41.1269 36.1148 41.0832 36.11 41.04V39.33H28.37V43H26.81V33.23H37.67V41.83C37.67 42.5 37.3 42.83 36.58 42.83H34.86L34.54 41.35L35.79 41.36ZM32.9 24.87C33.32 24.92 33.35 25.08 32.98 25.34V26.51H39.54V27.76H33V28.76H38.63V30H33V31H41.13V32.25H23.29V31H31.42V30H25.79V28.78H31.42V27.78H24.86V26.51H31.42V24.87H32.9ZM36.11 38.08V36.83H28.37V38.08H36.11ZM36.11 35.58V34.48H28.37V35.58H36.11ZM43.68 31.51C46.3555 31.1446 48.8836 30.067 51 28.39H44.9V26.9H51.23V25H52.72C53.13 25.05 53.16 25.21 52.8 25.47V26.9H59.28V28.39H53.22C54.78 29.79 57.3033 30.79 60.79 31.39L60.25 33C57.5517 32.5102 55.0084 31.386 52.83 29.72V33.23H51.26V29.72C49.3152 31.469 46.9469 32.679 44.39 33.23L43.68 31.51ZM60.56 41.51C59.1234 40.5902 57.9078 39.3643 57 37.92V43H55.4V37.84C54.5803 39.445 53.3393 40.7966 51.81 41.75L51 40.26C52.7351 39.3345 54.1347 37.8859 55 36.12H52.43V34.64H55.43V32.37H56.92C57.44 32.48 57.46 32.63 57 32.84V34.64H60.59V36.12H57.2C58.1696 37.7088 59.5521 39.0048 61.2 39.87L60.56 41.51ZM48.68 43H47.12V38.62C46.363 39.8937 45.3397 40.9887 44.12 41.83L43.26 40.34C44.8802 39.3148 46.1769 37.8517 47 36.12H43.76V34.64H47.12V32.64H48.61C49.02 32.64 49.05 32.84 48.68 33.11V34.67H51.58V36.15H48.68V37C49.7277 37.365 50.6881 37.9439 51.5 38.7L50.5 40.11C49.964 39.5176 49.3598 38.9906 48.7 38.54L48.68 43ZM76.18 37.61C77.5522 38.8744 79.1061 39.9261 80.79 40.73L79.86 42.37C77.9972 41.4733 76.3052 40.2584 74.86 38.78L76.18 37.61ZM69.39 39C68.2726 40.4651 66.8925 41.7096 65.32 42.67L64.15 41.2C65.7106 40.3133 67.0721 39.1152 68.15 37.68L69.63 38.54C69.88 38.75 69.8 38.91 69.39 39ZM66.18 37V37.78H64.62V26.51H66.11C66.52 26.51 66.55 26.72 66.18 26.98V35.5H80.56V37H73.29V43H71.5V37H66.18ZM69.62 33.25H76.42V31.75H69.62V33.25ZM69.62 30.52H76.42V29.25H69.62V30.52ZM69.62 28.02H76.42V26.75H69.62V28.02ZM68.06 34.5V25.5H78V34.5H68.06ZM93 30.18C92.12 35.3933 91.0533 38.6233 89.8 39.87C89.533 40.1693 89.2087 40.4119 88.8463 40.5837C88.4839 40.7555 88.0907 40.8528 87.69 40.87C87.3256 40.8977 86.9593 40.8489 86.6149 40.7266C86.2705 40.6043 85.9554 40.4113 85.69 40.16C85.0736 39.5497 84.5888 38.8196 84.2654 38.0147C83.9421 37.2097 83.7871 36.3471 83.81 35.48C83.7928 34.3899 83.9986 33.3077 84.4147 32.3C84.8309 31.2923 85.4486 30.3803 86.23 29.62C87.0796 28.7603 88.0967 28.0842 89.2182 27.6335C90.3397 27.1828 91.5418 26.9672 92.75 27C93.7336 26.944 94.7183 27.0879 95.6447 27.423C96.5711 27.7582 97.42 28.2776 98.14 28.95C99.5093 30.3254 100.29 32.1791 100.318 34.1197C100.346 36.0602 99.6191 37.9357 98.29 39.35C97.0949 40.4342 95.7213 41.3037 94.23 41.92L92.59 40.28C94.1975 39.8318 95.6727 39.0015 96.89 37.86C97.3688 37.3944 97.7471 36.8356 98.0016 36.2182C98.2562 35.6008 98.3815 34.9377 98.37 34.27C98.3937 33.5045 98.2604 32.7423 97.9784 32.0303C97.6963 31.3183 97.2715 30.6716 96.73 30.13C95.64 29.03 93.92 28.54 91.57 28.64L92.98 29.35C93.61 29.59 93.61 29.87 93 30.18ZM91.2 28.7C89.8674 29.0003 88.649 29.6772 87.69 30.65C87.0328 31.3026 86.5163 32.083 86.1723 32.9429C85.8283 33.8029 85.6642 34.7242 85.69 35.65C85.6665 36.2038 85.7584 36.7565 85.9598 37.2729C86.1612 37.7894 86.4678 38.2583 86.86 38.65C86.9544 38.7353 87.0651 38.8005 87.1854 38.8418C87.3057 38.883 87.4332 38.8994 87.56 38.89C87.9502 38.8377 88.3068 38.6415 88.56 38.34C89.74 37.12 90.6133 33.9067 91.18 28.7H91.2ZM110.34 41.51C112.48 40.37 113.55 38.41 113.55 35.65V26.65L115.19 26.96L119.41 25.63L120.58 27.2C120.68 27.51 120.5 27.56 120.03 27.35L115.11 28.29V31.65H121.28V33.13H118.94V42.9H117.38V33.15H115.11V36.15C115.164 37.5456 114.824 38.9281 114.129 40.1395C113.434 41.3509 112.412 42.3422 111.18 43L110.34 41.51ZM108.84 43H107.28V38.31C106.558 39.5269 105.631 40.6096 104.54 41.51L103.37 40.11C104.819 39.0514 106.052 37.724 107 36.2H103.72V34.72H107.24V33H103.24V31.51H108.71L109.57 28.7H103.79V27.22H107.23V25H108.71C109.13 25 109.16 25.21 108.79 25.47V27.19H112.23V28.7H111.23L110.14 31.51H112.64V33H108.81V34.72H112.25V36.2H108.81V36.9C109.882 37.3027 110.892 37.8548 111.81 38.54L111 40.11C110.368 39.4545 109.66 38.877 108.89 38.39L108.84 43ZM105.72 31.36C105.509 30.6282 105.221 29.9209 104.86 29.25L106.34 28.78C106.749 29.4368 107.065 30.1468 107.28 30.89L105.72 31.36ZM138.45 33.54H133.37V35.26H138.45V33.54ZM136.34 36.75H134.93V37.53C134.93 40.76 133.09 42.66 129.39 43.23L128.92 41.59C131.893 41.23 133.377 39.8233 133.37 37.37V36.75H131.81V25.81H140V36.75H137.9V40.65C137.9 41.07 138.09 41.28 138.45 41.28H139.23C139.49 41.28 139.65 41.02 139.7 40.5L139.86 39.17L141.42 39.64L141.18 41.43C141.181 41.618 141.143 41.8042 141.067 41.9762C140.99 42.1481 140.879 42.3021 140.739 42.4277C140.599 42.5534 140.434 42.648 140.255 42.7053C140.076 42.7626 139.887 42.7812 139.7 42.76H137.75C136.81 42.76 136.34 42.32 136.34 41.43V36.75ZM133.34 32.06H138.42V30.42H133.34V32.06ZM133.34 28.93H138.42V27.29H133.34V28.93ZM127.72 35.93C129.061 36.6088 130.297 37.4778 131.39 38.51L130.29 40.15C129.431 39.1565 128.461 38.2641 127.4 37.49C126.981 39.6191 125.818 41.5296 124.12 42.88L123 41.43C124.108 40.5347 124.985 39.3859 125.556 38.0805C126.127 36.7751 126.375 35.3516 126.28 33.93H123.28V32.45H126.28V29.64H123.78V28.15H126.28V25H127.76C128.18 25 128.21 25.21 127.84 25.47V28.12H130.58V29.61H127.9V32.42H131V33.9H127.79C127.82 34.77 127.8 35.42 127.75 35.89L127.72 35.93ZM147.79 32.18C148.732 33.3875 149.255 34.8688 149.28 36.4C149.28 38.4 148.68 39.4 147.48 39.4H146.54L146.23 37.84H147C147.52 37.84 147.76 37.29 147.71 36.2C147.683 34.7496 147.189 33.3465 146.3 32.2L147.86 27.12H145.44V42.76H143.88V25.89H148.25L148.57 25.5L149.89 26.67L149.58 26.98L147.79 32.18ZM159.12 36.55H158.34C157.507 40.35 154.72 42.54 149.98 43.12L149.51 41.63C153.58 41.32 156.02 39.63 156.86 36.55H155.76C154.88 38.74 153 40.07 150.14 40.55L149.67 39.22C152.07 38.7 153.553 37.8133 154.12 36.56H152.9C152.101 37.3329 151.142 37.9202 150.09 38.28L149.47 36.95C150.232 36.7438 150.937 36.3665 151.532 35.8466C152.126 35.3267 152.594 34.678 152.9 33.95H149.39V32.68H161.11V33.93H154.54C154.335 34.4034 154.073 34.85 153.76 35.26H160.64L160.48 40.18C160.48 41.85 159.83 42.68 158.68 42.68H157.12L156.89 41.2H158.22C158.68 41.2 158.94 40.89 159 40.26L159.12 36.55ZM152.48 30.46H157.79V29.09H152.48V30.46ZM152.48 27.88H157.79V26.59H152.48V27.88ZM159.12 25.38V31.71H151.12V25.34L159.12 25.38ZM172.4 29.38H174.51V25.26H176C176.41 25.26 176.44 25.47 176.08 25.73V29.33H180.29V30.81H176.08V34.56H180.08V36H176.08V40.61H181.23V42.1H169.31V40.65H174.54V36H170.72V34.56H174.54V30.81H172C171.587 31.9309 171.008 32.9828 170.28 33.93L168.95 32.93C170.351 31.0459 171.261 28.8432 171.6 26.52L173.09 26.84C173.51 26.99 173.51 27.15 173.09 27.3L172.4 29.38ZM165.79 25H167.28C167.69 25 167.72 25.21 167.36 25.47V42.84H165.79V25ZM168.79 28.2C169.271 28.8487 169.665 29.5582 169.96 30.31L168.71 31.17C168.403 30.4143 168.028 29.688 167.59 29L168.79 28.2ZM165.35 29.06C165.72 29.16 165.72 29.32 165.35 29.53C165.265 31.1119 165.03 32.6822 164.65 34.22L163.17 33.75C163.628 32.1499 163.864 30.4944 163.87 28.83L165.35 29.06ZM198.17 33.59V42.65H196.6V41.9H189.6V42.9H188V35.81C186.615 36.5514 185.149 37.1286 183.63 37.53L183.08 36.12C184.79 35.6623 186.441 35.008 188 34.17V33.62H189.09C190.078 33.0716 191.02 32.4463 191.91 31.75H183.7V30.26H190.58V28.39H185.74V26.9H190.58V25H192C192.42 25 192.45 25.21 192.08 25.47V26.87H195.83V28.2C196.46 27.52 197.08 26.77 197.71 25.94L198.8 26.64C199.17 26.9 199.11 27.06 198.64 27.11C197.722 28.2259 196.719 29.269 195.64 30.23H201.03V31.72H194.03C193.251 32.4123 192.414 33.0378 191.53 33.59H198.17ZM193.64 30.23C194.382 29.6523 195.087 29.0277 195.75 28.36H192.15V30.23H193.64ZM189.54 37H196.54V34.87H189.54V37ZM189.54 40.67H196.54V38.23H189.54V40.67ZM216.73 36.92C217.597 34.8971 218.049 32.7208 218.06 30.52H215.4C215.413 32.7141 215.866 34.8833 216.73 36.9V36.92ZM219.62 30.52C219.644 33.2371 219.002 35.9187 217.75 38.33C218.721 39.4549 219.917 40.3644 221.26 41L220.26 42.72C218.901 41.9106 217.707 40.8521 216.74 39.6C215.185 41.1813 213.285 42.3824 211.19 43.11L210.41 41.55C213.123 40.4567 214.92 39.3367 215.8 38.19C214.953 36.5954 214.449 34.8411 214.32 33.04C214.085 33.6747 213.769 34.2764 213.38 34.83L212.05 33.83C213.703 31.2777 214.674 28.3443 214.87 25.31L216.51 25.7C216.82 25.91 216.74 26.07 216.27 26.17C216.117 27.1177 215.91 28.0559 215.65 28.98H221V30.5L219.62 30.52ZM212.36 26.77C212.089 27.4696 211.719 28.1264 211.26 28.72L210 28C210.455 27.251 210.847 26.4648 211.17 25.65L212.58 26.36C212.8 26.56 212.72 26.69 212.36 26.75V26.77ZM207.36 37.77C208.027 37.9584 208.678 38.1958 209.31 38.48C209.795 37.8594 210.137 37.1387 210.31 36.37H208.05C207.85 36.83 207.62 37.29 207.36 37.76V37.77ZM206.26 39.77L205 39C205.566 38.1443 206.086 37.2598 206.56 36.35H203.56V35.11H207C207.268 34.5502 207.505 33.976 207.71 33.39L209.19 33.78C209.4 33.99 209.32 34.12 208.96 34.17L208.49 35.11H213V36.36H211.83C211.603 37.3069 211.199 38.2025 210.64 39C211.148 39.2309 211.642 39.4914 212.12 39.78L211.42 41.03C210.92 40.7092 210.398 40.4219 209.86 40.17C208.367 41.5913 206.442 42.4715 204.39 42.67L203.84 41.27C205.542 41.1862 207.178 40.5862 208.53 39.55C207.96 39.29 207.38 39.05 206.81 38.85L206.26 39.77ZM207.82 25H209.07C209.49 25 209.52 25.21 209.15 25.47V28.83H213.15V30.08H209.87C210.62 30.9075 211.519 31.5861 212.52 32.08L211.66 33.41C210.707 32.8293 209.861 32.0884 209.16 31.22V33.1H207.83V31.59C206.876 32.7362 205.712 33.6899 204.4 34.4L203.4 33.15C204.91 32.4102 206.267 31.3925 207.4 30.15H203.8V28.86H207.86L207.82 25ZM205.64 28.59C205.287 27.848 204.81 27.1716 204.23 26.59L205.48 25.81C206.065 26.3876 206.543 27.0649 206.89 27.81L205.64 28.59ZM233 30.18C232.12 35.3933 231.053 38.6233 229.8 39.87C229.533 40.1693 229.209 40.4119 228.846 40.5837C228.484 40.7555 228.091 40.8528 227.69 40.87C227.334 40.8907 226.977 40.8384 226.642 40.7163C226.306 40.5942 226 40.4049 225.74 40.16C225.124 39.5497 224.639 38.8196 224.315 38.0147C223.992 37.2097 223.837 36.3471 223.86 35.48C223.843 34.3899 224.049 33.3077 224.465 32.3C224.881 31.2923 225.499 30.3803 226.28 29.62C227.124 28.7665 228.133 28.094 229.245 27.6435C230.358 27.1931 231.55 26.9741 232.75 27C233.734 26.944 234.718 27.0879 235.645 27.423C236.571 27.7582 237.42 28.2776 238.14 28.95C239.509 30.3254 240.29 32.1791 240.318 34.1197C240.346 36.0602 239.619 37.9357 238.29 39.35C237.095 40.4342 235.721 41.3037 234.23 41.92L232.59 40.28C234.197 39.8318 235.673 39.0015 236.89 37.86C237.369 37.3944 237.747 36.8356 238.002 36.2182C238.256 35.6008 238.382 34.9377 238.37 34.27C238.394 33.5045 238.26 32.7423 237.978 32.0303C237.696 31.3183 237.271 30.6716 236.73 30.13C235.64 29.03 233.92 28.54 231.57 28.64L232.98 29.35C233.61 29.59 233.61 29.87 233 30.18ZM231.2 28.7C229.867 29.0003 228.649 29.6772 227.69 30.65C227.033 31.3026 226.516 32.083 226.172 32.9429C225.828 33.8029 225.664 34.7242 225.69 35.65C225.667 36.2038 225.758 36.7565 225.96 37.2729C226.161 37.7894 226.468 38.2583 226.86 38.65C226.954 38.7353 227.065 38.8005 227.185 38.8418C227.306 38.883 227.433 38.8994 227.56 38.89C227.95 38.8377 228.307 38.6415 228.56 38.34C229.74 37.12 230.613 33.9067 231.18 28.7H231.2ZM248.78 31.83C250.697 29.8827 252.076 27.4705 252.78 24.83L254.34 25.3C254.6 25.51 254.55 25.64 254.18 25.69C253.77 26.69 253.35 27.69 252.93 28.58H255.28C255.786 27.5403 256.23 26.4718 256.61 25.38L258.09 25.93C258.3 26.14 258.22 26.27 257.86 26.32C257.49 27.15 257.13 27.91 256.76 28.58H260.76V30H256.76V32.42H259.96V33.9H256.76V36.4H259.96V37.89H256.76V40.78H261.21V42.26H252.62V43H251V31.67C250.647 32.1695 250.256 32.6409 249.83 33.08L248.78 31.83ZM244.88 42.83L244.56 41.35H245.89C245.933 41.3551 245.976 41.3503 246.017 41.3358C246.058 41.3214 246.094 41.2978 246.124 41.2668C246.154 41.2358 246.177 41.1983 246.19 41.1573C246.203 41.1162 246.206 41.0726 246.2 41.03V36.2L244.2 36.67C244.15 37.03 244.02 37.11 243.81 36.9L243.5 35.11L246.23 34.56V30.42H243.81V28.93H246.23V25H247.72C248.14 25.05 248.16 25.21 247.8 25.47V28.98H249.8V30.47H247.8V34.3L249.8 33.75L250.03 35.16L247.77 35.86V41.64C247.793 41.8096 247.777 41.9822 247.722 42.1445C247.668 42.3067 247.576 42.4541 247.455 42.5751C247.334 42.6961 247.187 42.7875 247.024 42.8422C246.862 42.8968 246.69 42.9132 246.52 42.89L244.88 42.83ZM252.61 40.83H255.19V37.92H252.61V40.83ZM252.61 36.45H255.19V33.95H252.61V36.45ZM252.61 32.45H255.19V30H252.61V32.45ZM278.86 27.14L279.1 26.83L280.35 27.83L280.11 28.07C279.176 29.9313 277.803 31.5375 276.11 32.75L276.89 32.99C277.25 33.14 277.23 33.3 276.81 33.46C276.724 33.7867 276.593 34.0998 276.42 34.39H279.78L280.01 34.08L281.42 35.08L281.11 35.39C279.443 39.8167 276.057 42.3167 270.95 42.89L270.33 41.4C272.4 41.2567 274.394 40.5665 276.11 39.4C275.433 38.717 274.701 38.0915 273.92 37.53C273.092 38.1868 272.168 38.7128 271.18 39.09L270.48 37.68C271.607 37.2942 272.638 36.669 273.501 35.8474C274.364 35.0258 275.039 34.0271 275.48 32.92C274.238 33.8639 272.793 34.5043 271.26 34.79L270.56 33.39C272.123 33.1471 273.628 32.6183 275 31.83C274.466 31.1862 273.835 30.6295 273.13 30.18C272.791 30.5246 272.423 30.8391 272.03 31.12L271 30C272.54 28.8017 273.683 27.1674 274.28 25.31L275.69 25.78C276.05 25.94 276.03 26.09 275.61 26.25C275.55 26.588 275.417 26.9088 275.22 27.19L278.86 27.14ZM268.24 30.14H270.81V31.63H268.24V33.58C269.362 34.091 270.38 34.8065 271.24 35.69L270.24 37.1C269.623 36.4648 268.972 35.8639 268.29 35.3V42.88H266.72V35.18C266.136 36.6699 265.262 38.0294 264.15 39.18L262.97 37.69C264.759 36.1086 266.017 34.0131 266.57 31.69H263.52V30.18H266.72V27.61L263.91 28L263.52 26.51C265.712 26.282 267.88 25.8638 270 25.26L270.86 26.43C271.07 26.75 270.94 26.85 270.47 26.75C269.74 26.96 269.01 27.14 268.29 27.29L268.24 30.14ZM273.94 29.21C274.752 29.6396 275.51 30.1632 276.2 30.77C276.982 30.0663 277.656 29.2508 278.2 28.35H274.6C274.418 28.6814 274.189 28.9845 273.92 29.25L273.94 29.21ZM274.8 36.63C275.693 37.1699 276.53 37.7963 277.3 38.5C278.213 37.7325 278.903 36.7346 279.3 35.61H275.71C275.44 35.9968 275.128 36.3523 274.78 36.67L274.8 36.63ZM286.8 29.29C287.524 27.893 288.504 26.6446 289.69 25.61L290.55 26.39C289.433 27.3564 288.508 28.5231 287.82 29.83C287.212 31.1799 286.918 32.6501 286.96 34.13C286.947 35.5106 287.24 36.8769 287.82 38.13C288.522 39.5571 289.447 40.8634 290.56 42L289.7 42.86C288.549 41.6209 287.576 40.2275 286.81 38.72C286.136 37.3058 285.794 35.7564 285.81 34.19C285.769 32.515 286.111 30.8527 286.81 29.33L286.8 29.29ZM297.9 41.9H296.11V26.83H308.37V41.59H306.58V40.5H297.9V41.9ZM306.58 32.76V28.31H297.9V32.76H306.58ZM306.58 39.01V34.25H297.9V39L306.58 39.01ZM321.34 35.81H318.34C318.148 37.202 317.675 38.5404 316.95 39.7438C316.224 40.9472 315.261 41.9904 314.12 42.81L313.34 41.33C314.484 40.5086 315.419 39.4301 316.071 38.1813C316.722 36.9325 317.071 35.5483 317.09 34.14L317.25 31.72H316.15V32.72H314.59V26H322.48V32.41H321V31.71H318.73L318.58 34.29H322.95L322.56 40.46C322.46 41.71 321.94 42.33 321 42.33H318.89L318.66 40.85H320.38C320.84 40.85 321.1 40.59 321.16 40.07L321.34 35.81ZM329.78 41.2C329.78 42.09 329.36 42.53 328.53 42.53H326.81L326.5 41H328C328.16 41 328.24 40.93 328.24 40.77V25.77H329.72C330.14 25.82 330.16 25.98 329.8 26.24L329.78 41.2ZM326 27.68C326.41 27.74 326.44 27.89 326.08 28.15V38.86H324.51V27.68H326ZM321 30.5V27.29H316.23V30.5H321ZM337.56 38.7C336.794 40.2075 335.821 41.6009 334.67 42.84L333.81 41.98C334.919 40.8556 335.844 39.563 336.55 38.15C337.125 36.8954 337.419 35.5301 337.41 34.15C337.447 32.6705 337.154 31.2013 336.55 29.85C335.859 28.5429 334.929 27.3763 333.81 26.41L334.67 25.63C335.859 26.6618 336.839 27.9108 337.56 29.31C338.256 30.8266 338.598 32.4817 338.56 34.15C338.563 35.7271 338.204 37.2838 337.51 38.7H337.56Z" fill="#757575"/>
</g>
<rect x="2" y="2" width="714" height="440" stroke="black" stroke-width="4"/>
</g>
<defs>
<clipPath id="clip0_1_2019">
<rect width="718" height="444" fill="white"/>
</clipPath>
</defs>
</svg>
