<svg width="718" height="444" viewBox="0 0 718 444" fill="none" xmlns="http://www.w3.org/2000/svg">
<rect width="718" height="444" fill="#1E1E1E"/>
<g clip-path="url(#clip0_0_1)">
<path d="M0 0H718V444H0V0Z" fill="white"/>
<path d="M181.5 91.5V369.5" stroke="#CCCCCC" stroke-miterlimit="10"/>
<path d="M302.5 91.5V369.5" stroke="#CCCCCC" stroke-miterlimit="10"/>
<path d="M424.5 91.5V369.5" stroke="#CCCCCC" stroke-miterlimit="10"/>
<path d="M545.5 91.5V369.5" stroke="#CCCCCC" stroke-miterlimit="10"/>
<path d="M666.5 91.5V369.5" stroke="#CCCCCC" stroke-miterlimit="10"/>
<path d="M88.5 369.5H695.5" stroke="#333333" stroke-miterlimit="10"/>
<path d="M88.5 300.5H695.5" stroke="#CCCCCC" stroke-miterlimit="10"/>
<path d="M88.5 230.5H695.5" stroke="#CCCCCC" stroke-miterlimit="10"/>
<path d="M88.5 161.5H695.5" stroke="#CCCCCC" stroke-miterlimit="10"/>
<path d="M88.5 91.5H695.5" stroke="#CCCCCC" stroke-miterlimit="10"/>
<path d="M88.2 369.8H88.8064H89.4128H90.0192H90.6255H91.2319H91.8383H92.4447H93.0511H93.6575H94.2639H94.8703H95.4766H96.083H96.6894H97.2958H97.9022H98.5086H99.115H99.7214H100.328H100.934H101.541H102.147H102.753H103.36H103.966H104.572H105.179H105.785H106.392H106.998H107.604H108.211H108.817H109.424H110.03H110.636H111.243H111.849H112.455H113.062H113.668H114.275H114.881H115.487L116.094 369.73L116.7 369.8L117.307 369.73L117.913 369.8H118.519H119.126H119.732H120.339H120.945H121.551H122.158H122.764H123.37H123.977H124.583H125.19L125.796 369.73L126.402 369.8H127.009H127.615H128.222H128.828H129.434H130.041H130.647L131.253 369.73L131.86 369.8H132.466H133.073L133.679 369.452L134.285 369.8L134.892 369.591L135.498 369.313L136.105 369.73H136.711L137.317 369.661L137.924 369.8L138.53 369.661L139.137 369.73L139.743 369.661H140.349L140.956 369.8L141.562 369.313L142.168 369.661L142.775 369.73H143.381L143.988 369.8L144.594 369.591L145.2 369.73H145.807H146.413L147.02 369.8H147.626H148.232H148.839H149.445H150.051H150.658H151.264H151.871H152.477H153.083L153.69 369.73L154.296 369.8H154.903H155.509H156.115H156.722H157.328H157.935H158.541H159.147L159.754 369.591L160.36 368.617L160.966 369.661L161.573 369.8L162.179 369.73L162.786 369.661L163.392 369.73L163.998 369.8L164.605 369.73L165.211 369.591L165.818 369.73H166.424H167.03L167.637 369.8H168.243L168.85 369.73L169.456 369.8H170.062H170.669H171.275H171.881H172.488H173.094H173.701H174.307H174.913H175.52H176.126H176.733H177.339H177.945H178.552H179.158H179.764H180.371H180.977H181.584H182.19H182.796H183.403H184.009H184.616H185.222H185.828H186.435H187.041H187.648H188.254H188.86H189.467H190.073H190.679H191.286H191.892H192.499H193.105H193.711H194.318H194.924H195.531H196.137H196.743H197.35H197.956H198.562H199.169H199.775H200.382L200.988 369.73L201.594 369.8H202.201H202.807L203.414 369.73L204.02 369.8L204.626 369.73L205.233 369.661H205.839L206.446 369.8H207.052H207.658L208.265 369.591H208.871L209.477 369.522L210.084 369.73L210.69 369.8H211.297H211.903L212.509 369.73H213.116L213.722 369.452L214.329 369.8H214.935L215.541 369.73H216.148H216.754L217.36 369.8H217.967H218.573L219.18 369.73L219.786 369.8L220.392 369.73H220.999H221.605L222.212 369.8H222.818H223.424H224.031H224.637H225.244H225.85H226.456H227.063H227.669H228.275H228.882H229.488H230.095H230.701H231.307H231.914H232.52H233.127H233.733H234.339H234.946H235.552H236.158H236.765H237.371H237.978H238.584H239.19H239.797H240.403H241.01H241.616H242.222H242.829H243.435H244.042H244.648H245.254H245.861H246.467L247.073 369.73L247.68 369.8H248.286H248.893H249.499H250.105H250.712H251.318H251.925H252.531H253.137H253.744L254.35 369.73L254.956 369.8H255.563H256.169H256.776H257.382H257.988H258.595H259.201H259.808H260.414H261.02H261.627H262.233H262.84H263.446H264.052H264.659H265.265H265.871H266.478L267.084 369.73L267.691 369.8H268.297H268.903H269.51H270.116L270.723 369.522L271.329 369.661L271.935 369.8L272.542 369.383L273.148 369.73L273.754 369.243L274.361 369.383L274.967 369.174L275.574 369.035L276.18 368.339L276.786 368.2L277.393 367.991L277.999 368.617L278.606 368.826L279.212 368.617L279.818 368.826L280.425 369.243L281.031 369.313L281.638 369.591L282.244 369.452L282.85 369.313L283.457 369.452L284.063 369.313L284.669 369.661L285.276 369.522H285.882L286.489 369.591L287.095 369.73H287.701L288.308 369.661H288.914L289.521 369.73H290.127L290.733 369.591L291.34 369.313L291.946 369.661H292.552L293.159 369.8L293.765 369.73L294.372 369.8L294.978 369.522L295.584 369.591L296.191 369.313L296.797 369.174H297.404L298.01 369.243L298.616 368.687L299.223 368.826L299.829 368.965L300.436 369.243L301.042 369.383H301.648L302.255 369.313L302.861 369.174L303.467 368.061L304.074 368.2L304.68 367.852L305.287 367.156L305.893 368.2L306.499 367.574L307.106 367.921L307.712 367.574L308.319 368.896L308.925 367.852L309.531 368.13L310.138 368.826L310.744 369.035L311.35 368.687L311.957 368.269L312.563 368.617L313.17 368.061L313.776 368.548L314.382 368.269L314.989 369.174L315.595 369.383L316.202 369.243L316.808 368.756L317.414 369.73L318.021 369.243L318.627 368.687L319.234 369.8L319.84 369.661L320.446 369.73H321.053L321.659 369.591L322.265 369.522L322.872 369.452L323.478 369.522H324.085L324.691 369.383L325.297 369.591L325.904 369.8L326.51 369.591L327.117 369.8H327.723H328.329H328.936H329.542L330.148 369.591L330.755 368.965L331.361 369.591H331.968L332.574 369.661L333.18 369.591L333.787 369.73L334.393 369.661L335 369.591L335.606 369.73H336.212H336.819L337.425 369.8L338.032 369.73L338.638 369.8L339.244 369.73L339.851 369.8H340.457H341.063L341.67 369.73H342.276L342.883 369.661L343.489 369.591L344.095 369.8L344.702 369.73L345.308 369.8H345.915L346.521 369.661L347.127 369.73L347.734 369.8L348.34 369.522L348.947 369.591H349.553L350.159 368.2L350.766 368.13L351.372 365.695L351.978 367.087L352.585 368.478L353.191 367.921L353.798 368.13L354.404 367.713L355.01 367.504L355.617 367.713L356.223 367.852L356.83 367.434L357.436 367.782L358.042 367.574L358.649 366.808L359.255 367.434L359.861 367.574L360.468 367.921L361.074 367.434L361.681 368.13L362.287 368.617L362.893 368.478L363.5 367.713L364.106 366.808L364.713 366.669L365.319 366.808L365.925 366.46L366.532 368.756L367.138 367.852L367.744 366.113L368.351 367.782L368.957 366.182L369.564 367.574L370.17 367.852L370.776 368.339L371.383 367.852L371.989 367.156L372.596 367.504L373.202 368.548L373.808 368.061L374.415 367.991L375.021 367.921L375.628 369.104L376.234 368.339L376.84 369.035L377.447 368.478L378.053 368.269L378.659 369.104L379.266 367.574L379.872 368.269L380.479 368.965L381.085 368.409L381.691 368.826L382.298 369.035L382.904 369.243L383.511 369.174H384.117L384.723 369.452H385.33L385.936 369.174H386.543L387.149 369.73L387.755 369.8L388.362 369.035H388.968L389.574 369.313L390.181 369.522L390.787 369.313L391.394 369.383L392 369.73L392.606 369.452L393.213 369.522L393.819 369.73H394.426L395.032 369.591L395.638 369.8L396.245 369.661L396.851 369.522L397.458 369.661L398.064 369.73H398.67L399.277 369.8H399.883H400.489L401.096 369.661H401.702L402.309 369.452L402.915 369.661H403.521L404.128 369.8H404.734H405.34L405.947 369.73L406.553 369.8L407.16 369.661L407.766 369.8H408.372H408.979L409.585 369.661L410.192 369.8H410.798L411.404 369.73L412.011 369.8H412.617H413.224H413.83H414.436H415.043H415.649L416.255 369.73L416.862 369.661L417.468 369.8L418.075 369.591H418.681L419.287 368.896L419.894 369.383L420.5 369.452L421.107 369.383L421.713 369.661L422.319 369.522L422.926 369.243L423.532 369.452L424.139 369.522L424.745 369.383L425.351 368.687L425.958 368.965L426.564 369.104L427.17 368.756L427.777 368.478L428.383 369.035L428.99 368.478L429.596 369.243H430.202L430.809 367.643L431.415 367.574L432.022 367.017H432.628L433.234 365.904L433.841 367.713L434.447 367.782L435.054 367.504L435.66 363.886L436.266 364.999L436.873 363.469L437.479 366.182L438.085 365.765L438.692 364.86L439.298 364.304L439.905 363.469L440.511 362.703L441.117 364.443L441.724 364.999L442.33 365.208L442.937 365.626L443.543 364.791L444.149 364.512L444.756 366.043H445.362H445.968L446.575 367.226L447.181 366.391H447.788L448.394 368.061L449 367.643L449.607 367.295L450.213 367.991H450.82L451.426 368.896L452.032 368.269L452.639 367.991L453.245 367.156L453.851 368.478L454.458 368.13L455.064 369.313H455.671L456.277 368.756L456.883 368.409L457.49 369.104L458.096 369.522L458.703 368.617L459.309 369.174L459.915 369.452L460.522 369.383L461.128 368.617L461.735 368.339L462.341 368.617H462.947L463.554 369.313L464.16 369.452L464.766 369.104L465.373 369.383L465.979 368.826L466.586 368.687L467.192 368.826L467.798 368.896L468.405 369.522L469.011 368.687L469.618 369.383L470.224 369.104L470.83 369.243L471.437 368.965L472.043 369.174H472.65H473.256L473.862 369.313L474.469 369.243L475.075 369.383L475.681 369.452L476.288 369.383L476.894 369.591H477.501H478.107L478.713 369.522L479.32 369.452L479.926 369.383L480.533 369.591L481.139 369.522L481.745 369.452L482.352 369.104L482.958 369.313L483.564 369.383H484.171L484.777 369.661L485.384 369.73L485.99 369.313L486.596 369.661L487.203 369.8L487.809 369.452H488.416L489.022 369.591L489.628 369.73L490.235 368.756L490.841 369.73H491.447L492.054 369.8H492.66L493.267 369.73L493.873 369.8H494.479H495.086H495.692H496.299H496.905H497.511H498.118L498.724 369.73L499.331 369.8L499.937 369.661L500.543 369.8H501.15H501.756H502.362H502.969H503.575H504.182H504.788H505.394H506.001H506.607H507.214H507.82H508.426H509.033H509.639H510.246H510.852H511.458H512.065H512.671H513.277H513.884H514.49H515.097H515.703H516.309H516.916H517.522H518.129H518.735H519.341H519.948L520.554 369.73L521.16 369.8H521.767H522.373H522.98H523.586L524.192 369.661L524.799 369.383H525.405L526.012 367.991L526.618 367.226L527.224 366.878L527.831 367.156L528.437 366.182L529.044 361.521L529.65 361.729L530.256 354.006L530.863 358.111L531.469 359.016L532.075 362.912L532.682 351.015L533.288 353.589L533.895 351.989L534.501 354.911L535.107 348.58L535.714 354.354L536.32 357.903L536.927 343.222L537.533 350.876L538.139 349.415L538.746 347.814L539.352 344.057L539.958 351.85L540.565 358.529L541.171 345.518L541.778 350.319L542.384 346.423L542.99 351.85L543.597 348.788L544.203 357.694L544.81 359.503L545.416 353.589L546.022 351.641L546.629 354.076L547.235 353.102L547.841 362.216L548.448 351.293L549.054 360.616L549.661 350.806L550.267 350.736L550.873 350.945L551.48 354.702L552.086 354.285L552.693 353.937L553.299 359.572L553.905 354.215L554.512 350.945L555.118 360.268L555.725 349.484L556.331 354.354L556.937 357.485L557.544 357.624L558.15 343.918L558.756 349.067L559.363 351.154L559.969 349.275L560.576 349.345L561.182 352.128L561.788 360.616L562.395 345.797L563.001 349.415L563.608 347.953L564.214 349.484L564.82 349.345L565.427 352.337L566.033 359.92L566.64 347.119L567.246 352.198L567.852 352.406L568.459 351.571L569.065 352.893L569.671 355.885L570.278 361.034L570.884 365.139L571.491 348.44L572.097 351.363L572.703 347.884L573.31 352.267L573.916 354.494L574.523 360.616L575.129 344.683L575.735 351.989L576.342 351.711L576.948 352.824L577.554 352.058L578.161 353.937L578.767 362.147L579.374 343.988L579.98 350.041L580.586 349.693L581.193 348.44L581.799 349.971L582.406 351.154L583.012 360.268L583.618 340.509L584.225 344.127L584.831 346.771L585.437 348.162L586.044 351.293L586.65 356.581L587.257 361.66L587.863 343.501L588.469 348.023L589.076 351.084L589.682 351.571L590.289 350.11L590.895 354.633L591.501 361.312L592.108 342.944L592.714 346.701L593.321 349.345L593.927 350.249L594.533 361.799L595.14 356.024L595.746 363.747L596.352 351.641L596.959 362.982L597.565 361.034L598.172 361.103L598.778 346.075L599.384 352.476L599.991 360.547L600.597 348.023L601.204 354.076L601.81 354.215L602.416 355.815L603.023 355.05L603.629 357.972L604.236 362.008L604.842 352.615L605.448 352.406L606.055 354.424L606.661 354.215L607.267 354.841L607.874 359.085L608.48 362.425L609.087 350.11L609.693 356.442L610.299 356.233L610.906 357.694L611.512 356.65L612.119 361.66L612.725 363.19L613.331 353.589L613.938 356.372L614.544 357.555L615.15 355.607L615.757 358.807L616.363 361.729L616.97 364.373L617.576 354.424L618.182 358.111L618.789 358.738L619.395 357.416L620.002 360.129L620.608 362.634L621.214 367.087L621.821 357.485L622.427 360.06L623.033 361.799L623.64 360.477L624.246 360.755L624.853 362.008L625.459 365.695L626.065 356.233L626.672 358.807L627.278 357.764L627.885 358.529L628.491 357.694L629.097 359.155L629.704 362.355L630.31 347.953L630.917 349.206L631.523 348.649L632.129 349.971L632.736 348.649L633.342 351.711L633.948 357.277L634.555 329.307L635.161 331.395L635.768 332.299L636.374 327.707L636.98 324.298L637.587 335.152L638.193 351.85L638.8 299.251L639.406 309.479L640.012 310.244L640.619 310.174L641.225 304.4L641.832 319.845L642.438 343.083L643.044 337.865L643.651 233.155L644.257 281.927L644.863 286.727L645.47 281.301L646.076 296.19L646.683 334.734L647.289 244.635L647.895 264.881L648.502 276.778L649.108 273.926L649.715 262.724L650.321 280.048L650.927 324.576L651.534 214.509L652.14 240.112L652.747 243.174L653.353 260.289L653.959 219.866L654.566 253.262L655.172 312.122L655.778 172.137L656.385 194.888L656.991 201.985L657.598 293.615L658.204 180.695L658.81 204.907L659.417 299.112L660.023 222.231L660.63 139.089L661.236 125.174L661.842 143.751L662.449 144.655L663.055 183.339L663.661 288.954L664.268 141.385L664.874 151.961L665.481 195.028L666.087 212.491L666.693 215.97L667.3 235.799L667.906 313.514L668.513 203.029L669.119 232.111L669.725 252.357L670.332 279.074L670.938 280.883L671.544 292.502L672.151 324.368L672.757 268.151L673.364 286.727L673.97 304.052L674.576 305.234L675.183 302.312L675.789 313.862L676.396 341.622L677.002 287.423L677.608 306.626L678.215 313.653L678.821 319.776L679.428 317.549L680.034 330.699L680.64 348.58L681.247 339.744L681.853 308.226L682.459 320.75L683.066 331.325L683.672 348.023L684.279 336.891L684.885 345.727L685.491 336.613L686.098 343.083L686.704 347.188L687.311 351.223L687.917 350.876L688.523 356.024L689.13 361.938L689.736 339.535L690.343 345.518L690.949 345.031L691.555 351.154L692.162 350.18L692.768 354.076L693.374 361.034L693.981 361.868L694.587 334.734L695.194 344.127L695.8 349.136" stroke="#4285F4" stroke-width="2" stroke-miterlimit="10"/>
<path d="M379.922 418.8V410.206H382.891C383.557 410.206 384.068 410.248 384.422 410.331C384.911 410.446 385.328 410.649 385.672 410.941C386.13 411.326 386.469 411.821 386.688 412.425C386.917 413.019 387.031 413.696 387.031 414.456C387.031 415.112 386.953 415.691 386.797 416.191C386.651 416.691 386.458 417.107 386.219 417.441C385.979 417.774 385.714 418.034 385.422 418.222C385.141 418.409 384.802 418.555 384.406 418.659C384.01 418.753 383.552 418.8 383.031 418.8H379.922ZM381.062 417.784H382.891C383.464 417.784 383.911 417.732 384.234 417.628C384.557 417.524 384.812 417.373 385 417.175C385.271 416.915 385.479 416.555 385.625 416.097C385.781 415.639 385.859 415.086 385.859 414.441C385.859 413.545 385.708 412.857 385.406 412.378C385.115 411.889 384.76 411.56 384.344 411.394C384.031 411.279 383.542 411.222 382.875 411.222H381.062V417.784ZM392.859 418.034C392.464 418.368 392.083 418.602 391.719 418.737C391.365 418.873 390.979 418.941 390.562 418.941C389.875 418.941 389.349 418.774 388.984 418.441C388.62 418.107 388.438 417.68 388.438 417.159C388.438 416.857 388.505 416.581 388.641 416.331C388.776 416.071 388.958 415.868 389.188 415.722C389.417 415.566 389.672 415.451 389.953 415.378C390.151 415.316 390.464 415.258 390.891 415.206C391.734 415.112 392.359 414.993 392.766 414.847C392.766 414.701 392.766 414.612 392.766 414.581C392.766 414.144 392.667 413.836 392.469 413.659C392.198 413.43 391.797 413.316 391.266 413.316C390.776 413.316 390.411 413.404 390.172 413.581C389.932 413.748 389.755 414.05 389.641 414.487L388.609 414.347C388.703 413.909 388.859 413.555 389.078 413.284C389.297 413.014 389.609 412.805 390.016 412.659C390.422 412.514 390.891 412.441 391.422 412.441C391.953 412.441 392.385 412.503 392.719 412.628C393.052 412.753 393.297 412.909 393.453 413.097C393.609 413.284 393.719 413.524 393.781 413.816C393.812 413.993 393.828 414.316 393.828 414.784V416.191C393.828 417.17 393.849 417.79 393.891 418.05C393.943 418.31 394.036 418.56 394.172 418.8H393.062C392.958 418.581 392.891 418.326 392.859 418.034ZM392.766 415.675C392.38 415.831 391.807 415.967 391.047 416.081C390.609 416.144 390.302 416.217 390.125 416.3C389.948 416.373 389.807 416.482 389.703 416.628C389.609 416.774 389.562 416.941 389.562 417.128C389.562 417.409 389.667 417.644 389.875 417.831C390.094 418.019 390.406 418.112 390.812 418.112C391.219 418.112 391.578 418.024 391.891 417.847C392.214 417.67 392.448 417.425 392.594 417.112C392.708 416.873 392.766 416.524 392.766 416.066V415.675ZM398.094 417.862L398.25 418.784C397.948 418.847 397.682 418.878 397.453 418.878C397.068 418.878 396.771 418.821 396.562 418.706C396.354 418.581 396.203 418.42 396.109 418.222C396.026 418.024 395.984 417.607 395.984 416.972V413.394H395.219V412.581H395.984V411.034L397.031 410.409V412.581H398.094V413.394H397.031V417.034C397.031 417.336 397.047 417.529 397.078 417.612C397.12 417.696 397.182 417.764 397.266 417.816C397.349 417.868 397.469 417.894 397.625 417.894C397.75 417.894 397.906 417.883 398.094 417.862ZM403.047 416.8L404.141 416.925C403.974 417.56 403.656 418.055 403.188 418.409C402.719 418.764 402.125 418.941 401.406 418.941C400.5 418.941 399.776 418.659 399.234 418.097C398.703 417.534 398.438 416.748 398.438 415.737C398.438 414.696 398.708 413.889 399.25 413.316C399.792 412.732 400.49 412.441 401.344 412.441C402.177 412.441 402.854 412.722 403.375 413.284C403.906 413.847 404.172 414.644 404.172 415.675C404.172 415.737 404.172 415.831 404.172 415.956H399.531C399.573 416.644 399.766 417.17 400.109 417.534C400.453 417.889 400.885 418.066 401.406 418.066C401.792 418.066 402.12 417.967 402.391 417.769C402.672 417.56 402.891 417.237 403.047 416.8ZM399.594 415.097H403.062C403.021 414.566 402.891 414.17 402.672 413.909C402.328 413.503 401.891 413.3 401.359 413.3C400.87 413.3 400.458 413.461 400.125 413.784C399.802 414.107 399.625 414.545 399.594 415.097Z" fill="black"/>
<path d="M33.2 254.197H24.6062V247.994H25.6219V253.056H28.2469V248.306H29.2625V253.056H32.1844V247.791H33.2V254.197ZM33.2 246.353H24.6062V245.306H27.6844C27.1219 244.817 26.8406 244.197 26.8406 243.447C26.8406 242.978 26.9344 242.577 27.1219 242.244C27.2989 241.9 27.5489 241.655 27.8719 241.509C28.1844 241.364 28.6479 241.291 29.2625 241.291H33.2V242.338H29.2625C28.7312 242.338 28.3458 242.452 28.1062 242.681C27.8666 242.91 27.7469 243.233 27.7469 243.65C27.7469 243.963 27.8302 244.259 27.9969 244.541C28.1531 244.811 28.3719 245.009 28.6531 245.134C28.9239 245.249 29.3041 245.306 29.7937 245.306H33.2V246.353ZM25.825 239.353H24.6062V238.291H25.825V239.353ZM33.2 239.353H26.9812V238.291H33.2V239.353ZM33.2 236.353H26.9812V235.416H27.8562C27.5437 235.218 27.2989 234.957 27.1219 234.634C26.9344 234.311 26.8406 233.942 26.8406 233.525C26.8406 233.067 26.9344 232.692 27.1219 232.4C27.3094 232.098 27.575 231.89 27.9187 231.775C27.2 231.275 26.8406 230.634 26.8406 229.853C26.8406 229.228 27.0125 228.754 27.3562 228.431C27.6896 228.098 28.2156 227.931 28.9344 227.931H33.2V228.978H29.2781C28.8614 228.978 28.5594 229.015 28.3719 229.088C28.1844 229.15 28.0333 229.27 27.9187 229.447C27.8041 229.624 27.7469 229.838 27.7469 230.088C27.7469 230.525 27.8927 230.89 28.1844 231.181C28.476 231.463 28.9448 231.603 29.5906 231.603H33.2V232.666H29.1531C28.6844 232.666 28.3354 232.754 28.1062 232.931C27.8666 233.098 27.7469 233.374 27.7469 233.759C27.7469 234.061 27.825 234.338 27.9812 234.588C28.1375 234.838 28.3666 235.02 28.6687 235.134C28.9708 235.249 29.4031 235.306 29.9656 235.306H33.2V236.353ZM31.2 221.103L31.325 220.009C31.9604 220.176 32.4552 220.494 32.8094 220.963C33.1635 221.431 33.3406 222.025 33.3406 222.744C33.3406 223.65 33.0594 224.374 32.4969 224.916C31.9344 225.447 31.1479 225.713 30.1375 225.713C29.0958 225.713 28.2885 225.442 27.7156 224.9C27.1323 224.358 26.8406 223.66 26.8406 222.806C26.8406 221.973 27.1219 221.296 27.6844 220.775C28.2469 220.244 29.0437 219.978 30.075 219.978C30.1375 219.978 30.2312 219.978 30.3562 219.978V224.619C31.0437 224.577 31.5698 224.384 31.9344 224.041C32.2885 223.697 32.4656 223.265 32.4656 222.744C32.4656 222.358 32.3666 222.03 32.1687 221.759C31.9604 221.478 31.6375 221.259 31.2 221.103ZM29.4969 224.556V221.088C28.9656 221.129 28.5698 221.259 28.3094 221.478C27.9031 221.822 27.7 222.259 27.7 222.791C27.7 223.28 27.8614 223.692 28.1844 224.025C28.5073 224.348 28.9448 224.525 29.4969 224.556Z" fill="black"/>
<path d="M75.7 369.566C75.7 368.545 75.8042 367.727 76.0125 367.112C76.2208 366.487 76.5281 366.008 76.9344 365.675C77.351 365.342 77.8719 365.175 78.4969 365.175C78.9552 365.175 79.3562 365.269 79.7 365.456C80.0542 365.644 80.3458 365.915 80.575 366.269C80.8042 366.612 80.9812 367.034 81.1062 367.534C81.2312 368.034 81.2937 368.711 81.2937 369.566C81.2937 370.576 81.1896 371.389 80.9812 372.003C80.7833 372.618 80.476 373.097 80.0594 373.441C79.6531 373.774 79.1323 373.941 78.4969 373.941C77.674 373.941 77.0229 373.644 76.5437 373.05C75.9812 372.342 75.7 371.18 75.7 369.566ZM76.7781 369.566C76.7781 370.972 76.9448 371.909 77.2781 372.378C77.6115 372.847 78.0177 373.081 78.4969 373.081C78.9865 373.081 79.3927 372.847 79.7156 372.378C80.049 371.909 80.2156 370.972 80.2156 369.566C80.2156 368.149 80.049 367.211 79.7156 366.753C79.3927 366.284 78.9812 366.05 78.4812 366.05C78.0021 366.05 77.6167 366.253 77.325 366.659C76.9604 367.18 76.7781 368.149 76.7781 369.566Z" fill="black"/>
<path d="M58.6687 304.225H57.6219V297.506C57.3615 297.746 57.0229 297.991 56.6062 298.241C56.2 298.48 55.8354 298.657 55.5125 298.772V297.756C56.0958 297.475 56.6062 297.142 57.0437 296.756C57.4917 296.36 57.8094 295.975 57.9969 295.6H58.6687V304.225ZM61.7 299.991C61.7 298.97 61.8042 298.152 62.0125 297.537C62.2208 296.912 62.5281 296.433 62.9344 296.1C63.351 295.767 63.8719 295.6 64.4969 295.6C64.9552 295.6 65.3562 295.694 65.7 295.881C66.0542 296.069 66.3458 296.34 66.575 296.694C66.8042 297.037 66.9812 297.459 67.1062 297.959C67.2312 298.459 67.2937 299.136 67.2937 299.991C67.2937 301.001 67.1896 301.814 66.9812 302.428C66.7833 303.043 66.476 303.522 66.0594 303.866C65.6531 304.199 65.1323 304.366 64.4969 304.366C63.674 304.366 63.0229 304.069 62.5437 303.475C61.9812 302.767 61.7 301.605 61.7 299.991ZM62.7781 299.991C62.7781 301.397 62.9448 302.334 63.2781 302.803C63.6115 303.272 64.0177 303.506 64.4969 303.506C64.9865 303.506 65.3927 303.272 65.7156 302.803C66.049 302.334 66.2156 301.397 66.2156 299.991C66.2156 298.574 66.049 297.636 65.7156 297.178C65.3927 296.709 64.9812 296.475 64.4812 296.475C64.0021 296.475 63.6167 296.678 63.325 297.084C62.9604 297.605 62.7781 298.574 62.7781 299.991ZM68.7 299.991C68.7 298.97 68.8042 298.152 69.0125 297.537C69.2208 296.912 69.5281 296.433 69.9344 296.1C70.351 295.767 70.8719 295.6 71.4969 295.6C71.9552 295.6 72.3562 295.694 72.7 295.881C73.0542 296.069 73.3458 296.34 73.575 296.694C73.8042 297.037 73.9812 297.459 74.1062 297.959C74.2312 298.459 74.2937 299.136 74.2937 299.991C74.2937 301.001 74.1896 301.814 73.9812 302.428C73.7833 303.043 73.476 303.522 73.0594 303.866C72.6531 304.199 72.1323 304.366 71.4969 304.366C70.674 304.366 70.0229 304.069 69.5437 303.475C68.9812 302.767 68.7 301.605 68.7 299.991ZM69.7781 299.991C69.7781 301.397 69.9448 302.334 70.2781 302.803C70.6115 303.272 71.0177 303.506 71.4969 303.506C71.9865 303.506 72.3927 303.272 72.7156 302.803C73.049 302.334 73.2156 301.397 73.2156 299.991C73.2156 298.574 73.049 297.636 72.7156 297.178C72.3927 296.709 71.9812 296.475 71.4812 296.475C71.0021 296.475 70.6167 296.678 70.325 297.084C69.9604 297.605 69.7781 298.574 69.7781 299.991ZM75.7 299.991C75.7 298.97 75.8042 298.152 76.0125 297.537C76.2208 296.912 76.5281 296.433 76.9344 296.1C77.351 295.767 77.8719 295.6 78.4969 295.6C78.9552 295.6 79.3562 295.694 79.7 295.881C80.0542 296.069 80.3458 296.34 80.575 296.694C80.8042 297.037 80.9812 297.459 81.1062 297.959C81.2312 298.459 81.2937 299.136 81.2937 299.991C81.2937 301.001 81.1896 301.814 80.9812 302.428C80.7833 303.043 80.476 303.522 80.0594 303.866C79.6531 304.199 79.1323 304.366 78.4969 304.366C77.674 304.366 77.0229 304.069 76.5437 303.475C75.9812 302.767 75.7 301.605 75.7 299.991ZM76.7781 299.991C76.7781 301.397 76.9448 302.334 77.2781 302.803C77.6115 303.272 78.0177 303.506 78.4969 303.506C78.9865 303.506 79.3927 303.272 79.7156 302.803C80.049 302.334 80.2156 301.397 80.2156 299.991C80.2156 298.574 80.049 297.636 79.7156 297.178C79.3927 296.709 78.9812 296.475 78.4812 296.475C78.0021 296.475 77.6167 296.678 77.325 297.084C76.9604 297.605 76.7781 298.574 76.7781 299.991Z" fill="black"/>
<path d="M60.2469 233.634V234.65H54.5594C54.5594 234.4 54.601 234.155 54.6844 233.916C54.8302 233.53 55.0594 233.15 55.3719 232.775C55.6948 232.4 56.1583 231.968 56.7625 231.478C57.7 230.707 58.3302 230.098 58.6531 229.65C58.9865 229.202 59.1531 228.78 59.1531 228.384C59.1531 227.968 59.0021 227.619 58.7 227.338C58.3979 227.046 58.0073 226.9 57.5281 226.9C57.0177 226.9 56.6115 227.051 56.3094 227.353C56.0073 227.655 55.851 228.077 55.8406 228.619L54.7625 228.509C54.8354 227.697 55.1115 227.082 55.5906 226.666C56.0802 226.239 56.7365 226.025 57.5594 226.025C58.3823 226.025 59.0333 226.254 59.5125 226.713C59.9917 227.171 60.2312 227.739 60.2312 228.416C60.2312 228.759 60.1583 229.098 60.0125 229.431C59.8771 229.754 59.6427 230.103 59.3094 230.478C58.9865 230.843 58.45 231.343 57.7 231.978C57.0646 232.509 56.6531 232.874 56.4656 233.072C56.2885 233.259 56.1427 233.447 56.0281 233.634H60.2469ZM61.7 230.416C61.7 229.395 61.8042 228.577 62.0125 227.963C62.2208 227.338 62.5281 226.858 62.9344 226.525C63.351 226.192 63.8719 226.025 64.4969 226.025C64.9552 226.025 65.3562 226.119 65.7 226.306C66.0542 226.494 66.3458 226.765 66.575 227.119C66.8042 227.463 66.9812 227.884 67.1062 228.384C67.2312 228.884 67.2937 229.561 67.2937 230.416C67.2937 231.426 67.1896 232.239 66.9812 232.853C66.7833 233.468 66.476 233.947 66.0594 234.291C65.6531 234.624 65.1323 234.791 64.4969 234.791C63.674 234.791 63.0229 234.494 62.5437 233.9C61.9812 233.192 61.7 232.03 61.7 230.416ZM62.7781 230.416C62.7781 231.822 62.9448 232.759 63.2781 233.228C63.6115 233.697 64.0177 233.931 64.4969 233.931C64.9865 233.931 65.3927 233.697 65.7156 233.228C66.049 232.759 66.2156 231.822 66.2156 230.416C66.2156 228.999 66.049 228.061 65.7156 227.603C65.3927 227.134 64.9812 226.9 64.4812 226.9C64.0021 226.9 63.6167 227.103 63.325 227.509C62.9604 228.03 62.7781 228.999 62.7781 230.416ZM68.7 230.416C68.7 229.395 68.8042 228.577 69.0125 227.963C69.2208 227.338 69.5281 226.858 69.9344 226.525C70.351 226.192 70.8719 226.025 71.4969 226.025C71.9552 226.025 72.3562 226.119 72.7 226.306C73.0542 226.494 73.3458 226.765 73.575 227.119C73.8042 227.463 73.9812 227.884 74.1062 228.384C74.2312 228.884 74.2937 229.561 74.2937 230.416C74.2937 231.426 74.1896 232.239 73.9812 232.853C73.7833 233.468 73.476 233.947 73.0594 234.291C72.6531 234.624 72.1323 234.791 71.4969 234.791C70.674 234.791 70.0229 234.494 69.5437 233.9C68.9812 233.192 68.7 232.03 68.7 230.416ZM69.7781 230.416C69.7781 231.822 69.9448 232.759 70.2781 233.228C70.6115 233.697 71.0177 233.931 71.4969 233.931C71.9865 233.931 72.3927 233.697 72.7156 233.228C73.049 232.759 73.2156 231.822 73.2156 230.416C73.2156 228.999 73.049 228.061 72.7156 227.603C72.3927 227.134 71.9812 226.9 71.4812 226.9C71.0021 226.9 70.6167 227.103 70.325 227.509C69.9604 228.03 69.7781 228.999 69.7781 230.416ZM75.7 230.416C75.7 229.395 75.8042 228.577 76.0125 227.963C76.2208 227.338 76.5281 226.858 76.9344 226.525C77.351 226.192 77.8719 226.025 78.4969 226.025C78.9552 226.025 79.3562 226.119 79.7 226.306C80.0542 226.494 80.3458 226.765 80.575 227.119C80.8042 227.463 80.9812 227.884 81.1062 228.384C81.2312 228.884 81.2937 229.561 81.2937 230.416C81.2937 231.426 81.1896 232.239 80.9812 232.853C80.7833 233.468 80.476 233.947 80.0594 234.291C79.6531 234.624 79.1323 234.791 78.4969 234.791C77.674 234.791 77.0229 234.494 76.5437 233.9C75.9812 233.192 75.7 232.03 75.7 230.416ZM76.7781 230.416C76.7781 231.822 76.9448 232.759 77.2781 233.228C77.6115 233.697 78.0177 233.931 78.4969 233.931C78.9865 233.931 79.3927 233.697 79.7156 233.228C80.049 232.759 80.2156 231.822 80.2156 230.416C80.2156 228.999 80.049 228.061 79.7156 227.603C79.3927 227.134 78.9812 226.9 78.4812 226.9C78.0021 226.9 77.6167 227.103 77.325 227.509C76.9604 228.03 76.7781 228.999 76.7781 230.416Z" fill="black"/>
<path d="M54.7 162.809L55.7625 162.669C55.8771 163.262 56.0802 163.695 56.3719 163.966C56.6635 164.226 57.0177 164.356 57.4344 164.356C57.9344 164.356 58.3562 164.184 58.7 163.841C59.0437 163.497 59.2156 163.07 59.2156 162.559C59.2156 162.08 59.0542 161.684 58.7312 161.372C58.4187 161.049 58.0177 160.887 57.5281 160.887C57.3302 160.887 57.0802 160.929 56.7781 161.012L56.9031 160.075C56.976 160.085 57.0333 160.091 57.075 160.091C57.5229 160.091 57.924 159.976 58.2781 159.747C58.6427 159.507 58.825 159.143 58.825 158.653C58.825 158.268 58.6948 157.95 58.4344 157.7C58.174 157.44 57.8354 157.309 57.4187 157.309C57.0125 157.309 56.6687 157.44 56.3875 157.7C56.1167 157.96 55.9448 158.346 55.8719 158.856L54.8094 158.669C54.9344 157.971 55.226 157.429 55.6844 157.044C56.1427 156.648 56.7104 156.45 57.3875 156.45C57.8562 156.45 58.2885 156.554 58.6844 156.762C59.0802 156.96 59.3823 157.231 59.5906 157.575C59.799 157.919 59.9031 158.288 59.9031 158.684C59.9031 159.049 59.8042 159.387 59.6062 159.7C59.4083 160.002 59.1167 160.242 58.7312 160.419C59.2312 160.533 59.6219 160.778 59.9031 161.153C60.1844 161.518 60.325 161.981 60.325 162.544C60.325 163.294 60.049 163.929 59.4969 164.45C58.9552 164.971 58.2677 165.231 57.4344 165.231C56.6844 165.231 56.0594 165.007 55.5594 164.559C55.0594 164.101 54.7729 163.518 54.7 162.809ZM61.7 160.841C61.7 159.82 61.8042 159.002 62.0125 158.387C62.2208 157.762 62.5281 157.283 62.9344 156.95C63.351 156.617 63.8719 156.45 64.4969 156.45C64.9552 156.45 65.3562 156.544 65.7 156.731C66.0542 156.919 66.3458 157.19 66.575 157.544C66.8042 157.887 66.9812 158.309 67.1062 158.809C67.2312 159.309 67.2937 159.986 67.2937 160.841C67.2937 161.851 67.1896 162.663 66.9812 163.278C66.7833 163.893 66.476 164.372 66.0594 164.716C65.6531 165.049 65.1323 165.216 64.4969 165.216C63.674 165.216 63.0229 164.919 62.5437 164.325C61.9812 163.617 61.7 162.455 61.7 160.841ZM62.7781 160.841C62.7781 162.247 62.9448 163.184 63.2781 163.653C63.6115 164.122 64.0177 164.356 64.4969 164.356C64.9865 164.356 65.3927 164.122 65.7156 163.653C66.049 163.184 66.2156 162.247 66.2156 160.841C66.2156 159.424 66.049 158.486 65.7156 158.028C65.3927 157.559 64.9812 157.325 64.4812 157.325C64.0021 157.325 63.6167 157.528 63.325 157.934C62.9604 158.455 62.7781 159.424 62.7781 160.841ZM68.7 160.841C68.7 159.82 68.8042 159.002 69.0125 158.387C69.2208 157.762 69.5281 157.283 69.9344 156.95C70.351 156.617 70.8719 156.45 71.4969 156.45C71.9552 156.45 72.3562 156.544 72.7 156.731C73.0542 156.919 73.3458 157.19 73.575 157.544C73.8042 157.887 73.9812 158.309 74.1062 158.809C74.2312 159.309 74.2937 159.986 74.2937 160.841C74.2937 161.851 74.1896 162.663 73.9812 163.278C73.7833 163.893 73.476 164.372 73.0594 164.716C72.6531 165.049 72.1323 165.216 71.4969 165.216C70.674 165.216 70.0229 164.919 69.5437 164.325C68.9812 163.617 68.7 162.455 68.7 160.841ZM69.7781 160.841C69.7781 162.247 69.9448 163.184 70.2781 163.653C70.6115 164.122 71.0177 164.356 71.4969 164.356C71.9865 164.356 72.3927 164.122 72.7156 163.653C73.049 163.184 73.2156 162.247 73.2156 160.841C73.2156 159.424 73.049 158.486 72.7156 158.028C72.3927 157.559 71.9812 157.325 71.4812 157.325C71.0021 157.325 70.6167 157.528 70.325 157.934C69.9604 158.455 69.7781 159.424 69.7781 160.841ZM75.7 160.841C75.7 159.82 75.8042 159.002 76.0125 158.387C76.2208 157.762 76.5281 157.283 76.9344 156.95C77.351 156.617 77.8719 156.45 78.4969 156.45C78.9552 156.45 79.3562 156.544 79.7 156.731C80.0542 156.919 80.3458 157.19 80.575 157.544C80.8042 157.887 80.9812 158.309 81.1062 158.809C81.2312 159.309 81.2937 159.986 81.2937 160.841C81.2937 161.851 81.1896 162.663 80.9812 163.278C80.7833 163.893 80.476 164.372 80.0594 164.716C79.6531 165.049 79.1323 165.216 78.4969 165.216C77.674 165.216 77.0229 164.919 76.5437 164.325C75.9812 163.617 75.7 162.455 75.7 160.841ZM76.7781 160.841C76.7781 162.247 76.9448 163.184 77.2781 163.653C77.6115 164.122 78.0177 164.356 78.4969 164.356C78.9865 164.356 79.3927 164.122 79.7156 163.653C80.049 163.184 80.2156 162.247 80.2156 160.841C80.2156 159.424 80.049 158.486 79.7156 158.028C79.3927 157.559 78.9812 157.325 78.4812 157.325C78.0021 157.325 77.6167 157.528 77.325 157.934C76.9604 158.455 76.7781 159.424 76.7781 160.841Z" fill="black"/>
<path d="M58.075 95.5V93.4375H54.3562V92.4688L58.2781 86.9062H59.1375V92.4688H60.2937V93.4375H59.1375V95.5H58.075ZM58.075 92.4688V88.6094L55.3875 92.4688H58.075ZM61.7 91.2656C61.7 90.2448 61.8042 89.4271 62.0125 88.8125C62.2208 88.1875 62.5281 87.7083 62.9344 87.375C63.351 87.0417 63.8719 86.875 64.4969 86.875C64.9552 86.875 65.3562 86.9688 65.7 87.1562C66.0542 87.3438 66.3458 87.6146 66.575 87.9688C66.8042 88.3125 66.9812 88.7344 67.1062 89.2344C67.2312 89.7344 67.2937 90.4115 67.2937 91.2656C67.2937 92.276 67.1896 93.0885 66.9812 93.7031C66.7833 94.3177 66.476 94.7969 66.0594 95.1406C65.6531 95.474 65.1323 95.6406 64.4969 95.6406C63.674 95.6406 63.0229 95.3438 62.5437 94.75C61.9812 94.0417 61.7 92.8802 61.7 91.2656ZM62.7781 91.2656C62.7781 92.6719 62.9448 93.6094 63.2781 94.0781C63.6115 94.5469 64.0177 94.7812 64.4969 94.7812C64.9865 94.7812 65.3927 94.5469 65.7156 94.0781C66.049 93.6094 66.2156 92.6719 66.2156 91.2656C66.2156 89.849 66.049 88.9115 65.7156 88.4531C65.3927 87.9844 64.9812 87.75 64.4812 87.75C64.0021 87.75 63.6167 87.9531 63.325 88.3594C62.9604 88.8802 62.7781 89.849 62.7781 91.2656ZM68.7 91.2656C68.7 90.2448 68.8042 89.4271 69.0125 88.8125C69.2208 88.1875 69.5281 87.7083 69.9344 87.375C70.351 87.0417 70.8719 86.875 71.4969 86.875C71.9552 86.875 72.3562 86.9688 72.7 87.1562C73.0542 87.3438 73.3458 87.6146 73.575 87.9688C73.8042 88.3125 73.9812 88.7344 74.1062 89.2344C74.2312 89.7344 74.2937 90.4115 74.2937 91.2656C74.2937 92.276 74.1896 93.0885 73.9812 93.7031C73.7833 94.3177 73.476 94.7969 73.0594 95.1406C72.6531 95.474 72.1323 95.6406 71.4969 95.6406C70.674 95.6406 70.0229 95.3438 69.5437 94.75C68.9812 94.0417 68.7 92.8802 68.7 91.2656ZM69.7781 91.2656C69.7781 92.6719 69.9448 93.6094 70.2781 94.0781C70.6115 94.5469 71.0177 94.7812 71.4969 94.7812C71.9865 94.7812 72.3927 94.5469 72.7156 94.0781C73.049 93.6094 73.2156 92.6719 73.2156 91.2656C73.2156 89.849 73.049 88.9115 72.7156 88.4531C72.3927 87.9844 71.9812 87.75 71.4812 87.75C71.0021 87.75 70.6167 87.9531 70.325 88.3594C69.9604 88.8802 69.7781 89.849 69.7781 91.2656ZM75.7 91.2656C75.7 90.2448 75.8042 89.4271 76.0125 88.8125C76.2208 88.1875 76.5281 87.7083 76.9344 87.375C77.351 87.0417 77.8719 86.875 78.4969 86.875C78.9552 86.875 79.3562 86.9688 79.7 87.1562C80.0542 87.3438 80.3458 87.6146 80.575 87.9688C80.8042 88.3125 80.9812 88.7344 81.1062 89.2344C81.2312 89.7344 81.2937 90.4115 81.2937 91.2656C81.2937 92.276 81.1896 93.0885 80.9812 93.7031C80.7833 94.3177 80.476 94.7969 80.0594 95.1406C79.6531 95.474 79.1323 95.6406 78.4969 95.6406C77.674 95.6406 77.0229 95.3438 76.5437 94.75C75.9812 94.0417 75.7 92.8802 75.7 91.2656ZM76.7781 91.2656C76.7781 92.6719 76.9448 93.6094 77.2781 94.0781C77.6115 94.5469 78.0177 94.7812 78.4969 94.7812C78.9865 94.7812 79.3927 94.5469 79.7156 94.0781C80.049 93.6094 80.2156 92.6719 80.2156 91.2656C80.2156 89.849 80.049 88.9115 79.7156 88.4531C79.3927 87.9844 78.9812 87.75 78.4812 87.75C78.0021 87.75 77.6167 87.9531 77.325 88.3594C76.9604 88.8802 76.7781 89.849 76.7781 91.2656Z" fill="black"/>
<path d="M167.959 386.8V384.737H164.24V383.769L168.162 378.206H169.021V383.769H170.177V384.737H169.021V386.8H167.959ZM167.959 383.769V379.909L165.271 383.769H167.959ZM174.959 386.8V384.737H171.24V383.769L175.162 378.206H176.021V383.769H177.177V384.737H176.021V386.8H174.959ZM174.959 383.769V379.909L172.271 383.769H174.959ZM178.584 382.566C178.584 381.545 178.688 380.727 178.896 380.112C179.104 379.487 179.412 379.008 179.818 378.675C180.235 378.342 180.756 378.175 181.381 378.175C181.839 378.175 182.24 378.269 182.584 378.456C182.938 378.644 183.229 378.915 183.459 379.269C183.688 379.612 183.865 380.034 183.99 380.534C184.115 381.034 184.177 381.711 184.177 382.566C184.177 383.576 184.073 384.389 183.865 385.003C183.667 385.618 183.36 386.097 182.943 386.441C182.537 386.774 182.016 386.941 181.381 386.941C180.558 386.941 179.907 386.644 179.427 386.05C178.865 385.342 178.584 384.18 178.584 382.566ZM179.662 382.566C179.662 383.972 179.828 384.909 180.162 385.378C180.495 385.847 180.901 386.081 181.381 386.081C181.87 386.081 182.276 385.847 182.599 385.378C182.933 384.909 183.099 383.972 183.099 382.566C183.099 381.149 182.933 380.211 182.599 379.753C182.276 379.284 181.865 379.05 181.365 379.05C180.886 379.05 180.5 379.253 180.209 379.659C179.844 380.18 179.662 381.149 179.662 382.566ZM185.584 382.566C185.584 381.545 185.688 380.727 185.896 380.112C186.104 379.487 186.412 379.008 186.818 378.675C187.235 378.342 187.756 378.175 188.381 378.175C188.839 378.175 189.24 378.269 189.584 378.456C189.938 378.644 190.229 378.915 190.459 379.269C190.688 379.612 190.865 380.034 190.99 380.534C191.115 381.034 191.177 381.711 191.177 382.566C191.177 383.576 191.073 384.389 190.865 385.003C190.667 385.618 190.36 386.097 189.943 386.441C189.537 386.774 189.016 386.941 188.381 386.941C187.558 386.941 186.907 386.644 186.427 386.05C185.865 385.342 185.584 384.18 185.584 382.566ZM186.662 382.566C186.662 383.972 186.828 384.909 187.162 385.378C187.495 385.847 187.901 386.081 188.381 386.081C188.87 386.081 189.276 385.847 189.599 385.378C189.933 384.909 190.099 383.972 190.099 382.566C190.099 381.149 189.933 380.211 189.599 379.753C189.276 379.284 188.865 379.05 188.365 379.05C187.886 379.05 187.5 379.253 187.209 379.659C186.844 380.18 186.662 381.149 186.662 382.566ZM192.584 382.566C192.584 381.545 192.688 380.727 192.896 380.112C193.104 379.487 193.412 379.008 193.818 378.675C194.235 378.342 194.756 378.175 195.381 378.175C195.839 378.175 196.24 378.269 196.584 378.456C196.938 378.644 197.229 378.915 197.459 379.269C197.688 379.612 197.865 380.034 197.99 380.534C198.115 381.034 198.177 381.711 198.177 382.566C198.177 383.576 198.073 384.389 197.865 385.003C197.667 385.618 197.36 386.097 196.943 386.441C196.537 386.774 196.016 386.941 195.381 386.941C194.558 386.941 193.907 386.644 193.427 386.05C192.865 385.342 192.584 384.18 192.584 382.566ZM193.662 382.566C193.662 383.972 193.828 384.909 194.162 385.378C194.495 385.847 194.901 386.081 195.381 386.081C195.87 386.081 196.276 385.847 196.599 385.378C196.933 384.909 197.099 383.972 197.099 382.566C197.099 381.149 196.933 380.211 196.599 379.753C196.276 379.284 195.865 379.05 195.365 379.05C194.886 379.05 194.5 379.253 194.209 379.659C193.844 380.18 193.662 381.149 193.662 382.566Z" fill="black"/>
<path d="M289.236 386.8V384.737H285.517V383.769L289.439 378.206H290.299V383.769H291.455V384.737H290.299V386.8H289.236ZM289.236 383.769V379.909L286.549 383.769H289.236ZM296.236 386.8V384.737H292.517V383.769L296.439 378.206H297.299V383.769H298.455V384.737H297.299V386.8H296.236ZM296.236 383.769V379.909L293.549 383.769H296.236ZM305.408 385.784V386.8H299.72C299.72 386.55 299.762 386.305 299.845 386.066C299.991 385.68 300.22 385.3 300.533 384.925C300.856 384.55 301.319 384.118 301.924 383.628C302.861 382.857 303.491 382.248 303.814 381.8C304.148 381.352 304.314 380.93 304.314 380.534C304.314 380.118 304.163 379.769 303.861 379.487C303.559 379.196 303.168 379.05 302.689 379.05C302.179 379.05 301.773 379.201 301.47 379.503C301.168 379.805 301.012 380.227 301.002 380.769L299.924 380.659C299.997 379.847 300.273 379.232 300.752 378.816C301.241 378.389 301.898 378.175 302.72 378.175C303.543 378.175 304.194 378.404 304.674 378.862C305.153 379.321 305.392 379.889 305.392 380.566C305.392 380.909 305.319 381.248 305.174 381.581C305.038 381.904 304.804 382.253 304.47 382.628C304.148 382.993 303.611 383.493 302.861 384.128C302.226 384.659 301.814 385.024 301.627 385.222C301.45 385.409 301.304 385.597 301.189 385.784H305.408ZM306.861 382.566C306.861 381.545 306.965 380.727 307.174 380.112C307.382 379.487 307.689 379.008 308.095 378.675C308.512 378.342 309.033 378.175 309.658 378.175C310.116 378.175 310.517 378.269 310.861 378.456C311.215 378.644 311.507 378.915 311.736 379.269C311.965 379.612 312.142 380.034 312.267 380.534C312.392 381.034 312.455 381.711 312.455 382.566C312.455 383.576 312.351 384.389 312.142 385.003C311.944 385.618 311.637 386.097 311.22 386.441C310.814 386.774 310.293 386.941 309.658 386.941C308.835 386.941 308.184 386.644 307.705 386.05C307.142 385.342 306.861 384.18 306.861 382.566ZM307.939 382.566C307.939 383.972 308.106 384.909 308.439 385.378C308.773 385.847 309.179 386.081 309.658 386.081C310.148 386.081 310.554 385.847 310.877 385.378C311.21 384.909 311.377 383.972 311.377 382.566C311.377 381.149 311.21 380.211 310.877 379.753C310.554 379.284 310.142 379.05 309.642 379.05C309.163 379.05 308.778 379.253 308.486 379.659C308.121 380.18 307.939 381.149 307.939 382.566ZM313.861 382.566C313.861 381.545 313.965 380.727 314.174 380.112C314.382 379.487 314.689 379.008 315.095 378.675C315.512 378.342 316.033 378.175 316.658 378.175C317.116 378.175 317.517 378.269 317.861 378.456C318.215 378.644 318.507 378.915 318.736 379.269C318.965 379.612 319.142 380.034 319.267 380.534C319.392 381.034 319.455 381.711 319.455 382.566C319.455 383.576 319.351 384.389 319.142 385.003C318.944 385.618 318.637 386.097 318.22 386.441C317.814 386.774 317.293 386.941 316.658 386.941C315.835 386.941 315.184 386.644 314.705 386.05C314.142 385.342 313.861 384.18 313.861 382.566ZM314.939 382.566C314.939 383.972 315.106 384.909 315.439 385.378C315.773 385.847 316.179 386.081 316.658 386.081C317.148 386.081 317.554 385.847 317.877 385.378C318.21 384.909 318.377 383.972 318.377 382.566C318.377 381.149 318.21 380.211 317.877 379.753C317.554 379.284 317.142 379.05 316.642 379.05C316.163 379.05 315.778 379.253 315.486 379.659C315.121 380.18 314.939 381.149 314.939 382.566Z" fill="black"/>
<path d="M410.514 386.8V384.737H406.795V383.769L410.717 378.206H411.576V383.769H412.732V384.737H411.576V386.8H410.514ZM410.514 383.769V379.909L407.826 383.769H410.514ZM417.514 386.8V384.737H413.795V383.769L417.717 378.206H418.576V383.769H419.732V384.737H418.576V386.8H417.514ZM417.514 383.769V379.909L414.826 383.769H417.514ZM424.514 386.8V384.737H420.795V383.769L424.717 378.206H425.576V383.769H426.732V384.737H425.576V386.8H424.514ZM424.514 383.769V379.909L421.826 383.769H424.514ZM428.139 382.566C428.139 381.545 428.243 380.727 428.451 380.112C428.659 379.487 428.967 379.008 429.373 378.675C429.79 378.342 430.31 378.175 430.935 378.175C431.394 378.175 431.795 378.269 432.139 378.456C432.493 378.644 432.784 378.915 433.014 379.269C433.243 379.612 433.42 380.034 433.545 380.534C433.67 381.034 433.732 381.711 433.732 382.566C433.732 383.576 433.628 384.389 433.42 385.003C433.222 385.618 432.915 386.097 432.498 386.441C432.092 386.774 431.571 386.941 430.935 386.941C430.112 386.941 429.461 386.644 428.982 386.05C428.42 385.342 428.139 384.18 428.139 382.566ZM429.217 382.566C429.217 383.972 429.383 384.909 429.717 385.378C430.05 385.847 430.456 386.081 430.935 386.081C431.425 386.081 431.831 385.847 432.154 385.378C432.487 384.909 432.654 383.972 432.654 382.566C432.654 381.149 432.487 380.211 432.154 379.753C431.831 379.284 431.42 379.05 430.92 379.05C430.441 379.05 430.055 379.253 429.764 379.659C429.399 380.18 429.217 381.149 429.217 382.566ZM435.139 382.566C435.139 381.545 435.243 380.727 435.451 380.112C435.659 379.487 435.967 379.008 436.373 378.675C436.79 378.342 437.31 378.175 437.935 378.175C438.394 378.175 438.795 378.269 439.139 378.456C439.493 378.644 439.784 378.915 440.014 379.269C440.243 379.612 440.42 380.034 440.545 380.534C440.67 381.034 440.732 381.711 440.732 382.566C440.732 383.576 440.628 384.389 440.42 385.003C440.222 385.618 439.915 386.097 439.498 386.441C439.092 386.774 438.571 386.941 437.935 386.941C437.112 386.941 436.461 386.644 435.982 386.05C435.42 385.342 435.139 384.18 435.139 382.566ZM436.217 382.566C436.217 383.972 436.383 384.909 436.717 385.378C437.05 385.847 437.456 386.081 437.935 386.081C438.425 386.081 438.831 385.847 439.154 385.378C439.487 384.909 439.654 383.972 439.654 382.566C439.654 381.149 439.487 380.211 439.154 379.753C438.831 379.284 438.42 379.05 437.92 379.05C437.441 379.05 437.055 379.253 436.764 379.659C436.399 380.18 436.217 381.149 436.217 382.566Z" fill="black"/>
<path d="M531.791 386.8V384.737H528.072V383.769L531.994 378.206H532.853V383.769H534.01V384.737H532.853V386.8H531.791ZM531.791 383.769V379.909L529.103 383.769H531.791ZM538.791 386.8V384.737H535.072V383.769L538.994 378.206H539.853V383.769H541.01V384.737H539.853V386.8H538.791ZM538.791 383.769V379.909L536.103 383.769H538.791ZM547.885 380.316L546.838 380.394C546.744 379.977 546.614 379.675 546.447 379.487C546.156 379.185 545.801 379.034 545.385 379.034C545.051 379.034 544.754 379.128 544.494 379.316C544.171 379.566 543.911 379.925 543.713 380.394C543.525 380.852 543.426 381.508 543.416 382.362C543.666 381.977 543.973 381.691 544.338 381.503C544.713 381.316 545.103 381.222 545.51 381.222C546.208 381.222 546.801 381.482 547.291 382.003C547.791 382.524 548.041 383.191 548.041 384.003C548.041 384.545 547.921 385.05 547.682 385.519C547.452 385.977 547.135 386.331 546.728 386.581C546.322 386.821 545.864 386.941 545.353 386.941C544.468 386.941 543.749 386.618 543.197 385.972C542.645 385.326 542.369 384.264 542.369 382.784C542.369 381.118 542.676 379.909 543.291 379.159C543.822 378.503 544.541 378.175 545.447 378.175C546.124 378.175 546.676 378.368 547.103 378.753C547.541 379.128 547.801 379.649 547.885 380.316ZM543.588 384.019C543.588 384.383 543.661 384.732 543.807 385.066C543.963 385.389 544.176 385.639 544.447 385.816C544.728 385.993 545.025 386.081 545.338 386.081C545.775 386.081 546.156 385.904 546.478 385.55C546.801 385.185 546.963 384.696 546.963 384.081C546.963 383.487 546.801 383.019 546.478 382.675C546.166 382.331 545.77 382.159 545.291 382.159C544.812 382.159 544.406 382.331 544.072 382.675C543.749 383.019 543.588 383.467 543.588 384.019ZM549.416 382.566C549.416 381.545 549.52 380.727 549.728 380.112C549.937 379.487 550.244 379.008 550.65 378.675C551.067 378.342 551.588 378.175 552.213 378.175C552.671 378.175 553.072 378.269 553.416 378.456C553.77 378.644 554.062 378.915 554.291 379.269C554.52 379.612 554.697 380.034 554.822 380.534C554.947 381.034 555.01 381.711 555.01 382.566C555.01 383.576 554.906 384.389 554.697 385.003C554.499 385.618 554.192 386.097 553.775 386.441C553.369 386.774 552.848 386.941 552.213 386.941C551.39 386.941 550.739 386.644 550.26 386.05C549.697 385.342 549.416 384.18 549.416 382.566ZM550.494 382.566C550.494 383.972 550.661 384.909 550.994 385.378C551.327 385.847 551.734 386.081 552.213 386.081C552.702 386.081 553.109 385.847 553.432 385.378C553.765 384.909 553.932 383.972 553.932 382.566C553.932 381.149 553.765 380.211 553.432 379.753C553.109 379.284 552.697 379.05 552.197 379.05C551.718 379.05 551.333 379.253 551.041 379.659C550.676 380.18 550.494 381.149 550.494 382.566ZM556.416 382.566C556.416 381.545 556.52 380.727 556.728 380.112C556.937 379.487 557.244 379.008 557.65 378.675C558.067 378.342 558.588 378.175 559.213 378.175C559.671 378.175 560.072 378.269 560.416 378.456C560.77 378.644 561.062 378.915 561.291 379.269C561.52 379.612 561.697 380.034 561.822 380.534C561.947 381.034 562.01 381.711 562.01 382.566C562.01 383.576 561.906 384.389 561.697 385.003C561.499 385.618 561.192 386.097 560.775 386.441C560.369 386.774 559.848 386.941 559.213 386.941C558.39 386.941 557.739 386.644 557.26 386.05C556.697 385.342 556.416 384.18 556.416 382.566ZM557.494 382.566C557.494 383.972 557.661 384.909 557.994 385.378C558.327 385.847 558.734 386.081 559.213 386.081C559.702 386.081 560.109 385.847 560.432 385.378C560.765 384.909 560.932 383.972 560.932 382.566C560.932 381.149 560.765 380.211 560.432 379.753C560.109 379.284 559.697 379.05 559.197 379.05C558.718 379.05 558.333 379.253 558.041 379.659C557.676 380.18 557.494 381.149 557.494 382.566Z" fill="black"/>
<path d="M653.068 386.8V384.737H649.35V383.769L653.272 378.206H654.131V383.769H655.287V384.737H654.131V386.8H653.068ZM653.068 383.769V379.909L650.381 383.769H653.068ZM660.068 386.8V384.737H656.35V383.769L660.272 378.206H661.131V383.769H662.287V384.737H661.131V386.8H660.068ZM660.068 383.769V379.909L657.381 383.769H660.068ZM665.318 382.144C664.881 381.977 664.553 381.748 664.334 381.456C664.126 381.154 664.022 380.8 664.022 380.394C664.022 379.769 664.246 379.243 664.693 378.816C665.152 378.389 665.751 378.175 666.49 378.175C667.24 378.175 667.844 378.394 668.303 378.831C668.761 379.269 668.99 379.8 668.99 380.425C668.99 380.821 668.886 381.165 668.678 381.456C668.469 381.748 668.152 381.977 667.725 382.144C668.256 382.31 668.657 382.586 668.928 382.972C669.199 383.357 669.334 383.816 669.334 384.347C669.334 385.076 669.074 385.691 668.553 386.191C668.042 386.691 667.36 386.941 666.506 386.941C665.662 386.941 664.98 386.691 664.459 386.191C663.938 385.691 663.678 385.066 663.678 384.316C663.678 383.753 663.818 383.284 664.1 382.909C664.391 382.534 664.798 382.279 665.318 382.144ZM665.1 380.347C665.1 380.753 665.23 381.086 665.49 381.347C665.761 381.607 666.105 381.737 666.522 381.737C666.928 381.737 667.261 381.612 667.522 381.362C667.782 381.102 667.912 380.784 667.912 380.409C667.912 380.024 667.777 379.701 667.506 379.441C667.235 379.17 666.902 379.034 666.506 379.034C666.1 379.034 665.761 379.165 665.49 379.425C665.23 379.685 665.1 379.993 665.1 380.347ZM664.772 384.316C664.772 384.618 664.839 384.909 664.975 385.191C665.12 385.472 665.334 385.691 665.615 385.847C665.897 386.003 666.199 386.081 666.522 386.081C667.022 386.081 667.433 385.92 667.756 385.597C668.089 385.274 668.256 384.862 668.256 384.362C668.256 383.852 668.089 383.43 667.756 383.097C667.423 382.764 667.001 382.597 666.49 382.597C665.99 382.597 665.579 382.764 665.256 383.097C664.933 383.42 664.772 383.826 664.772 384.316ZM670.693 382.566C670.693 381.545 670.798 380.727 671.006 380.112C671.214 379.487 671.522 379.008 671.928 378.675C672.344 378.342 672.865 378.175 673.49 378.175C673.949 378.175 674.35 378.269 674.693 378.456C675.048 378.644 675.339 378.915 675.568 379.269C675.798 379.612 675.975 380.034 676.1 380.534C676.225 381.034 676.287 381.711 676.287 382.566C676.287 383.576 676.183 384.389 675.975 385.003C675.777 385.618 675.469 386.097 675.053 386.441C674.647 386.774 674.126 386.941 673.49 386.941C672.667 386.941 672.016 386.644 671.537 386.05C670.975 385.342 670.693 384.18 670.693 382.566ZM671.772 382.566C671.772 383.972 671.938 384.909 672.272 385.378C672.605 385.847 673.011 386.081 673.49 386.081C673.98 386.081 674.386 385.847 674.709 385.378C675.042 384.909 675.209 383.972 675.209 382.566C675.209 381.149 675.042 380.211 674.709 379.753C674.386 379.284 673.975 379.05 673.475 379.05C672.995 379.05 672.61 379.253 672.318 379.659C671.954 380.18 671.772 381.149 671.772 382.566ZM677.693 382.566C677.693 381.545 677.798 380.727 678.006 380.112C678.214 379.487 678.522 379.008 678.928 378.675C679.344 378.342 679.865 378.175 680.49 378.175C680.949 378.175 681.35 378.269 681.693 378.456C682.048 378.644 682.339 378.915 682.568 379.269C682.798 379.612 682.975 380.034 683.1 380.534C683.225 381.034 683.287 381.711 683.287 382.566C683.287 383.576 683.183 384.389 682.975 385.003C682.777 385.618 682.469 386.097 682.053 386.441C681.647 386.774 681.126 386.941 680.49 386.941C679.667 386.941 679.016 386.644 678.537 386.05C677.975 385.342 677.693 384.18 677.693 382.566ZM678.772 382.566C678.772 383.972 678.938 384.909 679.272 385.378C679.605 385.847 680.011 386.081 680.49 386.081C680.98 386.081 681.386 385.847 681.709 385.378C682.042 384.909 682.209 383.972 682.209 382.566C682.209 381.149 682.042 380.211 681.709 379.753C681.386 379.284 680.975 379.05 680.475 379.05C679.995 379.05 679.61 379.253 679.318 379.659C678.954 380.18 678.772 381.149 678.772 382.566Z" fill="black"/>
<path d="M576.847 65.5125V66.7H570.222C570.211 66.4083 570.258 66.1218 570.363 65.8406C570.54 65.3927 570.81 64.95 571.175 64.5125C571.55 64.0749 572.086 63.5697 572.784 62.9968C573.878 62.101 574.613 61.3927 574.988 60.8718C575.373 60.351 575.566 59.8562 575.566 59.3875C575.566 58.8979 575.389 58.4864 575.034 58.1531C574.691 57.8197 574.243 57.6531 573.691 57.6531C573.097 57.6531 572.618 57.8302 572.253 58.1843C571.899 58.5385 571.722 59.0333 571.722 59.6687L570.456 59.5281C570.54 58.5906 570.862 57.877 571.425 57.3875C571.998 56.8875 572.758 56.6375 573.706 56.6375C574.675 56.6375 575.435 56.9031 575.988 57.4343C576.55 57.9656 576.831 58.627 576.831 59.4187C576.831 59.825 576.748 60.2208 576.581 60.6062C576.425 60.9916 576.154 61.3979 575.769 61.825C575.394 62.252 574.764 62.8406 573.878 63.5906C573.139 64.2052 572.665 64.627 572.456 64.8562C572.248 65.0749 572.076 65.2937 571.941 65.5125H576.847ZM578.378 61.7625C578.378 60.575 578.498 59.6218 578.738 58.9031C578.988 58.1739 579.352 57.6166 579.831 57.2312C580.31 56.8354 580.915 56.6375 581.644 56.6375C582.185 56.6375 582.659 56.7468 583.066 56.9656C583.472 57.1843 583.805 57.4968 584.066 57.9031C584.336 58.3093 584.545 58.8041 584.691 59.3875C584.836 59.9708 584.909 60.7625 584.909 61.7625C584.909 62.9395 584.79 63.8874 584.55 64.6062C584.31 65.3249 583.951 65.8822 583.472 66.2781C582.993 66.6739 582.383 66.8718 581.644 66.8718C580.685 66.8718 579.93 66.5229 579.378 65.825C578.711 64.9916 578.378 63.6375 578.378 61.7625ZM579.644 61.7625C579.644 63.4083 579.836 64.502 580.222 65.0437C580.607 65.5854 581.081 65.8562 581.644 65.8562C582.217 65.8562 582.696 65.5854 583.081 65.0437C583.467 64.4916 583.659 63.3979 583.659 61.7625C583.659 60.1062 583.467 59.0072 583.081 58.4656C582.696 57.9239 582.211 57.6531 581.628 57.6531C581.066 57.6531 580.618 57.8927 580.284 58.3718C579.857 58.9864 579.644 60.1166 579.644 61.7625ZM592.847 65.5125V66.7H586.222C586.211 66.4083 586.258 66.1218 586.363 65.8406C586.54 65.3927 586.81 64.95 587.175 64.5125C587.55 64.0749 588.086 63.5697 588.784 62.9968C589.878 62.101 590.613 61.3927 590.988 60.8718C591.373 60.351 591.566 59.8562 591.566 59.3875C591.566 58.8979 591.389 58.4864 591.034 58.1531C590.691 57.8197 590.243 57.6531 589.691 57.6531C589.097 57.6531 588.618 57.8302 588.253 58.1843C587.899 58.5385 587.722 59.0333 587.722 59.6687L586.456 59.5281C586.54 58.5906 586.862 57.877 587.425 57.3875C587.998 56.8875 588.758 56.6375 589.706 56.6375C590.675 56.6375 591.435 56.9031 591.988 57.4343C592.55 57.9656 592.831 58.627 592.831 59.4187C592.831 59.825 592.748 60.2208 592.581 60.6062C592.425 60.9916 592.154 61.3979 591.769 61.825C591.394 62.252 590.764 62.8406 589.878 63.5906C589.139 64.2052 588.665 64.627 588.456 64.8562C588.248 65.0749 588.076 65.2937 587.941 65.5125H592.847ZM600.847 65.5125V66.7H594.222C594.211 66.4083 594.258 66.1218 594.363 65.8406C594.54 65.3927 594.81 64.95 595.175 64.5125C595.55 64.0749 596.086 63.5697 596.784 62.9968C597.878 62.101 598.613 61.3927 598.988 60.8718C599.373 60.351 599.566 59.8562 599.566 59.3875C599.566 58.8979 599.389 58.4864 599.034 58.1531C598.691 57.8197 598.243 57.6531 597.691 57.6531C597.097 57.6531 596.618 57.8302 596.253 58.1843C595.899 58.5385 595.722 59.0333 595.722 59.6687L594.456 59.5281C594.54 58.5906 594.862 57.877 595.425 57.3875C595.998 56.8875 596.758 56.6375 597.706 56.6375C598.675 56.6375 599.435 56.9031 599.988 57.4343C600.55 57.9656 600.831 58.627 600.831 59.4187C600.831 59.825 600.748 60.2208 600.581 60.6062C600.425 60.9916 600.154 61.3979 599.769 61.825C599.394 62.252 598.764 62.8406 597.878 63.5906C597.139 64.2052 596.665 64.627 596.456 64.8562C596.248 65.0749 596.076 65.2937 595.941 65.5125H600.847Z" fill="#999999"/>
<path d="M606.175 58.1687C605.487 59.3666 604.633 60.3666 603.612 61.1687L602.847 60.1843C604.336 59.0906 605.357 57.5072 605.909 55.4343L607.159 55.7625C607.305 55.9083 607.253 55.9968 607.003 56.0281L606.566 57.1218H614.269V58.1687H610.284V60.0281H613.566V61.0593H610.284V63.5281H614.878V64.5593H610.284V67.8562H609.191V64.5593H602.894V63.5281H605.362V60.0281H609.191V58.1687H606.175ZM606.456 63.5281H609.191V61.0593H606.456V63.5281Z" fill="#999999"/>
<path d="M616.566 64.3875L617.753 64.2781C617.847 64.8302 618.034 65.2312 618.316 65.4812C618.607 65.7312 618.972 65.8562 619.409 65.8562C619.784 65.8562 620.112 65.7729 620.394 65.6062C620.685 65.4291 620.92 65.1947 621.097 64.9031C621.284 64.6114 621.441 64.2208 621.566 63.7312C621.691 63.2416 621.753 62.7416 621.753 62.2312C621.753 62.1791 621.748 62.0958 621.737 61.9812C621.498 62.377 621.165 62.7 620.737 62.95C620.31 63.1895 619.847 63.3093 619.347 63.3093C618.514 63.3093 617.81 63.0072 617.237 62.4031C616.665 61.7989 616.378 61.0072 616.378 60.0281C616.378 59.0072 616.675 58.1895 617.269 57.575C617.873 56.95 618.628 56.6375 619.534 56.6375C620.18 56.6375 620.774 56.8145 621.316 57.1687C621.857 57.5125 622.269 58.0125 622.55 58.6687C622.831 59.3145 622.972 60.252 622.972 61.4812C622.972 62.7625 622.831 63.7833 622.55 64.5437C622.279 65.3041 621.868 65.8822 621.316 66.2781C620.764 66.6739 620.118 66.8718 619.378 66.8718C618.597 66.8718 617.956 66.6531 617.456 66.2156C616.967 65.7781 616.67 65.1687 616.566 64.3875ZM621.597 59.9656C621.597 59.2572 621.409 58.6947 621.034 58.2781C620.659 57.8614 620.211 57.6531 619.691 57.6531C619.139 57.6531 618.659 57.877 618.253 58.325C617.847 58.7729 617.644 59.351 617.644 60.0593C617.644 60.6947 617.836 61.2156 618.222 61.6218C618.607 62.0177 619.081 62.2156 619.644 62.2156C620.217 62.2156 620.685 62.0177 621.05 61.6218C621.415 61.2156 621.597 60.6635 621.597 59.9656Z" fill="#999999"/>
<path d="M633.706 63.5281H628.503C628.503 65.0906 627.701 66.5697 626.097 67.9656L625.175 66.9187C626.665 65.9708 627.409 64.5489 627.409 62.6531V55.9812H634.8V66.7625C634.8 67.3458 634.487 67.6375 633.862 67.6375H632.55L632.331 66.4187H633.487C633.633 66.4187 633.706 66.3458 633.706 66.2V63.5281ZM628.503 62.325H633.706V60.3562H628.503V62.325ZM628.503 59.1531H633.706V57.1843H628.503V59.1531Z" fill="#999999"/>
<path d="M644.847 65.5125V66.7H638.222C638.211 66.4083 638.258 66.1218 638.363 65.8406C638.54 65.3927 638.81 64.95 639.175 64.5125C639.55 64.0749 640.086 63.5697 640.784 62.9968C641.878 62.101 642.613 61.3927 642.988 60.8718C643.373 60.351 643.566 59.8562 643.566 59.3875C643.566 58.8979 643.389 58.4864 643.034 58.1531C642.691 57.8197 642.243 57.6531 641.691 57.6531C641.097 57.6531 640.618 57.8302 640.253 58.1843C639.899 58.5385 639.722 59.0333 639.722 59.6687L638.456 59.5281C638.54 58.5906 638.862 57.877 639.425 57.3875C639.998 56.8875 640.758 56.6375 641.706 56.6375C642.675 56.6375 643.435 56.9031 643.988 57.4343C644.55 57.9656 644.831 58.627 644.831 59.4187C644.831 59.825 644.748 60.2208 644.581 60.6062C644.425 60.9916 644.154 61.3979 643.769 61.825C643.394 62.252 642.764 62.8406 641.878 63.5906C641.139 64.2052 640.665 64.627 640.456 64.8562C640.248 65.0749 640.076 65.2937 639.941 65.5125H644.847ZM646.566 64.3875L647.753 64.2781C647.847 64.8302 648.034 65.2312 648.316 65.4812C648.607 65.7312 648.972 65.8562 649.409 65.8562C649.784 65.8562 650.113 65.7729 650.394 65.6062C650.685 65.4291 650.92 65.1947 651.097 64.9031C651.284 64.6114 651.441 64.2208 651.566 63.7312C651.691 63.2416 651.753 62.7416 651.753 62.2312C651.753 62.1791 651.748 62.0958 651.738 61.9812C651.498 62.377 651.165 62.7 650.738 62.95C650.31 63.1895 649.847 63.3093 649.347 63.3093C648.514 63.3093 647.81 63.0072 647.238 62.4031C646.665 61.7989 646.378 61.0072 646.378 60.0281C646.378 59.0072 646.675 58.1895 647.269 57.575C647.873 56.95 648.628 56.6375 649.534 56.6375C650.18 56.6375 650.774 56.8145 651.316 57.1687C651.857 57.5125 652.269 58.0125 652.55 58.6687C652.831 59.3145 652.972 60.252 652.972 61.4812C652.972 62.7625 652.831 63.7833 652.55 64.5437C652.279 65.3041 651.868 65.8822 651.316 66.2781C650.764 66.6739 650.118 66.8718 649.378 66.8718C648.597 66.8718 647.956 66.6531 647.456 66.2156C646.967 65.7781 646.67 65.1687 646.566 64.3875ZM651.597 59.9656C651.597 59.2572 651.409 58.6947 651.034 58.2781C650.659 57.8614 650.211 57.6531 649.691 57.6531C649.139 57.6531 648.659 57.877 648.253 58.325C647.847 58.7729 647.644 59.351 647.644 60.0593C647.644 60.6947 647.836 61.2156 648.222 61.6218C648.607 62.0177 649.081 62.2156 649.644 62.2156C650.217 62.2156 650.685 62.0177 651.05 61.6218C651.415 61.2156 651.597 60.6635 651.597 59.9656Z" fill="#999999"/>
<path d="M657.8 67.2H656.534V56.6375H665.128V66.9812H663.862V66.2H657.8V67.2ZM663.862 60.7937V57.6687H657.8V60.7937H663.862ZM663.862 65.1687V61.825H657.8V65.1687H663.862ZM678.081 59.8562H680.659V60.7312H678.362V61.9968H680.222V62.8718H678.362V64.1843H680.222V65.0593H678.362V66.4187H681.097V67.3093H675.566V67.8562H674.644V61.7781C674.352 62.1739 673.987 62.5385 673.55 62.8718L673.159 61.825C674.545 60.5854 675.441 59.2937 675.847 57.95H674.581V59.2H673.659V57.075H676.066C676.211 56.4916 676.336 55.8718 676.441 55.2156L677.534 55.4812C677.649 55.5958 677.612 55.7052 677.425 55.8093C677.321 56.2468 677.211 56.6687 677.097 57.075H680.987V58.9812H680.05V57.95H676.878C676.659 58.7104 676.368 59.3458 676.003 59.8562H677.159L677.862 58.2156L678.909 58.4343C679.086 58.5072 679.05 58.601 678.8 58.7156L678.081 59.8562ZM668.847 57.3406V56.3093H673.487V57.3406H671.581C671.508 58.476 671.269 59.5177 670.862 60.4656H673.003V66.9812H672.066V66.0906H670.644V67.5281H669.722V62.5906C669.503 62.9552 669.264 63.2833 669.003 63.575L668.3 62.6531C669.571 61.226 670.316 59.4552 670.534 57.3406H668.847ZM675.566 62.8718V64.1843H677.425V62.8718H675.566ZM675.566 60.7312V61.9968H677.425V60.7312H675.566ZM675.566 65.0593V66.4187H677.425V65.0593H675.566ZM670.644 61.3406V65.2156H672.066V61.3406H670.644ZM687.222 61.45C688.566 61.0854 689.42 60.3718 689.784 59.3093L688.316 58.7156L688.691 57.7781L690.003 58.2781L690.112 56.9656H687.816V55.9187H694.378L694.269 60.6218C694.237 61.5385 693.857 61.9968 693.128 61.9968H691.862L691.753 60.95H692.909C693.128 60.95 693.237 60.8406 693.237 60.6218L693.347 56.9656H691.206L691.05 58.7156L692.362 59.4187L691.862 60.4031L690.769 59.8093C690.3 61.1531 689.264 62.0645 687.659 62.5437L687.222 61.45ZM694.159 66.9187C693.868 65.8249 693.415 64.877 692.8 64.075L693.784 63.6375C694.586 64.6166 695.097 65.5437 695.316 66.4187L694.159 66.9187ZM686.831 63.4656V67.6843H685.909V67.3093H684.05V67.9031H683.112V63.4656H686.831ZM687.269 66.9812C687.529 66.0645 687.696 65.0229 687.769 63.8562L688.862 63.9656C688.935 63.9968 688.899 64.0854 688.753 64.2312C688.711 65.3979 688.545 66.4031 688.253 67.2468L687.269 66.9812ZM690.769 61.6687C691.279 61.9916 691.79 62.5541 692.3 63.3562L691.269 63.9656C691.008 63.4552 690.571 62.8718 689.956 62.2156L690.769 61.6687ZM683.331 55.7H686.612V56.7468H683.331V55.7ZM682.628 57.5593H687.331V58.6062H682.628V57.5593ZM683.331 59.5906H686.612V60.6218H683.331V59.5906ZM683.331 61.45H686.612V62.4812H683.331V61.45ZM684.05 64.3406V66.4187H685.909V64.3406H684.05ZM690.222 63.3093C690.514 63.3406 690.534 63.45 690.284 63.6375V66.2C690.284 66.4604 690.394 66.5906 690.612 66.5906H691.816C692.034 66.5906 692.159 66.4812 692.191 66.2625L692.3 65.3875L693.394 65.6531L693.175 66.8093C693.071 67.3614 692.743 67.6375 692.191 67.6375H690.112C689.498 67.6375 689.191 67.3041 689.191 66.6375V63.3093H690.222Z" fill="#999999"/>
<path d="M32.6688 40.8093C30.5854 41.7468 27.799 42.3979 24.3094 42.7625L23.9188 41.2C26.5229 41.1479 28.9969 40.7572 31.3406 40.0281C30.5073 39.5593 29.7261 38.9083 28.9969 38.075C28.0594 38.752 26.7052 39.325 24.9344 39.7937L24.3875 38.4656C26.8354 37.9447 28.6323 36.9552 29.7781 35.4968C29.1011 35.4447 28.7625 35.0802 28.7625 34.4031V31.7468H30.0125C30.4813 31.7468 30.5073 31.9031 30.0906 32.2156V33.7C30.0906 34.0645 30.2729 34.2468 30.6375 34.2468H34.3094C34.5177 34.2468 34.6219 34.1427 34.6219 33.9343L34.7 32.9187L36.0281 33.2312L35.95 34.4812C35.8979 35.1583 35.4552 35.4968 34.6219 35.4968H31.4188C31.2625 35.8093 31.0281 36.1218 30.7156 36.4343H36.3406L36.6531 36.2L37.9031 37.1375L37.4344 37.45C36.4448 38.4395 35.3771 39.2729 34.2313 39.95C36.0542 40.575 38.3198 40.8875 41.0281 40.8875L40.325 42.6062C37.0438 42.3458 34.4917 41.7468 32.6688 40.8093ZM38.0594 26.7468C33.0594 27.1635 28.7365 27.45 25.0906 27.6062L24.6219 26.2781C29.5698 26.0697 33.9188 25.7312 37.6688 25.2625L38.6063 26.4343C38.9188 26.7989 38.7365 26.9031 38.0594 26.7468ZM38.3719 35.2625C37.5906 34.1687 36.8354 33.3093 36.1063 32.6843L37.2781 31.9031C37.9031 32.3718 38.7365 33.2052 39.7781 34.4031L38.3719 35.2625ZM32.1219 33.7C31.7052 32.8666 31.3406 32.2937 31.0281 31.9812L32.3563 31.4343C32.7729 31.851 33.1896 32.3718 33.6063 32.9968L32.1219 33.7ZM27.5125 29.7937C27.2521 29.325 26.8875 28.8562 26.4188 28.3875L28.0594 27.8406C28.5281 28.3093 28.9188 28.7781 29.2313 29.2468L27.5125 29.7937ZM38.9969 33.2312V31.2H25.1688V33.4656H23.6063V29.95H34.7C35.2208 29.2729 35.7156 28.3354 36.1844 27.1375L37.6688 27.7625C38.1896 27.9708 38.1375 28.1531 37.5125 28.3093C37.1479 28.8822 36.7573 29.4291 36.3406 29.95H40.5594V33.2312H38.9969ZM32.7469 39.4031C33.7365 38.8822 34.5958 38.3093 35.325 37.6843H30.1688C30.95 38.4656 31.8094 39.0385 32.7469 39.4031ZM31.7313 29.7156C31.3146 28.9864 30.924 28.4395 30.5594 28.075L32.2 27.6062C32.7208 28.127 33.1375 28.6479 33.45 29.1687L31.7313 29.7156ZM27.9813 32.9187C28.2417 33.1791 28.1375 33.3354 27.6688 33.3875C27.2521 34.2208 26.7313 35.0281 26.1063 35.8093L24.8563 34.95C25.6375 34.1166 26.2365 33.2312 26.6531 32.2937L27.9813 32.9187ZM50.0125 25.8875C53.0854 25.9395 56.1323 25.6791 59.1531 25.1062L59.8563 26.4343C60.0125 26.7468 59.8302 26.7729 59.3094 26.5125C56.3406 26.9291 53.3458 27.1375 50.325 27.1375L50.0125 25.8875ZM46.575 30.575C46.3667 32.3458 46.0281 34.1947 45.5594 36.1218C46.0802 36.3302 46.575 36.5645 47.0438 36.825C47.5125 34.8458 47.799 32.7625 47.9031 30.575H46.575ZM43.3719 37.9187C44.1531 35.6791 44.7261 33.2312 45.0906 30.575H43.45V29.0906H45.2469L45.5594 25.1843L47.2781 25.4187C47.4865 25.627 47.4083 25.7572 47.0438 25.8093L46.7313 29.0906H48.45L48.6844 28.9343L49.7 29.7937L49.3875 30.1062C49.2833 32.8666 48.9448 35.3406 48.3719 37.5281C48.8927 37.8406 49.4136 38.2572 49.9344 38.7781L48.9969 40.1843C48.6323 39.7677 48.2417 39.4031 47.825 39.0906C46.8875 40.7572 45.6636 42.0072 44.1531 42.8406L43.3719 41.3562C44.9344 40.4708 46.0021 39.4031 46.575 38.1531C46.1063 37.8406 45.6375 37.5802 45.1688 37.3718L44.7781 38.3875L43.3719 37.9187ZM59.7 28.075C59.4917 28.7 59.1792 29.351 58.7625 30.0281L57.3563 29.4812C57.7208 28.8041 58.0594 28.0229 58.3719 27.1375L59.9344 27.6843C60.1427 27.8927 60.0646 28.0229 59.7 28.075ZM54.7781 37.2937C55.1427 38.0229 55.6375 38.6739 56.2625 39.2468C56.8875 38.5697 57.4083 37.9187 57.825 37.2937H54.7781ZM52.9031 33.3093L53.0594 31.9812H50.6375V30.4968H60.0125V31.9812H54.6219L54.4656 33.3093H61.1844V34.7937H54.2313L53.9188 36.0437H58.2156L58.3719 35.8875L59.7 36.9031C60.0125 37.1114 59.9604 37.2416 59.5438 37.2937C58.9188 38.3354 58.1896 39.2989 57.3563 40.1843C58.2417 40.8093 59.4656 41.3041 61.0281 41.6687L60.325 43.1531C58.9188 42.7364 57.5646 42.0593 56.2625 41.1218C55.1167 42.0072 53.7365 42.6583 52.1219 43.075L51.575 41.7468C53.1896 41.2781 54.3875 40.7312 55.1688 40.1062C54.4396 39.325 53.8406 38.4395 53.3719 37.45C52.4865 39.8458 51.0281 41.6427 48.9969 42.8406L48.0594 41.5125C50.4552 40.0541 51.9917 37.8145 52.6688 34.7937H49.7781V33.3093H52.9031ZM55.325 27.2156C55.8458 27.8406 56.2365 28.5177 56.4969 29.2468L55.0906 29.95C54.7781 29.2208 54.4136 28.5437 53.9969 27.9187L55.325 27.2156ZM52.1219 27.5281C52.6427 28.1531 53.0073 28.8041 53.2156 29.4812L51.8094 30.1062C51.6011 29.4812 51.2625 28.8302 50.7938 28.1531L52.1219 27.5281ZM76.1844 37.6062C77.2261 38.6479 78.7625 39.6895 80.7938 40.7312L79.8563 42.3718C78.0854 41.5385 76.4188 40.3406 74.8563 38.7781L76.1844 37.6062ZM69.3875 39.0125C68.5021 40.2625 67.1479 41.4864 65.325 42.6843L64.1531 41.2C65.8198 40.2104 67.1479 39.0385 68.1375 37.6843L69.6219 38.5437C69.8823 38.752 69.8042 38.9083 69.3875 39.0125ZM66.1844 36.9812V37.7625H64.6219V26.5125H66.1063C66.5229 26.5645 66.549 26.7208 66.1844 26.9812V35.4968H80.5594V36.9812H73.2938V42.9968H71.4969V36.9812H66.1844ZM69.6219 33.2312H76.4188V31.7468H69.6219V33.2312ZM69.6219 30.4968H76.4188V29.2468H69.6219V30.4968ZM69.6219 27.9968H76.4188V26.7468H69.6219V27.9968ZM68.0594 34.4812V25.4968H77.9813V34.4812H68.0594ZM92.9813 30.1843C92.0958 35.3927 91.0281 38.6218 89.7781 39.8718C89.1011 40.5489 88.3979 40.8875 87.6688 40.8875C86.8354 40.8875 86.1844 40.6531 85.7156 40.1843C84.4656 38.9343 83.8406 37.3718 83.8406 35.4968C83.8406 33.2052 84.6479 31.252 86.2625 29.6375C88.0333 27.8666 90.1948 26.9812 92.7469 26.9812C95.0386 26.9812 96.8354 27.6322 98.1375 28.9343C99.5958 30.3927 100.325 32.1114 100.325 34.0906C100.325 36.226 99.6479 37.9708 98.2938 39.325C97.4083 40.2104 96.0542 41.0697 94.2313 41.9031L92.5906 40.2625C94.4136 39.6895 95.8458 38.8822 96.8875 37.8406C97.8771 36.851 98.3719 35.6531 98.3719 34.2468C98.3719 32.5802 97.825 31.2 96.7313 30.1062C95.6375 29.0125 93.9188 28.5177 91.575 28.6218L92.9813 29.325C93.6063 29.5854 93.6063 29.8718 92.9813 30.1843ZM91.1844 28.7C89.8302 29.0125 88.6583 29.6635 87.6688 30.6531C86.3146 32.0072 85.6375 33.6739 85.6375 35.6531C85.6375 36.851 86.0281 37.8406 86.8094 38.6218C86.9656 38.7781 87.2 38.8562 87.5125 38.8562C87.825 38.8562 88.1636 38.6739 88.5281 38.3093C89.7261 37.1114 90.6115 33.9083 91.1844 28.7ZM110.325 41.5125C112.46 40.3666 113.528 38.4135 113.528 35.6531V26.6687L115.169 26.9812L119.388 25.6531L120.559 27.2156C120.664 27.5281 120.481 27.5802 120.013 27.3718L115.091 28.3093V31.6687H121.263V33.1531H118.919V42.9187H117.356V33.1531H115.091V36.1218C115.091 39.1947 113.789 41.4864 111.184 42.9968L110.325 41.5125ZM108.841 42.9968H107.278V38.3093C106.445 39.6635 105.533 40.7312 104.544 41.5125L103.372 40.1062C104.83 39.0645 106.054 37.7625 107.044 36.2H103.763V34.7156H107.278V32.9968H103.294V31.5125H108.763L109.622 28.7H103.841V27.2156H107.278V25.0281H108.763C109.179 25.0802 109.205 25.2364 108.841 25.4968V27.2156H112.278V28.7H111.263L110.169 31.5125H112.669V32.9968H108.841V34.7156H112.278V36.2H108.841V36.9031C109.57 37.1114 110.585 37.6583 111.888 38.5437L110.95 40.1062C110.221 39.377 109.518 38.8041 108.841 38.3875V42.9968ZM105.716 31.3562C105.507 30.627 105.221 29.9239 104.856 29.2468L106.341 28.7781C106.757 29.4552 107.07 30.1583 107.278 30.8875L105.716 31.3562ZM138.45 33.5437H133.372V35.2625H138.45V33.5437ZM136.341 36.7468H134.934V37.5281C134.934 40.7572 133.085 42.6583 129.388 43.2312L128.919 41.5906C131.888 41.226 133.372 39.8197 133.372 37.3718V36.7468H132.591H131.809V25.8093H140.013V36.7468H137.903V40.6531C137.903 41.0697 138.085 41.2781 138.45 41.2781H139.231C139.492 41.2781 139.648 41.0177 139.7 40.4968L139.856 39.1687L141.419 39.6375L141.184 41.4343C141.08 42.3197 140.585 42.7625 139.7 42.7625H137.747C136.809 42.7625 136.341 42.3197 136.341 41.4343V36.7468ZM133.372 32.0593H138.45V30.4187H133.372V32.0593ZM133.372 28.9343H138.45V27.2937H133.372V28.9343ZM127.747 35.8875C128.789 36.3562 130.013 37.2156 131.419 38.4656L130.325 40.1062C129.231 38.9083 128.268 38.0229 127.434 37.45C126.914 39.7416 125.82 41.5385 124.153 42.8406L122.981 41.4343C125.273 39.5072 126.367 37.0072 126.263 33.9343H123.294V32.45H126.341V29.6375H123.841V28.1531H126.341V25.0281H127.825C128.242 25.0802 128.268 25.2364 127.903 25.4968V28.1531H130.638V29.6375H127.903V32.45H131.028V33.9343H127.825C127.825 34.7677 127.799 35.4187 127.747 35.8875ZM147.825 32.1375C148.815 33.4916 149.309 34.8979 149.309 36.3562C149.309 38.3875 148.71 39.4031 147.513 39.4031H146.575L146.263 37.8406H147.044C147.565 37.8406 147.799 37.2937 147.747 36.2C147.695 34.6895 147.226 33.3614 146.341 32.2156L147.903 27.1375H145.481V42.7625H143.919V25.8875H148.294L148.606 25.4968L149.934 26.6687L149.622 26.9812L147.825 32.1375ZM159.153 36.5125H158.372C157.539 40.3145 154.752 42.502 150.013 43.075L149.544 41.5906C153.606 41.2781 156.054 39.5854 156.888 36.5125H155.794C154.908 38.7 153.033 40.0281 150.169 40.4968L149.7 39.1687C152.096 38.6479 153.58 37.7625 154.153 36.5125H152.903C152.174 37.2416 151.236 37.8145 150.091 38.2312L149.466 36.9031C151.132 36.3822 152.278 35.3927 152.903 33.9343H149.388V32.6843H161.106V33.9343H154.544C154.335 34.4031 154.075 34.8458 153.763 35.2625H160.638L160.481 40.1843C160.429 41.851 159.83 42.6843 158.684 42.6843H157.122L156.888 41.2H158.216C158.684 41.2 158.945 40.8875 158.997 40.2625L159.153 36.5125ZM152.513 30.4187H157.825V29.0906H152.513V30.4187ZM152.513 27.8406H157.825V26.5906H152.513V27.8406ZM159.153 25.3406V31.6687H151.184V25.3406H159.153ZM172.434 29.325H174.544V25.2625H176.028C176.445 25.3145 176.471 25.4708 176.106 25.7312V29.325H180.325V30.8093H176.106V34.5593H180.091V36.0437H176.106V40.6531H181.263V42.1375H169.309V40.6531H174.544V36.0437H170.716V34.5593H174.544V30.8093H171.966C171.601 31.851 171.028 32.8927 170.247 33.9343L168.919 32.9187C170.273 31.1479 171.158 29.0125 171.575 26.5125L173.059 26.825C173.476 26.9812 173.476 27.1375 173.059 27.2937L172.434 29.325ZM165.794 25.0281H167.278C167.695 25.0802 167.721 25.2364 167.356 25.4968V42.8406H165.794V25.0281ZM168.763 28.2312C169.231 28.8562 169.622 29.5593 169.934 30.3406L168.684 31.2C168.32 30.3145 167.955 29.5854 167.591 29.0125L168.763 28.2312ZM165.325 29.0906C165.69 29.1947 165.69 29.351 165.325 29.5593C165.221 31.226 164.986 32.7885 164.622 34.2468L163.138 33.7781C163.554 32.476 163.789 30.8354 163.841 28.8562L165.325 29.0906ZM198.138 33.6218V42.6843H196.575V41.9031H189.544V42.9187H187.981V35.8093C186.627 36.5385 185.169 37.1114 183.606 37.5281L183.059 36.1218C184.518 35.7572 186.158 35.1062 187.981 34.1687V33.6218H189.075C190.169 32.9968 191.106 32.3718 191.888 31.7468H183.684V30.2625H190.559V28.3875H185.716V26.9031H190.559V25.0281H192.044C192.46 25.0802 192.486 25.2364 192.122 25.4968V26.9031H195.872V28.2312C196.497 27.5541 197.122 26.7989 197.747 25.9656L198.841 26.6687C199.205 26.9291 199.153 27.0854 198.684 27.1375C197.695 28.3354 196.705 29.377 195.716 30.2625H201.106V31.7468H194.075C193.033 32.6322 192.2 33.2572 191.575 33.6218H198.138ZM193.606 30.2625C194.231 29.7937 194.934 29.1687 195.716 28.3875H192.122V30.2625H193.606ZM189.544 36.9812H196.575V34.8718H189.544V36.9812ZM189.544 40.6531H196.575V38.2312H189.544V40.6531ZM216.731 36.9031C217.46 35.4968 217.903 33.3614 218.059 30.4968H215.403C215.559 33.3614 216.002 35.4968 216.731 36.9031ZM219.622 30.4968C219.518 33.726 218.893 36.3302 217.747 38.3093C218.58 39.351 219.752 40.2625 221.263 41.0437L220.247 42.7625C218.58 41.6687 217.408 40.627 216.731 39.6375C215.533 40.9916 213.684 42.1635 211.184 43.1531L210.403 41.5906C213.111 40.4968 214.908 39.377 215.794 38.2312C214.908 36.5125 214.414 34.7937 214.309 33.075C213.997 33.8562 213.684 34.4552 213.372 34.8718L212.044 33.8562C213.606 31.5645 214.544 28.726 214.856 25.3406L216.497 25.7312C216.809 25.9395 216.731 26.0958 216.263 26.2C216.106 27.1375 215.898 28.075 215.638 29.0125H220.95V30.4968H219.622ZM212.356 26.7468C212.044 27.5281 211.679 28.1791 211.263 28.7L210.013 27.9968C210.429 27.3197 210.82 26.5385 211.184 25.6531L212.591 26.3562C212.799 26.5645 212.721 26.6947 212.356 26.7468ZM207.356 37.7625C208.085 37.9708 208.736 38.2052 209.309 38.4656C209.726 37.9968 210.065 37.2937 210.325 36.3562H208.059C207.851 36.825 207.617 37.2937 207.356 37.7625ZM206.263 39.7156L205.013 39.0125C205.533 38.2312 206.054 37.3458 206.575 36.3562H203.606V35.1062H207.044C207.356 34.4291 207.591 33.8562 207.747 33.3875L209.231 33.7781C209.44 33.9864 209.361 34.1166 208.997 34.1687L208.528 35.1062H212.981V36.3562H211.809C211.549 37.3979 211.158 38.2833 210.638 39.0125C211.106 39.2208 211.601 39.4812 212.122 39.7937L211.419 41.0437C210.846 40.6791 210.325 40.3927 209.856 40.1843C208.502 41.5385 206.679 42.3718 204.388 42.6843L203.841 41.2781C205.872 41.0697 207.434 40.4968 208.528 39.5593C207.955 39.2989 207.382 39.0645 206.809 38.8562L206.263 39.7156ZM207.825 25.0281H209.075C209.492 25.0802 209.518 25.2364 209.153 25.4968V28.8562H213.138V30.1062H209.856C210.429 30.7833 211.315 31.4343 212.513 32.0593L211.653 33.3875C210.768 32.8666 209.934 32.1375 209.153 31.2V33.075H207.825V31.5906C206.992 32.6322 205.846 33.5697 204.388 34.4031L203.372 33.1531C204.986 32.3197 206.315 31.3041 207.356 30.1062H203.763V28.8562H207.825V25.0281ZM205.638 28.6218C205.273 27.8406 204.804 27.1635 204.231 26.5906L205.481 25.8093C206.106 26.4343 206.575 27.0854 206.888 27.7625L205.638 28.6218ZM232.981 30.1843C232.096 35.3927 231.028 38.6218 229.778 39.8718C229.101 40.5489 228.398 40.8875 227.669 40.8875C226.835 40.8875 226.184 40.6531 225.716 40.1843C224.466 38.9343 223.841 37.3718 223.841 35.4968C223.841 33.2052 224.648 31.252 226.263 29.6375C228.033 27.8666 230.195 26.9812 232.747 26.9812C235.039 26.9812 236.835 27.6322 238.138 28.9343C239.596 30.3927 240.325 32.1114 240.325 34.0906C240.325 36.226 239.648 37.9708 238.294 39.325C237.408 40.2104 236.054 41.0697 234.231 41.9031L232.591 40.2625C234.414 39.6895 235.846 38.8822 236.888 37.8406C237.877 36.851 238.372 35.6531 238.372 34.2468C238.372 32.5802 237.825 31.2 236.731 30.1062C235.638 29.0125 233.919 28.5177 231.575 28.6218L232.981 29.325C233.606 29.5854 233.606 29.8718 232.981 30.1843ZM231.184 28.7C229.83 29.0125 228.658 29.6635 227.669 30.6531C226.315 32.0072 225.638 33.6739 225.638 35.6531C225.638 36.851 226.028 37.8406 226.809 38.6218C226.966 38.7781 227.2 38.8562 227.513 38.8562C227.825 38.8562 228.164 38.6739 228.528 38.3093C229.726 37.1114 230.611 33.9083 231.184 28.7ZM248.763 31.825C250.481 30.2104 251.809 27.8666 252.747 24.7937L254.309 25.2625C254.57 25.4708 254.518 25.601 254.153 25.6531C253.736 26.6947 253.32 27.6583 252.903 28.5437H255.247C255.82 27.3458 256.263 26.2781 256.575 25.3406L258.059 25.8875C258.268 26.0958 258.19 26.226 257.825 26.2781C257.46 27.1114 257.096 27.8666 256.731 28.5437H260.716V30.0281H256.731V32.45H259.934V33.9343H256.731V36.4343H259.934V37.9187H256.731V40.8093H261.184V42.2937H252.591V42.9968H251.028V31.6687C250.664 32.1895 250.273 32.6583 249.856 33.075L248.763 31.825ZM244.856 42.8406L244.544 41.3562H245.872C246.08 41.3562 246.184 41.252 246.184 41.0437V36.2L244.153 36.6687C244.101 37.0333 243.971 37.1114 243.763 36.9031L243.45 35.1062L246.184 34.5593V30.4187H243.763V28.9343H246.184V24.95H247.669C248.085 25.002 248.111 25.1583 247.747 25.4187V28.9343H249.778V30.4187H247.747V34.2468L249.778 33.7L250.013 35.1062L247.747 35.8093V41.5906C247.747 42.4239 247.33 42.8406 246.497 42.8406H244.856ZM252.591 40.8093H255.169V37.9187H252.591V40.8093ZM252.591 36.4343H255.169V33.9343H252.591V36.4343ZM252.591 32.45H255.169V30.0281H252.591V32.45ZM278.841 27.1375L279.075 26.825L280.325 27.8406L280.091 28.075C278.736 30.4187 277.408 31.9812 276.106 32.7625L276.888 32.9968C277.252 33.1531 277.226 33.3093 276.809 33.4656C276.705 33.8302 276.575 34.1427 276.419 34.4031H279.778L280.013 34.0906L281.419 35.1062L281.106 35.4187C279.44 39.8458 276.054 42.3458 270.95 42.9187L270.325 41.4343C272.773 41.1739 274.7 40.5229 276.106 39.4812C275.377 38.752 274.648 38.127 273.919 37.6062C273.242 38.1791 272.33 38.7 271.184 39.1687L270.481 37.7625C273.033 36.7208 274.7 35.1322 275.481 32.9968C274.7 33.726 273.294 34.351 271.263 34.8718L270.559 33.4656C272.539 33.0489 274.023 32.502 275.013 31.825C274.492 31.2 273.867 30.6531 273.138 30.1843C272.773 30.5489 272.408 30.8614 272.044 31.1218L270.95 29.95C272.669 28.4916 273.763 26.9291 274.231 25.2625L275.638 25.7312C276.002 25.8875 275.976 26.0437 275.559 26.2C275.507 26.5125 275.377 26.825 275.169 27.1375H278.841ZM268.216 30.1843H270.794V31.6687H268.216V33.6218C269.257 34.0906 270.247 34.7937 271.184 35.7312L270.169 37.1375C269.335 36.3041 268.684 35.7052 268.216 35.3406V42.9187H266.653V35.1843C266.341 36.226 265.481 37.5541 264.075 39.1687L262.903 37.6843C264.83 35.8614 266.028 33.8562 266.497 31.6687H263.45V30.1843H266.653V27.6062C265.611 27.7625 264.674 27.8927 263.841 27.9968L263.45 26.5125C265.533 26.3041 267.695 25.8875 269.934 25.2625L270.794 26.4343C271.002 26.7468 270.872 26.851 270.403 26.7468C269.674 26.9552 268.945 27.1375 268.216 27.2937V30.1843ZM273.919 29.2468C274.7 29.6635 275.455 30.1843 276.184 30.8093C276.966 30.0802 277.617 29.2729 278.138 28.3875H274.544C274.335 28.752 274.127 29.0385 273.919 29.2468ZM274.778 36.6687C275.507 37.0854 276.341 37.7104 277.278 38.5437C278.059 37.9708 278.736 37.0072 279.309 35.6531H275.716C275.403 36.0697 275.091 36.4083 274.778 36.6687ZM286.809 29.325C287.382 28.127 288.346 26.9031 289.7 25.6531L290.559 26.4343C289.257 27.6322 288.346 28.7781 287.825 29.8718C287.252 31.0697 286.966 32.502 286.966 34.1687C286.966 35.575 287.252 36.9031 287.825 38.1531C288.346 39.2989 289.257 40.575 290.559 41.9812L289.7 42.8406C288.398 41.3822 287.434 40.002 286.809 38.7C286.132 37.2937 285.794 35.7833 285.794 34.1687C285.794 32.3458 286.132 30.7312 286.809 29.325ZM297.903 41.9031H296.106V26.825H308.372V41.5906H306.575V40.4968H297.903V41.9031ZM306.575 32.7625V28.3093H297.903V32.7625H306.575ZM306.575 39.0125V34.2468H297.903V39.0125H306.575ZM321.341 35.8093H318.372C317.903 38.7781 316.497 41.1218 314.153 42.8406L313.372 41.3562C315.664 39.7416 316.914 37.3458 317.122 34.1687L317.278 31.7468H316.184V32.7625H314.622V26.0437H322.513V32.45H320.95V31.7468H318.684L318.528 34.325H322.903L322.513 40.4968C322.408 41.7468 321.888 42.3718 320.95 42.3718H318.841L318.606 40.8875H320.325C320.794 40.8875 321.054 40.627 321.106 40.1062L321.341 35.8093ZM329.778 41.2C329.778 42.0854 329.361 42.5281 328.528 42.5281H326.809L326.497 41.0437H327.981C328.138 41.0437 328.216 40.9656 328.216 40.8093V25.8093H329.7C330.117 25.8614 330.143 26.0177 329.778 26.2781V41.2ZM326.028 27.6843C326.445 27.7364 326.471 27.8927 326.106 28.1531V38.8562H324.544V27.6843H326.028ZM320.95 30.4968V27.2937H316.184V30.4968H320.95ZM337.513 38.7C336.888 40.002 335.924 41.3822 334.622 42.8406L333.763 41.9812C335.065 40.575 335.976 39.2989 336.497 38.1531C337.07 36.9031 337.356 35.575 337.356 34.1687C337.356 32.502 337.07 31.0697 336.497 29.8718C335.976 28.7781 335.065 27.6322 333.763 26.4343L334.622 25.6531C335.976 26.9031 336.94 28.127 337.513 29.325C338.19 30.7312 338.528 32.3458 338.528 34.1687C338.528 35.7833 338.19 37.2937 337.513 38.7Z" fill="#757575"/>
</g>
<rect x="2" y="2" width="714" height="440" stroke="black" stroke-width="4"/>
<defs>
<clipPath id="clip0_0_1">
<rect width="718" height="444" fill="white"/>
</clipPath>
</defs>
</svg>
