<svg width="726" height="452" viewBox="0 0 726 452" fill="none" xmlns="http://www.w3.org/2000/svg">
<g filter="url(#filter0_d_6_4175)">
<g clip-path="url(#clip0_6_4175)">
<path d="M4 0H722V444H4V0Z" fill="white"/>
<path d="M191.5 91.5V369.5" stroke="#CCCCCC" stroke-miterlimit="10"/>
<path d="M311.5 91.5V369.5" stroke="#CCCCCC" stroke-miterlimit="10"/>
<path d="M431.5 91.5V369.5" stroke="#CCCCCC" stroke-miterlimit="10"/>
<path d="M551.5 91.5V369.5" stroke="#CCCCCC" stroke-miterlimit="10"/>
<path d="M671.5 91.5V369.5" stroke="#CCCCCC" stroke-miterlimit="10"/>
<path d="M99.5 369.5H699.5" stroke="#333333" stroke-miterlimit="10"/>
<path d="M99.5 300.5H699.5" stroke="#CCCCCC" stroke-miterlimit="10"/>
<path d="M99.5 230.5H699.5" stroke="#CCCCCC" stroke-miterlimit="10"/>
<path d="M99.5 161.5H699.5" stroke="#CCCCCC" stroke-miterlimit="10"/>
<path d="M99.5 91.5H699.5" stroke="#CCCCCC" stroke-miterlimit="10"/>
<path d="M99.2 369.8H99.7994H100.399H100.998H101.598H102.197H102.796H103.396H103.995H104.595H105.194H105.793H106.393H106.992H107.592H108.191H108.79H109.39H109.989H110.589H111.188H111.787H112.387H112.986H113.586H114.185H114.784H115.384H115.983H116.583H117.182H117.781H118.381H118.98H119.58L120.179 369.772L120.778 369.8H121.378H121.977H122.577H123.176H123.775H124.375H124.974H125.574L126.173 369.786L126.772 369.8H127.372H127.971H128.571H129.17H129.769H130.369H130.968H131.568H132.167H132.766H133.366H133.965H134.565H135.164L135.763 369.786L136.363 369.8L136.962 369.786L137.562 369.8H138.161H138.76L139.36 369.786L139.959 369.758L140.559 369.8L141.158 369.758L141.758 369.744L142.357 369.716L142.956 369.744L143.556 369.758L144.155 369.563L144.755 369.355L145.354 369.48L145.953 369.536L146.553 369.424L147.152 369.577L147.752 369.605L148.351 369.48L148.95 369.452L149.55 369.438L150.149 369.257L150.749 369.202L151.348 369.382L151.947 369.647L152.547 369.341L153.146 369.382L153.746 369.438L154.345 369.563L154.944 369.466L155.544 369.577L156.143 369.772L156.743 369.508H157.342L157.941 369.633H158.541L159.14 369.605L159.74 369.647L160.339 369.675L160.938 369.744L161.538 369.619L162.137 369.758H162.737H163.336L163.935 369.8L164.535 369.786H165.134H165.734H166.333L166.932 369.8L167.532 369.772L168.131 369.786L168.731 369.8L169.33 369.786H169.929H170.529L171.128 369.8H171.728L172.327 369.786L172.926 369.8H173.526H174.125H174.725H175.324L175.923 369.744H176.523L177.122 369.716L177.722 369.772L178.321 369.689L178.92 369.508L179.52 369.438L180.119 369.563L180.719 369.633L181.318 369.577L181.917 369.716H182.517H183.116L183.716 369.73L184.315 369.772L184.914 369.758H185.514H186.113L186.713 369.772H187.312L187.911 369.675L188.511 369.786L189.11 369.758L189.71 369.786H190.309L190.908 369.758H191.508L192.107 369.73L192.707 369.8H193.306H193.905L194.505 369.758L195.104 369.786L195.704 369.772L196.303 369.8L196.902 369.786L197.502 369.8L198.101 369.786L198.701 369.744H199.3H199.899H200.499L201.098 369.716L201.698 369.675L202.297 369.786L202.896 369.703L203.496 369.619L204.095 369.744L204.695 369.716L205.294 369.675L205.893 369.73L206.493 369.772L207.092 369.744L207.692 369.675L208.291 369.577L208.89 369.536L209.49 369.466L210.089 369.355H210.689L211.288 369.062L211.887 368.951L212.487 368.882L213.086 369.076L213.686 369.118L214.285 368.548L214.884 369.118L215.484 369.049L216.083 368.408L216.683 368.116L217.282 367.448L217.881 368.116L218.481 367.782L219.08 368.756L219.68 368.589L220.279 368.088L220.878 367.908L221.478 367.852L222.077 368.033L222.677 367.977L223.276 368.798L223.875 369.049L224.475 368.728L225.074 367.796L225.674 368.061L226.273 368.756L226.872 368.784L227.472 369.104L228.071 369.174L228.671 368.367L229.27 368.826L229.869 368.589L230.469 368.854L231.068 368.923L231.668 369.09L232.267 369.062L232.866 368.965L233.466 368.909L234.065 368.882L234.665 368.742L235.264 368.687L235.863 369.382L236.463 369.271L237.062 369.118L237.662 369.299L238.261 369.327L238.86 369.424L239.46 369.313L240.059 369.8L240.659 369.41L241.258 369.438L241.857 369.466L242.457 369.452L243.056 369.605L243.656 369.675L244.255 369.703L244.855 369.647H245.454L246.053 369.675L246.653 369.689L247.252 369.675L247.852 369.716L248.451 369.772H249.05L249.65 369.786L250.249 369.73H250.849L251.448 369.716L252.047 369.744L252.647 369.786L253.246 369.744L253.846 369.689L254.445 369.758L255.044 369.744L255.644 369.703L256.243 369.758L256.843 369.8L257.442 369.744L258.041 369.689H258.641L259.24 369.647L259.84 369.619L260.439 369.758L261.038 369.786L261.638 369.716L262.237 369.619L262.837 369.73L263.436 369.689L264.035 369.758H264.635L265.234 369.744L265.834 369.703H266.433L267.032 369.675L267.632 369.73H268.231L268.831 369.716L269.43 369.744L270.029 369.73L270.629 369.689L271.228 369.73L271.828 369.661L272.427 369.675L273.026 369.73H273.626L274.225 369.772L274.825 369.675L275.424 369.73L276.023 369.563L276.623 369.689L277.222 369.744H277.822L278.421 369.48L279.02 369.508L279.62 369.577H280.219L280.819 369.703L281.418 369.633L282.017 369.689L282.617 369.647L283.216 369.494H283.816L284.415 369.313L285.014 369.299L285.614 369.382L286.213 369.675L286.813 369.647L287.412 369.41L288.011 369.076L288.611 368.993L289.21 369.035L289.81 369.202L290.409 369.424L291.008 369.341L291.608 369.216L292.207 369.369L292.807 369.174L293.406 369.216L294.005 369.229L294.605 368.895L295.204 368.617L295.804 369.049L296.403 368.701L297.002 368.102L297.602 368.603L298.201 368.826L298.801 368.993L299.4 368.84L299.999 367.838L300.599 368.311L301.198 367.866L301.798 367.935L302.397 368.436L302.996 368.506L303.596 368.575L304.195 367.629L304.795 367.727L305.394 367.824L305.993 367.574L306.593 367.894L307.192 367.824L307.792 367.699L308.391 367.17L308.99 367.156L309.59 367.601L310.189 368.074L310.789 368.353L311.388 368.019L311.987 367.198L312.587 365.431L313.186 364.401L313.786 364.665L314.385 365.264L314.984 365.848L315.584 366.85L316.183 367.031L316.783 366.293L317.382 365.055L317.981 364.777L318.581 364.081L319.18 365.625L319.78 366.961L320.379 367.017L320.978 365.945L321.578 365.834L322.177 366.516L322.777 366.822L323.376 366.683L323.975 367.657L324.575 367.643L325.174 367.226H325.774L326.373 367.587L326.972 367.657L327.572 368.033L328.171 368.923L328.771 368.728L329.37 368.144L329.969 368.13L330.569 368.534L331.168 368.422L331.768 368.506L332.367 369.007L332.966 368.812L333.566 368.367L334.165 368.269L334.765 368.589L335.364 368.909L335.963 368.84L336.563 369.16L337.162 369.132L337.762 368.895L338.361 368.395L338.96 368.965L339.56 368.812L340.159 369.355L340.759 369.438L341.358 369.174L341.958 369.438L342.557 369.257L343.156 369.076L343.756 369.369L344.355 369.48L344.955 369.563L345.554 369.536L346.153 369.285H346.753L347.352 369.452L347.952 369.396L348.551 369.327L349.15 369.591L349.75 369.327L350.349 369.118L350.949 369.369L351.548 369.202L352.147 369.229L352.747 369.271L353.346 369.619L353.946 369.41L354.545 369.216L355.144 369.174L355.744 369.243L356.343 369.271L356.943 369.327L357.542 369.591L358.141 369.299L358.741 369.466L359.34 369.41H359.94L360.539 369.271L361.138 369.48L361.738 369.619L362.337 369.382L362.937 369.396L363.536 369.424L364.135 369.257H364.735L365.334 369.424L365.934 369.605L366.533 369.09L367.132 369.216L367.732 369.132L368.331 369.049L368.931 368.673L369.53 369.076L370.129 369.327L370.729 368.798L371.328 367.629L371.928 368.283L372.527 367.88L373.126 367.894L373.726 368.269L374.325 368.158L374.925 367.699L375.524 366.405L376.123 366.071L376.723 366.474L377.322 365.333L377.922 365.152L378.521 367.657L379.12 365.945L379.72 363.677L380.319 365.111L380.919 365.556L381.518 364.902L382.117 363.997L382.717 365.834L383.316 366.474L383.916 365.111L384.515 366.196L385.114 363.232L385.714 362.578L386.313 362.439L386.913 364.624L387.512 364.178L388.111 360.964L388.711 362.815L389.31 363.232L389.91 362.536L390.509 362.773L391.108 365.89L391.708 364.999L392.307 362.842L392.907 364.248L393.506 364.429L394.105 365.486L394.705 366.154L395.304 367.087L395.904 367.031L396.503 366.864L397.102 367.309L397.702 367.128L398.301 367.156L398.901 367.685L399.5 368.882L400.099 368.673L400.699 368.186L401.298 368.381L401.898 368.701L402.497 368.617L403.096 368.701L403.696 369.424L404.295 369.007L404.895 368.882L405.494 369.216L406.093 368.993L406.693 369.146L407.292 369.285L407.892 369.48L408.491 369.313L409.09 369.243L409.69 369.229L410.289 369.438L410.889 369.146L411.488 369.299L412.087 369.563L412.687 369.299L413.286 369.355L413.886 369.299L414.485 369.285L415.084 369.243L415.684 369.452L416.283 369.563L416.883 369.438L417.482 369.202L418.081 369.438L418.681 369.466L419.28 369.299L419.88 369.41L420.479 369.577L421.078 369.202H421.678L422.277 369.229L422.877 368.965L423.476 369.049L424.075 369.313L424.675 369.188L425.274 369.104L425.874 368.492L426.473 368.812L427.072 368.993L427.672 368.965L428.271 368.701L428.871 369.16L429.47 368.534L430.069 367.908L430.669 367.866L431.268 367.685L431.868 368.422L432.467 367.546L433.066 367.407L433.666 366.516L434.265 364.164L434.865 364.707L435.464 363.149L436.063 362.787L436.663 363.761L437.262 364.818L437.862 362.703L438.461 359.336L439.06 359.809L439.66 358.139L440.259 359.475L440.859 360.046L441.458 361.117L442.057 363.427L442.657 359.559L443.256 355.328L443.856 356.567L444.455 357.416L445.055 360.338L445.654 360.296L446.253 359.837L446.853 352.364L447.452 354.02L448.052 353.172L448.651 354.911L449.25 353.881L449.85 357.346L450.449 357.569L451.049 354.577L451.648 356.01L452.247 355.941L452.847 356.539L453.446 356.483L454.046 361.089L454.645 360.268L455.244 355.648L455.844 358.751L456.443 359.614L457.043 360.88L457.642 361.618L458.241 363.956L458.841 363.9L459.44 361.841L460.04 363.83L460.639 363.705L461.238 364.554L461.838 365.89L462.437 367.908L463.037 366.961L463.636 365.528L464.235 367.045L464.835 367.448L465.434 367.991L466.034 367.963L466.633 368.603L467.232 369.021L467.832 368.325L468.431 367.281L469.031 368.868L469.63 368.77L470.229 368.575L470.829 369.16L471.428 369.202L472.028 369.188L472.627 369.285L473.226 369.174H473.826L474.425 369.202L475.025 369.591L475.624 369.522L476.223 369.48L476.823 369.466L477.422 369.577L478.022 369.424L478.621 369.382L479.22 369.633L479.82 369.605L480.419 369.396L481.019 369.549L481.618 369.494L482.217 369.563L482.817 369.661L483.416 369.647L484.016 369.508L484.615 369.675L485.214 369.73L485.814 369.647L486.413 369.675L487.013 369.73L487.612 369.758H488.211L488.811 369.703L489.41 369.73L490.01 369.536L490.609 369.549L491.208 369.633L491.808 369.73L492.407 369.744L493.007 369.633L493.606 369.758L494.205 369.716L494.805 369.744L495.404 369.772L496.004 369.786L496.603 369.744L497.202 369.716L497.802 369.758L498.401 369.661L499.001 369.73L499.6 369.661L500.199 369.744L500.799 369.73L501.398 369.758L501.998 369.647L502.597 369.661L503.196 369.563L503.796 369.661L504.395 369.758L504.995 369.661L505.594 369.73L506.193 369.703L506.793 369.689L507.392 369.703L507.992 369.758L508.591 369.772L509.19 369.758L509.79 369.716L510.389 369.689L510.989 369.647L511.588 369.716L512.187 369.772L512.787 369.73L513.386 369.786L513.986 369.758L514.585 369.716L515.184 369.744L515.784 369.716L516.383 369.772L516.983 369.786L517.582 369.73L518.181 369.772L518.781 369.758L519.38 369.772L519.98 369.8L520.579 369.73L521.178 369.758L521.778 369.703L522.377 369.633L522.977 369.536L523.576 369.466L524.175 369.716L524.775 369.73L525.374 369.744L525.974 369.716L526.573 369.675L527.172 369.758L527.772 369.716L528.371 369.536L528.971 369.744L529.57 369.633L530.169 369.438L530.769 369.146L531.368 368.645L531.968 367.852L532.567 366.975L533.166 366.391L533.766 367.059L534.365 367.824L534.965 364.192L535.564 359.489L536.163 356.205L536.763 354.104L537.362 350.973L537.962 357.722L538.561 348.301L539.16 337.698L539.76 336.042L540.359 327.944L540.959 325.091L541.558 329.502L542.157 344.962L542.757 314.641L543.356 312.345L543.956 305.318L544.555 313.082L545.154 292.586L545.754 307.586L546.353 344.127L546.953 303.425L547.552 304.302L548.151 302.298L548.751 312.776L549.35 314.446L549.95 326.316L550.549 348.454L551.148 309.798L551.748 312.359L552.347 306.334L552.947 308.24L553.546 346.353L554.146 322.058L554.745 347.369L555.344 311.802L555.944 311.719L556.543 322.656L557.143 326.079L557.742 329.6L558.341 334.011L558.941 351.571L559.54 322.6L560.14 316.325L560.739 347.995L561.338 328.486L561.938 325.202L562.537 339.312L563.137 354.382L563.736 329.725L564.335 327.498L564.935 337.434L565.534 336.028L566.134 335.68L566.733 342.193L567.332 355.927L567.932 333.857L568.531 330.768L569.131 337.949L569.73 339.312L570.329 339.006L570.929 343.64L571.528 358L572.128 337.058L572.727 334.581L573.326 342.958L573.926 345.031L574.525 344.363L575.125 350.305L575.724 358.626L576.323 361.395L576.923 339.09L577.522 336.39L578.122 339.911L578.721 341.859L579.32 344.823L579.92 357.541L580.519 337.795L581.119 331.074L581.718 339.243L582.317 338.255L582.917 339.841L583.516 344.141L584.116 356.817L584.715 335.277L585.314 330.003L585.914 333.176L586.513 335.068L587.113 333.44L587.712 341.497L588.311 356.664L588.911 330.657L589.51 324.841L590.11 335.639L590.709 335.597L591.308 338.227L591.908 345.922L592.507 359.503L593.107 336.042L593.706 331.464L594.305 336.807L594.905 337.99L595.504 336.974L596.104 344.6L596.703 356.748L597.302 333.19L597.902 331.854L598.501 338.964L599.101 340.871L599.7 356.316L600.299 347.285L600.899 356.567L601.498 336.599L602.098 349.331L602.697 354.118L603.296 356.052L603.896 329.892L604.495 332.995L605.095 353.714L605.694 332.41L606.293 331.339L606.893 340.328L607.492 340.439L608.092 340.912L608.691 346.506L609.29 358.891L609.89 337.267L610.489 333.774L611.089 338.783L611.688 342.234L612.287 342.373L612.887 348.009L613.486 359.461L614.086 341.093L614.685 341.232L615.284 348.969L615.884 348.983L616.483 350.041L617.083 355.69L617.682 363.733L618.281 351.71L618.881 350.792L619.48 354.215L620.08 356.247L620.679 357.499L621.278 359.336L621.878 365.333L622.477 356.08L623.077 356.859L623.676 359.169L624.275 359.002L624.875 359.113L625.474 361.646L626.074 366.029L626.673 359.252L627.272 359.099L627.872 360.157L628.471 360.282L629.071 359.559L629.67 361.381L630.269 366.711L630.869 357.694L631.468 358.181L632.068 358.918L632.667 358.598L633.266 357.889L633.866 360.115L634.465 364.693L635.065 353.547L635.664 351.822L636.263 352.239L636.863 351.822L637.462 351.14L638.062 352.114L638.661 355.843L639.26 343.862L639.86 336.877L640.459 331.2L641.059 327.109L641.658 324.493L642.258 331.436L642.857 337.044L643.456 310.035L644.056 297.72L644.655 290.234L645.255 281.356L645.854 278.128L646.453 288.272L647.053 311.538L647.652 314.571L648.252 242.673L648.851 220.186L649.45 200.663L650.05 194.207L650.649 220.102L651.248 249.226L651.848 203.432L652.447 214.119L653.047 192.885L653.646 174.155L654.245 175.63L654.845 216.137L655.444 239.194L656.044 216.791L656.643 191.521L657.242 183.52L657.842 199.341L658.441 193.789L659.041 219.977L659.64 252.065L660.24 221.396L660.839 199.202L661.438 178.051L662.038 235.256L662.637 215.942L663.237 252.705L663.836 257.422L664.435 266.356L665.035 218.293L665.634 187.305L666.234 150.973L666.833 161.145L667.432 192.398L668.032 239.889L668.631 213.98L669.231 220.673L669.83 193.149L670.429 222.969L671.029 239.43L671.628 255.015L672.228 290.081L672.827 274.051L673.426 272.228L674.026 264.116L674.625 284.64L675.225 290.693L675.824 301.282L676.423 320.012L677.023 303.662L677.622 312.86L678.222 292.502L678.821 302.744L679.42 313.973L680.02 323.296L680.619 334.428L681.219 325.564L681.818 332.396L682.417 321.195L683.017 330.699L683.616 333.621L684.216 336.251L684.815 349.289L685.414 348.858L686.014 318.815L686.613 330.114L687.213 341.552L687.812 354.98L688.411 344.057L689.011 356.469L689.61 358.696L690.21 348.079L690.809 348.844L691.408 354.354L692.008 354.132L692.607 353.561L693.207 364.888L693.806 354.674L694.405 350.361L695.005 354.382L695.604 356.553L696.204 357.165L696.803 357.235L697.402 365.194L698.002 365.904L698.601 353.311L699.201 347.912L699.8 353.686" stroke="#4285F4" stroke-width="2" stroke-miterlimit="10"/>
<path d="M387.422 418.8V410.206H390.391C391.057 410.206 391.568 410.248 391.922 410.331C392.411 410.446 392.828 410.649 393.172 410.941C393.63 411.326 393.969 411.821 394.188 412.425C394.417 413.019 394.531 413.696 394.531 414.456C394.531 415.113 394.453 415.691 394.297 416.191C394.151 416.691 393.958 417.107 393.719 417.441C393.479 417.774 393.214 418.034 392.922 418.222C392.641 418.409 392.302 418.555 391.906 418.659C391.51 418.753 391.052 418.8 390.531 418.8H387.422ZM388.562 417.784H390.391C390.964 417.784 391.411 417.732 391.734 417.628C392.057 417.524 392.312 417.373 392.5 417.175C392.771 416.915 392.979 416.555 393.125 416.097C393.281 415.639 393.359 415.087 393.359 414.441C393.359 413.545 393.208 412.857 392.906 412.378C392.615 411.889 392.26 411.56 391.844 411.394C391.531 411.279 391.042 411.222 390.375 411.222H388.562V417.784ZM400.359 418.034C399.964 418.368 399.583 418.602 399.219 418.738C398.865 418.873 398.479 418.941 398.062 418.941C397.375 418.941 396.849 418.774 396.484 418.441C396.12 418.107 395.938 417.68 395.938 417.159C395.938 416.857 396.005 416.581 396.141 416.331C396.276 416.071 396.458 415.868 396.688 415.722C396.917 415.566 397.172 415.451 397.453 415.378C397.651 415.316 397.964 415.258 398.391 415.206C399.234 415.113 399.859 414.993 400.266 414.847C400.266 414.701 400.266 414.613 400.266 414.581C400.266 414.144 400.167 413.837 399.969 413.659C399.698 413.43 399.297 413.316 398.766 413.316C398.276 413.316 397.911 413.404 397.672 413.581C397.432 413.748 397.255 414.05 397.141 414.488L396.109 414.347C396.203 413.909 396.359 413.555 396.578 413.284C396.797 413.014 397.109 412.805 397.516 412.659C397.922 412.514 398.391 412.441 398.922 412.441C399.453 412.441 399.885 412.503 400.219 412.628C400.552 412.753 400.797 412.909 400.953 413.097C401.109 413.284 401.219 413.524 401.281 413.816C401.312 413.993 401.328 414.316 401.328 414.784V416.191C401.328 417.17 401.349 417.79 401.391 418.05C401.443 418.31 401.536 418.56 401.672 418.8H400.562C400.458 418.581 400.391 418.326 400.359 418.034ZM400.266 415.675C399.88 415.831 399.307 415.967 398.547 416.081C398.109 416.144 397.802 416.217 397.625 416.3C397.448 416.373 397.307 416.482 397.203 416.628C397.109 416.774 397.062 416.941 397.062 417.128C397.062 417.409 397.167 417.644 397.375 417.831C397.594 418.019 397.906 418.113 398.312 418.113C398.719 418.113 399.078 418.024 399.391 417.847C399.714 417.67 399.948 417.425 400.094 417.113C400.208 416.873 400.266 416.524 400.266 416.066V415.675ZM405.594 417.863L405.75 418.784C405.448 418.847 405.182 418.878 404.953 418.878C404.568 418.878 404.271 418.821 404.062 418.706C403.854 418.581 403.703 418.42 403.609 418.222C403.526 418.024 403.484 417.607 403.484 416.972V413.394H402.719V412.581H403.484V411.034L404.531 410.409V412.581H405.594V413.394H404.531V417.034C404.531 417.337 404.547 417.529 404.578 417.613C404.62 417.696 404.682 417.764 404.766 417.816C404.849 417.868 404.969 417.894 405.125 417.894C405.25 417.894 405.406 417.883 405.594 417.863ZM410.547 416.8L411.641 416.925C411.474 417.56 411.156 418.055 410.688 418.409C410.219 418.764 409.625 418.941 408.906 418.941C408 418.941 407.276 418.659 406.734 418.097C406.203 417.534 405.938 416.748 405.938 415.738C405.938 414.696 406.208 413.889 406.75 413.316C407.292 412.732 407.99 412.441 408.844 412.441C409.677 412.441 410.354 412.722 410.875 413.284C411.406 413.847 411.672 414.644 411.672 415.675C411.672 415.738 411.672 415.831 411.672 415.956H407.031C407.073 416.644 407.266 417.17 407.609 417.534C407.953 417.889 408.385 418.066 408.906 418.066C409.292 418.066 409.62 417.967 409.891 417.769C410.172 417.56 410.391 417.238 410.547 416.8ZM407.094 415.097H410.562C410.521 414.566 410.391 414.17 410.172 413.909C409.828 413.503 409.391 413.3 408.859 413.3C408.37 413.3 407.958 413.462 407.625 413.784C407.302 414.107 407.125 414.545 407.094 415.097Z" fill="black"/>
<path d="M37.2 259.666H28.6062V253.869H29.6219V258.525H32.2781V254.494H33.2937V258.525H37.2V259.666ZM37.2 248.775H36.2781C36.9864 249.265 37.3406 249.926 37.3406 250.759C37.3406 251.124 37.2729 251.468 37.1375 251.791C36.9917 252.103 36.8146 252.338 36.6062 252.494C36.3875 252.65 36.1219 252.759 35.8094 252.822C35.6114 252.864 35.2833 252.884 34.825 252.884H30.9812V251.822H34.4344C34.976 251.822 35.3458 251.801 35.5437 251.759C35.8146 251.697 36.0333 251.561 36.2 251.353C36.3562 251.134 36.4344 250.864 36.4344 250.541C36.4344 250.228 36.3562 249.936 36.2 249.666C36.0333 249.384 35.8094 249.186 35.5281 249.072C35.2469 248.947 34.8406 248.884 34.3094 248.884H30.9812V247.838H37.2V248.775ZM37.2 245.853H28.6062V244.791H33.5125L30.9812 242.306V240.931L33.2781 243.322L37.2 240.697V241.994L34.0125 244.056L34.7312 244.791H37.2V245.853ZM37.2 235.775H36.2781C36.9864 236.265 37.3406 236.926 37.3406 237.759C37.3406 238.124 37.2729 238.468 37.1375 238.791C36.9917 239.103 36.8146 239.338 36.6062 239.494C36.3875 239.65 36.1219 239.759 35.8094 239.822C35.6114 239.864 35.2833 239.884 34.825 239.884H30.9812V238.822H34.4344C34.976 238.822 35.3458 238.801 35.5437 238.759C35.8146 238.697 36.0333 238.561 36.2 238.353C36.3562 238.134 36.4344 237.864 36.4344 237.541C36.4344 237.228 36.3562 236.936 36.2 236.666C36.0333 236.384 35.8094 236.186 35.5281 236.072C35.2469 235.947 34.8406 235.884 34.3094 235.884H30.9812V234.838H37.2V235.775ZM34.0906 233.244C32.9344 233.244 32.0802 232.926 31.5281 232.291C31.0698 231.759 30.8406 231.108 30.8406 230.338C30.8406 229.483 31.1219 228.785 31.6844 228.244C32.2364 227.692 33.0073 227.416 33.9969 227.416C34.7989 227.416 35.4291 227.535 35.8875 227.775C36.3458 228.015 36.7052 228.369 36.9656 228.838C37.2156 229.296 37.3406 229.796 37.3406 230.338C37.3406 231.202 37.0646 231.905 36.5125 232.447C35.95 232.978 35.1427 233.244 34.0906 233.244ZM34.0906 232.166C34.8823 232.166 35.476 231.994 35.8719 231.65C36.2677 231.296 36.4656 230.858 36.4656 230.338C36.4656 229.806 36.2677 229.369 35.8719 229.025C35.476 228.681 34.8719 228.509 34.0594 228.509C33.2885 228.509 32.7052 228.686 32.3094 229.041C31.9135 229.384 31.7156 229.817 31.7156 230.338C31.7156 230.858 31.9135 231.296 32.3094 231.65C32.6948 231.994 33.2885 232.166 34.0906 232.166ZM37.2 225.853H28.6062V224.791H33.5125L30.9812 222.306V220.931L33.2781 223.322L37.2 220.697V221.994L34.0125 224.056L34.7312 224.791H37.2V225.853ZM36.4344 215.791C36.7677 216.186 37.0021 216.567 37.1375 216.931C37.2729 217.285 37.3406 217.671 37.3406 218.088C37.3406 218.775 37.1739 219.301 36.8406 219.666C36.5073 220.03 36.0802 220.213 35.5594 220.213C35.2573 220.213 34.9812 220.145 34.7312 220.009C34.4708 219.874 34.2677 219.692 34.1219 219.463C33.9656 219.233 33.851 218.978 33.7781 218.697C33.7156 218.499 33.6583 218.186 33.6062 217.759C33.5125 216.916 33.3927 216.291 33.2469 215.884C33.101 215.884 33.0125 215.884 32.9812 215.884C32.5437 215.884 32.2364 215.983 32.0594 216.181C31.8302 216.452 31.7156 216.853 31.7156 217.384C31.7156 217.874 31.8041 218.239 31.9812 218.478C32.1479 218.718 32.45 218.895 32.8875 219.009L32.7469 220.041C32.3094 219.947 31.9552 219.791 31.6844 219.572C31.4135 219.353 31.2052 219.041 31.0594 218.634C30.9135 218.228 30.8406 217.759 30.8406 217.228C30.8406 216.697 30.9031 216.265 31.0281 215.931C31.1531 215.598 31.3094 215.353 31.4969 215.197C31.6844 215.041 31.9239 214.931 32.2156 214.869C32.3927 214.838 32.7156 214.822 33.1844 214.822H34.5906C35.5698 214.822 36.1896 214.801 36.45 214.759C36.7104 214.707 36.9604 214.614 37.2 214.478V215.588C36.9812 215.692 36.726 215.759 36.4344 215.791ZM34.075 215.884C34.2312 216.27 34.3666 216.843 34.4812 217.603C34.5437 218.041 34.6166 218.348 34.7 218.525C34.7729 218.702 34.8823 218.843 35.0281 218.947C35.1739 219.041 35.3406 219.088 35.5281 219.088C35.8094 219.088 36.0437 218.983 36.2312 218.775C36.4187 218.556 36.5125 218.244 36.5125 217.838C36.5125 217.431 36.4239 217.072 36.2469 216.759C36.0698 216.436 35.825 216.202 35.5125 216.056C35.2729 215.942 34.9239 215.884 34.4656 215.884H34.075Z" fill="black"/>
<path d="M86.7 369.566C86.7 368.545 86.8042 367.727 87.0125 367.113C87.2208 366.488 87.5281 366.008 87.9344 365.675C88.3511 365.342 88.8719 365.175 89.4969 365.175C89.9552 365.175 90.3563 365.269 90.7 365.456C91.0542 365.644 91.3458 365.915 91.575 366.269C91.8042 366.613 91.9813 367.034 92.1063 367.534C92.2313 368.034 92.2938 368.712 92.2938 369.566C92.2938 370.576 92.1896 371.389 91.9813 372.003C91.7833 372.618 91.4761 373.097 91.0594 373.441C90.6531 373.774 90.1323 373.941 89.4969 373.941C88.674 373.941 88.0229 373.644 87.5438 373.05C86.9813 372.342 86.7 371.18 86.7 369.566ZM87.7781 369.566C87.7781 370.972 87.9448 371.909 88.2781 372.378C88.6115 372.847 89.0177 373.081 89.4969 373.081C89.9865 373.081 90.3927 372.847 90.7156 372.378C91.049 371.909 91.2156 370.972 91.2156 369.566C91.2156 368.149 91.049 367.212 90.7156 366.753C90.3927 366.284 89.9813 366.05 89.4813 366.05C89.0021 366.05 88.6167 366.253 88.325 366.659C87.9604 367.18 87.7781 368.149 87.7781 369.566Z" fill="black"/>
<path d="M65.7 301.975L66.8094 301.881C66.8927 302.423 67.0802 302.829 67.3719 303.1C67.674 303.371 68.0386 303.506 68.4656 303.506C68.9656 303.506 69.3927 303.314 69.7469 302.928C70.1011 302.543 70.2781 302.037 70.2781 301.412C70.2781 300.808 70.1063 300.334 69.7625 299.991C69.4292 299.636 68.9865 299.459 68.4344 299.459C68.1011 299.459 67.7938 299.537 67.5125 299.694C67.2417 299.85 67.0281 300.048 66.8719 300.287L65.8875 300.162L66.7156 295.756H70.9969V296.756H67.5594L67.1063 299.069C67.6167 298.704 68.1531 298.522 68.7156 298.522C69.4656 298.522 70.0958 298.782 70.6063 299.303C71.1271 299.824 71.3875 300.496 71.3875 301.319C71.3875 302.09 71.1636 302.761 70.7156 303.334C70.1636 304.022 69.4136 304.366 68.4656 304.366C67.6844 304.366 67.0438 304.147 66.5438 303.709C66.0542 303.272 65.7729 302.694 65.7 301.975ZM72.7 299.991C72.7 298.97 72.8042 298.152 73.0125 297.537C73.2208 296.912 73.5281 296.433 73.9344 296.1C74.3511 295.767 74.8719 295.6 75.4969 295.6C75.9552 295.6 76.3563 295.694 76.7 295.881C77.0542 296.069 77.3458 296.34 77.575 296.694C77.8042 297.037 77.9813 297.459 78.1063 297.959C78.2313 298.459 78.2938 299.136 78.2938 299.991C78.2938 301.001 78.1896 301.814 77.9813 302.428C77.7833 303.043 77.4761 303.522 77.0594 303.866C76.6531 304.199 76.1323 304.366 75.4969 304.366C74.674 304.366 74.0229 304.069 73.5438 303.475C72.9813 302.767 72.7 301.605 72.7 299.991ZM73.7781 299.991C73.7781 301.397 73.9448 302.334 74.2781 302.803C74.6115 303.272 75.0177 303.506 75.4969 303.506C75.9865 303.506 76.3927 303.272 76.7156 302.803C77.049 302.334 77.2156 301.397 77.2156 299.991C77.2156 298.574 77.049 297.636 76.7156 297.178C76.3927 296.709 75.9813 296.475 75.4813 296.475C75.0021 296.475 74.6167 296.678 74.325 297.084C73.9604 297.605 73.7781 298.574 73.7781 299.991ZM79.7 299.991C79.7 298.97 79.8042 298.152 80.0125 297.537C80.2208 296.912 80.5281 296.433 80.9344 296.1C81.3511 295.767 81.8719 295.6 82.4969 295.6C82.9552 295.6 83.3563 295.694 83.7 295.881C84.0542 296.069 84.3458 296.34 84.575 296.694C84.8042 297.037 84.9813 297.459 85.1063 297.959C85.2313 298.459 85.2938 299.136 85.2938 299.991C85.2938 301.001 85.1896 301.814 84.9813 302.428C84.7833 303.043 84.4761 303.522 84.0594 303.866C83.6531 304.199 83.1323 304.366 82.4969 304.366C81.674 304.366 81.0229 304.069 80.5438 303.475C79.9813 302.767 79.7 301.605 79.7 299.991ZM80.7781 299.991C80.7781 301.397 80.9448 302.334 81.2781 302.803C81.6115 303.272 82.0177 303.506 82.4969 303.506C82.9865 303.506 83.3927 303.272 83.7156 302.803C84.049 302.334 84.2156 301.397 84.2156 299.991C84.2156 298.574 84.049 297.636 83.7156 297.178C83.3927 296.709 82.9813 296.475 82.4813 296.475C82.0021 296.475 81.6167 296.678 81.325 297.084C80.9604 297.605 80.7781 298.574 80.7781 299.991ZM86.7 299.991C86.7 298.97 86.8042 298.152 87.0125 297.537C87.2208 296.912 87.5281 296.433 87.9344 296.1C88.3511 295.767 88.8719 295.6 89.4969 295.6C89.9552 295.6 90.3563 295.694 90.7 295.881C91.0542 296.069 91.3458 296.34 91.575 296.694C91.8042 297.037 91.9813 297.459 92.1063 297.959C92.2313 298.459 92.2938 299.136 92.2938 299.991C92.2938 301.001 92.1896 301.814 91.9813 302.428C91.7833 303.043 91.4761 303.522 91.0594 303.866C90.6531 304.199 90.1323 304.366 89.4969 304.366C88.674 304.366 88.0229 304.069 87.5438 303.475C86.9813 302.767 86.7 301.605 86.7 299.991ZM87.7781 299.991C87.7781 301.397 87.9448 302.334 88.2781 302.803C88.6115 303.272 89.0177 303.506 89.4969 303.506C89.9865 303.506 90.3927 303.272 90.7156 302.803C91.049 302.334 91.2156 301.397 91.2156 299.991C91.2156 298.574 91.049 297.636 90.7156 297.178C90.3927 296.709 89.9813 296.475 89.4813 296.475C89.0021 296.475 88.6167 296.678 88.325 297.084C87.9604 297.605 87.7781 298.574 87.7781 299.991Z" fill="black"/>
<path d="M62.6688 234.65H61.6219V227.931C61.3615 228.171 61.0229 228.416 60.6063 228.666C60.2 228.905 59.8354 229.082 59.5125 229.197V228.181C60.0958 227.9 60.6063 227.567 61.0438 227.181C61.4917 226.785 61.8094 226.4 61.9969 226.025H62.6688V234.65ZM65.7 230.416C65.7 229.395 65.8042 228.577 66.0125 227.963C66.2208 227.338 66.5281 226.858 66.9344 226.525C67.3511 226.192 67.8719 226.025 68.4969 226.025C68.9552 226.025 69.3563 226.119 69.7 226.306C70.0542 226.494 70.3458 226.765 70.575 227.119C70.8042 227.463 70.9813 227.884 71.1063 228.384C71.2313 228.884 71.2938 229.561 71.2938 230.416C71.2938 231.426 71.1896 232.239 70.9813 232.853C70.7833 233.468 70.4761 233.947 70.0594 234.291C69.6531 234.624 69.1323 234.791 68.4969 234.791C67.674 234.791 67.0229 234.494 66.5438 233.9C65.9813 233.192 65.7 232.03 65.7 230.416ZM66.7781 230.416C66.7781 231.822 66.9448 232.759 67.2781 233.228C67.6115 233.697 68.0177 233.931 68.4969 233.931C68.9865 233.931 69.3927 233.697 69.7156 233.228C70.049 232.759 70.2156 231.822 70.2156 230.416C70.2156 228.999 70.049 228.061 69.7156 227.603C69.3927 227.134 68.9813 226.9 68.4813 226.9C68.0021 226.9 67.6167 227.103 67.325 227.509C66.9604 228.03 66.7781 228.999 66.7781 230.416ZM72.7 230.416C72.7 229.395 72.8042 228.577 73.0125 227.963C73.2208 227.338 73.5281 226.858 73.9344 226.525C74.3511 226.192 74.8719 226.025 75.4969 226.025C75.9552 226.025 76.3563 226.119 76.7 226.306C77.0542 226.494 77.3458 226.765 77.575 227.119C77.8042 227.463 77.9813 227.884 78.1063 228.384C78.2313 228.884 78.2938 229.561 78.2938 230.416C78.2938 231.426 78.1896 232.239 77.9813 232.853C77.7833 233.468 77.4761 233.947 77.0594 234.291C76.6531 234.624 76.1323 234.791 75.4969 234.791C74.674 234.791 74.0229 234.494 73.5438 233.9C72.9813 233.192 72.7 232.03 72.7 230.416ZM73.7781 230.416C73.7781 231.822 73.9448 232.759 74.2781 233.228C74.6115 233.697 75.0177 233.931 75.4969 233.931C75.9865 233.931 76.3927 233.697 76.7156 233.228C77.049 232.759 77.2156 231.822 77.2156 230.416C77.2156 228.999 77.049 228.061 76.7156 227.603C76.3927 227.134 75.9813 226.9 75.4813 226.9C75.0021 226.9 74.6167 227.103 74.325 227.509C73.9604 228.03 73.7781 228.999 73.7781 230.416ZM79.7 230.416C79.7 229.395 79.8042 228.577 80.0125 227.963C80.2208 227.338 80.5281 226.858 80.9344 226.525C81.3511 226.192 81.8719 226.025 82.4969 226.025C82.9552 226.025 83.3563 226.119 83.7 226.306C84.0542 226.494 84.3458 226.765 84.575 227.119C84.8042 227.463 84.9813 227.884 85.1063 228.384C85.2313 228.884 85.2938 229.561 85.2938 230.416C85.2938 231.426 85.1896 232.239 84.9813 232.853C84.7833 233.468 84.4761 233.947 84.0594 234.291C83.6531 234.624 83.1323 234.791 82.4969 234.791C81.674 234.791 81.0229 234.494 80.5438 233.9C79.9813 233.192 79.7 232.03 79.7 230.416ZM80.7781 230.416C80.7781 231.822 80.9448 232.759 81.2781 233.228C81.6115 233.697 82.0177 233.931 82.4969 233.931C82.9865 233.931 83.3927 233.697 83.7156 233.228C84.049 232.759 84.2156 231.822 84.2156 230.416C84.2156 228.999 84.049 228.061 83.7156 227.603C83.3927 227.134 82.9813 226.9 82.4813 226.9C82.0021 226.9 81.6167 227.103 81.325 227.509C80.9604 228.03 80.7781 228.999 80.7781 230.416ZM86.7 230.416C86.7 229.395 86.8042 228.577 87.0125 227.963C87.2208 227.338 87.5281 226.858 87.9344 226.525C88.3511 226.192 88.8719 226.025 89.4969 226.025C89.9552 226.025 90.3563 226.119 90.7 226.306C91.0542 226.494 91.3458 226.765 91.575 227.119C91.8042 227.463 91.9813 227.884 92.1063 228.384C92.2313 228.884 92.2938 229.561 92.2938 230.416C92.2938 231.426 92.1896 232.239 91.9813 232.853C91.7833 233.468 91.4761 233.947 91.0594 234.291C90.6531 234.624 90.1323 234.791 89.4969 234.791C88.674 234.791 88.0229 234.494 87.5438 233.9C86.9813 233.192 86.7 232.03 86.7 230.416ZM87.7781 230.416C87.7781 231.822 87.9448 232.759 88.2781 233.228C88.6115 233.697 89.0177 233.931 89.4969 233.931C89.9865 233.931 90.3927 233.697 90.7156 233.228C91.049 232.759 91.2156 231.822 91.2156 230.416C91.2156 228.999 91.049 228.061 90.7156 227.603C90.3927 227.134 89.9813 226.9 89.4813 226.9C89.0021 226.9 88.6167 227.103 88.325 227.509C87.9604 228.03 87.7781 228.999 87.7781 230.416Z" fill="black"/>
<path d="M62.6688 165.075H61.6219V158.356C61.3615 158.596 61.0229 158.841 60.6063 159.091C60.2 159.33 59.8354 159.507 59.5125 159.622V158.606C60.0958 158.325 60.6063 157.992 61.0438 157.606C61.4917 157.21 61.8094 156.825 61.9969 156.45H62.6688V165.075ZM65.7 162.825L66.8094 162.731C66.8927 163.273 67.0802 163.679 67.3719 163.95C67.674 164.221 68.0386 164.356 68.4656 164.356C68.9656 164.356 69.3927 164.163 69.7469 163.778C70.1011 163.393 70.2781 162.887 70.2781 162.262C70.2781 161.658 70.1063 161.184 69.7625 160.841C69.4292 160.486 68.9865 160.309 68.4344 160.309C68.1011 160.309 67.7938 160.387 67.5125 160.544C67.2417 160.7 67.0281 160.898 66.8719 161.137L65.8875 161.012L66.7156 156.606H70.9969V157.606H67.5594L67.1063 159.919C67.6167 159.554 68.1531 159.372 68.7156 159.372C69.4656 159.372 70.0958 159.632 70.6063 160.153C71.1271 160.674 71.3875 161.346 71.3875 162.169C71.3875 162.94 71.1636 163.611 70.7156 164.184C70.1636 164.872 69.4136 165.216 68.4656 165.216C67.6844 165.216 67.0438 164.997 66.5438 164.559C66.0542 164.122 65.7729 163.544 65.7 162.825ZM72.7 160.841C72.7 159.82 72.8042 159.002 73.0125 158.387C73.2208 157.762 73.5281 157.283 73.9344 156.95C74.3511 156.617 74.8719 156.45 75.4969 156.45C75.9552 156.45 76.3563 156.544 76.7 156.731C77.0542 156.919 77.3458 157.19 77.575 157.544C77.8042 157.887 77.9813 158.309 78.1063 158.809C78.2313 159.309 78.2938 159.986 78.2938 160.841C78.2938 161.851 78.1896 162.663 77.9813 163.278C77.7833 163.893 77.4761 164.372 77.0594 164.716C76.6531 165.049 76.1323 165.216 75.4969 165.216C74.674 165.216 74.0229 164.919 73.5438 164.325C72.9813 163.617 72.7 162.455 72.7 160.841ZM73.7781 160.841C73.7781 162.247 73.9448 163.184 74.2781 163.653C74.6115 164.122 75.0177 164.356 75.4969 164.356C75.9865 164.356 76.3927 164.122 76.7156 163.653C77.049 163.184 77.2156 162.247 77.2156 160.841C77.2156 159.424 77.049 158.486 76.7156 158.028C76.3927 157.559 75.9813 157.325 75.4813 157.325C75.0021 157.325 74.6167 157.528 74.325 157.934C73.9604 158.455 73.7781 159.424 73.7781 160.841ZM79.7 160.841C79.7 159.82 79.8042 159.002 80.0125 158.387C80.2208 157.762 80.5281 157.283 80.9344 156.95C81.3511 156.617 81.8719 156.45 82.4969 156.45C82.9552 156.45 83.3563 156.544 83.7 156.731C84.0542 156.919 84.3458 157.19 84.575 157.544C84.8042 157.887 84.9813 158.309 85.1063 158.809C85.2313 159.309 85.2938 159.986 85.2938 160.841C85.2938 161.851 85.1896 162.663 84.9813 163.278C84.7833 163.893 84.4761 164.372 84.0594 164.716C83.6531 165.049 83.1323 165.216 82.4969 165.216C81.674 165.216 81.0229 164.919 80.5438 164.325C79.9813 163.617 79.7 162.455 79.7 160.841ZM80.7781 160.841C80.7781 162.247 80.9448 163.184 81.2781 163.653C81.6115 164.122 82.0177 164.356 82.4969 164.356C82.9865 164.356 83.3927 164.122 83.7156 163.653C84.049 163.184 84.2156 162.247 84.2156 160.841C84.2156 159.424 84.049 158.486 83.7156 158.028C83.3927 157.559 82.9813 157.325 82.4813 157.325C82.0021 157.325 81.6167 157.528 81.325 157.934C80.9604 158.455 80.7781 159.424 80.7781 160.841ZM86.7 160.841C86.7 159.82 86.8042 159.002 87.0125 158.387C87.2208 157.762 87.5281 157.283 87.9344 156.95C88.3511 156.617 88.8719 156.45 89.4969 156.45C89.9552 156.45 90.3563 156.544 90.7 156.731C91.0542 156.919 91.3458 157.19 91.575 157.544C91.8042 157.887 91.9813 158.309 92.1063 158.809C92.2313 159.309 92.2938 159.986 92.2938 160.841C92.2938 161.851 92.1896 162.663 91.9813 163.278C91.7833 163.893 91.4761 164.372 91.0594 164.716C90.6531 165.049 90.1323 165.216 89.4969 165.216C88.674 165.216 88.0229 164.919 87.5438 164.325C86.9813 163.617 86.7 162.455 86.7 160.841ZM87.7781 160.841C87.7781 162.247 87.9448 163.184 88.2781 163.653C88.6115 164.122 89.0177 164.356 89.4969 164.356C89.9865 164.356 90.3927 164.122 90.7156 163.653C91.049 163.184 91.2156 162.247 91.2156 160.841C91.2156 159.424 91.049 158.486 90.7156 158.028C90.3927 157.559 89.9813 157.325 89.4813 157.325C89.0021 157.325 88.6167 157.528 88.325 157.934C87.9604 158.455 87.7781 159.424 87.7781 160.841Z" fill="black"/>
<path d="M64.2469 94.4844V95.5H58.5594C58.5594 95.25 58.6011 95.0052 58.6844 94.7656C58.8302 94.3802 59.0594 94 59.3719 93.625C59.6948 93.25 60.1583 92.8177 60.7625 92.3281C61.7 91.5573 62.3302 90.9479 62.6531 90.5C62.9865 90.0521 63.1531 89.6302 63.1531 89.2344C63.1531 88.8177 63.0021 88.4688 62.7 88.1875C62.3979 87.8958 62.0073 87.75 61.5281 87.75C61.0177 87.75 60.6115 87.901 60.3094 88.2031C60.0073 88.5052 59.8511 88.9271 59.8406 89.4688L58.7625 89.3594C58.8354 88.5469 59.1115 87.9323 59.5906 87.5156C60.0802 87.0885 60.7365 86.875 61.5594 86.875C62.3823 86.875 63.0333 87.1042 63.5125 87.5625C63.9917 88.0208 64.2313 88.5885 64.2313 89.2656C64.2313 89.6094 64.1583 89.9479 64.0125 90.2812C63.8771 90.6042 63.6427 90.9531 63.3094 91.3281C62.9865 91.6927 62.45 92.1927 61.7 92.8281C61.0646 93.3594 60.6531 93.724 60.4656 93.9219C60.2886 94.1094 60.1427 94.2969 60.0281 94.4844H64.2469ZM65.7 91.2656C65.7 90.2448 65.8042 89.4271 66.0125 88.8125C66.2208 88.1875 66.5281 87.7083 66.9344 87.375C67.3511 87.0417 67.8719 86.875 68.4969 86.875C68.9552 86.875 69.3563 86.9688 69.7 87.1562C70.0542 87.3438 70.3458 87.6146 70.575 87.9688C70.8042 88.3125 70.9813 88.7344 71.1063 89.2344C71.2313 89.7344 71.2938 90.4115 71.2938 91.2656C71.2938 92.276 71.1896 93.0885 70.9813 93.7031C70.7833 94.3177 70.4761 94.7969 70.0594 95.1406C69.6531 95.474 69.1323 95.6406 68.4969 95.6406C67.674 95.6406 67.0229 95.3438 66.5438 94.75C65.9813 94.0417 65.7 92.8802 65.7 91.2656ZM66.7781 91.2656C66.7781 92.6719 66.9448 93.6094 67.2781 94.0781C67.6115 94.5469 68.0177 94.7812 68.4969 94.7812C68.9865 94.7812 69.3927 94.5469 69.7156 94.0781C70.049 93.6094 70.2156 92.6719 70.2156 91.2656C70.2156 89.849 70.049 88.9115 69.7156 88.4531C69.3927 87.9844 68.9813 87.75 68.4813 87.75C68.0021 87.75 67.6167 87.9531 67.325 88.3594C66.9604 88.8802 66.7781 89.849 66.7781 91.2656ZM72.7 91.2656C72.7 90.2448 72.8042 89.4271 73.0125 88.8125C73.2208 88.1875 73.5281 87.7083 73.9344 87.375C74.3511 87.0417 74.8719 86.875 75.4969 86.875C75.9552 86.875 76.3563 86.9688 76.7 87.1562C77.0542 87.3438 77.3458 87.6146 77.575 87.9688C77.8042 88.3125 77.9813 88.7344 78.1063 89.2344C78.2313 89.7344 78.2938 90.4115 78.2938 91.2656C78.2938 92.276 78.1896 93.0885 77.9813 93.7031C77.7833 94.3177 77.4761 94.7969 77.0594 95.1406C76.6531 95.474 76.1323 95.6406 75.4969 95.6406C74.674 95.6406 74.0229 95.3438 73.5438 94.75C72.9813 94.0417 72.7 92.8802 72.7 91.2656ZM73.7781 91.2656C73.7781 92.6719 73.9448 93.6094 74.2781 94.0781C74.6115 94.5469 75.0177 94.7812 75.4969 94.7812C75.9865 94.7812 76.3927 94.5469 76.7156 94.0781C77.049 93.6094 77.2156 92.6719 77.2156 91.2656C77.2156 89.849 77.049 88.9115 76.7156 88.4531C76.3927 87.9844 75.9813 87.75 75.4813 87.75C75.0021 87.75 74.6167 87.9531 74.325 88.3594C73.9604 88.8802 73.7781 89.849 73.7781 91.2656ZM79.7 91.2656C79.7 90.2448 79.8042 89.4271 80.0125 88.8125C80.2208 88.1875 80.5281 87.7083 80.9344 87.375C81.3511 87.0417 81.8719 86.875 82.4969 86.875C82.9552 86.875 83.3563 86.9688 83.7 87.1562C84.0542 87.3438 84.3458 87.6146 84.575 87.9688C84.8042 88.3125 84.9813 88.7344 85.1063 89.2344C85.2313 89.7344 85.2938 90.4115 85.2938 91.2656C85.2938 92.276 85.1896 93.0885 84.9813 93.7031C84.7833 94.3177 84.4761 94.7969 84.0594 95.1406C83.6531 95.474 83.1323 95.6406 82.4969 95.6406C81.674 95.6406 81.0229 95.3438 80.5438 94.75C79.9813 94.0417 79.7 92.8802 79.7 91.2656ZM80.7781 91.2656C80.7781 92.6719 80.9448 93.6094 81.2781 94.0781C81.6115 94.5469 82.0177 94.7812 82.4969 94.7812C82.9865 94.7812 83.3927 94.5469 83.7156 94.0781C84.049 93.6094 84.2156 92.6719 84.2156 91.2656C84.2156 89.849 84.049 88.9115 83.7156 88.4531C83.3927 87.9844 82.9813 87.75 82.4813 87.75C82.0021 87.75 81.6167 87.9531 81.325 88.3594C80.9604 88.8802 80.7781 89.849 80.7781 91.2656ZM86.7 91.2656C86.7 90.2448 86.8042 89.4271 87.0125 88.8125C87.2208 88.1875 87.5281 87.7083 87.9344 87.375C88.3511 87.0417 88.8719 86.875 89.4969 86.875C89.9552 86.875 90.3563 86.9688 90.7 87.1562C91.0542 87.3438 91.3458 87.6146 91.575 87.9688C91.8042 88.3125 91.9813 88.7344 92.1063 89.2344C92.2313 89.7344 92.2938 90.4115 92.2938 91.2656C92.2938 92.276 92.1896 93.0885 91.9813 93.7031C91.7833 94.3177 91.4761 94.7969 91.0594 95.1406C90.6531 95.474 90.1323 95.6406 89.4969 95.6406C88.674 95.6406 88.0229 95.3438 87.5438 94.75C86.9813 94.0417 86.7 92.8802 86.7 91.2656ZM87.7781 91.2656C87.7781 92.6719 87.9448 93.6094 88.2781 94.0781C88.6115 94.5469 89.0177 94.7812 89.4969 94.7812C89.9865 94.7812 90.3927 94.5469 90.7156 94.0781C91.049 93.6094 91.2156 92.6719 91.2156 91.2656C91.2156 89.849 91.049 88.9115 90.7156 88.4531C90.3927 87.9844 89.9813 87.75 89.4813 87.75C89.0021 87.75 88.6167 87.9531 88.325 88.3594C87.9604 88.8802 87.7781 89.849 87.7781 91.2656Z" fill="black"/>
<path d="M177.883 386.8V384.738H174.164V383.769L178.086 378.206H178.945V383.769H180.102V384.738H178.945V386.8H177.883ZM177.883 383.769V379.909L175.195 383.769H177.883ZM184.883 386.8V384.738H181.164V383.769L185.086 378.206H185.945V383.769H187.102V384.738H185.945V386.8H184.883ZM184.883 383.769V379.909L182.195 383.769H184.883ZM188.508 382.566C188.508 381.545 188.612 380.727 188.82 380.113C189.029 379.488 189.336 379.008 189.742 378.675C190.159 378.342 190.68 378.175 191.305 378.175C191.763 378.175 192.164 378.269 192.508 378.456C192.862 378.644 193.154 378.915 193.383 379.269C193.612 379.613 193.789 380.034 193.914 380.534C194.039 381.034 194.102 381.712 194.102 382.566C194.102 383.576 193.997 384.389 193.789 385.003C193.591 385.618 193.284 386.097 192.867 386.441C192.461 386.774 191.94 386.941 191.305 386.941C190.482 386.941 189.831 386.644 189.352 386.05C188.789 385.342 188.508 384.18 188.508 382.566ZM189.586 382.566C189.586 383.972 189.753 384.909 190.086 385.378C190.419 385.847 190.825 386.081 191.305 386.081C191.794 386.081 192.2 385.847 192.523 385.378C192.857 384.909 193.023 383.972 193.023 382.566C193.023 381.149 192.857 380.212 192.523 379.753C192.2 379.284 191.789 379.05 191.289 379.05C190.81 379.05 190.424 379.253 190.133 379.659C189.768 380.18 189.586 381.149 189.586 382.566ZM195.508 382.566C195.508 381.545 195.612 380.727 195.82 380.113C196.029 379.488 196.336 379.008 196.742 378.675C197.159 378.342 197.68 378.175 198.305 378.175C198.763 378.175 199.164 378.269 199.508 378.456C199.862 378.644 200.154 378.915 200.383 379.269C200.612 379.613 200.789 380.034 200.914 380.534C201.039 381.034 201.102 381.712 201.102 382.566C201.102 383.576 200.997 384.389 200.789 385.003C200.591 385.618 200.284 386.097 199.867 386.441C199.461 386.774 198.94 386.941 198.305 386.941C197.482 386.941 196.831 386.644 196.352 386.05C195.789 385.342 195.508 384.18 195.508 382.566ZM196.586 382.566C196.586 383.972 196.753 384.909 197.086 385.378C197.419 385.847 197.825 386.081 198.305 386.081C198.794 386.081 199.2 385.847 199.523 385.378C199.857 384.909 200.023 383.972 200.023 382.566C200.023 381.149 199.857 380.212 199.523 379.753C199.2 379.284 198.789 379.05 198.289 379.05C197.81 379.05 197.424 379.253 197.133 379.659C196.768 380.18 196.586 381.149 196.586 382.566ZM202.508 382.566C202.508 381.545 202.612 380.727 202.82 380.113C203.029 379.488 203.336 379.008 203.742 378.675C204.159 378.342 204.68 378.175 205.305 378.175C205.763 378.175 206.164 378.269 206.508 378.456C206.862 378.644 207.154 378.915 207.383 379.269C207.612 379.613 207.789 380.034 207.914 380.534C208.039 381.034 208.102 381.712 208.102 382.566C208.102 383.576 207.997 384.389 207.789 385.003C207.591 385.618 207.284 386.097 206.867 386.441C206.461 386.774 205.94 386.941 205.305 386.941C204.482 386.941 203.831 386.644 203.352 386.05C202.789 385.342 202.508 384.18 202.508 382.566ZM203.586 382.566C203.586 383.972 203.753 384.909 204.086 385.378C204.419 385.847 204.825 386.081 205.305 386.081C205.794 386.081 206.2 385.847 206.523 385.378C206.857 384.909 207.023 383.972 207.023 382.566C207.023 381.149 206.857 380.212 206.523 379.753C206.2 379.284 205.789 379.05 205.289 379.05C204.81 379.05 204.424 379.253 204.133 379.659C203.768 380.18 203.586 381.149 203.586 382.566Z" fill="black"/>
<path d="M297.763 386.8V384.738H294.044V383.769L297.966 378.206H298.826V383.769H299.982V384.738H298.826V386.8H297.763ZM297.763 383.769V379.909L295.076 383.769H297.763ZM304.763 386.8V384.738H301.044V383.769L304.966 378.206H305.826V383.769H306.982V384.738H305.826V386.8H304.763ZM304.763 383.769V379.909L302.076 383.769H304.763ZM313.935 385.784V386.8H308.247C308.247 386.55 308.289 386.305 308.372 386.066C308.518 385.68 308.747 385.3 309.06 384.925C309.383 384.55 309.846 384.118 310.451 383.628C311.388 382.857 312.018 382.248 312.341 381.8C312.674 381.352 312.841 380.93 312.841 380.534C312.841 380.118 312.69 379.769 312.388 379.488C312.086 379.196 311.695 379.05 311.216 379.05C310.706 379.05 310.299 379.201 309.997 379.503C309.695 379.805 309.539 380.227 309.529 380.769L308.451 380.659C308.523 379.847 308.799 379.232 309.279 378.816C309.768 378.389 310.424 378.175 311.247 378.175C312.07 378.175 312.721 378.404 313.201 378.863C313.68 379.321 313.919 379.889 313.919 380.566C313.919 380.909 313.846 381.248 313.701 381.581C313.565 381.904 313.331 382.253 312.997 382.628C312.674 382.993 312.138 383.493 311.388 384.128C310.753 384.659 310.341 385.024 310.154 385.222C309.977 385.409 309.831 385.597 309.716 385.784H313.935ZM315.388 382.566C315.388 381.545 315.492 380.727 315.701 380.113C315.909 379.488 316.216 379.008 316.622 378.675C317.039 378.342 317.56 378.175 318.185 378.175C318.643 378.175 319.044 378.269 319.388 378.456C319.742 378.644 320.034 378.915 320.263 379.269C320.492 379.613 320.669 380.034 320.794 380.534C320.919 381.034 320.982 381.712 320.982 382.566C320.982 383.576 320.878 384.389 320.669 385.003C320.471 385.618 320.164 386.097 319.747 386.441C319.341 386.774 318.82 386.941 318.185 386.941C317.362 386.941 316.711 386.644 316.232 386.05C315.669 385.342 315.388 384.18 315.388 382.566ZM316.466 382.566C316.466 383.972 316.633 384.909 316.966 385.378C317.299 385.847 317.706 386.081 318.185 386.081C318.674 386.081 319.081 385.847 319.404 385.378C319.737 384.909 319.904 383.972 319.904 382.566C319.904 381.149 319.737 380.212 319.404 379.753C319.081 379.284 318.669 379.05 318.169 379.05C317.69 379.05 317.305 379.253 317.013 379.659C316.648 380.18 316.466 381.149 316.466 382.566ZM322.388 382.566C322.388 381.545 322.492 380.727 322.701 380.113C322.909 379.488 323.216 379.008 323.622 378.675C324.039 378.342 324.56 378.175 325.185 378.175C325.643 378.175 326.044 378.269 326.388 378.456C326.742 378.644 327.034 378.915 327.263 379.269C327.492 379.613 327.669 380.034 327.794 380.534C327.919 381.034 327.982 381.712 327.982 382.566C327.982 383.576 327.878 384.389 327.669 385.003C327.471 385.618 327.164 386.097 326.747 386.441C326.341 386.774 325.82 386.941 325.185 386.941C324.362 386.941 323.711 386.644 323.232 386.05C322.669 385.342 322.388 384.18 322.388 382.566ZM323.466 382.566C323.466 383.972 323.633 384.909 323.966 385.378C324.299 385.847 324.706 386.081 325.185 386.081C325.674 386.081 326.081 385.847 326.404 385.378C326.737 384.909 326.904 383.972 326.904 382.566C326.904 381.149 326.737 380.212 326.404 379.753C326.081 379.284 325.669 379.05 325.169 379.05C324.69 379.05 324.305 379.253 324.013 379.659C323.648 380.18 323.466 381.149 323.466 382.566Z" fill="black"/>
<path d="M417.643 386.8V384.738H413.924V383.769L417.846 378.206H418.706V383.769H419.862V384.738H418.706V386.8H417.643ZM417.643 383.769V379.909L414.956 383.769H417.643ZM424.643 386.8V384.738H420.924V383.769L424.846 378.206H425.706V383.769H426.862V384.738H425.706V386.8H424.643ZM424.643 383.769V379.909L421.956 383.769H424.643ZM431.643 386.8V384.738H427.924V383.769L431.846 378.206H432.706V383.769H433.862V384.738H432.706V386.8H431.643ZM431.643 383.769V379.909L428.956 383.769H431.643ZM435.268 382.566C435.268 381.545 435.372 380.727 435.581 380.113C435.789 379.488 436.096 379.008 436.503 378.675C436.919 378.342 437.44 378.175 438.065 378.175C438.523 378.175 438.924 378.269 439.268 378.456C439.622 378.644 439.914 378.915 440.143 379.269C440.372 379.613 440.549 380.034 440.674 380.534C440.799 381.034 440.862 381.712 440.862 382.566C440.862 383.576 440.758 384.389 440.549 385.003C440.352 385.618 440.044 386.097 439.628 386.441C439.221 386.774 438.701 386.941 438.065 386.941C437.242 386.941 436.591 386.644 436.112 386.05C435.549 385.342 435.268 384.18 435.268 382.566ZM436.346 382.566C436.346 383.972 436.513 384.909 436.846 385.378C437.18 385.847 437.586 386.081 438.065 386.081C438.555 386.081 438.961 385.847 439.284 385.378C439.617 384.909 439.784 383.972 439.784 382.566C439.784 381.149 439.617 380.212 439.284 379.753C438.961 379.284 438.549 379.05 438.049 379.05C437.57 379.05 437.185 379.253 436.893 379.659C436.529 380.18 436.346 381.149 436.346 382.566ZM442.268 382.566C442.268 381.545 442.372 380.727 442.581 380.113C442.789 379.488 443.096 379.008 443.503 378.675C443.919 378.342 444.44 378.175 445.065 378.175C445.523 378.175 445.924 378.269 446.268 378.456C446.622 378.644 446.914 378.915 447.143 379.269C447.372 379.613 447.549 380.034 447.674 380.534C447.799 381.034 447.862 381.712 447.862 382.566C447.862 383.576 447.758 384.389 447.549 385.003C447.352 385.618 447.044 386.097 446.628 386.441C446.221 386.774 445.701 386.941 445.065 386.941C444.242 386.941 443.591 386.644 443.112 386.05C442.549 385.342 442.268 384.18 442.268 382.566ZM443.346 382.566C443.346 383.972 443.513 384.909 443.846 385.378C444.18 385.847 444.586 386.081 445.065 386.081C445.555 386.081 445.961 385.847 446.284 385.378C446.617 384.909 446.784 383.972 446.784 382.566C446.784 381.149 446.617 380.212 446.284 379.753C445.961 379.284 445.549 379.05 445.049 379.05C444.57 379.05 444.185 379.253 443.893 379.659C443.529 380.18 443.346 381.149 443.346 382.566Z" fill="black"/>
<path d="M537.523 386.8V384.738H533.805V383.769L537.727 378.206H538.586V383.769H539.742V384.738H538.586V386.8H537.523ZM537.523 383.769V379.909L534.836 383.769H537.523ZM544.523 386.8V384.738H540.805V383.769L544.727 378.206H545.586V383.769H546.742V384.738H545.586V386.8H544.523ZM544.523 383.769V379.909L541.836 383.769H544.523ZM553.617 380.316L552.57 380.394C552.477 379.977 552.346 379.675 552.18 379.488C551.888 379.185 551.534 379.034 551.117 379.034C550.784 379.034 550.487 379.128 550.227 379.316C549.904 379.566 549.643 379.925 549.445 380.394C549.258 380.852 549.159 381.508 549.148 382.363C549.398 381.977 549.706 381.691 550.07 381.503C550.445 381.316 550.836 381.222 551.242 381.222C551.94 381.222 552.534 381.482 553.023 382.003C553.523 382.524 553.773 383.191 553.773 384.003C553.773 384.545 553.654 385.05 553.414 385.519C553.185 385.977 552.867 386.331 552.461 386.581C552.055 386.821 551.596 386.941 551.086 386.941C550.201 386.941 549.482 386.618 548.93 385.972C548.378 385.326 548.102 384.264 548.102 382.784C548.102 381.118 548.409 379.909 549.023 379.159C549.555 378.503 550.274 378.175 551.18 378.175C551.857 378.175 552.409 378.368 552.836 378.753C553.273 379.128 553.534 379.649 553.617 380.316ZM549.32 384.019C549.32 384.383 549.393 384.732 549.539 385.066C549.695 385.389 549.909 385.639 550.18 385.816C550.461 385.993 550.758 386.081 551.07 386.081C551.508 386.081 551.888 385.904 552.211 385.55C552.534 385.185 552.695 384.696 552.695 384.081C552.695 383.488 552.534 383.019 552.211 382.675C551.898 382.331 551.503 382.159 551.023 382.159C550.544 382.159 550.138 382.331 549.805 382.675C549.482 383.019 549.32 383.467 549.32 384.019ZM555.148 382.566C555.148 381.545 555.253 380.727 555.461 380.113C555.669 379.488 555.977 379.008 556.383 378.675C556.8 378.342 557.32 378.175 557.945 378.175C558.404 378.175 558.805 378.269 559.148 378.456C559.503 378.644 559.794 378.915 560.023 379.269C560.253 379.613 560.43 380.034 560.555 380.534C560.68 381.034 560.742 381.712 560.742 382.566C560.742 383.576 560.638 384.389 560.43 385.003C560.232 385.618 559.925 386.097 559.508 386.441C559.102 386.774 558.581 386.941 557.945 386.941C557.122 386.941 556.471 386.644 555.992 386.05C555.43 385.342 555.148 384.18 555.148 382.566ZM556.227 382.566C556.227 383.972 556.393 384.909 556.727 385.378C557.06 385.847 557.466 386.081 557.945 386.081C558.435 386.081 558.841 385.847 559.164 385.378C559.497 384.909 559.664 383.972 559.664 382.566C559.664 381.149 559.497 380.212 559.164 379.753C558.841 379.284 558.43 379.05 557.93 379.05C557.451 379.05 557.065 379.253 556.773 379.659C556.409 380.18 556.227 381.149 556.227 382.566ZM562.148 382.566C562.148 381.545 562.253 380.727 562.461 380.113C562.669 379.488 562.977 379.008 563.383 378.675C563.8 378.342 564.32 378.175 564.945 378.175C565.404 378.175 565.805 378.269 566.148 378.456C566.503 378.644 566.794 378.915 567.023 379.269C567.253 379.613 567.43 380.034 567.555 380.534C567.68 381.034 567.742 381.712 567.742 382.566C567.742 383.576 567.638 384.389 567.43 385.003C567.232 385.618 566.925 386.097 566.508 386.441C566.102 386.774 565.581 386.941 564.945 386.941C564.122 386.941 563.471 386.644 562.992 386.05C562.43 385.342 562.148 384.18 562.148 382.566ZM563.227 382.566C563.227 383.972 563.393 384.909 563.727 385.378C564.06 385.847 564.466 386.081 564.945 386.081C565.435 386.081 565.841 385.847 566.164 385.378C566.497 384.909 566.664 383.972 566.664 382.566C566.664 381.149 566.497 380.212 566.164 379.753C565.841 379.284 565.43 379.05 564.93 379.05C564.451 379.05 564.065 379.253 563.773 379.659C563.409 380.18 563.227 381.149 563.227 382.566Z" fill="black"/>
<path d="M657.404 386.8V384.738H653.685V383.769L657.607 378.206H658.466V383.769H659.622V384.738H658.466V386.8H657.404ZM657.404 383.769V379.909L654.716 383.769H657.404ZM664.404 386.8V384.738H660.685V383.769L664.607 378.206H665.466V383.769H666.622V384.738H665.466V386.8H664.404ZM664.404 383.769V379.909L661.716 383.769H664.404ZM669.654 382.144C669.216 381.977 668.888 381.748 668.669 381.456C668.461 381.154 668.357 380.8 668.357 380.394C668.357 379.769 668.581 379.243 669.029 378.816C669.487 378.389 670.086 378.175 670.826 378.175C671.576 378.175 672.18 378.394 672.638 378.831C673.096 379.269 673.326 379.8 673.326 380.425C673.326 380.821 673.221 381.165 673.013 381.456C672.805 381.748 672.487 381.977 672.06 382.144C672.591 382.31 672.992 382.587 673.263 382.972C673.534 383.357 673.669 383.816 673.669 384.347C673.669 385.076 673.409 385.691 672.888 386.191C672.378 386.691 671.695 386.941 670.841 386.941C669.997 386.941 669.315 386.691 668.794 386.191C668.274 385.691 668.013 385.066 668.013 384.316C668.013 383.753 668.154 383.284 668.435 382.909C668.727 382.534 669.133 382.279 669.654 382.144ZM669.435 380.347C669.435 380.753 669.565 381.087 669.826 381.347C670.096 381.607 670.44 381.738 670.857 381.738C671.263 381.738 671.596 381.613 671.857 381.363C672.117 381.102 672.247 380.784 672.247 380.409C672.247 380.024 672.112 379.701 671.841 379.441C671.57 379.17 671.237 379.034 670.841 379.034C670.435 379.034 670.096 379.165 669.826 379.425C669.565 379.685 669.435 379.993 669.435 380.347ZM669.107 384.316C669.107 384.618 669.175 384.909 669.31 385.191C669.456 385.472 669.669 385.691 669.951 385.847C670.232 386.003 670.534 386.081 670.857 386.081C671.357 386.081 671.768 385.92 672.091 385.597C672.425 385.274 672.591 384.863 672.591 384.363C672.591 383.852 672.425 383.43 672.091 383.097C671.758 382.764 671.336 382.597 670.826 382.597C670.326 382.597 669.914 382.764 669.591 383.097C669.268 383.42 669.107 383.826 669.107 384.316ZM675.029 382.566C675.029 381.545 675.133 380.727 675.341 380.113C675.55 379.488 675.857 379.008 676.263 378.675C676.68 378.342 677.201 378.175 677.826 378.175C678.284 378.175 678.685 378.269 679.029 378.456C679.383 378.644 679.675 378.915 679.904 379.269C680.133 379.613 680.31 380.034 680.435 380.534C680.56 381.034 680.622 381.712 680.622 382.566C680.622 383.576 680.518 384.389 680.31 385.003C680.112 385.618 679.805 386.097 679.388 386.441C678.982 386.774 678.461 386.941 677.826 386.941C677.003 386.941 676.352 386.644 675.872 386.05C675.31 385.342 675.029 384.18 675.029 382.566ZM676.107 382.566C676.107 383.972 676.274 384.909 676.607 385.378C676.94 385.847 677.346 386.081 677.826 386.081C678.315 386.081 678.721 385.847 679.044 385.378C679.378 384.909 679.544 383.972 679.544 382.566C679.544 381.149 679.378 380.212 679.044 379.753C678.721 379.284 678.31 379.05 677.81 379.05C677.331 379.05 676.945 379.253 676.654 379.659C676.289 380.18 676.107 381.149 676.107 382.566ZM682.029 382.566C682.029 381.545 682.133 380.727 682.341 380.113C682.55 379.488 682.857 379.008 683.263 378.675C683.68 378.342 684.201 378.175 684.826 378.175C685.284 378.175 685.685 378.269 686.029 378.456C686.383 378.644 686.675 378.915 686.904 379.269C687.133 379.613 687.31 380.034 687.435 380.534C687.56 381.034 687.622 381.712 687.622 382.566C687.622 383.576 687.518 384.389 687.31 385.003C687.112 385.618 686.805 386.097 686.388 386.441C685.982 386.774 685.461 386.941 684.826 386.941C684.003 386.941 683.352 386.644 682.872 386.05C682.31 385.342 682.029 384.18 682.029 382.566ZM683.107 382.566C683.107 383.972 683.274 384.909 683.607 385.378C683.94 385.847 684.346 386.081 684.826 386.081C685.315 386.081 685.721 385.847 686.044 385.378C686.378 384.909 686.544 383.972 686.544 382.566C686.544 381.149 686.378 380.212 686.044 379.753C685.721 379.284 685.31 379.05 684.81 379.05C684.331 379.05 683.945 379.253 683.654 379.659C683.289 380.18 683.107 381.149 683.107 382.566Z" fill="black"/>
<path d="M580.847 65.5125V66.7H574.222C574.211 66.4083 574.258 66.1218 574.363 65.8406C574.54 65.3927 574.81 64.95 575.175 64.5125C575.55 64.0749 576.086 63.5697 576.784 62.9968C577.878 62.101 578.613 61.3927 578.988 60.8718C579.373 60.351 579.566 59.8562 579.566 59.3875C579.566 58.8979 579.389 58.4864 579.034 58.1531C578.691 57.8197 578.243 57.6531 577.691 57.6531C577.097 57.6531 576.618 57.8302 576.253 58.1843C575.899 58.5385 575.722 59.0333 575.722 59.6687L574.456 59.5281C574.54 58.5906 574.862 57.877 575.425 57.3875C575.998 56.8875 576.758 56.6375 577.706 56.6375C578.675 56.6375 579.435 56.9031 579.988 57.4343C580.55 57.9656 580.831 58.627 580.831 59.4187C580.831 59.825 580.748 60.2208 580.581 60.6062C580.425 60.9916 580.154 61.3979 579.769 61.825C579.394 62.252 578.764 62.8406 577.878 63.5906C577.139 64.2052 576.665 64.627 576.456 64.8562C576.248 65.0749 576.076 65.2937 575.941 65.5125H580.847ZM582.378 61.7625C582.378 60.575 582.498 59.6218 582.738 58.9031C582.988 58.1739 583.352 57.6166 583.831 57.2312C584.31 56.8354 584.915 56.6375 585.644 56.6375C586.185 56.6375 586.659 56.7468 587.066 56.9656C587.472 57.1843 587.805 57.4968 588.066 57.9031C588.336 58.3093 588.545 58.8041 588.691 59.3875C588.836 59.9708 588.909 60.7625 588.909 61.7625C588.909 62.9395 588.79 63.8874 588.55 64.6062C588.31 65.3249 587.951 65.8822 587.472 66.2781C586.993 66.6739 586.383 66.8718 585.644 66.8718C584.685 66.8718 583.93 66.5229 583.378 65.825C582.711 64.9916 582.378 63.6375 582.378 61.7625ZM583.644 61.7625C583.644 63.4083 583.836 64.502 584.222 65.0437C584.607 65.5854 585.081 65.8562 585.644 65.8562C586.217 65.8562 586.696 65.5854 587.081 65.0437C587.467 64.4916 587.659 63.3979 587.659 61.7625C587.659 60.1062 587.467 59.0072 587.081 58.4656C586.696 57.9239 586.211 57.6531 585.628 57.6531C585.066 57.6531 584.618 57.8927 584.284 58.3718C583.857 58.9864 583.644 60.1166 583.644 61.7625ZM596.847 65.5125V66.7H590.222C590.211 66.4083 590.258 66.1218 590.363 65.8406C590.54 65.3927 590.81 64.95 591.175 64.5125C591.55 64.0749 592.086 63.5697 592.784 62.9968C593.878 62.101 594.613 61.3927 594.988 60.8718C595.373 60.351 595.566 59.8562 595.566 59.3875C595.566 58.8979 595.389 58.4864 595.034 58.1531C594.691 57.8197 594.243 57.6531 593.691 57.6531C593.097 57.6531 592.618 57.8302 592.253 58.1843C591.899 58.5385 591.722 59.0333 591.722 59.6687L590.456 59.5281C590.54 58.5906 590.862 57.877 591.425 57.3875C591.998 56.8875 592.758 56.6375 593.706 56.6375C594.675 56.6375 595.435 56.9031 595.988 57.4343C596.55 57.9656 596.831 58.627 596.831 59.4187C596.831 59.825 596.748 60.2208 596.581 60.6062C596.425 60.9916 596.154 61.3979 595.769 61.825C595.394 62.252 594.764 62.8406 593.878 63.5906C593.139 64.2052 592.665 64.627 592.456 64.8562C592.248 65.0749 592.076 65.2937 591.941 65.5125H596.847ZM604.847 65.5125V66.7H598.222C598.211 66.4083 598.258 66.1218 598.363 65.8406C598.54 65.3927 598.81 64.95 599.175 64.5125C599.55 64.0749 600.086 63.5697 600.784 62.9968C601.878 62.101 602.613 61.3927 602.988 60.8718C603.373 60.351 603.566 59.8562 603.566 59.3875C603.566 58.8979 603.389 58.4864 603.034 58.1531C602.691 57.8197 602.243 57.6531 601.691 57.6531C601.097 57.6531 600.618 57.8302 600.253 58.1843C599.899 58.5385 599.722 59.0333 599.722 59.6687L598.456 59.5281C598.54 58.5906 598.862 57.877 599.425 57.3875C599.998 56.8875 600.758 56.6375 601.706 56.6375C602.675 56.6375 603.435 56.9031 603.988 57.4343C604.55 57.9656 604.831 58.627 604.831 59.4187C604.831 59.825 604.748 60.2208 604.581 60.6062C604.425 60.9916 604.154 61.3979 603.769 61.825C603.394 62.252 602.764 62.8406 601.878 63.5906C601.139 64.2052 600.665 64.627 600.456 64.8562C600.248 65.0749 600.076 65.2937 599.941 65.5125H604.847Z" fill="#999999"/>
<path d="M610.175 58.1687C609.487 59.3666 608.633 60.3666 607.612 61.1687L606.847 60.1843C608.336 59.0906 609.357 57.5072 609.909 55.4343L611.159 55.7625C611.305 55.9083 611.253 55.9968 611.003 56.0281L610.566 57.1218H618.269V58.1687H614.284V60.0281H617.566V61.0593H614.284V63.5281H618.878V64.5593H614.284V67.8562H613.191V64.5593H606.894V63.5281H609.362V60.0281H613.191V58.1687H610.175ZM610.456 63.5281H613.191V61.0593H610.456V63.5281Z" fill="#999999"/>
<path d="M620.566 64.3875L621.753 64.2781C621.847 64.8302 622.034 65.2312 622.316 65.4812C622.607 65.7312 622.972 65.8562 623.409 65.8562C623.784 65.8562 624.112 65.7729 624.394 65.6062C624.685 65.4291 624.92 65.1947 625.097 64.9031C625.284 64.6114 625.441 64.2208 625.566 63.7312C625.691 63.2416 625.753 62.7416 625.753 62.2312C625.753 62.1791 625.748 62.0958 625.737 61.9812C625.498 62.377 625.165 62.7 624.737 62.95C624.31 63.1895 623.847 63.3093 623.347 63.3093C622.514 63.3093 621.81 63.0072 621.237 62.4031C620.665 61.7989 620.378 61.0072 620.378 60.0281C620.378 59.0072 620.675 58.1895 621.269 57.575C621.873 56.95 622.628 56.6375 623.534 56.6375C624.18 56.6375 624.774 56.8145 625.316 57.1687C625.857 57.5125 626.269 58.0125 626.55 58.6687C626.831 59.3145 626.972 60.252 626.972 61.4812C626.972 62.7625 626.831 63.7833 626.55 64.5437C626.279 65.3041 625.868 65.8822 625.316 66.2781C624.764 66.6739 624.118 66.8718 623.378 66.8718C622.597 66.8718 621.956 66.6531 621.456 66.2156C620.967 65.7781 620.67 65.1687 620.566 64.3875ZM625.597 59.9656C625.597 59.2572 625.409 58.6947 625.034 58.2781C624.659 57.8614 624.211 57.6531 623.691 57.6531C623.139 57.6531 622.659 57.877 622.253 58.325C621.847 58.7729 621.644 59.351 621.644 60.0593C621.644 60.6947 621.836 61.2156 622.222 61.6218C622.607 62.0177 623.081 62.2156 623.644 62.2156C624.217 62.2156 624.685 62.0177 625.05 61.6218C625.415 61.2156 625.597 60.6635 625.597 59.9656Z" fill="#999999"/>
<path d="M637.706 63.5281H632.503C632.503 65.0906 631.701 66.5697 630.097 67.9656L629.175 66.9187C630.665 65.9708 631.409 64.5489 631.409 62.6531V55.9812H638.8V66.7625C638.8 67.3458 638.487 67.6375 637.862 67.6375H636.55L636.331 66.4187H637.487C637.633 66.4187 637.706 66.3458 637.706 66.2V63.5281ZM632.503 62.325H637.706V60.3562H632.503V62.325ZM632.503 59.1531H637.706V57.1843H632.503V59.1531Z" fill="#999999"/>
<path d="M648.847 65.5125V66.7H642.222C642.211 66.4083 642.258 66.1218 642.363 65.8406C642.54 65.3927 642.81 64.95 643.175 64.5125C643.55 64.0749 644.086 63.5697 644.784 62.9968C645.878 62.101 646.613 61.3927 646.988 60.8718C647.373 60.351 647.566 59.8562 647.566 59.3875C647.566 58.8979 647.389 58.4864 647.034 58.1531C646.691 57.8197 646.243 57.6531 645.691 57.6531C645.097 57.6531 644.618 57.8302 644.253 58.1843C643.899 58.5385 643.722 59.0333 643.722 59.6687L642.456 59.5281C642.54 58.5906 642.862 57.877 643.425 57.3875C643.998 56.8875 644.758 56.6375 645.706 56.6375C646.675 56.6375 647.435 56.9031 647.988 57.4343C648.55 57.9656 648.831 58.627 648.831 59.4187C648.831 59.825 648.748 60.2208 648.581 60.6062C648.425 60.9916 648.154 61.3979 647.769 61.825C647.394 62.252 646.764 62.8406 645.878 63.5906C645.139 64.2052 644.665 64.627 644.456 64.8562C644.248 65.0749 644.076 65.2937 643.941 65.5125H648.847ZM650.566 64.3875L651.753 64.2781C651.847 64.8302 652.034 65.2312 652.316 65.4812C652.607 65.7312 652.972 65.8562 653.409 65.8562C653.784 65.8562 654.113 65.7729 654.394 65.6062C654.685 65.4291 654.92 65.1947 655.097 64.9031C655.284 64.6114 655.441 64.2208 655.566 63.7312C655.691 63.2416 655.753 62.7416 655.753 62.2312C655.753 62.1791 655.748 62.0958 655.738 61.9812C655.498 62.377 655.165 62.7 654.738 62.95C654.31 63.1895 653.847 63.3093 653.347 63.3093C652.514 63.3093 651.81 63.0072 651.238 62.4031C650.665 61.7989 650.378 61.0072 650.378 60.0281C650.378 59.0072 650.675 58.1895 651.269 57.575C651.873 56.95 652.628 56.6375 653.534 56.6375C654.18 56.6375 654.774 56.8145 655.316 57.1687C655.857 57.5125 656.269 58.0125 656.55 58.6687C656.831 59.3145 656.972 60.252 656.972 61.4812C656.972 62.7625 656.831 63.7833 656.55 64.5437C656.279 65.3041 655.868 65.8822 655.316 66.2781C654.764 66.6739 654.118 66.8718 653.378 66.8718C652.597 66.8718 651.956 66.6531 651.456 66.2156C650.967 65.7781 650.67 65.1687 650.566 64.3875ZM655.597 59.9656C655.597 59.2572 655.409 58.6947 655.034 58.2781C654.659 57.8614 654.211 57.6531 653.691 57.6531C653.139 57.6531 652.659 57.877 652.253 58.325C651.847 58.7729 651.644 59.351 651.644 60.0593C651.644 60.6947 651.836 61.2156 652.222 61.6218C652.607 62.0177 653.081 62.2156 653.644 62.2156C654.217 62.2156 654.685 62.0177 655.05 61.6218C655.415 61.2156 655.597 60.6635 655.597 59.9656Z" fill="#999999"/>
<path d="M661.8 67.2H660.534V56.6375H669.128V66.9812H667.862V66.2H661.8V67.2ZM667.862 60.7937V57.6687H661.8V60.7937H667.862ZM667.862 65.1687V61.825H661.8V65.1687H667.862ZM682.081 59.8562H684.659V60.7312H682.362V61.9968H684.222V62.8718H682.362V64.1843H684.222V65.0593H682.362V66.4187H685.097V67.3093H679.566V67.8562H678.644V61.7781C678.352 62.1739 677.987 62.5385 677.55 62.8718L677.159 61.825C678.545 60.5854 679.441 59.2937 679.847 57.95H678.581V59.2H677.659V57.075H680.066C680.211 56.4916 680.336 55.8718 680.441 55.2156L681.534 55.4812C681.649 55.5958 681.612 55.7052 681.425 55.8093C681.321 56.2468 681.211 56.6687 681.097 57.075H684.987V58.9812H684.05V57.95H680.878C680.659 58.7104 680.368 59.3458 680.003 59.8562H681.159L681.862 58.2156L682.909 58.4343C683.086 58.5072 683.05 58.601 682.8 58.7156L682.081 59.8562ZM672.847 57.3406V56.3093H677.487V57.3406H675.581C675.508 58.476 675.269 59.5177 674.862 60.4656H677.003V66.9812H676.066V66.0906H674.644V67.5281H673.722V62.5906C673.503 62.9552 673.264 63.2833 673.003 63.575L672.3 62.6531C673.571 61.226 674.316 59.4552 674.534 57.3406H672.847ZM679.566 62.8718V64.1843H681.425V62.8718H679.566ZM679.566 60.7312V61.9968H681.425V60.7312H679.566ZM679.566 65.0593V66.4187H681.425V65.0593H679.566ZM674.644 61.3406V65.2156H676.066V61.3406H674.644ZM691.222 61.45C692.566 61.0854 693.42 60.3718 693.784 59.3093L692.316 58.7156L692.691 57.7781L694.003 58.2781L694.112 56.9656H691.816V55.9187H698.378L698.269 60.6218C698.237 61.5385 697.857 61.9968 697.128 61.9968H695.862L695.753 60.95H696.909C697.128 60.95 697.237 60.8406 697.237 60.6218L697.347 56.9656H695.206L695.05 58.7156L696.362 59.4187L695.862 60.4031L694.769 59.8093C694.3 61.1531 693.264 62.0645 691.659 62.5437L691.222 61.45ZM698.159 66.9187C697.868 65.8249 697.415 64.877 696.8 64.075L697.784 63.6375C698.586 64.6166 699.097 65.5437 699.316 66.4187L698.159 66.9187ZM690.831 63.4656V67.6843H689.909V67.3093H688.05V67.9031H687.112V63.4656H690.831ZM691.269 66.9812C691.529 66.0645 691.696 65.0229 691.769 63.8562L692.862 63.9656C692.935 63.9968 692.899 64.0854 692.753 64.2312C692.711 65.3979 692.545 66.4031 692.253 67.2468L691.269 66.9812ZM694.769 61.6687C695.279 61.9916 695.79 62.5541 696.3 63.3562L695.269 63.9656C695.008 63.4552 694.571 62.8718 693.956 62.2156L694.769 61.6687ZM687.331 55.7H690.612V56.7468H687.331V55.7ZM686.628 57.5593H691.331V58.6062H686.628V57.5593ZM687.331 59.5906H690.612V60.6218H687.331V59.5906ZM687.331 61.45H690.612V62.4812H687.331V61.45ZM688.05 64.3406V66.4187H689.909V64.3406H688.05ZM694.222 63.3093C694.514 63.3406 694.534 63.45 694.284 63.6375V66.2C694.284 66.4604 694.394 66.5906 694.612 66.5906H695.816C696.034 66.5906 696.159 66.4812 696.191 66.2625L696.3 65.3875L697.394 65.6531L697.175 66.8093C697.071 67.3614 696.743 67.6375 696.191 67.6375H694.112C693.498 67.6375 693.191 67.3041 693.191 66.6375V63.3093H694.222Z" fill="#999999"/>
<path d="M27.6063 29.7156V28.2312H30.0281V24.95H31.5125C31.9292 25.002 31.9552 25.1583 31.5906 25.4187V28.2312H32.6844L32.9188 27.8406L34.2469 28.8562L33.9344 29.1687C33.5698 30.3145 32.8146 31.6427 31.6688 33.1531C32.7625 33.6218 33.674 34.1947 34.4031 34.8718L33.5438 36.5906C32.9708 35.9135 32.3198 35.3666 31.5906 34.95V42.9187H30.0281V35.0281C29.4031 35.7052 28.6479 36.3822 27.7625 37.0593L27.0594 35.2625C29.0906 33.9083 30.7313 32.0593 31.9813 29.7156H27.6063ZM45.0281 27.6062H34.4031V26.1218H45.0281V27.6062ZM43.5438 29.0906V33.4656H35.7313V29.0906H43.5438ZM42.2156 32.2156V30.3406H37.0594V32.2156H42.2156ZM44.7156 34.7937V42.5281H43.3875V42.0593H36.2V42.8406H34.8719V34.7937H44.7156ZM43.3875 40.8093V39.0125H40.4188V40.8093H43.3875ZM43.3875 37.7625V36.0437H40.4188V37.7625H43.3875ZM39.0906 39.0125H36.2V40.8093H39.0906V39.0125ZM39.0906 37.7625V36.0437H36.2V37.7625H39.0906ZM53.4656 28.075C54.0386 28.5437 54.5333 29.2208 54.95 30.1062L53.6219 30.9656C53.2573 30.2364 52.7886 29.5333 52.2156 28.8562L53.4656 28.075ZM59.7156 28.4656C59.924 28.726 59.8458 28.8822 59.4813 28.9343L58.3875 31.2H61.7469V32.6843H56.9031V38.3093H59.0125V34.0906H60.4969C60.9136 34.1427 60.9396 34.2989 60.575 34.5593V40.0281H59.0125V39.7937H53.2313V40.4968H51.6688V34.0906H53.1531C53.5698 34.1427 53.5958 34.2989 53.2313 34.5593V38.3093H55.3406V32.6843H50.575V31.2H56.9813L58.2313 27.9187L59.7156 28.4656ZM48.2313 25.8875H64.0125V41.2781C64.0125 42.1114 63.5958 42.5281 62.7625 42.5281H60.9656L60.575 40.8093H62.1375C62.3458 40.8093 62.45 40.7052 62.45 40.4968V27.3718H49.7938V42.6062H48.2313V25.8875ZM80.1844 37.6062C81.2261 38.6479 82.7625 39.6895 84.7938 40.7312L83.8563 42.3718C82.0854 41.5385 80.4188 40.3406 78.8563 38.7781L80.1844 37.6062ZM73.3875 39.0125C72.5021 40.2625 71.1479 41.4864 69.325 42.6843L68.1531 41.2C69.8198 40.2104 71.1479 39.0385 72.1375 37.6843L73.6219 38.5437C73.8823 38.752 73.8042 38.9083 73.3875 39.0125ZM70.1844 36.9812V37.7625H68.6219V26.5125H70.1063C70.5229 26.5645 70.549 26.7208 70.1844 26.9812V35.4968H84.5594V36.9812H77.2938V42.9968H75.4969V36.9812H70.1844ZM73.6219 33.2312H80.4188V31.7468H73.6219V33.2312ZM73.6219 30.4968H80.4188V29.2468H73.6219V30.4968ZM73.6219 27.9968H80.4188V26.7468H73.6219V27.9968ZM72.0594 34.4812V25.4968H81.9813V34.4812H72.0594ZM96.9813 30.1843C96.0958 35.3927 95.0281 38.6218 93.7781 39.8718C93.1011 40.5489 92.3979 40.8875 91.6688 40.8875C90.8354 40.8875 90.1844 40.6531 89.7156 40.1843C88.4656 38.9343 87.8406 37.3718 87.8406 35.4968C87.8406 33.2052 88.6479 31.252 90.2625 29.6375C92.0333 27.8666 94.1948 26.9812 96.7469 26.9812C99.0386 26.9812 100.835 27.6322 102.138 28.9343C103.596 30.3927 104.325 32.1114 104.325 34.0906C104.325 36.226 103.648 37.9708 102.294 39.325C101.408 40.2104 100.054 41.0697 98.2313 41.9031L96.5906 40.2625C98.4136 39.6895 99.8458 38.8822 100.888 37.8406C101.877 36.851 102.372 35.6531 102.372 34.2468C102.372 32.5802 101.825 31.2 100.731 30.1062C99.6375 29.0125 97.9188 28.5177 95.575 28.6218L96.9813 29.325C97.6063 29.5854 97.6063 29.8718 96.9813 30.1843ZM95.1844 28.7C93.8302 29.0125 92.6583 29.6635 91.6688 30.6531C90.3146 32.0072 89.6375 33.6739 89.6375 35.6531C89.6375 36.851 90.0281 37.8406 90.8094 38.6218C90.9656 38.7781 91.2 38.8562 91.5125 38.8562C91.825 38.8562 92.1636 38.6739 92.5281 38.3093C93.7261 37.1114 94.6115 33.9083 95.1844 28.7ZM114.325 41.5125C116.46 40.3666 117.528 38.4135 117.528 35.6531V26.6687L119.169 26.9812L123.388 25.6531L124.559 27.2156C124.664 27.5281 124.481 27.5802 124.013 27.3718L119.091 28.3093V31.6687H125.263V33.1531H122.919V42.9187H121.356V33.1531H119.091V36.1218C119.091 39.1947 117.789 41.4864 115.184 42.9968L114.325 41.5125ZM112.841 42.9968H111.278V38.3093C110.445 39.6635 109.533 40.7312 108.544 41.5125L107.372 40.1062C108.83 39.0645 110.054 37.7625 111.044 36.2H107.763V34.7156H111.278V32.9968H107.294V31.5125H112.763L113.622 28.7H107.841V27.2156H111.278V25.0281H112.763C113.179 25.0802 113.205 25.2364 112.841 25.4968V27.2156H116.278V28.7H115.263L114.169 31.5125H116.669V32.9968H112.841V34.7156H116.278V36.2H112.841V36.9031C113.57 37.1114 114.585 37.6583 115.888 38.5437L114.95 40.1062C114.221 39.377 113.518 38.8041 112.841 38.3875V42.9968ZM109.716 31.3562C109.507 30.627 109.221 29.9239 108.856 29.2468L110.341 28.7781C110.757 29.4552 111.07 30.1583 111.278 30.8875L109.716 31.3562ZM142.45 33.5437H137.372V35.2625H142.45V33.5437ZM140.341 36.7468H138.934V37.5281C138.934 40.7572 137.085 42.6583 133.388 43.2312L132.919 41.5906C135.888 41.226 137.372 39.8197 137.372 37.3718V36.7468H136.591H135.809V25.8093H144.013V36.7468H141.903V40.6531C141.903 41.0697 142.085 41.2781 142.45 41.2781H143.231C143.492 41.2781 143.648 41.0177 143.7 40.4968L143.856 39.1687L145.419 39.6375L145.184 41.4343C145.08 42.3197 144.585 42.7625 143.7 42.7625H141.747C140.809 42.7625 140.341 42.3197 140.341 41.4343V36.7468ZM137.372 32.0593H142.45V30.4187H137.372V32.0593ZM137.372 28.9343H142.45V27.2937H137.372V28.9343ZM131.747 35.8875C132.789 36.3562 134.013 37.2156 135.419 38.4656L134.325 40.1062C133.231 38.9083 132.268 38.0229 131.434 37.45C130.914 39.7416 129.82 41.5385 128.153 42.8406L126.981 41.4343C129.273 39.5072 130.367 37.0072 130.263 33.9343H127.294V32.45H130.341V29.6375H127.841V28.1531H130.341V25.0281H131.825C132.242 25.0802 132.268 25.2364 131.903 25.4968V28.1531H134.638V29.6375H131.903V32.45H135.028V33.9343H131.825C131.825 34.7677 131.799 35.4187 131.747 35.8875ZM151.825 32.1375C152.815 33.4916 153.309 34.8979 153.309 36.3562C153.309 38.3875 152.71 39.4031 151.513 39.4031H150.575L150.263 37.8406H151.044C151.565 37.8406 151.799 37.2937 151.747 36.2C151.695 34.6895 151.226 33.3614 150.341 32.2156L151.903 27.1375H149.481V42.7625H147.919V25.8875H152.294L152.606 25.4968L153.934 26.6687L153.622 26.9812L151.825 32.1375ZM163.153 36.5125H162.372C161.539 40.3145 158.752 42.502 154.013 43.075L153.544 41.5906C157.606 41.2781 160.054 39.5854 160.888 36.5125H159.794C158.908 38.7 157.033 40.0281 154.169 40.4968L153.7 39.1687C156.096 38.6479 157.58 37.7625 158.153 36.5125H156.903C156.174 37.2416 155.236 37.8145 154.091 38.2312L153.466 36.9031C155.132 36.3822 156.278 35.3927 156.903 33.9343H153.388V32.6843H165.106V33.9343H158.544C158.335 34.4031 158.075 34.8458 157.763 35.2625H164.638L164.481 40.1843C164.429 41.851 163.83 42.6843 162.684 42.6843H161.122L160.888 41.2H162.216C162.684 41.2 162.945 40.8875 162.997 40.2625L163.153 36.5125ZM156.513 30.4187H161.825V29.0906H156.513V30.4187ZM156.513 27.8406H161.825V26.5906H156.513V27.8406ZM163.153 25.3406V31.6687H155.184V25.3406H163.153ZM176.434 29.325H178.544V25.2625H180.028C180.445 25.3145 180.471 25.4708 180.106 25.7312V29.325H184.325V30.8093H180.106V34.5593H184.091V36.0437H180.106V40.6531H185.263V42.1375H173.309V40.6531H178.544V36.0437H174.716V34.5593H178.544V30.8093H175.966C175.601 31.851 175.028 32.8927 174.247 33.9343L172.919 32.9187C174.273 31.1479 175.158 29.0125 175.575 26.5125L177.059 26.825C177.476 26.9812 177.476 27.1375 177.059 27.2937L176.434 29.325ZM169.794 25.0281H171.278C171.695 25.0802 171.721 25.2364 171.356 25.4968V42.8406H169.794V25.0281ZM172.763 28.2312C173.231 28.8562 173.622 29.5593 173.934 30.3406L172.684 31.2C172.32 30.3145 171.955 29.5854 171.591 29.0125L172.763 28.2312ZM169.325 29.0906C169.69 29.1947 169.69 29.351 169.325 29.5593C169.221 31.226 168.986 32.7885 168.622 34.2468L167.138 33.7781C167.554 32.476 167.789 30.8354 167.841 28.8562L169.325 29.0906ZM202.138 33.6218V42.6843H200.575V41.9031H193.544V42.9187H191.981V35.8093C190.627 36.5385 189.169 37.1114 187.606 37.5281L187.059 36.1218C188.518 35.7572 190.158 35.1062 191.981 34.1687V33.6218H193.075C194.169 32.9968 195.106 32.3718 195.888 31.7468H187.684V30.2625H194.559V28.3875H189.716V26.9031H194.559V25.0281H196.044C196.46 25.0802 196.486 25.2364 196.122 25.4968V26.9031H199.872V28.2312C200.497 27.5541 201.122 26.7989 201.747 25.9656L202.841 26.6687C203.205 26.9291 203.153 27.0854 202.684 27.1375C201.695 28.3354 200.705 29.377 199.716 30.2625H205.106V31.7468H198.075C197.033 32.6322 196.2 33.2572 195.575 33.6218H202.138ZM197.606 30.2625C198.231 29.7937 198.934 29.1687 199.716 28.3875H196.122V30.2625H197.606ZM193.544 36.9812H200.575V34.8718H193.544V36.9812ZM193.544 40.6531H200.575V38.2312H193.544V40.6531ZM220.731 36.9031C221.46 35.4968 221.903 33.3614 222.059 30.4968H219.403C219.559 33.3614 220.002 35.4968 220.731 36.9031ZM223.622 30.4968C223.518 33.726 222.893 36.3302 221.747 38.3093C222.58 39.351 223.752 40.2625 225.263 41.0437L224.247 42.7625C222.58 41.6687 221.408 40.627 220.731 39.6375C219.533 40.9916 217.684 42.1635 215.184 43.1531L214.403 41.5906C217.111 40.4968 218.908 39.377 219.794 38.2312C218.908 36.5125 218.414 34.7937 218.309 33.075C217.997 33.8562 217.684 34.4552 217.372 34.8718L216.044 33.8562C217.606 31.5645 218.544 28.726 218.856 25.3406L220.497 25.7312C220.809 25.9395 220.731 26.0958 220.263 26.2C220.106 27.1375 219.898 28.075 219.638 29.0125H224.95V30.4968H223.622ZM216.356 26.7468C216.044 27.5281 215.679 28.1791 215.263 28.7L214.013 27.9968C214.429 27.3197 214.82 26.5385 215.184 25.6531L216.591 26.3562C216.799 26.5645 216.721 26.6947 216.356 26.7468ZM211.356 37.7625C212.085 37.9708 212.736 38.2052 213.309 38.4656C213.726 37.9968 214.065 37.2937 214.325 36.3562H212.059C211.851 36.825 211.617 37.2937 211.356 37.7625ZM210.263 39.7156L209.013 39.0125C209.533 38.2312 210.054 37.3458 210.575 36.3562H207.606V35.1062H211.044C211.356 34.4291 211.591 33.8562 211.747 33.3875L213.231 33.7781C213.44 33.9864 213.361 34.1166 212.997 34.1687L212.528 35.1062H216.981V36.3562H215.809C215.549 37.3979 215.158 38.2833 214.638 39.0125C215.106 39.2208 215.601 39.4812 216.122 39.7937L215.419 41.0437C214.846 40.6791 214.325 40.3927 213.856 40.1843C212.502 41.5385 210.679 42.3718 208.388 42.6843L207.841 41.2781C209.872 41.0697 211.434 40.4968 212.528 39.5593C211.955 39.2989 211.382 39.0645 210.809 38.8562L210.263 39.7156ZM211.825 25.0281H213.075C213.492 25.0802 213.518 25.2364 213.153 25.4968V28.8562H217.138V30.1062H213.856C214.429 30.7833 215.315 31.4343 216.513 32.0593L215.653 33.3875C214.768 32.8666 213.934 32.1375 213.153 31.2V33.075H211.825V31.5906C210.992 32.6322 209.846 33.5697 208.388 34.4031L207.372 33.1531C208.986 32.3197 210.315 31.3041 211.356 30.1062H207.763V28.8562H211.825V25.0281ZM209.638 28.6218C209.273 27.8406 208.804 27.1635 208.231 26.5906L209.481 25.8093C210.106 26.4343 210.575 27.0854 210.888 27.7625L209.638 28.6218ZM236.981 30.1843C236.096 35.3927 235.028 38.6218 233.778 39.8718C233.101 40.5489 232.398 40.8875 231.669 40.8875C230.835 40.8875 230.184 40.6531 229.716 40.1843C228.466 38.9343 227.841 37.3718 227.841 35.4968C227.841 33.2052 228.648 31.252 230.263 29.6375C232.033 27.8666 234.195 26.9812 236.747 26.9812C239.039 26.9812 240.835 27.6322 242.138 28.9343C243.596 30.3927 244.325 32.1114 244.325 34.0906C244.325 36.226 243.648 37.9708 242.294 39.325C241.408 40.2104 240.054 41.0697 238.231 41.9031L236.591 40.2625C238.414 39.6895 239.846 38.8822 240.888 37.8406C241.877 36.851 242.372 35.6531 242.372 34.2468C242.372 32.5802 241.825 31.2 240.731 30.1062C239.638 29.0125 237.919 28.5177 235.575 28.6218L236.981 29.325C237.606 29.5854 237.606 29.8718 236.981 30.1843ZM235.184 28.7C233.83 29.0125 232.658 29.6635 231.669 30.6531C230.315 32.0072 229.638 33.6739 229.638 35.6531C229.638 36.851 230.028 37.8406 230.809 38.6218C230.966 38.7781 231.2 38.8562 231.513 38.8562C231.825 38.8562 232.164 38.6739 232.528 38.3093C233.726 37.1114 234.611 33.9083 235.184 28.7ZM252.763 31.825C254.481 30.2104 255.809 27.8666 256.747 24.7937L258.309 25.2625C258.57 25.4708 258.518 25.601 258.153 25.6531C257.736 26.6947 257.32 27.6583 256.903 28.5437H259.247C259.82 27.3458 260.263 26.2781 260.575 25.3406L262.059 25.8875C262.268 26.0958 262.19 26.226 261.825 26.2781C261.46 27.1114 261.096 27.8666 260.731 28.5437H264.716V30.0281H260.731V32.45H263.934V33.9343H260.731V36.4343H263.934V37.9187H260.731V40.8093H265.184V42.2937H256.591V42.9968H255.028V31.6687C254.664 32.1895 254.273 32.6583 253.856 33.075L252.763 31.825ZM248.856 42.8406L248.544 41.3562H249.872C250.08 41.3562 250.184 41.252 250.184 41.0437V36.2L248.153 36.6687C248.101 37.0333 247.971 37.1114 247.763 36.9031L247.45 35.1062L250.184 34.5593V30.4187H247.763V28.9343H250.184V24.95H251.669C252.085 25.002 252.111 25.1583 251.747 25.4187V28.9343H253.778V30.4187H251.747V34.2468L253.778 33.7L254.013 35.1062L251.747 35.8093V41.5906C251.747 42.4239 251.33 42.8406 250.497 42.8406H248.856ZM256.591 40.8093H259.169V37.9187H256.591V40.8093ZM256.591 36.4343H259.169V33.9343H256.591V36.4343ZM256.591 32.45H259.169V30.0281H256.591V32.45ZM282.841 27.1375L283.075 26.825L284.325 27.8406L284.091 28.075C282.736 30.4187 281.408 31.9812 280.106 32.7625L280.888 32.9968C281.252 33.1531 281.226 33.3093 280.809 33.4656C280.705 33.8302 280.575 34.1427 280.419 34.4031H283.778L284.013 34.0906L285.419 35.1062L285.106 35.4187C283.44 39.8458 280.054 42.3458 274.95 42.9187L274.325 41.4343C276.773 41.1739 278.7 40.5229 280.106 39.4812C279.377 38.752 278.648 38.127 277.919 37.6062C277.242 38.1791 276.33 38.7 275.184 39.1687L274.481 37.7625C277.033 36.7208 278.7 35.1322 279.481 32.9968C278.7 33.726 277.294 34.351 275.263 34.8718L274.559 33.4656C276.539 33.0489 278.023 32.502 279.013 31.825C278.492 31.2 277.867 30.6531 277.138 30.1843C276.773 30.5489 276.408 30.8614 276.044 31.1218L274.95 29.95C276.669 28.4916 277.763 26.9291 278.231 25.2625L279.638 25.7312C280.002 25.8875 279.976 26.0437 279.559 26.2C279.507 26.5125 279.377 26.825 279.169 27.1375H282.841ZM272.216 30.1843H274.794V31.6687H272.216V33.6218C273.257 34.0906 274.247 34.7937 275.184 35.7312L274.169 37.1375C273.335 36.3041 272.684 35.7052 272.216 35.3406V42.9187H270.653V35.1843C270.341 36.226 269.481 37.5541 268.075 39.1687L266.903 37.6843C268.83 35.8614 270.028 33.8562 270.497 31.6687H267.45V30.1843H270.653V27.6062C269.611 27.7625 268.674 27.8927 267.841 27.9968L267.45 26.5125C269.533 26.3041 271.695 25.8875 273.934 25.2625L274.794 26.4343C275.002 26.7468 274.872 26.851 274.403 26.7468C273.674 26.9552 272.945 27.1375 272.216 27.2937V30.1843ZM277.919 29.2468C278.7 29.6635 279.455 30.1843 280.184 30.8093C280.966 30.0802 281.617 29.2729 282.138 28.3875H278.544C278.335 28.752 278.127 29.0385 277.919 29.2468ZM278.778 36.6687C279.507 37.0854 280.341 37.7104 281.278 38.5437C282.059 37.9708 282.736 37.0072 283.309 35.6531H279.716C279.403 36.0697 279.091 36.4083 278.778 36.6687ZM290.809 29.325C291.382 28.127 292.346 26.9031 293.7 25.6531L294.559 26.4343C293.257 27.6322 292.346 28.7781 291.825 29.8718C291.252 31.0697 290.966 32.502 290.966 34.1687C290.966 35.575 291.252 36.9031 291.825 38.1531C292.346 39.2989 293.257 40.575 294.559 41.9812L293.7 42.8406C292.398 41.3822 291.434 40.002 290.809 38.7C290.132 37.2937 289.794 35.7833 289.794 34.1687C289.794 32.3458 290.132 30.7312 290.809 29.325ZM301.903 41.9031H300.106V26.825H312.372V41.5906H310.575V40.4968H301.903V41.9031ZM310.575 32.7625V28.3093H301.903V32.7625H310.575ZM310.575 39.0125V34.2468H301.903V39.0125H310.575ZM325.341 35.8093H322.372C321.903 38.7781 320.497 41.1218 318.153 42.8406L317.372 41.3562C319.664 39.7416 320.914 37.3458 321.122 34.1687L321.278 31.7468H320.184V32.7625H318.622V26.0437H326.513V32.45H324.95V31.7468H322.684L322.528 34.325H326.903L326.513 40.4968C326.408 41.7468 325.888 42.3718 324.95 42.3718H322.841L322.606 40.8875H324.325C324.794 40.8875 325.054 40.627 325.106 40.1062L325.341 35.8093ZM333.778 41.2C333.778 42.0854 333.361 42.5281 332.528 42.5281H330.809L330.497 41.0437H331.981C332.138 41.0437 332.216 40.9656 332.216 40.8093V25.8093H333.7C334.117 25.8614 334.143 26.0177 333.778 26.2781V41.2ZM330.028 27.6843C330.445 27.7364 330.471 27.8927 330.106 28.1531V38.8562H328.544V27.6843H330.028ZM324.95 30.4968V27.2937H320.184V30.4968H324.95ZM341.513 38.7C340.888 40.002 339.924 41.3822 338.622 42.8406L337.763 41.9812C339.065 40.575 339.976 39.2989 340.497 38.1531C341.07 36.9031 341.356 35.575 341.356 34.1687C341.356 32.502 341.07 31.0697 340.497 29.8718C339.976 28.7781 339.065 27.6322 337.763 26.4343L338.622 25.6531C339.976 26.9031 340.94 28.127 341.513 29.325C342.19 30.7312 342.528 32.3458 342.528 34.1687C342.528 35.7833 342.19 37.2937 341.513 38.7Z" fill="#757575"/>
</g>
<rect x="6" y="2" width="714" height="440" stroke="black" stroke-width="4" shape-rendering="crispEdges"/>
</g>
<defs>
<filter id="filter0_d_6_4175" x="0" y="0" width="726" height="452" filterUnits="userSpaceOnUse" color-interpolation-filters="sRGB">
<feFlood flood-opacity="0" result="BackgroundImageFix"/>
<feColorMatrix in="SourceAlpha" type="matrix" values="0 0 0 0 0 0 0 0 0 0 0 0 0 0 0 0 0 0 127 0" result="hardAlpha"/>
<feOffset dy="4"/>
<feGaussianBlur stdDeviation="2"/>
<feComposite in2="hardAlpha" operator="out"/>
<feColorMatrix type="matrix" values="0 0 0 0 0 0 0 0 0 0 0 0 0 0 0 0 0 0 0.25 0"/>
<feBlend mode="normal" in2="BackgroundImageFix" result="effect1_dropShadow_6_4175"/>
<feBlend mode="normal" in="SourceGraphic" in2="effect1_dropShadow_6_4175" result="shape"/>
</filter>
<clipPath id="clip0_6_4175">
<rect x="4" width="718" height="444" fill="white"/>
</clipPath>
</defs>
</svg>
