<svg width="718" height="444" viewBox="0 0 718 444" fill="none" xmlns="http://www.w3.org/2000/svg">
<g clip-path="url(#clip0_6_6244)">
<path d="M0 0H718V444H0V0Z" fill="white"/>
<path d="M181.5 91.5V369.5" stroke="#CCCCCC" stroke-miterlimit="10"/>
<path d="M303.5 91.5V369.5" stroke="#CCCCCC" stroke-miterlimit="10"/>
<path d="M424.5 91.5V369.5" stroke="#CCCCCC" stroke-miterlimit="10"/>
<path d="M545.5 91.5V369.5" stroke="#CCCCCC" stroke-miterlimit="10"/>
<path d="M667.5 91.5V369.5" stroke="#CCCCCC" stroke-miterlimit="10"/>
<path d="M88.5 369.5H695.5" stroke="#333333" stroke-miterlimit="10"/>
<path d="M88.5 277.5H695.5" stroke="#CCCCCC" stroke-miterlimit="10"/>
<path d="M88.5 184.5H695.5" stroke="#CCCCCC" stroke-miterlimit="10"/>
<path d="M88.5 91.5H695.5" stroke="#CCCCCC" stroke-miterlimit="10"/>
<path d="M88.2 369.8H88.807H89.414H90.021H90.628H91.235H91.842H92.449H93.056H93.6629H94.2699H94.8769H95.4839H96.0909H96.6979H97.3049H97.9119H98.5189H99.1259H99.7329H100.34H100.947H101.554H102.161H102.768H103.375H103.982H104.589H105.196H105.803H106.41H107.017H107.624H108.231H108.838H109.445H110.052H110.659H111.266H111.873H112.48L113.087 369.754H113.694L114.301 369.8H114.908H115.515H116.122H116.729H117.336H117.943H118.55H119.157H119.764H120.371H120.978H121.585H122.192H122.799H123.406H124.013H124.62L125.227 369.754L125.834 369.8H126.441H127.048H127.655L128.262 369.707L128.869 369.661H129.476L130.083 369.754L130.69 369.661L131.297 369.707H131.904L132.51 369.754L133.117 369.615L133.724 369.754L134.331 369.522L134.938 369.568L135.545 369.661L136.152 369.522H136.759L137.366 369.429L137.973 369.383H138.58L139.187 369.475L139.794 369.383L140.401 369.197L141.008 369.522L141.615 369.475L142.222 369.522L142.829 369.568H143.436L144.043 369.754H144.65L145.257 369.707L145.864 369.8L146.471 369.568L147.078 369.661L147.685 369.707L148.292 369.8H148.899H149.506H150.113H150.72H151.327H151.934H152.541L153.148 369.754L153.755 369.8H154.362H154.969H155.576H156.183H156.79H157.397H158.004H158.611H159.218H159.825H160.432H161.039H161.646H162.253H162.86H163.467H164.074H164.681H165.288H165.895H166.502H167.109H167.716H168.323H168.93H169.537H170.144H170.751L171.358 369.754L171.965 369.8H172.572H173.179H173.786H174.393H175L175.607 369.754H176.214L176.821 369.8H177.428H178.035H178.642H179.249L179.856 369.754L180.463 369.8L181.07 369.754L181.677 369.8H182.284L182.891 369.754L183.498 369.8H184.105H184.712H185.319H185.926H186.533H187.14H187.747H188.354H188.961L189.568 369.754L190.175 369.661L190.782 369.8H191.389H191.996H192.603H193.21H193.817L194.424 369.707L195.031 369.8H195.638H196.245H196.852L197.459 369.661L198.066 369.754L198.673 369.707L199.28 369.615L199.887 369.754L200.494 369.615L201.101 369.661L201.708 369.151L202.315 369.522L202.922 369.429H203.529L204.136 369.615L204.743 369.29L205.35 369.383L205.957 368.64L206.564 368.409L207.171 369.012L207.778 368.919L208.385 369.197L208.992 369.475L209.599 369.29L210.206 369.012L210.813 368.826L211.42 368.872L212.027 369.104H212.634H213.241L213.848 369.475L214.455 369.661L215.062 369.383L215.669 369.429H216.276L216.883 369.29L217.49 369.754L218.097 369.615H218.704L219.311 369.661L219.917 369.383L220.524 369.754L221.131 369.568L221.738 369.754L222.345 369.615L222.952 369.568L223.559 369.754L224.166 369.707L224.773 369.8L225.38 369.615L225.987 369.8H226.594L227.201 369.661L227.808 369.615L228.415 369.754H229.022L229.629 369.8H230.236H230.843L231.45 369.707H232.057L232.664 369.754L233.271 369.568L233.878 369.522L234.485 369.243L235.092 369.707H235.699L236.306 369.8H236.913H237.52L238.127 369.754L238.734 369.8L239.341 369.707L239.948 369.754L240.555 369.661H241.162L241.769 369.568H242.376L242.983 369.8L243.59 369.522L244.197 369.754L244.804 369.661L245.411 369.754L246.018 369.8L246.625 369.707L247.232 369.754L247.839 369.8L248.446 369.754L249.053 369.8H249.66L250.267 369.754H250.874H251.481H252.088H252.695L253.302 369.707H253.909H254.516L255.123 369.8H255.73L256.337 369.707L256.944 369.661L257.551 369.615L258.158 369.383L258.765 369.429L259.372 369.661L259.979 369.754L260.586 369.8H261.193H261.8L262.407 369.568L263.014 369.615L263.621 369.568L264.228 369.754L264.835 369.522L265.442 369.568L266.049 369.707L266.656 369.336L267.263 369.058L267.87 369.661L268.477 369.522L269.084 369.475L269.691 369.197L270.298 369.336L270.905 368.872L271.512 369.29L272.119 369.615L272.726 369.383L273.333 369.151L273.94 369.197L274.547 368.919L275.154 368.872L275.761 369.104L276.368 368.826L276.975 369.475L277.582 369.151L278.189 369.475L278.796 368.409L279.403 369.058L280.01 368.455L280.617 368.872L281.224 368.826L281.831 369.012L282.438 368.826L283.045 368.594L283.652 367.852L284.259 368.223L284.866 368.316L285.473 368.965L286.08 369.104L286.687 367.945L287.294 368.13L287.901 367.713L288.508 368.64L289.115 367.249L289.722 368.084L290.329 369.29L290.936 368.177L291.543 367.898L292.15 367.759L292.757 367.342L293.364 368.13L293.971 369.197L294.578 369.012L295.185 368.177L295.792 367.203H296.399L297.006 368.038L297.613 367.713H298.22H298.827L299.434 366.368L300.041 366.692L300.648 365.95L301.255 367.203L301.862 368.13L302.469 367.11L303.076 367.388L303.683 365.254L304.29 365.069L304.897 365.579L305.504 365.95L306.111 364.93L306.717 366.832L307.324 367.481L307.931 368.177L308.538 366.321L309.145 365.579L309.752 366.182L310.359 365.672L310.966 367.388L311.573 367.666L312.18 366.785L312.787 367.249L313.394 367.156L314.001 367.806L314.608 367.852L315.215 368.455L315.822 367.991L316.429 366.971L317.036 367.527L317.643 367.342L318.25 368.548L318.857 368.501L319.464 368.919L320.071 369.012L320.678 368.13L321.285 367.435L321.892 368.687L322.499 368.084L323.106 368.64L323.713 368.826L324.32 368.501L324.927 368.826L325.534 368.501L326.141 369.104L326.748 369.012L327.355 369.197L327.962 368.733L328.569 369.197L329.176 368.594L329.783 369.243L330.39 369.197L330.997 369.29L331.604 369.661L332.211 369.29L332.818 369.383L333.425 369.243L334.032 369.197L334.639 369.429L335.246 369.661H335.853H336.46L337.067 369.336L337.674 369.383H338.281L338.888 369.568L339.495 369.522L340.102 369.383L340.709 369.661L341.316 369.8L341.923 369.522L342.53 369.661L343.137 369.754L343.744 369.661L344.351 369.615L344.958 369.707L345.565 369.8L346.172 369.568L346.779 369.429L347.386 369.568L347.993 369.522H348.6L349.207 369.754L349.814 369.568L350.421 369.243L351.028 368.965L351.635 369.243L352.242 369.058L352.849 369.012L353.456 369.243L354.063 369.568L354.67 369.29L355.277 369.058L355.884 369.29L356.491 369.104L357.098 369.058L357.705 369.243L358.312 369.29L358.919 368.965L359.526 368.919L360.133 368.965L360.74 368.687L361.347 368.733L361.954 369.151L362.561 369.475L363.168 368.177L363.775 368.548L364.382 368.223L364.989 367.203L365.596 368.038L366.203 369.012L366.81 368.64L367.417 368.13L368.024 368.177L368.631 367.806L369.238 367.898L369.845 367.156L370.452 367.945L371.059 368.362L371.666 367.342L372.273 367.203L372.88 366.46L373.487 368.455L374.094 365.347L374.701 367.017L375.308 366.832L375.915 367.759L376.522 366.878L377.129 366.229L377.736 363.77L378.343 364.188L378.95 364.976L379.557 363.863L380.164 363.956L380.771 363.585L381.378 363.909L381.985 362.611L382.592 363.353L383.199 364.373L383.806 366.553L384.413 363.306L385.02 363.677L385.627 364.791L386.234 365.672L386.841 365.997L387.448 366.924L388.055 367.666L388.662 365.904L389.269 366.414L389.876 366.553L390.483 367.017L391.09 366.878L391.697 367.295L392.304 367.852L392.911 366.553L393.518 366.368L394.125 366.507L394.732 368.223L395.339 367.806L395.945 368.78L396.552 368.64L397.159 368.78L397.766 368.733L398.373 368.687L398.98 368.78L399.587 368.362L400.194 369.336L400.801 369.29L401.408 369.151L402.015 369.197H402.622L403.229 368.78L403.836 369.012L404.443 369.383L405.05 369.568L405.657 368.965L406.264 369.29L406.871 369.197L407.478 369.522L408.085 369.383L408.692 369.707L409.299 369.661L409.906 369.568L410.513 369.661L411.12 369.615L411.727 369.475L412.334 369.615L412.941 369.429L413.548 369.707L414.155 369.661L414.762 369.615H415.369H415.976L416.583 369.568L417.19 369.661L417.797 369.429L418.404 369.383L419.011 368.965L419.618 369.615L420.225 368.919L420.832 369.568L421.439 369.522L422.046 369.754L422.653 369.151L423.26 369.29L423.867 369.151L424.474 369.104L425.081 369.243L425.688 369.475L426.295 369.104L426.902 368.965L427.509 368.362L428.116 368.733L428.723 368.223L429.33 368.965L429.937 368.594L430.544 368.965L431.151 367.295L431.758 367.806L432.365 367.249L432.972 367.713L433.579 366.692L434.186 367.527L434.793 367.203L435.4 367.11L436.007 364.095L436.614 364.141L437.221 363.538L437.828 364.095L438.435 363.77L439.042 364.42L439.649 354.772L440.256 354.122L440.863 354.865L441.47 355.421L442.077 353.798L442.684 356.998L443.291 361.497L443.898 352.082H444.505L445.112 351.989L445.719 355.514L446.326 353.983L446.933 357.369L447.54 360.523L448.147 354.865L448.754 356.905L449.361 359.178L449.968 358.993L450.575 361.08L451.182 362.193L451.789 364.002L452.396 360.523L453.003 361.544L453.61 363.817L454.217 364.698L454.824 362.703L455.431 365.626L456.038 368.038L456.645 365.579L457.252 366.275L457.859 366.089L458.466 366.182L459.073 366.6L459.68 367.898L460.287 367.759L460.894 368.965L461.501 366.739L462.108 367.62L462.715 368.687L463.322 368.13L463.929 368.409L464.536 369.012L465.143 367.713L465.75 368.316L466.357 367.666L466.964 368.084L467.571 368.687L468.178 369.243L468.785 369.151L469.392 368.965L469.999 368.78L470.606 368.687L471.213 368.826L471.82 369.104L472.427 368.594L473.034 369.568L473.641 368.548L474.248 369.197L474.855 369.243L475.462 369.151L476.069 369.522L476.676 369.475L477.283 369.429L477.89 369.475L478.497 369.151L479.104 369.522L479.711 369.243L480.318 369.615L480.924 369.568L481.531 369.522L482.138 369.475L482.745 369.29L483.352 369.615L483.959 369.104L484.566 369.475L485.173 369.383L485.78 369.568L486.387 369.429L486.994 368.919L487.601 369.522L488.208 368.826L488.815 369.151L489.422 369.522L490.029 369.707L490.636 369.522L491.243 369.475L491.85 369.661L492.457 369.475L493.064 369.754L493.671 369.707L494.278 369.754L494.885 369.8L495.492 369.754L496.099 369.707L496.706 369.8L497.313 369.754L497.92 369.707L498.527 369.8L499.134 369.707H499.741L500.348 369.754L500.955 369.707L501.562 369.615L502.169 369.754L502.776 369.707L503.383 369.8L503.99 369.707L504.597 369.615L505.204 369.754L505.811 369.8H506.418H507.025H507.632H508.239L508.846 369.754L509.453 369.707L510.06 369.661L510.667 369.707L511.274 369.8L511.881 369.754L512.488 369.707L513.095 369.754L513.702 369.8L514.309 369.661L514.916 369.8H515.523H516.13H516.737H517.344H517.951H518.558H519.165H519.772H520.379H520.986L521.593 369.754L522.2 369.661L522.807 369.707L523.414 369.8L524.021 369.336L524.628 369.615L525.235 368.038L525.842 368.687L526.449 367.156L527.056 366.878L527.663 367.574L528.27 368.084L528.877 368.13L529.484 362.889L530.091 361.729L530.698 359.642L531.305 356.952L531.912 360.106L532.519 362.657L533.126 351.664L533.733 351.108L534.34 349.855L534.947 348.928L535.554 344.243L536.161 346.933L536.768 354.679L537.375 330.884L537.982 336.358L538.589 336.219L539.196 322.907L539.803 332.322L540.41 338.862L541.017 351.618L541.624 317.897L542.231 328.704L542.838 328.658L543.445 327.638L544.052 322.86L544.659 335.801L545.266 350.783L545.873 319.103L546.48 322.999L547.087 328.704L547.694 321.469L548.301 349.809L548.908 321.608L549.515 345.495L550.122 309.502L550.729 321.747L551.336 322.025L551.943 329.261L552.55 328.565L553.157 335.43L553.764 351.85L554.371 316.227L554.978 331.719L555.585 350.458L556.192 323.509L556.799 333.436L557.406 344.289L558.013 353.705L558.62 324.53L559.227 341.042L559.834 339.326L560.441 344.614L561.048 337.61L561.655 348.974L562.262 357.787L562.869 333.899L563.476 344.614L564.083 341.692L564.69 341.924L565.297 344.985L565.904 351.711L566.51 357.787L567.117 341.877L567.724 346.608L568.331 346.933L568.938 348.603L569.545 348.139L570.152 356.349L570.759 361.08L571.366 358.622L571.973 343.315L572.58 344.521L573.187 349.252L573.794 344.753L574.401 351.432L575.008 359.225L575.615 342.248L576.222 346.376L576.829 343.733L577.436 343.872L578.043 346.608L578.65 349.948L579.257 356.349L579.864 333.621L580.471 340.95L581.078 338.862L581.685 343.408L582.292 341.135L582.899 346.284L583.506 357.601L584.113 326.849L584.72 336.172L585.327 339.697L585.934 341.413L586.541 340.254L587.148 348.556L587.755 360.013L588.362 335.059L588.969 342.805L589.576 343.222L590.183 339.512L590.79 339.605L591.397 349.948L592.004 355.746L592.611 334.595L593.218 338.77L593.825 344.057L594.432 346.701L595.039 360.06L595.646 350.968L596.253 360.663L596.86 346.701L597.467 359.039L598.074 358.668H598.681L599.288 332.74L599.895 347.629L600.502 354.633L601.109 332.276L601.716 342.341L602.323 341.97L602.93 339.605L603.537 343.13L604.144 348.603L604.751 358.946L605.358 330.699L605.965 341.645L606.572 339.094L607.179 340.764L607.786 340.161L608.393 350.412L609 359.132L609.607 334.456L610.214 345.031L610.821 345.078L611.428 345.217L612.035 345.588L612.642 355.607L613.249 362.75L613.856 342.944L614.463 347.026L615.07 350.041L615.677 350.273L616.284 350.365L616.891 356.72L617.498 363.724L618.105 347.861L618.712 353.705L619.319 354.957L619.926 356.534L620.533 356.395L621.14 358.993L621.747 365.394L622.354 353.891L622.961 359.271L623.568 358.39L624.175 361.173L624.782 360.477L625.389 363.214L625.996 367.063L626.603 358.761L627.21 363.121L627.817 361.266L628.424 360.848L629.031 360.523L629.638 361.451L630.245 366.832L630.852 353.937L631.459 357.462L632.066 357.555L632.673 356.813L633.28 357.137L633.887 358.9L634.494 359.457L635.101 343.593L635.708 342.295L636.315 345.078L636.922 340.207L637.529 342.573L638.136 339.883L638.743 350.041L639.35 312.795L639.957 323.788L640.564 321.561L641.171 321.376L641.778 313.769L642.385 323.927L642.992 338.955L643.599 322.675L644.206 249.482L644.813 275.688L645.42 277.173L646.027 271.931L646.634 289.139L647.241 319.242L647.848 209.824L648.455 258.666L649.062 240.715L649.669 248.044L650.276 237.886L650.883 267.107L651.49 308.296L652.096 158.431L652.703 209.128L653.31 211.355L653.917 224.759L654.524 226.383L655.131 231.392L655.738 295.03L656.345 150.639L656.952 193.451L657.559 197.393L658.166 304.585L658.773 190.992L659.38 240.205L659.987 277.683L660.594 204.907L661.201 167.708L661.808 161.539L662.415 177.077L663.022 160.797L663.629 215.575L664.236 290.021L664.843 132.503L665.45 175.176L666.057 200.223L666.664 233.99L667.271 231.81L667.878 255.79L668.485 306.811L669.092 182.643L669.699 234.036L670.306 252.172L670.913 275.178L671.52 263.026L672.127 292.943L672.734 320.958L673.341 220.724L673.948 253.934L674.555 276.523L675.162 287.423L675.769 298.231L676.376 306.533L676.983 333.946L677.59 261.078L678.197 299.344L678.804 305.466L679.411 311.496L680.018 319.752L680.625 328.658L681.232 350.134L681.839 343.408L682.446 293.824L683.053 323.278L683.66 334.688L684.267 353.009L684.874 328.983L685.481 350.597L686.088 339.512L686.695 326.988L687.302 336.868L687.909 341.506L688.516 340.903L689.123 346.794L689.73 359.364L690.337 329.122L690.944 343.315L691.551 344.892L692.158 349.159L692.765 348.278L693.372 351.896L693.979 358.158L694.586 355.607L695.193 324.112L695.8 330.653" stroke="#4285F4" stroke-width="2" stroke-miterlimit="10"/>
<path d="M379.922 418.8V410.206H382.891C383.557 410.206 384.068 410.248 384.422 410.331C384.911 410.446 385.328 410.649 385.672 410.941C386.13 411.326 386.469 411.821 386.688 412.425C386.917 413.019 387.031 413.696 387.031 414.456C387.031 415.113 386.953 415.691 386.797 416.191C386.651 416.691 386.458 417.107 386.219 417.441C385.979 417.774 385.714 418.034 385.422 418.222C385.141 418.409 384.802 418.555 384.406 418.659C384.01 418.753 383.552 418.8 383.031 418.8H379.922ZM381.062 417.784H382.891C383.464 417.784 383.911 417.732 384.234 417.628C384.557 417.524 384.812 417.373 385 417.175C385.271 416.915 385.479 416.555 385.625 416.097C385.781 415.639 385.859 415.087 385.859 414.441C385.859 413.545 385.708 412.857 385.406 412.378C385.115 411.889 384.76 411.56 384.344 411.394C384.031 411.279 383.542 411.222 382.875 411.222H381.062V417.784ZM392.859 418.034C392.464 418.368 392.083 418.602 391.719 418.738C391.365 418.873 390.979 418.941 390.562 418.941C389.875 418.941 389.349 418.774 388.984 418.441C388.62 418.107 388.438 417.68 388.438 417.159C388.438 416.857 388.505 416.581 388.641 416.331C388.776 416.071 388.958 415.868 389.188 415.722C389.417 415.566 389.672 415.451 389.953 415.378C390.151 415.316 390.464 415.258 390.891 415.206C391.734 415.113 392.359 414.993 392.766 414.847C392.766 414.701 392.766 414.613 392.766 414.581C392.766 414.144 392.667 413.837 392.469 413.659C392.198 413.43 391.797 413.316 391.266 413.316C390.776 413.316 390.411 413.404 390.172 413.581C389.932 413.748 389.755 414.05 389.641 414.488L388.609 414.347C388.703 413.909 388.859 413.555 389.078 413.284C389.297 413.014 389.609 412.805 390.016 412.659C390.422 412.514 390.891 412.441 391.422 412.441C391.953 412.441 392.385 412.503 392.719 412.628C393.052 412.753 393.297 412.909 393.453 413.097C393.609 413.284 393.719 413.524 393.781 413.816C393.812 413.993 393.828 414.316 393.828 414.784V416.191C393.828 417.17 393.849 417.79 393.891 418.05C393.943 418.31 394.036 418.56 394.172 418.8H393.062C392.958 418.581 392.891 418.326 392.859 418.034ZM392.766 415.675C392.38 415.831 391.807 415.967 391.047 416.081C390.609 416.144 390.302 416.217 390.125 416.3C389.948 416.373 389.807 416.482 389.703 416.628C389.609 416.774 389.562 416.941 389.562 417.128C389.562 417.409 389.667 417.644 389.875 417.831C390.094 418.019 390.406 418.113 390.812 418.113C391.219 418.113 391.578 418.024 391.891 417.847C392.214 417.67 392.448 417.425 392.594 417.113C392.708 416.873 392.766 416.524 392.766 416.066V415.675ZM398.094 417.863L398.25 418.784C397.948 418.847 397.682 418.878 397.453 418.878C397.068 418.878 396.771 418.821 396.562 418.706C396.354 418.581 396.203 418.42 396.109 418.222C396.026 418.024 395.984 417.607 395.984 416.972V413.394H395.219V412.581H395.984V411.034L397.031 410.409V412.581H398.094V413.394H397.031V417.034C397.031 417.337 397.047 417.529 397.078 417.613C397.12 417.696 397.182 417.764 397.266 417.816C397.349 417.868 397.469 417.894 397.625 417.894C397.75 417.894 397.906 417.883 398.094 417.863ZM403.047 416.8L404.141 416.925C403.974 417.56 403.656 418.055 403.188 418.409C402.719 418.764 402.125 418.941 401.406 418.941C400.5 418.941 399.776 418.659 399.234 418.097C398.703 417.534 398.438 416.748 398.438 415.738C398.438 414.696 398.708 413.889 399.25 413.316C399.792 412.732 400.49 412.441 401.344 412.441C402.177 412.441 402.854 412.722 403.375 413.284C403.906 413.847 404.172 414.644 404.172 415.675C404.172 415.738 404.172 415.831 404.172 415.956H399.531C399.573 416.644 399.766 417.17 400.109 417.534C400.453 417.889 400.885 418.066 401.406 418.066C401.792 418.066 402.12 417.967 402.391 417.769C402.672 417.56 402.891 417.238 403.047 416.8ZM399.594 415.097H403.062C403.021 414.566 402.891 414.17 402.672 413.909C402.328 413.503 401.891 413.3 401.359 413.3C400.87 413.3 400.458 413.462 400.125 413.784C399.802 414.107 399.625 414.545 399.594 415.097Z" fill="black"/>
<path d="M29.825 243.197H28.825L28.8094 239.572H31.9969C32.4448 240.124 32.7833 240.697 33.0125 241.291C33.2312 241.884 33.3406 242.494 33.3406 243.119C33.3406 243.963 33.1635 244.733 32.8094 245.431C32.4448 246.119 31.9239 246.64 31.2469 246.994C30.5594 247.338 29.7937 247.509 28.95 247.509C28.1062 247.509 27.325 247.338 26.6062 246.994C25.8771 246.64 25.3406 246.134 24.9969 245.478C24.6427 244.822 24.4656 244.067 24.4656 243.213C24.4656 242.588 24.5646 242.025 24.7625 241.525C24.9604 241.025 25.2416 240.634 25.6062 240.353C25.9604 240.061 26.4291 239.843 27.0125 239.697L27.2937 240.713C26.8562 240.848 26.5125 241.015 26.2625 241.213C26.0125 241.4 25.8146 241.671 25.6687 242.025C25.5125 242.379 25.4344 242.77 25.4344 243.197C25.4344 243.718 25.5125 244.171 25.6687 244.556C25.825 244.931 26.0333 245.239 26.2937 245.478C26.5541 245.707 26.8406 245.884 27.1531 246.009C27.6844 246.228 28.2573 246.338 28.8719 246.338C29.6427 246.338 30.2885 246.207 30.8094 245.947C31.3198 245.676 31.7 245.291 31.95 244.791C32.2 244.291 32.325 243.754 32.325 243.181C32.325 242.692 32.2312 242.213 32.0437 241.744C31.8458 241.275 31.6427 240.921 31.4344 240.681H29.825V243.197ZM25.825 238.353H24.6062V237.291H25.825V238.353ZM33.2 238.353H26.9812V237.291H33.2V238.353ZM33.2 235.103H27.7937V236.041H26.9812V235.103H26.3094C25.8927 235.103 25.5854 235.067 25.3875 234.994C25.1062 234.89 24.8823 234.713 24.7156 234.463C24.5489 234.202 24.4656 233.843 24.4656 233.384C24.4656 233.082 24.5021 232.754 24.575 232.4L25.4812 232.556C25.45 232.775 25.4344 232.983 25.4344 233.181C25.4344 233.504 25.5021 233.733 25.6375 233.869C25.7729 233.994 26.0281 234.056 26.4031 234.056H26.9812V232.838H27.7937V234.056H33.2V235.103ZM33.2 228.275H32.2781C32.9864 228.765 33.3406 229.426 33.3406 230.259C33.3406 230.624 33.2729 230.968 33.1375 231.291C32.9917 231.603 32.8146 231.838 32.6062 231.994C32.3875 232.15 32.1219 232.259 31.8094 232.322C31.6114 232.364 31.2833 232.384 30.825 232.384H26.9812V231.322H30.4344C30.976 231.322 31.3458 231.301 31.5437 231.259C31.8146 231.197 32.0333 231.061 32.2 230.853C32.3562 230.634 32.4344 230.364 32.4344 230.041C32.4344 229.728 32.3562 229.436 32.2 229.166C32.0333 228.884 31.8094 228.686 31.5281 228.572C31.2469 228.447 30.8406 228.384 30.3094 228.384H26.9812V227.338H33.2V228.275Z" fill="black"/>
<path d="M75.7 369.566C75.7 368.545 75.8042 367.727 76.0125 367.113C76.2208 366.488 76.5281 366.008 76.9344 365.675C77.3511 365.342 77.8719 365.175 78.4969 365.175C78.9552 365.175 79.3563 365.269 79.7 365.456C80.0542 365.644 80.3458 365.915 80.575 366.269C80.8042 366.613 80.9813 367.034 81.1063 367.534C81.2313 368.034 81.2938 368.712 81.2938 369.566C81.2938 370.576 81.1896 371.389 80.9813 372.003C80.7833 372.618 80.4761 373.097 80.0594 373.441C79.6531 373.774 79.1323 373.941 78.4969 373.941C77.674 373.941 77.0229 373.644 76.5438 373.05C75.9813 372.342 75.7 371.18 75.7 369.566ZM76.7781 369.566C76.7781 370.972 76.9448 371.909 77.2781 372.378C77.6115 372.847 78.0177 373.081 78.4969 373.081C78.9865 373.081 79.3927 372.847 79.7156 372.378C80.049 371.909 80.2156 370.972 80.2156 369.566C80.2156 368.149 80.049 367.212 79.7156 366.753C79.3927 366.284 78.9813 366.05 78.4813 366.05C78.0021 366.05 77.6167 366.253 77.325 366.659C76.9604 367.18 76.7781 368.149 76.7781 369.566Z" fill="black"/>
<path d="M60.2469 280.018V281.033H54.5594C54.5594 280.783 54.6011 280.539 54.6844 280.299C54.8302 279.914 55.0594 279.533 55.3719 279.158C55.6948 278.783 56.1583 278.351 56.7625 277.861C57.7 277.091 58.3302 276.481 58.6531 276.033C58.9865 275.585 59.1531 275.164 59.1531 274.768C59.1531 274.351 59.0021 274.002 58.7 273.721C58.3979 273.429 58.0073 273.283 57.5281 273.283C57.0177 273.283 56.6115 273.434 56.3094 273.736C56.0073 274.039 55.8511 274.46 55.8406 275.002L54.7625 274.893C54.8354 274.08 55.1115 273.466 55.5906 273.049C56.0802 272.622 56.7365 272.408 57.5594 272.408C58.3823 272.408 59.0333 272.637 59.5125 273.096C59.9917 273.554 60.2313 274.122 60.2313 274.799C60.2313 275.143 60.1583 275.481 60.0125 275.815C59.8771 276.137 59.6427 276.486 59.3094 276.861C58.9865 277.226 58.45 277.726 57.7 278.361C57.0646 278.893 56.6531 279.257 56.4656 279.455C56.2886 279.643 56.1427 279.83 56.0281 280.018H60.2469ZM61.7 276.799C61.7 275.778 61.8042 274.96 62.0125 274.346C62.2208 273.721 62.5281 273.242 62.9344 272.908C63.3511 272.575 63.8719 272.408 64.4969 272.408C64.9552 272.408 65.3563 272.502 65.7 272.69C66.0542 272.877 66.3458 273.148 66.575 273.502C66.8042 273.846 66.9813 274.268 67.1063 274.768C67.2313 275.268 67.2938 275.945 67.2938 276.799C67.2938 277.809 67.1896 278.622 66.9813 279.236C66.7833 279.851 66.4761 280.33 66.0594 280.674C65.6531 281.007 65.1323 281.174 64.4969 281.174C63.674 281.174 63.0229 280.877 62.5438 280.283C61.9813 279.575 61.7 278.414 61.7 276.799ZM62.7781 276.799C62.7781 278.205 62.9448 279.143 63.2781 279.611C63.6115 280.08 64.0177 280.315 64.4969 280.315C64.9865 280.315 65.3927 280.08 65.7156 279.611C66.049 279.143 66.2156 278.205 66.2156 276.799C66.2156 275.382 66.049 274.445 65.7156 273.986C65.3927 273.518 64.9813 273.283 64.4813 273.283C64.0021 273.283 63.6167 273.486 63.325 273.893C62.9604 274.414 62.7781 275.382 62.7781 276.799ZM68.7 276.799C68.7 275.778 68.8042 274.96 69.0125 274.346C69.2208 273.721 69.5281 273.242 69.9344 272.908C70.3511 272.575 70.8719 272.408 71.4969 272.408C71.9552 272.408 72.3563 272.502 72.7 272.69C73.0542 272.877 73.3458 273.148 73.575 273.502C73.8042 273.846 73.9813 274.268 74.1063 274.768C74.2313 275.268 74.2938 275.945 74.2938 276.799C74.2938 277.809 74.1896 278.622 73.9813 279.236C73.7833 279.851 73.4761 280.33 73.0594 280.674C72.6531 281.007 72.1323 281.174 71.4969 281.174C70.674 281.174 70.0229 280.877 69.5438 280.283C68.9813 279.575 68.7 278.414 68.7 276.799ZM69.7781 276.799C69.7781 278.205 69.9448 279.143 70.2781 279.611C70.6115 280.08 71.0177 280.315 71.4969 280.315C71.9865 280.315 72.3927 280.08 72.7156 279.611C73.049 279.143 73.2156 278.205 73.2156 276.799C73.2156 275.382 73.049 274.445 72.7156 273.986C72.3927 273.518 71.9813 273.283 71.4813 273.283C71.0021 273.283 70.6167 273.486 70.325 273.893C69.9604 274.414 69.7781 275.382 69.7781 276.799ZM75.7 276.799C75.7 275.778 75.8042 274.96 76.0125 274.346C76.2208 273.721 76.5281 273.242 76.9344 272.908C77.3511 272.575 77.8719 272.408 78.4969 272.408C78.9552 272.408 79.3563 272.502 79.7 272.69C80.0542 272.877 80.3458 273.148 80.575 273.502C80.8042 273.846 80.9813 274.268 81.1063 274.768C81.2313 275.268 81.2938 275.945 81.2938 276.799C81.2938 277.809 81.1896 278.622 80.9813 279.236C80.7833 279.851 80.4761 280.33 80.0594 280.674C79.6531 281.007 79.1323 281.174 78.4969 281.174C77.674 281.174 77.0229 280.877 76.5438 280.283C75.9813 279.575 75.7 278.414 75.7 276.799ZM76.7781 276.799C76.7781 278.205 76.9448 279.143 77.2781 279.611C77.6115 280.08 78.0177 280.315 78.4969 280.315C78.9865 280.315 79.3927 280.08 79.7156 279.611C80.049 279.143 80.2156 278.205 80.2156 276.799C80.2156 275.382 80.049 274.445 79.7156 273.986C79.3927 273.518 78.9813 273.283 78.4813 273.283C78.0021 273.283 77.6167 273.486 77.325 273.893C76.9604 274.414 76.7781 275.382 76.7781 276.799Z" fill="black"/>
<path d="M58.075 188.267V186.204H54.3563V185.235L58.2781 179.673H59.1375V185.235H60.2938V186.204H59.1375V188.267H58.075ZM58.075 185.235V181.376L55.3875 185.235H58.075ZM61.7 184.032C61.7 183.011 61.8042 182.194 62.0125 181.579C62.2208 180.954 62.5281 180.475 62.9344 180.142C63.3511 179.808 63.8719 179.642 64.4969 179.642C64.9552 179.642 65.3563 179.735 65.7 179.923C66.0542 180.11 66.3458 180.381 66.575 180.735C66.8042 181.079 66.9813 181.501 67.1063 182.001C67.2313 182.501 67.2938 183.178 67.2938 184.032C67.2938 185.043 67.1896 185.855 66.9813 186.47C66.7833 187.084 66.4761 187.563 66.0594 187.907C65.6531 188.241 65.1323 188.407 64.4969 188.407C63.674 188.407 63.0229 188.11 62.5438 187.517C61.9813 186.808 61.7 185.647 61.7 184.032ZM62.7781 184.032C62.7781 185.438 62.9448 186.376 63.2781 186.845C63.6115 187.313 64.0177 187.548 64.4969 187.548C64.9865 187.548 65.3927 187.313 65.7156 186.845C66.049 186.376 66.2156 185.438 66.2156 184.032C66.2156 182.616 66.049 181.678 65.7156 181.22C65.3927 180.751 64.9813 180.517 64.4813 180.517C64.0021 180.517 63.6167 180.72 63.325 181.126C62.9604 181.647 62.7781 182.616 62.7781 184.032ZM68.7 184.032C68.7 183.011 68.8042 182.194 69.0125 181.579C69.2208 180.954 69.5281 180.475 69.9344 180.142C70.3511 179.808 70.8719 179.642 71.4969 179.642C71.9552 179.642 72.3563 179.735 72.7 179.923C73.0542 180.11 73.3458 180.381 73.575 180.735C73.8042 181.079 73.9813 181.501 74.1063 182.001C74.2313 182.501 74.2938 183.178 74.2938 184.032C74.2938 185.043 74.1896 185.855 73.9813 186.47C73.7833 187.084 73.4761 187.563 73.0594 187.907C72.6531 188.241 72.1323 188.407 71.4969 188.407C70.674 188.407 70.0229 188.11 69.5438 187.517C68.9813 186.808 68.7 185.647 68.7 184.032ZM69.7781 184.032C69.7781 185.438 69.9448 186.376 70.2781 186.845C70.6115 187.313 71.0177 187.548 71.4969 187.548C71.9865 187.548 72.3927 187.313 72.7156 186.845C73.049 186.376 73.2156 185.438 73.2156 184.032C73.2156 182.616 73.049 181.678 72.7156 181.22C72.3927 180.751 71.9813 180.517 71.4813 180.517C71.0021 180.517 70.6167 180.72 70.325 181.126C69.9604 181.647 69.7781 182.616 69.7781 184.032ZM75.7 184.032C75.7 183.011 75.8042 182.194 76.0125 181.579C76.2208 180.954 76.5281 180.475 76.9344 180.142C77.3511 179.808 77.8719 179.642 78.4969 179.642C78.9552 179.642 79.3563 179.735 79.7 179.923C80.0542 180.11 80.3458 180.381 80.575 180.735C80.8042 181.079 80.9813 181.501 81.1063 182.001C81.2313 182.501 81.2938 183.178 81.2938 184.032C81.2938 185.043 81.1896 185.855 80.9813 186.47C80.7833 187.084 80.4761 187.563 80.0594 187.907C79.6531 188.241 79.1323 188.407 78.4969 188.407C77.674 188.407 77.0229 188.11 76.5438 187.517C75.9813 186.808 75.7 185.647 75.7 184.032ZM76.7781 184.032C76.7781 185.438 76.9448 186.376 77.2781 186.845C77.6115 187.313 78.0177 187.548 78.4969 187.548C78.9865 187.548 79.3927 187.313 79.7156 186.845C80.049 186.376 80.2156 185.438 80.2156 184.032C80.2156 182.616 80.049 181.678 79.7156 181.22C79.3927 180.751 78.9813 180.517 78.4813 180.517C78.0021 180.517 77.6167 180.72 77.325 181.126C76.9604 181.647 76.7781 182.616 76.7781 184.032Z" fill="black"/>
<path d="M60.1688 89.0156L59.1219 89.0938C59.0281 88.6771 58.8979 88.375 58.7313 88.1875C58.4396 87.8854 58.0854 87.7344 57.6688 87.7344C57.3354 87.7344 57.0386 87.8281 56.7781 88.0156C56.4552 88.2656 56.1948 88.625 55.9969 89.0938C55.8094 89.5521 55.7104 90.2083 55.7 91.0625C55.95 90.6771 56.2573 90.3906 56.6219 90.2031C56.9969 90.0156 57.3875 89.9219 57.7938 89.9219C58.4917 89.9219 59.0854 90.1823 59.575 90.7031C60.075 91.224 60.325 91.8906 60.325 92.7031C60.325 93.2448 60.2052 93.75 59.9656 94.2188C59.7365 94.6771 59.4188 95.0312 59.0125 95.2812C58.6063 95.5208 58.1479 95.6406 57.6375 95.6406C56.7521 95.6406 56.0333 95.3177 55.4813 94.6719C54.9292 94.026 54.6531 92.9635 54.6531 91.4844C54.6531 89.8177 54.9604 88.6094 55.575 87.8594C56.1063 87.2031 56.825 86.875 57.7313 86.875C58.4083 86.875 58.9604 87.0677 59.3875 87.4531C59.825 87.8281 60.0854 88.349 60.1688 89.0156ZM55.8719 92.7188C55.8719 93.0833 55.9448 93.4323 56.0906 93.7656C56.2469 94.0885 56.4604 94.3385 56.7313 94.5156C57.0125 94.6927 57.3094 94.7812 57.6219 94.7812C58.0594 94.7812 58.4396 94.6042 58.7625 94.25C59.0854 93.8854 59.2469 93.3958 59.2469 92.7812C59.2469 92.1875 59.0854 91.7188 58.7625 91.375C58.45 91.0312 58.0542 90.8594 57.575 90.8594C57.0958 90.8594 56.6896 91.0312 56.3563 91.375C56.0333 91.7188 55.8719 92.1667 55.8719 92.7188ZM61.7 91.2656C61.7 90.2448 61.8042 89.4271 62.0125 88.8125C62.2208 88.1875 62.5281 87.7083 62.9344 87.375C63.3511 87.0417 63.8719 86.875 64.4969 86.875C64.9552 86.875 65.3563 86.9688 65.7 87.1562C66.0542 87.3438 66.3458 87.6146 66.575 87.9688C66.8042 88.3125 66.9813 88.7344 67.1063 89.2344C67.2313 89.7344 67.2938 90.4115 67.2938 91.2656C67.2938 92.276 67.1896 93.0885 66.9813 93.7031C66.7833 94.3177 66.4761 94.7969 66.0594 95.1406C65.6531 95.474 65.1323 95.6406 64.4969 95.6406C63.674 95.6406 63.0229 95.3438 62.5438 94.75C61.9813 94.0417 61.7 92.8802 61.7 91.2656ZM62.7781 91.2656C62.7781 92.6719 62.9448 93.6094 63.2781 94.0781C63.6115 94.5469 64.0177 94.7812 64.4969 94.7812C64.9865 94.7812 65.3927 94.5469 65.7156 94.0781C66.049 93.6094 66.2156 92.6719 66.2156 91.2656C66.2156 89.849 66.049 88.9115 65.7156 88.4531C65.3927 87.9844 64.9813 87.75 64.4813 87.75C64.0021 87.75 63.6167 87.9531 63.325 88.3594C62.9604 88.8802 62.7781 89.849 62.7781 91.2656ZM68.7 91.2656C68.7 90.2448 68.8042 89.4271 69.0125 88.8125C69.2208 88.1875 69.5281 87.7083 69.9344 87.375C70.3511 87.0417 70.8719 86.875 71.4969 86.875C71.9552 86.875 72.3563 86.9688 72.7 87.1562C73.0542 87.3438 73.3458 87.6146 73.575 87.9688C73.8042 88.3125 73.9813 88.7344 74.1063 89.2344C74.2313 89.7344 74.2938 90.4115 74.2938 91.2656C74.2938 92.276 74.1896 93.0885 73.9813 93.7031C73.7833 94.3177 73.4761 94.7969 73.0594 95.1406C72.6531 95.474 72.1323 95.6406 71.4969 95.6406C70.674 95.6406 70.0229 95.3438 69.5438 94.75C68.9813 94.0417 68.7 92.8802 68.7 91.2656ZM69.7781 91.2656C69.7781 92.6719 69.9448 93.6094 70.2781 94.0781C70.6115 94.5469 71.0177 94.7812 71.4969 94.7812C71.9865 94.7812 72.3927 94.5469 72.7156 94.0781C73.049 93.6094 73.2156 92.6719 73.2156 91.2656C73.2156 89.849 73.049 88.9115 72.7156 88.4531C72.3927 87.9844 71.9813 87.75 71.4813 87.75C71.0021 87.75 70.6167 87.9531 70.325 88.3594C69.9604 88.8802 69.7781 89.849 69.7781 91.2656ZM75.7 91.2656C75.7 90.2448 75.8042 89.4271 76.0125 88.8125C76.2208 88.1875 76.5281 87.7083 76.9344 87.375C77.3511 87.0417 77.8719 86.875 78.4969 86.875C78.9552 86.875 79.3563 86.9688 79.7 87.1562C80.0542 87.3438 80.3458 87.6146 80.575 87.9688C80.8042 88.3125 80.9813 88.7344 81.1063 89.2344C81.2313 89.7344 81.2938 90.4115 81.2938 91.2656C81.2938 92.276 81.1896 93.0885 80.9813 93.7031C80.7833 94.3177 80.4761 94.7969 80.0594 95.1406C79.6531 95.474 79.1323 95.6406 78.4969 95.6406C77.674 95.6406 77.0229 95.3438 76.5438 94.75C75.9813 94.0417 75.7 92.8802 75.7 91.2656ZM76.7781 91.2656C76.7781 92.6719 76.9448 93.6094 77.2781 94.0781C77.6115 94.5469 78.0177 94.7812 78.4969 94.7812C78.9865 94.7812 79.3927 94.5469 79.7156 94.0781C80.049 93.6094 80.2156 92.6719 80.2156 91.2656C80.2156 89.849 80.049 88.9115 79.7156 88.4531C79.3927 87.9844 78.9813 87.75 78.4813 87.75C78.0021 87.75 77.6167 87.9531 77.325 88.3594C76.9604 88.8802 76.7781 89.849 76.7781 91.2656Z" fill="black"/>
<path d="M168.052 386.8V384.738H164.333V383.769L168.255 378.206H169.114V383.769H170.271V384.738H169.114V386.8H168.052ZM168.052 383.769V379.909L165.364 383.769H168.052ZM175.052 386.8V384.738H171.333V383.769L175.255 378.206H176.114V383.769H177.271V384.738H176.114V386.8H175.052ZM175.052 383.769V379.909L172.364 383.769H175.052ZM178.677 382.566C178.677 381.545 178.781 380.727 178.989 380.113C179.198 379.488 179.505 379.008 179.911 378.675C180.328 378.342 180.849 378.175 181.474 378.175C181.932 378.175 182.333 378.269 182.677 378.456C183.031 378.644 183.323 378.915 183.552 379.269C183.781 379.613 183.958 380.034 184.083 380.534C184.208 381.034 184.271 381.712 184.271 382.566C184.271 383.576 184.167 384.389 183.958 385.003C183.76 385.618 183.453 386.097 183.036 386.441C182.63 386.774 182.109 386.941 181.474 386.941C180.651 386.941 180 386.644 179.521 386.05C178.958 385.342 178.677 384.18 178.677 382.566ZM179.755 382.566C179.755 383.972 179.922 384.909 180.255 385.378C180.588 385.847 180.995 386.081 181.474 386.081C181.963 386.081 182.37 385.847 182.693 385.378C183.026 384.909 183.193 383.972 183.193 382.566C183.193 381.149 183.026 380.212 182.693 379.753C182.37 379.284 181.958 379.05 181.458 379.05C180.979 379.05 180.594 379.253 180.302 379.659C179.937 380.18 179.755 381.149 179.755 382.566ZM185.677 382.566C185.677 381.545 185.781 380.727 185.989 380.113C186.198 379.488 186.505 379.008 186.911 378.675C187.328 378.342 187.849 378.175 188.474 378.175C188.932 378.175 189.333 378.269 189.677 378.456C190.031 378.644 190.323 378.915 190.552 379.269C190.781 379.613 190.958 380.034 191.083 380.534C191.208 381.034 191.271 381.712 191.271 382.566C191.271 383.576 191.167 384.389 190.958 385.003C190.76 385.618 190.453 386.097 190.036 386.441C189.63 386.774 189.109 386.941 188.474 386.941C187.651 386.941 187 386.644 186.521 386.05C185.958 385.342 185.677 384.18 185.677 382.566ZM186.755 382.566C186.755 383.972 186.922 384.909 187.255 385.378C187.588 385.847 187.995 386.081 188.474 386.081C188.963 386.081 189.37 385.847 189.693 385.378C190.026 384.909 190.193 383.972 190.193 382.566C190.193 381.149 190.026 380.212 189.693 379.753C189.37 379.284 188.958 379.05 188.458 379.05C187.979 379.05 187.594 379.253 187.302 379.659C186.937 380.18 186.755 381.149 186.755 382.566ZM192.677 382.566C192.677 381.545 192.781 380.727 192.989 380.113C193.198 379.488 193.505 379.008 193.911 378.675C194.328 378.342 194.849 378.175 195.474 378.175C195.932 378.175 196.333 378.269 196.677 378.456C197.031 378.644 197.323 378.915 197.552 379.269C197.781 379.613 197.958 380.034 198.083 380.534C198.208 381.034 198.271 381.712 198.271 382.566C198.271 383.576 198.167 384.389 197.958 385.003C197.76 385.618 197.453 386.097 197.036 386.441C196.63 386.774 196.109 386.941 195.474 386.941C194.651 386.941 194 386.644 193.521 386.05C192.958 385.342 192.677 384.18 192.677 382.566ZM193.755 382.566C193.755 383.972 193.922 384.909 194.255 385.378C194.588 385.847 194.995 386.081 195.474 386.081C195.963 386.081 196.37 385.847 196.693 385.378C197.026 384.909 197.193 383.972 197.193 382.566C197.193 381.149 197.026 380.212 196.693 379.753C196.37 379.284 195.958 379.05 195.458 379.05C194.979 379.05 194.594 379.253 194.302 379.659C193.937 380.18 193.755 381.149 193.755 382.566Z" fill="black"/>
<path d="M289.451 386.8V384.738H285.732V383.769L289.654 378.206H290.513V383.769H291.669V384.738H290.513V386.8H289.451ZM289.451 383.769V379.909L286.763 383.769H289.451ZM296.451 386.8V384.738H292.732V383.769L296.654 378.206H297.513V383.769H298.669V384.738H297.513V386.8H296.451ZM296.451 383.769V379.909L293.763 383.769H296.451ZM305.622 385.784V386.8H299.935C299.935 386.55 299.977 386.305 300.06 386.066C300.206 385.68 300.435 385.3 300.747 384.925C301.07 384.55 301.534 384.118 302.138 383.628C303.076 382.857 303.706 382.248 304.029 381.8C304.362 381.352 304.529 380.93 304.529 380.534C304.529 380.118 304.378 379.769 304.076 379.488C303.773 379.196 303.383 379.05 302.904 379.05C302.393 379.05 301.987 379.201 301.685 379.503C301.383 379.805 301.227 380.227 301.216 380.769L300.138 380.659C300.211 379.847 300.487 379.232 300.966 378.816C301.456 378.389 302.112 378.175 302.935 378.175C303.758 378.175 304.409 378.404 304.888 378.863C305.367 379.321 305.607 379.889 305.607 380.566C305.607 380.909 305.534 381.248 305.388 381.581C305.253 381.904 305.018 382.253 304.685 382.628C304.362 382.993 303.826 383.493 303.076 384.128C302.44 384.659 302.029 385.024 301.841 385.222C301.664 385.409 301.518 385.597 301.404 385.784H305.622ZM307.076 382.566C307.076 381.545 307.18 380.727 307.388 380.113C307.596 379.488 307.904 379.008 308.31 378.675C308.727 378.342 309.247 378.175 309.872 378.175C310.331 378.175 310.732 378.269 311.076 378.456C311.43 378.644 311.721 378.915 311.951 379.269C312.18 379.613 312.357 380.034 312.482 380.534C312.607 381.034 312.669 381.712 312.669 382.566C312.669 383.576 312.565 384.389 312.357 385.003C312.159 385.618 311.852 386.097 311.435 386.441C311.029 386.774 310.508 386.941 309.872 386.941C309.049 386.941 308.398 386.644 307.919 386.05C307.357 385.342 307.076 384.18 307.076 382.566ZM308.154 382.566C308.154 383.972 308.32 384.909 308.654 385.378C308.987 385.847 309.393 386.081 309.872 386.081C310.362 386.081 310.768 385.847 311.091 385.378C311.424 384.909 311.591 383.972 311.591 382.566C311.591 381.149 311.424 380.212 311.091 379.753C310.768 379.284 310.357 379.05 309.857 379.05C309.378 379.05 308.992 379.253 308.701 379.659C308.336 380.18 308.154 381.149 308.154 382.566ZM314.076 382.566C314.076 381.545 314.18 380.727 314.388 380.113C314.596 379.488 314.904 379.008 315.31 378.675C315.727 378.342 316.247 378.175 316.872 378.175C317.331 378.175 317.732 378.269 318.076 378.456C318.43 378.644 318.721 378.915 318.951 379.269C319.18 379.613 319.357 380.034 319.482 380.534C319.607 381.034 319.669 381.712 319.669 382.566C319.669 383.576 319.565 384.389 319.357 385.003C319.159 385.618 318.852 386.097 318.435 386.441C318.029 386.774 317.508 386.941 316.872 386.941C316.049 386.941 315.398 386.644 314.919 386.05C314.357 385.342 314.076 384.18 314.076 382.566ZM315.154 382.566C315.154 383.972 315.32 384.909 315.654 385.378C315.987 385.847 316.393 386.081 316.872 386.081C317.362 386.081 317.768 385.847 318.091 385.378C318.424 384.909 318.591 383.972 318.591 382.566C318.591 381.149 318.424 380.212 318.091 379.753C317.768 379.284 317.357 379.05 316.857 379.05C316.378 379.05 315.992 379.253 315.701 379.659C315.336 380.18 315.154 381.149 315.154 382.566Z" fill="black"/>
<path d="M410.849 386.8V384.738H407.13V383.769L411.052 378.206H411.912V383.769H413.068V384.738H411.912V386.8H410.849ZM410.849 383.769V379.909L408.162 383.769H410.849ZM417.849 386.8V384.738H414.13V383.769L418.052 378.206H418.912V383.769H420.068V384.738H418.912V386.8H417.849ZM417.849 383.769V379.909L415.162 383.769H417.849ZM424.849 386.8V384.738H421.13V383.769L425.052 378.206H425.912V383.769H427.068V384.738H425.912V386.8H424.849ZM424.849 383.769V379.909L422.162 383.769H424.849ZM428.474 382.566C428.474 381.545 428.578 380.727 428.787 380.113C428.995 379.488 429.302 379.008 429.708 378.675C430.125 378.342 430.646 378.175 431.271 378.175C431.729 378.175 432.13 378.269 432.474 378.456C432.828 378.644 433.12 378.915 433.349 379.269C433.578 379.613 433.755 380.034 433.88 380.534C434.005 381.034 434.068 381.712 434.068 382.566C434.068 383.576 433.964 384.389 433.755 385.003C433.557 385.618 433.25 386.097 432.833 386.441C432.427 386.774 431.906 386.941 431.271 386.941C430.448 386.941 429.797 386.644 429.318 386.05C428.755 385.342 428.474 384.18 428.474 382.566ZM429.552 382.566C429.552 383.972 429.719 384.909 430.052 385.378C430.386 385.847 430.792 386.081 431.271 386.081C431.761 386.081 432.167 385.847 432.49 385.378C432.823 384.909 432.99 383.972 432.99 382.566C432.99 381.149 432.823 380.212 432.49 379.753C432.167 379.284 431.755 379.05 431.255 379.05C430.776 379.05 430.391 379.253 430.099 379.659C429.735 380.18 429.552 381.149 429.552 382.566ZM435.474 382.566C435.474 381.545 435.578 380.727 435.787 380.113C435.995 379.488 436.302 379.008 436.708 378.675C437.125 378.342 437.646 378.175 438.271 378.175C438.729 378.175 439.13 378.269 439.474 378.456C439.828 378.644 440.12 378.915 440.349 379.269C440.578 379.613 440.755 380.034 440.88 380.534C441.005 381.034 441.068 381.712 441.068 382.566C441.068 383.576 440.964 384.389 440.755 385.003C440.557 385.618 440.25 386.097 439.833 386.441C439.427 386.774 438.906 386.941 438.271 386.941C437.448 386.941 436.797 386.644 436.318 386.05C435.755 385.342 435.474 384.18 435.474 382.566ZM436.552 382.566C436.552 383.972 436.719 384.909 437.052 385.378C437.386 385.847 437.792 386.081 438.271 386.081C438.761 386.081 439.167 385.847 439.49 385.378C439.823 384.909 439.99 383.972 439.99 382.566C439.99 381.149 439.823 380.212 439.49 379.753C439.167 379.284 438.755 379.05 438.255 379.05C437.776 379.05 437.391 379.253 437.099 379.659C436.735 380.18 436.552 381.149 436.552 382.566Z" fill="black"/>
<path d="M532.248 386.8V384.738H528.529V383.769L532.451 378.206H533.31V383.769H534.466V384.738H533.31V386.8H532.248ZM532.248 383.769V379.909L529.56 383.769H532.248ZM539.248 386.8V384.738H535.529V383.769L539.451 378.206H540.31V383.769H541.466V384.738H540.31V386.8H539.248ZM539.248 383.769V379.909L536.56 383.769H539.248ZM548.341 380.316L547.295 380.394C547.201 379.977 547.071 379.675 546.904 379.488C546.612 379.185 546.258 379.034 545.841 379.034C545.508 379.034 545.211 379.128 544.951 379.316C544.628 379.566 544.368 379.925 544.17 380.394C543.982 380.852 543.883 381.508 543.873 382.363C544.123 381.977 544.43 381.691 544.795 381.503C545.17 381.316 545.56 381.222 545.966 381.222C546.664 381.222 547.258 381.482 547.748 382.003C548.248 382.524 548.498 383.191 548.498 384.003C548.498 384.545 548.378 385.05 548.138 385.519C547.909 385.977 547.591 386.331 547.185 386.581C546.779 386.821 546.321 386.941 545.81 386.941C544.925 386.941 544.206 386.618 543.654 385.972C543.102 385.326 542.826 384.264 542.826 382.784C542.826 381.118 543.133 379.909 543.748 379.159C544.279 378.503 544.998 378.175 545.904 378.175C546.581 378.175 547.133 378.368 547.56 378.753C547.998 379.128 548.258 379.649 548.341 380.316ZM544.045 384.019C544.045 384.383 544.118 384.732 544.263 385.066C544.42 385.389 544.633 385.639 544.904 385.816C545.185 385.993 545.482 386.081 545.795 386.081C546.232 386.081 546.612 385.904 546.935 385.55C547.258 385.185 547.42 384.696 547.42 384.081C547.42 383.488 547.258 383.019 546.935 382.675C546.623 382.331 546.227 382.159 545.748 382.159C545.269 382.159 544.862 382.331 544.529 382.675C544.206 383.019 544.045 383.467 544.045 384.019ZM549.873 382.566C549.873 381.545 549.977 380.727 550.185 380.113C550.394 379.488 550.701 379.008 551.107 378.675C551.524 378.342 552.045 378.175 552.67 378.175C553.128 378.175 553.529 378.269 553.873 378.456C554.227 378.644 554.519 378.915 554.748 379.269C554.977 379.613 555.154 380.034 555.279 380.534C555.404 381.034 555.466 381.712 555.466 382.566C555.466 383.576 555.362 384.389 555.154 385.003C554.956 385.618 554.649 386.097 554.232 386.441C553.826 386.774 553.305 386.941 552.67 386.941C551.847 386.941 551.196 386.644 550.716 386.05C550.154 385.342 549.873 384.18 549.873 382.566ZM550.951 382.566C550.951 383.972 551.118 384.909 551.451 385.378C551.784 385.847 552.19 386.081 552.67 386.081C553.159 386.081 553.565 385.847 553.888 385.378C554.222 384.909 554.388 383.972 554.388 382.566C554.388 381.149 554.222 380.212 553.888 379.753C553.565 379.284 553.154 379.05 552.654 379.05C552.175 379.05 551.789 379.253 551.498 379.659C551.133 380.18 550.951 381.149 550.951 382.566ZM556.873 382.566C556.873 381.545 556.977 380.727 557.185 380.113C557.394 379.488 557.701 379.008 558.107 378.675C558.524 378.342 559.045 378.175 559.67 378.175C560.128 378.175 560.529 378.269 560.873 378.456C561.227 378.644 561.519 378.915 561.748 379.269C561.977 379.613 562.154 380.034 562.279 380.534C562.404 381.034 562.466 381.712 562.466 382.566C562.466 383.576 562.362 384.389 562.154 385.003C561.956 385.618 561.649 386.097 561.232 386.441C560.826 386.774 560.305 386.941 559.67 386.941C558.847 386.941 558.196 386.644 557.716 386.05C557.154 385.342 556.873 384.18 556.873 382.566ZM557.951 382.566C557.951 383.972 558.118 384.909 558.451 385.378C558.784 385.847 559.19 386.081 559.67 386.081C560.159 386.081 560.565 385.847 560.888 385.378C561.222 384.909 561.388 383.972 561.388 382.566C561.388 381.149 561.222 380.212 560.888 379.753C560.565 379.284 560.154 379.05 559.654 379.05C559.175 379.05 558.789 379.253 558.498 379.659C558.133 380.18 557.951 381.149 557.951 382.566Z" fill="black"/>
<path d="M653.646 386.8V384.738H649.928V383.769L653.849 378.206H654.709V383.769H655.865V384.738H654.709V386.8H653.646ZM653.646 383.769V379.909L650.959 383.769H653.646ZM660.646 386.8V384.738H656.928V383.769L660.849 378.206H661.709V383.769H662.865V384.738H661.709V386.8H660.646ZM660.646 383.769V379.909L657.959 383.769H660.646ZM665.896 382.144C665.459 381.977 665.131 381.748 664.912 381.456C664.704 381.154 664.599 380.8 664.599 380.394C664.599 379.769 664.823 379.243 665.271 378.816C665.73 378.389 666.329 378.175 667.068 378.175C667.818 378.175 668.422 378.394 668.881 378.831C669.339 379.269 669.568 379.8 669.568 380.425C669.568 380.821 669.464 381.165 669.256 381.456C669.047 381.748 668.73 381.977 668.303 382.144C668.834 382.31 669.235 382.587 669.506 382.972C669.776 383.357 669.912 383.816 669.912 384.347C669.912 385.076 669.651 385.691 669.131 386.191C668.62 386.691 667.938 386.941 667.084 386.941C666.24 386.941 665.558 386.691 665.037 386.191C664.516 385.691 664.256 385.066 664.256 384.316C664.256 383.753 664.396 383.284 664.678 382.909C664.969 382.534 665.375 382.279 665.896 382.144ZM665.678 380.347C665.678 380.753 665.808 381.087 666.068 381.347C666.339 381.607 666.683 381.738 667.099 381.738C667.506 381.738 667.839 381.613 668.099 381.363C668.36 381.102 668.49 380.784 668.49 380.409C668.49 380.024 668.355 379.701 668.084 379.441C667.813 379.17 667.48 379.034 667.084 379.034C666.678 379.034 666.339 379.165 666.068 379.425C665.808 379.685 665.678 379.993 665.678 380.347ZM665.349 384.316C665.349 384.618 665.417 384.909 665.553 385.191C665.698 385.472 665.912 385.691 666.193 385.847C666.474 386.003 666.777 386.081 667.099 386.081C667.599 386.081 668.011 385.92 668.334 385.597C668.667 385.274 668.834 384.863 668.834 384.363C668.834 383.852 668.667 383.43 668.334 383.097C668 382.764 667.579 382.597 667.068 382.597C666.568 382.597 666.157 382.764 665.834 383.097C665.511 383.42 665.349 383.826 665.349 384.316ZM671.271 382.566C671.271 381.545 671.375 380.727 671.584 380.113C671.792 379.488 672.099 379.008 672.506 378.675C672.922 378.342 673.443 378.175 674.068 378.175C674.527 378.175 674.928 378.269 675.271 378.456C675.625 378.644 675.917 378.915 676.146 379.269C676.375 379.613 676.553 380.034 676.678 380.534C676.803 381.034 676.865 381.712 676.865 382.566C676.865 383.576 676.761 384.389 676.553 385.003C676.355 385.618 676.047 386.097 675.631 386.441C675.224 386.774 674.704 386.941 674.068 386.941C673.245 386.941 672.594 386.644 672.115 386.05C671.553 385.342 671.271 384.18 671.271 382.566ZM672.349 382.566C672.349 383.972 672.516 384.909 672.849 385.378C673.183 385.847 673.589 386.081 674.068 386.081C674.558 386.081 674.964 385.847 675.287 385.378C675.62 384.909 675.787 383.972 675.787 382.566C675.787 381.149 675.62 380.212 675.287 379.753C674.964 379.284 674.553 379.05 674.053 379.05C673.573 379.05 673.188 379.253 672.896 379.659C672.532 380.18 672.349 381.149 672.349 382.566ZM678.271 382.566C678.271 381.545 678.375 380.727 678.584 380.113C678.792 379.488 679.099 379.008 679.506 378.675C679.922 378.342 680.443 378.175 681.068 378.175C681.527 378.175 681.928 378.269 682.271 378.456C682.625 378.644 682.917 378.915 683.146 379.269C683.375 379.613 683.553 380.034 683.678 380.534C683.803 381.034 683.865 381.712 683.865 382.566C683.865 383.576 683.761 384.389 683.553 385.003C683.355 385.618 683.047 386.097 682.631 386.441C682.224 386.774 681.704 386.941 681.068 386.941C680.245 386.941 679.594 386.644 679.115 386.05C678.553 385.342 678.271 384.18 678.271 382.566ZM679.349 382.566C679.349 383.972 679.516 384.909 679.849 385.378C680.183 385.847 680.589 386.081 681.068 386.081C681.558 386.081 681.964 385.847 682.287 385.378C682.62 384.909 682.787 383.972 682.787 382.566C682.787 381.149 682.62 380.212 682.287 379.753C681.964 379.284 681.553 379.05 681.053 379.05C680.573 379.05 680.188 379.253 679.896 379.659C679.532 380.18 679.349 381.149 679.349 382.566Z" fill="black"/>
<path d="M576.847 65.5125V66.7H570.222C570.211 66.4083 570.258 66.1218 570.363 65.8406C570.54 65.3927 570.81 64.95 571.175 64.5125C571.55 64.0749 572.086 63.5697 572.784 62.9968C573.878 62.101 574.613 61.3927 574.988 60.8718C575.373 60.351 575.566 59.8562 575.566 59.3875C575.566 58.8979 575.389 58.4864 575.034 58.1531C574.691 57.8197 574.243 57.6531 573.691 57.6531C573.097 57.6531 572.618 57.8302 572.253 58.1843C571.899 58.5385 571.722 59.0333 571.722 59.6687L570.456 59.5281C570.54 58.5906 570.862 57.877 571.425 57.3875C571.998 56.8875 572.758 56.6375 573.706 56.6375C574.675 56.6375 575.435 56.9031 575.988 57.4343C576.55 57.9656 576.831 58.627 576.831 59.4187C576.831 59.825 576.748 60.2208 576.581 60.6062C576.425 60.9916 576.154 61.3979 575.769 61.825C575.394 62.252 574.764 62.8406 573.878 63.5906C573.139 64.2052 572.665 64.627 572.456 64.8562C572.248 65.0749 572.076 65.2937 571.941 65.5125H576.847ZM578.378 61.7625C578.378 60.575 578.498 59.6218 578.738 58.9031C578.988 58.1739 579.352 57.6166 579.831 57.2312C580.31 56.8354 580.915 56.6375 581.644 56.6375C582.185 56.6375 582.659 56.7468 583.066 56.9656C583.472 57.1843 583.805 57.4968 584.066 57.9031C584.336 58.3093 584.545 58.8041 584.691 59.3875C584.836 59.9708 584.909 60.7625 584.909 61.7625C584.909 62.9395 584.79 63.8874 584.55 64.6062C584.31 65.3249 583.951 65.8822 583.472 66.2781C582.993 66.6739 582.383 66.8718 581.644 66.8718C580.685 66.8718 579.93 66.5229 579.378 65.825C578.711 64.9916 578.378 63.6375 578.378 61.7625ZM579.644 61.7625C579.644 63.4083 579.836 64.502 580.222 65.0437C580.607 65.5854 581.081 65.8562 581.644 65.8562C582.217 65.8562 582.696 65.5854 583.081 65.0437C583.467 64.4916 583.659 63.3979 583.659 61.7625C583.659 60.1062 583.467 59.0072 583.081 58.4656C582.696 57.9239 582.211 57.6531 581.628 57.6531C581.066 57.6531 580.618 57.8927 580.284 58.3718C579.857 58.9864 579.644 60.1166 579.644 61.7625ZM592.847 65.5125V66.7H586.222C586.211 66.4083 586.258 66.1218 586.363 65.8406C586.54 65.3927 586.81 64.95 587.175 64.5125C587.55 64.0749 588.086 63.5697 588.784 62.9968C589.878 62.101 590.613 61.3927 590.988 60.8718C591.373 60.351 591.566 59.8562 591.566 59.3875C591.566 58.8979 591.389 58.4864 591.034 58.1531C590.691 57.8197 590.243 57.6531 589.691 57.6531C589.097 57.6531 588.618 57.8302 588.253 58.1843C587.899 58.5385 587.722 59.0333 587.722 59.6687L586.456 59.5281C586.54 58.5906 586.862 57.877 587.425 57.3875C587.998 56.8875 588.758 56.6375 589.706 56.6375C590.675 56.6375 591.435 56.9031 591.988 57.4343C592.55 57.9656 592.831 58.627 592.831 59.4187C592.831 59.825 592.748 60.2208 592.581 60.6062C592.425 60.9916 592.154 61.3979 591.769 61.825C591.394 62.252 590.764 62.8406 589.878 63.5906C589.139 64.2052 588.665 64.627 588.456 64.8562C588.248 65.0749 588.076 65.2937 587.941 65.5125H592.847ZM600.847 65.5125V66.7H594.222C594.211 66.4083 594.258 66.1218 594.363 65.8406C594.54 65.3927 594.81 64.95 595.175 64.5125C595.55 64.0749 596.086 63.5697 596.784 62.9968C597.878 62.101 598.613 61.3927 598.988 60.8718C599.373 60.351 599.566 59.8562 599.566 59.3875C599.566 58.8979 599.389 58.4864 599.034 58.1531C598.691 57.8197 598.243 57.6531 597.691 57.6531C597.097 57.6531 596.618 57.8302 596.253 58.1843C595.899 58.5385 595.722 59.0333 595.722 59.6687L594.456 59.5281C594.54 58.5906 594.862 57.877 595.425 57.3875C595.998 56.8875 596.758 56.6375 597.706 56.6375C598.675 56.6375 599.435 56.9031 599.988 57.4343C600.55 57.9656 600.831 58.627 600.831 59.4187C600.831 59.825 600.748 60.2208 600.581 60.6062C600.425 60.9916 600.154 61.3979 599.769 61.825C599.394 62.252 598.764 62.8406 597.878 63.5906C597.139 64.2052 596.665 64.627 596.456 64.8562C596.248 65.0749 596.076 65.2937 595.941 65.5125H600.847Z" fill="#999999"/>
<path d="M606.175 58.1687C605.487 59.3666 604.633 60.3666 603.612 61.1687L602.847 60.1843C604.336 59.0906 605.357 57.5072 605.909 55.4343L607.159 55.7625C607.305 55.9083 607.253 55.9968 607.003 56.0281L606.566 57.1218H614.269V58.1687H610.284V60.0281H613.566V61.0593H610.284V63.5281H614.878V64.5593H610.284V67.8562H609.191V64.5593H602.894V63.5281H605.362V60.0281H609.191V58.1687H606.175ZM606.456 63.5281H609.191V61.0593H606.456V63.5281Z" fill="#999999"/>
<path d="M616.566 64.3875L617.753 64.2781C617.847 64.8302 618.034 65.2312 618.316 65.4812C618.607 65.7312 618.972 65.8562 619.409 65.8562C619.784 65.8562 620.112 65.7729 620.394 65.6062C620.685 65.4291 620.92 65.1947 621.097 64.9031C621.284 64.6114 621.441 64.2208 621.566 63.7312C621.691 63.2416 621.753 62.7416 621.753 62.2312C621.753 62.1791 621.748 62.0958 621.737 61.9812C621.498 62.377 621.165 62.7 620.737 62.95C620.31 63.1895 619.847 63.3093 619.347 63.3093C618.514 63.3093 617.81 63.0072 617.237 62.4031C616.665 61.7989 616.378 61.0072 616.378 60.0281C616.378 59.0072 616.675 58.1895 617.269 57.575C617.873 56.95 618.628 56.6375 619.534 56.6375C620.18 56.6375 620.774 56.8145 621.316 57.1687C621.857 57.5125 622.269 58.0125 622.55 58.6687C622.831 59.3145 622.972 60.252 622.972 61.4812C622.972 62.7625 622.831 63.7833 622.55 64.5437C622.279 65.3041 621.868 65.8822 621.316 66.2781C620.764 66.6739 620.118 66.8718 619.378 66.8718C618.597 66.8718 617.956 66.6531 617.456 66.2156C616.967 65.7781 616.67 65.1687 616.566 64.3875ZM621.597 59.9656C621.597 59.2572 621.409 58.6947 621.034 58.2781C620.659 57.8614 620.211 57.6531 619.691 57.6531C619.139 57.6531 618.659 57.877 618.253 58.325C617.847 58.7729 617.644 59.351 617.644 60.0593C617.644 60.6947 617.836 61.2156 618.222 61.6218C618.607 62.0177 619.081 62.2156 619.644 62.2156C620.217 62.2156 620.685 62.0177 621.05 61.6218C621.415 61.2156 621.597 60.6635 621.597 59.9656Z" fill="#999999"/>
<path d="M633.706 63.5281H628.503C628.503 65.0906 627.701 66.5697 626.097 67.9656L625.175 66.9187C626.665 65.9708 627.409 64.5489 627.409 62.6531V55.9812H634.8V66.7625C634.8 67.3458 634.487 67.6375 633.862 67.6375H632.55L632.331 66.4187H633.487C633.633 66.4187 633.706 66.3458 633.706 66.2V63.5281ZM628.503 62.325H633.706V60.3562H628.503V62.325ZM628.503 59.1531H633.706V57.1843H628.503V59.1531Z" fill="#999999"/>
<path d="M644.847 65.5125V66.7H638.222C638.211 66.4083 638.258 66.1218 638.363 65.8406C638.54 65.3927 638.81 64.95 639.175 64.5125C639.55 64.0749 640.086 63.5697 640.784 62.9968C641.878 62.101 642.613 61.3927 642.988 60.8718C643.373 60.351 643.566 59.8562 643.566 59.3875C643.566 58.8979 643.389 58.4864 643.034 58.1531C642.691 57.8197 642.243 57.6531 641.691 57.6531C641.097 57.6531 640.618 57.8302 640.253 58.1843C639.899 58.5385 639.722 59.0333 639.722 59.6687L638.456 59.5281C638.54 58.5906 638.862 57.877 639.425 57.3875C639.998 56.8875 640.758 56.6375 641.706 56.6375C642.675 56.6375 643.435 56.9031 643.988 57.4343C644.55 57.9656 644.831 58.627 644.831 59.4187C644.831 59.825 644.748 60.2208 644.581 60.6062C644.425 60.9916 644.154 61.3979 643.769 61.825C643.394 62.252 642.764 62.8406 641.878 63.5906C641.139 64.2052 640.665 64.627 640.456 64.8562C640.248 65.0749 640.076 65.2937 639.941 65.5125H644.847ZM646.566 64.3875L647.753 64.2781C647.847 64.8302 648.034 65.2312 648.316 65.4812C648.607 65.7312 648.972 65.8562 649.409 65.8562C649.784 65.8562 650.113 65.7729 650.394 65.6062C650.685 65.4291 650.92 65.1947 651.097 64.9031C651.284 64.6114 651.441 64.2208 651.566 63.7312C651.691 63.2416 651.753 62.7416 651.753 62.2312C651.753 62.1791 651.748 62.0958 651.738 61.9812C651.498 62.377 651.165 62.7 650.738 62.95C650.31 63.1895 649.847 63.3093 649.347 63.3093C648.514 63.3093 647.81 63.0072 647.238 62.4031C646.665 61.7989 646.378 61.0072 646.378 60.0281C646.378 59.0072 646.675 58.1895 647.269 57.575C647.873 56.95 648.628 56.6375 649.534 56.6375C650.18 56.6375 650.774 56.8145 651.316 57.1687C651.857 57.5125 652.269 58.0125 652.55 58.6687C652.831 59.3145 652.972 60.252 652.972 61.4812C652.972 62.7625 652.831 63.7833 652.55 64.5437C652.279 65.3041 651.868 65.8822 651.316 66.2781C650.764 66.6739 650.118 66.8718 649.378 66.8718C648.597 66.8718 647.956 66.6531 647.456 66.2156C646.967 65.7781 646.67 65.1687 646.566 64.3875ZM651.597 59.9656C651.597 59.2572 651.409 58.6947 651.034 58.2781C650.659 57.8614 650.211 57.6531 649.691 57.6531C649.139 57.6531 648.659 57.877 648.253 58.325C647.847 58.7729 647.644 59.351 647.644 60.0593C647.644 60.6947 647.836 61.2156 648.222 61.6218C648.607 62.0177 649.081 62.2156 649.644 62.2156C650.217 62.2156 650.685 62.0177 651.05 61.6218C651.415 61.2156 651.597 60.6635 651.597 59.9656Z" fill="#999999"/>
<path d="M657.8 67.2H656.534V56.6375H665.128V66.9812H663.862V66.2H657.8V67.2ZM663.862 60.7937V57.6687H657.8V60.7937H663.862ZM663.862 65.1687V61.825H657.8V65.1687H663.862ZM678.081 59.8562H680.659V60.7312H678.362V61.9968H680.222V62.8718H678.362V64.1843H680.222V65.0593H678.362V66.4187H681.097V67.3093H675.566V67.8562H674.644V61.7781C674.352 62.1739 673.987 62.5385 673.55 62.8718L673.159 61.825C674.545 60.5854 675.441 59.2937 675.847 57.95H674.581V59.2H673.659V57.075H676.066C676.211 56.4916 676.336 55.8718 676.441 55.2156L677.534 55.4812C677.649 55.5958 677.612 55.7052 677.425 55.8093C677.321 56.2468 677.211 56.6687 677.097 57.075H680.987V58.9812H680.05V57.95H676.878C676.659 58.7104 676.368 59.3458 676.003 59.8562H677.159L677.862 58.2156L678.909 58.4343C679.086 58.5072 679.05 58.601 678.8 58.7156L678.081 59.8562ZM668.847 57.3406V56.3093H673.487V57.3406H671.581C671.508 58.476 671.269 59.5177 670.862 60.4656H673.003V66.9812H672.066V66.0906H670.644V67.5281H669.722V62.5906C669.503 62.9552 669.264 63.2833 669.003 63.575L668.3 62.6531C669.571 61.226 670.316 59.4552 670.534 57.3406H668.847ZM675.566 62.8718V64.1843H677.425V62.8718H675.566ZM675.566 60.7312V61.9968H677.425V60.7312H675.566ZM675.566 65.0593V66.4187H677.425V65.0593H675.566ZM670.644 61.3406V65.2156H672.066V61.3406H670.644ZM687.222 61.45C688.566 61.0854 689.42 60.3718 689.784 59.3093L688.316 58.7156L688.691 57.7781L690.003 58.2781L690.112 56.9656H687.816V55.9187H694.378L694.269 60.6218C694.237 61.5385 693.857 61.9968 693.128 61.9968H691.862L691.753 60.95H692.909C693.128 60.95 693.237 60.8406 693.237 60.6218L693.347 56.9656H691.206L691.05 58.7156L692.362 59.4187L691.862 60.4031L690.769 59.8093C690.3 61.1531 689.264 62.0645 687.659 62.5437L687.222 61.45ZM694.159 66.9187C693.868 65.8249 693.415 64.877 692.8 64.075L693.784 63.6375C694.586 64.6166 695.097 65.5437 695.316 66.4187L694.159 66.9187ZM686.831 63.4656V67.6843H685.909V67.3093H684.05V67.9031H683.112V63.4656H686.831ZM687.269 66.9812C687.529 66.0645 687.696 65.0229 687.769 63.8562L688.862 63.9656C688.935 63.9968 688.899 64.0854 688.753 64.2312C688.711 65.3979 688.545 66.4031 688.253 67.2468L687.269 66.9812ZM690.769 61.6687C691.279 61.9916 691.79 62.5541 692.3 63.3562L691.269 63.9656C691.008 63.4552 690.571 62.8718 689.956 62.2156L690.769 61.6687ZM683.331 55.7H686.612V56.7468H683.331V55.7ZM682.628 57.5593H687.331V58.6062H682.628V57.5593ZM683.331 59.5906H686.612V60.6218H683.331V59.5906ZM683.331 61.45H686.612V62.4812H683.331V61.45ZM684.05 64.3406V66.4187H685.909V64.3406H684.05ZM690.222 63.3093C690.514 63.3406 690.534 63.45 690.284 63.6375V66.2C690.284 66.4604 690.394 66.5906 690.612 66.5906H691.816C692.034 66.5906 692.159 66.4812 692.191 66.2625L692.3 65.3875L693.394 65.6531L693.175 66.8093C693.071 67.3614 692.743 67.6375 692.191 67.6375H690.112C689.498 67.6375 689.191 67.3041 689.191 66.6375V63.3093H690.222Z" fill="#999999"/>
<path d="M28.9188 41.1218C31.2625 40.601 33.0854 39.8197 34.3875 38.7781C33.45 37.3718 32.799 35.7833 32.4344 34.0125H31.1844V32.5281H34.6219V29.8718H30.95V28.3875H34.6219V25.2625H36.1063C36.6271 25.3145 36.6531 25.4708 36.1844 25.7312V28.3875H40.6375V29.8718H36.1844V32.5281H38.45L38.6063 32.2937L39.7 33.1531C40.1167 33.4656 40.0646 33.6479 39.5438 33.7C38.8667 35.7312 37.9031 37.45 36.6531 38.8562C37.8511 39.7937 39.3094 40.4708 41.0281 40.8875L40.2469 42.6843C38.2156 42.0072 36.6271 41.0958 35.4813 39.95C33.9708 41.252 31.9396 42.2156 29.3875 42.8406L28.9188 41.1218ZM33.9188 34.0125C34.2833 35.4708 34.8302 36.6947 35.5594 37.6843C36.3927 36.7989 37.0958 35.575 37.6688 34.0125H33.9188ZM27.6688 26.0437C28.1896 26.0958 28.2156 26.252 27.7469 26.5125V37.9968H28.8406V29.0125H30.325C30.8458 29.0645 30.8719 29.2208 30.4031 29.4812V39.5593H28.8406V39.2468H25.325V40.575H23.7625V29.0125H25.2469C25.7677 29.0645 25.7938 29.2208 25.325 29.4812V37.9968H26.4188V26.0437H27.6688ZM58.6063 36.825H57.0438V36.5125H52.9031V38.075H61.1844V39.5593H52.9031V43.075H51.3406V39.5593H43.2156V38.075H51.3406V36.5125H47.5125V37.0593H45.95V26.5906H50.4813L50.95 24.7937L52.9031 25.0281C53.2156 25.0802 53.1375 25.2104 52.6688 25.4187L52.1219 26.5906H58.0594V30.8093H47.5125V32.1375H58.6063V36.825ZM56.4969 27.8406H47.5125V29.5593H56.4969V27.8406ZM57.0438 35.2625V33.3875H47.5125V35.2625H57.0438ZM76.1844 37.6062C77.2261 38.6479 78.7625 39.6895 80.7938 40.7312L79.8563 42.3718C78.0854 41.5385 76.4188 40.3406 74.8563 38.7781L76.1844 37.6062ZM69.3875 39.0125C68.5021 40.2625 67.1479 41.4864 65.325 42.6843L64.1531 41.2C65.8198 40.2104 67.1479 39.0385 68.1375 37.6843L69.6219 38.5437C69.8823 38.752 69.8042 38.9083 69.3875 39.0125ZM66.1844 36.9812V37.7625H64.6219V26.5125H66.1063C66.5229 26.5645 66.549 26.7208 66.1844 26.9812V35.4968H80.5594V36.9812H73.2938V42.9968H71.4969V36.9812H66.1844ZM69.6219 33.2312H76.4188V31.7468H69.6219V33.2312ZM69.6219 30.4968H76.4188V29.2468H69.6219V30.4968ZM69.6219 27.9968H76.4188V26.7468H69.6219V27.9968ZM68.0594 34.4812V25.4968H77.9813V34.4812H68.0594ZM92.9813 30.1843C92.0958 35.3927 91.0281 38.6218 89.7781 39.8718C89.1011 40.5489 88.3979 40.8875 87.6688 40.8875C86.8354 40.8875 86.1844 40.6531 85.7156 40.1843C84.4656 38.9343 83.8406 37.3718 83.8406 35.4968C83.8406 33.2052 84.6479 31.252 86.2625 29.6375C88.0333 27.8666 90.1948 26.9812 92.7469 26.9812C95.0386 26.9812 96.8354 27.6322 98.1375 28.9343C99.5958 30.3927 100.325 32.1114 100.325 34.0906C100.325 36.226 99.6479 37.9708 98.2938 39.325C97.4083 40.2104 96.0542 41.0697 94.2313 41.9031L92.5906 40.2625C94.4136 39.6895 95.8458 38.8822 96.8875 37.8406C97.8771 36.851 98.3719 35.6531 98.3719 34.2468C98.3719 32.5802 97.825 31.2 96.7313 30.1062C95.6375 29.0125 93.9188 28.5177 91.575 28.6218L92.9813 29.325C93.6063 29.5854 93.6063 29.8718 92.9813 30.1843ZM91.1844 28.7C89.8302 29.0125 88.6583 29.6635 87.6688 30.6531C86.3146 32.0072 85.6375 33.6739 85.6375 35.6531C85.6375 36.851 86.0281 37.8406 86.8094 38.6218C86.9656 38.7781 87.2 38.8562 87.5125 38.8562C87.825 38.8562 88.1636 38.6739 88.5281 38.3093C89.7261 37.1114 90.6115 33.9083 91.1844 28.7ZM110.325 41.5125C112.46 40.3666 113.528 38.4135 113.528 35.6531V26.6687L115.169 26.9812L119.388 25.6531L120.559 27.2156C120.664 27.5281 120.481 27.5802 120.013 27.3718L115.091 28.3093V31.6687H121.263V33.1531H118.919V42.9187H117.356V33.1531H115.091V36.1218C115.091 39.1947 113.789 41.4864 111.184 42.9968L110.325 41.5125ZM108.841 42.9968H107.278V38.3093C106.445 39.6635 105.533 40.7312 104.544 41.5125L103.372 40.1062C104.83 39.0645 106.054 37.7625 107.044 36.2H103.763V34.7156H107.278V32.9968H103.294V31.5125H108.763L109.622 28.7H103.841V27.2156H107.278V25.0281H108.763C109.179 25.0802 109.205 25.2364 108.841 25.4968V27.2156H112.278V28.7H111.263L110.169 31.5125H112.669V32.9968H108.841V34.7156H112.278V36.2H108.841V36.9031C109.57 37.1114 110.585 37.6583 111.888 38.5437L110.95 40.1062C110.221 39.377 109.518 38.8041 108.841 38.3875V42.9968ZM105.716 31.3562C105.507 30.627 105.221 29.9239 104.856 29.2468L106.341 28.7781C106.757 29.4552 107.07 30.1583 107.278 30.8875L105.716 31.3562ZM138.45 33.5437H133.372V35.2625H138.45V33.5437ZM136.341 36.7468H134.934V37.5281C134.934 40.7572 133.085 42.6583 129.388 43.2312L128.919 41.5906C131.888 41.226 133.372 39.8197 133.372 37.3718V36.7468H132.591H131.809V25.8093H140.013V36.7468H137.903V40.6531C137.903 41.0697 138.085 41.2781 138.45 41.2781H139.231C139.492 41.2781 139.648 41.0177 139.7 40.4968L139.856 39.1687L141.419 39.6375L141.184 41.4343C141.08 42.3197 140.585 42.7625 139.7 42.7625H137.747C136.809 42.7625 136.341 42.3197 136.341 41.4343V36.7468ZM133.372 32.0593H138.45V30.4187H133.372V32.0593ZM133.372 28.9343H138.45V27.2937H133.372V28.9343ZM127.747 35.8875C128.789 36.3562 130.013 37.2156 131.419 38.4656L130.325 40.1062C129.231 38.9083 128.268 38.0229 127.434 37.45C126.914 39.7416 125.82 41.5385 124.153 42.8406L122.981 41.4343C125.273 39.5072 126.367 37.0072 126.263 33.9343H123.294V32.45H126.341V29.6375H123.841V28.1531H126.341V25.0281H127.825C128.242 25.0802 128.268 25.2364 127.903 25.4968V28.1531H130.638V29.6375H127.903V32.45H131.028V33.9343H127.825C127.825 34.7677 127.799 35.4187 127.747 35.8875ZM147.825 32.1375C148.815 33.4916 149.309 34.8979 149.309 36.3562C149.309 38.3875 148.71 39.4031 147.513 39.4031H146.575L146.263 37.8406H147.044C147.565 37.8406 147.799 37.2937 147.747 36.2C147.695 34.6895 147.226 33.3614 146.341 32.2156L147.903 27.1375H145.481V42.7625H143.919V25.8875H148.294L148.606 25.4968L149.934 26.6687L149.622 26.9812L147.825 32.1375ZM159.153 36.5125H158.372C157.539 40.3145 154.752 42.502 150.013 43.075L149.544 41.5906C153.606 41.2781 156.054 39.5854 156.888 36.5125H155.794C154.908 38.7 153.033 40.0281 150.169 40.4968L149.7 39.1687C152.096 38.6479 153.58 37.7625 154.153 36.5125H152.903C152.174 37.2416 151.236 37.8145 150.091 38.2312L149.466 36.9031C151.132 36.3822 152.278 35.3927 152.903 33.9343H149.388V32.6843H161.106V33.9343H154.544C154.335 34.4031 154.075 34.8458 153.763 35.2625H160.638L160.481 40.1843C160.429 41.851 159.83 42.6843 158.684 42.6843H157.122L156.888 41.2H158.216C158.684 41.2 158.945 40.8875 158.997 40.2625L159.153 36.5125ZM152.513 30.4187H157.825V29.0906H152.513V30.4187ZM152.513 27.8406H157.825V26.5906H152.513V27.8406ZM159.153 25.3406V31.6687H151.184V25.3406H159.153ZM172.434 29.325H174.544V25.2625H176.028C176.445 25.3145 176.471 25.4708 176.106 25.7312V29.325H180.325V30.8093H176.106V34.5593H180.091V36.0437H176.106V40.6531H181.263V42.1375H169.309V40.6531H174.544V36.0437H170.716V34.5593H174.544V30.8093H171.966C171.601 31.851 171.028 32.8927 170.247 33.9343L168.919 32.9187C170.273 31.1479 171.158 29.0125 171.575 26.5125L173.059 26.825C173.476 26.9812 173.476 27.1375 173.059 27.2937L172.434 29.325ZM165.794 25.0281H167.278C167.695 25.0802 167.721 25.2364 167.356 25.4968V42.8406H165.794V25.0281ZM168.763 28.2312C169.231 28.8562 169.622 29.5593 169.934 30.3406L168.684 31.2C168.32 30.3145 167.955 29.5854 167.591 29.0125L168.763 28.2312ZM165.325 29.0906C165.69 29.1947 165.69 29.351 165.325 29.5593C165.221 31.226 164.986 32.7885 164.622 34.2468L163.138 33.7781C163.554 32.476 163.789 30.8354 163.841 28.8562L165.325 29.0906ZM198.138 33.6218V42.6843H196.575V41.9031H189.544V42.9187H187.981V35.8093C186.627 36.5385 185.169 37.1114 183.606 37.5281L183.059 36.1218C184.518 35.7572 186.158 35.1062 187.981 34.1687V33.6218H189.075C190.169 32.9968 191.106 32.3718 191.888 31.7468H183.684V30.2625H190.559V28.3875H185.716V26.9031H190.559V25.0281H192.044C192.46 25.0802 192.486 25.2364 192.122 25.4968V26.9031H195.872V28.2312C196.497 27.5541 197.122 26.7989 197.747 25.9656L198.841 26.6687C199.205 26.9291 199.153 27.0854 198.684 27.1375C197.695 28.3354 196.705 29.377 195.716 30.2625H201.106V31.7468H194.075C193.033 32.6322 192.2 33.2572 191.575 33.6218H198.138ZM193.606 30.2625C194.231 29.7937 194.934 29.1687 195.716 28.3875H192.122V30.2625H193.606ZM189.544 36.9812H196.575V34.8718H189.544V36.9812ZM189.544 40.6531H196.575V38.2312H189.544V40.6531ZM216.731 36.9031C217.46 35.4968 217.903 33.3614 218.059 30.4968H215.403C215.559 33.3614 216.002 35.4968 216.731 36.9031ZM219.622 30.4968C219.518 33.726 218.893 36.3302 217.747 38.3093C218.58 39.351 219.752 40.2625 221.263 41.0437L220.247 42.7625C218.58 41.6687 217.408 40.627 216.731 39.6375C215.533 40.9916 213.684 42.1635 211.184 43.1531L210.403 41.5906C213.111 40.4968 214.908 39.377 215.794 38.2312C214.908 36.5125 214.414 34.7937 214.309 33.075C213.997 33.8562 213.684 34.4552 213.372 34.8718L212.044 33.8562C213.606 31.5645 214.544 28.726 214.856 25.3406L216.497 25.7312C216.809 25.9395 216.731 26.0958 216.263 26.2C216.106 27.1375 215.898 28.075 215.638 29.0125H220.95V30.4968H219.622ZM212.356 26.7468C212.044 27.5281 211.679 28.1791 211.263 28.7L210.013 27.9968C210.429 27.3197 210.82 26.5385 211.184 25.6531L212.591 26.3562C212.799 26.5645 212.721 26.6947 212.356 26.7468ZM207.356 37.7625C208.085 37.9708 208.736 38.2052 209.309 38.4656C209.726 37.9968 210.065 37.2937 210.325 36.3562H208.059C207.851 36.825 207.617 37.2937 207.356 37.7625ZM206.263 39.7156L205.013 39.0125C205.533 38.2312 206.054 37.3458 206.575 36.3562H203.606V35.1062H207.044C207.356 34.4291 207.591 33.8562 207.747 33.3875L209.231 33.7781C209.44 33.9864 209.361 34.1166 208.997 34.1687L208.528 35.1062H212.981V36.3562H211.809C211.549 37.3979 211.158 38.2833 210.638 39.0125C211.106 39.2208 211.601 39.4812 212.122 39.7937L211.419 41.0437C210.846 40.6791 210.325 40.3927 209.856 40.1843C208.502 41.5385 206.679 42.3718 204.388 42.6843L203.841 41.2781C205.872 41.0697 207.434 40.4968 208.528 39.5593C207.955 39.2989 207.382 39.0645 206.809 38.8562L206.263 39.7156ZM207.825 25.0281H209.075C209.492 25.0802 209.518 25.2364 209.153 25.4968V28.8562H213.138V30.1062H209.856C210.429 30.7833 211.315 31.4343 212.513 32.0593L211.653 33.3875C210.768 32.8666 209.934 32.1375 209.153 31.2V33.075H207.825V31.5906C206.992 32.6322 205.846 33.5697 204.388 34.4031L203.372 33.1531C204.986 32.3197 206.315 31.3041 207.356 30.1062H203.763V28.8562H207.825V25.0281ZM205.638 28.6218C205.273 27.8406 204.804 27.1635 204.231 26.5906L205.481 25.8093C206.106 26.4343 206.575 27.0854 206.888 27.7625L205.638 28.6218ZM232.981 30.1843C232.096 35.3927 231.028 38.6218 229.778 39.8718C229.101 40.5489 228.398 40.8875 227.669 40.8875C226.835 40.8875 226.184 40.6531 225.716 40.1843C224.466 38.9343 223.841 37.3718 223.841 35.4968C223.841 33.2052 224.648 31.252 226.263 29.6375C228.033 27.8666 230.195 26.9812 232.747 26.9812C235.039 26.9812 236.835 27.6322 238.138 28.9343C239.596 30.3927 240.325 32.1114 240.325 34.0906C240.325 36.226 239.648 37.9708 238.294 39.325C237.408 40.2104 236.054 41.0697 234.231 41.9031L232.591 40.2625C234.414 39.6895 235.846 38.8822 236.888 37.8406C237.877 36.851 238.372 35.6531 238.372 34.2468C238.372 32.5802 237.825 31.2 236.731 30.1062C235.638 29.0125 233.919 28.5177 231.575 28.6218L232.981 29.325C233.606 29.5854 233.606 29.8718 232.981 30.1843ZM231.184 28.7C229.83 29.0125 228.658 29.6635 227.669 30.6531C226.315 32.0072 225.638 33.6739 225.638 35.6531C225.638 36.851 226.028 37.8406 226.809 38.6218C226.966 38.7781 227.2 38.8562 227.513 38.8562C227.825 38.8562 228.164 38.6739 228.528 38.3093C229.726 37.1114 230.611 33.9083 231.184 28.7ZM248.763 31.825C250.481 30.2104 251.809 27.8666 252.747 24.7937L254.309 25.2625C254.57 25.4708 254.518 25.601 254.153 25.6531C253.736 26.6947 253.32 27.6583 252.903 28.5437H255.247C255.82 27.3458 256.263 26.2781 256.575 25.3406L258.059 25.8875C258.268 26.0958 258.19 26.226 257.825 26.2781C257.46 27.1114 257.096 27.8666 256.731 28.5437H260.716V30.0281H256.731V32.45H259.934V33.9343H256.731V36.4343H259.934V37.9187H256.731V40.8093H261.184V42.2937H252.591V42.9968H251.028V31.6687C250.664 32.1895 250.273 32.6583 249.856 33.075L248.763 31.825ZM244.856 42.8406L244.544 41.3562H245.872C246.08 41.3562 246.184 41.252 246.184 41.0437V36.2L244.153 36.6687C244.101 37.0333 243.971 37.1114 243.763 36.9031L243.45 35.1062L246.184 34.5593V30.4187H243.763V28.9343H246.184V24.95H247.669C248.085 25.002 248.111 25.1583 247.747 25.4187V28.9343H249.778V30.4187H247.747V34.2468L249.778 33.7L250.013 35.1062L247.747 35.8093V41.5906C247.747 42.4239 247.33 42.8406 246.497 42.8406H244.856ZM252.591 40.8093H255.169V37.9187H252.591V40.8093ZM252.591 36.4343H255.169V33.9343H252.591V36.4343ZM252.591 32.45H255.169V30.0281H252.591V32.45ZM278.841 27.1375L279.075 26.825L280.325 27.8406L280.091 28.075C278.736 30.4187 277.408 31.9812 276.106 32.7625L276.888 32.9968C277.252 33.1531 277.226 33.3093 276.809 33.4656C276.705 33.8302 276.575 34.1427 276.419 34.4031H279.778L280.013 34.0906L281.419 35.1062L281.106 35.4187C279.44 39.8458 276.054 42.3458 270.95 42.9187L270.325 41.4343C272.773 41.1739 274.7 40.5229 276.106 39.4812C275.377 38.752 274.648 38.127 273.919 37.6062C273.242 38.1791 272.33 38.7 271.184 39.1687L270.481 37.7625C273.033 36.7208 274.7 35.1322 275.481 32.9968C274.7 33.726 273.294 34.351 271.263 34.8718L270.559 33.4656C272.539 33.0489 274.023 32.502 275.013 31.825C274.492 31.2 273.867 30.6531 273.138 30.1843C272.773 30.5489 272.408 30.8614 272.044 31.1218L270.95 29.95C272.669 28.4916 273.763 26.9291 274.231 25.2625L275.638 25.7312C276.002 25.8875 275.976 26.0437 275.559 26.2C275.507 26.5125 275.377 26.825 275.169 27.1375H278.841ZM268.216 30.1843H270.794V31.6687H268.216V33.6218C269.257 34.0906 270.247 34.7937 271.184 35.7312L270.169 37.1375C269.335 36.3041 268.684 35.7052 268.216 35.3406V42.9187H266.653V35.1843C266.341 36.226 265.481 37.5541 264.075 39.1687L262.903 37.6843C264.83 35.8614 266.028 33.8562 266.497 31.6687H263.45V30.1843H266.653V27.6062C265.611 27.7625 264.674 27.8927 263.841 27.9968L263.45 26.5125C265.533 26.3041 267.695 25.8875 269.934 25.2625L270.794 26.4343C271.002 26.7468 270.872 26.851 270.403 26.7468C269.674 26.9552 268.945 27.1375 268.216 27.2937V30.1843ZM273.919 29.2468C274.7 29.6635 275.455 30.1843 276.184 30.8093C276.966 30.0802 277.617 29.2729 278.138 28.3875H274.544C274.335 28.752 274.127 29.0385 273.919 29.2468ZM274.778 36.6687C275.507 37.0854 276.341 37.7104 277.278 38.5437C278.059 37.9708 278.736 37.0072 279.309 35.6531H275.716C275.403 36.0697 275.091 36.4083 274.778 36.6687ZM286.809 29.325C287.382 28.127 288.346 26.9031 289.7 25.6531L290.559 26.4343C289.257 27.6322 288.346 28.7781 287.825 29.8718C287.252 31.0697 286.966 32.502 286.966 34.1687C286.966 35.575 287.252 36.9031 287.825 38.1531C288.346 39.2989 289.257 40.575 290.559 41.9812L289.7 42.8406C288.398 41.3822 287.434 40.002 286.809 38.7C286.132 37.2937 285.794 35.7833 285.794 34.1687C285.794 32.3458 286.132 30.7312 286.809 29.325ZM297.903 41.9031H296.106V26.825H308.372V41.5906H306.575V40.4968H297.903V41.9031ZM306.575 32.7625V28.3093H297.903V32.7625H306.575ZM306.575 39.0125V34.2468H297.903V39.0125H306.575ZM321.341 35.8093H318.372C317.903 38.7781 316.497 41.1218 314.153 42.8406L313.372 41.3562C315.664 39.7416 316.914 37.3458 317.122 34.1687L317.278 31.7468H316.184V32.7625H314.622V26.0437H322.513V32.45H320.95V31.7468H318.684L318.528 34.325H322.903L322.513 40.4968C322.408 41.7468 321.888 42.3718 320.95 42.3718H318.841L318.606 40.8875H320.325C320.794 40.8875 321.054 40.627 321.106 40.1062L321.341 35.8093ZM329.778 41.2C329.778 42.0854 329.361 42.5281 328.528 42.5281H326.809L326.497 41.0437H327.981C328.138 41.0437 328.216 40.9656 328.216 40.8093V25.8093H329.7C330.117 25.8614 330.143 26.0177 329.778 26.2781V41.2ZM326.028 27.6843C326.445 27.7364 326.471 27.8927 326.106 28.1531V38.8562H324.544V27.6843H326.028ZM320.95 30.4968V27.2937H316.184V30.4968H320.95ZM337.513 38.7C336.888 40.002 335.924 41.3822 334.622 42.8406L333.763 41.9812C335.065 40.575 335.976 39.2989 336.497 38.1531C337.07 36.9031 337.356 35.575 337.356 34.1687C337.356 32.502 337.07 31.0697 336.497 29.8718C335.976 28.7781 335.065 27.6322 333.763 26.4343L334.622 25.6531C335.976 26.9031 336.94 28.127 337.513 29.325C338.19 30.7312 338.528 32.3458 338.528 34.1687C338.528 35.7833 338.19 37.2937 337.513 38.7Z" fill="#757575"/>
</g>
<rect x="2" y="2" width="714" height="440" stroke="black" stroke-width="4"/>
<defs>
<clipPath id="clip0_6_6244">
<rect width="718" height="444" fill="white"/>
</clipPath>
</defs>
</svg>
