<svg width="718" height="444" viewBox="0 0 718 444" fill="none" xmlns="http://www.w3.org/2000/svg">
<g clip-path="url(#clip0_6_8310)">
<path d="M0 0H718V444H0V0Z" fill="white"/>
<path d="M187.5 91.5V369.5" stroke="#CCCCCC" stroke-miterlimit="10"/>
<path d="M307.5 91.5V369.5" stroke="#CCCCCC" stroke-miterlimit="10"/>
<path d="M427.5 91.5V369.5" stroke="#CCCCCC" stroke-miterlimit="10"/>
<path d="M547.5 91.5V369.5" stroke="#CCCCCC" stroke-miterlimit="10"/>
<path d="M667.5 91.5V369.5" stroke="#CCCCCC" stroke-miterlimit="10"/>
<path d="M95.5 369.5H695.5" stroke="#333333" stroke-miterlimit="10"/>
<path d="M95.5 300.5H695.5" stroke="#CCCCCC" stroke-miterlimit="10"/>
<path d="M95.5 230.5H695.5" stroke="#CCCCCC" stroke-miterlimit="10"/>
<path d="M95.5 161.5H695.5" stroke="#CCCCCC" stroke-miterlimit="10"/>
<path d="M95.5 91.5H695.5" stroke="#CCCCCC" stroke-miterlimit="10"/>
<path d="M95.2 369.8H95.8H96.4H97H97.6H98.2H98.8H99.4H100H100.6H101.2H101.8H102.4H103H103.6H104.2H104.8H105.4H106H106.6H107.2H107.8H108.4H109H109.6H110.2H110.8H111.4H112H112.6H113.2H113.8H114.4H115H115.6H116.2H116.8H117.4H118H118.6H119.2H119.8H120.4H121H121.6H122.2H122.8H123.4H124H124.6H125.2L125.8 369.772L126.4 369.8H127H127.6H128.2H128.8H129.4H130H130.6H131.2H131.8H132.4H133L133.6 369.772H134.2L134.8 369.8H135.4H136H136.6L137.2 369.772L137.8 369.8H138.4L139 369.744L139.6 369.8H140.2H140.8L141.4 369.661L142 369.744H142.6L143.2 369.8L143.8 369.772L144.4 369.717L145 369.661L145.6 369.772L146.2 369.661L146.8 369.076L147.4 369.633L148 369.717L148.6 369.522L149.2 368.743L149.8 369.661L150.4 369.633H151L151.6 369.744L152.2 369.661L152.8 369.744H153.4L154 369.717L154.6 369.8L155.2 369.744H155.8L156.4 369.772L157 369.661L157.6 369.772L158.2 369.8L158.8 369.689L159.4 369.772H160L160.6 369.689L161.2 369.8H161.8H162.4H163H163.6H164.2H164.8H165.4H166H166.6H167.2H167.8L168.4 369.772L169 369.8H169.6H170.2H170.8L171.4 369.772L172 369.8H172.6H173.2H173.8H174.4H175H175.6H176.2H176.8H177.4H178H178.6L179.2 369.772L179.8 369.8H180.4H181H181.6H182.2H182.8H183.4H184H184.6H185.2H185.8H186.4H187H187.6H188.2H188.8H189.4H190H190.6H191.2H191.8H192.4H193H193.6H194.2H194.8L195.4 369.772L196 369.8H196.6H197.2H197.8H198.4L199 369.744L199.6 369.8H200.2L200.8 369.744L201.4 369.661L202 369.772L202.6 369.717L203.2 369.689L203.8 369.605L204.4 369.661L205 369.605L205.6 369.744H206.2L206.8 369.689L207.4 369.605H208L208.6 369.355L209.2 369.605H209.8L210.4 369.689L211 369.633L211.6 369.271L212.2 369.327L212.8 369.577L213.4 369.299H214L214.6 369.522L215.2 369.55L215.8 369.522L216.4 369.494L217 369.605L217.6 369.717L218.2 369.633L218.8 369.661L219.4 369.605L220 369.577L220.6 369.717L221.2 369.661L221.8 369.717L222.4 369.772L223 369.744L223.6 369.8H224.2L224.8 369.744L225.4 369.661L226 369.689L226.6 369.744L227.2 369.772H227.8H228.4L229 369.8L229.6 369.772L230.2 369.744L230.8 369.772H231.4L232 369.8H232.6L233.2 369.772L233.8 369.8H234.4H235H235.6L236.2 369.772L236.8 369.689L237.4 369.8H238H238.6L239.2 369.744H239.8L240.4 369.689L241 369.744L241.6 369.8H242.2L242.8 369.772L243.4 369.8L244 369.772L244.6 369.717L245.2 369.577L245.8 369.661L246.4 369.717L247 369.522L247.6 369.494L248.2 369.355H248.8L249.4 369.41L250 369.383L250.6 369.717L251.2 369.577L251.8 369.41L252.4 369.772H253L253.6 369.661L254.2 369.689H254.8L255.4 369.661L256 369.717L256.6 369.689L257.2 369.466L257.8 369.772H258.4L259 369.717L259.6 369.772L260.2 369.744L260.8 369.772H261.4L262 369.8L262.6 369.772L263.2 369.8L263.8 369.744L264.4 369.772H265L265.6 369.8L266.2 369.772H266.8H267.4L268 369.8L268.6 369.717L269.2 369.8H269.8H270.4L271 369.717L271.6 369.744L272.2 369.717H272.8H273.4L274 369.744H274.6H275.2H275.8L276.4 369.717L277 369.633L277.6 369.605L278.2 369.633L278.8 369.744L279.4 369.41L280 369.744L280.6 369.55L281.2 369.577L281.8 369.55L282.4 369.466L283 369.577L283.6 369.772L284.2 369.41L284.8 369.466L285.4 369.132L286 369.104L286.6 369.522L287.2 369.355L287.8 369.104L288.4 368.52H289L289.6 368.798L290.2 368.13L290.8 368.603L291.4 368.464L292 367.713L292.6 367.824L293.2 366.627L293.8 366.906L294.4 367.657L295 366.822L295.6 367.741L296.2 367.351L296.8 365.904L297.4 367.49L298 367.268L298.6 367.073L299.2 367.574L299.8 367.685L300.4 366.488L301 366.961L301.6 365.876L302.2 366.878L302.8 367.323L303.4 368.409L304 367.351L304.6 367.462L305.2 367.379L305.8 367.768L306.4 367.685L307 367.852L307.6 368.464L308.2 367.713L308.8 367.629L309.4 367.268L310 366.46L310.6 368.13L311.2 368.242L311.8 368.13L312.4 368.826L313 368.186L313.6 368.409L314.2 368.854L314.8 368.297L315.4 368.743L316 369.021L316.6 369.132L317.2 368.214L317.8 369.021L318.4 368.548L319 369.16H319.6L320.2 369.104L320.8 369.327L321.4 368.798L322 369.076L322.6 368.77L323.2 368.743L323.8 369.41L324.4 369.466L325 369.41L325.6 369.383L326.2 369.605L326.8 369.55L327.4 369.605L328 369.494L328.6 369.55L329.2 369.522L329.8 369.633L330.4 369.55L331 369.605L331.6 369.577L332.2 369.522L332.8 369.466L333.4 369.383L334 369.55L334.6 369.605L335.2 369.772L335.8 369.717H336.4L337 369.661L337.6 369.689L338.2 369.661L338.8 369.633L339.4 369.717L340 369.8L340.6 369.744H341.2L341.8 369.661L342.4 369.689L343 369.744H343.6L344.2 369.661L344.8 369.744L345.4 369.605L346 369.717L346.6 369.772H347.2H347.8L348.4 369.744L349 369.717L349.6 369.744L350.2 369.772L350.8 369.744L351.4 369.772L352 369.744L352.6 369.633L353.2 369.577L353.8 369.772L354.4 369.689L355 369.661H355.6L356.2 369.633L356.8 369.605L357.4 369.522L358 369.271L358.6 369.577L359.2 369.243L359.8 369.522L360.4 369.55L361 369.577L361.6 369.494L362.2 369.55L362.8 369.717L363.4 369.605L364 369.522L364.6 369.41L365.2 369.188L365.8 369.494L366.4 369.577H367L367.6 369.021L368.2 369.243L368.8 369.16L369.4 368.91L370 368.965L370.6 368.937L371.2 369.049L371.8 368.798L372.4 368.631L373 368.492L373.6 368.436L374.2 368.854L374.8 368.91L375.4 368.52L376 368.075L376.6 367.796L377.2 366.961L377.8 367.991L378.4 367.379L379 368.242L379.6 367.629L380.2 367.88L380.8 366.433L381.4 367.379L382 364.735L382.6 364.373L383.2 364.846L383.8 365.041L384.4 363.705L385 363.928L385.6 363.956L386.2 363.149L386.8 363.956L387.4 364.29L388 364.373L388.6 363.65L389.2 363.844L389.8 363.733L390.4 365.097L391 365.347L391.6 366.934L392.2 366.154L392.8 365.18L393.4 365.514L394 366.377L394.6 366.934L395.2 367.601L395.8 367.991L396.4 368.409L397 367.824L397.6 368.214L398.2 368.158L398.8 368.492L399.4 368.687L400 368.993L400.6 369.076L401.2 369.049L401.8 368.91L402.4 368.854L403 368.882L403.6 368.687L404.2 369.188L404.8 369.41L405.4 369.049L406 369.216L406.6 368.965L407.2 369.188L407.8 369.271L408.4 369.327L409 369.438L409.6 369.355L410.2 369.299L410.8 369.466L411.4 369.661L412 369.633L412.6 369.55L413.2 369.689L413.8 369.577L414.4 369.522L415 369.605H415.6H416.2L416.8 369.661L417.4 369.605L418 369.633L418.6 369.55L419.2 369.522L419.8 369.661L420.4 369.577L421 369.55L421.6 369.661L422.2 369.383L422.8 369.494L423.4 369.355H424L424.6 369.327L425.2 369.41L425.8 369.383L426.4 368.52L427 369.104L427.6 368.993L428.2 369.216L428.8 369.132L429.4 368.937L430 368.826L430.6 368.325L431.2 367.991L431.8 368.297L432.4 367.991L433 368.242L433.6 368.52L434.2 368.186L434.8 366.627L435.4 367.184L436 366.85L436.6 366.544L437.2 366.822L437.8 367.963L438.4 368.186L439 366.683L439.6 365.319L440.2 364.345L440.8 364.178L441.4 366.043L442 365.793L442.6 363.51L443.2 361.368L443.8 359.726L444.4 359.364L445 359.197L445.6 360.533L446.2 361.618L446.8 361.813L447.4 359.948L448 359.893L448.6 359.475L449.2 360.366L449.8 361.896L450.4 362.676L451 362.759L451.6 362.397L452.2 363.427L452.8 363.204L453.4 362.982L454 366.015L454.6 365.765L455.2 366.015L455.8 365.626L456.4 365.737L457 365.681L457.6 366.739L458.2 367.351L458.8 368.269L459.4 367.379L460 366.349L460.6 367.351L461.2 368.075L461.8 367.991L462.4 368.492L463 368.91L463.6 368.798L464.2 368.158L464.8 368.242L465.4 368.631L466 368.965L466.6 368.882L467.2 369.021L467.8 368.631L468.4 368.77L469 368.743L469.6 368.91L470.2 369.188L470.8 368.715L471.4 369.438L472 369.132H472.6L473.2 369.327L473.8 369.494L474.4 369.41L475 369.466L475.6 369.633L476.2 369.438L476.8 368.993H477.4L478 369.104L478.6 369.271L479.2 369.383L479.8 369.633L480.4 369.577L481 369.355L481.6 369.494L482.2 369.522L482.8 369.605L483.4 369.689L484 369.605L484.6 369.55L485.2 369.605H485.8L486.4 369.633L487 369.41L487.6 369.494L488.2 369.661H488.8L489.4 369.605L490 369.717L490.6 369.633L491.2 369.605L491.8 369.772L492.4 369.466L493 369.661L493.6 369.633L494.2 369.577L494.8 369.661L495.4 369.605L496 369.8L496.6 369.744H497.2L497.8 369.772L498.4 369.717L499 369.744L499.6 369.717L500.2 369.8H500.8L501.4 369.772L502 369.717L502.6 369.772L503.2 369.661L503.8 369.633L504.4 369.717L505 369.661L505.6 369.689L506.2 369.8H506.8H507.4H508H508.6H509.2H509.8H510.4H511H511.6H512.2H512.8H513.4H514H514.6H515.2H515.8H516.4H517H517.6H518.2L518.8 369.661L519.4 369.772L520 369.744L520.6 369.717L521.2 369.772H521.8H522.4L523 369.661L523.6 369.605L524.2 369.243L524.8 369.188L525.4 368.77L526 367.295L526.6 367.24L527.2 363.733L527.8 359.559L528.4 355.829L529 351.989L529.6 352.601L530.2 355.05L530.8 357.11L531.4 341.413L532 339.66L532.6 336.543L533.2 337.434L533.8 342.972L534.4 350.458L535 337.517L535.6 324.938L536.2 327.109L536.8 328.751L537.4 324.381L538 334.623L538.6 343.723L539.2 331.478L539.8 326.274L540.4 331.701L541 332.007L541.6 329.029L542.2 337.963L542.8 347.703L543.4 335.291L544 332.007L544.6 333.872L545.2 339.549L545.8 335.43L546.4 344.697L547 351.098L547.6 339.799L548.2 336.905L548.8 344.336L549.4 338.742L550 353.38L550.6 348.482L551.2 349.902L551.8 344.029L552.4 342.916L553 344.725L553.6 349.651L554.2 347.063L554.8 351.878L555.4 354.633L556 349.456L556.6 344.057L557.2 353.575L557.8 351.098L558.4 342.193L559 352.629L559.6 355.969L560.2 349.762L560.8 347.564L561.4 351.989L562 351.85L562.6 350.458L563.2 350.876L563.8 358.445L564.4 352.239L565 343.501L565.6 347.842L566.2 351.766L566.8 348.399L567.4 351.933L568 357.36L568.6 349.902L569.2 341.831L569.8 344.002L570.4 349.484L571 348.705L571.6 353.38L572.2 359.03L572.8 357.917L573.4 346.952L574 340.718L574.6 345.143L575.2 343.055L575.8 350.319L576.4 355.913L577 338.38L577.6 336.877L578.2 337.155L578.8 341.33L579.4 339.271L580 341.72L580.6 354.215L581.2 338.937L581.8 332.925L582.4 338.937L583 338.13L583.6 334.734L584.2 341.859L584.8 350.542L585.4 339.159L586 329.474L586.6 332.953L587.2 341.302L587.8 339.41L588.4 346.757L589 353.464L589.6 343.501L590.2 336.46L590.8 340.439L591.4 340.384L592 340.161L592.6 347.397L593.2 355.384L593.8 343.835L594.4 333.343L595 340.69L595.6 343.807L596.2 354.299L596.8 349.623L597.4 353.853L598 343.584L598.6 350.486L599.2 353.353L599.8 353.436L600.4 331.617L601 329.892L601.6 348.705L602.2 329.836L602.8 321.042L603.4 335.18L604 334.734L604.6 332.285L605.2 338.909L605.8 352.072L606.4 334.122L607 328.472L607.6 332.063L608.2 332.48L608.8 337.74L609.4 341.887L610 355.412L610.6 341.274L611.2 332.591L611.8 344.753L612.4 346.339L613 347.87L613.6 354.688L614.2 361.841L614.8 352.351L615.4 351.126L616 354.577L616.6 354.466L617.2 355.718L617.8 357.666L618.4 363.176L619 356.887L619.6 352.824L620.2 355.301L620.8 357.805L621.4 356.636L622 360.477L622.6 364.29L623.2 358.974L623.8 357.388L624.4 359.113L625 359.642H625.6L626.2 360.783L626.8 365.264L627.4 359.392L628 358.946L628.6 360.783L629.2 361.479L629.8 360.199L630.4 361.896L631 364.318L631.6 359.447L632.2 354.466L632.8 358.445L633.4 359.085L634 357.917L634.6 357.972L635.2 360.644L635.8 359.809L636.4 351.349L637 351.989L637.6 353.492L638.2 351.404L638.8 351.321L639.4 357.137L640 347.313L640.6 334.957L641.2 334.428L641.8 333.732L642.4 332.452L643 333.12L643.6 341.636L644.2 347.091L644.8 330.671L645.4 304.567L646 298.889L646.6 304.316L647.2 308.435L647.8 312.86L648.4 308.268L649 287.813L649.6 289.789L650.2 290.679L650.8 278.796L651.4 298.555L652 280.633L652.6 293.268L653.2 271.031L653.8 248.6L654.4 259.231L655 245.79L655.6 202.013L656.2 276.764L656.8 282.442L657.4 220.297L658 194.916L658.6 229.815L659.2 279.297L659.8 213.841L660.4 260.734L661 289.761L661.6 251.383L662.2 181.641L662.8 125.592L663.4 178.163L664 166.836L664.6 227.116L665.2 267.636L665.8 163.635L666.4 181.586L667 208.303L667.6 244.621L668.2 215.678L668.8 271.644L669.4 289.344L670 228.424L670.6 236.94L671.2 257.534L671.8 279.965L672.4 278.796L673 303.592L673.6 311.774L674.2 269.195L674.8 275.846L675.4 295.717L676 302.869L676.6 297.331L677.2 319.4L677.8 325.3L678.4 283.666L679 288.954L679.6 303.954L680.2 317.563L680.8 316.979L681.4 329.892L682 344.837L682.6 344.586L683.2 303.815L683.8 315.42L684.4 332.536L685 344.085L685.6 317.814L686.2 369.689L686.8 339.187L687.4 336.404L688 326.664L688.6 346.061L689.2 340.412L689.8 346.145L690.4 356.553L691 329.808L691.6 335.792L692.2 341.107L692.8 345.644L693.4 346.785L694 350.514L694.6 356.998L695.2 358.251L695.8 333.705" stroke="#4285F4" stroke-width="2" stroke-miterlimit="10"/>
<path d="M383.422 418.8V410.206H386.391C387.057 410.206 387.568 410.248 387.922 410.331C388.411 410.446 388.828 410.649 389.172 410.941C389.63 411.326 389.969 411.821 390.188 412.425C390.417 413.019 390.531 413.696 390.531 414.456C390.531 415.113 390.453 415.691 390.297 416.191C390.151 416.691 389.958 417.107 389.719 417.441C389.479 417.774 389.214 418.034 388.922 418.222C388.641 418.409 388.302 418.555 387.906 418.659C387.51 418.753 387.052 418.8 386.531 418.8H383.422ZM384.562 417.784H386.391C386.964 417.784 387.411 417.732 387.734 417.628C388.057 417.524 388.312 417.373 388.5 417.175C388.771 416.915 388.979 416.555 389.125 416.097C389.281 415.639 389.359 415.087 389.359 414.441C389.359 413.545 389.208 412.857 388.906 412.378C388.615 411.889 388.26 411.56 387.844 411.394C387.531 411.279 387.042 411.222 386.375 411.222H384.562V417.784ZM396.359 418.034C395.964 418.368 395.583 418.602 395.219 418.738C394.865 418.873 394.479 418.941 394.062 418.941C393.375 418.941 392.849 418.774 392.484 418.441C392.12 418.107 391.938 417.68 391.938 417.159C391.938 416.857 392.005 416.581 392.141 416.331C392.276 416.071 392.458 415.868 392.688 415.722C392.917 415.566 393.172 415.451 393.453 415.378C393.651 415.316 393.964 415.258 394.391 415.206C395.234 415.113 395.859 414.993 396.266 414.847C396.266 414.701 396.266 414.613 396.266 414.581C396.266 414.144 396.167 413.837 395.969 413.659C395.698 413.43 395.297 413.316 394.766 413.316C394.276 413.316 393.911 413.404 393.672 413.581C393.432 413.748 393.255 414.05 393.141 414.488L392.109 414.347C392.203 413.909 392.359 413.555 392.578 413.284C392.797 413.014 393.109 412.805 393.516 412.659C393.922 412.514 394.391 412.441 394.922 412.441C395.453 412.441 395.885 412.503 396.219 412.628C396.552 412.753 396.797 412.909 396.953 413.097C397.109 413.284 397.219 413.524 397.281 413.816C397.312 413.993 397.328 414.316 397.328 414.784V416.191C397.328 417.17 397.349 417.79 397.391 418.05C397.443 418.31 397.536 418.56 397.672 418.8H396.562C396.458 418.581 396.391 418.326 396.359 418.034ZM396.266 415.675C395.88 415.831 395.307 415.967 394.547 416.081C394.109 416.144 393.802 416.217 393.625 416.3C393.448 416.373 393.307 416.482 393.203 416.628C393.109 416.774 393.062 416.941 393.062 417.128C393.062 417.409 393.167 417.644 393.375 417.831C393.594 418.019 393.906 418.113 394.312 418.113C394.719 418.113 395.078 418.024 395.391 417.847C395.714 417.67 395.948 417.425 396.094 417.113C396.208 416.873 396.266 416.524 396.266 416.066V415.675ZM401.594 417.863L401.75 418.784C401.448 418.847 401.182 418.878 400.953 418.878C400.568 418.878 400.271 418.821 400.062 418.706C399.854 418.581 399.703 418.42 399.609 418.222C399.526 418.024 399.484 417.607 399.484 416.972V413.394H398.719V412.581H399.484V411.034L400.531 410.409V412.581H401.594V413.394H400.531V417.034C400.531 417.337 400.547 417.529 400.578 417.613C400.62 417.696 400.682 417.764 400.766 417.816C400.849 417.868 400.969 417.894 401.125 417.894C401.25 417.894 401.406 417.883 401.594 417.863ZM406.547 416.8L407.641 416.925C407.474 417.56 407.156 418.055 406.688 418.409C406.219 418.764 405.625 418.941 404.906 418.941C404 418.941 403.276 418.659 402.734 418.097C402.203 417.534 401.938 416.748 401.938 415.738C401.938 414.696 402.208 413.889 402.75 413.316C403.292 412.732 403.99 412.441 404.844 412.441C405.677 412.441 406.354 412.722 406.875 413.284C407.406 413.847 407.672 414.644 407.672 415.675C407.672 415.738 407.672 415.831 407.672 415.956H403.031C403.073 416.644 403.266 417.17 403.609 417.534C403.953 417.889 404.385 418.066 404.906 418.066C405.292 418.066 405.62 417.967 405.891 417.769C406.172 417.56 406.391 417.238 406.547 416.8ZM403.094 415.097H406.562C406.521 414.566 406.391 414.17 406.172 413.909C405.828 413.503 405.391 413.3 404.859 413.3C404.37 413.3 403.958 413.462 403.625 413.784C403.302 414.107 403.125 414.545 403.094 415.097Z" fill="black"/>
<path d="M33.2 265.181H24.6062V264.056H28.1375V259.587H24.6062V258.447H33.2V259.587H29.1531V264.056H33.2V265.181ZM25.825 256.353H24.6062V255.291H25.825V256.353ZM33.2 256.353H26.9812V255.291H33.2V256.353ZM33.2 253.369H26.9812V252.416H27.9187C27.4812 252.176 27.1948 251.957 27.0594 251.759C26.9135 251.551 26.8406 251.322 26.8406 251.072C26.8406 250.718 26.95 250.358 27.1687 249.994L28.1531 250.353C27.9969 250.613 27.9187 250.869 27.9187 251.119C27.9187 251.358 27.9916 251.572 28.1375 251.759C28.2729 251.936 28.4656 252.061 28.7156 252.134C29.0906 252.259 29.4969 252.322 29.9344 252.322H33.2V253.369ZM30.0906 249.744C28.9344 249.744 28.0802 249.426 27.5281 248.791C27.0698 248.259 26.8406 247.608 26.8406 246.837C26.8406 245.983 27.1219 245.285 27.6844 244.744C28.2364 244.192 29.0073 243.916 29.9969 243.916C30.7989 243.916 31.4291 244.035 31.8875 244.275C32.3458 244.514 32.7052 244.869 32.9656 245.337C33.2156 245.796 33.3406 246.296 33.3406 246.837C33.3406 247.702 33.0646 248.405 32.5125 248.947C31.95 249.478 31.1427 249.744 30.0906 249.744ZM30.0906 248.666C30.8823 248.666 31.476 248.494 31.8719 248.15C32.2677 247.796 32.4656 247.358 32.4656 246.837C32.4656 246.306 32.2677 245.869 31.8719 245.525C31.476 245.181 30.8719 245.009 30.0594 245.009C29.2885 245.009 28.7052 245.186 28.3094 245.541C27.9135 245.884 27.7156 246.317 27.7156 246.837C27.7156 247.358 27.9135 247.796 28.3094 248.15C28.6948 248.494 29.2885 248.666 30.0906 248.666ZM31.3406 242.775L31.1844 241.744C31.601 241.681 31.9187 241.52 32.1375 241.259C32.3562 240.988 32.4656 240.608 32.4656 240.119C32.4656 239.639 32.3719 239.285 32.1844 239.056C31.9864 238.817 31.7521 238.697 31.4812 238.697C31.2416 238.697 31.0541 238.801 30.9187 239.009C30.825 239.155 30.7052 239.514 30.5594 240.087C30.3614 240.858 30.1948 241.395 30.0594 241.697C29.9135 241.988 29.7156 242.212 29.4656 242.369C29.2156 242.525 28.9344 242.603 28.6219 242.603C28.351 242.603 28.0958 242.541 27.8562 242.416C27.6166 242.291 27.4187 242.119 27.2625 241.9C27.1479 241.733 27.0489 241.509 26.9656 241.228C26.8823 240.947 26.8406 240.639 26.8406 240.306C26.8406 239.827 26.9135 239.405 27.0594 239.041C27.1948 238.666 27.3823 238.389 27.6219 238.212C27.8614 238.035 28.1791 237.916 28.575 237.853L28.7156 238.884C28.4031 238.926 28.1583 239.061 27.9812 239.291C27.7937 239.509 27.7 239.827 27.7 240.244C27.7 240.723 27.7833 241.067 27.95 241.275C28.1062 241.483 28.2937 241.587 28.5125 241.587C28.6479 241.587 28.7677 241.546 28.8719 241.462C28.9864 241.369 29.0802 241.233 29.1531 241.056C29.1948 240.952 29.2833 240.639 29.4187 240.119C29.6271 239.369 29.7937 238.848 29.9187 238.556C30.0437 238.264 30.226 238.035 30.4656 237.869C30.7052 237.702 31.0073 237.619 31.3719 237.619C31.726 237.619 32.0594 237.723 32.3719 237.931C32.6739 238.129 32.9135 238.421 33.0906 238.806C33.2573 239.192 33.3406 239.629 33.3406 240.119C33.3406 240.931 33.1739 241.551 32.8406 241.978C32.4969 242.395 31.9969 242.66 31.3406 242.775ZM33.2 235.353H24.6062V234.306H27.6844C27.1219 233.817 26.8406 233.197 26.8406 232.447C26.8406 231.978 26.9344 231.577 27.1219 231.244C27.2989 230.9 27.5489 230.655 27.8719 230.509C28.1844 230.363 28.6479 230.291 29.2625 230.291H33.2V231.337H29.2625C28.7312 231.337 28.3458 231.452 28.1062 231.681C27.8666 231.91 27.7469 232.233 27.7469 232.65C27.7469 232.962 27.8302 233.259 27.9969 233.541C28.1531 233.811 28.3719 234.009 28.6531 234.134C28.9239 234.249 29.3041 234.306 29.7937 234.306H33.2V235.353ZM25.825 228.353H24.6062V227.291H25.825V228.353ZM33.2 228.353H26.9812V227.291H33.2V228.353ZM33.2 225.353H26.9812V224.416H27.8562C27.5437 224.218 27.2989 223.957 27.1219 223.634C26.9344 223.311 26.8406 222.942 26.8406 222.525C26.8406 222.067 26.9344 221.692 27.1219 221.4C27.3094 221.098 27.575 220.889 27.9187 220.775C27.2 220.275 26.8406 219.634 26.8406 218.853C26.8406 218.228 27.0125 217.754 27.3562 217.431C27.6896 217.098 28.2156 216.931 28.9344 216.931H33.2V217.978H29.2781C28.8614 217.978 28.5594 218.014 28.3719 218.087C28.1844 218.15 28.0333 218.27 27.9187 218.447C27.8041 218.624 27.7469 218.837 27.7469 219.087C27.7469 219.525 27.8927 219.889 28.1844 220.181C28.476 220.462 28.9448 220.603 29.5906 220.603H33.2V221.666H29.1531C28.6844 221.666 28.3354 221.754 28.1062 221.931C27.8666 222.098 27.7469 222.374 27.7469 222.759C27.7469 223.061 27.825 223.337 27.9812 223.587C28.1375 223.837 28.3666 224.02 28.6687 224.134C28.9708 224.249 29.4031 224.306 29.9656 224.306H33.2V225.353ZM32.4344 210.291C32.7677 210.686 33.0021 211.067 33.1375 211.431C33.2729 211.785 33.3406 212.171 33.3406 212.587C33.3406 213.275 33.1739 213.801 32.8406 214.166C32.5073 214.53 32.0802 214.712 31.5594 214.712C31.2573 214.712 30.9812 214.645 30.7312 214.509C30.4708 214.374 30.2677 214.192 30.1219 213.962C29.9656 213.733 29.851 213.478 29.7781 213.197C29.7156 212.999 29.6583 212.686 29.6062 212.259C29.5125 211.416 29.3927 210.791 29.2469 210.384C29.101 210.384 29.0125 210.384 28.9812 210.384C28.5437 210.384 28.2364 210.483 28.0594 210.681C27.8302 210.952 27.7156 211.353 27.7156 211.884C27.7156 212.374 27.8041 212.738 27.9812 212.978C28.1479 213.218 28.45 213.395 28.8875 213.509L28.7469 214.541C28.3094 214.447 27.9552 214.291 27.6844 214.072C27.4135 213.853 27.2052 213.541 27.0594 213.134C26.9135 212.728 26.8406 212.259 26.8406 211.728C26.8406 211.197 26.9031 210.764 27.0281 210.431C27.1531 210.098 27.3094 209.853 27.4969 209.697C27.6844 209.541 27.9239 209.431 28.2156 209.369C28.3927 209.337 28.7156 209.322 29.1844 209.322H30.5906C31.5698 209.322 32.1896 209.301 32.45 209.259C32.7104 209.207 32.9604 209.113 33.2 208.978V210.087C32.9812 210.192 32.726 210.259 32.4344 210.291ZM30.075 210.384C30.2312 210.77 30.3666 211.343 30.4812 212.103C30.5437 212.541 30.6166 212.848 30.7 213.025C30.7729 213.202 30.8823 213.343 31.0281 213.447C31.1739 213.541 31.3406 213.587 31.5281 213.587C31.8094 213.587 32.0437 213.483 32.2312 213.275C32.4187 213.056 32.5125 212.744 32.5125 212.337C32.5125 211.931 32.4239 211.572 32.2469 211.259C32.0698 210.936 31.825 210.702 31.5125 210.556C31.2729 210.442 30.9239 210.384 30.4656 210.384H30.075Z" fill="black"/>
<path d="M82.7 369.566C82.7 368.545 82.8042 367.727 83.0125 367.113C83.2208 366.488 83.5281 366.008 83.9344 365.675C84.351 365.342 84.8719 365.175 85.4969 365.175C85.9552 365.175 86.3562 365.269 86.7 365.456C87.0542 365.644 87.3458 365.915 87.575 366.269C87.8042 366.613 87.9812 367.034 88.1062 367.534C88.2312 368.034 88.2937 368.712 88.2937 369.566C88.2937 370.576 88.1896 371.389 87.9812 372.003C87.7833 372.618 87.476 373.097 87.0594 373.441C86.6531 373.774 86.1323 373.941 85.4969 373.941C84.674 373.941 84.0229 373.644 83.5437 373.05C82.9812 372.342 82.7 371.18 82.7 369.566ZM83.7781 369.566C83.7781 370.972 83.9448 371.909 84.2781 372.378C84.6115 372.847 85.0177 373.081 85.4969 373.081C85.9865 373.081 86.3927 372.847 86.7156 372.378C87.049 371.909 87.2156 370.972 87.2156 369.566C87.2156 368.149 87.049 367.212 86.7156 366.753C86.3927 366.284 85.9812 366.05 85.4812 366.05C85.0021 366.05 84.6167 366.253 84.325 366.659C83.9604 367.18 83.7781 368.149 83.7781 369.566Z" fill="black"/>
<path d="M67.2469 303.209V304.225H61.5594C61.5594 303.975 61.601 303.73 61.6844 303.491C61.8302 303.105 62.0594 302.725 62.3719 302.35C62.6948 301.975 63.1583 301.543 63.7625 301.053C64.7 300.282 65.3302 299.673 65.6531 299.225C65.9865 298.777 66.1531 298.355 66.1531 297.959C66.1531 297.543 66.0021 297.194 65.7 296.913C65.3979 296.621 65.0073 296.475 64.5281 296.475C64.0177 296.475 63.6115 296.626 63.3094 296.928C63.0073 297.23 62.851 297.652 62.8406 298.194L61.7625 298.084C61.8354 297.272 62.1115 296.657 62.5906 296.241C63.0802 295.814 63.7365 295.6 64.5594 295.6C65.3823 295.6 66.0333 295.829 66.5125 296.288C66.9917 296.746 67.2312 297.314 67.2312 297.991C67.2312 298.334 67.1583 298.673 67.0125 299.006C66.8771 299.329 66.6427 299.678 66.3094 300.053C65.9865 300.418 65.45 300.918 64.7 301.553C64.0646 302.084 63.6531 302.449 63.4656 302.647C63.2885 302.834 63.1427 303.022 63.0281 303.209H67.2469ZM68.7 301.975L69.8094 301.881C69.8927 302.423 70.0802 302.829 70.3719 303.1C70.674 303.371 71.0385 303.506 71.4656 303.506C71.9656 303.506 72.3927 303.314 72.7469 302.928C73.101 302.543 73.2781 302.038 73.2781 301.413C73.2781 300.808 73.1062 300.334 72.7625 299.991C72.4292 299.637 71.9865 299.459 71.4344 299.459C71.101 299.459 70.7937 299.538 70.5125 299.694C70.2417 299.85 70.0281 300.048 69.8719 300.288L68.8875 300.163L69.7156 295.756H73.9969V296.756H70.5594L70.1062 299.069C70.6167 298.704 71.1531 298.522 71.7156 298.522C72.4656 298.522 73.0958 298.782 73.6062 299.303C74.1271 299.824 74.3875 300.496 74.3875 301.319C74.3875 302.09 74.1635 302.762 73.7156 303.334C73.1635 304.022 72.4135 304.366 71.4656 304.366C70.6844 304.366 70.0437 304.147 69.5437 303.709C69.0542 303.272 68.7729 302.694 68.7 301.975ZM75.7 299.991C75.7 298.97 75.8042 298.152 76.0125 297.538C76.2208 296.913 76.5281 296.433 76.9344 296.1C77.351 295.767 77.8719 295.6 78.4969 295.6C78.9552 295.6 79.3562 295.694 79.7 295.881C80.0542 296.069 80.3458 296.34 80.575 296.694C80.8042 297.038 80.9812 297.459 81.1062 297.959C81.2312 298.459 81.2937 299.137 81.2937 299.991C81.2937 301.001 81.1896 301.814 80.9812 302.428C80.7833 303.043 80.476 303.522 80.0594 303.866C79.6531 304.199 79.1323 304.366 78.4969 304.366C77.674 304.366 77.0229 304.069 76.5437 303.475C75.9812 302.767 75.7 301.605 75.7 299.991ZM76.7781 299.991C76.7781 301.397 76.9448 302.334 77.2781 302.803C77.6115 303.272 78.0177 303.506 78.4969 303.506C78.9865 303.506 79.3927 303.272 79.7156 302.803C80.049 302.334 80.2156 301.397 80.2156 299.991C80.2156 298.574 80.049 297.637 79.7156 297.178C79.3927 296.709 78.9812 296.475 78.4812 296.475C78.0021 296.475 77.6167 296.678 77.325 297.084C76.9604 297.605 76.7781 298.574 76.7781 299.991ZM82.7 299.991C82.7 298.97 82.8042 298.152 83.0125 297.538C83.2208 296.913 83.5281 296.433 83.9344 296.1C84.351 295.767 84.8719 295.6 85.4969 295.6C85.9552 295.6 86.3562 295.694 86.7 295.881C87.0542 296.069 87.3458 296.34 87.575 296.694C87.8042 297.038 87.9812 297.459 88.1062 297.959C88.2312 298.459 88.2937 299.137 88.2937 299.991C88.2937 301.001 88.1896 301.814 87.9812 302.428C87.7833 303.043 87.476 303.522 87.0594 303.866C86.6531 304.199 86.1323 304.366 85.4969 304.366C84.674 304.366 84.0229 304.069 83.5437 303.475C82.9812 302.767 82.7 301.605 82.7 299.991ZM83.7781 299.991C83.7781 301.397 83.9448 302.334 84.2781 302.803C84.6115 303.272 85.0177 303.506 85.4969 303.506C85.9865 303.506 86.3927 303.272 86.7156 302.803C87.049 302.334 87.2156 301.397 87.2156 299.991C87.2156 298.574 87.049 297.637 86.7156 297.178C86.3927 296.709 85.9812 296.475 85.4812 296.475C85.0021 296.475 84.6167 296.678 84.325 297.084C83.9604 297.605 83.7781 298.574 83.7781 299.991Z" fill="black"/>
<path d="M61.7 232.4L62.8094 232.306C62.8927 232.848 63.0802 233.254 63.3719 233.525C63.674 233.796 64.0385 233.931 64.4656 233.931C64.9656 233.931 65.3927 233.738 65.7469 233.353C66.101 232.968 66.2781 232.462 66.2781 231.837C66.2781 231.233 66.1062 230.759 65.7625 230.416C65.4292 230.061 64.9865 229.884 64.4344 229.884C64.101 229.884 63.7937 229.962 63.5125 230.119C63.2417 230.275 63.0281 230.473 62.8719 230.712L61.8875 230.587L62.7156 226.181H66.9969V227.181H63.5594L63.1062 229.494C63.6167 229.129 64.1531 228.947 64.7156 228.947C65.4656 228.947 66.0958 229.207 66.6062 229.728C67.1271 230.249 67.3875 230.921 67.3875 231.744C67.3875 232.514 67.1635 233.186 66.7156 233.759C66.1635 234.447 65.4135 234.791 64.4656 234.791C63.6844 234.791 63.0437 234.572 62.5437 234.134C62.0542 233.697 61.7729 233.119 61.7 232.4ZM68.7 230.416C68.7 229.395 68.8042 228.577 69.0125 227.962C69.2208 227.337 69.5281 226.858 69.9344 226.525C70.351 226.192 70.8719 226.025 71.4969 226.025C71.9552 226.025 72.3562 226.119 72.7 226.306C73.0542 226.494 73.3458 226.764 73.575 227.119C73.8042 227.462 73.9812 227.884 74.1062 228.384C74.2312 228.884 74.2937 229.561 74.2937 230.416C74.2937 231.426 74.1896 232.238 73.9812 232.853C73.7833 233.468 73.476 233.947 73.0594 234.291C72.6531 234.624 72.1323 234.791 71.4969 234.791C70.674 234.791 70.0229 234.494 69.5437 233.9C68.9812 233.192 68.7 232.03 68.7 230.416ZM69.7781 230.416C69.7781 231.822 69.9448 232.759 70.2781 233.228C70.6115 233.697 71.0177 233.931 71.4969 233.931C71.9865 233.931 72.3927 233.697 72.7156 233.228C73.049 232.759 73.2156 231.822 73.2156 230.416C73.2156 228.999 73.049 228.061 72.7156 227.603C72.3927 227.134 71.9812 226.9 71.4812 226.9C71.0021 226.9 70.6167 227.103 70.325 227.509C69.9604 228.03 69.7781 228.999 69.7781 230.416ZM75.7 230.416C75.7 229.395 75.8042 228.577 76.0125 227.962C76.2208 227.337 76.5281 226.858 76.9344 226.525C77.351 226.192 77.8719 226.025 78.4969 226.025C78.9552 226.025 79.3562 226.119 79.7 226.306C80.0542 226.494 80.3458 226.764 80.575 227.119C80.8042 227.462 80.9812 227.884 81.1062 228.384C81.2312 228.884 81.2937 229.561 81.2937 230.416C81.2937 231.426 81.1896 232.238 80.9812 232.853C80.7833 233.468 80.476 233.947 80.0594 234.291C79.6531 234.624 79.1323 234.791 78.4969 234.791C77.674 234.791 77.0229 234.494 76.5437 233.9C75.9812 233.192 75.7 232.03 75.7 230.416ZM76.7781 230.416C76.7781 231.822 76.9448 232.759 77.2781 233.228C77.6115 233.697 78.0177 233.931 78.4969 233.931C78.9865 233.931 79.3927 233.697 79.7156 233.228C80.049 232.759 80.2156 231.822 80.2156 230.416C80.2156 228.999 80.049 228.061 79.7156 227.603C79.3927 227.134 78.9812 226.9 78.4812 226.9C78.0021 226.9 77.6167 227.103 77.325 227.509C76.9604 228.03 76.7781 228.999 76.7781 230.416ZM82.7 230.416C82.7 229.395 82.8042 228.577 83.0125 227.962C83.2208 227.337 83.5281 226.858 83.9344 226.525C84.351 226.192 84.8719 226.025 85.4969 226.025C85.9552 226.025 86.3562 226.119 86.7 226.306C87.0542 226.494 87.3458 226.764 87.575 227.119C87.8042 227.462 87.9812 227.884 88.1062 228.384C88.2312 228.884 88.2937 229.561 88.2937 230.416C88.2937 231.426 88.1896 232.238 87.9812 232.853C87.7833 233.468 87.476 233.947 87.0594 234.291C86.6531 234.624 86.1323 234.791 85.4969 234.791C84.674 234.791 84.0229 234.494 83.5437 233.9C82.9812 233.192 82.7 232.03 82.7 230.416ZM83.7781 230.416C83.7781 231.822 83.9448 232.759 84.2781 233.228C84.6115 233.697 85.0177 233.931 85.4969 233.931C85.9865 233.931 86.3927 233.697 86.7156 233.228C87.049 232.759 87.2156 231.822 87.2156 230.416C87.2156 228.999 87.049 228.061 86.7156 227.603C86.3927 227.134 85.9812 226.9 85.4812 226.9C85.0021 226.9 84.6167 227.103 84.325 227.509C83.9604 228.03 83.7781 228.999 83.7781 230.416Z" fill="black"/>
<path d="M61.7625 157.606V156.591H67.325V157.419C66.7833 158.002 66.2417 158.778 65.7 159.747C65.1687 160.705 64.7573 161.695 64.4656 162.716C64.2469 163.434 64.1115 164.221 64.0594 165.075H62.9656C62.976 164.398 63.1062 163.58 63.3562 162.622C63.6167 161.663 63.9812 160.742 64.45 159.856C64.9292 158.971 65.4396 158.221 65.9812 157.606H61.7625ZM68.7 162.825L69.8094 162.731C69.8927 163.273 70.0802 163.679 70.3719 163.95C70.674 164.221 71.0385 164.356 71.4656 164.356C71.9656 164.356 72.3927 164.163 72.7469 163.778C73.101 163.393 73.2781 162.887 73.2781 162.262C73.2781 161.658 73.1062 161.184 72.7625 160.841C72.4292 160.486 71.9865 160.309 71.4344 160.309C71.101 160.309 70.7937 160.387 70.5125 160.544C70.2417 160.7 70.0281 160.898 69.8719 161.137L68.8875 161.012L69.7156 156.606H73.9969V157.606H70.5594L70.1062 159.919C70.6167 159.554 71.1531 159.372 71.7156 159.372C72.4656 159.372 73.0958 159.632 73.6062 160.153C74.1271 160.674 74.3875 161.346 74.3875 162.169C74.3875 162.94 74.1635 163.611 73.7156 164.184C73.1635 164.872 72.4135 165.216 71.4656 165.216C70.6844 165.216 70.0437 164.997 69.5437 164.559C69.0542 164.122 68.7729 163.544 68.7 162.825ZM75.7 160.841C75.7 159.82 75.8042 159.002 76.0125 158.387C76.2208 157.762 76.5281 157.283 76.9344 156.95C77.351 156.617 77.8719 156.45 78.4969 156.45C78.9552 156.45 79.3562 156.544 79.7 156.731C80.0542 156.919 80.3458 157.19 80.575 157.544C80.8042 157.887 80.9812 158.309 81.1062 158.809C81.2312 159.309 81.2937 159.986 81.2937 160.841C81.2937 161.851 81.1896 162.663 80.9812 163.278C80.7833 163.893 80.476 164.372 80.0594 164.716C79.6531 165.049 79.1323 165.216 78.4969 165.216C77.674 165.216 77.0229 164.919 76.5437 164.325C75.9812 163.617 75.7 162.455 75.7 160.841ZM76.7781 160.841C76.7781 162.247 76.9448 163.184 77.2781 163.653C77.6115 164.122 78.0177 164.356 78.4969 164.356C78.9865 164.356 79.3927 164.122 79.7156 163.653C80.049 163.184 80.2156 162.247 80.2156 160.841C80.2156 159.424 80.049 158.486 79.7156 158.028C79.3927 157.559 78.9812 157.325 78.4812 157.325C78.0021 157.325 77.6167 157.528 77.325 157.934C76.9604 158.455 76.7781 159.424 76.7781 160.841ZM82.7 160.841C82.7 159.82 82.8042 159.002 83.0125 158.387C83.2208 157.762 83.5281 157.283 83.9344 156.95C84.351 156.617 84.8719 156.45 85.4969 156.45C85.9552 156.45 86.3562 156.544 86.7 156.731C87.0542 156.919 87.3458 157.19 87.575 157.544C87.8042 157.887 87.9812 158.309 88.1062 158.809C88.2312 159.309 88.2937 159.986 88.2937 160.841C88.2937 161.851 88.1896 162.663 87.9812 163.278C87.7833 163.893 87.476 164.372 87.0594 164.716C86.6531 165.049 86.1323 165.216 85.4969 165.216C84.674 165.216 84.0229 164.919 83.5437 164.325C82.9812 163.617 82.7 162.455 82.7 160.841ZM83.7781 160.841C83.7781 162.247 83.9448 163.184 84.2781 163.653C84.6115 164.122 85.0177 164.356 85.4969 164.356C85.9865 164.356 86.3927 164.122 86.7156 163.653C87.049 163.184 87.2156 162.247 87.2156 160.841C87.2156 159.424 87.049 158.486 86.7156 158.028C86.3927 157.559 85.9812 157.325 85.4812 157.325C85.0021 157.325 84.6167 157.528 84.325 157.934C83.9604 158.455 83.7781 159.424 83.7781 160.841Z" fill="black"/>
<path d="M58.6688 95.5H57.6219V88.7812C57.3615 89.0208 57.0229 89.2656 56.6063 89.5156C56.2 89.7552 55.8354 89.9323 55.5125 90.0469V89.0312C56.0958 88.75 56.6063 88.4167 57.0438 88.0312C57.4917 87.6354 57.8094 87.25 57.9969 86.875H58.6688V95.5ZM61.7 91.2656C61.7 90.2448 61.8042 89.4271 62.0125 88.8125C62.2208 88.1875 62.5281 87.7083 62.9344 87.375C63.3511 87.0417 63.8719 86.875 64.4969 86.875C64.9552 86.875 65.3563 86.9688 65.7 87.1562C66.0542 87.3438 66.3458 87.6146 66.575 87.9688C66.8042 88.3125 66.9813 88.7344 67.1063 89.2344C67.2313 89.7344 67.2938 90.4115 67.2938 91.2656C67.2938 92.276 67.1896 93.0885 66.9813 93.7031C66.7833 94.3177 66.4761 94.7969 66.0594 95.1406C65.6531 95.474 65.1323 95.6406 64.4969 95.6406C63.674 95.6406 63.0229 95.3438 62.5438 94.75C61.9813 94.0417 61.7 92.8802 61.7 91.2656ZM62.7781 91.2656C62.7781 92.6719 62.9448 93.6094 63.2781 94.0781C63.6115 94.5469 64.0177 94.7812 64.4969 94.7812C64.9865 94.7812 65.3927 94.5469 65.7156 94.0781C66.049 93.6094 66.2156 92.6719 66.2156 91.2656C66.2156 89.849 66.049 88.9115 65.7156 88.4531C65.3927 87.9844 64.9813 87.75 64.4813 87.75C64.0021 87.75 63.6167 87.9531 63.325 88.3594C62.9604 88.8802 62.7781 89.849 62.7781 91.2656ZM68.7 91.2656C68.7 90.2448 68.8042 89.4271 69.0125 88.8125C69.2208 88.1875 69.5281 87.7083 69.9344 87.375C70.3511 87.0417 70.8719 86.875 71.4969 86.875C71.9552 86.875 72.3563 86.9688 72.7 87.1562C73.0542 87.3438 73.3458 87.6146 73.575 87.9688C73.8042 88.3125 73.9813 88.7344 74.1063 89.2344C74.2313 89.7344 74.2938 90.4115 74.2938 91.2656C74.2938 92.276 74.1896 93.0885 73.9813 93.7031C73.7833 94.3177 73.4761 94.7969 73.0594 95.1406C72.6531 95.474 72.1323 95.6406 71.4969 95.6406C70.674 95.6406 70.0229 95.3438 69.5438 94.75C68.9813 94.0417 68.7 92.8802 68.7 91.2656ZM69.7781 91.2656C69.7781 92.6719 69.9448 93.6094 70.2781 94.0781C70.6115 94.5469 71.0177 94.7812 71.4969 94.7812C71.9865 94.7812 72.3927 94.5469 72.7156 94.0781C73.049 93.6094 73.2156 92.6719 73.2156 91.2656C73.2156 89.849 73.049 88.9115 72.7156 88.4531C72.3927 87.9844 71.9813 87.75 71.4813 87.75C71.0021 87.75 70.6167 87.9531 70.325 88.3594C69.9604 88.8802 69.7781 89.849 69.7781 91.2656ZM75.7 91.2656C75.7 90.2448 75.8042 89.4271 76.0125 88.8125C76.2208 88.1875 76.5281 87.7083 76.9344 87.375C77.3511 87.0417 77.8719 86.875 78.4969 86.875C78.9552 86.875 79.3563 86.9688 79.7 87.1562C80.0542 87.3438 80.3458 87.6146 80.575 87.9688C80.8042 88.3125 80.9813 88.7344 81.1063 89.2344C81.2313 89.7344 81.2938 90.4115 81.2938 91.2656C81.2938 92.276 81.1896 93.0885 80.9813 93.7031C80.7833 94.3177 80.4761 94.7969 80.0594 95.1406C79.6531 95.474 79.1323 95.6406 78.4969 95.6406C77.674 95.6406 77.0229 95.3438 76.5438 94.75C75.9813 94.0417 75.7 92.8802 75.7 91.2656ZM76.7781 91.2656C76.7781 92.6719 76.9448 93.6094 77.2781 94.0781C77.6115 94.5469 78.0177 94.7812 78.4969 94.7812C78.9865 94.7812 79.3927 94.5469 79.7156 94.0781C80.049 93.6094 80.2156 92.6719 80.2156 91.2656C80.2156 89.849 80.049 88.9115 79.7156 88.4531C79.3927 87.9844 78.9813 87.75 78.4813 87.75C78.0021 87.75 77.6167 87.9531 77.325 88.3594C76.9604 88.8802 76.7781 89.849 76.7781 91.2656ZM82.7 91.2656C82.7 90.2448 82.8042 89.4271 83.0125 88.8125C83.2208 88.1875 83.5281 87.7083 83.9344 87.375C84.3511 87.0417 84.8719 86.875 85.4969 86.875C85.9552 86.875 86.3563 86.9688 86.7 87.1562C87.0542 87.3438 87.3458 87.6146 87.575 87.9688C87.8042 88.3125 87.9813 88.7344 88.1063 89.2344C88.2313 89.7344 88.2938 90.4115 88.2938 91.2656C88.2938 92.276 88.1896 93.0885 87.9813 93.7031C87.7833 94.3177 87.4761 94.7969 87.0594 95.1406C86.6531 95.474 86.1323 95.6406 85.4969 95.6406C84.674 95.6406 84.0229 95.3438 83.5438 94.75C82.9813 94.0417 82.7 92.8802 82.7 91.2656ZM83.7781 91.2656C83.7781 92.6719 83.9448 93.6094 84.2781 94.0781C84.6115 94.5469 85.0177 94.7812 85.4969 94.7812C85.9865 94.7812 86.3927 94.5469 86.7156 94.0781C87.049 93.6094 87.2156 92.6719 87.2156 91.2656C87.2156 89.849 87.049 88.9115 86.7156 88.4531C86.3927 87.9844 85.9813 87.75 85.4813 87.75C85.0021 87.75 84.6167 87.9531 84.325 88.3594C83.9604 88.8802 83.7781 89.849 83.7781 91.2656Z" fill="black"/>
<path d="M173.975 386.8V384.738H170.256V383.769L174.178 378.206H175.038V383.769H176.194V384.738H175.038V386.8H173.975ZM173.975 383.769V379.909L171.288 383.769H173.975ZM180.975 386.8V384.738H177.256V383.769L181.178 378.206H182.038V383.769H183.194V384.738H182.038V386.8H180.975ZM180.975 383.769V379.909L178.288 383.769H180.975ZM184.6 382.566C184.6 381.545 184.704 380.727 184.913 380.113C185.121 379.488 185.428 379.008 185.834 378.675C186.251 378.342 186.772 378.175 187.397 378.175C187.855 378.175 188.256 378.269 188.6 378.456C188.954 378.644 189.246 378.915 189.475 379.269C189.704 379.613 189.881 380.034 190.006 380.534C190.131 381.034 190.194 381.712 190.194 382.566C190.194 383.576 190.09 384.389 189.881 385.003C189.683 385.618 189.376 386.097 188.959 386.441C188.553 386.774 188.032 386.941 187.397 386.941C186.574 386.941 185.923 386.644 185.444 386.05C184.881 385.342 184.6 384.18 184.6 382.566ZM185.678 382.566C185.678 383.972 185.845 384.909 186.178 385.378C186.511 385.847 186.918 386.081 187.397 386.081C187.886 386.081 188.293 385.847 188.616 385.378C188.949 384.909 189.116 383.972 189.116 382.566C189.116 381.149 188.949 380.212 188.616 379.753C188.293 379.284 187.881 379.05 187.381 379.05C186.902 379.05 186.517 379.253 186.225 379.659C185.86 380.18 185.678 381.149 185.678 382.566ZM191.6 382.566C191.6 381.545 191.704 380.727 191.913 380.113C192.121 379.488 192.428 379.008 192.834 378.675C193.251 378.342 193.772 378.175 194.397 378.175C194.855 378.175 195.256 378.269 195.6 378.456C195.954 378.644 196.246 378.915 196.475 379.269C196.704 379.613 196.881 380.034 197.006 380.534C197.131 381.034 197.194 381.712 197.194 382.566C197.194 383.576 197.09 384.389 196.881 385.003C196.683 385.618 196.376 386.097 195.959 386.441C195.553 386.774 195.032 386.941 194.397 386.941C193.574 386.941 192.923 386.644 192.444 386.05C191.881 385.342 191.6 384.18 191.6 382.566ZM192.678 382.566C192.678 383.972 192.845 384.909 193.178 385.378C193.511 385.847 193.918 386.081 194.397 386.081C194.886 386.081 195.293 385.847 195.616 385.378C195.949 384.909 196.116 383.972 196.116 382.566C196.116 381.149 195.949 380.212 195.616 379.753C195.293 379.284 194.881 379.05 194.381 379.05C193.902 379.05 193.517 379.253 193.225 379.659C192.86 380.18 192.678 381.149 192.678 382.566ZM198.6 382.566C198.6 381.545 198.704 380.727 198.913 380.113C199.121 379.488 199.428 379.008 199.834 378.675C200.251 378.342 200.772 378.175 201.397 378.175C201.855 378.175 202.256 378.269 202.6 378.456C202.954 378.644 203.246 378.915 203.475 379.269C203.704 379.613 203.881 380.034 204.006 380.534C204.131 381.034 204.194 381.712 204.194 382.566C204.194 383.576 204.09 384.389 203.881 385.003C203.683 385.618 203.376 386.097 202.959 386.441C202.553 386.774 202.032 386.941 201.397 386.941C200.574 386.941 199.923 386.644 199.444 386.05C198.881 385.342 198.6 384.18 198.6 382.566ZM199.678 382.566C199.678 383.972 199.845 384.909 200.178 385.378C200.511 385.847 200.918 386.081 201.397 386.081C201.886 386.081 202.293 385.847 202.616 385.378C202.949 384.909 203.116 383.972 203.116 382.566C203.116 381.149 202.949 380.212 202.616 379.753C202.293 379.284 201.881 379.05 201.381 379.05C200.902 379.05 200.517 379.253 200.225 379.659C199.86 380.18 199.678 381.149 199.678 382.566Z" fill="black"/>
<path d="M293.975 386.8V384.738H290.256V383.769L294.178 378.206H295.038V383.769H296.194V384.738H295.038V386.8H293.975ZM293.975 383.769V379.909L291.288 383.769H293.975ZM300.975 386.8V384.738H297.256V383.769L301.178 378.206H302.038V383.769H303.194V384.738H302.038V386.8H300.975ZM300.975 383.769V379.909L298.288 383.769H300.975ZM310.147 385.784V386.8H304.459C304.459 386.55 304.501 386.305 304.584 386.066C304.73 385.68 304.959 385.3 305.272 384.925C305.595 384.55 306.058 384.118 306.663 383.628C307.6 382.857 308.23 382.248 308.553 381.8C308.886 381.352 309.053 380.93 309.053 380.534C309.053 380.118 308.902 379.769 308.6 379.488C308.298 379.196 307.907 379.05 307.428 379.05C306.918 379.05 306.511 379.201 306.209 379.503C305.907 379.805 305.751 380.227 305.741 380.769L304.663 380.659C304.735 379.847 305.011 379.232 305.491 378.816C305.98 378.389 306.636 378.175 307.459 378.175C308.282 378.175 308.933 378.404 309.413 378.863C309.892 379.321 310.131 379.889 310.131 380.566C310.131 380.909 310.058 381.248 309.913 381.581C309.777 381.904 309.543 382.253 309.209 382.628C308.886 382.993 308.35 383.493 307.6 384.128C306.965 384.659 306.553 385.024 306.366 385.222C306.189 385.409 306.043 385.597 305.928 385.784H310.147ZM311.6 382.566C311.6 381.545 311.704 380.727 311.913 380.113C312.121 379.488 312.428 379.008 312.834 378.675C313.251 378.342 313.772 378.175 314.397 378.175C314.855 378.175 315.256 378.269 315.6 378.456C315.954 378.644 316.246 378.915 316.475 379.269C316.704 379.613 316.881 380.034 317.006 380.534C317.131 381.034 317.194 381.712 317.194 382.566C317.194 383.576 317.09 384.389 316.881 385.003C316.683 385.618 316.376 386.097 315.959 386.441C315.553 386.774 315.032 386.941 314.397 386.941C313.574 386.941 312.923 386.644 312.444 386.05C311.881 385.342 311.6 384.18 311.6 382.566ZM312.678 382.566C312.678 383.972 312.845 384.909 313.178 385.378C313.511 385.847 313.918 386.081 314.397 386.081C314.886 386.081 315.293 385.847 315.616 385.378C315.949 384.909 316.116 383.972 316.116 382.566C316.116 381.149 315.949 380.212 315.616 379.753C315.293 379.284 314.881 379.05 314.381 379.05C313.902 379.05 313.517 379.253 313.225 379.659C312.86 380.18 312.678 381.149 312.678 382.566ZM318.6 382.566C318.6 381.545 318.704 380.727 318.913 380.113C319.121 379.488 319.428 379.008 319.834 378.675C320.251 378.342 320.772 378.175 321.397 378.175C321.855 378.175 322.256 378.269 322.6 378.456C322.954 378.644 323.246 378.915 323.475 379.269C323.704 379.613 323.881 380.034 324.006 380.534C324.131 381.034 324.194 381.712 324.194 382.566C324.194 383.576 324.09 384.389 323.881 385.003C323.683 385.618 323.376 386.097 322.959 386.441C322.553 386.774 322.032 386.941 321.397 386.941C320.574 386.941 319.923 386.644 319.444 386.05C318.881 385.342 318.6 384.18 318.6 382.566ZM319.678 382.566C319.678 383.972 319.845 384.909 320.178 385.378C320.511 385.847 320.918 386.081 321.397 386.081C321.886 386.081 322.293 385.847 322.616 385.378C322.949 384.909 323.116 383.972 323.116 382.566C323.116 381.149 322.949 380.212 322.616 379.753C322.293 379.284 321.881 379.05 321.381 379.05C320.902 379.05 320.517 379.253 320.225 379.659C319.86 380.18 319.678 381.149 319.678 382.566Z" fill="black"/>
<path d="M413.975 386.8V384.738H410.256V383.769L414.178 378.206H415.038V383.769H416.194V384.738H415.038V386.8H413.975ZM413.975 383.769V379.909L411.288 383.769H413.975ZM420.975 386.8V384.738H417.256V383.769L421.178 378.206H422.038V383.769H423.194V384.738H422.038V386.8H420.975ZM420.975 383.769V379.909L418.288 383.769H420.975ZM427.975 386.8V384.738H424.256V383.769L428.178 378.206H429.038V383.769H430.194V384.738H429.038V386.8H427.975ZM427.975 383.769V379.909L425.288 383.769H427.975ZM431.6 382.566C431.6 381.545 431.704 380.727 431.913 380.113C432.121 379.488 432.428 379.008 432.834 378.675C433.251 378.342 433.772 378.175 434.397 378.175C434.855 378.175 435.256 378.269 435.6 378.456C435.954 378.644 436.246 378.915 436.475 379.269C436.704 379.613 436.881 380.034 437.006 380.534C437.131 381.034 437.194 381.712 437.194 382.566C437.194 383.576 437.09 384.389 436.881 385.003C436.683 385.618 436.376 386.097 435.959 386.441C435.553 386.774 435.032 386.941 434.397 386.941C433.574 386.941 432.923 386.644 432.444 386.05C431.881 385.342 431.6 384.18 431.6 382.566ZM432.678 382.566C432.678 383.972 432.845 384.909 433.178 385.378C433.511 385.847 433.918 386.081 434.397 386.081C434.886 386.081 435.293 385.847 435.616 385.378C435.949 384.909 436.116 383.972 436.116 382.566C436.116 381.149 435.949 380.212 435.616 379.753C435.293 379.284 434.881 379.05 434.381 379.05C433.902 379.05 433.517 379.253 433.225 379.659C432.86 380.18 432.678 381.149 432.678 382.566ZM438.6 382.566C438.6 381.545 438.704 380.727 438.913 380.113C439.121 379.488 439.428 379.008 439.834 378.675C440.251 378.342 440.772 378.175 441.397 378.175C441.855 378.175 442.256 378.269 442.6 378.456C442.954 378.644 443.246 378.915 443.475 379.269C443.704 379.613 443.881 380.034 444.006 380.534C444.131 381.034 444.194 381.712 444.194 382.566C444.194 383.576 444.09 384.389 443.881 385.003C443.683 385.618 443.376 386.097 442.959 386.441C442.553 386.774 442.032 386.941 441.397 386.941C440.574 386.941 439.923 386.644 439.444 386.05C438.881 385.342 438.6 384.18 438.6 382.566ZM439.678 382.566C439.678 383.972 439.845 384.909 440.178 385.378C440.511 385.847 440.918 386.081 441.397 386.081C441.886 386.081 442.293 385.847 442.616 385.378C442.949 384.909 443.116 383.972 443.116 382.566C443.116 381.149 442.949 380.212 442.616 379.753C442.293 379.284 441.881 379.05 441.381 379.05C440.902 379.05 440.517 379.253 440.225 379.659C439.86 380.18 439.678 381.149 439.678 382.566Z" fill="black"/>
<path d="M533.975 386.8V384.738H530.256V383.769L534.178 378.206H535.037V383.769H536.194V384.738H535.037V386.8H533.975ZM533.975 383.769V379.909L531.287 383.769H533.975ZM540.975 386.8V384.738H537.256V383.769L541.178 378.206H542.037V383.769H543.194V384.738H542.037V386.8H540.975ZM540.975 383.769V379.909L538.287 383.769H540.975ZM550.069 380.316L549.022 380.394C548.928 379.977 548.798 379.675 548.631 379.488C548.34 379.185 547.985 379.034 547.569 379.034C547.235 379.034 546.939 379.128 546.678 379.316C546.355 379.566 546.095 379.925 545.897 380.394C545.709 380.852 545.61 381.508 545.6 382.363C545.85 381.977 546.157 381.691 546.522 381.503C546.897 381.316 547.287 381.222 547.694 381.222C548.392 381.222 548.985 381.482 549.475 382.003C549.975 382.524 550.225 383.191 550.225 384.003C550.225 384.545 550.105 385.05 549.866 385.519C549.636 385.977 549.319 386.331 548.912 386.581C548.506 386.821 548.048 386.941 547.537 386.941C546.652 386.941 545.933 386.618 545.381 385.972C544.829 385.326 544.553 384.264 544.553 382.784C544.553 381.118 544.86 379.909 545.475 379.159C546.006 378.503 546.725 378.175 547.631 378.175C548.308 378.175 548.86 378.368 549.287 378.753C549.725 379.128 549.985 379.649 550.069 380.316ZM545.772 384.019C545.772 384.383 545.845 384.732 545.991 385.066C546.147 385.389 546.36 385.639 546.631 385.816C546.912 385.993 547.209 386.081 547.522 386.081C547.959 386.081 548.34 385.904 548.662 385.55C548.985 385.185 549.147 384.696 549.147 384.081C549.147 383.488 548.985 383.019 548.662 382.675C548.35 382.331 547.954 382.159 547.475 382.159C546.996 382.159 546.59 382.331 546.256 382.675C545.933 383.019 545.772 383.467 545.772 384.019ZM551.6 382.566C551.6 381.545 551.704 380.727 551.912 380.113C552.121 379.488 552.428 379.008 552.834 378.675C553.251 378.342 553.772 378.175 554.397 378.175C554.855 378.175 555.256 378.269 555.6 378.456C555.954 378.644 556.246 378.915 556.475 379.269C556.704 379.613 556.881 380.034 557.006 380.534C557.131 381.034 557.194 381.712 557.194 382.566C557.194 383.576 557.09 384.389 556.881 385.003C556.683 385.618 556.376 386.097 555.959 386.441C555.553 386.774 555.032 386.941 554.397 386.941C553.574 386.941 552.923 386.644 552.444 386.05C551.881 385.342 551.6 384.18 551.6 382.566ZM552.678 382.566C552.678 383.972 552.845 384.909 553.178 385.378C553.511 385.847 553.918 386.081 554.397 386.081C554.886 386.081 555.293 385.847 555.616 385.378C555.949 384.909 556.116 383.972 556.116 382.566C556.116 381.149 555.949 380.212 555.616 379.753C555.293 379.284 554.881 379.05 554.381 379.05C553.902 379.05 553.517 379.253 553.225 379.659C552.86 380.18 552.678 381.149 552.678 382.566ZM558.6 382.566C558.6 381.545 558.704 380.727 558.912 380.113C559.121 379.488 559.428 379.008 559.834 378.675C560.251 378.342 560.772 378.175 561.397 378.175C561.855 378.175 562.256 378.269 562.6 378.456C562.954 378.644 563.246 378.915 563.475 379.269C563.704 379.613 563.881 380.034 564.006 380.534C564.131 381.034 564.194 381.712 564.194 382.566C564.194 383.576 564.09 384.389 563.881 385.003C563.683 385.618 563.376 386.097 562.959 386.441C562.553 386.774 562.032 386.941 561.397 386.941C560.574 386.941 559.923 386.644 559.444 386.05C558.881 385.342 558.6 384.18 558.6 382.566ZM559.678 382.566C559.678 383.972 559.845 384.909 560.178 385.378C560.511 385.847 560.918 386.081 561.397 386.081C561.886 386.081 562.293 385.847 562.616 385.378C562.949 384.909 563.116 383.972 563.116 382.566C563.116 381.149 562.949 380.212 562.616 379.753C562.293 379.284 561.881 379.05 561.381 379.05C560.902 379.05 560.517 379.253 560.225 379.659C559.86 380.18 559.678 381.149 559.678 382.566Z" fill="black"/>
<path d="M653.975 386.8V384.738H650.256V383.769L654.178 378.206H655.037V383.769H656.194V384.738H655.037V386.8H653.975ZM653.975 383.769V379.909L651.287 383.769H653.975ZM660.975 386.8V384.738H657.256V383.769L661.178 378.206H662.037V383.769H663.194V384.738H662.037V386.8H660.975ZM660.975 383.769V379.909L658.287 383.769H660.975ZM666.225 382.144C665.787 381.977 665.459 381.748 665.241 381.456C665.032 381.154 664.928 380.8 664.928 380.394C664.928 379.769 665.152 379.243 665.6 378.816C666.058 378.389 666.657 378.175 667.397 378.175C668.147 378.175 668.751 378.394 669.209 378.831C669.668 379.269 669.897 379.8 669.897 380.425C669.897 380.821 669.793 381.165 669.584 381.456C669.376 381.748 669.058 381.977 668.631 382.144C669.162 382.31 669.564 382.587 669.834 382.972C670.105 383.357 670.241 383.816 670.241 384.347C670.241 385.076 669.98 385.691 669.459 386.191C668.949 386.691 668.267 386.941 667.412 386.941C666.569 386.941 665.886 386.691 665.366 386.191C664.845 385.691 664.584 385.066 664.584 384.316C664.584 383.753 664.725 383.284 665.006 382.909C665.298 382.534 665.704 382.279 666.225 382.144ZM666.006 380.347C666.006 380.753 666.136 381.087 666.397 381.347C666.668 381.607 667.011 381.738 667.428 381.738C667.834 381.738 668.168 381.613 668.428 381.363C668.689 381.102 668.819 380.784 668.819 380.409C668.819 380.024 668.683 379.701 668.412 379.441C668.142 379.17 667.808 379.034 667.412 379.034C667.006 379.034 666.668 379.165 666.397 379.425C666.136 379.685 666.006 379.993 666.006 380.347ZM665.678 384.316C665.678 384.618 665.746 384.909 665.881 385.191C666.027 385.472 666.241 385.691 666.522 385.847C666.803 386.003 667.105 386.081 667.428 386.081C667.928 386.081 668.34 385.92 668.662 385.597C668.996 385.274 669.162 384.863 669.162 384.363C669.162 383.852 668.996 383.43 668.662 383.097C668.329 382.764 667.907 382.597 667.397 382.597C666.897 382.597 666.485 382.764 666.162 383.097C665.84 383.42 665.678 383.826 665.678 384.316ZM671.6 382.566C671.6 381.545 671.704 380.727 671.912 380.113C672.121 379.488 672.428 379.008 672.834 378.675C673.251 378.342 673.772 378.175 674.397 378.175C674.855 378.175 675.256 378.269 675.6 378.456C675.954 378.644 676.246 378.915 676.475 379.269C676.704 379.613 676.881 380.034 677.006 380.534C677.131 381.034 677.194 381.712 677.194 382.566C677.194 383.576 677.09 384.389 676.881 385.003C676.683 385.618 676.376 386.097 675.959 386.441C675.553 386.774 675.032 386.941 674.397 386.941C673.574 386.941 672.923 386.644 672.444 386.05C671.881 385.342 671.6 384.18 671.6 382.566ZM672.678 382.566C672.678 383.972 672.845 384.909 673.178 385.378C673.511 385.847 673.918 386.081 674.397 386.081C674.886 386.081 675.293 385.847 675.616 385.378C675.949 384.909 676.116 383.972 676.116 382.566C676.116 381.149 675.949 380.212 675.616 379.753C675.293 379.284 674.881 379.05 674.381 379.05C673.902 379.05 673.517 379.253 673.225 379.659C672.86 380.18 672.678 381.149 672.678 382.566ZM678.6 382.566C678.6 381.545 678.704 380.727 678.912 380.113C679.121 379.488 679.428 379.008 679.834 378.675C680.251 378.342 680.772 378.175 681.397 378.175C681.855 378.175 682.256 378.269 682.6 378.456C682.954 378.644 683.246 378.915 683.475 379.269C683.704 379.613 683.881 380.034 684.006 380.534C684.131 381.034 684.194 381.712 684.194 382.566C684.194 383.576 684.09 384.389 683.881 385.003C683.683 385.618 683.376 386.097 682.959 386.441C682.553 386.774 682.032 386.941 681.397 386.941C680.574 386.941 679.923 386.644 679.444 386.05C678.881 385.342 678.6 384.18 678.6 382.566ZM679.678 382.566C679.678 383.972 679.845 384.909 680.178 385.378C680.511 385.847 680.918 386.081 681.397 386.081C681.886 386.081 682.293 385.847 682.616 385.378C682.949 384.909 683.116 383.972 683.116 382.566C683.116 381.149 682.949 380.212 682.616 379.753C682.293 379.284 681.881 379.05 681.381 379.05C680.902 379.05 680.517 379.253 680.225 379.659C679.86 380.18 679.678 381.149 679.678 382.566Z" fill="black"/>
<path d="M576.847 65.5125V66.7H570.222C570.211 66.4083 570.258 66.1218 570.363 65.8406C570.54 65.3927 570.81 64.95 571.175 64.5125C571.55 64.0749 572.086 63.5697 572.784 62.9968C573.878 62.101 574.613 61.3927 574.988 60.8718C575.373 60.351 575.566 59.8562 575.566 59.3875C575.566 58.8979 575.389 58.4864 575.034 58.1531C574.691 57.8197 574.243 57.6531 573.691 57.6531C573.097 57.6531 572.618 57.8302 572.253 58.1843C571.899 58.5385 571.722 59.0333 571.722 59.6687L570.456 59.5281C570.54 58.5906 570.862 57.877 571.425 57.3875C571.998 56.8875 572.758 56.6375 573.706 56.6375C574.675 56.6375 575.435 56.9031 575.988 57.4343C576.55 57.9656 576.831 58.627 576.831 59.4187C576.831 59.825 576.748 60.2208 576.581 60.6062C576.425 60.9916 576.154 61.3979 575.769 61.825C575.394 62.252 574.764 62.8406 573.878 63.5906C573.139 64.2052 572.665 64.627 572.456 64.8562C572.248 65.0749 572.076 65.2937 571.941 65.5125H576.847ZM578.378 61.7625C578.378 60.575 578.498 59.6218 578.738 58.9031C578.988 58.1739 579.352 57.6166 579.831 57.2312C580.31 56.8354 580.915 56.6375 581.644 56.6375C582.185 56.6375 582.659 56.7468 583.066 56.9656C583.472 57.1843 583.805 57.4968 584.066 57.9031C584.336 58.3093 584.545 58.8041 584.691 59.3875C584.836 59.9708 584.909 60.7625 584.909 61.7625C584.909 62.9395 584.79 63.8874 584.55 64.6062C584.31 65.3249 583.951 65.8822 583.472 66.2781C582.993 66.6739 582.383 66.8718 581.644 66.8718C580.685 66.8718 579.93 66.5229 579.378 65.825C578.711 64.9916 578.378 63.6375 578.378 61.7625ZM579.644 61.7625C579.644 63.4083 579.836 64.502 580.222 65.0437C580.607 65.5854 581.081 65.8562 581.644 65.8562C582.217 65.8562 582.696 65.5854 583.081 65.0437C583.467 64.4916 583.659 63.3979 583.659 61.7625C583.659 60.1062 583.467 59.0072 583.081 58.4656C582.696 57.9239 582.211 57.6531 581.628 57.6531C581.066 57.6531 580.618 57.8927 580.284 58.3718C579.857 58.9864 579.644 60.1166 579.644 61.7625ZM592.847 65.5125V66.7H586.222C586.211 66.4083 586.258 66.1218 586.363 65.8406C586.54 65.3927 586.81 64.95 587.175 64.5125C587.55 64.0749 588.086 63.5697 588.784 62.9968C589.878 62.101 590.613 61.3927 590.988 60.8718C591.373 60.351 591.566 59.8562 591.566 59.3875C591.566 58.8979 591.389 58.4864 591.034 58.1531C590.691 57.8197 590.243 57.6531 589.691 57.6531C589.097 57.6531 588.618 57.8302 588.253 58.1843C587.899 58.5385 587.722 59.0333 587.722 59.6687L586.456 59.5281C586.54 58.5906 586.862 57.877 587.425 57.3875C587.998 56.8875 588.758 56.6375 589.706 56.6375C590.675 56.6375 591.435 56.9031 591.988 57.4343C592.55 57.9656 592.831 58.627 592.831 59.4187C592.831 59.825 592.748 60.2208 592.581 60.6062C592.425 60.9916 592.154 61.3979 591.769 61.825C591.394 62.252 590.764 62.8406 589.878 63.5906C589.139 64.2052 588.665 64.627 588.456 64.8562C588.248 65.0749 588.076 65.2937 587.941 65.5125H592.847ZM600.847 65.5125V66.7H594.222C594.211 66.4083 594.258 66.1218 594.363 65.8406C594.54 65.3927 594.81 64.95 595.175 64.5125C595.55 64.0749 596.086 63.5697 596.784 62.9968C597.878 62.101 598.613 61.3927 598.988 60.8718C599.373 60.351 599.566 59.8562 599.566 59.3875C599.566 58.8979 599.389 58.4864 599.034 58.1531C598.691 57.8197 598.243 57.6531 597.691 57.6531C597.097 57.6531 596.618 57.8302 596.253 58.1843C595.899 58.5385 595.722 59.0333 595.722 59.6687L594.456 59.5281C594.54 58.5906 594.862 57.877 595.425 57.3875C595.998 56.8875 596.758 56.6375 597.706 56.6375C598.675 56.6375 599.435 56.9031 599.988 57.4343C600.55 57.9656 600.831 58.627 600.831 59.4187C600.831 59.825 600.748 60.2208 600.581 60.6062C600.425 60.9916 600.154 61.3979 599.769 61.825C599.394 62.252 598.764 62.8406 597.878 63.5906C597.139 64.2052 596.665 64.627 596.456 64.8562C596.248 65.0749 596.076 65.2937 595.941 65.5125H600.847Z" fill="#999999"/>
<path d="M606.175 58.1687C605.487 59.3666 604.633 60.3666 603.612 61.1687L602.847 60.1843C604.336 59.0906 605.357 57.5072 605.909 55.4343L607.159 55.7625C607.305 55.9083 607.253 55.9968 607.003 56.0281L606.566 57.1218H614.269V58.1687H610.284V60.0281H613.566V61.0593H610.284V63.5281H614.878V64.5593H610.284V67.8562H609.191V64.5593H602.894V63.5281H605.362V60.0281H609.191V58.1687H606.175ZM606.456 63.5281H609.191V61.0593H606.456V63.5281Z" fill="#999999"/>
<path d="M616.566 64.3875L617.753 64.2781C617.847 64.8302 618.034 65.2312 618.316 65.4812C618.607 65.7312 618.972 65.8562 619.409 65.8562C619.784 65.8562 620.112 65.7729 620.394 65.6062C620.685 65.4291 620.92 65.1947 621.097 64.9031C621.284 64.6114 621.441 64.2208 621.566 63.7312C621.691 63.2416 621.753 62.7416 621.753 62.2312C621.753 62.1791 621.748 62.0958 621.737 61.9812C621.498 62.377 621.165 62.7 620.737 62.95C620.31 63.1895 619.847 63.3093 619.347 63.3093C618.514 63.3093 617.81 63.0072 617.237 62.4031C616.665 61.7989 616.378 61.0072 616.378 60.0281C616.378 59.0072 616.675 58.1895 617.269 57.575C617.873 56.95 618.628 56.6375 619.534 56.6375C620.18 56.6375 620.774 56.8145 621.316 57.1687C621.857 57.5125 622.269 58.0125 622.55 58.6687C622.831 59.3145 622.972 60.252 622.972 61.4812C622.972 62.7625 622.831 63.7833 622.55 64.5437C622.279 65.3041 621.868 65.8822 621.316 66.2781C620.764 66.6739 620.118 66.8718 619.378 66.8718C618.597 66.8718 617.956 66.6531 617.456 66.2156C616.967 65.7781 616.67 65.1687 616.566 64.3875ZM621.597 59.9656C621.597 59.2572 621.409 58.6947 621.034 58.2781C620.659 57.8614 620.211 57.6531 619.691 57.6531C619.139 57.6531 618.659 57.877 618.253 58.325C617.847 58.7729 617.644 59.351 617.644 60.0593C617.644 60.6947 617.836 61.2156 618.222 61.6218C618.607 62.0177 619.081 62.2156 619.644 62.2156C620.217 62.2156 620.685 62.0177 621.05 61.6218C621.415 61.2156 621.597 60.6635 621.597 59.9656Z" fill="#999999"/>
<path d="M633.706 63.5281H628.503C628.503 65.0906 627.701 66.5697 626.097 67.9656L625.175 66.9187C626.665 65.9708 627.409 64.5489 627.409 62.6531V55.9812H634.8V66.7625C634.8 67.3458 634.487 67.6375 633.862 67.6375H632.55L632.331 66.4187H633.487C633.633 66.4187 633.706 66.3458 633.706 66.2V63.5281ZM628.503 62.325H633.706V60.3562H628.503V62.325ZM628.503 59.1531H633.706V57.1843H628.503V59.1531Z" fill="#999999"/>
<path d="M644.847 65.5125V66.7H638.222C638.211 66.4083 638.258 66.1218 638.363 65.8406C638.54 65.3927 638.81 64.95 639.175 64.5125C639.55 64.0749 640.086 63.5697 640.784 62.9968C641.878 62.101 642.613 61.3927 642.988 60.8718C643.373 60.351 643.566 59.8562 643.566 59.3875C643.566 58.8979 643.389 58.4864 643.034 58.1531C642.691 57.8197 642.243 57.6531 641.691 57.6531C641.097 57.6531 640.618 57.8302 640.253 58.1843C639.899 58.5385 639.722 59.0333 639.722 59.6687L638.456 59.5281C638.54 58.5906 638.862 57.877 639.425 57.3875C639.998 56.8875 640.758 56.6375 641.706 56.6375C642.675 56.6375 643.435 56.9031 643.988 57.4343C644.55 57.9656 644.831 58.627 644.831 59.4187C644.831 59.825 644.748 60.2208 644.581 60.6062C644.425 60.9916 644.154 61.3979 643.769 61.825C643.394 62.252 642.764 62.8406 641.878 63.5906C641.139 64.2052 640.665 64.627 640.456 64.8562C640.248 65.0749 640.076 65.2937 639.941 65.5125H644.847ZM646.566 64.3875L647.753 64.2781C647.847 64.8302 648.034 65.2312 648.316 65.4812C648.607 65.7312 648.972 65.8562 649.409 65.8562C649.784 65.8562 650.113 65.7729 650.394 65.6062C650.685 65.4291 650.92 65.1947 651.097 64.9031C651.284 64.6114 651.441 64.2208 651.566 63.7312C651.691 63.2416 651.753 62.7416 651.753 62.2312C651.753 62.1791 651.748 62.0958 651.738 61.9812C651.498 62.377 651.165 62.7 650.738 62.95C650.31 63.1895 649.847 63.3093 649.347 63.3093C648.514 63.3093 647.81 63.0072 647.238 62.4031C646.665 61.7989 646.378 61.0072 646.378 60.0281C646.378 59.0072 646.675 58.1895 647.269 57.575C647.873 56.95 648.628 56.6375 649.534 56.6375C650.18 56.6375 650.774 56.8145 651.316 57.1687C651.857 57.5125 652.269 58.0125 652.55 58.6687C652.831 59.3145 652.972 60.252 652.972 61.4812C652.972 62.7625 652.831 63.7833 652.55 64.5437C652.279 65.3041 651.868 65.8822 651.316 66.2781C650.764 66.6739 650.118 66.8718 649.378 66.8718C648.597 66.8718 647.956 66.6531 647.456 66.2156C646.967 65.7781 646.67 65.1687 646.566 64.3875ZM651.597 59.9656C651.597 59.2572 651.409 58.6947 651.034 58.2781C650.659 57.8614 650.211 57.6531 649.691 57.6531C649.139 57.6531 648.659 57.877 648.253 58.325C647.847 58.7729 647.644 59.351 647.644 60.0593C647.644 60.6947 647.836 61.2156 648.222 61.6218C648.607 62.0177 649.081 62.2156 649.644 62.2156C650.217 62.2156 650.685 62.0177 651.05 61.6218C651.415 61.2156 651.597 60.6635 651.597 59.9656Z" fill="#999999"/>
<path d="M657.8 67.2H656.534V56.6375H665.128V66.9812H663.862V66.2H657.8V67.2ZM663.862 60.7937V57.6687H657.8V60.7937H663.862ZM663.862 65.1687V61.825H657.8V65.1687H663.862ZM678.081 59.8562H680.659V60.7312H678.362V61.9968H680.222V62.8718H678.362V64.1843H680.222V65.0593H678.362V66.4187H681.097V67.3093H675.566V67.8562H674.644V61.7781C674.352 62.1739 673.987 62.5385 673.55 62.8718L673.159 61.825C674.545 60.5854 675.441 59.2937 675.847 57.95H674.581V59.2H673.659V57.075H676.066C676.211 56.4916 676.336 55.8718 676.441 55.2156L677.534 55.4812C677.649 55.5958 677.612 55.7052 677.425 55.8093C677.321 56.2468 677.211 56.6687 677.097 57.075H680.987V58.9812H680.05V57.95H676.878C676.659 58.7104 676.368 59.3458 676.003 59.8562H677.159L677.862 58.2156L678.909 58.4343C679.086 58.5072 679.05 58.601 678.8 58.7156L678.081 59.8562ZM668.847 57.3406V56.3093H673.487V57.3406H671.581C671.508 58.476 671.269 59.5177 670.862 60.4656H673.003V66.9812H672.066V66.0906H670.644V67.5281H669.722V62.5906C669.503 62.9552 669.264 63.2833 669.003 63.575L668.3 62.6531C669.571 61.226 670.316 59.4552 670.534 57.3406H668.847ZM675.566 62.8718V64.1843H677.425V62.8718H675.566ZM675.566 60.7312V61.9968H677.425V60.7312H675.566ZM675.566 65.0593V66.4187H677.425V65.0593H675.566ZM670.644 61.3406V65.2156H672.066V61.3406H670.644ZM687.222 61.45C688.566 61.0854 689.42 60.3718 689.784 59.3093L688.316 58.7156L688.691 57.7781L690.003 58.2781L690.112 56.9656H687.816V55.9187H694.378L694.269 60.6218C694.237 61.5385 693.857 61.9968 693.128 61.9968H691.862L691.753 60.95H692.909C693.128 60.95 693.237 60.8406 693.237 60.6218L693.347 56.9656H691.206L691.05 58.7156L692.362 59.4187L691.862 60.4031L690.769 59.8093C690.3 61.1531 689.264 62.0645 687.659 62.5437L687.222 61.45ZM694.159 66.9187C693.868 65.8249 693.415 64.877 692.8 64.075L693.784 63.6375C694.586 64.6166 695.097 65.5437 695.316 66.4187L694.159 66.9187ZM686.831 63.4656V67.6843H685.909V67.3093H684.05V67.9031H683.112V63.4656H686.831ZM687.269 66.9812C687.529 66.0645 687.696 65.0229 687.769 63.8562L688.862 63.9656C688.935 63.9968 688.899 64.0854 688.753 64.2312C688.711 65.3979 688.545 66.4031 688.253 67.2468L687.269 66.9812ZM690.769 61.6687C691.279 61.9916 691.79 62.5541 692.3 63.3562L691.269 63.9656C691.008 63.4552 690.571 62.8718 689.956 62.2156L690.769 61.6687ZM683.331 55.7H686.612V56.7468H683.331V55.7ZM682.628 57.5593H687.331V58.6062H682.628V57.5593ZM683.331 59.5906H686.612V60.6218H683.331V59.5906ZM683.331 61.45H686.612V62.4812H683.331V61.45ZM684.05 64.3406V66.4187H685.909V64.3406H684.05ZM690.222 63.3093C690.514 63.3406 690.534 63.45 690.284 63.6375V66.2C690.284 66.4604 690.394 66.5906 690.612 66.5906H691.816C692.034 66.5906 692.159 66.4812 692.191 66.2625L692.3 65.3875L693.394 65.6531L693.175 66.8093C693.071 67.3614 692.743 67.6375 692.191 67.6375H690.112C689.498 67.6375 689.191 67.3041 689.191 66.6375V63.3093H690.222Z" fill="#999999"/>
<path d="M27.1219 40.0281L28.9969 39.95C30.0906 37.1895 31.1063 33.9604 32.0438 30.2625L34.1531 30.9656C34.7261 31.1739 34.5958 31.3822 33.7625 31.5906C32.7729 34.351 31.7833 37.1114 30.7938 39.8718L37.5906 39.2468C36.549 37.6322 35.6896 36.3822 35.0125 35.4968L36.4188 34.5593C38.2417 36.6427 39.7261 38.9343 40.8719 41.4343L39.2313 42.6062C38.8667 41.877 38.5542 41.252 38.2938 40.7312L28.6063 41.9031C28.2938 42.5281 28.0073 42.5281 27.7469 41.9031L27.1219 40.0281ZM33.3719 27.6062H40.325V29.325H26.7313V35.0281C26.7313 38.2052 26.0542 40.8354 24.7 42.9187L23.45 41.5125C24.5958 39.7937 25.1688 37.502 25.1688 34.6375V27.6062H31.575V24.8718H33.2938C33.7104 24.9239 33.7365 25.0802 33.3719 25.3406V27.6062ZM51.8875 26.825H57.5906V32.8406H47.6688V33.8562H60.7938V35.1062H47.6688V36.1218H60.5594L60.0906 40.6531C59.9344 42.2677 59.2833 43.075 58.1375 43.075H55.7938L55.5594 41.3562H45.8719V42.2156H44.3094V37.9968H45.7938C46.2104 38.0489 46.2365 38.2052 45.8719 38.4656V40.1062H49.3875V37.3718H47.7469H46.1063V26.825H50.2469L51.0281 24.95L52.825 25.2625C53.0333 25.4708 52.9552 25.601 52.5906 25.6531L51.8875 26.825ZM50.95 37.3718V40.1062H54.4656V38.075H55.95C56.3667 38.127 56.3927 38.2833 56.0281 38.5437V41.3562H57.5125C58.0333 41.3562 58.3198 41.1218 58.3719 40.6531L58.7625 37.3718H50.95ZM47.6688 31.5906H56.0281V30.4968H47.6688V31.5906ZM47.6688 29.2468H56.0281V28.075H47.6688V29.2468ZM76.1844 37.6062C77.2261 38.6479 78.7625 39.6895 80.7938 40.7312L79.8563 42.3718C78.0854 41.5385 76.4188 40.3406 74.8563 38.7781L76.1844 37.6062ZM69.3875 39.0125C68.5021 40.2625 67.1479 41.4864 65.325 42.6843L64.1531 41.2C65.8198 40.2104 67.1479 39.0385 68.1375 37.6843L69.6219 38.5437C69.8823 38.752 69.8042 38.9083 69.3875 39.0125ZM66.1844 36.9812V37.7625H64.6219V26.5125H66.1063C66.5229 26.5645 66.549 26.7208 66.1844 26.9812V35.4968H80.5594V36.9812H73.2938V42.9968H71.4969V36.9812H66.1844ZM69.6219 33.2312H76.4188V31.7468H69.6219V33.2312ZM69.6219 30.4968H76.4188V29.2468H69.6219V30.4968ZM69.6219 27.9968H76.4188V26.7468H69.6219V27.9968ZM68.0594 34.4812V25.4968H77.9813V34.4812H68.0594ZM92.9813 30.1843C92.0958 35.3927 91.0281 38.6218 89.7781 39.8718C89.1011 40.5489 88.3979 40.8875 87.6688 40.8875C86.8354 40.8875 86.1844 40.6531 85.7156 40.1843C84.4656 38.9343 83.8406 37.3718 83.8406 35.4968C83.8406 33.2052 84.6479 31.252 86.2625 29.6375C88.0333 27.8666 90.1948 26.9812 92.7469 26.9812C95.0386 26.9812 96.8354 27.6322 98.1375 28.9343C99.5958 30.3927 100.325 32.1114 100.325 34.0906C100.325 36.226 99.6479 37.9708 98.2938 39.325C97.4083 40.2104 96.0542 41.0697 94.2313 41.9031L92.5906 40.2625C94.4136 39.6895 95.8458 38.8822 96.8875 37.8406C97.8771 36.851 98.3719 35.6531 98.3719 34.2468C98.3719 32.5802 97.825 31.2 96.7313 30.1062C95.6375 29.0125 93.9188 28.5177 91.575 28.6218L92.9813 29.325C93.6063 29.5854 93.6063 29.8718 92.9813 30.1843ZM91.1844 28.7C89.8302 29.0125 88.6583 29.6635 87.6688 30.6531C86.3146 32.0072 85.6375 33.6739 85.6375 35.6531C85.6375 36.851 86.0281 37.8406 86.8094 38.6218C86.9656 38.7781 87.2 38.8562 87.5125 38.8562C87.825 38.8562 88.1636 38.6739 88.5281 38.3093C89.7261 37.1114 90.6115 33.9083 91.1844 28.7ZM110.325 41.5125C112.46 40.3666 113.528 38.4135 113.528 35.6531V26.6687L115.169 26.9812L119.388 25.6531L120.559 27.2156C120.664 27.5281 120.481 27.5802 120.013 27.3718L115.091 28.3093V31.6687H121.263V33.1531H118.919V42.9187H117.356V33.1531H115.091V36.1218C115.091 39.1947 113.789 41.4864 111.184 42.9968L110.325 41.5125ZM108.841 42.9968H107.278V38.3093C106.445 39.6635 105.533 40.7312 104.544 41.5125L103.372 40.1062C104.83 39.0645 106.054 37.7625 107.044 36.2H103.763V34.7156H107.278V32.9968H103.294V31.5125H108.763L109.622 28.7H103.841V27.2156H107.278V25.0281H108.763C109.179 25.0802 109.205 25.2364 108.841 25.4968V27.2156H112.278V28.7H111.263L110.169 31.5125H112.669V32.9968H108.841V34.7156H112.278V36.2H108.841V36.9031C109.57 37.1114 110.585 37.6583 111.888 38.5437L110.95 40.1062C110.221 39.377 109.518 38.8041 108.841 38.3875V42.9968ZM105.716 31.3562C105.507 30.627 105.221 29.9239 104.856 29.2468L106.341 28.7781C106.757 29.4552 107.07 30.1583 107.278 30.8875L105.716 31.3562ZM138.45 33.5437H133.372V35.2625H138.45V33.5437ZM136.341 36.7468H134.934V37.5281C134.934 40.7572 133.085 42.6583 129.388 43.2312L128.919 41.5906C131.888 41.226 133.372 39.8197 133.372 37.3718V36.7468H132.591H131.809V25.8093H140.013V36.7468H137.903V40.6531C137.903 41.0697 138.085 41.2781 138.45 41.2781H139.231C139.492 41.2781 139.648 41.0177 139.7 40.4968L139.856 39.1687L141.419 39.6375L141.184 41.4343C141.08 42.3197 140.585 42.7625 139.7 42.7625H137.747C136.809 42.7625 136.341 42.3197 136.341 41.4343V36.7468ZM133.372 32.0593H138.45V30.4187H133.372V32.0593ZM133.372 28.9343H138.45V27.2937H133.372V28.9343ZM127.747 35.8875C128.789 36.3562 130.013 37.2156 131.419 38.4656L130.325 40.1062C129.231 38.9083 128.268 38.0229 127.434 37.45C126.914 39.7416 125.82 41.5385 124.153 42.8406L122.981 41.4343C125.273 39.5072 126.367 37.0072 126.263 33.9343H123.294V32.45H126.341V29.6375H123.841V28.1531H126.341V25.0281H127.825C128.242 25.0802 128.268 25.2364 127.903 25.4968V28.1531H130.638V29.6375H127.903V32.45H131.028V33.9343H127.825C127.825 34.7677 127.799 35.4187 127.747 35.8875ZM147.825 32.1375C148.815 33.4916 149.309 34.8979 149.309 36.3562C149.309 38.3875 148.71 39.4031 147.513 39.4031H146.575L146.263 37.8406H147.044C147.565 37.8406 147.799 37.2937 147.747 36.2C147.695 34.6895 147.226 33.3614 146.341 32.2156L147.903 27.1375H145.481V42.7625H143.919V25.8875H148.294L148.606 25.4968L149.934 26.6687L149.622 26.9812L147.825 32.1375ZM159.153 36.5125H158.372C157.539 40.3145 154.752 42.502 150.013 43.075L149.544 41.5906C153.606 41.2781 156.054 39.5854 156.888 36.5125H155.794C154.908 38.7 153.033 40.0281 150.169 40.4968L149.7 39.1687C152.096 38.6479 153.58 37.7625 154.153 36.5125H152.903C152.174 37.2416 151.236 37.8145 150.091 38.2312L149.466 36.9031C151.132 36.3822 152.278 35.3927 152.903 33.9343H149.388V32.6843H161.106V33.9343H154.544C154.335 34.4031 154.075 34.8458 153.763 35.2625H160.638L160.481 40.1843C160.429 41.851 159.83 42.6843 158.684 42.6843H157.122L156.888 41.2H158.216C158.684 41.2 158.945 40.8875 158.997 40.2625L159.153 36.5125ZM152.513 30.4187H157.825V29.0906H152.513V30.4187ZM152.513 27.8406H157.825V26.5906H152.513V27.8406ZM159.153 25.3406V31.6687H151.184V25.3406H159.153ZM172.434 29.325H174.544V25.2625H176.028C176.445 25.3145 176.471 25.4708 176.106 25.7312V29.325H180.325V30.8093H176.106V34.5593H180.091V36.0437H176.106V40.6531H181.263V42.1375H169.309V40.6531H174.544V36.0437H170.716V34.5593H174.544V30.8093H171.966C171.601 31.851 171.028 32.8927 170.247 33.9343L168.919 32.9187C170.273 31.1479 171.158 29.0125 171.575 26.5125L173.059 26.825C173.476 26.9812 173.476 27.1375 173.059 27.2937L172.434 29.325ZM165.794 25.0281H167.278C167.695 25.0802 167.721 25.2364 167.356 25.4968V42.8406H165.794V25.0281ZM168.763 28.2312C169.231 28.8562 169.622 29.5593 169.934 30.3406L168.684 31.2C168.32 30.3145 167.955 29.5854 167.591 29.0125L168.763 28.2312ZM165.325 29.0906C165.69 29.1947 165.69 29.351 165.325 29.5593C165.221 31.226 164.986 32.7885 164.622 34.2468L163.138 33.7781C163.554 32.476 163.789 30.8354 163.841 28.8562L165.325 29.0906ZM198.138 33.6218V42.6843H196.575V41.9031H189.544V42.9187H187.981V35.8093C186.627 36.5385 185.169 37.1114 183.606 37.5281L183.059 36.1218C184.518 35.7572 186.158 35.1062 187.981 34.1687V33.6218H189.075C190.169 32.9968 191.106 32.3718 191.888 31.7468H183.684V30.2625H190.559V28.3875H185.716V26.9031H190.559V25.0281H192.044C192.46 25.0802 192.486 25.2364 192.122 25.4968V26.9031H195.872V28.2312C196.497 27.5541 197.122 26.7989 197.747 25.9656L198.841 26.6687C199.205 26.9291 199.153 27.0854 198.684 27.1375C197.695 28.3354 196.705 29.377 195.716 30.2625H201.106V31.7468H194.075C193.033 32.6322 192.2 33.2572 191.575 33.6218H198.138ZM193.606 30.2625C194.231 29.7937 194.934 29.1687 195.716 28.3875H192.122V30.2625H193.606ZM189.544 36.9812H196.575V34.8718H189.544V36.9812ZM189.544 40.6531H196.575V38.2312H189.544V40.6531ZM216.731 36.9031C217.46 35.4968 217.903 33.3614 218.059 30.4968H215.403C215.559 33.3614 216.002 35.4968 216.731 36.9031ZM219.622 30.4968C219.518 33.726 218.893 36.3302 217.747 38.3093C218.58 39.351 219.752 40.2625 221.263 41.0437L220.247 42.7625C218.58 41.6687 217.408 40.627 216.731 39.6375C215.533 40.9916 213.684 42.1635 211.184 43.1531L210.403 41.5906C213.111 40.4968 214.908 39.377 215.794 38.2312C214.908 36.5125 214.414 34.7937 214.309 33.075C213.997 33.8562 213.684 34.4552 213.372 34.8718L212.044 33.8562C213.606 31.5645 214.544 28.726 214.856 25.3406L216.497 25.7312C216.809 25.9395 216.731 26.0958 216.263 26.2C216.106 27.1375 215.898 28.075 215.638 29.0125H220.95V30.4968H219.622ZM212.356 26.7468C212.044 27.5281 211.679 28.1791 211.263 28.7L210.013 27.9968C210.429 27.3197 210.82 26.5385 211.184 25.6531L212.591 26.3562C212.799 26.5645 212.721 26.6947 212.356 26.7468ZM207.356 37.7625C208.085 37.9708 208.736 38.2052 209.309 38.4656C209.726 37.9968 210.065 37.2937 210.325 36.3562H208.059C207.851 36.825 207.617 37.2937 207.356 37.7625ZM206.263 39.7156L205.013 39.0125C205.533 38.2312 206.054 37.3458 206.575 36.3562H203.606V35.1062H207.044C207.356 34.4291 207.591 33.8562 207.747 33.3875L209.231 33.7781C209.44 33.9864 209.361 34.1166 208.997 34.1687L208.528 35.1062H212.981V36.3562H211.809C211.549 37.3979 211.158 38.2833 210.638 39.0125C211.106 39.2208 211.601 39.4812 212.122 39.7937L211.419 41.0437C210.846 40.6791 210.325 40.3927 209.856 40.1843C208.502 41.5385 206.679 42.3718 204.388 42.6843L203.841 41.2781C205.872 41.0697 207.434 40.4968 208.528 39.5593C207.955 39.2989 207.382 39.0645 206.809 38.8562L206.263 39.7156ZM207.825 25.0281H209.075C209.492 25.0802 209.518 25.2364 209.153 25.4968V28.8562H213.138V30.1062H209.856C210.429 30.7833 211.315 31.4343 212.513 32.0593L211.653 33.3875C210.768 32.8666 209.934 32.1375 209.153 31.2V33.075H207.825V31.5906C206.992 32.6322 205.846 33.5697 204.388 34.4031L203.372 33.1531C204.986 32.3197 206.315 31.3041 207.356 30.1062H203.763V28.8562H207.825V25.0281ZM205.638 28.6218C205.273 27.8406 204.804 27.1635 204.231 26.5906L205.481 25.8093C206.106 26.4343 206.575 27.0854 206.888 27.7625L205.638 28.6218ZM232.981 30.1843C232.096 35.3927 231.028 38.6218 229.778 39.8718C229.101 40.5489 228.398 40.8875 227.669 40.8875C226.835 40.8875 226.184 40.6531 225.716 40.1843C224.466 38.9343 223.841 37.3718 223.841 35.4968C223.841 33.2052 224.648 31.252 226.263 29.6375C228.033 27.8666 230.195 26.9812 232.747 26.9812C235.039 26.9812 236.835 27.6322 238.138 28.9343C239.596 30.3927 240.325 32.1114 240.325 34.0906C240.325 36.226 239.648 37.9708 238.294 39.325C237.408 40.2104 236.054 41.0697 234.231 41.9031L232.591 40.2625C234.414 39.6895 235.846 38.8822 236.888 37.8406C237.877 36.851 238.372 35.6531 238.372 34.2468C238.372 32.5802 237.825 31.2 236.731 30.1062C235.638 29.0125 233.919 28.5177 231.575 28.6218L232.981 29.325C233.606 29.5854 233.606 29.8718 232.981 30.1843ZM231.184 28.7C229.83 29.0125 228.658 29.6635 227.669 30.6531C226.315 32.0072 225.638 33.6739 225.638 35.6531C225.638 36.851 226.028 37.8406 226.809 38.6218C226.966 38.7781 227.2 38.8562 227.513 38.8562C227.825 38.8562 228.164 38.6739 228.528 38.3093C229.726 37.1114 230.611 33.9083 231.184 28.7ZM248.763 31.825C250.481 30.2104 251.809 27.8666 252.747 24.7937L254.309 25.2625C254.57 25.4708 254.518 25.601 254.153 25.6531C253.736 26.6947 253.32 27.6583 252.903 28.5437H255.247C255.82 27.3458 256.263 26.2781 256.575 25.3406L258.059 25.8875C258.268 26.0958 258.19 26.226 257.825 26.2781C257.46 27.1114 257.096 27.8666 256.731 28.5437H260.716V30.0281H256.731V32.45H259.934V33.9343H256.731V36.4343H259.934V37.9187H256.731V40.8093H261.184V42.2937H252.591V42.9968H251.028V31.6687C250.664 32.1895 250.273 32.6583 249.856 33.075L248.763 31.825ZM244.856 42.8406L244.544 41.3562H245.872C246.08 41.3562 246.184 41.252 246.184 41.0437V36.2L244.153 36.6687C244.101 37.0333 243.971 37.1114 243.763 36.9031L243.45 35.1062L246.184 34.5593V30.4187H243.763V28.9343H246.184V24.95H247.669C248.085 25.002 248.111 25.1583 247.747 25.4187V28.9343H249.778V30.4187H247.747V34.2468L249.778 33.7L250.013 35.1062L247.747 35.8093V41.5906C247.747 42.4239 247.33 42.8406 246.497 42.8406H244.856ZM252.591 40.8093H255.169V37.9187H252.591V40.8093ZM252.591 36.4343H255.169V33.9343H252.591V36.4343ZM252.591 32.45H255.169V30.0281H252.591V32.45ZM278.841 27.1375L279.075 26.825L280.325 27.8406L280.091 28.075C278.736 30.4187 277.408 31.9812 276.106 32.7625L276.888 32.9968C277.252 33.1531 277.226 33.3093 276.809 33.4656C276.705 33.8302 276.575 34.1427 276.419 34.4031H279.778L280.013 34.0906L281.419 35.1062L281.106 35.4187C279.44 39.8458 276.054 42.3458 270.95 42.9187L270.325 41.4343C272.773 41.1739 274.7 40.5229 276.106 39.4812C275.377 38.752 274.648 38.127 273.919 37.6062C273.242 38.1791 272.33 38.7 271.184 39.1687L270.481 37.7625C273.033 36.7208 274.7 35.1322 275.481 32.9968C274.7 33.726 273.294 34.351 271.263 34.8718L270.559 33.4656C272.539 33.0489 274.023 32.502 275.013 31.825C274.492 31.2 273.867 30.6531 273.138 30.1843C272.773 30.5489 272.408 30.8614 272.044 31.1218L270.95 29.95C272.669 28.4916 273.763 26.9291 274.231 25.2625L275.638 25.7312C276.002 25.8875 275.976 26.0437 275.559 26.2C275.507 26.5125 275.377 26.825 275.169 27.1375H278.841ZM268.216 30.1843H270.794V31.6687H268.216V33.6218C269.257 34.0906 270.247 34.7937 271.184 35.7312L270.169 37.1375C269.335 36.3041 268.684 35.7052 268.216 35.3406V42.9187H266.653V35.1843C266.341 36.226 265.481 37.5541 264.075 39.1687L262.903 37.6843C264.83 35.8614 266.028 33.8562 266.497 31.6687H263.45V30.1843H266.653V27.6062C265.611 27.7625 264.674 27.8927 263.841 27.9968L263.45 26.5125C265.533 26.3041 267.695 25.8875 269.934 25.2625L270.794 26.4343C271.002 26.7468 270.872 26.851 270.403 26.7468C269.674 26.9552 268.945 27.1375 268.216 27.2937V30.1843ZM273.919 29.2468C274.7 29.6635 275.455 30.1843 276.184 30.8093C276.966 30.0802 277.617 29.2729 278.138 28.3875H274.544C274.335 28.752 274.127 29.0385 273.919 29.2468ZM274.778 36.6687C275.507 37.0854 276.341 37.7104 277.278 38.5437C278.059 37.9708 278.736 37.0072 279.309 35.6531H275.716C275.403 36.0697 275.091 36.4083 274.778 36.6687ZM286.809 29.325C287.382 28.127 288.346 26.9031 289.7 25.6531L290.559 26.4343C289.257 27.6322 288.346 28.7781 287.825 29.8718C287.252 31.0697 286.966 32.502 286.966 34.1687C286.966 35.575 287.252 36.9031 287.825 38.1531C288.346 39.2989 289.257 40.575 290.559 41.9812L289.7 42.8406C288.398 41.3822 287.434 40.002 286.809 38.7C286.132 37.2937 285.794 35.7833 285.794 34.1687C285.794 32.3458 286.132 30.7312 286.809 29.325ZM297.903 41.9031H296.106V26.825H308.372V41.5906H306.575V40.4968H297.903V41.9031ZM306.575 32.7625V28.3093H297.903V32.7625H306.575ZM306.575 39.0125V34.2468H297.903V39.0125H306.575ZM321.341 35.8093H318.372C317.903 38.7781 316.497 41.1218 314.153 42.8406L313.372 41.3562C315.664 39.7416 316.914 37.3458 317.122 34.1687L317.278 31.7468H316.184V32.7625H314.622V26.0437H322.513V32.45H320.95V31.7468H318.684L318.528 34.325H322.903L322.513 40.4968C322.408 41.7468 321.888 42.3718 320.95 42.3718H318.841L318.606 40.8875H320.325C320.794 40.8875 321.054 40.627 321.106 40.1062L321.341 35.8093ZM329.778 41.2C329.778 42.0854 329.361 42.5281 328.528 42.5281H326.809L326.497 41.0437H327.981C328.138 41.0437 328.216 40.9656 328.216 40.8093V25.8093H329.7C330.117 25.8614 330.143 26.0177 329.778 26.2781V41.2ZM326.028 27.6843C326.445 27.7364 326.471 27.8927 326.106 28.1531V38.8562H324.544V27.6843H326.028ZM320.95 30.4968V27.2937H316.184V30.4968H320.95ZM337.513 38.7C336.888 40.002 335.924 41.3822 334.622 42.8406L333.763 41.9812C335.065 40.575 335.976 39.2989 336.497 38.1531C337.07 36.9031 337.356 35.575 337.356 34.1687C337.356 32.502 337.07 31.0697 336.497 29.8718C335.976 28.7781 335.065 27.6322 333.763 26.4343L334.622 25.6531C335.976 26.9031 336.94 28.127 337.513 29.325C338.19 30.7312 338.528 32.3458 338.528 34.1687C338.528 35.7833 338.19 37.2937 337.513 38.7Z" fill="#757575"/>
</g>
<rect x="2" y="2" width="714" height="440" stroke="black" stroke-width="4"/>
<defs>
<clipPath id="clip0_6_8310">
<rect width="718" height="444" fill="white"/>
</clipPath>
</defs>
</svg>
