<svg width="718" height="444" viewBox="0 0 718 444" fill="none" xmlns="http://www.w3.org/2000/svg">
<g clip-path="url(#clip0_6_9380)">
<path d="M0 0H718V444H0V0Z" fill="white"/>
<path d="M187.5 91.5V369.5" stroke="#CCCCCC" stroke-miterlimit="10"/>
<path d="M307.5 91.5V369.5" stroke="#CCCCCC" stroke-miterlimit="10"/>
<path d="M427.5 91.5V369.5" stroke="#CCCCCC" stroke-miterlimit="10"/>
<path d="M547.5 91.5V369.5" stroke="#CCCCCC" stroke-miterlimit="10"/>
<path d="M667.5 91.5V369.5" stroke="#CCCCCC" stroke-miterlimit="10"/>
<path d="M95.5 369.5H695.5" stroke="#333333" stroke-miterlimit="10"/>
<path d="M95.5 314.5H695.5" stroke="#CCCCCC" stroke-miterlimit="10"/>
<path d="M95.5 258.5H695.5" stroke="#CCCCCC" stroke-miterlimit="10"/>
<path d="M95.5 202.5H695.5" stroke="#CCCCCC" stroke-miterlimit="10"/>
<path d="M95.5 147.5H695.5" stroke="#CCCCCC" stroke-miterlimit="10"/>
<path d="M95.5 91.5H695.5" stroke="#CCCCCC" stroke-miterlimit="10"/>
<path d="M95.2 369.8H95.8H96.4H97H97.6H98.2H98.8H99.4H100H100.6H101.2H101.8H102.4H103H103.6H104.2H104.8H105.4H106H106.6H107.2H107.8H108.4H109H109.6H110.2H110.8H111.4H112H112.6H113.2H113.8H114.4H115H115.6H116.2H116.8H117.4H118H118.6H119.2H119.8H120.4H121H121.6L122.2 369.778L122.8 369.8L123.4 369.755L124 369.8L124.6 369.778L125.2 369.711L125.8 369.755H126.4L127 369.711L127.6 369.6L128.2 369.533L128.8 369.6L129.4 369.577L130 369.555L130.6 369.577L131.2 369.689L131.8 369.711L132.4 369.689L133 369.755L133.6 369.622L134.2 369.666L134.8 369.711L135.4 369.755L136 369.689L136.6 369.778H137.2L137.8 369.733H138.4L139 369.644L139.6 369.711L140.2 369.555L140.8 369.488L141.4 369.644L142 369.666L142.6 369.466L143.2 369.511L143.8 369.666L144.4 369.355H145L145.6 368.932L146.2 369.154L146.8 368.865L147.4 369.422L148 369.377L148.6 369.6L149.2 369.355L149.8 369.11L150.4 369.199L151 369.333L151.6 369.555H152.2L152.8 369.377L153.4 369.422L154 369.355L154.6 369.266L155.2 369.444L155.8 369.622L156.4 369.778L157 369.644L157.6 369.666L158.2 369.733L158.8 369.689L159.4 369.711L160 369.488L160.6 369.8L161.2 369.644L161.8 369.755L162.4 369.733L163 369.778L163.6 369.622L164.2 369.711L164.8 369.755L165.4 369.8L166 369.733L166.6 369.778H167.2H167.8H168.4L169 369.8H169.6H170.2L170.8 369.755L171.4 369.8L172 369.755L172.6 369.8H173.2H173.8H174.4H175H175.6H176.2H176.8H177.4H178H178.6H179.2H179.8H180.4H181H181.6H182.2H182.8H183.4H184H184.6H185.2H185.8H186.4H187H187.6L188.2 369.778L188.8 369.8L189.4 369.755L190 369.8L190.6 369.778H191.2L191.8 369.8L192.4 369.778L193 369.8H193.6H194.2L194.8 369.778L195.4 369.755L196 369.778L196.6 369.8L197.2 369.778L197.8 369.755L198.4 369.711L199 369.778L199.6 369.733L200.2 369.755L200.8 369.711L201.4 369.689L202 369.666L202.6 369.778L203.2 369.6L203.8 369.533L204.4 369.444L205 369.243L205.6 369.511L206.2 369.333L206.8 369.644L207.4 369.533L208 369.132L208.6 369.021L209.2 369.288L209.8 369.266L210.4 368.709L211 369.533L211.6 369.065L212.2 368.776L212.8 368.62L213.4 368.42L214 369.088L214.6 368.464L215.2 369.199L215.8 369.088L216.4 368.642L217 368.442L217.6 368.709L218.2 368.576L218.8 368.731L219.4 369.199L220 369.132L220.6 368.999L221.2 368.731L221.8 369.043L222.4 368.62L223 368.976L223.6 369.266L224.2 369.243L224.8 368.709L225.4 369.043L226 368.932L226.6 369.065L227.2 369.266L227.8 369.622L228.4 369.288L229 369.177L229.6 369.31L230.2 369.221L230.8 369.355L231.4 369.511L232 369.622L232.6 369.333L233.2 369.644L233.8 369.511H234.4L235 369.6L235.6 369.444L236.2 369.666L236.8 369.399L237.4 369.31L238 369.333L238.6 369.488L239.2 369.355L239.8 369.466L240.4 369.622L241 369.288L241.6 369.355L242.2 369.444L242.8 369.533L243.4 369.333L244 369.689L244.6 369.199L245.2 369.511L245.8 369.778L246.4 369.622L247 369.533L247.6 369.31L248.2 369.444L248.8 369.577L249.4 369.377L250 369.466L250.6 369.333L251.2 369.154L251.8 369.466H252.4L253 369.644L253.6 369.399L254.2 369.444L254.8 369.199L255.4 369.444L256 369.533H256.6L257.2 369.622L257.8 369.511L258.4 369.377L259 369.488L259.6 369.399L260.2 369.444L260.8 369.511L261.4 369.689L262 369.488H262.6L263.2 369.422L263.8 369.333L264.4 368.731L265 369.466L265.6 369.666L266.2 369.577L266.8 369.177L267.4 369.422L268 369.355L268.6 369.177L269.2 369.466L269.8 369.577L270.4 368.642L271 368.999L271.6 368.865L272.2 368.709L272.8 369.11L273.4 369.088L274 369.355L274.6 368.486L275.2 368.242L275.8 367.997L276.4 368.264L277 368.041H277.6L278.2 368.909L278.8 367.44L279.4 367.507L280 366.861L280.6 366.928L281.2 366.416L281.8 366.728L282.4 368.086H283L283.6 367.618L284.2 365.726L284.8 367.507L285.4 366.594L286 367.329L286.6 368.576L287.2 367.084L287.8 367.062L288.4 365.993L289 366.928L289.6 366.483L290.2 367.128L290.8 367.44L291.4 366.572L292 366.305L292.6 366.483L293.2 367.618L293.8 366.794L294.4 367.329L295 368.353L295.6 366.594L296.2 366.794L296.8 366.149L297.4 366.95L298 366.995L298.6 367.507L299.2 368.82L299.8 365.57L300.4 366.082L301 366.416L301.6 364.635L302.2 365.904L302.8 366.126L303.4 367.418L304 365.525L304.6 365.614L305.2 365.525L305.8 366.95L306.4 367.485L307 367.618L307.6 367.217L308.2 364.946L308.8 364.323L309.4 363.477L310 363.188L310.6 362.586L311.2 363.833L311.8 366.371L312.4 366.238L313 363.455L313.6 363.299L314.2 363.655L314.8 363.945L315.4 363.388L316 366.505L316.6 364.991L317.2 363.21L317.8 364.546L318.4 363.499L319 364.791L319.6 365.837L320.2 368.019L320.8 366.394L321.4 365.102L322 364.657L322.6 366.216L323.2 366.75L323.8 367.329L324.4 368.464L325 366.817L325.6 367.128L326.2 367.329L326.8 367.663L327.4 367.774L328 368.642L328.6 369.065L329.2 368.286L329.8 367.707L330.4 368.642L331 368.954L331.6 368.576L332.2 368.82L332.8 369.199L333.4 368.776L334 368.153L334.6 368.776L335.2 369.11L335.8 368.865L336.4 369.199L337 369.488L337.6 369.266L338.2 369.399L338.8 368.999L339.4 369.266L340 369.333L340.6 369.221L341.2 369.333L341.8 368.82L342.4 368.909L343 369.333L343.6 368.999L344.2 369.466L344.8 368.887L345.4 369.6L346 368.887H346.6L347.2 368.509L347.8 368.709L348.4 368.598L349 368.976L349.6 369.065L350.2 368.063L350.8 368.175L351.4 368.108L352 368.442L352.6 368.375L353.2 368.776L353.8 369.288L354.4 367.93L355 367.173L355.6 367.574L356.2 367.217L356.8 366.149L357.4 367.752L358 368.242L358.6 365.859L359.2 365.102L359.8 365.37L360.4 365.926L361 365.214L361.6 365.102L362.2 367.863L362.8 363.655L363.4 362.497L364 362.876L364.6 362.809L365.2 361.985L365.8 364.702L366.4 366.26L367 361.095L367.6 358.512L368.2 358.824L368.8 358.445L369.4 357.755L370 360.761L370.6 363.277L371.2 360.293L371.8 357.265L372.4 357.622L373 357.176L373.6 355.662L374.2 359.269L374.8 362.898L375.4 358.557L376 356.442L376.6 357.911L377.2 362.386L377.8 357.8H378.4L379 362.141L379.6 362.297L380.2 362.431L380.8 363.522L381.4 358.824L382 357.154L382.6 361.651L383.2 363.766L383.8 361.406L384.4 361.251L385 361.763L385.6 362.809L386.2 363.143L386.8 363.856L387.4 367.128L388 364.256L388.6 364.412L389.2 365.147L389.8 366.193L390.4 364.702L391 367.329L391.6 367.885L392.2 366.705L392.8 366.683L393.4 366.193L394 367.707L394.6 367.64L395.2 367.551L395.8 369.154L396.4 367.306L397 367.485L397.6 368.242L398.2 368.13L398.8 367.997L399.4 368.509L400 369.31L400.6 368.286L401.2 368.375L401.8 368.687L402.4 368.776L403 368.954L403.6 369.266L404.2 369.333L404.8 368.82L405.4 369.043L406 368.932L406.6 368.976L407.2 369.399L407.8 369.377L408.4 369.488L409 369.199L409.6 369.31L410.2 369.422L410.8 369.355L411.4 369.043L412 369.444L412.6 369.711L413.2 369.243L413.8 369.177L414.4 369.088H415L415.6 369.31L416.2 369.199L416.8 369.511L417.4 369.043L418 368.999L418.6 368.687L419.2 368.954L419.8 368.798L420.4 368.82L421 369.422L421.6 368.019L422.2 368.086H422.8L423.4 367.997L424 367.084L424.6 368.13L425.2 368.932L425.8 366.928L426.4 367.128L427 366.483L427.6 368.442L428.2 368.219L428.8 366.728L429.4 368.13L430 364.011L430.6 364.167L431.2 363.566L431.8 363.9L432.4 362.475L433 362.742L433.6 366.126L434.2 359.982L434.8 360.405L435.4 359.581L436 359.269L436.6 358.646L437.2 359.804L437.8 363.677L438.4 364.724L439 356.264L439.6 353.592L440.2 354.683L440.8 355.818L441.4 358.29L442 360.85L442.6 350.831L443.2 345.577L443.8 345.844L444.4 349.696L445 347.002L445.6 346.69L446.2 357.822L446.8 345.799L447.4 345.644L448 347.402L448.6 346.222L449.2 346.467L449.8 349.451L450.4 360.16L451 347.002L451.6 347.158L452.2 348.582L452.8 350.43L453.4 352.991L454 354.304L454.6 361.852L455.2 355.996L455.8 350.876L456.4 354.794L457 358.089L457.6 358.534L458.2 360.427L458.8 366.46L459.4 360.182L460 361.562L460.6 363.076L461.2 364.011L461.8 362.898L462.4 365.325L463 367.396L463.6 368.776L464.2 363.477L464.8 363.21L465.4 367.485L466 365.57L466.6 366.728L467.2 368.62L467.8 366.995L468.4 366.817L469 367.64L469.6 368.308L470.2 367.729L470.8 368.42L471.4 369.221L472 368.62L472.6 367.707L473.2 368.375L473.8 368.62H474.4L475 369.199L475.6 369.577L476.2 368.709L476.8 368.531L477.4 368.887L478 369.266L478.6 369.088L479.2 369.377L479.8 369.511L480.4 369.154L481 369.221L481.6 369.177L482.2 369.132L482.8 369.154L483.4 368.932L484 369.333L484.6 368.687L485.2 369.333L485.8 369.243L486.4 369.199L487 369.444H487.6L488.2 369.778L488.8 369.333L489.4 369.422L490 369.488L490.6 369.31L491.2 369.377L491.8 369.689L492.4 369.755L493 369.444L493.6 369.288L494.2 369.689L494.8 369.577L495.4 369.466L496 369.644L496.6 369.778L497.2 369.644L497.8 369.622L498.4 369.689L499 369.733L499.6 369.755L500.2 369.6L500.8 369.8L501.4 369.689L502 369.711L502.6 369.666L503.2 369.689L503.8 369.711H504.4L505 369.755L505.6 369.733L506.2 369.689L506.8 369.711L507.4 369.644L508 369.622L508.6 369.666L509.2 369.8L509.8 369.755L510.4 369.622H511L511.6 369.689L512.2 369.644L512.8 369.711L513.4 369.755L514 369.711H514.6L515.2 369.755L515.8 369.711L516.4 369.689L517 369.733L517.6 369.778L518.2 369.444L518.8 369.555L519.4 369.711L520 369.466L520.6 369.533L521.2 369.689L521.8 369.711L522.4 369.488L523 369.422L523.6 369.488L524.2 369.577L524.8 369.422L525.4 369.622L526 369.6L526.6 369.333L527.2 368.153L527.8 367.351L528.4 366.794L529 364.546L529.6 365.147L530.2 366.616L530.8 367.329L531.4 355.217L532 349.696L532.6 346.534L533.2 337.673L533.8 341.369L534.4 355.818L535 317.836L535.6 307.127L536.2 303.142L536.8 303.965L537.4 293.078L538 307.55L538.6 338.964L539.2 260.684L539.8 262.777H540.4L541 264.024L541.6 245.678L542.2 275.824L542.8 328.033L543.4 222.546L544 230.561L544.6 244.832L545.2 256.343L545.8 248.795L546.4 277.716L547 330.571L547.6 240.09L548.2 246.034L548.8 255.274L549.4 263.4L550 332.307L550.6 273.508L551.2 334.578L551.8 236.238L552.4 250.599L553 271.883L553.6 284.818L554.2 279.72L554.8 302.362L555.4 343.974L556 267.809L556.6 267.831L557.2 341.97L557.8 280.054L558.4 281.189L559 310.734L559.6 349.518L560.2 278.117L560.8 287.468L561.4 304.233L562 311.223L562.6 302.741L563.2 322.645L563.8 355.373L564.4 296.351L565 301.784L565.6 317.057L566.2 322.667L566.8 318.37L567.4 330.949L568 355.395L568.6 302.117L569.2 313.45L569.8 324.471L570.4 334.111L571 333.799L571.6 340.389L572.2 357.021L572.8 361.006L573.4 313.339L574 322.333L574.6 332.508L575.2 328.612L575.8 338.341L576.4 358.868L577 318.081L577.6 323.847L578.2 330.927L578.8 334.423L579.4 327.298L580 336.115L580.6 358.178L581.2 315.342L581.8 319.995L582.4 324.248L583 332.575L583.6 326.897L584.2 334.623L584.8 357.377L585.4 311.023L586 318.37L586.6 328.411L587.2 334.979L587.8 334.244L588.4 345.621L589 361.696L589.6 325.539L590.2 332.931L590.8 335.09L591.4 339.677L592 336.738L592.6 344.196L593.2 361.785L593.8 325.272L594.4 333.577L595 336.983L595.6 341.881L596.2 361.963L596.8 345.243L597.4 360.56L598 329.369L598.6 355.974H599.2L599.8 360.137L600.4 319.483L601 337.25L601.6 359.67L602.2 321.265L602.8 332.174L603.4 337.027L604 336.627L604.6 332.33L605.2 345.621L605.8 360.494L606.4 324.359L607 333.688L607.6 336.872L608.2 339.476L608.8 339.944L609.4 347.336L610 362.074L610.6 329.391L611.2 337.918L611.8 343.239L612.4 346.89L613 348.182L613.6 355.417L614.2 365.036L614.8 345.51L615.4 351.521L616 352.746L616.6 355.239L617.2 352.167L617.8 359.291L618.4 365.258L619 348.582L619.6 352.879L620.2 355.173L620.8 355.662L621.4 356.731L622 359.893L622.6 366.171L623.2 353.369L623.8 355.507L624.4 356.687L625 357.911L625.6 356.419L626.2 360.471L626.8 366.238L627.4 350.876L628 355.173L628.6 355.707L629.2 357.132L629.8 354.616L630.4 358.802L631 365.214L631.6 347.981L632.2 348.627L632.8 349.696L633.4 345.978L634 347.981L634.6 346.044L635.2 359.047L635.8 334.289L636.4 328.011L637 325.116L637.6 320.797L638.2 322.177L638.8 316.7L639.4 341.859L640 297.999L640.6 277.226L641.2 266.54L641.8 248.84L642.4 256.966L643 245.678L643.6 296.284L644.2 321.175L644.8 221.366L645.4 187.925L646 163.724L646.6 158.359L647.2 161.854L647.8 230.383L648.4 174.678L649 143.776L649.6 124.295L650.2 141.883L650.8 137.097L651.4 159.583L652 219.874L652.6 155.598L653.2 120.421L653.8 134.314L654.4 120.688L655 110.981L655.6 133.846L656.2 194.271L656.8 134.692L657.4 96.977L658 94.1272L658.6 145.646L659.2 149.654L659.8 172.207L660.4 238.865L661 205.937L661.6 147.049L662.2 96.6653L662.8 96.8434L663.4 111.916L664 109.089L664.6 208.097L665.2 142.819L665.8 114.833L666.4 131.642L667 153.817L667.6 160.875L668.2 189.773L668.8 264.892L669.4 213.796L670 186.167L670.6 204.824L671.2 242.762L671.8 236.483L672.4 240.78L673 296.885L673.6 258.235L674.2 230.784L674.8 254.072L675.4 264.135L676 272.684L676.6 285.019L677.2 319.105L677.8 283.883L678.4 268.009L679 277.315L679.6 297.442L680.2 300.559L680.8 304.633L681.4 337.25L682 349.095L682.6 310.177L683.2 292.722L683.8 313.94L684.4 336.515L685 327.187L685.6 334.868L686.2 351.254L686.8 326.118L687.4 335.335L688 341.747L688.6 344.553L689.2 343.796L689.8 359.403L690.4 348.137L691 334.378L691.6 344.753L692.2 347.38L692.8 349.874L693.4 349.095L694 360.538L694.6 364.279L695.2 344.174L695.8 334.133" stroke="#4285F4" stroke-width="2" stroke-miterlimit="10"/>
<path d="M383.422 418.8V410.206H386.391C387.057 410.206 387.568 410.248 387.922 410.331C388.411 410.446 388.828 410.649 389.172 410.941C389.63 411.326 389.969 411.821 390.188 412.425C390.417 413.019 390.531 413.696 390.531 414.456C390.531 415.113 390.453 415.691 390.297 416.191C390.151 416.691 389.958 417.107 389.719 417.441C389.479 417.774 389.214 418.034 388.922 418.222C388.641 418.409 388.302 418.555 387.906 418.659C387.51 418.753 387.052 418.8 386.531 418.8H383.422ZM384.562 417.784H386.391C386.964 417.784 387.411 417.732 387.734 417.628C388.057 417.524 388.312 417.373 388.5 417.175C388.771 416.915 388.979 416.555 389.125 416.097C389.281 415.639 389.359 415.087 389.359 414.441C389.359 413.545 389.208 412.857 388.906 412.378C388.615 411.889 388.26 411.56 387.844 411.394C387.531 411.279 387.042 411.222 386.375 411.222H384.562V417.784ZM396.359 418.034C395.964 418.368 395.583 418.602 395.219 418.738C394.865 418.873 394.479 418.941 394.062 418.941C393.375 418.941 392.849 418.774 392.484 418.441C392.12 418.107 391.938 417.68 391.938 417.159C391.938 416.857 392.005 416.581 392.141 416.331C392.276 416.071 392.458 415.868 392.688 415.722C392.917 415.566 393.172 415.451 393.453 415.378C393.651 415.316 393.964 415.258 394.391 415.206C395.234 415.113 395.859 414.993 396.266 414.847C396.266 414.701 396.266 414.613 396.266 414.581C396.266 414.144 396.167 413.837 395.969 413.659C395.698 413.43 395.297 413.316 394.766 413.316C394.276 413.316 393.911 413.404 393.672 413.581C393.432 413.748 393.255 414.05 393.141 414.488L392.109 414.347C392.203 413.909 392.359 413.555 392.578 413.284C392.797 413.014 393.109 412.805 393.516 412.659C393.922 412.514 394.391 412.441 394.922 412.441C395.453 412.441 395.885 412.503 396.219 412.628C396.552 412.753 396.797 412.909 396.953 413.097C397.109 413.284 397.219 413.524 397.281 413.816C397.312 413.993 397.328 414.316 397.328 414.784V416.191C397.328 417.17 397.349 417.79 397.391 418.05C397.443 418.31 397.536 418.56 397.672 418.8H396.562C396.458 418.581 396.391 418.326 396.359 418.034ZM396.266 415.675C395.88 415.831 395.307 415.967 394.547 416.081C394.109 416.144 393.802 416.217 393.625 416.3C393.448 416.373 393.307 416.482 393.203 416.628C393.109 416.774 393.062 416.941 393.062 417.128C393.062 417.409 393.167 417.644 393.375 417.831C393.594 418.019 393.906 418.113 394.312 418.113C394.719 418.113 395.078 418.024 395.391 417.847C395.714 417.67 395.948 417.425 396.094 417.113C396.208 416.873 396.266 416.524 396.266 416.066V415.675ZM401.594 417.863L401.75 418.784C401.448 418.847 401.182 418.878 400.953 418.878C400.568 418.878 400.271 418.821 400.062 418.706C399.854 418.581 399.703 418.42 399.609 418.222C399.526 418.024 399.484 417.607 399.484 416.972V413.394H398.719V412.581H399.484V411.034L400.531 410.409V412.581H401.594V413.394H400.531V417.034C400.531 417.337 400.547 417.529 400.578 417.613C400.62 417.696 400.682 417.764 400.766 417.816C400.849 417.868 400.969 417.894 401.125 417.894C401.25 417.894 401.406 417.883 401.594 417.863ZM406.547 416.8L407.641 416.925C407.474 417.56 407.156 418.055 406.688 418.409C406.219 418.764 405.625 418.941 404.906 418.941C404 418.941 403.276 418.659 402.734 418.097C402.203 417.534 401.938 416.748 401.938 415.738C401.938 414.696 402.208 413.889 402.75 413.316C403.292 412.732 403.99 412.441 404.844 412.441C405.677 412.441 406.354 412.722 406.875 413.284C407.406 413.847 407.672 414.644 407.672 415.675C407.672 415.738 407.672 415.831 407.672 415.956H403.031C403.073 416.644 403.266 417.17 403.609 417.534C403.953 417.889 404.385 418.066 404.906 418.066C405.292 418.066 405.62 417.967 405.891 417.769C406.172 417.56 406.391 417.238 406.547 416.8ZM403.094 415.097H406.562C406.521 414.566 406.391 414.17 406.172 413.909C405.828 413.503 405.391 413.3 404.859 413.3C404.37 413.3 403.958 413.462 403.625 413.784C403.302 414.107 403.125 414.545 403.094 415.097Z" fill="black"/>
<path d="M33.2 253.681H24.6062V252.556H28.1375V248.087H24.6062V246.947H33.2V248.087H29.1531V252.556H33.2V253.681ZM35.5906 244.9L34.6062 245.025C34.6687 244.796 34.7 244.593 34.7 244.416C34.7 244.186 34.6583 244.004 34.575 243.869C34.5021 243.723 34.3979 243.603 34.2625 243.509C34.1479 243.447 33.8823 243.337 33.4656 243.181C33.4135 243.171 33.3302 243.139 33.2156 243.087L26.9812 245.462V244.322L30.575 243.025C31.0333 242.858 31.5177 242.707 32.0281 242.572C31.5385 242.447 31.0646 242.301 30.6062 242.134L26.9812 240.806V239.759L33.3094 242.119C33.9864 242.379 34.4552 242.577 34.7156 242.712C35.0698 242.9 35.325 243.119 35.4812 243.369C35.6479 243.608 35.7312 243.895 35.7312 244.228C35.7312 244.426 35.6844 244.65 35.5906 244.9ZM30.0906 240.244C28.9344 240.244 28.0802 239.926 27.5281 239.291C27.0698 238.759 26.8406 238.108 26.8406 237.337C26.8406 236.483 27.1219 235.785 27.6844 235.244C28.2364 234.692 29.0073 234.416 29.9969 234.416C30.7989 234.416 31.4291 234.535 31.8875 234.775C32.3458 235.014 32.7052 235.369 32.9656 235.837C33.2156 236.296 33.3406 236.796 33.3406 237.337C33.3406 238.202 33.0646 238.905 32.5125 239.447C31.95 239.978 31.1427 240.244 30.0906 240.244ZM30.0906 239.166C30.8823 239.166 31.476 238.994 31.8719 238.65C32.2677 238.296 32.4656 237.858 32.4656 237.337C32.4656 236.806 32.2677 236.369 31.8719 236.025C31.476 235.681 30.8719 235.509 30.0594 235.509C29.2885 235.509 28.7052 235.686 28.3094 236.041C27.9135 236.384 27.7156 236.817 27.7156 237.337C27.7156 237.858 27.9135 238.296 28.3094 238.65C28.6948 238.994 29.2885 239.166 30.0906 239.166ZM33.7156 233.056L33.8719 232.025C34.1844 231.983 34.4135 231.863 34.5594 231.666C34.7573 231.405 34.8562 231.051 34.8562 230.603C34.8562 230.113 34.7573 229.738 34.5594 229.478C34.3614 229.207 34.0906 229.025 33.7469 228.931C33.5281 228.869 33.075 228.843 32.3875 228.853C32.9292 229.311 33.2 229.884 33.2 230.572C33.2 231.426 32.8927 232.087 32.2781 232.556C31.6531 233.025 30.9135 233.259 30.0594 233.259C29.4656 233.259 28.9187 233.155 28.4187 232.947C27.9083 232.728 27.5177 232.416 27.2469 232.009C26.976 231.603 26.8406 231.124 26.8406 230.572C26.8406 229.832 27.1375 229.223 27.7312 228.744H26.9812V227.775H32.3562C33.325 227.775 34.0125 227.874 34.4187 228.072C34.825 228.27 35.1427 228.582 35.3719 229.009C35.6114 229.436 35.7312 229.962 35.7312 230.587C35.7312 231.327 35.5646 231.926 35.2312 232.384C34.8979 232.843 34.3927 233.067 33.7156 233.056ZM29.9812 232.181C30.7937 232.181 31.3875 232.02 31.7625 231.697C32.1375 231.374 32.325 230.968 32.325 230.478C32.325 229.988 32.1375 229.582 31.7625 229.259C31.3875 228.926 30.8041 228.759 30.0125 228.759C29.2521 228.759 28.6791 228.931 28.2937 229.275C27.9083 229.608 27.7156 230.014 27.7156 230.494C27.7156 230.962 27.9083 231.363 28.2937 231.697C28.6687 232.02 29.2312 232.181 29.9812 232.181ZM30.0906 226.244C28.9344 226.244 28.0802 225.926 27.5281 225.291C27.0698 224.759 26.8406 224.108 26.8406 223.337C26.8406 222.483 27.1219 221.785 27.6844 221.244C28.2364 220.692 29.0073 220.416 29.9969 220.416C30.7989 220.416 31.4291 220.535 31.8875 220.775C32.3458 221.014 32.7052 221.369 32.9656 221.837C33.2156 222.296 33.3406 222.796 33.3406 223.337C33.3406 224.202 33.0646 224.905 32.5125 225.447C31.95 225.978 31.1427 226.244 30.0906 226.244ZM30.0906 225.166C30.8823 225.166 31.476 224.994 31.8719 224.65C32.2677 224.296 32.4656 223.858 32.4656 223.337C32.4656 222.806 32.2677 222.369 31.8719 222.025C31.476 221.681 30.8719 221.509 30.0594 221.509C29.2885 221.509 28.7052 221.686 28.3094 222.041C27.9135 222.384 27.7156 222.817 27.7156 223.337C27.7156 223.858 27.9135 224.296 28.3094 224.65C28.6948 224.994 29.2885 225.166 30.0906 225.166Z" fill="black"/>
<path d="M82.7 369.566C82.7 368.545 82.8042 367.727 83.0125 367.113C83.2208 366.488 83.5281 366.008 83.9344 365.675C84.3511 365.342 84.8719 365.175 85.4969 365.175C85.9552 365.175 86.3563 365.269 86.7 365.456C87.0542 365.644 87.3458 365.915 87.575 366.269C87.8042 366.613 87.9813 367.034 88.1063 367.534C88.2313 368.034 88.2938 368.712 88.2938 369.566C88.2938 370.576 88.1896 371.389 87.9813 372.003C87.7833 372.618 87.4761 373.097 87.0594 373.441C86.6531 373.774 86.1323 373.941 85.4969 373.941C84.674 373.941 84.0229 373.644 83.5438 373.05C82.9813 372.342 82.7 371.18 82.7 369.566ZM83.7781 369.566C83.7781 370.972 83.9448 371.909 84.2781 372.378C84.6115 372.847 85.0177 373.081 85.4969 373.081C85.9865 373.081 86.3927 372.847 86.7156 372.378C87.049 371.909 87.2156 370.972 87.2156 369.566C87.2156 368.149 87.049 367.212 86.7156 366.753C86.3927 366.284 85.9813 366.05 85.4813 366.05C85.0021 366.05 84.6167 366.253 84.325 366.659C83.9604 367.18 83.7781 368.149 83.7781 369.566Z" fill="black"/>
<path d="M67.2469 317.125V318.14H61.5594C61.5594 317.89 61.6011 317.645 61.6844 317.406C61.8302 317.02 62.0594 316.64 62.3719 316.265C62.6948 315.89 63.1583 315.458 63.7625 314.968C64.7 314.197 65.3302 313.588 65.6531 313.14C65.9865 312.692 66.1531 312.27 66.1531 311.875C66.1531 311.458 66.0021 311.109 65.7 310.828C65.3979 310.536 65.0073 310.39 64.5281 310.39C64.0177 310.39 63.6115 310.541 63.3094 310.843C63.0073 311.145 62.8511 311.567 62.8406 312.109L61.7625 312C61.8354 311.187 62.1115 310.572 62.5906 310.156C63.0802 309.729 63.7365 309.515 64.5594 309.515C65.3823 309.515 66.0333 309.744 66.5125 310.203C66.9917 310.661 67.2313 311.229 67.2313 311.906C67.2313 312.25 67.1583 312.588 67.0125 312.921C66.8771 313.244 66.6427 313.593 66.3094 313.968C65.9865 314.333 65.45 314.833 64.7 315.468C64.0646 316 63.6531 316.364 63.4656 316.562C63.2886 316.75 63.1427 316.937 63.0281 317.125H67.2469ZM68.7 315.89L69.8094 315.796C69.8927 316.338 70.0802 316.744 70.3719 317.015C70.674 317.286 71.0386 317.421 71.4656 317.421C71.9656 317.421 72.3927 317.229 72.7469 316.843C73.1011 316.458 73.2781 315.953 73.2781 315.328C73.2781 314.723 73.1063 314.25 72.7625 313.906C72.4292 313.552 71.9865 313.375 71.4344 313.375C71.1011 313.375 70.7938 313.453 70.5125 313.609C70.2417 313.765 70.0281 313.963 69.8719 314.203L68.8875 314.078L69.7156 309.671H73.9969V310.671H70.5594L70.1063 312.984C70.6167 312.619 71.1531 312.437 71.7156 312.437C72.4656 312.437 73.0958 312.697 73.6063 313.218C74.1271 313.739 74.3875 314.411 74.3875 315.234C74.3875 316.005 74.1636 316.677 73.7156 317.25C73.1636 317.937 72.4136 318.281 71.4656 318.281C70.6844 318.281 70.0438 318.062 69.5438 317.625C69.0542 317.187 68.7729 316.609 68.7 315.89ZM75.7 313.906C75.7 312.885 75.8042 312.067 76.0125 311.453C76.2208 310.828 76.5281 310.348 76.9344 310.015C77.3511 309.682 77.8719 309.515 78.4969 309.515C78.9552 309.515 79.3563 309.609 79.7 309.796C80.0542 309.984 80.3458 310.255 80.575 310.609C80.8042 310.953 80.9813 311.375 81.1063 311.875C81.2313 312.375 81.2938 313.052 81.2938 313.906C81.2938 314.916 81.1896 315.729 80.9813 316.343C80.7833 316.958 80.4761 317.437 80.0594 317.781C79.6531 318.114 79.1323 318.281 78.4969 318.281C77.674 318.281 77.0229 317.984 76.5438 317.39C75.9813 316.682 75.7 315.52 75.7 313.906ZM76.7781 313.906C76.7781 315.312 76.9448 316.25 77.2781 316.718C77.6115 317.187 78.0177 317.421 78.4969 317.421C78.9865 317.421 79.3927 317.187 79.7156 316.718C80.049 316.25 80.2156 315.312 80.2156 313.906C80.2156 312.489 80.049 311.552 79.7156 311.093C79.3927 310.625 78.9813 310.39 78.4813 310.39C78.0021 310.39 77.6167 310.593 77.325 311C76.9604 311.52 76.7781 312.489 76.7781 313.906ZM82.7 313.906C82.7 312.885 82.8042 312.067 83.0125 311.453C83.2208 310.828 83.5281 310.348 83.9344 310.015C84.3511 309.682 84.8719 309.515 85.4969 309.515C85.9552 309.515 86.3563 309.609 86.7 309.796C87.0542 309.984 87.3458 310.255 87.575 310.609C87.8042 310.953 87.9813 311.375 88.1063 311.875C88.2313 312.375 88.2938 313.052 88.2938 313.906C88.2938 314.916 88.1896 315.729 87.9813 316.343C87.7833 316.958 87.4761 317.437 87.0594 317.781C86.6531 318.114 86.1323 318.281 85.4969 318.281C84.674 318.281 84.0229 317.984 83.5438 317.39C82.9813 316.682 82.7 315.52 82.7 313.906ZM83.7781 313.906C83.7781 315.312 83.9448 316.25 84.2781 316.718C84.6115 317.187 85.0177 317.421 85.4969 317.421C85.9865 317.421 86.3927 317.187 86.7156 316.718C87.049 316.25 87.2156 315.312 87.2156 313.906C87.2156 312.489 87.049 311.552 86.7156 311.093C86.3927 310.625 85.9813 310.39 85.4813 310.39C85.0021 310.39 84.6167 310.593 84.325 311C83.9604 311.52 83.7781 312.489 83.7781 313.906Z" fill="black"/>
<path d="M61.7 260.23L62.8094 260.136C62.8927 260.678 63.0802 261.084 63.3719 261.355C63.674 261.626 64.0386 261.761 64.4656 261.761C64.9656 261.761 65.3927 261.569 65.7469 261.183C66.1011 260.798 66.2781 260.292 66.2781 259.667C66.2781 259.063 66.1063 258.589 65.7625 258.246C65.4292 257.891 64.9865 257.714 64.4344 257.714C64.1011 257.714 63.7938 257.792 63.5125 257.949C63.2417 258.105 63.0281 258.303 62.8719 258.542L61.8875 258.417L62.7156 254.011H66.9969V255.011H63.5594L63.1063 257.324C63.6167 256.959 64.1531 256.777 64.7156 256.777C65.4656 256.777 66.0958 257.037 66.6063 257.558C67.1271 258.079 67.3875 258.751 67.3875 259.574C67.3875 260.345 67.1636 261.016 66.7156 261.589C66.1636 262.277 65.4136 262.621 64.4656 262.621C63.6844 262.621 63.0438 262.402 62.5438 261.964C62.0542 261.527 61.7729 260.949 61.7 260.23ZM68.7 258.246C68.7 257.225 68.8042 256.407 69.0125 255.792C69.2208 255.167 69.5281 254.688 69.9344 254.355C70.3511 254.022 70.8719 253.855 71.4969 253.855C71.9552 253.855 72.3563 253.949 72.7 254.136C73.0542 254.324 73.3458 254.595 73.575 254.949C73.8042 255.292 73.9813 255.714 74.1063 256.214C74.2313 256.714 74.2938 257.391 74.2938 258.246C74.2938 259.256 74.1896 260.069 73.9813 260.683C73.7833 261.298 73.4761 261.777 73.0594 262.121C72.6531 262.454 72.1323 262.621 71.4969 262.621C70.674 262.621 70.0229 262.324 69.5438 261.73C68.9813 261.022 68.7 259.86 68.7 258.246ZM69.7781 258.246C69.7781 259.652 69.9448 260.589 70.2781 261.058C70.6115 261.527 71.0177 261.761 71.4969 261.761C71.9865 261.761 72.3927 261.527 72.7156 261.058C73.049 260.589 73.2156 259.652 73.2156 258.246C73.2156 256.829 73.049 255.891 72.7156 255.433C72.3927 254.964 71.9813 254.73 71.4813 254.73C71.0021 254.73 70.6167 254.933 70.325 255.339C69.9604 255.86 69.7781 256.829 69.7781 258.246ZM75.7 258.246C75.7 257.225 75.8042 256.407 76.0125 255.792C76.2208 255.167 76.5281 254.688 76.9344 254.355C77.3511 254.022 77.8719 253.855 78.4969 253.855C78.9552 253.855 79.3563 253.949 79.7 254.136C80.0542 254.324 80.3458 254.595 80.575 254.949C80.8042 255.292 80.9813 255.714 81.1063 256.214C81.2313 256.714 81.2938 257.391 81.2938 258.246C81.2938 259.256 81.1896 260.069 80.9813 260.683C80.7833 261.298 80.4761 261.777 80.0594 262.121C79.6531 262.454 79.1323 262.621 78.4969 262.621C77.674 262.621 77.0229 262.324 76.5438 261.73C75.9813 261.022 75.7 259.86 75.7 258.246ZM76.7781 258.246C76.7781 259.652 76.9448 260.589 77.2781 261.058C77.6115 261.527 78.0177 261.761 78.4969 261.761C78.9865 261.761 79.3927 261.527 79.7156 261.058C80.049 260.589 80.2156 259.652 80.2156 258.246C80.2156 256.829 80.049 255.891 79.7156 255.433C79.3927 254.964 78.9813 254.73 78.4813 254.73C78.0021 254.73 77.6167 254.933 77.325 255.339C76.9604 255.86 76.7781 256.829 76.7781 258.246ZM82.7 258.246C82.7 257.225 82.8042 256.407 83.0125 255.792C83.2208 255.167 83.5281 254.688 83.9344 254.355C84.3511 254.022 84.8719 253.855 85.4969 253.855C85.9552 253.855 86.3563 253.949 86.7 254.136C87.0542 254.324 87.3458 254.595 87.575 254.949C87.8042 255.292 87.9813 255.714 88.1063 256.214C88.2313 256.714 88.2938 257.391 88.2938 258.246C88.2938 259.256 88.1896 260.069 87.9813 260.683C87.7833 261.298 87.4761 261.777 87.0594 262.121C86.6531 262.454 86.1323 262.621 85.4969 262.621C84.674 262.621 84.0229 262.324 83.5438 261.73C82.9813 261.022 82.7 259.86 82.7 258.246ZM83.7781 258.246C83.7781 259.652 83.9448 260.589 84.2781 261.058C84.6115 261.527 85.0177 261.761 85.4969 261.761C85.9865 261.761 86.3927 261.527 86.7156 261.058C87.049 260.589 87.2156 259.652 87.2156 258.246C87.2156 256.829 87.049 255.891 86.7156 255.433C86.3927 254.964 85.9813 254.73 85.4813 254.73C85.0021 254.73 84.6167 254.933 84.325 255.339C83.9604 255.86 83.7781 256.829 83.7781 258.246Z" fill="black"/>
<path d="M61.7625 199.351V198.336H67.325V199.164C66.7833 199.747 66.2417 200.523 65.7 201.492C65.1688 202.45 64.7573 203.44 64.4656 204.461C64.2469 205.179 64.1115 205.966 64.0594 206.82H62.9656C62.9761 206.143 63.1063 205.325 63.3563 204.367C63.6167 203.409 63.9813 202.487 64.45 201.601C64.9292 200.716 65.4396 199.966 65.9813 199.351H61.7625ZM68.7 204.57L69.8094 204.476C69.8927 205.018 70.0802 205.424 70.3719 205.695C70.674 205.966 71.0386 206.101 71.4656 206.101C71.9656 206.101 72.3927 205.909 72.7469 205.523C73.1011 205.138 73.2781 204.633 73.2781 204.008C73.2781 203.403 73.1063 202.929 72.7625 202.586C72.4292 202.232 71.9865 202.054 71.4344 202.054C71.1011 202.054 70.7938 202.133 70.5125 202.289C70.2417 202.445 70.0281 202.643 69.8719 202.883L68.8875 202.758L69.7156 198.351H73.9969V199.351H70.5594L70.1063 201.664C70.6167 201.299 71.1531 201.117 71.7156 201.117C72.4656 201.117 73.0958 201.377 73.6063 201.898C74.1271 202.419 74.3875 203.091 74.3875 203.914C74.3875 204.685 74.1636 205.357 73.7156 205.929C73.1636 206.617 72.4136 206.961 71.4656 206.961C70.6844 206.961 70.0438 206.742 69.5438 206.304C69.0542 205.867 68.7729 205.289 68.7 204.57ZM75.7 202.586C75.7 201.565 75.8042 200.747 76.0125 200.133C76.2208 199.508 76.5281 199.028 76.9344 198.695C77.3511 198.362 77.8719 198.195 78.4969 198.195C78.9552 198.195 79.3563 198.289 79.7 198.476C80.0542 198.664 80.3458 198.935 80.575 199.289C80.8042 199.633 80.9813 200.054 81.1063 200.554C81.2313 201.054 81.2938 201.732 81.2938 202.586C81.2938 203.596 81.1896 204.409 80.9813 205.023C80.7833 205.638 80.4761 206.117 80.0594 206.461C79.6531 206.794 79.1323 206.961 78.4969 206.961C77.674 206.961 77.0229 206.664 76.5438 206.07C75.9813 205.362 75.7 204.2 75.7 202.586ZM76.7781 202.586C76.7781 203.992 76.9448 204.929 77.2781 205.398C77.6115 205.867 78.0177 206.101 78.4969 206.101C78.9865 206.101 79.3927 205.867 79.7156 205.398C80.049 204.929 80.2156 203.992 80.2156 202.586C80.2156 201.169 80.049 200.232 79.7156 199.773C79.3927 199.304 78.9813 199.07 78.4813 199.07C78.0021 199.07 77.6167 199.273 77.325 199.679C76.9604 200.2 76.7781 201.169 76.7781 202.586ZM82.7 202.586C82.7 201.565 82.8042 200.747 83.0125 200.133C83.2208 199.508 83.5281 199.028 83.9344 198.695C84.3511 198.362 84.8719 198.195 85.4969 198.195C85.9552 198.195 86.3563 198.289 86.7 198.476C87.0542 198.664 87.3458 198.935 87.575 199.289C87.8042 199.633 87.9813 200.054 88.1063 200.554C88.2313 201.054 88.2938 201.732 88.2938 202.586C88.2938 203.596 88.1896 204.409 87.9813 205.023C87.7833 205.638 87.4761 206.117 87.0594 206.461C86.6531 206.794 86.1323 206.961 85.4969 206.961C84.674 206.961 84.0229 206.664 83.5438 206.07C82.9813 205.362 82.7 204.2 82.7 202.586ZM83.7781 202.586C83.7781 203.992 83.9448 204.929 84.2781 205.398C84.6115 205.867 85.0177 206.101 85.4969 206.101C85.9865 206.101 86.3927 205.867 86.7156 205.398C87.049 204.929 87.2156 203.992 87.2156 202.586C87.2156 201.169 87.049 200.232 86.7156 199.773C86.3927 199.304 85.9813 199.07 85.4813 199.07C85.0021 199.07 84.6167 199.273 84.325 199.679C83.9604 200.2 83.7781 201.169 83.7781 202.586Z" fill="black"/>
<path d="M58.6688 151.16H57.6219V144.441C57.3615 144.681 57.0229 144.926 56.6063 145.176C56.2 145.415 55.8354 145.592 55.5125 145.707V144.691C56.0958 144.41 56.6063 144.077 57.0438 143.691C57.4917 143.295 57.8094 142.91 57.9969 142.535H58.6688V151.16ZM61.7 146.926C61.7 145.905 61.8042 145.087 62.0125 144.472C62.2208 143.847 62.5281 143.368 62.9344 143.035C63.3511 142.702 63.8719 142.535 64.4969 142.535C64.9552 142.535 65.3563 142.629 65.7 142.816C66.0542 143.004 66.3458 143.274 66.575 143.629C66.8042 143.972 66.9813 144.394 67.1063 144.894C67.2313 145.394 67.2938 146.071 67.2938 146.926C67.2938 147.936 67.1896 148.748 66.9813 149.363C66.7833 149.978 66.4761 150.457 66.0594 150.801C65.6531 151.134 65.1323 151.301 64.4969 151.301C63.674 151.301 63.0229 151.004 62.5438 150.41C61.9813 149.702 61.7 148.54 61.7 146.926ZM62.7781 146.926C62.7781 148.332 62.9448 149.269 63.2781 149.738C63.6115 150.207 64.0177 150.441 64.4969 150.441C64.9865 150.441 65.3927 150.207 65.7156 149.738C66.049 149.269 66.2156 148.332 66.2156 146.926C66.2156 145.509 66.049 144.571 65.7156 144.113C65.3927 143.644 64.9813 143.41 64.4813 143.41C64.0021 143.41 63.6167 143.613 63.325 144.019C62.9604 144.54 62.7781 145.509 62.7781 146.926ZM68.7 146.926C68.7 145.905 68.8042 145.087 69.0125 144.472C69.2208 143.847 69.5281 143.368 69.9344 143.035C70.3511 142.702 70.8719 142.535 71.4969 142.535C71.9552 142.535 72.3563 142.629 72.7 142.816C73.0542 143.004 73.3458 143.274 73.575 143.629C73.8042 143.972 73.9813 144.394 74.1063 144.894C74.2313 145.394 74.2938 146.071 74.2938 146.926C74.2938 147.936 74.1896 148.748 73.9813 149.363C73.7833 149.978 73.4761 150.457 73.0594 150.801C72.6531 151.134 72.1323 151.301 71.4969 151.301C70.674 151.301 70.0229 151.004 69.5438 150.41C68.9813 149.702 68.7 148.54 68.7 146.926ZM69.7781 146.926C69.7781 148.332 69.9448 149.269 70.2781 149.738C70.6115 150.207 71.0177 150.441 71.4969 150.441C71.9865 150.441 72.3927 150.207 72.7156 149.738C73.049 149.269 73.2156 148.332 73.2156 146.926C73.2156 145.509 73.049 144.571 72.7156 144.113C72.3927 143.644 71.9813 143.41 71.4813 143.41C71.0021 143.41 70.6167 143.613 70.325 144.019C69.9604 144.54 69.7781 145.509 69.7781 146.926ZM75.7 146.926C75.7 145.905 75.8042 145.087 76.0125 144.472C76.2208 143.847 76.5281 143.368 76.9344 143.035C77.3511 142.702 77.8719 142.535 78.4969 142.535C78.9552 142.535 79.3563 142.629 79.7 142.816C80.0542 143.004 80.3458 143.274 80.575 143.629C80.8042 143.972 80.9813 144.394 81.1063 144.894C81.2313 145.394 81.2938 146.071 81.2938 146.926C81.2938 147.936 81.1896 148.748 80.9813 149.363C80.7833 149.978 80.4761 150.457 80.0594 150.801C79.6531 151.134 79.1323 151.301 78.4969 151.301C77.674 151.301 77.0229 151.004 76.5438 150.41C75.9813 149.702 75.7 148.54 75.7 146.926ZM76.7781 146.926C76.7781 148.332 76.9448 149.269 77.2781 149.738C77.6115 150.207 78.0177 150.441 78.4969 150.441C78.9865 150.441 79.3927 150.207 79.7156 149.738C80.049 149.269 80.2156 148.332 80.2156 146.926C80.2156 145.509 80.049 144.571 79.7156 144.113C79.3927 143.644 78.9813 143.41 78.4813 143.41C78.0021 143.41 77.6167 143.613 77.325 144.019C76.9604 144.54 76.7781 145.509 76.7781 146.926ZM82.7 146.926C82.7 145.905 82.8042 145.087 83.0125 144.472C83.2208 143.847 83.5281 143.368 83.9344 143.035C84.3511 142.702 84.8719 142.535 85.4969 142.535C85.9552 142.535 86.3563 142.629 86.7 142.816C87.0542 143.004 87.3458 143.274 87.575 143.629C87.8042 143.972 87.9813 144.394 88.1063 144.894C88.2313 145.394 88.2938 146.071 88.2938 146.926C88.2938 147.936 88.1896 148.748 87.9813 149.363C87.7833 149.978 87.4761 150.457 87.0594 150.801C86.6531 151.134 86.1323 151.301 85.4969 151.301C84.674 151.301 84.0229 151.004 83.5438 150.41C82.9813 149.702 82.7 148.54 82.7 146.926ZM83.7781 146.926C83.7781 148.332 83.9448 149.269 84.2781 149.738C84.6115 150.207 85.0177 150.441 85.4969 150.441C85.9865 150.441 86.3927 150.207 86.7156 149.738C87.049 149.269 87.2156 148.332 87.2156 146.926C87.2156 145.509 87.049 144.571 86.7156 144.113C86.3927 143.644 85.9813 143.41 85.4813 143.41C85.0021 143.41 84.6167 143.613 84.325 144.019C83.9604 144.54 83.7781 145.509 83.7781 146.926Z" fill="black"/>
<path d="M58.6688 95.5H57.6219V88.7812C57.3615 89.0208 57.0229 89.2656 56.6063 89.5156C56.2 89.7552 55.8354 89.9323 55.5125 90.0469V89.0312C56.0958 88.75 56.6063 88.4167 57.0438 88.0312C57.4917 87.6354 57.8094 87.25 57.9969 86.875H58.6688V95.5ZM67.2469 94.4844V95.5H61.5594C61.5594 95.25 61.6011 95.0052 61.6844 94.7656C61.8302 94.3802 62.0594 94 62.3719 93.625C62.6948 93.25 63.1583 92.8177 63.7625 92.3281C64.7 91.5573 65.3302 90.9479 65.6531 90.5C65.9865 90.0521 66.1531 89.6302 66.1531 89.2344C66.1531 88.8177 66.0021 88.4688 65.7 88.1875C65.3979 87.8958 65.0073 87.75 64.5281 87.75C64.0177 87.75 63.6115 87.901 63.3094 88.2031C63.0073 88.5052 62.8511 88.9271 62.8406 89.4688L61.7625 89.3594C61.8354 88.5469 62.1115 87.9323 62.5906 87.5156C63.0802 87.0885 63.7365 86.875 64.5594 86.875C65.3823 86.875 66.0333 87.1042 66.5125 87.5625C66.9917 88.0208 67.2313 88.5885 67.2313 89.2656C67.2313 89.6094 67.1583 89.9479 67.0125 90.2812C66.8771 90.6042 66.6427 90.9531 66.3094 91.3281C65.9865 91.6927 65.45 92.1927 64.7 92.8281C64.0646 93.3594 63.6531 93.724 63.4656 93.9219C63.2886 94.1094 63.1427 94.2969 63.0281 94.4844H67.2469ZM68.7 93.25L69.8094 93.1562C69.8927 93.6979 70.0802 94.1042 70.3719 94.375C70.674 94.6458 71.0386 94.7812 71.4656 94.7812C71.9656 94.7812 72.3927 94.5885 72.7469 94.2031C73.1011 93.8177 73.2781 93.3125 73.2781 92.6875C73.2781 92.0833 73.1063 91.6094 72.7625 91.2656C72.4292 90.9115 71.9865 90.7344 71.4344 90.7344C71.1011 90.7344 70.7938 90.8125 70.5125 90.9688C70.2417 91.125 70.0281 91.3229 69.8719 91.5625L68.8875 91.4375L69.7156 87.0312H73.9969V88.0312H70.5594L70.1063 90.3438C70.6167 89.9792 71.1531 89.7969 71.7156 89.7969C72.4656 89.7969 73.0958 90.0573 73.6063 90.5781C74.1271 91.099 74.3875 91.7708 74.3875 92.5938C74.3875 93.3646 74.1636 94.0365 73.7156 94.6094C73.1636 95.2969 72.4136 95.6406 71.4656 95.6406C70.6844 95.6406 70.0438 95.4219 69.5438 94.9844C69.0542 94.5469 68.7729 93.9688 68.7 93.25ZM75.7 91.2656C75.7 90.2448 75.8042 89.4271 76.0125 88.8125C76.2208 88.1875 76.5281 87.7083 76.9344 87.375C77.3511 87.0417 77.8719 86.875 78.4969 86.875C78.9552 86.875 79.3563 86.9688 79.7 87.1562C80.0542 87.3438 80.3458 87.6146 80.575 87.9688C80.8042 88.3125 80.9813 88.7344 81.1063 89.2344C81.2313 89.7344 81.2938 90.4115 81.2938 91.2656C81.2938 92.276 81.1896 93.0885 80.9813 93.7031C80.7833 94.3177 80.4761 94.7969 80.0594 95.1406C79.6531 95.474 79.1323 95.6406 78.4969 95.6406C77.674 95.6406 77.0229 95.3438 76.5438 94.75C75.9813 94.0417 75.7 92.8802 75.7 91.2656ZM76.7781 91.2656C76.7781 92.6719 76.9448 93.6094 77.2781 94.0781C77.6115 94.5469 78.0177 94.7812 78.4969 94.7812C78.9865 94.7812 79.3927 94.5469 79.7156 94.0781C80.049 93.6094 80.2156 92.6719 80.2156 91.2656C80.2156 89.849 80.049 88.9115 79.7156 88.4531C79.3927 87.9844 78.9813 87.75 78.4813 87.75C78.0021 87.75 77.6167 87.9531 77.325 88.3594C76.9604 88.8802 76.7781 89.849 76.7781 91.2656ZM82.7 91.2656C82.7 90.2448 82.8042 89.4271 83.0125 88.8125C83.2208 88.1875 83.5281 87.7083 83.9344 87.375C84.3511 87.0417 84.8719 86.875 85.4969 86.875C85.9552 86.875 86.3563 86.9688 86.7 87.1562C87.0542 87.3438 87.3458 87.6146 87.575 87.9688C87.8042 88.3125 87.9813 88.7344 88.1063 89.2344C88.2313 89.7344 88.2938 90.4115 88.2938 91.2656C88.2938 92.276 88.1896 93.0885 87.9813 93.7031C87.7833 94.3177 87.4761 94.7969 87.0594 95.1406C86.6531 95.474 86.1323 95.6406 85.4969 95.6406C84.674 95.6406 84.0229 95.3438 83.5438 94.75C82.9813 94.0417 82.7 92.8802 82.7 91.2656ZM83.7781 91.2656C83.7781 92.6719 83.9448 93.6094 84.2781 94.0781C84.6115 94.5469 85.0177 94.7812 85.4969 94.7812C85.9865 94.7812 86.3927 94.5469 86.7156 94.0781C87.049 93.6094 87.2156 92.6719 87.2156 91.2656C87.2156 89.849 87.049 88.9115 86.7156 88.4531C86.3927 87.9844 85.9813 87.75 85.4813 87.75C85.0021 87.75 84.6167 87.9531 84.325 88.3594C83.9604 88.8802 83.7781 89.849 83.7781 91.2656Z" fill="black"/>
<path d="M173.975 386.8V384.738H170.256V383.769L174.178 378.206H175.038V383.769H176.194V384.738H175.038V386.8H173.975ZM173.975 383.769V379.909L171.288 383.769H173.975ZM180.975 386.8V384.738H177.256V383.769L181.178 378.206H182.038V383.769H183.194V384.738H182.038V386.8H180.975ZM180.975 383.769V379.909L178.288 383.769H180.975ZM184.6 382.566C184.6 381.545 184.704 380.727 184.913 380.113C185.121 379.488 185.428 379.008 185.834 378.675C186.251 378.342 186.772 378.175 187.397 378.175C187.855 378.175 188.256 378.269 188.6 378.456C188.954 378.644 189.246 378.915 189.475 379.269C189.704 379.613 189.881 380.034 190.006 380.534C190.131 381.034 190.194 381.712 190.194 382.566C190.194 383.576 190.09 384.389 189.881 385.003C189.683 385.618 189.376 386.097 188.959 386.441C188.553 386.774 188.032 386.941 187.397 386.941C186.574 386.941 185.923 386.644 185.444 386.05C184.881 385.342 184.6 384.18 184.6 382.566ZM185.678 382.566C185.678 383.972 185.845 384.909 186.178 385.378C186.511 385.847 186.918 386.081 187.397 386.081C187.886 386.081 188.293 385.847 188.616 385.378C188.949 384.909 189.116 383.972 189.116 382.566C189.116 381.149 188.949 380.212 188.616 379.753C188.293 379.284 187.881 379.05 187.381 379.05C186.902 379.05 186.517 379.253 186.225 379.659C185.86 380.18 185.678 381.149 185.678 382.566ZM191.6 382.566C191.6 381.545 191.704 380.727 191.913 380.113C192.121 379.488 192.428 379.008 192.834 378.675C193.251 378.342 193.772 378.175 194.397 378.175C194.855 378.175 195.256 378.269 195.6 378.456C195.954 378.644 196.246 378.915 196.475 379.269C196.704 379.613 196.881 380.034 197.006 380.534C197.131 381.034 197.194 381.712 197.194 382.566C197.194 383.576 197.09 384.389 196.881 385.003C196.683 385.618 196.376 386.097 195.959 386.441C195.553 386.774 195.032 386.941 194.397 386.941C193.574 386.941 192.923 386.644 192.444 386.05C191.881 385.342 191.6 384.18 191.6 382.566ZM192.678 382.566C192.678 383.972 192.845 384.909 193.178 385.378C193.511 385.847 193.918 386.081 194.397 386.081C194.886 386.081 195.293 385.847 195.616 385.378C195.949 384.909 196.116 383.972 196.116 382.566C196.116 381.149 195.949 380.212 195.616 379.753C195.293 379.284 194.881 379.05 194.381 379.05C193.902 379.05 193.517 379.253 193.225 379.659C192.86 380.18 192.678 381.149 192.678 382.566ZM198.6 382.566C198.6 381.545 198.704 380.727 198.913 380.113C199.121 379.488 199.428 379.008 199.834 378.675C200.251 378.342 200.772 378.175 201.397 378.175C201.855 378.175 202.256 378.269 202.6 378.456C202.954 378.644 203.246 378.915 203.475 379.269C203.704 379.613 203.881 380.034 204.006 380.534C204.131 381.034 204.194 381.712 204.194 382.566C204.194 383.576 204.09 384.389 203.881 385.003C203.683 385.618 203.376 386.097 202.959 386.441C202.553 386.774 202.032 386.941 201.397 386.941C200.574 386.941 199.923 386.644 199.444 386.05C198.881 385.342 198.6 384.18 198.6 382.566ZM199.678 382.566C199.678 383.972 199.845 384.909 200.178 385.378C200.511 385.847 200.918 386.081 201.397 386.081C201.886 386.081 202.293 385.847 202.616 385.378C202.949 384.909 203.116 383.972 203.116 382.566C203.116 381.149 202.949 380.212 202.616 379.753C202.293 379.284 201.881 379.05 201.381 379.05C200.902 379.05 200.517 379.253 200.225 379.659C199.86 380.18 199.678 381.149 199.678 382.566Z" fill="black"/>
<path d="M293.975 386.8V384.738H290.256V383.769L294.178 378.206H295.038V383.769H296.194V384.738H295.038V386.8H293.975ZM293.975 383.769V379.909L291.288 383.769H293.975ZM300.975 386.8V384.738H297.256V383.769L301.178 378.206H302.038V383.769H303.194V384.738H302.038V386.8H300.975ZM300.975 383.769V379.909L298.288 383.769H300.975ZM310.147 385.784V386.8H304.459C304.459 386.55 304.501 386.305 304.584 386.066C304.73 385.68 304.959 385.3 305.272 384.925C305.595 384.55 306.058 384.118 306.663 383.628C307.6 382.857 308.23 382.248 308.553 381.8C308.886 381.352 309.053 380.93 309.053 380.534C309.053 380.118 308.902 379.769 308.6 379.488C308.298 379.196 307.907 379.05 307.428 379.05C306.918 379.05 306.511 379.201 306.209 379.503C305.907 379.805 305.751 380.227 305.741 380.769L304.663 380.659C304.735 379.847 305.011 379.232 305.491 378.816C305.98 378.389 306.636 378.175 307.459 378.175C308.282 378.175 308.933 378.404 309.413 378.863C309.892 379.321 310.131 379.889 310.131 380.566C310.131 380.909 310.058 381.248 309.913 381.581C309.777 381.904 309.543 382.253 309.209 382.628C308.886 382.993 308.35 383.493 307.6 384.128C306.965 384.659 306.553 385.024 306.366 385.222C306.189 385.409 306.043 385.597 305.928 385.784H310.147ZM311.6 382.566C311.6 381.545 311.704 380.727 311.913 380.113C312.121 379.488 312.428 379.008 312.834 378.675C313.251 378.342 313.772 378.175 314.397 378.175C314.855 378.175 315.256 378.269 315.6 378.456C315.954 378.644 316.246 378.915 316.475 379.269C316.704 379.613 316.881 380.034 317.006 380.534C317.131 381.034 317.194 381.712 317.194 382.566C317.194 383.576 317.09 384.389 316.881 385.003C316.683 385.618 316.376 386.097 315.959 386.441C315.553 386.774 315.032 386.941 314.397 386.941C313.574 386.941 312.923 386.644 312.444 386.05C311.881 385.342 311.6 384.18 311.6 382.566ZM312.678 382.566C312.678 383.972 312.845 384.909 313.178 385.378C313.511 385.847 313.918 386.081 314.397 386.081C314.886 386.081 315.293 385.847 315.616 385.378C315.949 384.909 316.116 383.972 316.116 382.566C316.116 381.149 315.949 380.212 315.616 379.753C315.293 379.284 314.881 379.05 314.381 379.05C313.902 379.05 313.517 379.253 313.225 379.659C312.86 380.18 312.678 381.149 312.678 382.566ZM318.6 382.566C318.6 381.545 318.704 380.727 318.913 380.113C319.121 379.488 319.428 379.008 319.834 378.675C320.251 378.342 320.772 378.175 321.397 378.175C321.855 378.175 322.256 378.269 322.6 378.456C322.954 378.644 323.246 378.915 323.475 379.269C323.704 379.613 323.881 380.034 324.006 380.534C324.131 381.034 324.194 381.712 324.194 382.566C324.194 383.576 324.09 384.389 323.881 385.003C323.683 385.618 323.376 386.097 322.959 386.441C322.553 386.774 322.032 386.941 321.397 386.941C320.574 386.941 319.923 386.644 319.444 386.05C318.881 385.342 318.6 384.18 318.6 382.566ZM319.678 382.566C319.678 383.972 319.845 384.909 320.178 385.378C320.511 385.847 320.918 386.081 321.397 386.081C321.886 386.081 322.293 385.847 322.616 385.378C322.949 384.909 323.116 383.972 323.116 382.566C323.116 381.149 322.949 380.212 322.616 379.753C322.293 379.284 321.881 379.05 321.381 379.05C320.902 379.05 320.517 379.253 320.225 379.659C319.86 380.18 319.678 381.149 319.678 382.566Z" fill="black"/>
<path d="M413.975 386.8V384.738H410.256V383.769L414.178 378.206H415.038V383.769H416.194V384.738H415.038V386.8H413.975ZM413.975 383.769V379.909L411.288 383.769H413.975ZM420.975 386.8V384.738H417.256V383.769L421.178 378.206H422.038V383.769H423.194V384.738H422.038V386.8H420.975ZM420.975 383.769V379.909L418.288 383.769H420.975ZM427.975 386.8V384.738H424.256V383.769L428.178 378.206H429.038V383.769H430.194V384.738H429.038V386.8H427.975ZM427.975 383.769V379.909L425.288 383.769H427.975ZM431.6 382.566C431.6 381.545 431.704 380.727 431.913 380.113C432.121 379.488 432.428 379.008 432.834 378.675C433.251 378.342 433.772 378.175 434.397 378.175C434.855 378.175 435.256 378.269 435.6 378.456C435.954 378.644 436.246 378.915 436.475 379.269C436.704 379.613 436.881 380.034 437.006 380.534C437.131 381.034 437.194 381.712 437.194 382.566C437.194 383.576 437.09 384.389 436.881 385.003C436.683 385.618 436.376 386.097 435.959 386.441C435.553 386.774 435.032 386.941 434.397 386.941C433.574 386.941 432.923 386.644 432.444 386.05C431.881 385.342 431.6 384.18 431.6 382.566ZM432.678 382.566C432.678 383.972 432.845 384.909 433.178 385.378C433.511 385.847 433.918 386.081 434.397 386.081C434.886 386.081 435.293 385.847 435.616 385.378C435.949 384.909 436.116 383.972 436.116 382.566C436.116 381.149 435.949 380.212 435.616 379.753C435.293 379.284 434.881 379.05 434.381 379.05C433.902 379.05 433.517 379.253 433.225 379.659C432.86 380.18 432.678 381.149 432.678 382.566ZM438.6 382.566C438.6 381.545 438.704 380.727 438.913 380.113C439.121 379.488 439.428 379.008 439.834 378.675C440.251 378.342 440.772 378.175 441.397 378.175C441.855 378.175 442.256 378.269 442.6 378.456C442.954 378.644 443.246 378.915 443.475 379.269C443.704 379.613 443.881 380.034 444.006 380.534C444.131 381.034 444.194 381.712 444.194 382.566C444.194 383.576 444.09 384.389 443.881 385.003C443.683 385.618 443.376 386.097 442.959 386.441C442.553 386.774 442.032 386.941 441.397 386.941C440.574 386.941 439.923 386.644 439.444 386.05C438.881 385.342 438.6 384.18 438.6 382.566ZM439.678 382.566C439.678 383.972 439.845 384.909 440.178 385.378C440.511 385.847 440.918 386.081 441.397 386.081C441.886 386.081 442.293 385.847 442.616 385.378C442.949 384.909 443.116 383.972 443.116 382.566C443.116 381.149 442.949 380.212 442.616 379.753C442.293 379.284 441.881 379.05 441.381 379.05C440.902 379.05 440.517 379.253 440.225 379.659C439.86 380.18 439.678 381.149 439.678 382.566Z" fill="black"/>
<path d="M533.975 386.8V384.738H530.256V383.769L534.178 378.206H535.037V383.769H536.194V384.738H535.037V386.8H533.975ZM533.975 383.769V379.909L531.287 383.769H533.975ZM540.975 386.8V384.738H537.256V383.769L541.178 378.206H542.037V383.769H543.194V384.738H542.037V386.8H540.975ZM540.975 383.769V379.909L538.287 383.769H540.975ZM550.069 380.316L549.022 380.394C548.928 379.977 548.798 379.675 548.631 379.488C548.34 379.185 547.985 379.034 547.569 379.034C547.235 379.034 546.939 379.128 546.678 379.316C546.355 379.566 546.095 379.925 545.897 380.394C545.709 380.852 545.61 381.508 545.6 382.363C545.85 381.977 546.157 381.691 546.522 381.503C546.897 381.316 547.287 381.222 547.694 381.222C548.392 381.222 548.985 381.482 549.475 382.003C549.975 382.524 550.225 383.191 550.225 384.003C550.225 384.545 550.105 385.05 549.866 385.519C549.636 385.977 549.319 386.331 548.912 386.581C548.506 386.821 548.048 386.941 547.537 386.941C546.652 386.941 545.933 386.618 545.381 385.972C544.829 385.326 544.553 384.264 544.553 382.784C544.553 381.118 544.86 379.909 545.475 379.159C546.006 378.503 546.725 378.175 547.631 378.175C548.308 378.175 548.86 378.368 549.287 378.753C549.725 379.128 549.985 379.649 550.069 380.316ZM545.772 384.019C545.772 384.383 545.845 384.732 545.991 385.066C546.147 385.389 546.36 385.639 546.631 385.816C546.912 385.993 547.209 386.081 547.522 386.081C547.959 386.081 548.34 385.904 548.662 385.55C548.985 385.185 549.147 384.696 549.147 384.081C549.147 383.488 548.985 383.019 548.662 382.675C548.35 382.331 547.954 382.159 547.475 382.159C546.996 382.159 546.59 382.331 546.256 382.675C545.933 383.019 545.772 383.467 545.772 384.019ZM551.6 382.566C551.6 381.545 551.704 380.727 551.912 380.113C552.121 379.488 552.428 379.008 552.834 378.675C553.251 378.342 553.772 378.175 554.397 378.175C554.855 378.175 555.256 378.269 555.6 378.456C555.954 378.644 556.246 378.915 556.475 379.269C556.704 379.613 556.881 380.034 557.006 380.534C557.131 381.034 557.194 381.712 557.194 382.566C557.194 383.576 557.09 384.389 556.881 385.003C556.683 385.618 556.376 386.097 555.959 386.441C555.553 386.774 555.032 386.941 554.397 386.941C553.574 386.941 552.923 386.644 552.444 386.05C551.881 385.342 551.6 384.18 551.6 382.566ZM552.678 382.566C552.678 383.972 552.845 384.909 553.178 385.378C553.511 385.847 553.918 386.081 554.397 386.081C554.886 386.081 555.293 385.847 555.616 385.378C555.949 384.909 556.116 383.972 556.116 382.566C556.116 381.149 555.949 380.212 555.616 379.753C555.293 379.284 554.881 379.05 554.381 379.05C553.902 379.05 553.517 379.253 553.225 379.659C552.86 380.18 552.678 381.149 552.678 382.566ZM558.6 382.566C558.6 381.545 558.704 380.727 558.912 380.113C559.121 379.488 559.428 379.008 559.834 378.675C560.251 378.342 560.772 378.175 561.397 378.175C561.855 378.175 562.256 378.269 562.6 378.456C562.954 378.644 563.246 378.915 563.475 379.269C563.704 379.613 563.881 380.034 564.006 380.534C564.131 381.034 564.194 381.712 564.194 382.566C564.194 383.576 564.09 384.389 563.881 385.003C563.683 385.618 563.376 386.097 562.959 386.441C562.553 386.774 562.032 386.941 561.397 386.941C560.574 386.941 559.923 386.644 559.444 386.05C558.881 385.342 558.6 384.18 558.6 382.566ZM559.678 382.566C559.678 383.972 559.845 384.909 560.178 385.378C560.511 385.847 560.918 386.081 561.397 386.081C561.886 386.081 562.293 385.847 562.616 385.378C562.949 384.909 563.116 383.972 563.116 382.566C563.116 381.149 562.949 380.212 562.616 379.753C562.293 379.284 561.881 379.05 561.381 379.05C560.902 379.05 560.517 379.253 560.225 379.659C559.86 380.18 559.678 381.149 559.678 382.566Z" fill="black"/>
<path d="M653.975 386.8V384.738H650.256V383.769L654.178 378.206H655.037V383.769H656.194V384.738H655.037V386.8H653.975ZM653.975 383.769V379.909L651.287 383.769H653.975ZM660.975 386.8V384.738H657.256V383.769L661.178 378.206H662.037V383.769H663.194V384.738H662.037V386.8H660.975ZM660.975 383.769V379.909L658.287 383.769H660.975ZM666.225 382.144C665.787 381.977 665.459 381.748 665.241 381.456C665.032 381.154 664.928 380.8 664.928 380.394C664.928 379.769 665.152 379.243 665.6 378.816C666.058 378.389 666.657 378.175 667.397 378.175C668.147 378.175 668.751 378.394 669.209 378.831C669.668 379.269 669.897 379.8 669.897 380.425C669.897 380.821 669.793 381.165 669.584 381.456C669.376 381.748 669.058 381.977 668.631 382.144C669.162 382.31 669.564 382.587 669.834 382.972C670.105 383.357 670.241 383.816 670.241 384.347C670.241 385.076 669.98 385.691 669.459 386.191C668.949 386.691 668.267 386.941 667.412 386.941C666.569 386.941 665.886 386.691 665.366 386.191C664.845 385.691 664.584 385.066 664.584 384.316C664.584 383.753 664.725 383.284 665.006 382.909C665.298 382.534 665.704 382.279 666.225 382.144ZM666.006 380.347C666.006 380.753 666.136 381.087 666.397 381.347C666.668 381.607 667.011 381.738 667.428 381.738C667.834 381.738 668.168 381.613 668.428 381.363C668.689 381.102 668.819 380.784 668.819 380.409C668.819 380.024 668.683 379.701 668.412 379.441C668.142 379.17 667.808 379.034 667.412 379.034C667.006 379.034 666.668 379.165 666.397 379.425C666.136 379.685 666.006 379.993 666.006 380.347ZM665.678 384.316C665.678 384.618 665.746 384.909 665.881 385.191C666.027 385.472 666.241 385.691 666.522 385.847C666.803 386.003 667.105 386.081 667.428 386.081C667.928 386.081 668.34 385.92 668.662 385.597C668.996 385.274 669.162 384.863 669.162 384.363C669.162 383.852 668.996 383.43 668.662 383.097C668.329 382.764 667.907 382.597 667.397 382.597C666.897 382.597 666.485 382.764 666.162 383.097C665.84 383.42 665.678 383.826 665.678 384.316ZM671.6 382.566C671.6 381.545 671.704 380.727 671.912 380.113C672.121 379.488 672.428 379.008 672.834 378.675C673.251 378.342 673.772 378.175 674.397 378.175C674.855 378.175 675.256 378.269 675.6 378.456C675.954 378.644 676.246 378.915 676.475 379.269C676.704 379.613 676.881 380.034 677.006 380.534C677.131 381.034 677.194 381.712 677.194 382.566C677.194 383.576 677.09 384.389 676.881 385.003C676.683 385.618 676.376 386.097 675.959 386.441C675.553 386.774 675.032 386.941 674.397 386.941C673.574 386.941 672.923 386.644 672.444 386.05C671.881 385.342 671.6 384.18 671.6 382.566ZM672.678 382.566C672.678 383.972 672.845 384.909 673.178 385.378C673.511 385.847 673.918 386.081 674.397 386.081C674.886 386.081 675.293 385.847 675.616 385.378C675.949 384.909 676.116 383.972 676.116 382.566C676.116 381.149 675.949 380.212 675.616 379.753C675.293 379.284 674.881 379.05 674.381 379.05C673.902 379.05 673.517 379.253 673.225 379.659C672.86 380.18 672.678 381.149 672.678 382.566ZM678.6 382.566C678.6 381.545 678.704 380.727 678.912 380.113C679.121 379.488 679.428 379.008 679.834 378.675C680.251 378.342 680.772 378.175 681.397 378.175C681.855 378.175 682.256 378.269 682.6 378.456C682.954 378.644 683.246 378.915 683.475 379.269C683.704 379.613 683.881 380.034 684.006 380.534C684.131 381.034 684.194 381.712 684.194 382.566C684.194 383.576 684.09 384.389 683.881 385.003C683.683 385.618 683.376 386.097 682.959 386.441C682.553 386.774 682.032 386.941 681.397 386.941C680.574 386.941 679.923 386.644 679.444 386.05C678.881 385.342 678.6 384.18 678.6 382.566ZM679.678 382.566C679.678 383.972 679.845 384.909 680.178 385.378C680.511 385.847 680.918 386.081 681.397 386.081C681.886 386.081 682.293 385.847 682.616 385.378C682.949 384.909 683.116 383.972 683.116 382.566C683.116 381.149 682.949 380.212 682.616 379.753C682.293 379.284 681.881 379.05 681.381 379.05C680.902 379.05 680.517 379.253 680.225 379.659C679.86 380.18 679.678 381.149 679.678 382.566Z" fill="black"/>
<path d="M576.847 65.5125V66.7H570.222C570.211 66.4083 570.258 66.1218 570.363 65.8406C570.54 65.3927 570.81 64.95 571.175 64.5125C571.55 64.0749 572.086 63.5697 572.784 62.9968C573.878 62.101 574.613 61.3927 574.988 60.8718C575.373 60.351 575.566 59.8562 575.566 59.3875C575.566 58.8979 575.389 58.4864 575.034 58.1531C574.691 57.8197 574.243 57.6531 573.691 57.6531C573.097 57.6531 572.618 57.8302 572.253 58.1843C571.899 58.5385 571.722 59.0333 571.722 59.6687L570.456 59.5281C570.54 58.5906 570.862 57.877 571.425 57.3875C571.998 56.8875 572.758 56.6375 573.706 56.6375C574.675 56.6375 575.435 56.9031 575.988 57.4343C576.55 57.9656 576.831 58.627 576.831 59.4187C576.831 59.825 576.748 60.2208 576.581 60.6062C576.425 60.9916 576.154 61.3979 575.769 61.825C575.394 62.252 574.764 62.8406 573.878 63.5906C573.139 64.2052 572.665 64.627 572.456 64.8562C572.248 65.0749 572.076 65.2937 571.941 65.5125H576.847ZM578.378 61.7625C578.378 60.575 578.498 59.6218 578.738 58.9031C578.988 58.1739 579.352 57.6166 579.831 57.2312C580.31 56.8354 580.915 56.6375 581.644 56.6375C582.185 56.6375 582.659 56.7468 583.066 56.9656C583.472 57.1843 583.805 57.4968 584.066 57.9031C584.336 58.3093 584.545 58.8041 584.691 59.3875C584.836 59.9708 584.909 60.7625 584.909 61.7625C584.909 62.9395 584.79 63.8874 584.55 64.6062C584.31 65.3249 583.951 65.8822 583.472 66.2781C582.993 66.6739 582.383 66.8718 581.644 66.8718C580.685 66.8718 579.93 66.5229 579.378 65.825C578.711 64.9916 578.378 63.6375 578.378 61.7625ZM579.644 61.7625C579.644 63.4083 579.836 64.502 580.222 65.0437C580.607 65.5854 581.081 65.8562 581.644 65.8562C582.217 65.8562 582.696 65.5854 583.081 65.0437C583.467 64.4916 583.659 63.3979 583.659 61.7625C583.659 60.1062 583.467 59.0072 583.081 58.4656C582.696 57.9239 582.211 57.6531 581.628 57.6531C581.066 57.6531 580.618 57.8927 580.284 58.3718C579.857 58.9864 579.644 60.1166 579.644 61.7625ZM592.847 65.5125V66.7H586.222C586.211 66.4083 586.258 66.1218 586.363 65.8406C586.54 65.3927 586.81 64.95 587.175 64.5125C587.55 64.0749 588.086 63.5697 588.784 62.9968C589.878 62.101 590.613 61.3927 590.988 60.8718C591.373 60.351 591.566 59.8562 591.566 59.3875C591.566 58.8979 591.389 58.4864 591.034 58.1531C590.691 57.8197 590.243 57.6531 589.691 57.6531C589.097 57.6531 588.618 57.8302 588.253 58.1843C587.899 58.5385 587.722 59.0333 587.722 59.6687L586.456 59.5281C586.54 58.5906 586.862 57.877 587.425 57.3875C587.998 56.8875 588.758 56.6375 589.706 56.6375C590.675 56.6375 591.435 56.9031 591.988 57.4343C592.55 57.9656 592.831 58.627 592.831 59.4187C592.831 59.825 592.748 60.2208 592.581 60.6062C592.425 60.9916 592.154 61.3979 591.769 61.825C591.394 62.252 590.764 62.8406 589.878 63.5906C589.139 64.2052 588.665 64.627 588.456 64.8562C588.248 65.0749 588.076 65.2937 587.941 65.5125H592.847ZM600.847 65.5125V66.7H594.222C594.211 66.4083 594.258 66.1218 594.363 65.8406C594.54 65.3927 594.81 64.95 595.175 64.5125C595.55 64.0749 596.086 63.5697 596.784 62.9968C597.878 62.101 598.613 61.3927 598.988 60.8718C599.373 60.351 599.566 59.8562 599.566 59.3875C599.566 58.8979 599.389 58.4864 599.034 58.1531C598.691 57.8197 598.243 57.6531 597.691 57.6531C597.097 57.6531 596.618 57.8302 596.253 58.1843C595.899 58.5385 595.722 59.0333 595.722 59.6687L594.456 59.5281C594.54 58.5906 594.862 57.877 595.425 57.3875C595.998 56.8875 596.758 56.6375 597.706 56.6375C598.675 56.6375 599.435 56.9031 599.988 57.4343C600.55 57.9656 600.831 58.627 600.831 59.4187C600.831 59.825 600.748 60.2208 600.581 60.6062C600.425 60.9916 600.154 61.3979 599.769 61.825C599.394 62.252 598.764 62.8406 597.878 63.5906C597.139 64.2052 596.665 64.627 596.456 64.8562C596.248 65.0749 596.076 65.2937 595.941 65.5125H600.847Z" fill="#999999"/>
<path d="M606.175 58.1687C605.487 59.3666 604.633 60.3666 603.612 61.1687L602.847 60.1843C604.336 59.0906 605.357 57.5072 605.909 55.4343L607.159 55.7625C607.305 55.9083 607.253 55.9968 607.003 56.0281L606.566 57.1218H614.269V58.1687H610.284V60.0281H613.566V61.0593H610.284V63.5281H614.878V64.5593H610.284V67.8562H609.191V64.5593H602.894V63.5281H605.362V60.0281H609.191V58.1687H606.175ZM606.456 63.5281H609.191V61.0593H606.456V63.5281Z" fill="#999999"/>
<path d="M616.566 64.3875L617.753 64.2781C617.847 64.8302 618.034 65.2312 618.316 65.4812C618.607 65.7312 618.972 65.8562 619.409 65.8562C619.784 65.8562 620.112 65.7729 620.394 65.6062C620.685 65.4291 620.92 65.1947 621.097 64.9031C621.284 64.6114 621.441 64.2208 621.566 63.7312C621.691 63.2416 621.753 62.7416 621.753 62.2312C621.753 62.1791 621.748 62.0958 621.737 61.9812C621.498 62.377 621.165 62.7 620.737 62.95C620.31 63.1895 619.847 63.3093 619.347 63.3093C618.514 63.3093 617.81 63.0072 617.237 62.4031C616.665 61.7989 616.378 61.0072 616.378 60.0281C616.378 59.0072 616.675 58.1895 617.269 57.575C617.873 56.95 618.628 56.6375 619.534 56.6375C620.18 56.6375 620.774 56.8145 621.316 57.1687C621.857 57.5125 622.269 58.0125 622.55 58.6687C622.831 59.3145 622.972 60.252 622.972 61.4812C622.972 62.7625 622.831 63.7833 622.55 64.5437C622.279 65.3041 621.868 65.8822 621.316 66.2781C620.764 66.6739 620.118 66.8718 619.378 66.8718C618.597 66.8718 617.956 66.6531 617.456 66.2156C616.967 65.7781 616.67 65.1687 616.566 64.3875ZM621.597 59.9656C621.597 59.2572 621.409 58.6947 621.034 58.2781C620.659 57.8614 620.211 57.6531 619.691 57.6531C619.139 57.6531 618.659 57.877 618.253 58.325C617.847 58.7729 617.644 59.351 617.644 60.0593C617.644 60.6947 617.836 61.2156 618.222 61.6218C618.607 62.0177 619.081 62.2156 619.644 62.2156C620.217 62.2156 620.685 62.0177 621.05 61.6218C621.415 61.2156 621.597 60.6635 621.597 59.9656Z" fill="#999999"/>
<path d="M633.706 63.5281H628.503C628.503 65.0906 627.701 66.5697 626.097 67.9656L625.175 66.9187C626.665 65.9708 627.409 64.5489 627.409 62.6531V55.9812H634.8V66.7625C634.8 67.3458 634.487 67.6375 633.862 67.6375H632.55L632.331 66.4187H633.487C633.633 66.4187 633.706 66.3458 633.706 66.2V63.5281ZM628.503 62.325H633.706V60.3562H628.503V62.325ZM628.503 59.1531H633.706V57.1843H628.503V59.1531Z" fill="#999999"/>
<path d="M644.847 65.5125V66.7H638.222C638.211 66.4083 638.258 66.1218 638.363 65.8406C638.54 65.3927 638.81 64.95 639.175 64.5125C639.55 64.0749 640.086 63.5697 640.784 62.9968C641.878 62.101 642.613 61.3927 642.988 60.8718C643.373 60.351 643.566 59.8562 643.566 59.3875C643.566 58.8979 643.389 58.4864 643.034 58.1531C642.691 57.8197 642.243 57.6531 641.691 57.6531C641.097 57.6531 640.618 57.8302 640.253 58.1843C639.899 58.5385 639.722 59.0333 639.722 59.6687L638.456 59.5281C638.54 58.5906 638.862 57.877 639.425 57.3875C639.998 56.8875 640.758 56.6375 641.706 56.6375C642.675 56.6375 643.435 56.9031 643.988 57.4343C644.55 57.9656 644.831 58.627 644.831 59.4187C644.831 59.825 644.748 60.2208 644.581 60.6062C644.425 60.9916 644.154 61.3979 643.769 61.825C643.394 62.252 642.764 62.8406 641.878 63.5906C641.139 64.2052 640.665 64.627 640.456 64.8562C640.248 65.0749 640.076 65.2937 639.941 65.5125H644.847ZM646.566 64.3875L647.753 64.2781C647.847 64.8302 648.034 65.2312 648.316 65.4812C648.607 65.7312 648.972 65.8562 649.409 65.8562C649.784 65.8562 650.113 65.7729 650.394 65.6062C650.685 65.4291 650.92 65.1947 651.097 64.9031C651.284 64.6114 651.441 64.2208 651.566 63.7312C651.691 63.2416 651.753 62.7416 651.753 62.2312C651.753 62.1791 651.748 62.0958 651.738 61.9812C651.498 62.377 651.165 62.7 650.738 62.95C650.31 63.1895 649.847 63.3093 649.347 63.3093C648.514 63.3093 647.81 63.0072 647.238 62.4031C646.665 61.7989 646.378 61.0072 646.378 60.0281C646.378 59.0072 646.675 58.1895 647.269 57.575C647.873 56.95 648.628 56.6375 649.534 56.6375C650.18 56.6375 650.774 56.8145 651.316 57.1687C651.857 57.5125 652.269 58.0125 652.55 58.6687C652.831 59.3145 652.972 60.252 652.972 61.4812C652.972 62.7625 652.831 63.7833 652.55 64.5437C652.279 65.3041 651.868 65.8822 651.316 66.2781C650.764 66.6739 650.118 66.8718 649.378 66.8718C648.597 66.8718 647.956 66.6531 647.456 66.2156C646.967 65.7781 646.67 65.1687 646.566 64.3875ZM651.597 59.9656C651.597 59.2572 651.409 58.6947 651.034 58.2781C650.659 57.8614 650.211 57.6531 649.691 57.6531C649.139 57.6531 648.659 57.877 648.253 58.325C647.847 58.7729 647.644 59.351 647.644 60.0593C647.644 60.6947 647.836 61.2156 648.222 61.6218C648.607 62.0177 649.081 62.2156 649.644 62.2156C650.217 62.2156 650.685 62.0177 651.05 61.6218C651.415 61.2156 651.597 60.6635 651.597 59.9656Z" fill="#999999"/>
<path d="M657.8 67.2H656.534V56.6375H665.128V66.9812H663.862V66.2H657.8V67.2ZM663.862 60.7937V57.6687H657.8V60.7937H663.862ZM663.862 65.1687V61.825H657.8V65.1687H663.862ZM678.081 59.8562H680.659V60.7312H678.362V61.9968H680.222V62.8718H678.362V64.1843H680.222V65.0593H678.362V66.4187H681.097V67.3093H675.566V67.8562H674.644V61.7781C674.352 62.1739 673.987 62.5385 673.55 62.8718L673.159 61.825C674.545 60.5854 675.441 59.2937 675.847 57.95H674.581V59.2H673.659V57.075H676.066C676.211 56.4916 676.336 55.8718 676.441 55.2156L677.534 55.4812C677.649 55.5958 677.612 55.7052 677.425 55.8093C677.321 56.2468 677.211 56.6687 677.097 57.075H680.987V58.9812H680.05V57.95H676.878C676.659 58.7104 676.368 59.3458 676.003 59.8562H677.159L677.862 58.2156L678.909 58.4343C679.086 58.5072 679.05 58.601 678.8 58.7156L678.081 59.8562ZM668.847 57.3406V56.3093H673.487V57.3406H671.581C671.508 58.476 671.269 59.5177 670.862 60.4656H673.003V66.9812H672.066V66.0906H670.644V67.5281H669.722V62.5906C669.503 62.9552 669.264 63.2833 669.003 63.575L668.3 62.6531C669.571 61.226 670.316 59.4552 670.534 57.3406H668.847ZM675.566 62.8718V64.1843H677.425V62.8718H675.566ZM675.566 60.7312V61.9968H677.425V60.7312H675.566ZM675.566 65.0593V66.4187H677.425V65.0593H675.566ZM670.644 61.3406V65.2156H672.066V61.3406H670.644ZM687.222 61.45C688.566 61.0854 689.42 60.3718 689.784 59.3093L688.316 58.7156L688.691 57.7781L690.003 58.2781L690.112 56.9656H687.816V55.9187H694.378L694.269 60.6218C694.237 61.5385 693.857 61.9968 693.128 61.9968H691.862L691.753 60.95H692.909C693.128 60.95 693.237 60.8406 693.237 60.6218L693.347 56.9656H691.206L691.05 58.7156L692.362 59.4187L691.862 60.4031L690.769 59.8093C690.3 61.1531 689.264 62.0645 687.659 62.5437L687.222 61.45ZM694.159 66.9187C693.868 65.8249 693.415 64.877 692.8 64.075L693.784 63.6375C694.586 64.6166 695.097 65.5437 695.316 66.4187L694.159 66.9187ZM686.831 63.4656V67.6843H685.909V67.3093H684.05V67.9031H683.112V63.4656H686.831ZM687.269 66.9812C687.529 66.0645 687.696 65.0229 687.769 63.8562L688.862 63.9656C688.935 63.9968 688.899 64.0854 688.753 64.2312C688.711 65.3979 688.545 66.4031 688.253 67.2468L687.269 66.9812ZM690.769 61.6687C691.279 61.9916 691.79 62.5541 692.3 63.3562L691.269 63.9656C691.008 63.4552 690.571 62.8718 689.956 62.2156L690.769 61.6687ZM683.331 55.7H686.612V56.7468H683.331V55.7ZM682.628 57.5593H687.331V58.6062H682.628V57.5593ZM683.331 59.5906H686.612V60.6218H683.331V59.5906ZM683.331 61.45H686.612V62.4812H683.331V61.45ZM684.05 64.3406V66.4187H685.909V64.3406H684.05ZM690.222 63.3093C690.514 63.3406 690.534 63.45 690.284 63.6375V66.2C690.284 66.4604 690.394 66.5906 690.612 66.5906H691.816C692.034 66.5906 692.159 66.4812 692.191 66.2625L692.3 65.3875L693.394 65.6531L693.175 66.8093C693.071 67.3614 692.743 67.6375 692.191 67.6375H690.112C689.498 67.6375 689.191 67.3041 689.191 66.6375V63.3093H690.222Z" fill="#999999"/>
<path d="M30.8719 39.4031C31.1323 39.6635 31.0542 39.7937 30.6375 39.7937C29.1792 41.0958 27.3563 42.1114 25.1688 42.8406L24.075 41.0437C26.2104 40.4708 28.0333 39.5333 29.5438 38.2312L30.8719 39.4031ZM38.7625 27.1375C38.8667 27.3979 38.6844 27.45 38.2156 27.2937C35.299 27.6062 32.174 27.8927 28.8406 28.1531L28.9188 30.4968H39.7V31.9812H36.0281V35.7312H40.95V37.45H23.45V35.7312H27.5125L27.1219 26.2L28.9188 26.7468C32.0958 26.3302 34.9344 25.8875 37.4344 25.4187L38.7625 27.1375ZM34.4656 35.7312V31.9812H28.9969L29.1531 35.7312H34.4656ZM34.9344 38.2312C36.3927 39.4291 38.3458 40.3406 40.7938 40.9656L39.9344 42.7625C37.5906 42.1895 35.5333 41.1218 33.7625 39.5593L34.9344 38.2312ZM53.45 25.0281C53.9708 25.1322 53.9969 25.3406 53.5281 25.6531V26.7468H60.5594V27.9968H46.1844V36.6687C46.1844 39.2208 45.5594 41.252 44.3094 42.7625L43.0594 41.5125C44.1011 40.1583 44.6219 38.3614 44.6219 36.1218V26.7468H51.7313V25.0281H53.45ZM52.6688 29.7156V28.6218H54.1531C54.5698 28.6739 54.5958 28.8302 54.2313 29.0906V29.7156H60.0906V30.9656H54.2313V32.0593H58.5281V37.7625H54.2313V39.0125H61.0281V40.2625H54.2313V42.9187H52.6688V40.2625H46.6531V39.0125H52.6688V37.7625H50.4813H48.2938V32.0593H52.6688V30.9656H47.5906V29.7156H52.6688ZM57.2 33.3093H54.2313V34.4031H57.2V33.3093ZM52.6688 33.3093H49.6219V34.4031H52.6688V33.3093ZM52.6688 35.3406H49.6219V36.5125H52.6688V35.3406ZM57.2 35.3406H54.2313V36.5125H57.2V35.3406ZM76.1844 37.6062C77.2261 38.6479 78.7625 39.6895 80.7938 40.7312L79.8563 42.3718C78.0854 41.5385 76.4188 40.3406 74.8563 38.7781L76.1844 37.6062ZM69.3875 39.0125C68.5021 40.2625 67.1479 41.4864 65.325 42.6843L64.1531 41.2C65.8198 40.2104 67.1479 39.0385 68.1375 37.6843L69.6219 38.5437C69.8823 38.752 69.8042 38.9083 69.3875 39.0125ZM66.1844 36.9812V37.7625H64.6219V26.5125H66.1063C66.5229 26.5645 66.549 26.7208 66.1844 26.9812V35.4968H80.5594V36.9812H73.2938V42.9968H71.4969V36.9812H66.1844ZM69.6219 33.2312H76.4188V31.7468H69.6219V33.2312ZM69.6219 30.4968H76.4188V29.2468H69.6219V30.4968ZM69.6219 27.9968H76.4188V26.7468H69.6219V27.9968ZM68.0594 34.4812V25.4968H77.9813V34.4812H68.0594ZM92.9813 30.1843C92.0958 35.3927 91.0281 38.6218 89.7781 39.8718C89.1011 40.5489 88.3979 40.8875 87.6688 40.8875C86.8354 40.8875 86.1844 40.6531 85.7156 40.1843C84.4656 38.9343 83.8406 37.3718 83.8406 35.4968C83.8406 33.2052 84.6479 31.252 86.2625 29.6375C88.0333 27.8666 90.1948 26.9812 92.7469 26.9812C95.0386 26.9812 96.8354 27.6322 98.1375 28.9343C99.5958 30.3927 100.325 32.1114 100.325 34.0906C100.325 36.226 99.6479 37.9708 98.2938 39.325C97.4083 40.2104 96.0542 41.0697 94.2313 41.9031L92.5906 40.2625C94.4136 39.6895 95.8458 38.8822 96.8875 37.8406C97.8771 36.851 98.3719 35.6531 98.3719 34.2468C98.3719 32.5802 97.825 31.2 96.7313 30.1062C95.6375 29.0125 93.9188 28.5177 91.575 28.6218L92.9813 29.325C93.6063 29.5854 93.6063 29.8718 92.9813 30.1843ZM91.1844 28.7C89.8302 29.0125 88.6583 29.6635 87.6688 30.6531C86.3146 32.0072 85.6375 33.6739 85.6375 35.6531C85.6375 36.851 86.0281 37.8406 86.8094 38.6218C86.9656 38.7781 87.2 38.8562 87.5125 38.8562C87.825 38.8562 88.1636 38.6739 88.5281 38.3093C89.7261 37.1114 90.6115 33.9083 91.1844 28.7ZM110.325 41.5125C112.46 40.3666 113.528 38.4135 113.528 35.6531V26.6687L115.169 26.9812L119.388 25.6531L120.559 27.2156C120.664 27.5281 120.481 27.5802 120.013 27.3718L115.091 28.3093V31.6687H121.263V33.1531H118.919V42.9187H117.356V33.1531H115.091V36.1218C115.091 39.1947 113.789 41.4864 111.184 42.9968L110.325 41.5125ZM108.841 42.9968H107.278V38.3093C106.445 39.6635 105.533 40.7312 104.544 41.5125L103.372 40.1062C104.83 39.0645 106.054 37.7625 107.044 36.2H103.763V34.7156H107.278V32.9968H103.294V31.5125H108.763L109.622 28.7H103.841V27.2156H107.278V25.0281H108.763C109.179 25.0802 109.205 25.2364 108.841 25.4968V27.2156H112.278V28.7H111.263L110.169 31.5125H112.669V32.9968H108.841V34.7156H112.278V36.2H108.841V36.9031C109.57 37.1114 110.585 37.6583 111.888 38.5437L110.95 40.1062C110.221 39.377 109.518 38.8041 108.841 38.3875V42.9968ZM105.716 31.3562C105.507 30.627 105.221 29.9239 104.856 29.2468L106.341 28.7781C106.757 29.4552 107.07 30.1583 107.278 30.8875L105.716 31.3562ZM138.45 33.5437H133.372V35.2625H138.45V33.5437ZM136.341 36.7468H134.934V37.5281C134.934 40.7572 133.085 42.6583 129.388 43.2312L128.919 41.5906C131.888 41.226 133.372 39.8197 133.372 37.3718V36.7468H132.591H131.809V25.8093H140.013V36.7468H137.903V40.6531C137.903 41.0697 138.085 41.2781 138.45 41.2781H139.231C139.492 41.2781 139.648 41.0177 139.7 40.4968L139.856 39.1687L141.419 39.6375L141.184 41.4343C141.08 42.3197 140.585 42.7625 139.7 42.7625H137.747C136.809 42.7625 136.341 42.3197 136.341 41.4343V36.7468ZM133.372 32.0593H138.45V30.4187H133.372V32.0593ZM133.372 28.9343H138.45V27.2937H133.372V28.9343ZM127.747 35.8875C128.789 36.3562 130.013 37.2156 131.419 38.4656L130.325 40.1062C129.231 38.9083 128.268 38.0229 127.434 37.45C126.914 39.7416 125.82 41.5385 124.153 42.8406L122.981 41.4343C125.273 39.5072 126.367 37.0072 126.263 33.9343H123.294V32.45H126.341V29.6375H123.841V28.1531H126.341V25.0281H127.825C128.242 25.0802 128.268 25.2364 127.903 25.4968V28.1531H130.638V29.6375H127.903V32.45H131.028V33.9343H127.825C127.825 34.7677 127.799 35.4187 127.747 35.8875ZM147.825 32.1375C148.815 33.4916 149.309 34.8979 149.309 36.3562C149.309 38.3875 148.71 39.4031 147.513 39.4031H146.575L146.263 37.8406H147.044C147.565 37.8406 147.799 37.2937 147.747 36.2C147.695 34.6895 147.226 33.3614 146.341 32.2156L147.903 27.1375H145.481V42.7625H143.919V25.8875H148.294L148.606 25.4968L149.934 26.6687L149.622 26.9812L147.825 32.1375ZM159.153 36.5125H158.372C157.539 40.3145 154.752 42.502 150.013 43.075L149.544 41.5906C153.606 41.2781 156.054 39.5854 156.888 36.5125H155.794C154.908 38.7 153.033 40.0281 150.169 40.4968L149.7 39.1687C152.096 38.6479 153.58 37.7625 154.153 36.5125H152.903C152.174 37.2416 151.236 37.8145 150.091 38.2312L149.466 36.9031C151.132 36.3822 152.278 35.3927 152.903 33.9343H149.388V32.6843H161.106V33.9343H154.544C154.335 34.4031 154.075 34.8458 153.763 35.2625H160.638L160.481 40.1843C160.429 41.851 159.83 42.6843 158.684 42.6843H157.122L156.888 41.2H158.216C158.684 41.2 158.945 40.8875 158.997 40.2625L159.153 36.5125ZM152.513 30.4187H157.825V29.0906H152.513V30.4187ZM152.513 27.8406H157.825V26.5906H152.513V27.8406ZM159.153 25.3406V31.6687H151.184V25.3406H159.153ZM172.434 29.325H174.544V25.2625H176.028C176.445 25.3145 176.471 25.4708 176.106 25.7312V29.325H180.325V30.8093H176.106V34.5593H180.091V36.0437H176.106V40.6531H181.263V42.1375H169.309V40.6531H174.544V36.0437H170.716V34.5593H174.544V30.8093H171.966C171.601 31.851 171.028 32.8927 170.247 33.9343L168.919 32.9187C170.273 31.1479 171.158 29.0125 171.575 26.5125L173.059 26.825C173.476 26.9812 173.476 27.1375 173.059 27.2937L172.434 29.325ZM165.794 25.0281H167.278C167.695 25.0802 167.721 25.2364 167.356 25.4968V42.8406H165.794V25.0281ZM168.763 28.2312C169.231 28.8562 169.622 29.5593 169.934 30.3406L168.684 31.2C168.32 30.3145 167.955 29.5854 167.591 29.0125L168.763 28.2312ZM165.325 29.0906C165.69 29.1947 165.69 29.351 165.325 29.5593C165.221 31.226 164.986 32.7885 164.622 34.2468L163.138 33.7781C163.554 32.476 163.789 30.8354 163.841 28.8562L165.325 29.0906ZM198.138 33.6218V42.6843H196.575V41.9031H189.544V42.9187H187.981V35.8093C186.627 36.5385 185.169 37.1114 183.606 37.5281L183.059 36.1218C184.518 35.7572 186.158 35.1062 187.981 34.1687V33.6218H189.075C190.169 32.9968 191.106 32.3718 191.888 31.7468H183.684V30.2625H190.559V28.3875H185.716V26.9031H190.559V25.0281H192.044C192.46 25.0802 192.486 25.2364 192.122 25.4968V26.9031H195.872V28.2312C196.497 27.5541 197.122 26.7989 197.747 25.9656L198.841 26.6687C199.205 26.9291 199.153 27.0854 198.684 27.1375C197.695 28.3354 196.705 29.377 195.716 30.2625H201.106V31.7468H194.075C193.033 32.6322 192.2 33.2572 191.575 33.6218H198.138ZM193.606 30.2625C194.231 29.7937 194.934 29.1687 195.716 28.3875H192.122V30.2625H193.606ZM189.544 36.9812H196.575V34.8718H189.544V36.9812ZM189.544 40.6531H196.575V38.2312H189.544V40.6531ZM216.731 36.9031C217.46 35.4968 217.903 33.3614 218.059 30.4968H215.403C215.559 33.3614 216.002 35.4968 216.731 36.9031ZM219.622 30.4968C219.518 33.726 218.893 36.3302 217.747 38.3093C218.58 39.351 219.752 40.2625 221.263 41.0437L220.247 42.7625C218.58 41.6687 217.408 40.627 216.731 39.6375C215.533 40.9916 213.684 42.1635 211.184 43.1531L210.403 41.5906C213.111 40.4968 214.908 39.377 215.794 38.2312C214.908 36.5125 214.414 34.7937 214.309 33.075C213.997 33.8562 213.684 34.4552 213.372 34.8718L212.044 33.8562C213.606 31.5645 214.544 28.726 214.856 25.3406L216.497 25.7312C216.809 25.9395 216.731 26.0958 216.263 26.2C216.106 27.1375 215.898 28.075 215.638 29.0125H220.95V30.4968H219.622ZM212.356 26.7468C212.044 27.5281 211.679 28.1791 211.263 28.7L210.013 27.9968C210.429 27.3197 210.82 26.5385 211.184 25.6531L212.591 26.3562C212.799 26.5645 212.721 26.6947 212.356 26.7468ZM207.356 37.7625C208.085 37.9708 208.736 38.2052 209.309 38.4656C209.726 37.9968 210.065 37.2937 210.325 36.3562H208.059C207.851 36.825 207.617 37.2937 207.356 37.7625ZM206.263 39.7156L205.013 39.0125C205.533 38.2312 206.054 37.3458 206.575 36.3562H203.606V35.1062H207.044C207.356 34.4291 207.591 33.8562 207.747 33.3875L209.231 33.7781C209.44 33.9864 209.361 34.1166 208.997 34.1687L208.528 35.1062H212.981V36.3562H211.809C211.549 37.3979 211.158 38.2833 210.638 39.0125C211.106 39.2208 211.601 39.4812 212.122 39.7937L211.419 41.0437C210.846 40.6791 210.325 40.3927 209.856 40.1843C208.502 41.5385 206.679 42.3718 204.388 42.6843L203.841 41.2781C205.872 41.0697 207.434 40.4968 208.528 39.5593C207.955 39.2989 207.382 39.0645 206.809 38.8562L206.263 39.7156ZM207.825 25.0281H209.075C209.492 25.0802 209.518 25.2364 209.153 25.4968V28.8562H213.138V30.1062H209.856C210.429 30.7833 211.315 31.4343 212.513 32.0593L211.653 33.3875C210.768 32.8666 209.934 32.1375 209.153 31.2V33.075H207.825V31.5906C206.992 32.6322 205.846 33.5697 204.388 34.4031L203.372 33.1531C204.986 32.3197 206.315 31.3041 207.356 30.1062H203.763V28.8562H207.825V25.0281ZM205.638 28.6218C205.273 27.8406 204.804 27.1635 204.231 26.5906L205.481 25.8093C206.106 26.4343 206.575 27.0854 206.888 27.7625L205.638 28.6218ZM232.981 30.1843C232.096 35.3927 231.028 38.6218 229.778 39.8718C229.101 40.5489 228.398 40.8875 227.669 40.8875C226.835 40.8875 226.184 40.6531 225.716 40.1843C224.466 38.9343 223.841 37.3718 223.841 35.4968C223.841 33.2052 224.648 31.252 226.263 29.6375C228.033 27.8666 230.195 26.9812 232.747 26.9812C235.039 26.9812 236.835 27.6322 238.138 28.9343C239.596 30.3927 240.325 32.1114 240.325 34.0906C240.325 36.226 239.648 37.9708 238.294 39.325C237.408 40.2104 236.054 41.0697 234.231 41.9031L232.591 40.2625C234.414 39.6895 235.846 38.8822 236.888 37.8406C237.877 36.851 238.372 35.6531 238.372 34.2468C238.372 32.5802 237.825 31.2 236.731 30.1062C235.638 29.0125 233.919 28.5177 231.575 28.6218L232.981 29.325C233.606 29.5854 233.606 29.8718 232.981 30.1843ZM231.184 28.7C229.83 29.0125 228.658 29.6635 227.669 30.6531C226.315 32.0072 225.638 33.6739 225.638 35.6531C225.638 36.851 226.028 37.8406 226.809 38.6218C226.966 38.7781 227.2 38.8562 227.513 38.8562C227.825 38.8562 228.164 38.6739 228.528 38.3093C229.726 37.1114 230.611 33.9083 231.184 28.7ZM248.763 31.825C250.481 30.2104 251.809 27.8666 252.747 24.7937L254.309 25.2625C254.57 25.4708 254.518 25.601 254.153 25.6531C253.736 26.6947 253.32 27.6583 252.903 28.5437H255.247C255.82 27.3458 256.263 26.2781 256.575 25.3406L258.059 25.8875C258.268 26.0958 258.19 26.226 257.825 26.2781C257.46 27.1114 257.096 27.8666 256.731 28.5437H260.716V30.0281H256.731V32.45H259.934V33.9343H256.731V36.4343H259.934V37.9187H256.731V40.8093H261.184V42.2937H252.591V42.9968H251.028V31.6687C250.664 32.1895 250.273 32.6583 249.856 33.075L248.763 31.825ZM244.856 42.8406L244.544 41.3562H245.872C246.08 41.3562 246.184 41.252 246.184 41.0437V36.2L244.153 36.6687C244.101 37.0333 243.971 37.1114 243.763 36.9031L243.45 35.1062L246.184 34.5593V30.4187H243.763V28.9343H246.184V24.95H247.669C248.085 25.002 248.111 25.1583 247.747 25.4187V28.9343H249.778V30.4187H247.747V34.2468L249.778 33.7L250.013 35.1062L247.747 35.8093V41.5906C247.747 42.4239 247.33 42.8406 246.497 42.8406H244.856ZM252.591 40.8093H255.169V37.9187H252.591V40.8093ZM252.591 36.4343H255.169V33.9343H252.591V36.4343ZM252.591 32.45H255.169V30.0281H252.591V32.45ZM278.841 27.1375L279.075 26.825L280.325 27.8406L280.091 28.075C278.736 30.4187 277.408 31.9812 276.106 32.7625L276.888 32.9968C277.252 33.1531 277.226 33.3093 276.809 33.4656C276.705 33.8302 276.575 34.1427 276.419 34.4031H279.778L280.013 34.0906L281.419 35.1062L281.106 35.4187C279.44 39.8458 276.054 42.3458 270.95 42.9187L270.325 41.4343C272.773 41.1739 274.7 40.5229 276.106 39.4812C275.377 38.752 274.648 38.127 273.919 37.6062C273.242 38.1791 272.33 38.7 271.184 39.1687L270.481 37.7625C273.033 36.7208 274.7 35.1322 275.481 32.9968C274.7 33.726 273.294 34.351 271.263 34.8718L270.559 33.4656C272.539 33.0489 274.023 32.502 275.013 31.825C274.492 31.2 273.867 30.6531 273.138 30.1843C272.773 30.5489 272.408 30.8614 272.044 31.1218L270.95 29.95C272.669 28.4916 273.763 26.9291 274.231 25.2625L275.638 25.7312C276.002 25.8875 275.976 26.0437 275.559 26.2C275.507 26.5125 275.377 26.825 275.169 27.1375H278.841ZM268.216 30.1843H270.794V31.6687H268.216V33.6218C269.257 34.0906 270.247 34.7937 271.184 35.7312L270.169 37.1375C269.335 36.3041 268.684 35.7052 268.216 35.3406V42.9187H266.653V35.1843C266.341 36.226 265.481 37.5541 264.075 39.1687L262.903 37.6843C264.83 35.8614 266.028 33.8562 266.497 31.6687H263.45V30.1843H266.653V27.6062C265.611 27.7625 264.674 27.8927 263.841 27.9968L263.45 26.5125C265.533 26.3041 267.695 25.8875 269.934 25.2625L270.794 26.4343C271.002 26.7468 270.872 26.851 270.403 26.7468C269.674 26.9552 268.945 27.1375 268.216 27.2937V30.1843ZM273.919 29.2468C274.7 29.6635 275.455 30.1843 276.184 30.8093C276.966 30.0802 277.617 29.2729 278.138 28.3875H274.544C274.335 28.752 274.127 29.0385 273.919 29.2468ZM274.778 36.6687C275.507 37.0854 276.341 37.7104 277.278 38.5437C278.059 37.9708 278.736 37.0072 279.309 35.6531H275.716C275.403 36.0697 275.091 36.4083 274.778 36.6687ZM286.809 29.325C287.382 28.127 288.346 26.9031 289.7 25.6531L290.559 26.4343C289.257 27.6322 288.346 28.7781 287.825 29.8718C287.252 31.0697 286.966 32.502 286.966 34.1687C286.966 35.575 287.252 36.9031 287.825 38.1531C288.346 39.2989 289.257 40.575 290.559 41.9812L289.7 42.8406C288.398 41.3822 287.434 40.002 286.809 38.7C286.132 37.2937 285.794 35.7833 285.794 34.1687C285.794 32.3458 286.132 30.7312 286.809 29.325ZM297.903 41.9031H296.106V26.825H308.372V41.5906H306.575V40.4968H297.903V41.9031ZM306.575 32.7625V28.3093H297.903V32.7625H306.575ZM306.575 39.0125V34.2468H297.903V39.0125H306.575ZM321.341 35.8093H318.372C317.903 38.7781 316.497 41.1218 314.153 42.8406L313.372 41.3562C315.664 39.7416 316.914 37.3458 317.122 34.1687L317.278 31.7468H316.184V32.7625H314.622V26.0437H322.513V32.45H320.95V31.7468H318.684L318.528 34.325H322.903L322.513 40.4968C322.408 41.7468 321.888 42.3718 320.95 42.3718H318.841L318.606 40.8875H320.325C320.794 40.8875 321.054 40.627 321.106 40.1062L321.341 35.8093ZM329.778 41.2C329.778 42.0854 329.361 42.5281 328.528 42.5281H326.809L326.497 41.0437H327.981C328.138 41.0437 328.216 40.9656 328.216 40.8093V25.8093H329.7C330.117 25.8614 330.143 26.0177 329.778 26.2781V41.2ZM326.028 27.6843C326.445 27.7364 326.471 27.8927 326.106 28.1531V38.8562H324.544V27.6843H326.028ZM320.95 30.4968V27.2937H316.184V30.4968H320.95ZM337.513 38.7C336.888 40.002 335.924 41.3822 334.622 42.8406L333.763 41.9812C335.065 40.575 335.976 39.2989 336.497 38.1531C337.07 36.9031 337.356 35.575 337.356 34.1687C337.356 32.502 337.07 31.0697 336.497 29.8718C335.976 28.7781 335.065 27.6322 333.763 26.4343L334.622 25.6531C335.976 26.9031 336.94 28.127 337.513 29.325C338.19 30.7312 338.528 32.3458 338.528 34.1687C338.528 35.7833 338.19 37.2937 337.513 38.7Z" fill="#757575"/>
</g>
<rect x="2" y="2" width="714" height="440" stroke="black" stroke-width="4"/>
<defs>
<clipPath id="clip0_6_9380">
<rect width="718" height="444" fill="white"/>
</clipPath>
</defs>
</svg>
