<svg width="718" height="444" viewBox="0 0 718 444" fill="none" xmlns="http://www.w3.org/2000/svg">
<g clip-path="url(#clip0_6_10416)">
<path d="M0 0H718V444H0V0Z" fill="white"/>
<path d="M181.5 91.5V369.5" stroke="#CCCCCC" stroke-miterlimit="10"/>
<path d="M303.5 91.5V369.5" stroke="#CCCCCC" stroke-miterlimit="10"/>
<path d="M424.5 91.5V369.5" stroke="#CCCCCC" stroke-miterlimit="10"/>
<path d="M545.5 91.5V369.5" stroke="#CCCCCC" stroke-miterlimit="10"/>
<path d="M667.5 91.5V369.5" stroke="#CCCCCC" stroke-miterlimit="10"/>
<path d="M88.5 369.5H695.5" stroke="#333333" stroke-miterlimit="10"/>
<path d="M88.5 314.5H695.5" stroke="#CCCCCC" stroke-miterlimit="10"/>
<path d="M88.5 258.5H695.5" stroke="#CCCCCC" stroke-miterlimit="10"/>
<path d="M88.5 202.5H695.5" stroke="#CCCCCC" stroke-miterlimit="10"/>
<path d="M88.5 147.5H695.5" stroke="#CCCCCC" stroke-miterlimit="10"/>
<path d="M88.5 91.5H695.5" stroke="#CCCCCC" stroke-miterlimit="10"/>
<path d="M88.2 369.8H88.807H89.414H90.021H90.628H91.235H91.842H92.449H93.056H93.6629H94.2699H94.8769H95.4839H96.0909H96.6979H97.3049H97.9119H98.5189H99.1259H99.7329H100.34H100.947H101.554H102.161H102.768H103.375H103.982H104.589H105.196H105.803H106.41H107.017H107.624H108.231H108.838H109.445H110.052H110.659H111.266H111.873H112.48H113.087H113.694H114.301H114.908H115.515H116.122H116.729H117.336H117.943H118.55H119.157H119.764H120.371H120.978H121.585H122.192H122.799H123.406H124.013H124.62L125.227 369.744H125.834H126.441L127.048 369.8H127.655H128.262L128.869 369.689L129.476 369.522L130.083 369.8H130.69L131.297 369.633H131.904L132.51 369.8L133.117 369.577H133.724L134.331 368.798L134.938 369.689L135.545 369.243L136.152 369.522H136.759L137.366 369.41L137.973 369.466L138.58 369.8L139.187 369.577L139.794 369.243H140.401L141.008 369.355L141.615 369.744L142.222 369.466L142.829 369.633L143.436 369.577L144.043 369.355L144.65 369.577H145.257H145.864L146.471 369.633L147.078 369.522L147.685 369.689L148.292 369.577L148.899 369.744L149.506 369.633L150.113 369.8L150.72 369.744H151.327L151.934 369.8L152.541 369.689L153.148 369.8H153.755L154.362 369.689L154.969 369.744L155.576 369.8H156.183H156.79H157.397H158.004H158.611H159.218H159.825H160.432H161.039H161.646H162.253H162.86H163.467H164.074H164.681H165.288H165.895H166.502H167.109H167.716H168.323H168.93H169.537H170.144H170.751H171.358H171.965H172.572H173.179H173.786H174.393H175H175.607H176.214H176.821H177.428H178.035H178.642H179.249H179.856H180.463H181.07H181.677H182.284L182.891 369.689L183.498 369.8H184.105H184.712H185.319H185.926L186.533 369.689L187.14 369.8L187.747 369.744H188.354L188.961 369.8H189.568L190.175 369.689L190.782 369.466L191.389 369.744L191.996 369.8L192.603 369.633L193.21 369.744H193.817H194.424L195.031 369.41L195.638 369.8L196.245 369.633H196.852L197.459 369.689L198.066 369.522L198.673 369.689L199.28 369.577L199.887 369.522H200.494L201.101 369.744L201.708 369.577L202.315 369.522L202.922 369.689H203.529L204.136 369.8L204.743 369.633L205.35 369.689L205.957 368.965L206.564 369.299L207.171 369.132L207.778 369.021H208.385H208.992L209.599 369.522L210.206 369.41L210.813 369.243L211.42 369.132H212.027H212.634L213.241 368.854L213.848 369.466L214.455 369.633L215.062 369.243L215.669 368.965L216.276 369.132L216.883 369.41L217.49 369.689L218.097 369.577L218.704 369.41L219.311 369.076L219.917 369.633L220.524 369.188L221.131 369.355L221.738 369.522L222.345 369.577L222.952 369.522L223.559 369.132L224.166 369.355L224.773 369.466L225.38 369.577L225.987 369.689L226.594 369.744L227.201 369.577L227.808 369.466L228.415 369.577L229.022 369.355L229.629 369.466L230.236 369.243L230.843 369.8L231.45 369.522L232.057 369.744L232.664 369.577L233.271 369.076L233.878 369.633H234.485L235.092 369.689H235.699H236.306L236.913 369.633L237.52 369.744H238.127H238.734L239.341 369.633L239.948 369.689L240.555 369.744H241.162H241.769L242.376 369.522L242.983 369.744L243.59 369.188L244.197 369.633L244.804 369.522L245.411 369.689L246.018 369.299L246.625 369.633L247.232 369.522L247.839 369.744L248.446 369.577L249.053 369.132L249.66 369.522L250.267 369.689L250.874 369.466L251.481 369.633L252.088 369.744L252.695 369.8L253.302 369.522L253.909 369.577H254.516L255.123 369.689L255.73 369.633L256.337 369.8L256.944 369.689L257.551 369.744L258.158 369.577L258.765 369.689H259.372H259.979H260.586L261.193 369.744L261.8 369.466L262.407 369.41H263.014L263.621 369.577L264.228 369.689L264.835 369.633L265.442 369.689L266.049 369.577L266.656 369.243L267.263 369.41L267.87 369.243L268.477 369.132L269.084 369.41L269.691 369.299L270.298 368.687L270.905 368.353H271.512L272.119 367.574L272.726 368.631L273.333 369.243L273.94 366.739L274.547 367.629L275.154 368.241L275.761 367.574L276.368 366.126L276.975 367.184L277.582 368.019L278.189 368.353L278.796 367.796L279.403 367.017L280.01 367.295L280.617 366.126L281.224 368.074L281.831 368.52L282.438 367.017L283.045 367.351L283.652 367.741L284.259 365.069L284.866 368.074L285.473 368.464L286.08 369.132L286.687 367.908L287.294 369.021L287.901 368.742L288.508 368.464L289.115 367.685L289.722 369.021L290.329 368.408L290.936 368.798L291.543 368.52L292.15 368.241L292.757 368.854L293.364 368.742L293.971 368.909H294.578L295.185 368.742H295.792L296.399 367.629L297.006 368.297H297.613H298.22L298.827 368.074L299.434 367.407L300.041 367.741L300.648 368.241L301.255 367.462L301.862 368.687L302.469 366.906L303.076 368.019L303.683 366.071L304.29 365.848L304.897 364.791L305.504 362.731L306.111 363.733L306.717 365.125L307.324 366.071L307.931 365.904L308.538 365.514L309.145 364.011L309.752 360.95L310.359 363.9L310.966 364.846L311.573 366.293L312.18 366.126L312.787 365.18H313.394L314.001 365.458L314.608 362.453L315.215 367.24L315.822 367.295L316.429 367.073L317.036 365.125L317.643 366.46L318.25 365.013L318.857 365.959L319.464 366.293L320.071 368.241L320.678 368.186L321.285 367.629L321.892 366.238L322.499 366.683L323.106 366.572L323.713 367.017L324.32 368.074L324.927 367.574L325.534 367.963L326.141 367.184L326.748 368.575L327.355 368.742L327.962 367.685L328.569 368.742L329.176 368.631L329.783 368.353L330.39 367.629L330.997 368.575L331.604 367.685L332.211 367.24L332.818 369.021L333.425 368.909L334.032 366.572L334.639 369.076L335.246 368.241L335.853 368.13L336.46 368.965L337.067 366.85L337.674 368.798L338.281 367.908L338.888 367.741L339.495 367.351L340.102 368.241L340.709 368.631L341.316 368.575L341.923 368.353L342.53 367.963L343.137 367.796L343.744 367.407L344.351 368.854L344.958 368.798L345.565 369.243L346.172 368.408L346.779 367.574L347.386 367.184L347.993 367.685L348.6 367.963L349.207 368.575L349.814 368.742L350.421 367.963L351.028 367.295L351.635 367.741L352.242 367.852L352.849 367.963L353.456 366.961L354.063 368.52L354.67 368.186L355.277 367.741L355.884 368.408L356.491 367.852L357.098 368.074L357.705 367.295L358.312 368.909H358.919L359.526 367.24L360.133 367.629L360.74 367.685L361.347 367.629L361.954 367.407L362.561 368.854L363.168 368.13L363.775 366.961L364.382 366.516L364.989 366.906L365.596 366.238L366.203 367.184L366.81 366.906L367.417 367.963L368.024 366.349L368.631 364.958L369.238 366.293L369.845 365.236L370.452 365.57L371.059 367.852L371.666 367.128L372.273 365.904L372.88 366.572L373.487 367.295L374.094 366.182L374.701 366.293L375.308 367.24L375.915 368.074L376.522 367.796L377.129 368.353L377.736 367.073L378.343 366.071L378.95 367.518L379.557 367.574L380.164 365.737L380.771 365.904L381.378 366.015L381.985 366.071L382.592 366.349L383.199 366.015L383.806 365.347L384.413 368.074L385.02 366.516L385.627 366.349L386.234 366.85L386.841 367.073L387.448 366.85L388.055 368.353L388.662 366.961L389.269 366.126L389.876 367.017L390.483 367.184L391.09 367.017L391.697 368.241L392.304 368.909L392.911 368.408L393.518 367.685L394.125 368.575L394.732 367.295L395.339 368.297L395.945 367.908L396.552 368.464L397.159 369.021L397.766 368.464L398.373 368.408L398.98 368.965L399.587 365.125L400.194 368.464L400.801 369.132L401.408 368.965L402.015 368.52L402.622 368.965L403.229 368.631L403.836 367.963L404.443 368.854L405.05 369.522L405.657 368.742L406.264 368.687L406.871 367.685L407.478 366.683L408.085 368.074L408.692 367.741L409.299 369.021L409.906 368.353L410.513 368.297H411.12L411.727 368.52L412.334 368.241L412.941 368.13L413.548 369.132L414.155 368.854L414.762 368.464L415.369 368.353L415.976 367.852L416.583 367.741L417.19 367.852L417.797 368.687L418.404 367.796L419.011 367.741L419.618 367.128L420.225 366.46L420.832 367.295L421.439 367.908L422.046 368.297L422.653 366.627L423.26 365.514L423.867 365.013L424.474 366.794L425.081 367.351L425.688 366.293L426.295 365.013L426.902 364.457L427.509 359.058L428.116 360.56L428.723 357.443L429.33 360.226L429.937 358.557L430.544 360.226L431.151 358.835L431.758 353.659L432.365 359.503L432.972 354.048L433.579 355.551L434.186 353.158L434.793 357.722L435.4 357.388L436.007 359.781L436.614 354.549L437.221 351.154L437.828 348.037L438.435 356.553L439.042 359.447L439.649 355.328L440.256 350.597L440.863 353.325L441.47 350.041L442.077 349.484L442.684 351.098L443.291 354.438L443.898 356.052L444.505 354.493L445.112 354.716L445.719 351.543L446.326 354.159L446.933 357.499L447.54 357.165L448.147 360.894L448.754 357.833L449.361 357.555L449.968 355.217L450.575 355.161L451.182 355.384L451.789 361.006L452.396 362.842L453.003 358.39L453.61 359.614L454.217 360.727L454.824 362.008L455.431 365.069L456.038 366.015L456.645 362.341L457.252 362.508L457.859 364.067L458.466 363.789L459.073 364.401L459.68 365.458L460.287 368.464H460.894L461.501 366.794L462.108 365.792L462.715 368.241L463.322 367.351L463.929 368.241L464.536 368.965L465.143 367.24L465.75 368.186L466.357 368.52L466.964 368.575L467.571 368.408L468.178 369.299L468.785 369.188L469.392 368.965L469.999 368.631L470.606 368.687L471.213 369.243L471.82 368.408L472.427 369.299L473.034 369.522L473.641 369.41L474.248 369.355L474.855 369.466L475.462 369.188L476.069 369.466H476.676L477.283 369.689L477.89 369.522L478.497 369.41L479.104 369.466L479.711 369.522L480.318 369.633L480.924 369.689L481.531 369.8L482.138 369.689H482.745H483.352L483.959 369.633L484.566 369.41L485.173 369.744L485.78 369.8L486.387 369.633L486.994 369.744H487.601H488.208L488.815 369.577H489.422L490.029 369.744L490.636 369.689L491.243 369.633L491.85 369.577L492.457 369.466L493.064 369.577L493.671 369.744L494.278 369.689L494.885 369.744H495.492L496.099 369.689L496.706 369.577L497.313 369.744L497.92 369.689L498.527 369.8L499.134 369.633L499.741 369.8H500.348L500.955 369.744H501.562L502.169 369.8H502.776H503.383H503.99H504.597H505.204H505.811H506.418H507.025L507.632 369.744H508.239L508.846 369.577L509.453 369.633L510.06 369.577L510.667 369.744L511.274 369.8L511.881 369.633L512.488 369.8L513.095 369.689L513.702 369.8L514.309 369.689L514.916 369.744H515.523L516.13 369.633L516.737 369.689L517.344 369.8L517.951 369.744L518.558 369.689L519.165 369.744L519.772 369.8L520.379 369.689L520.986 369.577L521.593 369.744H522.2L522.807 369.689H523.414L524.021 369.522L524.628 369.299L525.235 369.021L525.842 367.351L526.449 366.794L527.056 364.123L527.663 366.349L528.27 367.351L528.877 366.182L529.484 359.503L530.091 353.158L530.698 352.156L531.305 349.707L531.912 352.211L532.519 359.559L533.126 342.527L533.733 332.897L534.34 332.341L534.947 323.825L535.554 319.261L536.161 328.445L536.768 347.592L537.375 310.299L537.982 318.982L538.589 304.733L539.196 314.752L539.803 293.768L540.41 312.693L541.017 337.461L541.624 281.523L542.231 291.876L542.838 274.621L543.445 288.091L544.052 277.961L544.659 301.839L545.266 331.673L545.873 284.028L546.48 290.317L547.087 277.182L547.694 288.926L548.301 339.02L548.908 306.014L549.515 329.168L550.122 285.085L550.729 277.349L551.336 283.193L551.943 292.878L552.55 289.427L553.157 309.854L553.764 328.945L554.371 292.321L554.978 278.072L555.585 330.003L556.192 295.271L556.799 282.414L557.406 304.845L558.013 329.613L558.62 276.013L559.227 273.619L559.834 287.59L560.441 293.045L561.048 286.032L561.655 297.442L562.262 337.795L562.869 279.297L563.476 267.553L564.083 280.243L564.69 288.982L565.297 282.302L565.904 303.175L566.51 332.508L567.117 276.347L567.724 259.315L568.331 275.568L568.938 291.653L569.545 285.419L570.152 308.908L570.759 337.294L571.366 351.098L571.973 294.882L572.58 280.132L573.187 299.334L573.794 293.768L574.401 307.795L575.008 331.339L575.615 293.156L576.222 275.679L576.829 294.381L577.436 290.54L578.043 293.212L578.65 302.34L579.257 340.077L579.864 292.544L580.471 283.082L581.078 286.811L581.685 297.219L582.292 292.321L582.899 309.409L583.506 347.926L584.113 289.538L584.72 294.492L585.327 307.906L585.934 316.311L586.541 317.535L587.148 329.335L587.755 353.269L588.362 311.246L588.969 305.568L589.576 320.485L590.183 326.608L590.79 318.593L591.397 332.786L592.004 353.826L592.611 322.823L593.218 322.099L593.825 328.612L594.432 331.228L595.039 355.996L595.646 346.757L596.253 353.325L596.86 334.178L597.467 349.762L598.074 352.768L598.681 356.386L599.288 322.767L599.895 329.224L600.502 350.876L601.109 331.061L601.716 328.945L602.323 338.408L602.93 337.573L603.537 336.738L604.144 344.976L604.751 356.163L605.358 338.129L605.965 336.237L606.572 341.246L607.179 338.63L607.786 339.354L608.393 340.912L609 358.501L609.607 344.642L610.214 341.97L610.821 348.816L611.428 350.987L612.035 350.653L612.642 356.831L613.249 365.069L613.856 356.442L614.463 352.991L615.07 354.827L615.677 356.664L616.284 355.885L616.891 358.835L617.498 365.514L618.105 356.831L618.712 356.72L619.319 359.225L619.926 357.61L620.533 358.111L621.14 360.393L621.747 365.458L622.354 355.718L622.961 355.273L623.568 358.111L624.175 358.223L624.782 358.501L625.389 358.334L625.996 365.013L626.603 354.215L627.21 352.657L627.817 355.996L628.424 359.28L629.031 357.332L629.638 361.34L630.245 365.347L630.852 356.163L631.459 355.384L632.066 354.438L632.673 356.275L633.28 354.883L633.887 353.269L634.494 356.831L635.101 359.725L635.708 350.931L636.315 341.191L636.922 342.527L637.529 342.805L638.136 337.851L638.743 342.193L639.35 342.694L639.957 334.623L640.564 317.368L641.171 305.958L641.778 306.069L642.385 304.511L642.992 306.403L643.599 307.071L644.206 311.969L644.813 290.818L645.42 216.568L646.027 227.978L646.634 216.345L647.241 261.43L647.848 218.46L648.455 232.097L649.062 204.545L649.669 167.365L650.276 176.214L650.883 159.572L651.49 185.844L652.096 205.603L652.703 148.051L653.31 111.705L653.917 100.795L654.524 107.753L655.131 126.176L655.738 209.11L656.345 217.236L656.952 204.879L657.559 114.821L658.166 184.118L658.773 242.784L659.38 192.912L659.987 227.477L660.594 273.119L661.201 223.971L661.808 142.151L662.415 102.409L663.022 101.018L663.629 131.853L664.236 159.127L664.843 228.479L665.45 144.989L666.057 110.758L666.664 168.812L667.271 158.793L667.878 174.545L668.485 245.122L669.092 269.835L669.699 183.673L670.306 202.709L670.913 236.439L671.52 242.506L672.127 255.586L672.734 262.432L673.341 313.305L673.948 223.748L674.555 229.258L675.162 266.105L675.769 286.867L676.376 267.72L676.983 291.598L677.59 337.016L678.197 254.584L678.804 261.319L679.411 284.473L680.018 293.434L680.625 290.039L681.232 303.509L681.839 338.63L682.446 346.256L683.053 269.167L683.66 276.458L684.267 303.62L684.874 341.859L685.481 299.78L686.088 338.853L686.695 285.865L687.302 299.613L687.909 312.081L688.516 323.268L689.123 320.263L689.73 331.283L690.337 352.879L690.944 319.316L691.551 322.155L692.158 328.612L692.765 341.302L693.372 339.354L693.979 340.523L694.586 353.77L695.193 357.332L695.8 303.119" stroke="#4285F4" stroke-width="2" stroke-miterlimit="10"/>
<path d="M379.922 418.8V410.206H382.891C383.557 410.206 384.068 410.248 384.422 410.331C384.911 410.446 385.328 410.649 385.672 410.941C386.13 411.326 386.469 411.821 386.688 412.425C386.917 413.019 387.031 413.696 387.031 414.456C387.031 415.113 386.953 415.691 386.797 416.191C386.651 416.691 386.458 417.107 386.219 417.441C385.979 417.774 385.714 418.034 385.422 418.222C385.141 418.409 384.802 418.555 384.406 418.659C384.01 418.753 383.552 418.8 383.031 418.8H379.922ZM381.062 417.784H382.891C383.464 417.784 383.911 417.732 384.234 417.628C384.557 417.524 384.812 417.373 385 417.175C385.271 416.915 385.479 416.555 385.625 416.097C385.781 415.639 385.859 415.087 385.859 414.441C385.859 413.545 385.708 412.857 385.406 412.378C385.115 411.889 384.76 411.56 384.344 411.394C384.031 411.279 383.542 411.222 382.875 411.222H381.062V417.784ZM392.859 418.034C392.464 418.368 392.083 418.602 391.719 418.738C391.365 418.873 390.979 418.941 390.562 418.941C389.875 418.941 389.349 418.774 388.984 418.441C388.62 418.107 388.438 417.68 388.438 417.159C388.438 416.857 388.505 416.581 388.641 416.331C388.776 416.071 388.958 415.868 389.188 415.722C389.417 415.566 389.672 415.451 389.953 415.378C390.151 415.316 390.464 415.258 390.891 415.206C391.734 415.113 392.359 414.993 392.766 414.847C392.766 414.701 392.766 414.613 392.766 414.581C392.766 414.144 392.667 413.837 392.469 413.659C392.198 413.43 391.797 413.316 391.266 413.316C390.776 413.316 390.411 413.404 390.172 413.581C389.932 413.748 389.755 414.05 389.641 414.488L388.609 414.347C388.703 413.909 388.859 413.555 389.078 413.284C389.297 413.014 389.609 412.805 390.016 412.659C390.422 412.514 390.891 412.441 391.422 412.441C391.953 412.441 392.385 412.503 392.719 412.628C393.052 412.753 393.297 412.909 393.453 413.097C393.609 413.284 393.719 413.524 393.781 413.816C393.812 413.993 393.828 414.316 393.828 414.784V416.191C393.828 417.17 393.849 417.79 393.891 418.05C393.943 418.31 394.036 418.56 394.172 418.8H393.062C392.958 418.581 392.891 418.326 392.859 418.034ZM392.766 415.675C392.38 415.831 391.807 415.967 391.047 416.081C390.609 416.144 390.302 416.217 390.125 416.3C389.948 416.373 389.807 416.482 389.703 416.628C389.609 416.774 389.562 416.941 389.562 417.128C389.562 417.409 389.667 417.644 389.875 417.831C390.094 418.019 390.406 418.113 390.812 418.113C391.219 418.113 391.578 418.024 391.891 417.847C392.214 417.67 392.448 417.425 392.594 417.113C392.708 416.873 392.766 416.524 392.766 416.066V415.675ZM398.094 417.863L398.25 418.784C397.948 418.847 397.682 418.878 397.453 418.878C397.068 418.878 396.771 418.821 396.562 418.706C396.354 418.581 396.203 418.42 396.109 418.222C396.026 418.024 395.984 417.607 395.984 416.972V413.394H395.219V412.581H395.984V411.034L397.031 410.409V412.581H398.094V413.394H397.031V417.034C397.031 417.337 397.047 417.529 397.078 417.613C397.12 417.696 397.182 417.764 397.266 417.816C397.349 417.868 397.469 417.894 397.625 417.894C397.75 417.894 397.906 417.883 398.094 417.863ZM403.047 416.8L404.141 416.925C403.974 417.56 403.656 418.055 403.188 418.409C402.719 418.764 402.125 418.941 401.406 418.941C400.5 418.941 399.776 418.659 399.234 418.097C398.703 417.534 398.438 416.748 398.438 415.738C398.438 414.696 398.708 413.889 399.25 413.316C399.792 412.732 400.49 412.441 401.344 412.441C402.177 412.441 402.854 412.722 403.375 413.284C403.906 413.847 404.172 414.644 404.172 415.675C404.172 415.738 404.172 415.831 404.172 415.956H399.531C399.573 416.644 399.766 417.17 400.109 417.534C400.453 417.889 400.885 418.066 401.406 418.066C401.792 418.066 402.12 417.967 402.391 417.769C402.672 417.56 402.891 417.238 403.047 416.8ZM399.594 415.097H403.062C403.021 414.566 402.891 414.17 402.672 413.909C402.328 413.503 401.891 413.3 401.359 413.3C400.87 413.3 400.458 413.462 400.125 413.784C399.802 414.107 399.625 414.545 399.594 415.097Z" fill="black"/>
<path d="M33.2 254.525H24.6062V253.4H33.2V254.525ZM33.2 250.884V251.869H24.6062V250.806H27.6687C27.1166 250.358 26.8406 249.791 26.8406 249.103C26.8406 248.718 26.9187 248.358 27.075 248.025C27.2208 247.681 27.4344 247.4 27.7156 247.181C27.9969 246.952 28.3354 246.775 28.7312 246.65C29.1271 246.525 29.5489 246.462 29.9969 246.462C31.0594 246.462 31.8823 246.728 32.4656 247.259C33.0489 247.791 33.3406 248.421 33.3406 249.15C33.3406 249.889 33.0333 250.468 32.4187 250.884H33.2ZM30.0437 250.9C30.7833 250.9 31.3198 250.796 31.6531 250.587C32.1948 250.254 32.4656 249.806 32.4656 249.244C32.4656 248.785 32.2677 248.389 31.8719 248.056C31.476 247.712 30.8771 247.541 30.075 247.541C29.2625 247.541 28.6635 247.702 28.2781 248.025C27.8927 248.348 27.7 248.738 27.7 249.197C27.7 249.655 27.9031 250.056 28.3094 250.4C28.7052 250.733 29.2833 250.9 30.0437 250.9ZM32.4344 240.791C32.7677 241.186 33.0021 241.567 33.1375 241.931C33.2729 242.285 33.3406 242.671 33.3406 243.087C33.3406 243.775 33.1739 244.301 32.8406 244.666C32.5073 245.03 32.0802 245.212 31.5594 245.212C31.2573 245.212 30.9812 245.145 30.7312 245.009C30.4708 244.874 30.2677 244.692 30.1219 244.462C29.9656 244.233 29.851 243.978 29.7781 243.697C29.7156 243.499 29.6583 243.186 29.6062 242.759C29.5125 241.916 29.3927 241.291 29.2469 240.884C29.101 240.884 29.0125 240.884 28.9812 240.884C28.5437 240.884 28.2364 240.983 28.0594 241.181C27.8302 241.452 27.7156 241.853 27.7156 242.384C27.7156 242.874 27.8041 243.238 27.9812 243.478C28.1479 243.718 28.45 243.895 28.8875 244.009L28.7469 245.041C28.3094 244.947 27.9552 244.791 27.6844 244.572C27.4135 244.353 27.2052 244.041 27.0594 243.634C26.9135 243.228 26.8406 242.759 26.8406 242.228C26.8406 241.697 26.9031 241.264 27.0281 240.931C27.1531 240.598 27.3094 240.353 27.4969 240.197C27.6844 240.041 27.9239 239.931 28.2156 239.869C28.3927 239.837 28.7156 239.822 29.1844 239.822H30.5906C31.5698 239.822 32.1896 239.801 32.45 239.759C32.7104 239.707 32.9604 239.613 33.2 239.478V240.587C32.9812 240.692 32.726 240.759 32.4344 240.791ZM30.075 240.884C30.2312 241.27 30.3666 241.843 30.4812 242.603C30.5437 243.041 30.6166 243.348 30.7 243.525C30.7729 243.702 30.8823 243.843 31.0281 243.947C31.1739 244.041 31.3406 244.087 31.5281 244.087C31.8094 244.087 32.0437 243.983 32.2312 243.775C32.4187 243.556 32.5125 243.244 32.5125 242.837C32.5125 242.431 32.4239 242.072 32.2469 241.759C32.0698 241.436 31.825 241.202 31.5125 241.056C31.2729 240.942 30.9239 240.884 30.4656 240.884H30.075ZM33.2 237.869H26.9812V236.916H27.9187C27.4812 236.676 27.1948 236.457 27.0594 236.259C26.9135 236.051 26.8406 235.822 26.8406 235.572C26.8406 235.218 26.95 234.858 27.1687 234.494L28.1531 234.853C27.9969 235.113 27.9187 235.369 27.9187 235.619C27.9187 235.858 27.9916 236.072 28.1375 236.259C28.2729 236.436 28.4656 236.561 28.7156 236.634C29.0906 236.759 29.4969 236.822 29.9344 236.822H33.2V237.869ZM32.4344 229.791C32.7677 230.186 33.0021 230.567 33.1375 230.931C33.2729 231.285 33.3406 231.671 33.3406 232.087C33.3406 232.775 33.1739 233.301 32.8406 233.666C32.5073 234.03 32.0802 234.212 31.5594 234.212C31.2573 234.212 30.9812 234.145 30.7312 234.009C30.4708 233.874 30.2677 233.692 30.1219 233.462C29.9656 233.233 29.851 232.978 29.7781 232.697C29.7156 232.499 29.6583 232.186 29.6062 231.759C29.5125 230.916 29.3927 230.291 29.2469 229.884C29.101 229.884 29.0125 229.884 28.9812 229.884C28.5437 229.884 28.2364 229.983 28.0594 230.181C27.8302 230.452 27.7156 230.853 27.7156 231.384C27.7156 231.874 27.8041 232.238 27.9812 232.478C28.1479 232.718 28.45 232.895 28.8875 233.009L28.7469 234.041C28.3094 233.947 27.9552 233.791 27.6844 233.572C27.4135 233.353 27.2052 233.041 27.0594 232.634C26.9135 232.228 26.8406 231.759 26.8406 231.228C26.8406 230.697 26.9031 230.264 27.0281 229.931C27.1531 229.598 27.3094 229.353 27.4969 229.197C27.6844 229.041 27.9239 228.931 28.2156 228.869C28.3927 228.837 28.7156 228.822 29.1844 228.822H30.5906C31.5698 228.822 32.1896 228.801 32.45 228.759C32.7104 228.707 32.9604 228.613 33.2 228.478V229.587C32.9812 229.692 32.726 229.759 32.4344 229.791ZM30.075 229.884C30.2312 230.27 30.3666 230.843 30.4812 231.603C30.5437 232.041 30.6166 232.348 30.7 232.525C30.7729 232.702 30.8823 232.843 31.0281 232.947C31.1739 233.041 31.3406 233.087 31.5281 233.087C31.8094 233.087 32.0437 232.983 32.2312 232.775C32.4187 232.556 32.5125 232.244 32.5125 231.837C32.5125 231.431 32.4239 231.072 32.2469 230.759C32.0698 230.436 31.825 230.202 31.5125 230.056C31.2729 229.942 30.9239 229.884 30.4656 229.884H30.075ZM33.2 226.853H24.6062V225.791H29.5125L26.9812 223.306V221.931L29.2781 224.322L33.2 221.697V222.994L30.0125 225.056L30.7312 225.791H33.2V226.853ZM25.825 220.853H24.6062V219.791H25.825V220.853ZM33.2 220.853H26.9812V219.791H33.2V220.853Z" fill="black"/>
<path d="M75.7 369.566C75.7 368.545 75.8042 367.727 76.0125 367.113C76.2208 366.488 76.5281 366.008 76.9344 365.675C77.3511 365.342 77.8719 365.175 78.4969 365.175C78.9552 365.175 79.3563 365.269 79.7 365.456C80.0542 365.644 80.3458 365.915 80.575 366.269C80.8042 366.613 80.9813 367.034 81.1063 367.534C81.2313 368.034 81.2938 368.712 81.2938 369.566C81.2938 370.576 81.1896 371.389 80.9813 372.003C80.7833 372.618 80.4761 373.097 80.0594 373.441C79.6531 373.774 79.1323 373.941 78.4969 373.941C77.674 373.941 77.0229 373.644 76.5438 373.05C75.9813 372.342 75.7 371.18 75.7 369.566ZM76.7781 369.566C76.7781 370.972 76.9448 371.909 77.2781 372.378C77.6115 372.847 78.0177 373.081 78.4969 373.081C78.9865 373.081 79.3927 372.847 79.7156 372.378C80.049 371.909 80.2156 370.972 80.2156 369.566C80.2156 368.149 80.049 367.212 79.7156 366.753C79.3927 366.284 78.9813 366.05 78.4813 366.05C78.0021 366.05 77.6167 366.253 77.325 366.659C76.9604 367.18 76.7781 368.149 76.7781 369.566Z" fill="black"/>
<path d="M58.6688 318.14H57.6219V311.421C57.3615 311.661 57.0229 311.906 56.6063 312.156C56.2 312.395 55.8354 312.572 55.5125 312.687V311.671C56.0958 311.39 56.6063 311.057 57.0438 310.671C57.4917 310.276 57.8094 309.89 57.9969 309.515H58.6688V318.14ZM61.7 313.906C61.7 312.885 61.8042 312.067 62.0125 311.453C62.2208 310.828 62.5281 310.348 62.9344 310.015C63.3511 309.682 63.8719 309.515 64.4969 309.515C64.9552 309.515 65.3563 309.609 65.7 309.796C66.0542 309.984 66.3458 310.255 66.575 310.609C66.8042 310.953 66.9813 311.375 67.1063 311.875C67.2313 312.375 67.2938 313.052 67.2938 313.906C67.2938 314.916 67.1896 315.729 66.9813 316.343C66.7833 316.958 66.4761 317.437 66.0594 317.781C65.6531 318.114 65.1323 318.281 64.4969 318.281C63.674 318.281 63.0229 317.984 62.5438 317.39C61.9813 316.682 61.7 315.52 61.7 313.906ZM62.7781 313.906C62.7781 315.312 62.9448 316.25 63.2781 316.718C63.6115 317.187 64.0177 317.421 64.4969 317.421C64.9865 317.421 65.3927 317.187 65.7156 316.718C66.049 316.25 66.2156 315.312 66.2156 313.906C66.2156 312.489 66.049 311.552 65.7156 311.093C65.3927 310.625 64.9813 310.39 64.4813 310.39C64.0021 310.39 63.6167 310.593 63.325 311C62.9604 311.52 62.7781 312.489 62.7781 313.906ZM68.7 313.906C68.7 312.885 68.8042 312.067 69.0125 311.453C69.2208 310.828 69.5281 310.348 69.9344 310.015C70.3511 309.682 70.8719 309.515 71.4969 309.515C71.9552 309.515 72.3563 309.609 72.7 309.796C73.0542 309.984 73.3458 310.255 73.575 310.609C73.8042 310.953 73.9813 311.375 74.1063 311.875C74.2313 312.375 74.2938 313.052 74.2938 313.906C74.2938 314.916 74.1896 315.729 73.9813 316.343C73.7833 316.958 73.4761 317.437 73.0594 317.781C72.6531 318.114 72.1323 318.281 71.4969 318.281C70.674 318.281 70.0229 317.984 69.5438 317.39C68.9813 316.682 68.7 315.52 68.7 313.906ZM69.7781 313.906C69.7781 315.312 69.9448 316.25 70.2781 316.718C70.6115 317.187 71.0177 317.421 71.4969 317.421C71.9865 317.421 72.3927 317.187 72.7156 316.718C73.049 316.25 73.2156 315.312 73.2156 313.906C73.2156 312.489 73.049 311.552 72.7156 311.093C72.3927 310.625 71.9813 310.39 71.4813 310.39C71.0021 310.39 70.6167 310.593 70.325 311C69.9604 311.52 69.7781 312.489 69.7781 313.906ZM75.7 313.906C75.7 312.885 75.8042 312.067 76.0125 311.453C76.2208 310.828 76.5281 310.348 76.9344 310.015C77.3511 309.682 77.8719 309.515 78.4969 309.515C78.9552 309.515 79.3563 309.609 79.7 309.796C80.0542 309.984 80.3458 310.255 80.575 310.609C80.8042 310.953 80.9813 311.375 81.1063 311.875C81.2313 312.375 81.2938 313.052 81.2938 313.906C81.2938 314.916 81.1896 315.729 80.9813 316.343C80.7833 316.958 80.4761 317.437 80.0594 317.781C79.6531 318.114 79.1323 318.281 78.4969 318.281C77.674 318.281 77.0229 317.984 76.5438 317.39C75.9813 316.682 75.7 315.52 75.7 313.906ZM76.7781 313.906C76.7781 315.312 76.9448 316.25 77.2781 316.718C77.6115 317.187 78.0177 317.421 78.4969 317.421C78.9865 317.421 79.3927 317.187 79.7156 316.718C80.049 316.25 80.2156 315.312 80.2156 313.906C80.2156 312.489 80.049 311.552 79.7156 311.093C79.3927 310.625 78.9813 310.39 78.4813 310.39C78.0021 310.39 77.6167 310.593 77.325 311C76.9604 311.52 76.7781 312.489 76.7781 313.906Z" fill="black"/>
<path d="M60.2469 261.464V262.48H54.5594C54.5594 262.23 54.6011 261.985 54.6844 261.746C54.8302 261.36 55.0594 260.98 55.3719 260.605C55.6948 260.23 56.1583 259.798 56.7625 259.308C57.7 258.537 58.3302 257.928 58.6531 257.48C58.9865 257.032 59.1531 256.61 59.1531 256.214C59.1531 255.798 59.0021 255.449 58.7 255.167C58.3979 254.876 58.0073 254.73 57.5281 254.73C57.0177 254.73 56.6115 254.881 56.3094 255.183C56.0073 255.485 55.8511 255.907 55.8406 256.449L54.7625 256.339C54.8354 255.527 55.1115 254.912 55.5906 254.496C56.0802 254.069 56.7365 253.855 57.5594 253.855C58.3823 253.855 59.0333 254.084 59.5125 254.542C59.9917 255.001 60.2313 255.569 60.2313 256.246C60.2313 256.589 60.1583 256.928 60.0125 257.261C59.8771 257.584 59.6427 257.933 59.3094 258.308C58.9865 258.673 58.45 259.173 57.7 259.808C57.0646 260.339 56.6531 260.704 56.4656 260.902C56.2886 261.089 56.1427 261.277 56.0281 261.464H60.2469ZM61.7 258.246C61.7 257.225 61.8042 256.407 62.0125 255.792C62.2208 255.167 62.5281 254.688 62.9344 254.355C63.3511 254.022 63.8719 253.855 64.4969 253.855C64.9552 253.855 65.3563 253.949 65.7 254.136C66.0542 254.324 66.3458 254.595 66.575 254.949C66.8042 255.292 66.9813 255.714 67.1063 256.214C67.2313 256.714 67.2938 257.391 67.2938 258.246C67.2938 259.256 67.1896 260.069 66.9813 260.683C66.7833 261.298 66.4761 261.777 66.0594 262.121C65.6531 262.454 65.1323 262.621 64.4969 262.621C63.674 262.621 63.0229 262.324 62.5438 261.73C61.9813 261.022 61.7 259.86 61.7 258.246ZM62.7781 258.246C62.7781 259.652 62.9448 260.589 63.2781 261.058C63.6115 261.527 64.0177 261.761 64.4969 261.761C64.9865 261.761 65.3927 261.527 65.7156 261.058C66.049 260.589 66.2156 259.652 66.2156 258.246C66.2156 256.829 66.049 255.891 65.7156 255.433C65.3927 254.964 64.9813 254.73 64.4813 254.73C64.0021 254.73 63.6167 254.933 63.325 255.339C62.9604 255.86 62.7781 256.829 62.7781 258.246ZM68.7 258.246C68.7 257.225 68.8042 256.407 69.0125 255.792C69.2208 255.167 69.5281 254.688 69.9344 254.355C70.3511 254.022 70.8719 253.855 71.4969 253.855C71.9552 253.855 72.3563 253.949 72.7 254.136C73.0542 254.324 73.3458 254.595 73.575 254.949C73.8042 255.292 73.9813 255.714 74.1063 256.214C74.2313 256.714 74.2938 257.391 74.2938 258.246C74.2938 259.256 74.1896 260.069 73.9813 260.683C73.7833 261.298 73.4761 261.777 73.0594 262.121C72.6531 262.454 72.1323 262.621 71.4969 262.621C70.674 262.621 70.0229 262.324 69.5438 261.73C68.9813 261.022 68.7 259.86 68.7 258.246ZM69.7781 258.246C69.7781 259.652 69.9448 260.589 70.2781 261.058C70.6115 261.527 71.0177 261.761 71.4969 261.761C71.9865 261.761 72.3927 261.527 72.7156 261.058C73.049 260.589 73.2156 259.652 73.2156 258.246C73.2156 256.829 73.049 255.891 72.7156 255.433C72.3927 254.964 71.9813 254.73 71.4813 254.73C71.0021 254.73 70.6167 254.933 70.325 255.339C69.9604 255.86 69.7781 256.829 69.7781 258.246ZM75.7 258.246C75.7 257.225 75.8042 256.407 76.0125 255.792C76.2208 255.167 76.5281 254.688 76.9344 254.355C77.3511 254.022 77.8719 253.855 78.4969 253.855C78.9552 253.855 79.3563 253.949 79.7 254.136C80.0542 254.324 80.3458 254.595 80.575 254.949C80.8042 255.292 80.9813 255.714 81.1063 256.214C81.2313 256.714 81.2938 257.391 81.2938 258.246C81.2938 259.256 81.1896 260.069 80.9813 260.683C80.7833 261.298 80.4761 261.777 80.0594 262.121C79.6531 262.454 79.1323 262.621 78.4969 262.621C77.674 262.621 77.0229 262.324 76.5438 261.73C75.9813 261.022 75.7 259.86 75.7 258.246ZM76.7781 258.246C76.7781 259.652 76.9448 260.589 77.2781 261.058C77.6115 261.527 78.0177 261.761 78.4969 261.761C78.9865 261.761 79.3927 261.527 79.7156 261.058C80.049 260.589 80.2156 259.652 80.2156 258.246C80.2156 256.829 80.049 255.891 79.7156 255.433C79.3927 254.964 78.9813 254.73 78.4813 254.73C78.0021 254.73 77.6167 254.933 77.325 255.339C76.9604 255.86 76.7781 256.829 76.7781 258.246Z" fill="black"/>
<path d="M54.7 204.554L55.7625 204.414C55.8771 205.008 56.0802 205.44 56.3719 205.711C56.6636 205.971 57.0177 206.101 57.4344 206.101C57.9344 206.101 58.3563 205.929 58.7 205.586C59.0438 205.242 59.2156 204.815 59.2156 204.304C59.2156 203.825 59.0542 203.429 58.7313 203.117C58.4188 202.794 58.0177 202.633 57.5281 202.633C57.3302 202.633 57.0802 202.674 56.7781 202.758L56.9031 201.82C56.9761 201.83 57.0333 201.836 57.075 201.836C57.5229 201.836 57.924 201.721 58.2781 201.492C58.6427 201.252 58.825 200.888 58.825 200.398C58.825 200.013 58.6948 199.695 58.4344 199.445C58.174 199.185 57.8354 199.054 57.4188 199.054C57.0125 199.054 56.6688 199.185 56.3875 199.445C56.1167 199.705 55.9448 200.091 55.8719 200.601L54.8094 200.414C54.9344 199.716 55.2261 199.174 55.6844 198.789C56.1427 198.393 56.7104 198.195 57.3875 198.195C57.8563 198.195 58.2886 198.299 58.6844 198.508C59.0802 198.705 59.3823 198.976 59.5906 199.32C59.799 199.664 59.9031 200.034 59.9031 200.429C59.9031 200.794 59.8042 201.133 59.6063 201.445C59.4083 201.747 59.1167 201.987 58.7313 202.164C59.2313 202.278 59.6219 202.523 59.9031 202.898C60.1844 203.263 60.325 203.726 60.325 204.289C60.325 205.039 60.049 205.674 59.4969 206.195C58.9552 206.716 58.2677 206.976 57.4344 206.976C56.6844 206.976 56.0594 206.752 55.5594 206.304C55.0594 205.846 54.7729 205.263 54.7 204.554ZM61.7 202.586C61.7 201.565 61.8042 200.747 62.0125 200.133C62.2208 199.508 62.5281 199.028 62.9344 198.695C63.3511 198.362 63.8719 198.195 64.4969 198.195C64.9552 198.195 65.3563 198.289 65.7 198.476C66.0542 198.664 66.3458 198.935 66.575 199.289C66.8042 199.633 66.9813 200.054 67.1063 200.554C67.2313 201.054 67.2938 201.732 67.2938 202.586C67.2938 203.596 67.1896 204.409 66.9813 205.023C66.7833 205.638 66.4761 206.117 66.0594 206.461C65.6531 206.794 65.1323 206.961 64.4969 206.961C63.674 206.961 63.0229 206.664 62.5438 206.07C61.9813 205.362 61.7 204.2 61.7 202.586ZM62.7781 202.586C62.7781 203.992 62.9448 204.929 63.2781 205.398C63.6115 205.867 64.0177 206.101 64.4969 206.101C64.9865 206.101 65.3927 205.867 65.7156 205.398C66.049 204.929 66.2156 203.992 66.2156 202.586C66.2156 201.169 66.049 200.232 65.7156 199.773C65.3927 199.304 64.9813 199.07 64.4813 199.07C64.0021 199.07 63.6167 199.273 63.325 199.679C62.9604 200.2 62.7781 201.169 62.7781 202.586ZM68.7 202.586C68.7 201.565 68.8042 200.747 69.0125 200.133C69.2208 199.508 69.5281 199.028 69.9344 198.695C70.3511 198.362 70.8719 198.195 71.4969 198.195C71.9552 198.195 72.3563 198.289 72.7 198.476C73.0542 198.664 73.3458 198.935 73.575 199.289C73.8042 199.633 73.9813 200.054 74.1063 200.554C74.2313 201.054 74.2938 201.732 74.2938 202.586C74.2938 203.596 74.1896 204.409 73.9813 205.023C73.7833 205.638 73.4761 206.117 73.0594 206.461C72.6531 206.794 72.1323 206.961 71.4969 206.961C70.674 206.961 70.0229 206.664 69.5438 206.07C68.9813 205.362 68.7 204.2 68.7 202.586ZM69.7781 202.586C69.7781 203.992 69.9448 204.929 70.2781 205.398C70.6115 205.867 71.0177 206.101 71.4969 206.101C71.9865 206.101 72.3927 205.867 72.7156 205.398C73.049 204.929 73.2156 203.992 73.2156 202.586C73.2156 201.169 73.049 200.232 72.7156 199.773C72.3927 199.304 71.9813 199.07 71.4813 199.07C71.0021 199.07 70.6167 199.273 70.325 199.679C69.9604 200.2 69.7781 201.169 69.7781 202.586ZM75.7 202.586C75.7 201.565 75.8042 200.747 76.0125 200.133C76.2208 199.508 76.5281 199.028 76.9344 198.695C77.3511 198.362 77.8719 198.195 78.4969 198.195C78.9552 198.195 79.3563 198.289 79.7 198.476C80.0542 198.664 80.3458 198.935 80.575 199.289C80.8042 199.633 80.9813 200.054 81.1063 200.554C81.2313 201.054 81.2938 201.732 81.2938 202.586C81.2938 203.596 81.1896 204.409 80.9813 205.023C80.7833 205.638 80.4761 206.117 80.0594 206.461C79.6531 206.794 79.1323 206.961 78.4969 206.961C77.674 206.961 77.0229 206.664 76.5438 206.07C75.9813 205.362 75.7 204.2 75.7 202.586ZM76.7781 202.586C76.7781 203.992 76.9448 204.929 77.2781 205.398C77.6115 205.867 78.0177 206.101 78.4969 206.101C78.9865 206.101 79.3927 205.867 79.7156 205.398C80.049 204.929 80.2156 203.992 80.2156 202.586C80.2156 201.169 80.049 200.232 79.7156 199.773C79.3927 199.304 78.9813 199.07 78.4813 199.07C78.0021 199.07 77.6167 199.273 77.325 199.679C76.9604 200.2 76.7781 201.169 76.7781 202.586Z" fill="black"/>
<path d="M58.075 151.16V149.097H54.3563V148.129L58.2781 142.566H59.1375V148.129H60.2938V149.097H59.1375V151.16H58.075ZM58.075 148.129V144.269L55.3875 148.129H58.075ZM61.7 146.926C61.7 145.905 61.8042 145.087 62.0125 144.472C62.2208 143.847 62.5281 143.368 62.9344 143.035C63.3511 142.702 63.8719 142.535 64.4969 142.535C64.9552 142.535 65.3563 142.629 65.7 142.816C66.0542 143.004 66.3458 143.274 66.575 143.629C66.8042 143.972 66.9813 144.394 67.1063 144.894C67.2313 145.394 67.2938 146.071 67.2938 146.926C67.2938 147.936 67.1896 148.748 66.9813 149.363C66.7833 149.978 66.4761 150.457 66.0594 150.801C65.6531 151.134 65.1323 151.301 64.4969 151.301C63.674 151.301 63.0229 151.004 62.5438 150.41C61.9813 149.702 61.7 148.54 61.7 146.926ZM62.7781 146.926C62.7781 148.332 62.9448 149.269 63.2781 149.738C63.6115 150.207 64.0177 150.441 64.4969 150.441C64.9865 150.441 65.3927 150.207 65.7156 149.738C66.049 149.269 66.2156 148.332 66.2156 146.926C66.2156 145.509 66.049 144.571 65.7156 144.113C65.3927 143.644 64.9813 143.41 64.4813 143.41C64.0021 143.41 63.6167 143.613 63.325 144.019C62.9604 144.54 62.7781 145.509 62.7781 146.926ZM68.7 146.926C68.7 145.905 68.8042 145.087 69.0125 144.472C69.2208 143.847 69.5281 143.368 69.9344 143.035C70.3511 142.702 70.8719 142.535 71.4969 142.535C71.9552 142.535 72.3563 142.629 72.7 142.816C73.0542 143.004 73.3458 143.274 73.575 143.629C73.8042 143.972 73.9813 144.394 74.1063 144.894C74.2313 145.394 74.2938 146.071 74.2938 146.926C74.2938 147.936 74.1896 148.748 73.9813 149.363C73.7833 149.978 73.4761 150.457 73.0594 150.801C72.6531 151.134 72.1323 151.301 71.4969 151.301C70.674 151.301 70.0229 151.004 69.5438 150.41C68.9813 149.702 68.7 148.54 68.7 146.926ZM69.7781 146.926C69.7781 148.332 69.9448 149.269 70.2781 149.738C70.6115 150.207 71.0177 150.441 71.4969 150.441C71.9865 150.441 72.3927 150.207 72.7156 149.738C73.049 149.269 73.2156 148.332 73.2156 146.926C73.2156 145.509 73.049 144.571 72.7156 144.113C72.3927 143.644 71.9813 143.41 71.4813 143.41C71.0021 143.41 70.6167 143.613 70.325 144.019C69.9604 144.54 69.7781 145.509 69.7781 146.926ZM75.7 146.926C75.7 145.905 75.8042 145.087 76.0125 144.472C76.2208 143.847 76.5281 143.368 76.9344 143.035C77.3511 142.702 77.8719 142.535 78.4969 142.535C78.9552 142.535 79.3563 142.629 79.7 142.816C80.0542 143.004 80.3458 143.274 80.575 143.629C80.8042 143.972 80.9813 144.394 81.1063 144.894C81.2313 145.394 81.2938 146.071 81.2938 146.926C81.2938 147.936 81.1896 148.748 80.9813 149.363C80.7833 149.978 80.4761 150.457 80.0594 150.801C79.6531 151.134 79.1323 151.301 78.4969 151.301C77.674 151.301 77.0229 151.004 76.5438 150.41C75.9813 149.702 75.7 148.54 75.7 146.926ZM76.7781 146.926C76.7781 148.332 76.9448 149.269 77.2781 149.738C77.6115 150.207 78.0177 150.441 78.4969 150.441C78.9865 150.441 79.3927 150.207 79.7156 149.738C80.049 149.269 80.2156 148.332 80.2156 146.926C80.2156 145.509 80.049 144.571 79.7156 144.113C79.3927 143.644 78.9813 143.41 78.4813 143.41C78.0021 143.41 77.6167 143.613 77.325 144.019C76.9604 144.54 76.7781 145.509 76.7781 146.926Z" fill="black"/>
<path d="M54.7 93.25L55.8094 93.1562C55.8927 93.6979 56.0802 94.1042 56.3719 94.375C56.674 94.6458 57.0386 94.7812 57.4656 94.7812C57.9656 94.7812 58.3927 94.5885 58.7469 94.2031C59.1011 93.8177 59.2781 93.3125 59.2781 92.6875C59.2781 92.0833 59.1063 91.6094 58.7625 91.2656C58.4292 90.9115 57.9865 90.7344 57.4344 90.7344C57.1011 90.7344 56.7938 90.8125 56.5125 90.9688C56.2417 91.125 56.0281 91.3229 55.8719 91.5625L54.8875 91.4375L55.7156 87.0312H59.9969V88.0312H56.5594L56.1063 90.3438C56.6167 89.9792 57.1531 89.7969 57.7156 89.7969C58.4656 89.7969 59.0958 90.0573 59.6063 90.5781C60.1271 91.099 60.3875 91.7708 60.3875 92.5938C60.3875 93.3646 60.1636 94.0365 59.7156 94.6094C59.1636 95.2969 58.4136 95.6406 57.4656 95.6406C56.6844 95.6406 56.0438 95.4219 55.5438 94.9844C55.0542 94.5469 54.7729 93.9688 54.7 93.25ZM61.7 91.2656C61.7 90.2448 61.8042 89.4271 62.0125 88.8125C62.2208 88.1875 62.5281 87.7083 62.9344 87.375C63.3511 87.0417 63.8719 86.875 64.4969 86.875C64.9552 86.875 65.3563 86.9688 65.7 87.1562C66.0542 87.3438 66.3458 87.6146 66.575 87.9688C66.8042 88.3125 66.9813 88.7344 67.1063 89.2344C67.2313 89.7344 67.2938 90.4115 67.2938 91.2656C67.2938 92.276 67.1896 93.0885 66.9813 93.7031C66.7833 94.3177 66.4761 94.7969 66.0594 95.1406C65.6531 95.474 65.1323 95.6406 64.4969 95.6406C63.674 95.6406 63.0229 95.3438 62.5438 94.75C61.9813 94.0417 61.7 92.8802 61.7 91.2656ZM62.7781 91.2656C62.7781 92.6719 62.9448 93.6094 63.2781 94.0781C63.6115 94.5469 64.0177 94.7812 64.4969 94.7812C64.9865 94.7812 65.3927 94.5469 65.7156 94.0781C66.049 93.6094 66.2156 92.6719 66.2156 91.2656C66.2156 89.849 66.049 88.9115 65.7156 88.4531C65.3927 87.9844 64.9813 87.75 64.4813 87.75C64.0021 87.75 63.6167 87.9531 63.325 88.3594C62.9604 88.8802 62.7781 89.849 62.7781 91.2656ZM68.7 91.2656C68.7 90.2448 68.8042 89.4271 69.0125 88.8125C69.2208 88.1875 69.5281 87.7083 69.9344 87.375C70.3511 87.0417 70.8719 86.875 71.4969 86.875C71.9552 86.875 72.3563 86.9688 72.7 87.1562C73.0542 87.3438 73.3458 87.6146 73.575 87.9688C73.8042 88.3125 73.9813 88.7344 74.1063 89.2344C74.2313 89.7344 74.2938 90.4115 74.2938 91.2656C74.2938 92.276 74.1896 93.0885 73.9813 93.7031C73.7833 94.3177 73.4761 94.7969 73.0594 95.1406C72.6531 95.474 72.1323 95.6406 71.4969 95.6406C70.674 95.6406 70.0229 95.3438 69.5438 94.75C68.9813 94.0417 68.7 92.8802 68.7 91.2656ZM69.7781 91.2656C69.7781 92.6719 69.9448 93.6094 70.2781 94.0781C70.6115 94.5469 71.0177 94.7812 71.4969 94.7812C71.9865 94.7812 72.3927 94.5469 72.7156 94.0781C73.049 93.6094 73.2156 92.6719 73.2156 91.2656C73.2156 89.849 73.049 88.9115 72.7156 88.4531C72.3927 87.9844 71.9813 87.75 71.4813 87.75C71.0021 87.75 70.6167 87.9531 70.325 88.3594C69.9604 88.8802 69.7781 89.849 69.7781 91.2656ZM75.7 91.2656C75.7 90.2448 75.8042 89.4271 76.0125 88.8125C76.2208 88.1875 76.5281 87.7083 76.9344 87.375C77.3511 87.0417 77.8719 86.875 78.4969 86.875C78.9552 86.875 79.3563 86.9688 79.7 87.1562C80.0542 87.3438 80.3458 87.6146 80.575 87.9688C80.8042 88.3125 80.9813 88.7344 81.1063 89.2344C81.2313 89.7344 81.2938 90.4115 81.2938 91.2656C81.2938 92.276 81.1896 93.0885 80.9813 93.7031C80.7833 94.3177 80.4761 94.7969 80.0594 95.1406C79.6531 95.474 79.1323 95.6406 78.4969 95.6406C77.674 95.6406 77.0229 95.3438 76.5438 94.75C75.9813 94.0417 75.7 92.8802 75.7 91.2656ZM76.7781 91.2656C76.7781 92.6719 76.9448 93.6094 77.2781 94.0781C77.6115 94.5469 78.0177 94.7812 78.4969 94.7812C78.9865 94.7812 79.3927 94.5469 79.7156 94.0781C80.049 93.6094 80.2156 92.6719 80.2156 91.2656C80.2156 89.849 80.049 88.9115 79.7156 88.4531C79.3927 87.9844 78.9813 87.75 78.4813 87.75C78.0021 87.75 77.6167 87.9531 77.325 88.3594C76.9604 88.8802 76.7781 89.849 76.7781 91.2656Z" fill="black"/>
<path d="M168.052 386.8V384.738H164.333V383.769L168.255 378.206H169.114V383.769H170.271V384.738H169.114V386.8H168.052ZM168.052 383.769V379.909L165.364 383.769H168.052ZM175.052 386.8V384.738H171.333V383.769L175.255 378.206H176.114V383.769H177.271V384.738H176.114V386.8H175.052ZM175.052 383.769V379.909L172.364 383.769H175.052ZM178.677 382.566C178.677 381.545 178.781 380.727 178.989 380.113C179.198 379.488 179.505 379.008 179.911 378.675C180.328 378.342 180.849 378.175 181.474 378.175C181.932 378.175 182.333 378.269 182.677 378.456C183.031 378.644 183.323 378.915 183.552 379.269C183.781 379.613 183.958 380.034 184.083 380.534C184.208 381.034 184.271 381.712 184.271 382.566C184.271 383.576 184.167 384.389 183.958 385.003C183.76 385.618 183.453 386.097 183.036 386.441C182.63 386.774 182.109 386.941 181.474 386.941C180.651 386.941 180 386.644 179.521 386.05C178.958 385.342 178.677 384.18 178.677 382.566ZM179.755 382.566C179.755 383.972 179.922 384.909 180.255 385.378C180.588 385.847 180.995 386.081 181.474 386.081C181.963 386.081 182.37 385.847 182.693 385.378C183.026 384.909 183.193 383.972 183.193 382.566C183.193 381.149 183.026 380.212 182.693 379.753C182.37 379.284 181.958 379.05 181.458 379.05C180.979 379.05 180.594 379.253 180.302 379.659C179.937 380.18 179.755 381.149 179.755 382.566ZM185.677 382.566C185.677 381.545 185.781 380.727 185.989 380.113C186.198 379.488 186.505 379.008 186.911 378.675C187.328 378.342 187.849 378.175 188.474 378.175C188.932 378.175 189.333 378.269 189.677 378.456C190.031 378.644 190.323 378.915 190.552 379.269C190.781 379.613 190.958 380.034 191.083 380.534C191.208 381.034 191.271 381.712 191.271 382.566C191.271 383.576 191.167 384.389 190.958 385.003C190.76 385.618 190.453 386.097 190.036 386.441C189.63 386.774 189.109 386.941 188.474 386.941C187.651 386.941 187 386.644 186.521 386.05C185.958 385.342 185.677 384.18 185.677 382.566ZM186.755 382.566C186.755 383.972 186.922 384.909 187.255 385.378C187.588 385.847 187.995 386.081 188.474 386.081C188.963 386.081 189.37 385.847 189.693 385.378C190.026 384.909 190.193 383.972 190.193 382.566C190.193 381.149 190.026 380.212 189.693 379.753C189.37 379.284 188.958 379.05 188.458 379.05C187.979 379.05 187.594 379.253 187.302 379.659C186.937 380.18 186.755 381.149 186.755 382.566ZM192.677 382.566C192.677 381.545 192.781 380.727 192.989 380.113C193.198 379.488 193.505 379.008 193.911 378.675C194.328 378.342 194.849 378.175 195.474 378.175C195.932 378.175 196.333 378.269 196.677 378.456C197.031 378.644 197.323 378.915 197.552 379.269C197.781 379.613 197.958 380.034 198.083 380.534C198.208 381.034 198.271 381.712 198.271 382.566C198.271 383.576 198.167 384.389 197.958 385.003C197.76 385.618 197.453 386.097 197.036 386.441C196.63 386.774 196.109 386.941 195.474 386.941C194.651 386.941 194 386.644 193.521 386.05C192.958 385.342 192.677 384.18 192.677 382.566ZM193.755 382.566C193.755 383.972 193.922 384.909 194.255 385.378C194.588 385.847 194.995 386.081 195.474 386.081C195.963 386.081 196.37 385.847 196.693 385.378C197.026 384.909 197.193 383.972 197.193 382.566C197.193 381.149 197.026 380.212 196.693 379.753C196.37 379.284 195.958 379.05 195.458 379.05C194.979 379.05 194.594 379.253 194.302 379.659C193.937 380.18 193.755 381.149 193.755 382.566Z" fill="black"/>
<path d="M289.451 386.8V384.738H285.732V383.769L289.654 378.206H290.513V383.769H291.669V384.738H290.513V386.8H289.451ZM289.451 383.769V379.909L286.763 383.769H289.451ZM296.451 386.8V384.738H292.732V383.769L296.654 378.206H297.513V383.769H298.669V384.738H297.513V386.8H296.451ZM296.451 383.769V379.909L293.763 383.769H296.451ZM305.622 385.784V386.8H299.935C299.935 386.55 299.977 386.305 300.06 386.066C300.206 385.68 300.435 385.3 300.747 384.925C301.07 384.55 301.534 384.118 302.138 383.628C303.076 382.857 303.706 382.248 304.029 381.8C304.362 381.352 304.529 380.93 304.529 380.534C304.529 380.118 304.378 379.769 304.076 379.488C303.773 379.196 303.383 379.05 302.904 379.05C302.393 379.05 301.987 379.201 301.685 379.503C301.383 379.805 301.227 380.227 301.216 380.769L300.138 380.659C300.211 379.847 300.487 379.232 300.966 378.816C301.456 378.389 302.112 378.175 302.935 378.175C303.758 378.175 304.409 378.404 304.888 378.863C305.367 379.321 305.607 379.889 305.607 380.566C305.607 380.909 305.534 381.248 305.388 381.581C305.253 381.904 305.018 382.253 304.685 382.628C304.362 382.993 303.826 383.493 303.076 384.128C302.44 384.659 302.029 385.024 301.841 385.222C301.664 385.409 301.518 385.597 301.404 385.784H305.622ZM307.076 382.566C307.076 381.545 307.18 380.727 307.388 380.113C307.596 379.488 307.904 379.008 308.31 378.675C308.727 378.342 309.247 378.175 309.872 378.175C310.331 378.175 310.732 378.269 311.076 378.456C311.43 378.644 311.721 378.915 311.951 379.269C312.18 379.613 312.357 380.034 312.482 380.534C312.607 381.034 312.669 381.712 312.669 382.566C312.669 383.576 312.565 384.389 312.357 385.003C312.159 385.618 311.852 386.097 311.435 386.441C311.029 386.774 310.508 386.941 309.872 386.941C309.049 386.941 308.398 386.644 307.919 386.05C307.357 385.342 307.076 384.18 307.076 382.566ZM308.154 382.566C308.154 383.972 308.32 384.909 308.654 385.378C308.987 385.847 309.393 386.081 309.872 386.081C310.362 386.081 310.768 385.847 311.091 385.378C311.424 384.909 311.591 383.972 311.591 382.566C311.591 381.149 311.424 380.212 311.091 379.753C310.768 379.284 310.357 379.05 309.857 379.05C309.378 379.05 308.992 379.253 308.701 379.659C308.336 380.18 308.154 381.149 308.154 382.566ZM314.076 382.566C314.076 381.545 314.18 380.727 314.388 380.113C314.596 379.488 314.904 379.008 315.31 378.675C315.727 378.342 316.247 378.175 316.872 378.175C317.331 378.175 317.732 378.269 318.076 378.456C318.43 378.644 318.721 378.915 318.951 379.269C319.18 379.613 319.357 380.034 319.482 380.534C319.607 381.034 319.669 381.712 319.669 382.566C319.669 383.576 319.565 384.389 319.357 385.003C319.159 385.618 318.852 386.097 318.435 386.441C318.029 386.774 317.508 386.941 316.872 386.941C316.049 386.941 315.398 386.644 314.919 386.05C314.357 385.342 314.076 384.18 314.076 382.566ZM315.154 382.566C315.154 383.972 315.32 384.909 315.654 385.378C315.987 385.847 316.393 386.081 316.872 386.081C317.362 386.081 317.768 385.847 318.091 385.378C318.424 384.909 318.591 383.972 318.591 382.566C318.591 381.149 318.424 380.212 318.091 379.753C317.768 379.284 317.357 379.05 316.857 379.05C316.378 379.05 315.992 379.253 315.701 379.659C315.336 380.18 315.154 381.149 315.154 382.566Z" fill="black"/>
<path d="M410.849 386.8V384.738H407.13V383.769L411.052 378.206H411.912V383.769H413.068V384.738H411.912V386.8H410.849ZM410.849 383.769V379.909L408.162 383.769H410.849ZM417.849 386.8V384.738H414.13V383.769L418.052 378.206H418.912V383.769H420.068V384.738H418.912V386.8H417.849ZM417.849 383.769V379.909L415.162 383.769H417.849ZM424.849 386.8V384.738H421.13V383.769L425.052 378.206H425.912V383.769H427.068V384.738H425.912V386.8H424.849ZM424.849 383.769V379.909L422.162 383.769H424.849ZM428.474 382.566C428.474 381.545 428.578 380.727 428.787 380.113C428.995 379.488 429.302 379.008 429.708 378.675C430.125 378.342 430.646 378.175 431.271 378.175C431.729 378.175 432.13 378.269 432.474 378.456C432.828 378.644 433.12 378.915 433.349 379.269C433.578 379.613 433.755 380.034 433.88 380.534C434.005 381.034 434.068 381.712 434.068 382.566C434.068 383.576 433.964 384.389 433.755 385.003C433.557 385.618 433.25 386.097 432.833 386.441C432.427 386.774 431.906 386.941 431.271 386.941C430.448 386.941 429.797 386.644 429.318 386.05C428.755 385.342 428.474 384.18 428.474 382.566ZM429.552 382.566C429.552 383.972 429.719 384.909 430.052 385.378C430.386 385.847 430.792 386.081 431.271 386.081C431.761 386.081 432.167 385.847 432.49 385.378C432.823 384.909 432.99 383.972 432.99 382.566C432.99 381.149 432.823 380.212 432.49 379.753C432.167 379.284 431.755 379.05 431.255 379.05C430.776 379.05 430.391 379.253 430.099 379.659C429.735 380.18 429.552 381.149 429.552 382.566ZM435.474 382.566C435.474 381.545 435.578 380.727 435.787 380.113C435.995 379.488 436.302 379.008 436.708 378.675C437.125 378.342 437.646 378.175 438.271 378.175C438.729 378.175 439.13 378.269 439.474 378.456C439.828 378.644 440.12 378.915 440.349 379.269C440.578 379.613 440.755 380.034 440.88 380.534C441.005 381.034 441.068 381.712 441.068 382.566C441.068 383.576 440.964 384.389 440.755 385.003C440.557 385.618 440.25 386.097 439.833 386.441C439.427 386.774 438.906 386.941 438.271 386.941C437.448 386.941 436.797 386.644 436.318 386.05C435.755 385.342 435.474 384.18 435.474 382.566ZM436.552 382.566C436.552 383.972 436.719 384.909 437.052 385.378C437.386 385.847 437.792 386.081 438.271 386.081C438.761 386.081 439.167 385.847 439.49 385.378C439.823 384.909 439.99 383.972 439.99 382.566C439.99 381.149 439.823 380.212 439.49 379.753C439.167 379.284 438.755 379.05 438.255 379.05C437.776 379.05 437.391 379.253 437.099 379.659C436.735 380.18 436.552 381.149 436.552 382.566Z" fill="black"/>
<path d="M532.248 386.8V384.738H528.529V383.769L532.451 378.206H533.31V383.769H534.466V384.738H533.31V386.8H532.248ZM532.248 383.769V379.909L529.56 383.769H532.248ZM539.248 386.8V384.738H535.529V383.769L539.451 378.206H540.31V383.769H541.466V384.738H540.31V386.8H539.248ZM539.248 383.769V379.909L536.56 383.769H539.248ZM548.341 380.316L547.295 380.394C547.201 379.977 547.071 379.675 546.904 379.488C546.612 379.185 546.258 379.034 545.841 379.034C545.508 379.034 545.211 379.128 544.951 379.316C544.628 379.566 544.368 379.925 544.17 380.394C543.982 380.852 543.883 381.508 543.873 382.363C544.123 381.977 544.43 381.691 544.795 381.503C545.17 381.316 545.56 381.222 545.966 381.222C546.664 381.222 547.258 381.482 547.748 382.003C548.248 382.524 548.498 383.191 548.498 384.003C548.498 384.545 548.378 385.05 548.138 385.519C547.909 385.977 547.591 386.331 547.185 386.581C546.779 386.821 546.321 386.941 545.81 386.941C544.925 386.941 544.206 386.618 543.654 385.972C543.102 385.326 542.826 384.264 542.826 382.784C542.826 381.118 543.133 379.909 543.748 379.159C544.279 378.503 544.998 378.175 545.904 378.175C546.581 378.175 547.133 378.368 547.56 378.753C547.998 379.128 548.258 379.649 548.341 380.316ZM544.045 384.019C544.045 384.383 544.118 384.732 544.263 385.066C544.42 385.389 544.633 385.639 544.904 385.816C545.185 385.993 545.482 386.081 545.795 386.081C546.232 386.081 546.612 385.904 546.935 385.55C547.258 385.185 547.42 384.696 547.42 384.081C547.42 383.488 547.258 383.019 546.935 382.675C546.623 382.331 546.227 382.159 545.748 382.159C545.269 382.159 544.862 382.331 544.529 382.675C544.206 383.019 544.045 383.467 544.045 384.019ZM549.873 382.566C549.873 381.545 549.977 380.727 550.185 380.113C550.394 379.488 550.701 379.008 551.107 378.675C551.524 378.342 552.045 378.175 552.67 378.175C553.128 378.175 553.529 378.269 553.873 378.456C554.227 378.644 554.519 378.915 554.748 379.269C554.977 379.613 555.154 380.034 555.279 380.534C555.404 381.034 555.466 381.712 555.466 382.566C555.466 383.576 555.362 384.389 555.154 385.003C554.956 385.618 554.649 386.097 554.232 386.441C553.826 386.774 553.305 386.941 552.67 386.941C551.847 386.941 551.196 386.644 550.716 386.05C550.154 385.342 549.873 384.18 549.873 382.566ZM550.951 382.566C550.951 383.972 551.118 384.909 551.451 385.378C551.784 385.847 552.19 386.081 552.67 386.081C553.159 386.081 553.565 385.847 553.888 385.378C554.222 384.909 554.388 383.972 554.388 382.566C554.388 381.149 554.222 380.212 553.888 379.753C553.565 379.284 553.154 379.05 552.654 379.05C552.175 379.05 551.789 379.253 551.498 379.659C551.133 380.18 550.951 381.149 550.951 382.566ZM556.873 382.566C556.873 381.545 556.977 380.727 557.185 380.113C557.394 379.488 557.701 379.008 558.107 378.675C558.524 378.342 559.045 378.175 559.67 378.175C560.128 378.175 560.529 378.269 560.873 378.456C561.227 378.644 561.519 378.915 561.748 379.269C561.977 379.613 562.154 380.034 562.279 380.534C562.404 381.034 562.466 381.712 562.466 382.566C562.466 383.576 562.362 384.389 562.154 385.003C561.956 385.618 561.649 386.097 561.232 386.441C560.826 386.774 560.305 386.941 559.67 386.941C558.847 386.941 558.196 386.644 557.716 386.05C557.154 385.342 556.873 384.18 556.873 382.566ZM557.951 382.566C557.951 383.972 558.118 384.909 558.451 385.378C558.784 385.847 559.19 386.081 559.67 386.081C560.159 386.081 560.565 385.847 560.888 385.378C561.222 384.909 561.388 383.972 561.388 382.566C561.388 381.149 561.222 380.212 560.888 379.753C560.565 379.284 560.154 379.05 559.654 379.05C559.175 379.05 558.789 379.253 558.498 379.659C558.133 380.18 557.951 381.149 557.951 382.566Z" fill="black"/>
<path d="M653.646 386.8V384.738H649.928V383.769L653.849 378.206H654.709V383.769H655.865V384.738H654.709V386.8H653.646ZM653.646 383.769V379.909L650.959 383.769H653.646ZM660.646 386.8V384.738H656.928V383.769L660.849 378.206H661.709V383.769H662.865V384.738H661.709V386.8H660.646ZM660.646 383.769V379.909L657.959 383.769H660.646ZM665.896 382.144C665.459 381.977 665.131 381.748 664.912 381.456C664.704 381.154 664.599 380.8 664.599 380.394C664.599 379.769 664.823 379.243 665.271 378.816C665.73 378.389 666.329 378.175 667.068 378.175C667.818 378.175 668.422 378.394 668.881 378.831C669.339 379.269 669.568 379.8 669.568 380.425C669.568 380.821 669.464 381.165 669.256 381.456C669.047 381.748 668.73 381.977 668.303 382.144C668.834 382.31 669.235 382.587 669.506 382.972C669.776 383.357 669.912 383.816 669.912 384.347C669.912 385.076 669.651 385.691 669.131 386.191C668.62 386.691 667.938 386.941 667.084 386.941C666.24 386.941 665.558 386.691 665.037 386.191C664.516 385.691 664.256 385.066 664.256 384.316C664.256 383.753 664.396 383.284 664.678 382.909C664.969 382.534 665.375 382.279 665.896 382.144ZM665.678 380.347C665.678 380.753 665.808 381.087 666.068 381.347C666.339 381.607 666.683 381.738 667.099 381.738C667.506 381.738 667.839 381.613 668.099 381.363C668.36 381.102 668.49 380.784 668.49 380.409C668.49 380.024 668.355 379.701 668.084 379.441C667.813 379.17 667.48 379.034 667.084 379.034C666.678 379.034 666.339 379.165 666.068 379.425C665.808 379.685 665.678 379.993 665.678 380.347ZM665.349 384.316C665.349 384.618 665.417 384.909 665.553 385.191C665.698 385.472 665.912 385.691 666.193 385.847C666.474 386.003 666.777 386.081 667.099 386.081C667.599 386.081 668.011 385.92 668.334 385.597C668.667 385.274 668.834 384.863 668.834 384.363C668.834 383.852 668.667 383.43 668.334 383.097C668 382.764 667.579 382.597 667.068 382.597C666.568 382.597 666.157 382.764 665.834 383.097C665.511 383.42 665.349 383.826 665.349 384.316ZM671.271 382.566C671.271 381.545 671.375 380.727 671.584 380.113C671.792 379.488 672.099 379.008 672.506 378.675C672.922 378.342 673.443 378.175 674.068 378.175C674.527 378.175 674.928 378.269 675.271 378.456C675.625 378.644 675.917 378.915 676.146 379.269C676.375 379.613 676.553 380.034 676.678 380.534C676.803 381.034 676.865 381.712 676.865 382.566C676.865 383.576 676.761 384.389 676.553 385.003C676.355 385.618 676.047 386.097 675.631 386.441C675.224 386.774 674.704 386.941 674.068 386.941C673.245 386.941 672.594 386.644 672.115 386.05C671.553 385.342 671.271 384.18 671.271 382.566ZM672.349 382.566C672.349 383.972 672.516 384.909 672.849 385.378C673.183 385.847 673.589 386.081 674.068 386.081C674.558 386.081 674.964 385.847 675.287 385.378C675.62 384.909 675.787 383.972 675.787 382.566C675.787 381.149 675.62 380.212 675.287 379.753C674.964 379.284 674.553 379.05 674.053 379.05C673.573 379.05 673.188 379.253 672.896 379.659C672.532 380.18 672.349 381.149 672.349 382.566ZM678.271 382.566C678.271 381.545 678.375 380.727 678.584 380.113C678.792 379.488 679.099 379.008 679.506 378.675C679.922 378.342 680.443 378.175 681.068 378.175C681.527 378.175 681.928 378.269 682.271 378.456C682.625 378.644 682.917 378.915 683.146 379.269C683.375 379.613 683.553 380.034 683.678 380.534C683.803 381.034 683.865 381.712 683.865 382.566C683.865 383.576 683.761 384.389 683.553 385.003C683.355 385.618 683.047 386.097 682.631 386.441C682.224 386.774 681.704 386.941 681.068 386.941C680.245 386.941 679.594 386.644 679.115 386.05C678.553 385.342 678.271 384.18 678.271 382.566ZM679.349 382.566C679.349 383.972 679.516 384.909 679.849 385.378C680.183 385.847 680.589 386.081 681.068 386.081C681.558 386.081 681.964 385.847 682.287 385.378C682.62 384.909 682.787 383.972 682.787 382.566C682.787 381.149 682.62 380.212 682.287 379.753C681.964 379.284 681.553 379.05 681.053 379.05C680.573 379.05 680.188 379.253 679.896 379.659C679.532 380.18 679.349 381.149 679.349 382.566Z" fill="black"/>
<path d="M576.847 65.5125V66.7H570.222C570.211 66.4083 570.258 66.1218 570.363 65.8406C570.54 65.3927 570.81 64.95 571.175 64.5125C571.55 64.0749 572.086 63.5697 572.784 62.9968C573.878 62.101 574.613 61.3927 574.988 60.8718C575.373 60.351 575.566 59.8562 575.566 59.3875C575.566 58.8979 575.389 58.4864 575.034 58.1531C574.691 57.8197 574.243 57.6531 573.691 57.6531C573.097 57.6531 572.618 57.8302 572.253 58.1843C571.899 58.5385 571.722 59.0333 571.722 59.6687L570.456 59.5281C570.54 58.5906 570.862 57.877 571.425 57.3875C571.998 56.8875 572.758 56.6375 573.706 56.6375C574.675 56.6375 575.435 56.9031 575.988 57.4343C576.55 57.9656 576.831 58.627 576.831 59.4187C576.831 59.825 576.748 60.2208 576.581 60.6062C576.425 60.9916 576.154 61.3979 575.769 61.825C575.394 62.252 574.764 62.8406 573.878 63.5906C573.139 64.2052 572.665 64.627 572.456 64.8562C572.248 65.0749 572.076 65.2937 571.941 65.5125H576.847ZM578.378 61.7625C578.378 60.575 578.498 59.6218 578.738 58.9031C578.988 58.1739 579.352 57.6166 579.831 57.2312C580.31 56.8354 580.915 56.6375 581.644 56.6375C582.185 56.6375 582.659 56.7468 583.066 56.9656C583.472 57.1843 583.805 57.4968 584.066 57.9031C584.336 58.3093 584.545 58.8041 584.691 59.3875C584.836 59.9708 584.909 60.7625 584.909 61.7625C584.909 62.9395 584.79 63.8874 584.55 64.6062C584.31 65.3249 583.951 65.8822 583.472 66.2781C582.993 66.6739 582.383 66.8718 581.644 66.8718C580.685 66.8718 579.93 66.5229 579.378 65.825C578.711 64.9916 578.378 63.6375 578.378 61.7625ZM579.644 61.7625C579.644 63.4083 579.836 64.502 580.222 65.0437C580.607 65.5854 581.081 65.8562 581.644 65.8562C582.217 65.8562 582.696 65.5854 583.081 65.0437C583.467 64.4916 583.659 63.3979 583.659 61.7625C583.659 60.1062 583.467 59.0072 583.081 58.4656C582.696 57.9239 582.211 57.6531 581.628 57.6531C581.066 57.6531 580.618 57.8927 580.284 58.3718C579.857 58.9864 579.644 60.1166 579.644 61.7625ZM592.847 65.5125V66.7H586.222C586.211 66.4083 586.258 66.1218 586.363 65.8406C586.54 65.3927 586.81 64.95 587.175 64.5125C587.55 64.0749 588.086 63.5697 588.784 62.9968C589.878 62.101 590.613 61.3927 590.988 60.8718C591.373 60.351 591.566 59.8562 591.566 59.3875C591.566 58.8979 591.389 58.4864 591.034 58.1531C590.691 57.8197 590.243 57.6531 589.691 57.6531C589.097 57.6531 588.618 57.8302 588.253 58.1843C587.899 58.5385 587.722 59.0333 587.722 59.6687L586.456 59.5281C586.54 58.5906 586.862 57.877 587.425 57.3875C587.998 56.8875 588.758 56.6375 589.706 56.6375C590.675 56.6375 591.435 56.9031 591.988 57.4343C592.55 57.9656 592.831 58.627 592.831 59.4187C592.831 59.825 592.748 60.2208 592.581 60.6062C592.425 60.9916 592.154 61.3979 591.769 61.825C591.394 62.252 590.764 62.8406 589.878 63.5906C589.139 64.2052 588.665 64.627 588.456 64.8562C588.248 65.0749 588.076 65.2937 587.941 65.5125H592.847ZM600.847 65.5125V66.7H594.222C594.211 66.4083 594.258 66.1218 594.363 65.8406C594.54 65.3927 594.81 64.95 595.175 64.5125C595.55 64.0749 596.086 63.5697 596.784 62.9968C597.878 62.101 598.613 61.3927 598.988 60.8718C599.373 60.351 599.566 59.8562 599.566 59.3875C599.566 58.8979 599.389 58.4864 599.034 58.1531C598.691 57.8197 598.243 57.6531 597.691 57.6531C597.097 57.6531 596.618 57.8302 596.253 58.1843C595.899 58.5385 595.722 59.0333 595.722 59.6687L594.456 59.5281C594.54 58.5906 594.862 57.877 595.425 57.3875C595.998 56.8875 596.758 56.6375 597.706 56.6375C598.675 56.6375 599.435 56.9031 599.988 57.4343C600.55 57.9656 600.831 58.627 600.831 59.4187C600.831 59.825 600.748 60.2208 600.581 60.6062C600.425 60.9916 600.154 61.3979 599.769 61.825C599.394 62.252 598.764 62.8406 597.878 63.5906C597.139 64.2052 596.665 64.627 596.456 64.8562C596.248 65.0749 596.076 65.2937 595.941 65.5125H600.847Z" fill="#999999"/>
<path d="M606.175 58.1687C605.487 59.3666 604.633 60.3666 603.612 61.1687L602.847 60.1843C604.336 59.0906 605.357 57.5072 605.909 55.4343L607.159 55.7625C607.305 55.9083 607.253 55.9968 607.003 56.0281L606.566 57.1218H614.269V58.1687H610.284V60.0281H613.566V61.0593H610.284V63.5281H614.878V64.5593H610.284V67.8562H609.191V64.5593H602.894V63.5281H605.362V60.0281H609.191V58.1687H606.175ZM606.456 63.5281H609.191V61.0593H606.456V63.5281Z" fill="#999999"/>
<path d="M616.566 64.3875L617.753 64.2781C617.847 64.8302 618.034 65.2312 618.316 65.4812C618.607 65.7312 618.972 65.8562 619.409 65.8562C619.784 65.8562 620.112 65.7729 620.394 65.6062C620.685 65.4291 620.92 65.1947 621.097 64.9031C621.284 64.6114 621.441 64.2208 621.566 63.7312C621.691 63.2416 621.753 62.7416 621.753 62.2312C621.753 62.1791 621.748 62.0958 621.737 61.9812C621.498 62.377 621.165 62.7 620.737 62.95C620.31 63.1895 619.847 63.3093 619.347 63.3093C618.514 63.3093 617.81 63.0072 617.237 62.4031C616.665 61.7989 616.378 61.0072 616.378 60.0281C616.378 59.0072 616.675 58.1895 617.269 57.575C617.873 56.95 618.628 56.6375 619.534 56.6375C620.18 56.6375 620.774 56.8145 621.316 57.1687C621.857 57.5125 622.269 58.0125 622.55 58.6687C622.831 59.3145 622.972 60.252 622.972 61.4812C622.972 62.7625 622.831 63.7833 622.55 64.5437C622.279 65.3041 621.868 65.8822 621.316 66.2781C620.764 66.6739 620.118 66.8718 619.378 66.8718C618.597 66.8718 617.956 66.6531 617.456 66.2156C616.967 65.7781 616.67 65.1687 616.566 64.3875ZM621.597 59.9656C621.597 59.2572 621.409 58.6947 621.034 58.2781C620.659 57.8614 620.211 57.6531 619.691 57.6531C619.139 57.6531 618.659 57.877 618.253 58.325C617.847 58.7729 617.644 59.351 617.644 60.0593C617.644 60.6947 617.836 61.2156 618.222 61.6218C618.607 62.0177 619.081 62.2156 619.644 62.2156C620.217 62.2156 620.685 62.0177 621.05 61.6218C621.415 61.2156 621.597 60.6635 621.597 59.9656Z" fill="#999999"/>
<path d="M633.706 63.5281H628.503C628.503 65.0906 627.701 66.5697 626.097 67.9656L625.175 66.9187C626.665 65.9708 627.409 64.5489 627.409 62.6531V55.9812H634.8V66.7625C634.8 67.3458 634.487 67.6375 633.862 67.6375H632.55L632.331 66.4187H633.487C633.633 66.4187 633.706 66.3458 633.706 66.2V63.5281ZM628.503 62.325H633.706V60.3562H628.503V62.325ZM628.503 59.1531H633.706V57.1843H628.503V59.1531Z" fill="#999999"/>
<path d="M644.847 65.5125V66.7H638.222C638.211 66.4083 638.258 66.1218 638.363 65.8406C638.54 65.3927 638.81 64.95 639.175 64.5125C639.55 64.0749 640.086 63.5697 640.784 62.9968C641.878 62.101 642.613 61.3927 642.988 60.8718C643.373 60.351 643.566 59.8562 643.566 59.3875C643.566 58.8979 643.389 58.4864 643.034 58.1531C642.691 57.8197 642.243 57.6531 641.691 57.6531C641.097 57.6531 640.618 57.8302 640.253 58.1843C639.899 58.5385 639.722 59.0333 639.722 59.6687L638.456 59.5281C638.54 58.5906 638.862 57.877 639.425 57.3875C639.998 56.8875 640.758 56.6375 641.706 56.6375C642.675 56.6375 643.435 56.9031 643.988 57.4343C644.55 57.9656 644.831 58.627 644.831 59.4187C644.831 59.825 644.748 60.2208 644.581 60.6062C644.425 60.9916 644.154 61.3979 643.769 61.825C643.394 62.252 642.764 62.8406 641.878 63.5906C641.139 64.2052 640.665 64.627 640.456 64.8562C640.248 65.0749 640.076 65.2937 639.941 65.5125H644.847ZM646.566 64.3875L647.753 64.2781C647.847 64.8302 648.034 65.2312 648.316 65.4812C648.607 65.7312 648.972 65.8562 649.409 65.8562C649.784 65.8562 650.113 65.7729 650.394 65.6062C650.685 65.4291 650.92 65.1947 651.097 64.9031C651.284 64.6114 651.441 64.2208 651.566 63.7312C651.691 63.2416 651.753 62.7416 651.753 62.2312C651.753 62.1791 651.748 62.0958 651.738 61.9812C651.498 62.377 651.165 62.7 650.738 62.95C650.31 63.1895 649.847 63.3093 649.347 63.3093C648.514 63.3093 647.81 63.0072 647.238 62.4031C646.665 61.7989 646.378 61.0072 646.378 60.0281C646.378 59.0072 646.675 58.1895 647.269 57.575C647.873 56.95 648.628 56.6375 649.534 56.6375C650.18 56.6375 650.774 56.8145 651.316 57.1687C651.857 57.5125 652.269 58.0125 652.55 58.6687C652.831 59.3145 652.972 60.252 652.972 61.4812C652.972 62.7625 652.831 63.7833 652.55 64.5437C652.279 65.3041 651.868 65.8822 651.316 66.2781C650.764 66.6739 650.118 66.8718 649.378 66.8718C648.597 66.8718 647.956 66.6531 647.456 66.2156C646.967 65.7781 646.67 65.1687 646.566 64.3875ZM651.597 59.9656C651.597 59.2572 651.409 58.6947 651.034 58.2781C650.659 57.8614 650.211 57.6531 649.691 57.6531C649.139 57.6531 648.659 57.877 648.253 58.325C647.847 58.7729 647.644 59.351 647.644 60.0593C647.644 60.6947 647.836 61.2156 648.222 61.6218C648.607 62.0177 649.081 62.2156 649.644 62.2156C650.217 62.2156 650.685 62.0177 651.05 61.6218C651.415 61.2156 651.597 60.6635 651.597 59.9656Z" fill="#999999"/>
<path d="M657.8 67.2H656.534V56.6375H665.128V66.9812H663.862V66.2H657.8V67.2ZM663.862 60.7937V57.6687H657.8V60.7937H663.862ZM663.862 65.1687V61.825H657.8V65.1687H663.862ZM678.081 59.8562H680.659V60.7312H678.362V61.9968H680.222V62.8718H678.362V64.1843H680.222V65.0593H678.362V66.4187H681.097V67.3093H675.566V67.8562H674.644V61.7781C674.352 62.1739 673.987 62.5385 673.55 62.8718L673.159 61.825C674.545 60.5854 675.441 59.2937 675.847 57.95H674.581V59.2H673.659V57.075H676.066C676.211 56.4916 676.336 55.8718 676.441 55.2156L677.534 55.4812C677.649 55.5958 677.612 55.7052 677.425 55.8093C677.321 56.2468 677.211 56.6687 677.097 57.075H680.987V58.9812H680.05V57.95H676.878C676.659 58.7104 676.368 59.3458 676.003 59.8562H677.159L677.862 58.2156L678.909 58.4343C679.086 58.5072 679.05 58.601 678.8 58.7156L678.081 59.8562ZM668.847 57.3406V56.3093H673.487V57.3406H671.581C671.508 58.476 671.269 59.5177 670.862 60.4656H673.003V66.9812H672.066V66.0906H670.644V67.5281H669.722V62.5906C669.503 62.9552 669.264 63.2833 669.003 63.575L668.3 62.6531C669.571 61.226 670.316 59.4552 670.534 57.3406H668.847ZM675.566 62.8718V64.1843H677.425V62.8718H675.566ZM675.566 60.7312V61.9968H677.425V60.7312H675.566ZM675.566 65.0593V66.4187H677.425V65.0593H675.566ZM670.644 61.3406V65.2156H672.066V61.3406H670.644ZM687.222 61.45C688.566 61.0854 689.42 60.3718 689.784 59.3093L688.316 58.7156L688.691 57.7781L690.003 58.2781L690.112 56.9656H687.816V55.9187H694.378L694.269 60.6218C694.237 61.5385 693.857 61.9968 693.128 61.9968H691.862L691.753 60.95H692.909C693.128 60.95 693.237 60.8406 693.237 60.6218L693.347 56.9656H691.206L691.05 58.7156L692.362 59.4187L691.862 60.4031L690.769 59.8093C690.3 61.1531 689.264 62.0645 687.659 62.5437L687.222 61.45ZM694.159 66.9187C693.868 65.8249 693.415 64.877 692.8 64.075L693.784 63.6375C694.586 64.6166 695.097 65.5437 695.316 66.4187L694.159 66.9187ZM686.831 63.4656V67.6843H685.909V67.3093H684.05V67.9031H683.112V63.4656H686.831ZM687.269 66.9812C687.529 66.0645 687.696 65.0229 687.769 63.8562L688.862 63.9656C688.935 63.9968 688.899 64.0854 688.753 64.2312C688.711 65.3979 688.545 66.4031 688.253 67.2468L687.269 66.9812ZM690.769 61.6687C691.279 61.9916 691.79 62.5541 692.3 63.3562L691.269 63.9656C691.008 63.4552 690.571 62.8718 689.956 62.2156L690.769 61.6687ZM683.331 55.7H686.612V56.7468H683.331V55.7ZM682.628 57.5593H687.331V58.6062H682.628V57.5593ZM683.331 59.5906H686.612V60.6218H683.331V59.5906ZM683.331 61.45H686.612V62.4812H683.331V61.45ZM684.05 64.3406V66.4187H685.909V64.3406H684.05ZM690.222 63.3093C690.514 63.3406 690.534 63.45 690.284 63.6375V66.2C690.284 66.4604 690.394 66.5906 690.612 66.5906H691.816C692.034 66.5906 692.159 66.4812 692.191 66.2625L692.3 65.3875L693.394 65.6531L693.175 66.8093C693.071 67.3614 692.743 67.6375 692.191 67.6375H690.112C689.498 67.6375 689.191 67.3041 689.191 66.6375V63.3093H690.222Z" fill="#999999"/>
<path d="M32.9813 29.8718C33.3979 29.976 33.3458 30.1322 32.825 30.3406C32.6167 31.0177 32.4344 31.4864 32.2781 31.7468H38.7625L38.9969 31.4343L40.2469 32.5281C40.4552 32.7364 40.3771 32.8666 40.0125 32.9187L37.1219 36.825L35.8719 35.8093C36.549 34.9239 37.2 34.0645 37.825 33.2312H34.7V34.5593C34.7 37.2677 36.8354 39.377 41.1063 40.8875L40.4031 42.6843C36.9136 41.2781 34.8302 39.4812 34.1531 37.2937C33.4761 39.8979 31.3667 41.7989 27.825 42.9968L27.2 41.4343C31.2104 40.3406 33.2156 37.8927 33.2156 34.0906V33.2312H31.8094C31.2365 34.4812 30.5854 35.4968 29.8563 36.2781L28.6844 35.1062C29.9865 33.4916 30.8979 31.6166 31.4188 29.4812L32.9813 29.8718ZM29.8563 25.1843C30.2729 25.2364 30.299 25.3927 29.9344 25.6531V26.9812H34.3094V25.1843H35.7938C36.2104 25.2364 36.2365 25.3927 35.8719 25.6531V26.9812H40.6375V28.4656H35.8719V30.4187H34.3094V28.4656H29.9344V30.4187H28.3719V28.4656H23.6063V26.9812H28.3719V25.1843H29.8563ZM30.1688 38.3875C28.6583 39.1166 26.8615 39.8979 24.7781 40.7312C24.674 41.2 24.5438 41.2781 24.3875 40.9656L23.45 39.1687C25.95 38.3875 27.9552 37.6583 29.4656 36.9812L30.1688 38.3875ZM28.45 31.7468V33.2312H23.6063V31.7468H28.45ZM46.8094 36.4343L48.3719 35.8093L48.7625 37.1375L44.1531 39.2468C44.1011 39.6114 43.9708 39.6895 43.7625 39.4812L42.9031 37.7625L45.2469 36.9812V31.0437H43.3719V29.5593H45.2469V25.4187H46.7313C47.1479 25.4708 47.174 25.627 46.8094 25.8875V29.5593H48.6063V31.0437H46.8094V36.4343ZM58.3719 25.575C59.3094 26.0437 60.0125 26.6427 60.4813 27.3718L59.3094 28.5437C58.7886 27.7625 58.1115 27.1375 57.2781 26.6687L58.3719 25.575ZM52.7469 33.9343H50.7156V35.8093C50.7156 38.6218 49.5177 40.8614 47.1219 42.5281L46.1063 41.1218C48.1375 39.8197 49.1531 37.8666 49.1531 35.2625V28.6218H55.0125V24.95L56.4969 25.0281C56.9136 25.0802 56.9396 25.2364 56.575 25.4968V28.6218H60.8719V30.1062H56.6531L56.7313 31.6687C56.7833 33.1791 56.8875 34.6635 57.0438 36.1218C57.8771 34.4031 58.45 32.8666 58.7625 31.5125L60.325 32.2937C60.4292 32.502 60.3511 32.6322 60.0906 32.6843C59.2573 35.0281 58.45 36.7989 57.6688 37.9968C58.45 39.5593 59.075 40.3406 59.5438 40.3406C59.7 40.3406 59.8563 39.5854 60.0125 38.075L61.4969 38.9343C61.1844 41.226 60.6896 42.3718 60.0125 42.3718C58.7104 42.3718 57.5646 41.3562 56.575 39.325C55.2729 40.9395 53.8927 42.1114 52.4344 42.8406L51.575 41.5125C53.5542 40.3145 54.9865 39.0645 55.8719 37.7625C55.5073 36.252 55.2729 34.325 55.1688 31.9812L55.0906 30.1062H50.7156V32.45H54.1531L54.075 37.1375C54.075 38.3875 53.6844 39.0125 52.9031 39.0125H51.4188L51.2625 37.5281H52.3563C52.5646 37.5281 52.6688 37.4239 52.6688 37.2156L52.7469 33.9343ZM76.1844 37.6062C77.2261 38.6479 78.7625 39.6895 80.7938 40.7312L79.8563 42.3718C78.0854 41.5385 76.4188 40.3406 74.8563 38.7781L76.1844 37.6062ZM69.3875 39.0125C68.5021 40.2625 67.1479 41.4864 65.325 42.6843L64.1531 41.2C65.8198 40.2104 67.1479 39.0385 68.1375 37.6843L69.6219 38.5437C69.8823 38.752 69.8042 38.9083 69.3875 39.0125ZM66.1844 36.9812V37.7625H64.6219V26.5125H66.1063C66.5229 26.5645 66.549 26.7208 66.1844 26.9812V35.4968H80.5594V36.9812H73.2938V42.9968H71.4969V36.9812H66.1844ZM69.6219 33.2312H76.4188V31.7468H69.6219V33.2312ZM69.6219 30.4968H76.4188V29.2468H69.6219V30.4968ZM69.6219 27.9968H76.4188V26.7468H69.6219V27.9968ZM68.0594 34.4812V25.4968H77.9813V34.4812H68.0594ZM92.9813 30.1843C92.0958 35.3927 91.0281 38.6218 89.7781 39.8718C89.1011 40.5489 88.3979 40.8875 87.6688 40.8875C86.8354 40.8875 86.1844 40.6531 85.7156 40.1843C84.4656 38.9343 83.8406 37.3718 83.8406 35.4968C83.8406 33.2052 84.6479 31.252 86.2625 29.6375C88.0333 27.8666 90.1948 26.9812 92.7469 26.9812C95.0386 26.9812 96.8354 27.6322 98.1375 28.9343C99.5958 30.3927 100.325 32.1114 100.325 34.0906C100.325 36.226 99.6479 37.9708 98.2938 39.325C97.4083 40.2104 96.0542 41.0697 94.2313 41.9031L92.5906 40.2625C94.4136 39.6895 95.8458 38.8822 96.8875 37.8406C97.8771 36.851 98.3719 35.6531 98.3719 34.2468C98.3719 32.5802 97.825 31.2 96.7313 30.1062C95.6375 29.0125 93.9188 28.5177 91.575 28.6218L92.9813 29.325C93.6063 29.5854 93.6063 29.8718 92.9813 30.1843ZM91.1844 28.7C89.8302 29.0125 88.6583 29.6635 87.6688 30.6531C86.3146 32.0072 85.6375 33.6739 85.6375 35.6531C85.6375 36.851 86.0281 37.8406 86.8094 38.6218C86.9656 38.7781 87.2 38.8562 87.5125 38.8562C87.825 38.8562 88.1636 38.6739 88.5281 38.3093C89.7261 37.1114 90.6115 33.9083 91.1844 28.7ZM110.325 41.5125C112.46 40.3666 113.528 38.4135 113.528 35.6531V26.6687L115.169 26.9812L119.388 25.6531L120.559 27.2156C120.664 27.5281 120.481 27.5802 120.013 27.3718L115.091 28.3093V31.6687H121.263V33.1531H118.919V42.9187H117.356V33.1531H115.091V36.1218C115.091 39.1947 113.789 41.4864 111.184 42.9968L110.325 41.5125ZM108.841 42.9968H107.278V38.3093C106.445 39.6635 105.533 40.7312 104.544 41.5125L103.372 40.1062C104.83 39.0645 106.054 37.7625 107.044 36.2H103.763V34.7156H107.278V32.9968H103.294V31.5125H108.763L109.622 28.7H103.841V27.2156H107.278V25.0281H108.763C109.179 25.0802 109.205 25.2364 108.841 25.4968V27.2156H112.278V28.7H111.263L110.169 31.5125H112.669V32.9968H108.841V34.7156H112.278V36.2H108.841V36.9031C109.57 37.1114 110.585 37.6583 111.888 38.5437L110.95 40.1062C110.221 39.377 109.518 38.8041 108.841 38.3875V42.9968ZM105.716 31.3562C105.507 30.627 105.221 29.9239 104.856 29.2468L106.341 28.7781C106.757 29.4552 107.07 30.1583 107.278 30.8875L105.716 31.3562ZM138.45 33.5437H133.372V35.2625H138.45V33.5437ZM136.341 36.7468H134.934V37.5281C134.934 40.7572 133.085 42.6583 129.388 43.2312L128.919 41.5906C131.888 41.226 133.372 39.8197 133.372 37.3718V36.7468H132.591H131.809V25.8093H140.013V36.7468H137.903V40.6531C137.903 41.0697 138.085 41.2781 138.45 41.2781H139.231C139.492 41.2781 139.648 41.0177 139.7 40.4968L139.856 39.1687L141.419 39.6375L141.184 41.4343C141.08 42.3197 140.585 42.7625 139.7 42.7625H137.747C136.809 42.7625 136.341 42.3197 136.341 41.4343V36.7468ZM133.372 32.0593H138.45V30.4187H133.372V32.0593ZM133.372 28.9343H138.45V27.2937H133.372V28.9343ZM127.747 35.8875C128.789 36.3562 130.013 37.2156 131.419 38.4656L130.325 40.1062C129.231 38.9083 128.268 38.0229 127.434 37.45C126.914 39.7416 125.82 41.5385 124.153 42.8406L122.981 41.4343C125.273 39.5072 126.367 37.0072 126.263 33.9343H123.294V32.45H126.341V29.6375H123.841V28.1531H126.341V25.0281H127.825C128.242 25.0802 128.268 25.2364 127.903 25.4968V28.1531H130.638V29.6375H127.903V32.45H131.028V33.9343H127.825C127.825 34.7677 127.799 35.4187 127.747 35.8875ZM147.825 32.1375C148.815 33.4916 149.309 34.8979 149.309 36.3562C149.309 38.3875 148.71 39.4031 147.513 39.4031H146.575L146.263 37.8406H147.044C147.565 37.8406 147.799 37.2937 147.747 36.2C147.695 34.6895 147.226 33.3614 146.341 32.2156L147.903 27.1375H145.481V42.7625H143.919V25.8875H148.294L148.606 25.4968L149.934 26.6687L149.622 26.9812L147.825 32.1375ZM159.153 36.5125H158.372C157.539 40.3145 154.752 42.502 150.013 43.075L149.544 41.5906C153.606 41.2781 156.054 39.5854 156.888 36.5125H155.794C154.908 38.7 153.033 40.0281 150.169 40.4968L149.7 39.1687C152.096 38.6479 153.58 37.7625 154.153 36.5125H152.903C152.174 37.2416 151.236 37.8145 150.091 38.2312L149.466 36.9031C151.132 36.3822 152.278 35.3927 152.903 33.9343H149.388V32.6843H161.106V33.9343H154.544C154.335 34.4031 154.075 34.8458 153.763 35.2625H160.638L160.481 40.1843C160.429 41.851 159.83 42.6843 158.684 42.6843H157.122L156.888 41.2H158.216C158.684 41.2 158.945 40.8875 158.997 40.2625L159.153 36.5125ZM152.513 30.4187H157.825V29.0906H152.513V30.4187ZM152.513 27.8406H157.825V26.5906H152.513V27.8406ZM159.153 25.3406V31.6687H151.184V25.3406H159.153ZM172.434 29.325H174.544V25.2625H176.028C176.445 25.3145 176.471 25.4708 176.106 25.7312V29.325H180.325V30.8093H176.106V34.5593H180.091V36.0437H176.106V40.6531H181.263V42.1375H169.309V40.6531H174.544V36.0437H170.716V34.5593H174.544V30.8093H171.966C171.601 31.851 171.028 32.8927 170.247 33.9343L168.919 32.9187C170.273 31.1479 171.158 29.0125 171.575 26.5125L173.059 26.825C173.476 26.9812 173.476 27.1375 173.059 27.2937L172.434 29.325ZM165.794 25.0281H167.278C167.695 25.0802 167.721 25.2364 167.356 25.4968V42.8406H165.794V25.0281ZM168.763 28.2312C169.231 28.8562 169.622 29.5593 169.934 30.3406L168.684 31.2C168.32 30.3145 167.955 29.5854 167.591 29.0125L168.763 28.2312ZM165.325 29.0906C165.69 29.1947 165.69 29.351 165.325 29.5593C165.221 31.226 164.986 32.7885 164.622 34.2468L163.138 33.7781C163.554 32.476 163.789 30.8354 163.841 28.8562L165.325 29.0906ZM198.138 33.6218V42.6843H196.575V41.9031H189.544V42.9187H187.981V35.8093C186.627 36.5385 185.169 37.1114 183.606 37.5281L183.059 36.1218C184.518 35.7572 186.158 35.1062 187.981 34.1687V33.6218H189.075C190.169 32.9968 191.106 32.3718 191.888 31.7468H183.684V30.2625H190.559V28.3875H185.716V26.9031H190.559V25.0281H192.044C192.46 25.0802 192.486 25.2364 192.122 25.4968V26.9031H195.872V28.2312C196.497 27.5541 197.122 26.7989 197.747 25.9656L198.841 26.6687C199.205 26.9291 199.153 27.0854 198.684 27.1375C197.695 28.3354 196.705 29.377 195.716 30.2625H201.106V31.7468H194.075C193.033 32.6322 192.2 33.2572 191.575 33.6218H198.138ZM193.606 30.2625C194.231 29.7937 194.934 29.1687 195.716 28.3875H192.122V30.2625H193.606ZM189.544 36.9812H196.575V34.8718H189.544V36.9812ZM189.544 40.6531H196.575V38.2312H189.544V40.6531ZM216.731 36.9031C217.46 35.4968 217.903 33.3614 218.059 30.4968H215.403C215.559 33.3614 216.002 35.4968 216.731 36.9031ZM219.622 30.4968C219.518 33.726 218.893 36.3302 217.747 38.3093C218.58 39.351 219.752 40.2625 221.263 41.0437L220.247 42.7625C218.58 41.6687 217.408 40.627 216.731 39.6375C215.533 40.9916 213.684 42.1635 211.184 43.1531L210.403 41.5906C213.111 40.4968 214.908 39.377 215.794 38.2312C214.908 36.5125 214.414 34.7937 214.309 33.075C213.997 33.8562 213.684 34.4552 213.372 34.8718L212.044 33.8562C213.606 31.5645 214.544 28.726 214.856 25.3406L216.497 25.7312C216.809 25.9395 216.731 26.0958 216.263 26.2C216.106 27.1375 215.898 28.075 215.638 29.0125H220.95V30.4968H219.622ZM212.356 26.7468C212.044 27.5281 211.679 28.1791 211.263 28.7L210.013 27.9968C210.429 27.3197 210.82 26.5385 211.184 25.6531L212.591 26.3562C212.799 26.5645 212.721 26.6947 212.356 26.7468ZM207.356 37.7625C208.085 37.9708 208.736 38.2052 209.309 38.4656C209.726 37.9968 210.065 37.2937 210.325 36.3562H208.059C207.851 36.825 207.617 37.2937 207.356 37.7625ZM206.263 39.7156L205.013 39.0125C205.533 38.2312 206.054 37.3458 206.575 36.3562H203.606V35.1062H207.044C207.356 34.4291 207.591 33.8562 207.747 33.3875L209.231 33.7781C209.44 33.9864 209.361 34.1166 208.997 34.1687L208.528 35.1062H212.981V36.3562H211.809C211.549 37.3979 211.158 38.2833 210.638 39.0125C211.106 39.2208 211.601 39.4812 212.122 39.7937L211.419 41.0437C210.846 40.6791 210.325 40.3927 209.856 40.1843C208.502 41.5385 206.679 42.3718 204.388 42.6843L203.841 41.2781C205.872 41.0697 207.434 40.4968 208.528 39.5593C207.955 39.2989 207.382 39.0645 206.809 38.8562L206.263 39.7156ZM207.825 25.0281H209.075C209.492 25.0802 209.518 25.2364 209.153 25.4968V28.8562H213.138V30.1062H209.856C210.429 30.7833 211.315 31.4343 212.513 32.0593L211.653 33.3875C210.768 32.8666 209.934 32.1375 209.153 31.2V33.075H207.825V31.5906C206.992 32.6322 205.846 33.5697 204.388 34.4031L203.372 33.1531C204.986 32.3197 206.315 31.3041 207.356 30.1062H203.763V28.8562H207.825V25.0281ZM205.638 28.6218C205.273 27.8406 204.804 27.1635 204.231 26.5906L205.481 25.8093C206.106 26.4343 206.575 27.0854 206.888 27.7625L205.638 28.6218ZM232.981 30.1843C232.096 35.3927 231.028 38.6218 229.778 39.8718C229.101 40.5489 228.398 40.8875 227.669 40.8875C226.835 40.8875 226.184 40.6531 225.716 40.1843C224.466 38.9343 223.841 37.3718 223.841 35.4968C223.841 33.2052 224.648 31.252 226.263 29.6375C228.033 27.8666 230.195 26.9812 232.747 26.9812C235.039 26.9812 236.835 27.6322 238.138 28.9343C239.596 30.3927 240.325 32.1114 240.325 34.0906C240.325 36.226 239.648 37.9708 238.294 39.325C237.408 40.2104 236.054 41.0697 234.231 41.9031L232.591 40.2625C234.414 39.6895 235.846 38.8822 236.888 37.8406C237.877 36.851 238.372 35.6531 238.372 34.2468C238.372 32.5802 237.825 31.2 236.731 30.1062C235.638 29.0125 233.919 28.5177 231.575 28.6218L232.981 29.325C233.606 29.5854 233.606 29.8718 232.981 30.1843ZM231.184 28.7C229.83 29.0125 228.658 29.6635 227.669 30.6531C226.315 32.0072 225.638 33.6739 225.638 35.6531C225.638 36.851 226.028 37.8406 226.809 38.6218C226.966 38.7781 227.2 38.8562 227.513 38.8562C227.825 38.8562 228.164 38.6739 228.528 38.3093C229.726 37.1114 230.611 33.9083 231.184 28.7ZM248.763 31.825C250.481 30.2104 251.809 27.8666 252.747 24.7937L254.309 25.2625C254.57 25.4708 254.518 25.601 254.153 25.6531C253.736 26.6947 253.32 27.6583 252.903 28.5437H255.247C255.82 27.3458 256.263 26.2781 256.575 25.3406L258.059 25.8875C258.268 26.0958 258.19 26.226 257.825 26.2781C257.46 27.1114 257.096 27.8666 256.731 28.5437H260.716V30.0281H256.731V32.45H259.934V33.9343H256.731V36.4343H259.934V37.9187H256.731V40.8093H261.184V42.2937H252.591V42.9968H251.028V31.6687C250.664 32.1895 250.273 32.6583 249.856 33.075L248.763 31.825ZM244.856 42.8406L244.544 41.3562H245.872C246.08 41.3562 246.184 41.252 246.184 41.0437V36.2L244.153 36.6687C244.101 37.0333 243.971 37.1114 243.763 36.9031L243.45 35.1062L246.184 34.5593V30.4187H243.763V28.9343H246.184V24.95H247.669C248.085 25.002 248.111 25.1583 247.747 25.4187V28.9343H249.778V30.4187H247.747V34.2468L249.778 33.7L250.013 35.1062L247.747 35.8093V41.5906C247.747 42.4239 247.33 42.8406 246.497 42.8406H244.856ZM252.591 40.8093H255.169V37.9187H252.591V40.8093ZM252.591 36.4343H255.169V33.9343H252.591V36.4343ZM252.591 32.45H255.169V30.0281H252.591V32.45ZM278.841 27.1375L279.075 26.825L280.325 27.8406L280.091 28.075C278.736 30.4187 277.408 31.9812 276.106 32.7625L276.888 32.9968C277.252 33.1531 277.226 33.3093 276.809 33.4656C276.705 33.8302 276.575 34.1427 276.419 34.4031H279.778L280.013 34.0906L281.419 35.1062L281.106 35.4187C279.44 39.8458 276.054 42.3458 270.95 42.9187L270.325 41.4343C272.773 41.1739 274.7 40.5229 276.106 39.4812C275.377 38.752 274.648 38.127 273.919 37.6062C273.242 38.1791 272.33 38.7 271.184 39.1687L270.481 37.7625C273.033 36.7208 274.7 35.1322 275.481 32.9968C274.7 33.726 273.294 34.351 271.263 34.8718L270.559 33.4656C272.539 33.0489 274.023 32.502 275.013 31.825C274.492 31.2 273.867 30.6531 273.138 30.1843C272.773 30.5489 272.408 30.8614 272.044 31.1218L270.95 29.95C272.669 28.4916 273.763 26.9291 274.231 25.2625L275.638 25.7312C276.002 25.8875 275.976 26.0437 275.559 26.2C275.507 26.5125 275.377 26.825 275.169 27.1375H278.841ZM268.216 30.1843H270.794V31.6687H268.216V33.6218C269.257 34.0906 270.247 34.7937 271.184 35.7312L270.169 37.1375C269.335 36.3041 268.684 35.7052 268.216 35.3406V42.9187H266.653V35.1843C266.341 36.226 265.481 37.5541 264.075 39.1687L262.903 37.6843C264.83 35.8614 266.028 33.8562 266.497 31.6687H263.45V30.1843H266.653V27.6062C265.611 27.7625 264.674 27.8927 263.841 27.9968L263.45 26.5125C265.533 26.3041 267.695 25.8875 269.934 25.2625L270.794 26.4343C271.002 26.7468 270.872 26.851 270.403 26.7468C269.674 26.9552 268.945 27.1375 268.216 27.2937V30.1843ZM273.919 29.2468C274.7 29.6635 275.455 30.1843 276.184 30.8093C276.966 30.0802 277.617 29.2729 278.138 28.3875H274.544C274.335 28.752 274.127 29.0385 273.919 29.2468ZM274.778 36.6687C275.507 37.0854 276.341 37.7104 277.278 38.5437C278.059 37.9708 278.736 37.0072 279.309 35.6531H275.716C275.403 36.0697 275.091 36.4083 274.778 36.6687ZM286.809 29.325C287.382 28.127 288.346 26.9031 289.7 25.6531L290.559 26.4343C289.257 27.6322 288.346 28.7781 287.825 29.8718C287.252 31.0697 286.966 32.502 286.966 34.1687C286.966 35.575 287.252 36.9031 287.825 38.1531C288.346 39.2989 289.257 40.575 290.559 41.9812L289.7 42.8406C288.398 41.3822 287.434 40.002 286.809 38.7C286.132 37.2937 285.794 35.7833 285.794 34.1687C285.794 32.3458 286.132 30.7312 286.809 29.325ZM297.903 41.9031H296.106V26.825H308.372V41.5906H306.575V40.4968H297.903V41.9031ZM306.575 32.7625V28.3093H297.903V32.7625H306.575ZM306.575 39.0125V34.2468H297.903V39.0125H306.575ZM321.341 35.8093H318.372C317.903 38.7781 316.497 41.1218 314.153 42.8406L313.372 41.3562C315.664 39.7416 316.914 37.3458 317.122 34.1687L317.278 31.7468H316.184V32.7625H314.622V26.0437H322.513V32.45H320.95V31.7468H318.684L318.528 34.325H322.903L322.513 40.4968C322.408 41.7468 321.888 42.3718 320.95 42.3718H318.841L318.606 40.8875H320.325C320.794 40.8875 321.054 40.627 321.106 40.1062L321.341 35.8093ZM329.778 41.2C329.778 42.0854 329.361 42.5281 328.528 42.5281H326.809L326.497 41.0437H327.981C328.138 41.0437 328.216 40.9656 328.216 40.8093V25.8093H329.7C330.117 25.8614 330.143 26.0177 329.778 26.2781V41.2ZM326.028 27.6843C326.445 27.7364 326.471 27.8927 326.106 28.1531V38.8562H324.544V27.6843H326.028ZM320.95 30.4968V27.2937H316.184V30.4968H320.95ZM337.513 38.7C336.888 40.002 335.924 41.3822 334.622 42.8406L333.763 41.9812C335.065 40.575 335.976 39.2989 336.497 38.1531C337.07 36.9031 337.356 35.575 337.356 34.1687C337.356 32.502 337.07 31.0697 336.497 29.8718C335.976 28.7781 335.065 27.6322 333.763 26.4343L334.622 25.6531C335.976 26.9031 336.94 28.127 337.513 29.325C338.19 30.7312 338.528 32.3458 338.528 34.1687C338.528 35.7833 338.19 37.2937 337.513 38.7Z" fill="#757575"/>
</g>
<rect x="2" y="2" width="714" height="440" stroke="black" stroke-width="4"/>
<defs>
<clipPath id="clip0_6_10416">
<rect width="718" height="444" fill="white"/>
</clipPath>
</defs>
</svg>
