<svg width="718" height="444" viewBox="0 0 718 444" fill="none" xmlns="http://www.w3.org/2000/svg">
<g clip-path="url(#clip0_6_11452)">
<path d="M0 0H718V444H0V0Z" fill="white"/>
<path d="M181.5 91.5V369.5" stroke="#CCCCCC" stroke-miterlimit="10"/>
<path d="M303.5 91.5V369.5" stroke="#CCCCCC" stroke-miterlimit="10"/>
<path d="M424.5 91.5V369.5" stroke="#CCCCCC" stroke-miterlimit="10"/>
<path d="M545.5 91.5V369.5" stroke="#CCCCCC" stroke-miterlimit="10"/>
<path d="M667.5 91.5V369.5" stroke="#CCCCCC" stroke-miterlimit="10"/>
<path d="M88.5 369.5H695.5" stroke="#333333" stroke-miterlimit="10"/>
<path d="M88.5 277.5H695.5" stroke="#CCCCCC" stroke-miterlimit="10"/>
<path d="M88.5 184.5H695.5" stroke="#CCCCCC" stroke-miterlimit="10"/>
<path d="M88.5 91.5H695.5" stroke="#CCCCCC" stroke-miterlimit="10"/>
<path d="M88.2 369.8H88.807H89.414H90.021H90.628H91.235H91.842H92.449H93.0559H93.6629H94.2699H94.8769H95.4839H96.0909H96.6979H97.3049H97.9119H98.5189H99.1259H99.7329H100.34H100.947H101.554H102.161H102.768H103.375H103.982H104.589H105.196H105.803H106.41H107.017H107.624H108.231H108.838H109.445L110.052 369.707H110.659L111.266 369.8L111.873 369.615L112.48 369.8H113.087L113.694 369.707H114.301L114.908 369.8H115.515H116.122H116.729H117.336H117.943H118.55H119.157H119.764L120.371 369.707L120.978 369.8H121.585H122.192H122.799H123.406H124.013H124.62H125.227H125.834H126.441L127.048 369.707L127.655 369.8H128.262H128.869H129.476H130.083H130.69H131.297L131.904 369.707L132.51 369.8L133.117 369.615H133.724H134.331L134.938 369.707L135.545 369.058H136.152L136.759 368.78L137.366 369.615L137.973 369.243L138.58 368.409L139.187 369.243L139.794 367.945L140.401 368.687L141.008 368.965L141.615 369.058L142.222 368.872L142.829 368.965L143.436 369.243L144.043 368.78L144.65 368.316L145.257 369.336L145.864 369.615L146.471 368.872L147.078 368.965L147.685 368.223L148.292 369.243L148.899 369.615L149.506 369.336L150.113 369.151L150.72 368.965L151.327 369.336L151.934 369.707L152.541 369.522L153.148 369.243L153.755 369.429L154.362 369.522L154.969 369.707L155.576 369.522L156.183 369.429L156.79 369.8L157.397 369.615L158.004 369.707L158.611 369.615L159.218 369.522L159.825 369.707L160.432 369.8L161.039 369.707H161.646H162.253L162.86 369.8L163.467 369.522L164.074 369.8L164.681 369.615H165.288L165.895 369.707L166.502 369.8H167.109L167.716 369.707L168.323 369.8L168.93 369.707H169.537L170.144 369.8H170.751H171.358H171.965H172.572H173.179L173.786 369.707L174.393 369.8H175H175.607H176.214H176.821H177.428H178.035H178.642H179.249H179.856H180.463H181.07H181.677H182.284H182.891H183.498L184.105 369.707L184.712 369.8H185.319H185.926H186.533H187.14H187.747H188.354H188.961H189.568H190.175H190.782H191.389H191.996H192.603H193.21H193.817H194.424H195.031H195.638H196.245H196.852H197.459H198.066H198.673L199.28 369.707L199.887 369.615L200.494 369.8H201.101L201.708 369.522L202.315 369.8L202.922 369.707L203.529 369.522L204.136 369.8L204.743 369.522L205.35 369.8L205.957 369.707L206.564 369.615L207.171 369.429L207.778 369.707H208.385H208.992L209.599 369.8L210.206 369.707L210.813 369.8L211.42 369.243L212.027 369.707L212.634 368.78L213.241 367.759L213.848 368.687L214.455 368.501L215.062 368.965L215.669 368.594H216.276H216.883L217.49 368.13L218.096 368.037L218.703 368.78L219.31 368.501L219.917 367.574L220.524 369.058L221.131 368.13L221.738 368.316L222.345 369.151L222.952 368.687L223.559 369.151L224.166 368.594L224.773 369.058L225.38 369.151L225.987 369.429L226.594 369.615L227.201 367.295L227.808 368.594L228.415 368.78L229.022 369.429L229.629 368.316L230.236 369.151L230.843 369.429H231.45L232.057 369.243L232.664 369.429L233.271 369.615L233.878 369.243L234.485 369.8L235.092 369.707L235.699 369.336L236.306 369.8L236.913 369.243L237.52 369.615L238.127 369.243L238.734 369.429L239.341 369.615L239.948 369.429L240.555 369.707L241.162 369.615L241.769 369.058L242.376 369.615L242.983 369.522L243.59 369.8H244.197H244.804L245.411 369.707L246.018 369.8H246.625H247.232L247.839 369.707L248.446 369.8H249.053H249.66L250.267 369.615L250.874 369.8H251.481H252.088L252.695 369.615L253.302 369.429L253.909 369.707H254.516L255.123 369.336L255.73 369.615L256.337 369.8H256.944H257.551H258.158L258.765 369.615L259.372 369.8L259.979 369.707H260.586H261.193L261.8 369.522L262.407 369.8L263.014 369.522L263.621 369.429L264.228 369.615L264.835 369.8L265.442 369.707L266.049 369.8L266.656 369.615L267.263 369.707L267.87 369.522H268.477L269.084 369.707H269.691H270.298L270.905 369.615L271.512 369.8L272.119 369.707L272.726 369.615L273.333 369.8H273.94H274.547L275.154 369.707L275.761 369.8L276.368 369.615H276.975L277.582 369.8L278.189 369.707L278.796 369.615L279.403 369.336L280.01 369.522L280.617 369.8L281.224 369.429L281.831 369.522L282.438 369.243L283.045 369.615L283.652 369.707L284.259 369.615L284.866 369.522L285.473 369.336L286.08 369.615L286.687 369.336H287.294L287.901 369.429L288.508 368.78L289.115 369.058L289.722 369.522L290.329 369.243H290.936L291.543 369.058H292.15L292.757 368.965L293.364 369.151L293.971 369.243L294.578 369.151H295.185L295.792 369.243L296.399 368.13L297.006 368.687H297.613H298.22L298.827 369.243L299.434 368.872L300.041 368.501L300.648 369.151L301.255 368.594H301.862L302.469 369.058L303.076 368.501L303.683 367.945L304.29 368.687L304.897 367.481L305.504 368.223L306.111 368.409L306.717 368.037L307.324 369.243L307.931 369.336L308.538 368.872L309.145 368.037L309.752 367.945L310.359 367.759L310.966 368.316L311.573 368.687L312.18 368.037L312.787 368.223L313.394 367.945L314.001 368.872L314.608 368.594L315.215 369.243L315.822 369.707L316.429 368.501L317.036 369.336H317.643L318.25 369.429H318.857L319.464 369.151L320.071 369.429L320.678 369.151L321.285 368.78L321.892 368.872L322.499 367.481L323.106 368.501L323.713 367.017L324.32 369.151L324.927 368.872L325.534 368.316L326.141 367.481L326.748 368.409L327.355 368.316L327.962 367.017L328.569 368.78L329.176 367.852L329.783 368.501L330.39 368.409L330.997 368.223L331.604 368.13L332.211 368.687L332.818 369.243L333.425 368.501L334.032 368.687L334.639 369.058L335.246 368.78L335.853 369.429L336.46 369.243H337.067L337.674 369.336L338.281 369.058L338.888 369.522H339.495L340.102 369.707L340.709 369.8H341.316L341.923 369.615L342.53 369.8H343.137H343.744L344.351 369.429L344.958 369.522L345.565 369.8L346.172 369.707L346.779 369.8L347.386 369.707L347.993 369.522L348.6 369.615L349.207 369.707L349.814 369.8L350.421 369.707H351.028L351.635 369.522L352.242 369.707H352.849L353.456 369.8H354.063L354.67 369.707L355.277 368.965L355.884 369.336L356.491 368.501L357.098 368.78H357.705L358.312 369.336L358.919 368.316L359.526 368.501L360.133 369.336L360.74 367.759L361.347 368.316L361.954 368.13L362.561 368.687L363.168 368.594L363.775 367.852L364.382 368.037L364.989 366.553L365.596 368.316L366.203 368.13L366.81 368.872L367.417 367.666L368.024 366.739L368.631 366.924L369.238 367.017L369.845 366.368L370.452 367.945L371.059 368.409L371.666 368.13L372.273 367.11L372.88 366.182L373.487 369.8L374.094 364.883L374.701 366.089L375.308 367.11H375.915L376.522 367.852L377.129 366.368L377.736 365.44L378.343 362.379L378.95 363.956L379.557 365.162L380.164 365.997L380.771 363.214L381.378 364.605L381.985 365.626H382.592L383.199 364.327L383.806 368.316L384.413 365.811L385.02 366.46L385.627 367.203L386.234 367.481L386.841 364.698L387.448 366.46L388.055 367.666L388.662 360.431L389.269 366.46L389.876 368.13L390.483 365.997L391.09 367.759L391.697 368.501L392.304 367.481L392.911 367.945L393.518 368.13L394.124 368.965L394.731 368.78L395.338 368.501L395.945 368.409L396.552 369.429L397.159 369.151L397.766 369.429L398.373 369.151H398.98L399.587 369.707L400.194 369.243L400.801 369.336L401.408 369.522L402.015 369.429L402.622 369.151H403.229L403.836 368.872L404.443 369.707L405.05 369.615L405.657 369.243L406.264 369.615L406.871 369.429L407.478 369.707L408.085 369.8L408.692 369.707H409.299H409.906H410.513L411.12 369.429L411.727 369.243L412.334 369.058L412.941 369.336L413.548 368.78L414.155 369.151L414.762 368.965L415.369 368.594L415.976 368.501L416.583 368.409L417.19 368.78H417.797L418.404 368.316L419.011 366.739L419.618 367.852L420.225 365.997L420.832 366.739L421.439 367.666L422.046 367.481L422.653 367.666L423.26 363.677L423.867 364.049L424.474 365.44L425.081 366.553L425.688 363.121L426.295 362.471L426.902 363.121L427.509 358.761L428.116 361.08L428.723 359.596L429.33 361.451L429.937 362.286L430.544 364.605L431.151 361.915L431.758 358.854L432.365 363.028L432.972 362.564L433.579 362.193L434.186 364.698L434.793 363.214L435.4 366.739L436.007 362.843L436.614 360.709L437.221 361.08L437.828 361.822L438.435 362.935L439.042 365.533L439.649 363.677L440.256 361.544L440.863 362.1L441.47 362.193L442.077 363.399L442.684 363.677L443.291 365.347L443.898 363.306L444.505 363.585L445.112 364.605L445.719 363.863L446.326 364.327L446.933 364.42L447.54 367.388L448.147 366.089L448.754 363.863L449.361 365.997L449.968 366.739L450.575 367.481L451.182 367.945L451.789 368.223L452.396 367.481L453.003 368.13L453.61 367.203L454.217 366.831L454.824 366.553L455.431 368.965L456.038 369.151L456.645 368.409L457.252 364.883L457.859 364.42L458.466 366.924L459.073 366.831L459.68 369.429L460.287 368.13L460.894 369.058L461.501 368.594L462.108 368.037L462.715 369.429L463.322 367.945L463.929 369.429L464.536 369.615L465.143 368.965L465.75 367.017L466.357 368.872L466.964 367.11L467.571 367.574L468.178 369.058L468.785 369.615L469.392 369.429L469.999 369.243L470.606 369.429L471.213 369.151L471.82 369.243L472.427 369.707H473.034H473.641L474.248 369.243L474.855 369.615L475.462 369.522L476.069 369.336L476.676 369.707H477.283H477.89L478.497 369.522L479.104 369.058L479.71 369.522L480.317 369.8L480.924 369.707L481.531 369.8L482.138 369.243L482.745 369.707L483.352 369.058L483.959 369.8L484.566 369.336L485.173 369.707L485.78 369.8L486.387 369.707L486.994 369.8H487.601L488.208 369.707L488.815 369.8H489.422H490.029H490.636L491.243 369.522L491.85 369.707L492.457 369.429L493.064 369.707L493.671 369.8H494.278H494.885H495.492L496.099 369.707L496.706 369.8H497.313H497.92H498.527H499.134H499.741H500.348L500.955 369.707L501.562 369.8H502.169H502.776H503.383H503.99H504.597H505.204H505.811H506.418H507.025H507.632H508.239H508.846L509.453 369.707L510.06 369.8H510.667H511.274L511.881 369.707L512.488 369.8H513.095H513.702H514.309L514.916 369.707L515.523 369.8H516.13L516.737 369.615L517.344 367.11L517.951 368.594L518.558 368.78L519.165 369.8L519.772 369.522L520.379 368.965L520.986 369.151L521.593 369.615L522.2 369.707L522.807 369.615L523.414 369.707H524.021L524.628 369.615L525.235 368.965L525.842 369.243L526.449 368.316L527.056 368.687H527.663L528.27 369.151L528.877 368.78L529.484 366.46L530.091 365.347L530.698 364.512L531.305 362.379L531.912 362.564L532.519 365.997L533.126 357.833L533.733 356.071L534.34 354.865L534.947 348.185L535.554 347.072L536.161 356.813L536.768 354.957L537.375 338.074L537.982 322.304L538.589 326.942L539.196 330.838L539.803 321.654L540.41 326.2L541.017 349.206L541.624 314.882L542.231 302.823L542.838 318.871L543.445 321.561L544.052 321.747L544.659 330.467L545.266 353.009L545.873 318.871L546.48 322.953L547.087 329.354L547.694 331.209L548.301 349.299L548.908 343.269L549.515 347.629L550.122 320.448L550.729 318.778L551.336 326.014L551.943 332.972L552.55 332.137L553.157 339.465L553.764 354.03L554.371 322.025L554.978 315.903L555.585 350.968L556.192 324.344L556.799 314.697L557.406 340.671L558.013 341.877L558.62 311.914L559.227 315.995L559.834 330.467L560.441 333.064L561.048 332.137L561.655 344.104L562.262 355.607L562.869 327.498L563.476 325.087L564.083 329.168L564.689 334.363L565.296 330.931L565.903 338.816L566.51 357.926L567.117 329.725L567.724 328.519L568.331 340.207L568.938 341.785L569.545 346.052L570.152 351.618L570.759 356.627L571.366 360.616L571.973 337.981L572.58 340.579L573.187 345.681L573.794 344.939L574.401 349.113L575.008 360.802L575.615 339.929L576.222 333.992L576.829 341.413L577.436 343.454L578.043 342.712L578.65 349.206L579.257 358.668L579.864 338.167L580.471 335.755L581.078 340.95L581.685 342.434L582.292 341.228L582.899 345.031L583.506 356.256L584.113 333.899L584.72 333.25L585.327 339.651L585.934 340.486L586.541 344.196L587.148 349.391L587.755 360.245L588.362 337.796L588.969 340.115L589.576 338.909L590.183 335.94L590.79 335.569L591.397 339.094L592.004 356.256L592.611 334.178L593.218 329.632L593.825 335.198L594.432 339.094L595.039 356.071L595.646 346.516L596.253 354.122L596.86 323.788L597.467 347.443L598.074 348.556L598.681 347.443L599.288 313.676L599.895 321.19L600.502 348L601.109 311.821L601.716 316.274L602.323 322.118L602.93 323.509L603.537 317.758L604.144 329.168L604.751 351.525L605.358 314.326L605.965 313.862L606.572 317.387L607.179 326.014L607.786 322.025L608.393 334.734L609 357.648L609.607 322.582L610.214 326.478L610.821 335.476L611.428 339.187L612.035 339.373L612.642 349.67L613.249 360.987L613.856 345.959L614.463 342.619L615.07 354.494L615.677 352.638L616.284 352.545H616.891L617.498 363.028L618.105 350.597L618.712 350.412L619.319 354.494L619.926 358.204L620.533 353.937L621.14 359.039L621.747 363.492L622.354 353.751L622.961 354.03H623.568L624.175 357.926L624.782 356.349L625.389 360.616L625.996 366.368L626.603 353.009L627.21 354.957L627.817 358.761L628.424 360.802L629.031 361.266L629.638 361.358L630.245 366.368L630.852 355.143L631.459 356.349L632.066 355.607L632.673 356.163L633.28 355.885L633.887 354.308L634.494 358.482L635.101 361.915L635.708 337.981L636.315 341.228L636.922 344.289L637.529 338.909L638.136 334.827L638.743 336.961L639.35 351.989L639.957 304.028L640.564 309.78L641.171 304.492L641.778 312.47L642.385 306.811L642.992 312.749L643.599 339.094L644.206 333.621L644.813 218.776L645.42 226.104L646.027 247.163L646.634 247.719L647.241 268.221L647.848 323.602L648.455 205.046L649.062 221.466L649.669 222.858L650.275 227.682L650.882 232.691L651.489 259.5L652.096 318.407L652.703 206.438L653.31 199.944L653.917 217.106L654.524 239.648L655.131 216.364L655.738 231.021L656.345 305.698L656.952 170.63L657.559 159.684L658.166 180.371L658.773 284.547L659.38 184.731L659.987 208.85L660.594 271.282L661.201 249.667L661.808 152.448L662.415 102.168L663.022 124.618L663.629 125.824L664.236 181.948L664.843 289.928L665.45 125.638L666.057 119.794L666.664 181.298L667.271 190.111L667.878 186.771L668.485 233.34L669.092 305.698L669.699 176.382L670.306 194.007L670.913 234.732L671.52 250.966L672.127 250.038L672.734 275.642L673.341 315.532L673.948 231.485L674.555 250.688L675.162 277.497L675.769 284.084L676.376 284.269L676.983 302.173L677.59 334.085L678.197 273.879L678.804 282.136L679.411 302.915L680.018 308.76L680.625 307.368L681.232 325.736L681.839 343.547L682.446 344.846L683.053 286.588L683.66 313.769L684.267 314.697L684.874 347.165L685.481 306.162L686.088 321.84L686.695 321.932L687.302 327.777L687.909 335.94L688.516 333.714L689.123 345.588L689.73 354.586L690.337 322.767L690.944 326.664L691.551 333.157L692.158 337.332L692.765 338.445L693.372 340.857L693.979 355.05L694.586 353.473L695.193 307.554L695.8 314.697" stroke="#4285F4" stroke-width="2" stroke-miterlimit="10"/>
<path d="M379.922 418.8V410.206H382.891C383.557 410.206 384.068 410.248 384.422 410.331C384.911 410.446 385.328 410.649 385.672 410.941C386.13 411.326 386.469 411.821 386.688 412.425C386.917 413.019 387.031 413.696 387.031 414.456C387.031 415.113 386.953 415.691 386.797 416.191C386.651 416.691 386.458 417.107 386.219 417.441C385.979 417.774 385.714 418.034 385.422 418.222C385.141 418.409 384.802 418.555 384.406 418.659C384.01 418.753 383.552 418.8 383.031 418.8H379.922ZM381.062 417.784H382.891C383.464 417.784 383.911 417.732 384.234 417.628C384.557 417.524 384.812 417.373 385 417.175C385.271 416.915 385.479 416.555 385.625 416.097C385.781 415.639 385.859 415.087 385.859 414.441C385.859 413.545 385.708 412.857 385.406 412.378C385.115 411.889 384.76 411.56 384.344 411.394C384.031 411.279 383.542 411.222 382.875 411.222H381.062V417.784ZM392.859 418.034C392.464 418.368 392.083 418.602 391.719 418.738C391.365 418.873 390.979 418.941 390.562 418.941C389.875 418.941 389.349 418.774 388.984 418.441C388.62 418.107 388.438 417.68 388.438 417.159C388.438 416.857 388.505 416.581 388.641 416.331C388.776 416.071 388.958 415.868 389.188 415.722C389.417 415.566 389.672 415.451 389.953 415.378C390.151 415.316 390.464 415.258 390.891 415.206C391.734 415.113 392.359 414.993 392.766 414.847C392.766 414.701 392.766 414.613 392.766 414.581C392.766 414.144 392.667 413.837 392.469 413.659C392.198 413.43 391.797 413.316 391.266 413.316C390.776 413.316 390.411 413.404 390.172 413.581C389.932 413.748 389.755 414.05 389.641 414.488L388.609 414.347C388.703 413.909 388.859 413.555 389.078 413.284C389.297 413.014 389.609 412.805 390.016 412.659C390.422 412.514 390.891 412.441 391.422 412.441C391.953 412.441 392.385 412.503 392.719 412.628C393.052 412.753 393.297 412.909 393.453 413.097C393.609 413.284 393.719 413.524 393.781 413.816C393.812 413.993 393.828 414.316 393.828 414.784V416.191C393.828 417.17 393.849 417.79 393.891 418.05C393.943 418.31 394.036 418.56 394.172 418.8H393.062C392.958 418.581 392.891 418.326 392.859 418.034ZM392.766 415.675C392.38 415.831 391.807 415.967 391.047 416.081C390.609 416.144 390.302 416.217 390.125 416.3C389.948 416.373 389.807 416.482 389.703 416.628C389.609 416.774 389.562 416.941 389.562 417.128C389.562 417.409 389.667 417.644 389.875 417.831C390.094 418.019 390.406 418.113 390.812 418.113C391.219 418.113 391.578 418.024 391.891 417.847C392.214 417.67 392.448 417.425 392.594 417.113C392.708 416.873 392.766 416.524 392.766 416.066V415.675ZM398.094 417.863L398.25 418.784C397.948 418.847 397.682 418.878 397.453 418.878C397.068 418.878 396.771 418.821 396.562 418.706C396.354 418.581 396.203 418.42 396.109 418.222C396.026 418.024 395.984 417.607 395.984 416.972V413.394H395.219V412.581H395.984V411.034L397.031 410.409V412.581H398.094V413.394H397.031V417.034C397.031 417.337 397.047 417.529 397.078 417.613C397.12 417.696 397.182 417.764 397.266 417.816C397.349 417.868 397.469 417.894 397.625 417.894C397.75 417.894 397.906 417.883 398.094 417.863ZM403.047 416.8L404.141 416.925C403.974 417.56 403.656 418.055 403.188 418.409C402.719 418.764 402.125 418.941 401.406 418.941C400.5 418.941 399.776 418.659 399.234 418.097C398.703 417.534 398.438 416.748 398.438 415.738C398.438 414.696 398.708 413.889 399.25 413.316C399.792 412.732 400.49 412.441 401.344 412.441C402.177 412.441 402.854 412.722 403.375 413.284C403.906 413.847 404.172 414.644 404.172 415.675C404.172 415.738 404.172 415.831 404.172 415.956H399.531C399.573 416.644 399.766 417.17 400.109 417.534C400.453 417.889 400.885 418.066 401.406 418.066C401.792 418.066 402.12 417.967 402.391 417.769C402.672 417.56 402.891 417.238 403.047 416.8ZM399.594 415.097H403.062C403.021 414.566 402.891 414.17 402.672 413.909C402.328 413.503 401.891 413.3 401.359 413.3C400.87 413.3 400.458 413.462 400.125 413.784C399.802 414.107 399.625 414.545 399.594 415.097Z" fill="black"/>
<path d="M33.2 260.525H24.6062V259.4H33.2V260.525ZM31.3406 258.275L31.1844 257.244C31.601 257.181 31.9187 257.02 32.1375 256.759C32.3562 256.488 32.4656 256.108 32.4656 255.619C32.4656 255.139 32.3719 254.785 32.1844 254.556C31.9864 254.317 31.7521 254.197 31.4812 254.197C31.2416 254.197 31.0541 254.301 30.9187 254.509C30.825 254.655 30.7052 255.014 30.5594 255.587C30.3614 256.358 30.1948 256.895 30.0594 257.197C29.9135 257.488 29.7156 257.712 29.4656 257.869C29.2156 258.025 28.9344 258.103 28.6219 258.103C28.351 258.103 28.0958 258.041 27.8562 257.916C27.6166 257.791 27.4187 257.619 27.2625 257.4C27.1479 257.233 27.0489 257.009 26.9656 256.728C26.8823 256.447 26.8406 256.139 26.8406 255.806C26.8406 255.327 26.9135 254.905 27.0594 254.541C27.1948 254.166 27.3823 253.889 27.6219 253.712C27.8614 253.535 28.1791 253.416 28.575 253.353L28.7156 254.384C28.4031 254.426 28.1583 254.561 27.9812 254.791C27.7937 255.009 27.7 255.327 27.7 255.744C27.7 256.223 27.7833 256.567 27.95 256.775C28.1062 256.983 28.2937 257.087 28.5125 257.087C28.6479 257.087 28.7677 257.046 28.8719 256.962C28.9864 256.869 29.0802 256.733 29.1531 256.556C29.1948 256.452 29.2833 256.139 29.4187 255.619C29.6271 254.869 29.7937 254.348 29.9187 254.056C30.0437 253.764 30.226 253.535 30.4656 253.369C30.7052 253.202 31.0073 253.119 31.3719 253.119C31.726 253.119 32.0594 253.223 32.3719 253.431C32.6739 253.629 32.9135 253.921 33.0906 254.306C33.2573 254.692 33.3406 255.129 33.3406 255.619C33.3406 256.431 33.1739 257.051 32.8406 257.478C32.4969 257.895 31.9969 258.16 31.3406 258.275ZM33.2 250.853H24.6062V249.806H27.6844C27.1219 249.317 26.8406 248.697 26.8406 247.947C26.8406 247.478 26.9344 247.077 27.1219 246.744C27.2989 246.4 27.5489 246.155 27.8719 246.009C28.1844 245.863 28.6479 245.791 29.2625 245.791H33.2V246.837H29.2625C28.7312 246.837 28.3458 246.952 28.1062 247.181C27.8666 247.41 27.7469 247.733 27.7469 248.15C27.7469 248.462 27.8302 248.759 27.9969 249.041C28.1531 249.311 28.3719 249.509 28.6531 249.634C28.9239 249.749 29.3041 249.806 29.7937 249.806H33.2V250.853ZM25.825 243.853H24.6062V242.791H25.825V243.853ZM33.2 243.853H26.9812V242.791H33.2V243.853ZM33.2 240.853H24.6062V239.791H29.5125L26.9812 237.306V235.931L29.2781 238.322L33.2 235.697V236.994L30.0125 239.056L30.7312 239.791H33.2V240.853ZM32.4344 230.791C32.7677 231.186 33.0021 231.567 33.1375 231.931C33.2729 232.285 33.3406 232.671 33.3406 233.087C33.3406 233.775 33.1739 234.301 32.8406 234.666C32.5073 235.03 32.0802 235.212 31.5594 235.212C31.2573 235.212 30.9812 235.145 30.7312 235.009C30.4708 234.874 30.2677 234.692 30.1219 234.462C29.9656 234.233 29.851 233.978 29.7781 233.697C29.7156 233.499 29.6583 233.186 29.6062 232.759C29.5125 231.916 29.3927 231.291 29.2469 230.884C29.101 230.884 29.0125 230.884 28.9812 230.884C28.5437 230.884 28.2364 230.983 28.0594 231.181C27.8302 231.452 27.7156 231.853 27.7156 232.384C27.7156 232.874 27.8041 233.238 27.9812 233.478C28.1479 233.718 28.45 233.895 28.8875 234.009L28.7469 235.041C28.3094 234.947 27.9552 234.791 27.6844 234.572C27.4135 234.353 27.2052 234.041 27.0594 233.634C26.9135 233.228 26.8406 232.759 26.8406 232.228C26.8406 231.697 26.9031 231.264 27.0281 230.931C27.1531 230.598 27.3094 230.353 27.4969 230.197C27.6844 230.041 27.9239 229.931 28.2156 229.869C28.3927 229.837 28.7156 229.822 29.1844 229.822H30.5906C31.5698 229.822 32.1896 229.801 32.45 229.759C32.7104 229.707 32.9604 229.613 33.2 229.478V230.587C32.9812 230.692 32.726 230.759 32.4344 230.791ZM30.075 230.884C30.2312 231.27 30.3666 231.843 30.4812 232.603C30.5437 233.041 30.6166 233.348 30.7 233.525C30.7729 233.702 30.8823 233.843 31.0281 233.947C31.1739 234.041 31.3406 234.087 31.5281 234.087C31.8094 234.087 32.0437 233.983 32.2312 233.775C32.4187 233.556 32.5125 233.244 32.5125 232.837C32.5125 232.431 32.4239 232.072 32.2469 231.759C32.0698 231.436 31.825 231.202 31.5125 231.056C31.2729 230.942 30.9239 230.884 30.4656 230.884H30.075ZM33.2 226.712L26.9812 228.619V227.525L30.575 226.541L31.9031 226.166C31.8406 226.145 31.4135 226.035 30.6219 225.837L26.9812 224.853V223.775L30.5906 222.837L31.7781 222.525L30.575 222.166L26.9812 221.103V220.072L33.2 222.025V223.119L29.4656 224.103L28.4187 224.353L33.2 225.603V226.712ZM32.4344 214.791C32.7677 215.186 33.0021 215.567 33.1375 215.931C33.2729 216.285 33.3406 216.671 33.3406 217.087C33.3406 217.775 33.1739 218.301 32.8406 218.666C32.5073 219.03 32.0802 219.212 31.5594 219.212C31.2573 219.212 30.9812 219.145 30.7312 219.009C30.4708 218.874 30.2677 218.692 30.1219 218.462C29.9656 218.233 29.851 217.978 29.7781 217.697C29.7156 217.499 29.6583 217.186 29.6062 216.759C29.5125 215.916 29.3927 215.291 29.2469 214.884C29.101 214.884 29.0125 214.884 28.9812 214.884C28.5437 214.884 28.2364 214.983 28.0594 215.181C27.8302 215.452 27.7156 215.853 27.7156 216.384C27.7156 216.874 27.8041 217.238 27.9812 217.478C28.1479 217.718 28.45 217.895 28.8875 218.009L28.7469 219.041C28.3094 218.947 27.9552 218.791 27.6844 218.572C27.4135 218.353 27.2052 218.041 27.0594 217.634C26.9135 217.228 26.8406 216.759 26.8406 216.228C26.8406 215.697 26.9031 215.264 27.0281 214.931C27.1531 214.598 27.3094 214.353 27.4969 214.197C27.6844 214.041 27.9239 213.931 28.2156 213.869C28.3927 213.837 28.7156 213.822 29.1844 213.822H30.5906C31.5698 213.822 32.1896 213.801 32.45 213.759C32.7104 213.707 32.9604 213.613 33.2 213.478V214.587C32.9812 214.692 32.726 214.759 32.4344 214.791ZM30.075 214.884C30.2312 215.27 30.3666 215.843 30.4812 216.603C30.5437 217.041 30.6166 217.348 30.7 217.525C30.7729 217.702 30.8823 217.843 31.0281 217.947C31.1739 218.041 31.3406 218.087 31.5281 218.087C31.8094 218.087 32.0437 217.983 32.2312 217.775C32.4187 217.556 32.5125 217.244 32.5125 216.837C32.5125 216.431 32.4239 216.072 32.2469 215.759C32.0698 215.436 31.825 215.202 31.5125 215.056C31.2729 214.942 30.9239 214.884 30.4656 214.884H30.075Z" fill="black"/>
<path d="M75.7 369.566C75.7 368.545 75.8042 367.727 76.0125 367.113C76.2208 366.488 76.5281 366.008 76.9344 365.675C77.351 365.342 77.8719 365.175 78.4969 365.175C78.9552 365.175 79.3562 365.269 79.7 365.456C80.0542 365.644 80.3458 365.915 80.575 366.269C80.8042 366.613 80.9812 367.034 81.1062 367.534C81.2312 368.034 81.2937 368.712 81.2937 369.566C81.2937 370.576 81.1896 371.389 80.9812 372.003C80.7833 372.618 80.476 373.097 80.0594 373.441C79.6531 373.774 79.1323 373.941 78.4969 373.941C77.674 373.941 77.0229 373.644 76.5437 373.05C75.9812 372.342 75.7 371.18 75.7 369.566ZM76.7781 369.566C76.7781 370.972 76.9448 371.909 77.2781 372.378C77.6115 372.847 78.0177 373.081 78.4969 373.081C78.9865 373.081 79.3927 372.847 79.7156 372.378C80.049 371.909 80.2156 370.972 80.2156 369.566C80.2156 368.149 80.049 367.212 79.7156 366.753C79.3927 366.284 78.9812 366.05 78.4812 366.05C78.0021 366.05 77.6167 366.253 77.325 366.659C76.9604 367.18 76.7781 368.149 76.7781 369.566Z" fill="black"/>
<path d="M58.6687 281.033H57.6219V274.314C57.3615 274.554 57.0229 274.799 56.6062 275.049C56.2 275.288 55.8354 275.465 55.5125 275.58V274.564C56.0958 274.283 56.6062 273.95 57.0437 273.564C57.4917 273.169 57.8094 272.783 57.9969 272.408H58.6687V281.033ZM61.7 276.799C61.7 275.778 61.8042 274.96 62.0125 274.346C62.2208 273.721 62.5281 273.242 62.9344 272.908C63.351 272.575 63.8719 272.408 64.4969 272.408C64.9552 272.408 65.3562 272.502 65.7 272.689C66.0542 272.877 66.3458 273.148 66.575 273.502C66.8042 273.846 66.9812 274.268 67.1062 274.768C67.2312 275.268 67.2937 275.945 67.2937 276.799C67.2937 277.809 67.1896 278.622 66.9812 279.236C66.7833 279.851 66.476 280.33 66.0594 280.674C65.6531 281.007 65.1323 281.174 64.4969 281.174C63.674 281.174 63.0229 280.877 62.5437 280.283C61.9812 279.575 61.7 278.413 61.7 276.799ZM62.7781 276.799C62.7781 278.205 62.9448 279.143 63.2781 279.611C63.6115 280.08 64.0177 280.314 64.4969 280.314C64.9865 280.314 65.3927 280.08 65.7156 279.611C66.049 279.143 66.2156 278.205 66.2156 276.799C66.2156 275.382 66.049 274.445 65.7156 273.986C65.3927 273.518 64.9812 273.283 64.4812 273.283C64.0021 273.283 63.6167 273.486 63.325 273.893C62.9604 274.413 62.7781 275.382 62.7781 276.799ZM68.7 276.799C68.7 275.778 68.8042 274.96 69.0125 274.346C69.2208 273.721 69.5281 273.242 69.9344 272.908C70.351 272.575 70.8719 272.408 71.4969 272.408C71.9552 272.408 72.3562 272.502 72.7 272.689C73.0542 272.877 73.3458 273.148 73.575 273.502C73.8042 273.846 73.9812 274.268 74.1062 274.768C74.2312 275.268 74.2937 275.945 74.2937 276.799C74.2937 277.809 74.1896 278.622 73.9812 279.236C73.7833 279.851 73.476 280.33 73.0594 280.674C72.6531 281.007 72.1323 281.174 71.4969 281.174C70.674 281.174 70.0229 280.877 69.5437 280.283C68.9812 279.575 68.7 278.413 68.7 276.799ZM69.7781 276.799C69.7781 278.205 69.9448 279.143 70.2781 279.611C70.6115 280.08 71.0177 280.314 71.4969 280.314C71.9865 280.314 72.3927 280.08 72.7156 279.611C73.049 279.143 73.2156 278.205 73.2156 276.799C73.2156 275.382 73.049 274.445 72.7156 273.986C72.3927 273.518 71.9812 273.283 71.4812 273.283C71.0021 273.283 70.6167 273.486 70.325 273.893C69.9604 274.413 69.7781 275.382 69.7781 276.799ZM75.7 276.799C75.7 275.778 75.8042 274.96 76.0125 274.346C76.2208 273.721 76.5281 273.242 76.9344 272.908C77.351 272.575 77.8719 272.408 78.4969 272.408C78.9552 272.408 79.3562 272.502 79.7 272.689C80.0542 272.877 80.3458 273.148 80.575 273.502C80.8042 273.846 80.9812 274.268 81.1062 274.768C81.2312 275.268 81.2937 275.945 81.2937 276.799C81.2937 277.809 81.1896 278.622 80.9812 279.236C80.7833 279.851 80.476 280.33 80.0594 280.674C79.6531 281.007 79.1323 281.174 78.4969 281.174C77.674 281.174 77.0229 280.877 76.5437 280.283C75.9812 279.575 75.7 278.413 75.7 276.799ZM76.7781 276.799C76.7781 278.205 76.9448 279.143 77.2781 279.611C77.6115 280.08 78.0177 280.314 78.4969 280.314C78.9865 280.314 79.3927 280.08 79.7156 279.611C80.049 279.143 80.2156 278.205 80.2156 276.799C80.2156 275.382 80.049 274.445 79.7156 273.986C79.3927 273.518 78.9812 273.283 78.4812 273.283C78.0021 273.283 77.6167 273.486 77.325 273.893C76.9604 274.413 76.7781 275.382 76.7781 276.799Z" fill="black"/>
<path d="M60.2469 187.251V188.267H54.5594C54.5594 188.017 54.601 187.772 54.6844 187.532C54.8302 187.147 55.0594 186.767 55.3719 186.392C55.6948 186.017 56.1583 185.584 56.7625 185.095C57.7 184.324 58.3302 183.715 58.6531 183.267C58.9865 182.819 59.1531 182.397 59.1531 182.001C59.1531 181.584 59.0021 181.235 58.7 180.954C58.3979 180.662 58.0073 180.517 57.5281 180.517C57.0177 180.517 56.6115 180.668 56.3094 180.97C56.0073 181.272 55.851 181.694 55.8406 182.235L54.7625 182.126C54.8354 181.313 55.1115 180.699 55.5906 180.282C56.0802 179.855 56.7365 179.642 57.5594 179.642C58.3823 179.642 59.0333 179.871 59.5125 180.329C59.9917 180.787 60.2312 181.355 60.2312 182.032C60.2312 182.376 60.1583 182.715 60.0125 183.048C59.8771 183.371 59.6427 183.72 59.3094 184.095C58.9865 184.459 58.45 184.959 57.7 185.595C57.0646 186.126 56.6531 186.491 56.4656 186.688C56.2885 186.876 56.1427 187.063 56.0281 187.251H60.2469ZM61.7 184.032C61.7 183.011 61.8042 182.194 62.0125 181.579C62.2208 180.954 62.5281 180.475 62.9344 180.142C63.351 179.808 63.8719 179.642 64.4969 179.642C64.9552 179.642 65.3562 179.735 65.7 179.923C66.0542 180.11 66.3458 180.381 66.575 180.735C66.8042 181.079 66.9812 181.501 67.1062 182.001C67.2312 182.501 67.2937 183.178 67.2937 184.032C67.2937 185.043 67.1896 185.855 66.9812 186.47C66.7833 187.084 66.476 187.563 66.0594 187.907C65.6531 188.241 65.1323 188.407 64.4969 188.407C63.674 188.407 63.0229 188.11 62.5437 187.517C61.9812 186.808 61.7 185.647 61.7 184.032ZM62.7781 184.032C62.7781 185.438 62.9448 186.376 63.2781 186.845C63.6115 187.313 64.0177 187.548 64.4969 187.548C64.9865 187.548 65.3927 187.313 65.7156 186.845C66.049 186.376 66.2156 185.438 66.2156 184.032C66.2156 182.616 66.049 181.678 65.7156 181.22C65.3927 180.751 64.9812 180.517 64.4812 180.517C64.0021 180.517 63.6167 180.72 63.325 181.126C62.9604 181.647 62.7781 182.616 62.7781 184.032ZM68.7 184.032C68.7 183.011 68.8042 182.194 69.0125 181.579C69.2208 180.954 69.5281 180.475 69.9344 180.142C70.351 179.808 70.8719 179.642 71.4969 179.642C71.9552 179.642 72.3562 179.735 72.7 179.923C73.0542 180.11 73.3458 180.381 73.575 180.735C73.8042 181.079 73.9812 181.501 74.1062 182.001C74.2312 182.501 74.2937 183.178 74.2937 184.032C74.2937 185.043 74.1896 185.855 73.9812 186.47C73.7833 187.084 73.476 187.563 73.0594 187.907C72.6531 188.241 72.1323 188.407 71.4969 188.407C70.674 188.407 70.0229 188.11 69.5437 187.517C68.9812 186.808 68.7 185.647 68.7 184.032ZM69.7781 184.032C69.7781 185.438 69.9448 186.376 70.2781 186.845C70.6115 187.313 71.0177 187.548 71.4969 187.548C71.9865 187.548 72.3927 187.313 72.7156 186.845C73.049 186.376 73.2156 185.438 73.2156 184.032C73.2156 182.616 73.049 181.678 72.7156 181.22C72.3927 180.751 71.9812 180.517 71.4812 180.517C71.0021 180.517 70.6167 180.72 70.325 181.126C69.9604 181.647 69.7781 182.616 69.7781 184.032ZM75.7 184.032C75.7 183.011 75.8042 182.194 76.0125 181.579C76.2208 180.954 76.5281 180.475 76.9344 180.142C77.351 179.808 77.8719 179.642 78.4969 179.642C78.9552 179.642 79.3562 179.735 79.7 179.923C80.0542 180.11 80.3458 180.381 80.575 180.735C80.8042 181.079 80.9812 181.501 81.1062 182.001C81.2312 182.501 81.2937 183.178 81.2937 184.032C81.2937 185.043 81.1896 185.855 80.9812 186.47C80.7833 187.084 80.476 187.563 80.0594 187.907C79.6531 188.241 79.1323 188.407 78.4969 188.407C77.674 188.407 77.0229 188.11 76.5437 187.517C75.9812 186.808 75.7 185.647 75.7 184.032ZM76.7781 184.032C76.7781 185.438 76.9448 186.376 77.2781 186.845C77.6115 187.313 78.0177 187.548 78.4969 187.548C78.9865 187.548 79.3927 187.313 79.7156 186.845C80.049 186.376 80.2156 185.438 80.2156 184.032C80.2156 182.616 80.049 181.678 79.7156 181.22C79.3927 180.751 78.9812 180.517 78.4812 180.517C78.0021 180.517 77.6167 180.72 77.325 181.126C76.9604 181.647 76.7781 182.616 76.7781 184.032Z" fill="black"/>
<path d="M54.7 93.2344L55.7625 93.0938C55.8771 93.6875 56.0802 94.1198 56.3719 94.3906C56.6635 94.651 57.0177 94.7812 57.4344 94.7812C57.9344 94.7812 58.3562 94.6094 58.7 94.2656C59.0437 93.9219 59.2156 93.4948 59.2156 92.9844C59.2156 92.5052 59.0542 92.1094 58.7312 91.7969C58.4187 91.474 58.0177 91.3125 57.5281 91.3125C57.3302 91.3125 57.0802 91.3542 56.7781 91.4375L56.9031 90.5C56.976 90.5104 57.0333 90.5156 57.075 90.5156C57.5229 90.5156 57.924 90.401 58.2781 90.1719C58.6427 89.9323 58.825 89.5677 58.825 89.0781C58.825 88.6927 58.6948 88.375 58.4344 88.125C58.174 87.8646 57.8354 87.7344 57.4187 87.7344C57.0125 87.7344 56.6687 87.8646 56.3875 88.125C56.1167 88.3854 55.9448 88.7708 55.8719 89.2812L54.8094 89.0938C54.9344 88.3958 55.226 87.8542 55.6844 87.4688C56.1427 87.0729 56.7104 86.875 57.3875 86.875C57.8562 86.875 58.2885 86.9792 58.6844 87.1875C59.0802 87.3854 59.3823 87.6562 59.5906 88C59.799 88.3438 59.9031 88.7135 59.9031 89.1094C59.9031 89.474 59.8042 89.8125 59.6062 90.125C59.4083 90.4271 59.1167 90.6667 58.7312 90.8438C59.2312 90.9583 59.6219 91.2031 59.9031 91.5781C60.1844 91.9427 60.325 92.4062 60.325 92.9688C60.325 93.7188 60.049 94.3542 59.4969 94.875C58.9552 95.3958 58.2677 95.6562 57.4344 95.6562C56.6844 95.6562 56.0594 95.4323 55.5594 94.9844C55.0594 94.526 54.7729 93.9427 54.7 93.2344ZM61.7 91.2656C61.7 90.2448 61.8042 89.4271 62.0125 88.8125C62.2208 88.1875 62.5281 87.7083 62.9344 87.375C63.351 87.0417 63.8719 86.875 64.4969 86.875C64.9552 86.875 65.3562 86.9688 65.7 87.1562C66.0542 87.3438 66.3458 87.6146 66.575 87.9688C66.8042 88.3125 66.9812 88.7344 67.1062 89.2344C67.2312 89.7344 67.2937 90.4115 67.2937 91.2656C67.2937 92.276 67.1896 93.0885 66.9812 93.7031C66.7833 94.3177 66.476 94.7969 66.0594 95.1406C65.6531 95.474 65.1323 95.6406 64.4969 95.6406C63.674 95.6406 63.0229 95.3438 62.5437 94.75C61.9812 94.0417 61.7 92.8802 61.7 91.2656ZM62.7781 91.2656C62.7781 92.6719 62.9448 93.6094 63.2781 94.0781C63.6115 94.5469 64.0177 94.7812 64.4969 94.7812C64.9865 94.7812 65.3927 94.5469 65.7156 94.0781C66.049 93.6094 66.2156 92.6719 66.2156 91.2656C66.2156 89.849 66.049 88.9115 65.7156 88.4531C65.3927 87.9844 64.9812 87.75 64.4812 87.75C64.0021 87.75 63.6167 87.9531 63.325 88.3594C62.9604 88.8802 62.7781 89.849 62.7781 91.2656ZM68.7 91.2656C68.7 90.2448 68.8042 89.4271 69.0125 88.8125C69.2208 88.1875 69.5281 87.7083 69.9344 87.375C70.351 87.0417 70.8719 86.875 71.4969 86.875C71.9552 86.875 72.3562 86.9688 72.7 87.1562C73.0542 87.3438 73.3458 87.6146 73.575 87.9688C73.8042 88.3125 73.9812 88.7344 74.1062 89.2344C74.2312 89.7344 74.2937 90.4115 74.2937 91.2656C74.2937 92.276 74.1896 93.0885 73.9812 93.7031C73.7833 94.3177 73.476 94.7969 73.0594 95.1406C72.6531 95.474 72.1323 95.6406 71.4969 95.6406C70.674 95.6406 70.0229 95.3438 69.5437 94.75C68.9812 94.0417 68.7 92.8802 68.7 91.2656ZM69.7781 91.2656C69.7781 92.6719 69.9448 93.6094 70.2781 94.0781C70.6115 94.5469 71.0177 94.7812 71.4969 94.7812C71.9865 94.7812 72.3927 94.5469 72.7156 94.0781C73.049 93.6094 73.2156 92.6719 73.2156 91.2656C73.2156 89.849 73.049 88.9115 72.7156 88.4531C72.3927 87.9844 71.9812 87.75 71.4812 87.75C71.0021 87.75 70.6167 87.9531 70.325 88.3594C69.9604 88.8802 69.7781 89.849 69.7781 91.2656ZM75.7 91.2656C75.7 90.2448 75.8042 89.4271 76.0125 88.8125C76.2208 88.1875 76.5281 87.7083 76.9344 87.375C77.351 87.0417 77.8719 86.875 78.4969 86.875C78.9552 86.875 79.3562 86.9688 79.7 87.1562C80.0542 87.3438 80.3458 87.6146 80.575 87.9688C80.8042 88.3125 80.9812 88.7344 81.1062 89.2344C81.2312 89.7344 81.2937 90.4115 81.2937 91.2656C81.2937 92.276 81.1896 93.0885 80.9812 93.7031C80.7833 94.3177 80.476 94.7969 80.0594 95.1406C79.6531 95.474 79.1323 95.6406 78.4969 95.6406C77.674 95.6406 77.0229 95.3438 76.5437 94.75C75.9812 94.0417 75.7 92.8802 75.7 91.2656ZM76.7781 91.2656C76.7781 92.6719 76.9448 93.6094 77.2781 94.0781C77.6115 94.5469 78.0177 94.7812 78.4969 94.7812C78.9865 94.7812 79.3927 94.5469 79.7156 94.0781C80.049 93.6094 80.2156 92.6719 80.2156 91.2656C80.2156 89.849 80.049 88.9115 79.7156 88.4531C79.3927 87.9844 78.9812 87.75 78.4812 87.75C78.0021 87.75 77.6167 87.9531 77.325 88.3594C76.9604 88.8802 76.7781 89.849 76.7781 91.2656Z" fill="black"/>
<path d="M168.052 386.8V384.738H164.333V383.769L168.255 378.206H169.114V383.769H170.271V384.738H169.114V386.8H168.052ZM168.052 383.769V379.909L165.364 383.769H168.052ZM175.052 386.8V384.738H171.333V383.769L175.255 378.206H176.114V383.769H177.271V384.738H176.114V386.8H175.052ZM175.052 383.769V379.909L172.364 383.769H175.052ZM178.677 382.566C178.677 381.545 178.781 380.727 178.989 380.113C179.198 379.488 179.505 379.008 179.911 378.675C180.328 378.342 180.849 378.175 181.474 378.175C181.932 378.175 182.333 378.269 182.677 378.456C183.031 378.644 183.323 378.915 183.552 379.269C183.781 379.613 183.958 380.034 184.083 380.534C184.208 381.034 184.271 381.712 184.271 382.566C184.271 383.576 184.167 384.389 183.958 385.003C183.76 385.618 183.453 386.097 183.036 386.441C182.63 386.774 182.109 386.941 181.474 386.941C180.651 386.941 180 386.644 179.521 386.05C178.958 385.342 178.677 384.18 178.677 382.566ZM179.755 382.566C179.755 383.972 179.922 384.909 180.255 385.378C180.588 385.847 180.995 386.081 181.474 386.081C181.963 386.081 182.37 385.847 182.693 385.378C183.026 384.909 183.193 383.972 183.193 382.566C183.193 381.149 183.026 380.212 182.693 379.753C182.37 379.284 181.958 379.05 181.458 379.05C180.979 379.05 180.594 379.253 180.302 379.659C179.937 380.18 179.755 381.149 179.755 382.566ZM185.677 382.566C185.677 381.545 185.781 380.727 185.989 380.113C186.198 379.488 186.505 379.008 186.911 378.675C187.328 378.342 187.849 378.175 188.474 378.175C188.932 378.175 189.333 378.269 189.677 378.456C190.031 378.644 190.323 378.915 190.552 379.269C190.781 379.613 190.958 380.034 191.083 380.534C191.208 381.034 191.271 381.712 191.271 382.566C191.271 383.576 191.167 384.389 190.958 385.003C190.76 385.618 190.453 386.097 190.036 386.441C189.63 386.774 189.109 386.941 188.474 386.941C187.651 386.941 187 386.644 186.521 386.05C185.958 385.342 185.677 384.18 185.677 382.566ZM186.755 382.566C186.755 383.972 186.922 384.909 187.255 385.378C187.588 385.847 187.995 386.081 188.474 386.081C188.963 386.081 189.37 385.847 189.693 385.378C190.026 384.909 190.193 383.972 190.193 382.566C190.193 381.149 190.026 380.212 189.693 379.753C189.37 379.284 188.958 379.05 188.458 379.05C187.979 379.05 187.594 379.253 187.302 379.659C186.937 380.18 186.755 381.149 186.755 382.566ZM192.677 382.566C192.677 381.545 192.781 380.727 192.989 380.113C193.198 379.488 193.505 379.008 193.911 378.675C194.328 378.342 194.849 378.175 195.474 378.175C195.932 378.175 196.333 378.269 196.677 378.456C197.031 378.644 197.323 378.915 197.552 379.269C197.781 379.613 197.958 380.034 198.083 380.534C198.208 381.034 198.271 381.712 198.271 382.566C198.271 383.576 198.167 384.389 197.958 385.003C197.76 385.618 197.453 386.097 197.036 386.441C196.63 386.774 196.109 386.941 195.474 386.941C194.651 386.941 194 386.644 193.521 386.05C192.958 385.342 192.677 384.18 192.677 382.566ZM193.755 382.566C193.755 383.972 193.922 384.909 194.255 385.378C194.588 385.847 194.995 386.081 195.474 386.081C195.963 386.081 196.37 385.847 196.693 385.378C197.026 384.909 197.193 383.972 197.193 382.566C197.193 381.149 197.026 380.212 196.693 379.753C196.37 379.284 195.958 379.05 195.458 379.05C194.979 379.05 194.594 379.253 194.302 379.659C193.937 380.18 193.755 381.149 193.755 382.566Z" fill="black"/>
<path d="M289.451 386.8V384.738H285.732V383.769L289.654 378.206H290.513V383.769H291.669V384.738H290.513V386.8H289.451ZM289.451 383.769V379.909L286.763 383.769H289.451ZM296.451 386.8V384.738H292.732V383.769L296.654 378.206H297.513V383.769H298.669V384.738H297.513V386.8H296.451ZM296.451 383.769V379.909L293.763 383.769H296.451ZM305.622 385.784V386.8H299.935C299.935 386.55 299.977 386.305 300.06 386.066C300.206 385.68 300.435 385.3 300.747 384.925C301.07 384.55 301.534 384.118 302.138 383.628C303.076 382.857 303.706 382.248 304.029 381.8C304.362 381.352 304.529 380.93 304.529 380.534C304.529 380.118 304.378 379.769 304.076 379.488C303.773 379.196 303.383 379.05 302.904 379.05C302.393 379.05 301.987 379.201 301.685 379.503C301.383 379.805 301.227 380.227 301.216 380.769L300.138 380.659C300.211 379.847 300.487 379.232 300.966 378.816C301.456 378.389 302.112 378.175 302.935 378.175C303.758 378.175 304.409 378.404 304.888 378.863C305.367 379.321 305.607 379.889 305.607 380.566C305.607 380.909 305.534 381.248 305.388 381.581C305.253 381.904 305.018 382.253 304.685 382.628C304.362 382.993 303.826 383.493 303.076 384.128C302.44 384.659 302.029 385.024 301.841 385.222C301.664 385.409 301.518 385.597 301.404 385.784H305.622ZM307.076 382.566C307.076 381.545 307.18 380.727 307.388 380.113C307.596 379.488 307.904 379.008 308.31 378.675C308.727 378.342 309.247 378.175 309.872 378.175C310.331 378.175 310.732 378.269 311.076 378.456C311.43 378.644 311.721 378.915 311.951 379.269C312.18 379.613 312.357 380.034 312.482 380.534C312.607 381.034 312.669 381.712 312.669 382.566C312.669 383.576 312.565 384.389 312.357 385.003C312.159 385.618 311.852 386.097 311.435 386.441C311.029 386.774 310.508 386.941 309.872 386.941C309.049 386.941 308.398 386.644 307.919 386.05C307.357 385.342 307.076 384.18 307.076 382.566ZM308.154 382.566C308.154 383.972 308.32 384.909 308.654 385.378C308.987 385.847 309.393 386.081 309.872 386.081C310.362 386.081 310.768 385.847 311.091 385.378C311.424 384.909 311.591 383.972 311.591 382.566C311.591 381.149 311.424 380.212 311.091 379.753C310.768 379.284 310.357 379.05 309.857 379.05C309.378 379.05 308.992 379.253 308.701 379.659C308.336 380.18 308.154 381.149 308.154 382.566ZM314.076 382.566C314.076 381.545 314.18 380.727 314.388 380.113C314.596 379.488 314.904 379.008 315.31 378.675C315.727 378.342 316.247 378.175 316.872 378.175C317.331 378.175 317.732 378.269 318.076 378.456C318.43 378.644 318.721 378.915 318.951 379.269C319.18 379.613 319.357 380.034 319.482 380.534C319.607 381.034 319.669 381.712 319.669 382.566C319.669 383.576 319.565 384.389 319.357 385.003C319.159 385.618 318.852 386.097 318.435 386.441C318.029 386.774 317.508 386.941 316.872 386.941C316.049 386.941 315.398 386.644 314.919 386.05C314.357 385.342 314.076 384.18 314.076 382.566ZM315.154 382.566C315.154 383.972 315.32 384.909 315.654 385.378C315.987 385.847 316.393 386.081 316.872 386.081C317.362 386.081 317.768 385.847 318.091 385.378C318.424 384.909 318.591 383.972 318.591 382.566C318.591 381.149 318.424 380.212 318.091 379.753C317.768 379.284 317.357 379.05 316.857 379.05C316.378 379.05 315.992 379.253 315.701 379.659C315.336 380.18 315.154 381.149 315.154 382.566Z" fill="black"/>
<path d="M410.849 386.8V384.738H407.13V383.769L411.052 378.206H411.912V383.769H413.068V384.738H411.912V386.8H410.849ZM410.849 383.769V379.909L408.162 383.769H410.849ZM417.849 386.8V384.738H414.13V383.769L418.052 378.206H418.912V383.769H420.068V384.738H418.912V386.8H417.849ZM417.849 383.769V379.909L415.162 383.769H417.849ZM424.849 386.8V384.738H421.13V383.769L425.052 378.206H425.912V383.769H427.068V384.738H425.912V386.8H424.849ZM424.849 383.769V379.909L422.162 383.769H424.849ZM428.474 382.566C428.474 381.545 428.578 380.727 428.787 380.113C428.995 379.488 429.302 379.008 429.708 378.675C430.125 378.342 430.646 378.175 431.271 378.175C431.729 378.175 432.13 378.269 432.474 378.456C432.828 378.644 433.12 378.915 433.349 379.269C433.578 379.613 433.755 380.034 433.88 380.534C434.005 381.034 434.068 381.712 434.068 382.566C434.068 383.576 433.964 384.389 433.755 385.003C433.557 385.618 433.25 386.097 432.833 386.441C432.427 386.774 431.906 386.941 431.271 386.941C430.448 386.941 429.797 386.644 429.318 386.05C428.755 385.342 428.474 384.18 428.474 382.566ZM429.552 382.566C429.552 383.972 429.719 384.909 430.052 385.378C430.386 385.847 430.792 386.081 431.271 386.081C431.761 386.081 432.167 385.847 432.49 385.378C432.823 384.909 432.99 383.972 432.99 382.566C432.99 381.149 432.823 380.212 432.49 379.753C432.167 379.284 431.755 379.05 431.255 379.05C430.776 379.05 430.391 379.253 430.099 379.659C429.735 380.18 429.552 381.149 429.552 382.566ZM435.474 382.566C435.474 381.545 435.578 380.727 435.787 380.113C435.995 379.488 436.302 379.008 436.708 378.675C437.125 378.342 437.646 378.175 438.271 378.175C438.729 378.175 439.13 378.269 439.474 378.456C439.828 378.644 440.12 378.915 440.349 379.269C440.578 379.613 440.755 380.034 440.88 380.534C441.005 381.034 441.068 381.712 441.068 382.566C441.068 383.576 440.964 384.389 440.755 385.003C440.557 385.618 440.25 386.097 439.833 386.441C439.427 386.774 438.906 386.941 438.271 386.941C437.448 386.941 436.797 386.644 436.318 386.05C435.755 385.342 435.474 384.18 435.474 382.566ZM436.552 382.566C436.552 383.972 436.719 384.909 437.052 385.378C437.386 385.847 437.792 386.081 438.271 386.081C438.761 386.081 439.167 385.847 439.49 385.378C439.823 384.909 439.99 383.972 439.99 382.566C439.99 381.149 439.823 380.212 439.49 379.753C439.167 379.284 438.755 379.05 438.255 379.05C437.776 379.05 437.391 379.253 437.099 379.659C436.735 380.18 436.552 381.149 436.552 382.566Z" fill="black"/>
<path d="M532.248 386.8V384.738H528.529V383.769L532.451 378.206H533.31V383.769H534.466V384.738H533.31V386.8H532.248ZM532.248 383.769V379.909L529.56 383.769H532.248ZM539.248 386.8V384.738H535.529V383.769L539.451 378.206H540.31V383.769H541.466V384.738H540.31V386.8H539.248ZM539.248 383.769V379.909L536.56 383.769H539.248ZM548.341 380.316L547.295 380.394C547.201 379.977 547.071 379.675 546.904 379.488C546.612 379.185 546.258 379.034 545.841 379.034C545.508 379.034 545.211 379.128 544.951 379.316C544.628 379.566 544.368 379.925 544.17 380.394C543.982 380.852 543.883 381.508 543.873 382.363C544.123 381.977 544.43 381.691 544.795 381.503C545.17 381.316 545.56 381.222 545.966 381.222C546.664 381.222 547.258 381.482 547.748 382.003C548.248 382.524 548.498 383.191 548.498 384.003C548.498 384.545 548.378 385.05 548.138 385.519C547.909 385.977 547.591 386.331 547.185 386.581C546.779 386.821 546.321 386.941 545.81 386.941C544.925 386.941 544.206 386.618 543.654 385.972C543.102 385.326 542.826 384.264 542.826 382.784C542.826 381.118 543.133 379.909 543.748 379.159C544.279 378.503 544.998 378.175 545.904 378.175C546.581 378.175 547.133 378.368 547.56 378.753C547.998 379.128 548.258 379.649 548.341 380.316ZM544.045 384.019C544.045 384.383 544.118 384.732 544.263 385.066C544.42 385.389 544.633 385.639 544.904 385.816C545.185 385.993 545.482 386.081 545.795 386.081C546.232 386.081 546.612 385.904 546.935 385.55C547.258 385.185 547.42 384.696 547.42 384.081C547.42 383.488 547.258 383.019 546.935 382.675C546.623 382.331 546.227 382.159 545.748 382.159C545.269 382.159 544.862 382.331 544.529 382.675C544.206 383.019 544.045 383.467 544.045 384.019ZM549.873 382.566C549.873 381.545 549.977 380.727 550.185 380.113C550.394 379.488 550.701 379.008 551.107 378.675C551.524 378.342 552.045 378.175 552.67 378.175C553.128 378.175 553.529 378.269 553.873 378.456C554.227 378.644 554.519 378.915 554.748 379.269C554.977 379.613 555.154 380.034 555.279 380.534C555.404 381.034 555.466 381.712 555.466 382.566C555.466 383.576 555.362 384.389 555.154 385.003C554.956 385.618 554.649 386.097 554.232 386.441C553.826 386.774 553.305 386.941 552.67 386.941C551.847 386.941 551.196 386.644 550.716 386.05C550.154 385.342 549.873 384.18 549.873 382.566ZM550.951 382.566C550.951 383.972 551.118 384.909 551.451 385.378C551.784 385.847 552.19 386.081 552.67 386.081C553.159 386.081 553.565 385.847 553.888 385.378C554.222 384.909 554.388 383.972 554.388 382.566C554.388 381.149 554.222 380.212 553.888 379.753C553.565 379.284 553.154 379.05 552.654 379.05C552.175 379.05 551.789 379.253 551.498 379.659C551.133 380.18 550.951 381.149 550.951 382.566ZM556.873 382.566C556.873 381.545 556.977 380.727 557.185 380.113C557.394 379.488 557.701 379.008 558.107 378.675C558.524 378.342 559.045 378.175 559.67 378.175C560.128 378.175 560.529 378.269 560.873 378.456C561.227 378.644 561.519 378.915 561.748 379.269C561.977 379.613 562.154 380.034 562.279 380.534C562.404 381.034 562.466 381.712 562.466 382.566C562.466 383.576 562.362 384.389 562.154 385.003C561.956 385.618 561.649 386.097 561.232 386.441C560.826 386.774 560.305 386.941 559.67 386.941C558.847 386.941 558.196 386.644 557.716 386.05C557.154 385.342 556.873 384.18 556.873 382.566ZM557.951 382.566C557.951 383.972 558.118 384.909 558.451 385.378C558.784 385.847 559.19 386.081 559.67 386.081C560.159 386.081 560.565 385.847 560.888 385.378C561.222 384.909 561.388 383.972 561.388 382.566C561.388 381.149 561.222 380.212 560.888 379.753C560.565 379.284 560.154 379.05 559.654 379.05C559.175 379.05 558.789 379.253 558.498 379.659C558.133 380.18 557.951 381.149 557.951 382.566Z" fill="black"/>
<path d="M653.646 386.8V384.738H649.928V383.769L653.849 378.206H654.709V383.769H655.865V384.738H654.709V386.8H653.646ZM653.646 383.769V379.909L650.959 383.769H653.646ZM660.646 386.8V384.738H656.928V383.769L660.849 378.206H661.709V383.769H662.865V384.738H661.709V386.8H660.646ZM660.646 383.769V379.909L657.959 383.769H660.646ZM665.896 382.144C665.459 381.977 665.131 381.748 664.912 381.456C664.704 381.154 664.599 380.8 664.599 380.394C664.599 379.769 664.823 379.243 665.271 378.816C665.73 378.389 666.329 378.175 667.068 378.175C667.818 378.175 668.422 378.394 668.881 378.831C669.339 379.269 669.568 379.8 669.568 380.425C669.568 380.821 669.464 381.165 669.256 381.456C669.047 381.748 668.73 381.977 668.303 382.144C668.834 382.31 669.235 382.587 669.506 382.972C669.776 383.357 669.912 383.816 669.912 384.347C669.912 385.076 669.651 385.691 669.131 386.191C668.62 386.691 667.938 386.941 667.084 386.941C666.24 386.941 665.558 386.691 665.037 386.191C664.516 385.691 664.256 385.066 664.256 384.316C664.256 383.753 664.396 383.284 664.678 382.909C664.969 382.534 665.375 382.279 665.896 382.144ZM665.678 380.347C665.678 380.753 665.808 381.087 666.068 381.347C666.339 381.607 666.683 381.738 667.099 381.738C667.506 381.738 667.839 381.613 668.099 381.363C668.36 381.102 668.49 380.784 668.49 380.409C668.49 380.024 668.355 379.701 668.084 379.441C667.813 379.17 667.48 379.034 667.084 379.034C666.678 379.034 666.339 379.165 666.068 379.425C665.808 379.685 665.678 379.993 665.678 380.347ZM665.349 384.316C665.349 384.618 665.417 384.909 665.553 385.191C665.698 385.472 665.912 385.691 666.193 385.847C666.474 386.003 666.777 386.081 667.099 386.081C667.599 386.081 668.011 385.92 668.334 385.597C668.667 385.274 668.834 384.863 668.834 384.363C668.834 383.852 668.667 383.43 668.334 383.097C668 382.764 667.579 382.597 667.068 382.597C666.568 382.597 666.157 382.764 665.834 383.097C665.511 383.42 665.349 383.826 665.349 384.316ZM671.271 382.566C671.271 381.545 671.375 380.727 671.584 380.113C671.792 379.488 672.099 379.008 672.506 378.675C672.922 378.342 673.443 378.175 674.068 378.175C674.527 378.175 674.928 378.269 675.271 378.456C675.625 378.644 675.917 378.915 676.146 379.269C676.375 379.613 676.553 380.034 676.678 380.534C676.803 381.034 676.865 381.712 676.865 382.566C676.865 383.576 676.761 384.389 676.553 385.003C676.355 385.618 676.047 386.097 675.631 386.441C675.224 386.774 674.704 386.941 674.068 386.941C673.245 386.941 672.594 386.644 672.115 386.05C671.553 385.342 671.271 384.18 671.271 382.566ZM672.349 382.566C672.349 383.972 672.516 384.909 672.849 385.378C673.183 385.847 673.589 386.081 674.068 386.081C674.558 386.081 674.964 385.847 675.287 385.378C675.62 384.909 675.787 383.972 675.787 382.566C675.787 381.149 675.62 380.212 675.287 379.753C674.964 379.284 674.553 379.05 674.053 379.05C673.573 379.05 673.188 379.253 672.896 379.659C672.532 380.18 672.349 381.149 672.349 382.566ZM678.271 382.566C678.271 381.545 678.375 380.727 678.584 380.113C678.792 379.488 679.099 379.008 679.506 378.675C679.922 378.342 680.443 378.175 681.068 378.175C681.527 378.175 681.928 378.269 682.271 378.456C682.625 378.644 682.917 378.915 683.146 379.269C683.375 379.613 683.553 380.034 683.678 380.534C683.803 381.034 683.865 381.712 683.865 382.566C683.865 383.576 683.761 384.389 683.553 385.003C683.355 385.618 683.047 386.097 682.631 386.441C682.224 386.774 681.704 386.941 681.068 386.941C680.245 386.941 679.594 386.644 679.115 386.05C678.553 385.342 678.271 384.18 678.271 382.566ZM679.349 382.566C679.349 383.972 679.516 384.909 679.849 385.378C680.183 385.847 680.589 386.081 681.068 386.081C681.558 386.081 681.964 385.847 682.287 385.378C682.62 384.909 682.787 383.972 682.787 382.566C682.787 381.149 682.62 380.212 682.287 379.753C681.964 379.284 681.553 379.05 681.053 379.05C680.573 379.05 680.188 379.253 679.896 379.659C679.532 380.18 679.349 381.149 679.349 382.566Z" fill="black"/>
<path d="M576.847 65.5125V66.7H570.222C570.211 66.4083 570.258 66.1218 570.363 65.8406C570.54 65.3927 570.81 64.95 571.175 64.5125C571.55 64.0749 572.086 63.5697 572.784 62.9968C573.878 62.101 574.613 61.3927 574.988 60.8718C575.373 60.351 575.566 59.8562 575.566 59.3875C575.566 58.8979 575.389 58.4864 575.034 58.1531C574.691 57.8197 574.243 57.6531 573.691 57.6531C573.097 57.6531 572.618 57.8302 572.253 58.1843C571.899 58.5385 571.722 59.0333 571.722 59.6687L570.456 59.5281C570.54 58.5906 570.862 57.877 571.425 57.3875C571.998 56.8875 572.758 56.6375 573.706 56.6375C574.675 56.6375 575.435 56.9031 575.988 57.4343C576.55 57.9656 576.831 58.627 576.831 59.4187C576.831 59.825 576.748 60.2208 576.581 60.6062C576.425 60.9916 576.154 61.3979 575.769 61.825C575.394 62.252 574.764 62.8406 573.878 63.5906C573.139 64.2052 572.665 64.627 572.456 64.8562C572.248 65.0749 572.076 65.2937 571.941 65.5125H576.847ZM578.378 61.7625C578.378 60.575 578.498 59.6218 578.738 58.9031C578.988 58.1739 579.352 57.6166 579.831 57.2312C580.31 56.8354 580.915 56.6375 581.644 56.6375C582.185 56.6375 582.659 56.7468 583.066 56.9656C583.472 57.1843 583.805 57.4968 584.066 57.9031C584.336 58.3093 584.545 58.8041 584.691 59.3875C584.836 59.9708 584.909 60.7625 584.909 61.7625C584.909 62.9395 584.79 63.8874 584.55 64.6062C584.31 65.3249 583.951 65.8822 583.472 66.2781C582.993 66.6739 582.383 66.8718 581.644 66.8718C580.685 66.8718 579.93 66.5229 579.378 65.825C578.711 64.9916 578.378 63.6375 578.378 61.7625ZM579.644 61.7625C579.644 63.4083 579.836 64.502 580.222 65.0437C580.607 65.5854 581.081 65.8562 581.644 65.8562C582.217 65.8562 582.696 65.5854 583.081 65.0437C583.467 64.4916 583.659 63.3979 583.659 61.7625C583.659 60.1062 583.467 59.0072 583.081 58.4656C582.696 57.9239 582.211 57.6531 581.628 57.6531C581.066 57.6531 580.618 57.8927 580.284 58.3718C579.857 58.9864 579.644 60.1166 579.644 61.7625ZM592.847 65.5125V66.7H586.222C586.211 66.4083 586.258 66.1218 586.363 65.8406C586.54 65.3927 586.81 64.95 587.175 64.5125C587.55 64.0749 588.086 63.5697 588.784 62.9968C589.878 62.101 590.613 61.3927 590.988 60.8718C591.373 60.351 591.566 59.8562 591.566 59.3875C591.566 58.8979 591.389 58.4864 591.034 58.1531C590.691 57.8197 590.243 57.6531 589.691 57.6531C589.097 57.6531 588.618 57.8302 588.253 58.1843C587.899 58.5385 587.722 59.0333 587.722 59.6687L586.456 59.5281C586.54 58.5906 586.862 57.877 587.425 57.3875C587.998 56.8875 588.758 56.6375 589.706 56.6375C590.675 56.6375 591.435 56.9031 591.988 57.4343C592.55 57.9656 592.831 58.627 592.831 59.4187C592.831 59.825 592.748 60.2208 592.581 60.6062C592.425 60.9916 592.154 61.3979 591.769 61.825C591.394 62.252 590.764 62.8406 589.878 63.5906C589.139 64.2052 588.665 64.627 588.456 64.8562C588.248 65.0749 588.076 65.2937 587.941 65.5125H592.847ZM600.847 65.5125V66.7H594.222C594.211 66.4083 594.258 66.1218 594.363 65.8406C594.54 65.3927 594.81 64.95 595.175 64.5125C595.55 64.0749 596.086 63.5697 596.784 62.9968C597.878 62.101 598.613 61.3927 598.988 60.8718C599.373 60.351 599.566 59.8562 599.566 59.3875C599.566 58.8979 599.389 58.4864 599.034 58.1531C598.691 57.8197 598.243 57.6531 597.691 57.6531C597.097 57.6531 596.618 57.8302 596.253 58.1843C595.899 58.5385 595.722 59.0333 595.722 59.6687L594.456 59.5281C594.54 58.5906 594.862 57.877 595.425 57.3875C595.998 56.8875 596.758 56.6375 597.706 56.6375C598.675 56.6375 599.435 56.9031 599.988 57.4343C600.55 57.9656 600.831 58.627 600.831 59.4187C600.831 59.825 600.748 60.2208 600.581 60.6062C600.425 60.9916 600.154 61.3979 599.769 61.825C599.394 62.252 598.764 62.8406 597.878 63.5906C597.139 64.2052 596.665 64.627 596.456 64.8562C596.248 65.0749 596.076 65.2937 595.941 65.5125H600.847Z" fill="#999999"/>
<path d="M606.175 58.1687C605.487 59.3666 604.633 60.3666 603.612 61.1687L602.847 60.1843C604.336 59.0906 605.357 57.5072 605.909 55.4343L607.159 55.7625C607.305 55.9083 607.253 55.9968 607.003 56.0281L606.566 57.1218H614.269V58.1687H610.284V60.0281H613.566V61.0593H610.284V63.5281H614.878V64.5593H610.284V67.8562H609.191V64.5593H602.894V63.5281H605.362V60.0281H609.191V58.1687H606.175ZM606.456 63.5281H609.191V61.0593H606.456V63.5281Z" fill="#999999"/>
<path d="M616.566 64.3875L617.753 64.2781C617.847 64.8302 618.034 65.2312 618.316 65.4812C618.607 65.7312 618.972 65.8562 619.409 65.8562C619.784 65.8562 620.112 65.7729 620.394 65.6062C620.685 65.4291 620.92 65.1947 621.097 64.9031C621.284 64.6114 621.441 64.2208 621.566 63.7312C621.691 63.2416 621.753 62.7416 621.753 62.2312C621.753 62.1791 621.748 62.0958 621.737 61.9812C621.498 62.377 621.165 62.7 620.737 62.95C620.31 63.1895 619.847 63.3093 619.347 63.3093C618.514 63.3093 617.81 63.0072 617.237 62.4031C616.665 61.7989 616.378 61.0072 616.378 60.0281C616.378 59.0072 616.675 58.1895 617.269 57.575C617.873 56.95 618.628 56.6375 619.534 56.6375C620.18 56.6375 620.774 56.8145 621.316 57.1687C621.857 57.5125 622.269 58.0125 622.55 58.6687C622.831 59.3145 622.972 60.252 622.972 61.4812C622.972 62.7625 622.831 63.7833 622.55 64.5437C622.279 65.3041 621.868 65.8822 621.316 66.2781C620.764 66.6739 620.118 66.8718 619.378 66.8718C618.597 66.8718 617.956 66.6531 617.456 66.2156C616.967 65.7781 616.67 65.1687 616.566 64.3875ZM621.597 59.9656C621.597 59.2572 621.409 58.6947 621.034 58.2781C620.659 57.8614 620.211 57.6531 619.691 57.6531C619.139 57.6531 618.659 57.877 618.253 58.325C617.847 58.7729 617.644 59.351 617.644 60.0593C617.644 60.6947 617.836 61.2156 618.222 61.6218C618.607 62.0177 619.081 62.2156 619.644 62.2156C620.217 62.2156 620.685 62.0177 621.05 61.6218C621.415 61.2156 621.597 60.6635 621.597 59.9656Z" fill="#999999"/>
<path d="M633.706 63.5281H628.503C628.503 65.0906 627.701 66.5697 626.097 67.9656L625.175 66.9187C626.665 65.9708 627.409 64.5489 627.409 62.6531V55.9812H634.8V66.7625C634.8 67.3458 634.487 67.6375 633.862 67.6375H632.55L632.331 66.4187H633.487C633.633 66.4187 633.706 66.3458 633.706 66.2V63.5281ZM628.503 62.325H633.706V60.3562H628.503V62.325ZM628.503 59.1531H633.706V57.1843H628.503V59.1531Z" fill="#999999"/>
<path d="M644.847 65.5125V66.7H638.222C638.211 66.4083 638.258 66.1218 638.363 65.8406C638.54 65.3927 638.81 64.95 639.175 64.5125C639.55 64.0749 640.086 63.5697 640.784 62.9968C641.878 62.101 642.613 61.3927 642.988 60.8718C643.373 60.351 643.566 59.8562 643.566 59.3875C643.566 58.8979 643.389 58.4864 643.034 58.1531C642.691 57.8197 642.243 57.6531 641.691 57.6531C641.097 57.6531 640.618 57.8302 640.253 58.1843C639.899 58.5385 639.722 59.0333 639.722 59.6687L638.456 59.5281C638.54 58.5906 638.862 57.877 639.425 57.3875C639.998 56.8875 640.758 56.6375 641.706 56.6375C642.675 56.6375 643.435 56.9031 643.988 57.4343C644.55 57.9656 644.831 58.627 644.831 59.4187C644.831 59.825 644.748 60.2208 644.581 60.6062C644.425 60.9916 644.154 61.3979 643.769 61.825C643.394 62.252 642.764 62.8406 641.878 63.5906C641.139 64.2052 640.665 64.627 640.456 64.8562C640.248 65.0749 640.076 65.2937 639.941 65.5125H644.847ZM646.566 64.3875L647.753 64.2781C647.847 64.8302 648.034 65.2312 648.316 65.4812C648.607 65.7312 648.972 65.8562 649.409 65.8562C649.784 65.8562 650.113 65.7729 650.394 65.6062C650.685 65.4291 650.92 65.1947 651.097 64.9031C651.284 64.6114 651.441 64.2208 651.566 63.7312C651.691 63.2416 651.753 62.7416 651.753 62.2312C651.753 62.1791 651.748 62.0958 651.738 61.9812C651.498 62.377 651.165 62.7 650.738 62.95C650.31 63.1895 649.847 63.3093 649.347 63.3093C648.514 63.3093 647.81 63.0072 647.238 62.4031C646.665 61.7989 646.378 61.0072 646.378 60.0281C646.378 59.0072 646.675 58.1895 647.269 57.575C647.873 56.95 648.628 56.6375 649.534 56.6375C650.18 56.6375 650.774 56.8145 651.316 57.1687C651.857 57.5125 652.269 58.0125 652.55 58.6687C652.831 59.3145 652.972 60.252 652.972 61.4812C652.972 62.7625 652.831 63.7833 652.55 64.5437C652.279 65.3041 651.868 65.8822 651.316 66.2781C650.764 66.6739 650.118 66.8718 649.378 66.8718C648.597 66.8718 647.956 66.6531 647.456 66.2156C646.967 65.7781 646.67 65.1687 646.566 64.3875ZM651.597 59.9656C651.597 59.2572 651.409 58.6947 651.034 58.2781C650.659 57.8614 650.211 57.6531 649.691 57.6531C649.139 57.6531 648.659 57.877 648.253 58.325C647.847 58.7729 647.644 59.351 647.644 60.0593C647.644 60.6947 647.836 61.2156 648.222 61.6218C648.607 62.0177 649.081 62.2156 649.644 62.2156C650.217 62.2156 650.685 62.0177 651.05 61.6218C651.415 61.2156 651.597 60.6635 651.597 59.9656Z" fill="#999999"/>
<path d="M657.8 67.2H656.534V56.6375H665.128V66.9812H663.862V66.2H657.8V67.2ZM663.862 60.7937V57.6687H657.8V60.7937H663.862ZM663.862 65.1687V61.825H657.8V65.1687H663.862ZM678.081 59.8562H680.659V60.7312H678.362V61.9968H680.222V62.8718H678.362V64.1843H680.222V65.0593H678.362V66.4187H681.097V67.3093H675.566V67.8562H674.644V61.7781C674.352 62.1739 673.987 62.5385 673.55 62.8718L673.159 61.825C674.545 60.5854 675.441 59.2937 675.847 57.95H674.581V59.2H673.659V57.075H676.066C676.211 56.4916 676.336 55.8718 676.441 55.2156L677.534 55.4812C677.649 55.5958 677.612 55.7052 677.425 55.8093C677.321 56.2468 677.211 56.6687 677.097 57.075H680.987V58.9812H680.05V57.95H676.878C676.659 58.7104 676.368 59.3458 676.003 59.8562H677.159L677.862 58.2156L678.909 58.4343C679.086 58.5072 679.05 58.601 678.8 58.7156L678.081 59.8562ZM668.847 57.3406V56.3093H673.487V57.3406H671.581C671.508 58.476 671.269 59.5177 670.862 60.4656H673.003V66.9812H672.066V66.0906H670.644V67.5281H669.722V62.5906C669.503 62.9552 669.264 63.2833 669.003 63.575L668.3 62.6531C669.571 61.226 670.316 59.4552 670.534 57.3406H668.847ZM675.566 62.8718V64.1843H677.425V62.8718H675.566ZM675.566 60.7312V61.9968H677.425V60.7312H675.566ZM675.566 65.0593V66.4187H677.425V65.0593H675.566ZM670.644 61.3406V65.2156H672.066V61.3406H670.644ZM687.222 61.45C688.566 61.0854 689.42 60.3718 689.784 59.3093L688.316 58.7156L688.691 57.7781L690.003 58.2781L690.112 56.9656H687.816V55.9187H694.378L694.269 60.6218C694.237 61.5385 693.857 61.9968 693.128 61.9968H691.862L691.753 60.95H692.909C693.128 60.95 693.237 60.8406 693.237 60.6218L693.347 56.9656H691.206L691.05 58.7156L692.362 59.4187L691.862 60.4031L690.769 59.8093C690.3 61.1531 689.264 62.0645 687.659 62.5437L687.222 61.45ZM694.159 66.9187C693.868 65.8249 693.415 64.877 692.8 64.075L693.784 63.6375C694.586 64.6166 695.097 65.5437 695.316 66.4187L694.159 66.9187ZM686.831 63.4656V67.6843H685.909V67.3093H684.05V67.9031H683.112V63.4656H686.831ZM687.269 66.9812C687.529 66.0645 687.696 65.0229 687.769 63.8562L688.862 63.9656C688.935 63.9968 688.899 64.0854 688.753 64.2312C688.711 65.3979 688.545 66.4031 688.253 67.2468L687.269 66.9812ZM690.769 61.6687C691.279 61.9916 691.79 62.5541 692.3 63.3562L691.269 63.9656C691.008 63.4552 690.571 62.8718 689.956 62.2156L690.769 61.6687ZM683.331 55.7H686.612V56.7468H683.331V55.7ZM682.628 57.5593H687.331V58.6062H682.628V57.5593ZM683.331 59.5906H686.612V60.6218H683.331V59.5906ZM683.331 61.45H686.612V62.4812H683.331V61.45ZM684.05 64.3406V66.4187H685.909V64.3406H684.05ZM690.222 63.3093C690.514 63.3406 690.534 63.45 690.284 63.6375V66.2C690.284 66.4604 690.394 66.5906 690.612 66.5906H691.816C692.034 66.5906 692.159 66.4812 692.191 66.2625L692.3 65.3875L693.394 65.6531L693.175 66.8093C693.071 67.3614 692.743 67.6375 692.191 67.6375H690.112C689.498 67.6375 689.191 67.3041 689.191 66.6375V63.3093H690.222Z" fill="#999999"/>
<path d="M37.2 34.2468H29.5438V39.5593H37.2V34.2468ZM37.2 41.0437H29.5438V42.2937H27.9813V34.7937C27.1479 35.8354 26.0021 36.825 24.5438 37.7625L23.5281 36.1218C26.7052 34.2989 28.6323 31.6947 29.3094 28.3093H24.1531V26.5906H40.6375V28.3093H31.1063C30.8979 29.7677 30.3771 31.252 29.5438 32.7625H38.7625V42.2937H37.2V41.0437ZM45.7938 26.2781H47.5125C48.0333 26.3822 48.0594 26.5906 47.5906 26.9031V35.4187C47.5906 38.4395 46.7052 40.7572 44.9344 42.3718L43.45 41.2C45.0125 39.8979 45.7938 37.9447 45.7938 35.3406V26.2781ZM57.5906 26.1218H59.3094C59.8302 26.226 59.8563 26.4343 59.3875 26.7468V42.3718H57.5906V26.1218ZM53.3719 27.2156C53.8927 27.3197 53.9188 27.5281 53.45 27.8406V40.4187H51.6531V27.2156H53.3719ZM76.1844 37.6062C77.2261 38.6479 78.7625 39.6895 80.7938 40.7312L79.8563 42.3718C78.0854 41.5385 76.4188 40.3406 74.8563 38.7781L76.1844 37.6062ZM69.3875 39.0125C68.5021 40.2625 67.1479 41.4864 65.325 42.6843L64.1531 41.2C65.8198 40.2104 67.1479 39.0385 68.1375 37.6843L69.6219 38.5437C69.8823 38.752 69.8042 38.9083 69.3875 39.0125ZM66.1844 36.9812V37.7625H64.6219V26.5125H66.1063C66.5229 26.5645 66.549 26.7208 66.1844 26.9812V35.4968H80.5594V36.9812H73.2938V42.9968H71.4969V36.9812H66.1844ZM69.6219 33.2312H76.4188V31.7468H69.6219V33.2312ZM69.6219 30.4968H76.4188V29.2468H69.6219V30.4968ZM69.6219 27.9968H76.4188V26.7468H69.6219V27.9968ZM68.0594 34.4812V25.4968H77.9813V34.4812H68.0594ZM92.9813 30.1843C92.0958 35.3927 91.0281 38.6218 89.7781 39.8718C89.1011 40.5489 88.3979 40.8875 87.6688 40.8875C86.8354 40.8875 86.1844 40.6531 85.7156 40.1843C84.4656 38.9343 83.8406 37.3718 83.8406 35.4968C83.8406 33.2052 84.6479 31.252 86.2625 29.6375C88.0333 27.8666 90.1948 26.9812 92.7469 26.9812C95.0386 26.9812 96.8354 27.6322 98.1375 28.9343C99.5958 30.3927 100.325 32.1114 100.325 34.0906C100.325 36.226 99.6479 37.9708 98.2938 39.325C97.4083 40.2104 96.0542 41.0697 94.2313 41.9031L92.5906 40.2625C94.4136 39.6895 95.8458 38.8822 96.8875 37.8406C97.8771 36.851 98.3719 35.6531 98.3719 34.2468C98.3719 32.5802 97.825 31.2 96.7313 30.1062C95.6375 29.0125 93.9188 28.5177 91.575 28.6218L92.9813 29.325C93.6063 29.5854 93.6063 29.8718 92.9813 30.1843ZM91.1844 28.7C89.8302 29.0125 88.6583 29.6635 87.6688 30.6531C86.3146 32.0072 85.6375 33.6739 85.6375 35.6531C85.6375 36.851 86.0281 37.8406 86.8094 38.6218C86.9656 38.7781 87.2 38.8562 87.5125 38.8562C87.825 38.8562 88.1636 38.6739 88.5281 38.3093C89.7261 37.1114 90.6115 33.9083 91.1844 28.7ZM110.325 41.5125C112.46 40.3666 113.528 38.4135 113.528 35.6531V26.6687L115.169 26.9812L119.388 25.6531L120.559 27.2156C120.664 27.5281 120.481 27.5802 120.013 27.3718L115.091 28.3093V31.6687H121.263V33.1531H118.919V42.9187H117.356V33.1531H115.091V36.1218C115.091 39.1947 113.789 41.4864 111.184 42.9968L110.325 41.5125ZM108.841 42.9968H107.278V38.3093C106.445 39.6635 105.533 40.7312 104.544 41.5125L103.372 40.1062C104.83 39.0645 106.054 37.7625 107.044 36.2H103.763V34.7156H107.278V32.9968H103.294V31.5125H108.763L109.622 28.7H103.841V27.2156H107.278V25.0281H108.763C109.179 25.0802 109.205 25.2364 108.841 25.4968V27.2156H112.278V28.7H111.263L110.169 31.5125H112.669V32.9968H108.841V34.7156H112.278V36.2H108.841V36.9031C109.57 37.1114 110.585 37.6583 111.888 38.5437L110.95 40.1062C110.221 39.377 109.518 38.8041 108.841 38.3875V42.9968ZM105.716 31.3562C105.507 30.627 105.221 29.9239 104.856 29.2468L106.341 28.7781C106.757 29.4552 107.07 30.1583 107.278 30.8875L105.716 31.3562ZM138.45 33.5437H133.372V35.2625H138.45V33.5437ZM136.341 36.7468H134.934V37.5281C134.934 40.7572 133.085 42.6583 129.388 43.2312L128.919 41.5906C131.888 41.226 133.372 39.8197 133.372 37.3718V36.7468H132.591H131.809V25.8093H140.013V36.7468H137.903V40.6531C137.903 41.0697 138.085 41.2781 138.45 41.2781H139.231C139.492 41.2781 139.648 41.0177 139.7 40.4968L139.856 39.1687L141.419 39.6375L141.184 41.4343C141.08 42.3197 140.585 42.7625 139.7 42.7625H137.747C136.809 42.7625 136.341 42.3197 136.341 41.4343V36.7468ZM133.372 32.0593H138.45V30.4187H133.372V32.0593ZM133.372 28.9343H138.45V27.2937H133.372V28.9343ZM127.747 35.8875C128.789 36.3562 130.013 37.2156 131.419 38.4656L130.325 40.1062C129.231 38.9083 128.268 38.0229 127.434 37.45C126.914 39.7416 125.82 41.5385 124.153 42.8406L122.981 41.4343C125.273 39.5072 126.367 37.0072 126.263 33.9343H123.294V32.45H126.341V29.6375H123.841V28.1531H126.341V25.0281H127.825C128.242 25.0802 128.268 25.2364 127.903 25.4968V28.1531H130.638V29.6375H127.903V32.45H131.028V33.9343H127.825C127.825 34.7677 127.799 35.4187 127.747 35.8875ZM147.825 32.1375C148.815 33.4916 149.309 34.8979 149.309 36.3562C149.309 38.3875 148.71 39.4031 147.513 39.4031H146.575L146.263 37.8406H147.044C147.565 37.8406 147.799 37.2937 147.747 36.2C147.695 34.6895 147.226 33.3614 146.341 32.2156L147.903 27.1375H145.481V42.7625H143.919V25.8875H148.294L148.606 25.4968L149.934 26.6687L149.622 26.9812L147.825 32.1375ZM159.153 36.5125H158.372C157.539 40.3145 154.752 42.502 150.013 43.075L149.544 41.5906C153.606 41.2781 156.054 39.5854 156.888 36.5125H155.794C154.908 38.7 153.033 40.0281 150.169 40.4968L149.7 39.1687C152.096 38.6479 153.58 37.7625 154.153 36.5125H152.903C152.174 37.2416 151.236 37.8145 150.091 38.2312L149.466 36.9031C151.132 36.3822 152.278 35.3927 152.903 33.9343H149.388V32.6843H161.106V33.9343H154.544C154.335 34.4031 154.075 34.8458 153.763 35.2625H160.638L160.481 40.1843C160.429 41.851 159.83 42.6843 158.684 42.6843H157.122L156.888 41.2H158.216C158.684 41.2 158.945 40.8875 158.997 40.2625L159.153 36.5125ZM152.513 30.4187H157.825V29.0906H152.513V30.4187ZM152.513 27.8406H157.825V26.5906H152.513V27.8406ZM159.153 25.3406V31.6687H151.184V25.3406H159.153ZM172.434 29.325H174.544V25.2625H176.028C176.445 25.3145 176.471 25.4708 176.106 25.7312V29.325H180.325V30.8093H176.106V34.5593H180.091V36.0437H176.106V40.6531H181.263V42.1375H169.309V40.6531H174.544V36.0437H170.716V34.5593H174.544V30.8093H171.966C171.601 31.851 171.028 32.8927 170.247 33.9343L168.919 32.9187C170.273 31.1479 171.158 29.0125 171.575 26.5125L173.059 26.825C173.476 26.9812 173.476 27.1375 173.059 27.2937L172.434 29.325ZM165.794 25.0281H167.278C167.695 25.0802 167.721 25.2364 167.356 25.4968V42.8406H165.794V25.0281ZM168.763 28.2312C169.231 28.8562 169.622 29.5593 169.934 30.3406L168.684 31.2C168.32 30.3145 167.955 29.5854 167.591 29.0125L168.763 28.2312ZM165.325 29.0906C165.69 29.1947 165.69 29.351 165.325 29.5593C165.221 31.226 164.986 32.7885 164.622 34.2468L163.138 33.7781C163.554 32.476 163.789 30.8354 163.841 28.8562L165.325 29.0906ZM198.138 33.6218V42.6843H196.575V41.9031H189.544V42.9187H187.981V35.8093C186.627 36.5385 185.169 37.1114 183.606 37.5281L183.059 36.1218C184.518 35.7572 186.158 35.1062 187.981 34.1687V33.6218H189.075C190.169 32.9968 191.106 32.3718 191.888 31.7468H183.684V30.2625H190.559V28.3875H185.716V26.9031H190.559V25.0281H192.044C192.46 25.0802 192.486 25.2364 192.122 25.4968V26.9031H195.872V28.2312C196.497 27.5541 197.122 26.7989 197.747 25.9656L198.841 26.6687C199.205 26.9291 199.153 27.0854 198.684 27.1375C197.695 28.3354 196.705 29.377 195.716 30.2625H201.106V31.7468H194.075C193.033 32.6322 192.2 33.2572 191.575 33.6218H198.138ZM193.606 30.2625C194.231 29.7937 194.934 29.1687 195.716 28.3875H192.122V30.2625H193.606ZM189.544 36.9812H196.575V34.8718H189.544V36.9812ZM189.544 40.6531H196.575V38.2312H189.544V40.6531ZM216.731 36.9031C217.46 35.4968 217.903 33.3614 218.059 30.4968H215.403C215.559 33.3614 216.002 35.4968 216.731 36.9031ZM219.622 30.4968C219.518 33.726 218.893 36.3302 217.747 38.3093C218.58 39.351 219.752 40.2625 221.263 41.0437L220.247 42.7625C218.58 41.6687 217.408 40.627 216.731 39.6375C215.533 40.9916 213.684 42.1635 211.184 43.1531L210.403 41.5906C213.111 40.4968 214.908 39.377 215.794 38.2312C214.908 36.5125 214.414 34.7937 214.309 33.075C213.997 33.8562 213.684 34.4552 213.372 34.8718L212.044 33.8562C213.606 31.5645 214.544 28.726 214.856 25.3406L216.497 25.7312C216.809 25.9395 216.731 26.0958 216.263 26.2C216.106 27.1375 215.898 28.075 215.638 29.0125H220.95V30.4968H219.622ZM212.356 26.7468C212.044 27.5281 211.679 28.1791 211.263 28.7L210.013 27.9968C210.429 27.3197 210.82 26.5385 211.184 25.6531L212.591 26.3562C212.799 26.5645 212.721 26.6947 212.356 26.7468ZM207.356 37.7625C208.085 37.9708 208.736 38.2052 209.309 38.4656C209.726 37.9968 210.065 37.2937 210.325 36.3562H208.059C207.851 36.825 207.617 37.2937 207.356 37.7625ZM206.263 39.7156L205.013 39.0125C205.533 38.2312 206.054 37.3458 206.575 36.3562H203.606V35.1062H207.044C207.356 34.4291 207.591 33.8562 207.747 33.3875L209.231 33.7781C209.44 33.9864 209.361 34.1166 208.997 34.1687L208.528 35.1062H212.981V36.3562H211.809C211.549 37.3979 211.158 38.2833 210.638 39.0125C211.106 39.2208 211.601 39.4812 212.122 39.7937L211.419 41.0437C210.846 40.6791 210.325 40.3927 209.856 40.1843C208.502 41.5385 206.679 42.3718 204.388 42.6843L203.841 41.2781C205.872 41.0697 207.434 40.4968 208.528 39.5593C207.955 39.2989 207.382 39.0645 206.809 38.8562L206.263 39.7156ZM207.825 25.0281H209.075C209.492 25.0802 209.518 25.2364 209.153 25.4968V28.8562H213.138V30.1062H209.856C210.429 30.7833 211.315 31.4343 212.513 32.0593L211.653 33.3875C210.768 32.8666 209.934 32.1375 209.153 31.2V33.075H207.825V31.5906C206.992 32.6322 205.846 33.5697 204.388 34.4031L203.372 33.1531C204.986 32.3197 206.315 31.3041 207.356 30.1062H203.763V28.8562H207.825V25.0281ZM205.638 28.6218C205.273 27.8406 204.804 27.1635 204.231 26.5906L205.481 25.8093C206.106 26.4343 206.575 27.0854 206.888 27.7625L205.638 28.6218ZM232.981 30.1843C232.096 35.3927 231.028 38.6218 229.778 39.8718C229.101 40.5489 228.398 40.8875 227.669 40.8875C226.835 40.8875 226.184 40.6531 225.716 40.1843C224.466 38.9343 223.841 37.3718 223.841 35.4968C223.841 33.2052 224.648 31.252 226.263 29.6375C228.033 27.8666 230.195 26.9812 232.747 26.9812C235.039 26.9812 236.835 27.6322 238.138 28.9343C239.596 30.3927 240.325 32.1114 240.325 34.0906C240.325 36.226 239.648 37.9708 238.294 39.325C237.408 40.2104 236.054 41.0697 234.231 41.9031L232.591 40.2625C234.414 39.6895 235.846 38.8822 236.888 37.8406C237.877 36.851 238.372 35.6531 238.372 34.2468C238.372 32.5802 237.825 31.2 236.731 30.1062C235.638 29.0125 233.919 28.5177 231.575 28.6218L232.981 29.325C233.606 29.5854 233.606 29.8718 232.981 30.1843ZM231.184 28.7C229.83 29.0125 228.658 29.6635 227.669 30.6531C226.315 32.0072 225.638 33.6739 225.638 35.6531C225.638 36.851 226.028 37.8406 226.809 38.6218C226.966 38.7781 227.2 38.8562 227.513 38.8562C227.825 38.8562 228.164 38.6739 228.528 38.3093C229.726 37.1114 230.611 33.9083 231.184 28.7ZM248.763 31.825C250.481 30.2104 251.809 27.8666 252.747 24.7937L254.309 25.2625C254.57 25.4708 254.518 25.601 254.153 25.6531C253.736 26.6947 253.32 27.6583 252.903 28.5437H255.247C255.82 27.3458 256.263 26.2781 256.575 25.3406L258.059 25.8875C258.268 26.0958 258.19 26.226 257.825 26.2781C257.46 27.1114 257.096 27.8666 256.731 28.5437H260.716V30.0281H256.731V32.45H259.934V33.9343H256.731V36.4343H259.934V37.9187H256.731V40.8093H261.184V42.2937H252.591V42.9968H251.028V31.6687C250.664 32.1895 250.273 32.6583 249.856 33.075L248.763 31.825ZM244.856 42.8406L244.544 41.3562H245.872C246.08 41.3562 246.184 41.252 246.184 41.0437V36.2L244.153 36.6687C244.101 37.0333 243.971 37.1114 243.763 36.9031L243.45 35.1062L246.184 34.5593V30.4187H243.763V28.9343H246.184V24.95H247.669C248.085 25.002 248.111 25.1583 247.747 25.4187V28.9343H249.778V30.4187H247.747V34.2468L249.778 33.7L250.013 35.1062L247.747 35.8093V41.5906C247.747 42.4239 247.33 42.8406 246.497 42.8406H244.856ZM252.591 40.8093H255.169V37.9187H252.591V40.8093ZM252.591 36.4343H255.169V33.9343H252.591V36.4343ZM252.591 32.45H255.169V30.0281H252.591V32.45ZM278.841 27.1375L279.075 26.825L280.325 27.8406L280.091 28.075C278.736 30.4187 277.408 31.9812 276.106 32.7625L276.888 32.9968C277.252 33.1531 277.226 33.3093 276.809 33.4656C276.705 33.8302 276.575 34.1427 276.419 34.4031H279.778L280.013 34.0906L281.419 35.1062L281.106 35.4187C279.44 39.8458 276.054 42.3458 270.95 42.9187L270.325 41.4343C272.773 41.1739 274.7 40.5229 276.106 39.4812C275.377 38.752 274.648 38.127 273.919 37.6062C273.242 38.1791 272.33 38.7 271.184 39.1687L270.481 37.7625C273.033 36.7208 274.7 35.1322 275.481 32.9968C274.7 33.726 273.294 34.351 271.263 34.8718L270.559 33.4656C272.539 33.0489 274.023 32.502 275.013 31.825C274.492 31.2 273.867 30.6531 273.138 30.1843C272.773 30.5489 272.408 30.8614 272.044 31.1218L270.95 29.95C272.669 28.4916 273.763 26.9291 274.231 25.2625L275.638 25.7312C276.002 25.8875 275.976 26.0437 275.559 26.2C275.507 26.5125 275.377 26.825 275.169 27.1375H278.841ZM268.216 30.1843H270.794V31.6687H268.216V33.6218C269.257 34.0906 270.247 34.7937 271.184 35.7312L270.169 37.1375C269.335 36.3041 268.684 35.7052 268.216 35.3406V42.9187H266.653V35.1843C266.341 36.226 265.481 37.5541 264.075 39.1687L262.903 37.6843C264.83 35.8614 266.028 33.8562 266.497 31.6687H263.45V30.1843H266.653V27.6062C265.611 27.7625 264.674 27.8927 263.841 27.9968L263.45 26.5125C265.533 26.3041 267.695 25.8875 269.934 25.2625L270.794 26.4343C271.002 26.7468 270.872 26.851 270.403 26.7468C269.674 26.9552 268.945 27.1375 268.216 27.2937V30.1843ZM273.919 29.2468C274.7 29.6635 275.455 30.1843 276.184 30.8093C276.966 30.0802 277.617 29.2729 278.138 28.3875H274.544C274.335 28.752 274.127 29.0385 273.919 29.2468ZM274.778 36.6687C275.507 37.0854 276.341 37.7104 277.278 38.5437C278.059 37.9708 278.736 37.0072 279.309 35.6531H275.716C275.403 36.0697 275.091 36.4083 274.778 36.6687ZM286.809 29.325C287.382 28.127 288.346 26.9031 289.7 25.6531L290.559 26.4343C289.257 27.6322 288.346 28.7781 287.825 29.8718C287.252 31.0697 286.966 32.502 286.966 34.1687C286.966 35.575 287.252 36.9031 287.825 38.1531C288.346 39.2989 289.257 40.575 290.559 41.9812L289.7 42.8406C288.398 41.3822 287.434 40.002 286.809 38.7C286.132 37.2937 285.794 35.7833 285.794 34.1687C285.794 32.3458 286.132 30.7312 286.809 29.325ZM297.903 41.9031H296.106V26.825H308.372V41.5906H306.575V40.4968H297.903V41.9031ZM306.575 32.7625V28.3093H297.903V32.7625H306.575ZM306.575 39.0125V34.2468H297.903V39.0125H306.575ZM321.341 35.8093H318.372C317.903 38.7781 316.497 41.1218 314.153 42.8406L313.372 41.3562C315.664 39.7416 316.914 37.3458 317.122 34.1687L317.278 31.7468H316.184V32.7625H314.622V26.0437H322.513V32.45H320.95V31.7468H318.684L318.528 34.325H322.903L322.513 40.4968C322.408 41.7468 321.888 42.3718 320.95 42.3718H318.841L318.606 40.8875H320.325C320.794 40.8875 321.054 40.627 321.106 40.1062L321.341 35.8093ZM329.778 41.2C329.778 42.0854 329.361 42.5281 328.528 42.5281H326.809L326.497 41.0437H327.981C328.138 41.0437 328.216 40.9656 328.216 40.8093V25.8093H329.7C330.117 25.8614 330.143 26.0177 329.778 26.2781V41.2ZM326.028 27.6843C326.445 27.7364 326.471 27.8927 326.106 28.1531V38.8562H324.544V27.6843H326.028ZM320.95 30.4968V27.2937H316.184V30.4968H320.95ZM337.513 38.7C336.888 40.002 335.924 41.3822 334.622 42.8406L333.763 41.9812C335.065 40.575 335.976 39.2989 336.497 38.1531C337.07 36.9031 337.356 35.575 337.356 34.1687C337.356 32.502 337.07 31.0697 336.497 29.8718C335.976 28.7781 335.065 27.6322 333.763 26.4343L334.622 25.6531C335.976 26.9031 336.94 28.127 337.513 29.325C338.19 30.7312 338.528 32.3458 338.528 34.1687C338.528 35.7833 338.19 37.2937 337.513 38.7Z" fill="#757575"/>
</g>
<rect x="2" y="2" width="714" height="440" stroke="black" stroke-width="4"/>
<defs>
<clipPath id="clip0_6_11452">
<rect width="718" height="444" fill="white"/>
</clipPath>
</defs>
</svg>
