<svg width="718" height="444" viewBox="0 0 718 444" fill="none" xmlns="http://www.w3.org/2000/svg">
<g clip-path="url(#clip0_6_12522)">
<path d="M0 0H718V444H0V0Z" fill="white"/>
<path d="M181.5 91.5V369.5" stroke="#CCCCCC" stroke-miterlimit="10"/>
<path d="M303.5 91.5V369.5" stroke="#CCCCCC" stroke-miterlimit="10"/>
<path d="M424.5 91.5V369.5" stroke="#CCCCCC" stroke-miterlimit="10"/>
<path d="M545.5 91.5V369.5" stroke="#CCCCCC" stroke-miterlimit="10"/>
<path d="M667.5 91.5V369.5" stroke="#CCCCCC" stroke-miterlimit="10"/>
<path d="M88.5 369.5H695.5" stroke="#333333" stroke-miterlimit="10"/>
<path d="M88.5 277.5H695.5" stroke="#CCCCCC" stroke-miterlimit="10"/>
<path d="M88.5 184.5H695.5" stroke="#CCCCCC" stroke-miterlimit="10"/>
<path d="M88.5 91.5H695.5" stroke="#CCCCCC" stroke-miterlimit="10"/>
<path d="M88.2 369.8H88.807H89.414H90.021H90.628H91.235H91.842H92.449H93.056H93.6629H94.2699H94.8769H95.4839H96.0909H96.6979H97.3049H97.9119H98.5189H99.1259H99.7329H100.34H100.947H101.554H102.161H102.768H103.375H103.982H104.589H105.196H105.803H106.41H107.017H107.624H108.231H108.838H109.445H110.052H110.659H111.266H111.873H112.48H113.087H113.694H114.301H114.908H115.515H116.122H116.729H117.336H117.943H118.55H119.157H119.764H120.371H120.978H121.585H122.192H122.799H123.406H124.013H124.62L125.227 369.707L125.834 369.8H126.441H127.048H127.655H128.262H128.869H129.476H130.083H130.69H131.297H131.904H132.51L133.117 369.707L133.724 369.8H134.331H134.938H135.545H136.152H136.759H137.366H137.973L138.58 369.707L139.187 369.8L139.794 369.707L140.401 369.8L141.008 369.429L141.615 369.058L142.222 369.429L142.829 369.8L143.436 369.615H144.043L144.65 369.707H145.257L145.864 369.615L146.471 369.8H147.078H147.685H148.292H148.899H149.506H150.113H150.72H151.327H151.934H152.541H153.148H153.755H154.362H154.969H155.576H156.183H156.79H157.397H158.004H158.611H159.218H159.825H160.432H161.039H161.646H162.253H162.86H163.467H164.074H164.681H165.288H165.895H166.502H167.109H167.716H168.323H168.93H169.537H170.144H170.751H171.358H171.965H172.572H173.179H173.786H174.393H175H175.607H176.214H176.821H177.428H178.035H178.642H179.249H179.856H180.463H181.07H181.677H182.284H182.891H183.498H184.105H184.712H185.319H185.926H186.533H187.14H187.747H188.354H188.961H189.568H190.175H190.782H191.389H191.996H192.603H193.21H193.817H194.424L195.031 369.707L195.638 369.8H196.245L196.852 369.707H197.459H198.066L198.673 368.872L199.28 369.707H199.887L200.494 369.8H201.101H201.708L202.315 369.707L202.922 369.8H203.529H204.136H204.743H205.35L205.957 369.707L206.564 369.8H207.171H207.778H208.385H208.992H209.599L210.206 369.615L210.813 369.336L211.42 369.429L212.027 369.707H212.634H213.241L213.848 369.8H214.455H215.062L215.669 369.707H216.276H216.883L217.49 369.615H218.097L218.704 369.707L219.311 369.8L219.917 369.522L220.524 369.8H221.131H221.738L222.345 369.522L222.952 369.8L223.559 369.707L224.166 369.8L224.773 369.522L225.38 369.8H225.987H226.594L227.201 369.707L227.808 369.429L228.415 369.615L229.022 369.8H229.629H230.236L230.843 369.707H231.45L232.057 369.8L232.664 369.707L233.271 369.8L233.878 369.615L234.485 369.8L235.092 369.522L235.699 369.8H236.306L236.913 369.707L237.52 369.8H238.127H238.734H239.341H239.948H240.555H241.162H241.769H242.376H242.983H243.59H244.197H244.804H245.411H246.018H246.625H247.232H247.839H248.446H249.053H249.66H250.267L250.874 369.707L251.481 369.615L252.088 369.8H252.695H253.302L253.909 369.707H254.516H255.123L255.73 369.8H256.337H256.944L257.551 369.707H258.158L258.765 369.8H259.372H259.979H260.586H261.193H261.8H262.407H263.014H263.621H264.228H264.835H265.442L266.049 369.707H266.656L267.263 369.8L267.87 369.707L268.477 369.615L269.084 369.8L269.691 369.707L270.298 369.615L270.905 369.522L271.512 369.707L272.119 369.8L272.726 369.707L273.333 369.151L273.94 369.707L274.547 369.522L275.154 369.615H275.761H276.368L276.975 369.8L277.582 369.707L278.189 369.8L278.796 369.615L279.403 369.707L280.01 369.522L280.617 369.429L281.224 369.707L281.831 369.429L282.438 369.707L283.045 369.244L283.652 369.707L284.259 369.429H284.866L285.473 369.707L286.08 368.872L286.687 368.223L287.294 369.429L287.901 369.522L288.508 369.8L289.115 369.707L289.722 369.8H290.329L290.936 369.707L291.543 369.429L292.15 369.707L292.757 369.8H293.364L293.971 369.615L294.578 369.707L295.185 369.615L295.792 367.945L296.399 367.295L297.006 369.151L297.613 369.058L298.22 368.965L298.827 369.244L299.434 369.058L300.041 369.336L300.648 369.522L301.255 369.615H301.862L302.469 369.522L303.076 369.429L303.683 369.058L304.29 368.501L304.897 366.832L305.504 366.646L306.111 368.78L306.717 368.594L307.324 368.501L307.931 369.244L308.538 368.594L309.145 368.223L309.752 366.368L310.359 369.244L310.966 369.058L311.573 368.965L312.18 369.058L312.787 368.872L313.394 368.687L314.001 368.78L314.608 369.244L315.215 369.429L315.822 369.8L316.429 368.965L317.036 368.78L317.643 368.872L318.25 369.244L318.857 368.965L319.464 368.872L320.071 368.687L320.678 369.058L321.285 369.336L321.892 369.058L322.499 369.244L323.106 368.872L323.713 369.336L324.32 369.522L324.927 369.429L325.534 369.615L326.141 369.151L326.748 369.707H327.355L327.962 369.429L328.569 369.615L329.176 369.522L329.783 369.8L330.39 369.522L330.997 369.707L331.604 369.244L332.211 369.336L332.818 369.615L333.425 369.522H334.032L334.639 369.8H335.246L335.853 369.615L336.46 369.707L337.067 369.8L337.674 369.615L338.281 369.8L338.888 369.707H339.495H340.102L340.709 369.615L341.316 369.707L341.923 369.615H342.53H343.137L343.744 369.8L344.351 369.707L344.958 369.8H345.565L346.172 369.707L346.779 369.522H347.386L347.993 369.707L348.6 369.522L349.207 369.8H349.814H350.421H351.028L351.635 369.707L352.242 369.522L352.849 369.615L353.456 369.151L354.063 369.244L354.67 368.594L355.277 367.203L355.884 368.594L356.491 367.667L357.098 368.316L357.705 368.594H358.312L358.919 367.852L359.526 368.687L360.133 369.058L360.74 368.687L361.347 368.965H361.954L362.561 369.336L363.168 368.78H363.775L364.382 368.316L364.989 368.78L365.596 368.316L366.203 369.244L366.81 369.429L367.417 368.038L368.024 368.13L368.631 367.759L369.238 368.594L369.845 368.965L370.452 369.058L371.059 368.78L371.666 368.316L372.273 367.667L372.88 367.11L373.487 367.388L374.094 367.667L374.701 367.11L375.308 368.501L375.915 367.852L376.522 368.316L377.129 367.852L377.736 365.162L378.343 362.564L378.95 364.698L379.557 367.295L380.164 366.461L380.771 364.605L381.378 367.295L381.985 366.924L382.592 365.44L383.199 368.223L383.806 368.965L384.413 368.223L385.02 367.481L385.627 367.388L386.234 368.223L386.841 367.852L387.448 368.223L388.055 368.965L388.662 368.594L389.269 368.965L389.876 369.244L390.483 369.151L391.09 368.965L391.697 369.336L392.304 369.244L392.911 368.965L393.518 369.151L394.125 369.244L394.732 369.615L395.339 369.244L395.945 369.429L396.552 369.615L397.159 369.522L397.766 369.244L398.373 368.872L398.98 369.429L399.587 369.707L400.194 369.615H400.801L401.408 369.151L402.015 369.429L402.622 369.707L403.229 369.522L403.836 369.707L404.443 369.8H405.05L405.657 369.707H406.264L406.871 369.8L407.478 369.244L408.085 369.8L408.692 369.615L409.299 369.8L409.906 369.615H410.513L411.12 369.8L411.727 369.707H412.334H412.941L413.548 369.8L414.155 369.429L414.762 369.8L415.369 369.615L415.976 369.244L416.583 369.615L417.19 369.429L417.797 369.707H418.404L419.011 369.522L419.618 369.707L420.225 369.429L420.832 369.707L421.439 369.522L422.046 369.8L422.653 369.429L423.26 369.058L423.867 369.429H424.474H425.081L425.688 369.336L426.295 369.615L426.902 369.058L427.509 368.78L428.116 366.739L428.723 368.409L429.33 365.811L429.937 366.646L430.544 367.203L431.151 367.11L431.758 367.295L432.365 366.739L432.972 365.997L433.579 364.327L434.186 365.162L434.793 367.388L435.4 366.275L436.007 363.77L436.614 364.234L437.221 363.678L437.828 359.874L438.435 365.255L439.042 364.512L439.649 362.1L440.256 363.77L440.863 359.503L441.47 360.06L442.077 361.451L442.684 361.637L443.291 364.141L443.898 360.987L444.505 361.451L445.112 360.895L445.719 362.008L446.326 363.492L446.933 364.698L447.54 366.089L448.147 364.049L448.754 363.77L449.361 364.42L449.968 365.997L450.575 367.017H451.182L451.789 368.316L452.396 367.388L453.003 367.852L453.61 368.223L454.217 368.316L454.824 368.965L455.431 369.058L456.038 369.522L456.645 369.151L457.252 368.965L457.859 368.78L458.466 368.594L459.073 368.316L459.68 369.429H460.287H460.894L461.501 369.058L462.108 369.151L462.715 369.429L463.322 369.336L463.929 369.707L464.536 369.8L465.143 369.522L465.75 369.336L466.357 369.8L466.964 369.707L467.571 369.522L468.178 369.707H468.785L469.392 369.522L469.999 369.707H470.606L471.213 369.8H471.82H472.427L473.034 369.707L473.641 369.8L474.248 369.615L474.855 369.8H475.462H476.069L476.676 369.707L477.283 369.8L477.89 369.707L478.497 369.8L479.104 369.707H479.711H480.318H480.924L481.531 369.8L482.138 369.707L482.745 369.8H483.352H483.959H484.566H485.173H485.78H486.387H486.994H487.601H488.208H488.815H489.422H490.029H490.636H491.243H491.85L492.457 369.707H493.064L493.671 369.8H494.278H494.885H495.492H496.099H496.706H497.313H497.92H498.527H499.134H499.741H500.348H500.955H501.562H502.169H502.776H503.383H503.99H504.597H505.204H505.811H506.418H507.025H507.632H508.239H508.846H509.453H510.06H510.667H511.274H511.881H512.488H513.095H513.702H514.309H514.916H515.523H516.13H516.737H517.344H517.951H518.558H519.165H519.772L520.379 369.707H520.986H521.593L522.2 369.8H522.807L523.414 369.522L524.021 369.615L524.628 369.8L525.235 369.151L525.842 368.316L526.449 367.481L527.056 367.852L527.663 368.687L528.27 368.78L528.877 367.203L529.484 366.089L530.091 363.399L530.698 362.008L531.305 363.956L531.912 362.1L532.519 366.089L533.126 358.297L533.733 356.998L534.34 353.844L534.947 354.401L535.554 352.082L536.161 349.577L536.768 358.668L537.375 340.95L537.982 340.579L538.589 338.167L539.196 339.373L539.803 334.827L540.41 337.703L541.017 355.05L541.624 337.796L542.231 335.013L542.838 334.827L543.445 333.621L544.052 337.146L544.659 340.208L545.266 358.854L545.873 335.384L546.48 326.756L547.087 338.074L547.694 333.899L548.301 352.36L548.908 341.506L549.515 353.751L550.122 326.385L550.729 327.591L551.336 333.065L551.943 330.096L552.55 325.921L553.157 333.528L553.764 352.082L554.371 326.478L554.978 321.654L555.585 354.586L556.192 323.973L556.799 324.437L557.406 338.167L558.013 356.163L558.62 318.407L559.227 330.838L559.834 329.725L560.441 330.467L561.048 332.693L561.655 341.414L562.262 353.566L562.869 328.612L563.476 323.973L564.083 327.591L564.69 332.415L565.297 325.179L565.904 335.94L566.51 351.061L567.117 326.014L567.724 327.962L568.331 336.868L568.938 337.239L569.545 336.59L570.152 343.083L570.759 355.792L571.366 349.948L571.973 328.426L572.58 336.961L573.187 344.289L573.794 340.764L574.401 344.197L575.008 359.596L575.615 334.085L576.222 332.23L576.829 341.692L577.436 340.393L578.043 339.465L578.65 341.97L579.257 357.648L579.864 338.445L580.471 337.61L581.078 343.454H581.685L582.292 335.569L582.899 343.547L583.506 356.256L584.113 328.055L584.72 330.374L585.327 332.786L585.934 334.827H586.541L587.148 339.094L587.755 359.596L588.362 329.447L588.969 333.065L589.576 336.219L590.183 339.929L590.79 334.549L591.397 341.506L592.004 359.503L592.611 330.374L593.218 333.899L593.825 339.373L594.432 346.794L595.039 357.369L595.646 343.64L596.253 361.358L596.86 337.61L597.467 352.267L598.074 358.019L598.681 356.163L599.288 321.654L599.895 326.942L600.502 351.061L601.109 325.921L601.716 327.22L602.323 336.497L602.93 340.393L603.537 333.436L604.144 337.332L604.751 357.926L605.358 329.539L605.965 332.693L606.572 334.734L607.179 340.115L607.786 340.95L608.393 342.805L609 361.915L609.607 332.972L610.214 341.599L610.821 346.33L611.428 353.844L612.035 347.536L612.642 356.627L613.249 363.956L613.856 352.453L614.463 355.978L615.07 355.421L615.677 357.926L616.284 354.679L616.891 360.616L617.498 364.42L618.105 358.204L618.712 358.668L619.319 361.08L619.926 362.008L620.533 361.729L621.14 363.306L621.747 366.089L622.354 359.596L622.961 361.915L623.568 362.935L624.175 362.75L624.782 364.049L625.389 363.678L625.996 367.017L626.603 360.523L627.21 363.214L627.817 362.193L628.424 364.698L629.031 363.585L629.638 364.512L630.245 367.388L630.852 358.761L631.459 359.41L632.066 361.637L632.673 359.225L633.28 360.802L633.887 360.616L634.494 364.234L635.101 353.288L635.708 350.226L636.315 349.391L636.922 351.989L637.529 347.443L638.136 340.486L638.743 359.132L639.35 334.27L639.957 331.116L640.564 315.995L641.171 324.623L641.778 314.789L642.385 315.81L642.992 331.487L643.599 334.456L644.206 278.239L644.813 261.82L645.42 263.397L646.027 264.046L646.634 270.54L647.241 325.458L647.848 250.317L648.455 244.194L649.062 248.647L649.669 246.328L650.276 268.777L650.883 243.174L651.49 304.4L652.096 265.623L652.703 210.705L653.31 251.894L653.917 247.255L654.524 227.589L655.131 212.097L655.738 287.052L656.345 214.787L656.952 195.213L657.559 231.671L658.166 214.787L658.773 212.746L659.38 204.583L659.987 273.323L660.594 216.457L661.201 139.553L661.808 140.017L662.415 113.208L663.022 153.932L663.629 200.408L664.236 258.109L664.843 172.3L665.45 148.923L666.057 166.827L666.664 206.716L667.271 201.8L667.878 224.435L668.485 309.316L669.092 210.149L669.699 204.49L670.306 248.461L670.913 271.746L671.52 259.501L672.127 280.002L672.734 335.662L673.341 266.551L673.948 273.972L674.555 294.381L675.162 299.297L675.769 294.103L676.376 307.832L676.983 339.094L677.59 272.488L678.197 277.033L678.804 301.988L679.411 293.639L680.018 309.966L680.625 306.626L681.232 342.341L681.839 348.093L682.446 296.051L683.053 310.429L683.66 320.634L684.267 349.299L684.874 329.076L685.481 351.34L686.088 337.053L686.695 343.269L687.302 343.918L687.909 348.093L688.516 341.785L689.123 351.061L689.73 363.492L690.337 338.167L690.944 344.846L691.551 349.67L692.158 351.247L692.765 352.267L693.372 358.112L693.979 364.883L694.586 361.544L695.193 336.868L695.8 342.805" stroke="#4285F4" stroke-width="2" stroke-miterlimit="10"/>
<path d="M379.922 418.8V410.206H382.891C383.557 410.206 384.068 410.248 384.422 410.331C384.911 410.446 385.328 410.649 385.672 410.94C386.13 411.326 386.469 411.821 386.688 412.425C386.917 413.019 387.031 413.696 387.031 414.456C387.031 415.112 386.953 415.69 386.797 416.19C386.651 416.69 386.458 417.107 386.219 417.44C385.979 417.774 385.714 418.034 385.422 418.222C385.141 418.409 384.802 418.555 384.406 418.659C384.01 418.753 383.552 418.8 383.031 418.8H379.922ZM381.062 417.784H382.891C383.464 417.784 383.911 417.732 384.234 417.628C384.557 417.524 384.812 417.373 385 417.175C385.271 416.914 385.479 416.555 385.625 416.097C385.781 415.638 385.859 415.086 385.859 414.44C385.859 413.545 385.708 412.857 385.406 412.378C385.115 411.888 384.76 411.56 384.344 411.394C384.031 411.279 383.542 411.222 382.875 411.222H381.062V417.784ZM392.859 418.034C392.464 418.368 392.083 418.602 391.719 418.737C391.365 418.873 390.979 418.94 390.562 418.94C389.875 418.94 389.349 418.774 388.984 418.44C388.62 418.107 388.438 417.68 388.438 417.159C388.438 416.857 388.505 416.581 388.641 416.331C388.776 416.071 388.958 415.868 389.188 415.722C389.417 415.565 389.672 415.451 389.953 415.378C390.151 415.315 390.464 415.258 390.891 415.206C391.734 415.112 392.359 414.993 392.766 414.847C392.766 414.701 392.766 414.612 392.766 414.581C392.766 414.144 392.667 413.836 392.469 413.659C392.198 413.43 391.797 413.315 391.266 413.315C390.776 413.315 390.411 413.404 390.172 413.581C389.932 413.748 389.755 414.05 389.641 414.487L388.609 414.347C388.703 413.909 388.859 413.555 389.078 413.284C389.297 413.013 389.609 412.805 390.016 412.659C390.422 412.513 390.891 412.44 391.422 412.44C391.953 412.44 392.385 412.503 392.719 412.628C393.052 412.753 393.297 412.909 393.453 413.097C393.609 413.284 393.719 413.524 393.781 413.815C393.812 413.993 393.828 414.315 393.828 414.784V416.19C393.828 417.17 393.849 417.789 393.891 418.05C393.943 418.31 394.036 418.56 394.172 418.8H393.062C392.958 418.581 392.891 418.326 392.859 418.034ZM392.766 415.675C392.38 415.831 391.807 415.966 391.047 416.081C390.609 416.144 390.302 416.216 390.125 416.3C389.948 416.373 389.807 416.482 389.703 416.628C389.609 416.774 389.562 416.94 389.562 417.128C389.562 417.409 389.667 417.644 389.875 417.831C390.094 418.019 390.406 418.112 390.812 418.112C391.219 418.112 391.578 418.024 391.891 417.847C392.214 417.67 392.448 417.425 392.594 417.112C392.708 416.873 392.766 416.524 392.766 416.065V415.675ZM398.094 417.862L398.25 418.784C397.948 418.847 397.682 418.878 397.453 418.878C397.068 418.878 396.771 418.821 396.562 418.706C396.354 418.581 396.203 418.42 396.109 418.222C396.026 418.024 395.984 417.607 395.984 416.972V413.394H395.219V412.581H395.984V411.034L397.031 410.409V412.581H398.094V413.394H397.031V417.034C397.031 417.336 397.047 417.529 397.078 417.612C397.12 417.696 397.182 417.763 397.266 417.815C397.349 417.868 397.469 417.894 397.625 417.894C397.75 417.894 397.906 417.883 398.094 417.862ZM403.047 416.8L404.141 416.925C403.974 417.56 403.656 418.055 403.188 418.409C402.719 418.763 402.125 418.94 401.406 418.94C400.5 418.94 399.776 418.659 399.234 418.097C398.703 417.534 398.438 416.748 398.438 415.737C398.438 414.696 398.708 413.888 399.25 413.315C399.792 412.732 400.49 412.44 401.344 412.44C402.177 412.44 402.854 412.722 403.375 413.284C403.906 413.847 404.172 414.644 404.172 415.675C404.172 415.737 404.172 415.831 404.172 415.956H399.531C399.573 416.644 399.766 417.17 400.109 417.534C400.453 417.888 400.885 418.065 401.406 418.065C401.792 418.065 402.12 417.966 402.391 417.769C402.672 417.56 402.891 417.237 403.047 416.8ZM399.594 415.097H403.062C403.021 414.565 402.891 414.17 402.672 413.909C402.328 413.503 401.891 413.3 401.359 413.3C400.87 413.3 400.458 413.461 400.125 413.784C399.802 414.107 399.625 414.545 399.594 415.097Z" fill="black"/>
<path d="M33.2 258.775H24.6062V257.634H28.8719L24.6062 253.369V251.822L28.0906 255.431L33.2 251.666V253.166L28.8562 256.228L30.2156 257.634H33.2V258.775ZM32.4344 246.791C32.7677 247.186 33.0021 247.567 33.1375 247.931C33.2729 248.285 33.3406 248.671 33.3406 249.087C33.3406 249.775 33.1739 250.301 32.8406 250.666C32.5073 251.03 32.0802 251.212 31.5594 251.212C31.2573 251.212 30.9812 251.145 30.7312 251.009C30.4708 250.874 30.2677 250.692 30.1219 250.462C29.9656 250.233 29.851 249.978 29.7781 249.697C29.7156 249.499 29.6583 249.186 29.6062 248.759C29.5125 247.916 29.3927 247.291 29.2469 246.884C29.101 246.884 29.0125 246.884 28.9812 246.884C28.5437 246.884 28.2364 246.983 28.0594 247.181C27.8302 247.452 27.7156 247.853 27.7156 248.384C27.7156 248.874 27.8041 249.238 27.9812 249.478C28.1479 249.718 28.45 249.895 28.8875 250.009L28.7469 251.041C28.3094 250.947 27.9552 250.791 27.6844 250.572C27.4135 250.353 27.2052 250.041 27.0594 249.634C26.9135 249.228 26.8406 248.759 26.8406 248.228C26.8406 247.697 26.9031 247.264 27.0281 246.931C27.1531 246.598 27.3094 246.353 27.4969 246.197C27.6844 246.041 27.9239 245.931 28.2156 245.869C28.3927 245.837 28.7156 245.822 29.1844 245.822H30.5906C31.5698 245.822 32.1896 245.801 32.45 245.759C32.7104 245.707 32.9604 245.613 33.2 245.478V246.587C32.9812 246.692 32.726 246.759 32.4344 246.791ZM30.075 246.884C30.2312 247.27 30.3666 247.843 30.4812 248.603C30.5437 249.041 30.6166 249.348 30.7 249.525C30.7729 249.702 30.8823 249.843 31.0281 249.947C31.1739 250.041 31.3406 250.087 31.5281 250.087C31.8094 250.087 32.0437 249.983 32.2312 249.775C32.4187 249.556 32.5125 249.244 32.5125 248.837C32.5125 248.431 32.4239 248.072 32.2469 247.759C32.0698 247.436 31.825 247.202 31.5125 247.056C31.2729 246.942 30.9239 246.884 30.4656 246.884H30.075ZM33.7156 244.056L33.8719 243.025C34.1844 242.983 34.4135 242.863 34.5594 242.666C34.7573 242.405 34.8562 242.051 34.8562 241.603C34.8562 241.113 34.7573 240.738 34.5594 240.478C34.3614 240.207 34.0906 240.025 33.7469 239.931C33.5281 239.869 33.075 239.843 32.3875 239.853C32.9292 240.311 33.2 240.884 33.2 241.572C33.2 242.426 32.8927 243.087 32.2781 243.556C31.6531 244.025 30.9135 244.259 30.0594 244.259C29.4656 244.259 28.9187 244.155 28.4187 243.947C27.9083 243.728 27.5177 243.416 27.2469 243.009C26.976 242.603 26.8406 242.124 26.8406 241.572C26.8406 240.832 27.1375 240.223 27.7312 239.744H26.9812V238.775H32.3562C33.325 238.775 34.0125 238.874 34.4187 239.072C34.825 239.27 35.1427 239.582 35.3719 240.009C35.6114 240.436 35.7312 240.962 35.7312 241.587C35.7312 242.327 35.5646 242.926 35.2312 243.384C34.8979 243.843 34.3927 244.067 33.7156 244.056ZM29.9812 243.181C30.7937 243.181 31.3875 243.02 31.7625 242.697C32.1375 242.374 32.325 241.968 32.325 241.478C32.325 240.988 32.1375 240.582 31.7625 240.259C31.3875 239.926 30.8041 239.759 30.0125 239.759C29.2521 239.759 28.6791 239.931 28.2937 240.275C27.9083 240.608 27.7156 241.014 27.7156 241.494C27.7156 241.962 27.9083 242.363 28.2937 242.697C28.6687 243.02 29.2312 243.181 29.9812 243.181ZM32.4344 232.791C32.7677 233.186 33.0021 233.567 33.1375 233.931C33.2729 234.285 33.3406 234.671 33.3406 235.087C33.3406 235.775 33.1739 236.301 32.8406 236.666C32.5073 237.03 32.0802 237.212 31.5594 237.212C31.2573 237.212 30.9812 237.145 30.7312 237.009C30.4708 236.874 30.2677 236.692 30.1219 236.462C29.9656 236.233 29.851 235.978 29.7781 235.697C29.7156 235.499 29.6583 235.186 29.6062 234.759C29.5125 233.916 29.3927 233.291 29.2469 232.884C29.101 232.884 29.0125 232.884 28.9812 232.884C28.5437 232.884 28.2364 232.983 28.0594 233.181C27.8302 233.452 27.7156 233.853 27.7156 234.384C27.7156 234.874 27.8041 235.238 27.9812 235.478C28.1479 235.718 28.45 235.895 28.8875 236.009L28.7469 237.041C28.3094 236.947 27.9552 236.791 27.6844 236.572C27.4135 236.353 27.2052 236.041 27.0594 235.634C26.9135 235.228 26.8406 234.759 26.8406 234.228C26.8406 233.697 26.9031 233.264 27.0281 232.931C27.1531 232.598 27.3094 232.353 27.4969 232.197C27.6844 232.041 27.9239 231.931 28.2156 231.869C28.3927 231.837 28.7156 231.822 29.1844 231.822H30.5906C31.5698 231.822 32.1896 231.801 32.45 231.759C32.7104 231.707 32.9604 231.613 33.2 231.478V232.587C32.9812 232.692 32.726 232.759 32.4344 232.791ZM30.075 232.884C30.2312 233.27 30.3666 233.843 30.4812 234.603C30.5437 235.041 30.6166 235.348 30.7 235.525C30.7729 235.702 30.8823 235.843 31.0281 235.947C31.1739 236.041 31.3406 236.087 31.5281 236.087C31.8094 236.087 32.0437 235.983 32.2312 235.775C32.4187 235.556 32.5125 235.244 32.5125 234.837C32.5125 234.431 32.4239 234.072 32.2469 233.759C32.0698 233.436 31.825 233.202 31.5125 233.056C31.2729 232.942 30.9239 232.884 30.4656 232.884H30.075ZM33.2 228.712L26.9812 230.619V229.525L30.575 228.541L31.9031 228.166C31.8406 228.145 31.4135 228.035 30.6219 227.837L26.9812 226.853V225.775L30.5906 224.837L31.7781 224.525L30.575 224.166L26.9812 223.103V222.072L33.2 224.025V225.119L29.4656 226.103L28.4187 226.353L33.2 227.603V228.712ZM32.4344 216.791C32.7677 217.186 33.0021 217.567 33.1375 217.931C33.2729 218.285 33.3406 218.671 33.3406 219.087C33.3406 219.775 33.1739 220.301 32.8406 220.666C32.5073 221.03 32.0802 221.212 31.5594 221.212C31.2573 221.212 30.9812 221.145 30.7312 221.009C30.4708 220.874 30.2677 220.692 30.1219 220.462C29.9656 220.233 29.851 219.978 29.7781 219.697C29.7156 219.499 29.6583 219.186 29.6062 218.759C29.5125 217.916 29.3927 217.291 29.2469 216.884C29.101 216.884 29.0125 216.884 28.9812 216.884C28.5437 216.884 28.2364 216.983 28.0594 217.181C27.8302 217.452 27.7156 217.853 27.7156 218.384C27.7156 218.874 27.8041 219.238 27.9812 219.478C28.1479 219.718 28.45 219.895 28.8875 220.009L28.7469 221.041C28.3094 220.947 27.9552 220.791 27.6844 220.572C27.4135 220.353 27.2052 220.041 27.0594 219.634C26.9135 219.228 26.8406 218.759 26.8406 218.228C26.8406 217.697 26.9031 217.264 27.0281 216.931C27.1531 216.598 27.3094 216.353 27.4969 216.197C27.6844 216.041 27.9239 215.931 28.2156 215.869C28.3927 215.837 28.7156 215.822 29.1844 215.822H30.5906C31.5698 215.822 32.1896 215.801 32.45 215.759C32.7104 215.707 32.9604 215.613 33.2 215.478V216.587C32.9812 216.692 32.726 216.759 32.4344 216.791ZM30.075 216.884C30.2312 217.27 30.3666 217.843 30.4812 218.603C30.5437 219.041 30.6166 219.348 30.7 219.525C30.7729 219.702 30.8823 219.843 31.0281 219.947C31.1739 220.041 31.3406 220.087 31.5281 220.087C31.8094 220.087 32.0437 219.983 32.2312 219.775C32.4187 219.556 32.5125 219.244 32.5125 218.837C32.5125 218.431 32.4239 218.072 32.2469 217.759C32.0698 217.436 31.825 217.202 31.5125 217.056C31.2729 216.942 30.9239 216.884 30.4656 216.884H30.075Z" fill="black"/>
<path d="M75.7 369.565C75.7 368.545 75.8042 367.727 76.0125 367.112C76.2208 366.487 76.5281 366.008 76.9344 365.675C77.3511 365.341 77.8719 365.175 78.4969 365.175C78.9552 365.175 79.3563 365.269 79.7 365.456C80.0542 365.644 80.3458 365.914 80.575 366.269C80.8042 366.612 80.9813 367.034 81.1063 367.534C81.2313 368.034 81.2938 368.711 81.2938 369.565C81.2938 370.576 81.1896 371.388 80.9813 372.003C80.7833 372.618 80.4761 373.097 80.0594 373.44C79.6531 373.774 79.1323 373.94 78.4969 373.94C77.674 373.94 77.0229 373.644 76.5438 373.05C75.9813 372.341 75.7 371.18 75.7 369.565ZM76.7781 369.565C76.7781 370.972 76.9448 371.909 77.2781 372.378C77.6115 372.847 78.0177 373.081 78.4969 373.081C78.9865 373.081 79.3927 372.847 79.7156 372.378C80.049 371.909 80.2156 370.972 80.2156 369.565C80.2156 368.149 80.049 367.211 79.7156 366.753C79.3927 366.284 78.9813 366.05 78.4813 366.05C78.0021 366.05 77.6167 366.253 77.325 366.659C76.9604 367.18 76.7781 368.149 76.7781 369.565Z" fill="black"/>
<path d="M58.6688 281.033H57.6219V274.314C57.3615 274.554 57.0229 274.799 56.6063 275.049C56.2 275.288 55.8354 275.465 55.5125 275.58V274.564C56.0958 274.283 56.6063 273.95 57.0438 273.564C57.4917 273.169 57.8094 272.783 57.9969 272.408H58.6688V281.033ZM61.7 276.799C61.7 275.778 61.8042 274.96 62.0125 274.346C62.2208 273.721 62.5281 273.242 62.9344 272.908C63.3511 272.575 63.8719 272.408 64.4969 272.408C64.9552 272.408 65.3563 272.502 65.7 272.689C66.0542 272.877 66.3458 273.148 66.575 273.502C66.8042 273.846 66.9813 274.268 67.1063 274.768C67.2313 275.268 67.2938 275.945 67.2938 276.799C67.2938 277.809 67.1896 278.622 66.9813 279.236C66.7833 279.851 66.4761 280.33 66.0594 280.674C65.6531 281.007 65.1323 281.174 64.4969 281.174C63.674 281.174 63.0229 280.877 62.5438 280.283C61.9813 279.575 61.7 278.413 61.7 276.799ZM62.7781 276.799C62.7781 278.205 62.9448 279.143 63.2781 279.611C63.6115 280.08 64.0177 280.314 64.4969 280.314C64.9865 280.314 65.3927 280.08 65.7156 279.611C66.049 279.143 66.2156 278.205 66.2156 276.799C66.2156 275.382 66.049 274.445 65.7156 273.986C65.3927 273.518 64.9813 273.283 64.4813 273.283C64.0021 273.283 63.6167 273.486 63.325 273.893C62.9604 274.413 62.7781 275.382 62.7781 276.799ZM68.7 276.799C68.7 275.778 68.8042 274.96 69.0125 274.346C69.2208 273.721 69.5281 273.242 69.9344 272.908C70.3511 272.575 70.8719 272.408 71.4969 272.408C71.9552 272.408 72.3563 272.502 72.7 272.689C73.0542 272.877 73.3458 273.148 73.575 273.502C73.8042 273.846 73.9813 274.268 74.1063 274.768C74.2313 275.268 74.2938 275.945 74.2938 276.799C74.2938 277.809 74.1896 278.622 73.9813 279.236C73.7833 279.851 73.4761 280.33 73.0594 280.674C72.6531 281.007 72.1323 281.174 71.4969 281.174C70.674 281.174 70.0229 280.877 69.5438 280.283C68.9813 279.575 68.7 278.413 68.7 276.799ZM69.7781 276.799C69.7781 278.205 69.9448 279.143 70.2781 279.611C70.6115 280.08 71.0177 280.314 71.4969 280.314C71.9865 280.314 72.3927 280.08 72.7156 279.611C73.049 279.143 73.2156 278.205 73.2156 276.799C73.2156 275.382 73.049 274.445 72.7156 273.986C72.3927 273.518 71.9813 273.283 71.4813 273.283C71.0021 273.283 70.6167 273.486 70.325 273.893C69.9604 274.413 69.7781 275.382 69.7781 276.799ZM75.7 276.799C75.7 275.778 75.8042 274.96 76.0125 274.346C76.2208 273.721 76.5281 273.242 76.9344 272.908C77.3511 272.575 77.8719 272.408 78.4969 272.408C78.9552 272.408 79.3563 272.502 79.7 272.689C80.0542 272.877 80.3458 273.148 80.575 273.502C80.8042 273.846 80.9813 274.268 81.1063 274.768C81.2313 275.268 81.2938 275.945 81.2938 276.799C81.2938 277.809 81.1896 278.622 80.9813 279.236C80.7833 279.851 80.4761 280.33 80.0594 280.674C79.6531 281.007 79.1323 281.174 78.4969 281.174C77.674 281.174 77.0229 280.877 76.5438 280.283C75.9813 279.575 75.7 278.413 75.7 276.799ZM76.7781 276.799C76.7781 278.205 76.9448 279.143 77.2781 279.611C77.6115 280.08 78.0177 280.314 78.4969 280.314C78.9865 280.314 79.3927 280.08 79.7156 279.611C80.049 279.143 80.2156 278.205 80.2156 276.799C80.2156 275.382 80.049 274.445 79.7156 273.986C79.3927 273.518 78.9813 273.283 78.4813 273.283C78.0021 273.283 77.6167 273.486 77.325 273.893C76.9604 274.413 76.7781 275.382 76.7781 276.799Z" fill="black"/>
<path d="M60.2469 187.251V188.267H54.5594C54.5594 188.017 54.6011 187.772 54.6844 187.532C54.8302 187.147 55.0594 186.767 55.3719 186.392C55.6948 186.017 56.1583 185.584 56.7625 185.095C57.7 184.324 58.3302 183.715 58.6531 183.267C58.9865 182.819 59.1531 182.397 59.1531 182.001C59.1531 181.584 59.0021 181.235 58.7 180.954C58.3979 180.662 58.0073 180.517 57.5281 180.517C57.0177 180.517 56.6115 180.668 56.3094 180.97C56.0073 181.272 55.8511 181.694 55.8406 182.235L54.7625 182.126C54.8354 181.313 55.1115 180.699 55.5906 180.282C56.0802 179.855 56.7365 179.642 57.5594 179.642C58.3823 179.642 59.0333 179.871 59.5125 180.329C59.9917 180.787 60.2313 181.355 60.2313 182.032C60.2313 182.376 60.1583 182.715 60.0125 183.048C59.8771 183.371 59.6427 183.72 59.3094 184.095C58.9865 184.459 58.45 184.959 57.7 185.595C57.0646 186.126 56.6531 186.491 56.4656 186.688C56.2886 186.876 56.1427 187.063 56.0281 187.251H60.2469ZM61.7 184.032C61.7 183.011 61.8042 182.194 62.0125 181.579C62.2208 180.954 62.5281 180.475 62.9344 180.142C63.3511 179.808 63.8719 179.642 64.4969 179.642C64.9552 179.642 65.3563 179.735 65.7 179.923C66.0542 180.11 66.3458 180.381 66.575 180.735C66.8042 181.079 66.9813 181.501 67.1063 182.001C67.2313 182.501 67.2938 183.178 67.2938 184.032C67.2938 185.043 67.1896 185.855 66.9813 186.47C66.7833 187.084 66.4761 187.563 66.0594 187.907C65.6531 188.241 65.1323 188.407 64.4969 188.407C63.674 188.407 63.0229 188.11 62.5438 187.517C61.9813 186.808 61.7 185.647 61.7 184.032ZM62.7781 184.032C62.7781 185.438 62.9448 186.376 63.2781 186.845C63.6115 187.313 64.0177 187.548 64.4969 187.548C64.9865 187.548 65.3927 187.313 65.7156 186.845C66.049 186.376 66.2156 185.438 66.2156 184.032C66.2156 182.616 66.049 181.678 65.7156 181.22C65.3927 180.751 64.9813 180.517 64.4813 180.517C64.0021 180.517 63.6167 180.72 63.325 181.126C62.9604 181.647 62.7781 182.616 62.7781 184.032ZM68.7 184.032C68.7 183.011 68.8042 182.194 69.0125 181.579C69.2208 180.954 69.5281 180.475 69.9344 180.142C70.3511 179.808 70.8719 179.642 71.4969 179.642C71.9552 179.642 72.3563 179.735 72.7 179.923C73.0542 180.11 73.3458 180.381 73.575 180.735C73.8042 181.079 73.9813 181.501 74.1063 182.001C74.2313 182.501 74.2938 183.178 74.2938 184.032C74.2938 185.043 74.1896 185.855 73.9813 186.47C73.7833 187.084 73.4761 187.563 73.0594 187.907C72.6531 188.241 72.1323 188.407 71.4969 188.407C70.674 188.407 70.0229 188.11 69.5438 187.517C68.9813 186.808 68.7 185.647 68.7 184.032ZM69.7781 184.032C69.7781 185.438 69.9448 186.376 70.2781 186.845C70.6115 187.313 71.0177 187.548 71.4969 187.548C71.9865 187.548 72.3927 187.313 72.7156 186.845C73.049 186.376 73.2156 185.438 73.2156 184.032C73.2156 182.616 73.049 181.678 72.7156 181.22C72.3927 180.751 71.9813 180.517 71.4813 180.517C71.0021 180.517 70.6167 180.72 70.325 181.126C69.9604 181.647 69.7781 182.616 69.7781 184.032ZM75.7 184.032C75.7 183.011 75.8042 182.194 76.0125 181.579C76.2208 180.954 76.5281 180.475 76.9344 180.142C77.3511 179.808 77.8719 179.642 78.4969 179.642C78.9552 179.642 79.3563 179.735 79.7 179.923C80.0542 180.11 80.3458 180.381 80.575 180.735C80.8042 181.079 80.9813 181.501 81.1063 182.001C81.2313 182.501 81.2938 183.178 81.2938 184.032C81.2938 185.043 81.1896 185.855 80.9813 186.47C80.7833 187.084 80.4761 187.563 80.0594 187.907C79.6531 188.241 79.1323 188.407 78.4969 188.407C77.674 188.407 77.0229 188.11 76.5438 187.517C75.9813 186.808 75.7 185.647 75.7 184.032ZM76.7781 184.032C76.7781 185.438 76.9448 186.376 77.2781 186.845C77.6115 187.313 78.0177 187.548 78.4969 187.548C78.9865 187.548 79.3927 187.313 79.7156 186.845C80.049 186.376 80.2156 185.438 80.2156 184.032C80.2156 182.616 80.049 181.678 79.7156 181.22C79.3927 180.751 78.9813 180.517 78.4813 180.517C78.0021 180.517 77.6167 180.72 77.325 181.126C76.9604 181.647 76.7781 182.616 76.7781 184.032Z" fill="black"/>
<path d="M54.7 93.2344L55.7625 93.0938C55.8771 93.6875 56.0802 94.1198 56.3719 94.3906C56.6636 94.651 57.0177 94.7812 57.4344 94.7812C57.9344 94.7812 58.3563 94.6094 58.7 94.2656C59.0438 93.9219 59.2156 93.4948 59.2156 92.9844C59.2156 92.5052 59.0542 92.1094 58.7313 91.7969C58.4188 91.474 58.0177 91.3125 57.5281 91.3125C57.3302 91.3125 57.0802 91.3542 56.7781 91.4375L56.9031 90.5C56.9761 90.5104 57.0333 90.5156 57.075 90.5156C57.5229 90.5156 57.924 90.401 58.2781 90.1719C58.6427 89.9323 58.825 89.5677 58.825 89.0781C58.825 88.6927 58.6948 88.375 58.4344 88.125C58.174 87.8646 57.8354 87.7344 57.4188 87.7344C57.0125 87.7344 56.6688 87.8646 56.3875 88.125C56.1167 88.3854 55.9448 88.7708 55.8719 89.2812L54.8094 89.0938C54.9344 88.3958 55.2261 87.8542 55.6844 87.4688C56.1427 87.0729 56.7104 86.875 57.3875 86.875C57.8563 86.875 58.2886 86.9792 58.6844 87.1875C59.0802 87.3854 59.3823 87.6562 59.5906 88C59.799 88.3438 59.9031 88.7135 59.9031 89.1094C59.9031 89.474 59.8042 89.8125 59.6063 90.125C59.4083 90.4271 59.1167 90.6667 58.7313 90.8438C59.2313 90.9583 59.6219 91.2031 59.9031 91.5781C60.1844 91.9427 60.325 92.4062 60.325 92.9688C60.325 93.7188 60.049 94.3542 59.4969 94.875C58.9552 95.3958 58.2677 95.6562 57.4344 95.6562C56.6844 95.6562 56.0594 95.4323 55.5594 94.9844C55.0594 94.526 54.7729 93.9427 54.7 93.2344ZM61.7 91.2656C61.7 90.2448 61.8042 89.4271 62.0125 88.8125C62.2208 88.1875 62.5281 87.7083 62.9344 87.375C63.3511 87.0417 63.8719 86.875 64.4969 86.875C64.9552 86.875 65.3563 86.9688 65.7 87.1562C66.0542 87.3438 66.3458 87.6146 66.575 87.9688C66.8042 88.3125 66.9813 88.7344 67.1063 89.2344C67.2313 89.7344 67.2938 90.4115 67.2938 91.2656C67.2938 92.276 67.1896 93.0885 66.9813 93.7031C66.7833 94.3177 66.4761 94.7969 66.0594 95.1406C65.6531 95.474 65.1323 95.6406 64.4969 95.6406C63.674 95.6406 63.0229 95.3438 62.5438 94.75C61.9813 94.0417 61.7 92.8802 61.7 91.2656ZM62.7781 91.2656C62.7781 92.6719 62.9448 93.6094 63.2781 94.0781C63.6115 94.5469 64.0177 94.7812 64.4969 94.7812C64.9865 94.7812 65.3927 94.5469 65.7156 94.0781C66.049 93.6094 66.2156 92.6719 66.2156 91.2656C66.2156 89.849 66.049 88.9115 65.7156 88.4531C65.3927 87.9844 64.9813 87.75 64.4813 87.75C64.0021 87.75 63.6167 87.9531 63.325 88.3594C62.9604 88.8802 62.7781 89.849 62.7781 91.2656ZM68.7 91.2656C68.7 90.2448 68.8042 89.4271 69.0125 88.8125C69.2208 88.1875 69.5281 87.7083 69.9344 87.375C70.3511 87.0417 70.8719 86.875 71.4969 86.875C71.9552 86.875 72.3563 86.9688 72.7 87.1562C73.0542 87.3438 73.3458 87.6146 73.575 87.9688C73.8042 88.3125 73.9813 88.7344 74.1063 89.2344C74.2313 89.7344 74.2938 90.4115 74.2938 91.2656C74.2938 92.276 74.1896 93.0885 73.9813 93.7031C73.7833 94.3177 73.4761 94.7969 73.0594 95.1406C72.6531 95.474 72.1323 95.6406 71.4969 95.6406C70.674 95.6406 70.0229 95.3438 69.5438 94.75C68.9813 94.0417 68.7 92.8802 68.7 91.2656ZM69.7781 91.2656C69.7781 92.6719 69.9448 93.6094 70.2781 94.0781C70.6115 94.5469 71.0177 94.7812 71.4969 94.7812C71.9865 94.7812 72.3927 94.5469 72.7156 94.0781C73.049 93.6094 73.2156 92.6719 73.2156 91.2656C73.2156 89.849 73.049 88.9115 72.7156 88.4531C72.3927 87.9844 71.9813 87.75 71.4813 87.75C71.0021 87.75 70.6167 87.9531 70.325 88.3594C69.9604 88.8802 69.7781 89.849 69.7781 91.2656ZM75.7 91.2656C75.7 90.2448 75.8042 89.4271 76.0125 88.8125C76.2208 88.1875 76.5281 87.7083 76.9344 87.375C77.3511 87.0417 77.8719 86.875 78.4969 86.875C78.9552 86.875 79.3563 86.9688 79.7 87.1562C80.0542 87.3438 80.3458 87.6146 80.575 87.9688C80.8042 88.3125 80.9813 88.7344 81.1063 89.2344C81.2313 89.7344 81.2938 90.4115 81.2938 91.2656C81.2938 92.276 81.1896 93.0885 80.9813 93.7031C80.7833 94.3177 80.4761 94.7969 80.0594 95.1406C79.6531 95.474 79.1323 95.6406 78.4969 95.6406C77.674 95.6406 77.0229 95.3438 76.5438 94.75C75.9813 94.0417 75.7 92.8802 75.7 91.2656ZM76.7781 91.2656C76.7781 92.6719 76.9448 93.6094 77.2781 94.0781C77.6115 94.5469 78.0177 94.7812 78.4969 94.7812C78.9865 94.7812 79.3927 94.5469 79.7156 94.0781C80.049 93.6094 80.2156 92.6719 80.2156 91.2656C80.2156 89.849 80.049 88.9115 79.7156 88.4531C79.3927 87.9844 78.9813 87.75 78.4813 87.75C78.0021 87.75 77.6167 87.9531 77.325 88.3594C76.9604 88.8802 76.7781 89.849 76.7781 91.2656Z" fill="black"/>
<path d="M168.052 386.8V384.737H164.333V383.769L168.255 378.206H169.114V383.769H170.271V384.737H169.114V386.8H168.052ZM168.052 383.769V379.909L165.364 383.769H168.052ZM175.052 386.8V384.737H171.333V383.769L175.255 378.206H176.114V383.769H177.271V384.737H176.114V386.8H175.052ZM175.052 383.769V379.909L172.364 383.769H175.052ZM178.677 382.565C178.677 381.545 178.781 380.727 178.989 380.112C179.198 379.487 179.505 379.008 179.911 378.675C180.328 378.341 180.849 378.175 181.474 378.175C181.932 378.175 182.333 378.269 182.677 378.456C183.031 378.644 183.323 378.914 183.552 379.269C183.781 379.612 183.958 380.034 184.083 380.534C184.208 381.034 184.271 381.711 184.271 382.565C184.271 383.576 184.167 384.388 183.958 385.003C183.76 385.618 183.453 386.097 183.036 386.44C182.63 386.774 182.109 386.94 181.474 386.94C180.651 386.94 180 386.644 179.521 386.05C178.958 385.341 178.677 384.18 178.677 382.565ZM179.755 382.565C179.755 383.972 179.922 384.909 180.255 385.378C180.588 385.847 180.995 386.081 181.474 386.081C181.963 386.081 182.37 385.847 182.693 385.378C183.026 384.909 183.193 383.972 183.193 382.565C183.193 381.149 183.026 380.211 182.693 379.753C182.37 379.284 181.958 379.05 181.458 379.05C180.979 379.05 180.594 379.253 180.302 379.659C179.937 380.18 179.755 381.149 179.755 382.565ZM185.677 382.565C185.677 381.545 185.781 380.727 185.989 380.112C186.198 379.487 186.505 379.008 186.911 378.675C187.328 378.341 187.849 378.175 188.474 378.175C188.932 378.175 189.333 378.269 189.677 378.456C190.031 378.644 190.323 378.914 190.552 379.269C190.781 379.612 190.958 380.034 191.083 380.534C191.208 381.034 191.271 381.711 191.271 382.565C191.271 383.576 191.167 384.388 190.958 385.003C190.76 385.618 190.453 386.097 190.036 386.44C189.63 386.774 189.109 386.94 188.474 386.94C187.651 386.94 187 386.644 186.521 386.05C185.958 385.341 185.677 384.18 185.677 382.565ZM186.755 382.565C186.755 383.972 186.922 384.909 187.255 385.378C187.588 385.847 187.995 386.081 188.474 386.081C188.963 386.081 189.37 385.847 189.693 385.378C190.026 384.909 190.193 383.972 190.193 382.565C190.193 381.149 190.026 380.211 189.693 379.753C189.37 379.284 188.958 379.05 188.458 379.05C187.979 379.05 187.594 379.253 187.302 379.659C186.937 380.18 186.755 381.149 186.755 382.565ZM192.677 382.565C192.677 381.545 192.781 380.727 192.989 380.112C193.198 379.487 193.505 379.008 193.911 378.675C194.328 378.341 194.849 378.175 195.474 378.175C195.932 378.175 196.333 378.269 196.677 378.456C197.031 378.644 197.323 378.914 197.552 379.269C197.781 379.612 197.958 380.034 198.083 380.534C198.208 381.034 198.271 381.711 198.271 382.565C198.271 383.576 198.167 384.388 197.958 385.003C197.76 385.618 197.453 386.097 197.036 386.44C196.63 386.774 196.109 386.94 195.474 386.94C194.651 386.94 194 386.644 193.521 386.05C192.958 385.341 192.677 384.18 192.677 382.565ZM193.755 382.565C193.755 383.972 193.922 384.909 194.255 385.378C194.588 385.847 194.995 386.081 195.474 386.081C195.963 386.081 196.37 385.847 196.693 385.378C197.026 384.909 197.193 383.972 197.193 382.565C197.193 381.149 197.026 380.211 196.693 379.753C196.37 379.284 195.958 379.05 195.458 379.05C194.979 379.05 194.594 379.253 194.302 379.659C193.937 380.18 193.755 381.149 193.755 382.565Z" fill="black"/>
<path d="M289.451 386.8V384.737H285.732V383.769L289.654 378.206H290.513V383.769H291.669V384.737H290.513V386.8H289.451ZM289.451 383.769V379.909L286.763 383.769H289.451ZM296.451 386.8V384.737H292.732V383.769L296.654 378.206H297.513V383.769H298.669V384.737H297.513V386.8H296.451ZM296.451 383.769V379.909L293.763 383.769H296.451ZM305.622 385.784V386.8H299.935C299.935 386.55 299.977 386.305 300.06 386.065C300.206 385.68 300.435 385.3 300.747 384.925C301.07 384.55 301.534 384.118 302.138 383.628C303.076 382.857 303.706 382.248 304.029 381.8C304.362 381.352 304.529 380.93 304.529 380.534C304.529 380.118 304.378 379.769 304.076 379.487C303.773 379.196 303.383 379.05 302.904 379.05C302.393 379.05 301.987 379.201 301.685 379.503C301.383 379.805 301.227 380.227 301.216 380.769L300.138 380.659C300.211 379.847 300.487 379.232 300.966 378.815C301.456 378.388 302.112 378.175 302.935 378.175C303.758 378.175 304.409 378.404 304.888 378.862C305.367 379.321 305.607 379.888 305.607 380.565C305.607 380.909 305.534 381.248 305.388 381.581C305.253 381.904 305.018 382.253 304.685 382.628C304.362 382.993 303.826 383.493 303.076 384.128C302.44 384.659 302.029 385.024 301.841 385.222C301.664 385.409 301.518 385.597 301.404 385.784H305.622ZM307.076 382.565C307.076 381.545 307.18 380.727 307.388 380.112C307.596 379.487 307.904 379.008 308.31 378.675C308.727 378.341 309.247 378.175 309.872 378.175C310.331 378.175 310.732 378.269 311.076 378.456C311.43 378.644 311.721 378.914 311.951 379.269C312.18 379.612 312.357 380.034 312.482 380.534C312.607 381.034 312.669 381.711 312.669 382.565C312.669 383.576 312.565 384.388 312.357 385.003C312.159 385.618 311.852 386.097 311.435 386.44C311.029 386.774 310.508 386.94 309.872 386.94C309.049 386.94 308.398 386.644 307.919 386.05C307.357 385.341 307.076 384.18 307.076 382.565ZM308.154 382.565C308.154 383.972 308.32 384.909 308.654 385.378C308.987 385.847 309.393 386.081 309.872 386.081C310.362 386.081 310.768 385.847 311.091 385.378C311.424 384.909 311.591 383.972 311.591 382.565C311.591 381.149 311.424 380.211 311.091 379.753C310.768 379.284 310.357 379.05 309.857 379.05C309.378 379.05 308.992 379.253 308.701 379.659C308.336 380.18 308.154 381.149 308.154 382.565ZM314.076 382.565C314.076 381.545 314.18 380.727 314.388 380.112C314.596 379.487 314.904 379.008 315.31 378.675C315.727 378.341 316.247 378.175 316.872 378.175C317.331 378.175 317.732 378.269 318.076 378.456C318.43 378.644 318.721 378.914 318.951 379.269C319.18 379.612 319.357 380.034 319.482 380.534C319.607 381.034 319.669 381.711 319.669 382.565C319.669 383.576 319.565 384.388 319.357 385.003C319.159 385.618 318.852 386.097 318.435 386.44C318.029 386.774 317.508 386.94 316.872 386.94C316.049 386.94 315.398 386.644 314.919 386.05C314.357 385.341 314.076 384.18 314.076 382.565ZM315.154 382.565C315.154 383.972 315.32 384.909 315.654 385.378C315.987 385.847 316.393 386.081 316.872 386.081C317.362 386.081 317.768 385.847 318.091 385.378C318.424 384.909 318.591 383.972 318.591 382.565C318.591 381.149 318.424 380.211 318.091 379.753C317.768 379.284 317.357 379.05 316.857 379.05C316.378 379.05 315.992 379.253 315.701 379.659C315.336 380.18 315.154 381.149 315.154 382.565Z" fill="black"/>
<path d="M410.849 386.8V384.737H407.13V383.769L411.052 378.206H411.912V383.769H413.068V384.737H411.912V386.8H410.849ZM410.849 383.769V379.909L408.162 383.769H410.849ZM417.849 386.8V384.737H414.13V383.769L418.052 378.206H418.912V383.769H420.068V384.737H418.912V386.8H417.849ZM417.849 383.769V379.909L415.162 383.769H417.849ZM424.849 386.8V384.737H421.13V383.769L425.052 378.206H425.912V383.769H427.068V384.737H425.912V386.8H424.849ZM424.849 383.769V379.909L422.162 383.769H424.849ZM428.474 382.565C428.474 381.545 428.578 380.727 428.787 380.112C428.995 379.487 429.302 379.008 429.708 378.675C430.125 378.341 430.646 378.175 431.271 378.175C431.729 378.175 432.13 378.269 432.474 378.456C432.828 378.644 433.12 378.914 433.349 379.269C433.578 379.612 433.755 380.034 433.88 380.534C434.005 381.034 434.068 381.711 434.068 382.565C434.068 383.576 433.964 384.388 433.755 385.003C433.557 385.618 433.25 386.097 432.833 386.44C432.427 386.774 431.906 386.94 431.271 386.94C430.448 386.94 429.797 386.644 429.318 386.05C428.755 385.341 428.474 384.18 428.474 382.565ZM429.552 382.565C429.552 383.972 429.719 384.909 430.052 385.378C430.386 385.847 430.792 386.081 431.271 386.081C431.761 386.081 432.167 385.847 432.49 385.378C432.823 384.909 432.99 383.972 432.99 382.565C432.99 381.149 432.823 380.211 432.49 379.753C432.167 379.284 431.755 379.05 431.255 379.05C430.776 379.05 430.391 379.253 430.099 379.659C429.735 380.18 429.552 381.149 429.552 382.565ZM435.474 382.565C435.474 381.545 435.578 380.727 435.787 380.112C435.995 379.487 436.302 379.008 436.708 378.675C437.125 378.341 437.646 378.175 438.271 378.175C438.729 378.175 439.13 378.269 439.474 378.456C439.828 378.644 440.12 378.914 440.349 379.269C440.578 379.612 440.755 380.034 440.88 380.534C441.005 381.034 441.068 381.711 441.068 382.565C441.068 383.576 440.964 384.388 440.755 385.003C440.557 385.618 440.25 386.097 439.833 386.44C439.427 386.774 438.906 386.94 438.271 386.94C437.448 386.94 436.797 386.644 436.318 386.05C435.755 385.341 435.474 384.18 435.474 382.565ZM436.552 382.565C436.552 383.972 436.719 384.909 437.052 385.378C437.386 385.847 437.792 386.081 438.271 386.081C438.761 386.081 439.167 385.847 439.49 385.378C439.823 384.909 439.99 383.972 439.99 382.565C439.99 381.149 439.823 380.211 439.49 379.753C439.167 379.284 438.755 379.05 438.255 379.05C437.776 379.05 437.391 379.253 437.099 379.659C436.735 380.18 436.552 381.149 436.552 382.565Z" fill="black"/>
<path d="M532.248 386.8V384.737H528.529V383.769L532.451 378.206H533.31V383.769H534.466V384.737H533.31V386.8H532.248ZM532.248 383.769V379.909L529.56 383.769H532.248ZM539.248 386.8V384.737H535.529V383.769L539.451 378.206H540.31V383.769H541.466V384.737H540.31V386.8H539.248ZM539.248 383.769V379.909L536.56 383.769H539.248ZM548.341 380.315L547.295 380.394C547.201 379.977 547.071 379.675 546.904 379.487C546.612 379.185 546.258 379.034 545.841 379.034C545.508 379.034 545.211 379.128 544.951 379.315C544.628 379.565 544.368 379.925 544.17 380.394C543.982 380.852 543.883 381.508 543.873 382.362C544.123 381.977 544.43 381.69 544.795 381.503C545.17 381.315 545.56 381.222 545.966 381.222C546.664 381.222 547.258 381.482 547.748 382.003C548.248 382.524 548.498 383.19 548.498 384.003C548.498 384.545 548.378 385.05 548.138 385.519C547.909 385.977 547.591 386.331 547.185 386.581C546.779 386.821 546.321 386.94 545.81 386.94C544.925 386.94 544.206 386.618 543.654 385.972C543.102 385.326 542.826 384.263 542.826 382.784C542.826 381.118 543.133 379.909 543.748 379.159C544.279 378.503 544.998 378.175 545.904 378.175C546.581 378.175 547.133 378.368 547.56 378.753C547.998 379.128 548.258 379.649 548.341 380.315ZM544.045 384.019C544.045 384.383 544.118 384.732 544.263 385.065C544.42 385.388 544.633 385.638 544.904 385.815C545.185 385.993 545.482 386.081 545.795 386.081C546.232 386.081 546.612 385.904 546.935 385.55C547.258 385.185 547.42 384.696 547.42 384.081C547.42 383.487 547.258 383.019 546.935 382.675C546.623 382.331 546.227 382.159 545.748 382.159C545.269 382.159 544.862 382.331 544.529 382.675C544.206 383.019 544.045 383.466 544.045 384.019ZM549.873 382.565C549.873 381.545 549.977 380.727 550.185 380.112C550.394 379.487 550.701 379.008 551.107 378.675C551.524 378.341 552.045 378.175 552.67 378.175C553.128 378.175 553.529 378.269 553.873 378.456C554.227 378.644 554.519 378.914 554.748 379.269C554.977 379.612 555.154 380.034 555.279 380.534C555.404 381.034 555.466 381.711 555.466 382.565C555.466 383.576 555.362 384.388 555.154 385.003C554.956 385.618 554.649 386.097 554.232 386.44C553.826 386.774 553.305 386.94 552.67 386.94C551.847 386.94 551.196 386.644 550.716 386.05C550.154 385.341 549.873 384.18 549.873 382.565ZM550.951 382.565C550.951 383.972 551.118 384.909 551.451 385.378C551.784 385.847 552.19 386.081 552.67 386.081C553.159 386.081 553.565 385.847 553.888 385.378C554.222 384.909 554.388 383.972 554.388 382.565C554.388 381.149 554.222 380.211 553.888 379.753C553.565 379.284 553.154 379.05 552.654 379.05C552.175 379.05 551.789 379.253 551.498 379.659C551.133 380.18 550.951 381.149 550.951 382.565ZM556.873 382.565C556.873 381.545 556.977 380.727 557.185 380.112C557.394 379.487 557.701 379.008 558.107 378.675C558.524 378.341 559.045 378.175 559.67 378.175C560.128 378.175 560.529 378.269 560.873 378.456C561.227 378.644 561.519 378.914 561.748 379.269C561.977 379.612 562.154 380.034 562.279 380.534C562.404 381.034 562.466 381.711 562.466 382.565C562.466 383.576 562.362 384.388 562.154 385.003C561.956 385.618 561.649 386.097 561.232 386.44C560.826 386.774 560.305 386.94 559.67 386.94C558.847 386.94 558.196 386.644 557.716 386.05C557.154 385.341 556.873 384.18 556.873 382.565ZM557.951 382.565C557.951 383.972 558.118 384.909 558.451 385.378C558.784 385.847 559.19 386.081 559.67 386.081C560.159 386.081 560.565 385.847 560.888 385.378C561.222 384.909 561.388 383.972 561.388 382.565C561.388 381.149 561.222 380.211 560.888 379.753C560.565 379.284 560.154 379.05 559.654 379.05C559.175 379.05 558.789 379.253 558.498 379.659C558.133 380.18 557.951 381.149 557.951 382.565Z" fill="black"/>
<path d="M653.646 386.8V384.737H649.928V383.769L653.849 378.206H654.709V383.769H655.865V384.737H654.709V386.8H653.646ZM653.646 383.769V379.909L650.959 383.769H653.646ZM660.646 386.8V384.737H656.928V383.769L660.849 378.206H661.709V383.769H662.865V384.737H661.709V386.8H660.646ZM660.646 383.769V379.909L657.959 383.769H660.646ZM665.896 382.144C665.459 381.977 665.131 381.748 664.912 381.456C664.704 381.154 664.599 380.8 664.599 380.394C664.599 379.769 664.823 379.243 665.271 378.815C665.73 378.388 666.329 378.175 667.068 378.175C667.818 378.175 668.422 378.394 668.881 378.831C669.339 379.269 669.568 379.8 669.568 380.425C669.568 380.821 669.464 381.164 669.256 381.456C669.047 381.748 668.73 381.977 668.303 382.144C668.834 382.31 669.235 382.586 669.506 382.972C669.776 383.357 669.912 383.815 669.912 384.347C669.912 385.076 669.651 385.69 669.131 386.19C668.62 386.69 667.938 386.94 667.084 386.94C666.24 386.94 665.558 386.69 665.037 386.19C664.516 385.69 664.256 385.065 664.256 384.315C664.256 383.753 664.396 383.284 664.678 382.909C664.969 382.534 665.375 382.279 665.896 382.144ZM665.678 380.347C665.678 380.753 665.808 381.086 666.068 381.347C666.339 381.607 666.683 381.737 667.099 381.737C667.506 381.737 667.839 381.612 668.099 381.362C668.36 381.102 668.49 380.784 668.49 380.409C668.49 380.024 668.355 379.701 668.084 379.44C667.813 379.17 667.48 379.034 667.084 379.034C666.678 379.034 666.339 379.164 666.068 379.425C665.808 379.685 665.678 379.993 665.678 380.347ZM665.349 384.315C665.349 384.618 665.417 384.909 665.553 385.19C665.698 385.472 665.912 385.69 666.193 385.847C666.474 386.003 666.777 386.081 667.099 386.081C667.599 386.081 668.011 385.92 668.334 385.597C668.667 385.274 668.834 384.862 668.834 384.362C668.834 383.852 668.667 383.43 668.334 383.097C668 382.763 667.579 382.597 667.068 382.597C666.568 382.597 666.157 382.763 665.834 383.097C665.511 383.42 665.349 383.826 665.349 384.315ZM671.271 382.565C671.271 381.545 671.375 380.727 671.584 380.112C671.792 379.487 672.099 379.008 672.506 378.675C672.922 378.341 673.443 378.175 674.068 378.175C674.527 378.175 674.928 378.269 675.271 378.456C675.625 378.644 675.917 378.914 676.146 379.269C676.375 379.612 676.553 380.034 676.678 380.534C676.803 381.034 676.865 381.711 676.865 382.565C676.865 383.576 676.761 384.388 676.553 385.003C676.355 385.618 676.047 386.097 675.631 386.44C675.224 386.774 674.704 386.94 674.068 386.94C673.245 386.94 672.594 386.644 672.115 386.05C671.553 385.341 671.271 384.18 671.271 382.565ZM672.349 382.565C672.349 383.972 672.516 384.909 672.849 385.378C673.183 385.847 673.589 386.081 674.068 386.081C674.558 386.081 674.964 385.847 675.287 385.378C675.62 384.909 675.787 383.972 675.787 382.565C675.787 381.149 675.62 380.211 675.287 379.753C674.964 379.284 674.553 379.05 674.053 379.05C673.573 379.05 673.188 379.253 672.896 379.659C672.532 380.18 672.349 381.149 672.349 382.565ZM678.271 382.565C678.271 381.545 678.375 380.727 678.584 380.112C678.792 379.487 679.099 379.008 679.506 378.675C679.922 378.341 680.443 378.175 681.068 378.175C681.527 378.175 681.928 378.269 682.271 378.456C682.625 378.644 682.917 378.914 683.146 379.269C683.375 379.612 683.553 380.034 683.678 380.534C683.803 381.034 683.865 381.711 683.865 382.565C683.865 383.576 683.761 384.388 683.553 385.003C683.355 385.618 683.047 386.097 682.631 386.44C682.224 386.774 681.704 386.94 681.068 386.94C680.245 386.94 679.594 386.644 679.115 386.05C678.553 385.341 678.271 384.18 678.271 382.565ZM679.349 382.565C679.349 383.972 679.516 384.909 679.849 385.378C680.183 385.847 680.589 386.081 681.068 386.081C681.558 386.081 681.964 385.847 682.287 385.378C682.62 384.909 682.787 383.972 682.787 382.565C682.787 381.149 682.62 380.211 682.287 379.753C681.964 379.284 681.553 379.05 681.053 379.05C680.573 379.05 680.188 379.253 679.896 379.659C679.532 380.18 679.349 381.149 679.349 382.565Z" fill="black"/>
<path d="M576.847 65.5127V66.7002H570.222C570.211 66.4085 570.258 66.1221 570.363 65.8408C570.54 65.3929 570.81 64.9502 571.175 64.5127C571.55 64.0752 572.086 63.57 572.784 62.9971C573.878 62.1012 574.613 61.3929 574.988 60.8721C575.373 60.3512 575.566 59.8564 575.566 59.3877C575.566 58.8981 575.389 58.4867 575.034 58.1533C574.691 57.82 574.243 57.6533 573.691 57.6533C573.097 57.6533 572.618 57.8304 572.253 58.1846C571.899 58.5387 571.722 59.0335 571.722 59.6689L570.456 59.5283C570.54 58.5908 570.862 57.8773 571.425 57.3877C571.998 56.8877 572.758 56.6377 573.706 56.6377C574.675 56.6377 575.435 56.9033 575.988 57.4346C576.55 57.9658 576.831 58.6273 576.831 59.4189C576.831 59.8252 576.748 60.221 576.581 60.6064C576.425 60.9919 576.154 61.3981 575.769 61.8252C575.394 62.2523 574.764 62.8408 573.878 63.5908C573.139 64.2054 572.665 64.6273 572.456 64.8564C572.248 65.0752 572.076 65.2939 571.941 65.5127H576.847ZM578.378 61.7627C578.378 60.5752 578.498 59.6221 578.738 58.9033C578.988 58.1742 579.352 57.6169 579.831 57.2314C580.31 56.8356 580.915 56.6377 581.644 56.6377C582.185 56.6377 582.659 56.7471 583.066 56.9658C583.472 57.1846 583.805 57.4971 584.066 57.9033C584.336 58.3096 584.545 58.8044 584.691 59.3877C584.836 59.971 584.909 60.7627 584.909 61.7627C584.909 62.9398 584.79 63.8877 584.55 64.6064C584.31 65.3252 583.951 65.8825 583.472 66.2783C582.993 66.6742 582.383 66.8721 581.644 66.8721C580.685 66.8721 579.93 66.5231 579.378 65.8252C578.711 64.9919 578.378 63.6377 578.378 61.7627ZM579.644 61.7627C579.644 63.4085 579.836 64.5023 580.222 65.0439C580.607 65.5856 581.081 65.8564 581.644 65.8564C582.217 65.8564 582.696 65.5856 583.081 65.0439C583.467 64.4919 583.659 63.3981 583.659 61.7627C583.659 60.1064 583.467 59.0075 583.081 58.4658C582.696 57.9242 582.211 57.6533 581.628 57.6533C581.066 57.6533 580.618 57.8929 580.284 58.3721C579.857 58.9867 579.644 60.1169 579.644 61.7627ZM592.847 65.5127V66.7002H586.222C586.211 66.4085 586.258 66.1221 586.363 65.8408C586.54 65.3929 586.81 64.9502 587.175 64.5127C587.55 64.0752 588.086 63.57 588.784 62.9971C589.878 62.1012 590.613 61.3929 590.988 60.8721C591.373 60.3512 591.566 59.8564 591.566 59.3877C591.566 58.8981 591.389 58.4867 591.034 58.1533C590.691 57.82 590.243 57.6533 589.691 57.6533C589.097 57.6533 588.618 57.8304 588.253 58.1846C587.899 58.5387 587.722 59.0335 587.722 59.6689L586.456 59.5283C586.54 58.5908 586.862 57.8773 587.425 57.3877C587.998 56.8877 588.758 56.6377 589.706 56.6377C590.675 56.6377 591.435 56.9033 591.988 57.4346C592.55 57.9658 592.831 58.6273 592.831 59.4189C592.831 59.8252 592.748 60.221 592.581 60.6064C592.425 60.9919 592.154 61.3981 591.769 61.8252C591.394 62.2523 590.764 62.8408 589.878 63.5908C589.139 64.2054 588.665 64.6273 588.456 64.8564C588.248 65.0752 588.076 65.2939 587.941 65.5127H592.847ZM600.847 65.5127V66.7002H594.222C594.211 66.4085 594.258 66.1221 594.363 65.8408C594.54 65.3929 594.81 64.9502 595.175 64.5127C595.55 64.0752 596.086 63.57 596.784 62.9971C597.878 62.1012 598.613 61.3929 598.988 60.8721C599.373 60.3512 599.566 59.8564 599.566 59.3877C599.566 58.8981 599.389 58.4867 599.034 58.1533C598.691 57.82 598.243 57.6533 597.691 57.6533C597.097 57.6533 596.618 57.8304 596.253 58.1846C595.899 58.5387 595.722 59.0335 595.722 59.6689L594.456 59.5283C594.54 58.5908 594.862 57.8773 595.425 57.3877C595.998 56.8877 596.758 56.6377 597.706 56.6377C598.675 56.6377 599.435 56.9033 599.988 57.4346C600.55 57.9658 600.831 58.6273 600.831 59.4189C600.831 59.8252 600.748 60.221 600.581 60.6064C600.425 60.9919 600.154 61.3981 599.769 61.8252C599.394 62.2523 598.764 62.8408 597.878 63.5908C597.139 64.2054 596.665 64.6273 596.456 64.8564C596.248 65.0752 596.076 65.2939 595.941 65.5127H600.847Z" fill="#999999"/>
<path d="M606.175 58.1689C605.487 59.3669 604.633 60.3669 603.612 61.1689L602.847 60.1846C604.336 59.0908 605.357 57.5075 605.909 55.4346L607.159 55.7627C607.305 55.9085 607.253 55.9971 607.003 56.0283L606.566 57.1221H614.269V58.1689H610.284V60.0283H613.566V61.0596H610.284V63.5283H614.878V64.5596H610.284V67.8564H609.191V64.5596H602.894V63.5283H605.362V60.0283H609.191V58.1689H606.175ZM606.456 63.5283H609.191V61.0596H606.456V63.5283Z" fill="#999999"/>
<path d="M616.566 64.3877L617.753 64.2783C617.847 64.8304 618.034 65.2314 618.316 65.4814C618.607 65.7314 618.972 65.8564 619.409 65.8564C619.784 65.8564 620.112 65.7731 620.394 65.6064C620.685 65.4294 620.92 65.195 621.097 64.9033C621.284 64.6117 621.441 64.221 621.566 63.7314C621.691 63.2419 621.753 62.7419 621.753 62.2314C621.753 62.1794 621.748 62.096 621.737 61.9814C621.498 62.3773 621.165 62.7002 620.737 62.9502C620.31 63.1898 619.847 63.3096 619.347 63.3096C618.514 63.3096 617.81 63.0075 617.237 62.4033C616.665 61.7992 616.378 61.0075 616.378 60.0283C616.378 59.0075 616.675 58.1898 617.269 57.5752C617.873 56.9502 618.628 56.6377 619.534 56.6377C620.18 56.6377 620.774 56.8148 621.316 57.1689C621.857 57.5127 622.269 58.0127 622.55 58.6689C622.831 59.3148 622.972 60.2523 622.972 61.4814C622.972 62.7627 622.831 63.7835 622.55 64.5439C622.279 65.3044 621.868 65.8825 621.316 66.2783C620.764 66.6742 620.118 66.8721 619.378 66.8721C618.597 66.8721 617.956 66.6533 617.456 66.2158C616.967 65.7783 616.67 65.1689 616.566 64.3877ZM621.597 59.9658C621.597 59.2575 621.409 58.695 621.034 58.2783C620.659 57.8617 620.211 57.6533 619.691 57.6533C619.139 57.6533 618.659 57.8773 618.253 58.3252C617.847 58.7731 617.644 59.3512 617.644 60.0596C617.644 60.695 617.836 61.2158 618.222 61.6221C618.607 62.0179 619.081 62.2158 619.644 62.2158C620.217 62.2158 620.685 62.0179 621.05 61.6221C621.415 61.2158 621.597 60.6637 621.597 59.9658Z" fill="#999999"/>
<path d="M633.706 63.5283H628.503C628.503 65.0908 627.701 66.57 626.097 67.9658L625.175 66.9189C626.665 65.971 627.409 64.5492 627.409 62.6533V55.9814H634.8V66.7627C634.8 67.346 634.487 67.6377 633.862 67.6377H632.55L632.331 66.4189H633.487C633.633 66.4189 633.706 66.346 633.706 66.2002V63.5283ZM628.503 62.3252H633.706V60.3564H628.503V62.3252ZM628.503 59.1533H633.706V57.1846H628.503V59.1533Z" fill="#999999"/>
<path d="M644.847 65.5127V66.7002H638.222C638.211 66.4085 638.258 66.1221 638.363 65.8408C638.54 65.3929 638.81 64.9502 639.175 64.5127C639.55 64.0752 640.086 63.57 640.784 62.9971C641.878 62.1012 642.613 61.3929 642.988 60.8721C643.373 60.3512 643.566 59.8564 643.566 59.3877C643.566 58.8981 643.389 58.4867 643.034 58.1533C642.691 57.82 642.243 57.6533 641.691 57.6533C641.097 57.6533 640.618 57.8304 640.253 58.1846C639.899 58.5387 639.722 59.0335 639.722 59.6689L638.456 59.5283C638.54 58.5908 638.862 57.8773 639.425 57.3877C639.998 56.8877 640.758 56.6377 641.706 56.6377C642.675 56.6377 643.435 56.9033 643.988 57.4346C644.55 57.9658 644.831 58.6273 644.831 59.4189C644.831 59.8252 644.748 60.221 644.581 60.6064C644.425 60.9919 644.154 61.3981 643.769 61.8252C643.394 62.2523 642.764 62.8408 641.878 63.5908C641.139 64.2054 640.665 64.6273 640.456 64.8564C640.248 65.0752 640.076 65.2939 639.941 65.5127H644.847ZM646.566 64.3877L647.753 64.2783C647.847 64.8304 648.034 65.2314 648.316 65.4814C648.607 65.7314 648.972 65.8564 649.409 65.8564C649.784 65.8564 650.113 65.7731 650.394 65.6064C650.685 65.4294 650.92 65.195 651.097 64.9033C651.284 64.6117 651.441 64.221 651.566 63.7314C651.691 63.2419 651.753 62.7419 651.753 62.2314C651.753 62.1794 651.748 62.096 651.738 61.9814C651.498 62.3773 651.165 62.7002 650.738 62.9502C650.31 63.1898 649.847 63.3096 649.347 63.3096C648.514 63.3096 647.81 63.0075 647.238 62.4033C646.665 61.7992 646.378 61.0075 646.378 60.0283C646.378 59.0075 646.675 58.1898 647.269 57.5752C647.873 56.9502 648.628 56.6377 649.534 56.6377C650.18 56.6377 650.774 56.8148 651.316 57.1689C651.857 57.5127 652.269 58.0127 652.55 58.6689C652.831 59.3148 652.972 60.2523 652.972 61.4814C652.972 62.7627 652.831 63.7835 652.55 64.5439C652.279 65.3044 651.868 65.8825 651.316 66.2783C650.764 66.6742 650.118 66.8721 649.378 66.8721C648.597 66.8721 647.956 66.6533 647.456 66.2158C646.967 65.7783 646.67 65.1689 646.566 64.3877ZM651.597 59.9658C651.597 59.2575 651.409 58.695 651.034 58.2783C650.659 57.8617 650.211 57.6533 649.691 57.6533C649.139 57.6533 648.659 57.8773 648.253 58.3252C647.847 58.7731 647.644 59.3512 647.644 60.0596C647.644 60.695 647.836 61.2158 648.222 61.6221C648.607 62.0179 649.081 62.2158 649.644 62.2158C650.217 62.2158 650.685 62.0179 651.05 61.6221C651.415 61.2158 651.597 60.6637 651.597 59.9658Z" fill="#999999"/>
<path d="M657.8 67.2002H656.534V56.6377H665.128V66.9814H663.862V66.2002H657.8V67.2002ZM663.862 60.7939V57.6689H657.8V60.7939H663.862ZM663.862 65.1689V61.8252H657.8V65.1689H663.862ZM678.081 59.8564H680.659V60.7314H678.362V61.9971H680.222V62.8721H678.362V64.1846H680.222V65.0596H678.362V66.4189H681.097V67.3096H675.566V67.8564H674.644V61.7783C674.352 62.1742 673.987 62.5387 673.55 62.8721L673.159 61.8252C674.545 60.5856 675.441 59.2939 675.847 57.9502H674.581V59.2002H673.659V57.0752H676.066C676.211 56.4919 676.336 55.8721 676.441 55.2158L677.534 55.4814C677.649 55.596 677.612 55.7054 677.425 55.8096C677.321 56.2471 677.211 56.6689 677.097 57.0752H680.987V58.9814H680.05V57.9502H676.878C676.659 58.7106 676.368 59.346 676.003 59.8564H677.159L677.862 58.2158L678.909 58.4346C679.086 58.5075 679.05 58.6012 678.8 58.7158L678.081 59.8564ZM668.847 57.3408V56.3096H673.487V57.3408H671.581C671.508 58.4762 671.269 59.5179 670.862 60.4658H673.003V66.9814H672.066V66.0908H670.644V67.5283H669.722V62.5908C669.503 62.9554 669.264 63.2835 669.003 63.5752L668.3 62.6533C669.571 61.2262 670.316 59.4554 670.534 57.3408H668.847ZM675.566 62.8721V64.1846H677.425V62.8721H675.566ZM675.566 60.7314V61.9971H677.425V60.7314H675.566ZM675.566 65.0596V66.4189H677.425V65.0596H675.566ZM670.644 61.3408V65.2158H672.066V61.3408H670.644ZM687.222 61.4502C688.566 61.0856 689.42 60.3721 689.784 59.3096L688.316 58.7158L688.691 57.7783L690.003 58.2783L690.112 56.9658H687.816V55.9189H694.378L694.269 60.6221C694.237 61.5387 693.857 61.9971 693.128 61.9971H691.862L691.753 60.9502H692.909C693.128 60.9502 693.237 60.8408 693.237 60.6221L693.347 56.9658H691.206L691.05 58.7158L692.362 59.4189L691.862 60.4033L690.769 59.8096C690.3 61.1533 689.264 62.0648 687.659 62.5439L687.222 61.4502ZM694.159 66.9189C693.868 65.8252 693.415 64.8773 692.8 64.0752L693.784 63.6377C694.586 64.6169 695.097 65.5439 695.316 66.4189L694.159 66.9189ZM686.831 63.4658V67.6846H685.909V67.3096H684.05V67.9033H683.112V63.4658H686.831ZM687.269 66.9814C687.529 66.0648 687.696 65.0231 687.769 63.8564L688.862 63.9658C688.935 63.9971 688.899 64.0856 688.753 64.2314C688.711 65.3981 688.545 66.4033 688.253 67.2471L687.269 66.9814ZM690.769 61.6689C691.279 61.9919 691.79 62.5544 692.3 63.3564L691.269 63.9658C691.008 63.4554 690.571 62.8721 689.956 62.2158L690.769 61.6689ZM683.331 55.7002H686.612V56.7471H683.331V55.7002ZM682.628 57.5596H687.331V58.6064H682.628V57.5596ZM683.331 59.5908H686.612V60.6221H683.331V59.5908ZM683.331 61.4502H686.612V62.4814H683.331V61.4502ZM684.05 64.3408V66.4189H685.909V64.3408H684.05ZM690.222 63.3096C690.514 63.3408 690.534 63.4502 690.284 63.6377V66.2002C690.284 66.4606 690.394 66.5908 690.612 66.5908H691.816C692.034 66.5908 692.159 66.4814 692.191 66.2627L692.3 65.3877L693.394 65.6533L693.175 66.8096C693.071 67.3617 692.743 67.6377 692.191 67.6377H690.112C689.498 67.6377 689.191 67.3044 689.191 66.6377V63.3096H690.222Z" fill="#999999"/>
<path d="M32.9813 34.3252H31.4188V31.5908C29.5438 33.1533 27.0177 34.5075 23.8406 35.6533L23.2156 34.0127C26.2365 33.0752 28.7886 31.8252 30.8719 30.2627H24.2313V28.7783H31.4188V26.9814C29.4396 27.0856 27.4604 27.1637 25.4813 27.2158L25.325 25.8877C29.8042 25.7314 33.8406 25.445 37.4344 25.0283L38.3719 26.3564C38.7886 26.8773 38.5542 26.9814 37.6688 26.6689C35.8979 26.7731 34.3354 26.8512 32.9813 26.9033V28.7783H40.1688V30.2627H33.7625C35.7417 31.7731 38.1636 32.971 41.0281 33.8564L40.4031 35.4971C37.4865 34.5596 35.0125 33.1794 32.9813 31.3564V34.3252ZM36.1844 42.2158H28.3719V42.9189H26.8094V35.0283H37.7469V42.6846H36.1844V42.2158ZM36.1844 37.8408V36.5127H28.3719V37.8408H36.1844ZM36.1844 40.7314V39.3252H28.3719V40.7314H36.1844ZM45.7938 26.2783H47.5125C48.0333 26.3825 48.0594 26.5908 47.5906 26.9033V35.4189C47.5906 38.4398 46.7052 40.7575 44.9344 42.3721L43.45 41.2002C45.0125 39.8981 45.7938 37.945 45.7938 35.3408V26.2783ZM57.5906 26.1221H59.3094C59.8302 26.2262 59.8563 26.4346 59.3875 26.7471V42.3721H57.5906V26.1221ZM53.3719 27.2158C53.8927 27.32 53.9188 27.5283 53.45 27.8408V40.4189H51.6531V27.2158H53.3719ZM76.1844 37.6064C77.2261 38.6481 78.7625 39.6898 80.7938 40.7314L79.8563 42.3721C78.0854 41.5387 76.4188 40.3408 74.8563 38.7783L76.1844 37.6064ZM69.3875 39.0127C68.5021 40.2627 67.1479 41.4867 65.325 42.6846L64.1531 41.2002C65.8198 40.2106 67.1479 39.0387 68.1375 37.6846L69.6219 38.5439C69.8823 38.7523 69.8042 38.9085 69.3875 39.0127ZM66.1844 36.9814V37.7627H64.6219V26.5127H66.1063C66.5229 26.5648 66.549 26.721 66.1844 26.9814V35.4971H80.5594V36.9814H73.2938V42.9971H71.4969V36.9814H66.1844ZM69.6219 33.2314H76.4188V31.7471H69.6219V33.2314ZM69.6219 30.4971H76.4188V29.2471H69.6219V30.4971ZM69.6219 27.9971H76.4188V26.7471H69.6219V27.9971ZM68.0594 34.4814V25.4971H77.9813V34.4814H68.0594ZM92.9813 30.1846C92.0958 35.3929 91.0281 38.6221 89.7781 39.8721C89.1011 40.5492 88.3979 40.8877 87.6688 40.8877C86.8354 40.8877 86.1844 40.6533 85.7156 40.1846C84.4656 38.9346 83.8406 37.3721 83.8406 35.4971C83.8406 33.2054 84.6479 31.2523 86.2625 29.6377C88.0333 27.8669 90.1948 26.9814 92.7469 26.9814C95.0386 26.9814 96.8354 27.6325 98.1375 28.9346C99.5958 30.3929 100.325 32.1117 100.325 34.0908C100.325 36.2262 99.6479 37.971 98.2938 39.3252C97.4083 40.2106 96.0542 41.07 94.2313 41.9033L92.5906 40.2627C94.4136 39.6898 95.8458 38.8825 96.8875 37.8408C97.8771 36.8512 98.3719 35.6533 98.3719 34.2471C98.3719 32.5804 97.825 31.2002 96.7313 30.1064C95.6375 29.0127 93.9188 28.5179 91.575 28.6221L92.9813 29.3252C93.6063 29.5856 93.6063 29.8721 92.9813 30.1846ZM91.1844 28.7002C89.8302 29.0127 88.6583 29.6637 87.6688 30.6533C86.3146 32.0075 85.6375 33.6742 85.6375 35.6533C85.6375 36.8512 86.0281 37.8408 86.8094 38.6221C86.9656 38.7783 87.2 38.8564 87.5125 38.8564C87.825 38.8564 88.1636 38.6742 88.5281 38.3096C89.7261 37.1117 90.6115 33.9085 91.1844 28.7002ZM110.325 41.5127C112.46 40.3669 113.528 38.4137 113.528 35.6533V26.6689L115.169 26.9814L119.388 25.6533L120.559 27.2158C120.664 27.5283 120.481 27.5804 120.013 27.3721L115.091 28.3096V31.6689H121.263V33.1533H118.919V42.9189H117.356V33.1533H115.091V36.1221C115.091 39.195 113.789 41.4867 111.184 42.9971L110.325 41.5127ZM108.841 42.9971H107.278V38.3096C106.445 39.6637 105.533 40.7314 104.544 41.5127L103.372 40.1064C104.83 39.0648 106.054 37.7627 107.044 36.2002H103.763V34.7158H107.278V32.9971H103.294V31.5127H108.763L109.622 28.7002H103.841V27.2158H107.278V25.0283H108.763C109.179 25.0804 109.205 25.2367 108.841 25.4971V27.2158H112.278V28.7002H111.263L110.169 31.5127H112.669V32.9971H108.841V34.7158H112.278V36.2002H108.841V36.9033C109.57 37.1117 110.585 37.6585 111.888 38.5439L110.95 40.1064C110.221 39.3773 109.518 38.8044 108.841 38.3877V42.9971ZM105.716 31.3564C105.507 30.6273 105.221 29.9242 104.856 29.2471L106.341 28.7783C106.757 29.4554 107.07 30.1585 107.278 30.8877L105.716 31.3564ZM138.45 33.5439H133.372V35.2627H138.45V33.5439ZM136.341 36.7471H134.934V37.5283C134.934 40.7575 133.085 42.6585 129.388 43.2314L128.919 41.5908C131.888 41.2262 133.372 39.82 133.372 37.3721V36.7471H132.591H131.809V25.8096H140.013V36.7471H137.903V40.6533C137.903 41.07 138.085 41.2783 138.45 41.2783H139.231C139.492 41.2783 139.648 41.0179 139.7 40.4971L139.856 39.1689L141.419 39.6377L141.184 41.4346C141.08 42.32 140.585 42.7627 139.7 42.7627H137.747C136.809 42.7627 136.341 42.32 136.341 41.4346V36.7471ZM133.372 32.0596H138.45V30.4189H133.372V32.0596ZM133.372 28.9346H138.45V27.2939H133.372V28.9346ZM127.747 35.8877C128.789 36.3564 130.013 37.2158 131.419 38.4658L130.325 40.1064C129.231 38.9085 128.268 38.0231 127.434 37.4502C126.914 39.7419 125.82 41.5387 124.153 42.8408L122.981 41.4346C125.273 39.5075 126.367 37.0075 126.263 33.9346H123.294V32.4502H126.341V29.6377H123.841V28.1533H126.341V25.0283H127.825C128.242 25.0804 128.268 25.2367 127.903 25.4971V28.1533H130.638V29.6377H127.903V32.4502H131.028V33.9346H127.825C127.825 34.7679 127.799 35.4189 127.747 35.8877ZM147.825 32.1377C148.815 33.4919 149.309 34.8981 149.309 36.3564C149.309 38.3877 148.71 39.4033 147.513 39.4033H146.575L146.263 37.8408H147.044C147.565 37.8408 147.799 37.2939 147.747 36.2002C147.695 34.6898 147.226 33.3617 146.341 32.2158L147.903 27.1377H145.481V42.7627H143.919V25.8877H148.294L148.606 25.4971L149.934 26.6689L149.622 26.9814L147.825 32.1377ZM159.153 36.5127H158.372C157.539 40.3148 154.752 42.5023 150.013 43.0752L149.544 41.5908C153.606 41.2783 156.054 39.5856 156.888 36.5127H155.794C154.908 38.7002 153.033 40.0283 150.169 40.4971L149.7 39.1689C152.096 38.6481 153.58 37.7627 154.153 36.5127H152.903C152.174 37.2419 151.236 37.8148 150.091 38.2314L149.466 36.9033C151.132 36.3825 152.278 35.3929 152.903 33.9346H149.388V32.6846H161.106V33.9346H154.544C154.335 34.4033 154.075 34.846 153.763 35.2627H160.638L160.481 40.1846C160.429 41.8512 159.83 42.6846 158.684 42.6846H157.122L156.888 41.2002H158.216C158.684 41.2002 158.945 40.8877 158.997 40.2627L159.153 36.5127ZM152.513 30.4189H157.825V29.0908H152.513V30.4189ZM152.513 27.8408H157.825V26.5908H152.513V27.8408ZM159.153 25.3408V31.6689H151.184V25.3408H159.153ZM172.434 29.3252H174.544V25.2627H176.028C176.445 25.3148 176.471 25.471 176.106 25.7314V29.3252H180.325V30.8096H176.106V34.5596H180.091V36.0439H176.106V40.6533H181.263V42.1377H169.309V40.6533H174.544V36.0439H170.716V34.5596H174.544V30.8096H171.966C171.601 31.8512 171.028 32.8929 170.247 33.9346L168.919 32.9189C170.273 31.1481 171.158 29.0127 171.575 26.5127L173.059 26.8252C173.476 26.9814 173.476 27.1377 173.059 27.2939L172.434 29.3252ZM165.794 25.0283H167.278C167.695 25.0804 167.721 25.2367 167.356 25.4971V42.8408H165.794V25.0283ZM168.763 28.2314C169.231 28.8564 169.622 29.5596 169.934 30.3408L168.684 31.2002C168.32 30.3148 167.955 29.5856 167.591 29.0127L168.763 28.2314ZM165.325 29.0908C165.69 29.195 165.69 29.3512 165.325 29.5596C165.221 31.2262 164.986 32.7887 164.622 34.2471L163.138 33.7783C163.554 32.4762 163.789 30.8356 163.841 28.8564L165.325 29.0908ZM198.138 33.6221V42.6846H196.575V41.9033H189.544V42.9189H187.981V35.8096C186.627 36.5387 185.169 37.1117 183.606 37.5283L183.059 36.1221C184.518 35.7575 186.158 35.1064 187.981 34.1689V33.6221H189.075C190.169 32.9971 191.106 32.3721 191.888 31.7471H183.684V30.2627H190.559V28.3877H185.716V26.9033H190.559V25.0283H192.044C192.46 25.0804 192.486 25.2367 192.122 25.4971V26.9033H195.872V28.2314C196.497 27.5544 197.122 26.7992 197.747 25.9658L198.841 26.6689C199.205 26.9294 199.153 27.0856 198.684 27.1377C197.695 28.3356 196.705 29.3773 195.716 30.2627H201.106V31.7471H194.075C193.033 32.6325 192.2 33.2575 191.575 33.6221H198.138ZM193.606 30.2627C194.231 29.7939 194.934 29.1689 195.716 28.3877H192.122V30.2627H193.606ZM189.544 36.9814H196.575V34.8721H189.544V36.9814ZM189.544 40.6533H196.575V38.2314H189.544V40.6533ZM216.731 36.9033C217.46 35.4971 217.903 33.3617 218.059 30.4971H215.403C215.559 33.3617 216.002 35.4971 216.731 36.9033ZM219.622 30.4971C219.518 33.7262 218.893 36.3304 217.747 38.3096C218.58 39.3512 219.752 40.2627 221.263 41.0439L220.247 42.7627C218.58 41.6689 217.408 40.6273 216.731 39.6377C215.533 40.9919 213.684 42.1637 211.184 43.1533L210.403 41.5908C213.111 40.4971 214.908 39.3773 215.794 38.2314C214.908 36.5127 214.414 34.7939 214.309 33.0752C213.997 33.8564 213.684 34.4554 213.372 34.8721L212.044 33.8564C213.606 31.5648 214.544 28.7262 214.856 25.3408L216.497 25.7314C216.809 25.9398 216.731 26.096 216.263 26.2002C216.106 27.1377 215.898 28.0752 215.638 29.0127H220.95V30.4971H219.622ZM212.356 26.7471C212.044 27.5283 211.679 28.1794 211.263 28.7002L210.013 27.9971C210.429 27.32 210.82 26.5387 211.184 25.6533L212.591 26.3564C212.799 26.5648 212.721 26.695 212.356 26.7471ZM207.356 37.7627C208.085 37.971 208.736 38.2054 209.309 38.4658C209.726 37.9971 210.065 37.2939 210.325 36.3564H208.059C207.851 36.8252 207.617 37.2939 207.356 37.7627ZM206.263 39.7158L205.013 39.0127C205.533 38.2314 206.054 37.346 206.575 36.3564H203.606V35.1064H207.044C207.356 34.4294 207.591 33.8564 207.747 33.3877L209.231 33.7783C209.44 33.9867 209.361 34.1169 208.997 34.1689L208.528 35.1064H212.981V36.3564H211.809C211.549 37.3981 211.158 38.2835 210.638 39.0127C211.106 39.221 211.601 39.4814 212.122 39.7939L211.419 41.0439C210.846 40.6794 210.325 40.3929 209.856 40.1846C208.502 41.5387 206.679 42.3721 204.388 42.6846L203.841 41.2783C205.872 41.07 207.434 40.4971 208.528 39.5596C207.955 39.2992 207.382 39.0648 206.809 38.8564L206.263 39.7158ZM207.825 25.0283H209.075C209.492 25.0804 209.518 25.2367 209.153 25.4971V28.8564H213.138V30.1064H209.856C210.429 30.7835 211.315 31.4346 212.513 32.0596L211.653 33.3877C210.768 32.8669 209.934 32.1377 209.153 31.2002V33.0752H207.825V31.5908C206.992 32.6325 205.846 33.57 204.388 34.4033L203.372 33.1533C204.986 32.32 206.315 31.3044 207.356 30.1064H203.763V28.8564H207.825V25.0283ZM205.638 28.6221C205.273 27.8408 204.804 27.1637 204.231 26.5908L205.481 25.8096C206.106 26.4346 206.575 27.0856 206.888 27.7627L205.638 28.6221ZM232.981 30.1846C232.096 35.3929 231.028 38.6221 229.778 39.8721C229.101 40.5492 228.398 40.8877 227.669 40.8877C226.835 40.8877 226.184 40.6533 225.716 40.1846C224.466 38.9346 223.841 37.3721 223.841 35.4971C223.841 33.2054 224.648 31.2523 226.263 29.6377C228.033 27.8669 230.195 26.9814 232.747 26.9814C235.039 26.9814 236.835 27.6325 238.138 28.9346C239.596 30.3929 240.325 32.1117 240.325 34.0908C240.325 36.2262 239.648 37.971 238.294 39.3252C237.408 40.2106 236.054 41.07 234.231 41.9033L232.591 40.2627C234.414 39.6898 235.846 38.8825 236.888 37.8408C237.877 36.8512 238.372 35.6533 238.372 34.2471C238.372 32.5804 237.825 31.2002 236.731 30.1064C235.638 29.0127 233.919 28.5179 231.575 28.6221L232.981 29.3252C233.606 29.5856 233.606 29.8721 232.981 30.1846ZM231.184 28.7002C229.83 29.0127 228.658 29.6637 227.669 30.6533C226.315 32.0075 225.638 33.6742 225.638 35.6533C225.638 36.8512 226.028 37.8408 226.809 38.6221C226.966 38.7783 227.2 38.8564 227.513 38.8564C227.825 38.8564 228.164 38.6742 228.528 38.3096C229.726 37.1117 230.611 33.9085 231.184 28.7002ZM248.763 31.8252C250.481 30.2106 251.809 27.8669 252.747 24.7939L254.309 25.2627C254.57 25.471 254.518 25.6012 254.153 25.6533C253.736 26.695 253.32 27.6585 252.903 28.5439H255.247C255.82 27.346 256.263 26.2783 256.575 25.3408L258.059 25.8877C258.268 26.096 258.19 26.2262 257.825 26.2783C257.46 27.1117 257.096 27.8669 256.731 28.5439H260.716V30.0283H256.731V32.4502H259.934V33.9346H256.731V36.4346H259.934V37.9189H256.731V40.8096H261.184V42.2939H252.591V42.9971H251.028V31.6689C250.664 32.1898 250.273 32.6585 249.856 33.0752L248.763 31.8252ZM244.856 42.8408L244.544 41.3564H245.872C246.08 41.3564 246.184 41.2523 246.184 41.0439V36.2002L244.153 36.6689C244.101 37.0335 243.971 37.1117 243.763 36.9033L243.45 35.1064L246.184 34.5596V30.4189H243.763V28.9346H246.184V24.9502H247.669C248.085 25.0023 248.111 25.1585 247.747 25.4189V28.9346H249.778V30.4189H247.747V34.2471L249.778 33.7002L250.013 35.1064L247.747 35.8096V41.5908C247.747 42.4242 247.33 42.8408 246.497 42.8408H244.856ZM252.591 40.8096H255.169V37.9189H252.591V40.8096ZM252.591 36.4346H255.169V33.9346H252.591V36.4346ZM252.591 32.4502H255.169V30.0283H252.591V32.4502ZM278.841 27.1377L279.075 26.8252L280.325 27.8408L280.091 28.0752C278.736 30.4189 277.408 31.9814 276.106 32.7627L276.888 32.9971C277.252 33.1533 277.226 33.3096 276.809 33.4658C276.705 33.8304 276.575 34.1429 276.419 34.4033H279.778L280.013 34.0908L281.419 35.1064L281.106 35.4189C279.44 39.846 276.054 42.346 270.95 42.9189L270.325 41.4346C272.773 41.1742 274.7 40.5231 276.106 39.4814C275.377 38.7523 274.648 38.1273 273.919 37.6064C273.242 38.1794 272.33 38.7002 271.184 39.1689L270.481 37.7627C273.033 36.721 274.7 35.1325 275.481 32.9971C274.7 33.7262 273.294 34.3512 271.263 34.8721L270.559 33.4658C272.539 33.0492 274.023 32.5023 275.013 31.8252C274.492 31.2002 273.867 30.6533 273.138 30.1846C272.773 30.5492 272.408 30.8617 272.044 31.1221L270.95 29.9502C272.669 28.4919 273.763 26.9294 274.231 25.2627L275.638 25.7314C276.002 25.8877 275.976 26.0439 275.559 26.2002C275.507 26.5127 275.377 26.8252 275.169 27.1377H278.841ZM268.216 30.1846H270.794V31.6689H268.216V33.6221C269.257 34.0908 270.247 34.7939 271.184 35.7314L270.169 37.1377C269.335 36.3044 268.684 35.7054 268.216 35.3408V42.9189H266.653V35.1846C266.341 36.2262 265.481 37.5544 264.075 39.1689L262.903 37.6846C264.83 35.8617 266.028 33.8564 266.497 31.6689H263.45V30.1846H266.653V27.6064C265.611 27.7627 264.674 27.8929 263.841 27.9971L263.45 26.5127C265.533 26.3044 267.695 25.8877 269.934 25.2627L270.794 26.4346C271.002 26.7471 270.872 26.8512 270.403 26.7471C269.674 26.9554 268.945 27.1377 268.216 27.2939V30.1846ZM273.919 29.2471C274.7 29.6637 275.455 30.1846 276.184 30.8096C276.966 30.0804 277.617 29.2731 278.138 28.3877H274.544C274.335 28.7523 274.127 29.0387 273.919 29.2471ZM274.778 36.6689C275.507 37.0856 276.341 37.7106 277.278 38.5439C278.059 37.971 278.736 37.0075 279.309 35.6533H275.716C275.403 36.07 275.091 36.4085 274.778 36.6689ZM286.809 29.3252C287.382 28.1273 288.346 26.9033 289.7 25.6533L290.559 26.4346C289.257 27.6325 288.346 28.7783 287.825 29.8721C287.252 31.07 286.966 32.5023 286.966 34.1689C286.966 35.5752 287.252 36.9033 287.825 38.1533C288.346 39.2992 289.257 40.5752 290.559 41.9814L289.7 42.8408C288.398 41.3825 287.434 40.0023 286.809 38.7002C286.132 37.2939 285.794 35.7835 285.794 34.1689C285.794 32.346 286.132 30.7314 286.809 29.3252ZM297.903 41.9033H296.106V26.8252H308.372V41.5908H306.575V40.4971H297.903V41.9033ZM306.575 32.7627V28.3096H297.903V32.7627H306.575ZM306.575 39.0127V34.2471H297.903V39.0127H306.575ZM321.341 35.8096H318.372C317.903 38.7783 316.497 41.1221 314.153 42.8408L313.372 41.3564C315.664 39.7419 316.914 37.346 317.122 34.1689L317.278 31.7471H316.184V32.7627H314.622V26.0439H322.513V32.4502H320.95V31.7471H318.684L318.528 34.3252H322.903L322.513 40.4971C322.408 41.7471 321.888 42.3721 320.95 42.3721H318.841L318.606 40.8877H320.325C320.794 40.8877 321.054 40.6273 321.106 40.1064L321.341 35.8096ZM329.778 41.2002C329.778 42.0856 329.361 42.5283 328.528 42.5283H326.809L326.497 41.0439H327.981C328.138 41.0439 328.216 40.9658 328.216 40.8096V25.8096H329.7C330.117 25.8617 330.143 26.0179 329.778 26.2783V41.2002ZM326.028 27.6846C326.445 27.7367 326.471 27.8929 326.106 28.1533V38.8564H324.544V27.6846H326.028ZM320.95 30.4971V27.2939H316.184V30.4971H320.95ZM337.513 38.7002C336.888 40.0023 335.924 41.3825 334.622 42.8408L333.763 41.9814C335.065 40.5752 335.976 39.2992 336.497 38.1533C337.07 36.9033 337.356 35.5752 337.356 34.1689C337.356 32.5023 337.07 31.07 336.497 29.8721C335.976 28.7783 335.065 27.6325 333.763 26.4346L334.622 25.6533C335.976 26.9033 336.94 28.1273 337.513 29.3252C338.19 30.7314 338.528 32.346 338.528 34.1689C338.528 35.7835 338.19 37.2939 337.513 38.7002Z" fill="#757575"/>
</g>
<rect x="2" y="2" width="714" height="440" stroke="black" stroke-width="4"/>
<defs>
<clipPath id="clip0_6_12522">
<rect width="718" height="444" fill="white"/>
</clipPath>
</defs>
</svg>
