<svg width="718" height="444" viewBox="0 0 718 444" fill="none" xmlns="http://www.w3.org/2000/svg">
<g clip-path="url(#clip0_6_13554)">
<path d="M0 0H718V444H0V0Z" fill="white"/>
<path d="M181.5 91.5V369.5" stroke="#CCCCCC" stroke-miterlimit="10"/>
<path d="M302.5 91.5V369.5" stroke="#CCCCCC" stroke-miterlimit="10"/>
<path d="M424.5 91.5V369.5" stroke="#CCCCCC" stroke-miterlimit="10"/>
<path d="M545.5 91.5V369.5" stroke="#CCCCCC" stroke-miterlimit="10"/>
<path d="M666.5 91.5V369.5" stroke="#CCCCCC" stroke-miterlimit="10"/>
<path d="M88.5 369.5H695.5" stroke="#333333" stroke-miterlimit="10"/>
<path d="M88.5 314.5H695.5" stroke="#CCCCCC" stroke-miterlimit="10"/>
<path d="M88.5 258.5H695.5" stroke="#CCCCCC" stroke-miterlimit="10"/>
<path d="M88.5 202.5H695.5" stroke="#CCCCCC" stroke-miterlimit="10"/>
<path d="M88.5 147.5H695.5" stroke="#CCCCCC" stroke-miterlimit="10"/>
<path d="M88.5 91.5H695.5" stroke="#CCCCCC" stroke-miterlimit="10"/>
<path d="M88.2 369.8H88.8064H89.4128H90.0192H90.6255H91.2319H91.8383H92.4447H93.0511H93.6575H94.2639H94.8703H95.4766H96.083H96.6894H97.2958H97.9022H98.5086H99.115H99.7214H100.328H100.934H101.541H102.147H102.753H103.36H103.966H104.572H105.179H105.785H106.392H106.998H107.604H108.211H108.817H109.424H110.03H110.636H111.243H111.849H112.455H113.062H113.668H114.275H114.881H115.487H116.094H116.7H117.307H117.913H118.519H119.126H119.732H120.339H120.945H121.551H122.158H122.764H123.37H123.977H124.583H125.19H125.796H126.402H127.009H127.615H128.222H128.828H129.434H130.041L130.647 369.745L131.253 369.8H131.86H132.466H133.073H133.679L134.285 369.745H134.892L135.498 369.8H136.105H136.711H137.317H137.924H138.53L139.137 369.745L139.743 369.8H140.349H140.956H141.562H142.168H142.775H143.381L143.988 369.689L144.594 369.745H145.2L145.807 369.689L146.413 369.8H147.02H147.626H148.232H148.839H149.445H150.051H150.658H151.264H151.871H152.477H153.083H153.69H154.296H154.903H155.509H156.115H156.722H157.328H157.935H158.541H159.147H159.754H160.36H160.966H161.573H162.179H162.786H163.392H163.998H164.605H165.211H165.818H166.424H167.03H167.637H168.243H168.85H169.456H170.062H170.669H171.275H171.881H172.488H173.094H173.701H174.307H174.913H175.52H176.126H176.733H177.339L177.945 369.745L178.552 369.8H179.158H179.764H180.371H180.977H181.584H182.19H182.796H183.403H184.009H184.616H185.222H185.828H186.435H187.041H187.648H188.254H188.86L189.467 369.745L190.073 369.299L190.679 368.13L191.286 367.908L191.892 369.077L192.499 369.132L193.105 369.299L193.711 369.633L194.318 369.689L194.924 369.355L195.531 369.522L196.137 369.355L196.743 369.522H197.35L197.956 369.633L198.562 369.578L199.169 369.8L199.775 369.689L200.382 369.745L200.988 369.522L201.594 369.689H202.201L202.807 368.965L203.414 369.021L204.02 369.355L204.626 369.522L205.233 369.633L205.839 369.244L206.446 369.633L207.052 369.578L207.658 368.91L208.265 369.578L208.871 369.8H209.477L210.084 369.466L210.69 369.578L211.297 369.411L211.903 369.689H212.509L213.116 369.8H213.722H214.329H214.935H215.541L216.148 369.578L216.754 368.965L217.36 368.297L217.967 369.522L218.573 369.411L219.18 369.689L219.786 369.633L220.392 369.8L220.999 369.745H221.605L222.212 369.578L222.818 369.689L223.424 369.745L224.031 369.689L224.637 369.522L225.244 369.633L225.85 369.689L226.456 369.745H227.063L227.669 369.8L228.275 369.522L228.882 369.689L229.488 369.745L230.095 369.8H230.701H231.307L231.914 369.745L232.52 369.8H233.127H233.733H234.339H234.946L235.552 369.745L236.158 369.633L236.765 369.8H237.371L237.978 369.745L238.584 369.8L239.19 369.745L239.797 369.244L240.403 369.745L241.01 369.578L241.616 369.411L242.222 369.522L242.829 369.466L243.435 369.745L244.042 369.633L244.648 369.689L245.254 369.522L245.861 369.689L246.467 369.745L247.073 369.633L247.68 369.466L248.286 369.522H248.893L249.499 369.633L250.105 369.8L250.712 369.689L251.318 369.466L251.925 369.745L252.531 369.8L253.137 369.633H253.744L254.35 369.745L254.956 369.8H255.563H256.169H256.776H257.382H257.988H258.595H259.201H259.808H260.414H261.02L261.627 369.745L262.233 369.578L262.84 369.689L263.446 369.8L264.052 369.522L264.659 369.8L265.265 369.355L265.871 369.522L266.478 368.854L267.084 369.077L267.691 369.522L268.297 369.188L268.903 369.633L269.51 369.522H270.116L270.723 369.745L271.329 369.522L271.935 369.745L272.542 369.633L273.148 369.745L273.754 369.689L274.361 368.91L274.967 369.299L275.574 369.411L276.18 369.633L276.786 369.689L277.393 369.522L277.999 369.8L278.606 369.522H279.212L279.818 369.299L280.425 369.689L281.031 369.522L281.638 369.745L282.244 369.633L282.85 369.522L283.457 369.188L284.063 369.522L284.669 369.466L285.276 369.021L285.882 369.244L286.489 368.798L287.095 367.574L287.701 368.13L288.308 368.409L288.914 368.854L289.521 369.244L290.127 369.021L290.733 369.132L291.34 369.299L291.946 369.578L292.552 369.466L293.159 369.411L293.765 369.689L294.372 369.578L294.978 369.299L295.584 368.965H296.191L296.797 369.299L297.404 368.854L298.01 368.687L298.616 368.743L299.223 369.355L299.829 369.077L300.436 369.244L301.042 368.965L301.648 369.689L302.255 368.297L302.861 369.132L303.467 367.518L304.074 368.854L304.68 368.297L305.287 368.019L305.893 367.629L306.499 368.854L307.106 368.965L307.712 368.687L308.319 368.631L308.925 368.854L309.531 369.021L310.138 368.409L310.744 369.021L311.35 368.91L311.957 369.021L312.563 366.516L313.17 368.52L313.776 369.021L314.382 368.297L314.989 369.522L315.595 369.021L316.202 369.077L316.808 369.244L317.414 369.077L318.021 368.743L318.627 369.188L319.234 369.077L319.84 369.244L320.446 369.522L321.053 369.633H321.659L322.265 369.299L322.872 369.578L323.478 369.633L324.085 369.466L324.691 369.244H325.297L325.904 369.578L326.51 368.91L327.117 369.188L327.723 369.355L328.329 369.689L328.936 369.132L329.542 369.745L330.148 369.633L330.755 369.745H331.361H331.968L332.574 369.689L333.18 369.411L333.787 369.578L334.393 369.8H335L335.606 369.633L336.212 369.8H336.819L337.425 369.745L338.032 369.8H338.638H339.244H339.851H340.457H341.063H341.67H342.276H342.883H343.489H344.095L344.702 369.745L345.308 369.8L345.915 369.745H346.521H347.127L347.734 369.8L348.34 369.633L348.947 369.522L349.553 369.745L350.159 369.8L350.766 369.745L351.372 369.689L351.978 369.132L352.585 369.244L353.191 369.132L353.798 369.522L354.404 369.466L355.01 369.411L355.617 369.689L356.223 369.411L356.83 369.355H357.436H358.042L358.649 369.411L359.255 368.91L359.861 369.188L360.468 369.355H361.074L361.681 369.522L362.287 369.578H362.893H363.5L364.106 369.077L364.713 369.633L365.319 369.411L365.925 369.188L366.532 369.466L367.138 369.077L367.744 369.689L368.351 369.411L368.957 369.188L369.564 369.411L370.17 369.021L370.776 369.077L371.383 369.188L371.989 369.021L372.596 368.242L373.202 367.963L373.808 366.461L374.415 367.462L375.021 367.296L375.628 367.518L376.234 367.184L376.84 367.296L377.447 366.572L378.053 366.962L378.659 367.24L379.266 367.629L379.872 366.906L380.479 366.405L381.085 366.906L381.691 367.24L382.298 367.908L382.904 368.186L383.511 367.685L384.117 367.741L384.723 367.574L385.33 367.629L385.936 367.184L386.543 367.796L387.149 368.52L387.755 368.743L388.362 368.297L388.968 368.353H389.574L390.181 368.297L390.787 368.186L391.394 368.075L392 369.188L392.606 368.409L393.213 368.019L393.819 368.409L394.426 368.353L395.032 367.184L395.638 368.965L396.245 369.355L396.851 369.077L397.458 368.854L398.064 369.188L398.67 369.355L399.277 368.965H399.883L400.489 369.244L401.096 369.188L401.702 369.077L402.309 369.633L402.915 369.299L403.521 369.689L404.128 369.633L404.734 369.689L405.34 369.578L405.947 369.689H406.553H407.16L407.766 369.466L408.372 369.299L408.979 369.522L409.585 369.578L410.192 369.633L410.798 369.578L411.404 369.188L412.011 369.466L412.617 369.633L413.224 369.745L413.83 369.411L414.436 369.466L415.043 369.578L415.649 369.188L416.255 369.578L416.862 369.522L417.468 369.578L418.075 369.689L418.681 369.522L419.287 369.466L419.894 369.244L420.5 369.411L421.107 369.466L421.713 369.689L422.319 369.466L422.926 369.522L423.532 369.299L424.139 368.743L424.745 369.355L425.351 368.576L425.958 369.077L426.564 368.798L427.17 368.464L427.777 368.576L428.383 368.52L428.99 368.631L429.596 368.075L430.202 368.687L430.809 367.296L431.415 367.351L432.022 366.962L432.628 364.958L433.234 365.848L433.841 364.012L434.447 366.127L435.054 365.236L435.66 363.789L436.266 361.229L436.873 361.006L437.479 360.672L438.085 362.008L438.692 361.396L439.298 356.164L439.905 358.557L440.511 355.83L441.117 356.331L441.724 356.943L442.33 360.895L442.937 361.618L443.543 359.169L444.149 356.442L444.756 359.113L445.362 361.563L445.968 361.062L446.575 362.676L447.181 367.073L447.788 365.459L448.394 364.457L449 364.735L449.607 365.013L450.213 366.071L450.82 366.795L451.426 367.407L452.032 366.683L452.639 366.85L453.245 367.017L453.851 366.516L454.458 367.24L455.064 367.741L455.671 368.743L456.277 367.908L456.883 368.075L457.49 368.019L458.096 368.186L458.703 368.743L459.309 368.91L459.915 369.578H460.522H461.128L461.735 369.244L462.341 369.745L462.947 369.522L463.554 369.578L464.16 369.8L464.766 369.299L465.373 369.578L465.979 369.244L466.586 369.522L467.192 369.633L467.798 369.8L468.405 369.745L469.011 369.355L469.618 369.689L470.224 369.578L470.83 369.633L471.437 369.578L472.043 369.8H472.65L473.256 369.578L473.862 369.411L474.469 369.522L475.075 369.466L475.681 369.633L476.288 369.745L476.894 369.8L477.501 369.745L478.107 369.132L478.713 369.745H479.32H479.926L480.533 369.8H481.139L481.745 369.578L482.352 369.8H482.958H483.564H484.171H484.777H485.384H485.99L486.596 369.745L487.203 369.8H487.809H488.416H489.022H489.628H490.235H490.841H491.447H492.054H492.66H493.267H493.873H494.479H495.086H495.692H496.299H496.905L497.511 369.745L498.118 369.8H498.724H499.331H499.937H500.543H501.15H501.756H502.362H502.969H503.575H504.182H504.788H505.394H506.001H506.607H507.214H507.82H508.426H509.033H509.639H510.246H510.852H511.458H512.065L512.671 369.689L513.277 369.745L513.884 369.8L514.49 369.578L515.097 369.689L515.703 369.633L516.309 369.8L516.916 369.578L517.522 369.8L518.129 369.745L518.735 369.8H519.341H519.948H520.554L521.16 369.578L521.767 369.8H522.373L522.98 369.745L523.586 369.578L524.192 369.745L524.799 368.743L525.405 367.462L526.012 362.731L526.618 361.507L527.224 367.685L527.831 366.071L528.437 368.91L529.044 365.236L529.65 365.848L530.256 364.179L530.863 363.121L531.469 363.622L532.075 364.457L532.682 358.668L533.288 355.83L533.895 354.327L534.501 353.436L535.107 349.317L535.714 351.544L536.32 353.436L536.927 342.694L537.533 339.688L538.139 340.857L538.746 338.464L539.352 342.026L539.958 342.471L540.565 350.486L541.171 329.28L541.778 334.567L542.384 336.849L542.99 333.454L543.597 334.567L544.203 346.2L544.81 353.158L545.416 332.619L546.022 327.109L546.629 334.957L547.235 338.798L547.841 350.598L548.448 345.755L549.054 352.267L549.661 333.733L550.267 335.848L550.873 341.358L551.48 344.308L552.086 344.809L552.693 350.709L553.299 354.549L553.905 342.137L554.512 339.187L555.118 354.772L555.725 338.798L556.331 339.02L556.937 351.599L557.544 352.824L558.15 337.684L558.756 343.139L559.363 346.145H559.969L560.576 348.983L561.182 352.935L561.788 358.446L562.395 344.475L563.001 347.592L563.608 351.878L564.214 350.82L564.82 350.876L565.427 354.494L566.033 360.338L566.64 346.701L567.246 348.427L567.852 350.82L568.459 351.766L569.065 349.317L569.671 353.659L570.278 357.332L570.884 358.501L571.491 342.193L572.097 341.08L572.703 343.139L573.31 339.466L573.916 345.087L574.523 352.434L575.129 328.779L575.735 330.671L576.342 331.061L576.948 329.948L577.554 330.894L578.161 334.066L578.767 350.653L579.374 327.888L579.98 330.56L580.586 328.612L581.193 334.122L581.799 327.499L582.406 337.629L583.012 352.657L583.618 328L584.225 333.343L584.831 331.228L585.437 336.182L586.044 330.783L586.65 334.4L587.257 355.384L587.863 325.606L588.469 326.107L589.076 324.493L589.682 328.946L590.289 323.714L590.895 327.833L591.501 348.928L592.108 318.203L592.714 318.983L593.321 327.777L593.927 329.836L594.533 347.982L595.14 335.848L595.746 350.987L596.352 324.827L596.959 342.082L597.565 342.916L598.172 345.032L598.778 312.971L599.384 326.552L599.991 346.924L600.597 317.591L601.204 325.606L601.81 329.335L602.416 335.792L603.023 333.065L603.629 337.629L604.236 353.047L604.842 320.597L605.448 329.113L606.055 330.56L606.661 330.282L607.267 334.734L607.874 340.913L608.48 351.766L609.087 332.285L609.693 336.015L610.299 338.853L610.906 339.076L611.512 344.197L612.119 347.703L612.725 357.499L613.331 340.634L613.938 343.083L614.544 346.423L615.15 346.59L615.757 346.312L616.363 352.323L616.97 359.336L617.576 344.475L618.182 346.59L618.789 347.703L619.395 350.709L620.002 346.033L620.608 354.327L621.214 359.559L621.821 341.525L622.427 350.486L623.033 349.262L623.64 351.265L624.246 350.319L624.853 355.106L625.459 360.171L626.065 344.197L626.672 348.872L627.278 349.763L627.885 352.267L628.491 348.315L629.097 353.77L629.704 359.559L630.31 345.922L630.917 347.536L631.523 345.198L632.129 346.813L632.736 342.137L633.342 344.252L633.948 352.49L634.555 325.773L635.161 323.825L635.768 322.434L636.374 323.992L636.98 316.756L637.587 321.933L638.193 332.452L638.8 285.364L639.406 281.913L640.012 285.42L640.619 280.8L641.225 275.123L641.832 275.178L642.438 303.565L643.044 297.943L643.651 218.516L644.257 224.917L644.863 213.062L645.47 225.641L646.076 244.343L646.683 265.883L647.289 194.527L647.895 184.564L648.502 192.634L649.108 184.452L649.715 201.763L650.321 192.579L650.927 269.946L651.534 153.839L652.14 183.005L652.747 163.524L653.353 184.23L653.959 183.005L654.566 195.974L655.172 250.41L655.778 154.507L656.385 147.828L656.991 149.609L657.598 207.941L658.204 148.997L658.81 175.769L659.417 223.637L660.023 175.269L660.63 112.428L661.236 94.3945L661.842 114.71L662.449 105.582L663.055 119.219L663.661 185.12L664.268 136.084L664.874 100.239L665.481 146.381L666.087 168.033L666.693 166.307L667.3 199.091L667.906 272.562L668.513 156.956L669.119 190.297L669.725 208.219L670.332 240.001L670.938 242.061L671.544 257.144L672.151 292.878L672.757 242.283L673.364 242.728L673.97 254.807L674.576 268.944L675.183 266.384L675.789 266.996L676.396 312.916L677.002 262.265L677.608 266.662L678.215 277.182L678.821 300.559L679.428 306.403L680.034 308.741L680.64 360.895L681.247 327.499L681.853 314.752L682.459 311.469L683.066 326.385L683.672 353.214L684.279 336.905L684.885 354.605L685.491 334.679L686.098 335.959L686.704 343.918L687.311 346.646L687.917 345.365L688.523 352.601L689.13 355.551L689.736 345.532L690.343 345.755L690.949 349.818L691.555 351.321L692.162 349.763L692.768 356.331L693.374 359.726L693.981 361.785L694.587 342.249L695.194 347.87L695.8 350.598" stroke="#4285F4" stroke-width="2" stroke-miterlimit="10"/>
<path d="M379.922 418.8V410.206H382.891C383.557 410.206 384.068 410.248 384.422 410.331C384.911 410.446 385.328 410.649 385.672 410.94C386.13 411.326 386.469 411.821 386.688 412.425C386.917 413.019 387.031 413.696 387.031 414.456C387.031 415.112 386.953 415.69 386.797 416.19C386.651 416.69 386.458 417.107 386.219 417.44C385.979 417.774 385.714 418.034 385.422 418.222C385.141 418.409 384.802 418.555 384.406 418.659C384.01 418.753 383.552 418.8 383.031 418.8H379.922ZM381.062 417.784H382.891C383.464 417.784 383.911 417.732 384.234 417.628C384.557 417.524 384.812 417.373 385 417.175C385.271 416.914 385.479 416.555 385.625 416.097C385.781 415.638 385.859 415.086 385.859 414.44C385.859 413.545 385.708 412.857 385.406 412.378C385.115 411.888 384.76 411.56 384.344 411.394C384.031 411.279 383.542 411.222 382.875 411.222H381.062V417.784ZM392.859 418.034C392.464 418.368 392.083 418.602 391.719 418.737C391.365 418.873 390.979 418.94 390.562 418.94C389.875 418.94 389.349 418.774 388.984 418.44C388.62 418.107 388.438 417.68 388.438 417.159C388.438 416.857 388.505 416.581 388.641 416.331C388.776 416.071 388.958 415.868 389.188 415.722C389.417 415.565 389.672 415.451 389.953 415.378C390.151 415.315 390.464 415.258 390.891 415.206C391.734 415.112 392.359 414.993 392.766 414.847C392.766 414.701 392.766 414.612 392.766 414.581C392.766 414.144 392.667 413.836 392.469 413.659C392.198 413.43 391.797 413.315 391.266 413.315C390.776 413.315 390.411 413.404 390.172 413.581C389.932 413.748 389.755 414.05 389.641 414.487L388.609 414.347C388.703 413.909 388.859 413.555 389.078 413.284C389.297 413.013 389.609 412.805 390.016 412.659C390.422 412.513 390.891 412.44 391.422 412.44C391.953 412.44 392.385 412.503 392.719 412.628C393.052 412.753 393.297 412.909 393.453 413.097C393.609 413.284 393.719 413.524 393.781 413.815C393.812 413.993 393.828 414.315 393.828 414.784V416.19C393.828 417.17 393.849 417.789 393.891 418.05C393.943 418.31 394.036 418.56 394.172 418.8H393.062C392.958 418.581 392.891 418.326 392.859 418.034ZM392.766 415.675C392.38 415.831 391.807 415.966 391.047 416.081C390.609 416.144 390.302 416.216 390.125 416.3C389.948 416.373 389.807 416.482 389.703 416.628C389.609 416.774 389.562 416.94 389.562 417.128C389.562 417.409 389.667 417.644 389.875 417.831C390.094 418.019 390.406 418.112 390.812 418.112C391.219 418.112 391.578 418.024 391.891 417.847C392.214 417.67 392.448 417.425 392.594 417.112C392.708 416.873 392.766 416.524 392.766 416.065V415.675ZM398.094 417.862L398.25 418.784C397.948 418.847 397.682 418.878 397.453 418.878C397.068 418.878 396.771 418.821 396.562 418.706C396.354 418.581 396.203 418.42 396.109 418.222C396.026 418.024 395.984 417.607 395.984 416.972V413.394H395.219V412.581H395.984V411.034L397.031 410.409V412.581H398.094V413.394H397.031V417.034C397.031 417.336 397.047 417.529 397.078 417.612C397.12 417.696 397.182 417.763 397.266 417.815C397.349 417.868 397.469 417.894 397.625 417.894C397.75 417.894 397.906 417.883 398.094 417.862ZM403.047 416.8L404.141 416.925C403.974 417.56 403.656 418.055 403.188 418.409C402.719 418.763 402.125 418.94 401.406 418.94C400.5 418.94 399.776 418.659 399.234 418.097C398.703 417.534 398.438 416.748 398.438 415.737C398.438 414.696 398.708 413.888 399.25 413.315C399.792 412.732 400.49 412.44 401.344 412.44C402.177 412.44 402.854 412.722 403.375 413.284C403.906 413.847 404.172 414.644 404.172 415.675C404.172 415.737 404.172 415.831 404.172 415.956H399.531C399.573 416.644 399.766 417.17 400.109 417.534C400.453 417.888 400.885 418.065 401.406 418.065C401.792 418.065 402.12 417.966 402.391 417.769C402.672 417.56 402.891 417.237 403.047 416.8ZM399.594 415.097H403.062C403.021 414.565 402.891 414.17 402.672 413.909C402.328 413.503 401.891 413.3 401.359 413.3C400.87 413.3 400.458 413.461 400.125 413.784C399.802 414.107 399.625 414.545 399.594 415.097Z" fill="black"/>
<path d="M33.2 268.275H24.6062V267.134H28.8719L24.6062 262.869V261.322L28.0906 264.931L33.2 261.166V262.666L28.8562 265.728L30.2156 267.134H33.2V268.275ZM32.4344 256.291C32.7677 256.686 33.0021 257.067 33.1375 257.431C33.2729 257.785 33.3406 258.171 33.3406 258.587C33.3406 259.275 33.1739 259.801 32.8406 260.166C32.5073 260.53 32.0802 260.712 31.5594 260.712C31.2573 260.712 30.9812 260.645 30.7312 260.509C30.4708 260.374 30.2677 260.192 30.1219 259.962C29.9656 259.733 29.851 259.478 29.7781 259.197C29.7156 258.999 29.6583 258.686 29.6062 258.259C29.5125 257.416 29.3927 256.791 29.2469 256.384C29.101 256.384 29.0125 256.384 28.9812 256.384C28.5437 256.384 28.2364 256.483 28.0594 256.681C27.8302 256.952 27.7156 257.353 27.7156 257.884C27.7156 258.374 27.8041 258.738 27.9812 258.978C28.1479 259.218 28.45 259.395 28.8875 259.509L28.7469 260.541C28.3094 260.447 27.9552 260.291 27.6844 260.072C27.4135 259.853 27.2052 259.541 27.0594 259.134C26.9135 258.728 26.8406 258.259 26.8406 257.728C26.8406 257.197 26.9031 256.764 27.0281 256.431C27.1531 256.098 27.3094 255.853 27.4969 255.697C27.6844 255.541 27.9239 255.431 28.2156 255.369C28.3927 255.337 28.7156 255.322 29.1844 255.322H30.5906C31.5698 255.322 32.1896 255.301 32.45 255.259C32.7104 255.207 32.9604 255.113 33.2 254.978V256.087C32.9812 256.192 32.726 256.259 32.4344 256.291ZM30.075 256.384C30.2312 256.77 30.3666 257.343 30.4812 258.103C30.5437 258.541 30.6166 258.848 30.7 259.025C30.7729 259.202 30.8823 259.343 31.0281 259.447C31.1739 259.541 31.3406 259.587 31.5281 259.587C31.8094 259.587 32.0437 259.483 32.2312 259.275C32.4187 259.056 32.5125 258.744 32.5125 258.337C32.5125 257.931 32.4239 257.572 32.2469 257.259C32.0698 256.936 31.825 256.702 31.5125 256.556C31.2729 256.442 30.9239 256.384 30.4656 256.384H30.075ZM33.7156 253.556L33.8719 252.525C34.1844 252.483 34.4135 252.363 34.5594 252.166C34.7573 251.905 34.8562 251.551 34.8562 251.103C34.8562 250.613 34.7573 250.238 34.5594 249.978C34.3614 249.707 34.0906 249.525 33.7469 249.431C33.5281 249.369 33.075 249.343 32.3875 249.353C32.9292 249.811 33.2 250.384 33.2 251.072C33.2 251.926 32.8927 252.587 32.2781 253.056C31.6531 253.525 30.9135 253.759 30.0594 253.759C29.4656 253.759 28.9187 253.655 28.4187 253.447C27.9083 253.228 27.5177 252.916 27.2469 252.509C26.976 252.103 26.8406 251.624 26.8406 251.072C26.8406 250.332 27.1375 249.723 27.7312 249.244H26.9812V248.275H32.3562C33.325 248.275 34.0125 248.374 34.4187 248.572C34.825 248.77 35.1427 249.082 35.3719 249.509C35.6114 249.936 35.7312 250.462 35.7312 251.087C35.7312 251.827 35.5646 252.426 35.2312 252.884C34.8979 253.343 34.3927 253.567 33.7156 253.556ZM29.9812 252.681C30.7937 252.681 31.3875 252.52 31.7625 252.197C32.1375 251.874 32.325 251.468 32.325 250.978C32.325 250.488 32.1375 250.082 31.7625 249.759C31.3875 249.426 30.8041 249.259 30.0125 249.259C29.2521 249.259 28.6791 249.431 28.2937 249.775C27.9083 250.108 27.7156 250.514 27.7156 250.994C27.7156 251.462 27.9083 251.863 28.2937 252.197C28.6687 252.52 29.2312 252.681 29.9812 252.681ZM30.0906 246.744C28.9344 246.744 28.0802 246.426 27.5281 245.791C27.0698 245.259 26.8406 244.608 26.8406 243.837C26.8406 242.983 27.1219 242.285 27.6844 241.744C28.2364 241.192 29.0073 240.916 29.9969 240.916C30.7989 240.916 31.4291 241.035 31.8875 241.275C32.3458 241.514 32.7052 241.869 32.9656 242.337C33.2156 242.796 33.3406 243.296 33.3406 243.837C33.3406 244.702 33.0646 245.405 32.5125 245.947C31.95 246.478 31.1427 246.744 30.0906 246.744ZM30.0906 245.666C30.8823 245.666 31.476 245.494 31.8719 245.15C32.2677 244.796 32.4656 244.358 32.4656 243.837C32.4656 243.306 32.2677 242.869 31.8719 242.525C31.476 242.181 30.8719 242.009 30.0594 242.009C29.2885 242.009 28.7052 242.186 28.3094 242.541C27.9135 242.884 27.7156 243.317 27.7156 243.837C27.7156 244.358 27.9135 244.796 28.3094 245.15C28.6948 245.494 29.2885 245.666 30.0906 245.666ZM31.3406 239.775L31.1844 238.744C31.601 238.681 31.9187 238.52 32.1375 238.259C32.3562 237.988 32.4656 237.608 32.4656 237.119C32.4656 236.639 32.3719 236.285 32.1844 236.056C31.9864 235.817 31.7521 235.697 31.4812 235.697C31.2416 235.697 31.0541 235.801 30.9187 236.009C30.825 236.155 30.7052 236.514 30.5594 237.087C30.3614 237.858 30.1948 238.395 30.0594 238.697C29.9135 238.988 29.7156 239.212 29.4656 239.369C29.2156 239.525 28.9344 239.603 28.6219 239.603C28.351 239.603 28.0958 239.541 27.8562 239.416C27.6166 239.291 27.4187 239.119 27.2625 238.9C27.1479 238.733 27.0489 238.509 26.9656 238.228C26.8823 237.947 26.8406 237.639 26.8406 237.306C26.8406 236.827 26.9135 236.405 27.0594 236.041C27.1948 235.666 27.3823 235.389 27.6219 235.212C27.8614 235.035 28.1791 234.916 28.575 234.853L28.7156 235.884C28.4031 235.926 28.1583 236.061 27.9812 236.291C27.7937 236.509 27.7 236.827 27.7 237.244C27.7 237.723 27.7833 238.067 27.95 238.275C28.1062 238.483 28.2937 238.587 28.5125 238.587C28.6479 238.587 28.7677 238.546 28.8719 238.462C28.9864 238.369 29.0802 238.233 29.1531 238.056C29.1948 237.952 29.2833 237.639 29.4187 237.119C29.6271 236.369 29.7937 235.848 29.9187 235.556C30.0437 235.264 30.226 235.035 30.4656 234.869C30.7052 234.702 31.0073 234.619 31.3719 234.619C31.726 234.619 32.0594 234.723 32.3719 234.931C32.6739 235.129 32.9135 235.421 33.0906 235.806C33.2573 236.192 33.3406 236.629 33.3406 237.119C33.3406 237.931 33.1739 238.551 32.8406 238.978C32.4969 239.395 31.9969 239.66 31.3406 239.775ZM33.2 232.353H24.6062V231.306H27.6844C27.1219 230.817 26.8406 230.197 26.8406 229.447C26.8406 228.978 26.9344 228.577 27.1219 228.244C27.2989 227.9 27.5489 227.655 27.8719 227.509C28.1844 227.363 28.6479 227.291 29.2625 227.291H33.2V228.337H29.2625C28.7312 228.337 28.3458 228.452 28.1062 228.681C27.8666 228.91 27.7469 229.233 27.7469 229.65C27.7469 229.962 27.8302 230.259 27.9969 230.541C28.1531 230.811 28.3719 231.009 28.6531 231.134C28.9239 231.249 29.3041 231.306 29.7937 231.306H33.2V232.353ZM25.825 225.353H24.6062V224.291H25.825V225.353ZM33.2 225.353H26.9812V224.291H33.2V225.353ZM33.2 222.353H26.9812V221.416H27.8562C27.5437 221.218 27.2989 220.957 27.1219 220.634C26.9344 220.311 26.8406 219.942 26.8406 219.525C26.8406 219.067 26.9344 218.692 27.1219 218.4C27.3094 218.098 27.575 217.889 27.9187 217.775C27.2 217.275 26.8406 216.634 26.8406 215.853C26.8406 215.228 27.0125 214.754 27.3562 214.431C27.6896 214.098 28.2156 213.931 28.9344 213.931H33.2V214.978H29.2781C28.8614 214.978 28.5594 215.014 28.3719 215.087C28.1844 215.15 28.0333 215.27 27.9187 215.447C27.8041 215.624 27.7469 215.837 27.7469 216.087C27.7469 216.525 27.8927 216.889 28.1844 217.181C28.476 217.462 28.9448 217.603 29.5906 217.603H33.2V218.666H29.1531C28.6844 218.666 28.3354 218.754 28.1062 218.931C27.8666 219.098 27.7469 219.374 27.7469 219.759C27.7469 220.061 27.825 220.337 27.9812 220.587C28.1375 220.837 28.3666 221.02 28.6687 221.134C28.9708 221.249 29.4031 221.306 29.9656 221.306H33.2V222.353ZM32.4344 207.291C32.7677 207.686 33.0021 208.067 33.1375 208.431C33.2729 208.785 33.3406 209.171 33.3406 209.587C33.3406 210.275 33.1739 210.801 32.8406 211.166C32.5073 211.53 32.0802 211.712 31.5594 211.712C31.2573 211.712 30.9812 211.645 30.7312 211.509C30.4708 211.374 30.2677 211.192 30.1219 210.962C29.9656 210.733 29.851 210.478 29.7781 210.197C29.7156 209.999 29.6583 209.686 29.6062 209.259C29.5125 208.416 29.3927 207.791 29.2469 207.384C29.101 207.384 29.0125 207.384 28.9812 207.384C28.5437 207.384 28.2364 207.483 28.0594 207.681C27.8302 207.952 27.7156 208.353 27.7156 208.884C27.7156 209.374 27.8041 209.738 27.9812 209.978C28.1479 210.218 28.45 210.395 28.8875 210.509L28.7469 211.541C28.3094 211.447 27.9552 211.291 27.6844 211.072C27.4135 210.853 27.2052 210.541 27.0594 210.134C26.9135 209.728 26.8406 209.259 26.8406 208.728C26.8406 208.197 26.9031 207.764 27.0281 207.431C27.1531 207.098 27.3094 206.853 27.4969 206.697C27.6844 206.541 27.9239 206.431 28.2156 206.369C28.3927 206.337 28.7156 206.322 29.1844 206.322H30.5906C31.5698 206.322 32.1896 206.301 32.45 206.259C32.7104 206.207 32.9604 206.113 33.2 205.978V207.087C32.9812 207.192 32.726 207.259 32.4344 207.291ZM30.075 207.384C30.2312 207.77 30.3666 208.343 30.4812 209.103C30.5437 209.541 30.6166 209.848 30.7 210.025C30.7729 210.202 30.8823 210.343 31.0281 210.447C31.1739 210.541 31.3406 210.587 31.5281 210.587C31.8094 210.587 32.0437 210.483 32.2312 210.275C32.4187 210.056 32.5125 209.744 32.5125 209.337C32.5125 208.931 32.4239 208.572 32.2469 208.259C32.0698 207.936 31.825 207.702 31.5125 207.556C31.2729 207.442 30.9239 207.384 30.4656 207.384H30.075Z" fill="black"/>
<path d="M75.7 369.565C75.7 368.545 75.8042 367.727 76.0125 367.112C76.2208 366.487 76.5281 366.008 76.9344 365.675C77.351 365.341 77.8719 365.175 78.4969 365.175C78.9552 365.175 79.3562 365.269 79.7 365.456C80.0542 365.644 80.3458 365.914 80.575 366.269C80.8042 366.612 80.9812 367.034 81.1062 367.534C81.2312 368.034 81.2937 368.711 81.2937 369.565C81.2937 370.576 81.1896 371.388 80.9812 372.003C80.7833 372.618 80.476 373.097 80.0594 373.44C79.6531 373.774 79.1323 373.94 78.4969 373.94C77.674 373.94 77.0229 373.644 76.5437 373.05C75.9812 372.341 75.7 371.18 75.7 369.565ZM76.7781 369.565C76.7781 370.972 76.9448 371.909 77.2781 372.378C77.6115 372.847 78.0177 373.081 78.4969 373.081C78.9865 373.081 79.3927 372.847 79.7156 372.378C80.049 371.909 80.2156 370.972 80.2156 369.565C80.2156 368.149 80.049 367.211 79.7156 366.753C79.3927 366.284 78.9812 366.05 78.4812 366.05C78.0021 366.05 77.6167 366.253 77.325 366.659C76.9604 367.18 76.7781 368.149 76.7781 369.565Z" fill="black"/>
<path d="M58.6688 318.14H57.6219V311.421C57.3615 311.661 57.0229 311.906 56.6063 312.156C56.2 312.395 55.8354 312.572 55.5125 312.687V311.671C56.0958 311.39 56.6063 311.057 57.0438 310.671C57.4917 310.276 57.8094 309.89 57.9969 309.515H58.6688V318.14ZM61.7 313.906C61.7 312.885 61.8042 312.067 62.0125 311.453C62.2208 310.828 62.5281 310.348 62.9344 310.015C63.3511 309.682 63.8719 309.515 64.4969 309.515C64.9552 309.515 65.3563 309.609 65.7 309.796C66.0542 309.984 66.3458 310.255 66.575 310.609C66.8042 310.953 66.9813 311.375 67.1063 311.875C67.2313 312.375 67.2938 313.052 67.2938 313.906C67.2938 314.916 67.1896 315.729 66.9813 316.343C66.7833 316.958 66.4761 317.437 66.0594 317.781C65.6531 318.114 65.1323 318.281 64.4969 318.281C63.674 318.281 63.0229 317.984 62.5438 317.39C61.9813 316.682 61.7 315.52 61.7 313.906ZM62.7781 313.906C62.7781 315.312 62.9448 316.25 63.2781 316.718C63.6115 317.187 64.0177 317.421 64.4969 317.421C64.9865 317.421 65.3927 317.187 65.7156 316.718C66.049 316.25 66.2156 315.312 66.2156 313.906C66.2156 312.489 66.049 311.552 65.7156 311.093C65.3927 310.625 64.9813 310.39 64.4813 310.39C64.0021 310.39 63.6167 310.593 63.325 311C62.9604 311.52 62.7781 312.489 62.7781 313.906ZM68.7 313.906C68.7 312.885 68.8042 312.067 69.0125 311.453C69.2208 310.828 69.5281 310.348 69.9344 310.015C70.3511 309.682 70.8719 309.515 71.4969 309.515C71.9552 309.515 72.3563 309.609 72.7 309.796C73.0542 309.984 73.3458 310.255 73.575 310.609C73.8042 310.953 73.9813 311.375 74.1063 311.875C74.2313 312.375 74.2938 313.052 74.2938 313.906C74.2938 314.916 74.1896 315.729 73.9813 316.343C73.7833 316.958 73.4761 317.437 73.0594 317.781C72.6531 318.114 72.1323 318.281 71.4969 318.281C70.674 318.281 70.0229 317.984 69.5438 317.39C68.9813 316.682 68.7 315.52 68.7 313.906ZM69.7781 313.906C69.7781 315.312 69.9448 316.25 70.2781 316.718C70.6115 317.187 71.0177 317.421 71.4969 317.421C71.9865 317.421 72.3927 317.187 72.7156 316.718C73.049 316.25 73.2156 315.312 73.2156 313.906C73.2156 312.489 73.049 311.552 72.7156 311.093C72.3927 310.625 71.9813 310.39 71.4813 310.39C71.0021 310.39 70.6167 310.593 70.325 311C69.9604 311.52 69.7781 312.489 69.7781 313.906ZM75.7 313.906C75.7 312.885 75.8042 312.067 76.0125 311.453C76.2208 310.828 76.5281 310.348 76.9344 310.015C77.3511 309.682 77.8719 309.515 78.4969 309.515C78.9552 309.515 79.3563 309.609 79.7 309.796C80.0542 309.984 80.3458 310.255 80.575 310.609C80.8042 310.953 80.9813 311.375 81.1063 311.875C81.2313 312.375 81.2938 313.052 81.2938 313.906C81.2938 314.916 81.1896 315.729 80.9813 316.343C80.7833 316.958 80.4761 317.437 80.0594 317.781C79.6531 318.114 79.1323 318.281 78.4969 318.281C77.674 318.281 77.0229 317.984 76.5438 317.39C75.9813 316.682 75.7 315.52 75.7 313.906ZM76.7781 313.906C76.7781 315.312 76.9448 316.25 77.2781 316.718C77.6115 317.187 78.0177 317.421 78.4969 317.421C78.9865 317.421 79.3927 317.187 79.7156 316.718C80.049 316.25 80.2156 315.312 80.2156 313.906C80.2156 312.489 80.049 311.552 79.7156 311.093C79.3927 310.625 78.9813 310.39 78.4813 310.39C78.0021 310.39 77.6167 310.593 77.325 311C76.9604 311.52 76.7781 312.489 76.7781 313.906Z" fill="black"/>
<path d="M60.2469 261.464V262.48H54.5594C54.5594 262.23 54.6011 261.985 54.6844 261.746C54.8302 261.36 55.0594 260.98 55.3719 260.605C55.6948 260.23 56.1583 259.798 56.7625 259.308C57.7 258.537 58.3302 257.928 58.6531 257.48C58.9865 257.032 59.1531 256.61 59.1531 256.214C59.1531 255.798 59.0021 255.449 58.7 255.167C58.3979 254.876 58.0073 254.73 57.5281 254.73C57.0177 254.73 56.6115 254.881 56.3094 255.183C56.0073 255.485 55.8511 255.907 55.8406 256.449L54.7625 256.339C54.8354 255.527 55.1115 254.912 55.5906 254.496C56.0802 254.069 56.7365 253.855 57.5594 253.855C58.3823 253.855 59.0333 254.084 59.5125 254.542C59.9917 255.001 60.2313 255.569 60.2313 256.246C60.2313 256.589 60.1583 256.928 60.0125 257.261C59.8771 257.584 59.6427 257.933 59.3094 258.308C58.9865 258.673 58.45 259.173 57.7 259.808C57.0646 260.339 56.6531 260.704 56.4656 260.902C56.2886 261.089 56.1427 261.277 56.0281 261.464H60.2469ZM61.7 258.246C61.7 257.225 61.8042 256.407 62.0125 255.792C62.2208 255.167 62.5281 254.688 62.9344 254.355C63.3511 254.022 63.8719 253.855 64.4969 253.855C64.9552 253.855 65.3563 253.949 65.7 254.136C66.0542 254.324 66.3458 254.595 66.575 254.949C66.8042 255.292 66.9813 255.714 67.1063 256.214C67.2313 256.714 67.2938 257.391 67.2938 258.246C67.2938 259.256 67.1896 260.069 66.9813 260.683C66.7833 261.298 66.4761 261.777 66.0594 262.121C65.6531 262.454 65.1323 262.621 64.4969 262.621C63.674 262.621 63.0229 262.324 62.5438 261.73C61.9813 261.022 61.7 259.86 61.7 258.246ZM62.7781 258.246C62.7781 259.652 62.9448 260.589 63.2781 261.058C63.6115 261.527 64.0177 261.761 64.4969 261.761C64.9865 261.761 65.3927 261.527 65.7156 261.058C66.049 260.589 66.2156 259.652 66.2156 258.246C66.2156 256.829 66.049 255.891 65.7156 255.433C65.3927 254.964 64.9813 254.73 64.4813 254.73C64.0021 254.73 63.6167 254.933 63.325 255.339C62.9604 255.86 62.7781 256.829 62.7781 258.246ZM68.7 258.246C68.7 257.225 68.8042 256.407 69.0125 255.792C69.2208 255.167 69.5281 254.688 69.9344 254.355C70.3511 254.022 70.8719 253.855 71.4969 253.855C71.9552 253.855 72.3563 253.949 72.7 254.136C73.0542 254.324 73.3458 254.595 73.575 254.949C73.8042 255.292 73.9813 255.714 74.1063 256.214C74.2313 256.714 74.2938 257.391 74.2938 258.246C74.2938 259.256 74.1896 260.069 73.9813 260.683C73.7833 261.298 73.4761 261.777 73.0594 262.121C72.6531 262.454 72.1323 262.621 71.4969 262.621C70.674 262.621 70.0229 262.324 69.5438 261.73C68.9813 261.022 68.7 259.86 68.7 258.246ZM69.7781 258.246C69.7781 259.652 69.9448 260.589 70.2781 261.058C70.6115 261.527 71.0177 261.761 71.4969 261.761C71.9865 261.761 72.3927 261.527 72.7156 261.058C73.049 260.589 73.2156 259.652 73.2156 258.246C73.2156 256.829 73.049 255.891 72.7156 255.433C72.3927 254.964 71.9813 254.73 71.4813 254.73C71.0021 254.73 70.6167 254.933 70.325 255.339C69.9604 255.86 69.7781 256.829 69.7781 258.246ZM75.7 258.246C75.7 257.225 75.8042 256.407 76.0125 255.792C76.2208 255.167 76.5281 254.688 76.9344 254.355C77.3511 254.022 77.8719 253.855 78.4969 253.855C78.9552 253.855 79.3563 253.949 79.7 254.136C80.0542 254.324 80.3458 254.595 80.575 254.949C80.8042 255.292 80.9813 255.714 81.1063 256.214C81.2313 256.714 81.2938 257.391 81.2938 258.246C81.2938 259.256 81.1896 260.069 80.9813 260.683C80.7833 261.298 80.4761 261.777 80.0594 262.121C79.6531 262.454 79.1323 262.621 78.4969 262.621C77.674 262.621 77.0229 262.324 76.5438 261.73C75.9813 261.022 75.7 259.86 75.7 258.246ZM76.7781 258.246C76.7781 259.652 76.9448 260.589 77.2781 261.058C77.6115 261.527 78.0177 261.761 78.4969 261.761C78.9865 261.761 79.3927 261.527 79.7156 261.058C80.049 260.589 80.2156 259.652 80.2156 258.246C80.2156 256.829 80.049 255.891 79.7156 255.433C79.3927 254.964 78.9813 254.73 78.4813 254.73C78.0021 254.73 77.6167 254.933 77.325 255.339C76.9604 255.86 76.7781 256.829 76.7781 258.246Z" fill="black"/>
<path d="M54.7 204.554L55.7625 204.414C55.8771 205.007 56.0802 205.44 56.3719 205.71C56.6636 205.971 57.0177 206.101 57.4344 206.101C57.9344 206.101 58.3563 205.929 58.7 205.585C59.0438 205.242 59.2156 204.815 59.2156 204.304C59.2156 203.825 59.0542 203.429 58.7313 203.117C58.4188 202.794 58.0177 202.632 57.5281 202.632C57.3302 202.632 57.0802 202.674 56.7781 202.757L56.9031 201.82C56.9761 201.83 57.0333 201.835 57.075 201.835C57.5229 201.835 57.924 201.721 58.2781 201.492C58.6427 201.252 58.825 200.888 58.825 200.398C58.825 200.013 58.6948 199.695 58.4344 199.445C58.174 199.184 57.8354 199.054 57.4188 199.054C57.0125 199.054 56.6688 199.184 56.3875 199.445C56.1167 199.705 55.9448 200.091 55.8719 200.601L54.8094 200.414C54.9344 199.716 55.2261 199.174 55.6844 198.789C56.1427 198.393 56.7104 198.195 57.3875 198.195C57.8563 198.195 58.2886 198.299 58.6844 198.507C59.0802 198.705 59.3823 198.976 59.5906 199.32C59.799 199.664 59.9031 200.033 59.9031 200.429C59.9031 200.794 59.8042 201.132 59.6063 201.445C59.4083 201.747 59.1167 201.986 58.7313 202.164C59.2313 202.278 59.6219 202.523 59.9031 202.898C60.1844 203.263 60.325 203.726 60.325 204.289C60.325 205.039 60.049 205.674 59.4969 206.195C58.9552 206.716 58.2677 206.976 57.4344 206.976C56.6844 206.976 56.0594 206.752 55.5594 206.304C55.0594 205.846 54.7729 205.263 54.7 204.554ZM61.7 202.585C61.7 201.565 61.8042 200.747 62.0125 200.132C62.2208 199.507 62.5281 199.028 62.9344 198.695C63.3511 198.361 63.8719 198.195 64.4969 198.195C64.9552 198.195 65.3563 198.289 65.7 198.476C66.0542 198.664 66.3458 198.934 66.575 199.289C66.8042 199.632 66.9813 200.054 67.1063 200.554C67.2313 201.054 67.2938 201.731 67.2938 202.585C67.2938 203.596 67.1896 204.408 66.9813 205.023C66.7833 205.638 66.4761 206.117 66.0594 206.46C65.6531 206.794 65.1323 206.96 64.4969 206.96C63.674 206.96 63.0229 206.664 62.5438 206.07C61.9813 205.361 61.7 204.2 61.7 202.585ZM62.7781 202.585C62.7781 203.992 62.9448 204.929 63.2781 205.398C63.6115 205.867 64.0177 206.101 64.4969 206.101C64.9865 206.101 65.3927 205.867 65.7156 205.398C66.049 204.929 66.2156 203.992 66.2156 202.585C66.2156 201.169 66.049 200.231 65.7156 199.773C65.3927 199.304 64.9813 199.07 64.4813 199.07C64.0021 199.07 63.6167 199.273 63.325 199.679C62.9604 200.2 62.7781 201.169 62.7781 202.585ZM68.7 202.585C68.7 201.565 68.8042 200.747 69.0125 200.132C69.2208 199.507 69.5281 199.028 69.9344 198.695C70.3511 198.361 70.8719 198.195 71.4969 198.195C71.9552 198.195 72.3563 198.289 72.7 198.476C73.0542 198.664 73.3458 198.934 73.575 199.289C73.8042 199.632 73.9813 200.054 74.1063 200.554C74.2313 201.054 74.2938 201.731 74.2938 202.585C74.2938 203.596 74.1896 204.408 73.9813 205.023C73.7833 205.638 73.4761 206.117 73.0594 206.46C72.6531 206.794 72.1323 206.96 71.4969 206.96C70.674 206.96 70.0229 206.664 69.5438 206.07C68.9813 205.361 68.7 204.2 68.7 202.585ZM69.7781 202.585C69.7781 203.992 69.9448 204.929 70.2781 205.398C70.6115 205.867 71.0177 206.101 71.4969 206.101C71.9865 206.101 72.3927 205.867 72.7156 205.398C73.049 204.929 73.2156 203.992 73.2156 202.585C73.2156 201.169 73.049 200.231 72.7156 199.773C72.3927 199.304 71.9813 199.07 71.4813 199.07C71.0021 199.07 70.6167 199.273 70.325 199.679C69.9604 200.2 69.7781 201.169 69.7781 202.585ZM75.7 202.585C75.7 201.565 75.8042 200.747 76.0125 200.132C76.2208 199.507 76.5281 199.028 76.9344 198.695C77.3511 198.361 77.8719 198.195 78.4969 198.195C78.9552 198.195 79.3563 198.289 79.7 198.476C80.0542 198.664 80.3458 198.934 80.575 199.289C80.8042 199.632 80.9813 200.054 81.1063 200.554C81.2313 201.054 81.2938 201.731 81.2938 202.585C81.2938 203.596 81.1896 204.408 80.9813 205.023C80.7833 205.638 80.4761 206.117 80.0594 206.46C79.6531 206.794 79.1323 206.96 78.4969 206.96C77.674 206.96 77.0229 206.664 76.5438 206.07C75.9813 205.361 75.7 204.2 75.7 202.585ZM76.7781 202.585C76.7781 203.992 76.9448 204.929 77.2781 205.398C77.6115 205.867 78.0177 206.101 78.4969 206.101C78.9865 206.101 79.3927 205.867 79.7156 205.398C80.049 204.929 80.2156 203.992 80.2156 202.585C80.2156 201.169 80.049 200.231 79.7156 199.773C79.3927 199.304 78.9813 199.07 78.4813 199.07C78.0021 199.07 77.6167 199.273 77.325 199.679C76.9604 200.2 76.7781 201.169 76.7781 202.585Z" fill="black"/>
<path d="M58.075 151.16V149.098H54.3563V148.129L58.2781 142.566H59.1375V148.129H60.2938V149.098H59.1375V151.16H58.075ZM58.075 148.129V144.27L55.3875 148.129H58.075ZM61.7 146.926C61.7 145.905 61.8042 145.087 62.0125 144.473C62.2208 143.848 62.5281 143.368 62.9344 143.035C63.3511 142.702 63.8719 142.535 64.4969 142.535C64.9552 142.535 65.3563 142.629 65.7 142.816C66.0542 143.004 66.3458 143.275 66.575 143.629C66.8042 143.973 66.9813 144.395 67.1063 144.895C67.2313 145.395 67.2938 146.072 67.2938 146.926C67.2938 147.936 67.1896 148.749 66.9813 149.363C66.7833 149.978 66.4761 150.457 66.0594 150.801C65.6531 151.134 65.1323 151.301 64.4969 151.301C63.674 151.301 63.0229 151.004 62.5438 150.41C61.9813 149.702 61.7 148.54 61.7 146.926ZM62.7781 146.926C62.7781 148.332 62.9448 149.27 63.2781 149.738C63.6115 150.207 64.0177 150.441 64.4969 150.441C64.9865 150.441 65.3927 150.207 65.7156 149.738C66.049 149.27 66.2156 148.332 66.2156 146.926C66.2156 145.509 66.049 144.572 65.7156 144.113C65.3927 143.645 64.9813 143.41 64.4813 143.41C64.0021 143.41 63.6167 143.613 63.325 144.02C62.9604 144.54 62.7781 145.509 62.7781 146.926ZM68.7 146.926C68.7 145.905 68.8042 145.087 69.0125 144.473C69.2208 143.848 69.5281 143.368 69.9344 143.035C70.3511 142.702 70.8719 142.535 71.4969 142.535C71.9552 142.535 72.3563 142.629 72.7 142.816C73.0542 143.004 73.3458 143.275 73.575 143.629C73.8042 143.973 73.9813 144.395 74.1063 144.895C74.2313 145.395 74.2938 146.072 74.2938 146.926C74.2938 147.936 74.1896 148.749 73.9813 149.363C73.7833 149.978 73.4761 150.457 73.0594 150.801C72.6531 151.134 72.1323 151.301 71.4969 151.301C70.674 151.301 70.0229 151.004 69.5438 150.41C68.9813 149.702 68.7 148.54 68.7 146.926ZM69.7781 146.926C69.7781 148.332 69.9448 149.27 70.2781 149.738C70.6115 150.207 71.0177 150.441 71.4969 150.441C71.9865 150.441 72.3927 150.207 72.7156 149.738C73.049 149.27 73.2156 148.332 73.2156 146.926C73.2156 145.509 73.049 144.572 72.7156 144.113C72.3927 143.645 71.9813 143.41 71.4813 143.41C71.0021 143.41 70.6167 143.613 70.325 144.02C69.9604 144.54 69.7781 145.509 69.7781 146.926ZM75.7 146.926C75.7 145.905 75.8042 145.087 76.0125 144.473C76.2208 143.848 76.5281 143.368 76.9344 143.035C77.3511 142.702 77.8719 142.535 78.4969 142.535C78.9552 142.535 79.3563 142.629 79.7 142.816C80.0542 143.004 80.3458 143.275 80.575 143.629C80.8042 143.973 80.9813 144.395 81.1063 144.895C81.2313 145.395 81.2938 146.072 81.2938 146.926C81.2938 147.936 81.1896 148.749 80.9813 149.363C80.7833 149.978 80.4761 150.457 80.0594 150.801C79.6531 151.134 79.1323 151.301 78.4969 151.301C77.674 151.301 77.0229 151.004 76.5438 150.41C75.9813 149.702 75.7 148.54 75.7 146.926ZM76.7781 146.926C76.7781 148.332 76.9448 149.27 77.2781 149.738C77.6115 150.207 78.0177 150.441 78.4969 150.441C78.9865 150.441 79.3927 150.207 79.7156 149.738C80.049 149.27 80.2156 148.332 80.2156 146.926C80.2156 145.509 80.049 144.572 79.7156 144.113C79.3927 143.645 78.9813 143.41 78.4813 143.41C78.0021 143.41 77.6167 143.613 77.325 144.02C76.9604 144.54 76.7781 145.509 76.7781 146.926Z" fill="black"/>
<path d="M54.7 93.25L55.8094 93.1562C55.8927 93.6979 56.0802 94.1042 56.3719 94.375C56.674 94.6458 57.0386 94.7812 57.4656 94.7812C57.9656 94.7812 58.3927 94.5885 58.7469 94.2031C59.1011 93.8177 59.2781 93.3125 59.2781 92.6875C59.2781 92.0833 59.1063 91.6094 58.7625 91.2656C58.4292 90.9115 57.9865 90.7344 57.4344 90.7344C57.1011 90.7344 56.7938 90.8125 56.5125 90.9688C56.2417 91.125 56.0281 91.3229 55.8719 91.5625L54.8875 91.4375L55.7156 87.0312H59.9969V88.0312H56.5594L56.1063 90.3438C56.6167 89.9792 57.1531 89.7969 57.7156 89.7969C58.4656 89.7969 59.0958 90.0573 59.6063 90.5781C60.1271 91.099 60.3875 91.7708 60.3875 92.5938C60.3875 93.3646 60.1636 94.0365 59.7156 94.6094C59.1636 95.2969 58.4136 95.6406 57.4656 95.6406C56.6844 95.6406 56.0438 95.4219 55.5438 94.9844C55.0542 94.5469 54.7729 93.9688 54.7 93.25ZM61.7 91.2656C61.7 90.2448 61.8042 89.4271 62.0125 88.8125C62.2208 88.1875 62.5281 87.7083 62.9344 87.375C63.3511 87.0417 63.8719 86.875 64.4969 86.875C64.9552 86.875 65.3563 86.9688 65.7 87.1562C66.0542 87.3438 66.3458 87.6146 66.575 87.9688C66.8042 88.3125 66.9813 88.7344 67.1063 89.2344C67.2313 89.7344 67.2938 90.4115 67.2938 91.2656C67.2938 92.276 67.1896 93.0885 66.9813 93.7031C66.7833 94.3177 66.4761 94.7969 66.0594 95.1406C65.6531 95.474 65.1323 95.6406 64.4969 95.6406C63.674 95.6406 63.0229 95.3438 62.5438 94.75C61.9813 94.0417 61.7 92.8802 61.7 91.2656ZM62.7781 91.2656C62.7781 92.6719 62.9448 93.6094 63.2781 94.0781C63.6115 94.5469 64.0177 94.7812 64.4969 94.7812C64.9865 94.7812 65.3927 94.5469 65.7156 94.0781C66.049 93.6094 66.2156 92.6719 66.2156 91.2656C66.2156 89.849 66.049 88.9115 65.7156 88.4531C65.3927 87.9844 64.9813 87.75 64.4813 87.75C64.0021 87.75 63.6167 87.9531 63.325 88.3594C62.9604 88.8802 62.7781 89.849 62.7781 91.2656ZM68.7 91.2656C68.7 90.2448 68.8042 89.4271 69.0125 88.8125C69.2208 88.1875 69.5281 87.7083 69.9344 87.375C70.3511 87.0417 70.8719 86.875 71.4969 86.875C71.9552 86.875 72.3563 86.9688 72.7 87.1562C73.0542 87.3438 73.3458 87.6146 73.575 87.9688C73.8042 88.3125 73.9813 88.7344 74.1063 89.2344C74.2313 89.7344 74.2938 90.4115 74.2938 91.2656C74.2938 92.276 74.1896 93.0885 73.9813 93.7031C73.7833 94.3177 73.4761 94.7969 73.0594 95.1406C72.6531 95.474 72.1323 95.6406 71.4969 95.6406C70.674 95.6406 70.0229 95.3438 69.5438 94.75C68.9813 94.0417 68.7 92.8802 68.7 91.2656ZM69.7781 91.2656C69.7781 92.6719 69.9448 93.6094 70.2781 94.0781C70.6115 94.5469 71.0177 94.7812 71.4969 94.7812C71.9865 94.7812 72.3927 94.5469 72.7156 94.0781C73.049 93.6094 73.2156 92.6719 73.2156 91.2656C73.2156 89.849 73.049 88.9115 72.7156 88.4531C72.3927 87.9844 71.9813 87.75 71.4813 87.75C71.0021 87.75 70.6167 87.9531 70.325 88.3594C69.9604 88.8802 69.7781 89.849 69.7781 91.2656ZM75.7 91.2656C75.7 90.2448 75.8042 89.4271 76.0125 88.8125C76.2208 88.1875 76.5281 87.7083 76.9344 87.375C77.3511 87.0417 77.8719 86.875 78.4969 86.875C78.9552 86.875 79.3563 86.9688 79.7 87.1562C80.0542 87.3438 80.3458 87.6146 80.575 87.9688C80.8042 88.3125 80.9813 88.7344 81.1063 89.2344C81.2313 89.7344 81.2938 90.4115 81.2938 91.2656C81.2938 92.276 81.1896 93.0885 80.9813 93.7031C80.7833 94.3177 80.4761 94.7969 80.0594 95.1406C79.6531 95.474 79.1323 95.6406 78.4969 95.6406C77.674 95.6406 77.0229 95.3438 76.5438 94.75C75.9813 94.0417 75.7 92.8802 75.7 91.2656ZM76.7781 91.2656C76.7781 92.6719 76.9448 93.6094 77.2781 94.0781C77.6115 94.5469 78.0177 94.7812 78.4969 94.7812C78.9865 94.7812 79.3927 94.5469 79.7156 94.0781C80.049 93.6094 80.2156 92.6719 80.2156 91.2656C80.2156 89.849 80.049 88.9115 79.7156 88.4531C79.3927 87.9844 78.9813 87.75 78.4813 87.75C78.0021 87.75 77.6167 87.9531 77.325 88.3594C76.9604 88.8802 76.7781 89.849 76.7781 91.2656Z" fill="black"/>
<path d="M167.959 386.8V384.737H164.24V383.769L168.162 378.206H169.021V383.769H170.177V384.737H169.021V386.8H167.959ZM167.959 383.769V379.909L165.271 383.769H167.959ZM174.959 386.8V384.737H171.24V383.769L175.162 378.206H176.021V383.769H177.177V384.737H176.021V386.8H174.959ZM174.959 383.769V379.909L172.271 383.769H174.959ZM178.584 382.565C178.584 381.545 178.688 380.727 178.896 380.112C179.104 379.487 179.412 379.008 179.818 378.675C180.235 378.341 180.756 378.175 181.381 378.175C181.839 378.175 182.24 378.269 182.584 378.456C182.938 378.644 183.229 378.914 183.459 379.269C183.688 379.612 183.865 380.034 183.99 380.534C184.115 381.034 184.177 381.711 184.177 382.565C184.177 383.576 184.073 384.388 183.865 385.003C183.667 385.618 183.36 386.097 182.943 386.44C182.537 386.774 182.016 386.94 181.381 386.94C180.558 386.94 179.907 386.644 179.427 386.05C178.865 385.341 178.584 384.18 178.584 382.565ZM179.662 382.565C179.662 383.972 179.828 384.909 180.162 385.378C180.495 385.847 180.901 386.081 181.381 386.081C181.87 386.081 182.276 385.847 182.599 385.378C182.933 384.909 183.099 383.972 183.099 382.565C183.099 381.149 182.933 380.211 182.599 379.753C182.276 379.284 181.865 379.05 181.365 379.05C180.886 379.05 180.5 379.253 180.209 379.659C179.844 380.18 179.662 381.149 179.662 382.565ZM185.584 382.565C185.584 381.545 185.688 380.727 185.896 380.112C186.104 379.487 186.412 379.008 186.818 378.675C187.235 378.341 187.756 378.175 188.381 378.175C188.839 378.175 189.24 378.269 189.584 378.456C189.938 378.644 190.229 378.914 190.459 379.269C190.688 379.612 190.865 380.034 190.99 380.534C191.115 381.034 191.177 381.711 191.177 382.565C191.177 383.576 191.073 384.388 190.865 385.003C190.667 385.618 190.36 386.097 189.943 386.44C189.537 386.774 189.016 386.94 188.381 386.94C187.558 386.94 186.907 386.644 186.427 386.05C185.865 385.341 185.584 384.18 185.584 382.565ZM186.662 382.565C186.662 383.972 186.828 384.909 187.162 385.378C187.495 385.847 187.901 386.081 188.381 386.081C188.87 386.081 189.276 385.847 189.599 385.378C189.933 384.909 190.099 383.972 190.099 382.565C190.099 381.149 189.933 380.211 189.599 379.753C189.276 379.284 188.865 379.05 188.365 379.05C187.886 379.05 187.5 379.253 187.209 379.659C186.844 380.18 186.662 381.149 186.662 382.565ZM192.584 382.565C192.584 381.545 192.688 380.727 192.896 380.112C193.104 379.487 193.412 379.008 193.818 378.675C194.235 378.341 194.756 378.175 195.381 378.175C195.839 378.175 196.24 378.269 196.584 378.456C196.938 378.644 197.229 378.914 197.459 379.269C197.688 379.612 197.865 380.034 197.99 380.534C198.115 381.034 198.177 381.711 198.177 382.565C198.177 383.576 198.073 384.388 197.865 385.003C197.667 385.618 197.36 386.097 196.943 386.44C196.537 386.774 196.016 386.94 195.381 386.94C194.558 386.94 193.907 386.644 193.427 386.05C192.865 385.341 192.584 384.18 192.584 382.565ZM193.662 382.565C193.662 383.972 193.828 384.909 194.162 385.378C194.495 385.847 194.901 386.081 195.381 386.081C195.87 386.081 196.276 385.847 196.599 385.378C196.933 384.909 197.099 383.972 197.099 382.565C197.099 381.149 196.933 380.211 196.599 379.753C196.276 379.284 195.865 379.05 195.365 379.05C194.886 379.05 194.5 379.253 194.209 379.659C193.844 380.18 193.662 381.149 193.662 382.565Z" fill="black"/>
<path d="M289.236 386.8V384.737H285.517V383.769L289.439 378.206H290.299V383.769H291.455V384.737H290.299V386.8H289.236ZM289.236 383.769V379.909L286.549 383.769H289.236ZM296.236 386.8V384.737H292.517V383.769L296.439 378.206H297.299V383.769H298.455V384.737H297.299V386.8H296.236ZM296.236 383.769V379.909L293.549 383.769H296.236ZM305.408 385.784V386.8H299.72C299.72 386.55 299.762 386.305 299.845 386.065C299.991 385.68 300.22 385.3 300.533 384.925C300.856 384.55 301.319 384.118 301.924 383.628C302.861 382.857 303.491 382.248 303.814 381.8C304.148 381.352 304.314 380.93 304.314 380.534C304.314 380.118 304.163 379.769 303.861 379.487C303.559 379.196 303.168 379.05 302.689 379.05C302.179 379.05 301.773 379.201 301.47 379.503C301.168 379.805 301.012 380.227 301.002 380.769L299.924 380.659C299.997 379.847 300.273 379.232 300.752 378.815C301.241 378.388 301.898 378.175 302.72 378.175C303.543 378.175 304.194 378.404 304.674 378.862C305.153 379.321 305.392 379.888 305.392 380.565C305.392 380.909 305.319 381.248 305.174 381.581C305.038 381.904 304.804 382.253 304.47 382.628C304.148 382.993 303.611 383.493 302.861 384.128C302.226 384.659 301.814 385.024 301.627 385.222C301.45 385.409 301.304 385.597 301.189 385.784H305.408ZM306.861 382.565C306.861 381.545 306.965 380.727 307.174 380.112C307.382 379.487 307.689 379.008 308.095 378.675C308.512 378.341 309.033 378.175 309.658 378.175C310.116 378.175 310.517 378.269 310.861 378.456C311.215 378.644 311.507 378.914 311.736 379.269C311.965 379.612 312.142 380.034 312.267 380.534C312.392 381.034 312.455 381.711 312.455 382.565C312.455 383.576 312.351 384.388 312.142 385.003C311.944 385.618 311.637 386.097 311.22 386.44C310.814 386.774 310.293 386.94 309.658 386.94C308.835 386.94 308.184 386.644 307.705 386.05C307.142 385.341 306.861 384.18 306.861 382.565ZM307.939 382.565C307.939 383.972 308.106 384.909 308.439 385.378C308.773 385.847 309.179 386.081 309.658 386.081C310.148 386.081 310.554 385.847 310.877 385.378C311.21 384.909 311.377 383.972 311.377 382.565C311.377 381.149 311.21 380.211 310.877 379.753C310.554 379.284 310.142 379.05 309.642 379.05C309.163 379.05 308.778 379.253 308.486 379.659C308.121 380.18 307.939 381.149 307.939 382.565ZM313.861 382.565C313.861 381.545 313.965 380.727 314.174 380.112C314.382 379.487 314.689 379.008 315.095 378.675C315.512 378.341 316.033 378.175 316.658 378.175C317.116 378.175 317.517 378.269 317.861 378.456C318.215 378.644 318.507 378.914 318.736 379.269C318.965 379.612 319.142 380.034 319.267 380.534C319.392 381.034 319.455 381.711 319.455 382.565C319.455 383.576 319.351 384.388 319.142 385.003C318.944 385.618 318.637 386.097 318.22 386.44C317.814 386.774 317.293 386.94 316.658 386.94C315.835 386.94 315.184 386.644 314.705 386.05C314.142 385.341 313.861 384.18 313.861 382.565ZM314.939 382.565C314.939 383.972 315.106 384.909 315.439 385.378C315.773 385.847 316.179 386.081 316.658 386.081C317.148 386.081 317.554 385.847 317.877 385.378C318.21 384.909 318.377 383.972 318.377 382.565C318.377 381.149 318.21 380.211 317.877 379.753C317.554 379.284 317.142 379.05 316.642 379.05C316.163 379.05 315.778 379.253 315.486 379.659C315.121 380.18 314.939 381.149 314.939 382.565Z" fill="black"/>
<path d="M410.514 386.8V384.737H406.795V383.769L410.717 378.206H411.576V383.769H412.732V384.737H411.576V386.8H410.514ZM410.514 383.769V379.909L407.826 383.769H410.514ZM417.514 386.8V384.737H413.795V383.769L417.717 378.206H418.576V383.769H419.732V384.737H418.576V386.8H417.514ZM417.514 383.769V379.909L414.826 383.769H417.514ZM424.514 386.8V384.737H420.795V383.769L424.717 378.206H425.576V383.769H426.732V384.737H425.576V386.8H424.514ZM424.514 383.769V379.909L421.826 383.769H424.514ZM428.139 382.565C428.139 381.545 428.243 380.727 428.451 380.112C428.659 379.487 428.967 379.008 429.373 378.675C429.79 378.341 430.31 378.175 430.935 378.175C431.394 378.175 431.795 378.269 432.139 378.456C432.493 378.644 432.784 378.914 433.014 379.269C433.243 379.612 433.42 380.034 433.545 380.534C433.67 381.034 433.732 381.711 433.732 382.565C433.732 383.576 433.628 384.388 433.42 385.003C433.222 385.618 432.915 386.097 432.498 386.44C432.092 386.774 431.571 386.94 430.935 386.94C430.112 386.94 429.461 386.644 428.982 386.05C428.42 385.341 428.139 384.18 428.139 382.565ZM429.217 382.565C429.217 383.972 429.383 384.909 429.717 385.378C430.05 385.847 430.456 386.081 430.935 386.081C431.425 386.081 431.831 385.847 432.154 385.378C432.487 384.909 432.654 383.972 432.654 382.565C432.654 381.149 432.487 380.211 432.154 379.753C431.831 379.284 431.42 379.05 430.92 379.05C430.441 379.05 430.055 379.253 429.764 379.659C429.399 380.18 429.217 381.149 429.217 382.565ZM435.139 382.565C435.139 381.545 435.243 380.727 435.451 380.112C435.659 379.487 435.967 379.008 436.373 378.675C436.79 378.341 437.31 378.175 437.935 378.175C438.394 378.175 438.795 378.269 439.139 378.456C439.493 378.644 439.784 378.914 440.014 379.269C440.243 379.612 440.42 380.034 440.545 380.534C440.67 381.034 440.732 381.711 440.732 382.565C440.732 383.576 440.628 384.388 440.42 385.003C440.222 385.618 439.915 386.097 439.498 386.44C439.092 386.774 438.571 386.94 437.935 386.94C437.112 386.94 436.461 386.644 435.982 386.05C435.42 385.341 435.139 384.18 435.139 382.565ZM436.217 382.565C436.217 383.972 436.383 384.909 436.717 385.378C437.05 385.847 437.456 386.081 437.935 386.081C438.425 386.081 438.831 385.847 439.154 385.378C439.487 384.909 439.654 383.972 439.654 382.565C439.654 381.149 439.487 380.211 439.154 379.753C438.831 379.284 438.42 379.05 437.92 379.05C437.441 379.05 437.055 379.253 436.764 379.659C436.399 380.18 436.217 381.149 436.217 382.565Z" fill="black"/>
<path d="M531.791 386.8V384.737H528.072V383.769L531.994 378.206H532.853V383.769H534.01V384.737H532.853V386.8H531.791ZM531.791 383.769V379.909L529.103 383.769H531.791ZM538.791 386.8V384.737H535.072V383.769L538.994 378.206H539.853V383.769H541.01V384.737H539.853V386.8H538.791ZM538.791 383.769V379.909L536.103 383.769H538.791ZM547.885 380.315L546.838 380.394C546.744 379.977 546.614 379.675 546.447 379.487C546.156 379.185 545.801 379.034 545.385 379.034C545.051 379.034 544.754 379.128 544.494 379.315C544.171 379.565 543.911 379.925 543.713 380.394C543.525 380.852 543.426 381.508 543.416 382.362C543.666 381.977 543.973 381.69 544.338 381.503C544.713 381.315 545.103 381.222 545.51 381.222C546.208 381.222 546.801 381.482 547.291 382.003C547.791 382.524 548.041 383.19 548.041 384.003C548.041 384.545 547.921 385.05 547.682 385.519C547.452 385.977 547.135 386.331 546.728 386.581C546.322 386.821 545.864 386.94 545.353 386.94C544.468 386.94 543.749 386.618 543.197 385.972C542.645 385.326 542.369 384.263 542.369 382.784C542.369 381.118 542.676 379.909 543.291 379.159C543.822 378.503 544.541 378.175 545.447 378.175C546.124 378.175 546.676 378.368 547.103 378.753C547.541 379.128 547.801 379.649 547.885 380.315ZM543.588 384.019C543.588 384.383 543.661 384.732 543.807 385.065C543.963 385.388 544.176 385.638 544.447 385.815C544.728 385.993 545.025 386.081 545.338 386.081C545.775 386.081 546.156 385.904 546.478 385.55C546.801 385.185 546.963 384.696 546.963 384.081C546.963 383.487 546.801 383.019 546.478 382.675C546.166 382.331 545.77 382.159 545.291 382.159C544.812 382.159 544.406 382.331 544.072 382.675C543.749 383.019 543.588 383.466 543.588 384.019ZM549.416 382.565C549.416 381.545 549.52 380.727 549.728 380.112C549.937 379.487 550.244 379.008 550.65 378.675C551.067 378.341 551.588 378.175 552.213 378.175C552.671 378.175 553.072 378.269 553.416 378.456C553.77 378.644 554.062 378.914 554.291 379.269C554.52 379.612 554.697 380.034 554.822 380.534C554.947 381.034 555.01 381.711 555.01 382.565C555.01 383.576 554.906 384.388 554.697 385.003C554.499 385.618 554.192 386.097 553.775 386.44C553.369 386.774 552.848 386.94 552.213 386.94C551.39 386.94 550.739 386.644 550.26 386.05C549.697 385.341 549.416 384.18 549.416 382.565ZM550.494 382.565C550.494 383.972 550.661 384.909 550.994 385.378C551.327 385.847 551.734 386.081 552.213 386.081C552.702 386.081 553.109 385.847 553.432 385.378C553.765 384.909 553.932 383.972 553.932 382.565C553.932 381.149 553.765 380.211 553.432 379.753C553.109 379.284 552.697 379.05 552.197 379.05C551.718 379.05 551.333 379.253 551.041 379.659C550.676 380.18 550.494 381.149 550.494 382.565ZM556.416 382.565C556.416 381.545 556.52 380.727 556.728 380.112C556.937 379.487 557.244 379.008 557.65 378.675C558.067 378.341 558.588 378.175 559.213 378.175C559.671 378.175 560.072 378.269 560.416 378.456C560.77 378.644 561.062 378.914 561.291 379.269C561.52 379.612 561.697 380.034 561.822 380.534C561.947 381.034 562.01 381.711 562.01 382.565C562.01 383.576 561.906 384.388 561.697 385.003C561.499 385.618 561.192 386.097 560.775 386.44C560.369 386.774 559.848 386.94 559.213 386.94C558.39 386.94 557.739 386.644 557.26 386.05C556.697 385.341 556.416 384.18 556.416 382.565ZM557.494 382.565C557.494 383.972 557.661 384.909 557.994 385.378C558.327 385.847 558.734 386.081 559.213 386.081C559.702 386.081 560.109 385.847 560.432 385.378C560.765 384.909 560.932 383.972 560.932 382.565C560.932 381.149 560.765 380.211 560.432 379.753C560.109 379.284 559.697 379.05 559.197 379.05C558.718 379.05 558.333 379.253 558.041 379.659C557.676 380.18 557.494 381.149 557.494 382.565Z" fill="black"/>
<path d="M653.068 386.8V384.737H649.35V383.769L653.272 378.206H654.131V383.769H655.287V384.737H654.131V386.8H653.068ZM653.068 383.769V379.909L650.381 383.769H653.068ZM660.068 386.8V384.737H656.35V383.769L660.272 378.206H661.131V383.769H662.287V384.737H661.131V386.8H660.068ZM660.068 383.769V379.909L657.381 383.769H660.068ZM665.318 382.144C664.881 381.977 664.553 381.748 664.334 381.456C664.126 381.154 664.022 380.8 664.022 380.394C664.022 379.769 664.246 379.243 664.693 378.815C665.152 378.388 665.751 378.175 666.49 378.175C667.24 378.175 667.844 378.394 668.303 378.831C668.761 379.269 668.99 379.8 668.99 380.425C668.99 380.821 668.886 381.164 668.678 381.456C668.469 381.748 668.152 381.977 667.725 382.144C668.256 382.31 668.657 382.586 668.928 382.972C669.199 383.357 669.334 383.815 669.334 384.347C669.334 385.076 669.074 385.69 668.553 386.19C668.042 386.69 667.36 386.94 666.506 386.94C665.662 386.94 664.98 386.69 664.459 386.19C663.938 385.69 663.678 385.065 663.678 384.315C663.678 383.753 663.818 383.284 664.1 382.909C664.391 382.534 664.798 382.279 665.318 382.144ZM665.1 380.347C665.1 380.753 665.23 381.086 665.49 381.347C665.761 381.607 666.105 381.737 666.522 381.737C666.928 381.737 667.261 381.612 667.522 381.362C667.782 381.102 667.912 380.784 667.912 380.409C667.912 380.024 667.777 379.701 667.506 379.44C667.235 379.17 666.902 379.034 666.506 379.034C666.1 379.034 665.761 379.164 665.49 379.425C665.23 379.685 665.1 379.993 665.1 380.347ZM664.772 384.315C664.772 384.618 664.839 384.909 664.975 385.19C665.12 385.472 665.334 385.69 665.615 385.847C665.897 386.003 666.199 386.081 666.522 386.081C667.022 386.081 667.433 385.92 667.756 385.597C668.089 385.274 668.256 384.862 668.256 384.362C668.256 383.852 668.089 383.43 667.756 383.097C667.423 382.763 667.001 382.597 666.49 382.597C665.99 382.597 665.579 382.763 665.256 383.097C664.933 383.42 664.772 383.826 664.772 384.315ZM670.693 382.565C670.693 381.545 670.798 380.727 671.006 380.112C671.214 379.487 671.522 379.008 671.928 378.675C672.344 378.341 672.865 378.175 673.49 378.175C673.949 378.175 674.35 378.269 674.693 378.456C675.048 378.644 675.339 378.914 675.568 379.269C675.798 379.612 675.975 380.034 676.1 380.534C676.225 381.034 676.287 381.711 676.287 382.565C676.287 383.576 676.183 384.388 675.975 385.003C675.777 385.618 675.469 386.097 675.053 386.44C674.647 386.774 674.126 386.94 673.49 386.94C672.667 386.94 672.016 386.644 671.537 386.05C670.975 385.341 670.693 384.18 670.693 382.565ZM671.772 382.565C671.772 383.972 671.938 384.909 672.272 385.378C672.605 385.847 673.011 386.081 673.49 386.081C673.98 386.081 674.386 385.847 674.709 385.378C675.042 384.909 675.209 383.972 675.209 382.565C675.209 381.149 675.042 380.211 674.709 379.753C674.386 379.284 673.975 379.05 673.475 379.05C672.995 379.05 672.61 379.253 672.318 379.659C671.954 380.18 671.772 381.149 671.772 382.565ZM677.693 382.565C677.693 381.545 677.798 380.727 678.006 380.112C678.214 379.487 678.522 379.008 678.928 378.675C679.344 378.341 679.865 378.175 680.49 378.175C680.949 378.175 681.35 378.269 681.693 378.456C682.048 378.644 682.339 378.914 682.568 379.269C682.798 379.612 682.975 380.034 683.1 380.534C683.225 381.034 683.287 381.711 683.287 382.565C683.287 383.576 683.183 384.388 682.975 385.003C682.777 385.618 682.469 386.097 682.053 386.44C681.647 386.774 681.126 386.94 680.49 386.94C679.667 386.94 679.016 386.644 678.537 386.05C677.975 385.341 677.693 384.18 677.693 382.565ZM678.772 382.565C678.772 383.972 678.938 384.909 679.272 385.378C679.605 385.847 680.011 386.081 680.49 386.081C680.98 386.081 681.386 385.847 681.709 385.378C682.042 384.909 682.209 383.972 682.209 382.565C682.209 381.149 682.042 380.211 681.709 379.753C681.386 379.284 680.975 379.05 680.475 379.05C679.995 379.05 679.61 379.253 679.318 379.659C678.954 380.18 678.772 381.149 678.772 382.565Z" fill="black"/>
<path d="M576.847 65.5127V66.7002H570.222C570.211 66.4085 570.258 66.1221 570.363 65.8408C570.54 65.3929 570.81 64.9502 571.175 64.5127C571.55 64.0752 572.086 63.57 572.784 62.9971C573.878 62.1012 574.613 61.3929 574.988 60.8721C575.373 60.3512 575.566 59.8564 575.566 59.3877C575.566 58.8981 575.389 58.4867 575.034 58.1533C574.691 57.82 574.243 57.6533 573.691 57.6533C573.097 57.6533 572.618 57.8304 572.253 58.1846C571.899 58.5387 571.722 59.0335 571.722 59.6689L570.456 59.5283C570.54 58.5908 570.862 57.8773 571.425 57.3877C571.998 56.8877 572.758 56.6377 573.706 56.6377C574.675 56.6377 575.435 56.9033 575.988 57.4346C576.55 57.9658 576.831 58.6273 576.831 59.4189C576.831 59.8252 576.748 60.221 576.581 60.6064C576.425 60.9919 576.154 61.3981 575.769 61.8252C575.394 62.2523 574.764 62.8408 573.878 63.5908C573.139 64.2054 572.665 64.6273 572.456 64.8564C572.248 65.0752 572.076 65.2939 571.941 65.5127H576.847ZM578.378 61.7627C578.378 60.5752 578.498 59.6221 578.738 58.9033C578.988 58.1742 579.352 57.6169 579.831 57.2314C580.31 56.8356 580.915 56.6377 581.644 56.6377C582.185 56.6377 582.659 56.7471 583.066 56.9658C583.472 57.1846 583.805 57.4971 584.066 57.9033C584.336 58.3096 584.545 58.8044 584.691 59.3877C584.836 59.971 584.909 60.7627 584.909 61.7627C584.909 62.9398 584.79 63.8877 584.55 64.6064C584.31 65.3252 583.951 65.8825 583.472 66.2783C582.993 66.6742 582.383 66.8721 581.644 66.8721C580.685 66.8721 579.93 66.5231 579.378 65.8252C578.711 64.9919 578.378 63.6377 578.378 61.7627ZM579.644 61.7627C579.644 63.4085 579.836 64.5023 580.222 65.0439C580.607 65.5856 581.081 65.8564 581.644 65.8564C582.217 65.8564 582.696 65.5856 583.081 65.0439C583.467 64.4919 583.659 63.3981 583.659 61.7627C583.659 60.1064 583.467 59.0075 583.081 58.4658C582.696 57.9242 582.211 57.6533 581.628 57.6533C581.066 57.6533 580.618 57.8929 580.284 58.3721C579.857 58.9867 579.644 60.1169 579.644 61.7627ZM592.847 65.5127V66.7002H586.222C586.211 66.4085 586.258 66.1221 586.363 65.8408C586.54 65.3929 586.81 64.9502 587.175 64.5127C587.55 64.0752 588.086 63.57 588.784 62.9971C589.878 62.1012 590.613 61.3929 590.988 60.8721C591.373 60.3512 591.566 59.8564 591.566 59.3877C591.566 58.8981 591.389 58.4867 591.034 58.1533C590.691 57.82 590.243 57.6533 589.691 57.6533C589.097 57.6533 588.618 57.8304 588.253 58.1846C587.899 58.5387 587.722 59.0335 587.722 59.6689L586.456 59.5283C586.54 58.5908 586.862 57.8773 587.425 57.3877C587.998 56.8877 588.758 56.6377 589.706 56.6377C590.675 56.6377 591.435 56.9033 591.988 57.4346C592.55 57.9658 592.831 58.6273 592.831 59.4189C592.831 59.8252 592.748 60.221 592.581 60.6064C592.425 60.9919 592.154 61.3981 591.769 61.8252C591.394 62.2523 590.764 62.8408 589.878 63.5908C589.139 64.2054 588.665 64.6273 588.456 64.8564C588.248 65.0752 588.076 65.2939 587.941 65.5127H592.847ZM600.847 65.5127V66.7002H594.222C594.211 66.4085 594.258 66.1221 594.363 65.8408C594.54 65.3929 594.81 64.9502 595.175 64.5127C595.55 64.0752 596.086 63.57 596.784 62.9971C597.878 62.1012 598.613 61.3929 598.988 60.8721C599.373 60.3512 599.566 59.8564 599.566 59.3877C599.566 58.8981 599.389 58.4867 599.034 58.1533C598.691 57.82 598.243 57.6533 597.691 57.6533C597.097 57.6533 596.618 57.8304 596.253 58.1846C595.899 58.5387 595.722 59.0335 595.722 59.6689L594.456 59.5283C594.54 58.5908 594.862 57.8773 595.425 57.3877C595.998 56.8877 596.758 56.6377 597.706 56.6377C598.675 56.6377 599.435 56.9033 599.988 57.4346C600.55 57.9658 600.831 58.6273 600.831 59.4189C600.831 59.8252 600.748 60.221 600.581 60.6064C600.425 60.9919 600.154 61.3981 599.769 61.8252C599.394 62.2523 598.764 62.8408 597.878 63.5908C597.139 64.2054 596.665 64.6273 596.456 64.8564C596.248 65.0752 596.076 65.2939 595.941 65.5127H600.847Z" fill="#999999"/>
<path d="M606.175 58.1689C605.487 59.3669 604.633 60.3669 603.612 61.1689L602.847 60.1846C604.336 59.0908 605.357 57.5075 605.909 55.4346L607.159 55.7627C607.305 55.9085 607.253 55.9971 607.003 56.0283L606.566 57.1221H614.269V58.1689H610.284V60.0283H613.566V61.0596H610.284V63.5283H614.878V64.5596H610.284V67.8564H609.191V64.5596H602.894V63.5283H605.362V60.0283H609.191V58.1689H606.175ZM606.456 63.5283H609.191V61.0596H606.456V63.5283Z" fill="#999999"/>
<path d="M616.566 64.3877L617.753 64.2783C617.847 64.8304 618.034 65.2314 618.316 65.4814C618.607 65.7314 618.972 65.8564 619.409 65.8564C619.784 65.8564 620.112 65.7731 620.394 65.6064C620.685 65.4294 620.92 65.195 621.097 64.9033C621.284 64.6117 621.441 64.221 621.566 63.7314C621.691 63.2419 621.753 62.7419 621.753 62.2314C621.753 62.1794 621.748 62.096 621.737 61.9814C621.498 62.3773 621.165 62.7002 620.737 62.9502C620.31 63.1898 619.847 63.3096 619.347 63.3096C618.514 63.3096 617.81 63.0075 617.237 62.4033C616.665 61.7992 616.378 61.0075 616.378 60.0283C616.378 59.0075 616.675 58.1898 617.269 57.5752C617.873 56.9502 618.628 56.6377 619.534 56.6377C620.18 56.6377 620.774 56.8148 621.316 57.1689C621.857 57.5127 622.269 58.0127 622.55 58.6689C622.831 59.3148 622.972 60.2523 622.972 61.4814C622.972 62.7627 622.831 63.7835 622.55 64.5439C622.279 65.3044 621.868 65.8825 621.316 66.2783C620.764 66.6742 620.118 66.8721 619.378 66.8721C618.597 66.8721 617.956 66.6533 617.456 66.2158C616.967 65.7783 616.67 65.1689 616.566 64.3877ZM621.597 59.9658C621.597 59.2575 621.409 58.695 621.034 58.2783C620.659 57.8617 620.211 57.6533 619.691 57.6533C619.139 57.6533 618.659 57.8773 618.253 58.3252C617.847 58.7731 617.644 59.3512 617.644 60.0596C617.644 60.695 617.836 61.2158 618.222 61.6221C618.607 62.0179 619.081 62.2158 619.644 62.2158C620.217 62.2158 620.685 62.0179 621.05 61.6221C621.415 61.2158 621.597 60.6637 621.597 59.9658Z" fill="#999999"/>
<path d="M633.706 63.5283H628.503C628.503 65.0908 627.701 66.57 626.097 67.9658L625.175 66.9189C626.665 65.971 627.409 64.5492 627.409 62.6533V55.9814H634.8V66.7627C634.8 67.346 634.487 67.6377 633.862 67.6377H632.55L632.331 66.4189H633.487C633.633 66.4189 633.706 66.346 633.706 66.2002V63.5283ZM628.503 62.3252H633.706V60.3564H628.503V62.3252ZM628.503 59.1533H633.706V57.1846H628.503V59.1533Z" fill="#999999"/>
<path d="M644.847 65.5127V66.7002H638.222C638.211 66.4085 638.258 66.1221 638.363 65.8408C638.54 65.3929 638.81 64.9502 639.175 64.5127C639.55 64.0752 640.086 63.57 640.784 62.9971C641.878 62.1012 642.613 61.3929 642.988 60.8721C643.373 60.3512 643.566 59.8564 643.566 59.3877C643.566 58.8981 643.389 58.4867 643.034 58.1533C642.691 57.82 642.243 57.6533 641.691 57.6533C641.097 57.6533 640.618 57.8304 640.253 58.1846C639.899 58.5387 639.722 59.0335 639.722 59.6689L638.456 59.5283C638.54 58.5908 638.862 57.8773 639.425 57.3877C639.998 56.8877 640.758 56.6377 641.706 56.6377C642.675 56.6377 643.435 56.9033 643.988 57.4346C644.55 57.9658 644.831 58.6273 644.831 59.4189C644.831 59.8252 644.748 60.221 644.581 60.6064C644.425 60.9919 644.154 61.3981 643.769 61.8252C643.394 62.2523 642.764 62.8408 641.878 63.5908C641.139 64.2054 640.665 64.6273 640.456 64.8564C640.248 65.0752 640.076 65.2939 639.941 65.5127H644.847ZM646.566 64.3877L647.753 64.2783C647.847 64.8304 648.034 65.2314 648.316 65.4814C648.607 65.7314 648.972 65.8564 649.409 65.8564C649.784 65.8564 650.113 65.7731 650.394 65.6064C650.685 65.4294 650.92 65.195 651.097 64.9033C651.284 64.6117 651.441 64.221 651.566 63.7314C651.691 63.2419 651.753 62.7419 651.753 62.2314C651.753 62.1794 651.748 62.096 651.738 61.9814C651.498 62.3773 651.165 62.7002 650.738 62.9502C650.31 63.1898 649.847 63.3096 649.347 63.3096C648.514 63.3096 647.81 63.0075 647.238 62.4033C646.665 61.7992 646.378 61.0075 646.378 60.0283C646.378 59.0075 646.675 58.1898 647.269 57.5752C647.873 56.9502 648.628 56.6377 649.534 56.6377C650.18 56.6377 650.774 56.8148 651.316 57.1689C651.857 57.5127 652.269 58.0127 652.55 58.6689C652.831 59.3148 652.972 60.2523 652.972 61.4814C652.972 62.7627 652.831 63.7835 652.55 64.5439C652.279 65.3044 651.868 65.8825 651.316 66.2783C650.764 66.6742 650.118 66.8721 649.378 66.8721C648.597 66.8721 647.956 66.6533 647.456 66.2158C646.967 65.7783 646.67 65.1689 646.566 64.3877ZM651.597 59.9658C651.597 59.2575 651.409 58.695 651.034 58.2783C650.659 57.8617 650.211 57.6533 649.691 57.6533C649.139 57.6533 648.659 57.8773 648.253 58.3252C647.847 58.7731 647.644 59.3512 647.644 60.0596C647.644 60.695 647.836 61.2158 648.222 61.6221C648.607 62.0179 649.081 62.2158 649.644 62.2158C650.217 62.2158 650.685 62.0179 651.05 61.6221C651.415 61.2158 651.597 60.6637 651.597 59.9658Z" fill="#999999"/>
<path d="M657.8 67.2002H656.534V56.6377H665.128V66.9814H663.862V66.2002H657.8V67.2002ZM663.862 60.7939V57.6689H657.8V60.7939H663.862ZM663.862 65.1689V61.8252H657.8V65.1689H663.862ZM678.081 59.8564H680.659V60.7314H678.362V61.9971H680.222V62.8721H678.362V64.1846H680.222V65.0596H678.362V66.4189H681.097V67.3096H675.566V67.8564H674.644V61.7783C674.352 62.1742 673.987 62.5387 673.55 62.8721L673.159 61.8252C674.545 60.5856 675.441 59.2939 675.847 57.9502H674.581V59.2002H673.659V57.0752H676.066C676.211 56.4919 676.336 55.8721 676.441 55.2158L677.534 55.4814C677.649 55.596 677.612 55.7054 677.425 55.8096C677.321 56.2471 677.211 56.6689 677.097 57.0752H680.987V58.9814H680.05V57.9502H676.878C676.659 58.7106 676.368 59.346 676.003 59.8564H677.159L677.862 58.2158L678.909 58.4346C679.086 58.5075 679.05 58.6012 678.8 58.7158L678.081 59.8564ZM668.847 57.3408V56.3096H673.487V57.3408H671.581C671.508 58.4762 671.269 59.5179 670.862 60.4658H673.003V66.9814H672.066V66.0908H670.644V67.5283H669.722V62.5908C669.503 62.9554 669.264 63.2835 669.003 63.5752L668.3 62.6533C669.571 61.2262 670.316 59.4554 670.534 57.3408H668.847ZM675.566 62.8721V64.1846H677.425V62.8721H675.566ZM675.566 60.7314V61.9971H677.425V60.7314H675.566ZM675.566 65.0596V66.4189H677.425V65.0596H675.566ZM670.644 61.3408V65.2158H672.066V61.3408H670.644ZM687.222 61.4502C688.566 61.0856 689.42 60.3721 689.784 59.3096L688.316 58.7158L688.691 57.7783L690.003 58.2783L690.112 56.9658H687.816V55.9189H694.378L694.269 60.6221C694.237 61.5387 693.857 61.9971 693.128 61.9971H691.862L691.753 60.9502H692.909C693.128 60.9502 693.237 60.8408 693.237 60.6221L693.347 56.9658H691.206L691.05 58.7158L692.362 59.4189L691.862 60.4033L690.769 59.8096C690.3 61.1533 689.264 62.0648 687.659 62.5439L687.222 61.4502ZM694.159 66.9189C693.868 65.8252 693.415 64.8773 692.8 64.0752L693.784 63.6377C694.586 64.6169 695.097 65.5439 695.316 66.4189L694.159 66.9189ZM686.831 63.4658V67.6846H685.909V67.3096H684.05V67.9033H683.112V63.4658H686.831ZM687.269 66.9814C687.529 66.0648 687.696 65.0231 687.769 63.8564L688.862 63.9658C688.935 63.9971 688.899 64.0856 688.753 64.2314C688.711 65.3981 688.545 66.4033 688.253 67.2471L687.269 66.9814ZM690.769 61.6689C691.279 61.9919 691.79 62.5544 692.3 63.3564L691.269 63.9658C691.008 63.4554 690.571 62.8721 689.956 62.2158L690.769 61.6689ZM683.331 55.7002H686.612V56.7471H683.331V55.7002ZM682.628 57.5596H687.331V58.6064H682.628V57.5596ZM683.331 59.5908H686.612V60.6221H683.331V59.5908ZM683.331 61.4502H686.612V62.4814H683.331V61.4502ZM684.05 64.3408V66.4189H685.909V64.3408H684.05ZM690.222 63.3096C690.514 63.3408 690.534 63.4502 690.284 63.6377V66.2002C690.284 66.4606 690.394 66.5908 690.612 66.5908H691.816C692.034 66.5908 692.159 66.4814 692.191 66.2627L692.3 65.3877L693.394 65.6533L693.175 66.8096C693.071 67.3617 692.743 67.6377 692.191 67.6377H690.112C689.498 67.6377 689.191 67.3044 689.191 66.6377V63.3096H690.222Z" fill="#999999"/>
<path d="M33.6063 41.3564C31.5229 41.8252 29.3875 42.2679 27.2 42.6846C26.9396 43.0492 26.7833 43.1273 26.7313 42.9189L26.1844 41.1221C26.9656 41.07 27.6948 40.9919 28.3719 40.8877V35.1846H29.8563C30.2729 35.2367 30.299 35.3929 29.9344 35.6533V36.8252H32.9813V38.3096H29.9344V40.6533C31.1323 40.4971 32.2261 40.2887 33.2156 40.0283L33.6063 41.3564ZM24.7 26.9814H31.575V24.9502H33.0594C33.4761 25.0023 33.5021 25.1585 33.1375 25.4189V26.9814H40.6375V28.2314H26.2625V30.3408H29.7V28.9346H30.95C31.3667 28.9867 31.3927 29.1429 31.0281 29.4033V30.3408H34.1531V28.9346H35.4031C35.8198 28.9867 35.8458 29.1429 35.4813 29.4033V30.3408H39.5438V34.5596H26.2625V35.7314C26.2625 38.7002 25.6636 41.0439 24.4656 42.7627L23.2156 41.5908C24.2052 40.2887 24.7 38.3617 24.7 35.8096V26.9814ZM35.4813 37.2158C36.4188 37.0596 37.6427 36.6429 39.1531 35.9658L39.8563 37.0596C40.1688 37.4762 40.0906 37.6064 39.6219 37.4502C38.2677 37.9189 36.8875 38.3356 35.4813 38.7002V40.4189C35.4813 40.7314 35.6115 40.8877 35.8719 40.8877H38.6844C38.9969 40.8877 39.1792 40.7575 39.2313 40.4971L39.5438 39.0908L41.1063 39.5596L40.6375 41.2783C40.4292 42.0075 39.9083 42.3721 39.075 42.3721H35.325C34.3875 42.3721 33.9188 41.8773 33.9188 40.8877V35.1064H35.4031C35.8198 35.1585 35.8458 35.3148 35.4813 35.5752V37.2158ZM26.2625 33.3096H29.7V31.5908H26.2625V33.3096ZM31.0281 33.3096H34.1531V31.5908H31.0281V33.3096ZM35.4813 33.3096H38.2156V31.5908H35.4813V33.3096ZM50.4031 37.2158C50.4031 38.8304 50.0646 39.9762 49.3875 40.6533C48.3458 41.695 46.4969 42.3721 43.8406 42.6846L43.2938 41.0439C45.6375 40.8877 47.2261 40.3929 48.0594 39.5596C48.5802 39.0387 48.8406 38.2835 48.8406 37.2939V36.0439H50.325C50.8979 36.096 50.924 36.2523 50.4031 36.5127V37.2158ZM59.1531 38.8564L60.7938 39.3252L60.325 41.0439C60.0646 41.9814 59.4396 42.4502 58.45 42.4502H54.8563C53.9708 42.4502 53.5281 41.9814 53.5281 41.0439V35.4971H55.0125C55.4292 35.5492 55.4552 35.7054 55.0906 35.9658V40.3408C55.0906 40.7575 55.2729 40.9658 55.6375 40.9658H57.9031C58.424 40.9658 58.7365 40.7314 58.8406 40.2627L59.1531 38.8564ZM46.7313 35.6533H45.1688V25.7314H46.6531C47.0698 25.7835 47.0958 25.9398 46.7313 26.2002V35.6533ZM59.075 35.1846H57.5125V34.6377H50.95V35.3408H49.3875V25.9658H59.075V35.1846ZM57.5125 29.4814V27.4502H50.95V29.4814H57.5125ZM57.5125 33.1533V30.9658H50.95V33.1533H57.5125ZM71.8875 26.8252H77.5906V32.8408H67.6688V33.8564H80.7938V35.1064H67.6688V36.1221H80.5594L80.0906 40.6533C79.9344 42.2679 79.2833 43.0752 78.1375 43.0752H75.7938L75.5594 41.3564H65.8719V42.2158H64.3094V37.9971H65.7938C66.2104 38.0492 66.2365 38.2054 65.8719 38.4658V40.1064H69.3875V37.3721H67.7469H66.1063V26.8252H70.2469L71.0281 24.9502L72.825 25.2627C73.0333 25.471 72.9552 25.6012 72.5906 25.6533L71.8875 26.8252ZM70.95 37.3721V40.1064H74.4656V38.0752H75.95C76.3667 38.1273 76.3927 38.2835 76.0281 38.5439V41.3564H77.5125C78.0333 41.3564 78.3198 41.1221 78.3719 40.6533L78.7625 37.3721H70.95ZM67.6688 31.5908H76.0281V30.4971H67.6688V31.5908ZM67.6688 29.2471H76.0281V28.0752H67.6688V29.2471ZM96.1844 37.6064C97.2261 38.6481 98.7625 39.6898 100.794 40.7314L99.8563 42.3721C98.0854 41.5387 96.4188 40.3408 94.8563 38.7783L96.1844 37.6064ZM89.3875 39.0127C88.5021 40.2627 87.1479 41.4867 85.325 42.6846L84.1531 41.2002C85.8198 40.2106 87.1479 39.0387 88.1375 37.6846L89.6219 38.5439C89.8823 38.7523 89.8042 38.9085 89.3875 39.0127ZM86.1844 36.9814V37.7627H84.6219V26.5127H86.1063C86.5229 26.5648 86.549 26.721 86.1844 26.9814V35.4971H100.559V36.9814H93.2938V42.9971H91.4969V36.9814H86.1844ZM89.6219 33.2314H96.4188V31.7471H89.6219V33.2314ZM89.6219 30.4971H96.4188V29.2471H89.6219V30.4971ZM89.6219 27.9971H96.4188V26.7471H89.6219V27.9971ZM88.0594 34.4814V25.4971H97.9813V34.4814H88.0594ZM112.981 30.1846C112.096 35.3929 111.028 38.6221 109.778 39.8721C109.101 40.5492 108.398 40.8877 107.669 40.8877C106.835 40.8877 106.184 40.6533 105.716 40.1846C104.466 38.9346 103.841 37.3721 103.841 35.4971C103.841 33.2054 104.648 31.2523 106.263 29.6377C108.033 27.8669 110.195 26.9814 112.747 26.9814C115.039 26.9814 116.835 27.6325 118.138 28.9346C119.596 30.3929 120.325 32.1117 120.325 34.0908C120.325 36.2262 119.648 37.971 118.294 39.3252C117.408 40.2106 116.054 41.07 114.231 41.9033L112.591 40.2627C114.414 39.6898 115.846 38.8825 116.888 37.8408C117.877 36.8512 118.372 35.6533 118.372 34.2471C118.372 32.5804 117.825 31.2002 116.731 30.1064C115.638 29.0127 113.919 28.5179 111.575 28.6221L112.981 29.3252C113.606 29.5856 113.606 29.8721 112.981 30.1846ZM111.184 28.7002C109.83 29.0127 108.658 29.6637 107.669 30.6533C106.315 32.0075 105.638 33.6742 105.638 35.6533C105.638 36.8512 106.028 37.8408 106.809 38.6221C106.966 38.7783 107.2 38.8564 107.513 38.8564C107.825 38.8564 108.164 38.6742 108.528 38.3096C109.726 37.1117 110.611 33.9085 111.184 28.7002ZM130.325 41.5127C132.46 40.3669 133.528 38.4137 133.528 35.6533V26.6689L135.169 26.9814L139.388 25.6533L140.559 27.2158C140.664 27.5283 140.481 27.5804 140.013 27.3721L135.091 28.3096V31.6689H141.263V33.1533H138.919V42.9189H137.356V33.1533H135.091V36.1221C135.091 39.195 133.789 41.4867 131.184 42.9971L130.325 41.5127ZM128.841 42.9971H127.278V38.3096C126.445 39.6637 125.533 40.7314 124.544 41.5127L123.372 40.1064C124.83 39.0648 126.054 37.7627 127.044 36.2002H123.763V34.7158H127.278V32.9971H123.294V31.5127H128.763L129.622 28.7002H123.841V27.2158H127.278V25.0283H128.763C129.179 25.0804 129.205 25.2367 128.841 25.4971V27.2158H132.278V28.7002H131.263L130.169 31.5127H132.669V32.9971H128.841V34.7158H132.278V36.2002H128.841V36.9033C129.57 37.1117 130.585 37.6585 131.888 38.5439L130.95 40.1064C130.221 39.3773 129.518 38.8044 128.841 38.3877V42.9971ZM125.716 31.3564C125.507 30.6273 125.221 29.9242 124.856 29.2471L126.341 28.7783C126.757 29.4554 127.07 30.1585 127.278 30.8877L125.716 31.3564ZM158.45 33.5439H153.372V35.2627H158.45V33.5439ZM156.341 36.7471H154.934V37.5283C154.934 40.7575 153.085 42.6585 149.388 43.2314L148.919 41.5908C151.888 41.2262 153.372 39.82 153.372 37.3721V36.7471H152.591H151.809V25.8096H160.013V36.7471H157.903V40.6533C157.903 41.07 158.085 41.2783 158.45 41.2783H159.231C159.492 41.2783 159.648 41.0179 159.7 40.4971L159.856 39.1689L161.419 39.6377L161.184 41.4346C161.08 42.32 160.585 42.7627 159.7 42.7627H157.747C156.809 42.7627 156.341 42.32 156.341 41.4346V36.7471ZM153.372 32.0596H158.45V30.4189H153.372V32.0596ZM153.372 28.9346H158.45V27.2939H153.372V28.9346ZM147.747 35.8877C148.789 36.3564 150.013 37.2158 151.419 38.4658L150.325 40.1064C149.231 38.9085 148.268 38.0231 147.434 37.4502C146.914 39.7419 145.82 41.5387 144.153 42.8408L142.981 41.4346C145.273 39.5075 146.367 37.0075 146.263 33.9346H143.294V32.4502H146.341V29.6377H143.841V28.1533H146.341V25.0283H147.825C148.242 25.0804 148.268 25.2367 147.903 25.4971V28.1533H150.638V29.6377H147.903V32.4502H151.028V33.9346H147.825C147.825 34.7679 147.799 35.4189 147.747 35.8877ZM167.825 32.1377C168.815 33.4919 169.309 34.8981 169.309 36.3564C169.309 38.3877 168.71 39.4033 167.513 39.4033H166.575L166.263 37.8408H167.044C167.565 37.8408 167.799 37.2939 167.747 36.2002C167.695 34.6898 167.226 33.3617 166.341 32.2158L167.903 27.1377H165.481V42.7627H163.919V25.8877H168.294L168.606 25.4971L169.934 26.6689L169.622 26.9814L167.825 32.1377ZM179.153 36.5127H178.372C177.539 40.3148 174.752 42.5023 170.013 43.0752L169.544 41.5908C173.606 41.2783 176.054 39.5856 176.888 36.5127H175.794C174.908 38.7002 173.033 40.0283 170.169 40.4971L169.7 39.1689C172.096 38.6481 173.58 37.7627 174.153 36.5127H172.903C172.174 37.2419 171.236 37.8148 170.091 38.2314L169.466 36.9033C171.132 36.3825 172.278 35.3929 172.903 33.9346H169.388V32.6846H181.106V33.9346H174.544C174.335 34.4033 174.075 34.846 173.763 35.2627H180.638L180.481 40.1846C180.429 41.8512 179.83 42.6846 178.684 42.6846H177.122L176.888 41.2002H178.216C178.684 41.2002 178.945 40.8877 178.997 40.2627L179.153 36.5127ZM172.513 30.4189H177.825V29.0908H172.513V30.4189ZM172.513 27.8408H177.825V26.5908H172.513V27.8408ZM179.153 25.3408V31.6689H171.184V25.3408H179.153ZM192.434 29.3252H194.544V25.2627H196.028C196.445 25.3148 196.471 25.471 196.106 25.7314V29.3252H200.325V30.8096H196.106V34.5596H200.091V36.0439H196.106V40.6533H201.263V42.1377H189.309V40.6533H194.544V36.0439H190.716V34.5596H194.544V30.8096H191.966C191.601 31.8512 191.028 32.8929 190.247 33.9346L188.919 32.9189C190.273 31.1481 191.158 29.0127 191.575 26.5127L193.059 26.8252C193.476 26.9814 193.476 27.1377 193.059 27.2939L192.434 29.3252ZM185.794 25.0283H187.278C187.695 25.0804 187.721 25.2367 187.356 25.4971V42.8408H185.794V25.0283ZM188.763 28.2314C189.231 28.8564 189.622 29.5596 189.934 30.3408L188.684 31.2002C188.32 30.3148 187.955 29.5856 187.591 29.0127L188.763 28.2314ZM185.325 29.0908C185.69 29.195 185.69 29.3512 185.325 29.5596C185.221 31.2262 184.986 32.7887 184.622 34.2471L183.138 33.7783C183.554 32.4762 183.789 30.8356 183.841 28.8564L185.325 29.0908ZM218.138 33.6221V42.6846H216.575V41.9033H209.544V42.9189H207.981V35.8096C206.627 36.5387 205.169 37.1117 203.606 37.5283L203.059 36.1221C204.518 35.7575 206.158 35.1064 207.981 34.1689V33.6221H209.075C210.169 32.9971 211.106 32.3721 211.888 31.7471H203.684V30.2627H210.559V28.3877H205.716V26.9033H210.559V25.0283H212.044C212.46 25.0804 212.486 25.2367 212.122 25.4971V26.9033H215.872V28.2314C216.497 27.5544 217.122 26.7992 217.747 25.9658L218.841 26.6689C219.205 26.9294 219.153 27.0856 218.684 27.1377C217.695 28.3356 216.705 29.3773 215.716 30.2627H221.106V31.7471H214.075C213.033 32.6325 212.2 33.2575 211.575 33.6221H218.138ZM213.606 30.2627C214.231 29.7939 214.934 29.1689 215.716 28.3877H212.122V30.2627H213.606ZM209.544 36.9814H216.575V34.8721H209.544V36.9814ZM209.544 40.6533H216.575V38.2314H209.544V40.6533ZM236.731 36.9033C237.46 35.4971 237.903 33.3617 238.059 30.4971H235.403C235.559 33.3617 236.002 35.4971 236.731 36.9033ZM239.622 30.4971C239.518 33.7262 238.893 36.3304 237.747 38.3096C238.58 39.3512 239.752 40.2627 241.263 41.0439L240.247 42.7627C238.58 41.6689 237.408 40.6273 236.731 39.6377C235.533 40.9919 233.684 42.1637 231.184 43.1533L230.403 41.5908C233.111 40.4971 234.908 39.3773 235.794 38.2314C234.908 36.5127 234.414 34.7939 234.309 33.0752C233.997 33.8564 233.684 34.4554 233.372 34.8721L232.044 33.8564C233.606 31.5648 234.544 28.7262 234.856 25.3408L236.497 25.7314C236.809 25.9398 236.731 26.096 236.263 26.2002C236.106 27.1377 235.898 28.0752 235.638 29.0127H240.95V30.4971H239.622ZM232.356 26.7471C232.044 27.5283 231.679 28.1794 231.263 28.7002L230.013 27.9971C230.429 27.32 230.82 26.5387 231.184 25.6533L232.591 26.3564C232.799 26.5648 232.721 26.695 232.356 26.7471ZM227.356 37.7627C228.085 37.971 228.736 38.2054 229.309 38.4658C229.726 37.9971 230.065 37.2939 230.325 36.3564H228.059C227.851 36.8252 227.617 37.2939 227.356 37.7627ZM226.263 39.7158L225.013 39.0127C225.533 38.2314 226.054 37.346 226.575 36.3564H223.606V35.1064H227.044C227.356 34.4294 227.591 33.8564 227.747 33.3877L229.231 33.7783C229.44 33.9867 229.361 34.1169 228.997 34.1689L228.528 35.1064H232.981V36.3564H231.809C231.549 37.3981 231.158 38.2835 230.638 39.0127C231.106 39.221 231.601 39.4814 232.122 39.7939L231.419 41.0439C230.846 40.6794 230.325 40.3929 229.856 40.1846C228.502 41.5387 226.679 42.3721 224.388 42.6846L223.841 41.2783C225.872 41.07 227.434 40.4971 228.528 39.5596C227.955 39.2992 227.382 39.0648 226.809 38.8564L226.263 39.7158ZM227.825 25.0283H229.075C229.492 25.0804 229.518 25.2367 229.153 25.4971V28.8564H233.138V30.1064H229.856C230.429 30.7835 231.315 31.4346 232.513 32.0596L231.653 33.3877C230.768 32.8669 229.934 32.1377 229.153 31.2002V33.0752H227.825V31.5908C226.992 32.6325 225.846 33.57 224.388 34.4033L223.372 33.1533C224.986 32.32 226.315 31.3044 227.356 30.1064H223.763V28.8564H227.825V25.0283ZM225.638 28.6221C225.273 27.8408 224.804 27.1637 224.231 26.5908L225.481 25.8096C226.106 26.4346 226.575 27.0856 226.888 27.7627L225.638 28.6221ZM252.981 30.1846C252.096 35.3929 251.028 38.6221 249.778 39.8721C249.101 40.5492 248.398 40.8877 247.669 40.8877C246.835 40.8877 246.184 40.6533 245.716 40.1846C244.466 38.9346 243.841 37.3721 243.841 35.4971C243.841 33.2054 244.648 31.2523 246.263 29.6377C248.033 27.8669 250.195 26.9814 252.747 26.9814C255.039 26.9814 256.835 27.6325 258.138 28.9346C259.596 30.3929 260.325 32.1117 260.325 34.0908C260.325 36.2262 259.648 37.971 258.294 39.3252C257.408 40.2106 256.054 41.07 254.231 41.9033L252.591 40.2627C254.414 39.6898 255.846 38.8825 256.888 37.8408C257.877 36.8512 258.372 35.6533 258.372 34.2471C258.372 32.5804 257.825 31.2002 256.731 30.1064C255.638 29.0127 253.919 28.5179 251.575 28.6221L252.981 29.3252C253.606 29.5856 253.606 29.8721 252.981 30.1846ZM251.184 28.7002C249.83 29.0127 248.658 29.6637 247.669 30.6533C246.315 32.0075 245.638 33.6742 245.638 35.6533C245.638 36.8512 246.028 37.8408 246.809 38.6221C246.966 38.7783 247.2 38.8564 247.513 38.8564C247.825 38.8564 248.164 38.6742 248.528 38.3096C249.726 37.1117 250.611 33.9085 251.184 28.7002ZM268.763 31.8252C270.481 30.2106 271.809 27.8669 272.747 24.7939L274.309 25.2627C274.57 25.471 274.518 25.6012 274.153 25.6533C273.736 26.695 273.32 27.6585 272.903 28.5439H275.247C275.82 27.346 276.263 26.2783 276.575 25.3408L278.059 25.8877C278.268 26.096 278.19 26.2262 277.825 26.2783C277.46 27.1117 277.096 27.8669 276.731 28.5439H280.716V30.0283H276.731V32.4502H279.934V33.9346H276.731V36.4346H279.934V37.9189H276.731V40.8096H281.184V42.2939H272.591V42.9971H271.028V31.6689C270.664 32.1898 270.273 32.6585 269.856 33.0752L268.763 31.8252ZM264.856 42.8408L264.544 41.3564H265.872C266.08 41.3564 266.184 41.2523 266.184 41.0439V36.2002L264.153 36.6689C264.101 37.0335 263.971 37.1117 263.763 36.9033L263.45 35.1064L266.184 34.5596V30.4189H263.763V28.9346H266.184V24.9502H267.669C268.085 25.0023 268.111 25.1585 267.747 25.4189V28.9346H269.778V30.4189H267.747V34.2471L269.778 33.7002L270.013 35.1064L267.747 35.8096V41.5908C267.747 42.4242 267.33 42.8408 266.497 42.8408H264.856ZM272.591 40.8096H275.169V37.9189H272.591V40.8096ZM272.591 36.4346H275.169V33.9346H272.591V36.4346ZM272.591 32.4502H275.169V30.0283H272.591V32.4502ZM298.841 27.1377L299.075 26.8252L300.325 27.8408L300.091 28.0752C298.736 30.4189 297.408 31.9814 296.106 32.7627L296.888 32.9971C297.252 33.1533 297.226 33.3096 296.809 33.4658C296.705 33.8304 296.575 34.1429 296.419 34.4033H299.778L300.013 34.0908L301.419 35.1064L301.106 35.4189C299.44 39.846 296.054 42.346 290.95 42.9189L290.325 41.4346C292.773 41.1742 294.7 40.5231 296.106 39.4814C295.377 38.7523 294.648 38.1273 293.919 37.6064C293.242 38.1794 292.33 38.7002 291.184 39.1689L290.481 37.7627C293.033 36.721 294.7 35.1325 295.481 32.9971C294.7 33.7262 293.294 34.3512 291.263 34.8721L290.559 33.4658C292.539 33.0492 294.023 32.5023 295.013 31.8252C294.492 31.2002 293.867 30.6533 293.138 30.1846C292.773 30.5492 292.408 30.8617 292.044 31.1221L290.95 29.9502C292.669 28.4919 293.763 26.9294 294.231 25.2627L295.638 25.7314C296.002 25.8877 295.976 26.0439 295.559 26.2002C295.507 26.5127 295.377 26.8252 295.169 27.1377H298.841ZM288.216 30.1846H290.794V31.6689H288.216V33.6221C289.257 34.0908 290.247 34.7939 291.184 35.7314L290.169 37.1377C289.335 36.3044 288.684 35.7054 288.216 35.3408V42.9189H286.653V35.1846C286.341 36.2262 285.481 37.5544 284.075 39.1689L282.903 37.6846C284.83 35.8617 286.028 33.8564 286.497 31.6689H283.45V30.1846H286.653V27.6064C285.611 27.7627 284.674 27.8929 283.841 27.9971L283.45 26.5127C285.533 26.3044 287.695 25.8877 289.934 25.2627L290.794 26.4346C291.002 26.7471 290.872 26.8512 290.403 26.7471C289.674 26.9554 288.945 27.1377 288.216 27.2939V30.1846ZM293.919 29.2471C294.7 29.6637 295.455 30.1846 296.184 30.8096C296.966 30.0804 297.617 29.2731 298.138 28.3877H294.544C294.335 28.7523 294.127 29.0387 293.919 29.2471ZM294.778 36.6689C295.507 37.0856 296.341 37.7106 297.278 38.5439C298.059 37.971 298.736 37.0075 299.309 35.6533H295.716C295.403 36.07 295.091 36.4085 294.778 36.6689ZM306.809 29.3252C307.382 28.1273 308.346 26.9033 309.7 25.6533L310.559 26.4346C309.257 27.6325 308.346 28.7783 307.825 29.8721C307.252 31.07 306.966 32.5023 306.966 34.1689C306.966 35.5752 307.252 36.9033 307.825 38.1533C308.346 39.2992 309.257 40.5752 310.559 41.9814L309.7 42.8408C308.398 41.3825 307.434 40.0023 306.809 38.7002C306.132 37.2939 305.794 35.7835 305.794 34.1689C305.794 32.346 306.132 30.7314 306.809 29.3252ZM317.903 41.9033H316.106V26.8252H328.372V41.5908H326.575V40.4971H317.903V41.9033ZM326.575 32.7627V28.3096H317.903V32.7627H326.575ZM326.575 39.0127V34.2471H317.903V39.0127H326.575ZM341.341 35.8096H338.372C337.903 38.7783 336.497 41.1221 334.153 42.8408L333.372 41.3564C335.664 39.7419 336.914 37.346 337.122 34.1689L337.278 31.7471H336.184V32.7627H334.622V26.0439H342.513V32.4502H340.95V31.7471H338.684L338.528 34.3252H342.903L342.513 40.4971C342.408 41.7471 341.888 42.3721 340.95 42.3721H338.841L338.606 40.8877H340.325C340.794 40.8877 341.054 40.6273 341.106 40.1064L341.341 35.8096ZM349.778 41.2002C349.778 42.0856 349.361 42.5283 348.528 42.5283H346.809L346.497 41.0439H347.981C348.138 41.0439 348.216 40.9658 348.216 40.8096V25.8096H349.7C350.117 25.8617 350.143 26.0179 349.778 26.2783V41.2002ZM346.028 27.6846C346.445 27.7367 346.471 27.8929 346.106 28.1533V38.8564H344.544V27.6846H346.028ZM340.95 30.4971V27.2939H336.184V30.4971H340.95ZM357.513 38.7002C356.888 40.0023 355.924 41.3825 354.622 42.8408L353.763 41.9814C355.065 40.5752 355.976 39.2992 356.497 38.1533C357.07 36.9033 357.356 35.5752 357.356 34.1689C357.356 32.5023 357.07 31.07 356.497 29.8721C355.976 28.7783 355.065 27.6325 353.763 26.4346L354.622 25.6533C355.976 26.9033 356.94 28.1273 357.513 29.3252C358.19 30.7314 358.528 32.346 358.528 34.1689C358.528 35.7835 358.19 37.2939 357.513 38.7002Z" fill="#757575"/>
</g>
<rect x="2" y="2" width="714" height="440" stroke="black" stroke-width="4"/>
<defs>
<clipPath id="clip0_6_13554">
<rect width="718" height="444" fill="white"/>
</clipPath>
</defs>
</svg>
