<svg width="718" height="444" viewBox="0 0 718 444" fill="none" xmlns="http://www.w3.org/2000/svg">
<g clip-path="url(#clip0_6_14591)">
<path d="M0 0H718V444H0V0Z" fill="white"/>
<path d="M187.5 91.5V369.5" stroke="#CCCCCC" stroke-miterlimit="10"/>
<path d="M307.5 91.5V369.5" stroke="#CCCCCC" stroke-miterlimit="10"/>
<path d="M427.5 91.5V369.5" stroke="#CCCCCC" stroke-miterlimit="10"/>
<path d="M547.5 91.5V369.5" stroke="#CCCCCC" stroke-miterlimit="10"/>
<path d="M667.5 91.5V369.5" stroke="#CCCCCC" stroke-miterlimit="10"/>
<path d="M95.5 369.5H695.5" stroke="#333333" stroke-miterlimit="10"/>
<path d="M95.5 300.5H695.5" stroke="#CCCCCC" stroke-miterlimit="10"/>
<path d="M95.5 230.5H695.5" stroke="#CCCCCC" stroke-miterlimit="10"/>
<path d="M95.5 161.5H695.5" stroke="#CCCCCC" stroke-miterlimit="10"/>
<path d="M95.5 91.5H695.5" stroke="#CCCCCC" stroke-miterlimit="10"/>
<path d="M95.2 369.786L95.8 369.8H96.4H97H97.6H98.2H98.8H99.4H100H100.6H101.2H101.8H102.4H103H103.6H104.2H104.8H105.4H106H106.6H107.2H107.8H108.4H109H109.6H110.2H110.8L111.4 369.786H112H112.6L113.2 369.8H113.8L114.4 369.786H115L115.6 369.772H116.2L116.8 369.758L117.4 369.8H118L118.6 369.731L119.2 369.8L119.8 369.786L120.4 369.758L121 369.772L121.6 369.8L122.2 369.758L122.8 369.744L123.4 369.786L124 369.8L124.6 369.744L125.2 369.731L125.8 369.786L126.4 369.8H127L127.6 369.772L128.2 369.758H128.8L129.4 369.786L130 369.8L130.6 369.731L131.2 369.8L131.8 369.744L132.4 369.786L133 369.717L133.6 369.772L134.2 369.744L134.8 369.731L135.4 369.8L136 369.717L136.6 369.744L137.2 369.717L137.8 369.661L138.4 369.619L139 369.675L139.6 369.758L140.2 369.605L140.8 369.536L141.4 369.452L142 369.369L142.6 369.508L143.2 369.424L143.8 369.717L144.4 369.536L145 368.882L145.6 369.41L146.2 369.063L146.8 368.743L147.4 369.369L148 369.591L148.6 369.522L149.2 369.243L149.8 369.035L150.4 369.327L151 369.188L151.6 369.383L152.2 369.577L152.8 369.591L153.4 369.466L154 369.257L154.6 369.355L155.2 369.369L155.8 369.577L156.4 369.703L157 369.661L157.6 369.438H158.2L158.8 369.591L159.4 369.188L160 369.591L160.6 369.661L161.2 369.605L161.8 369.703L162.4 369.619L163 369.703L163.6 369.689L164.2 369.619L164.8 369.703L165.4 369.591L166 369.661L166.6 369.355L167.2 369.577L167.8 369.633L168.4 369.731L169 369.689H169.6L170.2 369.55L170.8 369.619L171.4 369.703L172 369.731H172.6L173.2 369.786L173.8 369.758L174.4 369.731L175 369.689L175.6 369.661L176.2 369.744L176.8 369.717L177.4 369.786L178 369.758L178.6 369.772L179.2 369.717H179.8L180.4 369.731H181L181.6 369.8L182.2 369.786L182.8 369.8L183.4 369.786L184 369.758L184.6 369.717L185.2 369.8L185.8 369.758L186.4 369.772L187 369.703L187.6 369.717L188.2 369.772L188.8 369.731L189.4 369.8H190L190.6 369.786L191.2 369.744L191.8 369.717L192.4 369.703L193 369.744L193.6 369.675L194.2 369.703L194.8 369.369L195.4 369.717L196 369.619L196.6 369.466L197.2 369.522H197.8L198.4 369.633L199 369.689L199.6 369.48L200.2 369.452L200.8 369.355L201.4 369.313L202 369.48L202.6 369.577L203.2 369.438L203.8 369.202L204.4 369.146L205 369.202L205.6 369.118L206.2 369.383L206.8 369.647L207.4 369.383L208 368.854L208.6 369.063L209.2 369.41L209.8 369.55L210.4 369.341L211 369.605L211.6 369.341L212.2 368.826L212.8 368.743L213.4 369.063L214 368.993L214.6 368.798L215.2 369.132L215.8 368.562L216.4 368.673L217 368.158L217.6 368.311H218.2L218.8 368.381L219.4 369.285L220 369.424L220.6 368.882L221.2 368.089L221.8 368.172L222.4 367.908L223 368.687L223.6 369.09L224.2 368.631L224.8 368.478L225.4 368.353L226 368.659L226.6 368.395L227.2 369.118L227.8 369.257L228.4 369.021L229 368.617L229.6 368.882L230.2 368.756L230.8 368.325L231.4 368.91L232 369.104L232.6 368.979L233.2 368.743L233.8 368.673L234.4 368.297L235 368.868L235.6 368.701L236.2 369.397L236.8 368.923L237.4 368.325L238 368.242L238.6 368.659L239.2 368.854L239.8 369.063L240.4 369.591L241 369.076L241.6 368.395L242.2 368.896L242.8 368.715L243.4 368.854L244 368.965L244.6 369.522L245.2 369.271L245.8 369.647L246.4 368.993L247 368.715L247.6 368.548L248.2 368.896L248.8 369.564L249.4 368.993L250 368.701L250.6 368.715L251.2 368.882L251.8 368.979L252.4 369.285L253 369.647L253.6 368.896L254.2 369.049L254.8 368.896L255.4 368.729L256 368.923L256.6 369.285L257.2 369.397L257.8 369.049L258.4 368.576L259 368.701L259.6 368.617L260.2 369.104L260.8 369.118L261.4 369.48L262 369.146L262.6 368.576L263.2 369.035L263.8 368.548L264.4 368.979L265 368.965L265.6 369.494L266.2 368.91H266.8L267.4 368.812L268 368.979L268.6 368.896H269.2L269.8 369.494L270.4 368.854L271 369.188L271.6 368.283L272.2 368.353L272.8 367.894L273.4 368.729L274 369.299L274.6 368.436L275.2 367.991L275.8 367.755L276.4 367.768L277 367.755L277.6 368.214L278.2 368.951L278.8 367.949L279.4 366.655L280 366.947L280.6 366.906L281.2 367.128L281.8 367.532L282.4 368.826L283 368.868L283.6 367.588L284.2 366.294L284.8 366.753L285.4 366.822L286 367.727L286.6 368.645L287.2 367.602L287.8 366.822L288.4 367.059L289 367.184L289.6 367.142L290.2 367.935L290.8 368.896L291.4 367.685L292 366.391L292.6 366.836L293.2 365.834L293.8 366.697L294.4 366.586L295 368.116L295.6 366.655L296.2 365.806L296.8 365.361L297.4 365.695L298 365.431L298.6 366.488L299.2 367.184L299.8 364.958L300.4 364.985L301 362.926L301.6 363.316L302.2 363.135L302.8 365.027L303.4 365.152L304 364.304L304.6 363.789L305.2 361.632L305.8 363.26L306.4 364.512L307 364.721L307.6 364.067L308.2 361.145L308.8 361.576L309.4 360.352L310 358.139L310.6 355.955L311.2 359.684L311.8 360.143L312.4 357.207L313 359.127L313.6 356.108L314.2 357.68L314.8 358.265L315.4 358.752L316 356.483L316.6 359.545L317.2 359.837L317.8 359.628L318.4 361.075L319 362.55L319.6 362.105L320.2 364.916L320.8 364.318L321.4 364.429L322 363.775L322.6 364.443L323.2 364.276L323.8 364.373L324.4 366.725L325 367.198L325.6 366.544L326.2 366.683L326.8 365.793L327.4 367.003L328 367.518L328.6 368.116L329.2 367.838L329.8 367.351L330.4 367.323L331 367.657L331.6 368.339L332.2 368.297L332.8 368.812L333.4 367.949L334 368.2L334.6 367.824L335.2 368.005L335.8 367.977L336.4 368.409L337 368.464L337.6 368.45L338.2 368.506L338.8 368.144L339.4 368.186L340 367.546L340.6 367.977L341.2 369.076L341.8 368.631L342.4 367.88H343L343.6 367.977L344.2 368.228L344.8 368.144L345.4 368.979L346 368.409L346.6 368.075H347.2L347.8 368.311L348.4 368.478L349 368.283L349.6 369.035L350.2 368.534L350.8 368.506L351.4 367.588L352 368.256L352.6 368.311L353.2 368.729L353.8 369.021L354.4 368.798L355 368.019L355.6 368.116L356.2 368.172L356.8 368.381L357.4 368.91L358 368.506L358.6 368.464L359.2 367.894L359.8 367.949H360.4L361 368.005L361.6 367.824L362.2 368.854L362.8 368.409L363.4 368.158L364 367.365L364.6 367.462L365.2 367.295L365.8 367.963L366.4 368.492L367 368.214L367.6 366.947L368.2 366.433L368.8 366.892L369.4 366.363L370 366.739L370.6 367.824L371.2 367.615L371.8 366.294L372.4 365.375L373 366.655L373.6 366.794L374.2 366.725L374.8 367.574L375.4 366.85L376 366.224L376.6 366.252L377.2 366.46L377.8 365.973L378.4 366.363L379 366.711L379.6 366.822L380.2 367.685L380.8 366.683L381.4 366.6L382 365.584L382.6 365.097L383.2 366.502L383.8 365.946L384.4 365.361L385 365.111L385.6 365.069L386.2 365.236L386.8 365.681L387.4 367.031L388 366.349L388.6 366.057L389.2 365.514L389.8 365.25L390.4 366.057L391 366.099L391.6 366.767L392.2 367.017L392.8 366.669L393.4 366.641L394 366.182L394.6 366.21L395.2 366.558L395.8 367.866L396.4 367.588L397 366.767L397.6 366.808L398.2 366.544L398.8 366.683L399.4 366.335L400 367.393L400.6 367.309L401.2 366.989L401.8 367.17L402.4 366.739L403 366.363L403.6 367.435L404.2 367.838L404.8 367.574L405.4 366.878L406 367.226L406.6 366.586L407.2 367.268L407.8 367.546L408.4 367.922L409 367.532L409.6 367.003L410.2 367.128L410.8 366.725L411.4 366.586L412 366.961L412.6 367.128L413.2 367.281L413.8 366.892L414.4 366.864L415 366.6L415.6 366.266L416.2 366.655L416.8 367.295L417.4 367.045L418 366.321L418.6 365.319L419.2 364.86L419.8 365.486L420.4 364.387L421 365.904L421.6 365.514L422.2 364.777L422.8 364.192L423.4 363.594L424 362.3L424.6 363.399L425.2 364.067L425.8 363.775L426.4 362.536L427 361.034L427.6 360.727L428.2 362.189L428.8 362.411L429.4 362.3L430 359.253L430.6 355.175L431.2 353.603L431.8 350.069L432.4 347.814L433 352.309L433.6 346.339L434.2 351.738L434.8 349.15L435.4 344.127L436 340.829L436.6 343.459L437.2 343.918L437.8 339.66L438.4 347.926L439 348.079L439.6 344.656L440.2 338.06L440.8 337.016L441.4 340.857L442 333.844L442.6 341.734L443.2 341.678L443.8 337.239L444.4 329.753L445 332.16L445.6 334.679L446.2 333.913L446.8 342.708L447.4 337.74L448 333.176L448.6 332.758L449.2 336.71L449.8 336.933L450.4 345.88L451 348.357L451.6 343.069L452.2 345.616L452.8 343.793L453.4 347.077L454 352.518L454.6 356.289L455.2 359.531L455.8 354.507L456.4 358.626L457 358.265L457.6 357.819L458.2 361.521L458.8 366.294L459.4 362.147L460 361.145L460.6 363.037L461.2 363.58L461.8 364.832L462.4 365.459L463 367.866L463.6 368.409L464.2 366.502L464.8 364.818L465.4 368.075L466 367.059L466.6 367.24L467.2 369.063L467.8 367.852L468.4 367.504L469 368.311L469.6 368.687L470.2 368.492L470.8 368.715L471.4 369.424L472 368.617L472.6 368.061L473.2 368.756L473.8 368.812L474.4 368.687L475 369.146L475.6 369.424L476.2 369.118L476.8 368.951L477.4 369.146L478 369.494L478.6 369.438H479.2L479.8 369.731L480.4 369.55L481 369.341L481.6 369.397L482.2 369.647L482.8 369.564L483.4 369.717H484L484.6 369.536L485.2 369.577L485.8 369.605L486.4 369.633L487 369.689L487.6 369.703L488.2 369.744L488.8 369.605L489.4 369.577L490 369.647L490.6 369.619L491.2 369.577L491.8 369.675L492.4 369.744L493 369.55L493.6 369.605H494.2L494.8 369.48L495.4 369.577L496 369.494L496.6 369.744L497.2 369.591L497.8 369.369L498.4 369.494L499 369.591H499.6L500.2 369.605L500.8 369.772L501.4 369.661L502 369.717H502.6L503.2 369.619H503.8L504.4 369.703L505 369.689H505.6L506.2 369.661L506.8 369.591L507.4 369.675L508 369.619L508.6 369.731L509.2 369.772L509.8 369.577L510.4 369.508H511L511.6 369.577L512.2 369.675L512.8 369.647L513.4 369.689L514 369.424L514.6 369.438H515.2L515.8 369.48L516.4 369.397L517 369.564L517.6 369.731L518.2 369.55L518.8 369.438L519.4 369.424L520 369.438L520.6 369.243L521.2 369.494L521.8 369.675L522.4 369.452L523 369.438L523.6 369.536L524.2 369.508L524.8 369.452H525.4L526 369.202L526.6 368.84L527.2 367.741L527.8 366.6L528.4 364.345L529 362.759L529.6 362.564L530.2 365.194L530.8 364.596L531.4 355.217L532 347.633L532.6 345.31L533.2 338.338L533.8 341.177L534.4 350.862L535 326.177L535.6 315.337L536.2 308.797L536.8 306.835L537.4 293.782L538 302.312L538.6 330.852L539.2 270.711L539.8 269.793L540.4 266.439L541 271.018L541.6 258.077L542.2 274.677L542.8 322.197L543.4 253.332L544 261.889L544.6 258.605L545.2 259.037L545.8 245.177L546.4 283.555L547 318.148L547.6 245.887L548.2 255.043L548.8 255.655L549.4 269.181L550 322.42L550.6 277.335L551.2 320.833L551.8 246.666L552.4 260.122L553 257.868L553.6 283.458L554.2 268.499L554.8 292.85L555.4 333.983L556 263.963L556.6 265.966L557.2 327.972L557.8 280.925L558.4 270.906L559 296.983L559.6 332.967L560.2 271.018L560.8 271.727L561.4 290.485L562 295.494L562.6 286.519L563.2 307.252L563.8 339.897L564.4 281.078L565 281.982L565.6 302.424L566.2 307.6L566.8 295.049L567.4 311.399L568 340.509L568.6 290.331L569.2 293.838L569.8 308.338L570.4 321.042L571 314.446L571.6 328.292L572.2 345.157L572.8 352.49L573.4 303.968L574 308.157L574.6 318.816L575.2 310.188L575.8 322.378L576.4 345.588L577 302.354L577.6 305.541L578.2 316.144L578.8 320.124L579.4 314.822L580 324.827L580.6 347.689L581.2 310.633L581.8 308.115L582.4 313.319L583 318.816L583.6 311.441L584.2 326.399L584.8 345.894L585.4 306.709L586 311.9L586.6 322.92L587.2 327.846L587.8 329.307L588.4 340.759L589 355.064L589.6 325.495L590.2 323.7L590.8 332.522L591.4 334.985L592 330.713L592.6 338.297L593.2 353.923L593.8 329.182L594.4 331.603L595 338.213L595.6 341.831L596.2 357.527L596.8 348.691L597.4 358.265L598 341.97L598.6 354.674L599.2 354.48L599.8 355.732L600.4 334.623L601 340.078L601.6 355.718L602.2 334.247L602.8 339.451L603.4 344.029L604 345.964L604.6 343.682L605.2 348.775L605.8 358.209L606.4 339.98L607 341.038L607.6 346.145L608.2 347.453L608.8 344.21L609.4 350.069L610 360.602L610.6 343.389L611.2 346.743L611.8 351.057L612.4 353.673L613 352.907L613.6 356.776L614.2 362.856L614.8 352.935L615.4 354.076L616 357.318L616.6 357.945L617.2 357.374L617.8 360.38L618.4 364.304L619 357.124L619.6 358.028L620.2 359.837L620.8 361.312L621.4 359.795L622 361.646L622.6 365.403L623.2 357.193L623.8 357.444L624.4 358.863L625 360.046L625.6 358.111L626.2 360.087L626.8 364.721L627.4 354.744L628 355.579L628.6 356.191L629.2 356.957L629.8 355.509L630.4 357.889L631 363.636L631.6 350.291L632.2 346.131L632.8 347.898L633.4 348.663L634 345.463L634.6 344.544L635.2 344.558L635.8 342.819L636.4 327.526L637 326.246L637.6 318.635L638.2 314.015L638.8 309.91L639.4 310.94L640 300.35L640.6 283.624L641.2 284.153L641.8 264.004L642.4 263.517L643 256.435L643.6 238.373L644.2 250.465L644.8 210.571L645.4 241.365L646 220.256L646.6 178.942L647.2 201.429L647.8 195.932L648.4 215.232L649 139.451L649.6 157.527L650.2 185.649L650.8 160.644L651.4 159.851L652 169.299L652.6 194.958L653.2 150.917L653.8 174.893L654.4 186.428L655 173.599L655.6 195.111L656.2 194.04L656.8 180.375L657.4 189.392L658 202.695L658.6 196.809L659.2 236.62L659.8 234.783L660.4 243.883L661 249.936L661.6 231.415L662.2 230.525L662.8 236.745L663.4 212.101L664 220.339L664.6 241.615L665.2 244.746L665.8 233.572L666.4 260.693L667 243.271L667.6 247.32L668.2 264.937L668.8 269.57L669.4 275.526L670 281.203L670.6 289.65L671.2 275.679L671.8 283.583L672.4 291.82L673 297.776L673.6 302.646L674.2 294.659L674.8 304.72L675.4 286.477L676 295.55L676.6 295.925L677.2 307.517L677.8 310.258L678.4 298.291L679 313.556L679.6 303.231L680.2 301.422L680.8 307.781L681.4 328.862L682 331.089L682.6 328.403L683.2 321.098L683.8 304.761L684.4 317.007L685 329.948L685.6 329.196L686.2 334.025L686.8 324.869L687.4 327.693L688 336.849L688.6 333.343L689.2 343.278L689.8 352.198L690.4 333.538L691 334.428L691.6 337.517L692.2 341.274L692.8 346.284L693.4 349.985L694 358.223L694.6 356.706L695.2 337.03L695.8 335.667" stroke="#4285F4" stroke-width="2" stroke-miterlimit="10"/>
<path d="M383.422 418.8V410.206H386.391C387.057 410.206 387.568 410.248 387.922 410.331C388.411 410.446 388.828 410.649 389.172 410.94C389.63 411.326 389.969 411.821 390.188 412.425C390.417 413.019 390.531 413.696 390.531 414.456C390.531 415.112 390.453 415.69 390.297 416.19C390.151 416.69 389.958 417.107 389.719 417.44C389.479 417.774 389.214 418.034 388.922 418.222C388.641 418.409 388.302 418.555 387.906 418.659C387.51 418.753 387.052 418.8 386.531 418.8H383.422ZM384.562 417.784H386.391C386.964 417.784 387.411 417.732 387.734 417.628C388.057 417.524 388.312 417.373 388.5 417.175C388.771 416.914 388.979 416.555 389.125 416.097C389.281 415.638 389.359 415.086 389.359 414.44C389.359 413.545 389.208 412.857 388.906 412.378C388.615 411.888 388.26 411.56 387.844 411.394C387.531 411.279 387.042 411.222 386.375 411.222H384.562V417.784ZM396.359 418.034C395.964 418.368 395.583 418.602 395.219 418.737C394.865 418.873 394.479 418.94 394.062 418.94C393.375 418.94 392.849 418.774 392.484 418.44C392.12 418.107 391.938 417.68 391.938 417.159C391.938 416.857 392.005 416.581 392.141 416.331C392.276 416.071 392.458 415.868 392.688 415.722C392.917 415.565 393.172 415.451 393.453 415.378C393.651 415.315 393.964 415.258 394.391 415.206C395.234 415.112 395.859 414.993 396.266 414.847C396.266 414.701 396.266 414.612 396.266 414.581C396.266 414.144 396.167 413.836 395.969 413.659C395.698 413.43 395.297 413.315 394.766 413.315C394.276 413.315 393.911 413.404 393.672 413.581C393.432 413.748 393.255 414.05 393.141 414.487L392.109 414.347C392.203 413.909 392.359 413.555 392.578 413.284C392.797 413.013 393.109 412.805 393.516 412.659C393.922 412.513 394.391 412.44 394.922 412.44C395.453 412.44 395.885 412.503 396.219 412.628C396.552 412.753 396.797 412.909 396.953 413.097C397.109 413.284 397.219 413.524 397.281 413.815C397.312 413.993 397.328 414.315 397.328 414.784V416.19C397.328 417.17 397.349 417.789 397.391 418.05C397.443 418.31 397.536 418.56 397.672 418.8H396.562C396.458 418.581 396.391 418.326 396.359 418.034ZM396.266 415.675C395.88 415.831 395.307 415.966 394.547 416.081C394.109 416.144 393.802 416.216 393.625 416.3C393.448 416.373 393.307 416.482 393.203 416.628C393.109 416.774 393.062 416.94 393.062 417.128C393.062 417.409 393.167 417.644 393.375 417.831C393.594 418.019 393.906 418.112 394.312 418.112C394.719 418.112 395.078 418.024 395.391 417.847C395.714 417.67 395.948 417.425 396.094 417.112C396.208 416.873 396.266 416.524 396.266 416.065V415.675ZM401.594 417.862L401.75 418.784C401.448 418.847 401.182 418.878 400.953 418.878C400.568 418.878 400.271 418.821 400.062 418.706C399.854 418.581 399.703 418.42 399.609 418.222C399.526 418.024 399.484 417.607 399.484 416.972V413.394H398.719V412.581H399.484V411.034L400.531 410.409V412.581H401.594V413.394H400.531V417.034C400.531 417.336 400.547 417.529 400.578 417.612C400.62 417.696 400.682 417.763 400.766 417.815C400.849 417.868 400.969 417.894 401.125 417.894C401.25 417.894 401.406 417.883 401.594 417.862ZM406.547 416.8L407.641 416.925C407.474 417.56 407.156 418.055 406.688 418.409C406.219 418.763 405.625 418.94 404.906 418.94C404 418.94 403.276 418.659 402.734 418.097C402.203 417.534 401.938 416.748 401.938 415.737C401.938 414.696 402.208 413.888 402.75 413.315C403.292 412.732 403.99 412.44 404.844 412.44C405.677 412.44 406.354 412.722 406.875 413.284C407.406 413.847 407.672 414.644 407.672 415.675C407.672 415.737 407.672 415.831 407.672 415.956H403.031C403.073 416.644 403.266 417.17 403.609 417.534C403.953 417.888 404.385 418.065 404.906 418.065C405.292 418.065 405.62 417.966 405.891 417.769C406.172 417.56 406.391 417.237 406.547 416.8ZM403.094 415.097H406.562C406.521 414.565 406.391 414.17 406.172 413.909C405.828 413.503 405.391 413.3 404.859 413.3C404.37 413.3 403.958 413.461 403.625 413.784C403.302 414.107 403.125 414.545 403.094 415.097Z" fill="black"/>
<path d="M33.2 265.775H24.6062V264.634H28.8719L24.6062 260.369V258.822L28.0906 262.431L33.2 258.666V260.166L28.8562 263.228L30.2156 264.634H33.2V265.775ZM32.4344 253.791C32.7677 254.186 33.0021 254.567 33.1375 254.931C33.2729 255.285 33.3406 255.671 33.3406 256.087C33.3406 256.775 33.1739 257.301 32.8406 257.666C32.5073 258.03 32.0802 258.212 31.5594 258.212C31.2573 258.212 30.9812 258.145 30.7312 258.009C30.4708 257.874 30.2677 257.692 30.1219 257.462C29.9656 257.233 29.851 256.978 29.7781 256.697C29.7156 256.499 29.6583 256.186 29.6062 255.759C29.5125 254.916 29.3927 254.291 29.2469 253.884C29.101 253.884 29.0125 253.884 28.9812 253.884C28.5437 253.884 28.2364 253.983 28.0594 254.181C27.8302 254.452 27.7156 254.853 27.7156 255.384C27.7156 255.874 27.8041 256.238 27.9812 256.478C28.1479 256.718 28.45 256.895 28.8875 257.009L28.7469 258.041C28.3094 257.947 27.9552 257.791 27.6844 257.572C27.4135 257.353 27.2052 257.041 27.0594 256.634C26.9135 256.228 26.8406 255.759 26.8406 255.228C26.8406 254.697 26.9031 254.264 27.0281 253.931C27.1531 253.598 27.3094 253.353 27.4969 253.197C27.6844 253.041 27.9239 252.931 28.2156 252.869C28.3927 252.837 28.7156 252.822 29.1844 252.822H30.5906C31.5698 252.822 32.1896 252.801 32.45 252.759C32.7104 252.707 32.9604 252.613 33.2 252.478V253.587C32.9812 253.692 32.726 253.759 32.4344 253.791ZM30.075 253.884C30.2312 254.27 30.3666 254.843 30.4812 255.603C30.5437 256.041 30.6166 256.348 30.7 256.525C30.7729 256.702 30.8823 256.843 31.0281 256.947C31.1739 257.041 31.3406 257.087 31.5281 257.087C31.8094 257.087 32.0437 256.983 32.2312 256.775C32.4187 256.556 32.5125 256.244 32.5125 255.837C32.5125 255.431 32.4239 255.072 32.2469 254.759C32.0698 254.436 31.825 254.202 31.5125 254.056C31.2729 253.942 30.9239 253.884 30.4656 253.884H30.075ZM33.2 250.853H26.9812V249.916H27.8562C27.1791 249.457 26.8406 248.796 26.8406 247.931C26.8406 247.556 26.9083 247.212 27.0437 246.9C27.1791 246.577 27.3562 246.337 27.575 246.181C27.7937 246.025 28.0489 245.916 28.3406 245.853C28.5385 245.822 28.8823 245.806 29.3719 245.806H33.2V246.853H29.4187C28.9812 246.853 28.6583 246.895 28.45 246.978C28.2416 247.061 28.075 247.207 27.95 247.416C27.8146 247.624 27.7469 247.869 27.7469 248.15C27.7469 248.598 27.8927 248.988 28.1844 249.322C28.4656 249.645 29.0021 249.806 29.7937 249.806H33.2V250.853ZM32.4344 239.791C32.7677 240.186 33.0021 240.567 33.1375 240.931C33.2729 241.285 33.3406 241.671 33.3406 242.087C33.3406 242.775 33.1739 243.301 32.8406 243.666C32.5073 244.03 32.0802 244.212 31.5594 244.212C31.2573 244.212 30.9812 244.145 30.7312 244.009C30.4708 243.874 30.2677 243.692 30.1219 243.462C29.9656 243.233 29.851 242.978 29.7781 242.697C29.7156 242.499 29.6583 242.186 29.6062 241.759C29.5125 240.916 29.3927 240.291 29.2469 239.884C29.101 239.884 29.0125 239.884 28.9812 239.884C28.5437 239.884 28.2364 239.983 28.0594 240.181C27.8302 240.452 27.7156 240.853 27.7156 241.384C27.7156 241.874 27.8041 242.238 27.9812 242.478C28.1479 242.718 28.45 242.895 28.8875 243.009L28.7469 244.041C28.3094 243.947 27.9552 243.791 27.6844 243.572C27.4135 243.353 27.2052 243.041 27.0594 242.634C26.9135 242.228 26.8406 241.759 26.8406 241.228C26.8406 240.697 26.9031 240.264 27.0281 239.931C27.1531 239.598 27.3094 239.353 27.4969 239.197C27.6844 239.041 27.9239 238.931 28.2156 238.869C28.3927 238.837 28.7156 238.822 29.1844 238.822H30.5906C31.5698 238.822 32.1896 238.801 32.45 238.759C32.7104 238.707 32.9604 238.613 33.2 238.478V239.587C32.9812 239.692 32.726 239.759 32.4344 239.791ZM30.075 239.884C30.2312 240.27 30.3666 240.843 30.4812 241.603C30.5437 242.041 30.6166 242.348 30.7 242.525C30.7729 242.702 30.8823 242.843 31.0281 242.947C31.1739 243.041 31.3406 243.087 31.5281 243.087C31.8094 243.087 32.0437 242.983 32.2312 242.775C32.4187 242.556 32.5125 242.244 32.5125 241.837C32.5125 241.431 32.4239 241.072 32.2469 240.759C32.0698 240.436 31.825 240.202 31.5125 240.056C31.2729 239.942 30.9239 239.884 30.4656 239.884H30.075ZM33.7156 237.056L33.8719 236.025C34.1844 235.983 34.4135 235.863 34.5594 235.666C34.7573 235.405 34.8562 235.051 34.8562 234.603C34.8562 234.113 34.7573 233.738 34.5594 233.478C34.3614 233.207 34.0906 233.025 33.7469 232.931C33.5281 232.869 33.075 232.843 32.3875 232.853C32.9292 233.311 33.2 233.884 33.2 234.572C33.2 235.426 32.8927 236.087 32.2781 236.556C31.6531 237.025 30.9135 237.259 30.0594 237.259C29.4656 237.259 28.9187 237.155 28.4187 236.947C27.9083 236.728 27.5177 236.416 27.2469 236.009C26.976 235.603 26.8406 235.124 26.8406 234.572C26.8406 233.832 27.1375 233.223 27.7312 232.744H26.9812V231.775H32.3562C33.325 231.775 34.0125 231.874 34.4187 232.072C34.825 232.27 35.1427 232.582 35.3719 233.009C35.6114 233.436 35.7312 233.962 35.7312 234.587C35.7312 235.327 35.5646 235.926 35.2312 236.384C34.8979 236.843 34.3927 237.067 33.7156 237.056ZM29.9812 236.181C30.7937 236.181 31.3875 236.02 31.7625 235.697C32.1375 235.374 32.325 234.968 32.325 234.478C32.325 233.988 32.1375 233.582 31.7625 233.259C31.3875 232.926 30.8041 232.759 30.0125 232.759C29.2521 232.759 28.6791 232.931 28.2937 233.275C27.9083 233.608 27.7156 234.014 27.7156 234.494C27.7156 234.962 27.9083 235.363 28.2937 235.697C28.6687 236.02 29.2312 236.181 29.9812 236.181ZM32.4344 225.791C32.7677 226.186 33.0021 226.567 33.1375 226.931C33.2729 227.285 33.3406 227.671 33.3406 228.087C33.3406 228.775 33.1739 229.301 32.8406 229.666C32.5073 230.03 32.0802 230.212 31.5594 230.212C31.2573 230.212 30.9812 230.145 30.7312 230.009C30.4708 229.874 30.2677 229.692 30.1219 229.462C29.9656 229.233 29.851 228.978 29.7781 228.697C29.7156 228.499 29.6583 228.186 29.6062 227.759C29.5125 226.916 29.3927 226.291 29.2469 225.884C29.101 225.884 29.0125 225.884 28.9812 225.884C28.5437 225.884 28.2364 225.983 28.0594 226.181C27.8302 226.452 27.7156 226.853 27.7156 227.384C27.7156 227.874 27.8041 228.238 27.9812 228.478C28.1479 228.718 28.45 228.895 28.8875 229.009L28.7469 230.041C28.3094 229.947 27.9552 229.791 27.6844 229.572C27.4135 229.353 27.2052 229.041 27.0594 228.634C26.9135 228.228 26.8406 227.759 26.8406 227.228C26.8406 226.697 26.9031 226.264 27.0281 225.931C27.1531 225.598 27.3094 225.353 27.4969 225.197C27.6844 225.041 27.9239 224.931 28.2156 224.869C28.3927 224.837 28.7156 224.822 29.1844 224.822H30.5906C31.5698 224.822 32.1896 224.801 32.45 224.759C32.7104 224.707 32.9604 224.613 33.2 224.478V225.587C32.9812 225.692 32.726 225.759 32.4344 225.791ZM30.075 225.884C30.2312 226.27 30.3666 226.843 30.4812 227.603C30.5437 228.041 30.6166 228.348 30.7 228.525C30.7729 228.702 30.8823 228.843 31.0281 228.947C31.1739 229.041 31.3406 229.087 31.5281 229.087C31.8094 229.087 32.0437 228.983 32.2312 228.775C32.4187 228.556 32.5125 228.244 32.5125 227.837C32.5125 227.431 32.4239 227.072 32.2469 226.759C32.0698 226.436 31.825 226.202 31.5125 226.056C31.2729 225.942 30.9239 225.884 30.4656 225.884H30.075ZM33.2 221.712L26.9812 223.619V222.525L30.575 221.541L31.9031 221.166C31.8406 221.145 31.4135 221.035 30.6219 220.837L26.9812 219.853V218.775L30.5906 217.837L31.7781 217.525L30.575 217.166L26.9812 216.103V215.072L33.2 217.025V218.119L29.4656 219.103L28.4187 219.353L33.2 220.603V221.712ZM32.4344 209.791C32.7677 210.186 33.0021 210.567 33.1375 210.931C33.2729 211.285 33.3406 211.671 33.3406 212.087C33.3406 212.775 33.1739 213.301 32.8406 213.666C32.5073 214.03 32.0802 214.212 31.5594 214.212C31.2573 214.212 30.9812 214.145 30.7312 214.009C30.4708 213.874 30.2677 213.692 30.1219 213.462C29.9656 213.233 29.851 212.978 29.7781 212.697C29.7156 212.499 29.6583 212.186 29.6062 211.759C29.5125 210.916 29.3927 210.291 29.2469 209.884C29.101 209.884 29.0125 209.884 28.9812 209.884C28.5437 209.884 28.2364 209.983 28.0594 210.181C27.8302 210.452 27.7156 210.853 27.7156 211.384C27.7156 211.874 27.8041 212.238 27.9812 212.478C28.1479 212.718 28.45 212.895 28.8875 213.009L28.7469 214.041C28.3094 213.947 27.9552 213.791 27.6844 213.572C27.4135 213.353 27.2052 213.041 27.0594 212.634C26.9135 212.228 26.8406 211.759 26.8406 211.228C26.8406 210.697 26.9031 210.264 27.0281 209.931C27.1531 209.598 27.3094 209.353 27.4969 209.197C27.6844 209.041 27.9239 208.931 28.2156 208.869C28.3927 208.837 28.7156 208.822 29.1844 208.822H30.5906C31.5698 208.822 32.1896 208.801 32.45 208.759C32.7104 208.707 32.9604 208.613 33.2 208.478V209.587C32.9812 209.692 32.726 209.759 32.4344 209.791ZM30.075 209.884C30.2312 210.27 30.3666 210.843 30.4812 211.603C30.5437 212.041 30.6166 212.348 30.7 212.525C30.7729 212.702 30.8823 212.843 31.0281 212.947C31.1739 213.041 31.3406 213.087 31.5281 213.087C31.8094 213.087 32.0437 212.983 32.2312 212.775C32.4187 212.556 32.5125 212.244 32.5125 211.837C32.5125 211.431 32.4239 211.072 32.2469 210.759C32.0698 210.436 31.825 210.202 31.5125 210.056C31.2729 209.942 30.9239 209.884 30.4656 209.884H30.075Z" fill="black"/>
<path d="M82.7 369.565C82.7 368.545 82.8042 367.727 83.0125 367.112C83.2208 366.487 83.5281 366.008 83.9344 365.675C84.351 365.341 84.8719 365.175 85.4969 365.175C85.9552 365.175 86.3562 365.269 86.7 365.456C87.0542 365.644 87.3458 365.914 87.575 366.269C87.8042 366.612 87.9812 367.034 88.1062 367.534C88.2312 368.034 88.2937 368.711 88.2937 369.565C88.2937 370.576 88.1896 371.388 87.9812 372.003C87.7833 372.618 87.476 373.097 87.0594 373.44C86.6531 373.774 86.1323 373.94 85.4969 373.94C84.674 373.94 84.0229 373.644 83.5437 373.05C82.9812 372.341 82.7 371.18 82.7 369.565ZM83.7781 369.565C83.7781 370.972 83.9448 371.909 84.2781 372.378C84.6115 372.847 85.0177 373.081 85.4969 373.081C85.9865 373.081 86.3927 372.847 86.7156 372.378C87.049 371.909 87.2156 370.972 87.2156 369.565C87.2156 368.149 87.049 367.211 86.7156 366.753C86.3927 366.284 85.9812 366.05 85.4812 366.05C85.0021 366.05 84.6167 366.253 84.325 366.659C83.9604 367.18 83.7781 368.149 83.7781 369.565Z" fill="black"/>
<path d="M61.7 301.975L62.8094 301.881C62.8927 302.423 63.0802 302.829 63.3719 303.1C63.674 303.371 64.0385 303.506 64.4656 303.506C64.9656 303.506 65.3927 303.314 65.7469 302.928C66.101 302.543 66.2781 302.038 66.2781 301.413C66.2781 300.808 66.1062 300.334 65.7625 299.991C65.4292 299.637 64.9865 299.459 64.4344 299.459C64.101 299.459 63.7937 299.538 63.5125 299.694C63.2417 299.85 63.0281 300.048 62.8719 300.288L61.8875 300.163L62.7156 295.756H66.9969V296.756H63.5594L63.1062 299.069C63.6167 298.704 64.1531 298.522 64.7156 298.522C65.4656 298.522 66.0958 298.782 66.6062 299.303C67.1271 299.824 67.3875 300.496 67.3875 301.319C67.3875 302.09 67.1635 302.762 66.7156 303.334C66.1635 304.022 65.4135 304.366 64.4656 304.366C63.6844 304.366 63.0437 304.147 62.5437 303.709C62.0542 303.272 61.7729 302.694 61.7 301.975ZM68.7 299.991C68.7 298.97 68.8042 298.152 69.0125 297.538C69.2208 296.913 69.5281 296.433 69.9344 296.1C70.351 295.767 70.8719 295.6 71.4969 295.6C71.9552 295.6 72.3562 295.694 72.7 295.881C73.0542 296.069 73.3458 296.34 73.575 296.694C73.8042 297.038 73.9812 297.459 74.1062 297.959C74.2312 298.459 74.2937 299.137 74.2937 299.991C74.2937 301.001 74.1896 301.814 73.9812 302.428C73.7833 303.043 73.476 303.522 73.0594 303.866C72.6531 304.199 72.1323 304.366 71.4969 304.366C70.674 304.366 70.0229 304.069 69.5437 303.475C68.9812 302.767 68.7 301.605 68.7 299.991ZM69.7781 299.991C69.7781 301.397 69.9448 302.334 70.2781 302.803C70.6115 303.272 71.0177 303.506 71.4969 303.506C71.9865 303.506 72.3927 303.272 72.7156 302.803C73.049 302.334 73.2156 301.397 73.2156 299.991C73.2156 298.574 73.049 297.637 72.7156 297.178C72.3927 296.709 71.9812 296.475 71.4812 296.475C71.0021 296.475 70.6167 296.678 70.325 297.084C69.9604 297.605 69.7781 298.574 69.7781 299.991ZM75.7 299.991C75.7 298.97 75.8042 298.152 76.0125 297.538C76.2208 296.913 76.5281 296.433 76.9344 296.1C77.351 295.767 77.8719 295.6 78.4969 295.6C78.9552 295.6 79.3562 295.694 79.7 295.881C80.0542 296.069 80.3458 296.34 80.575 296.694C80.8042 297.038 80.9812 297.459 81.1062 297.959C81.2312 298.459 81.2937 299.137 81.2937 299.991C81.2937 301.001 81.1896 301.814 80.9812 302.428C80.7833 303.043 80.476 303.522 80.0594 303.866C79.6531 304.199 79.1323 304.366 78.4969 304.366C77.674 304.366 77.0229 304.069 76.5437 303.475C75.9812 302.767 75.7 301.605 75.7 299.991ZM76.7781 299.991C76.7781 301.397 76.9448 302.334 77.2781 302.803C77.6115 303.272 78.0177 303.506 78.4969 303.506C78.9865 303.506 79.3927 303.272 79.7156 302.803C80.049 302.334 80.2156 301.397 80.2156 299.991C80.2156 298.574 80.049 297.637 79.7156 297.178C79.3927 296.709 78.9812 296.475 78.4812 296.475C78.0021 296.475 77.6167 296.678 77.325 297.084C76.9604 297.605 76.7781 298.574 76.7781 299.991ZM82.7 299.991C82.7 298.97 82.8042 298.152 83.0125 297.538C83.2208 296.913 83.5281 296.433 83.9344 296.1C84.351 295.767 84.8719 295.6 85.4969 295.6C85.9552 295.6 86.3562 295.694 86.7 295.881C87.0542 296.069 87.3458 296.34 87.575 296.694C87.8042 297.038 87.9812 297.459 88.1062 297.959C88.2312 298.459 88.2937 299.137 88.2937 299.991C88.2937 301.001 88.1896 301.814 87.9812 302.428C87.7833 303.043 87.476 303.522 87.0594 303.866C86.6531 304.199 86.1323 304.366 85.4969 304.366C84.674 304.366 84.0229 304.069 83.5437 303.475C82.9812 302.767 82.7 301.605 82.7 299.991ZM83.7781 299.991C83.7781 301.397 83.9448 302.334 84.2781 302.803C84.6115 303.272 85.0177 303.506 85.4969 303.506C85.9865 303.506 86.3927 303.272 86.7156 302.803C87.049 302.334 87.2156 301.397 87.2156 299.991C87.2156 298.574 87.049 297.637 86.7156 297.178C86.3927 296.709 85.9812 296.475 85.4812 296.475C85.0021 296.475 84.6167 296.678 84.325 297.084C83.9604 297.605 83.7781 298.574 83.7781 299.991Z" fill="black"/>
<path d="M58.6687 234.65H57.6219V227.931C57.3615 228.171 57.0229 228.416 56.6062 228.666C56.2 228.905 55.8354 229.082 55.5125 229.197V228.181C56.0958 227.9 56.6062 227.567 57.0437 227.181C57.4917 226.785 57.8094 226.4 57.9969 226.025H58.6687V234.65ZM61.7 230.416C61.7 229.395 61.8042 228.577 62.0125 227.962C62.2208 227.337 62.5281 226.858 62.9344 226.525C63.351 226.192 63.8719 226.025 64.4969 226.025C64.9552 226.025 65.3562 226.119 65.7 226.306C66.0542 226.494 66.3458 226.764 66.575 227.119C66.8042 227.462 66.9812 227.884 67.1062 228.384C67.2312 228.884 67.2937 229.561 67.2937 230.416C67.2937 231.426 67.1896 232.238 66.9812 232.853C66.7833 233.468 66.476 233.947 66.0594 234.291C65.6531 234.624 65.1323 234.791 64.4969 234.791C63.674 234.791 63.0229 234.494 62.5437 233.9C61.9812 233.192 61.7 232.03 61.7 230.416ZM62.7781 230.416C62.7781 231.822 62.9448 232.759 63.2781 233.228C63.6115 233.697 64.0177 233.931 64.4969 233.931C64.9865 233.931 65.3927 233.697 65.7156 233.228C66.049 232.759 66.2156 231.822 66.2156 230.416C66.2156 228.999 66.049 228.061 65.7156 227.603C65.3927 227.134 64.9812 226.9 64.4812 226.9C64.0021 226.9 63.6167 227.103 63.325 227.509C62.9604 228.03 62.7781 228.999 62.7781 230.416ZM68.7 230.416C68.7 229.395 68.8042 228.577 69.0125 227.962C69.2208 227.337 69.5281 226.858 69.9344 226.525C70.351 226.192 70.8719 226.025 71.4969 226.025C71.9552 226.025 72.3562 226.119 72.7 226.306C73.0542 226.494 73.3458 226.764 73.575 227.119C73.8042 227.462 73.9812 227.884 74.1062 228.384C74.2312 228.884 74.2937 229.561 74.2937 230.416C74.2937 231.426 74.1896 232.238 73.9812 232.853C73.7833 233.468 73.476 233.947 73.0594 234.291C72.6531 234.624 72.1323 234.791 71.4969 234.791C70.674 234.791 70.0229 234.494 69.5437 233.9C68.9812 233.192 68.7 232.03 68.7 230.416ZM69.7781 230.416C69.7781 231.822 69.9448 232.759 70.2781 233.228C70.6115 233.697 71.0177 233.931 71.4969 233.931C71.9865 233.931 72.3927 233.697 72.7156 233.228C73.049 232.759 73.2156 231.822 73.2156 230.416C73.2156 228.999 73.049 228.061 72.7156 227.603C72.3927 227.134 71.9812 226.9 71.4812 226.9C71.0021 226.9 70.6167 227.103 70.325 227.509C69.9604 228.03 69.7781 228.999 69.7781 230.416ZM75.7 230.416C75.7 229.395 75.8042 228.577 76.0125 227.962C76.2208 227.337 76.5281 226.858 76.9344 226.525C77.351 226.192 77.8719 226.025 78.4969 226.025C78.9552 226.025 79.3562 226.119 79.7 226.306C80.0542 226.494 80.3458 226.764 80.575 227.119C80.8042 227.462 80.9812 227.884 81.1062 228.384C81.2312 228.884 81.2937 229.561 81.2937 230.416C81.2937 231.426 81.1896 232.238 80.9812 232.853C80.7833 233.468 80.476 233.947 80.0594 234.291C79.6531 234.624 79.1323 234.791 78.4969 234.791C77.674 234.791 77.0229 234.494 76.5437 233.9C75.9812 233.192 75.7 232.03 75.7 230.416ZM76.7781 230.416C76.7781 231.822 76.9448 232.759 77.2781 233.228C77.6115 233.697 78.0177 233.931 78.4969 233.931C78.9865 233.931 79.3927 233.697 79.7156 233.228C80.049 232.759 80.2156 231.822 80.2156 230.416C80.2156 228.999 80.049 228.061 79.7156 227.603C79.3927 227.134 78.9812 226.9 78.4812 226.9C78.0021 226.9 77.6167 227.103 77.325 227.509C76.9604 228.03 76.7781 228.999 76.7781 230.416ZM82.7 230.416C82.7 229.395 82.8042 228.577 83.0125 227.962C83.2208 227.337 83.5281 226.858 83.9344 226.525C84.351 226.192 84.8719 226.025 85.4969 226.025C85.9552 226.025 86.3562 226.119 86.7 226.306C87.0542 226.494 87.3458 226.764 87.575 227.119C87.8042 227.462 87.9812 227.884 88.1062 228.384C88.2312 228.884 88.2937 229.561 88.2937 230.416C88.2937 231.426 88.1896 232.238 87.9812 232.853C87.7833 233.468 87.476 233.947 87.0594 234.291C86.6531 234.624 86.1323 234.791 85.4969 234.791C84.674 234.791 84.0229 234.494 83.5437 233.9C82.9812 233.192 82.7 232.03 82.7 230.416ZM83.7781 230.416C83.7781 231.822 83.9448 232.759 84.2781 233.228C84.6115 233.697 85.0177 233.931 85.4969 233.931C85.9865 233.931 86.3927 233.697 86.7156 233.228C87.049 232.759 87.2156 231.822 87.2156 230.416C87.2156 228.999 87.049 228.061 86.7156 227.603C86.3927 227.134 85.9812 226.9 85.4812 226.9C85.0021 226.9 84.6167 227.103 84.325 227.509C83.9604 228.03 83.7781 228.999 83.7781 230.416Z" fill="black"/>
<path d="M58.6687 165.075H57.6219V158.356C57.3615 158.596 57.0229 158.841 56.6062 159.091C56.2 159.33 55.8354 159.507 55.5125 159.622V158.606C56.0958 158.325 56.6062 157.992 57.0437 157.606C57.4917 157.211 57.8094 156.825 57.9969 156.45H58.6687V165.075ZM61.7 162.825L62.8094 162.731C62.8927 163.273 63.0802 163.679 63.3719 163.95C63.674 164.221 64.0385 164.356 64.4656 164.356C64.9656 164.356 65.3927 164.164 65.7469 163.778C66.101 163.393 66.2781 162.888 66.2781 162.263C66.2781 161.659 66.1062 161.185 65.7625 160.841C65.4292 160.487 64.9865 160.31 64.4344 160.31C64.101 160.31 63.7937 160.388 63.5125 160.544C63.2417 160.7 63.0281 160.898 62.8719 161.138L61.8875 161.013L62.7156 156.606H66.9969V157.606H63.5594L63.1062 159.919C63.6167 159.554 64.1531 159.372 64.7156 159.372C65.4656 159.372 66.0958 159.632 66.6062 160.153C67.1271 160.674 67.3875 161.346 67.3875 162.169C67.3875 162.94 67.1635 163.612 66.7156 164.185C66.1635 164.872 65.4135 165.216 64.4656 165.216C63.6844 165.216 63.0437 164.997 62.5437 164.56C62.0542 164.122 61.7729 163.544 61.7 162.825ZM68.7 160.841C68.7 159.82 68.8042 159.002 69.0125 158.388C69.2208 157.763 69.5281 157.284 69.9344 156.95C70.351 156.617 70.8719 156.45 71.4969 156.45C71.9552 156.45 72.3562 156.544 72.7 156.731C73.0542 156.919 73.3458 157.19 73.575 157.544C73.8042 157.888 73.9812 158.31 74.1062 158.81C74.2312 159.31 74.2937 159.987 74.2937 160.841C74.2937 161.851 74.1896 162.664 73.9812 163.278C73.7833 163.893 73.476 164.372 73.0594 164.716C72.6531 165.049 72.1323 165.216 71.4969 165.216C70.674 165.216 70.0229 164.919 69.5437 164.325C68.9812 163.617 68.7 162.455 68.7 160.841ZM69.7781 160.841C69.7781 162.247 69.9448 163.185 70.2781 163.653C70.6115 164.122 71.0177 164.356 71.4969 164.356C71.9865 164.356 72.3927 164.122 72.7156 163.653C73.049 163.185 73.2156 162.247 73.2156 160.841C73.2156 159.424 73.049 158.487 72.7156 158.028C72.3927 157.56 71.9812 157.325 71.4812 157.325C71.0021 157.325 70.6167 157.528 70.325 157.935C69.9604 158.455 69.7781 159.424 69.7781 160.841ZM75.7 160.841C75.7 159.82 75.8042 159.002 76.0125 158.388C76.2208 157.763 76.5281 157.284 76.9344 156.95C77.351 156.617 77.8719 156.45 78.4969 156.45C78.9552 156.45 79.3562 156.544 79.7 156.731C80.0542 156.919 80.3458 157.19 80.575 157.544C80.8042 157.888 80.9812 158.31 81.1062 158.81C81.2312 159.31 81.2937 159.987 81.2937 160.841C81.2937 161.851 81.1896 162.664 80.9812 163.278C80.7833 163.893 80.476 164.372 80.0594 164.716C79.6531 165.049 79.1323 165.216 78.4969 165.216C77.674 165.216 77.0229 164.919 76.5437 164.325C75.9812 163.617 75.7 162.455 75.7 160.841ZM76.7781 160.841C76.7781 162.247 76.9448 163.185 77.2781 163.653C77.6115 164.122 78.0177 164.356 78.4969 164.356C78.9865 164.356 79.3927 164.122 79.7156 163.653C80.049 163.185 80.2156 162.247 80.2156 160.841C80.2156 159.424 80.049 158.487 79.7156 158.028C79.3927 157.56 78.9812 157.325 78.4812 157.325C78.0021 157.325 77.6167 157.528 77.325 157.935C76.9604 158.455 76.7781 159.424 76.7781 160.841ZM82.7 160.841C82.7 159.82 82.8042 159.002 83.0125 158.388C83.2208 157.763 83.5281 157.284 83.9344 156.95C84.351 156.617 84.8719 156.45 85.4969 156.45C85.9552 156.45 86.3562 156.544 86.7 156.731C87.0542 156.919 87.3458 157.19 87.575 157.544C87.8042 157.888 87.9812 158.31 88.1062 158.81C88.2312 159.31 88.2937 159.987 88.2937 160.841C88.2937 161.851 88.1896 162.664 87.9812 163.278C87.7833 163.893 87.476 164.372 87.0594 164.716C86.6531 165.049 86.1323 165.216 85.4969 165.216C84.674 165.216 84.0229 164.919 83.5437 164.325C82.9812 163.617 82.7 162.455 82.7 160.841ZM83.7781 160.841C83.7781 162.247 83.9448 163.185 84.2781 163.653C84.6115 164.122 85.0177 164.356 85.4969 164.356C85.9865 164.356 86.3927 164.122 86.7156 163.653C87.049 163.185 87.2156 162.247 87.2156 160.841C87.2156 159.424 87.049 158.487 86.7156 158.028C86.3927 157.56 85.9812 157.325 85.4812 157.325C85.0021 157.325 84.6167 157.528 84.325 157.935C83.9604 158.455 83.7781 159.424 83.7781 160.841Z" fill="black"/>
<path d="M60.2469 94.4844V95.5H54.5594C54.5594 95.25 54.601 95.0052 54.6844 94.7656C54.8302 94.3802 55.0594 94 55.3719 93.625C55.6948 93.25 56.1583 92.8177 56.7625 92.3281C57.7 91.5573 58.3302 90.9479 58.6531 90.5C58.9865 90.0521 59.1531 89.6302 59.1531 89.2344C59.1531 88.8177 59.0021 88.4688 58.7 88.1875C58.3979 87.8958 58.0073 87.75 57.5281 87.75C57.0177 87.75 56.6115 87.901 56.3094 88.2031C56.0073 88.5052 55.851 88.9271 55.8406 89.4688L54.7625 89.3594C54.8354 88.5469 55.1115 87.9323 55.5906 87.5156C56.0802 87.0885 56.7365 86.875 57.5594 86.875C58.3823 86.875 59.0333 87.1042 59.5125 87.5625C59.9917 88.0208 60.2312 88.5885 60.2312 89.2656C60.2312 89.6094 60.1583 89.9479 60.0125 90.2812C59.8771 90.6042 59.6427 90.9531 59.3094 91.3281C58.9865 91.6927 58.45 92.1927 57.7 92.8281C57.0646 93.3594 56.6531 93.724 56.4656 93.9219C56.2885 94.1094 56.1427 94.2969 56.0281 94.4844H60.2469ZM61.7 91.2656C61.7 90.2448 61.8042 89.4271 62.0125 88.8125C62.2208 88.1875 62.5281 87.7083 62.9344 87.375C63.351 87.0417 63.8719 86.875 64.4969 86.875C64.9552 86.875 65.3562 86.9688 65.7 87.1562C66.0542 87.3438 66.3458 87.6146 66.575 87.9688C66.8042 88.3125 66.9812 88.7344 67.1062 89.2344C67.2312 89.7344 67.2937 90.4115 67.2937 91.2656C67.2937 92.276 67.1896 93.0885 66.9812 93.7031C66.7833 94.3177 66.476 94.7969 66.0594 95.1406C65.6531 95.474 65.1323 95.6406 64.4969 95.6406C63.674 95.6406 63.0229 95.3438 62.5437 94.75C61.9812 94.0417 61.7 92.8802 61.7 91.2656ZM62.7781 91.2656C62.7781 92.6719 62.9448 93.6094 63.2781 94.0781C63.6115 94.5469 64.0177 94.7812 64.4969 94.7812C64.9865 94.7812 65.3927 94.5469 65.7156 94.0781C66.049 93.6094 66.2156 92.6719 66.2156 91.2656C66.2156 89.849 66.049 88.9115 65.7156 88.4531C65.3927 87.9844 64.9812 87.75 64.4812 87.75C64.0021 87.75 63.6167 87.9531 63.325 88.3594C62.9604 88.8802 62.7781 89.849 62.7781 91.2656ZM68.7 91.2656C68.7 90.2448 68.8042 89.4271 69.0125 88.8125C69.2208 88.1875 69.5281 87.7083 69.9344 87.375C70.351 87.0417 70.8719 86.875 71.4969 86.875C71.9552 86.875 72.3562 86.9688 72.7 87.1562C73.0542 87.3438 73.3458 87.6146 73.575 87.9688C73.8042 88.3125 73.9812 88.7344 74.1062 89.2344C74.2312 89.7344 74.2937 90.4115 74.2937 91.2656C74.2937 92.276 74.1896 93.0885 73.9812 93.7031C73.7833 94.3177 73.476 94.7969 73.0594 95.1406C72.6531 95.474 72.1323 95.6406 71.4969 95.6406C70.674 95.6406 70.0229 95.3438 69.5437 94.75C68.9812 94.0417 68.7 92.8802 68.7 91.2656ZM69.7781 91.2656C69.7781 92.6719 69.9448 93.6094 70.2781 94.0781C70.6115 94.5469 71.0177 94.7812 71.4969 94.7812C71.9865 94.7812 72.3927 94.5469 72.7156 94.0781C73.049 93.6094 73.2156 92.6719 73.2156 91.2656C73.2156 89.849 73.049 88.9115 72.7156 88.4531C72.3927 87.9844 71.9812 87.75 71.4812 87.75C71.0021 87.75 70.6167 87.9531 70.325 88.3594C69.9604 88.8802 69.7781 89.849 69.7781 91.2656ZM75.7 91.2656C75.7 90.2448 75.8042 89.4271 76.0125 88.8125C76.2208 88.1875 76.5281 87.7083 76.9344 87.375C77.351 87.0417 77.8719 86.875 78.4969 86.875C78.9552 86.875 79.3562 86.9688 79.7 87.1562C80.0542 87.3438 80.3458 87.6146 80.575 87.9688C80.8042 88.3125 80.9812 88.7344 81.1062 89.2344C81.2312 89.7344 81.2937 90.4115 81.2937 91.2656C81.2937 92.276 81.1896 93.0885 80.9812 93.7031C80.7833 94.3177 80.476 94.7969 80.0594 95.1406C79.6531 95.474 79.1323 95.6406 78.4969 95.6406C77.674 95.6406 77.0229 95.3438 76.5437 94.75C75.9812 94.0417 75.7 92.8802 75.7 91.2656ZM76.7781 91.2656C76.7781 92.6719 76.9448 93.6094 77.2781 94.0781C77.6115 94.5469 78.0177 94.7812 78.4969 94.7812C78.9865 94.7812 79.3927 94.5469 79.7156 94.0781C80.049 93.6094 80.2156 92.6719 80.2156 91.2656C80.2156 89.849 80.049 88.9115 79.7156 88.4531C79.3927 87.9844 78.9812 87.75 78.4812 87.75C78.0021 87.75 77.6167 87.9531 77.325 88.3594C76.9604 88.8802 76.7781 89.849 76.7781 91.2656ZM82.7 91.2656C82.7 90.2448 82.8042 89.4271 83.0125 88.8125C83.2208 88.1875 83.5281 87.7083 83.9344 87.375C84.351 87.0417 84.8719 86.875 85.4969 86.875C85.9552 86.875 86.3562 86.9688 86.7 87.1562C87.0542 87.3438 87.3458 87.6146 87.575 87.9688C87.8042 88.3125 87.9812 88.7344 88.1062 89.2344C88.2312 89.7344 88.2937 90.4115 88.2937 91.2656C88.2937 92.276 88.1896 93.0885 87.9812 93.7031C87.7833 94.3177 87.476 94.7969 87.0594 95.1406C86.6531 95.474 86.1323 95.6406 85.4969 95.6406C84.674 95.6406 84.0229 95.3438 83.5437 94.75C82.9812 94.0417 82.7 92.8802 82.7 91.2656ZM83.7781 91.2656C83.7781 92.6719 83.9448 93.6094 84.2781 94.0781C84.6115 94.5469 85.0177 94.7812 85.4969 94.7812C85.9865 94.7812 86.3927 94.5469 86.7156 94.0781C87.049 93.6094 87.2156 92.6719 87.2156 91.2656C87.2156 89.849 87.049 88.9115 86.7156 88.4531C86.3927 87.9844 85.9812 87.75 85.4812 87.75C85.0021 87.75 84.6167 87.9531 84.325 88.3594C83.9604 88.8802 83.7781 89.849 83.7781 91.2656Z" fill="black"/>
<path d="M173.975 386.8V384.737H170.256V383.769L174.178 378.206H175.038V383.769H176.194V384.737H175.038V386.8H173.975ZM173.975 383.769V379.909L171.288 383.769H173.975ZM180.975 386.8V384.737H177.256V383.769L181.178 378.206H182.038V383.769H183.194V384.737H182.038V386.8H180.975ZM180.975 383.769V379.909L178.288 383.769H180.975ZM184.6 382.565C184.6 381.545 184.704 380.727 184.913 380.112C185.121 379.487 185.428 379.008 185.834 378.675C186.251 378.341 186.772 378.175 187.397 378.175C187.855 378.175 188.256 378.269 188.6 378.456C188.954 378.644 189.246 378.914 189.475 379.269C189.704 379.612 189.881 380.034 190.006 380.534C190.131 381.034 190.194 381.711 190.194 382.565C190.194 383.576 190.09 384.388 189.881 385.003C189.683 385.618 189.376 386.097 188.959 386.44C188.553 386.774 188.032 386.94 187.397 386.94C186.574 386.94 185.923 386.644 185.444 386.05C184.881 385.341 184.6 384.18 184.6 382.565ZM185.678 382.565C185.678 383.972 185.845 384.909 186.178 385.378C186.511 385.847 186.918 386.081 187.397 386.081C187.886 386.081 188.293 385.847 188.616 385.378C188.949 384.909 189.116 383.972 189.116 382.565C189.116 381.149 188.949 380.211 188.616 379.753C188.293 379.284 187.881 379.05 187.381 379.05C186.902 379.05 186.517 379.253 186.225 379.659C185.86 380.18 185.678 381.149 185.678 382.565ZM191.6 382.565C191.6 381.545 191.704 380.727 191.913 380.112C192.121 379.487 192.428 379.008 192.834 378.675C193.251 378.341 193.772 378.175 194.397 378.175C194.855 378.175 195.256 378.269 195.6 378.456C195.954 378.644 196.246 378.914 196.475 379.269C196.704 379.612 196.881 380.034 197.006 380.534C197.131 381.034 197.194 381.711 197.194 382.565C197.194 383.576 197.09 384.388 196.881 385.003C196.683 385.618 196.376 386.097 195.959 386.44C195.553 386.774 195.032 386.94 194.397 386.94C193.574 386.94 192.923 386.644 192.444 386.05C191.881 385.341 191.6 384.18 191.6 382.565ZM192.678 382.565C192.678 383.972 192.845 384.909 193.178 385.378C193.511 385.847 193.918 386.081 194.397 386.081C194.886 386.081 195.293 385.847 195.616 385.378C195.949 384.909 196.116 383.972 196.116 382.565C196.116 381.149 195.949 380.211 195.616 379.753C195.293 379.284 194.881 379.05 194.381 379.05C193.902 379.05 193.517 379.253 193.225 379.659C192.86 380.18 192.678 381.149 192.678 382.565ZM198.6 382.565C198.6 381.545 198.704 380.727 198.913 380.112C199.121 379.487 199.428 379.008 199.834 378.675C200.251 378.341 200.772 378.175 201.397 378.175C201.855 378.175 202.256 378.269 202.6 378.456C202.954 378.644 203.246 378.914 203.475 379.269C203.704 379.612 203.881 380.034 204.006 380.534C204.131 381.034 204.194 381.711 204.194 382.565C204.194 383.576 204.09 384.388 203.881 385.003C203.683 385.618 203.376 386.097 202.959 386.44C202.553 386.774 202.032 386.94 201.397 386.94C200.574 386.94 199.923 386.644 199.444 386.05C198.881 385.341 198.6 384.18 198.6 382.565ZM199.678 382.565C199.678 383.972 199.845 384.909 200.178 385.378C200.511 385.847 200.918 386.081 201.397 386.081C201.886 386.081 202.293 385.847 202.616 385.378C202.949 384.909 203.116 383.972 203.116 382.565C203.116 381.149 202.949 380.211 202.616 379.753C202.293 379.284 201.881 379.05 201.381 379.05C200.902 379.05 200.517 379.253 200.225 379.659C199.86 380.18 199.678 381.149 199.678 382.565Z" fill="black"/>
<path d="M293.975 386.8V384.737H290.256V383.769L294.178 378.206H295.038V383.769H296.194V384.737H295.038V386.8H293.975ZM293.975 383.769V379.909L291.288 383.769H293.975ZM300.975 386.8V384.737H297.256V383.769L301.178 378.206H302.038V383.769H303.194V384.737H302.038V386.8H300.975ZM300.975 383.769V379.909L298.288 383.769H300.975ZM310.147 385.784V386.8H304.459C304.459 386.55 304.501 386.305 304.584 386.065C304.73 385.68 304.959 385.3 305.272 384.925C305.595 384.55 306.058 384.118 306.663 383.628C307.6 382.857 308.23 382.248 308.553 381.8C308.886 381.352 309.053 380.93 309.053 380.534C309.053 380.118 308.902 379.769 308.6 379.487C308.298 379.196 307.907 379.05 307.428 379.05C306.918 379.05 306.511 379.201 306.209 379.503C305.907 379.805 305.751 380.227 305.741 380.769L304.663 380.659C304.735 379.847 305.011 379.232 305.491 378.815C305.98 378.388 306.636 378.175 307.459 378.175C308.282 378.175 308.933 378.404 309.413 378.862C309.892 379.321 310.131 379.888 310.131 380.565C310.131 380.909 310.058 381.248 309.913 381.581C309.777 381.904 309.543 382.253 309.209 382.628C308.886 382.993 308.35 383.493 307.6 384.128C306.965 384.659 306.553 385.024 306.366 385.222C306.189 385.409 306.043 385.597 305.928 385.784H310.147ZM311.6 382.565C311.6 381.545 311.704 380.727 311.913 380.112C312.121 379.487 312.428 379.008 312.834 378.675C313.251 378.341 313.772 378.175 314.397 378.175C314.855 378.175 315.256 378.269 315.6 378.456C315.954 378.644 316.246 378.914 316.475 379.269C316.704 379.612 316.881 380.034 317.006 380.534C317.131 381.034 317.194 381.711 317.194 382.565C317.194 383.576 317.09 384.388 316.881 385.003C316.683 385.618 316.376 386.097 315.959 386.44C315.553 386.774 315.032 386.94 314.397 386.94C313.574 386.94 312.923 386.644 312.444 386.05C311.881 385.341 311.6 384.18 311.6 382.565ZM312.678 382.565C312.678 383.972 312.845 384.909 313.178 385.378C313.511 385.847 313.918 386.081 314.397 386.081C314.886 386.081 315.293 385.847 315.616 385.378C315.949 384.909 316.116 383.972 316.116 382.565C316.116 381.149 315.949 380.211 315.616 379.753C315.293 379.284 314.881 379.05 314.381 379.05C313.902 379.05 313.517 379.253 313.225 379.659C312.86 380.18 312.678 381.149 312.678 382.565ZM318.6 382.565C318.6 381.545 318.704 380.727 318.913 380.112C319.121 379.487 319.428 379.008 319.834 378.675C320.251 378.341 320.772 378.175 321.397 378.175C321.855 378.175 322.256 378.269 322.6 378.456C322.954 378.644 323.246 378.914 323.475 379.269C323.704 379.612 323.881 380.034 324.006 380.534C324.131 381.034 324.194 381.711 324.194 382.565C324.194 383.576 324.09 384.388 323.881 385.003C323.683 385.618 323.376 386.097 322.959 386.44C322.553 386.774 322.032 386.94 321.397 386.94C320.574 386.94 319.923 386.644 319.444 386.05C318.881 385.341 318.6 384.18 318.6 382.565ZM319.678 382.565C319.678 383.972 319.845 384.909 320.178 385.378C320.511 385.847 320.918 386.081 321.397 386.081C321.886 386.081 322.293 385.847 322.616 385.378C322.949 384.909 323.116 383.972 323.116 382.565C323.116 381.149 322.949 380.211 322.616 379.753C322.293 379.284 321.881 379.05 321.381 379.05C320.902 379.05 320.517 379.253 320.225 379.659C319.86 380.18 319.678 381.149 319.678 382.565Z" fill="black"/>
<path d="M413.975 386.8V384.737H410.256V383.769L414.178 378.206H415.038V383.769H416.194V384.737H415.038V386.8H413.975ZM413.975 383.769V379.909L411.288 383.769H413.975ZM420.975 386.8V384.737H417.256V383.769L421.178 378.206H422.038V383.769H423.194V384.737H422.038V386.8H420.975ZM420.975 383.769V379.909L418.288 383.769H420.975ZM427.975 386.8V384.737H424.256V383.769L428.178 378.206H429.038V383.769H430.194V384.737H429.038V386.8H427.975ZM427.975 383.769V379.909L425.288 383.769H427.975ZM431.6 382.565C431.6 381.545 431.704 380.727 431.913 380.112C432.121 379.487 432.428 379.008 432.834 378.675C433.251 378.341 433.772 378.175 434.397 378.175C434.855 378.175 435.256 378.269 435.6 378.456C435.954 378.644 436.246 378.914 436.475 379.269C436.704 379.612 436.881 380.034 437.006 380.534C437.131 381.034 437.194 381.711 437.194 382.565C437.194 383.576 437.09 384.388 436.881 385.003C436.683 385.618 436.376 386.097 435.959 386.44C435.553 386.774 435.032 386.94 434.397 386.94C433.574 386.94 432.923 386.644 432.444 386.05C431.881 385.341 431.6 384.18 431.6 382.565ZM432.678 382.565C432.678 383.972 432.845 384.909 433.178 385.378C433.511 385.847 433.918 386.081 434.397 386.081C434.886 386.081 435.293 385.847 435.616 385.378C435.949 384.909 436.116 383.972 436.116 382.565C436.116 381.149 435.949 380.211 435.616 379.753C435.293 379.284 434.881 379.05 434.381 379.05C433.902 379.05 433.517 379.253 433.225 379.659C432.86 380.18 432.678 381.149 432.678 382.565ZM438.6 382.565C438.6 381.545 438.704 380.727 438.913 380.112C439.121 379.487 439.428 379.008 439.834 378.675C440.251 378.341 440.772 378.175 441.397 378.175C441.855 378.175 442.256 378.269 442.6 378.456C442.954 378.644 443.246 378.914 443.475 379.269C443.704 379.612 443.881 380.034 444.006 380.534C444.131 381.034 444.194 381.711 444.194 382.565C444.194 383.576 444.09 384.388 443.881 385.003C443.683 385.618 443.376 386.097 442.959 386.44C442.553 386.774 442.032 386.94 441.397 386.94C440.574 386.94 439.923 386.644 439.444 386.05C438.881 385.341 438.6 384.18 438.6 382.565ZM439.678 382.565C439.678 383.972 439.845 384.909 440.178 385.378C440.511 385.847 440.918 386.081 441.397 386.081C441.886 386.081 442.293 385.847 442.616 385.378C442.949 384.909 443.116 383.972 443.116 382.565C443.116 381.149 442.949 380.211 442.616 379.753C442.293 379.284 441.881 379.05 441.381 379.05C440.902 379.05 440.517 379.253 440.225 379.659C439.86 380.18 439.678 381.149 439.678 382.565Z" fill="black"/>
<path d="M533.975 386.8V384.737H530.256V383.769L534.178 378.206H535.037V383.769H536.194V384.737H535.037V386.8H533.975ZM533.975 383.769V379.909L531.287 383.769H533.975ZM540.975 386.8V384.737H537.256V383.769L541.178 378.206H542.037V383.769H543.194V384.737H542.037V386.8H540.975ZM540.975 383.769V379.909L538.287 383.769H540.975ZM550.069 380.315L549.022 380.394C548.928 379.977 548.798 379.675 548.631 379.487C548.34 379.185 547.985 379.034 547.569 379.034C547.235 379.034 546.939 379.128 546.678 379.315C546.355 379.565 546.095 379.925 545.897 380.394C545.709 380.852 545.61 381.508 545.6 382.362C545.85 381.977 546.157 381.69 546.522 381.503C546.897 381.315 547.287 381.222 547.694 381.222C548.392 381.222 548.985 381.482 549.475 382.003C549.975 382.524 550.225 383.19 550.225 384.003C550.225 384.545 550.105 385.05 549.866 385.519C549.636 385.977 549.319 386.331 548.912 386.581C548.506 386.821 548.048 386.94 547.537 386.94C546.652 386.94 545.933 386.618 545.381 385.972C544.829 385.326 544.553 384.263 544.553 382.784C544.553 381.118 544.86 379.909 545.475 379.159C546.006 378.503 546.725 378.175 547.631 378.175C548.308 378.175 548.86 378.368 549.287 378.753C549.725 379.128 549.985 379.649 550.069 380.315ZM545.772 384.019C545.772 384.383 545.845 384.732 545.991 385.065C546.147 385.388 546.36 385.638 546.631 385.815C546.912 385.993 547.209 386.081 547.522 386.081C547.959 386.081 548.34 385.904 548.662 385.55C548.985 385.185 549.147 384.696 549.147 384.081C549.147 383.487 548.985 383.019 548.662 382.675C548.35 382.331 547.954 382.159 547.475 382.159C546.996 382.159 546.59 382.331 546.256 382.675C545.933 383.019 545.772 383.466 545.772 384.019ZM551.6 382.565C551.6 381.545 551.704 380.727 551.912 380.112C552.121 379.487 552.428 379.008 552.834 378.675C553.251 378.341 553.772 378.175 554.397 378.175C554.855 378.175 555.256 378.269 555.6 378.456C555.954 378.644 556.246 378.914 556.475 379.269C556.704 379.612 556.881 380.034 557.006 380.534C557.131 381.034 557.194 381.711 557.194 382.565C557.194 383.576 557.09 384.388 556.881 385.003C556.683 385.618 556.376 386.097 555.959 386.44C555.553 386.774 555.032 386.94 554.397 386.94C553.574 386.94 552.923 386.644 552.444 386.05C551.881 385.341 551.6 384.18 551.6 382.565ZM552.678 382.565C552.678 383.972 552.845 384.909 553.178 385.378C553.511 385.847 553.918 386.081 554.397 386.081C554.886 386.081 555.293 385.847 555.616 385.378C555.949 384.909 556.116 383.972 556.116 382.565C556.116 381.149 555.949 380.211 555.616 379.753C555.293 379.284 554.881 379.05 554.381 379.05C553.902 379.05 553.517 379.253 553.225 379.659C552.86 380.18 552.678 381.149 552.678 382.565ZM558.6 382.565C558.6 381.545 558.704 380.727 558.912 380.112C559.121 379.487 559.428 379.008 559.834 378.675C560.251 378.341 560.772 378.175 561.397 378.175C561.855 378.175 562.256 378.269 562.6 378.456C562.954 378.644 563.246 378.914 563.475 379.269C563.704 379.612 563.881 380.034 564.006 380.534C564.131 381.034 564.194 381.711 564.194 382.565C564.194 383.576 564.09 384.388 563.881 385.003C563.683 385.618 563.376 386.097 562.959 386.44C562.553 386.774 562.032 386.94 561.397 386.94C560.574 386.94 559.923 386.644 559.444 386.05C558.881 385.341 558.6 384.18 558.6 382.565ZM559.678 382.565C559.678 383.972 559.845 384.909 560.178 385.378C560.511 385.847 560.918 386.081 561.397 386.081C561.886 386.081 562.293 385.847 562.616 385.378C562.949 384.909 563.116 383.972 563.116 382.565C563.116 381.149 562.949 380.211 562.616 379.753C562.293 379.284 561.881 379.05 561.381 379.05C560.902 379.05 560.517 379.253 560.225 379.659C559.86 380.18 559.678 381.149 559.678 382.565Z" fill="black"/>
<path d="M653.975 386.8V384.737H650.256V383.769L654.178 378.206H655.037V383.769H656.194V384.737H655.037V386.8H653.975ZM653.975 383.769V379.909L651.287 383.769H653.975ZM660.975 386.8V384.737H657.256V383.769L661.178 378.206H662.037V383.769H663.194V384.737H662.037V386.8H660.975ZM660.975 383.769V379.909L658.287 383.769H660.975ZM666.225 382.144C665.787 381.977 665.459 381.748 665.241 381.456C665.032 381.154 664.928 380.8 664.928 380.394C664.928 379.769 665.152 379.243 665.6 378.815C666.058 378.388 666.657 378.175 667.397 378.175C668.147 378.175 668.751 378.394 669.209 378.831C669.668 379.269 669.897 379.8 669.897 380.425C669.897 380.821 669.793 381.164 669.584 381.456C669.376 381.748 669.058 381.977 668.631 382.144C669.162 382.31 669.564 382.586 669.834 382.972C670.105 383.357 670.241 383.815 670.241 384.347C670.241 385.076 669.98 385.69 669.459 386.19C668.949 386.69 668.267 386.94 667.412 386.94C666.569 386.94 665.886 386.69 665.366 386.19C664.845 385.69 664.584 385.065 664.584 384.315C664.584 383.753 664.725 383.284 665.006 382.909C665.298 382.534 665.704 382.279 666.225 382.144ZM666.006 380.347C666.006 380.753 666.136 381.086 666.397 381.347C666.668 381.607 667.011 381.737 667.428 381.737C667.834 381.737 668.168 381.612 668.428 381.362C668.689 381.102 668.819 380.784 668.819 380.409C668.819 380.024 668.683 379.701 668.412 379.44C668.142 379.17 667.808 379.034 667.412 379.034C667.006 379.034 666.668 379.164 666.397 379.425C666.136 379.685 666.006 379.993 666.006 380.347ZM665.678 384.315C665.678 384.618 665.746 384.909 665.881 385.19C666.027 385.472 666.241 385.69 666.522 385.847C666.803 386.003 667.105 386.081 667.428 386.081C667.928 386.081 668.34 385.92 668.662 385.597C668.996 385.274 669.162 384.862 669.162 384.362C669.162 383.852 668.996 383.43 668.662 383.097C668.329 382.763 667.907 382.597 667.397 382.597C666.897 382.597 666.485 382.763 666.162 383.097C665.84 383.42 665.678 383.826 665.678 384.315ZM671.6 382.565C671.6 381.545 671.704 380.727 671.912 380.112C672.121 379.487 672.428 379.008 672.834 378.675C673.251 378.341 673.772 378.175 674.397 378.175C674.855 378.175 675.256 378.269 675.6 378.456C675.954 378.644 676.246 378.914 676.475 379.269C676.704 379.612 676.881 380.034 677.006 380.534C677.131 381.034 677.194 381.711 677.194 382.565C677.194 383.576 677.09 384.388 676.881 385.003C676.683 385.618 676.376 386.097 675.959 386.44C675.553 386.774 675.032 386.94 674.397 386.94C673.574 386.94 672.923 386.644 672.444 386.05C671.881 385.341 671.6 384.18 671.6 382.565ZM672.678 382.565C672.678 383.972 672.845 384.909 673.178 385.378C673.511 385.847 673.918 386.081 674.397 386.081C674.886 386.081 675.293 385.847 675.616 385.378C675.949 384.909 676.116 383.972 676.116 382.565C676.116 381.149 675.949 380.211 675.616 379.753C675.293 379.284 674.881 379.05 674.381 379.05C673.902 379.05 673.517 379.253 673.225 379.659C672.86 380.18 672.678 381.149 672.678 382.565ZM678.6 382.565C678.6 381.545 678.704 380.727 678.912 380.112C679.121 379.487 679.428 379.008 679.834 378.675C680.251 378.341 680.772 378.175 681.397 378.175C681.855 378.175 682.256 378.269 682.6 378.456C682.954 378.644 683.246 378.914 683.475 379.269C683.704 379.612 683.881 380.034 684.006 380.534C684.131 381.034 684.194 381.711 684.194 382.565C684.194 383.576 684.09 384.388 683.881 385.003C683.683 385.618 683.376 386.097 682.959 386.44C682.553 386.774 682.032 386.94 681.397 386.94C680.574 386.94 679.923 386.644 679.444 386.05C678.881 385.341 678.6 384.18 678.6 382.565ZM679.678 382.565C679.678 383.972 679.845 384.909 680.178 385.378C680.511 385.847 680.918 386.081 681.397 386.081C681.886 386.081 682.293 385.847 682.616 385.378C682.949 384.909 683.116 383.972 683.116 382.565C683.116 381.149 682.949 380.211 682.616 379.753C682.293 379.284 681.881 379.05 681.381 379.05C680.902 379.05 680.517 379.253 680.225 379.659C679.86 380.18 679.678 381.149 679.678 382.565Z" fill="black"/>
<path d="M576.847 65.5127V66.7002H570.222C570.211 66.4085 570.258 66.1221 570.363 65.8408C570.54 65.3929 570.81 64.9502 571.175 64.5127C571.55 64.0752 572.086 63.57 572.784 62.9971C573.878 62.1012 574.613 61.3929 574.988 60.8721C575.373 60.3512 575.566 59.8564 575.566 59.3877C575.566 58.8981 575.389 58.4867 575.034 58.1533C574.691 57.82 574.243 57.6533 573.691 57.6533C573.097 57.6533 572.618 57.8304 572.253 58.1846C571.899 58.5387 571.722 59.0335 571.722 59.6689L570.456 59.5283C570.54 58.5908 570.862 57.8773 571.425 57.3877C571.998 56.8877 572.758 56.6377 573.706 56.6377C574.675 56.6377 575.435 56.9033 575.988 57.4346C576.55 57.9658 576.831 58.6273 576.831 59.4189C576.831 59.8252 576.748 60.221 576.581 60.6064C576.425 60.9919 576.154 61.3981 575.769 61.8252C575.394 62.2523 574.764 62.8408 573.878 63.5908C573.139 64.2054 572.665 64.6273 572.456 64.8564C572.248 65.0752 572.076 65.2939 571.941 65.5127H576.847ZM578.378 61.7627C578.378 60.5752 578.498 59.6221 578.738 58.9033C578.988 58.1742 579.352 57.6169 579.831 57.2314C580.31 56.8356 580.915 56.6377 581.644 56.6377C582.185 56.6377 582.659 56.7471 583.066 56.9658C583.472 57.1846 583.805 57.4971 584.066 57.9033C584.336 58.3096 584.545 58.8044 584.691 59.3877C584.836 59.971 584.909 60.7627 584.909 61.7627C584.909 62.9398 584.79 63.8877 584.55 64.6064C584.31 65.3252 583.951 65.8825 583.472 66.2783C582.993 66.6742 582.383 66.8721 581.644 66.8721C580.685 66.8721 579.93 66.5231 579.378 65.8252C578.711 64.9919 578.378 63.6377 578.378 61.7627ZM579.644 61.7627C579.644 63.4085 579.836 64.5023 580.222 65.0439C580.607 65.5856 581.081 65.8564 581.644 65.8564C582.217 65.8564 582.696 65.5856 583.081 65.0439C583.467 64.4919 583.659 63.3981 583.659 61.7627C583.659 60.1064 583.467 59.0075 583.081 58.4658C582.696 57.9242 582.211 57.6533 581.628 57.6533C581.066 57.6533 580.618 57.8929 580.284 58.3721C579.857 58.9867 579.644 60.1169 579.644 61.7627ZM592.847 65.5127V66.7002H586.222C586.211 66.4085 586.258 66.1221 586.363 65.8408C586.54 65.3929 586.81 64.9502 587.175 64.5127C587.55 64.0752 588.086 63.57 588.784 62.9971C589.878 62.1012 590.613 61.3929 590.988 60.8721C591.373 60.3512 591.566 59.8564 591.566 59.3877C591.566 58.8981 591.389 58.4867 591.034 58.1533C590.691 57.82 590.243 57.6533 589.691 57.6533C589.097 57.6533 588.618 57.8304 588.253 58.1846C587.899 58.5387 587.722 59.0335 587.722 59.6689L586.456 59.5283C586.54 58.5908 586.862 57.8773 587.425 57.3877C587.998 56.8877 588.758 56.6377 589.706 56.6377C590.675 56.6377 591.435 56.9033 591.988 57.4346C592.55 57.9658 592.831 58.6273 592.831 59.4189C592.831 59.8252 592.748 60.221 592.581 60.6064C592.425 60.9919 592.154 61.3981 591.769 61.8252C591.394 62.2523 590.764 62.8408 589.878 63.5908C589.139 64.2054 588.665 64.6273 588.456 64.8564C588.248 65.0752 588.076 65.2939 587.941 65.5127H592.847ZM600.847 65.5127V66.7002H594.222C594.211 66.4085 594.258 66.1221 594.363 65.8408C594.54 65.3929 594.81 64.9502 595.175 64.5127C595.55 64.0752 596.086 63.57 596.784 62.9971C597.878 62.1012 598.613 61.3929 598.988 60.8721C599.373 60.3512 599.566 59.8564 599.566 59.3877C599.566 58.8981 599.389 58.4867 599.034 58.1533C598.691 57.82 598.243 57.6533 597.691 57.6533C597.097 57.6533 596.618 57.8304 596.253 58.1846C595.899 58.5387 595.722 59.0335 595.722 59.6689L594.456 59.5283C594.54 58.5908 594.862 57.8773 595.425 57.3877C595.998 56.8877 596.758 56.6377 597.706 56.6377C598.675 56.6377 599.435 56.9033 599.988 57.4346C600.55 57.9658 600.831 58.6273 600.831 59.4189C600.831 59.8252 600.748 60.221 600.581 60.6064C600.425 60.9919 600.154 61.3981 599.769 61.8252C599.394 62.2523 598.764 62.8408 597.878 63.5908C597.139 64.2054 596.665 64.6273 596.456 64.8564C596.248 65.0752 596.076 65.2939 595.941 65.5127H600.847Z" fill="#999999"/>
<path d="M606.175 58.1689C605.487 59.3669 604.633 60.3669 603.612 61.1689L602.847 60.1846C604.336 59.0908 605.357 57.5075 605.909 55.4346L607.159 55.7627C607.305 55.9085 607.253 55.9971 607.003 56.0283L606.566 57.1221H614.269V58.1689H610.284V60.0283H613.566V61.0596H610.284V63.5283H614.878V64.5596H610.284V67.8564H609.191V64.5596H602.894V63.5283H605.362V60.0283H609.191V58.1689H606.175ZM606.456 63.5283H609.191V61.0596H606.456V63.5283Z" fill="#999999"/>
<path d="M616.566 64.3877L617.753 64.2783C617.847 64.8304 618.034 65.2314 618.316 65.4814C618.607 65.7314 618.972 65.8564 619.409 65.8564C619.784 65.8564 620.112 65.7731 620.394 65.6064C620.685 65.4294 620.92 65.195 621.097 64.9033C621.284 64.6117 621.441 64.221 621.566 63.7314C621.691 63.2419 621.753 62.7419 621.753 62.2314C621.753 62.1794 621.748 62.096 621.737 61.9814C621.498 62.3773 621.165 62.7002 620.737 62.9502C620.31 63.1898 619.847 63.3096 619.347 63.3096C618.514 63.3096 617.81 63.0075 617.237 62.4033C616.665 61.7992 616.378 61.0075 616.378 60.0283C616.378 59.0075 616.675 58.1898 617.269 57.5752C617.873 56.9502 618.628 56.6377 619.534 56.6377C620.18 56.6377 620.774 56.8148 621.316 57.1689C621.857 57.5127 622.269 58.0127 622.55 58.6689C622.831 59.3148 622.972 60.2523 622.972 61.4814C622.972 62.7627 622.831 63.7835 622.55 64.5439C622.279 65.3044 621.868 65.8825 621.316 66.2783C620.764 66.6742 620.118 66.8721 619.378 66.8721C618.597 66.8721 617.956 66.6533 617.456 66.2158C616.967 65.7783 616.67 65.1689 616.566 64.3877ZM621.597 59.9658C621.597 59.2575 621.409 58.695 621.034 58.2783C620.659 57.8617 620.211 57.6533 619.691 57.6533C619.139 57.6533 618.659 57.8773 618.253 58.3252C617.847 58.7731 617.644 59.3512 617.644 60.0596C617.644 60.695 617.836 61.2158 618.222 61.6221C618.607 62.0179 619.081 62.2158 619.644 62.2158C620.217 62.2158 620.685 62.0179 621.05 61.6221C621.415 61.2158 621.597 60.6637 621.597 59.9658Z" fill="#999999"/>
<path d="M633.706 63.5283H628.503C628.503 65.0908 627.701 66.57 626.097 67.9658L625.175 66.9189C626.665 65.971 627.409 64.5492 627.409 62.6533V55.9814H634.8V66.7627C634.8 67.346 634.487 67.6377 633.862 67.6377H632.55L632.331 66.4189H633.487C633.633 66.4189 633.706 66.346 633.706 66.2002V63.5283ZM628.503 62.3252H633.706V60.3564H628.503V62.3252ZM628.503 59.1533H633.706V57.1846H628.503V59.1533Z" fill="#999999"/>
<path d="M644.847 65.5127V66.7002H638.222C638.211 66.4085 638.258 66.1221 638.363 65.8408C638.54 65.3929 638.81 64.9502 639.175 64.5127C639.55 64.0752 640.086 63.57 640.784 62.9971C641.878 62.1012 642.613 61.3929 642.988 60.8721C643.373 60.3512 643.566 59.8564 643.566 59.3877C643.566 58.8981 643.389 58.4867 643.034 58.1533C642.691 57.82 642.243 57.6533 641.691 57.6533C641.097 57.6533 640.618 57.8304 640.253 58.1846C639.899 58.5387 639.722 59.0335 639.722 59.6689L638.456 59.5283C638.54 58.5908 638.862 57.8773 639.425 57.3877C639.998 56.8877 640.758 56.6377 641.706 56.6377C642.675 56.6377 643.435 56.9033 643.988 57.4346C644.55 57.9658 644.831 58.6273 644.831 59.4189C644.831 59.8252 644.748 60.221 644.581 60.6064C644.425 60.9919 644.154 61.3981 643.769 61.8252C643.394 62.2523 642.764 62.8408 641.878 63.5908C641.139 64.2054 640.665 64.6273 640.456 64.8564C640.248 65.0752 640.076 65.2939 639.941 65.5127H644.847ZM646.566 64.3877L647.753 64.2783C647.847 64.8304 648.034 65.2314 648.316 65.4814C648.607 65.7314 648.972 65.8564 649.409 65.8564C649.784 65.8564 650.113 65.7731 650.394 65.6064C650.685 65.4294 650.92 65.195 651.097 64.9033C651.284 64.6117 651.441 64.221 651.566 63.7314C651.691 63.2419 651.753 62.7419 651.753 62.2314C651.753 62.1794 651.748 62.096 651.738 61.9814C651.498 62.3773 651.165 62.7002 650.738 62.9502C650.31 63.1898 649.847 63.3096 649.347 63.3096C648.514 63.3096 647.81 63.0075 647.238 62.4033C646.665 61.7992 646.378 61.0075 646.378 60.0283C646.378 59.0075 646.675 58.1898 647.269 57.5752C647.873 56.9502 648.628 56.6377 649.534 56.6377C650.18 56.6377 650.774 56.8148 651.316 57.1689C651.857 57.5127 652.269 58.0127 652.55 58.6689C652.831 59.3148 652.972 60.2523 652.972 61.4814C652.972 62.7627 652.831 63.7835 652.55 64.5439C652.279 65.3044 651.868 65.8825 651.316 66.2783C650.764 66.6742 650.118 66.8721 649.378 66.8721C648.597 66.8721 647.956 66.6533 647.456 66.2158C646.967 65.7783 646.67 65.1689 646.566 64.3877ZM651.597 59.9658C651.597 59.2575 651.409 58.695 651.034 58.2783C650.659 57.8617 650.211 57.6533 649.691 57.6533C649.139 57.6533 648.659 57.8773 648.253 58.3252C647.847 58.7731 647.644 59.3512 647.644 60.0596C647.644 60.695 647.836 61.2158 648.222 61.6221C648.607 62.0179 649.081 62.2158 649.644 62.2158C650.217 62.2158 650.685 62.0179 651.05 61.6221C651.415 61.2158 651.597 60.6637 651.597 59.9658Z" fill="#999999"/>
<path d="M657.8 67.2002H656.534V56.6377H665.128V66.9814H663.862V66.2002H657.8V67.2002ZM663.862 60.7939V57.6689H657.8V60.7939H663.862ZM663.862 65.1689V61.8252H657.8V65.1689H663.862ZM678.081 59.8564H680.659V60.7314H678.362V61.9971H680.222V62.8721H678.362V64.1846H680.222V65.0596H678.362V66.4189H681.097V67.3096H675.566V67.8564H674.644V61.7783C674.352 62.1742 673.987 62.5387 673.55 62.8721L673.159 61.8252C674.545 60.5856 675.441 59.2939 675.847 57.9502H674.581V59.2002H673.659V57.0752H676.066C676.211 56.4919 676.336 55.8721 676.441 55.2158L677.534 55.4814C677.649 55.596 677.612 55.7054 677.425 55.8096C677.321 56.2471 677.211 56.6689 677.097 57.0752H680.987V58.9814H680.05V57.9502H676.878C676.659 58.7106 676.368 59.346 676.003 59.8564H677.159L677.862 58.2158L678.909 58.4346C679.086 58.5075 679.05 58.6012 678.8 58.7158L678.081 59.8564ZM668.847 57.3408V56.3096H673.487V57.3408H671.581C671.508 58.4762 671.269 59.5179 670.862 60.4658H673.003V66.9814H672.066V66.0908H670.644V67.5283H669.722V62.5908C669.503 62.9554 669.264 63.2835 669.003 63.5752L668.3 62.6533C669.571 61.2262 670.316 59.4554 670.534 57.3408H668.847ZM675.566 62.8721V64.1846H677.425V62.8721H675.566ZM675.566 60.7314V61.9971H677.425V60.7314H675.566ZM675.566 65.0596V66.4189H677.425V65.0596H675.566ZM670.644 61.3408V65.2158H672.066V61.3408H670.644ZM687.222 61.4502C688.566 61.0856 689.42 60.3721 689.784 59.3096L688.316 58.7158L688.691 57.7783L690.003 58.2783L690.112 56.9658H687.816V55.9189H694.378L694.269 60.6221C694.237 61.5387 693.857 61.9971 693.128 61.9971H691.862L691.753 60.9502H692.909C693.128 60.9502 693.237 60.8408 693.237 60.6221L693.347 56.9658H691.206L691.05 58.7158L692.362 59.4189L691.862 60.4033L690.769 59.8096C690.3 61.1533 689.264 62.0648 687.659 62.5439L687.222 61.4502ZM694.159 66.9189C693.868 65.8252 693.415 64.8773 692.8 64.0752L693.784 63.6377C694.586 64.6169 695.097 65.5439 695.316 66.4189L694.159 66.9189ZM686.831 63.4658V67.6846H685.909V67.3096H684.05V67.9033H683.112V63.4658H686.831ZM687.269 66.9814C687.529 66.0648 687.696 65.0231 687.769 63.8564L688.862 63.9658C688.935 63.9971 688.899 64.0856 688.753 64.2314C688.711 65.3981 688.545 66.4033 688.253 67.2471L687.269 66.9814ZM690.769 61.6689C691.279 61.9919 691.79 62.5544 692.3 63.3564L691.269 63.9658C691.008 63.4554 690.571 62.8721 689.956 62.2158L690.769 61.6689ZM683.331 55.7002H686.612V56.7471H683.331V55.7002ZM682.628 57.5596H687.331V58.6064H682.628V57.5596ZM683.331 59.5908H686.612V60.6221H683.331V59.5908ZM683.331 61.4502H686.612V62.4814H683.331V61.4502ZM684.05 64.3408V66.4189H685.909V64.3408H684.05ZM690.222 63.3096C690.514 63.3408 690.534 63.4502 690.284 63.6377V66.2002C690.284 66.4606 690.394 66.5908 690.612 66.5908H691.816C692.034 66.5908 692.159 66.4814 692.191 66.2627L692.3 65.3877L693.394 65.6533L693.175 66.8096C693.071 67.3617 692.743 67.6377 692.191 67.6377H690.112C689.498 67.6377 689.191 67.3044 689.191 66.6377V63.3096H690.222Z" fill="#999999"/>
<path d="M26.4188 35.5752C25.7417 36.3564 24.8823 37.0596 23.8406 37.6846L23.1375 36.1221C25.4292 34.8721 27.3302 32.7887 28.8406 29.8721H23.6844V28.3877H26.4188V24.8721H27.9031C28.3198 24.9242 28.3458 25.0804 27.9813 25.3408V28.3877H29.3094L29.7 27.9971L31.0281 29.0908C31.3406 29.3512 31.2625 29.5075 30.7938 29.5596C29.8042 31.3825 28.9188 32.7627 28.1375 33.7002C29.2313 34.0127 30.1948 34.4294 31.0281 34.9502L30.2469 36.6689C29.5698 36.0439 28.8146 35.5492 27.9813 35.1846V42.9971H26.4188V35.5752ZM38.9969 36.3564V33.7783H36.8094V36.3564H38.9969ZM35.2469 33.7783H33.0594V36.3564H35.2469V33.7783ZM38.9969 32.2939V29.7939H36.8094V32.2939H38.9969ZM35.2469 32.2939V29.7939H33.0594V32.2939H35.2469ZM35.2469 25.2627H36.7313C37.1479 25.3148 37.174 25.471 36.8094 25.7314V28.3096H40.5594V38.3877H38.9969V37.8408H36.8094V42.9971H35.2469V37.8408H33.0594V38.5439H31.4969V28.3096H35.2469V25.2627ZM56.4188 32.5283V34.0127H47.6688V32.6846C46.6792 33.3096 45.3771 33.8304 43.7625 34.2471L43.2156 32.6846C46.2365 31.9554 48.3198 30.7054 49.4656 28.9346H44.1531V27.4502H50.2469C50.4552 27.0335 50.7156 26.1221 51.0281 24.7158L52.6688 24.9502C53.0333 25.0544 53.0073 25.1846 52.5906 25.3408L51.9656 27.4502H60.1688V28.9346H54.8563C56.1583 30.445 58.2417 31.5648 61.1063 32.2939L60.4031 33.7783C56.9656 32.945 54.4917 31.3304 52.9813 28.9346H51.4188C50.2208 30.7575 49.075 31.9554 47.9813 32.5283H56.4188ZM44.7 35.7314H59.6219V37.2158H53.1375V41.8252C53.1375 42.5544 52.799 42.9189 52.1219 42.9189H49.9344L49.7 41.4346H51.2625C51.4708 41.4346 51.575 41.3304 51.575 41.1221V37.2158H44.7V35.7314ZM43.9188 41.2002C45.7417 40.4189 47.3302 39.2471 48.6844 37.6846L49.8563 38.8564C50.1688 39.221 50.0906 39.3512 49.6219 39.2471C48.1636 40.6533 46.549 41.8252 44.7781 42.7627L43.9188 41.2002ZM55.6375 37.9189C57.0438 39.0127 58.6323 40.0023 60.4031 40.8877L59.6219 42.5283C58.2677 42.0075 56.575 40.8617 54.5438 39.0908L55.6375 37.9189ZM65.7938 26.2783H67.5125C68.0333 26.3825 68.0594 26.5908 67.5906 26.9033V35.4189C67.5906 38.4398 66.7052 40.7575 64.9344 42.3721L63.45 41.2002C65.0125 39.8981 65.7938 37.945 65.7938 35.3408V26.2783ZM77.5906 26.1221H79.3094C79.8302 26.2262 79.8563 26.4346 79.3875 26.7471V42.3721H77.5906V26.1221ZM73.3719 27.2158C73.8927 27.32 73.9188 27.5283 73.45 27.8408V40.4189H71.6531V27.2158H73.3719ZM96.1844 37.6064C97.2261 38.6481 98.7625 39.6898 100.794 40.7314L99.8563 42.3721C98.0854 41.5387 96.4188 40.3408 94.8563 38.7783L96.1844 37.6064ZM89.3875 39.0127C88.5021 40.2627 87.1479 41.4867 85.325 42.6846L84.1531 41.2002C85.8198 40.2106 87.1479 39.0387 88.1375 37.6846L89.6219 38.5439C89.8823 38.7523 89.8042 38.9085 89.3875 39.0127ZM86.1844 36.9814V37.7627H84.6219V26.5127H86.1063C86.5229 26.5648 86.549 26.721 86.1844 26.9814V35.4971H100.559V36.9814H93.2938V42.9971H91.4969V36.9814H86.1844ZM89.6219 33.2314H96.4188V31.7471H89.6219V33.2314ZM89.6219 30.4971H96.4188V29.2471H89.6219V30.4971ZM89.6219 27.9971H96.4188V26.7471H89.6219V27.9971ZM88.0594 34.4814V25.4971H97.9813V34.4814H88.0594ZM112.981 30.1846C112.096 35.3929 111.028 38.6221 109.778 39.8721C109.101 40.5492 108.398 40.8877 107.669 40.8877C106.835 40.8877 106.184 40.6533 105.716 40.1846C104.466 38.9346 103.841 37.3721 103.841 35.4971C103.841 33.2054 104.648 31.2523 106.263 29.6377C108.033 27.8669 110.195 26.9814 112.747 26.9814C115.039 26.9814 116.835 27.6325 118.138 28.9346C119.596 30.3929 120.325 32.1117 120.325 34.0908C120.325 36.2262 119.648 37.971 118.294 39.3252C117.408 40.2106 116.054 41.07 114.231 41.9033L112.591 40.2627C114.414 39.6898 115.846 38.8825 116.888 37.8408C117.877 36.8512 118.372 35.6533 118.372 34.2471C118.372 32.5804 117.825 31.2002 116.731 30.1064C115.638 29.0127 113.919 28.5179 111.575 28.6221L112.981 29.3252C113.606 29.5856 113.606 29.8721 112.981 30.1846ZM111.184 28.7002C109.83 29.0127 108.658 29.6637 107.669 30.6533C106.315 32.0075 105.638 33.6742 105.638 35.6533C105.638 36.8512 106.028 37.8408 106.809 38.6221C106.966 38.7783 107.2 38.8564 107.513 38.8564C107.825 38.8564 108.164 38.6742 108.528 38.3096C109.726 37.1117 110.611 33.9085 111.184 28.7002ZM130.325 41.5127C132.46 40.3669 133.528 38.4137 133.528 35.6533V26.6689L135.169 26.9814L139.388 25.6533L140.559 27.2158C140.664 27.5283 140.481 27.5804 140.013 27.3721L135.091 28.3096V31.6689H141.263V33.1533H138.919V42.9189H137.356V33.1533H135.091V36.1221C135.091 39.195 133.789 41.4867 131.184 42.9971L130.325 41.5127ZM128.841 42.9971H127.278V38.3096C126.445 39.6637 125.533 40.7314 124.544 41.5127L123.372 40.1064C124.83 39.0648 126.054 37.7627 127.044 36.2002H123.763V34.7158H127.278V32.9971H123.294V31.5127H128.763L129.622 28.7002H123.841V27.2158H127.278V25.0283H128.763C129.179 25.0804 129.205 25.2367 128.841 25.4971V27.2158H132.278V28.7002H131.263L130.169 31.5127H132.669V32.9971H128.841V34.7158H132.278V36.2002H128.841V36.9033C129.57 37.1117 130.585 37.6585 131.888 38.5439L130.95 40.1064C130.221 39.3773 129.518 38.8044 128.841 38.3877V42.9971ZM125.716 31.3564C125.507 30.6273 125.221 29.9242 124.856 29.2471L126.341 28.7783C126.757 29.4554 127.07 30.1585 127.278 30.8877L125.716 31.3564ZM158.45 33.5439H153.372V35.2627H158.45V33.5439ZM156.341 36.7471H154.934V37.5283C154.934 40.7575 153.085 42.6585 149.388 43.2314L148.919 41.5908C151.888 41.2262 153.372 39.82 153.372 37.3721V36.7471H152.591H151.809V25.8096H160.013V36.7471H157.903V40.6533C157.903 41.07 158.085 41.2783 158.45 41.2783H159.231C159.492 41.2783 159.648 41.0179 159.7 40.4971L159.856 39.1689L161.419 39.6377L161.184 41.4346C161.08 42.32 160.585 42.7627 159.7 42.7627H157.747C156.809 42.7627 156.341 42.32 156.341 41.4346V36.7471ZM153.372 32.0596H158.45V30.4189H153.372V32.0596ZM153.372 28.9346H158.45V27.2939H153.372V28.9346ZM147.747 35.8877C148.789 36.3564 150.013 37.2158 151.419 38.4658L150.325 40.1064C149.231 38.9085 148.268 38.0231 147.434 37.4502C146.914 39.7419 145.82 41.5387 144.153 42.8408L142.981 41.4346C145.273 39.5075 146.367 37.0075 146.263 33.9346H143.294V32.4502H146.341V29.6377H143.841V28.1533H146.341V25.0283H147.825C148.242 25.0804 148.268 25.2367 147.903 25.4971V28.1533H150.638V29.6377H147.903V32.4502H151.028V33.9346H147.825C147.825 34.7679 147.799 35.4189 147.747 35.8877ZM167.825 32.1377C168.815 33.4919 169.309 34.8981 169.309 36.3564C169.309 38.3877 168.71 39.4033 167.513 39.4033H166.575L166.263 37.8408H167.044C167.565 37.8408 167.799 37.2939 167.747 36.2002C167.695 34.6898 167.226 33.3617 166.341 32.2158L167.903 27.1377H165.481V42.7627H163.919V25.8877H168.294L168.606 25.4971L169.934 26.6689L169.622 26.9814L167.825 32.1377ZM179.153 36.5127H178.372C177.539 40.3148 174.752 42.5023 170.013 43.0752L169.544 41.5908C173.606 41.2783 176.054 39.5856 176.888 36.5127H175.794C174.908 38.7002 173.033 40.0283 170.169 40.4971L169.7 39.1689C172.096 38.6481 173.58 37.7627 174.153 36.5127H172.903C172.174 37.2419 171.236 37.8148 170.091 38.2314L169.466 36.9033C171.132 36.3825 172.278 35.3929 172.903 33.9346H169.388V32.6846H181.106V33.9346H174.544C174.335 34.4033 174.075 34.846 173.763 35.2627H180.638L180.481 40.1846C180.429 41.8512 179.83 42.6846 178.684 42.6846H177.122L176.888 41.2002H178.216C178.684 41.2002 178.945 40.8877 178.997 40.2627L179.153 36.5127ZM172.513 30.4189H177.825V29.0908H172.513V30.4189ZM172.513 27.8408H177.825V26.5908H172.513V27.8408ZM179.153 25.3408V31.6689H171.184V25.3408H179.153ZM192.434 29.3252H194.544V25.2627H196.028C196.445 25.3148 196.471 25.471 196.106 25.7314V29.3252H200.325V30.8096H196.106V34.5596H200.091V36.0439H196.106V40.6533H201.263V42.1377H189.309V40.6533H194.544V36.0439H190.716V34.5596H194.544V30.8096H191.966C191.601 31.8512 191.028 32.8929 190.247 33.9346L188.919 32.9189C190.273 31.1481 191.158 29.0127 191.575 26.5127L193.059 26.8252C193.476 26.9814 193.476 27.1377 193.059 27.2939L192.434 29.3252ZM185.794 25.0283H187.278C187.695 25.0804 187.721 25.2367 187.356 25.4971V42.8408H185.794V25.0283ZM188.763 28.2314C189.231 28.8564 189.622 29.5596 189.934 30.3408L188.684 31.2002C188.32 30.3148 187.955 29.5856 187.591 29.0127L188.763 28.2314ZM185.325 29.0908C185.69 29.195 185.69 29.3512 185.325 29.5596C185.221 31.2262 184.986 32.7887 184.622 34.2471L183.138 33.7783C183.554 32.4762 183.789 30.8356 183.841 28.8564L185.325 29.0908ZM218.138 33.6221V42.6846H216.575V41.9033H209.544V42.9189H207.981V35.8096C206.627 36.5387 205.169 37.1117 203.606 37.5283L203.059 36.1221C204.518 35.7575 206.158 35.1064 207.981 34.1689V33.6221H209.075C210.169 32.9971 211.106 32.3721 211.888 31.7471H203.684V30.2627H210.559V28.3877H205.716V26.9033H210.559V25.0283H212.044C212.46 25.0804 212.486 25.2367 212.122 25.4971V26.9033H215.872V28.2314C216.497 27.5544 217.122 26.7992 217.747 25.9658L218.841 26.6689C219.205 26.9294 219.153 27.0856 218.684 27.1377C217.695 28.3356 216.705 29.3773 215.716 30.2627H221.106V31.7471H214.075C213.033 32.6325 212.2 33.2575 211.575 33.6221H218.138ZM213.606 30.2627C214.231 29.7939 214.934 29.1689 215.716 28.3877H212.122V30.2627H213.606ZM209.544 36.9814H216.575V34.8721H209.544V36.9814ZM209.544 40.6533H216.575V38.2314H209.544V40.6533ZM236.731 36.9033C237.46 35.4971 237.903 33.3617 238.059 30.4971H235.403C235.559 33.3617 236.002 35.4971 236.731 36.9033ZM239.622 30.4971C239.518 33.7262 238.893 36.3304 237.747 38.3096C238.58 39.3512 239.752 40.2627 241.263 41.0439L240.247 42.7627C238.58 41.6689 237.408 40.6273 236.731 39.6377C235.533 40.9919 233.684 42.1637 231.184 43.1533L230.403 41.5908C233.111 40.4971 234.908 39.3773 235.794 38.2314C234.908 36.5127 234.414 34.7939 234.309 33.0752C233.997 33.8564 233.684 34.4554 233.372 34.8721L232.044 33.8564C233.606 31.5648 234.544 28.7262 234.856 25.3408L236.497 25.7314C236.809 25.9398 236.731 26.096 236.263 26.2002C236.106 27.1377 235.898 28.0752 235.638 29.0127H240.95V30.4971H239.622ZM232.356 26.7471C232.044 27.5283 231.679 28.1794 231.263 28.7002L230.013 27.9971C230.429 27.32 230.82 26.5387 231.184 25.6533L232.591 26.3564C232.799 26.5648 232.721 26.695 232.356 26.7471ZM227.356 37.7627C228.085 37.971 228.736 38.2054 229.309 38.4658C229.726 37.9971 230.065 37.2939 230.325 36.3564H228.059C227.851 36.8252 227.617 37.2939 227.356 37.7627ZM226.263 39.7158L225.013 39.0127C225.533 38.2314 226.054 37.346 226.575 36.3564H223.606V35.1064H227.044C227.356 34.4294 227.591 33.8564 227.747 33.3877L229.231 33.7783C229.44 33.9867 229.361 34.1169 228.997 34.1689L228.528 35.1064H232.981V36.3564H231.809C231.549 37.3981 231.158 38.2835 230.638 39.0127C231.106 39.221 231.601 39.4814 232.122 39.7939L231.419 41.0439C230.846 40.6794 230.325 40.3929 229.856 40.1846C228.502 41.5387 226.679 42.3721 224.388 42.6846L223.841 41.2783C225.872 41.07 227.434 40.4971 228.528 39.5596C227.955 39.2992 227.382 39.0648 226.809 38.8564L226.263 39.7158ZM227.825 25.0283H229.075C229.492 25.0804 229.518 25.2367 229.153 25.4971V28.8564H233.138V30.1064H229.856C230.429 30.7835 231.315 31.4346 232.513 32.0596L231.653 33.3877C230.768 32.8669 229.934 32.1377 229.153 31.2002V33.0752H227.825V31.5908C226.992 32.6325 225.846 33.57 224.388 34.4033L223.372 33.1533C224.986 32.32 226.315 31.3044 227.356 30.1064H223.763V28.8564H227.825V25.0283ZM225.638 28.6221C225.273 27.8408 224.804 27.1637 224.231 26.5908L225.481 25.8096C226.106 26.4346 226.575 27.0856 226.888 27.7627L225.638 28.6221ZM252.981 30.1846C252.096 35.3929 251.028 38.6221 249.778 39.8721C249.101 40.5492 248.398 40.8877 247.669 40.8877C246.835 40.8877 246.184 40.6533 245.716 40.1846C244.466 38.9346 243.841 37.3721 243.841 35.4971C243.841 33.2054 244.648 31.2523 246.263 29.6377C248.033 27.8669 250.195 26.9814 252.747 26.9814C255.039 26.9814 256.835 27.6325 258.138 28.9346C259.596 30.3929 260.325 32.1117 260.325 34.0908C260.325 36.2262 259.648 37.971 258.294 39.3252C257.408 40.2106 256.054 41.07 254.231 41.9033L252.591 40.2627C254.414 39.6898 255.846 38.8825 256.888 37.8408C257.877 36.8512 258.372 35.6533 258.372 34.2471C258.372 32.5804 257.825 31.2002 256.731 30.1064C255.638 29.0127 253.919 28.5179 251.575 28.6221L252.981 29.3252C253.606 29.5856 253.606 29.8721 252.981 30.1846ZM251.184 28.7002C249.83 29.0127 248.658 29.6637 247.669 30.6533C246.315 32.0075 245.638 33.6742 245.638 35.6533C245.638 36.8512 246.028 37.8408 246.809 38.6221C246.966 38.7783 247.2 38.8564 247.513 38.8564C247.825 38.8564 248.164 38.6742 248.528 38.3096C249.726 37.1117 250.611 33.9085 251.184 28.7002ZM268.763 31.8252C270.481 30.2106 271.809 27.8669 272.747 24.7939L274.309 25.2627C274.57 25.471 274.518 25.6012 274.153 25.6533C273.736 26.695 273.32 27.6585 272.903 28.5439H275.247C275.82 27.346 276.263 26.2783 276.575 25.3408L278.059 25.8877C278.268 26.096 278.19 26.2262 277.825 26.2783C277.46 27.1117 277.096 27.8669 276.731 28.5439H280.716V30.0283H276.731V32.4502H279.934V33.9346H276.731V36.4346H279.934V37.9189H276.731V40.8096H281.184V42.2939H272.591V42.9971H271.028V31.6689C270.664 32.1898 270.273 32.6585 269.856 33.0752L268.763 31.8252ZM264.856 42.8408L264.544 41.3564H265.872C266.08 41.3564 266.184 41.2523 266.184 41.0439V36.2002L264.153 36.6689C264.101 37.0335 263.971 37.1117 263.763 36.9033L263.45 35.1064L266.184 34.5596V30.4189H263.763V28.9346H266.184V24.9502H267.669C268.085 25.0023 268.111 25.1585 267.747 25.4189V28.9346H269.778V30.4189H267.747V34.2471L269.778 33.7002L270.013 35.1064L267.747 35.8096V41.5908C267.747 42.4242 267.33 42.8408 266.497 42.8408H264.856ZM272.591 40.8096H275.169V37.9189H272.591V40.8096ZM272.591 36.4346H275.169V33.9346H272.591V36.4346ZM272.591 32.4502H275.169V30.0283H272.591V32.4502ZM298.841 27.1377L299.075 26.8252L300.325 27.8408L300.091 28.0752C298.736 30.4189 297.408 31.9814 296.106 32.7627L296.888 32.9971C297.252 33.1533 297.226 33.3096 296.809 33.4658C296.705 33.8304 296.575 34.1429 296.419 34.4033H299.778L300.013 34.0908L301.419 35.1064L301.106 35.4189C299.44 39.846 296.054 42.346 290.95 42.9189L290.325 41.4346C292.773 41.1742 294.7 40.5231 296.106 39.4814C295.377 38.7523 294.648 38.1273 293.919 37.6064C293.242 38.1794 292.33 38.7002 291.184 39.1689L290.481 37.7627C293.033 36.721 294.7 35.1325 295.481 32.9971C294.7 33.7262 293.294 34.3512 291.263 34.8721L290.559 33.4658C292.539 33.0492 294.023 32.5023 295.013 31.8252C294.492 31.2002 293.867 30.6533 293.138 30.1846C292.773 30.5492 292.408 30.8617 292.044 31.1221L290.95 29.9502C292.669 28.4919 293.763 26.9294 294.231 25.2627L295.638 25.7314C296.002 25.8877 295.976 26.0439 295.559 26.2002C295.507 26.5127 295.377 26.8252 295.169 27.1377H298.841ZM288.216 30.1846H290.794V31.6689H288.216V33.6221C289.257 34.0908 290.247 34.7939 291.184 35.7314L290.169 37.1377C289.335 36.3044 288.684 35.7054 288.216 35.3408V42.9189H286.653V35.1846C286.341 36.2262 285.481 37.5544 284.075 39.1689L282.903 37.6846C284.83 35.8617 286.028 33.8564 286.497 31.6689H283.45V30.1846H286.653V27.6064C285.611 27.7627 284.674 27.8929 283.841 27.9971L283.45 26.5127C285.533 26.3044 287.695 25.8877 289.934 25.2627L290.794 26.4346C291.002 26.7471 290.872 26.8512 290.403 26.7471C289.674 26.9554 288.945 27.1377 288.216 27.2939V30.1846ZM293.919 29.2471C294.7 29.6637 295.455 30.1846 296.184 30.8096C296.966 30.0804 297.617 29.2731 298.138 28.3877H294.544C294.335 28.7523 294.127 29.0387 293.919 29.2471ZM294.778 36.6689C295.507 37.0856 296.341 37.7106 297.278 38.5439C298.059 37.971 298.736 37.0075 299.309 35.6533H295.716C295.403 36.07 295.091 36.4085 294.778 36.6689ZM306.809 29.3252C307.382 28.1273 308.346 26.9033 309.7 25.6533L310.559 26.4346C309.257 27.6325 308.346 28.7783 307.825 29.8721C307.252 31.07 306.966 32.5023 306.966 34.1689C306.966 35.5752 307.252 36.9033 307.825 38.1533C308.346 39.2992 309.257 40.5752 310.559 41.9814L309.7 42.8408C308.398 41.3825 307.434 40.0023 306.809 38.7002C306.132 37.2939 305.794 35.7835 305.794 34.1689C305.794 32.346 306.132 30.7314 306.809 29.3252ZM317.903 41.9033H316.106V26.8252H328.372V41.5908H326.575V40.4971H317.903V41.9033ZM326.575 32.7627V28.3096H317.903V32.7627H326.575ZM326.575 39.0127V34.2471H317.903V39.0127H326.575ZM341.341 35.8096H338.372C337.903 38.7783 336.497 41.1221 334.153 42.8408L333.372 41.3564C335.664 39.7419 336.914 37.346 337.122 34.1689L337.278 31.7471H336.184V32.7627H334.622V26.0439H342.513V32.4502H340.95V31.7471H338.684L338.528 34.3252H342.903L342.513 40.4971C342.408 41.7471 341.888 42.3721 340.95 42.3721H338.841L338.606 40.8877H340.325C340.794 40.8877 341.054 40.6273 341.106 40.1064L341.341 35.8096ZM349.778 41.2002C349.778 42.0856 349.361 42.5283 348.528 42.5283H346.809L346.497 41.0439H347.981C348.138 41.0439 348.216 40.9658 348.216 40.8096V25.8096H349.7C350.117 25.8617 350.143 26.0179 349.778 26.2783V41.2002ZM346.028 27.6846C346.445 27.7367 346.471 27.8929 346.106 28.1533V38.8564H344.544V27.6846H346.028ZM340.95 30.4971V27.2939H336.184V30.4971H340.95ZM357.513 38.7002C356.888 40.0023 355.924 41.3825 354.622 42.8408L353.763 41.9814C355.065 40.5752 355.976 39.2992 356.497 38.1533C357.07 36.9033 357.356 35.5752 357.356 34.1689C357.356 32.5023 357.07 31.07 356.497 29.8721C355.976 28.7783 355.065 27.6325 353.763 26.4346L354.622 25.6533C355.976 26.9033 356.94 28.1273 357.513 29.3252C358.19 30.7314 358.528 32.346 358.528 34.1689C358.528 35.7835 358.19 37.2939 357.513 38.7002Z" fill="#757575"/>
</g>
<rect x="2" y="2" width="714" height="440" stroke="black" stroke-width="4"/>
<defs>
<clipPath id="clip0_6_14591">
<rect width="718" height="444" fill="white"/>
</clipPath>
</defs>
</svg>
