<svg width="718" height="444" viewBox="0 0 718 444" fill="none" xmlns="http://www.w3.org/2000/svg">
<g clip-path="url(#clip0_6_15625)">
<path d="M0 0H718V444H0V0Z" fill="white"/>
<path d="M181.5 91.5V369.5" stroke="#CCCCCC" stroke-miterlimit="10"/>
<path d="M302.5 91.5V369.5" stroke="#CCCCCC" stroke-miterlimit="10"/>
<path d="M424.5 91.5V369.5" stroke="#CCCCCC" stroke-miterlimit="10"/>
<path d="M545.5 91.5V369.5" stroke="#CCCCCC" stroke-miterlimit="10"/>
<path d="M666.5 91.5V369.5" stroke="#CCCCCC" stroke-miterlimit="10"/>
<path d="M88.5 369.5H695.5" stroke="#333333" stroke-miterlimit="10"/>
<path d="M88.5 314.5H695.5" stroke="#CCCCCC" stroke-miterlimit="10"/>
<path d="M88.5 258.5H695.5" stroke="#CCCCCC" stroke-miterlimit="10"/>
<path d="M88.5 202.5H695.5" stroke="#CCCCCC" stroke-miterlimit="10"/>
<path d="M88.5 147.5H695.5" stroke="#CCCCCC" stroke-miterlimit="10"/>
<path d="M88.5 91.5H695.5" stroke="#CCCCCC" stroke-miterlimit="10"/>
<path d="M88.2 369.8H88.8064H89.4128H90.0192H90.6255H91.2319H91.8383H92.4447H93.0511H93.6575H94.2639H94.8703H95.4766H96.083H96.6894H97.2958H97.9022H98.5086H99.115H99.7214H100.328H100.934H101.541H102.147H102.753H103.36H103.966H104.572H105.179H105.785H106.392H106.998H107.604H108.211H108.817H109.424H110.03H110.636H111.243H111.849H112.455H113.062H113.668H114.275L114.881 369.689H115.487H116.094L116.7 369.8L117.307 369.355L117.913 369.8L118.519 369.577L119.126 369.689L119.732 369.577L120.339 369.8H120.945H121.551H122.158H122.764H123.37H123.977H124.583H125.19H125.796H126.402H127.009H127.615H128.222H128.828H129.434H130.041H130.647L131.253 369.689L131.86 369.8L132.466 369.689H133.073L133.679 369.577L134.285 369.466L134.892 369.689L135.498 369.577L136.105 369.466L136.711 369.021L137.317 369.466L137.924 369.577L138.53 369.689L139.137 368.687L139.743 369.243L140.349 369.8L140.956 369.132L141.562 369.8H142.168L142.775 369.577L143.381 369.8L143.988 369.689H144.594L145.2 369.355L145.807 369.689L146.413 369.8L147.02 369.689H147.626L148.232 369.8L148.839 369.689H149.445L150.051 369.8H150.658L151.264 369.689L151.871 369.8H152.477H153.083H153.69H154.296H154.903H155.509H156.115H156.722H157.328H157.935H158.541H159.147H159.754H160.36H160.966H161.573H162.179H162.786H163.392H163.998H164.605H165.211H165.818H166.424H167.03H167.637H168.243H168.85H169.456H170.062H170.669H171.275H171.881H172.488H173.094H173.701H174.307H174.913H175.52H176.126H176.733H177.339H177.945H178.552H179.158H179.764H180.371H180.977H181.584H182.19H182.796H183.403H184.009H184.616H185.222H185.828H186.435H187.041H187.648H188.254H188.86H189.467H190.073H190.679H191.286H191.892H192.499H193.105H193.711H194.318H194.924H195.531H196.137L196.743 369.689L197.35 369.8H197.956L198.562 369.689L199.169 369.8H199.775H200.382H200.988H201.594L202.201 369.689L202.807 369.8L203.414 369.689L204.02 369.8L204.626 369.689L205.233 369.8L205.839 369.689L206.446 369.8H207.052H207.658H208.265L208.871 369.689H209.477L210.084 369.8H210.69H211.297L211.903 369.689L212.509 369.8H213.116H213.722H214.329H214.935H215.541H216.148L216.754 368.241L217.36 369.243L217.967 369.689L218.573 369.8L219.18 369.577L219.786 369.8L220.392 369.689H220.999L221.605 369.577L222.212 369.8H222.818L223.424 368.798L224.031 369.8L224.637 369.689L225.244 369.243L225.85 369.689L226.456 369.8L227.063 369.466L227.669 369.689H228.275L228.882 369.8L229.488 369.689H230.095L230.701 369.8L231.307 369.577L231.914 369.8H232.52L233.127 369.466L233.733 369.8H234.339H234.946H235.552H236.158H236.765H237.371H237.978H238.584H239.19H239.797H240.403H241.01H241.616H242.222L242.829 369.689L243.435 369.8H244.042H244.648H245.254H245.861H246.467H247.073H247.68H248.286H248.893H249.499H250.105H250.712L251.318 369.689L251.925 369.8H252.531H253.137L253.744 369.689L254.35 369.8H254.956H255.563H256.169H256.776H257.382H257.988H258.595H259.201L259.808 369.577L260.414 369.8L261.02 369.689H261.627L262.233 369.8H262.84H263.446H264.052H264.659H265.265H265.871H266.478H267.084H267.691H268.297H268.903H269.51H270.116H270.723H271.329H271.935H272.542H273.148H273.754H274.361H274.967H275.574L276.18 369.577L276.786 369.8L277.393 369.577L277.999 369.8L278.606 369.689L279.212 369.8H279.818H280.425L281.031 369.689L281.638 369.577L282.244 369.243L282.85 368.909L283.457 368.13L284.063 368.019L284.669 367.685L285.276 367.796L285.882 368.353L286.489 367.907L287.095 367.796L287.701 367.574L288.308 368.575L288.914 366.794L289.521 367.796L290.127 368.575L290.733 365.792L291.34 366.683L291.946 367.24L292.552 368.687L293.159 368.353L293.765 367.24L294.372 367.907L294.978 366.349L295.584 367.128L296.191 367.685L296.797 368.464L297.404 368.241L298.01 368.909H298.616H299.223L299.829 368.464L300.436 368.798L301.042 369.132L301.648 369.021L302.255 368.575L302.861 369.577L303.467 369.021L304.074 369.355L304.68 368.464L305.287 368.798L305.893 369.355L306.499 369.021L307.106 369.577L307.712 369.132L308.319 368.241L308.925 369.466L309.531 369.355H310.138L310.744 369.243L311.35 368.798L311.957 368.464L312.563 368.019L313.17 369.132L313.776 369.577L314.382 369.466L314.989 369.243L315.595 369.577L316.202 369.466L316.808 369.689L317.414 369.132H318.021L318.627 369.243L319.234 369.689L319.84 369.355L320.446 369.8H321.053L321.659 369.689L322.265 369.466L322.872 369.243L323.478 369.577L324.085 369.689H324.691L325.297 369.8L325.904 369.355L326.51 369.243L327.117 369.689L327.723 369.577L328.329 369.689L328.936 369.243L329.542 369.8L330.148 369.577L330.755 369.8H331.361H331.968H332.574H333.18H333.787H334.393H335H335.606H336.212H336.819L337.425 369.466L338.032 369.8L338.638 368.798L339.244 369.243L339.851 369.689H340.457L341.063 369.8L341.67 369.689H342.276H342.883L343.489 369.577L344.095 369.8L344.702 369.689L345.308 369.8H345.915L346.521 369.689H347.127H347.734L348.34 369.8H348.947H349.553L350.159 369.689H350.766L351.372 369.8H351.978H352.585H353.191H353.798L354.404 369.577L355.01 369.689L355.617 369.577L356.223 369.8L356.83 369.577H357.436L358.042 368.909L358.649 369.132L359.255 369.8L359.861 368.909L360.468 369.689L361.074 369.8H361.681H362.287H362.893L363.5 369.689L364.106 369.355L364.713 369.577L365.319 369.021L365.925 369.466L366.532 369.577L367.138 369.243L367.744 369.466H368.351L368.957 369.243L369.564 369.577L370.17 369.021H370.776L371.383 368.241L371.989 369.021L372.596 368.798L373.202 368.241L373.808 368.464L374.415 368.13L375.021 368.687L375.628 368.353L376.234 369.021L376.84 368.798L377.447 369.021L378.053 369.243L378.659 369.355L379.266 369.466H379.872L380.479 369.132L381.085 369.021L381.691 369.243L382.298 369.355L382.904 369.577L383.511 368.909L384.117 368.13H384.723L385.33 368.687L385.936 367.907L386.543 366.794L387.149 367.128L387.755 368.13L388.362 366.572L388.968 366.794L389.574 365.57L390.181 367.24L390.787 367.017H391.394L392 367.574L392.606 367.017L393.213 366.794L393.819 367.685L394.426 368.241L395.032 367.685L395.638 366.683L396.245 368.687L396.851 369.021L397.458 368.798L398.064 368.575L398.67 368.909L399.277 369.021L399.883 368.798L400.489 369.132L401.096 368.019L401.702 369.132L402.309 368.687L402.915 369.132L403.521 368.687H404.128L404.734 368.909L405.34 368.019L405.947 368.241L406.553 369.243L407.16 368.798L407.766 368.575L408.372 368.798L408.979 368.353L409.585 368.687L410.192 369.355L410.798 369.021L411.404 368.687L412.011 369.466L412.617 369.021L413.224 369.689L413.83 369.021L414.436 368.909L415.043 368.798L415.649 369.355L416.255 368.798L416.862 369.021L417.468 369.577L418.075 369.132L418.681 368.687L419.287 368.798L419.894 368.241L420.5 368.909L421.107 368.687L421.713 369.243L422.319 368.909L422.926 369.243L423.532 369.021H424.139L424.745 369.577L425.351 369.243H425.958L426.564 368.687L427.17 367.351L427.777 367.017L428.383 367.907L428.99 368.241L429.596 368.575L430.202 368.687L430.809 368.241L431.415 369.132L432.022 368.353L432.628 367.24L433.234 368.464L433.841 368.798L434.447 369.8L435.054 368.798L435.66 367.574L436.266 367.128L436.873 366.906L437.479 367.128L438.085 366.794L438.692 367.574L439.298 365.347L439.905 362.675L440.511 360.894L441.117 361.117L441.724 360.115L442.33 360.783L442.937 365.124L443.543 360.004L444.149 357.443L444.756 358L445.362 359.447L445.968 362.008L446.575 363.789L447.181 364.457L447.788 359.447L448.394 363.121L449 363.9L449.607 361.562L450.213 362.787L450.82 365.236L451.426 367.017L452.032 365.681H452.639L453.245 365.347L453.851 366.126L454.458 366.238L455.064 368.464L455.671 368.353L456.277 367.796L456.883 369.021H457.49H458.096H458.703H459.309L459.915 368.798L460.522 369.132L461.128 368.241L461.735 368.798L462.341 368.687L462.947 369.021L463.554 369.577H464.16L464.766 369.355L465.373 368.798L465.979 369.466L466.586 369.577L467.192 369.355L467.798 369.577L468.405 369.689L469.011 369.577H469.618L470.224 369.355L470.83 369.8H471.437L472.043 369.689H472.65L473.256 369.243L473.862 369.8L474.469 369.355L475.075 369.689L475.681 369.466L476.288 369.355L476.894 369.021L477.501 369.466L478.107 369.577L478.713 369.355L479.32 369.466L479.926 369.8L480.533 369.577L481.139 369.8H481.745L482.352 369.577L482.958 369.8L483.564 369.577L484.171 369.355L484.777 369.689L485.384 369.8L485.99 369.689L486.596 369.8H487.203H487.809H488.416H489.022H489.628H490.235H490.841H491.447L492.054 369.689L492.66 369.8H493.267H493.873H494.479H495.086H495.692H496.299H496.905H497.511H498.118L498.724 369.689L499.331 369.8H499.937H500.543H501.15H501.756H502.362H502.969H503.575H504.182H504.788H505.394H506.001H506.607H507.214H507.82H508.426H509.033H509.639H510.246H510.852H511.458H512.065H512.671H513.277H513.884H514.49H515.097H515.703H516.309H516.916H517.522H518.129H518.735H519.341H519.948H520.554H521.16L521.767 369.689L522.373 369.8H522.98L523.586 369.577H524.192L524.799 369.132L525.405 369.355H526.012L526.618 369.243L527.224 369.466L527.831 369.577L528.437 369.355L529.044 367.351L529.65 367.574L530.256 365.904L530.863 367.017L531.469 366.794L532.075 368.241L532.682 364.568L533.288 361.674L533.895 364.345L534.501 363.232L535.107 360.894L535.714 363.789L536.32 363.232L536.927 350.208L537.533 355.551L538.139 351.209L538.746 350.542L539.352 351.098L539.958 358.557L540.565 363.9L541.171 332.619L541.778 343.862L542.384 338.519L542.99 347.759L543.597 344.642L544.203 348.204L544.81 358L545.416 338.519L546.022 344.864L546.629 339.076L547.235 338.519L547.841 356.553L548.448 333.064L549.054 356.33L549.661 335.736L550.267 342.081L550.873 346.868L551.48 345.755L552.086 348.538L552.693 352.1L553.299 362.564L553.905 349.985L554.512 347.87L555.118 357.332L555.725 348.983L556.331 350.319L556.937 354.66L557.544 360.226L558.15 341.747L558.756 350.319L559.363 343.862L559.969 351.209L560.576 349.428L561.182 353.547L561.788 359.67L562.395 342.749L563.001 348.983L563.608 346.757L564.214 350.653L564.82 354.438L565.427 350.876L566.033 359.781L566.64 346.757L567.246 348.872L567.852 350.987L568.459 355.328L569.065 354.104L569.671 358.891L570.278 362.008L570.884 361.674L571.491 349.54L572.097 352.434L572.703 354.326L573.31 355.885L573.916 358.111L574.523 361.896L575.129 349.651L575.735 352.1L576.342 351.877L576.948 355.885L577.554 356.664L578.161 359.558L578.767 363.677L579.374 350.542L579.98 353.992L580.586 350.653L581.193 351.766L581.799 353.77L582.406 356.33L583.012 362.787L583.618 348.76L584.225 349.094L584.831 352.879L585.437 354.549L586.044 354.326L586.65 357.221L587.257 362.564L587.863 349.874L588.469 352.657L589.076 353.213L589.682 351.321L590.289 352.545L590.895 358.445L591.501 363.455L592.108 346.089L592.714 349.206L593.321 350.987L593.927 352.545L594.533 363.232L595.14 351.543L595.746 363.455L596.352 344.419L596.959 359.002L597.565 357.109L598.172 354.66L598.778 333.844L599.384 349.762L599.991 356.998L600.597 326.162L601.204 341.97L601.81 343.083L602.416 341.859L603.023 342.638L603.629 346.757L604.236 358.334L604.842 326.608L605.448 340.3L606.055 339.41L606.661 347.313L607.267 347.202L607.874 355.328L608.48 361.896L609.087 337.517L609.693 347.313L610.299 351.877L610.906 351.655L611.512 355.662L612.119 362.119L612.725 365.347L613.331 353.325L613.938 358.111L614.544 361.117L615.15 360.783L615.757 357.777L616.363 362.675L616.97 364.011L617.576 353.436L618.182 359.558L618.789 359.781L619.395 358.779L620.002 358.223L620.608 361.451L621.214 365.57L621.821 353.102L622.427 358.223L623.033 355.662L623.64 359.447L624.246 359.558L624.853 361.451L625.459 366.46L626.065 352.991L626.672 359.225L627.278 359.336L627.885 359.002L628.491 356.887L629.097 359.336L629.704 366.126L630.31 351.098L630.917 355.328L631.523 356.108L632.129 355.44L632.736 357.221L633.342 358.111L633.948 362.787L634.555 344.976L635.161 345.421L635.768 348.315L636.374 347.202L636.98 345.198L637.587 347.536L638.193 358.779L638.8 331.506L639.406 328.612L640.012 333.287L640.619 331.283L641.225 322.266L641.832 333.621L642.438 345.532L643.044 345.198L643.651 291.431L644.257 283.304L644.863 303.008L645.47 288.091L646.076 307.349L646.683 339.632L647.289 262.599L647.895 275.401L648.502 279.631L649.108 282.191L649.715 279.185L650.321 292.766L650.927 330.059L651.534 255.92L652.14 256.142L652.747 240.223L653.353 243.897L653.959 237.106L654.566 242.672L655.172 320.93L655.778 239.556L656.385 208.943L656.991 212.95L657.598 252.023L658.204 229.091L658.81 236.439L659.417 287.089L660.023 215.065L660.63 161.075L661.236 165.639L661.842 168.979L662.449 176.326L663.055 181.335L663.661 251.801L664.268 151.835L664.874 143.709L665.481 167.643L666.087 168.533L666.693 165.75L667.3 201.15L667.906 318.593L668.513 207.05L669.119 220.965L669.725 242.227L670.332 256.699L670.938 281.412L671.544 296.663L672.151 322.044L672.757 276.514L673.364 280.855L673.97 271.059L674.576 277.961L675.183 288.982L675.789 316.589L676.396 342.972L677.002 278.851L677.608 285.308L678.215 312.47L678.821 320.151L679.428 324.381L680.034 335.179L680.64 348.649L681.247 353.325L681.853 302.897L682.459 315.587L683.066 332.953L683.672 349.985L684.279 333.064L684.885 350.208L685.491 335.179L686.098 346.534L686.704 350.653L687.311 351.989L687.917 352.879L688.523 358L689.13 363.121L689.736 342.749L690.343 350.208L690.949 351.877L691.555 353.659L692.162 355.996L692.768 358.111L693.374 364.679L693.981 362.23L694.587 342.304L695.194 352.545L695.8 351.877" stroke="#4285F4" stroke-width="2" stroke-miterlimit="10"/>
<path d="M379.922 418.8V410.206H382.891C383.557 410.206 384.068 410.248 384.422 410.331C384.911 410.446 385.328 410.649 385.672 410.94C386.13 411.326 386.469 411.821 386.688 412.425C386.917 413.019 387.031 413.696 387.031 414.456C387.031 415.112 386.953 415.69 386.797 416.19C386.651 416.69 386.458 417.107 386.219 417.44C385.979 417.774 385.714 418.034 385.422 418.222C385.141 418.409 384.802 418.555 384.406 418.659C384.01 418.753 383.552 418.8 383.031 418.8H379.922ZM381.062 417.784H382.891C383.464 417.784 383.911 417.732 384.234 417.628C384.557 417.524 384.812 417.373 385 417.175C385.271 416.914 385.479 416.555 385.625 416.097C385.781 415.638 385.859 415.086 385.859 414.44C385.859 413.545 385.708 412.857 385.406 412.378C385.115 411.888 384.76 411.56 384.344 411.394C384.031 411.279 383.542 411.222 382.875 411.222H381.062V417.784ZM392.859 418.034C392.464 418.368 392.083 418.602 391.719 418.737C391.365 418.873 390.979 418.94 390.562 418.94C389.875 418.94 389.349 418.774 388.984 418.44C388.62 418.107 388.438 417.68 388.438 417.159C388.438 416.857 388.505 416.581 388.641 416.331C388.776 416.071 388.958 415.868 389.188 415.722C389.417 415.565 389.672 415.451 389.953 415.378C390.151 415.315 390.464 415.258 390.891 415.206C391.734 415.112 392.359 414.993 392.766 414.847C392.766 414.701 392.766 414.612 392.766 414.581C392.766 414.144 392.667 413.836 392.469 413.659C392.198 413.43 391.797 413.315 391.266 413.315C390.776 413.315 390.411 413.404 390.172 413.581C389.932 413.748 389.755 414.05 389.641 414.487L388.609 414.347C388.703 413.909 388.859 413.555 389.078 413.284C389.297 413.013 389.609 412.805 390.016 412.659C390.422 412.513 390.891 412.44 391.422 412.44C391.953 412.44 392.385 412.503 392.719 412.628C393.052 412.753 393.297 412.909 393.453 413.097C393.609 413.284 393.719 413.524 393.781 413.815C393.812 413.993 393.828 414.315 393.828 414.784V416.19C393.828 417.17 393.849 417.789 393.891 418.05C393.943 418.31 394.036 418.56 394.172 418.8H393.062C392.958 418.581 392.891 418.326 392.859 418.034ZM392.766 415.675C392.38 415.831 391.807 415.966 391.047 416.081C390.609 416.144 390.302 416.216 390.125 416.3C389.948 416.373 389.807 416.482 389.703 416.628C389.609 416.774 389.562 416.94 389.562 417.128C389.562 417.409 389.667 417.644 389.875 417.831C390.094 418.019 390.406 418.112 390.812 418.112C391.219 418.112 391.578 418.024 391.891 417.847C392.214 417.67 392.448 417.425 392.594 417.112C392.708 416.873 392.766 416.524 392.766 416.065V415.675ZM398.094 417.862L398.25 418.784C397.948 418.847 397.682 418.878 397.453 418.878C397.068 418.878 396.771 418.821 396.562 418.706C396.354 418.581 396.203 418.42 396.109 418.222C396.026 418.024 395.984 417.607 395.984 416.972V413.394H395.219V412.581H395.984V411.034L397.031 410.409V412.581H398.094V413.394H397.031V417.034C397.031 417.336 397.047 417.529 397.078 417.612C397.12 417.696 397.182 417.763 397.266 417.815C397.349 417.868 397.469 417.894 397.625 417.894C397.75 417.894 397.906 417.883 398.094 417.862ZM403.047 416.8L404.141 416.925C403.974 417.56 403.656 418.055 403.188 418.409C402.719 418.763 402.125 418.94 401.406 418.94C400.5 418.94 399.776 418.659 399.234 418.097C398.703 417.534 398.438 416.748 398.438 415.737C398.438 414.696 398.708 413.888 399.25 413.315C399.792 412.732 400.49 412.44 401.344 412.44C402.177 412.44 402.854 412.722 403.375 413.284C403.906 413.847 404.172 414.644 404.172 415.675C404.172 415.737 404.172 415.831 404.172 415.956H399.531C399.573 416.644 399.766 417.17 400.109 417.534C400.453 417.888 400.885 418.065 401.406 418.065C401.792 418.065 402.12 417.966 402.391 417.769C402.672 417.56 402.891 417.237 403.047 416.8ZM399.594 415.097H403.062C403.021 414.565 402.891 414.17 402.672 413.909C402.328 413.503 401.891 413.3 401.359 413.3C400.87 413.3 400.458 413.461 400.125 413.784C399.802 414.107 399.625 414.545 399.594 415.097Z" fill="black"/>
<path d="M33.2 251.775H24.6062V250.634H28.8719L24.6062 246.369V244.822L28.0906 248.431L33.2 244.666V246.166L28.8562 249.228L30.2156 250.634H33.2V251.775ZM30.0906 244.244C28.9344 244.244 28.0802 243.926 27.5281 243.291C27.0698 242.759 26.8406 242.108 26.8406 241.337C26.8406 240.483 27.1219 239.785 27.6844 239.244C28.2364 238.692 29.0073 238.416 29.9969 238.416C30.7989 238.416 31.4291 238.535 31.8875 238.775C32.3458 239.014 32.7052 239.369 32.9656 239.837C33.2156 240.296 33.3406 240.796 33.3406 241.337C33.3406 242.202 33.0646 242.905 32.5125 243.447C31.95 243.978 31.1427 244.244 30.0906 244.244ZM30.0906 243.166C30.8823 243.166 31.476 242.994 31.8719 242.65C32.2677 242.296 32.4656 241.858 32.4656 241.337C32.4656 240.806 32.2677 240.369 31.8719 240.025C31.476 239.681 30.8719 239.509 30.0594 239.509C29.2885 239.509 28.7052 239.686 28.3094 240.041C27.9135 240.384 27.7156 240.817 27.7156 241.337C27.7156 241.858 27.9135 242.296 28.3094 242.65C28.6948 242.994 29.2885 243.166 30.0906 243.166ZM30.9187 232.791L31.0594 231.759C31.7677 231.874 32.325 232.166 32.7312 232.634C33.1375 233.103 33.3406 233.676 33.3406 234.353C33.3406 235.207 33.0646 235.895 32.5125 236.416C31.95 236.926 31.1479 237.181 30.1062 237.181C29.4396 237.181 28.8562 237.072 28.3562 236.853C27.8458 236.624 27.4656 236.285 27.2156 235.837C26.9656 235.379 26.8406 234.879 26.8406 234.337C26.8406 233.671 27.0125 233.124 27.3562 232.697C27.6896 232.259 28.1739 231.978 28.8094 231.853L28.9656 232.884C28.5489 232.978 28.2364 233.15 28.0281 233.4C27.8094 233.65 27.7 233.952 27.7 234.306C27.7 234.837 27.8927 235.27 28.2781 235.603C28.6531 235.936 29.2521 236.103 30.075 236.103C30.9187 236.103 31.5281 235.942 31.9031 235.619C32.2781 235.296 32.4656 234.879 32.4656 234.369C32.4656 233.952 32.3406 233.608 32.0906 233.337C31.8406 233.056 31.45 232.874 30.9187 232.791ZM33.2 230.853H24.6062V229.806H27.6844C27.1219 229.317 26.8406 228.697 26.8406 227.947C26.8406 227.478 26.9344 227.077 27.1219 226.744C27.2989 226.4 27.5489 226.155 27.8719 226.009C28.1844 225.863 28.6479 225.791 29.2625 225.791H33.2V226.837H29.2625C28.7312 226.837 28.3458 226.952 28.1062 227.181C27.8666 227.41 27.7469 227.733 27.7469 228.15C27.7469 228.462 27.8302 228.759 27.9969 229.041C28.1531 229.311 28.3719 229.509 28.6531 229.634C28.9239 229.749 29.3041 229.806 29.7937 229.806H33.2V230.853ZM25.825 223.853H24.6062V222.791H25.825V223.853ZM33.2 223.853H26.9812V222.791H33.2V223.853Z" fill="black"/>
<path d="M75.7 369.565C75.7 368.545 75.8042 367.727 76.0125 367.112C76.2208 366.487 76.5281 366.008 76.9344 365.675C77.351 365.341 77.8719 365.175 78.4969 365.175C78.9552 365.175 79.3562 365.269 79.7 365.456C80.0542 365.644 80.3458 365.914 80.575 366.269C80.8042 366.612 80.9812 367.034 81.1062 367.534C81.2312 368.034 81.2937 368.711 81.2937 369.565C81.2937 370.576 81.1896 371.388 80.9812 372.003C80.7833 372.618 80.476 373.097 80.0594 373.44C79.6531 373.774 79.1323 373.94 78.4969 373.94C77.674 373.94 77.0229 373.644 76.5437 373.05C75.9812 372.341 75.7 371.18 75.7 369.565ZM76.7781 369.565C76.7781 370.972 76.9448 371.909 77.2781 372.378C77.6115 372.847 78.0177 373.081 78.4969 373.081C78.9865 373.081 79.3927 372.847 79.7156 372.378C80.049 371.909 80.2156 370.972 80.2156 369.565C80.2156 368.149 80.049 367.211 79.7156 366.753C79.3927 366.284 78.9812 366.05 78.4812 366.05C78.0021 366.05 77.6167 366.253 77.325 366.659C76.9604 367.18 76.7781 368.149 76.7781 369.565Z" fill="black"/>
<path d="M61.7 315.89L62.8094 315.796C62.8927 316.338 63.0802 316.744 63.3719 317.015C63.674 317.286 64.0385 317.421 64.4656 317.421C64.9656 317.421 65.3927 317.229 65.7469 316.843C66.101 316.458 66.2781 315.953 66.2781 315.328C66.2781 314.723 66.1062 314.25 65.7625 313.906C65.4292 313.552 64.9865 313.375 64.4344 313.375C64.101 313.375 63.7937 313.453 63.5125 313.609C63.2417 313.765 63.0281 313.963 62.8719 314.203L61.8875 314.078L62.7156 309.671H66.9969V310.671H63.5594L63.1062 312.984C63.6167 312.619 64.1531 312.437 64.7156 312.437C65.4656 312.437 66.0958 312.697 66.6062 313.218C67.1271 313.739 67.3875 314.411 67.3875 315.234C67.3875 316.005 67.1635 316.677 66.7156 317.25C66.1635 317.937 65.4135 318.281 64.4656 318.281C63.6844 318.281 63.0437 318.062 62.5437 317.625C62.0542 317.187 61.7729 316.609 61.7 315.89ZM68.7 313.906C68.7 312.885 68.8042 312.067 69.0125 311.453C69.2208 310.828 69.5281 310.348 69.9344 310.015C70.351 309.682 70.8719 309.515 71.4969 309.515C71.9552 309.515 72.3562 309.609 72.7 309.796C73.0542 309.984 73.3458 310.255 73.575 310.609C73.8042 310.953 73.9812 311.375 74.1062 311.875C74.2312 312.375 74.2937 313.052 74.2937 313.906C74.2937 314.916 74.1896 315.729 73.9812 316.343C73.7833 316.958 73.476 317.437 73.0594 317.781C72.6531 318.114 72.1323 318.281 71.4969 318.281C70.674 318.281 70.0229 317.984 69.5437 317.39C68.9812 316.682 68.7 315.52 68.7 313.906ZM69.7781 313.906C69.7781 315.312 69.9448 316.25 70.2781 316.718C70.6115 317.187 71.0177 317.421 71.4969 317.421C71.9865 317.421 72.3927 317.187 72.7156 316.718C73.049 316.25 73.2156 315.312 73.2156 313.906C73.2156 312.489 73.049 311.552 72.7156 311.093C72.3927 310.625 71.9812 310.39 71.4812 310.39C71.0021 310.39 70.6167 310.593 70.325 311C69.9604 311.52 69.7781 312.489 69.7781 313.906ZM75.7 313.906C75.7 312.885 75.8042 312.067 76.0125 311.453C76.2208 310.828 76.5281 310.348 76.9344 310.015C77.351 309.682 77.8719 309.515 78.4969 309.515C78.9552 309.515 79.3562 309.609 79.7 309.796C80.0542 309.984 80.3458 310.255 80.575 310.609C80.8042 310.953 80.9812 311.375 81.1062 311.875C81.2312 312.375 81.2937 313.052 81.2937 313.906C81.2937 314.916 81.1896 315.729 80.9812 316.343C80.7833 316.958 80.476 317.437 80.0594 317.781C79.6531 318.114 79.1323 318.281 78.4969 318.281C77.674 318.281 77.0229 317.984 76.5437 317.39C75.9812 316.682 75.7 315.52 75.7 313.906ZM76.7781 313.906C76.7781 315.312 76.9448 316.25 77.2781 316.718C77.6115 317.187 78.0177 317.421 78.4969 317.421C78.9865 317.421 79.3927 317.187 79.7156 316.718C80.049 316.25 80.2156 315.312 80.2156 313.906C80.2156 312.489 80.049 311.552 79.7156 311.093C79.3927 310.625 78.9812 310.39 78.4812 310.39C78.0021 310.39 77.6167 310.593 77.325 311C76.9604 311.52 76.7781 312.489 76.7781 313.906Z" fill="black"/>
<path d="M58.6687 262.48H57.6219V255.761C57.3615 256.001 57.0229 256.246 56.6062 256.496C56.2 256.735 55.8354 256.912 55.5125 257.027V256.011C56.0958 255.73 56.6062 255.397 57.0437 255.011C57.4917 254.615 57.8094 254.23 57.9969 253.855H58.6687V262.48ZM61.7 258.246C61.7 257.225 61.8042 256.407 62.0125 255.792C62.2208 255.167 62.5281 254.688 62.9344 254.355C63.351 254.022 63.8719 253.855 64.4969 253.855C64.9552 253.855 65.3562 253.949 65.7 254.136C66.0542 254.324 66.3458 254.595 66.575 254.949C66.8042 255.292 66.9812 255.714 67.1062 256.214C67.2312 256.714 67.2937 257.391 67.2937 258.246C67.2937 259.256 67.1896 260.069 66.9812 260.683C66.7833 261.298 66.476 261.777 66.0594 262.121C65.6531 262.454 65.1323 262.621 64.4969 262.621C63.674 262.621 63.0229 262.324 62.5437 261.73C61.9812 261.022 61.7 259.86 61.7 258.246ZM62.7781 258.246C62.7781 259.652 62.9448 260.589 63.2781 261.058C63.6115 261.527 64.0177 261.761 64.4969 261.761C64.9865 261.761 65.3927 261.527 65.7156 261.058C66.049 260.589 66.2156 259.652 66.2156 258.246C66.2156 256.829 66.049 255.891 65.7156 255.433C65.3927 254.964 64.9812 254.73 64.4812 254.73C64.0021 254.73 63.6167 254.933 63.325 255.339C62.9604 255.86 62.7781 256.829 62.7781 258.246ZM68.7 258.246C68.7 257.225 68.8042 256.407 69.0125 255.792C69.2208 255.167 69.5281 254.688 69.9344 254.355C70.351 254.022 70.8719 253.855 71.4969 253.855C71.9552 253.855 72.3562 253.949 72.7 254.136C73.0542 254.324 73.3458 254.595 73.575 254.949C73.8042 255.292 73.9812 255.714 74.1062 256.214C74.2312 256.714 74.2937 257.391 74.2937 258.246C74.2937 259.256 74.1896 260.069 73.9812 260.683C73.7833 261.298 73.476 261.777 73.0594 262.121C72.6531 262.454 72.1323 262.621 71.4969 262.621C70.674 262.621 70.0229 262.324 69.5437 261.73C68.9812 261.022 68.7 259.86 68.7 258.246ZM69.7781 258.246C69.7781 259.652 69.9448 260.589 70.2781 261.058C70.6115 261.527 71.0177 261.761 71.4969 261.761C71.9865 261.761 72.3927 261.527 72.7156 261.058C73.049 260.589 73.2156 259.652 73.2156 258.246C73.2156 256.829 73.049 255.891 72.7156 255.433C72.3927 254.964 71.9812 254.73 71.4812 254.73C71.0021 254.73 70.6167 254.933 70.325 255.339C69.9604 255.86 69.7781 256.829 69.7781 258.246ZM75.7 258.246C75.7 257.225 75.8042 256.407 76.0125 255.792C76.2208 255.167 76.5281 254.688 76.9344 254.355C77.351 254.022 77.8719 253.855 78.4969 253.855C78.9552 253.855 79.3562 253.949 79.7 254.136C80.0542 254.324 80.3458 254.595 80.575 254.949C80.8042 255.292 80.9812 255.714 81.1062 256.214C81.2312 256.714 81.2937 257.391 81.2937 258.246C81.2937 259.256 81.1896 260.069 80.9812 260.683C80.7833 261.298 80.476 261.777 80.0594 262.121C79.6531 262.454 79.1323 262.621 78.4969 262.621C77.674 262.621 77.0229 262.324 76.5437 261.73C75.9812 261.022 75.7 259.86 75.7 258.246ZM76.7781 258.246C76.7781 259.652 76.9448 260.589 77.2781 261.058C77.6115 261.527 78.0177 261.761 78.4969 261.761C78.9865 261.761 79.3927 261.527 79.7156 261.058C80.049 260.589 80.2156 259.652 80.2156 258.246C80.2156 256.829 80.049 255.891 79.7156 255.433C79.3927 254.964 78.9812 254.73 78.4812 254.73C78.0021 254.73 77.6167 254.933 77.325 255.339C76.9604 255.86 76.7781 256.829 76.7781 258.246Z" fill="black"/>
<path d="M58.6687 206.82H57.6219V200.101C57.3615 200.341 57.0229 200.585 56.6062 200.835C56.2 201.075 55.8354 201.252 55.5125 201.367V200.351C56.0958 200.07 56.6062 199.736 57.0437 199.351C57.4917 198.955 57.8094 198.57 57.9969 198.195H58.6687V206.82ZM61.7 204.57L62.8094 204.476C62.8927 205.018 63.0802 205.424 63.3719 205.695C63.674 205.966 64.0385 206.101 64.4656 206.101C64.9656 206.101 65.3927 205.908 65.7469 205.523C66.101 205.138 66.2781 204.632 66.2781 204.007C66.2781 203.403 66.1062 202.929 65.7625 202.585C65.4292 202.231 64.9865 202.054 64.4344 202.054C64.101 202.054 63.7937 202.132 63.5125 202.289C63.2417 202.445 63.0281 202.643 62.8719 202.882L61.8875 202.757L62.7156 198.351H66.9969V199.351H63.5594L63.1062 201.664C63.6167 201.299 64.1531 201.117 64.7156 201.117C65.4656 201.117 66.0958 201.377 66.6062 201.898C67.1271 202.419 67.3875 203.091 67.3875 203.914C67.3875 204.684 67.1635 205.356 66.7156 205.929C66.1635 206.617 65.4135 206.96 64.4656 206.96C63.6844 206.96 63.0437 206.742 62.5437 206.304C62.0542 205.867 61.7729 205.289 61.7 204.57ZM68.7 202.585C68.7 201.565 68.8042 200.747 69.0125 200.132C69.2208 199.507 69.5281 199.028 69.9344 198.695C70.351 198.361 70.8719 198.195 71.4969 198.195C71.9552 198.195 72.3562 198.289 72.7 198.476C73.0542 198.664 73.3458 198.934 73.575 199.289C73.8042 199.632 73.9812 200.054 74.1062 200.554C74.2312 201.054 74.2937 201.731 74.2937 202.585C74.2937 203.596 74.1896 204.408 73.9812 205.023C73.7833 205.638 73.476 206.117 73.0594 206.46C72.6531 206.794 72.1323 206.96 71.4969 206.96C70.674 206.96 70.0229 206.664 69.5437 206.07C68.9812 205.361 68.7 204.2 68.7 202.585ZM69.7781 202.585C69.7781 203.992 69.9448 204.929 70.2781 205.398C70.6115 205.867 71.0177 206.101 71.4969 206.101C71.9865 206.101 72.3927 205.867 72.7156 205.398C73.049 204.929 73.2156 203.992 73.2156 202.585C73.2156 201.169 73.049 200.231 72.7156 199.773C72.3927 199.304 71.9812 199.07 71.4812 199.07C71.0021 199.07 70.6167 199.273 70.325 199.679C69.9604 200.2 69.7781 201.169 69.7781 202.585ZM75.7 202.585C75.7 201.565 75.8042 200.747 76.0125 200.132C76.2208 199.507 76.5281 199.028 76.9344 198.695C77.351 198.361 77.8719 198.195 78.4969 198.195C78.9552 198.195 79.3562 198.289 79.7 198.476C80.0542 198.664 80.3458 198.934 80.575 199.289C80.8042 199.632 80.9812 200.054 81.1062 200.554C81.2312 201.054 81.2937 201.731 81.2937 202.585C81.2937 203.596 81.1896 204.408 80.9812 205.023C80.7833 205.638 80.476 206.117 80.0594 206.46C79.6531 206.794 79.1323 206.96 78.4969 206.96C77.674 206.96 77.0229 206.664 76.5437 206.07C75.9812 205.361 75.7 204.2 75.7 202.585ZM76.7781 202.585C76.7781 203.992 76.9448 204.929 77.2781 205.398C77.6115 205.867 78.0177 206.101 78.4969 206.101C78.9865 206.101 79.3927 205.867 79.7156 205.398C80.049 204.929 80.2156 203.992 80.2156 202.585C80.2156 201.169 80.049 200.231 79.7156 199.773C79.3927 199.304 78.9812 199.07 78.4812 199.07C78.0021 199.07 77.6167 199.273 77.325 199.679C76.9604 200.2 76.7781 201.169 76.7781 202.585Z" fill="black"/>
<path d="M60.2469 150.145V151.16H54.5594C54.5594 150.91 54.601 150.665 54.6844 150.426C54.8302 150.04 55.0594 149.66 55.3719 149.285C55.6948 148.91 56.1583 148.478 56.7625 147.988C57.7 147.217 58.3302 146.608 58.6531 146.16C58.9865 145.712 59.1531 145.29 59.1531 144.895C59.1531 144.478 59.0021 144.129 58.7 143.848C58.3979 143.556 58.0073 143.41 57.5281 143.41C57.0177 143.41 56.6115 143.561 56.3094 143.863C56.0073 144.165 55.851 144.587 55.8406 145.129L54.7625 145.02C54.8354 144.207 55.1115 143.592 55.5906 143.176C56.0802 142.749 56.7365 142.535 57.5594 142.535C58.3823 142.535 59.0333 142.764 59.5125 143.223C59.9917 143.681 60.2312 144.249 60.2312 144.926C60.2312 145.27 60.1583 145.608 60.0125 145.941C59.8771 146.264 59.6427 146.613 59.3094 146.988C58.9865 147.353 58.45 147.853 57.7 148.488C57.0646 149.02 56.6531 149.384 56.4656 149.582C56.2885 149.77 56.1427 149.957 56.0281 150.145H60.2469ZM61.7 146.926C61.7 145.905 61.8042 145.087 62.0125 144.473C62.2208 143.848 62.5281 143.368 62.9344 143.035C63.351 142.702 63.8719 142.535 64.4969 142.535C64.9552 142.535 65.3562 142.629 65.7 142.816C66.0542 143.004 66.3458 143.275 66.575 143.629C66.8042 143.973 66.9812 144.395 67.1062 144.895C67.2312 145.395 67.2937 146.072 67.2937 146.926C67.2937 147.936 67.1896 148.749 66.9812 149.363C66.7833 149.978 66.476 150.457 66.0594 150.801C65.6531 151.134 65.1323 151.301 64.4969 151.301C63.674 151.301 63.0229 151.004 62.5437 150.41C61.9812 149.702 61.7 148.54 61.7 146.926ZM62.7781 146.926C62.7781 148.332 62.9448 149.27 63.2781 149.738C63.6115 150.207 64.0177 150.441 64.4969 150.441C64.9865 150.441 65.3927 150.207 65.7156 149.738C66.049 149.27 66.2156 148.332 66.2156 146.926C66.2156 145.509 66.049 144.572 65.7156 144.113C65.3927 143.645 64.9812 143.41 64.4812 143.41C64.0021 143.41 63.6167 143.613 63.325 144.02C62.9604 144.54 62.7781 145.509 62.7781 146.926ZM68.7 146.926C68.7 145.905 68.8042 145.087 69.0125 144.473C69.2208 143.848 69.5281 143.368 69.9344 143.035C70.351 142.702 70.8719 142.535 71.4969 142.535C71.9552 142.535 72.3562 142.629 72.7 142.816C73.0542 143.004 73.3458 143.275 73.575 143.629C73.8042 143.973 73.9812 144.395 74.1062 144.895C74.2312 145.395 74.2937 146.072 74.2937 146.926C74.2937 147.936 74.1896 148.749 73.9812 149.363C73.7833 149.978 73.476 150.457 73.0594 150.801C72.6531 151.134 72.1323 151.301 71.4969 151.301C70.674 151.301 70.0229 151.004 69.5437 150.41C68.9812 149.702 68.7 148.54 68.7 146.926ZM69.7781 146.926C69.7781 148.332 69.9448 149.27 70.2781 149.738C70.6115 150.207 71.0177 150.441 71.4969 150.441C71.9865 150.441 72.3927 150.207 72.7156 149.738C73.049 149.27 73.2156 148.332 73.2156 146.926C73.2156 145.509 73.049 144.572 72.7156 144.113C72.3927 143.645 71.9812 143.41 71.4812 143.41C71.0021 143.41 70.6167 143.613 70.325 144.02C69.9604 144.54 69.7781 145.509 69.7781 146.926ZM75.7 146.926C75.7 145.905 75.8042 145.087 76.0125 144.473C76.2208 143.848 76.5281 143.368 76.9344 143.035C77.351 142.702 77.8719 142.535 78.4969 142.535C78.9552 142.535 79.3562 142.629 79.7 142.816C80.0542 143.004 80.3458 143.275 80.575 143.629C80.8042 143.973 80.9812 144.395 81.1062 144.895C81.2312 145.395 81.2937 146.072 81.2937 146.926C81.2937 147.936 81.1896 148.749 80.9812 149.363C80.7833 149.978 80.476 150.457 80.0594 150.801C79.6531 151.134 79.1323 151.301 78.4969 151.301C77.674 151.301 77.0229 151.004 76.5437 150.41C75.9812 149.702 75.7 148.54 75.7 146.926ZM76.7781 146.926C76.7781 148.332 76.9448 149.27 77.2781 149.738C77.6115 150.207 78.0177 150.441 78.4969 150.441C78.9865 150.441 79.3927 150.207 79.7156 149.738C80.049 149.27 80.2156 148.332 80.2156 146.926C80.2156 145.509 80.049 144.572 79.7156 144.113C79.3927 143.645 78.9812 143.41 78.4812 143.41C78.0021 143.41 77.6167 143.613 77.325 144.02C76.9604 144.54 76.7781 145.509 76.7781 146.926Z" fill="black"/>
<path d="M60.2469 94.4844V95.5H54.5594C54.5594 95.25 54.601 95.0052 54.6844 94.7656C54.8302 94.3802 55.0594 94 55.3719 93.625C55.6948 93.25 56.1583 92.8177 56.7625 92.3281C57.7 91.5573 58.3302 90.9479 58.6531 90.5C58.9865 90.0521 59.1531 89.6302 59.1531 89.2344C59.1531 88.8177 59.0021 88.4688 58.7 88.1875C58.3979 87.8958 58.0073 87.75 57.5281 87.75C57.0177 87.75 56.6115 87.901 56.3094 88.2031C56.0073 88.5052 55.851 88.9271 55.8406 89.4688L54.7625 89.3594C54.8354 88.5469 55.1115 87.9323 55.5906 87.5156C56.0802 87.0885 56.7365 86.875 57.5594 86.875C58.3823 86.875 59.0333 87.1042 59.5125 87.5625C59.9917 88.0208 60.2312 88.5885 60.2312 89.2656C60.2312 89.6094 60.1583 89.9479 60.0125 90.2812C59.8771 90.6042 59.6427 90.9531 59.3094 91.3281C58.9865 91.6927 58.45 92.1927 57.7 92.8281C57.0646 93.3594 56.6531 93.724 56.4656 93.9219C56.2885 94.1094 56.1427 94.2969 56.0281 94.4844H60.2469ZM61.7 93.25L62.8094 93.1562C62.8927 93.6979 63.0802 94.1042 63.3719 94.375C63.674 94.6458 64.0385 94.7812 64.4656 94.7812C64.9656 94.7812 65.3927 94.5885 65.7469 94.2031C66.101 93.8177 66.2781 93.3125 66.2781 92.6875C66.2781 92.0833 66.1062 91.6094 65.7625 91.2656C65.4292 90.9115 64.9865 90.7344 64.4344 90.7344C64.101 90.7344 63.7937 90.8125 63.5125 90.9688C63.2417 91.125 63.0281 91.3229 62.8719 91.5625L61.8875 91.4375L62.7156 87.0312H66.9969V88.0312H63.5594L63.1062 90.3438C63.6167 89.9792 64.1531 89.7969 64.7156 89.7969C65.4656 89.7969 66.0958 90.0573 66.6062 90.5781C67.1271 91.099 67.3875 91.7708 67.3875 92.5938C67.3875 93.3646 67.1635 94.0365 66.7156 94.6094C66.1635 95.2969 65.4135 95.6406 64.4656 95.6406C63.6844 95.6406 63.0437 95.4219 62.5437 94.9844C62.0542 94.5469 61.7729 93.9688 61.7 93.25ZM68.7 91.2656C68.7 90.2448 68.8042 89.4271 69.0125 88.8125C69.2208 88.1875 69.5281 87.7083 69.9344 87.375C70.351 87.0417 70.8719 86.875 71.4969 86.875C71.9552 86.875 72.3562 86.9688 72.7 87.1562C73.0542 87.3438 73.3458 87.6146 73.575 87.9688C73.8042 88.3125 73.9812 88.7344 74.1062 89.2344C74.2312 89.7344 74.2937 90.4115 74.2937 91.2656C74.2937 92.276 74.1896 93.0885 73.9812 93.7031C73.7833 94.3177 73.476 94.7969 73.0594 95.1406C72.6531 95.474 72.1323 95.6406 71.4969 95.6406C70.674 95.6406 70.0229 95.3438 69.5437 94.75C68.9812 94.0417 68.7 92.8802 68.7 91.2656ZM69.7781 91.2656C69.7781 92.6719 69.9448 93.6094 70.2781 94.0781C70.6115 94.5469 71.0177 94.7812 71.4969 94.7812C71.9865 94.7812 72.3927 94.5469 72.7156 94.0781C73.049 93.6094 73.2156 92.6719 73.2156 91.2656C73.2156 89.849 73.049 88.9115 72.7156 88.4531C72.3927 87.9844 71.9812 87.75 71.4812 87.75C71.0021 87.75 70.6167 87.9531 70.325 88.3594C69.9604 88.8802 69.7781 89.849 69.7781 91.2656ZM75.7 91.2656C75.7 90.2448 75.8042 89.4271 76.0125 88.8125C76.2208 88.1875 76.5281 87.7083 76.9344 87.375C77.351 87.0417 77.8719 86.875 78.4969 86.875C78.9552 86.875 79.3562 86.9688 79.7 87.1562C80.0542 87.3438 80.3458 87.6146 80.575 87.9688C80.8042 88.3125 80.9812 88.7344 81.1062 89.2344C81.2312 89.7344 81.2937 90.4115 81.2937 91.2656C81.2937 92.276 81.1896 93.0885 80.9812 93.7031C80.7833 94.3177 80.476 94.7969 80.0594 95.1406C79.6531 95.474 79.1323 95.6406 78.4969 95.6406C77.674 95.6406 77.0229 95.3438 76.5437 94.75C75.9812 94.0417 75.7 92.8802 75.7 91.2656ZM76.7781 91.2656C76.7781 92.6719 76.9448 93.6094 77.2781 94.0781C77.6115 94.5469 78.0177 94.7812 78.4969 94.7812C78.9865 94.7812 79.3927 94.5469 79.7156 94.0781C80.049 93.6094 80.2156 92.6719 80.2156 91.2656C80.2156 89.849 80.049 88.9115 79.7156 88.4531C79.3927 87.9844 78.9812 87.75 78.4812 87.75C78.0021 87.75 77.6167 87.9531 77.325 88.3594C76.9604 88.8802 76.7781 89.849 76.7781 91.2656Z" fill="black"/>
<path d="M167.959 386.8V384.737H164.24V383.769L168.162 378.206H169.021V383.769H170.177V384.737H169.021V386.8H167.959ZM167.959 383.769V379.909L165.271 383.769H167.959ZM174.959 386.8V384.737H171.24V383.769L175.162 378.206H176.021V383.769H177.177V384.737H176.021V386.8H174.959ZM174.959 383.769V379.909L172.271 383.769H174.959ZM178.584 382.565C178.584 381.545 178.688 380.727 178.896 380.112C179.104 379.487 179.412 379.008 179.818 378.675C180.235 378.341 180.756 378.175 181.381 378.175C181.839 378.175 182.24 378.269 182.584 378.456C182.938 378.644 183.229 378.914 183.459 379.269C183.688 379.612 183.865 380.034 183.99 380.534C184.115 381.034 184.177 381.711 184.177 382.565C184.177 383.576 184.073 384.388 183.865 385.003C183.667 385.618 183.36 386.097 182.943 386.44C182.537 386.774 182.016 386.94 181.381 386.94C180.558 386.94 179.907 386.644 179.427 386.05C178.865 385.341 178.584 384.18 178.584 382.565ZM179.662 382.565C179.662 383.972 179.828 384.909 180.162 385.378C180.495 385.847 180.901 386.081 181.381 386.081C181.87 386.081 182.276 385.847 182.599 385.378C182.933 384.909 183.099 383.972 183.099 382.565C183.099 381.149 182.933 380.211 182.599 379.753C182.276 379.284 181.865 379.05 181.365 379.05C180.886 379.05 180.5 379.253 180.209 379.659C179.844 380.18 179.662 381.149 179.662 382.565ZM185.584 382.565C185.584 381.545 185.688 380.727 185.896 380.112C186.104 379.487 186.412 379.008 186.818 378.675C187.235 378.341 187.756 378.175 188.381 378.175C188.839 378.175 189.24 378.269 189.584 378.456C189.938 378.644 190.229 378.914 190.459 379.269C190.688 379.612 190.865 380.034 190.99 380.534C191.115 381.034 191.177 381.711 191.177 382.565C191.177 383.576 191.073 384.388 190.865 385.003C190.667 385.618 190.36 386.097 189.943 386.44C189.537 386.774 189.016 386.94 188.381 386.94C187.558 386.94 186.907 386.644 186.427 386.05C185.865 385.341 185.584 384.18 185.584 382.565ZM186.662 382.565C186.662 383.972 186.828 384.909 187.162 385.378C187.495 385.847 187.901 386.081 188.381 386.081C188.87 386.081 189.276 385.847 189.599 385.378C189.933 384.909 190.099 383.972 190.099 382.565C190.099 381.149 189.933 380.211 189.599 379.753C189.276 379.284 188.865 379.05 188.365 379.05C187.886 379.05 187.5 379.253 187.209 379.659C186.844 380.18 186.662 381.149 186.662 382.565ZM192.584 382.565C192.584 381.545 192.688 380.727 192.896 380.112C193.104 379.487 193.412 379.008 193.818 378.675C194.235 378.341 194.756 378.175 195.381 378.175C195.839 378.175 196.24 378.269 196.584 378.456C196.938 378.644 197.229 378.914 197.459 379.269C197.688 379.612 197.865 380.034 197.99 380.534C198.115 381.034 198.177 381.711 198.177 382.565C198.177 383.576 198.073 384.388 197.865 385.003C197.667 385.618 197.36 386.097 196.943 386.44C196.537 386.774 196.016 386.94 195.381 386.94C194.558 386.94 193.907 386.644 193.427 386.05C192.865 385.341 192.584 384.18 192.584 382.565ZM193.662 382.565C193.662 383.972 193.828 384.909 194.162 385.378C194.495 385.847 194.901 386.081 195.381 386.081C195.87 386.081 196.276 385.847 196.599 385.378C196.933 384.909 197.099 383.972 197.099 382.565C197.099 381.149 196.933 380.211 196.599 379.753C196.276 379.284 195.865 379.05 195.365 379.05C194.886 379.05 194.5 379.253 194.209 379.659C193.844 380.18 193.662 381.149 193.662 382.565Z" fill="black"/>
<path d="M289.236 386.8V384.737H285.517V383.769L289.439 378.206H290.299V383.769H291.455V384.737H290.299V386.8H289.236ZM289.236 383.769V379.909L286.549 383.769H289.236ZM296.236 386.8V384.737H292.517V383.769L296.439 378.206H297.299V383.769H298.455V384.737H297.299V386.8H296.236ZM296.236 383.769V379.909L293.549 383.769H296.236ZM305.408 385.784V386.8H299.72C299.72 386.55 299.762 386.305 299.845 386.065C299.991 385.68 300.22 385.3 300.533 384.925C300.856 384.55 301.319 384.118 301.924 383.628C302.861 382.857 303.491 382.248 303.814 381.8C304.148 381.352 304.314 380.93 304.314 380.534C304.314 380.118 304.163 379.769 303.861 379.487C303.559 379.196 303.168 379.05 302.689 379.05C302.179 379.05 301.773 379.201 301.47 379.503C301.168 379.805 301.012 380.227 301.002 380.769L299.924 380.659C299.997 379.847 300.273 379.232 300.752 378.815C301.241 378.388 301.898 378.175 302.72 378.175C303.543 378.175 304.194 378.404 304.674 378.862C305.153 379.321 305.392 379.888 305.392 380.565C305.392 380.909 305.319 381.248 305.174 381.581C305.038 381.904 304.804 382.253 304.47 382.628C304.148 382.993 303.611 383.493 302.861 384.128C302.226 384.659 301.814 385.024 301.627 385.222C301.45 385.409 301.304 385.597 301.189 385.784H305.408ZM306.861 382.565C306.861 381.545 306.965 380.727 307.174 380.112C307.382 379.487 307.689 379.008 308.095 378.675C308.512 378.341 309.033 378.175 309.658 378.175C310.116 378.175 310.517 378.269 310.861 378.456C311.215 378.644 311.507 378.914 311.736 379.269C311.965 379.612 312.142 380.034 312.267 380.534C312.392 381.034 312.455 381.711 312.455 382.565C312.455 383.576 312.351 384.388 312.142 385.003C311.944 385.618 311.637 386.097 311.22 386.44C310.814 386.774 310.293 386.94 309.658 386.94C308.835 386.94 308.184 386.644 307.705 386.05C307.142 385.341 306.861 384.18 306.861 382.565ZM307.939 382.565C307.939 383.972 308.106 384.909 308.439 385.378C308.773 385.847 309.179 386.081 309.658 386.081C310.148 386.081 310.554 385.847 310.877 385.378C311.21 384.909 311.377 383.972 311.377 382.565C311.377 381.149 311.21 380.211 310.877 379.753C310.554 379.284 310.142 379.05 309.642 379.05C309.163 379.05 308.778 379.253 308.486 379.659C308.121 380.18 307.939 381.149 307.939 382.565ZM313.861 382.565C313.861 381.545 313.965 380.727 314.174 380.112C314.382 379.487 314.689 379.008 315.095 378.675C315.512 378.341 316.033 378.175 316.658 378.175C317.116 378.175 317.517 378.269 317.861 378.456C318.215 378.644 318.507 378.914 318.736 379.269C318.965 379.612 319.142 380.034 319.267 380.534C319.392 381.034 319.455 381.711 319.455 382.565C319.455 383.576 319.351 384.388 319.142 385.003C318.944 385.618 318.637 386.097 318.22 386.44C317.814 386.774 317.293 386.94 316.658 386.94C315.835 386.94 315.184 386.644 314.705 386.05C314.142 385.341 313.861 384.18 313.861 382.565ZM314.939 382.565C314.939 383.972 315.106 384.909 315.439 385.378C315.773 385.847 316.179 386.081 316.658 386.081C317.148 386.081 317.554 385.847 317.877 385.378C318.21 384.909 318.377 383.972 318.377 382.565C318.377 381.149 318.21 380.211 317.877 379.753C317.554 379.284 317.142 379.05 316.642 379.05C316.163 379.05 315.778 379.253 315.486 379.659C315.121 380.18 314.939 381.149 314.939 382.565Z" fill="black"/>
<path d="M410.514 386.8V384.737H406.795V383.769L410.717 378.206H411.576V383.769H412.732V384.737H411.576V386.8H410.514ZM410.514 383.769V379.909L407.826 383.769H410.514ZM417.514 386.8V384.737H413.795V383.769L417.717 378.206H418.576V383.769H419.732V384.737H418.576V386.8H417.514ZM417.514 383.769V379.909L414.826 383.769H417.514ZM424.514 386.8V384.737H420.795V383.769L424.717 378.206H425.576V383.769H426.732V384.737H425.576V386.8H424.514ZM424.514 383.769V379.909L421.826 383.769H424.514ZM428.139 382.565C428.139 381.545 428.243 380.727 428.451 380.112C428.659 379.487 428.967 379.008 429.373 378.675C429.79 378.341 430.31 378.175 430.935 378.175C431.394 378.175 431.795 378.269 432.139 378.456C432.493 378.644 432.784 378.914 433.014 379.269C433.243 379.612 433.42 380.034 433.545 380.534C433.67 381.034 433.732 381.711 433.732 382.565C433.732 383.576 433.628 384.388 433.42 385.003C433.222 385.618 432.915 386.097 432.498 386.44C432.092 386.774 431.571 386.94 430.935 386.94C430.112 386.94 429.461 386.644 428.982 386.05C428.42 385.341 428.139 384.18 428.139 382.565ZM429.217 382.565C429.217 383.972 429.383 384.909 429.717 385.378C430.05 385.847 430.456 386.081 430.935 386.081C431.425 386.081 431.831 385.847 432.154 385.378C432.487 384.909 432.654 383.972 432.654 382.565C432.654 381.149 432.487 380.211 432.154 379.753C431.831 379.284 431.42 379.05 430.92 379.05C430.441 379.05 430.055 379.253 429.764 379.659C429.399 380.18 429.217 381.149 429.217 382.565ZM435.139 382.565C435.139 381.545 435.243 380.727 435.451 380.112C435.659 379.487 435.967 379.008 436.373 378.675C436.79 378.341 437.31 378.175 437.935 378.175C438.394 378.175 438.795 378.269 439.139 378.456C439.493 378.644 439.784 378.914 440.014 379.269C440.243 379.612 440.42 380.034 440.545 380.534C440.67 381.034 440.732 381.711 440.732 382.565C440.732 383.576 440.628 384.388 440.42 385.003C440.222 385.618 439.915 386.097 439.498 386.44C439.092 386.774 438.571 386.94 437.935 386.94C437.112 386.94 436.461 386.644 435.982 386.05C435.42 385.341 435.139 384.18 435.139 382.565ZM436.217 382.565C436.217 383.972 436.383 384.909 436.717 385.378C437.05 385.847 437.456 386.081 437.935 386.081C438.425 386.081 438.831 385.847 439.154 385.378C439.487 384.909 439.654 383.972 439.654 382.565C439.654 381.149 439.487 380.211 439.154 379.753C438.831 379.284 438.42 379.05 437.92 379.05C437.441 379.05 437.055 379.253 436.764 379.659C436.399 380.18 436.217 381.149 436.217 382.565Z" fill="black"/>
<path d="M531.791 386.8V384.737H528.072V383.769L531.994 378.206H532.853V383.769H534.01V384.737H532.853V386.8H531.791ZM531.791 383.769V379.909L529.103 383.769H531.791ZM538.791 386.8V384.737H535.072V383.769L538.994 378.206H539.853V383.769H541.01V384.737H539.853V386.8H538.791ZM538.791 383.769V379.909L536.103 383.769H538.791ZM547.885 380.315L546.838 380.394C546.744 379.977 546.614 379.675 546.447 379.487C546.156 379.185 545.801 379.034 545.385 379.034C545.051 379.034 544.754 379.128 544.494 379.315C544.171 379.565 543.911 379.925 543.713 380.394C543.525 380.852 543.426 381.508 543.416 382.362C543.666 381.977 543.973 381.69 544.338 381.503C544.713 381.315 545.103 381.222 545.51 381.222C546.208 381.222 546.801 381.482 547.291 382.003C547.791 382.524 548.041 383.19 548.041 384.003C548.041 384.545 547.921 385.05 547.682 385.519C547.452 385.977 547.135 386.331 546.728 386.581C546.322 386.821 545.864 386.94 545.353 386.94C544.468 386.94 543.749 386.618 543.197 385.972C542.645 385.326 542.369 384.263 542.369 382.784C542.369 381.118 542.676 379.909 543.291 379.159C543.822 378.503 544.541 378.175 545.447 378.175C546.124 378.175 546.676 378.368 547.103 378.753C547.541 379.128 547.801 379.649 547.885 380.315ZM543.588 384.019C543.588 384.383 543.661 384.732 543.807 385.065C543.963 385.388 544.176 385.638 544.447 385.815C544.728 385.993 545.025 386.081 545.338 386.081C545.775 386.081 546.156 385.904 546.478 385.55C546.801 385.185 546.963 384.696 546.963 384.081C546.963 383.487 546.801 383.019 546.478 382.675C546.166 382.331 545.77 382.159 545.291 382.159C544.812 382.159 544.406 382.331 544.072 382.675C543.749 383.019 543.588 383.466 543.588 384.019ZM549.416 382.565C549.416 381.545 549.52 380.727 549.728 380.112C549.937 379.487 550.244 379.008 550.65 378.675C551.067 378.341 551.588 378.175 552.213 378.175C552.671 378.175 553.072 378.269 553.416 378.456C553.77 378.644 554.062 378.914 554.291 379.269C554.52 379.612 554.697 380.034 554.822 380.534C554.947 381.034 555.01 381.711 555.01 382.565C555.01 383.576 554.906 384.388 554.697 385.003C554.499 385.618 554.192 386.097 553.775 386.44C553.369 386.774 552.848 386.94 552.213 386.94C551.39 386.94 550.739 386.644 550.26 386.05C549.697 385.341 549.416 384.18 549.416 382.565ZM550.494 382.565C550.494 383.972 550.661 384.909 550.994 385.378C551.327 385.847 551.734 386.081 552.213 386.081C552.702 386.081 553.109 385.847 553.432 385.378C553.765 384.909 553.932 383.972 553.932 382.565C553.932 381.149 553.765 380.211 553.432 379.753C553.109 379.284 552.697 379.05 552.197 379.05C551.718 379.05 551.333 379.253 551.041 379.659C550.676 380.18 550.494 381.149 550.494 382.565ZM556.416 382.565C556.416 381.545 556.52 380.727 556.728 380.112C556.937 379.487 557.244 379.008 557.65 378.675C558.067 378.341 558.588 378.175 559.213 378.175C559.671 378.175 560.072 378.269 560.416 378.456C560.77 378.644 561.062 378.914 561.291 379.269C561.52 379.612 561.697 380.034 561.822 380.534C561.947 381.034 562.01 381.711 562.01 382.565C562.01 383.576 561.906 384.388 561.697 385.003C561.499 385.618 561.192 386.097 560.775 386.44C560.369 386.774 559.848 386.94 559.213 386.94C558.39 386.94 557.739 386.644 557.26 386.05C556.697 385.341 556.416 384.18 556.416 382.565ZM557.494 382.565C557.494 383.972 557.661 384.909 557.994 385.378C558.327 385.847 558.734 386.081 559.213 386.081C559.702 386.081 560.109 385.847 560.432 385.378C560.765 384.909 560.932 383.972 560.932 382.565C560.932 381.149 560.765 380.211 560.432 379.753C560.109 379.284 559.697 379.05 559.197 379.05C558.718 379.05 558.333 379.253 558.041 379.659C557.676 380.18 557.494 381.149 557.494 382.565Z" fill="black"/>
<path d="M653.068 386.8V384.737H649.35V383.769L653.272 378.206H654.131V383.769H655.287V384.737H654.131V386.8H653.068ZM653.068 383.769V379.909L650.381 383.769H653.068ZM660.068 386.8V384.737H656.35V383.769L660.272 378.206H661.131V383.769H662.287V384.737H661.131V386.8H660.068ZM660.068 383.769V379.909L657.381 383.769H660.068ZM665.318 382.144C664.881 381.977 664.553 381.748 664.334 381.456C664.126 381.154 664.022 380.8 664.022 380.394C664.022 379.769 664.246 379.243 664.693 378.815C665.152 378.388 665.751 378.175 666.49 378.175C667.24 378.175 667.844 378.394 668.303 378.831C668.761 379.269 668.99 379.8 668.99 380.425C668.99 380.821 668.886 381.164 668.678 381.456C668.469 381.748 668.152 381.977 667.725 382.144C668.256 382.31 668.657 382.586 668.928 382.972C669.199 383.357 669.334 383.815 669.334 384.347C669.334 385.076 669.074 385.69 668.553 386.19C668.042 386.69 667.36 386.94 666.506 386.94C665.662 386.94 664.98 386.69 664.459 386.19C663.938 385.69 663.678 385.065 663.678 384.315C663.678 383.753 663.818 383.284 664.1 382.909C664.391 382.534 664.798 382.279 665.318 382.144ZM665.1 380.347C665.1 380.753 665.23 381.086 665.49 381.347C665.761 381.607 666.105 381.737 666.522 381.737C666.928 381.737 667.261 381.612 667.522 381.362C667.782 381.102 667.912 380.784 667.912 380.409C667.912 380.024 667.777 379.701 667.506 379.44C667.235 379.17 666.902 379.034 666.506 379.034C666.1 379.034 665.761 379.164 665.49 379.425C665.23 379.685 665.1 379.993 665.1 380.347ZM664.772 384.315C664.772 384.618 664.839 384.909 664.975 385.19C665.12 385.472 665.334 385.69 665.615 385.847C665.897 386.003 666.199 386.081 666.522 386.081C667.022 386.081 667.433 385.92 667.756 385.597C668.089 385.274 668.256 384.862 668.256 384.362C668.256 383.852 668.089 383.43 667.756 383.097C667.423 382.763 667.001 382.597 666.49 382.597C665.99 382.597 665.579 382.763 665.256 383.097C664.933 383.42 664.772 383.826 664.772 384.315ZM670.693 382.565C670.693 381.545 670.798 380.727 671.006 380.112C671.214 379.487 671.522 379.008 671.928 378.675C672.344 378.341 672.865 378.175 673.49 378.175C673.949 378.175 674.35 378.269 674.693 378.456C675.048 378.644 675.339 378.914 675.568 379.269C675.798 379.612 675.975 380.034 676.1 380.534C676.225 381.034 676.287 381.711 676.287 382.565C676.287 383.576 676.183 384.388 675.975 385.003C675.777 385.618 675.469 386.097 675.053 386.44C674.647 386.774 674.126 386.94 673.49 386.94C672.667 386.94 672.016 386.644 671.537 386.05C670.975 385.341 670.693 384.18 670.693 382.565ZM671.772 382.565C671.772 383.972 671.938 384.909 672.272 385.378C672.605 385.847 673.011 386.081 673.49 386.081C673.98 386.081 674.386 385.847 674.709 385.378C675.042 384.909 675.209 383.972 675.209 382.565C675.209 381.149 675.042 380.211 674.709 379.753C674.386 379.284 673.975 379.05 673.475 379.05C672.995 379.05 672.61 379.253 672.318 379.659C671.954 380.18 671.772 381.149 671.772 382.565ZM677.693 382.565C677.693 381.545 677.798 380.727 678.006 380.112C678.214 379.487 678.522 379.008 678.928 378.675C679.344 378.341 679.865 378.175 680.49 378.175C680.949 378.175 681.35 378.269 681.693 378.456C682.048 378.644 682.339 378.914 682.568 379.269C682.798 379.612 682.975 380.034 683.1 380.534C683.225 381.034 683.287 381.711 683.287 382.565C683.287 383.576 683.183 384.388 682.975 385.003C682.777 385.618 682.469 386.097 682.053 386.44C681.647 386.774 681.126 386.94 680.49 386.94C679.667 386.94 679.016 386.644 678.537 386.05C677.975 385.341 677.693 384.18 677.693 382.565ZM678.772 382.565C678.772 383.972 678.938 384.909 679.272 385.378C679.605 385.847 680.011 386.081 680.49 386.081C680.98 386.081 681.386 385.847 681.709 385.378C682.042 384.909 682.209 383.972 682.209 382.565C682.209 381.149 682.042 380.211 681.709 379.753C681.386 379.284 680.975 379.05 680.475 379.05C679.995 379.05 679.61 379.253 679.318 379.659C678.954 380.18 678.772 381.149 678.772 382.565Z" fill="black"/>
<path d="M576.847 65.5127V66.7002H570.222C570.211 66.4085 570.258 66.1221 570.363 65.8408C570.54 65.3929 570.81 64.9502 571.175 64.5127C571.55 64.0752 572.086 63.57 572.784 62.9971C573.878 62.1012 574.613 61.3929 574.988 60.8721C575.373 60.3512 575.566 59.8564 575.566 59.3877C575.566 58.8981 575.389 58.4867 575.034 58.1533C574.691 57.82 574.243 57.6533 573.691 57.6533C573.097 57.6533 572.618 57.8304 572.253 58.1846C571.899 58.5387 571.722 59.0335 571.722 59.6689L570.456 59.5283C570.54 58.5908 570.862 57.8773 571.425 57.3877C571.998 56.8877 572.758 56.6377 573.706 56.6377C574.675 56.6377 575.435 56.9033 575.988 57.4346C576.55 57.9658 576.831 58.6273 576.831 59.4189C576.831 59.8252 576.748 60.221 576.581 60.6064C576.425 60.9919 576.154 61.3981 575.769 61.8252C575.394 62.2523 574.764 62.8408 573.878 63.5908C573.139 64.2054 572.665 64.6273 572.456 64.8564C572.248 65.0752 572.076 65.2939 571.941 65.5127H576.847ZM578.378 61.7627C578.378 60.5752 578.498 59.6221 578.738 58.9033C578.988 58.1742 579.352 57.6169 579.831 57.2314C580.31 56.8356 580.915 56.6377 581.644 56.6377C582.185 56.6377 582.659 56.7471 583.066 56.9658C583.472 57.1846 583.805 57.4971 584.066 57.9033C584.336 58.3096 584.545 58.8044 584.691 59.3877C584.836 59.971 584.909 60.7627 584.909 61.7627C584.909 62.9398 584.79 63.8877 584.55 64.6064C584.31 65.3252 583.951 65.8825 583.472 66.2783C582.993 66.6742 582.383 66.8721 581.644 66.8721C580.685 66.8721 579.93 66.5231 579.378 65.8252C578.711 64.9919 578.378 63.6377 578.378 61.7627ZM579.644 61.7627C579.644 63.4085 579.836 64.5023 580.222 65.0439C580.607 65.5856 581.081 65.8564 581.644 65.8564C582.217 65.8564 582.696 65.5856 583.081 65.0439C583.467 64.4919 583.659 63.3981 583.659 61.7627C583.659 60.1064 583.467 59.0075 583.081 58.4658C582.696 57.9242 582.211 57.6533 581.628 57.6533C581.066 57.6533 580.618 57.8929 580.284 58.3721C579.857 58.9867 579.644 60.1169 579.644 61.7627ZM592.847 65.5127V66.7002H586.222C586.211 66.4085 586.258 66.1221 586.363 65.8408C586.54 65.3929 586.81 64.9502 587.175 64.5127C587.55 64.0752 588.086 63.57 588.784 62.9971C589.878 62.1012 590.613 61.3929 590.988 60.8721C591.373 60.3512 591.566 59.8564 591.566 59.3877C591.566 58.8981 591.389 58.4867 591.034 58.1533C590.691 57.82 590.243 57.6533 589.691 57.6533C589.097 57.6533 588.618 57.8304 588.253 58.1846C587.899 58.5387 587.722 59.0335 587.722 59.6689L586.456 59.5283C586.54 58.5908 586.862 57.8773 587.425 57.3877C587.998 56.8877 588.758 56.6377 589.706 56.6377C590.675 56.6377 591.435 56.9033 591.988 57.4346C592.55 57.9658 592.831 58.6273 592.831 59.4189C592.831 59.8252 592.748 60.221 592.581 60.6064C592.425 60.9919 592.154 61.3981 591.769 61.8252C591.394 62.2523 590.764 62.8408 589.878 63.5908C589.139 64.2054 588.665 64.6273 588.456 64.8564C588.248 65.0752 588.076 65.2939 587.941 65.5127H592.847ZM600.847 65.5127V66.7002H594.222C594.211 66.4085 594.258 66.1221 594.363 65.8408C594.54 65.3929 594.81 64.9502 595.175 64.5127C595.55 64.0752 596.086 63.57 596.784 62.9971C597.878 62.1012 598.613 61.3929 598.988 60.8721C599.373 60.3512 599.566 59.8564 599.566 59.3877C599.566 58.8981 599.389 58.4867 599.034 58.1533C598.691 57.82 598.243 57.6533 597.691 57.6533C597.097 57.6533 596.618 57.8304 596.253 58.1846C595.899 58.5387 595.722 59.0335 595.722 59.6689L594.456 59.5283C594.54 58.5908 594.862 57.8773 595.425 57.3877C595.998 56.8877 596.758 56.6377 597.706 56.6377C598.675 56.6377 599.435 56.9033 599.988 57.4346C600.55 57.9658 600.831 58.6273 600.831 59.4189C600.831 59.8252 600.748 60.221 600.581 60.6064C600.425 60.9919 600.154 61.3981 599.769 61.8252C599.394 62.2523 598.764 62.8408 597.878 63.5908C597.139 64.2054 596.665 64.6273 596.456 64.8564C596.248 65.0752 596.076 65.2939 595.941 65.5127H600.847Z" fill="#999999"/>
<path d="M606.175 58.1689C605.487 59.3669 604.633 60.3669 603.612 61.1689L602.847 60.1846C604.336 59.0908 605.357 57.5075 605.909 55.4346L607.159 55.7627C607.305 55.9085 607.253 55.9971 607.003 56.0283L606.566 57.1221H614.269V58.1689H610.284V60.0283H613.566V61.0596H610.284V63.5283H614.878V64.5596H610.284V67.8564H609.191V64.5596H602.894V63.5283H605.362V60.0283H609.191V58.1689H606.175ZM606.456 63.5283H609.191V61.0596H606.456V63.5283Z" fill="#999999"/>
<path d="M616.566 64.3877L617.753 64.2783C617.847 64.8304 618.034 65.2314 618.316 65.4814C618.607 65.7314 618.972 65.8564 619.409 65.8564C619.784 65.8564 620.112 65.7731 620.394 65.6064C620.685 65.4294 620.92 65.195 621.097 64.9033C621.284 64.6117 621.441 64.221 621.566 63.7314C621.691 63.2419 621.753 62.7419 621.753 62.2314C621.753 62.1794 621.748 62.096 621.737 61.9814C621.498 62.3773 621.165 62.7002 620.737 62.9502C620.31 63.1898 619.847 63.3096 619.347 63.3096C618.514 63.3096 617.81 63.0075 617.237 62.4033C616.665 61.7992 616.378 61.0075 616.378 60.0283C616.378 59.0075 616.675 58.1898 617.269 57.5752C617.873 56.9502 618.628 56.6377 619.534 56.6377C620.18 56.6377 620.774 56.8148 621.316 57.1689C621.857 57.5127 622.269 58.0127 622.55 58.6689C622.831 59.3148 622.972 60.2523 622.972 61.4814C622.972 62.7627 622.831 63.7835 622.55 64.5439C622.279 65.3044 621.868 65.8825 621.316 66.2783C620.764 66.6742 620.118 66.8721 619.378 66.8721C618.597 66.8721 617.956 66.6533 617.456 66.2158C616.967 65.7783 616.67 65.1689 616.566 64.3877ZM621.597 59.9658C621.597 59.2575 621.409 58.695 621.034 58.2783C620.659 57.8617 620.211 57.6533 619.691 57.6533C619.139 57.6533 618.659 57.8773 618.253 58.3252C617.847 58.7731 617.644 59.3512 617.644 60.0596C617.644 60.695 617.836 61.2158 618.222 61.6221C618.607 62.0179 619.081 62.2158 619.644 62.2158C620.217 62.2158 620.685 62.0179 621.05 61.6221C621.415 61.2158 621.597 60.6637 621.597 59.9658Z" fill="#999999"/>
<path d="M633.706 63.5283H628.503C628.503 65.0908 627.701 66.57 626.097 67.9658L625.175 66.9189C626.665 65.971 627.409 64.5492 627.409 62.6533V55.9814H634.8V66.7627C634.8 67.346 634.487 67.6377 633.862 67.6377H632.55L632.331 66.4189H633.487C633.633 66.4189 633.706 66.346 633.706 66.2002V63.5283ZM628.503 62.3252H633.706V60.3564H628.503V62.3252ZM628.503 59.1533H633.706V57.1846H628.503V59.1533Z" fill="#999999"/>
<path d="M644.847 65.5127V66.7002H638.222C638.211 66.4085 638.258 66.1221 638.363 65.8408C638.54 65.3929 638.81 64.9502 639.175 64.5127C639.55 64.0752 640.086 63.57 640.784 62.9971C641.878 62.1012 642.613 61.3929 642.988 60.8721C643.373 60.3512 643.566 59.8564 643.566 59.3877C643.566 58.8981 643.389 58.4867 643.034 58.1533C642.691 57.82 642.243 57.6533 641.691 57.6533C641.097 57.6533 640.618 57.8304 640.253 58.1846C639.899 58.5387 639.722 59.0335 639.722 59.6689L638.456 59.5283C638.54 58.5908 638.862 57.8773 639.425 57.3877C639.998 56.8877 640.758 56.6377 641.706 56.6377C642.675 56.6377 643.435 56.9033 643.988 57.4346C644.55 57.9658 644.831 58.6273 644.831 59.4189C644.831 59.8252 644.748 60.221 644.581 60.6064C644.425 60.9919 644.154 61.3981 643.769 61.8252C643.394 62.2523 642.764 62.8408 641.878 63.5908C641.139 64.2054 640.665 64.6273 640.456 64.8564C640.248 65.0752 640.076 65.2939 639.941 65.5127H644.847ZM646.566 64.3877L647.753 64.2783C647.847 64.8304 648.034 65.2314 648.316 65.4814C648.607 65.7314 648.972 65.8564 649.409 65.8564C649.784 65.8564 650.113 65.7731 650.394 65.6064C650.685 65.4294 650.92 65.195 651.097 64.9033C651.284 64.6117 651.441 64.221 651.566 63.7314C651.691 63.2419 651.753 62.7419 651.753 62.2314C651.753 62.1794 651.748 62.096 651.738 61.9814C651.498 62.3773 651.165 62.7002 650.738 62.9502C650.31 63.1898 649.847 63.3096 649.347 63.3096C648.514 63.3096 647.81 63.0075 647.238 62.4033C646.665 61.7992 646.378 61.0075 646.378 60.0283C646.378 59.0075 646.675 58.1898 647.269 57.5752C647.873 56.9502 648.628 56.6377 649.534 56.6377C650.18 56.6377 650.774 56.8148 651.316 57.1689C651.857 57.5127 652.269 58.0127 652.55 58.6689C652.831 59.3148 652.972 60.2523 652.972 61.4814C652.972 62.7627 652.831 63.7835 652.55 64.5439C652.279 65.3044 651.868 65.8825 651.316 66.2783C650.764 66.6742 650.118 66.8721 649.378 66.8721C648.597 66.8721 647.956 66.6533 647.456 66.2158C646.967 65.7783 646.67 65.1689 646.566 64.3877ZM651.597 59.9658C651.597 59.2575 651.409 58.695 651.034 58.2783C650.659 57.8617 650.211 57.6533 649.691 57.6533C649.139 57.6533 648.659 57.8773 648.253 58.3252C647.847 58.7731 647.644 59.3512 647.644 60.0596C647.644 60.695 647.836 61.2158 648.222 61.6221C648.607 62.0179 649.081 62.2158 649.644 62.2158C650.217 62.2158 650.685 62.0179 651.05 61.6221C651.415 61.2158 651.597 60.6637 651.597 59.9658Z" fill="#999999"/>
<path d="M657.8 67.2002H656.534V56.6377H665.128V66.9814H663.862V66.2002H657.8V67.2002ZM663.862 60.7939V57.6689H657.8V60.7939H663.862ZM663.862 65.1689V61.8252H657.8V65.1689H663.862ZM678.081 59.8564H680.659V60.7314H678.362V61.9971H680.222V62.8721H678.362V64.1846H680.222V65.0596H678.362V66.4189H681.097V67.3096H675.566V67.8564H674.644V61.7783C674.352 62.1742 673.987 62.5387 673.55 62.8721L673.159 61.8252C674.545 60.5856 675.441 59.2939 675.847 57.9502H674.581V59.2002H673.659V57.0752H676.066C676.211 56.4919 676.336 55.8721 676.441 55.2158L677.534 55.4814C677.649 55.596 677.612 55.7054 677.425 55.8096C677.321 56.2471 677.211 56.6689 677.097 57.0752H680.987V58.9814H680.05V57.9502H676.878C676.659 58.7106 676.368 59.346 676.003 59.8564H677.159L677.862 58.2158L678.909 58.4346C679.086 58.5075 679.05 58.6012 678.8 58.7158L678.081 59.8564ZM668.847 57.3408V56.3096H673.487V57.3408H671.581C671.508 58.4762 671.269 59.5179 670.862 60.4658H673.003V66.9814H672.066V66.0908H670.644V67.5283H669.722V62.5908C669.503 62.9554 669.264 63.2835 669.003 63.5752L668.3 62.6533C669.571 61.2262 670.316 59.4554 670.534 57.3408H668.847ZM675.566 62.8721V64.1846H677.425V62.8721H675.566ZM675.566 60.7314V61.9971H677.425V60.7314H675.566ZM675.566 65.0596V66.4189H677.425V65.0596H675.566ZM670.644 61.3408V65.2158H672.066V61.3408H670.644ZM687.222 61.4502C688.566 61.0856 689.42 60.3721 689.784 59.3096L688.316 58.7158L688.691 57.7783L690.003 58.2783L690.112 56.9658H687.816V55.9189H694.378L694.269 60.6221C694.237 61.5387 693.857 61.9971 693.128 61.9971H691.862L691.753 60.9502H692.909C693.128 60.9502 693.237 60.8408 693.237 60.6221L693.347 56.9658H691.206L691.05 58.7158L692.362 59.4189L691.862 60.4033L690.769 59.8096C690.3 61.1533 689.264 62.0648 687.659 62.5439L687.222 61.4502ZM694.159 66.9189C693.868 65.8252 693.415 64.8773 692.8 64.0752L693.784 63.6377C694.586 64.6169 695.097 65.5439 695.316 66.4189L694.159 66.9189ZM686.831 63.4658V67.6846H685.909V67.3096H684.05V67.9033H683.112V63.4658H686.831ZM687.269 66.9814C687.529 66.0648 687.696 65.0231 687.769 63.8564L688.862 63.9658C688.935 63.9971 688.899 64.0856 688.753 64.2314C688.711 65.3981 688.545 66.4033 688.253 67.2471L687.269 66.9814ZM690.769 61.6689C691.279 61.9919 691.79 62.5544 692.3 63.3564L691.269 63.9658C691.008 63.4554 690.571 62.8721 689.956 62.2158L690.769 61.6689ZM683.331 55.7002H686.612V56.7471H683.331V55.7002ZM682.628 57.5596H687.331V58.6064H682.628V57.5596ZM683.331 59.5908H686.612V60.6221H683.331V59.5908ZM683.331 61.4502H686.612V62.4814H683.331V61.4502ZM684.05 64.3408V66.4189H685.909V64.3408H684.05ZM690.222 63.3096C690.514 63.3408 690.534 63.4502 690.284 63.6377V66.2002C690.284 66.4606 690.394 66.5908 690.612 66.5908H691.816C692.034 66.5908 692.159 66.4814 692.191 66.2627L692.3 65.3877L693.394 65.6533L693.175 66.8096C693.071 67.3617 692.743 67.6377 692.191 67.6377H690.112C689.498 67.6377 689.191 67.3044 689.191 66.6377V63.3096H690.222Z" fill="#999999"/>
<path d="M32.9031 24.8721C33.424 24.9762 33.45 25.1846 32.9812 25.4971V26.7471H40.7937V28.2314H23.3719V26.7471H31.1844V24.8721H32.9031ZM35.8719 30.4971H28.3719V32.1377H35.8719V30.4971ZM27.0437 33.3877V29.2471H37.2V33.3877H27.0437ZM39.8562 41.5127C39.8562 42.346 39.4396 42.7627 38.6062 42.7627H37.1219L36.8094 41.2783H37.9812C38.1896 41.2783 38.2937 41.1742 38.2937 40.9658V35.9658H25.95V42.9971H24.3875V34.4814H39.8562V41.5127ZM29.4656 40.8877V41.7471H28.1375V36.9033H36.1062V40.8877H29.4656ZM29.4656 39.6377H34.7781V38.1533H29.4656V39.6377ZM43.5281 34.3252V32.8408H47.5906V29.6377H46.575C46.1062 30.5752 45.4552 31.4085 44.6219 32.1377L43.45 30.9658C45.0125 29.6637 46.1062 27.7367 46.7312 25.1846L48.2937 25.6533C48.6062 25.8096 48.5281 25.9658 48.0594 26.1221C47.851 26.7471 47.5646 27.4242 47.2 28.1533H52.1219V29.6377H49.1531V32.8408H53.0594V34.3252H49.1531C49.1531 35.0023 49.101 35.6794 48.9969 36.3564C50.0906 37.1377 51.3927 38.3617 52.9031 40.0283L51.8094 41.5127C50.351 39.6898 49.2833 38.4137 48.6062 37.6846C48.0333 39.5075 46.7052 41.096 44.6219 42.4502L43.5281 41.0439C46.2365 39.7419 47.5906 37.5023 47.5906 34.3252H43.5281ZM60.1687 27.6064V41.6689H58.6062V40.4189H55.325V41.9033H53.7625V27.6064H60.1687ZM58.6062 29.0908H55.325V38.9346H58.6062V29.0908ZM76.1844 37.6064C77.226 38.6481 78.7625 39.6898 80.7937 40.7314L79.8562 42.3721C78.0854 41.5387 76.4187 40.3408 74.8562 38.7783L76.1844 37.6064ZM69.3875 39.0127C68.5021 40.2627 67.1479 41.4867 65.325 42.6846L64.1531 41.2002C65.8198 40.2106 67.1479 39.0387 68.1375 37.6846L69.6219 38.5439C69.8823 38.7523 69.8042 38.9085 69.3875 39.0127ZM66.1844 36.9814V37.7627H64.6219V26.5127H66.1062C66.5229 26.5648 66.549 26.721 66.1844 26.9814V35.4971H80.5594V36.9814H73.2937V42.9971H71.4969V36.9814H66.1844ZM69.6219 33.2314H76.4187V31.7471H69.6219V33.2314ZM69.6219 30.4971H76.4187V29.2471H69.6219V30.4971ZM69.6219 27.9971H76.4187V26.7471H69.6219V27.9971ZM68.0594 34.4814V25.4971H77.9812V34.4814H68.0594ZM92.9812 30.1846C92.0958 35.3929 91.0281 38.6221 89.7781 39.8721C89.101 40.5492 88.3979 40.8877 87.6687 40.8877C86.8354 40.8877 86.1844 40.6533 85.7156 40.1846C84.4656 38.9346 83.8406 37.3721 83.8406 35.4971C83.8406 33.2054 84.6479 31.2523 86.2625 29.6377C88.0333 27.8669 90.1948 26.9814 92.7469 26.9814C95.0385 26.9814 96.8354 27.6325 98.1375 28.9346C99.5958 30.3929 100.325 32.1117 100.325 34.0908C100.325 36.2262 99.6479 37.971 98.2937 39.3252C97.4083 40.2106 96.0542 41.07 94.2312 41.9033L92.5906 40.2627C94.4135 39.6898 95.8458 38.8825 96.8875 37.8408C97.8771 36.8512 98.3719 35.6533 98.3719 34.2471C98.3719 32.5804 97.825 31.2002 96.7312 30.1064C95.6375 29.0127 93.9187 28.5179 91.575 28.6221L92.9812 29.3252C93.6062 29.5856 93.6062 29.8721 92.9812 30.1846ZM91.1844 28.7002C89.8302 29.0127 88.6583 29.6637 87.6687 30.6533C86.3146 32.0075 85.6375 33.6742 85.6375 35.6533C85.6375 36.8512 86.0281 37.8408 86.8094 38.6221C86.9656 38.7783 87.2 38.8564 87.5125 38.8564C87.825 38.8564 88.1635 38.6742 88.5281 38.3096C89.726 37.1117 90.6115 33.9085 91.1844 28.7002ZM110.325 41.5127C112.46 40.3669 113.528 38.4137 113.528 35.6533V26.6689L115.169 26.9814L119.387 25.6533L120.559 27.2158C120.664 27.5283 120.481 27.5804 120.012 27.3721L115.091 28.3096V31.6689H121.262V33.1533H118.919V42.9189H117.356V33.1533H115.091V36.1221C115.091 39.195 113.789 41.4867 111.184 42.9971L110.325 41.5127ZM108.841 42.9971H107.278V38.3096C106.445 39.6637 105.533 40.7314 104.544 41.5127L103.372 40.1064C104.83 39.0648 106.054 37.7627 107.044 36.2002H103.762V34.7158H107.278V32.9971H103.294V31.5127H108.762L109.622 28.7002H103.841V27.2158H107.278V25.0283H108.762C109.179 25.0804 109.205 25.2367 108.841 25.4971V27.2158H112.278V28.7002H111.262L110.169 31.5127H112.669V32.9971H108.841V34.7158H112.278V36.2002H108.841V36.9033C109.57 37.1117 110.585 37.6585 111.887 38.5439L110.95 40.1064C110.221 39.3773 109.518 38.8044 108.841 38.3877V42.9971ZM105.716 31.3564C105.507 30.6273 105.221 29.9242 104.856 29.2471L106.341 28.7783C106.757 29.4554 107.07 30.1585 107.278 30.8877L105.716 31.3564ZM138.45 33.5439H133.372V35.2627H138.45V33.5439ZM136.341 36.7471H134.934V37.5283C134.934 40.7575 133.085 42.6585 129.387 43.2314L128.919 41.5908C131.887 41.2262 133.372 39.82 133.372 37.3721V36.7471H132.591H131.809V25.8096H140.012V36.7471H137.903V40.6533C137.903 41.07 138.085 41.2783 138.45 41.2783H139.231C139.492 41.2783 139.648 41.0179 139.7 40.4971L139.856 39.1689L141.419 39.6377L141.184 41.4346C141.08 42.32 140.585 42.7627 139.7 42.7627H137.747C136.809 42.7627 136.341 42.32 136.341 41.4346V36.7471ZM133.372 32.0596H138.45V30.4189H133.372V32.0596ZM133.372 28.9346H138.45V27.2939H133.372V28.9346ZM127.747 35.8877C128.789 36.3564 130.012 37.2158 131.419 38.4658L130.325 40.1064C129.231 38.9085 128.268 38.0231 127.434 37.4502C126.914 39.7419 125.82 41.5387 124.153 42.8408L122.981 41.4346C125.273 39.5075 126.367 37.0075 126.262 33.9346H123.294V32.4502H126.341V29.6377H123.841V28.1533H126.341V25.0283H127.825C128.242 25.0804 128.268 25.2367 127.903 25.4971V28.1533H130.637V29.6377H127.903V32.4502H131.028V33.9346H127.825C127.825 34.7679 127.799 35.4189 127.747 35.8877ZM147.825 32.1377C148.815 33.4919 149.309 34.8981 149.309 36.3564C149.309 38.3877 148.71 39.4033 147.512 39.4033H146.575L146.262 37.8408H147.044C147.565 37.8408 147.799 37.2939 147.747 36.2002C147.695 34.6898 147.226 33.3617 146.341 32.2158L147.903 27.1377H145.481V42.7627H143.919V25.8877H148.294L148.606 25.4971L149.934 26.6689L149.622 26.9814L147.825 32.1377ZM159.153 36.5127H158.372C157.539 40.3148 154.752 42.5023 150.012 43.0752L149.544 41.5908C153.606 41.2783 156.054 39.5856 156.887 36.5127H155.794C154.908 38.7002 153.033 40.0283 150.169 40.4971L149.7 39.1689C152.096 38.6481 153.58 37.7627 154.153 36.5127H152.903C152.174 37.2419 151.236 37.8148 150.091 38.2314L149.466 36.9033C151.132 36.3825 152.278 35.3929 152.903 33.9346H149.387V32.6846H161.106V33.9346H154.544C154.335 34.4033 154.075 34.846 153.762 35.2627H160.637L160.481 40.1846C160.429 41.8512 159.83 42.6846 158.684 42.6846H157.122L156.887 41.2002H158.216C158.684 41.2002 158.945 40.8877 158.997 40.2627L159.153 36.5127ZM152.512 30.4189H157.825V29.0908H152.512V30.4189ZM152.512 27.8408H157.825V26.5908H152.512V27.8408ZM159.153 25.3408V31.6689H151.184V25.3408H159.153ZM172.434 29.3252H174.544V25.2627H176.028C176.445 25.3148 176.471 25.471 176.106 25.7314V29.3252H180.325V30.8096H176.106V34.5596H180.091V36.0439H176.106V40.6533H181.262V42.1377H169.309V40.6533H174.544V36.0439H170.716V34.5596H174.544V30.8096H171.966C171.601 31.8512 171.028 32.8929 170.247 33.9346L168.919 32.9189C170.273 31.1481 171.158 29.0127 171.575 26.5127L173.059 26.8252C173.476 26.9814 173.476 27.1377 173.059 27.2939L172.434 29.3252ZM165.794 25.0283H167.278C167.695 25.0804 167.721 25.2367 167.356 25.4971V42.8408H165.794V25.0283ZM168.762 28.2314C169.231 28.8564 169.622 29.5596 169.934 30.3408L168.684 31.2002C168.32 30.3148 167.955 29.5856 167.591 29.0127L168.762 28.2314ZM165.325 29.0908C165.69 29.195 165.69 29.3512 165.325 29.5596C165.221 31.2262 164.986 32.7887 164.622 34.2471L163.137 33.7783C163.554 32.4762 163.789 30.8356 163.841 28.8564L165.325 29.0908ZM198.137 33.6221V42.6846H196.575V41.9033H189.544V42.9189H187.981V35.8096C186.627 36.5387 185.169 37.1117 183.606 37.5283L183.059 36.1221C184.518 35.7575 186.158 35.1064 187.981 34.1689V33.6221H189.075C190.169 32.9971 191.106 32.3721 191.887 31.7471H183.684V30.2627H190.559V28.3877H185.716V26.9033H190.559V25.0283H192.044C192.46 25.0804 192.486 25.2367 192.122 25.4971V26.9033H195.872V28.2314C196.497 27.5544 197.122 26.7992 197.747 25.9658L198.841 26.6689C199.205 26.9294 199.153 27.0856 198.684 27.1377C197.695 28.3356 196.705 29.3773 195.716 30.2627H201.106V31.7471H194.075C193.033 32.6325 192.2 33.2575 191.575 33.6221H198.137ZM193.606 30.2627C194.231 29.7939 194.934 29.1689 195.716 28.3877H192.122V30.2627H193.606ZM189.544 36.9814H196.575V34.8721H189.544V36.9814ZM189.544 40.6533H196.575V38.2314H189.544V40.6533ZM216.731 36.9033C217.46 35.4971 217.903 33.3617 218.059 30.4971H215.403C215.559 33.3617 216.002 35.4971 216.731 36.9033ZM219.622 30.4971C219.518 33.7262 218.893 36.3304 217.747 38.3096C218.58 39.3512 219.752 40.2627 221.262 41.0439L220.247 42.7627C218.58 41.6689 217.408 40.6273 216.731 39.6377C215.533 40.9919 213.684 42.1637 211.184 43.1533L210.403 41.5908C213.111 40.4971 214.908 39.3773 215.794 38.2314C214.908 36.5127 214.414 34.7939 214.309 33.0752C213.997 33.8564 213.684 34.4554 213.372 34.8721L212.044 33.8564C213.606 31.5648 214.544 28.7262 214.856 25.3408L216.497 25.7314C216.809 25.9398 216.731 26.096 216.262 26.2002C216.106 27.1377 215.898 28.0752 215.637 29.0127H220.95V30.4971H219.622ZM212.356 26.7471C212.044 27.5283 211.679 28.1794 211.262 28.7002L210.012 27.9971C210.429 27.32 210.82 26.5387 211.184 25.6533L212.591 26.3564C212.799 26.5648 212.721 26.695 212.356 26.7471ZM207.356 37.7627C208.085 37.971 208.736 38.2054 209.309 38.4658C209.726 37.9971 210.065 37.2939 210.325 36.3564H208.059C207.851 36.8252 207.617 37.2939 207.356 37.7627ZM206.262 39.7158L205.012 39.0127C205.533 38.2314 206.054 37.346 206.575 36.3564H203.606V35.1064H207.044C207.356 34.4294 207.591 33.8564 207.747 33.3877L209.231 33.7783C209.44 33.9867 209.361 34.1169 208.997 34.1689L208.528 35.1064H212.981V36.3564H211.809C211.549 37.3981 211.158 38.2835 210.637 39.0127C211.106 39.221 211.601 39.4814 212.122 39.7939L211.419 41.0439C210.846 40.6794 210.325 40.3929 209.856 40.1846C208.502 41.5387 206.679 42.3721 204.387 42.6846L203.841 41.2783C205.872 41.07 207.434 40.4971 208.528 39.5596C207.955 39.2992 207.382 39.0648 206.809 38.8564L206.262 39.7158ZM207.825 25.0283H209.075C209.492 25.0804 209.518 25.2367 209.153 25.4971V28.8564H213.137V30.1064H209.856C210.429 30.7835 211.315 31.4346 212.512 32.0596L211.653 33.3877C210.768 32.8669 209.934 32.1377 209.153 31.2002V33.0752H207.825V31.5908C206.992 32.6325 205.846 33.57 204.387 34.4033L203.372 33.1533C204.986 32.32 206.315 31.3044 207.356 30.1064H203.762V28.8564H207.825V25.0283ZM205.637 28.6221C205.273 27.8408 204.804 27.1637 204.231 26.5908L205.481 25.8096C206.106 26.4346 206.575 27.0856 206.887 27.7627L205.637 28.6221ZM232.981 30.1846C232.096 35.3929 231.028 38.6221 229.778 39.8721C229.101 40.5492 228.398 40.8877 227.669 40.8877C226.835 40.8877 226.184 40.6533 225.716 40.1846C224.466 38.9346 223.841 37.3721 223.841 35.4971C223.841 33.2054 224.648 31.2523 226.262 29.6377C228.033 27.8669 230.195 26.9814 232.747 26.9814C235.039 26.9814 236.835 27.6325 238.137 28.9346C239.596 30.3929 240.325 32.1117 240.325 34.0908C240.325 36.2262 239.648 37.971 238.294 39.3252C237.408 40.2106 236.054 41.07 234.231 41.9033L232.591 40.2627C234.414 39.6898 235.846 38.8825 236.887 37.8408C237.877 36.8512 238.372 35.6533 238.372 34.2471C238.372 32.5804 237.825 31.2002 236.731 30.1064C235.637 29.0127 233.919 28.5179 231.575 28.6221L232.981 29.3252C233.606 29.5856 233.606 29.8721 232.981 30.1846ZM231.184 28.7002C229.83 29.0127 228.658 29.6637 227.669 30.6533C226.315 32.0075 225.637 33.6742 225.637 35.6533C225.637 36.8512 226.028 37.8408 226.809 38.6221C226.966 38.7783 227.2 38.8564 227.512 38.8564C227.825 38.8564 228.164 38.6742 228.528 38.3096C229.726 37.1117 230.611 33.9085 231.184 28.7002ZM248.762 31.8252C250.481 30.2106 251.809 27.8669 252.747 24.7939L254.309 25.2627C254.57 25.471 254.518 25.6012 254.153 25.6533C253.736 26.695 253.32 27.6585 252.903 28.5439H255.247C255.82 27.346 256.263 26.2783 256.575 25.3408L258.059 25.8877C258.268 26.096 258.19 26.2262 257.825 26.2783C257.46 27.1117 257.096 27.8669 256.731 28.5439H260.716V30.0283H256.731V32.4502H259.934V33.9346H256.731V36.4346H259.934V37.9189H256.731V40.8096H261.184V42.2939H252.591V42.9971H251.028V31.6689C250.664 32.1898 250.273 32.6585 249.856 33.0752L248.762 31.8252ZM244.856 42.8408L244.544 41.3564H245.872C246.08 41.3564 246.184 41.2523 246.184 41.0439V36.2002L244.153 36.6689C244.101 37.0335 243.971 37.1117 243.762 36.9033L243.45 35.1064L246.184 34.5596V30.4189H243.762V28.9346H246.184V24.9502H247.669C248.085 25.0023 248.111 25.1585 247.747 25.4189V28.9346H249.778V30.4189H247.747V34.2471L249.778 33.7002L250.012 35.1064L247.747 35.8096V41.5908C247.747 42.4242 247.33 42.8408 246.497 42.8408H244.856ZM252.591 40.8096H255.169V37.9189H252.591V40.8096ZM252.591 36.4346H255.169V33.9346H252.591V36.4346ZM252.591 32.4502H255.169V30.0283H252.591V32.4502ZM278.841 27.1377L279.075 26.8252L280.325 27.8408L280.091 28.0752C278.736 30.4189 277.408 31.9814 276.106 32.7627L276.888 32.9971C277.252 33.1533 277.226 33.3096 276.809 33.4658C276.705 33.8304 276.575 34.1429 276.419 34.4033H279.778L280.012 34.0908L281.419 35.1064L281.106 35.4189C279.44 39.846 276.054 42.346 270.95 42.9189L270.325 41.4346C272.773 41.1742 274.7 40.5231 276.106 39.4814C275.377 38.7523 274.648 38.1273 273.919 37.6064C273.242 38.1794 272.33 38.7002 271.184 39.1689L270.481 37.7627C273.033 36.721 274.7 35.1325 275.481 32.9971C274.7 33.7262 273.294 34.3512 271.263 34.8721L270.559 33.4658C272.539 33.0492 274.023 32.5023 275.013 31.8252C274.492 31.2002 273.867 30.6533 273.138 30.1846C272.773 30.5492 272.408 30.8617 272.044 31.1221L270.95 29.9502C272.669 28.4919 273.763 26.9294 274.231 25.2627L275.638 25.7314C276.002 25.8877 275.976 26.0439 275.559 26.2002C275.507 26.5127 275.377 26.8252 275.169 27.1377H278.841ZM268.216 30.1846H270.794V31.6689H268.216V33.6221C269.257 34.0908 270.247 34.7939 271.184 35.7314L270.169 37.1377C269.335 36.3044 268.684 35.7054 268.216 35.3408V42.9189H266.653V35.1846C266.341 36.2262 265.481 37.5544 264.075 39.1689L262.903 37.6846C264.83 35.8617 266.028 33.8564 266.497 31.6689H263.45V30.1846H266.653V27.6064C265.611 27.7627 264.674 27.8929 263.841 27.9971L263.45 26.5127C265.533 26.3044 267.695 25.8877 269.934 25.2627L270.794 26.4346C271.002 26.7471 270.872 26.8512 270.403 26.7471C269.674 26.9554 268.945 27.1377 268.216 27.2939V30.1846ZM273.919 29.2471C274.7 29.6637 275.455 30.1846 276.184 30.8096C276.966 30.0804 277.617 29.2731 278.138 28.3877H274.544C274.335 28.7523 274.127 29.0387 273.919 29.2471ZM274.778 36.6689C275.507 37.0856 276.341 37.7106 277.278 38.5439C278.059 37.971 278.736 37.0075 279.309 35.6533H275.716C275.403 36.07 275.091 36.4085 274.778 36.6689ZM286.809 29.3252C287.382 28.1273 288.346 26.9033 289.7 25.6533L290.559 26.4346C289.257 27.6325 288.346 28.7783 287.825 29.8721C287.252 31.07 286.966 32.5023 286.966 34.1689C286.966 35.5752 287.252 36.9033 287.825 38.1533C288.346 39.2992 289.257 40.5752 290.559 41.9814L289.7 42.8408C288.398 41.3825 287.434 40.0023 286.809 38.7002C286.132 37.2939 285.794 35.7835 285.794 34.1689C285.794 32.346 286.132 30.7314 286.809 29.3252ZM297.903 41.9033H296.106V26.8252H308.372V41.5908H306.575V40.4971H297.903V41.9033ZM306.575 32.7627V28.3096H297.903V32.7627H306.575ZM306.575 39.0127V34.2471H297.903V39.0127H306.575ZM321.341 35.8096H318.372C317.903 38.7783 316.497 41.1221 314.153 42.8408L313.372 41.3564C315.664 39.7419 316.914 37.346 317.122 34.1689L317.278 31.7471H316.184V32.7627H314.622V26.0439H322.512V32.4502H320.95V31.7471H318.684L318.528 34.3252H322.903L322.512 40.4971C322.408 41.7471 321.888 42.3721 320.95 42.3721H318.841L318.606 40.8877H320.325C320.794 40.8877 321.054 40.6273 321.106 40.1064L321.341 35.8096ZM329.778 41.2002C329.778 42.0856 329.361 42.5283 328.528 42.5283H326.809L326.497 41.0439H327.981C328.138 41.0439 328.216 40.9658 328.216 40.8096V25.8096H329.7C330.117 25.8617 330.143 26.0179 329.778 26.2783V41.2002ZM326.028 27.6846C326.445 27.7367 326.471 27.8929 326.106 28.1533V38.8564H324.544V27.6846H326.028ZM320.95 30.4971V27.2939H316.184V30.4971H320.95ZM337.512 38.7002C336.887 40.0023 335.924 41.3825 334.622 42.8408L333.762 41.9814C335.065 40.5752 335.976 39.2992 336.497 38.1533C337.07 36.9033 337.356 35.5752 337.356 34.1689C337.356 32.5023 337.07 31.07 336.497 29.8721C335.976 28.7783 335.065 27.6325 333.762 26.4346L334.622 25.6533C335.976 26.9033 336.94 28.1273 337.512 29.3252C338.19 30.7314 338.528 32.346 338.528 34.1689C338.528 35.7835 338.19 37.2939 337.512 38.7002Z" fill="#757575"/>
</g>
<rect x="2" y="2" width="714" height="440" stroke="black" stroke-width="4"/>
<defs>
<clipPath id="clip0_6_15625">
<rect width="718" height="444" fill="white"/>
</clipPath>
</defs>
</svg>
