<svg width="718" height="444" viewBox="0 0 718 444" fill="none" xmlns="http://www.w3.org/2000/svg">
<g clip-path="url(#clip0_7_16662)">
<path d="M0 0H718V444H0V0Z" fill="white"/>
<path d="M181.5 91.5V369.5" stroke="#CCCCCC" stroke-miterlimit="10"/>
<path d="M302.5 91.5V369.5" stroke="#CCCCCC" stroke-miterlimit="10"/>
<path d="M424.5 91.5V369.5" stroke="#CCCCCC" stroke-miterlimit="10"/>
<path d="M545.5 91.5V369.5" stroke="#CCCCCC" stroke-miterlimit="10"/>
<path d="M666.5 91.5V369.5" stroke="#CCCCCC" stroke-miterlimit="10"/>
<path d="M88.5 369.5H695.5" stroke="#333333" stroke-miterlimit="10"/>
<path d="M88.5 277.5H695.5" stroke="#CCCCCC" stroke-miterlimit="10"/>
<path d="M88.5 184.5H695.5" stroke="#CCCCCC" stroke-miterlimit="10"/>
<path d="M88.5 91.5H695.5" stroke="#CCCCCC" stroke-miterlimit="10"/>
<path d="M88.2 369.8H88.8064H89.4128H90.0192H90.6255H91.2319H91.8383H92.4447H93.0511H93.6575H94.2639H94.8703H95.4766H96.083H96.6894H97.2958H97.9022H98.5086H99.115H99.7214H100.328H100.934H101.541H102.147H102.753H103.36H103.966H104.572H105.179H105.785H106.392H106.998H107.604H108.211H108.817H109.424H110.03L110.636 369.661L111.243 369.8H111.849L112.455 369.707L113.062 369.8H113.668H114.275H114.881H115.487H116.094H116.7H117.307L117.913 369.754L118.519 369.8H119.126H119.732H120.339H120.945H121.551H122.158H122.764H123.37H123.977H124.583H125.19H125.796L126.402 369.754L127.009 369.8H127.615H128.222H128.828H129.434L130.041 369.754L130.647 369.8L131.253 369.707L131.86 369.754H132.466L133.073 369.707L133.679 369.8L134.285 369.754L134.892 369.8L135.498 369.661L136.105 369.8L136.711 369.754L137.317 369.8L137.924 369.707L138.53 369.754H139.137H139.743H140.349L140.956 369.707L141.562 369.754L142.168 369.661L142.775 369.707L143.381 369.8L143.988 369.707H144.594L145.2 369.661L145.807 369.754H146.413H147.02H147.626H148.232L148.839 369.8L149.445 369.707L150.051 369.8H150.658H151.264H151.871H152.477H153.083H153.69H154.296H154.903H155.509H156.115L156.722 369.754L157.328 369.8H157.935H158.541H159.147H159.754H160.36H160.966H161.573H162.179H162.786H163.392H163.998H164.605H165.211H165.818H166.424H167.03H167.637H168.243H168.85H169.456H170.062H170.669H171.275H171.881H172.488H173.094H173.701H174.307H174.913H175.52H176.126H176.733H177.339H177.945H178.552H179.158H179.764H180.371H180.977H181.584H182.19H182.796H183.403L184.009 369.754L184.616 369.8H185.222H185.828H186.435H187.041H187.648H188.254H188.86H189.467H190.073H190.679H191.286H191.892H192.499H193.105H193.711H194.318H194.924H195.531H196.137H196.743H197.35H197.956L198.562 369.754L199.169 369.8H199.775H200.382L200.988 369.754H201.594L202.201 369.707L202.807 369.661L203.414 369.754H204.02L204.626 368.78L205.233 368.269L205.839 368.78L206.446 368.826L207.052 369.058L207.658 368.965L208.265 368.594L208.871 368.872L209.477 369.522L210.084 368.084L210.69 368.13L211.297 369.058L211.903 369.383L212.509 369.336L213.116 369.661H213.722L214.329 369.615L214.935 369.336L215.541 369.383L216.148 369.243L216.754 369.29L217.36 369.615L217.967 369.568H218.573L219.18 369.336L219.786 369.104L220.392 369.197L220.999 369.29L221.605 369.568L222.212 369.615L222.818 369.568H223.424L224.031 369.522L224.637 369.475L225.244 369.29L225.85 369.707L226.456 369.383L227.063 369.615H227.669L228.275 369.522L228.882 369.661L229.488 369.522L230.095 369.707H230.701L231.307 369.661H231.914L232.52 369.615L233.127 369.475L233.733 369.615L234.339 369.754L234.946 369.8L235.552 369.754L236.158 369.8H236.765L237.371 369.754L237.978 369.8H238.584H239.19H239.797H240.403L241.01 369.754L241.616 369.8H242.222H242.829H243.435L244.042 369.707L244.648 369.754L245.254 369.661L245.861 369.707L246.467 369.429L247.073 368.919H247.68L248.286 369.197L248.893 369.661L249.499 369.336L250.105 368.826L250.712 369.383L251.318 369.429L251.925 369.29L252.531 369.243L253.137 369.522H253.744L254.35 369.383L254.956 369.568L255.563 369.615L256.169 369.707L256.776 369.615H257.382L257.988 369.568L258.595 369.429L259.201 369.754H259.808L260.414 369.661H261.02L261.627 369.475L262.233 369.615L262.84 369.568L263.446 369.522L264.052 369.568L264.659 369.522H265.265L265.871 369.29H266.478L267.084 369.475L267.691 369.615L268.297 369.475L268.903 369.661H269.51L270.116 369.522L270.723 369.29L271.329 369.336L271.935 369.058L272.542 369.243L273.148 369.661L273.754 369.151L274.361 369.475L274.967 369.568L275.574 369.336H276.18L276.786 369.522L277.393 369.661L277.999 369.707L278.606 369.568L279.212 369.104L279.818 369.29L280.425 369.615L281.031 369.429L281.638 369.568L282.244 368.965L282.85 369.29L283.457 369.429L284.063 369.104L284.669 369.429L285.276 369.383L285.882 369.429L286.489 368.548L287.095 369.058L287.701 368.501L288.308 368.687L288.914 368.316L289.521 368.409L290.127 368.455L290.733 368.316L291.34 368.641L291.946 368.223L292.552 368.455L293.159 368.409L293.765 368.826L294.372 369.151L294.978 368.641L295.584 368.409L296.191 367.713L296.797 366.089L297.404 368.641L298.01 368.362L298.616 368.084L299.223 367.249L299.829 367.759L300.436 368.316L301.042 368.409L301.648 368.594L302.255 368.78L302.861 368.223L303.467 366.878L304.074 366.6L304.68 366.878L305.287 365.115L305.893 365.811L306.499 365.997L307.106 367.156L307.712 366.739L308.319 366.043L308.925 366.229L309.531 366.182L310.138 365.672L310.744 367.945L311.35 367.666L311.957 367.388L312.563 367.991L313.17 367.945L313.776 368.548L314.382 367.991L314.989 367.806L315.595 369.058L316.202 368.826L316.808 368.78L317.414 369.104L318.021 368.919L318.627 369.197L319.234 369.429L319.84 369.615L320.446 369.336L321.053 369.475L321.659 369.429L322.265 369.615L322.872 369.522L323.478 369.615L324.085 369.661H324.691L325.297 369.615L325.904 369.568H326.51L327.117 369.661L327.723 369.615H328.329L328.936 369.568L329.542 369.475L330.148 369.615L330.755 369.661L331.361 369.568L331.968 369.8H332.574L333.18 369.754L333.787 369.8H334.393L335 369.754L335.606 369.8L336.212 369.615L336.819 369.754H337.425L338.032 369.661L338.638 369.707L339.244 369.568L339.851 369.707L340.457 369.8H341.063L341.67 369.568H342.276L342.883 369.8L343.489 369.707L344.095 369.568L344.702 369.8H345.308H345.915L346.521 369.475L347.127 369.754L347.734 369.661H348.34L348.947 369.8L349.553 369.661H350.159L350.766 369.8L351.372 369.754H351.978L352.585 369.8L353.191 369.754L353.798 369.707L354.404 369.522L355.01 369.707L355.617 369.568L356.223 369.522L356.83 369.661L357.436 369.8L358.042 369.754L358.649 369.568L359.255 369.615L359.861 369.8L360.468 369.754L361.074 369.707L361.681 369.615L362.287 369.8L362.893 369.104L363.5 369.336L364.106 368.965L364.713 369.243L365.319 368.826L365.925 369.29L366.532 367.759L367.138 368.269L367.744 368.548L368.351 367.945L368.957 368.084L369.564 368.038L370.17 367.063L370.776 367.388L371.383 367.666L371.989 367.249L372.596 367.203L373.202 367.945L373.808 367.017L374.415 367.435L375.021 368.223L375.628 368.455L376.234 368.13L376.84 367.295L377.447 365.162L378.053 364.652L378.659 365.301L379.266 366.043L379.872 364.373L380.479 364.652L381.085 365.533L381.691 364.049L382.298 364.42L382.904 367.017L383.511 366.553L384.117 365.162H384.723L385.33 366.089L385.936 366.6L386.543 366.646L387.149 367.527L387.755 368.362L388.362 367.435H388.968L389.574 367.017L390.181 367.991L390.787 368.409L391.394 368.594L392 369.29L392.606 368.316L393.213 369.012L393.819 368.872L394.426 369.336L395.032 369.243L395.638 369.383L396.245 369.568L396.851 369.197L397.458 369.336L398.064 369.383L398.67 369.475L399.277 369.383L399.883 369.707L400.489 369.8L401.096 369.475L401.702 369.429L402.309 369.522L402.915 369.475L403.521 369.754L404.128 369.615L404.734 369.661L405.34 369.29L405.947 369.475H406.553H407.16L407.766 369.707L408.372 369.615L408.979 369.707L409.585 369.754L410.192 369.522L410.798 369.754H411.404L412.011 369.707L412.617 369.661L413.224 369.754L413.83 369.8L414.436 369.707L415.043 369.8L415.649 369.754L416.255 369.615L416.862 369.754H417.468L418.075 369.707L418.681 369.615L419.287 369.661L419.894 369.429L420.5 369.336L421.107 369.522L421.713 369.754L422.319 369.522L422.926 369.336L423.532 369.151L424.139 368.965L424.745 369.058L425.351 368.362L425.958 368.223L426.564 367.759L427.17 367.203L427.777 366.878L428.383 365.579L428.99 365.95L429.596 367.435L430.202 367.527L430.809 364.698L431.415 364.42L432.022 363.909L432.628 363.863L433.234 362.843L433.841 365.997L434.447 365.95L435.054 365.626L435.66 361.405L436.266 361.034L436.873 360.199L437.479 360.941L438.085 362.472L438.692 362.75L439.298 357.23L439.905 357.555L440.511 357.416L441.117 355.097L441.724 358.343L442.33 361.683L442.937 361.544L443.543 358.668L444.149 359.317L444.756 357.74L445.362 358.204L445.968 357.787L446.575 362.425L447.181 364.188L447.788 358.761L448.394 361.451L449 361.869L449.607 363.77L450.213 363.817L450.82 365.486L451.426 365.95L452.032 364.373L452.639 365.44L453.245 365.811L453.851 366.739L454.458 366.507L455.064 367.713L455.671 368.177L456.277 367.342L456.883 367.991H457.49L458.096 367.898L458.703 367.945L459.309 368.177L459.915 368.78L460.522 368.641L461.128 367.249L461.735 368.919L462.341 368.826L462.947 367.806L463.554 368.872L464.16 368.687L464.766 368.78L465.373 369.058L465.979 368.177L466.586 369.058L467.192 369.568L467.798 369.383L468.405 369.615L469.011 369.522L469.618 368.641L470.224 369.243L470.83 369.754L471.437 369.522L472.043 369.661L472.65 369.8L473.256 369.707L473.862 369.661H474.469L475.075 369.383L475.681 369.058L476.288 369.29L476.894 369.707L477.501 369.754L478.107 369.707L478.713 369.661L479.32 369.707L479.926 369.661L480.533 369.754L481.139 369.8H481.745L482.352 369.707H482.958L483.564 369.754L484.171 369.707L484.777 369.754L485.384 369.8H485.99H486.596H487.203L487.809 369.707L488.416 369.8H489.022H489.628H490.235H490.841L491.447 369.754L492.054 369.8L492.66 369.754H493.267L493.873 369.8H494.479H495.086H495.692H496.299H496.905H497.511H498.118L498.724 369.754L499.331 369.8H499.937H500.543H501.15H501.756H502.362H502.969H503.575L504.182 369.754L504.788 369.8H505.394H506.001H506.607H507.214H507.82H508.426H509.033H509.639H510.246H510.852H511.458H512.065H512.671H513.277H513.884H514.49H515.097H515.703H516.309H516.916H517.522L518.129 369.754L518.735 369.8H519.341H519.948H520.554H521.16H521.767H522.373H522.98L523.586 369.754L524.192 369.8L524.799 369.661L525.405 368.965L526.012 368.78L526.618 368.084L527.224 367.156L527.831 365.904L528.437 366.089L529.044 360.709L529.65 359.317L530.256 353.195L530.863 351.757L531.469 350.597L532.075 354.911L532.682 345.495L533.288 338.12L533.895 339.558L534.501 337.425L535.107 336.45L535.714 339.744L536.32 348.881L536.927 328.983L537.533 322.86H538.139L538.746 316.32L539.352 322.304L539.958 329.771L540.565 348.603L541.171 325.55L541.778 319.242L542.384 328.751L542.99 330.235L543.597 332.369L544.203 338.259L544.81 352.638L545.416 327.73L546.022 324.159L546.629 325.875L547.235 332.183L547.841 344.521L548.448 339.883L549.054 348.603L549.661 328.612L550.267 327.035L550.873 340.208L551.48 335.708L552.086 338.027L552.693 343.918L553.299 350.412L553.905 338.723L554.512 332.09L555.118 350.551L555.725 339.651L556.331 336.961L556.937 351.386L557.544 352.917L558.15 336.729L558.756 338.538L559.363 343.176L559.969 337.656L560.576 341.321L561.182 343.454L561.788 356.163L562.395 329.818L563.001 332.925L563.608 336.126L564.214 337.981L564.82 339.141L565.427 344.799L566.033 353.195L566.64 339.605L567.246 338.306L567.852 347.443L568.459 349.577L569.065 350.412L569.671 356.303L570.278 358.668L570.884 362.008L571.491 349.345L572.097 350.968L572.703 352.035L573.31 352.267L573.916 354.679L574.523 358.297L575.129 346.005L575.735 342.851L576.342 347.768L576.948 345.31L577.554 345.588L578.161 350.876L578.767 357.045L579.374 340.996L579.98 340.208L580.586 334.827L581.193 341.274L581.799 340.022L582.406 344.057L583.012 355.05L583.618 333.807L584.225 335.384L584.831 338.63L585.437 339.605L586.044 340.811L586.65 349.345L587.257 358.529L587.863 335.894L588.469 338.723L589.076 340.532L589.682 341.553L590.289 346.933L590.895 349.299L591.501 358.065L592.108 336.079L592.714 340.996L593.321 343.222L593.927 345.263L594.533 356.024L595.14 349.16L595.746 360.802L596.352 341.274L596.959 355.746L597.565 360.152L598.172 357.137L598.778 336.59L599.384 342.109L599.991 353.473L600.597 332.879L601.204 336.033L601.81 341.692L602.416 341.089L603.023 341.97L603.629 347.304L604.236 356.813L604.842 335.662L605.448 332.925L606.055 337.1L606.661 338.213L607.267 339.836L607.874 349.16L608.48 360.941L609.087 335.94L609.693 341.274L610.299 346.794L610.906 347.722L611.512 345.124L612.119 355.189L612.725 359.596L613.331 346.655L613.938 346.33L614.544 350.829L615.15 354.679L615.757 353.798L616.363 359.178L616.97 363.538L617.576 350.597L618.182 353.241L618.789 351.803L619.395 353.056L620.002 354.308L620.608 356.163L621.214 363.817L621.821 345.449L622.427 350.412L623.033 348.974L623.64 351.34L624.246 348.278L624.853 356.581L625.459 361.312L626.065 346.701L626.672 350.365L627.278 353.937L627.885 351.108L628.491 349.484L629.097 354.354L629.704 358.946L630.31 338.399L630.917 339.929L631.523 340.115L632.129 330.699L632.736 329.261L633.342 335.476L633.948 339.326L634.555 296.097L635.161 302.869L635.768 296.607L636.374 292.247L636.98 293.592L637.587 300.55L638.193 325.133L638.8 261.588L639.406 251.012L640.012 247.487L640.619 247.209L641.225 242.153L641.832 260.799L642.438 302.962L643.044 315.253L643.651 194.842L644.257 173.135L644.863 174.48L645.47 196.79L646.076 238.906L646.683 258.99L647.289 173.459L647.895 185.334L648.502 180.092L649.108 186.632L649.715 180.278L650.321 222.116L650.927 277.173L651.534 176.706L652.14 165.064L652.747 181.391L653.353 181.252L653.959 192.755L654.566 184.22L655.172 307.693L655.778 163.487L656.385 167.105L656.991 196.095L657.598 270.725L658.204 205.139L658.81 232.227L659.417 285.661L660.023 241.365L660.63 130.601L661.236 106.157L661.842 172.068L662.449 172.485L663.055 201.568L663.661 281.718L664.268 155.602L664.874 170.908L665.481 185.705L666.087 222.023L666.693 221.513L667.3 253.888L667.906 321.329L668.513 217.663L669.119 240.808L669.725 260.985L670.332 276.57L670.938 275.085L671.544 289.557L672.151 331.998L672.757 255.604L673.364 258.526L673.97 294.474L674.576 289.928L675.183 301.477L675.789 316.877L676.396 343.501L677.002 298.834L677.608 301.802L678.215 317.48L678.821 318.315L679.428 320.541L680.034 324.855L680.64 354.354L681.247 353.52L681.853 291.83L682.459 307.136L683.066 318.315L683.672 346.701L684.279 336.682L684.885 350.69L685.491 340.254L686.098 343.269L686.704 349.809L687.311 346.748L687.917 349.067L688.523 354.169L689.13 363.956L689.736 339.605L690.343 348.835L690.949 350.412L691.555 351.061L692.162 352.035L692.768 356.674L693.374 363.863L693.981 360.663L694.587 335.476L695.194 345.82L695.8 345.542" stroke="#4285F4" stroke-width="2" stroke-miterlimit="10"/>
<path d="M379.922 418.8V410.206H382.891C383.557 410.206 384.068 410.248 384.422 410.331C384.911 410.446 385.328 410.649 385.672 410.94C386.13 411.326 386.469 411.821 386.688 412.425C386.917 413.019 387.031 413.696 387.031 414.456C387.031 415.112 386.953 415.69 386.797 416.19C386.651 416.69 386.458 417.107 386.219 417.44C385.979 417.774 385.714 418.034 385.422 418.222C385.141 418.409 384.802 418.555 384.406 418.659C384.01 418.753 383.552 418.8 383.031 418.8H379.922ZM381.062 417.784H382.891C383.464 417.784 383.911 417.732 384.234 417.628C384.557 417.524 384.812 417.373 385 417.175C385.271 416.914 385.479 416.555 385.625 416.097C385.781 415.638 385.859 415.086 385.859 414.44C385.859 413.545 385.708 412.857 385.406 412.378C385.115 411.888 384.76 411.56 384.344 411.394C384.031 411.279 383.542 411.222 382.875 411.222H381.062V417.784ZM392.859 418.034C392.464 418.368 392.083 418.602 391.719 418.737C391.365 418.873 390.979 418.94 390.562 418.94C389.875 418.94 389.349 418.774 388.984 418.44C388.62 418.107 388.438 417.68 388.438 417.159C388.438 416.857 388.505 416.581 388.641 416.331C388.776 416.071 388.958 415.868 389.188 415.722C389.417 415.565 389.672 415.451 389.953 415.378C390.151 415.315 390.464 415.258 390.891 415.206C391.734 415.112 392.359 414.993 392.766 414.847C392.766 414.701 392.766 414.612 392.766 414.581C392.766 414.144 392.667 413.836 392.469 413.659C392.198 413.43 391.797 413.315 391.266 413.315C390.776 413.315 390.411 413.404 390.172 413.581C389.932 413.748 389.755 414.05 389.641 414.487L388.609 414.347C388.703 413.909 388.859 413.555 389.078 413.284C389.297 413.013 389.609 412.805 390.016 412.659C390.422 412.513 390.891 412.44 391.422 412.44C391.953 412.44 392.385 412.503 392.719 412.628C393.052 412.753 393.297 412.909 393.453 413.097C393.609 413.284 393.719 413.524 393.781 413.815C393.812 413.993 393.828 414.315 393.828 414.784V416.19C393.828 417.17 393.849 417.789 393.891 418.05C393.943 418.31 394.036 418.56 394.172 418.8H393.062C392.958 418.581 392.891 418.326 392.859 418.034ZM392.766 415.675C392.38 415.831 391.807 415.966 391.047 416.081C390.609 416.144 390.302 416.216 390.125 416.3C389.948 416.373 389.807 416.482 389.703 416.628C389.609 416.774 389.562 416.94 389.562 417.128C389.562 417.409 389.667 417.644 389.875 417.831C390.094 418.019 390.406 418.112 390.812 418.112C391.219 418.112 391.578 418.024 391.891 417.847C392.214 417.67 392.448 417.425 392.594 417.112C392.708 416.873 392.766 416.524 392.766 416.065V415.675ZM398.094 417.862L398.25 418.784C397.948 418.847 397.682 418.878 397.453 418.878C397.068 418.878 396.771 418.821 396.562 418.706C396.354 418.581 396.203 418.42 396.109 418.222C396.026 418.024 395.984 417.607 395.984 416.972V413.394H395.219V412.581H395.984V411.034L397.031 410.409V412.581H398.094V413.394H397.031V417.034C397.031 417.336 397.047 417.529 397.078 417.612C397.12 417.696 397.182 417.763 397.266 417.815C397.349 417.868 397.469 417.894 397.625 417.894C397.75 417.894 397.906 417.883 398.094 417.862ZM403.047 416.8L404.141 416.925C403.974 417.56 403.656 418.055 403.188 418.409C402.719 418.763 402.125 418.94 401.406 418.94C400.5 418.94 399.776 418.659 399.234 418.097C398.703 417.534 398.438 416.748 398.438 415.737C398.438 414.696 398.708 413.888 399.25 413.315C399.792 412.732 400.49 412.44 401.344 412.44C402.177 412.44 402.854 412.722 403.375 413.284C403.906 413.847 404.172 414.644 404.172 415.675C404.172 415.737 404.172 415.831 404.172 415.956H399.531C399.573 416.644 399.766 417.17 400.109 417.534C400.453 417.888 400.885 418.065 401.406 418.065C401.792 418.065 402.12 417.966 402.391 417.769C402.672 417.56 402.891 417.237 403.047 416.8ZM399.594 415.097H403.062C403.021 414.565 402.891 414.17 402.672 413.909C402.328 413.503 401.891 413.3 401.359 413.3C400.87 413.3 400.458 413.461 400.125 413.784C399.802 414.107 399.625 414.545 399.594 415.097Z" fill="black"/>
<path d="M33.2 266.775H24.6062V265.634H28.8719L24.6062 261.369V259.822L28.0906 263.431L33.2 259.666V261.166L28.8562 264.228L30.2156 265.634H33.2V266.775ZM33.2 254.775H32.2781C32.9864 255.264 33.3406 255.926 33.3406 256.759C33.3406 257.124 33.2729 257.468 33.1375 257.791C32.9917 258.103 32.8146 258.337 32.6062 258.494C32.3875 258.65 32.1219 258.759 31.8094 258.822C31.6114 258.863 31.2833 258.884 30.825 258.884H26.9812V257.822H30.4344C30.976 257.822 31.3458 257.801 31.5437 257.759C31.8146 257.697 32.0333 257.561 32.2 257.353C32.3562 257.134 32.4344 256.863 32.4344 256.541C32.4344 256.228 32.3562 255.936 32.2 255.666C32.0333 255.384 31.8094 255.186 31.5281 255.072C31.2469 254.947 30.8406 254.884 30.3094 254.884H26.9812V253.837H33.2V254.775ZM33.2 251.853H26.9812V250.916H27.8562C27.5437 250.718 27.2989 250.457 27.1219 250.134C26.9344 249.811 26.8406 249.442 26.8406 249.025C26.8406 248.567 26.9344 248.192 27.1219 247.9C27.3094 247.598 27.575 247.389 27.9187 247.275C27.2 246.775 26.8406 246.134 26.8406 245.353C26.8406 244.728 27.0125 244.254 27.3562 243.931C27.6896 243.598 28.2156 243.431 28.9344 243.431H33.2V244.478H29.2781C28.8614 244.478 28.5594 244.514 28.3719 244.587C28.1844 244.65 28.0333 244.77 27.9187 244.947C27.8041 245.124 27.7469 245.337 27.7469 245.587C27.7469 246.025 27.8927 246.389 28.1844 246.681C28.476 246.962 28.9448 247.103 29.5906 247.103H33.2V248.166H29.1531C28.6844 248.166 28.3354 248.254 28.1062 248.431C27.8666 248.598 27.7469 248.874 27.7469 249.259C27.7469 249.561 27.825 249.837 27.9812 250.087C28.1375 250.337 28.3666 250.52 28.6687 250.634C28.9708 250.749 29.4031 250.806 29.9656 250.806H33.2V251.853ZM32.4344 236.791C32.7677 237.186 33.0021 237.567 33.1375 237.931C33.2729 238.285 33.3406 238.671 33.3406 239.087C33.3406 239.775 33.1739 240.301 32.8406 240.666C32.5073 241.03 32.0802 241.212 31.5594 241.212C31.2573 241.212 30.9812 241.145 30.7312 241.009C30.4708 240.874 30.2677 240.692 30.1219 240.462C29.9656 240.233 29.851 239.978 29.7781 239.697C29.7156 239.499 29.6583 239.186 29.6062 238.759C29.5125 237.916 29.3927 237.291 29.2469 236.884C29.101 236.884 29.0125 236.884 28.9812 236.884C28.5437 236.884 28.2364 236.983 28.0594 237.181C27.8302 237.452 27.7156 237.853 27.7156 238.384C27.7156 238.874 27.8041 239.238 27.9812 239.478C28.1479 239.718 28.45 239.895 28.8875 240.009L28.7469 241.041C28.3094 240.947 27.9552 240.791 27.6844 240.572C27.4135 240.353 27.2052 240.041 27.0594 239.634C26.9135 239.228 26.8406 238.759 26.8406 238.228C26.8406 237.697 26.9031 237.264 27.0281 236.931C27.1531 236.598 27.3094 236.353 27.4969 236.197C27.6844 236.041 27.9239 235.931 28.2156 235.869C28.3927 235.837 28.7156 235.822 29.1844 235.822H30.5906C31.5698 235.822 32.1896 235.801 32.45 235.759C32.7104 235.707 32.9604 235.613 33.2 235.478V236.587C32.9812 236.692 32.726 236.759 32.4344 236.791ZM30.075 236.884C30.2312 237.27 30.3666 237.843 30.4812 238.603C30.5437 239.041 30.6166 239.348 30.7 239.525C30.7729 239.702 30.8823 239.843 31.0281 239.947C31.1739 240.041 31.3406 240.087 31.5281 240.087C31.8094 240.087 32.0437 239.983 32.2312 239.775C32.4187 239.556 32.5125 239.244 32.5125 238.837C32.5125 238.431 32.4239 238.072 32.2469 237.759C32.0698 237.436 31.825 237.202 31.5125 237.056C31.2729 236.942 30.9239 236.884 30.4656 236.884H30.075ZM33.2 233.853H26.9812V232.916H27.8562C27.5437 232.718 27.2989 232.457 27.1219 232.134C26.9344 231.811 26.8406 231.442 26.8406 231.025C26.8406 230.567 26.9344 230.192 27.1219 229.9C27.3094 229.598 27.575 229.389 27.9187 229.275C27.2 228.775 26.8406 228.134 26.8406 227.353C26.8406 226.728 27.0125 226.254 27.3562 225.931C27.6896 225.598 28.2156 225.431 28.9344 225.431H33.2V226.478H29.2781C28.8614 226.478 28.5594 226.514 28.3719 226.587C28.1844 226.65 28.0333 226.77 27.9187 226.947C27.8041 227.124 27.7469 227.337 27.7469 227.587C27.7469 228.025 27.8927 228.389 28.1844 228.681C28.476 228.962 28.9448 229.103 29.5906 229.103H33.2V230.166H29.1531C28.6844 230.166 28.3354 230.254 28.1062 230.431C27.8666 230.598 27.7469 230.874 27.7469 231.259C27.7469 231.561 27.825 231.837 27.9812 232.087C28.1375 232.337 28.3666 232.52 28.6687 232.634C28.9708 232.749 29.4031 232.806 29.9656 232.806H33.2V233.853ZM30.0906 223.244C28.9344 223.244 28.0802 222.926 27.5281 222.291C27.0698 221.759 26.8406 221.108 26.8406 220.337C26.8406 219.483 27.1219 218.785 27.6844 218.244C28.2364 217.692 29.0073 217.416 29.9969 217.416C30.7989 217.416 31.4291 217.535 31.8875 217.775C32.3458 218.014 32.7052 218.369 32.9656 218.837C33.2156 219.296 33.3406 219.796 33.3406 220.337C33.3406 221.202 33.0646 221.905 32.5125 222.447C31.95 222.978 31.1427 223.244 30.0906 223.244ZM30.0906 222.166C30.8823 222.166 31.476 221.994 31.8719 221.65C32.2677 221.296 32.4656 220.858 32.4656 220.337C32.4656 219.806 32.2677 219.369 31.8719 219.025C31.476 218.681 30.8719 218.509 30.0594 218.509C29.2885 218.509 28.7052 218.686 28.3094 219.041C27.9135 219.384 27.7156 219.817 27.7156 220.337C27.7156 220.858 27.9135 221.296 28.3094 221.65C28.6948 221.994 29.2885 222.166 30.0906 222.166ZM32.2625 213.556L33.1844 213.4C33.2469 213.702 33.2781 213.968 33.2781 214.197C33.2781 214.582 33.2208 214.879 33.1062 215.087C32.9812 215.296 32.8198 215.447 32.6219 215.541C32.4239 215.624 32.0073 215.666 31.3719 215.666H27.7937V216.431H26.9812V215.666H25.4344L24.8094 214.619H26.9812V213.556H27.7937V214.619H31.4344C31.7364 214.619 31.9291 214.603 32.0125 214.572C32.0958 214.53 32.1635 214.468 32.2156 214.384C32.2677 214.301 32.2937 214.181 32.2937 214.025C32.2937 213.9 32.2833 213.744 32.2625 213.556ZM30.0906 213.244C28.9344 213.244 28.0802 212.926 27.5281 212.291C27.0698 211.759 26.8406 211.108 26.8406 210.337C26.8406 209.483 27.1219 208.785 27.6844 208.244C28.2364 207.692 29.0073 207.416 29.9969 207.416C30.7989 207.416 31.4291 207.535 31.8875 207.775C32.3458 208.014 32.7052 208.369 32.9656 208.837C33.2156 209.296 33.3406 209.796 33.3406 210.337C33.3406 211.202 33.0646 211.905 32.5125 212.447C31.95 212.978 31.1427 213.244 30.0906 213.244ZM30.0906 212.166C30.8823 212.166 31.476 211.994 31.8719 211.65C32.2677 211.296 32.4656 210.858 32.4656 210.337C32.4656 209.806 32.2677 209.369 31.8719 209.025C31.476 208.681 30.8719 208.509 30.0594 208.509C29.2885 208.509 28.7052 208.686 28.3094 209.041C27.9135 209.384 27.7156 209.817 27.7156 210.337C27.7156 210.858 27.9135 211.296 28.3094 211.65C28.6948 211.994 29.2885 212.166 30.0906 212.166Z" fill="black"/>
<path d="M75.7 369.565C75.7 368.545 75.8042 367.727 76.0125 367.112C76.2208 366.487 76.5281 366.008 76.9344 365.675C77.351 365.341 77.8719 365.175 78.4969 365.175C78.9552 365.175 79.3562 365.269 79.7 365.456C80.0542 365.644 80.3458 365.914 80.575 366.269C80.8042 366.612 80.9812 367.034 81.1062 367.534C81.2312 368.034 81.2937 368.711 81.2937 369.565C81.2937 370.576 81.1896 371.388 80.9812 372.003C80.7833 372.618 80.476 373.097 80.0594 373.44C79.6531 373.774 79.1323 373.94 78.4969 373.94C77.674 373.94 77.0229 373.644 76.5437 373.05C75.9812 372.341 75.7 371.18 75.7 369.565ZM76.7781 369.565C76.7781 370.972 76.9448 371.909 77.2781 372.378C77.6115 372.847 78.0177 373.081 78.4969 373.081C78.9865 373.081 79.3927 372.847 79.7156 372.378C80.049 371.909 80.2156 370.972 80.2156 369.565C80.2156 368.149 80.049 367.211 79.7156 366.753C79.3927 366.284 78.9812 366.05 78.4812 366.05C78.0021 366.05 77.6167 366.253 77.325 366.659C76.9604 367.18 76.7781 368.149 76.7781 369.565Z" fill="black"/>
<path d="M60.2469 280.018V281.033H54.5594C54.5594 280.783 54.601 280.538 54.6844 280.299C54.8302 279.913 55.0594 279.533 55.3719 279.158C55.6948 278.783 56.1583 278.351 56.7625 277.861C57.7 277.09 58.3302 276.481 58.6531 276.033C58.9865 275.585 59.1531 275.163 59.1531 274.768C59.1531 274.351 59.0021 274.002 58.7 273.721C58.3979 273.429 58.0073 273.283 57.5281 273.283C57.0177 273.283 56.6115 273.434 56.3094 273.736C56.0073 274.038 55.851 274.46 55.8406 275.002L54.7625 274.893C54.8354 274.08 55.1115 273.465 55.5906 273.049C56.0802 272.622 56.7365 272.408 57.5594 272.408C58.3823 272.408 59.0333 272.637 59.5125 273.096C59.9917 273.554 60.2312 274.122 60.2312 274.799C60.2312 275.143 60.1583 275.481 60.0125 275.814C59.8771 276.137 59.6427 276.486 59.3094 276.861C58.9865 277.226 58.45 277.726 57.7 278.361C57.0646 278.893 56.6531 279.257 56.4656 279.455C56.2885 279.643 56.1427 279.83 56.0281 280.018H60.2469ZM61.7 276.799C61.7 275.778 61.8042 274.96 62.0125 274.346C62.2208 273.721 62.5281 273.242 62.9344 272.908C63.351 272.575 63.8719 272.408 64.4969 272.408C64.9552 272.408 65.3562 272.502 65.7 272.689C66.0542 272.877 66.3458 273.148 66.575 273.502C66.8042 273.846 66.9812 274.268 67.1062 274.768C67.2312 275.268 67.2937 275.945 67.2937 276.799C67.2937 277.809 67.1896 278.622 66.9812 279.236C66.7833 279.851 66.476 280.33 66.0594 280.674C65.6531 281.007 65.1323 281.174 64.4969 281.174C63.674 281.174 63.0229 280.877 62.5437 280.283C61.9812 279.575 61.7 278.413 61.7 276.799ZM62.7781 276.799C62.7781 278.205 62.9448 279.143 63.2781 279.611C63.6115 280.08 64.0177 280.314 64.4969 280.314C64.9865 280.314 65.3927 280.08 65.7156 279.611C66.049 279.143 66.2156 278.205 66.2156 276.799C66.2156 275.382 66.049 274.445 65.7156 273.986C65.3927 273.518 64.9812 273.283 64.4812 273.283C64.0021 273.283 63.6167 273.486 63.325 273.893C62.9604 274.413 62.7781 275.382 62.7781 276.799ZM68.7 276.799C68.7 275.778 68.8042 274.96 69.0125 274.346C69.2208 273.721 69.5281 273.242 69.9344 272.908C70.351 272.575 70.8719 272.408 71.4969 272.408C71.9552 272.408 72.3562 272.502 72.7 272.689C73.0542 272.877 73.3458 273.148 73.575 273.502C73.8042 273.846 73.9812 274.268 74.1062 274.768C74.2312 275.268 74.2937 275.945 74.2937 276.799C74.2937 277.809 74.1896 278.622 73.9812 279.236C73.7833 279.851 73.476 280.33 73.0594 280.674C72.6531 281.007 72.1323 281.174 71.4969 281.174C70.674 281.174 70.0229 280.877 69.5437 280.283C68.9812 279.575 68.7 278.413 68.7 276.799ZM69.7781 276.799C69.7781 278.205 69.9448 279.143 70.2781 279.611C70.6115 280.08 71.0177 280.314 71.4969 280.314C71.9865 280.314 72.3927 280.08 72.7156 279.611C73.049 279.143 73.2156 278.205 73.2156 276.799C73.2156 275.382 73.049 274.445 72.7156 273.986C72.3927 273.518 71.9812 273.283 71.4812 273.283C71.0021 273.283 70.6167 273.486 70.325 273.893C69.9604 274.413 69.7781 275.382 69.7781 276.799ZM75.7 276.799C75.7 275.778 75.8042 274.96 76.0125 274.346C76.2208 273.721 76.5281 273.242 76.9344 272.908C77.351 272.575 77.8719 272.408 78.4969 272.408C78.9552 272.408 79.3562 272.502 79.7 272.689C80.0542 272.877 80.3458 273.148 80.575 273.502C80.8042 273.846 80.9812 274.268 81.1062 274.768C81.2312 275.268 81.2937 275.945 81.2937 276.799C81.2937 277.809 81.1896 278.622 80.9812 279.236C80.7833 279.851 80.476 280.33 80.0594 280.674C79.6531 281.007 79.1323 281.174 78.4969 281.174C77.674 281.174 77.0229 280.877 76.5437 280.283C75.9812 279.575 75.7 278.413 75.7 276.799ZM76.7781 276.799C76.7781 278.205 76.9448 279.143 77.2781 279.611C77.6115 280.08 78.0177 280.314 78.4969 280.314C78.9865 280.314 79.3927 280.08 79.7156 279.611C80.049 279.143 80.2156 278.205 80.2156 276.799C80.2156 275.382 80.049 274.445 79.7156 273.986C79.3927 273.518 78.9812 273.283 78.4812 273.283C78.0021 273.283 77.6167 273.486 77.325 273.893C76.9604 274.413 76.7781 275.382 76.7781 276.799Z" fill="black"/>
<path d="M58.075 188.267V186.204H54.3562V185.235L58.2781 179.673H59.1375V185.235H60.2937V186.204H59.1375V188.267H58.075ZM58.075 185.235V181.376L55.3875 185.235H58.075ZM61.7 184.032C61.7 183.011 61.8042 182.194 62.0125 181.579C62.2208 180.954 62.5281 180.475 62.9344 180.142C63.351 179.808 63.8719 179.642 64.4969 179.642C64.9552 179.642 65.3562 179.735 65.7 179.923C66.0542 180.11 66.3458 180.381 66.575 180.735C66.8042 181.079 66.9812 181.501 67.1062 182.001C67.2312 182.501 67.2937 183.178 67.2937 184.032C67.2937 185.043 67.1896 185.855 66.9812 186.47C66.7833 187.084 66.476 187.563 66.0594 187.907C65.6531 188.241 65.1323 188.407 64.4969 188.407C63.674 188.407 63.0229 188.11 62.5437 187.517C61.9812 186.808 61.7 185.647 61.7 184.032ZM62.7781 184.032C62.7781 185.438 62.9448 186.376 63.2781 186.845C63.6115 187.313 64.0177 187.548 64.4969 187.548C64.9865 187.548 65.3927 187.313 65.7156 186.845C66.049 186.376 66.2156 185.438 66.2156 184.032C66.2156 182.616 66.049 181.678 65.7156 181.22C65.3927 180.751 64.9812 180.517 64.4812 180.517C64.0021 180.517 63.6167 180.72 63.325 181.126C62.9604 181.647 62.7781 182.616 62.7781 184.032ZM68.7 184.032C68.7 183.011 68.8042 182.194 69.0125 181.579C69.2208 180.954 69.5281 180.475 69.9344 180.142C70.351 179.808 70.8719 179.642 71.4969 179.642C71.9552 179.642 72.3562 179.735 72.7 179.923C73.0542 180.11 73.3458 180.381 73.575 180.735C73.8042 181.079 73.9812 181.501 74.1062 182.001C74.2312 182.501 74.2937 183.178 74.2937 184.032C74.2937 185.043 74.1896 185.855 73.9812 186.47C73.7833 187.084 73.476 187.563 73.0594 187.907C72.6531 188.241 72.1323 188.407 71.4969 188.407C70.674 188.407 70.0229 188.11 69.5437 187.517C68.9812 186.808 68.7 185.647 68.7 184.032ZM69.7781 184.032C69.7781 185.438 69.9448 186.376 70.2781 186.845C70.6115 187.313 71.0177 187.548 71.4969 187.548C71.9865 187.548 72.3927 187.313 72.7156 186.845C73.049 186.376 73.2156 185.438 73.2156 184.032C73.2156 182.616 73.049 181.678 72.7156 181.22C72.3927 180.751 71.9812 180.517 71.4812 180.517C71.0021 180.517 70.6167 180.72 70.325 181.126C69.9604 181.647 69.7781 182.616 69.7781 184.032ZM75.7 184.032C75.7 183.011 75.8042 182.194 76.0125 181.579C76.2208 180.954 76.5281 180.475 76.9344 180.142C77.351 179.808 77.8719 179.642 78.4969 179.642C78.9552 179.642 79.3562 179.735 79.7 179.923C80.0542 180.11 80.3458 180.381 80.575 180.735C80.8042 181.079 80.9812 181.501 81.1062 182.001C81.2312 182.501 81.2937 183.178 81.2937 184.032C81.2937 185.043 81.1896 185.855 80.9812 186.47C80.7833 187.084 80.476 187.563 80.0594 187.907C79.6531 188.241 79.1323 188.407 78.4969 188.407C77.674 188.407 77.0229 188.11 76.5437 187.517C75.9812 186.808 75.7 185.647 75.7 184.032ZM76.7781 184.032C76.7781 185.438 76.9448 186.376 77.2781 186.845C77.6115 187.313 78.0177 187.548 78.4969 187.548C78.9865 187.548 79.3927 187.313 79.7156 186.845C80.049 186.376 80.2156 185.438 80.2156 184.032C80.2156 182.616 80.049 181.678 79.7156 181.22C79.3927 180.751 78.9812 180.517 78.4812 180.517C78.0021 180.517 77.6167 180.72 77.325 181.126C76.9604 181.647 76.7781 182.616 76.7781 184.032Z" fill="black"/>
<path d="M60.1687 89.0156L59.1219 89.0938C59.0281 88.6771 58.8979 88.375 58.7312 88.1875C58.4396 87.8854 58.0854 87.7344 57.6687 87.7344C57.3354 87.7344 57.0385 87.8281 56.7781 88.0156C56.4552 88.2656 56.1948 88.625 55.9969 89.0938C55.8094 89.5521 55.7104 90.2083 55.7 91.0625C55.95 90.6771 56.2573 90.3906 56.6219 90.2031C56.9969 90.0156 57.3875 89.9219 57.7937 89.9219C58.4917 89.9219 59.0854 90.1823 59.575 90.7031C60.075 91.224 60.325 91.8906 60.325 92.7031C60.325 93.2448 60.2052 93.75 59.9656 94.2188C59.7365 94.6771 59.4187 95.0312 59.0125 95.2812C58.6062 95.5208 58.1479 95.6406 57.6375 95.6406C56.7521 95.6406 56.0333 95.3177 55.4812 94.6719C54.9292 94.026 54.6531 92.9635 54.6531 91.4844C54.6531 89.8177 54.9604 88.6094 55.575 87.8594C56.1062 87.2031 56.825 86.875 57.7312 86.875C58.4083 86.875 58.9604 87.0677 59.3875 87.4531C59.825 87.8281 60.0854 88.349 60.1687 89.0156ZM55.8719 92.7188C55.8719 93.0833 55.9448 93.4323 56.0906 93.7656C56.2469 94.0885 56.4604 94.3385 56.7312 94.5156C57.0125 94.6927 57.3094 94.7812 57.6219 94.7812C58.0594 94.7812 58.4396 94.6042 58.7625 94.25C59.0854 93.8854 59.2469 93.3958 59.2469 92.7812C59.2469 92.1875 59.0854 91.7188 58.7625 91.375C58.45 91.0312 58.0542 90.8594 57.575 90.8594C57.0958 90.8594 56.6896 91.0312 56.3562 91.375C56.0333 91.7188 55.8719 92.1667 55.8719 92.7188ZM61.7 91.2656C61.7 90.2448 61.8042 89.4271 62.0125 88.8125C62.2208 88.1875 62.5281 87.7083 62.9344 87.375C63.351 87.0417 63.8719 86.875 64.4969 86.875C64.9552 86.875 65.3562 86.9688 65.7 87.1562C66.0542 87.3438 66.3458 87.6146 66.575 87.9688C66.8042 88.3125 66.9812 88.7344 67.1062 89.2344C67.2312 89.7344 67.2937 90.4115 67.2937 91.2656C67.2937 92.276 67.1896 93.0885 66.9812 93.7031C66.7833 94.3177 66.476 94.7969 66.0594 95.1406C65.6531 95.474 65.1323 95.6406 64.4969 95.6406C63.674 95.6406 63.0229 95.3438 62.5437 94.75C61.9812 94.0417 61.7 92.8802 61.7 91.2656ZM62.7781 91.2656C62.7781 92.6719 62.9448 93.6094 63.2781 94.0781C63.6115 94.5469 64.0177 94.7812 64.4969 94.7812C64.9865 94.7812 65.3927 94.5469 65.7156 94.0781C66.049 93.6094 66.2156 92.6719 66.2156 91.2656C66.2156 89.849 66.049 88.9115 65.7156 88.4531C65.3927 87.9844 64.9812 87.75 64.4812 87.75C64.0021 87.75 63.6167 87.9531 63.325 88.3594C62.9604 88.8802 62.7781 89.849 62.7781 91.2656ZM68.7 91.2656C68.7 90.2448 68.8042 89.4271 69.0125 88.8125C69.2208 88.1875 69.5281 87.7083 69.9344 87.375C70.351 87.0417 70.8719 86.875 71.4969 86.875C71.9552 86.875 72.3562 86.9688 72.7 87.1562C73.0542 87.3438 73.3458 87.6146 73.575 87.9688C73.8042 88.3125 73.9812 88.7344 74.1062 89.2344C74.2312 89.7344 74.2937 90.4115 74.2937 91.2656C74.2937 92.276 74.1896 93.0885 73.9812 93.7031C73.7833 94.3177 73.476 94.7969 73.0594 95.1406C72.6531 95.474 72.1323 95.6406 71.4969 95.6406C70.674 95.6406 70.0229 95.3438 69.5437 94.75C68.9812 94.0417 68.7 92.8802 68.7 91.2656ZM69.7781 91.2656C69.7781 92.6719 69.9448 93.6094 70.2781 94.0781C70.6115 94.5469 71.0177 94.7812 71.4969 94.7812C71.9865 94.7812 72.3927 94.5469 72.7156 94.0781C73.049 93.6094 73.2156 92.6719 73.2156 91.2656C73.2156 89.849 73.049 88.9115 72.7156 88.4531C72.3927 87.9844 71.9812 87.75 71.4812 87.75C71.0021 87.75 70.6167 87.9531 70.325 88.3594C69.9604 88.8802 69.7781 89.849 69.7781 91.2656ZM75.7 91.2656C75.7 90.2448 75.8042 89.4271 76.0125 88.8125C76.2208 88.1875 76.5281 87.7083 76.9344 87.375C77.351 87.0417 77.8719 86.875 78.4969 86.875C78.9552 86.875 79.3562 86.9688 79.7 87.1562C80.0542 87.3438 80.3458 87.6146 80.575 87.9688C80.8042 88.3125 80.9812 88.7344 81.1062 89.2344C81.2312 89.7344 81.2937 90.4115 81.2937 91.2656C81.2937 92.276 81.1896 93.0885 80.9812 93.7031C80.7833 94.3177 80.476 94.7969 80.0594 95.1406C79.6531 95.474 79.1323 95.6406 78.4969 95.6406C77.674 95.6406 77.0229 95.3438 76.5437 94.75C75.9812 94.0417 75.7 92.8802 75.7 91.2656ZM76.7781 91.2656C76.7781 92.6719 76.9448 93.6094 77.2781 94.0781C77.6115 94.5469 78.0177 94.7812 78.4969 94.7812C78.9865 94.7812 79.3927 94.5469 79.7156 94.0781C80.049 93.6094 80.2156 92.6719 80.2156 91.2656C80.2156 89.849 80.049 88.9115 79.7156 88.4531C79.3927 87.9844 78.9812 87.75 78.4812 87.75C78.0021 87.75 77.6167 87.9531 77.325 88.3594C76.9604 88.8802 76.7781 89.849 76.7781 91.2656Z" fill="black"/>
<path d="M167.959 386.8V384.737H164.24V383.769L168.162 378.206H169.021V383.769H170.177V384.737H169.021V386.8H167.959ZM167.959 383.769V379.909L165.271 383.769H167.959ZM174.959 386.8V384.737H171.24V383.769L175.162 378.206H176.021V383.769H177.177V384.737H176.021V386.8H174.959ZM174.959 383.769V379.909L172.271 383.769H174.959ZM178.584 382.565C178.584 381.545 178.688 380.727 178.896 380.112C179.104 379.487 179.412 379.008 179.818 378.675C180.235 378.341 180.756 378.175 181.381 378.175C181.839 378.175 182.24 378.269 182.584 378.456C182.938 378.644 183.229 378.914 183.459 379.269C183.688 379.612 183.865 380.034 183.99 380.534C184.115 381.034 184.177 381.711 184.177 382.565C184.177 383.576 184.073 384.388 183.865 385.003C183.667 385.618 183.36 386.097 182.943 386.44C182.537 386.774 182.016 386.94 181.381 386.94C180.558 386.94 179.907 386.644 179.427 386.05C178.865 385.341 178.584 384.18 178.584 382.565ZM179.662 382.565C179.662 383.972 179.828 384.909 180.162 385.378C180.495 385.847 180.901 386.081 181.381 386.081C181.87 386.081 182.276 385.847 182.599 385.378C182.933 384.909 183.099 383.972 183.099 382.565C183.099 381.149 182.933 380.211 182.599 379.753C182.276 379.284 181.865 379.05 181.365 379.05C180.886 379.05 180.5 379.253 180.209 379.659C179.844 380.18 179.662 381.149 179.662 382.565ZM185.584 382.565C185.584 381.545 185.688 380.727 185.896 380.112C186.104 379.487 186.412 379.008 186.818 378.675C187.235 378.341 187.756 378.175 188.381 378.175C188.839 378.175 189.24 378.269 189.584 378.456C189.938 378.644 190.229 378.914 190.459 379.269C190.688 379.612 190.865 380.034 190.99 380.534C191.115 381.034 191.177 381.711 191.177 382.565C191.177 383.576 191.073 384.388 190.865 385.003C190.667 385.618 190.36 386.097 189.943 386.44C189.537 386.774 189.016 386.94 188.381 386.94C187.558 386.94 186.907 386.644 186.427 386.05C185.865 385.341 185.584 384.18 185.584 382.565ZM186.662 382.565C186.662 383.972 186.828 384.909 187.162 385.378C187.495 385.847 187.901 386.081 188.381 386.081C188.87 386.081 189.276 385.847 189.599 385.378C189.933 384.909 190.099 383.972 190.099 382.565C190.099 381.149 189.933 380.211 189.599 379.753C189.276 379.284 188.865 379.05 188.365 379.05C187.886 379.05 187.5 379.253 187.209 379.659C186.844 380.18 186.662 381.149 186.662 382.565ZM192.584 382.565C192.584 381.545 192.688 380.727 192.896 380.112C193.104 379.487 193.412 379.008 193.818 378.675C194.235 378.341 194.756 378.175 195.381 378.175C195.839 378.175 196.24 378.269 196.584 378.456C196.938 378.644 197.229 378.914 197.459 379.269C197.688 379.612 197.865 380.034 197.99 380.534C198.115 381.034 198.177 381.711 198.177 382.565C198.177 383.576 198.073 384.388 197.865 385.003C197.667 385.618 197.36 386.097 196.943 386.44C196.537 386.774 196.016 386.94 195.381 386.94C194.558 386.94 193.907 386.644 193.427 386.05C192.865 385.341 192.584 384.18 192.584 382.565ZM193.662 382.565C193.662 383.972 193.828 384.909 194.162 385.378C194.495 385.847 194.901 386.081 195.381 386.081C195.87 386.081 196.276 385.847 196.599 385.378C196.933 384.909 197.099 383.972 197.099 382.565C197.099 381.149 196.933 380.211 196.599 379.753C196.276 379.284 195.865 379.05 195.365 379.05C194.886 379.05 194.5 379.253 194.209 379.659C193.844 380.18 193.662 381.149 193.662 382.565Z" fill="black"/>
<path d="M289.236 386.8V384.737H285.517V383.769L289.439 378.206H290.299V383.769H291.455V384.737H290.299V386.8H289.236ZM289.236 383.769V379.909L286.549 383.769H289.236ZM296.236 386.8V384.737H292.517V383.769L296.439 378.206H297.299V383.769H298.455V384.737H297.299V386.8H296.236ZM296.236 383.769V379.909L293.549 383.769H296.236ZM305.408 385.784V386.8H299.72C299.72 386.55 299.762 386.305 299.845 386.065C299.991 385.68 300.22 385.3 300.533 384.925C300.856 384.55 301.319 384.118 301.924 383.628C302.861 382.857 303.491 382.248 303.814 381.8C304.148 381.352 304.314 380.93 304.314 380.534C304.314 380.118 304.163 379.769 303.861 379.487C303.559 379.196 303.168 379.05 302.689 379.05C302.179 379.05 301.773 379.201 301.47 379.503C301.168 379.805 301.012 380.227 301.002 380.769L299.924 380.659C299.997 379.847 300.273 379.232 300.752 378.815C301.241 378.388 301.898 378.175 302.72 378.175C303.543 378.175 304.194 378.404 304.674 378.862C305.153 379.321 305.392 379.888 305.392 380.565C305.392 380.909 305.319 381.248 305.174 381.581C305.038 381.904 304.804 382.253 304.47 382.628C304.148 382.993 303.611 383.493 302.861 384.128C302.226 384.659 301.814 385.024 301.627 385.222C301.45 385.409 301.304 385.597 301.189 385.784H305.408ZM306.861 382.565C306.861 381.545 306.965 380.727 307.174 380.112C307.382 379.487 307.689 379.008 308.095 378.675C308.512 378.341 309.033 378.175 309.658 378.175C310.116 378.175 310.517 378.269 310.861 378.456C311.215 378.644 311.507 378.914 311.736 379.269C311.965 379.612 312.142 380.034 312.267 380.534C312.392 381.034 312.455 381.711 312.455 382.565C312.455 383.576 312.351 384.388 312.142 385.003C311.944 385.618 311.637 386.097 311.22 386.44C310.814 386.774 310.293 386.94 309.658 386.94C308.835 386.94 308.184 386.644 307.705 386.05C307.142 385.341 306.861 384.18 306.861 382.565ZM307.939 382.565C307.939 383.972 308.106 384.909 308.439 385.378C308.773 385.847 309.179 386.081 309.658 386.081C310.148 386.081 310.554 385.847 310.877 385.378C311.21 384.909 311.377 383.972 311.377 382.565C311.377 381.149 311.21 380.211 310.877 379.753C310.554 379.284 310.142 379.05 309.642 379.05C309.163 379.05 308.778 379.253 308.486 379.659C308.121 380.18 307.939 381.149 307.939 382.565ZM313.861 382.565C313.861 381.545 313.965 380.727 314.174 380.112C314.382 379.487 314.689 379.008 315.095 378.675C315.512 378.341 316.033 378.175 316.658 378.175C317.116 378.175 317.517 378.269 317.861 378.456C318.215 378.644 318.507 378.914 318.736 379.269C318.965 379.612 319.142 380.034 319.267 380.534C319.392 381.034 319.455 381.711 319.455 382.565C319.455 383.576 319.351 384.388 319.142 385.003C318.944 385.618 318.637 386.097 318.22 386.44C317.814 386.774 317.293 386.94 316.658 386.94C315.835 386.94 315.184 386.644 314.705 386.05C314.142 385.341 313.861 384.18 313.861 382.565ZM314.939 382.565C314.939 383.972 315.106 384.909 315.439 385.378C315.773 385.847 316.179 386.081 316.658 386.081C317.148 386.081 317.554 385.847 317.877 385.378C318.21 384.909 318.377 383.972 318.377 382.565C318.377 381.149 318.21 380.211 317.877 379.753C317.554 379.284 317.142 379.05 316.642 379.05C316.163 379.05 315.778 379.253 315.486 379.659C315.121 380.18 314.939 381.149 314.939 382.565Z" fill="black"/>
<path d="M410.514 386.8V384.737H406.795V383.769L410.717 378.206H411.576V383.769H412.732V384.737H411.576V386.8H410.514ZM410.514 383.769V379.909L407.826 383.769H410.514ZM417.514 386.8V384.737H413.795V383.769L417.717 378.206H418.576V383.769H419.732V384.737H418.576V386.8H417.514ZM417.514 383.769V379.909L414.826 383.769H417.514ZM424.514 386.8V384.737H420.795V383.769L424.717 378.206H425.576V383.769H426.732V384.737H425.576V386.8H424.514ZM424.514 383.769V379.909L421.826 383.769H424.514ZM428.139 382.565C428.139 381.545 428.243 380.727 428.451 380.112C428.659 379.487 428.967 379.008 429.373 378.675C429.79 378.341 430.31 378.175 430.935 378.175C431.394 378.175 431.795 378.269 432.139 378.456C432.493 378.644 432.784 378.914 433.014 379.269C433.243 379.612 433.42 380.034 433.545 380.534C433.67 381.034 433.732 381.711 433.732 382.565C433.732 383.576 433.628 384.388 433.42 385.003C433.222 385.618 432.915 386.097 432.498 386.44C432.092 386.774 431.571 386.94 430.935 386.94C430.112 386.94 429.461 386.644 428.982 386.05C428.42 385.341 428.139 384.18 428.139 382.565ZM429.217 382.565C429.217 383.972 429.383 384.909 429.717 385.378C430.05 385.847 430.456 386.081 430.935 386.081C431.425 386.081 431.831 385.847 432.154 385.378C432.487 384.909 432.654 383.972 432.654 382.565C432.654 381.149 432.487 380.211 432.154 379.753C431.831 379.284 431.42 379.05 430.92 379.05C430.441 379.05 430.055 379.253 429.764 379.659C429.399 380.18 429.217 381.149 429.217 382.565ZM435.139 382.565C435.139 381.545 435.243 380.727 435.451 380.112C435.659 379.487 435.967 379.008 436.373 378.675C436.79 378.341 437.31 378.175 437.935 378.175C438.394 378.175 438.795 378.269 439.139 378.456C439.493 378.644 439.784 378.914 440.014 379.269C440.243 379.612 440.42 380.034 440.545 380.534C440.67 381.034 440.732 381.711 440.732 382.565C440.732 383.576 440.628 384.388 440.42 385.003C440.222 385.618 439.915 386.097 439.498 386.44C439.092 386.774 438.571 386.94 437.935 386.94C437.112 386.94 436.461 386.644 435.982 386.05C435.42 385.341 435.139 384.18 435.139 382.565ZM436.217 382.565C436.217 383.972 436.383 384.909 436.717 385.378C437.05 385.847 437.456 386.081 437.935 386.081C438.425 386.081 438.831 385.847 439.154 385.378C439.487 384.909 439.654 383.972 439.654 382.565C439.654 381.149 439.487 380.211 439.154 379.753C438.831 379.284 438.42 379.05 437.92 379.05C437.441 379.05 437.055 379.253 436.764 379.659C436.399 380.18 436.217 381.149 436.217 382.565Z" fill="black"/>
<path d="M531.791 386.8V384.737H528.072V383.769L531.994 378.206H532.853V383.769H534.01V384.737H532.853V386.8H531.791ZM531.791 383.769V379.909L529.103 383.769H531.791ZM538.791 386.8V384.737H535.072V383.769L538.994 378.206H539.853V383.769H541.01V384.737H539.853V386.8H538.791ZM538.791 383.769V379.909L536.103 383.769H538.791ZM547.885 380.315L546.838 380.394C546.744 379.977 546.614 379.675 546.447 379.487C546.156 379.185 545.801 379.034 545.385 379.034C545.051 379.034 544.754 379.128 544.494 379.315C544.171 379.565 543.911 379.925 543.713 380.394C543.525 380.852 543.426 381.508 543.416 382.362C543.666 381.977 543.973 381.69 544.338 381.503C544.713 381.315 545.103 381.222 545.51 381.222C546.208 381.222 546.801 381.482 547.291 382.003C547.791 382.524 548.041 383.19 548.041 384.003C548.041 384.545 547.921 385.05 547.682 385.519C547.452 385.977 547.135 386.331 546.728 386.581C546.322 386.821 545.864 386.94 545.353 386.94C544.468 386.94 543.749 386.618 543.197 385.972C542.645 385.326 542.369 384.263 542.369 382.784C542.369 381.118 542.676 379.909 543.291 379.159C543.822 378.503 544.541 378.175 545.447 378.175C546.124 378.175 546.676 378.368 547.103 378.753C547.541 379.128 547.801 379.649 547.885 380.315ZM543.588 384.019C543.588 384.383 543.661 384.732 543.807 385.065C543.963 385.388 544.176 385.638 544.447 385.815C544.728 385.993 545.025 386.081 545.338 386.081C545.775 386.081 546.156 385.904 546.478 385.55C546.801 385.185 546.963 384.696 546.963 384.081C546.963 383.487 546.801 383.019 546.478 382.675C546.166 382.331 545.77 382.159 545.291 382.159C544.812 382.159 544.406 382.331 544.072 382.675C543.749 383.019 543.588 383.466 543.588 384.019ZM549.416 382.565C549.416 381.545 549.52 380.727 549.728 380.112C549.937 379.487 550.244 379.008 550.65 378.675C551.067 378.341 551.588 378.175 552.213 378.175C552.671 378.175 553.072 378.269 553.416 378.456C553.77 378.644 554.062 378.914 554.291 379.269C554.52 379.612 554.697 380.034 554.822 380.534C554.947 381.034 555.01 381.711 555.01 382.565C555.01 383.576 554.906 384.388 554.697 385.003C554.499 385.618 554.192 386.097 553.775 386.44C553.369 386.774 552.848 386.94 552.213 386.94C551.39 386.94 550.739 386.644 550.26 386.05C549.697 385.341 549.416 384.18 549.416 382.565ZM550.494 382.565C550.494 383.972 550.661 384.909 550.994 385.378C551.327 385.847 551.734 386.081 552.213 386.081C552.702 386.081 553.109 385.847 553.432 385.378C553.765 384.909 553.932 383.972 553.932 382.565C553.932 381.149 553.765 380.211 553.432 379.753C553.109 379.284 552.697 379.05 552.197 379.05C551.718 379.05 551.333 379.253 551.041 379.659C550.676 380.18 550.494 381.149 550.494 382.565ZM556.416 382.565C556.416 381.545 556.52 380.727 556.728 380.112C556.937 379.487 557.244 379.008 557.65 378.675C558.067 378.341 558.588 378.175 559.213 378.175C559.671 378.175 560.072 378.269 560.416 378.456C560.77 378.644 561.062 378.914 561.291 379.269C561.52 379.612 561.697 380.034 561.822 380.534C561.947 381.034 562.01 381.711 562.01 382.565C562.01 383.576 561.906 384.388 561.697 385.003C561.499 385.618 561.192 386.097 560.775 386.44C560.369 386.774 559.848 386.94 559.213 386.94C558.39 386.94 557.739 386.644 557.26 386.05C556.697 385.341 556.416 384.18 556.416 382.565ZM557.494 382.565C557.494 383.972 557.661 384.909 557.994 385.378C558.327 385.847 558.734 386.081 559.213 386.081C559.702 386.081 560.109 385.847 560.432 385.378C560.765 384.909 560.932 383.972 560.932 382.565C560.932 381.149 560.765 380.211 560.432 379.753C560.109 379.284 559.697 379.05 559.197 379.05C558.718 379.05 558.333 379.253 558.041 379.659C557.676 380.18 557.494 381.149 557.494 382.565Z" fill="black"/>
<path d="M653.068 386.8V384.737H649.35V383.769L653.272 378.206H654.131V383.769H655.287V384.737H654.131V386.8H653.068ZM653.068 383.769V379.909L650.381 383.769H653.068ZM660.068 386.8V384.737H656.35V383.769L660.272 378.206H661.131V383.769H662.287V384.737H661.131V386.8H660.068ZM660.068 383.769V379.909L657.381 383.769H660.068ZM665.318 382.144C664.881 381.977 664.553 381.748 664.334 381.456C664.126 381.154 664.022 380.8 664.022 380.394C664.022 379.769 664.246 379.243 664.693 378.815C665.152 378.388 665.751 378.175 666.49 378.175C667.24 378.175 667.844 378.394 668.303 378.831C668.761 379.269 668.99 379.8 668.99 380.425C668.99 380.821 668.886 381.164 668.678 381.456C668.469 381.748 668.152 381.977 667.725 382.144C668.256 382.31 668.657 382.586 668.928 382.972C669.199 383.357 669.334 383.815 669.334 384.347C669.334 385.076 669.074 385.69 668.553 386.19C668.042 386.69 667.36 386.94 666.506 386.94C665.662 386.94 664.98 386.69 664.459 386.19C663.938 385.69 663.678 385.065 663.678 384.315C663.678 383.753 663.818 383.284 664.1 382.909C664.391 382.534 664.798 382.279 665.318 382.144ZM665.1 380.347C665.1 380.753 665.23 381.086 665.49 381.347C665.761 381.607 666.105 381.737 666.522 381.737C666.928 381.737 667.261 381.612 667.522 381.362C667.782 381.102 667.912 380.784 667.912 380.409C667.912 380.024 667.777 379.701 667.506 379.44C667.235 379.17 666.902 379.034 666.506 379.034C666.1 379.034 665.761 379.164 665.49 379.425C665.23 379.685 665.1 379.993 665.1 380.347ZM664.772 384.315C664.772 384.618 664.839 384.909 664.975 385.19C665.12 385.472 665.334 385.69 665.615 385.847C665.897 386.003 666.199 386.081 666.522 386.081C667.022 386.081 667.433 385.92 667.756 385.597C668.089 385.274 668.256 384.862 668.256 384.362C668.256 383.852 668.089 383.43 667.756 383.097C667.423 382.763 667.001 382.597 666.49 382.597C665.99 382.597 665.579 382.763 665.256 383.097C664.933 383.42 664.772 383.826 664.772 384.315ZM670.693 382.565C670.693 381.545 670.798 380.727 671.006 380.112C671.214 379.487 671.522 379.008 671.928 378.675C672.344 378.341 672.865 378.175 673.49 378.175C673.949 378.175 674.35 378.269 674.693 378.456C675.048 378.644 675.339 378.914 675.568 379.269C675.798 379.612 675.975 380.034 676.1 380.534C676.225 381.034 676.287 381.711 676.287 382.565C676.287 383.576 676.183 384.388 675.975 385.003C675.777 385.618 675.469 386.097 675.053 386.44C674.647 386.774 674.126 386.94 673.49 386.94C672.667 386.94 672.016 386.644 671.537 386.05C670.975 385.341 670.693 384.18 670.693 382.565ZM671.772 382.565C671.772 383.972 671.938 384.909 672.272 385.378C672.605 385.847 673.011 386.081 673.49 386.081C673.98 386.081 674.386 385.847 674.709 385.378C675.042 384.909 675.209 383.972 675.209 382.565C675.209 381.149 675.042 380.211 674.709 379.753C674.386 379.284 673.975 379.05 673.475 379.05C672.995 379.05 672.61 379.253 672.318 379.659C671.954 380.18 671.772 381.149 671.772 382.565ZM677.693 382.565C677.693 381.545 677.798 380.727 678.006 380.112C678.214 379.487 678.522 379.008 678.928 378.675C679.344 378.341 679.865 378.175 680.49 378.175C680.949 378.175 681.35 378.269 681.693 378.456C682.048 378.644 682.339 378.914 682.568 379.269C682.798 379.612 682.975 380.034 683.1 380.534C683.225 381.034 683.287 381.711 683.287 382.565C683.287 383.576 683.183 384.388 682.975 385.003C682.777 385.618 682.469 386.097 682.053 386.44C681.647 386.774 681.126 386.94 680.49 386.94C679.667 386.94 679.016 386.644 678.537 386.05C677.975 385.341 677.693 384.18 677.693 382.565ZM678.772 382.565C678.772 383.972 678.938 384.909 679.272 385.378C679.605 385.847 680.011 386.081 680.49 386.081C680.98 386.081 681.386 385.847 681.709 385.378C682.042 384.909 682.209 383.972 682.209 382.565C682.209 381.149 682.042 380.211 681.709 379.753C681.386 379.284 680.975 379.05 680.475 379.05C679.995 379.05 679.61 379.253 679.318 379.659C678.954 380.18 678.772 381.149 678.772 382.565Z" fill="black"/>
<path d="M576.847 65.5127V66.7002H570.222C570.211 66.4085 570.258 66.1221 570.363 65.8408C570.54 65.3929 570.81 64.9502 571.175 64.5127C571.55 64.0752 572.086 63.57 572.784 62.9971C573.878 62.1012 574.613 61.3929 574.988 60.8721C575.373 60.3512 575.566 59.8564 575.566 59.3877C575.566 58.8981 575.389 58.4867 575.034 58.1533C574.691 57.82 574.243 57.6533 573.691 57.6533C573.097 57.6533 572.618 57.8304 572.253 58.1846C571.899 58.5387 571.722 59.0335 571.722 59.6689L570.456 59.5283C570.54 58.5908 570.862 57.8773 571.425 57.3877C571.998 56.8877 572.758 56.6377 573.706 56.6377C574.675 56.6377 575.435 56.9033 575.988 57.4346C576.55 57.9658 576.831 58.6273 576.831 59.4189C576.831 59.8252 576.748 60.221 576.581 60.6064C576.425 60.9919 576.154 61.3981 575.769 61.8252C575.394 62.2523 574.764 62.8408 573.878 63.5908C573.139 64.2054 572.665 64.6273 572.456 64.8564C572.248 65.0752 572.076 65.2939 571.941 65.5127H576.847ZM578.378 61.7627C578.378 60.5752 578.498 59.6221 578.738 58.9033C578.988 58.1742 579.352 57.6169 579.831 57.2314C580.31 56.8356 580.915 56.6377 581.644 56.6377C582.185 56.6377 582.659 56.7471 583.066 56.9658C583.472 57.1846 583.805 57.4971 584.066 57.9033C584.336 58.3096 584.545 58.8044 584.691 59.3877C584.836 59.971 584.909 60.7627 584.909 61.7627C584.909 62.9398 584.79 63.8877 584.55 64.6064C584.31 65.3252 583.951 65.8825 583.472 66.2783C582.993 66.6742 582.383 66.8721 581.644 66.8721C580.685 66.8721 579.93 66.5231 579.378 65.8252C578.711 64.9919 578.378 63.6377 578.378 61.7627ZM579.644 61.7627C579.644 63.4085 579.836 64.5023 580.222 65.0439C580.607 65.5856 581.081 65.8564 581.644 65.8564C582.217 65.8564 582.696 65.5856 583.081 65.0439C583.467 64.4919 583.659 63.3981 583.659 61.7627C583.659 60.1064 583.467 59.0075 583.081 58.4658C582.696 57.9242 582.211 57.6533 581.628 57.6533C581.066 57.6533 580.618 57.8929 580.284 58.3721C579.857 58.9867 579.644 60.1169 579.644 61.7627ZM592.847 65.5127V66.7002H586.222C586.211 66.4085 586.258 66.1221 586.363 65.8408C586.54 65.3929 586.81 64.9502 587.175 64.5127C587.55 64.0752 588.086 63.57 588.784 62.9971C589.878 62.1012 590.613 61.3929 590.988 60.8721C591.373 60.3512 591.566 59.8564 591.566 59.3877C591.566 58.8981 591.389 58.4867 591.034 58.1533C590.691 57.82 590.243 57.6533 589.691 57.6533C589.097 57.6533 588.618 57.8304 588.253 58.1846C587.899 58.5387 587.722 59.0335 587.722 59.6689L586.456 59.5283C586.54 58.5908 586.862 57.8773 587.425 57.3877C587.998 56.8877 588.758 56.6377 589.706 56.6377C590.675 56.6377 591.435 56.9033 591.988 57.4346C592.55 57.9658 592.831 58.6273 592.831 59.4189C592.831 59.8252 592.748 60.221 592.581 60.6064C592.425 60.9919 592.154 61.3981 591.769 61.8252C591.394 62.2523 590.764 62.8408 589.878 63.5908C589.139 64.2054 588.665 64.6273 588.456 64.8564C588.248 65.0752 588.076 65.2939 587.941 65.5127H592.847ZM600.847 65.5127V66.7002H594.222C594.211 66.4085 594.258 66.1221 594.363 65.8408C594.54 65.3929 594.81 64.9502 595.175 64.5127C595.55 64.0752 596.086 63.57 596.784 62.9971C597.878 62.1012 598.613 61.3929 598.988 60.8721C599.373 60.3512 599.566 59.8564 599.566 59.3877C599.566 58.8981 599.389 58.4867 599.034 58.1533C598.691 57.82 598.243 57.6533 597.691 57.6533C597.097 57.6533 596.618 57.8304 596.253 58.1846C595.899 58.5387 595.722 59.0335 595.722 59.6689L594.456 59.5283C594.54 58.5908 594.862 57.8773 595.425 57.3877C595.998 56.8877 596.758 56.6377 597.706 56.6377C598.675 56.6377 599.435 56.9033 599.988 57.4346C600.55 57.9658 600.831 58.6273 600.831 59.4189C600.831 59.8252 600.748 60.221 600.581 60.6064C600.425 60.9919 600.154 61.3981 599.769 61.8252C599.394 62.2523 598.764 62.8408 597.878 63.5908C597.139 64.2054 596.665 64.6273 596.456 64.8564C596.248 65.0752 596.076 65.2939 595.941 65.5127H600.847Z" fill="#999999"/>
<path d="M606.175 58.1689C605.487 59.3669 604.633 60.3669 603.612 61.1689L602.847 60.1846C604.336 59.0908 605.357 57.5075 605.909 55.4346L607.159 55.7627C607.305 55.9085 607.253 55.9971 607.003 56.0283L606.566 57.1221H614.269V58.1689H610.284V60.0283H613.566V61.0596H610.284V63.5283H614.878V64.5596H610.284V67.8564H609.191V64.5596H602.894V63.5283H605.362V60.0283H609.191V58.1689H606.175ZM606.456 63.5283H609.191V61.0596H606.456V63.5283Z" fill="#999999"/>
<path d="M616.566 64.3877L617.753 64.2783C617.847 64.8304 618.034 65.2314 618.316 65.4814C618.607 65.7314 618.972 65.8564 619.409 65.8564C619.784 65.8564 620.112 65.7731 620.394 65.6064C620.685 65.4294 620.92 65.195 621.097 64.9033C621.284 64.6117 621.441 64.221 621.566 63.7314C621.691 63.2419 621.753 62.7419 621.753 62.2314C621.753 62.1794 621.748 62.096 621.737 61.9814C621.498 62.3773 621.165 62.7002 620.737 62.9502C620.31 63.1898 619.847 63.3096 619.347 63.3096C618.514 63.3096 617.81 63.0075 617.237 62.4033C616.665 61.7992 616.378 61.0075 616.378 60.0283C616.378 59.0075 616.675 58.1898 617.269 57.5752C617.873 56.9502 618.628 56.6377 619.534 56.6377C620.18 56.6377 620.774 56.8148 621.316 57.1689C621.857 57.5127 622.269 58.0127 622.55 58.6689C622.831 59.3148 622.972 60.2523 622.972 61.4814C622.972 62.7627 622.831 63.7835 622.55 64.5439C622.279 65.3044 621.868 65.8825 621.316 66.2783C620.764 66.6742 620.118 66.8721 619.378 66.8721C618.597 66.8721 617.956 66.6533 617.456 66.2158C616.967 65.7783 616.67 65.1689 616.566 64.3877ZM621.597 59.9658C621.597 59.2575 621.409 58.695 621.034 58.2783C620.659 57.8617 620.211 57.6533 619.691 57.6533C619.139 57.6533 618.659 57.8773 618.253 58.3252C617.847 58.7731 617.644 59.3512 617.644 60.0596C617.644 60.695 617.836 61.2158 618.222 61.6221C618.607 62.0179 619.081 62.2158 619.644 62.2158C620.217 62.2158 620.685 62.0179 621.05 61.6221C621.415 61.2158 621.597 60.6637 621.597 59.9658Z" fill="#999999"/>
<path d="M633.706 63.5283H628.503C628.503 65.0908 627.701 66.57 626.097 67.9658L625.175 66.9189C626.665 65.971 627.409 64.5492 627.409 62.6533V55.9814H634.8V66.7627C634.8 67.346 634.487 67.6377 633.862 67.6377H632.55L632.331 66.4189H633.487C633.633 66.4189 633.706 66.346 633.706 66.2002V63.5283ZM628.503 62.3252H633.706V60.3564H628.503V62.3252ZM628.503 59.1533H633.706V57.1846H628.503V59.1533Z" fill="#999999"/>
<path d="M644.847 65.5127V66.7002H638.222C638.211 66.4085 638.258 66.1221 638.363 65.8408C638.54 65.3929 638.81 64.9502 639.175 64.5127C639.55 64.0752 640.086 63.57 640.784 62.9971C641.878 62.1012 642.613 61.3929 642.988 60.8721C643.373 60.3512 643.566 59.8564 643.566 59.3877C643.566 58.8981 643.389 58.4867 643.034 58.1533C642.691 57.82 642.243 57.6533 641.691 57.6533C641.097 57.6533 640.618 57.8304 640.253 58.1846C639.899 58.5387 639.722 59.0335 639.722 59.6689L638.456 59.5283C638.54 58.5908 638.862 57.8773 639.425 57.3877C639.998 56.8877 640.758 56.6377 641.706 56.6377C642.675 56.6377 643.435 56.9033 643.988 57.4346C644.55 57.9658 644.831 58.6273 644.831 59.4189C644.831 59.8252 644.748 60.221 644.581 60.6064C644.425 60.9919 644.154 61.3981 643.769 61.8252C643.394 62.2523 642.764 62.8408 641.878 63.5908C641.139 64.2054 640.665 64.6273 640.456 64.8564C640.248 65.0752 640.076 65.2939 639.941 65.5127H644.847ZM646.566 64.3877L647.753 64.2783C647.847 64.8304 648.034 65.2314 648.316 65.4814C648.607 65.7314 648.972 65.8564 649.409 65.8564C649.784 65.8564 650.113 65.7731 650.394 65.6064C650.685 65.4294 650.92 65.195 651.097 64.9033C651.284 64.6117 651.441 64.221 651.566 63.7314C651.691 63.2419 651.753 62.7419 651.753 62.2314C651.753 62.1794 651.748 62.096 651.738 61.9814C651.498 62.3773 651.165 62.7002 650.738 62.9502C650.31 63.1898 649.847 63.3096 649.347 63.3096C648.514 63.3096 647.81 63.0075 647.238 62.4033C646.665 61.7992 646.378 61.0075 646.378 60.0283C646.378 59.0075 646.675 58.1898 647.269 57.5752C647.873 56.9502 648.628 56.6377 649.534 56.6377C650.18 56.6377 650.774 56.8148 651.316 57.1689C651.857 57.5127 652.269 58.0127 652.55 58.6689C652.831 59.3148 652.972 60.2523 652.972 61.4814C652.972 62.7627 652.831 63.7835 652.55 64.5439C652.279 65.3044 651.868 65.8825 651.316 66.2783C650.764 66.6742 650.118 66.8721 649.378 66.8721C648.597 66.8721 647.956 66.6533 647.456 66.2158C646.967 65.7783 646.67 65.1689 646.566 64.3877ZM651.597 59.9658C651.597 59.2575 651.409 58.695 651.034 58.2783C650.659 57.8617 650.211 57.6533 649.691 57.6533C649.139 57.6533 648.659 57.8773 648.253 58.3252C647.847 58.7731 647.644 59.3512 647.644 60.0596C647.644 60.695 647.836 61.2158 648.222 61.6221C648.607 62.0179 649.081 62.2158 649.644 62.2158C650.217 62.2158 650.685 62.0179 651.05 61.6221C651.415 61.2158 651.597 60.6637 651.597 59.9658Z" fill="#999999"/>
<path d="M657.8 67.2002H656.534V56.6377H665.128V66.9814H663.862V66.2002H657.8V67.2002ZM663.862 60.7939V57.6689H657.8V60.7939H663.862ZM663.862 65.1689V61.8252H657.8V65.1689H663.862ZM678.081 59.8564H680.659V60.7314H678.362V61.9971H680.222V62.8721H678.362V64.1846H680.222V65.0596H678.362V66.4189H681.097V67.3096H675.566V67.8564H674.644V61.7783C674.352 62.1742 673.987 62.5387 673.55 62.8721L673.159 61.8252C674.545 60.5856 675.441 59.2939 675.847 57.9502H674.581V59.2002H673.659V57.0752H676.066C676.211 56.4919 676.336 55.8721 676.441 55.2158L677.534 55.4814C677.649 55.596 677.612 55.7054 677.425 55.8096C677.321 56.2471 677.211 56.6689 677.097 57.0752H680.987V58.9814H680.05V57.9502H676.878C676.659 58.7106 676.368 59.346 676.003 59.8564H677.159L677.862 58.2158L678.909 58.4346C679.086 58.5075 679.05 58.6012 678.8 58.7158L678.081 59.8564ZM668.847 57.3408V56.3096H673.487V57.3408H671.581C671.508 58.4762 671.269 59.5179 670.862 60.4658H673.003V66.9814H672.066V66.0908H670.644V67.5283H669.722V62.5908C669.503 62.9554 669.264 63.2835 669.003 63.5752L668.3 62.6533C669.571 61.2262 670.316 59.4554 670.534 57.3408H668.847ZM675.566 62.8721V64.1846H677.425V62.8721H675.566ZM675.566 60.7314V61.9971H677.425V60.7314H675.566ZM675.566 65.0596V66.4189H677.425V65.0596H675.566ZM670.644 61.3408V65.2158H672.066V61.3408H670.644ZM687.222 61.4502C688.566 61.0856 689.42 60.3721 689.784 59.3096L688.316 58.7158L688.691 57.7783L690.003 58.2783L690.112 56.9658H687.816V55.9189H694.378L694.269 60.6221C694.237 61.5387 693.857 61.9971 693.128 61.9971H691.862L691.753 60.9502H692.909C693.128 60.9502 693.237 60.8408 693.237 60.6221L693.347 56.9658H691.206L691.05 58.7158L692.362 59.4189L691.862 60.4033L690.769 59.8096C690.3 61.1533 689.264 62.0648 687.659 62.5439L687.222 61.4502ZM694.159 66.9189C693.868 65.8252 693.415 64.8773 692.8 64.0752L693.784 63.6377C694.586 64.6169 695.097 65.5439 695.316 66.4189L694.159 66.9189ZM686.831 63.4658V67.6846H685.909V67.3096H684.05V67.9033H683.112V63.4658H686.831ZM687.269 66.9814C687.529 66.0648 687.696 65.0231 687.769 63.8564L688.862 63.9658C688.935 63.9971 688.899 64.0856 688.753 64.2314C688.711 65.3981 688.545 66.4033 688.253 67.2471L687.269 66.9814ZM690.769 61.6689C691.279 61.9919 691.79 62.5544 692.3 63.3564L691.269 63.9658C691.008 63.4554 690.571 62.8721 689.956 62.2158L690.769 61.6689ZM683.331 55.7002H686.612V56.7471H683.331V55.7002ZM682.628 57.5596H687.331V58.6064H682.628V57.5596ZM683.331 59.5908H686.612V60.6221H683.331V59.5908ZM683.331 61.4502H686.612V62.4814H683.331V61.4502ZM684.05 64.3408V66.4189H685.909V64.3408H684.05ZM690.222 63.3096C690.514 63.3408 690.534 63.4502 690.284 63.6377V66.2002C690.284 66.4606 690.394 66.5908 690.612 66.5908H691.816C692.034 66.5908 692.159 66.4814 692.191 66.2627L692.3 65.3877L693.394 65.6533L693.175 66.8096C693.071 67.3617 692.743 67.6377 692.191 67.6377H690.112C689.498 67.6377 689.191 67.3044 689.191 66.6377V63.3096H690.222Z" fill="#999999"/>
<path d="M37.9813 37.1377C38.5542 37.1377 38.8667 36.6429 38.9188 35.6533L40.4813 36.1221C40.2729 37.6325 39.6219 38.3877 38.5281 38.3877H34.7C33.7104 38.3877 33.2156 37.8929 33.2156 36.9033V32.3721H34.4656C34.8823 32.4242 34.9083 32.5804 34.5438 32.8408V34.0908C36.2625 33.8825 37.7729 33.596 39.075 33.2314L39.8563 34.6377C39.9083 34.8981 39.7521 34.9502 39.3875 34.7939C37.8771 35.0544 36.2625 35.2627 34.5438 35.4189V36.7471C34.5438 37.0075 34.7 37.1377 35.0125 37.1377H37.9813ZM28.3719 25.8877C28.1115 26.4606 27.6948 27.2419 27.1219 28.2314L30.325 27.9971L29.2313 26.9814L30.325 26.1221C31.575 27.1637 32.4865 28.2314 33.0594 29.3252L31.8094 30.1846L31.1844 29.0908L24.2313 29.7158C24.075 29.9762 23.9448 30.0283 23.8406 29.8721L23.6063 28.1533H25.5594C26.2365 26.7992 26.6792 25.7054 26.8875 24.8721L28.6063 25.4971C28.7625 25.7054 28.6844 25.8356 28.3719 25.8877ZM34.4656 25.1846C34.8823 25.2367 34.9083 25.3929 34.5438 25.6533V27.2939C35.8458 27.0856 37.174 26.7731 38.5281 26.3564L39.4656 27.6846C39.5177 27.945 39.3615 27.9971 38.9969 27.8408C36.6011 28.2575 35.1167 28.4919 34.5438 28.5439V30.1064C34.5438 30.3669 34.674 30.4971 34.9344 30.4971H37.825C38.45 30.4971 38.8146 29.9502 38.9188 28.8564L40.4031 29.4814C40.0906 30.9919 39.4136 31.7471 38.3719 31.7471H34.7C33.7104 31.7471 33.2156 31.2523 33.2156 30.2627V25.1846H34.4656ZM29.9344 32.6064V31.5908H26.4188V32.6064H29.9344ZM28.6844 37.2939H29.6219C29.8302 37.2939 29.9344 37.1898 29.9344 36.9814V36.1221H26.4188V38.7002H25.0906V30.3408H31.2625V37.6846C31.2625 38.4137 30.8979 38.7783 30.1688 38.7783H28.9188L28.6844 37.2939ZM29.9344 34.8721V33.8564H26.4188V34.8721H29.9344ZM26.8875 40.1846C26.575 41.07 26.0281 42.0335 25.2469 43.0752L23.6063 42.2158C24.4396 41.1221 25.0125 40.1325 25.325 39.2471L27.1219 39.7939C27.2781 39.8981 27.2 40.0283 26.8875 40.1846ZM34.2313 39.2471C34.7521 39.9762 35.2469 40.9398 35.7156 42.1377L33.8406 42.6846C33.3719 41.5387 32.9292 40.5752 32.5125 39.7939L34.2313 39.2471ZM30.4813 39.3252C30.7938 40.3669 30.9761 41.4085 31.0281 42.4502L29.075 42.6846C29.0229 41.6429 28.8927 40.6273 28.6844 39.6377L30.4813 39.3252ZM38.2156 39.2471C39.2573 40.0804 40.1948 41.07 41.0281 42.2158L39.3094 43.0752C38.424 41.8773 37.5646 40.8877 36.7313 40.1064L38.2156 39.2471ZM60.325 39.8721C57.1479 37.8929 54.674 35.3669 52.9031 32.2939V37.2158H56.1063V38.7002H52.9031V42.9189H51.3406V38.7002H48.2938V37.2158H51.3406V32.2939C49.8302 35.6273 47.3823 38.2835 43.9969 40.2627L43.1375 38.6221C46.6792 36.695 49.2052 33.8825 50.7156 30.1846H43.9188V28.7002H51.3406V25.1846H52.825C53.2417 25.2367 53.2677 25.3929 52.9031 25.6533V28.7002H60.4031V30.1846H53.45C55.2208 33.3617 57.799 35.9919 61.1844 38.0752L60.325 39.8721ZM76.1844 37.6064C77.2261 38.6481 78.7625 39.6898 80.7938 40.7314L79.8563 42.3721C78.0854 41.5387 76.4188 40.3408 74.8563 38.7783L76.1844 37.6064ZM69.3875 39.0127C68.5021 40.2627 67.1479 41.4867 65.325 42.6846L64.1531 41.2002C65.8198 40.2106 67.1479 39.0387 68.1375 37.6846L69.6219 38.5439C69.8823 38.7523 69.8042 38.9085 69.3875 39.0127ZM66.1844 36.9814V37.7627H64.6219V26.5127H66.1063C66.5229 26.5648 66.549 26.721 66.1844 26.9814V35.4971H80.5594V36.9814H73.2938V42.9971H71.4969V36.9814H66.1844ZM69.6219 33.2314H76.4188V31.7471H69.6219V33.2314ZM69.6219 30.4971H76.4188V29.2471H69.6219V30.4971ZM69.6219 27.9971H76.4188V26.7471H69.6219V27.9971ZM68.0594 34.4814V25.4971H77.9813V34.4814H68.0594ZM92.9813 30.1846C92.0958 35.3929 91.0281 38.6221 89.7781 39.8721C89.1011 40.5492 88.3979 40.8877 87.6688 40.8877C86.8354 40.8877 86.1844 40.6533 85.7156 40.1846C84.4656 38.9346 83.8406 37.3721 83.8406 35.4971C83.8406 33.2054 84.6479 31.2523 86.2625 29.6377C88.0333 27.8669 90.1948 26.9814 92.7469 26.9814C95.0386 26.9814 96.8354 27.6325 98.1375 28.9346C99.5958 30.3929 100.325 32.1117 100.325 34.0908C100.325 36.2262 99.6479 37.971 98.2938 39.3252C97.4083 40.2106 96.0542 41.07 94.2313 41.9033L92.5906 40.2627C94.4136 39.6898 95.8458 38.8825 96.8875 37.8408C97.8771 36.8512 98.3719 35.6533 98.3719 34.2471C98.3719 32.5804 97.825 31.2002 96.7313 30.1064C95.6375 29.0127 93.9188 28.5179 91.575 28.6221L92.9813 29.3252C93.6063 29.5856 93.6063 29.8721 92.9813 30.1846ZM91.1844 28.7002C89.8302 29.0127 88.6583 29.6637 87.6688 30.6533C86.3146 32.0075 85.6375 33.6742 85.6375 35.6533C85.6375 36.8512 86.0281 37.8408 86.8094 38.6221C86.9656 38.7783 87.2 38.8564 87.5125 38.8564C87.825 38.8564 88.1636 38.6742 88.5281 38.3096C89.7261 37.1117 90.6115 33.9085 91.1844 28.7002ZM110.325 41.5127C112.46 40.3669 113.528 38.4137 113.528 35.6533V26.6689L115.169 26.9814L119.388 25.6533L120.559 27.2158C120.664 27.5283 120.481 27.5804 120.013 27.3721L115.091 28.3096V31.6689H121.263V33.1533H118.919V42.9189H117.356V33.1533H115.091V36.1221C115.091 39.195 113.789 41.4867 111.184 42.9971L110.325 41.5127ZM108.841 42.9971H107.278V38.3096C106.445 39.6637 105.533 40.7314 104.544 41.5127L103.372 40.1064C104.83 39.0648 106.054 37.7627 107.044 36.2002H103.763V34.7158H107.278V32.9971H103.294V31.5127H108.763L109.622 28.7002H103.841V27.2158H107.278V25.0283H108.763C109.179 25.0804 109.205 25.2367 108.841 25.4971V27.2158H112.278V28.7002H111.263L110.169 31.5127H112.669V32.9971H108.841V34.7158H112.278V36.2002H108.841V36.9033C109.57 37.1117 110.585 37.6585 111.888 38.5439L110.95 40.1064C110.221 39.3773 109.518 38.8044 108.841 38.3877V42.9971ZM105.716 31.3564C105.507 30.6273 105.221 29.9242 104.856 29.2471L106.341 28.7783C106.757 29.4554 107.07 30.1585 107.278 30.8877L105.716 31.3564ZM138.45 33.5439H133.372V35.2627H138.45V33.5439ZM136.341 36.7471H134.934V37.5283C134.934 40.7575 133.085 42.6585 129.388 43.2314L128.919 41.5908C131.888 41.2262 133.372 39.82 133.372 37.3721V36.7471H132.591H131.809V25.8096H140.013V36.7471H137.903V40.6533C137.903 41.07 138.085 41.2783 138.45 41.2783H139.231C139.492 41.2783 139.648 41.0179 139.7 40.4971L139.856 39.1689L141.419 39.6377L141.184 41.4346C141.08 42.32 140.585 42.7627 139.7 42.7627H137.747C136.809 42.7627 136.341 42.32 136.341 41.4346V36.7471ZM133.372 32.0596H138.45V30.4189H133.372V32.0596ZM133.372 28.9346H138.45V27.2939H133.372V28.9346ZM127.747 35.8877C128.789 36.3564 130.013 37.2158 131.419 38.4658L130.325 40.1064C129.231 38.9085 128.268 38.0231 127.434 37.4502C126.914 39.7419 125.82 41.5387 124.153 42.8408L122.981 41.4346C125.273 39.5075 126.367 37.0075 126.263 33.9346H123.294V32.4502H126.341V29.6377H123.841V28.1533H126.341V25.0283H127.825C128.242 25.0804 128.268 25.2367 127.903 25.4971V28.1533H130.638V29.6377H127.903V32.4502H131.028V33.9346H127.825C127.825 34.7679 127.799 35.4189 127.747 35.8877ZM147.825 32.1377C148.815 33.4919 149.309 34.8981 149.309 36.3564C149.309 38.3877 148.71 39.4033 147.513 39.4033H146.575L146.263 37.8408H147.044C147.565 37.8408 147.799 37.2939 147.747 36.2002C147.695 34.6898 147.226 33.3617 146.341 32.2158L147.903 27.1377H145.481V42.7627H143.919V25.8877H148.294L148.606 25.4971L149.934 26.6689L149.622 26.9814L147.825 32.1377ZM159.153 36.5127H158.372C157.539 40.3148 154.752 42.5023 150.013 43.0752L149.544 41.5908C153.606 41.2783 156.054 39.5856 156.888 36.5127H155.794C154.908 38.7002 153.033 40.0283 150.169 40.4971L149.7 39.1689C152.096 38.6481 153.58 37.7627 154.153 36.5127H152.903C152.174 37.2419 151.236 37.8148 150.091 38.2314L149.466 36.9033C151.132 36.3825 152.278 35.3929 152.903 33.9346H149.388V32.6846H161.106V33.9346H154.544C154.335 34.4033 154.075 34.846 153.763 35.2627H160.638L160.481 40.1846C160.429 41.8512 159.83 42.6846 158.684 42.6846H157.122L156.888 41.2002H158.216C158.684 41.2002 158.945 40.8877 158.997 40.2627L159.153 36.5127ZM152.513 30.4189H157.825V29.0908H152.513V30.4189ZM152.513 27.8408H157.825V26.5908H152.513V27.8408ZM159.153 25.3408V31.6689H151.184V25.3408H159.153ZM172.434 29.3252H174.544V25.2627H176.028C176.445 25.3148 176.471 25.471 176.106 25.7314V29.3252H180.325V30.8096H176.106V34.5596H180.091V36.0439H176.106V40.6533H181.263V42.1377H169.309V40.6533H174.544V36.0439H170.716V34.5596H174.544V30.8096H171.966C171.601 31.8512 171.028 32.8929 170.247 33.9346L168.919 32.9189C170.273 31.1481 171.158 29.0127 171.575 26.5127L173.059 26.8252C173.476 26.9814 173.476 27.1377 173.059 27.2939L172.434 29.3252ZM165.794 25.0283H167.278C167.695 25.0804 167.721 25.2367 167.356 25.4971V42.8408H165.794V25.0283ZM168.763 28.2314C169.231 28.8564 169.622 29.5596 169.934 30.3408L168.684 31.2002C168.32 30.3148 167.955 29.5856 167.591 29.0127L168.763 28.2314ZM165.325 29.0908C165.69 29.195 165.69 29.3512 165.325 29.5596C165.221 31.2262 164.986 32.7887 164.622 34.2471L163.138 33.7783C163.554 32.4762 163.789 30.8356 163.841 28.8564L165.325 29.0908ZM198.138 33.6221V42.6846H196.575V41.9033H189.544V42.9189H187.981V35.8096C186.627 36.5387 185.169 37.1117 183.606 37.5283L183.059 36.1221C184.518 35.7575 186.158 35.1064 187.981 34.1689V33.6221H189.075C190.169 32.9971 191.106 32.3721 191.888 31.7471H183.684V30.2627H190.559V28.3877H185.716V26.9033H190.559V25.0283H192.044C192.46 25.0804 192.486 25.2367 192.122 25.4971V26.9033H195.872V28.2314C196.497 27.5544 197.122 26.7992 197.747 25.9658L198.841 26.6689C199.205 26.9294 199.153 27.0856 198.684 27.1377C197.695 28.3356 196.705 29.3773 195.716 30.2627H201.106V31.7471H194.075C193.033 32.6325 192.2 33.2575 191.575 33.6221H198.138ZM193.606 30.2627C194.231 29.7939 194.934 29.1689 195.716 28.3877H192.122V30.2627H193.606ZM189.544 36.9814H196.575V34.8721H189.544V36.9814ZM189.544 40.6533H196.575V38.2314H189.544V40.6533ZM216.731 36.9033C217.46 35.4971 217.903 33.3617 218.059 30.4971H215.403C215.559 33.3617 216.002 35.4971 216.731 36.9033ZM219.622 30.4971C219.518 33.7262 218.893 36.3304 217.747 38.3096C218.58 39.3512 219.752 40.2627 221.263 41.0439L220.247 42.7627C218.58 41.6689 217.408 40.6273 216.731 39.6377C215.533 40.9919 213.684 42.1637 211.184 43.1533L210.403 41.5908C213.111 40.4971 214.908 39.3773 215.794 38.2314C214.908 36.5127 214.414 34.7939 214.309 33.0752C213.997 33.8564 213.684 34.4554 213.372 34.8721L212.044 33.8564C213.606 31.5648 214.544 28.7262 214.856 25.3408L216.497 25.7314C216.809 25.9398 216.731 26.096 216.263 26.2002C216.106 27.1377 215.898 28.0752 215.638 29.0127H220.95V30.4971H219.622ZM212.356 26.7471C212.044 27.5283 211.679 28.1794 211.263 28.7002L210.013 27.9971C210.429 27.32 210.82 26.5387 211.184 25.6533L212.591 26.3564C212.799 26.5648 212.721 26.695 212.356 26.7471ZM207.356 37.7627C208.085 37.971 208.736 38.2054 209.309 38.4658C209.726 37.9971 210.065 37.2939 210.325 36.3564H208.059C207.851 36.8252 207.617 37.2939 207.356 37.7627ZM206.263 39.7158L205.013 39.0127C205.533 38.2314 206.054 37.346 206.575 36.3564H203.606V35.1064H207.044C207.356 34.4294 207.591 33.8564 207.747 33.3877L209.231 33.7783C209.44 33.9867 209.361 34.1169 208.997 34.1689L208.528 35.1064H212.981V36.3564H211.809C211.549 37.3981 211.158 38.2835 210.638 39.0127C211.106 39.221 211.601 39.4814 212.122 39.7939L211.419 41.0439C210.846 40.6794 210.325 40.3929 209.856 40.1846C208.502 41.5387 206.679 42.3721 204.388 42.6846L203.841 41.2783C205.872 41.07 207.434 40.4971 208.528 39.5596C207.955 39.2992 207.382 39.0648 206.809 38.8564L206.263 39.7158ZM207.825 25.0283H209.075C209.492 25.0804 209.518 25.2367 209.153 25.4971V28.8564H213.138V30.1064H209.856C210.429 30.7835 211.315 31.4346 212.513 32.0596L211.653 33.3877C210.768 32.8669 209.934 32.1377 209.153 31.2002V33.0752H207.825V31.5908C206.992 32.6325 205.846 33.57 204.388 34.4033L203.372 33.1533C204.986 32.32 206.315 31.3044 207.356 30.1064H203.763V28.8564H207.825V25.0283ZM205.638 28.6221C205.273 27.8408 204.804 27.1637 204.231 26.5908L205.481 25.8096C206.106 26.4346 206.575 27.0856 206.888 27.7627L205.638 28.6221ZM232.981 30.1846C232.096 35.3929 231.028 38.6221 229.778 39.8721C229.101 40.5492 228.398 40.8877 227.669 40.8877C226.835 40.8877 226.184 40.6533 225.716 40.1846C224.466 38.9346 223.841 37.3721 223.841 35.4971C223.841 33.2054 224.648 31.2523 226.263 29.6377C228.033 27.8669 230.195 26.9814 232.747 26.9814C235.039 26.9814 236.835 27.6325 238.138 28.9346C239.596 30.3929 240.325 32.1117 240.325 34.0908C240.325 36.2262 239.648 37.971 238.294 39.3252C237.408 40.2106 236.054 41.07 234.231 41.9033L232.591 40.2627C234.414 39.6898 235.846 38.8825 236.888 37.8408C237.877 36.8512 238.372 35.6533 238.372 34.2471C238.372 32.5804 237.825 31.2002 236.731 30.1064C235.638 29.0127 233.919 28.5179 231.575 28.6221L232.981 29.3252C233.606 29.5856 233.606 29.8721 232.981 30.1846ZM231.184 28.7002C229.83 29.0127 228.658 29.6637 227.669 30.6533C226.315 32.0075 225.638 33.6742 225.638 35.6533C225.638 36.8512 226.028 37.8408 226.809 38.6221C226.966 38.7783 227.2 38.8564 227.513 38.8564C227.825 38.8564 228.164 38.6742 228.528 38.3096C229.726 37.1117 230.611 33.9085 231.184 28.7002ZM248.763 31.8252C250.481 30.2106 251.809 27.8669 252.747 24.7939L254.309 25.2627C254.57 25.471 254.518 25.6012 254.153 25.6533C253.736 26.695 253.32 27.6585 252.903 28.5439H255.247C255.82 27.346 256.263 26.2783 256.575 25.3408L258.059 25.8877C258.268 26.096 258.19 26.2262 257.825 26.2783C257.46 27.1117 257.096 27.8669 256.731 28.5439H260.716V30.0283H256.731V32.4502H259.934V33.9346H256.731V36.4346H259.934V37.9189H256.731V40.8096H261.184V42.2939H252.591V42.9971H251.028V31.6689C250.664 32.1898 250.273 32.6585 249.856 33.0752L248.763 31.8252ZM244.856 42.8408L244.544 41.3564H245.872C246.08 41.3564 246.184 41.2523 246.184 41.0439V36.2002L244.153 36.6689C244.101 37.0335 243.971 37.1117 243.763 36.9033L243.45 35.1064L246.184 34.5596V30.4189H243.763V28.9346H246.184V24.9502H247.669C248.085 25.0023 248.111 25.1585 247.747 25.4189V28.9346H249.778V30.4189H247.747V34.2471L249.778 33.7002L250.013 35.1064L247.747 35.8096V41.5908C247.747 42.4242 247.33 42.8408 246.497 42.8408H244.856ZM252.591 40.8096H255.169V37.9189H252.591V40.8096ZM252.591 36.4346H255.169V33.9346H252.591V36.4346ZM252.591 32.4502H255.169V30.0283H252.591V32.4502ZM278.841 27.1377L279.075 26.8252L280.325 27.8408L280.091 28.0752C278.736 30.4189 277.408 31.9814 276.106 32.7627L276.888 32.9971C277.252 33.1533 277.226 33.3096 276.809 33.4658C276.705 33.8304 276.575 34.1429 276.419 34.4033H279.778L280.013 34.0908L281.419 35.1064L281.106 35.4189C279.44 39.846 276.054 42.346 270.95 42.9189L270.325 41.4346C272.773 41.1742 274.7 40.5231 276.106 39.4814C275.377 38.7523 274.648 38.1273 273.919 37.6064C273.242 38.1794 272.33 38.7002 271.184 39.1689L270.481 37.7627C273.033 36.721 274.7 35.1325 275.481 32.9971C274.7 33.7262 273.294 34.3512 271.263 34.8721L270.559 33.4658C272.539 33.0492 274.023 32.5023 275.013 31.8252C274.492 31.2002 273.867 30.6533 273.138 30.1846C272.773 30.5492 272.408 30.8617 272.044 31.1221L270.95 29.9502C272.669 28.4919 273.763 26.9294 274.231 25.2627L275.638 25.7314C276.002 25.8877 275.976 26.0439 275.559 26.2002C275.507 26.5127 275.377 26.8252 275.169 27.1377H278.841ZM268.216 30.1846H270.794V31.6689H268.216V33.6221C269.257 34.0908 270.247 34.7939 271.184 35.7314L270.169 37.1377C269.335 36.3044 268.684 35.7054 268.216 35.3408V42.9189H266.653V35.1846C266.341 36.2262 265.481 37.5544 264.075 39.1689L262.903 37.6846C264.83 35.8617 266.028 33.8564 266.497 31.6689H263.45V30.1846H266.653V27.6064C265.611 27.7627 264.674 27.8929 263.841 27.9971L263.45 26.5127C265.533 26.3044 267.695 25.8877 269.934 25.2627L270.794 26.4346C271.002 26.7471 270.872 26.8512 270.403 26.7471C269.674 26.9554 268.945 27.1377 268.216 27.2939V30.1846ZM273.919 29.2471C274.7 29.6637 275.455 30.1846 276.184 30.8096C276.966 30.0804 277.617 29.2731 278.138 28.3877H274.544C274.335 28.7523 274.127 29.0387 273.919 29.2471ZM274.778 36.6689C275.507 37.0856 276.341 37.7106 277.278 38.5439C278.059 37.971 278.736 37.0075 279.309 35.6533H275.716C275.403 36.07 275.091 36.4085 274.778 36.6689ZM286.809 29.3252C287.382 28.1273 288.346 26.9033 289.7 25.6533L290.559 26.4346C289.257 27.6325 288.346 28.7783 287.825 29.8721C287.252 31.07 286.966 32.5023 286.966 34.1689C286.966 35.5752 287.252 36.9033 287.825 38.1533C288.346 39.2992 289.257 40.5752 290.559 41.9814L289.7 42.8408C288.398 41.3825 287.434 40.0023 286.809 38.7002C286.132 37.2939 285.794 35.7835 285.794 34.1689C285.794 32.346 286.132 30.7314 286.809 29.3252ZM297.903 41.9033H296.106V26.8252H308.372V41.5908H306.575V40.4971H297.903V41.9033ZM306.575 32.7627V28.3096H297.903V32.7627H306.575ZM306.575 39.0127V34.2471H297.903V39.0127H306.575ZM321.341 35.8096H318.372C317.903 38.7783 316.497 41.1221 314.153 42.8408L313.372 41.3564C315.664 39.7419 316.914 37.346 317.122 34.1689L317.278 31.7471H316.184V32.7627H314.622V26.0439H322.513V32.4502H320.95V31.7471H318.684L318.528 34.3252H322.903L322.513 40.4971C322.408 41.7471 321.888 42.3721 320.95 42.3721H318.841L318.606 40.8877H320.325C320.794 40.8877 321.054 40.6273 321.106 40.1064L321.341 35.8096ZM329.778 41.2002C329.778 42.0856 329.361 42.5283 328.528 42.5283H326.809L326.497 41.0439H327.981C328.138 41.0439 328.216 40.9658 328.216 40.8096V25.8096H329.7C330.117 25.8617 330.143 26.0179 329.778 26.2783V41.2002ZM326.028 27.6846C326.445 27.7367 326.471 27.8929 326.106 28.1533V38.8564H324.544V27.6846H326.028ZM320.95 30.4971V27.2939H316.184V30.4971H320.95ZM337.513 38.7002C336.888 40.0023 335.924 41.3825 334.622 42.8408L333.763 41.9814C335.065 40.5752 335.976 39.2992 336.497 38.1533C337.07 36.9033 337.356 35.5752 337.356 34.1689C337.356 32.5023 337.07 31.07 336.497 29.8721C335.976 28.7783 335.065 27.6325 333.763 26.4346L334.622 25.6533C335.976 26.9033 336.94 28.1273 337.513 29.3252C338.19 30.7314 338.528 32.346 338.528 34.1689C338.528 35.7835 338.19 37.2939 337.513 38.7002Z" fill="#757575"/>
</g>
<rect x="2" y="2" width="714" height="440" stroke="black" stroke-width="4"/>
<defs>
<clipPath id="clip0_7_16662">
<rect width="718" height="444" fill="white"/>
</clipPath>
</defs>
</svg>
