<svg width="718" height="444" viewBox="0 0 718 444" fill="none" xmlns="http://www.w3.org/2000/svg">
<g clip-path="url(#clip0_7_17695)">
<path d="M0 0H718V444H0V0Z" fill="white"/>
<path d="M181.5 91.5V369.5" stroke="#CCCCCC" stroke-miterlimit="10"/>
<path d="M303.5 91.5V369.5" stroke="#CCCCCC" stroke-miterlimit="10"/>
<path d="M424.5 91.5V369.5" stroke="#CCCCCC" stroke-miterlimit="10"/>
<path d="M545.5 91.5V369.5" stroke="#CCCCCC" stroke-miterlimit="10"/>
<path d="M667.5 91.5V369.5" stroke="#CCCCCC" stroke-miterlimit="10"/>
<path d="M88.5 369.5H695.5" stroke="#333333" stroke-miterlimit="10"/>
<path d="M88.5 300.5H695.5" stroke="#CCCCCC" stroke-miterlimit="10"/>
<path d="M88.5 230.5H695.5" stroke="#CCCCCC" stroke-miterlimit="10"/>
<path d="M88.5 161.5H695.5" stroke="#CCCCCC" stroke-miterlimit="10"/>
<path d="M88.5 91.5H695.5" stroke="#CCCCCC" stroke-miterlimit="10"/>
<path d="M88.2 369.8H88.807H89.414H90.021H90.628H91.235H91.842H92.449H93.056H93.6629H94.2699H94.8769H95.4839H96.0909L96.6979 369.765L97.3049 369.8H97.9119H98.5189H99.1259H99.7329L100.34 369.765L100.947 369.8H101.554H102.161H102.768H103.375H103.982H104.589H105.196H105.803H106.41H107.017H107.624H108.231H108.838H109.445H110.052H110.659H111.266H111.873H112.48H113.087H113.694H114.301H114.908H115.515H116.122L116.729 369.765L117.336 369.73L117.943 369.765H118.55H119.157L119.764 369.8L120.371 369.661L120.978 369.765L121.585 369.73H122.192L122.799 369.8H123.406H124.013H124.62L125.227 369.73H125.834L126.441 369.8L127.048 369.765H127.655H128.262H128.869L129.476 369.73L130.083 369.661L130.69 369.695L131.297 369.765L131.904 369.626L132.51 369.556L133.117 369.487L133.724 369.348L134.331 369.556L134.938 369.382L135.545 369.174L136.152 369.452L136.759 369.487L137.366 369.521L137.973 369.382L138.58 369.452H139.187L139.794 369.487L140.401 369.556L141.008 369.382H141.615L142.222 369.626H142.829L143.436 369.452H144.043L144.65 369.556L145.257 369.487L145.864 369.521L146.471 369.626L147.078 369.417L147.685 369.556L148.292 369.661H148.899H149.506L150.113 369.278L150.72 369.661H151.327L151.934 369.695L152.541 369.661L153.148 369.626L153.755 369.695H154.362L154.969 369.661L155.576 369.695L156.183 369.591L156.79 369.765L157.397 369.661L158.004 369.8H158.611L159.218 369.661L159.825 369.765H160.432L161.039 369.8H161.646H162.253H162.86H163.467H164.074H164.681H165.288H165.895H166.502H167.109H167.716L168.323 369.765L168.93 369.8H169.537H170.144H170.751H171.358H171.965H172.572H173.179H173.786L174.393 369.765L175 369.8H175.607L176.214 369.765L176.821 369.8H177.428H178.035H178.642H179.249H179.856L180.463 369.695L181.07 369.8H181.677L182.284 369.765H182.891L183.498 369.8H184.105H184.712H185.319L185.926 369.765L186.533 369.661H187.14L187.747 369.765L188.354 369.661L188.961 369.73H189.568L190.175 369.695L190.782 369.626L191.389 369.487L191.996 369.765L192.603 369.695L193.21 369.487L193.817 369.73L194.424 369.626L195.031 369.452L195.638 369.487L196.245 369.521L196.852 369.487L197.459 369.382L198.066 369.487L198.673 369.348L199.28 369.382L199.887 368.93L200.494 369.382L201.101 368.861L201.708 369.104L202.315 369.139H202.922L203.529 369.243L204.136 369.661L204.743 369.348L205.35 369.069L205.957 368.721L206.564 368.339L207.171 369.487L207.778 368.791L208.385 369.034L208.992 369.208L209.599 368.791L210.206 369.069L210.813 368.861L211.42 369.104L212.027 369.139L212.634 369.069L213.241 369.104L213.848 369.521L214.455 369.452L215.062 368.93L215.669 368.582L216.276 368.756L216.883 369.034L217.49 369.591L218.097 369.139L218.704 368.895L219.311 368.478L219.917 368.373L220.524 368.478L221.131 368.93L221.738 369.348L222.345 369.556L222.952 369.208L223.559 368.721L224.166 368.861L224.773 369.069L225.38 369.208L225.987 369.452L226.594 369.661L227.201 369.034L227.808 369.139H228.415L229.022 368.965L229.629 368.93L230.236 369.313L230.843 369.521L231.45 369.417L232.057 369.591L232.664 369.556L233.271 369.73L233.878 369.556L234.485 369.521L235.092 369.661L235.699 369.348L236.306 369.487H236.913L237.52 369.626L238.127 369.521L238.734 369.174L239.341 369.626L239.948 369.556L240.555 369.695L241.162 369.626H241.769L242.376 369.417L242.983 369.626L243.59 369.521H244.197L244.804 369.278L245.411 369.626L246.018 369.487L246.625 369.556L247.232 369.661H247.839L248.446 369.626L249.053 369.661L249.66 369.487L250.267 369.278L250.874 369.104L251.481 369.556L252.088 369.382L252.695 368.791L253.302 369.591L253.909 369.487L254.516 369.556L255.123 369.521L255.73 369.591L256.337 369.695L256.944 369.661L257.551 369.417L258.158 369.348L258.765 369.521L259.372 369.626L259.979 369.695L260.586 369.556L261.193 369.521L261.8 369.313L262.407 369.417L263.014 369.348L263.621 369.139L264.228 369.278L264.835 369.556L265.442 369.348L266.049 369.487L266.656 369.417L267.263 368.965L267.87 369.104L268.477 369.069L269.084 369.521L269.691 369.348L270.298 369.174L270.905 369.208L271.512 368.826L272.119 368.965L272.726 369.034L273.333 369.417L273.94 368.095L274.547 368.443L275.154 369.313L275.761 368.895L276.368 368.582L276.975 368.965L277.582 369.313L278.189 369.348L278.796 368.721L279.403 368.652L280.01 368.721L280.617 368.756L281.224 369.208L281.831 369.521L282.438 369.034L283.045 369.069L283.652 369.034L284.259 368.582L284.866 368.269L285.473 368.304L286.08 368.895L286.687 367.608L287.294 367.191L287.901 367.921L288.508 367.817L289.115 367.191L289.722 367.747L290.329 368.408L290.936 367.33L291.543 366.425L292.15 366.878L292.757 367.052L293.364 366.982L293.971 367.608L294.578 368.165L295.185 366.982L295.792 366.738L296.399 366.077L297.006 365.59L297.613 365.103L298.22 366.53L298.827 367.747L299.434 366.878L300.041 366.46L300.648 366.008L301.255 366.217L301.862 366.912L302.469 366.704L303.076 367.156L303.683 366.251L304.29 365.66L304.897 364.825L305.504 364.686L306.111 365.417L306.717 364.721L307.324 364.86L307.931 366.043L308.538 364.756L309.145 365.243L309.752 365.625L310.359 364.93L310.966 364.442L311.573 365.973L312.18 364.825L312.787 365.521L313.394 364.93L314.001 365.277L314.608 365.59L315.215 365.799L315.822 366.634L316.429 365.869L317.036 365.347L317.643 366.008L318.25 366.704L318.857 366.947L319.464 367.156L320.071 367.608L320.678 367.852L321.285 368.304L321.892 368.339L322.499 368.687L323.106 368.513L323.713 368.756L324.32 369.069L324.927 368.861H325.534L326.141 369.069L326.748 368.861L327.355 369L327.962 369.104L328.569 369.556L329.176 369.208H329.783L330.39 369.174L330.997 369.208L331.604 369.243L332.211 369.487L332.818 369.556L333.425 369.521L334.032 369.556H334.639L335.246 369.521L335.853 369.556L336.46 369.695H337.067H337.674L338.281 369.556L338.888 369.695L339.495 369.556L340.102 369.487L340.709 369.382L341.316 369.348L341.923 369.487L342.53 368.861L343.137 369.208L343.744 369.556L344.351 369.452L344.958 369.591H345.565L346.172 369.487L346.779 369.313L347.386 369.417L347.993 369.487L348.6 369.348L349.207 369.417H349.814L350.421 369.313L351.028 369.139L351.635 368.965L352.242 369.104L352.849 368.687L353.456 368.895L354.063 369.278L354.67 368.756L355.277 367.817L355.884 367.852L356.491 367.434L357.098 367.956L357.705 367.608L358.312 368.687L358.919 367.886L359.526 366.565L360.133 366.912L360.74 366.46L361.347 366.878L361.954 366.982L362.561 368.339L363.168 367.678L363.775 365.451L364.382 366.077L364.989 366.321L365.596 366.599L366.203 365.764L366.81 366.008L367.417 365.625L368.024 365.347L368.631 364.651L369.238 365.312L369.845 363.747L370.452 364.616L371.059 365.66L371.666 365.904L372.273 364.93L372.88 365.069L373.487 365.417L374.094 364.303L374.701 364.095L375.308 365.59L375.915 365.869L376.522 366.565L377.129 365.277L377.736 364.721L378.343 365.625L378.95 364.269L379.557 366.46L380.164 365.799L380.771 364.651L381.378 364.373L381.985 364.06L382.592 364.964L383.199 364.93L383.806 366.217L384.413 366.112L385.02 365.138L385.627 365.382L386.234 365.973L386.841 366.46L387.448 367.713L388.055 368.478L388.662 367.678L389.269 366.982L389.876 367.991L390.483 368.339L391.09 368.234L391.697 367.399L392.304 369L392.911 368.687L393.518 367.643L394.125 368.2L394.732 368.269L395.339 368.095L395.945 368.2L396.552 369.452L397.159 368.269L397.766 367.573L398.373 368.373L398.98 368.791L399.587 368.582L400.194 369L400.801 369.521L401.408 369.174L402.015 369.034L402.622 369.208L403.229 369.174L403.836 369.243H404.443L405.05 369.765L405.657 369.382L406.264 369.069L406.871 369.452H407.478L408.085 369.104L408.692 369.313L409.299 369.591L409.906 369.278L410.513 368.895L411.12 369.313L411.727 369.348L412.334 369.139L412.941 369.174L413.548 369.591L414.155 369.104L414.762 368.965L415.369 369.139L415.976 368.652L416.583 368.965L417.19 368.861L417.797 369.104L418.404 369.174L419.011 368.2L419.618 368.687L420.225 368.478L420.832 367.991L421.439 368.026L422.046 368.791L422.653 368.443L423.26 367.017L423.867 367.365L424.474 367.956L425.081 368.617L425.688 367.017L426.295 367.156L426.902 366.46L427.509 363.712L428.116 364.095L428.723 363.99L429.33 362.877L429.937 364.025L430.544 365.625L431.151 363.225L431.758 360.164L432.365 360.303L432.972 359.746L433.579 360.407L434.186 358.25L434.793 360.372L435.4 366.077L436.007 357.937L436.614 356.859L437.221 354.145L437.828 356.65L438.435 355.433L439.042 358.633L439.649 355.224L440.256 355.154L440.863 355.676L441.47 350.806L442.077 350.771L442.684 350.945L443.291 357.033L443.898 349.38L444.505 351.328L445.112 348.753L445.719 351.571L446.326 351.084L446.933 353.589L447.54 358.042L448.147 354.424L448.754 351.397L449.361 353.241L449.968 356.859L450.575 355.711L451.182 358.007L451.789 360.825L452.396 359.711L453.003 356.685L453.61 360.407L454.217 363.19L454.824 362.912L455.431 363.608L456.038 366.878L456.645 366.251L457.252 363.677L457.859 364.964L458.466 365.799L459.073 366.043L459.68 367.295L460.287 368.304L460.894 368.756L461.501 367.643L462.108 365.764L462.715 368.617L463.322 368.06L463.929 367.991L464.536 369L465.143 368.095L465.75 367.956L466.357 368.373L466.964 368.582L467.571 368.617L468.178 368.826L468.785 369.487L469.392 369.139L469.999 368.687L470.606 368.895L471.213 368.93L471.82 369.139L472.427 368.965L473.034 369.521L473.641 369.417L474.248 369.104L474.855 369.487L475.462 369.382L476.069 369.452L476.676 369.556L477.283 369.765L477.89 369.556L478.497 369.521L479.104 369.626L479.711 369.452L480.318 369.521L480.924 369.661L481.531 369.417L482.138 369.452L482.745 369.765L483.352 369.521L483.959 369.661L484.566 369.626L485.173 369.556L485.78 369.695H486.387L486.994 369.661L487.601 369.695L488.208 369.661L488.815 369.626H489.422L490.029 369.8L490.636 369.521L491.243 369.556H491.85H492.457L493.064 369.521L493.671 369.661L494.278 369.765L494.885 369.73L495.492 369.661L496.099 369.382L496.706 369.765L497.313 369.626L497.92 369.695L498.527 369.8L499.134 369.73L499.741 369.626L500.348 369.765L500.955 369.8H501.562L502.169 369.73L502.776 369.8L503.383 369.73L503.99 369.765H504.597L505.204 369.73L505.811 369.8H506.418H507.025L507.632 369.765L508.239 369.73L508.846 369.661L509.453 369.626H510.06L510.667 369.8H511.274L511.881 369.661L512.488 369.626L513.095 369.73L513.702 369.626L514.309 369.591L514.916 369.556L515.523 369.661H516.13L516.737 369.487H517.344L517.951 369.382L518.558 369.278L519.165 369.487L519.772 369.591L520.379 369.139L520.986 368.617L521.593 369.034L522.2 369L522.807 369.348L523.414 369.313L524.021 368.965L524.628 368.756L525.235 365.73L525.842 366.008L526.449 364.303L527.056 364.338L527.663 362.077L528.27 365.277L528.877 365.138L529.484 355.224L530.091 349.658L530.698 346.283L531.305 339.465L531.912 342.7L532.519 352.823L533.126 332.96L533.733 322.593L534.34 316.192L534.947 317.34L535.554 311.566L536.161 319.462L536.768 340.404L537.375 286.971L537.982 290.937L538.589 292.015L539.196 291.11L539.803 281.718L540.41 293.859L541.017 323.428L541.624 269.299L542.231 272.29L542.838 282.344L543.445 287.04L544.052 271.908L544.659 297.546L545.266 327.046L545.873 275.943L546.48 277.891L547.087 275.213L547.694 278.657L548.301 326.594L548.908 302.173L549.515 333.273L550.122 293.093L550.729 282.553L551.336 295.181L551.943 310.07L552.55 301.86L553.157 317.723L553.764 344.44L554.371 306.034L554.978 297.65L555.585 336.786L556.192 312.887L556.799 315.914L557.406 319.149L558.013 347.988L558.62 312.748L559.227 309.478L559.834 325.55L560.441 330.038L561.048 318.523L561.655 338.143L562.262 352.093L562.869 327.776L563.476 321.863L564.083 329.446L564.69 336.16L565.297 334.003L565.904 337.517L566.51 356.024L567.117 328.437L567.724 327.185L568.331 338.143L568.938 342.735L569.545 344.057L570.152 349.345L570.759 360.755L571.366 362.494L571.973 337.03L572.58 334.63L573.187 343.709L573.794 339.917L574.401 345.344L575.008 358.772L575.615 334.247L576.222 331.29L576.829 336.056L577.436 336.334L578.043 334.769L578.65 343.292L579.257 356.372L579.864 333.795L580.471 329.759L581.078 335.465L581.685 338.317L582.292 334.386L582.899 343.083L583.506 357.241L584.113 330.907H584.72L585.327 334.804L585.934 340.404L586.541 336.299L587.148 347.084L587.755 360.929L588.362 337.691L588.969 333.829L589.576 337.76L590.183 341.204L590.79 336.821L591.397 343.431L592.004 356.511L592.611 334.212L593.218 334.386L593.825 341.831L594.432 343.292L595.039 358.494L595.646 350.91L596.253 357.902L596.86 338.526L597.467 353.519L598.074 357.311L598.681 355.293L599.288 329.69L599.895 336.473L600.502 354.041L601.109 331.568L601.716 333.899L602.323 338.665L602.93 339.43L603.537 336.578L604.144 342.596L604.751 358.981L605.358 333.516L605.965 331.742L606.572 338.143L607.179 342.387L607.786 337.239L608.393 345.866L609 357.902L609.607 335.43L610.214 338.421L610.821 343.64L611.428 350.145L612.035 347.605L612.642 356.093L613.249 363.468L613.856 350.04L614.463 352.406L615.07 356.198L615.677 357.381L616.284 356.963L616.891 360.616L617.498 365.695L618.105 355.954L618.712 356.198L619.319 359.781L619.926 359.746L620.533 359.398L621.14 361.346L621.747 365.764L622.354 357.102L622.961 356.615L623.568 358.424L624.175 360.059L624.782 356.441L625.389 362.077L625.996 366.495L626.603 357.276L627.21 358.563L627.817 359.224L628.424 359.711L629.031 357.276L629.638 361.52L630.245 365.312L630.852 355.293L631.459 355.746L632.066 354.111L632.673 354.215L633.28 354.319L633.887 353.102L634.494 359.99L635.101 346.179L635.708 334.664L636.315 338.352L636.922 336.299L637.529 328.229L638.136 323.845L638.743 348.336L639.35 323.776L639.957 297.824L640.564 287.562L641.171 302.277L641.778 292.78L642.385 283.979L642.992 303.877L643.599 337.83L644.206 283.283L644.813 243.66L645.42 232.354L646.027 223.657L646.634 206.751L647.241 238.999L647.848 232.006L648.455 178.782L649.062 187.931L649.669 193.497L650.276 189.148L650.883 194.332L651.49 229.711L652.096 218.37L652.703 130.079L653.31 187.339L653.917 159.266L654.524 206.09L655.131 207.899L655.738 214.474L656.345 255.14L656.952 144.446L657.559 196.975L658.166 174.746L658.773 271.003L659.38 203.655L659.987 251.905L660.594 279.387L661.201 205.046L661.808 196.315L662.415 189.809L663.022 192.592L663.629 196.21L664.236 240.251L664.843 256.532L665.45 169.215L666.057 196.245L666.664 225.536L667.271 240.738L667.878 235.485L668.485 283.318L669.092 271.456L669.699 211.795L670.306 241.608L670.913 269.264L671.52 275.178L672.127 274.969L672.734 312.087L673.341 309.861L673.948 257.61L674.555 278.657L675.162 292.363L675.769 299.251L676.376 302.173L676.983 325.376L677.59 322.524L678.197 280.222L678.804 302.347L679.411 314.87L680.018 312.679L680.625 318.071L681.232 338.421L681.839 354.841L682.446 333.169L683.053 313.374L683.66 328.472L684.267 340.613L684.874 347.292L685.481 336.23L686.088 340.578L686.695 338.213L687.302 345.831L687.909 349.901L688.516 347.292L689.123 352.58L689.73 363.816L690.337 349.066L690.944 344.927L691.551 350.632L692.158 352.684L692.765 354.702L693.372 355.259L693.979 365.73L694.586 366.391L695.193 345.17L695.8 345.866" stroke="#4285F4" stroke-width="2" stroke-miterlimit="10"/>
<path d="M379.922 418.8V410.206H382.891C383.557 410.206 384.068 410.248 384.422 410.331C384.911 410.446 385.328 410.649 385.672 410.94C386.13 411.326 386.469 411.821 386.688 412.425C386.917 413.019 387.031 413.696 387.031 414.456C387.031 415.112 386.953 415.69 386.797 416.19C386.651 416.69 386.458 417.107 386.219 417.44C385.979 417.774 385.714 418.034 385.422 418.222C385.141 418.409 384.802 418.555 384.406 418.659C384.01 418.753 383.552 418.8 383.031 418.8H379.922ZM381.062 417.784H382.891C383.464 417.784 383.911 417.732 384.234 417.628C384.557 417.524 384.812 417.373 385 417.175C385.271 416.914 385.479 416.555 385.625 416.097C385.781 415.638 385.859 415.086 385.859 414.44C385.859 413.545 385.708 412.857 385.406 412.378C385.115 411.888 384.76 411.56 384.344 411.394C384.031 411.279 383.542 411.222 382.875 411.222H381.062V417.784ZM392.859 418.034C392.464 418.368 392.083 418.602 391.719 418.737C391.365 418.873 390.979 418.94 390.562 418.94C389.875 418.94 389.349 418.774 388.984 418.44C388.62 418.107 388.438 417.68 388.438 417.159C388.438 416.857 388.505 416.581 388.641 416.331C388.776 416.071 388.958 415.868 389.188 415.722C389.417 415.565 389.672 415.451 389.953 415.378C390.151 415.315 390.464 415.258 390.891 415.206C391.734 415.112 392.359 414.993 392.766 414.847C392.766 414.701 392.766 414.612 392.766 414.581C392.766 414.144 392.667 413.836 392.469 413.659C392.198 413.43 391.797 413.315 391.266 413.315C390.776 413.315 390.411 413.404 390.172 413.581C389.932 413.748 389.755 414.05 389.641 414.487L388.609 414.347C388.703 413.909 388.859 413.555 389.078 413.284C389.297 413.013 389.609 412.805 390.016 412.659C390.422 412.513 390.891 412.44 391.422 412.44C391.953 412.44 392.385 412.503 392.719 412.628C393.052 412.753 393.297 412.909 393.453 413.097C393.609 413.284 393.719 413.524 393.781 413.815C393.812 413.993 393.828 414.315 393.828 414.784V416.19C393.828 417.17 393.849 417.789 393.891 418.05C393.943 418.31 394.036 418.56 394.172 418.8H393.062C392.958 418.581 392.891 418.326 392.859 418.034ZM392.766 415.675C392.38 415.831 391.807 415.966 391.047 416.081C390.609 416.144 390.302 416.216 390.125 416.3C389.948 416.373 389.807 416.482 389.703 416.628C389.609 416.774 389.562 416.94 389.562 417.128C389.562 417.409 389.667 417.644 389.875 417.831C390.094 418.019 390.406 418.112 390.812 418.112C391.219 418.112 391.578 418.024 391.891 417.847C392.214 417.67 392.448 417.425 392.594 417.112C392.708 416.873 392.766 416.524 392.766 416.065V415.675ZM398.094 417.862L398.25 418.784C397.948 418.847 397.682 418.878 397.453 418.878C397.068 418.878 396.771 418.821 396.562 418.706C396.354 418.581 396.203 418.42 396.109 418.222C396.026 418.024 395.984 417.607 395.984 416.972V413.394H395.219V412.581H395.984V411.034L397.031 410.409V412.581H398.094V413.394H397.031V417.034C397.031 417.336 397.047 417.529 397.078 417.612C397.12 417.696 397.182 417.763 397.266 417.815C397.349 417.868 397.469 417.894 397.625 417.894C397.75 417.894 397.906 417.883 398.094 417.862ZM403.047 416.8L404.141 416.925C403.974 417.56 403.656 418.055 403.188 418.409C402.719 418.763 402.125 418.94 401.406 418.94C400.5 418.94 399.776 418.659 399.234 418.097C398.703 417.534 398.438 416.748 398.438 415.737C398.438 414.696 398.708 413.888 399.25 413.315C399.792 412.732 400.49 412.44 401.344 412.44C402.177 412.44 402.854 412.722 403.375 413.284C403.906 413.847 404.172 414.644 404.172 415.675C404.172 415.737 404.172 415.831 404.172 415.956H399.531C399.573 416.644 399.766 417.17 400.109 417.534C400.453 417.888 400.885 418.065 401.406 418.065C401.792 418.065 402.12 417.966 402.391 417.769C402.672 417.56 402.891 417.237 403.047 416.8ZM399.594 415.097H403.062C403.021 414.565 402.891 414.17 402.672 413.909C402.328 413.503 401.891 413.3 401.359 413.3C400.87 413.3 400.458 413.461 400.125 413.784C399.802 414.107 399.625 414.545 399.594 415.097Z" fill="black"/>
<path d="M33.2 251.275H24.6062V250.134H28.8719L24.6062 245.869V244.322L28.0906 247.931L33.2 244.166V245.666L28.8562 248.728L30.2156 250.134H33.2V251.275ZM35.5906 243.4L34.6062 243.525C34.6687 243.296 34.7 243.093 34.7 242.916C34.7 242.686 34.6583 242.504 34.575 242.369C34.5021 242.223 34.3979 242.103 34.2625 242.009C34.1479 241.947 33.8823 241.837 33.4656 241.681C33.4135 241.671 33.3302 241.639 33.2156 241.587L26.9812 243.962V242.822L30.575 241.525C31.0333 241.358 31.5177 241.207 32.0281 241.072C31.5385 240.947 31.0646 240.801 30.6062 240.634L26.9812 239.306V238.259L33.3094 240.619C33.9864 240.879 34.4552 241.077 34.7156 241.212C35.0698 241.4 35.325 241.619 35.4812 241.869C35.6479 242.108 35.7312 242.395 35.7312 242.728C35.7312 242.926 35.6844 243.15 35.5906 243.4ZM30.0906 238.744C28.9344 238.744 28.0802 238.426 27.5281 237.791C27.0698 237.259 26.8406 236.608 26.8406 235.837C26.8406 234.983 27.1219 234.285 27.6844 233.744C28.2364 233.192 29.0073 232.916 29.9969 232.916C30.7989 232.916 31.4291 233.035 31.8875 233.275C32.3458 233.514 32.7052 233.869 32.9656 234.337C33.2156 234.796 33.3406 235.296 33.3406 235.837C33.3406 236.702 33.0646 237.405 32.5125 237.947C31.95 238.478 31.1427 238.744 30.0906 238.744ZM30.0906 237.666C30.8823 237.666 31.476 237.494 31.8719 237.15C32.2677 236.796 32.4656 236.358 32.4656 235.837C32.4656 235.306 32.2677 234.869 31.8719 234.525C31.476 234.181 30.8719 234.009 30.0594 234.009C29.2885 234.009 28.7052 234.186 28.3094 234.541C27.9135 234.884 27.7156 235.317 27.7156 235.837C27.7156 236.358 27.9135 236.796 28.3094 237.15C28.6948 237.494 29.2885 237.666 30.0906 237.666ZM32.2625 229.056L33.1844 228.9C33.2469 229.202 33.2781 229.468 33.2781 229.697C33.2781 230.082 33.2208 230.379 33.1062 230.587C32.9812 230.796 32.8198 230.947 32.6219 231.041C32.4239 231.124 32.0073 231.166 31.3719 231.166H27.7937V231.931H26.9812V231.166H25.4344L24.8094 230.119H26.9812V229.056H27.7937V230.119H31.4344C31.7364 230.119 31.9291 230.103 32.0125 230.072C32.0958 230.03 32.1635 229.968 32.2156 229.884C32.2677 229.801 32.2937 229.681 32.2937 229.525C32.2937 229.4 32.2833 229.244 32.2625 229.056ZM30.0906 228.744C28.9344 228.744 28.0802 228.426 27.5281 227.791C27.0698 227.259 26.8406 226.608 26.8406 225.837C26.8406 224.983 27.1219 224.285 27.6844 223.744C28.2364 223.192 29.0073 222.916 29.9969 222.916C30.7989 222.916 31.4291 223.035 31.8875 223.275C32.3458 223.514 32.7052 223.869 32.9656 224.337C33.2156 224.796 33.3406 225.296 33.3406 225.837C33.3406 226.702 33.0646 227.405 32.5125 227.947C31.95 228.478 31.1427 228.744 30.0906 228.744ZM30.0906 227.666C30.8823 227.666 31.476 227.494 31.8719 227.15C32.2677 226.796 32.4656 226.358 32.4656 225.837C32.4656 225.306 32.2677 224.869 31.8719 224.525C31.476 224.181 30.8719 224.009 30.0594 224.009C29.2885 224.009 28.7052 224.186 28.3094 224.541C27.9135 224.884 27.7156 225.317 27.7156 225.837C27.7156 226.358 27.9135 226.796 28.3094 227.15C28.6948 227.494 29.2885 227.666 30.0906 227.666Z" fill="black"/>
<path d="M75.7 369.565C75.7 368.545 75.8042 367.727 76.0125 367.112C76.2208 366.487 76.5281 366.008 76.9344 365.675C77.3511 365.341 77.8719 365.175 78.4969 365.175C78.9552 365.175 79.3563 365.269 79.7 365.456C80.0542 365.644 80.3458 365.914 80.575 366.269C80.8042 366.612 80.9813 367.034 81.1063 367.534C81.2313 368.034 81.2938 368.711 81.2938 369.565C81.2938 370.576 81.1896 371.388 80.9813 372.003C80.7833 372.618 80.4761 373.097 80.0594 373.44C79.6531 373.774 79.1323 373.94 78.4969 373.94C77.674 373.94 77.0229 373.644 76.5438 373.05C75.9813 372.341 75.7 371.18 75.7 369.565ZM76.7781 369.565C76.7781 370.972 76.9448 371.909 77.2781 372.378C77.6115 372.847 78.0177 373.081 78.4969 373.081C78.9865 373.081 79.3927 372.847 79.7156 372.378C80.049 371.909 80.2156 370.972 80.2156 369.565C80.2156 368.149 80.049 367.211 79.7156 366.753C79.3927 366.284 78.9813 366.05 78.4813 366.05C78.0021 366.05 77.6167 366.253 77.325 366.659C76.9604 367.18 76.7781 368.149 76.7781 369.565Z" fill="black"/>
<path d="M60.2469 303.209V304.225H54.5594C54.5594 303.975 54.6011 303.73 54.6844 303.491C54.8302 303.105 55.0594 302.725 55.3719 302.35C55.6948 301.975 56.1583 301.543 56.7625 301.053C57.7 300.282 58.3302 299.673 58.6531 299.225C58.9865 298.777 59.1531 298.355 59.1531 297.959C59.1531 297.543 59.0021 297.194 58.7 296.913C58.3979 296.621 58.0073 296.475 57.5281 296.475C57.0177 296.475 56.6115 296.626 56.3094 296.928C56.0073 297.23 55.8511 297.652 55.8406 298.194L54.7625 298.084C54.8354 297.272 55.1115 296.657 55.5906 296.241C56.0802 295.814 56.7365 295.6 57.5594 295.6C58.3823 295.6 59.0333 295.829 59.5125 296.288C59.9917 296.746 60.2313 297.314 60.2313 297.991C60.2313 298.334 60.1583 298.673 60.0125 299.006C59.8771 299.329 59.6427 299.678 59.3094 300.053C58.9865 300.418 58.45 300.918 57.7 301.553C57.0646 302.084 56.6531 302.449 56.4656 302.647C56.2886 302.834 56.1427 303.022 56.0281 303.209H60.2469ZM61.7 299.991C61.7 298.97 61.8042 298.152 62.0125 297.538C62.2208 296.913 62.5281 296.433 62.9344 296.1C63.3511 295.767 63.8719 295.6 64.4969 295.6C64.9552 295.6 65.3563 295.694 65.7 295.881C66.0542 296.069 66.3458 296.34 66.575 296.694C66.8042 297.038 66.9813 297.459 67.1063 297.959C67.2313 298.459 67.2938 299.137 67.2938 299.991C67.2938 301.001 67.1896 301.814 66.9813 302.428C66.7833 303.043 66.4761 303.522 66.0594 303.866C65.6531 304.199 65.1323 304.366 64.4969 304.366C63.674 304.366 63.0229 304.069 62.5438 303.475C61.9813 302.767 61.7 301.605 61.7 299.991ZM62.7781 299.991C62.7781 301.397 62.9448 302.334 63.2781 302.803C63.6115 303.272 64.0177 303.506 64.4969 303.506C64.9865 303.506 65.3927 303.272 65.7156 302.803C66.049 302.334 66.2156 301.397 66.2156 299.991C66.2156 298.574 66.049 297.637 65.7156 297.178C65.3927 296.709 64.9813 296.475 64.4813 296.475C64.0021 296.475 63.6167 296.678 63.325 297.084C62.9604 297.605 62.7781 298.574 62.7781 299.991ZM68.7 299.991C68.7 298.97 68.8042 298.152 69.0125 297.538C69.2208 296.913 69.5281 296.433 69.9344 296.1C70.3511 295.767 70.8719 295.6 71.4969 295.6C71.9552 295.6 72.3563 295.694 72.7 295.881C73.0542 296.069 73.3458 296.34 73.575 296.694C73.8042 297.038 73.9813 297.459 74.1063 297.959C74.2313 298.459 74.2938 299.137 74.2938 299.991C74.2938 301.001 74.1896 301.814 73.9813 302.428C73.7833 303.043 73.4761 303.522 73.0594 303.866C72.6531 304.199 72.1323 304.366 71.4969 304.366C70.674 304.366 70.0229 304.069 69.5438 303.475C68.9813 302.767 68.7 301.605 68.7 299.991ZM69.7781 299.991C69.7781 301.397 69.9448 302.334 70.2781 302.803C70.6115 303.272 71.0177 303.506 71.4969 303.506C71.9865 303.506 72.3927 303.272 72.7156 302.803C73.049 302.334 73.2156 301.397 73.2156 299.991C73.2156 298.574 73.049 297.637 72.7156 297.178C72.3927 296.709 71.9813 296.475 71.4813 296.475C71.0021 296.475 70.6167 296.678 70.325 297.084C69.9604 297.605 69.7781 298.574 69.7781 299.991ZM75.7 299.991C75.7 298.97 75.8042 298.152 76.0125 297.538C76.2208 296.913 76.5281 296.433 76.9344 296.1C77.3511 295.767 77.8719 295.6 78.4969 295.6C78.9552 295.6 79.3563 295.694 79.7 295.881C80.0542 296.069 80.3458 296.34 80.575 296.694C80.8042 297.038 80.9813 297.459 81.1063 297.959C81.2313 298.459 81.2938 299.137 81.2938 299.991C81.2938 301.001 81.1896 301.814 80.9813 302.428C80.7833 303.043 80.4761 303.522 80.0594 303.866C79.6531 304.199 79.1323 304.366 78.4969 304.366C77.674 304.366 77.0229 304.069 76.5438 303.475C75.9813 302.767 75.7 301.605 75.7 299.991ZM76.7781 299.991C76.7781 301.397 76.9448 302.334 77.2781 302.803C77.6115 303.272 78.0177 303.506 78.4969 303.506C78.9865 303.506 79.3927 303.272 79.7156 302.803C80.049 302.334 80.2156 301.397 80.2156 299.991C80.2156 298.574 80.049 297.637 79.7156 297.178C79.3927 296.709 78.9813 296.475 78.4813 296.475C78.0021 296.475 77.6167 296.678 77.325 297.084C76.9604 297.605 76.7781 298.574 76.7781 299.991Z" fill="black"/>
<path d="M58.075 234.65V232.587H54.3563V231.619L58.2781 226.056H59.1375V231.619H60.2938V232.587H59.1375V234.65H58.075ZM58.075 231.619V227.759L55.3875 231.619H58.075ZM61.7 230.416C61.7 229.395 61.8042 228.577 62.0125 227.962C62.2208 227.337 62.5281 226.858 62.9344 226.525C63.3511 226.192 63.8719 226.025 64.4969 226.025C64.9552 226.025 65.3563 226.119 65.7 226.306C66.0542 226.494 66.3458 226.764 66.575 227.119C66.8042 227.462 66.9813 227.884 67.1063 228.384C67.2313 228.884 67.2938 229.561 67.2938 230.416C67.2938 231.426 67.1896 232.238 66.9813 232.853C66.7833 233.468 66.4761 233.947 66.0594 234.291C65.6531 234.624 65.1323 234.791 64.4969 234.791C63.674 234.791 63.0229 234.494 62.5438 233.9C61.9813 233.192 61.7 232.03 61.7 230.416ZM62.7781 230.416C62.7781 231.822 62.9448 232.759 63.2781 233.228C63.6115 233.697 64.0177 233.931 64.4969 233.931C64.9865 233.931 65.3927 233.697 65.7156 233.228C66.049 232.759 66.2156 231.822 66.2156 230.416C66.2156 228.999 66.049 228.061 65.7156 227.603C65.3927 227.134 64.9813 226.9 64.4813 226.9C64.0021 226.9 63.6167 227.103 63.325 227.509C62.9604 228.03 62.7781 228.999 62.7781 230.416ZM68.7 230.416C68.7 229.395 68.8042 228.577 69.0125 227.962C69.2208 227.337 69.5281 226.858 69.9344 226.525C70.3511 226.192 70.8719 226.025 71.4969 226.025C71.9552 226.025 72.3563 226.119 72.7 226.306C73.0542 226.494 73.3458 226.764 73.575 227.119C73.8042 227.462 73.9813 227.884 74.1063 228.384C74.2313 228.884 74.2938 229.561 74.2938 230.416C74.2938 231.426 74.1896 232.238 73.9813 232.853C73.7833 233.468 73.4761 233.947 73.0594 234.291C72.6531 234.624 72.1323 234.791 71.4969 234.791C70.674 234.791 70.0229 234.494 69.5438 233.9C68.9813 233.192 68.7 232.03 68.7 230.416ZM69.7781 230.416C69.7781 231.822 69.9448 232.759 70.2781 233.228C70.6115 233.697 71.0177 233.931 71.4969 233.931C71.9865 233.931 72.3927 233.697 72.7156 233.228C73.049 232.759 73.2156 231.822 73.2156 230.416C73.2156 228.999 73.049 228.061 72.7156 227.603C72.3927 227.134 71.9813 226.9 71.4813 226.9C71.0021 226.9 70.6167 227.103 70.325 227.509C69.9604 228.03 69.7781 228.999 69.7781 230.416ZM75.7 230.416C75.7 229.395 75.8042 228.577 76.0125 227.962C76.2208 227.337 76.5281 226.858 76.9344 226.525C77.3511 226.192 77.8719 226.025 78.4969 226.025C78.9552 226.025 79.3563 226.119 79.7 226.306C80.0542 226.494 80.3458 226.764 80.575 227.119C80.8042 227.462 80.9813 227.884 81.1063 228.384C81.2313 228.884 81.2938 229.561 81.2938 230.416C81.2938 231.426 81.1896 232.238 80.9813 232.853C80.7833 233.468 80.4761 233.947 80.0594 234.291C79.6531 234.624 79.1323 234.791 78.4969 234.791C77.674 234.791 77.0229 234.494 76.5438 233.9C75.9813 233.192 75.7 232.03 75.7 230.416ZM76.7781 230.416C76.7781 231.822 76.9448 232.759 77.2781 233.228C77.6115 233.697 78.0177 233.931 78.4969 233.931C78.9865 233.931 79.3927 233.697 79.7156 233.228C80.049 232.759 80.2156 231.822 80.2156 230.416C80.2156 228.999 80.049 228.061 79.7156 227.603C79.3927 227.134 78.9813 226.9 78.4813 226.9C78.0021 226.9 77.6167 227.103 77.325 227.509C76.9604 228.03 76.7781 228.999 76.7781 230.416Z" fill="black"/>
<path d="M60.1688 158.591L59.1219 158.669C59.0281 158.252 58.8979 157.95 58.7313 157.763C58.4396 157.461 58.0854 157.31 57.6688 157.31C57.3354 157.31 57.0386 157.403 56.7781 157.591C56.4552 157.841 56.1948 158.2 55.9969 158.669C55.8094 159.127 55.7104 159.784 55.7 160.638C55.95 160.252 56.2573 159.966 56.6219 159.778C56.9969 159.591 57.3875 159.497 57.7938 159.497C58.4917 159.497 59.0854 159.757 59.575 160.278C60.075 160.799 60.325 161.466 60.325 162.278C60.325 162.82 60.2052 163.325 59.9656 163.794C59.7365 164.252 59.4188 164.606 59.0125 164.856C58.6063 165.096 58.1479 165.216 57.6375 165.216C56.7521 165.216 56.0333 164.893 55.4813 164.247C54.9292 163.601 54.6531 162.539 54.6531 161.06C54.6531 159.393 54.9604 158.185 55.575 157.435C56.1063 156.778 56.825 156.45 57.7313 156.45C58.4083 156.45 58.9604 156.643 59.3875 157.028C59.825 157.403 60.0854 157.924 60.1688 158.591ZM55.8719 162.294C55.8719 162.659 55.9448 163.007 56.0906 163.341C56.2469 163.664 56.4604 163.914 56.7313 164.091C57.0125 164.268 57.3094 164.356 57.6219 164.356C58.0594 164.356 58.4396 164.179 58.7625 163.825C59.0854 163.461 59.2469 162.971 59.2469 162.356C59.2469 161.763 59.0854 161.294 58.7625 160.95C58.45 160.606 58.0542 160.435 57.575 160.435C57.0958 160.435 56.6896 160.606 56.3563 160.95C56.0333 161.294 55.8719 161.742 55.8719 162.294ZM61.7 160.841C61.7 159.82 61.8042 159.002 62.0125 158.388C62.2208 157.763 62.5281 157.284 62.9344 156.95C63.3511 156.617 63.8719 156.45 64.4969 156.45C64.9552 156.45 65.3563 156.544 65.7 156.731C66.0542 156.919 66.3458 157.19 66.575 157.544C66.8042 157.888 66.9813 158.31 67.1063 158.81C67.2313 159.31 67.2938 159.987 67.2938 160.841C67.2938 161.851 67.1896 162.664 66.9813 163.278C66.7833 163.893 66.4761 164.372 66.0594 164.716C65.6531 165.049 65.1323 165.216 64.4969 165.216C63.674 165.216 63.0229 164.919 62.5438 164.325C61.9813 163.617 61.7 162.455 61.7 160.841ZM62.7781 160.841C62.7781 162.247 62.9448 163.185 63.2781 163.653C63.6115 164.122 64.0177 164.356 64.4969 164.356C64.9865 164.356 65.3927 164.122 65.7156 163.653C66.049 163.185 66.2156 162.247 66.2156 160.841C66.2156 159.424 66.049 158.487 65.7156 158.028C65.3927 157.56 64.9813 157.325 64.4813 157.325C64.0021 157.325 63.6167 157.528 63.325 157.935C62.9604 158.455 62.7781 159.424 62.7781 160.841ZM68.7 160.841C68.7 159.82 68.8042 159.002 69.0125 158.388C69.2208 157.763 69.5281 157.284 69.9344 156.95C70.3511 156.617 70.8719 156.45 71.4969 156.45C71.9552 156.45 72.3563 156.544 72.7 156.731C73.0542 156.919 73.3458 157.19 73.575 157.544C73.8042 157.888 73.9813 158.31 74.1063 158.81C74.2313 159.31 74.2938 159.987 74.2938 160.841C74.2938 161.851 74.1896 162.664 73.9813 163.278C73.7833 163.893 73.4761 164.372 73.0594 164.716C72.6531 165.049 72.1323 165.216 71.4969 165.216C70.674 165.216 70.0229 164.919 69.5438 164.325C68.9813 163.617 68.7 162.455 68.7 160.841ZM69.7781 160.841C69.7781 162.247 69.9448 163.185 70.2781 163.653C70.6115 164.122 71.0177 164.356 71.4969 164.356C71.9865 164.356 72.3927 164.122 72.7156 163.653C73.049 163.185 73.2156 162.247 73.2156 160.841C73.2156 159.424 73.049 158.487 72.7156 158.028C72.3927 157.56 71.9813 157.325 71.4813 157.325C71.0021 157.325 70.6167 157.528 70.325 157.935C69.9604 158.455 69.7781 159.424 69.7781 160.841ZM75.7 160.841C75.7 159.82 75.8042 159.002 76.0125 158.388C76.2208 157.763 76.5281 157.284 76.9344 156.95C77.3511 156.617 77.8719 156.45 78.4969 156.45C78.9552 156.45 79.3563 156.544 79.7 156.731C80.0542 156.919 80.3458 157.19 80.575 157.544C80.8042 157.888 80.9813 158.31 81.1063 158.81C81.2313 159.31 81.2938 159.987 81.2938 160.841C81.2938 161.851 81.1896 162.664 80.9813 163.278C80.7833 163.893 80.4761 164.372 80.0594 164.716C79.6531 165.049 79.1323 165.216 78.4969 165.216C77.674 165.216 77.0229 164.919 76.5438 164.325C75.9813 163.617 75.7 162.455 75.7 160.841ZM76.7781 160.841C76.7781 162.247 76.9448 163.185 77.2781 163.653C77.6115 164.122 78.0177 164.356 78.4969 164.356C78.9865 164.356 79.3927 164.122 79.7156 163.653C80.049 163.185 80.2156 162.247 80.2156 160.841C80.2156 159.424 80.049 158.487 79.7156 158.028C79.3927 157.56 78.9813 157.325 78.4813 157.325C78.0021 157.325 77.6167 157.528 77.325 157.935C76.9604 158.455 76.7781 159.424 76.7781 160.841Z" fill="black"/>
<path d="M56.325 90.8438C55.8875 90.6771 55.5594 90.4479 55.3406 90.1562C55.1323 89.8542 55.0281 89.5 55.0281 89.0938C55.0281 88.4688 55.2521 87.9427 55.7 87.5156C56.1583 87.0885 56.7573 86.875 57.4969 86.875C58.2469 86.875 58.8511 87.0938 59.3094 87.5312C59.7677 87.9688 59.9969 88.5 59.9969 89.125C59.9969 89.5208 59.8927 89.8646 59.6844 90.1562C59.4761 90.4479 59.1583 90.6771 58.7313 90.8438C59.2625 91.0104 59.6636 91.2865 59.9344 91.6719C60.2052 92.0573 60.3406 92.5156 60.3406 93.0469C60.3406 93.776 60.0802 94.3906 59.5594 94.8906C59.049 95.3906 58.3667 95.6406 57.5125 95.6406C56.6688 95.6406 55.9865 95.3906 55.4656 94.8906C54.9448 94.3906 54.6844 93.7656 54.6844 93.0156C54.6844 92.4531 54.825 91.9844 55.1063 91.6094C55.3979 91.2344 55.8042 90.9792 56.325 90.8438ZM56.1063 89.0469C56.1063 89.4531 56.2365 89.7865 56.4969 90.0469C56.7677 90.3073 57.1115 90.4375 57.5281 90.4375C57.9344 90.4375 58.2677 90.3125 58.5281 90.0625C58.7886 89.8021 58.9188 89.4844 58.9188 89.1094C58.9188 88.724 58.7833 88.401 58.5125 88.1406C58.2417 87.8698 57.9083 87.7344 57.5125 87.7344C57.1063 87.7344 56.7677 87.8646 56.4969 88.125C56.2365 88.3854 56.1063 88.6927 56.1063 89.0469ZM55.7781 93.0156C55.7781 93.3177 55.8458 93.6094 55.9813 93.8906C56.1271 94.1719 56.3406 94.3906 56.6219 94.5469C56.9031 94.7031 57.2052 94.7812 57.5281 94.7812C58.0281 94.7812 58.4396 94.6198 58.7625 94.2969C59.0958 93.974 59.2625 93.5625 59.2625 93.0625C59.2625 92.5521 59.0958 92.1302 58.7625 91.7969C58.4292 91.4635 58.0073 91.2969 57.4969 91.2969C56.9969 91.2969 56.5854 91.4635 56.2625 91.7969C55.9396 92.1198 55.7781 92.526 55.7781 93.0156ZM61.7 91.2656C61.7 90.2448 61.8042 89.4271 62.0125 88.8125C62.2208 88.1875 62.5281 87.7083 62.9344 87.375C63.3511 87.0417 63.8719 86.875 64.4969 86.875C64.9552 86.875 65.3563 86.9688 65.7 87.1562C66.0542 87.3438 66.3458 87.6146 66.575 87.9688C66.8042 88.3125 66.9813 88.7344 67.1063 89.2344C67.2313 89.7344 67.2938 90.4115 67.2938 91.2656C67.2938 92.276 67.1896 93.0885 66.9813 93.7031C66.7833 94.3177 66.4761 94.7969 66.0594 95.1406C65.6531 95.474 65.1323 95.6406 64.4969 95.6406C63.674 95.6406 63.0229 95.3438 62.5438 94.75C61.9813 94.0417 61.7 92.8802 61.7 91.2656ZM62.7781 91.2656C62.7781 92.6719 62.9448 93.6094 63.2781 94.0781C63.6115 94.5469 64.0177 94.7812 64.4969 94.7812C64.9865 94.7812 65.3927 94.5469 65.7156 94.0781C66.049 93.6094 66.2156 92.6719 66.2156 91.2656C66.2156 89.849 66.049 88.9115 65.7156 88.4531C65.3927 87.9844 64.9813 87.75 64.4813 87.75C64.0021 87.75 63.6167 87.9531 63.325 88.3594C62.9604 88.8802 62.7781 89.849 62.7781 91.2656ZM68.7 91.2656C68.7 90.2448 68.8042 89.4271 69.0125 88.8125C69.2208 88.1875 69.5281 87.7083 69.9344 87.375C70.3511 87.0417 70.8719 86.875 71.4969 86.875C71.9552 86.875 72.3563 86.9688 72.7 87.1562C73.0542 87.3438 73.3458 87.6146 73.575 87.9688C73.8042 88.3125 73.9813 88.7344 74.1063 89.2344C74.2313 89.7344 74.2938 90.4115 74.2938 91.2656C74.2938 92.276 74.1896 93.0885 73.9813 93.7031C73.7833 94.3177 73.4761 94.7969 73.0594 95.1406C72.6531 95.474 72.1323 95.6406 71.4969 95.6406C70.674 95.6406 70.0229 95.3438 69.5438 94.75C68.9813 94.0417 68.7 92.8802 68.7 91.2656ZM69.7781 91.2656C69.7781 92.6719 69.9448 93.6094 70.2781 94.0781C70.6115 94.5469 71.0177 94.7812 71.4969 94.7812C71.9865 94.7812 72.3927 94.5469 72.7156 94.0781C73.049 93.6094 73.2156 92.6719 73.2156 91.2656C73.2156 89.849 73.049 88.9115 72.7156 88.4531C72.3927 87.9844 71.9813 87.75 71.4813 87.75C71.0021 87.75 70.6167 87.9531 70.325 88.3594C69.9604 88.8802 69.7781 89.849 69.7781 91.2656ZM75.7 91.2656C75.7 90.2448 75.8042 89.4271 76.0125 88.8125C76.2208 88.1875 76.5281 87.7083 76.9344 87.375C77.3511 87.0417 77.8719 86.875 78.4969 86.875C78.9552 86.875 79.3563 86.9688 79.7 87.1562C80.0542 87.3438 80.3458 87.6146 80.575 87.9688C80.8042 88.3125 80.9813 88.7344 81.1063 89.2344C81.2313 89.7344 81.2938 90.4115 81.2938 91.2656C81.2938 92.276 81.1896 93.0885 80.9813 93.7031C80.7833 94.3177 80.4761 94.7969 80.0594 95.1406C79.6531 95.474 79.1323 95.6406 78.4969 95.6406C77.674 95.6406 77.0229 95.3438 76.5438 94.75C75.9813 94.0417 75.7 92.8802 75.7 91.2656ZM76.7781 91.2656C76.7781 92.6719 76.9448 93.6094 77.2781 94.0781C77.6115 94.5469 78.0177 94.7812 78.4969 94.7812C78.9865 94.7812 79.3927 94.5469 79.7156 94.0781C80.049 93.6094 80.2156 92.6719 80.2156 91.2656C80.2156 89.849 80.049 88.9115 79.7156 88.4531C79.3927 87.9844 78.9813 87.75 78.4813 87.75C78.0021 87.75 77.6167 87.9531 77.325 88.3594C76.9604 88.8802 76.7781 89.849 76.7781 91.2656Z" fill="black"/>
<path d="M168.052 386.8V384.737H164.333V383.769L168.255 378.206H169.114V383.769H170.271V384.737H169.114V386.8H168.052ZM168.052 383.769V379.909L165.364 383.769H168.052ZM175.052 386.8V384.737H171.333V383.769L175.255 378.206H176.114V383.769H177.271V384.737H176.114V386.8H175.052ZM175.052 383.769V379.909L172.364 383.769H175.052ZM178.677 382.565C178.677 381.545 178.781 380.727 178.989 380.112C179.198 379.487 179.505 379.008 179.911 378.675C180.328 378.341 180.849 378.175 181.474 378.175C181.932 378.175 182.333 378.269 182.677 378.456C183.031 378.644 183.323 378.914 183.552 379.269C183.781 379.612 183.958 380.034 184.083 380.534C184.208 381.034 184.271 381.711 184.271 382.565C184.271 383.576 184.167 384.388 183.958 385.003C183.76 385.618 183.453 386.097 183.036 386.44C182.63 386.774 182.109 386.94 181.474 386.94C180.651 386.94 180 386.644 179.521 386.05C178.958 385.341 178.677 384.18 178.677 382.565ZM179.755 382.565C179.755 383.972 179.922 384.909 180.255 385.378C180.588 385.847 180.995 386.081 181.474 386.081C181.963 386.081 182.37 385.847 182.693 385.378C183.026 384.909 183.193 383.972 183.193 382.565C183.193 381.149 183.026 380.211 182.693 379.753C182.37 379.284 181.958 379.05 181.458 379.05C180.979 379.05 180.594 379.253 180.302 379.659C179.937 380.18 179.755 381.149 179.755 382.565ZM185.677 382.565C185.677 381.545 185.781 380.727 185.989 380.112C186.198 379.487 186.505 379.008 186.911 378.675C187.328 378.341 187.849 378.175 188.474 378.175C188.932 378.175 189.333 378.269 189.677 378.456C190.031 378.644 190.323 378.914 190.552 379.269C190.781 379.612 190.958 380.034 191.083 380.534C191.208 381.034 191.271 381.711 191.271 382.565C191.271 383.576 191.167 384.388 190.958 385.003C190.76 385.618 190.453 386.097 190.036 386.44C189.63 386.774 189.109 386.94 188.474 386.94C187.651 386.94 187 386.644 186.521 386.05C185.958 385.341 185.677 384.18 185.677 382.565ZM186.755 382.565C186.755 383.972 186.922 384.909 187.255 385.378C187.588 385.847 187.995 386.081 188.474 386.081C188.963 386.081 189.37 385.847 189.693 385.378C190.026 384.909 190.193 383.972 190.193 382.565C190.193 381.149 190.026 380.211 189.693 379.753C189.37 379.284 188.958 379.05 188.458 379.05C187.979 379.05 187.594 379.253 187.302 379.659C186.937 380.18 186.755 381.149 186.755 382.565ZM192.677 382.565C192.677 381.545 192.781 380.727 192.989 380.112C193.198 379.487 193.505 379.008 193.911 378.675C194.328 378.341 194.849 378.175 195.474 378.175C195.932 378.175 196.333 378.269 196.677 378.456C197.031 378.644 197.323 378.914 197.552 379.269C197.781 379.612 197.958 380.034 198.083 380.534C198.208 381.034 198.271 381.711 198.271 382.565C198.271 383.576 198.167 384.388 197.958 385.003C197.76 385.618 197.453 386.097 197.036 386.44C196.63 386.774 196.109 386.94 195.474 386.94C194.651 386.94 194 386.644 193.521 386.05C192.958 385.341 192.677 384.18 192.677 382.565ZM193.755 382.565C193.755 383.972 193.922 384.909 194.255 385.378C194.588 385.847 194.995 386.081 195.474 386.081C195.963 386.081 196.37 385.847 196.693 385.378C197.026 384.909 197.193 383.972 197.193 382.565C197.193 381.149 197.026 380.211 196.693 379.753C196.37 379.284 195.958 379.05 195.458 379.05C194.979 379.05 194.594 379.253 194.302 379.659C193.937 380.18 193.755 381.149 193.755 382.565Z" fill="black"/>
<path d="M289.451 386.8V384.737H285.732V383.769L289.654 378.206H290.513V383.769H291.669V384.737H290.513V386.8H289.451ZM289.451 383.769V379.909L286.763 383.769H289.451ZM296.451 386.8V384.737H292.732V383.769L296.654 378.206H297.513V383.769H298.669V384.737H297.513V386.8H296.451ZM296.451 383.769V379.909L293.763 383.769H296.451ZM305.622 385.784V386.8H299.935C299.935 386.55 299.977 386.305 300.06 386.065C300.206 385.68 300.435 385.3 300.747 384.925C301.07 384.55 301.534 384.118 302.138 383.628C303.076 382.857 303.706 382.248 304.029 381.8C304.362 381.352 304.529 380.93 304.529 380.534C304.529 380.118 304.378 379.769 304.076 379.487C303.773 379.196 303.383 379.05 302.904 379.05C302.393 379.05 301.987 379.201 301.685 379.503C301.383 379.805 301.227 380.227 301.216 380.769L300.138 380.659C300.211 379.847 300.487 379.232 300.966 378.815C301.456 378.388 302.112 378.175 302.935 378.175C303.758 378.175 304.409 378.404 304.888 378.862C305.367 379.321 305.607 379.888 305.607 380.565C305.607 380.909 305.534 381.248 305.388 381.581C305.253 381.904 305.018 382.253 304.685 382.628C304.362 382.993 303.826 383.493 303.076 384.128C302.44 384.659 302.029 385.024 301.841 385.222C301.664 385.409 301.518 385.597 301.404 385.784H305.622ZM307.076 382.565C307.076 381.545 307.18 380.727 307.388 380.112C307.596 379.487 307.904 379.008 308.31 378.675C308.727 378.341 309.247 378.175 309.872 378.175C310.331 378.175 310.732 378.269 311.076 378.456C311.43 378.644 311.721 378.914 311.951 379.269C312.18 379.612 312.357 380.034 312.482 380.534C312.607 381.034 312.669 381.711 312.669 382.565C312.669 383.576 312.565 384.388 312.357 385.003C312.159 385.618 311.852 386.097 311.435 386.44C311.029 386.774 310.508 386.94 309.872 386.94C309.049 386.94 308.398 386.644 307.919 386.05C307.357 385.341 307.076 384.18 307.076 382.565ZM308.154 382.565C308.154 383.972 308.32 384.909 308.654 385.378C308.987 385.847 309.393 386.081 309.872 386.081C310.362 386.081 310.768 385.847 311.091 385.378C311.424 384.909 311.591 383.972 311.591 382.565C311.591 381.149 311.424 380.211 311.091 379.753C310.768 379.284 310.357 379.05 309.857 379.05C309.378 379.05 308.992 379.253 308.701 379.659C308.336 380.18 308.154 381.149 308.154 382.565ZM314.076 382.565C314.076 381.545 314.18 380.727 314.388 380.112C314.596 379.487 314.904 379.008 315.31 378.675C315.727 378.341 316.247 378.175 316.872 378.175C317.331 378.175 317.732 378.269 318.076 378.456C318.43 378.644 318.721 378.914 318.951 379.269C319.18 379.612 319.357 380.034 319.482 380.534C319.607 381.034 319.669 381.711 319.669 382.565C319.669 383.576 319.565 384.388 319.357 385.003C319.159 385.618 318.852 386.097 318.435 386.44C318.029 386.774 317.508 386.94 316.872 386.94C316.049 386.94 315.398 386.644 314.919 386.05C314.357 385.341 314.076 384.18 314.076 382.565ZM315.154 382.565C315.154 383.972 315.32 384.909 315.654 385.378C315.987 385.847 316.393 386.081 316.872 386.081C317.362 386.081 317.768 385.847 318.091 385.378C318.424 384.909 318.591 383.972 318.591 382.565C318.591 381.149 318.424 380.211 318.091 379.753C317.768 379.284 317.357 379.05 316.857 379.05C316.378 379.05 315.992 379.253 315.701 379.659C315.336 380.18 315.154 381.149 315.154 382.565Z" fill="black"/>
<path d="M410.849 386.8V384.737H407.13V383.769L411.052 378.206H411.912V383.769H413.068V384.737H411.912V386.8H410.849ZM410.849 383.769V379.909L408.162 383.769H410.849ZM417.849 386.8V384.737H414.13V383.769L418.052 378.206H418.912V383.769H420.068V384.737H418.912V386.8H417.849ZM417.849 383.769V379.909L415.162 383.769H417.849ZM424.849 386.8V384.737H421.13V383.769L425.052 378.206H425.912V383.769H427.068V384.737H425.912V386.8H424.849ZM424.849 383.769V379.909L422.162 383.769H424.849ZM428.474 382.565C428.474 381.545 428.578 380.727 428.787 380.112C428.995 379.487 429.302 379.008 429.708 378.675C430.125 378.341 430.646 378.175 431.271 378.175C431.729 378.175 432.13 378.269 432.474 378.456C432.828 378.644 433.12 378.914 433.349 379.269C433.578 379.612 433.755 380.034 433.88 380.534C434.005 381.034 434.068 381.711 434.068 382.565C434.068 383.576 433.964 384.388 433.755 385.003C433.557 385.618 433.25 386.097 432.833 386.44C432.427 386.774 431.906 386.94 431.271 386.94C430.448 386.94 429.797 386.644 429.318 386.05C428.755 385.341 428.474 384.18 428.474 382.565ZM429.552 382.565C429.552 383.972 429.719 384.909 430.052 385.378C430.386 385.847 430.792 386.081 431.271 386.081C431.761 386.081 432.167 385.847 432.49 385.378C432.823 384.909 432.99 383.972 432.99 382.565C432.99 381.149 432.823 380.211 432.49 379.753C432.167 379.284 431.755 379.05 431.255 379.05C430.776 379.05 430.391 379.253 430.099 379.659C429.735 380.18 429.552 381.149 429.552 382.565ZM435.474 382.565C435.474 381.545 435.578 380.727 435.787 380.112C435.995 379.487 436.302 379.008 436.708 378.675C437.125 378.341 437.646 378.175 438.271 378.175C438.729 378.175 439.13 378.269 439.474 378.456C439.828 378.644 440.12 378.914 440.349 379.269C440.578 379.612 440.755 380.034 440.88 380.534C441.005 381.034 441.068 381.711 441.068 382.565C441.068 383.576 440.964 384.388 440.755 385.003C440.557 385.618 440.25 386.097 439.833 386.44C439.427 386.774 438.906 386.94 438.271 386.94C437.448 386.94 436.797 386.644 436.318 386.05C435.755 385.341 435.474 384.18 435.474 382.565ZM436.552 382.565C436.552 383.972 436.719 384.909 437.052 385.378C437.386 385.847 437.792 386.081 438.271 386.081C438.761 386.081 439.167 385.847 439.49 385.378C439.823 384.909 439.99 383.972 439.99 382.565C439.99 381.149 439.823 380.211 439.49 379.753C439.167 379.284 438.755 379.05 438.255 379.05C437.776 379.05 437.391 379.253 437.099 379.659C436.735 380.18 436.552 381.149 436.552 382.565Z" fill="black"/>
<path d="M532.248 386.8V384.737H528.529V383.769L532.451 378.206H533.31V383.769H534.466V384.737H533.31V386.8H532.248ZM532.248 383.769V379.909L529.56 383.769H532.248ZM539.248 386.8V384.737H535.529V383.769L539.451 378.206H540.31V383.769H541.466V384.737H540.31V386.8H539.248ZM539.248 383.769V379.909L536.56 383.769H539.248ZM548.341 380.315L547.295 380.394C547.201 379.977 547.071 379.675 546.904 379.487C546.612 379.185 546.258 379.034 545.841 379.034C545.508 379.034 545.211 379.128 544.951 379.315C544.628 379.565 544.368 379.925 544.17 380.394C543.982 380.852 543.883 381.508 543.873 382.362C544.123 381.977 544.43 381.69 544.795 381.503C545.17 381.315 545.56 381.222 545.966 381.222C546.664 381.222 547.258 381.482 547.748 382.003C548.248 382.524 548.498 383.19 548.498 384.003C548.498 384.545 548.378 385.05 548.138 385.519C547.909 385.977 547.591 386.331 547.185 386.581C546.779 386.821 546.321 386.94 545.81 386.94C544.925 386.94 544.206 386.618 543.654 385.972C543.102 385.326 542.826 384.263 542.826 382.784C542.826 381.118 543.133 379.909 543.748 379.159C544.279 378.503 544.998 378.175 545.904 378.175C546.581 378.175 547.133 378.368 547.56 378.753C547.998 379.128 548.258 379.649 548.341 380.315ZM544.045 384.019C544.045 384.383 544.118 384.732 544.263 385.065C544.42 385.388 544.633 385.638 544.904 385.815C545.185 385.993 545.482 386.081 545.795 386.081C546.232 386.081 546.612 385.904 546.935 385.55C547.258 385.185 547.42 384.696 547.42 384.081C547.42 383.487 547.258 383.019 546.935 382.675C546.623 382.331 546.227 382.159 545.748 382.159C545.269 382.159 544.862 382.331 544.529 382.675C544.206 383.019 544.045 383.466 544.045 384.019ZM549.873 382.565C549.873 381.545 549.977 380.727 550.185 380.112C550.394 379.487 550.701 379.008 551.107 378.675C551.524 378.341 552.045 378.175 552.67 378.175C553.128 378.175 553.529 378.269 553.873 378.456C554.227 378.644 554.519 378.914 554.748 379.269C554.977 379.612 555.154 380.034 555.279 380.534C555.404 381.034 555.466 381.711 555.466 382.565C555.466 383.576 555.362 384.388 555.154 385.003C554.956 385.618 554.649 386.097 554.232 386.44C553.826 386.774 553.305 386.94 552.67 386.94C551.847 386.94 551.196 386.644 550.716 386.05C550.154 385.341 549.873 384.18 549.873 382.565ZM550.951 382.565C550.951 383.972 551.118 384.909 551.451 385.378C551.784 385.847 552.19 386.081 552.67 386.081C553.159 386.081 553.565 385.847 553.888 385.378C554.222 384.909 554.388 383.972 554.388 382.565C554.388 381.149 554.222 380.211 553.888 379.753C553.565 379.284 553.154 379.05 552.654 379.05C552.175 379.05 551.789 379.253 551.498 379.659C551.133 380.18 550.951 381.149 550.951 382.565ZM556.873 382.565C556.873 381.545 556.977 380.727 557.185 380.112C557.394 379.487 557.701 379.008 558.107 378.675C558.524 378.341 559.045 378.175 559.67 378.175C560.128 378.175 560.529 378.269 560.873 378.456C561.227 378.644 561.519 378.914 561.748 379.269C561.977 379.612 562.154 380.034 562.279 380.534C562.404 381.034 562.466 381.711 562.466 382.565C562.466 383.576 562.362 384.388 562.154 385.003C561.956 385.618 561.649 386.097 561.232 386.44C560.826 386.774 560.305 386.94 559.67 386.94C558.847 386.94 558.196 386.644 557.716 386.05C557.154 385.341 556.873 384.18 556.873 382.565ZM557.951 382.565C557.951 383.972 558.118 384.909 558.451 385.378C558.784 385.847 559.19 386.081 559.67 386.081C560.159 386.081 560.565 385.847 560.888 385.378C561.222 384.909 561.388 383.972 561.388 382.565C561.388 381.149 561.222 380.211 560.888 379.753C560.565 379.284 560.154 379.05 559.654 379.05C559.175 379.05 558.789 379.253 558.498 379.659C558.133 380.18 557.951 381.149 557.951 382.565Z" fill="black"/>
<path d="M653.646 386.8V384.737H649.928V383.769L653.849 378.206H654.709V383.769H655.865V384.737H654.709V386.8H653.646ZM653.646 383.769V379.909L650.959 383.769H653.646ZM660.646 386.8V384.737H656.928V383.769L660.849 378.206H661.709V383.769H662.865V384.737H661.709V386.8H660.646ZM660.646 383.769V379.909L657.959 383.769H660.646ZM665.896 382.144C665.459 381.977 665.131 381.748 664.912 381.456C664.704 381.154 664.599 380.8 664.599 380.394C664.599 379.769 664.823 379.243 665.271 378.815C665.73 378.388 666.329 378.175 667.068 378.175C667.818 378.175 668.422 378.394 668.881 378.831C669.339 379.269 669.568 379.8 669.568 380.425C669.568 380.821 669.464 381.164 669.256 381.456C669.047 381.748 668.73 381.977 668.303 382.144C668.834 382.31 669.235 382.586 669.506 382.972C669.776 383.357 669.912 383.815 669.912 384.347C669.912 385.076 669.651 385.69 669.131 386.19C668.62 386.69 667.938 386.94 667.084 386.94C666.24 386.94 665.558 386.69 665.037 386.19C664.516 385.69 664.256 385.065 664.256 384.315C664.256 383.753 664.396 383.284 664.678 382.909C664.969 382.534 665.375 382.279 665.896 382.144ZM665.678 380.347C665.678 380.753 665.808 381.086 666.068 381.347C666.339 381.607 666.683 381.737 667.099 381.737C667.506 381.737 667.839 381.612 668.099 381.362C668.36 381.102 668.49 380.784 668.49 380.409C668.49 380.024 668.355 379.701 668.084 379.44C667.813 379.17 667.48 379.034 667.084 379.034C666.678 379.034 666.339 379.164 666.068 379.425C665.808 379.685 665.678 379.993 665.678 380.347ZM665.349 384.315C665.349 384.618 665.417 384.909 665.553 385.19C665.698 385.472 665.912 385.69 666.193 385.847C666.474 386.003 666.777 386.081 667.099 386.081C667.599 386.081 668.011 385.92 668.334 385.597C668.667 385.274 668.834 384.862 668.834 384.362C668.834 383.852 668.667 383.43 668.334 383.097C668 382.763 667.579 382.597 667.068 382.597C666.568 382.597 666.157 382.763 665.834 383.097C665.511 383.42 665.349 383.826 665.349 384.315ZM671.271 382.565C671.271 381.545 671.375 380.727 671.584 380.112C671.792 379.487 672.099 379.008 672.506 378.675C672.922 378.341 673.443 378.175 674.068 378.175C674.527 378.175 674.928 378.269 675.271 378.456C675.625 378.644 675.917 378.914 676.146 379.269C676.375 379.612 676.553 380.034 676.678 380.534C676.803 381.034 676.865 381.711 676.865 382.565C676.865 383.576 676.761 384.388 676.553 385.003C676.355 385.618 676.047 386.097 675.631 386.44C675.224 386.774 674.704 386.94 674.068 386.94C673.245 386.94 672.594 386.644 672.115 386.05C671.553 385.341 671.271 384.18 671.271 382.565ZM672.349 382.565C672.349 383.972 672.516 384.909 672.849 385.378C673.183 385.847 673.589 386.081 674.068 386.081C674.558 386.081 674.964 385.847 675.287 385.378C675.62 384.909 675.787 383.972 675.787 382.565C675.787 381.149 675.62 380.211 675.287 379.753C674.964 379.284 674.553 379.05 674.053 379.05C673.573 379.05 673.188 379.253 672.896 379.659C672.532 380.18 672.349 381.149 672.349 382.565ZM678.271 382.565C678.271 381.545 678.375 380.727 678.584 380.112C678.792 379.487 679.099 379.008 679.506 378.675C679.922 378.341 680.443 378.175 681.068 378.175C681.527 378.175 681.928 378.269 682.271 378.456C682.625 378.644 682.917 378.914 683.146 379.269C683.375 379.612 683.553 380.034 683.678 380.534C683.803 381.034 683.865 381.711 683.865 382.565C683.865 383.576 683.761 384.388 683.553 385.003C683.355 385.618 683.047 386.097 682.631 386.44C682.224 386.774 681.704 386.94 681.068 386.94C680.245 386.94 679.594 386.644 679.115 386.05C678.553 385.341 678.271 384.18 678.271 382.565ZM679.349 382.565C679.349 383.972 679.516 384.909 679.849 385.378C680.183 385.847 680.589 386.081 681.068 386.081C681.558 386.081 681.964 385.847 682.287 385.378C682.62 384.909 682.787 383.972 682.787 382.565C682.787 381.149 682.62 380.211 682.287 379.753C681.964 379.284 681.553 379.05 681.053 379.05C680.573 379.05 680.188 379.253 679.896 379.659C679.532 380.18 679.349 381.149 679.349 382.565Z" fill="black"/>
<path d="M576.847 65.5127V66.7002H570.222C570.211 66.4085 570.258 66.1221 570.363 65.8408C570.54 65.3929 570.81 64.9502 571.175 64.5127C571.55 64.0752 572.086 63.57 572.784 62.9971C573.878 62.1012 574.613 61.3929 574.988 60.8721C575.373 60.3512 575.566 59.8564 575.566 59.3877C575.566 58.8981 575.389 58.4867 575.034 58.1533C574.691 57.82 574.243 57.6533 573.691 57.6533C573.097 57.6533 572.618 57.8304 572.253 58.1846C571.899 58.5387 571.722 59.0335 571.722 59.6689L570.456 59.5283C570.54 58.5908 570.862 57.8773 571.425 57.3877C571.998 56.8877 572.758 56.6377 573.706 56.6377C574.675 56.6377 575.435 56.9033 575.988 57.4346C576.55 57.9658 576.831 58.6273 576.831 59.4189C576.831 59.8252 576.748 60.221 576.581 60.6064C576.425 60.9919 576.154 61.3981 575.769 61.8252C575.394 62.2523 574.764 62.8408 573.878 63.5908C573.139 64.2054 572.665 64.6273 572.456 64.8564C572.248 65.0752 572.076 65.2939 571.941 65.5127H576.847ZM578.378 61.7627C578.378 60.5752 578.498 59.6221 578.738 58.9033C578.988 58.1742 579.352 57.6169 579.831 57.2314C580.31 56.8356 580.915 56.6377 581.644 56.6377C582.185 56.6377 582.659 56.7471 583.066 56.9658C583.472 57.1846 583.805 57.4971 584.066 57.9033C584.336 58.3096 584.545 58.8044 584.691 59.3877C584.836 59.971 584.909 60.7627 584.909 61.7627C584.909 62.9398 584.79 63.8877 584.55 64.6064C584.31 65.3252 583.951 65.8825 583.472 66.2783C582.993 66.6742 582.383 66.8721 581.644 66.8721C580.685 66.8721 579.93 66.5231 579.378 65.8252C578.711 64.9919 578.378 63.6377 578.378 61.7627ZM579.644 61.7627C579.644 63.4085 579.836 64.5023 580.222 65.0439C580.607 65.5856 581.081 65.8564 581.644 65.8564C582.217 65.8564 582.696 65.5856 583.081 65.0439C583.467 64.4919 583.659 63.3981 583.659 61.7627C583.659 60.1064 583.467 59.0075 583.081 58.4658C582.696 57.9242 582.211 57.6533 581.628 57.6533C581.066 57.6533 580.618 57.8929 580.284 58.3721C579.857 58.9867 579.644 60.1169 579.644 61.7627ZM592.847 65.5127V66.7002H586.222C586.211 66.4085 586.258 66.1221 586.363 65.8408C586.54 65.3929 586.81 64.9502 587.175 64.5127C587.55 64.0752 588.086 63.57 588.784 62.9971C589.878 62.1012 590.613 61.3929 590.988 60.8721C591.373 60.3512 591.566 59.8564 591.566 59.3877C591.566 58.8981 591.389 58.4867 591.034 58.1533C590.691 57.82 590.243 57.6533 589.691 57.6533C589.097 57.6533 588.618 57.8304 588.253 58.1846C587.899 58.5387 587.722 59.0335 587.722 59.6689L586.456 59.5283C586.54 58.5908 586.862 57.8773 587.425 57.3877C587.998 56.8877 588.758 56.6377 589.706 56.6377C590.675 56.6377 591.435 56.9033 591.988 57.4346C592.55 57.9658 592.831 58.6273 592.831 59.4189C592.831 59.8252 592.748 60.221 592.581 60.6064C592.425 60.9919 592.154 61.3981 591.769 61.8252C591.394 62.2523 590.764 62.8408 589.878 63.5908C589.139 64.2054 588.665 64.6273 588.456 64.8564C588.248 65.0752 588.076 65.2939 587.941 65.5127H592.847ZM600.847 65.5127V66.7002H594.222C594.211 66.4085 594.258 66.1221 594.363 65.8408C594.54 65.3929 594.81 64.9502 595.175 64.5127C595.55 64.0752 596.086 63.57 596.784 62.9971C597.878 62.1012 598.613 61.3929 598.988 60.8721C599.373 60.3512 599.566 59.8564 599.566 59.3877C599.566 58.8981 599.389 58.4867 599.034 58.1533C598.691 57.82 598.243 57.6533 597.691 57.6533C597.097 57.6533 596.618 57.8304 596.253 58.1846C595.899 58.5387 595.722 59.0335 595.722 59.6689L594.456 59.5283C594.54 58.5908 594.862 57.8773 595.425 57.3877C595.998 56.8877 596.758 56.6377 597.706 56.6377C598.675 56.6377 599.435 56.9033 599.988 57.4346C600.55 57.9658 600.831 58.6273 600.831 59.4189C600.831 59.8252 600.748 60.221 600.581 60.6064C600.425 60.9919 600.154 61.3981 599.769 61.8252C599.394 62.2523 598.764 62.8408 597.878 63.5908C597.139 64.2054 596.665 64.6273 596.456 64.8564C596.248 65.0752 596.076 65.2939 595.941 65.5127H600.847Z" fill="#999999"/>
<path d="M606.175 58.1689C605.487 59.3669 604.633 60.3669 603.612 61.1689L602.847 60.1846C604.336 59.0908 605.357 57.5075 605.909 55.4346L607.159 55.7627C607.305 55.9085 607.253 55.9971 607.003 56.0283L606.566 57.1221H614.269V58.1689H610.284V60.0283H613.566V61.0596H610.284V63.5283H614.878V64.5596H610.284V67.8564H609.191V64.5596H602.894V63.5283H605.362V60.0283H609.191V58.1689H606.175ZM606.456 63.5283H609.191V61.0596H606.456V63.5283Z" fill="#999999"/>
<path d="M616.566 64.3877L617.753 64.2783C617.847 64.8304 618.034 65.2314 618.316 65.4814C618.607 65.7314 618.972 65.8564 619.409 65.8564C619.784 65.8564 620.112 65.7731 620.394 65.6064C620.685 65.4294 620.92 65.195 621.097 64.9033C621.284 64.6117 621.441 64.221 621.566 63.7314C621.691 63.2419 621.753 62.7419 621.753 62.2314C621.753 62.1794 621.748 62.096 621.737 61.9814C621.498 62.3773 621.165 62.7002 620.737 62.9502C620.31 63.1898 619.847 63.3096 619.347 63.3096C618.514 63.3096 617.81 63.0075 617.237 62.4033C616.665 61.7992 616.378 61.0075 616.378 60.0283C616.378 59.0075 616.675 58.1898 617.269 57.5752C617.873 56.9502 618.628 56.6377 619.534 56.6377C620.18 56.6377 620.774 56.8148 621.316 57.1689C621.857 57.5127 622.269 58.0127 622.55 58.6689C622.831 59.3148 622.972 60.2523 622.972 61.4814C622.972 62.7627 622.831 63.7835 622.55 64.5439C622.279 65.3044 621.868 65.8825 621.316 66.2783C620.764 66.6742 620.118 66.8721 619.378 66.8721C618.597 66.8721 617.956 66.6533 617.456 66.2158C616.967 65.7783 616.67 65.1689 616.566 64.3877ZM621.597 59.9658C621.597 59.2575 621.409 58.695 621.034 58.2783C620.659 57.8617 620.211 57.6533 619.691 57.6533C619.139 57.6533 618.659 57.8773 618.253 58.3252C617.847 58.7731 617.644 59.3512 617.644 60.0596C617.644 60.695 617.836 61.2158 618.222 61.6221C618.607 62.0179 619.081 62.2158 619.644 62.2158C620.217 62.2158 620.685 62.0179 621.05 61.6221C621.415 61.2158 621.597 60.6637 621.597 59.9658Z" fill="#999999"/>
<path d="M633.706 63.5283H628.503C628.503 65.0908 627.701 66.57 626.097 67.9658L625.175 66.9189C626.665 65.971 627.409 64.5492 627.409 62.6533V55.9814H634.8V66.7627C634.8 67.346 634.487 67.6377 633.862 67.6377H632.55L632.331 66.4189H633.487C633.633 66.4189 633.706 66.346 633.706 66.2002V63.5283ZM628.503 62.3252H633.706V60.3564H628.503V62.3252ZM628.503 59.1533H633.706V57.1846H628.503V59.1533Z" fill="#999999"/>
<path d="M644.847 65.5127V66.7002H638.222C638.211 66.4085 638.258 66.1221 638.363 65.8408C638.54 65.3929 638.81 64.9502 639.175 64.5127C639.55 64.0752 640.086 63.57 640.784 62.9971C641.878 62.1012 642.613 61.3929 642.988 60.8721C643.373 60.3512 643.566 59.8564 643.566 59.3877C643.566 58.8981 643.389 58.4867 643.034 58.1533C642.691 57.82 642.243 57.6533 641.691 57.6533C641.097 57.6533 640.618 57.8304 640.253 58.1846C639.899 58.5387 639.722 59.0335 639.722 59.6689L638.456 59.5283C638.54 58.5908 638.862 57.8773 639.425 57.3877C639.998 56.8877 640.758 56.6377 641.706 56.6377C642.675 56.6377 643.435 56.9033 643.988 57.4346C644.55 57.9658 644.831 58.6273 644.831 59.4189C644.831 59.8252 644.748 60.221 644.581 60.6064C644.425 60.9919 644.154 61.3981 643.769 61.8252C643.394 62.2523 642.764 62.8408 641.878 63.5908C641.139 64.2054 640.665 64.6273 640.456 64.8564C640.248 65.0752 640.076 65.2939 639.941 65.5127H644.847ZM646.566 64.3877L647.753 64.2783C647.847 64.8304 648.034 65.2314 648.316 65.4814C648.607 65.7314 648.972 65.8564 649.409 65.8564C649.784 65.8564 650.113 65.7731 650.394 65.6064C650.685 65.4294 650.92 65.195 651.097 64.9033C651.284 64.6117 651.441 64.221 651.566 63.7314C651.691 63.2419 651.753 62.7419 651.753 62.2314C651.753 62.1794 651.748 62.096 651.738 61.9814C651.498 62.3773 651.165 62.7002 650.738 62.9502C650.31 63.1898 649.847 63.3096 649.347 63.3096C648.514 63.3096 647.81 63.0075 647.238 62.4033C646.665 61.7992 646.378 61.0075 646.378 60.0283C646.378 59.0075 646.675 58.1898 647.269 57.5752C647.873 56.9502 648.628 56.6377 649.534 56.6377C650.18 56.6377 650.774 56.8148 651.316 57.1689C651.857 57.5127 652.269 58.0127 652.55 58.6689C652.831 59.3148 652.972 60.2523 652.972 61.4814C652.972 62.7627 652.831 63.7835 652.55 64.5439C652.279 65.3044 651.868 65.8825 651.316 66.2783C650.764 66.6742 650.118 66.8721 649.378 66.8721C648.597 66.8721 647.956 66.6533 647.456 66.2158C646.967 65.7783 646.67 65.1689 646.566 64.3877ZM651.597 59.9658C651.597 59.2575 651.409 58.695 651.034 58.2783C650.659 57.8617 650.211 57.6533 649.691 57.6533C649.139 57.6533 648.659 57.8773 648.253 58.3252C647.847 58.7731 647.644 59.3512 647.644 60.0596C647.644 60.695 647.836 61.2158 648.222 61.6221C648.607 62.0179 649.081 62.2158 649.644 62.2158C650.217 62.2158 650.685 62.0179 651.05 61.6221C651.415 61.2158 651.597 60.6637 651.597 59.9658Z" fill="#999999"/>
<path d="M657.8 67.2002H656.534V56.6377H665.128V66.9814H663.862V66.2002H657.8V67.2002ZM663.862 60.7939V57.6689H657.8V60.7939H663.862ZM663.862 65.1689V61.8252H657.8V65.1689H663.862ZM678.081 59.8564H680.659V60.7314H678.362V61.9971H680.222V62.8721H678.362V64.1846H680.222V65.0596H678.362V66.4189H681.097V67.3096H675.566V67.8564H674.644V61.7783C674.352 62.1742 673.987 62.5387 673.55 62.8721L673.159 61.8252C674.545 60.5856 675.441 59.2939 675.847 57.9502H674.581V59.2002H673.659V57.0752H676.066C676.211 56.4919 676.336 55.8721 676.441 55.2158L677.534 55.4814C677.649 55.596 677.612 55.7054 677.425 55.8096C677.321 56.2471 677.211 56.6689 677.097 57.0752H680.987V58.9814H680.05V57.9502H676.878C676.659 58.7106 676.368 59.346 676.003 59.8564H677.159L677.862 58.2158L678.909 58.4346C679.086 58.5075 679.05 58.6012 678.8 58.7158L678.081 59.8564ZM668.847 57.3408V56.3096H673.487V57.3408H671.581C671.508 58.4762 671.269 59.5179 670.862 60.4658H673.003V66.9814H672.066V66.0908H670.644V67.5283H669.722V62.5908C669.503 62.9554 669.264 63.2835 669.003 63.5752L668.3 62.6533C669.571 61.2262 670.316 59.4554 670.534 57.3408H668.847ZM675.566 62.8721V64.1846H677.425V62.8721H675.566ZM675.566 60.7314V61.9971H677.425V60.7314H675.566ZM675.566 65.0596V66.4189H677.425V65.0596H675.566ZM670.644 61.3408V65.2158H672.066V61.3408H670.644ZM687.222 61.4502C688.566 61.0856 689.42 60.3721 689.784 59.3096L688.316 58.7158L688.691 57.7783L690.003 58.2783L690.112 56.9658H687.816V55.9189H694.378L694.269 60.6221C694.237 61.5387 693.857 61.9971 693.128 61.9971H691.862L691.753 60.9502H692.909C693.128 60.9502 693.237 60.8408 693.237 60.6221L693.347 56.9658H691.206L691.05 58.7158L692.362 59.4189L691.862 60.4033L690.769 59.8096C690.3 61.1533 689.264 62.0648 687.659 62.5439L687.222 61.4502ZM694.159 66.9189C693.868 65.8252 693.415 64.8773 692.8 64.0752L693.784 63.6377C694.586 64.6169 695.097 65.5439 695.316 66.4189L694.159 66.9189ZM686.831 63.4658V67.6846H685.909V67.3096H684.05V67.9033H683.112V63.4658H686.831ZM687.269 66.9814C687.529 66.0648 687.696 65.0231 687.769 63.8564L688.862 63.9658C688.935 63.9971 688.899 64.0856 688.753 64.2314C688.711 65.3981 688.545 66.4033 688.253 67.2471L687.269 66.9814ZM690.769 61.6689C691.279 61.9919 691.79 62.5544 692.3 63.3564L691.269 63.9658C691.008 63.4554 690.571 62.8721 689.956 62.2158L690.769 61.6689ZM683.331 55.7002H686.612V56.7471H683.331V55.7002ZM682.628 57.5596H687.331V58.6064H682.628V57.5596ZM683.331 59.5908H686.612V60.6221H683.331V59.5908ZM683.331 61.4502H686.612V62.4814H683.331V61.4502ZM684.05 64.3408V66.4189H685.909V64.3408H684.05ZM690.222 63.3096C690.514 63.3408 690.534 63.4502 690.284 63.6377V66.2002C690.284 66.4606 690.394 66.5908 690.612 66.5908H691.816C692.034 66.5908 692.159 66.4814 692.191 66.2627L692.3 65.3877L693.394 65.6533L693.175 66.8096C693.071 67.3617 692.743 67.6377 692.191 67.6377H690.112C689.498 67.6377 689.191 67.3044 689.191 66.6377V63.3096H690.222Z" fill="#999999"/>
<path d="M25.4832 38.7002C24.2852 40.1064 22.7227 41.3044 20.7957 42.2939L19.8582 40.4971C21.8373 39.5596 23.3998 38.4137 24.5457 37.0596L25.9519 38.3877C26.1082 38.6481 25.9519 38.7523 25.4832 38.7002ZM36.03 42.0596C33.8946 41.2783 32.2019 39.9762 30.9519 38.1533L32.3582 37.0596C33.4519 38.5179 35.0144 39.6117 37.0457 40.3408L36.03 42.0596ZM29.3113 25.1064C29.8321 25.2106 29.8582 25.4189 29.3894 25.7314V27.2939H37.2019V28.7783H19.9363V27.2939H27.5925V25.1064H29.3113ZM32.905 35.8877H29.5457V41.6689C29.5457 42.5023 29.129 42.9189 28.2957 42.9189H26.2644L25.9519 41.2002H27.6707C27.879 41.2002 27.9832 41.096 27.9832 40.8877V35.8877H24.0769V36.5908H22.5144V30.2627H34.4675V36.3564H32.905V35.8877ZM24.0769 31.7471V34.4033H32.905V31.7471H24.0769ZM55.6394 36.3564C55.379 35.2627 54.7019 34.0648 53.6082 32.7627L55.0144 27.9189H52.6707V42.9189H51.1082V26.4346H55.405L55.5613 26.0439L57.2019 27.1377L56.8894 27.3721L55.1707 32.4502C56.3165 33.6481 57.0196 34.7419 57.28 35.7314C58.0613 38.9085 57.4363 40.4971 55.405 40.4971H54.0769L53.7644 38.7783H54.9363C55.7696 38.7783 56.004 37.971 55.6394 36.3564ZM47.6707 28.7002C48.1394 28.0231 48.6342 27.1117 49.155 25.9658L50.5613 26.9814C50.9259 27.2419 50.8477 27.3981 50.3269 27.4502C49.5457 28.7523 48.6863 29.8981 47.7488 30.8877H50.3269V32.3721H46.655C46.0821 32.945 45.4832 33.4658 44.8582 33.9346H49.2332V42.6846H47.6707V41.7471H43.6863V42.9971H42.1238V36.2002C41.3946 36.721 40.6654 37.1377 39.9363 37.4502L39.2332 35.8096C41.004 35.1325 42.7748 33.9867 44.5457 32.3721H40.0925V30.8877H43.7644V28.8564H40.9519V27.3721H43.7644V24.8721H45.2488C45.6654 24.9242 45.6915 25.0804 45.3269 25.3408V27.3721H47.6707V28.7002ZM47.6707 38.4658H43.6863V40.4971H47.6707V38.4658ZM43.6863 35.1846V37.2158H47.6707V35.1846H43.6863ZM45.7957 30.8877C46.2644 30.471 46.8634 29.7939 47.5925 28.8564H45.3269V30.8877H45.7957ZM67.8269 30.1846C67.5144 31.1221 67.1498 32.0335 66.7332 32.9189C67.3582 33.0752 67.4102 33.2575 66.8894 33.4658V42.9189H65.3269V35.3408C64.9102 36.0179 64.4675 36.5648 63.9988 36.9814L63.0613 35.4971C64.7279 33.6221 65.7957 31.5648 66.2644 29.3252L68.0613 29.7158C68.2696 29.8721 68.1915 30.0283 67.8269 30.1846ZM69.6238 35.1846C70.5092 36.1221 71.1863 37.1377 71.655 38.2314L70.0144 39.2471C69.5457 38.1533 68.9207 37.1377 68.1394 36.2002L69.6238 35.1846ZM72.8269 32.1377V29.2471H74.3113C74.7279 29.2992 74.754 29.4554 74.3894 29.7158V32.1377H77.2019V33.6221H74.3894V41.5127C74.3894 42.346 73.9727 42.7627 73.1394 42.7627H71.5769L71.3425 41.2783H72.5144C72.7227 41.2783 72.8269 41.1742 72.8269 40.9658V33.6221H67.9832V32.1377H72.8269ZM62.8269 28.7002V35.5752C62.8269 38.7523 62.2019 41.1742 60.9519 42.8408L59.6238 41.5908C60.7175 39.9762 61.2644 37.9971 61.2644 35.6533V27.2158H68.1394V24.9502H69.8582C70.379 25.0544 70.405 25.2627 69.9363 25.5752V27.2158H77.0457V28.7002H62.8269ZM89.3894 30.1846C88.504 35.3929 87.4363 38.6221 86.1863 39.8721C85.5092 40.5492 84.8061 40.8877 84.0769 40.8877C83.2436 40.8877 82.5925 40.6533 82.1238 40.1846C80.8738 38.9346 80.2488 37.3721 80.2488 35.4971C80.2488 33.2054 81.0561 31.2523 82.6707 29.6377C84.4415 27.8669 86.6029 26.9814 89.155 26.9814C91.4467 26.9814 93.2436 27.6325 94.5457 28.9346C96.004 30.3929 96.7332 32.1117 96.7332 34.0908C96.7332 36.2262 96.0561 37.971 94.7019 39.3252C93.8165 40.2106 92.4623 41.07 90.6394 41.9033L88.9988 40.2627C90.8217 39.6898 92.254 38.8825 93.2957 37.8408C94.2852 36.8512 94.78 35.6533 94.78 34.2471C94.78 32.5804 94.2332 31.2002 93.1394 30.1064C92.0457 29.0127 90.3269 28.5179 87.9832 28.6221L89.3894 29.3252C90.0144 29.5856 90.0144 29.8721 89.3894 30.1846ZM87.5925 28.7002C86.2384 29.0127 85.0665 29.6637 84.0769 30.6533C82.7227 32.0075 82.0457 33.6742 82.0457 35.6533C82.0457 36.8512 82.4363 37.8408 83.2175 38.6221C83.3738 38.7783 83.6082 38.8564 83.9207 38.8564C84.2332 38.8564 84.5717 38.6742 84.9363 38.3096C86.1342 37.1117 87.0196 33.9085 87.5925 28.7002ZM106.733 41.5127C108.869 40.3669 109.936 38.4137 109.936 35.6533V26.6689L111.577 26.9814L115.796 25.6533L116.968 27.2158C117.072 27.5283 116.889 27.5804 116.421 27.3721L111.499 28.3096V31.6689H117.671V33.1533H115.327V42.9189H113.764V33.1533H111.499V36.1221C111.499 39.195 110.197 41.4867 107.593 42.9971L106.733 41.5127ZM105.249 42.9971H103.686V38.3096C102.853 39.6637 101.941 40.7314 100.952 41.5127L99.78 40.1064C101.238 39.0648 102.462 37.7627 103.452 36.2002H100.171V34.7158H103.686V32.9971H99.7019V31.5127H105.171L106.03 28.7002H100.249V27.2158H103.686V25.0283H105.171C105.587 25.0804 105.613 25.2367 105.249 25.4971V27.2158H108.686V28.7002H107.671L106.577 31.5127H109.077V32.9971H105.249V34.7158H108.686V36.2002H105.249V36.9033C105.978 37.1117 106.994 37.6585 108.296 38.5439L107.358 40.1064C106.629 39.3773 105.926 38.8044 105.249 38.3877V42.9971ZM102.124 31.3564C101.915 30.6273 101.629 29.9242 101.264 29.2471L102.749 28.7783C103.165 29.4554 103.478 30.1585 103.686 30.8877L102.124 31.3564ZM134.858 33.5439H129.78V35.2627H134.858V33.5439ZM132.749 36.7471H131.343V37.5283C131.343 40.7575 129.494 42.6585 125.796 43.2314L125.327 41.5908C128.296 41.2262 129.78 39.82 129.78 37.3721V36.7471H128.999H128.218V25.8096H136.421V36.7471H134.311V40.6533C134.311 41.07 134.494 41.2783 134.858 41.2783H135.639C135.9 41.2783 136.056 41.0179 136.108 40.4971L136.264 39.1689L137.827 39.6377L137.593 41.4346C137.488 42.32 136.994 42.7627 136.108 42.7627H134.155C133.218 42.7627 132.749 42.32 132.749 41.4346V36.7471ZM129.78 32.0596H134.858V30.4189H129.78V32.0596ZM129.78 28.9346H134.858V27.2939H129.78V28.9346ZM124.155 35.8877C125.197 36.3564 126.421 37.2158 127.827 38.4658L126.733 40.1064C125.639 38.9085 124.676 38.0231 123.843 37.4502C123.322 39.7419 122.228 41.5387 120.561 42.8408L119.389 41.4346C121.681 39.5075 122.775 37.0075 122.671 33.9346H119.702V32.4502H122.749V29.6377H120.249V28.1533H122.749V25.0283H124.233C124.65 25.0804 124.676 25.2367 124.311 25.4971V28.1533H127.046V29.6377H124.311V32.4502H127.436V33.9346H124.233C124.233 34.7679 124.207 35.4189 124.155 35.8877ZM144.233 32.1377C145.223 33.4919 145.718 34.8981 145.718 36.3564C145.718 38.3877 145.119 39.4033 143.921 39.4033H142.983L142.671 37.8408H143.452C143.973 37.8408 144.207 37.2939 144.155 36.2002C144.103 34.6898 143.634 33.3617 142.749 32.2158L144.311 27.1377H141.889V42.7627H140.327V25.8877H144.702L145.014 25.4971L146.343 26.6689L146.03 26.9814L144.233 32.1377ZM155.561 36.5127H154.78C153.947 40.3148 151.16 42.5023 146.421 43.0752L145.952 41.5908C150.014 41.2783 152.462 39.5856 153.296 36.5127H152.202C151.316 38.7002 149.441 40.0283 146.577 40.4971L146.108 39.1689C148.504 38.6481 149.988 37.7627 150.561 36.5127H149.311C148.582 37.2419 147.645 37.8148 146.499 38.2314L145.874 36.9033C147.54 36.3825 148.686 35.3929 149.311 33.9346H145.796V32.6846H157.514V33.9346H150.952C150.744 34.4033 150.483 34.846 150.171 35.2627H157.046L156.889 40.1846C156.837 41.8512 156.238 42.6846 155.093 42.6846H153.53L153.296 41.2002H154.624C155.093 41.2002 155.353 40.8877 155.405 40.2627L155.561 36.5127ZM148.921 30.4189H154.233V29.0908H148.921V30.4189ZM148.921 27.8408H154.233V26.5908H148.921V27.8408ZM155.561 25.3408V31.6689H147.593V25.3408H155.561ZM168.843 29.3252H170.952V25.2627H172.436C172.853 25.3148 172.879 25.471 172.514 25.7314V29.3252H176.733V30.8096H172.514V34.5596H176.499V36.0439H172.514V40.6533H177.671V42.1377H165.718V40.6533H170.952V36.0439H167.124V34.5596H170.952V30.8096H168.374C168.009 31.8512 167.436 32.8929 166.655 33.9346L165.327 32.9189C166.681 31.1481 167.566 29.0127 167.983 26.5127L169.468 26.8252C169.884 26.9814 169.884 27.1377 169.468 27.2939L168.843 29.3252ZM162.202 25.0283H163.686C164.103 25.0804 164.129 25.2367 163.764 25.4971V42.8408H162.202V25.0283ZM165.171 28.2314C165.639 28.8564 166.03 29.5596 166.343 30.3408L165.093 31.2002C164.728 30.3148 164.363 29.5856 163.999 29.0127L165.171 28.2314ZM161.733 29.0908C162.098 29.195 162.098 29.3512 161.733 29.5596C161.629 31.2262 161.395 32.7887 161.03 34.2471L159.546 33.7783C159.962 32.4762 160.197 30.8356 160.249 28.8564L161.733 29.0908ZM194.546 33.6221V42.6846H192.983V41.9033H185.952V42.9189H184.389V35.8096C183.035 36.5387 181.577 37.1117 180.014 37.5283L179.468 36.1221C180.926 35.7575 182.566 35.1064 184.389 34.1689V33.6221H185.483C186.577 32.9971 187.514 32.3721 188.296 31.7471H180.093V30.2627H186.968V28.3877H182.124V26.9033H186.968V25.0283H188.452C188.869 25.0804 188.895 25.2367 188.53 25.4971V26.9033H192.28V28.2314C192.905 27.5544 193.53 26.7992 194.155 25.9658L195.249 26.6689C195.613 26.9294 195.561 27.0856 195.093 27.1377C194.103 28.3356 193.113 29.3773 192.124 30.2627H197.514V31.7471H190.483C189.441 32.6325 188.608 33.2575 187.983 33.6221H194.546ZM190.014 30.2627C190.639 29.7939 191.343 29.1689 192.124 28.3877H188.53V30.2627H190.014ZM185.952 36.9814H192.983V34.8721H185.952V36.9814ZM185.952 40.6533H192.983V38.2314H185.952V40.6533ZM213.139 36.9033C213.869 35.4971 214.311 33.3617 214.468 30.4971H211.811C211.968 33.3617 212.41 35.4971 213.139 36.9033ZM216.03 30.4971C215.926 33.7262 215.301 36.3304 214.155 38.3096C214.988 39.3512 216.16 40.2627 217.671 41.0439L216.655 42.7627C214.988 41.6689 213.816 40.6273 213.139 39.6377C211.941 40.9919 210.093 42.1637 207.593 43.1533L206.811 41.5908C209.52 40.4971 211.316 39.3773 212.202 38.2314C211.316 36.5127 210.822 34.7939 210.718 33.0752C210.405 33.8564 210.093 34.4554 209.78 34.8721L208.452 33.8564C210.014 31.5648 210.952 28.7262 211.264 25.3408L212.905 25.7314C213.218 25.9398 213.139 26.096 212.671 26.2002C212.514 27.1377 212.306 28.0752 212.046 29.0127H217.358V30.4971H216.03ZM208.764 26.7471C208.452 27.5283 208.087 28.1794 207.671 28.7002L206.421 27.9971C206.837 27.32 207.228 26.5387 207.593 25.6533L208.999 26.3564C209.207 26.5648 209.129 26.695 208.764 26.7471ZM203.764 37.7627C204.494 37.971 205.145 38.2054 205.718 38.4658C206.134 37.9971 206.473 37.2939 206.733 36.3564H204.468C204.259 36.8252 204.025 37.2939 203.764 37.7627ZM202.671 39.7158L201.421 39.0127C201.941 38.2314 202.462 37.346 202.983 36.3564H200.014V35.1064H203.452C203.764 34.4294 203.999 33.8564 204.155 33.3877L205.639 33.7783C205.848 33.9867 205.77 34.1169 205.405 34.1689L204.936 35.1064H209.389V36.3564H208.218C207.957 37.3981 207.566 38.2835 207.046 39.0127C207.514 39.221 208.009 39.4814 208.53 39.7939L207.827 41.0439C207.254 40.6794 206.733 40.3929 206.264 40.1846C204.91 41.5387 203.087 42.3721 200.796 42.6846L200.249 41.2783C202.28 41.07 203.843 40.4971 204.936 39.5596C204.363 39.2992 203.79 39.0648 203.218 38.8564L202.671 39.7158ZM204.233 25.0283H205.483C205.9 25.0804 205.926 25.2367 205.561 25.4971V28.8564H209.546V30.1064H206.264C206.837 30.7835 207.723 31.4346 208.921 32.0596L208.061 33.3877C207.176 32.8669 206.343 32.1377 205.561 31.2002V33.0752H204.233V31.5908C203.4 32.6325 202.254 33.57 200.796 34.4033L199.78 33.1533C201.395 32.32 202.723 31.3044 203.764 30.1064H200.171V28.8564H204.233V25.0283ZM202.046 28.6221C201.681 27.8408 201.212 27.1637 200.639 26.5908L201.889 25.8096C202.514 26.4346 202.983 27.0856 203.296 27.7627L202.046 28.6221ZM229.389 30.1846C228.504 35.3929 227.436 38.6221 226.186 39.8721C225.509 40.5492 224.806 40.8877 224.077 40.8877C223.244 40.8877 222.593 40.6533 222.124 40.1846C220.874 38.9346 220.249 37.3721 220.249 35.4971C220.249 33.2054 221.056 31.2523 222.671 29.6377C224.441 27.8669 226.603 26.9814 229.155 26.9814C231.447 26.9814 233.244 27.6325 234.546 28.9346C236.004 30.3929 236.733 32.1117 236.733 34.0908C236.733 36.2262 236.056 37.971 234.702 39.3252C233.816 40.2106 232.462 41.07 230.639 41.9033L228.999 40.2627C230.822 39.6898 232.254 38.8825 233.296 37.8408C234.285 36.8512 234.78 35.6533 234.78 34.2471C234.78 32.5804 234.233 31.2002 233.139 30.1064C232.046 29.0127 230.327 28.5179 227.983 28.6221L229.389 29.3252C230.014 29.5856 230.014 29.8721 229.389 30.1846ZM227.593 28.7002C226.238 29.0127 225.066 29.6637 224.077 30.6533C222.723 32.0075 222.046 33.6742 222.046 35.6533C222.046 36.8512 222.436 37.8408 223.218 38.6221C223.374 38.7783 223.608 38.8564 223.921 38.8564C224.233 38.8564 224.572 38.6742 224.936 38.3096C226.134 37.1117 227.02 33.9085 227.593 28.7002ZM245.171 31.8252C246.889 30.2106 248.218 27.8669 249.155 24.7939L250.718 25.2627C250.978 25.471 250.926 25.6012 250.561 25.6533C250.145 26.695 249.728 27.6585 249.311 28.5439H251.655C252.228 27.346 252.671 26.2783 252.983 25.3408L254.468 25.8877C254.676 26.096 254.598 26.2262 254.233 26.2783C253.869 27.1117 253.504 27.8669 253.139 28.5439H257.124V30.0283H253.139V32.4502H256.343V33.9346H253.139V36.4346H256.343V37.9189H253.139V40.8096H257.593V42.2939H248.999V42.9971H247.436V31.6689C247.072 32.1898 246.681 32.6585 246.264 33.0752L245.171 31.8252ZM241.264 42.8408L240.952 41.3564H242.28C242.488 41.3564 242.593 41.2523 242.593 41.0439V36.2002L240.561 36.6689C240.509 37.0335 240.379 37.1117 240.171 36.9033L239.858 35.1064L242.593 34.5596V30.4189H240.171V28.9346H242.593V24.9502H244.077C244.494 25.0023 244.52 25.1585 244.155 25.4189V28.9346H246.186V30.4189H244.155V34.2471L246.186 33.7002L246.421 35.1064L244.155 35.8096V41.5908C244.155 42.4242 243.738 42.8408 242.905 42.8408H241.264ZM248.999 40.8096H251.577V37.9189H248.999V40.8096ZM248.999 36.4346H251.577V33.9346H248.999V36.4346ZM248.999 32.4502H251.577V30.0283H248.999V32.4502ZM275.249 27.1377L275.483 26.8252L276.733 27.8408L276.499 28.0752C275.145 30.4189 273.816 31.9814 272.514 32.7627L273.296 32.9971C273.66 33.1533 273.634 33.3096 273.218 33.4658C273.113 33.8304 272.983 34.1429 272.827 34.4033H276.186L276.421 34.0908L277.827 35.1064L277.514 35.4189C275.848 39.846 272.462 42.346 267.358 42.9189L266.733 41.4346C269.181 41.1742 271.108 40.5231 272.514 39.4814C271.785 38.7523 271.056 38.1273 270.327 37.6064C269.65 38.1794 268.738 38.7002 267.593 39.1689L266.889 37.7627C269.441 36.721 271.108 35.1325 271.889 32.9971C271.108 33.7262 269.702 34.3512 267.671 34.8721L266.968 33.4658C268.947 33.0492 270.431 32.5023 271.421 31.8252C270.9 31.2002 270.275 30.6533 269.546 30.1846C269.181 30.5492 268.816 30.8617 268.452 31.1221L267.358 29.9502C269.077 28.4919 270.171 26.9294 270.639 25.2627L272.046 25.7314C272.41 25.8877 272.384 26.0439 271.968 26.2002C271.915 26.5127 271.785 26.8252 271.577 27.1377H275.249ZM264.624 30.1846H267.202V31.6689H264.624V33.6221C265.665 34.0908 266.655 34.7939 267.593 35.7314L266.577 37.1377C265.744 36.3044 265.093 35.7054 264.624 35.3408V42.9189H263.061V35.1846C262.749 36.2262 261.889 37.5544 260.483 39.1689L259.311 37.6846C261.238 35.8617 262.436 33.8564 262.905 31.6689H259.858V30.1846H263.061V27.6064C262.02 27.7627 261.082 27.8929 260.249 27.9971L259.858 26.5127C261.941 26.3044 264.103 25.8877 266.343 25.2627L267.202 26.4346C267.41 26.7471 267.28 26.8512 266.811 26.7471C266.082 26.9554 265.353 27.1377 264.624 27.2939V30.1846ZM270.327 29.2471C271.108 29.6637 271.863 30.1846 272.593 30.8096C273.374 30.0804 274.025 29.2731 274.546 28.3877H270.952C270.744 28.7523 270.535 29.0387 270.327 29.2471ZM271.186 36.6689C271.915 37.0856 272.749 37.7106 273.686 38.5439C274.468 37.971 275.145 37.0075 275.718 35.6533H272.124C271.811 36.07 271.499 36.4085 271.186 36.6689ZM283.218 29.3252C283.79 28.1273 284.754 26.9033 286.108 25.6533L286.968 26.4346C285.665 27.6325 284.754 28.7783 284.233 29.8721C283.66 31.07 283.374 32.5023 283.374 34.1689C283.374 35.5752 283.66 36.9033 284.233 38.1533C284.754 39.2992 285.665 40.5752 286.968 41.9814L286.108 42.8408C284.806 41.3825 283.843 40.0023 283.218 38.7002C282.54 37.2939 282.202 35.7835 282.202 34.1689C282.202 32.346 282.54 30.7314 283.218 29.3252ZM294.311 41.9033H292.514V26.8252H304.78V41.5908H302.983V40.4971H294.311V41.9033ZM302.983 32.7627V28.3096H294.311V32.7627H302.983ZM302.983 39.0127V34.2471H294.311V39.0127H302.983ZM317.749 35.8096H314.78C314.311 38.7783 312.905 41.1221 310.561 42.8408L309.78 41.3564C312.072 39.7419 313.322 37.346 313.53 34.1689L313.686 31.7471H312.593V32.7627H311.03V26.0439H318.921V32.4502H317.358V31.7471H315.093L314.936 34.3252H319.311L318.921 40.4971C318.816 41.7471 318.296 42.3721 317.358 42.3721H315.249L315.014 40.8877H316.733C317.202 40.8877 317.462 40.6273 317.514 40.1064L317.749 35.8096ZM326.186 41.2002C326.186 42.0856 325.77 42.5283 324.936 42.5283H323.218L322.905 41.0439H324.389C324.546 41.0439 324.624 40.9658 324.624 40.8096V25.8096H326.108C326.525 25.8617 326.551 26.0179 326.186 26.2783V41.2002ZM322.436 27.6846C322.853 27.7367 322.879 27.8929 322.514 28.1533V38.8564H320.952V27.6846H322.436ZM317.358 30.4971V27.2939H312.593V30.4971H317.358ZM333.921 38.7002C333.296 40.0023 332.332 41.3825 331.03 42.8408L330.171 41.9814C331.473 40.5752 332.384 39.2992 332.905 38.1533C333.478 36.9033 333.764 35.5752 333.764 34.1689C333.764 32.5023 333.478 31.07 332.905 29.8721C332.384 28.7783 331.473 27.6325 330.171 26.4346L331.03 25.6533C332.384 26.9033 333.348 28.1273 333.921 29.3252C334.598 30.7314 334.936 32.346 334.936 34.1689C334.936 35.7835 334.598 37.2939 333.921 38.7002Z" fill="#757575"/>
</g>
<rect x="2" y="2" width="714" height="440" stroke="black" stroke-width="4"/>
<defs>
<clipPath id="clip0_7_17695">
<rect width="718" height="444" fill="white"/>
</clipPath>
</defs>
</svg>
