<svg width="726" height="452" viewBox="0 0 726 452" fill="none" xmlns="http://www.w3.org/2000/svg">
<g filter="url(#filter0_d_7_19765)">
<g clip-path="url(#clip0_7_19765)">
<path d="M4 0H722V444H4V0Z" fill="white"/>
<path d="M185.5 91.5V369.5" stroke="#CCCCCC" stroke-miterlimit="10"/>
<path d="M307.5 91.5V369.5" stroke="#CCCCCC" stroke-miterlimit="10"/>
<path d="M428.5 91.5V369.5" stroke="#CCCCCC" stroke-miterlimit="10"/>
<path d="M549.5 91.5V369.5" stroke="#CCCCCC" stroke-miterlimit="10"/>
<path d="M671.5 91.5V369.5" stroke="#CCCCCC" stroke-miterlimit="10"/>
<path d="M92.5 369.5H699.5" stroke="#333333" stroke-miterlimit="10"/>
<path d="M92.5 314.5H699.5" stroke="#CCCCCC" stroke-miterlimit="10"/>
<path d="M92.5 258.5H699.5" stroke="#CCCCCC" stroke-miterlimit="10"/>
<path d="M92.5 202.5H699.5" stroke="#CCCCCC" stroke-miterlimit="10"/>
<path d="M92.5 147.5H699.5" stroke="#CCCCCC" stroke-miterlimit="10"/>
<path d="M92.5 91.5H699.5" stroke="#CCCCCC" stroke-miterlimit="10"/>
<path d="M92.2 369.8H92.807H93.414H94.021H94.628H95.235H95.842H96.449H97.0559H97.6629H98.2699H98.8769H99.4839H100.091H100.698H101.305H101.912H102.519H103.126H103.733H104.34H104.947H105.554H106.161H106.768H107.375H107.982H108.589H109.196H109.803H110.41H111.017H111.624H112.231H112.838H113.445H114.052H114.659H115.266H115.873H116.48H117.087H117.694H118.301L118.908 369.744L119.515 369.8H120.122H120.729H121.336H121.943H122.55H123.157H123.764H124.371H124.978H125.585H126.192H126.799H127.406H128.013H128.62H129.227H129.834H130.441H131.048H131.655H132.262H132.869H133.476H134.083L134.69 369.744L135.297 369.8H135.904L136.51 369.689H137.117L137.724 369.744L138.331 369.577L138.938 369.744L139.545 369.466L140.152 369.689L140.759 369.633H141.366L141.973 369.466L142.58 369.689H143.187H143.794L144.401 369.41L145.008 369.466L145.615 369.633L146.222 369.243L146.829 369.744L147.436 369.243L148.043 369.577H148.65L149.257 369.8L149.864 369.744L150.471 369.8H151.078H151.685H152.292L152.899 369.744L153.506 369.8L154.113 369.744L154.72 369.689L155.327 369.8H155.934H156.541H157.148H157.755H158.362H158.969H159.576H160.183H160.79H161.397H162.004H162.611H163.218H163.825H164.432H165.039H165.646H166.253H166.86H167.467H168.074H168.681H169.288H169.895H170.502H171.109H171.716H172.323H172.93H173.537H174.144H174.751H175.358H175.965H176.572H177.179H177.786H178.393H179H179.607H180.214H180.821H181.428H182.035H182.642H183.249H183.856H184.463H185.07L185.677 369.744L186.284 369.8H186.891H187.498L188.105 369.744L188.712 369.8L189.319 369.744L189.926 369.8L190.533 369.744L191.14 369.8L191.747 369.689L192.354 369.8H192.961L193.568 369.744L194.175 369.8L194.782 369.689L195.389 369.744L195.996 369.8H196.603H197.21L197.817 369.744H198.424L199.031 369.8L199.638 369.577L200.245 369.689H200.852H201.459H202.066L202.673 369.021L203.28 369.633H203.887L204.494 369.8L205.101 369.577L205.708 369.8L206.315 369.689H206.922L207.529 369.8L208.136 369.689L208.743 369.8L209.35 369.522L209.957 369.689L210.564 369.577L211.171 369.522L211.778 369.689L212.385 369.522L212.992 369.633L213.599 369.466L214.206 369.689L214.813 369.744L215.42 369.633L216.027 369.744H216.634L217.241 369.8H217.848H218.455L219.062 369.689L219.669 369.8H220.276H220.883H221.49L222.096 369.744H222.703H223.31L223.917 369.689H224.524L225.131 369.8L225.738 369.744L226.345 369.8H226.952H227.559L228.166 369.744L228.773 369.522H229.38L229.987 369.744L230.594 369.633H231.201L231.808 369.577L232.415 369.132L233.022 369.522L233.629 369.355L234.236 369.633L234.843 369.41H235.45L236.057 369.188L236.664 369.355L237.271 368.965L237.878 369.132L238.485 369.355L239.092 369.633L239.699 368.798L240.306 369.466L240.913 369.299L241.52 369.522L242.127 369.021L242.734 369.689H243.341L243.948 369.633H244.555L245.162 369.355L245.769 369.689L246.376 369.577L246.983 369.633L247.59 369.522L248.197 369.689L248.804 369.41H249.411L250.018 369.522L250.625 369.41L251.232 369.633L251.839 369.522L252.446 369.355L253.053 369.132L253.66 369.355L254.267 369.076L254.874 369.243L255.481 369.689L256.088 369.522L256.695 369.355L257.302 369.522L257.909 369.577L258.516 369.021L259.123 369.689H259.73L260.337 369.633L260.944 369.299L261.551 369.466L262.158 369.744L262.765 368.687L263.372 369.41L263.979 368.13L264.586 369.355L265.193 367.351L265.8 368.464L266.407 369.243L267.014 369.188L267.621 368.353L268.228 368.909L268.835 368.13L269.442 368.909H270.049L270.656 368.798L271.263 369.076L271.87 368.798L272.477 369.076L273.084 369.41L273.691 368.687L274.298 367.963L274.905 368.798L275.512 368.13L276.119 369.243L276.726 369.522L277.333 369.41L277.94 368.019L278.547 368.742L279.154 368.965L279.761 369.021L280.368 368.909L280.975 369.299L281.582 368.909L282.189 369.132L282.796 368.742L283.403 368.631L284.01 369.076H284.617L285.224 369.41L285.831 369.299L286.438 369.188L287.045 369.299L287.652 368.631H288.259H288.866L289.473 368.798L290.08 369.355L290.687 368.854L291.294 367.407L291.901 367.685L292.508 367.24L293.115 367.852L293.722 368.186L294.329 368.909L294.936 367.74L295.543 367.295L296.15 366.794L296.757 368.909L297.364 367.184L297.971 367.963L298.578 369.466L299.185 367.518L299.792 366.961L300.399 367.128H301.006L301.613 366.683L302.22 367.629L302.827 368.241L303.434 367.629L304.041 367.907L304.648 368.353L305.255 368.13L305.862 369.577L306.469 368.687L307.076 368.798L307.683 367.74L308.29 366.906L308.897 365.625L309.504 366.405L310.111 365.792L310.717 366.293L311.324 368.074L311.931 368.687L312.538 366.906L313.145 364.957L313.752 366.906L314.359 367.351L314.966 367.574L315.573 367.852L316.18 366.405L316.787 367.295L317.394 366.961H318.001L318.608 367.128L319.215 368.464L319.822 369.188L320.429 368.297H321.036H321.643L322.25 369.076L322.857 368.52L323.464 368.854L324.071 369.41L324.678 369.299L325.285 369.188L325.892 369.299L326.499 369.188L327.106 369.076L327.713 369.355L328.32 369.8L328.927 369.522L329.534 369.466L330.141 369.744L330.748 369.689L331.355 369.522L331.962 369.243L332.569 369.577L333.176 369.299L333.783 369.689L334.39 369.41L334.997 369.132L335.604 369.021L336.211 369.299L336.818 369.8L337.425 369.132L338.032 369.522H338.639H339.246L339.853 368.742L340.46 369.021L341.067 369.299L341.674 368.631L342.281 368.297L342.888 368.575H343.495L344.102 367.907L344.709 368.019L345.316 368.186L345.923 367.852L346.53 367.796L347.137 366.85L347.744 367.073L348.351 366.739L348.958 367.073L349.565 368.687L350.172 365.959L350.779 363.844L351.386 364.345L351.993 364.234L352.6 362.842L353.207 363.566L353.814 367.462L354.421 363.065L355.028 360.282L355.635 360.839L356.242 361.284L356.849 362.62L357.456 362.341L358.063 365.347L358.67 363.065L359.277 358.668L359.884 362.397L360.491 363.343L361.098 362.23L361.705 365.347L362.312 366.739L362.919 364.067L363.526 363.065L364.133 364.957L364.74 363.065L365.347 363.733L365.954 365.792L366.561 367.907L367.168 365.792L367.775 364.457L368.382 366.85L368.989 366.015L369.596 366.182L370.203 368.241L370.81 368.575L371.417 366.794L372.024 365.681L372.631 365.458L373.238 368.408L373.845 367.796L374.452 368.074L375.059 369.076L375.666 367.796L376.273 367.462L376.88 368.631L377.487 368.186L378.094 368.575L378.701 366.794L379.308 368.408L379.915 368.464H380.522L381.129 368.019L381.736 367.74L382.343 367.184L382.95 368.019L383.557 369.021L384.164 367.963L384.771 366.85L385.378 368.798L385.985 367.963L386.592 368.019L387.199 368.074L387.806 368.464L388.413 368.074L389.02 367.963L389.627 368.241L390.234 368.186L390.841 368.631L391.448 369.243L392.055 369.355L392.662 368.798L393.269 368.575L393.876 368.464L394.483 368.575L395.09 368.854L395.697 369.243L396.304 369.577L396.911 368.687H397.518L398.124 368.408L398.731 368.13L399.338 368.965L399.945 369.188L400.552 369.689L401.159 369.299H401.766H402.373L402.98 369.355L403.587 369.132L404.194 369.41L404.801 369.466L405.408 369.243L406.015 369.577L406.622 369.355L407.229 369.577L407.836 369.633L408.443 369.689H409.05L409.657 369.41L410.264 369.243L410.871 369.466L411.478 369.355L412.085 369.522L412.692 369.577L413.299 369.522L413.906 369.41L414.513 369.466L415.12 369.021L415.727 368.52L416.334 369.132H416.941L417.548 369.577L418.155 368.965L418.762 368.909L419.369 368.408H419.976L420.583 368.353L421.19 368.631L421.797 369.076L422.404 368.13L423.011 367.518L423.618 367.295L424.225 367.128L424.832 367.907L425.439 368.742L426.046 369.188L426.653 368.687L427.26 368.241L427.867 368.798L428.474 368.687L429.081 369.522L429.688 368.464L430.295 369.243L430.902 368.353L431.509 367.351L432.116 367.796L432.723 367.017L433.33 366.182L433.937 367.685L434.544 368.074L435.151 365.681L435.758 365.347L436.365 364.067L436.972 362.787L437.579 363.9L438.186 364.457L438.793 366.516L439.4 364.957L440.007 361.896L440.614 357.499L441.221 357.944L441.828 361.284L442.435 360.616L443.042 365.792L443.649 358.056L444.256 354.66L444.863 356.942L445.47 353.547L446.077 354.605L446.684 358.779L447.291 360.783L447.898 361.228L448.505 353.046L449.112 357.165L449.719 358.445L450.326 359.558L450.933 362.675L451.54 365.403L452.147 362.675L452.754 360.282L453.361 361.618L453.968 364.011L454.575 364.401L455.182 366.405L455.789 367.907L456.396 365.737L457.003 365.347L457.61 365.904L458.217 367.295L458.824 365.514L459.431 366.906L460.038 368.074L460.645 366.85L461.252 366.126L461.859 367.574L462.466 366.906L463.073 368.464L463.68 368.13L464.287 368.798L464.894 368.408L465.501 369.076L466.108 368.019L466.715 368.798L467.322 367.963L467.929 368.019L468.536 369.243L469.143 369.021L469.75 368.909L470.357 368.687L470.964 369.41L471.571 369.243L472.178 369.577L472.785 369.8L473.392 369.466L473.999 369.689L474.606 369.577L475.213 369.522H475.82L476.427 369.744L477.034 369.8L477.641 369.633L478.248 369.8L478.855 369.577L479.462 369.8L480.069 369.689L480.676 369.633L481.283 369.8H481.89H482.497H483.104H483.71L484.317 369.689L484.924 369.8L485.531 369.689L486.138 369.744L486.745 369.8L487.352 369.744L487.959 369.689L488.566 369.633L489.173 369.689L489.78 369.8L490.387 369.689L490.994 369.744H491.601L492.208 369.8L492.815 369.633L493.422 369.8H494.029H494.636L495.243 369.744L495.85 369.8H496.457L497.064 369.744L497.671 369.8H498.278L498.885 369.744L499.492 369.689L500.099 369.8H500.706L501.313 369.744L501.92 369.8H502.527L503.134 369.744H503.741L504.348 369.689L504.955 369.8H505.562H506.169H506.776H507.383H507.99H508.597H509.204L509.811 369.689L510.418 369.8H511.025L511.632 369.689L512.239 369.8H512.846H513.453H514.06L514.667 369.744L515.274 369.8H515.881H516.488H517.095H517.702H518.309H518.916H519.523L520.13 369.744L520.737 369.8L521.344 369.744L521.951 369.8H522.558H523.165H523.772H524.379L524.986 369.689L525.593 369.8L526.2 369.744H526.807H527.414L528.021 369.633L528.628 369.522L529.235 369.689L529.842 369.021L530.449 369.299L531.056 368.408L531.663 368.687L532.27 368.798L532.877 368.687L533.484 367.907L534.091 364.512L534.698 365.959L535.305 364.79L535.912 365.291L536.519 366.961L537.126 363.956L537.733 360.226L538.34 358.223L538.947 358.891L539.554 353.547L540.161 353.881L540.768 359.558L541.375 352.044L541.982 342.471L542.589 340.133L543.196 341.803L543.803 338.129L544.41 337.851L545.017 352.768L545.624 341.692L546.231 329.558L546.838 331.45L547.445 333.677L548.052 324.214L548.659 336.293L549.266 348.872L549.873 331.283L550.48 312.47L551.087 331.228L551.694 327.443L552.301 340.244L552.908 332.563L553.515 347.87L554.122 319.929L554.729 322.433L555.336 319.539L555.943 329.279L556.55 322.489L557.157 331.673L557.764 351.543L558.371 330.671L558.978 318.147L559.585 347.258L560.192 336.404L560.799 322.6L561.406 340.077L562.013 347.814L562.62 332.73L563.227 320.541L563.834 335.736L564.441 332.953L565.048 329.558L565.655 333.009L566.262 352.156L566.869 333.621L567.476 322.656L568.083 333.565L568.689 337.907L569.296 332.786L569.903 340.857L570.51 356.163L571.117 337.74L571.724 328.055L572.331 340.3L572.938 341.191L573.545 337.962L574.152 342.248L574.759 354.994L575.366 356.831L575.973 339.131L576.58 332.285L577.187 343.918L577.794 338.797L578.401 342.693L579.008 354.493L579.615 336.905L580.222 327.777L580.829 337.294L581.436 338.018L582.043 333.955L582.65 337.684L583.257 355.551L583.864 332.396L584.471 325.105L585.078 334.567L585.685 335.012L586.292 337.517L586.899 338.185L587.506 352.879L588.113 336.571L588.72 326.83L589.327 336.961L589.934 342.36L590.541 338.129L591.148 346.645L591.755 358.223L592.362 337.016L592.969 328.667L593.576 340.578L594.183 333.732L594.79 331.395L595.397 340.411L596.004 356.163L596.611 338.853L597.218 331.728L597.825 346.311L598.432 344.085L599.039 354.883L599.646 352.211L600.253 358.056L600.86 347.091L601.467 351.877L602.074 357.332L602.681 358.501L603.288 340.3L603.895 337.128L604.502 357.443L605.109 334.79L605.716 333.788L606.323 343.974L606.93 343.695L607.537 340.077L608.144 345.421L608.751 359.002L609.358 340.022L609.965 334.623L610.572 342.415L611.179 336.905L611.786 344.419L612.393 344.53L613 358.779L613.607 344.753L614.214 343.25L614.821 347.647L615.428 345.532L616.035 347.536L616.642 353.046L617.249 361.896L617.856 353.102L618.463 349.428L619.07 356.275L619.677 353.158L620.284 355.161L620.891 357.666L621.498 363.455L622.105 355.217L622.712 351.877L623.319 354.271L623.926 351.488L624.533 355.273L625.14 356.942L625.747 363.677L626.354 353.714L626.961 349.985L627.568 354.66L628.175 357.555L628.782 353.881L629.389 357.944L629.996 365.403L630.603 355.885L631.21 354.716L631.817 358.223L632.424 357.555L633.031 358.334L633.638 361.562L634.245 365.236L634.852 356.608L635.459 357.666H636.066H636.673L637.28 356.108L637.887 358.668L638.494 364.234L639.101 345.198L639.708 342.471L640.315 347.369L640.922 345.755L641.529 341.246L642.136 346.144L642.743 359.447L643.35 329.168L643.957 321.376L644.564 324.827L645.171 322.433L645.778 316.478L646.385 321.097L646.992 336.515L647.599 345.755L648.206 253.248L648.813 247.07L649.42 230.205L650.027 246.903L650.634 257.534L651.241 266.551L651.848 230.427L652.455 233.6L653.062 193.135L653.669 163.246L654.275 205.714L654.882 214.397L655.489 295.605L656.096 187.458L656.703 176.604L657.31 206.048L657.917 197.644L658.524 200.872L659.131 233.544L659.738 286.31L660.345 170.259L660.952 136.084L661.559 187.959L662.166 256.031L662.773 192.69L663.38 235.214L663.987 285.531L664.594 205.77L665.201 168.088L665.808 144.822L666.415 115.601L667.022 103.522L667.629 188.627L668.236 273.619L668.843 140.926L669.45 152.949L670.057 194.026L670.664 215.9L671.271 227.255L671.878 246.847L672.485 306.626L673.092 208.887L673.699 222.19L674.306 252.691L674.913 254.305L675.52 278.74L676.127 286.755L676.734 333.343L677.341 237.496L677.948 264.102L678.555 280.243L679.162 297.609L679.769 298.722L680.376 320.763L680.983 344.252L681.59 273.564L682.197 297.72L682.804 312.359L683.411 318.036L684.018 314.196L684.625 325.216L685.232 344.586L685.839 350.263L686.446 288.648L687.053 312.192L687.66 321.877L688.267 351.71L688.874 322.044L689.481 341.191L690.088 324.159L690.695 308.184L691.302 320.763L691.909 333.287L692.516 329.78L693.123 334.567L693.73 349.317L694.337 331.005L694.944 324.27L695.551 331.228L696.158 339.521L696.765 341.859L697.372 344.697L697.979 350.375L698.586 353.269L699.193 317.702L699.8 315.364" stroke="#4285F4" stroke-width="2" stroke-miterlimit="10"/>
<path d="M383.922 418.8V410.206H386.891C387.557 410.206 388.068 410.248 388.422 410.331C388.911 410.446 389.328 410.649 389.672 410.94C390.13 411.326 390.469 411.821 390.688 412.425C390.917 413.019 391.031 413.696 391.031 414.456C391.031 415.112 390.953 415.69 390.797 416.19C390.651 416.69 390.458 417.107 390.219 417.44C389.979 417.774 389.714 418.034 389.422 418.222C389.141 418.409 388.802 418.555 388.406 418.659C388.01 418.753 387.552 418.8 387.031 418.8H383.922ZM385.062 417.784H386.891C387.464 417.784 387.911 417.732 388.234 417.628C388.557 417.524 388.812 417.373 389 417.175C389.271 416.914 389.479 416.555 389.625 416.097C389.781 415.638 389.859 415.086 389.859 414.44C389.859 413.545 389.708 412.857 389.406 412.378C389.115 411.888 388.76 411.56 388.344 411.394C388.031 411.279 387.542 411.222 386.875 411.222H385.062V417.784ZM396.859 418.034C396.464 418.368 396.083 418.602 395.719 418.737C395.365 418.873 394.979 418.94 394.562 418.94C393.875 418.94 393.349 418.774 392.984 418.44C392.62 418.107 392.438 417.68 392.438 417.159C392.438 416.857 392.505 416.581 392.641 416.331C392.776 416.071 392.958 415.868 393.188 415.722C393.417 415.565 393.672 415.451 393.953 415.378C394.151 415.315 394.464 415.258 394.891 415.206C395.734 415.112 396.359 414.993 396.766 414.847C396.766 414.701 396.766 414.612 396.766 414.581C396.766 414.144 396.667 413.836 396.469 413.659C396.198 413.43 395.797 413.315 395.266 413.315C394.776 413.315 394.411 413.404 394.172 413.581C393.932 413.748 393.755 414.05 393.641 414.487L392.609 414.347C392.703 413.909 392.859 413.555 393.078 413.284C393.297 413.013 393.609 412.805 394.016 412.659C394.422 412.513 394.891 412.44 395.422 412.44C395.953 412.44 396.385 412.503 396.719 412.628C397.052 412.753 397.297 412.909 397.453 413.097C397.609 413.284 397.719 413.524 397.781 413.815C397.812 413.993 397.828 414.315 397.828 414.784V416.19C397.828 417.17 397.849 417.789 397.891 418.05C397.943 418.31 398.036 418.56 398.172 418.8H397.062C396.958 418.581 396.891 418.326 396.859 418.034ZM396.766 415.675C396.38 415.831 395.807 415.966 395.047 416.081C394.609 416.144 394.302 416.216 394.125 416.3C393.948 416.373 393.807 416.482 393.703 416.628C393.609 416.774 393.562 416.94 393.562 417.128C393.562 417.409 393.667 417.644 393.875 417.831C394.094 418.019 394.406 418.112 394.812 418.112C395.219 418.112 395.578 418.024 395.891 417.847C396.214 417.67 396.448 417.425 396.594 417.112C396.708 416.873 396.766 416.524 396.766 416.065V415.675ZM402.094 417.862L402.25 418.784C401.948 418.847 401.682 418.878 401.453 418.878C401.068 418.878 400.771 418.821 400.562 418.706C400.354 418.581 400.203 418.42 400.109 418.222C400.026 418.024 399.984 417.607 399.984 416.972V413.394H399.219V412.581H399.984V411.034L401.031 410.409V412.581H402.094V413.394H401.031V417.034C401.031 417.336 401.047 417.529 401.078 417.612C401.12 417.696 401.182 417.763 401.266 417.815C401.349 417.868 401.469 417.894 401.625 417.894C401.75 417.894 401.906 417.883 402.094 417.862ZM407.047 416.8L408.141 416.925C407.974 417.56 407.656 418.055 407.188 418.409C406.719 418.763 406.125 418.94 405.406 418.94C404.5 418.94 403.776 418.659 403.234 418.097C402.703 417.534 402.438 416.748 402.438 415.737C402.438 414.696 402.708 413.888 403.25 413.315C403.792 412.732 404.49 412.44 405.344 412.44C406.177 412.44 406.854 412.722 407.375 413.284C407.906 413.847 408.172 414.644 408.172 415.675C408.172 415.737 408.172 415.831 408.172 415.956H403.531C403.573 416.644 403.766 417.17 404.109 417.534C404.453 417.888 404.885 418.065 405.406 418.065C405.792 418.065 406.12 417.966 406.391 417.769C406.672 417.56 406.891 417.237 407.047 416.8ZM403.594 415.097H407.062C407.021 414.565 406.891 414.17 406.672 413.909C406.328 413.503 405.891 413.3 405.359 413.3C404.87 413.3 404.458 413.461 404.125 413.784C403.802 414.107 403.625 414.545 403.594 415.097Z" fill="black"/>
<path d="M37.2 253.259H28.6062V251.541L34.6844 249.509C35.2573 249.322 35.6844 249.186 35.9656 249.103C35.6531 249.009 35.1948 248.858 34.5906 248.65L28.6062 246.587V245.056H37.2V246.15H30.0125L37.2 248.65V249.681L29.8875 252.166H37.2V253.259ZM29.825 244.353H28.6062V243.291H29.825V244.353ZM37.2 244.353H30.9812V243.291H37.2V244.353ZM39.5906 241.4L38.6062 241.525C38.6687 241.296 38.7 241.093 38.7 240.916C38.7 240.686 38.6583 240.504 38.575 240.369C38.5021 240.223 38.3979 240.103 38.2625 240.009C38.1479 239.947 37.8823 239.837 37.4656 239.681C37.4135 239.671 37.3302 239.639 37.2156 239.587L30.9812 241.962V240.822L34.575 239.525C35.0333 239.358 35.5177 239.207 36.0281 239.072C35.5385 238.947 35.0646 238.801 34.6062 238.634L30.9812 237.306V236.259L37.3094 238.619C37.9864 238.879 38.4552 239.077 38.7156 239.212C39.0698 239.4 39.325 239.619 39.4812 239.869C39.6479 240.108 39.7312 240.395 39.7312 240.728C39.7312 240.926 39.6844 241.15 39.5906 241.4ZM36.4344 232.291C36.7677 232.686 37.0021 233.067 37.1375 233.431C37.2729 233.785 37.3406 234.171 37.3406 234.587C37.3406 235.275 37.1739 235.801 36.8406 236.166C36.5073 236.53 36.0802 236.712 35.5594 236.712C35.2573 236.712 34.9812 236.645 34.7312 236.509C34.4708 236.374 34.2677 236.192 34.1219 235.962C33.9656 235.733 33.851 235.478 33.7781 235.197C33.7156 234.999 33.6583 234.686 33.6062 234.259C33.5125 233.416 33.3927 232.791 33.2469 232.384C33.101 232.384 33.0125 232.384 32.9812 232.384C32.5437 232.384 32.2364 232.483 32.0594 232.681C31.8302 232.952 31.7156 233.353 31.7156 233.884C31.7156 234.374 31.8041 234.738 31.9812 234.978C32.1479 235.218 32.45 235.395 32.8875 235.509L32.7469 236.541C32.3094 236.447 31.9552 236.291 31.6844 236.072C31.4135 235.853 31.2052 235.541 31.0594 235.134C30.9135 234.728 30.8406 234.259 30.8406 233.728C30.8406 233.197 30.9031 232.764 31.0281 232.431C31.1531 232.098 31.3094 231.853 31.4969 231.697C31.6844 231.541 31.9239 231.431 32.2156 231.369C32.3927 231.337 32.7156 231.322 33.1844 231.322H34.5906C35.5698 231.322 36.1896 231.301 36.45 231.259C36.7104 231.207 36.9604 231.113 37.2 230.978V232.087C36.9812 232.192 36.726 232.259 36.4344 232.291ZM34.075 232.384C34.2312 232.77 34.3666 233.343 34.4812 234.103C34.5437 234.541 34.6166 234.848 34.7 235.025C34.7729 235.202 34.8823 235.343 35.0281 235.447C35.1739 235.541 35.3406 235.587 35.5281 235.587C35.8094 235.587 36.0437 235.483 36.2312 235.275C36.4187 235.056 36.5125 234.744 36.5125 234.337C36.5125 233.931 36.4239 233.572 36.2469 233.259C36.0698 232.936 35.825 232.702 35.5125 232.556C35.2729 232.442 34.9239 232.384 34.4656 232.384H34.075ZM37.7156 229.556L37.8719 228.525C38.1844 228.483 38.4135 228.363 38.5594 228.166C38.7573 227.905 38.8562 227.551 38.8562 227.103C38.8562 226.613 38.7573 226.238 38.5594 225.978C38.3614 225.707 38.0906 225.525 37.7469 225.431C37.5281 225.369 37.075 225.343 36.3875 225.353C36.9292 225.811 37.2 226.384 37.2 227.072C37.2 227.926 36.8927 228.587 36.2781 229.056C35.6531 229.525 34.9135 229.759 34.0594 229.759C33.4656 229.759 32.9187 229.655 32.4187 229.447C31.9083 229.228 31.5177 228.916 31.2469 228.509C30.976 228.103 30.8406 227.624 30.8406 227.072C30.8406 226.332 31.1375 225.723 31.7312 225.244H30.9812V224.275H36.3562C37.325 224.275 38.0125 224.374 38.4187 224.572C38.825 224.77 39.1427 225.082 39.3719 225.509C39.6114 225.936 39.7312 226.462 39.7312 227.087C39.7312 227.827 39.5646 228.426 39.2312 228.884C38.8979 229.343 38.3927 229.567 37.7156 229.556ZM33.9812 228.681C34.7937 228.681 35.3875 228.52 35.7625 228.197C36.1375 227.874 36.325 227.468 36.325 226.978C36.325 226.488 36.1375 226.082 35.7625 225.759C35.3875 225.426 34.8041 225.259 34.0125 225.259C33.2521 225.259 32.6791 225.431 32.2937 225.775C31.9083 226.108 31.7156 226.514 31.7156 226.994C31.7156 227.462 31.9083 227.863 32.2937 228.197C32.6687 228.52 33.2312 228.681 33.9812 228.681ZM29.825 222.353H28.6062V221.291H29.825V222.353ZM37.2 222.353H30.9812V221.291H37.2V222.353Z" fill="black"/>
<path d="M79.7 369.565C79.7 368.545 79.8042 367.727 80.0125 367.112C80.2208 366.487 80.5281 366.008 80.9344 365.675C81.351 365.341 81.8719 365.175 82.4969 365.175C82.9552 365.175 83.3562 365.269 83.7 365.456C84.0542 365.644 84.3458 365.914 84.575 366.269C84.8042 366.612 84.9812 367.034 85.1062 367.534C85.2312 368.034 85.2937 368.711 85.2937 369.565C85.2937 370.576 85.1896 371.388 84.9812 372.003C84.7833 372.618 84.476 373.097 84.0594 373.44C83.6531 373.774 83.1323 373.94 82.4969 373.94C81.674 373.94 81.0229 373.644 80.5437 373.05C79.9812 372.341 79.7 371.18 79.7 369.565ZM80.7781 369.565C80.7781 370.972 80.9448 371.909 81.2781 372.378C81.6115 372.847 82.0177 373.081 82.4969 373.081C82.9865 373.081 83.3927 372.847 83.7156 372.378C84.049 371.909 84.2156 370.972 84.2156 369.565C84.2156 368.149 84.049 367.211 83.7156 366.753C83.3927 366.284 82.9812 366.05 82.4812 366.05C82.0021 366.05 81.6167 366.253 81.325 366.659C80.9604 367.18 80.7781 368.149 80.7781 369.565Z" fill="black"/>
<path d="M62.6688 318.14H61.6219V311.421C61.3615 311.661 61.0229 311.906 60.6063 312.156C60.2 312.395 59.8354 312.572 59.5125 312.687V311.671C60.0958 311.39 60.6063 311.057 61.0438 310.671C61.4917 310.276 61.8094 309.89 61.9969 309.515H62.6688V318.14ZM65.7 313.906C65.7 312.885 65.8042 312.067 66.0125 311.453C66.2208 310.828 66.5281 310.348 66.9344 310.015C67.3511 309.682 67.8719 309.515 68.4969 309.515C68.9552 309.515 69.3563 309.609 69.7 309.796C70.0542 309.984 70.3458 310.255 70.575 310.609C70.8042 310.953 70.9813 311.375 71.1063 311.875C71.2313 312.375 71.2938 313.052 71.2938 313.906C71.2938 314.916 71.1896 315.729 70.9813 316.343C70.7833 316.958 70.4761 317.437 70.0594 317.781C69.6531 318.114 69.1323 318.281 68.4969 318.281C67.674 318.281 67.0229 317.984 66.5438 317.39C65.9813 316.682 65.7 315.52 65.7 313.906ZM66.7781 313.906C66.7781 315.312 66.9448 316.25 67.2781 316.718C67.6115 317.187 68.0177 317.421 68.4969 317.421C68.9865 317.421 69.3927 317.187 69.7156 316.718C70.049 316.25 70.2156 315.312 70.2156 313.906C70.2156 312.489 70.049 311.552 69.7156 311.093C69.3927 310.625 68.9813 310.39 68.4813 310.39C68.0021 310.39 67.6167 310.593 67.325 311C66.9604 311.52 66.7781 312.489 66.7781 313.906ZM72.7 313.906C72.7 312.885 72.8042 312.067 73.0125 311.453C73.2208 310.828 73.5281 310.348 73.9344 310.015C74.3511 309.682 74.8719 309.515 75.4969 309.515C75.9552 309.515 76.3563 309.609 76.7 309.796C77.0542 309.984 77.3458 310.255 77.575 310.609C77.8042 310.953 77.9813 311.375 78.1063 311.875C78.2313 312.375 78.2938 313.052 78.2938 313.906C78.2938 314.916 78.1896 315.729 77.9813 316.343C77.7833 316.958 77.4761 317.437 77.0594 317.781C76.6531 318.114 76.1323 318.281 75.4969 318.281C74.674 318.281 74.0229 317.984 73.5438 317.39C72.9813 316.682 72.7 315.52 72.7 313.906ZM73.7781 313.906C73.7781 315.312 73.9448 316.25 74.2781 316.718C74.6115 317.187 75.0177 317.421 75.4969 317.421C75.9865 317.421 76.3927 317.187 76.7156 316.718C77.049 316.25 77.2156 315.312 77.2156 313.906C77.2156 312.489 77.049 311.552 76.7156 311.093C76.3927 310.625 75.9813 310.39 75.4813 310.39C75.0021 310.39 74.6167 310.593 74.325 311C73.9604 311.52 73.7781 312.489 73.7781 313.906ZM79.7 313.906C79.7 312.885 79.8042 312.067 80.0125 311.453C80.2208 310.828 80.5281 310.348 80.9344 310.015C81.3511 309.682 81.8719 309.515 82.4969 309.515C82.9552 309.515 83.3563 309.609 83.7 309.796C84.0542 309.984 84.3458 310.255 84.575 310.609C84.8042 310.953 84.9813 311.375 85.1063 311.875C85.2313 312.375 85.2938 313.052 85.2938 313.906C85.2938 314.916 85.1896 315.729 84.9813 316.343C84.7833 316.958 84.4761 317.437 84.0594 317.781C83.6531 318.114 83.1323 318.281 82.4969 318.281C81.674 318.281 81.0229 317.984 80.5438 317.39C79.9813 316.682 79.7 315.52 79.7 313.906ZM80.7781 313.906C80.7781 315.312 80.9448 316.25 81.2781 316.718C81.6115 317.187 82.0177 317.421 82.4969 317.421C82.9865 317.421 83.3927 317.187 83.7156 316.718C84.049 316.25 84.2156 315.312 84.2156 313.906C84.2156 312.489 84.049 311.552 83.7156 311.093C83.3927 310.625 82.9813 310.39 82.4813 310.39C82.0021 310.39 81.6167 310.593 81.325 311C80.9604 311.52 80.7781 312.489 80.7781 313.906Z" fill="black"/>
<path d="M64.2469 261.464V262.48H58.5594C58.5594 262.23 58.6011 261.985 58.6844 261.746C58.8302 261.36 59.0594 260.98 59.3719 260.605C59.6948 260.23 60.1583 259.798 60.7625 259.308C61.7 258.537 62.3302 257.928 62.6531 257.48C62.9865 257.032 63.1531 256.61 63.1531 256.214C63.1531 255.798 63.0021 255.449 62.7 255.167C62.3979 254.876 62.0073 254.73 61.5281 254.73C61.0177 254.73 60.6115 254.881 60.3094 255.183C60.0073 255.485 59.8511 255.907 59.8406 256.449L58.7625 256.339C58.8354 255.527 59.1115 254.912 59.5906 254.496C60.0802 254.069 60.7365 253.855 61.5594 253.855C62.3823 253.855 63.0333 254.084 63.5125 254.542C63.9917 255.001 64.2313 255.569 64.2313 256.246C64.2313 256.589 64.1583 256.928 64.0125 257.261C63.8771 257.584 63.6427 257.933 63.3094 258.308C62.9865 258.673 62.45 259.173 61.7 259.808C61.0646 260.339 60.6531 260.704 60.4656 260.902C60.2886 261.089 60.1427 261.277 60.0281 261.464H64.2469ZM65.7 258.246C65.7 257.225 65.8042 256.407 66.0125 255.792C66.2208 255.167 66.5281 254.688 66.9344 254.355C67.3511 254.022 67.8719 253.855 68.4969 253.855C68.9552 253.855 69.3563 253.949 69.7 254.136C70.0542 254.324 70.3458 254.595 70.575 254.949C70.8042 255.292 70.9813 255.714 71.1063 256.214C71.2313 256.714 71.2938 257.391 71.2938 258.246C71.2938 259.256 71.1896 260.069 70.9813 260.683C70.7833 261.298 70.4761 261.777 70.0594 262.121C69.6531 262.454 69.1323 262.621 68.4969 262.621C67.674 262.621 67.0229 262.324 66.5438 261.73C65.9813 261.022 65.7 259.86 65.7 258.246ZM66.7781 258.246C66.7781 259.652 66.9448 260.589 67.2781 261.058C67.6115 261.527 68.0177 261.761 68.4969 261.761C68.9865 261.761 69.3927 261.527 69.7156 261.058C70.049 260.589 70.2156 259.652 70.2156 258.246C70.2156 256.829 70.049 255.891 69.7156 255.433C69.3927 254.964 68.9813 254.73 68.4813 254.73C68.0021 254.73 67.6167 254.933 67.325 255.339C66.9604 255.86 66.7781 256.829 66.7781 258.246ZM72.7 258.246C72.7 257.225 72.8042 256.407 73.0125 255.792C73.2208 255.167 73.5281 254.688 73.9344 254.355C74.3511 254.022 74.8719 253.855 75.4969 253.855C75.9552 253.855 76.3563 253.949 76.7 254.136C77.0542 254.324 77.3458 254.595 77.575 254.949C77.8042 255.292 77.9813 255.714 78.1063 256.214C78.2313 256.714 78.2938 257.391 78.2938 258.246C78.2938 259.256 78.1896 260.069 77.9813 260.683C77.7833 261.298 77.4761 261.777 77.0594 262.121C76.6531 262.454 76.1323 262.621 75.4969 262.621C74.674 262.621 74.0229 262.324 73.5438 261.73C72.9813 261.022 72.7 259.86 72.7 258.246ZM73.7781 258.246C73.7781 259.652 73.9448 260.589 74.2781 261.058C74.6115 261.527 75.0177 261.761 75.4969 261.761C75.9865 261.761 76.3927 261.527 76.7156 261.058C77.049 260.589 77.2156 259.652 77.2156 258.246C77.2156 256.829 77.049 255.891 76.7156 255.433C76.3927 254.964 75.9813 254.73 75.4813 254.73C75.0021 254.73 74.6167 254.933 74.325 255.339C73.9604 255.86 73.7781 256.829 73.7781 258.246ZM79.7 258.246C79.7 257.225 79.8042 256.407 80.0125 255.792C80.2208 255.167 80.5281 254.688 80.9344 254.355C81.3511 254.022 81.8719 253.855 82.4969 253.855C82.9552 253.855 83.3563 253.949 83.7 254.136C84.0542 254.324 84.3458 254.595 84.575 254.949C84.8042 255.292 84.9813 255.714 85.1063 256.214C85.2313 256.714 85.2938 257.391 85.2938 258.246C85.2938 259.256 85.1896 260.069 84.9813 260.683C84.7833 261.298 84.4761 261.777 84.0594 262.121C83.6531 262.454 83.1323 262.621 82.4969 262.621C81.674 262.621 81.0229 262.324 80.5438 261.73C79.9813 261.022 79.7 259.86 79.7 258.246ZM80.7781 258.246C80.7781 259.652 80.9448 260.589 81.2781 261.058C81.6115 261.527 82.0177 261.761 82.4969 261.761C82.9865 261.761 83.3927 261.527 83.7156 261.058C84.049 260.589 84.2156 259.652 84.2156 258.246C84.2156 256.829 84.049 255.891 83.7156 255.433C83.3927 254.964 82.9813 254.73 82.4813 254.73C82.0021 254.73 81.6167 254.933 81.325 255.339C80.9604 255.86 80.7781 256.829 80.7781 258.246Z" fill="black"/>
<path d="M58.7 204.554L59.7625 204.414C59.8771 205.007 60.0802 205.44 60.3719 205.71C60.6636 205.971 61.0177 206.101 61.4344 206.101C61.9344 206.101 62.3563 205.929 62.7 205.585C63.0438 205.242 63.2156 204.815 63.2156 204.304C63.2156 203.825 63.0542 203.429 62.7313 203.117C62.4188 202.794 62.0177 202.632 61.5281 202.632C61.3302 202.632 61.0802 202.674 60.7781 202.757L60.9031 201.82C60.9761 201.83 61.0333 201.835 61.075 201.835C61.5229 201.835 61.924 201.721 62.2781 201.492C62.6427 201.252 62.825 200.888 62.825 200.398C62.825 200.013 62.6948 199.695 62.4344 199.445C62.174 199.184 61.8354 199.054 61.4188 199.054C61.0125 199.054 60.6688 199.184 60.3875 199.445C60.1167 199.705 59.9448 200.091 59.8719 200.601L58.8094 200.414C58.9344 199.716 59.2261 199.174 59.6844 198.789C60.1427 198.393 60.7104 198.195 61.3875 198.195C61.8563 198.195 62.2886 198.299 62.6844 198.507C63.0802 198.705 63.3823 198.976 63.5906 199.32C63.799 199.664 63.9031 200.033 63.9031 200.429C63.9031 200.794 63.8042 201.132 63.6063 201.445C63.4083 201.747 63.1167 201.986 62.7313 202.164C63.2313 202.278 63.6219 202.523 63.9031 202.898C64.1844 203.263 64.325 203.726 64.325 204.289C64.325 205.039 64.049 205.674 63.4969 206.195C62.9552 206.716 62.2677 206.976 61.4344 206.976C60.6844 206.976 60.0594 206.752 59.5594 206.304C59.0594 205.846 58.7729 205.263 58.7 204.554ZM65.7 202.585C65.7 201.565 65.8042 200.747 66.0125 200.132C66.2208 199.507 66.5281 199.028 66.9344 198.695C67.3511 198.361 67.8719 198.195 68.4969 198.195C68.9552 198.195 69.3563 198.289 69.7 198.476C70.0542 198.664 70.3458 198.934 70.575 199.289C70.8042 199.632 70.9813 200.054 71.1063 200.554C71.2313 201.054 71.2938 201.731 71.2938 202.585C71.2938 203.596 71.1896 204.408 70.9813 205.023C70.7833 205.638 70.4761 206.117 70.0594 206.46C69.6531 206.794 69.1323 206.96 68.4969 206.96C67.674 206.96 67.0229 206.664 66.5438 206.07C65.9813 205.361 65.7 204.2 65.7 202.585ZM66.7781 202.585C66.7781 203.992 66.9448 204.929 67.2781 205.398C67.6115 205.867 68.0177 206.101 68.4969 206.101C68.9865 206.101 69.3927 205.867 69.7156 205.398C70.049 204.929 70.2156 203.992 70.2156 202.585C70.2156 201.169 70.049 200.231 69.7156 199.773C69.3927 199.304 68.9813 199.07 68.4813 199.07C68.0021 199.07 67.6167 199.273 67.325 199.679C66.9604 200.2 66.7781 201.169 66.7781 202.585ZM72.7 202.585C72.7 201.565 72.8042 200.747 73.0125 200.132C73.2208 199.507 73.5281 199.028 73.9344 198.695C74.3511 198.361 74.8719 198.195 75.4969 198.195C75.9552 198.195 76.3563 198.289 76.7 198.476C77.0542 198.664 77.3458 198.934 77.575 199.289C77.8042 199.632 77.9813 200.054 78.1063 200.554C78.2313 201.054 78.2938 201.731 78.2938 202.585C78.2938 203.596 78.1896 204.408 77.9813 205.023C77.7833 205.638 77.4761 206.117 77.0594 206.46C76.6531 206.794 76.1323 206.96 75.4969 206.96C74.674 206.96 74.0229 206.664 73.5438 206.07C72.9813 205.361 72.7 204.2 72.7 202.585ZM73.7781 202.585C73.7781 203.992 73.9448 204.929 74.2781 205.398C74.6115 205.867 75.0177 206.101 75.4969 206.101C75.9865 206.101 76.3927 205.867 76.7156 205.398C77.049 204.929 77.2156 203.992 77.2156 202.585C77.2156 201.169 77.049 200.231 76.7156 199.773C76.3927 199.304 75.9813 199.07 75.4813 199.07C75.0021 199.07 74.6167 199.273 74.325 199.679C73.9604 200.2 73.7781 201.169 73.7781 202.585ZM79.7 202.585C79.7 201.565 79.8042 200.747 80.0125 200.132C80.2208 199.507 80.5281 199.028 80.9344 198.695C81.3511 198.361 81.8719 198.195 82.4969 198.195C82.9552 198.195 83.3563 198.289 83.7 198.476C84.0542 198.664 84.3458 198.934 84.575 199.289C84.8042 199.632 84.9813 200.054 85.1063 200.554C85.2313 201.054 85.2938 201.731 85.2938 202.585C85.2938 203.596 85.1896 204.408 84.9813 205.023C84.7833 205.638 84.4761 206.117 84.0594 206.46C83.6531 206.794 83.1323 206.96 82.4969 206.96C81.674 206.96 81.0229 206.664 80.5438 206.07C79.9813 205.361 79.7 204.2 79.7 202.585ZM80.7781 202.585C80.7781 203.992 80.9448 204.929 81.2781 205.398C81.6115 205.867 82.0177 206.101 82.4969 206.101C82.9865 206.101 83.3927 205.867 83.7156 205.398C84.049 204.929 84.2156 203.992 84.2156 202.585C84.2156 201.169 84.049 200.231 83.7156 199.773C83.3927 199.304 82.9813 199.07 82.4813 199.07C82.0021 199.07 81.6167 199.273 81.325 199.679C80.9604 200.2 80.7781 201.169 80.7781 202.585Z" fill="black"/>
<path d="M62.075 151.16V149.098H58.3563V148.129L62.2781 142.566H63.1375V148.129H64.2938V149.098H63.1375V151.16H62.075ZM62.075 148.129V144.27L59.3875 148.129H62.075ZM65.7 146.926C65.7 145.905 65.8042 145.087 66.0125 144.473C66.2208 143.848 66.5281 143.368 66.9344 143.035C67.3511 142.702 67.8719 142.535 68.4969 142.535C68.9552 142.535 69.3563 142.629 69.7 142.816C70.0542 143.004 70.3458 143.275 70.575 143.629C70.8042 143.973 70.9813 144.395 71.1063 144.895C71.2313 145.395 71.2938 146.072 71.2938 146.926C71.2938 147.936 71.1896 148.749 70.9813 149.363C70.7833 149.978 70.4761 150.457 70.0594 150.801C69.6531 151.134 69.1323 151.301 68.4969 151.301C67.674 151.301 67.0229 151.004 66.5438 150.41C65.9813 149.702 65.7 148.54 65.7 146.926ZM66.7781 146.926C66.7781 148.332 66.9448 149.27 67.2781 149.738C67.6115 150.207 68.0177 150.441 68.4969 150.441C68.9865 150.441 69.3927 150.207 69.7156 149.738C70.049 149.27 70.2156 148.332 70.2156 146.926C70.2156 145.509 70.049 144.572 69.7156 144.113C69.3927 143.645 68.9813 143.41 68.4813 143.41C68.0021 143.41 67.6167 143.613 67.325 144.02C66.9604 144.54 66.7781 145.509 66.7781 146.926ZM72.7 146.926C72.7 145.905 72.8042 145.087 73.0125 144.473C73.2208 143.848 73.5281 143.368 73.9344 143.035C74.3511 142.702 74.8719 142.535 75.4969 142.535C75.9552 142.535 76.3563 142.629 76.7 142.816C77.0542 143.004 77.3458 143.275 77.575 143.629C77.8042 143.973 77.9813 144.395 78.1063 144.895C78.2313 145.395 78.2938 146.072 78.2938 146.926C78.2938 147.936 78.1896 148.749 77.9813 149.363C77.7833 149.978 77.4761 150.457 77.0594 150.801C76.6531 151.134 76.1323 151.301 75.4969 151.301C74.674 151.301 74.0229 151.004 73.5438 150.41C72.9813 149.702 72.7 148.54 72.7 146.926ZM73.7781 146.926C73.7781 148.332 73.9448 149.27 74.2781 149.738C74.6115 150.207 75.0177 150.441 75.4969 150.441C75.9865 150.441 76.3927 150.207 76.7156 149.738C77.049 149.27 77.2156 148.332 77.2156 146.926C77.2156 145.509 77.049 144.572 76.7156 144.113C76.3927 143.645 75.9813 143.41 75.4813 143.41C75.0021 143.41 74.6167 143.613 74.325 144.02C73.9604 144.54 73.7781 145.509 73.7781 146.926ZM79.7 146.926C79.7 145.905 79.8042 145.087 80.0125 144.473C80.2208 143.848 80.5281 143.368 80.9344 143.035C81.3511 142.702 81.8719 142.535 82.4969 142.535C82.9552 142.535 83.3563 142.629 83.7 142.816C84.0542 143.004 84.3458 143.275 84.575 143.629C84.8042 143.973 84.9813 144.395 85.1063 144.895C85.2313 145.395 85.2938 146.072 85.2938 146.926C85.2938 147.936 85.1896 148.749 84.9813 149.363C84.7833 149.978 84.4761 150.457 84.0594 150.801C83.6531 151.134 83.1323 151.301 82.4969 151.301C81.674 151.301 81.0229 151.004 80.5438 150.41C79.9813 149.702 79.7 148.54 79.7 146.926ZM80.7781 146.926C80.7781 148.332 80.9448 149.27 81.2781 149.738C81.6115 150.207 82.0177 150.441 82.4969 150.441C82.9865 150.441 83.3927 150.207 83.7156 149.738C84.049 149.27 84.2156 148.332 84.2156 146.926C84.2156 145.509 84.049 144.572 83.7156 144.113C83.3927 143.645 82.9813 143.41 82.4813 143.41C82.0021 143.41 81.6167 143.613 81.325 144.02C80.9604 144.54 80.7781 145.509 80.7781 146.926Z" fill="black"/>
<path d="M58.7 93.25L59.8094 93.1562C59.8927 93.6979 60.0802 94.1042 60.3719 94.375C60.674 94.6458 61.0386 94.7812 61.4656 94.7812C61.9656 94.7812 62.3927 94.5885 62.7469 94.2031C63.1011 93.8177 63.2781 93.3125 63.2781 92.6875C63.2781 92.0833 63.1063 91.6094 62.7625 91.2656C62.4292 90.9115 61.9865 90.7344 61.4344 90.7344C61.1011 90.7344 60.7938 90.8125 60.5125 90.9688C60.2417 91.125 60.0281 91.3229 59.8719 91.5625L58.8875 91.4375L59.7156 87.0312H63.9969V88.0312H60.5594L60.1063 90.3438C60.6167 89.9792 61.1531 89.7969 61.7156 89.7969C62.4656 89.7969 63.0958 90.0573 63.6063 90.5781C64.1271 91.099 64.3875 91.7708 64.3875 92.5938C64.3875 93.3646 64.1636 94.0365 63.7156 94.6094C63.1636 95.2969 62.4136 95.6406 61.4656 95.6406C60.6844 95.6406 60.0438 95.4219 59.5438 94.9844C59.0542 94.5469 58.7729 93.9688 58.7 93.25ZM65.7 91.2656C65.7 90.2448 65.8042 89.4271 66.0125 88.8125C66.2208 88.1875 66.5281 87.7083 66.9344 87.375C67.3511 87.0417 67.8719 86.875 68.4969 86.875C68.9552 86.875 69.3563 86.9688 69.7 87.1562C70.0542 87.3438 70.3458 87.6146 70.575 87.9688C70.8042 88.3125 70.9813 88.7344 71.1063 89.2344C71.2313 89.7344 71.2938 90.4115 71.2938 91.2656C71.2938 92.276 71.1896 93.0885 70.9813 93.7031C70.7833 94.3177 70.4761 94.7969 70.0594 95.1406C69.6531 95.474 69.1323 95.6406 68.4969 95.6406C67.674 95.6406 67.0229 95.3438 66.5438 94.75C65.9813 94.0417 65.7 92.8802 65.7 91.2656ZM66.7781 91.2656C66.7781 92.6719 66.9448 93.6094 67.2781 94.0781C67.6115 94.5469 68.0177 94.7812 68.4969 94.7812C68.9865 94.7812 69.3927 94.5469 69.7156 94.0781C70.049 93.6094 70.2156 92.6719 70.2156 91.2656C70.2156 89.849 70.049 88.9115 69.7156 88.4531C69.3927 87.9844 68.9813 87.75 68.4813 87.75C68.0021 87.75 67.6167 87.9531 67.325 88.3594C66.9604 88.8802 66.7781 89.849 66.7781 91.2656ZM72.7 91.2656C72.7 90.2448 72.8042 89.4271 73.0125 88.8125C73.2208 88.1875 73.5281 87.7083 73.9344 87.375C74.3511 87.0417 74.8719 86.875 75.4969 86.875C75.9552 86.875 76.3563 86.9688 76.7 87.1562C77.0542 87.3438 77.3458 87.6146 77.575 87.9688C77.8042 88.3125 77.9813 88.7344 78.1063 89.2344C78.2313 89.7344 78.2938 90.4115 78.2938 91.2656C78.2938 92.276 78.1896 93.0885 77.9813 93.7031C77.7833 94.3177 77.4761 94.7969 77.0594 95.1406C76.6531 95.474 76.1323 95.6406 75.4969 95.6406C74.674 95.6406 74.0229 95.3438 73.5438 94.75C72.9813 94.0417 72.7 92.8802 72.7 91.2656ZM73.7781 91.2656C73.7781 92.6719 73.9448 93.6094 74.2781 94.0781C74.6115 94.5469 75.0177 94.7812 75.4969 94.7812C75.9865 94.7812 76.3927 94.5469 76.7156 94.0781C77.049 93.6094 77.2156 92.6719 77.2156 91.2656C77.2156 89.849 77.049 88.9115 76.7156 88.4531C76.3927 87.9844 75.9813 87.75 75.4813 87.75C75.0021 87.75 74.6167 87.9531 74.325 88.3594C73.9604 88.8802 73.7781 89.849 73.7781 91.2656ZM79.7 91.2656C79.7 90.2448 79.8042 89.4271 80.0125 88.8125C80.2208 88.1875 80.5281 87.7083 80.9344 87.375C81.3511 87.0417 81.8719 86.875 82.4969 86.875C82.9552 86.875 83.3563 86.9688 83.7 87.1562C84.0542 87.3438 84.3458 87.6146 84.575 87.9688C84.8042 88.3125 84.9813 88.7344 85.1063 89.2344C85.2313 89.7344 85.2938 90.4115 85.2938 91.2656C85.2938 92.276 85.1896 93.0885 84.9813 93.7031C84.7833 94.3177 84.4761 94.7969 84.0594 95.1406C83.6531 95.474 83.1323 95.6406 82.4969 95.6406C81.674 95.6406 81.0229 95.3438 80.5438 94.75C79.9813 94.0417 79.7 92.8802 79.7 91.2656ZM80.7781 91.2656C80.7781 92.6719 80.9448 93.6094 81.2781 94.0781C81.6115 94.5469 82.0177 94.7812 82.4969 94.7812C82.9865 94.7812 83.3927 94.5469 83.7156 94.0781C84.049 93.6094 84.2156 92.6719 84.2156 91.2656C84.2156 89.849 84.049 88.9115 83.7156 88.4531C83.3927 87.9844 82.9813 87.75 82.4813 87.75C82.0021 87.75 81.6167 87.9531 81.325 88.3594C80.9604 88.8802 80.7781 89.849 80.7781 91.2656Z" fill="black"/>
<path d="M172.052 386.8V384.737H168.333V383.769L172.255 378.206H173.114V383.769H174.271V384.737H173.114V386.8H172.052ZM172.052 383.769V379.909L169.364 383.769H172.052ZM179.052 386.8V384.737H175.333V383.769L179.255 378.206H180.114V383.769H181.271V384.737H180.114V386.8H179.052ZM179.052 383.769V379.909L176.364 383.769H179.052ZM182.677 382.565C182.677 381.545 182.781 380.727 182.989 380.112C183.198 379.487 183.505 379.008 183.911 378.675C184.328 378.341 184.849 378.175 185.474 378.175C185.932 378.175 186.333 378.269 186.677 378.456C187.031 378.644 187.323 378.914 187.552 379.269C187.781 379.612 187.958 380.034 188.083 380.534C188.208 381.034 188.271 381.711 188.271 382.565C188.271 383.576 188.167 384.388 187.958 385.003C187.76 385.618 187.453 386.097 187.036 386.44C186.63 386.774 186.109 386.94 185.474 386.94C184.651 386.94 184 386.644 183.521 386.05C182.958 385.341 182.677 384.18 182.677 382.565ZM183.755 382.565C183.755 383.972 183.922 384.909 184.255 385.378C184.588 385.847 184.995 386.081 185.474 386.081C185.963 386.081 186.37 385.847 186.693 385.378C187.026 384.909 187.193 383.972 187.193 382.565C187.193 381.149 187.026 380.211 186.693 379.753C186.37 379.284 185.958 379.05 185.458 379.05C184.979 379.05 184.594 379.253 184.302 379.659C183.937 380.18 183.755 381.149 183.755 382.565ZM189.677 382.565C189.677 381.545 189.781 380.727 189.989 380.112C190.198 379.487 190.505 379.008 190.911 378.675C191.328 378.341 191.849 378.175 192.474 378.175C192.932 378.175 193.333 378.269 193.677 378.456C194.031 378.644 194.323 378.914 194.552 379.269C194.781 379.612 194.958 380.034 195.083 380.534C195.208 381.034 195.271 381.711 195.271 382.565C195.271 383.576 195.167 384.388 194.958 385.003C194.76 385.618 194.453 386.097 194.036 386.44C193.63 386.774 193.109 386.94 192.474 386.94C191.651 386.94 191 386.644 190.521 386.05C189.958 385.341 189.677 384.18 189.677 382.565ZM190.755 382.565C190.755 383.972 190.922 384.909 191.255 385.378C191.588 385.847 191.995 386.081 192.474 386.081C192.963 386.081 193.37 385.847 193.693 385.378C194.026 384.909 194.193 383.972 194.193 382.565C194.193 381.149 194.026 380.211 193.693 379.753C193.37 379.284 192.958 379.05 192.458 379.05C191.979 379.05 191.594 379.253 191.302 379.659C190.937 380.18 190.755 381.149 190.755 382.565ZM196.677 382.565C196.677 381.545 196.781 380.727 196.989 380.112C197.198 379.487 197.505 379.008 197.911 378.675C198.328 378.341 198.849 378.175 199.474 378.175C199.932 378.175 200.333 378.269 200.677 378.456C201.031 378.644 201.323 378.914 201.552 379.269C201.781 379.612 201.958 380.034 202.083 380.534C202.208 381.034 202.271 381.711 202.271 382.565C202.271 383.576 202.167 384.388 201.958 385.003C201.76 385.618 201.453 386.097 201.036 386.44C200.63 386.774 200.109 386.94 199.474 386.94C198.651 386.94 198 386.644 197.521 386.05C196.958 385.341 196.677 384.18 196.677 382.565ZM197.755 382.565C197.755 383.972 197.922 384.909 198.255 385.378C198.588 385.847 198.995 386.081 199.474 386.081C199.963 386.081 200.37 385.847 200.693 385.378C201.026 384.909 201.193 383.972 201.193 382.565C201.193 381.149 201.026 380.211 200.693 379.753C200.37 379.284 199.958 379.05 199.458 379.05C198.979 379.05 198.594 379.253 198.302 379.659C197.937 380.18 197.755 381.149 197.755 382.565Z" fill="black"/>
<path d="M293.451 386.8V384.737H289.732V383.769L293.654 378.206H294.513V383.769H295.669V384.737H294.513V386.8H293.451ZM293.451 383.769V379.909L290.763 383.769H293.451ZM300.451 386.8V384.737H296.732V383.769L300.654 378.206H301.513V383.769H302.669V384.737H301.513V386.8H300.451ZM300.451 383.769V379.909L297.763 383.769H300.451ZM309.622 385.784V386.8H303.935C303.935 386.55 303.977 386.305 304.06 386.065C304.206 385.68 304.435 385.3 304.747 384.925C305.07 384.55 305.534 384.118 306.138 383.628C307.076 382.857 307.706 382.248 308.029 381.8C308.362 381.352 308.529 380.93 308.529 380.534C308.529 380.118 308.378 379.769 308.076 379.487C307.773 379.196 307.383 379.05 306.904 379.05C306.393 379.05 305.987 379.201 305.685 379.503C305.383 379.805 305.227 380.227 305.216 380.769L304.138 380.659C304.211 379.847 304.487 379.232 304.966 378.815C305.456 378.388 306.112 378.175 306.935 378.175C307.758 378.175 308.409 378.404 308.888 378.862C309.367 379.321 309.607 379.888 309.607 380.565C309.607 380.909 309.534 381.248 309.388 381.581C309.253 381.904 309.018 382.253 308.685 382.628C308.362 382.993 307.826 383.493 307.076 384.128C306.44 384.659 306.029 385.024 305.841 385.222C305.664 385.409 305.518 385.597 305.404 385.784H309.622ZM311.076 382.565C311.076 381.545 311.18 380.727 311.388 380.112C311.596 379.487 311.904 379.008 312.31 378.675C312.727 378.341 313.247 378.175 313.872 378.175C314.331 378.175 314.732 378.269 315.076 378.456C315.43 378.644 315.721 378.914 315.951 379.269C316.18 379.612 316.357 380.034 316.482 380.534C316.607 381.034 316.669 381.711 316.669 382.565C316.669 383.576 316.565 384.388 316.357 385.003C316.159 385.618 315.852 386.097 315.435 386.44C315.029 386.774 314.508 386.94 313.872 386.94C313.049 386.94 312.398 386.644 311.919 386.05C311.357 385.341 311.076 384.18 311.076 382.565ZM312.154 382.565C312.154 383.972 312.32 384.909 312.654 385.378C312.987 385.847 313.393 386.081 313.872 386.081C314.362 386.081 314.768 385.847 315.091 385.378C315.424 384.909 315.591 383.972 315.591 382.565C315.591 381.149 315.424 380.211 315.091 379.753C314.768 379.284 314.357 379.05 313.857 379.05C313.378 379.05 312.992 379.253 312.701 379.659C312.336 380.18 312.154 381.149 312.154 382.565ZM318.076 382.565C318.076 381.545 318.18 380.727 318.388 380.112C318.596 379.487 318.904 379.008 319.31 378.675C319.727 378.341 320.247 378.175 320.872 378.175C321.331 378.175 321.732 378.269 322.076 378.456C322.43 378.644 322.721 378.914 322.951 379.269C323.18 379.612 323.357 380.034 323.482 380.534C323.607 381.034 323.669 381.711 323.669 382.565C323.669 383.576 323.565 384.388 323.357 385.003C323.159 385.618 322.852 386.097 322.435 386.44C322.029 386.774 321.508 386.94 320.872 386.94C320.049 386.94 319.398 386.644 318.919 386.05C318.357 385.341 318.076 384.18 318.076 382.565ZM319.154 382.565C319.154 383.972 319.32 384.909 319.654 385.378C319.987 385.847 320.393 386.081 320.872 386.081C321.362 386.081 321.768 385.847 322.091 385.378C322.424 384.909 322.591 383.972 322.591 382.565C322.591 381.149 322.424 380.211 322.091 379.753C321.768 379.284 321.357 379.05 320.857 379.05C320.378 379.05 319.992 379.253 319.701 379.659C319.336 380.18 319.154 381.149 319.154 382.565Z" fill="black"/>
<path d="M414.849 386.8V384.737H411.13V383.769L415.052 378.206H415.912V383.769H417.068V384.737H415.912V386.8H414.849ZM414.849 383.769V379.909L412.162 383.769H414.849ZM421.849 386.8V384.737H418.13V383.769L422.052 378.206H422.912V383.769H424.068V384.737H422.912V386.8H421.849ZM421.849 383.769V379.909L419.162 383.769H421.849ZM428.849 386.8V384.737H425.13V383.769L429.052 378.206H429.912V383.769H431.068V384.737H429.912V386.8H428.849ZM428.849 383.769V379.909L426.162 383.769H428.849ZM432.474 382.565C432.474 381.545 432.578 380.727 432.787 380.112C432.995 379.487 433.302 379.008 433.708 378.675C434.125 378.341 434.646 378.175 435.271 378.175C435.729 378.175 436.13 378.269 436.474 378.456C436.828 378.644 437.12 378.914 437.349 379.269C437.578 379.612 437.755 380.034 437.88 380.534C438.005 381.034 438.068 381.711 438.068 382.565C438.068 383.576 437.964 384.388 437.755 385.003C437.557 385.618 437.25 386.097 436.833 386.44C436.427 386.774 435.906 386.94 435.271 386.94C434.448 386.94 433.797 386.644 433.318 386.05C432.755 385.341 432.474 384.18 432.474 382.565ZM433.552 382.565C433.552 383.972 433.719 384.909 434.052 385.378C434.386 385.847 434.792 386.081 435.271 386.081C435.761 386.081 436.167 385.847 436.49 385.378C436.823 384.909 436.99 383.972 436.99 382.565C436.99 381.149 436.823 380.211 436.49 379.753C436.167 379.284 435.755 379.05 435.255 379.05C434.776 379.05 434.391 379.253 434.099 379.659C433.735 380.18 433.552 381.149 433.552 382.565ZM439.474 382.565C439.474 381.545 439.578 380.727 439.787 380.112C439.995 379.487 440.302 379.008 440.708 378.675C441.125 378.341 441.646 378.175 442.271 378.175C442.729 378.175 443.13 378.269 443.474 378.456C443.828 378.644 444.12 378.914 444.349 379.269C444.578 379.612 444.755 380.034 444.88 380.534C445.005 381.034 445.068 381.711 445.068 382.565C445.068 383.576 444.964 384.388 444.755 385.003C444.557 385.618 444.25 386.097 443.833 386.44C443.427 386.774 442.906 386.94 442.271 386.94C441.448 386.94 440.797 386.644 440.318 386.05C439.755 385.341 439.474 384.18 439.474 382.565ZM440.552 382.565C440.552 383.972 440.719 384.909 441.052 385.378C441.386 385.847 441.792 386.081 442.271 386.081C442.761 386.081 443.167 385.847 443.49 385.378C443.823 384.909 443.99 383.972 443.99 382.565C443.99 381.149 443.823 380.211 443.49 379.753C443.167 379.284 442.755 379.05 442.255 379.05C441.776 379.05 441.391 379.253 441.099 379.659C440.735 380.18 440.552 381.149 440.552 382.565Z" fill="black"/>
<path d="M536.248 386.8V384.737H532.529V383.769L536.451 378.206H537.31V383.769H538.466V384.737H537.31V386.8H536.248ZM536.248 383.769V379.909L533.56 383.769H536.248ZM543.248 386.8V384.737H539.529V383.769L543.451 378.206H544.31V383.769H545.466V384.737H544.31V386.8H543.248ZM543.248 383.769V379.909L540.56 383.769H543.248ZM552.341 380.315L551.295 380.394C551.201 379.977 551.071 379.675 550.904 379.487C550.612 379.185 550.258 379.034 549.841 379.034C549.508 379.034 549.211 379.128 548.951 379.315C548.628 379.565 548.368 379.925 548.17 380.394C547.982 380.852 547.883 381.508 547.873 382.362C548.123 381.977 548.43 381.69 548.795 381.503C549.17 381.315 549.56 381.222 549.966 381.222C550.664 381.222 551.258 381.482 551.748 382.003C552.248 382.524 552.498 383.19 552.498 384.003C552.498 384.545 552.378 385.05 552.138 385.519C551.909 385.977 551.591 386.331 551.185 386.581C550.779 386.821 550.321 386.94 549.81 386.94C548.925 386.94 548.206 386.618 547.654 385.972C547.102 385.326 546.826 384.263 546.826 382.784C546.826 381.118 547.133 379.909 547.748 379.159C548.279 378.503 548.998 378.175 549.904 378.175C550.581 378.175 551.133 378.368 551.56 378.753C551.998 379.128 552.258 379.649 552.341 380.315ZM548.045 384.019C548.045 384.383 548.118 384.732 548.263 385.065C548.42 385.388 548.633 385.638 548.904 385.815C549.185 385.993 549.482 386.081 549.795 386.081C550.232 386.081 550.612 385.904 550.935 385.55C551.258 385.185 551.42 384.696 551.42 384.081C551.42 383.487 551.258 383.019 550.935 382.675C550.623 382.331 550.227 382.159 549.748 382.159C549.269 382.159 548.862 382.331 548.529 382.675C548.206 383.019 548.045 383.466 548.045 384.019ZM553.873 382.565C553.873 381.545 553.977 380.727 554.185 380.112C554.394 379.487 554.701 379.008 555.107 378.675C555.524 378.341 556.045 378.175 556.67 378.175C557.128 378.175 557.529 378.269 557.873 378.456C558.227 378.644 558.519 378.914 558.748 379.269C558.977 379.612 559.154 380.034 559.279 380.534C559.404 381.034 559.466 381.711 559.466 382.565C559.466 383.576 559.362 384.388 559.154 385.003C558.956 385.618 558.649 386.097 558.232 386.44C557.826 386.774 557.305 386.94 556.67 386.94C555.847 386.94 555.196 386.644 554.716 386.05C554.154 385.341 553.873 384.18 553.873 382.565ZM554.951 382.565C554.951 383.972 555.118 384.909 555.451 385.378C555.784 385.847 556.19 386.081 556.67 386.081C557.159 386.081 557.565 385.847 557.888 385.378C558.222 384.909 558.388 383.972 558.388 382.565C558.388 381.149 558.222 380.211 557.888 379.753C557.565 379.284 557.154 379.05 556.654 379.05C556.175 379.05 555.789 379.253 555.498 379.659C555.133 380.18 554.951 381.149 554.951 382.565ZM560.873 382.565C560.873 381.545 560.977 380.727 561.185 380.112C561.394 379.487 561.701 379.008 562.107 378.675C562.524 378.341 563.045 378.175 563.67 378.175C564.128 378.175 564.529 378.269 564.873 378.456C565.227 378.644 565.519 378.914 565.748 379.269C565.977 379.612 566.154 380.034 566.279 380.534C566.404 381.034 566.466 381.711 566.466 382.565C566.466 383.576 566.362 384.388 566.154 385.003C565.956 385.618 565.649 386.097 565.232 386.44C564.826 386.774 564.305 386.94 563.67 386.94C562.847 386.94 562.196 386.644 561.716 386.05C561.154 385.341 560.873 384.18 560.873 382.565ZM561.951 382.565C561.951 383.972 562.118 384.909 562.451 385.378C562.784 385.847 563.19 386.081 563.67 386.081C564.159 386.081 564.565 385.847 564.888 385.378C565.222 384.909 565.388 383.972 565.388 382.565C565.388 381.149 565.222 380.211 564.888 379.753C564.565 379.284 564.154 379.05 563.654 379.05C563.175 379.05 562.789 379.253 562.498 379.659C562.133 380.18 561.951 381.149 561.951 382.565Z" fill="black"/>
<path d="M657.646 386.8V384.737H653.928V383.769L657.849 378.206H658.709V383.769H659.865V384.737H658.709V386.8H657.646ZM657.646 383.769V379.909L654.959 383.769H657.646ZM664.646 386.8V384.737H660.928V383.769L664.849 378.206H665.709V383.769H666.865V384.737H665.709V386.8H664.646ZM664.646 383.769V379.909L661.959 383.769H664.646ZM669.896 382.144C669.459 381.977 669.131 381.748 668.912 381.456C668.704 381.154 668.599 380.8 668.599 380.394C668.599 379.769 668.823 379.243 669.271 378.815C669.73 378.388 670.329 378.175 671.068 378.175C671.818 378.175 672.422 378.394 672.881 378.831C673.339 379.269 673.568 379.8 673.568 380.425C673.568 380.821 673.464 381.164 673.256 381.456C673.047 381.748 672.73 381.977 672.303 382.144C672.834 382.31 673.235 382.586 673.506 382.972C673.776 383.357 673.912 383.815 673.912 384.347C673.912 385.076 673.651 385.69 673.131 386.19C672.62 386.69 671.938 386.94 671.084 386.94C670.24 386.94 669.558 386.69 669.037 386.19C668.516 385.69 668.256 385.065 668.256 384.315C668.256 383.753 668.396 383.284 668.678 382.909C668.969 382.534 669.375 382.279 669.896 382.144ZM669.678 380.347C669.678 380.753 669.808 381.086 670.068 381.347C670.339 381.607 670.683 381.737 671.099 381.737C671.506 381.737 671.839 381.612 672.099 381.362C672.36 381.102 672.49 380.784 672.49 380.409C672.49 380.024 672.355 379.701 672.084 379.44C671.813 379.17 671.48 379.034 671.084 379.034C670.678 379.034 670.339 379.164 670.068 379.425C669.808 379.685 669.678 379.993 669.678 380.347ZM669.349 384.315C669.349 384.618 669.417 384.909 669.553 385.19C669.698 385.472 669.912 385.69 670.193 385.847C670.474 386.003 670.777 386.081 671.099 386.081C671.599 386.081 672.011 385.92 672.334 385.597C672.667 385.274 672.834 384.862 672.834 384.362C672.834 383.852 672.667 383.43 672.334 383.097C672 382.763 671.579 382.597 671.068 382.597C670.568 382.597 670.157 382.763 669.834 383.097C669.511 383.42 669.349 383.826 669.349 384.315ZM675.271 382.565C675.271 381.545 675.375 380.727 675.584 380.112C675.792 379.487 676.099 379.008 676.506 378.675C676.922 378.341 677.443 378.175 678.068 378.175C678.527 378.175 678.928 378.269 679.271 378.456C679.625 378.644 679.917 378.914 680.146 379.269C680.375 379.612 680.553 380.034 680.678 380.534C680.803 381.034 680.865 381.711 680.865 382.565C680.865 383.576 680.761 384.388 680.553 385.003C680.355 385.618 680.047 386.097 679.631 386.44C679.224 386.774 678.704 386.94 678.068 386.94C677.245 386.94 676.594 386.644 676.115 386.05C675.553 385.341 675.271 384.18 675.271 382.565ZM676.349 382.565C676.349 383.972 676.516 384.909 676.849 385.378C677.183 385.847 677.589 386.081 678.068 386.081C678.558 386.081 678.964 385.847 679.287 385.378C679.62 384.909 679.787 383.972 679.787 382.565C679.787 381.149 679.62 380.211 679.287 379.753C678.964 379.284 678.553 379.05 678.053 379.05C677.573 379.05 677.188 379.253 676.896 379.659C676.532 380.18 676.349 381.149 676.349 382.565ZM682.271 382.565C682.271 381.545 682.375 380.727 682.584 380.112C682.792 379.487 683.099 379.008 683.506 378.675C683.922 378.341 684.443 378.175 685.068 378.175C685.527 378.175 685.928 378.269 686.271 378.456C686.625 378.644 686.917 378.914 687.146 379.269C687.375 379.612 687.553 380.034 687.678 380.534C687.803 381.034 687.865 381.711 687.865 382.565C687.865 383.576 687.761 384.388 687.553 385.003C687.355 385.618 687.047 386.097 686.631 386.44C686.224 386.774 685.704 386.94 685.068 386.94C684.245 386.94 683.594 386.644 683.115 386.05C682.553 385.341 682.271 384.18 682.271 382.565ZM683.349 382.565C683.349 383.972 683.516 384.909 683.849 385.378C684.183 385.847 684.589 386.081 685.068 386.081C685.558 386.081 685.964 385.847 686.287 385.378C686.62 384.909 686.787 383.972 686.787 382.565C686.787 381.149 686.62 380.211 686.287 379.753C685.964 379.284 685.553 379.05 685.053 379.05C684.573 379.05 684.188 379.253 683.896 379.659C683.532 380.18 683.349 381.149 683.349 382.565Z" fill="black"/>
<path d="M580.847 65.5127V66.7002H574.222C574.211 66.4085 574.258 66.1221 574.363 65.8408C574.54 65.3929 574.81 64.9502 575.175 64.5127C575.55 64.0752 576.086 63.57 576.784 62.9971C577.878 62.1012 578.613 61.3929 578.988 60.8721C579.373 60.3512 579.566 59.8564 579.566 59.3877C579.566 58.8981 579.389 58.4867 579.034 58.1533C578.691 57.82 578.243 57.6533 577.691 57.6533C577.097 57.6533 576.618 57.8304 576.253 58.1846C575.899 58.5387 575.722 59.0335 575.722 59.6689L574.456 59.5283C574.54 58.5908 574.862 57.8773 575.425 57.3877C575.998 56.8877 576.758 56.6377 577.706 56.6377C578.675 56.6377 579.435 56.9033 579.988 57.4346C580.55 57.9658 580.831 58.6273 580.831 59.4189C580.831 59.8252 580.748 60.221 580.581 60.6064C580.425 60.9919 580.154 61.3981 579.769 61.8252C579.394 62.2523 578.764 62.8408 577.878 63.5908C577.139 64.2054 576.665 64.6273 576.456 64.8564C576.248 65.0752 576.076 65.2939 575.941 65.5127H580.847ZM582.378 61.7627C582.378 60.5752 582.498 59.6221 582.738 58.9033C582.988 58.1742 583.352 57.6169 583.831 57.2314C584.31 56.8356 584.915 56.6377 585.644 56.6377C586.185 56.6377 586.659 56.7471 587.066 56.9658C587.472 57.1846 587.805 57.4971 588.066 57.9033C588.336 58.3096 588.545 58.8044 588.691 59.3877C588.836 59.971 588.909 60.7627 588.909 61.7627C588.909 62.9398 588.79 63.8877 588.55 64.6064C588.31 65.3252 587.951 65.8825 587.472 66.2783C586.993 66.6742 586.383 66.8721 585.644 66.8721C584.685 66.8721 583.93 66.5231 583.378 65.8252C582.711 64.9919 582.378 63.6377 582.378 61.7627ZM583.644 61.7627C583.644 63.4085 583.836 64.5023 584.222 65.0439C584.607 65.5856 585.081 65.8564 585.644 65.8564C586.217 65.8564 586.696 65.5856 587.081 65.0439C587.467 64.4919 587.659 63.3981 587.659 61.7627C587.659 60.1064 587.467 59.0075 587.081 58.4658C586.696 57.9242 586.211 57.6533 585.628 57.6533C585.066 57.6533 584.618 57.8929 584.284 58.3721C583.857 58.9867 583.644 60.1169 583.644 61.7627ZM596.847 65.5127V66.7002H590.222C590.211 66.4085 590.258 66.1221 590.363 65.8408C590.54 65.3929 590.81 64.9502 591.175 64.5127C591.55 64.0752 592.086 63.57 592.784 62.9971C593.878 62.1012 594.613 61.3929 594.988 60.8721C595.373 60.3512 595.566 59.8564 595.566 59.3877C595.566 58.8981 595.389 58.4867 595.034 58.1533C594.691 57.82 594.243 57.6533 593.691 57.6533C593.097 57.6533 592.618 57.8304 592.253 58.1846C591.899 58.5387 591.722 59.0335 591.722 59.6689L590.456 59.5283C590.54 58.5908 590.862 57.8773 591.425 57.3877C591.998 56.8877 592.758 56.6377 593.706 56.6377C594.675 56.6377 595.435 56.9033 595.988 57.4346C596.55 57.9658 596.831 58.6273 596.831 59.4189C596.831 59.8252 596.748 60.221 596.581 60.6064C596.425 60.9919 596.154 61.3981 595.769 61.8252C595.394 62.2523 594.764 62.8408 593.878 63.5908C593.139 64.2054 592.665 64.6273 592.456 64.8564C592.248 65.0752 592.076 65.2939 591.941 65.5127H596.847ZM604.847 65.5127V66.7002H598.222C598.211 66.4085 598.258 66.1221 598.363 65.8408C598.54 65.3929 598.81 64.9502 599.175 64.5127C599.55 64.0752 600.086 63.57 600.784 62.9971C601.878 62.1012 602.613 61.3929 602.988 60.8721C603.373 60.3512 603.566 59.8564 603.566 59.3877C603.566 58.8981 603.389 58.4867 603.034 58.1533C602.691 57.82 602.243 57.6533 601.691 57.6533C601.097 57.6533 600.618 57.8304 600.253 58.1846C599.899 58.5387 599.722 59.0335 599.722 59.6689L598.456 59.5283C598.54 58.5908 598.862 57.8773 599.425 57.3877C599.998 56.8877 600.758 56.6377 601.706 56.6377C602.675 56.6377 603.435 56.9033 603.988 57.4346C604.55 57.9658 604.831 58.6273 604.831 59.4189C604.831 59.8252 604.748 60.221 604.581 60.6064C604.425 60.9919 604.154 61.3981 603.769 61.8252C603.394 62.2523 602.764 62.8408 601.878 63.5908C601.139 64.2054 600.665 64.6273 600.456 64.8564C600.248 65.0752 600.076 65.2939 599.941 65.5127H604.847Z" fill="#999999"/>
<path d="M610.175 58.1689C609.487 59.3669 608.633 60.3669 607.612 61.1689L606.847 60.1846C608.336 59.0908 609.357 57.5075 609.909 55.4346L611.159 55.7627C611.305 55.9085 611.253 55.9971 611.003 56.0283L610.566 57.1221H618.269V58.1689H614.284V60.0283H617.566V61.0596H614.284V63.5283H618.878V64.5596H614.284V67.8564H613.191V64.5596H606.894V63.5283H609.362V60.0283H613.191V58.1689H610.175ZM610.456 63.5283H613.191V61.0596H610.456V63.5283Z" fill="#999999"/>
<path d="M620.566 64.3877L621.753 64.2783C621.847 64.8304 622.034 65.2314 622.316 65.4814C622.607 65.7314 622.972 65.8564 623.409 65.8564C623.784 65.8564 624.112 65.7731 624.394 65.6064C624.685 65.4294 624.92 65.195 625.097 64.9033C625.284 64.6117 625.441 64.221 625.566 63.7314C625.691 63.2419 625.753 62.7419 625.753 62.2314C625.753 62.1794 625.748 62.096 625.737 61.9814C625.498 62.3773 625.165 62.7002 624.737 62.9502C624.31 63.1898 623.847 63.3096 623.347 63.3096C622.514 63.3096 621.81 63.0075 621.237 62.4033C620.665 61.7992 620.378 61.0075 620.378 60.0283C620.378 59.0075 620.675 58.1898 621.269 57.5752C621.873 56.9502 622.628 56.6377 623.534 56.6377C624.18 56.6377 624.774 56.8148 625.316 57.1689C625.857 57.5127 626.269 58.0127 626.55 58.6689C626.831 59.3148 626.972 60.2523 626.972 61.4814C626.972 62.7627 626.831 63.7835 626.55 64.5439C626.279 65.3044 625.868 65.8825 625.316 66.2783C624.764 66.6742 624.118 66.8721 623.378 66.8721C622.597 66.8721 621.956 66.6533 621.456 66.2158C620.967 65.7783 620.67 65.1689 620.566 64.3877ZM625.597 59.9658C625.597 59.2575 625.409 58.695 625.034 58.2783C624.659 57.8617 624.211 57.6533 623.691 57.6533C623.139 57.6533 622.659 57.8773 622.253 58.3252C621.847 58.7731 621.644 59.3512 621.644 60.0596C621.644 60.695 621.836 61.2158 622.222 61.6221C622.607 62.0179 623.081 62.2158 623.644 62.2158C624.217 62.2158 624.685 62.0179 625.05 61.6221C625.415 61.2158 625.597 60.6637 625.597 59.9658Z" fill="#999999"/>
<path d="M637.706 63.5283H632.503C632.503 65.0908 631.701 66.57 630.097 67.9658L629.175 66.9189C630.665 65.971 631.409 64.5492 631.409 62.6533V55.9814H638.8V66.7627C638.8 67.346 638.487 67.6377 637.862 67.6377H636.55L636.331 66.4189H637.487C637.633 66.4189 637.706 66.346 637.706 66.2002V63.5283ZM632.503 62.3252H637.706V60.3564H632.503V62.3252ZM632.503 59.1533H637.706V57.1846H632.503V59.1533Z" fill="#999999"/>
<path d="M648.847 65.5127V66.7002H642.222C642.211 66.4085 642.258 66.1221 642.363 65.8408C642.54 65.3929 642.81 64.9502 643.175 64.5127C643.55 64.0752 644.086 63.57 644.784 62.9971C645.878 62.1012 646.613 61.3929 646.988 60.8721C647.373 60.3512 647.566 59.8564 647.566 59.3877C647.566 58.8981 647.389 58.4867 647.034 58.1533C646.691 57.82 646.243 57.6533 645.691 57.6533C645.097 57.6533 644.618 57.8304 644.253 58.1846C643.899 58.5387 643.722 59.0335 643.722 59.6689L642.456 59.5283C642.54 58.5908 642.862 57.8773 643.425 57.3877C643.998 56.8877 644.758 56.6377 645.706 56.6377C646.675 56.6377 647.435 56.9033 647.988 57.4346C648.55 57.9658 648.831 58.6273 648.831 59.4189C648.831 59.8252 648.748 60.221 648.581 60.6064C648.425 60.9919 648.154 61.3981 647.769 61.8252C647.394 62.2523 646.764 62.8408 645.878 63.5908C645.139 64.2054 644.665 64.6273 644.456 64.8564C644.248 65.0752 644.076 65.2939 643.941 65.5127H648.847ZM650.566 64.3877L651.753 64.2783C651.847 64.8304 652.034 65.2314 652.316 65.4814C652.607 65.7314 652.972 65.8564 653.409 65.8564C653.784 65.8564 654.113 65.7731 654.394 65.6064C654.685 65.4294 654.92 65.195 655.097 64.9033C655.284 64.6117 655.441 64.221 655.566 63.7314C655.691 63.2419 655.753 62.7419 655.753 62.2314C655.753 62.1794 655.748 62.096 655.738 61.9814C655.498 62.3773 655.165 62.7002 654.738 62.9502C654.31 63.1898 653.847 63.3096 653.347 63.3096C652.514 63.3096 651.81 63.0075 651.238 62.4033C650.665 61.7992 650.378 61.0075 650.378 60.0283C650.378 59.0075 650.675 58.1898 651.269 57.5752C651.873 56.9502 652.628 56.6377 653.534 56.6377C654.18 56.6377 654.774 56.8148 655.316 57.1689C655.857 57.5127 656.269 58.0127 656.55 58.6689C656.831 59.3148 656.972 60.2523 656.972 61.4814C656.972 62.7627 656.831 63.7835 656.55 64.5439C656.279 65.3044 655.868 65.8825 655.316 66.2783C654.764 66.6742 654.118 66.8721 653.378 66.8721C652.597 66.8721 651.956 66.6533 651.456 66.2158C650.967 65.7783 650.67 65.1689 650.566 64.3877ZM655.597 59.9658C655.597 59.2575 655.409 58.695 655.034 58.2783C654.659 57.8617 654.211 57.6533 653.691 57.6533C653.139 57.6533 652.659 57.8773 652.253 58.3252C651.847 58.7731 651.644 59.3512 651.644 60.0596C651.644 60.695 651.836 61.2158 652.222 61.6221C652.607 62.0179 653.081 62.2158 653.644 62.2158C654.217 62.2158 654.685 62.0179 655.05 61.6221C655.415 61.2158 655.597 60.6637 655.597 59.9658Z" fill="#999999"/>
<path d="M661.8 67.2002H660.534V56.6377H669.128V66.9814H667.862V66.2002H661.8V67.2002ZM667.862 60.7939V57.6689H661.8V60.7939H667.862ZM667.862 65.1689V61.8252H661.8V65.1689H667.862ZM682.081 59.8564H684.659V60.7314H682.362V61.9971H684.222V62.8721H682.362V64.1846H684.222V65.0596H682.362V66.4189H685.097V67.3096H679.566V67.8564H678.644V61.7783C678.352 62.1742 677.987 62.5387 677.55 62.8721L677.159 61.8252C678.545 60.5856 679.441 59.2939 679.847 57.9502H678.581V59.2002H677.659V57.0752H680.066C680.211 56.4919 680.336 55.8721 680.441 55.2158L681.534 55.4814C681.649 55.596 681.612 55.7054 681.425 55.8096C681.321 56.2471 681.211 56.6689 681.097 57.0752H684.987V58.9814H684.05V57.9502H680.878C680.659 58.7106 680.368 59.346 680.003 59.8564H681.159L681.862 58.2158L682.909 58.4346C683.086 58.5075 683.05 58.6012 682.8 58.7158L682.081 59.8564ZM672.847 57.3408V56.3096H677.487V57.3408H675.581C675.508 58.4762 675.269 59.5179 674.862 60.4658H677.003V66.9814H676.066V66.0908H674.644V67.5283H673.722V62.5908C673.503 62.9554 673.264 63.2835 673.003 63.5752L672.3 62.6533C673.571 61.2262 674.316 59.4554 674.534 57.3408H672.847ZM679.566 62.8721V64.1846H681.425V62.8721H679.566ZM679.566 60.7314V61.9971H681.425V60.7314H679.566ZM679.566 65.0596V66.4189H681.425V65.0596H679.566ZM674.644 61.3408V65.2158H676.066V61.3408H674.644ZM691.222 61.4502C692.566 61.0856 693.42 60.3721 693.784 59.3096L692.316 58.7158L692.691 57.7783L694.003 58.2783L694.112 56.9658H691.816V55.9189H698.378L698.269 60.6221C698.237 61.5387 697.857 61.9971 697.128 61.9971H695.862L695.753 60.9502H696.909C697.128 60.9502 697.237 60.8408 697.237 60.6221L697.347 56.9658H695.206L695.05 58.7158L696.362 59.4189L695.862 60.4033L694.769 59.8096C694.3 61.1533 693.264 62.0648 691.659 62.5439L691.222 61.4502ZM698.159 66.9189C697.868 65.8252 697.415 64.8773 696.8 64.0752L697.784 63.6377C698.586 64.6169 699.097 65.5439 699.316 66.4189L698.159 66.9189ZM690.831 63.4658V67.6846H689.909V67.3096H688.05V67.9033H687.112V63.4658H690.831ZM691.269 66.9814C691.529 66.0648 691.696 65.0231 691.769 63.8564L692.862 63.9658C692.935 63.9971 692.899 64.0856 692.753 64.2314C692.711 65.3981 692.545 66.4033 692.253 67.2471L691.269 66.9814ZM694.769 61.6689C695.279 61.9919 695.79 62.5544 696.3 63.3564L695.269 63.9658C695.008 63.4554 694.571 62.8721 693.956 62.2158L694.769 61.6689ZM687.331 55.7002H690.612V56.7471H687.331V55.7002ZM686.628 57.5596H691.331V58.6064H686.628V57.5596ZM687.331 59.5908H690.612V60.6221H687.331V59.5908ZM687.331 61.4502H690.612V62.4814H687.331V61.4502ZM688.05 64.3408V66.4189H689.909V64.3408H688.05ZM694.222 63.3096C694.514 63.3408 694.534 63.4502 694.284 63.6377V66.2002C694.284 66.4606 694.394 66.5908 694.612 66.5908H695.816C696.034 66.5908 696.159 66.4814 696.191 66.2627L696.3 65.3877L697.394 65.6533L697.175 66.8096C697.071 67.3617 696.743 67.6377 696.191 67.6377H694.112C693.498 67.6377 693.191 67.3044 693.191 66.6377V63.3096H694.222Z" fill="#999999"/>
<path d="M35.1844 27.0596V25.1846H36.9031C37.424 25.2887 37.45 25.4971 36.9813 25.8096V27.0596H44.4031V31.0439H42.8406V28.5439H29.5594V31.0439H27.9969V27.0596H35.1844ZM41.1219 35.1064H39.5594V34.6377H37.1375L36.5125 36.6689H42.6063V42.6846H41.0438V42.0596H31.3563V42.9189H29.7938V36.6689H34.7938L35.3406 34.6377H32.7625V35.3408H31.2V30.0283H41.1219V35.1064ZM39.5594 31.2783H32.7625V33.3877H39.5594V31.2783ZM31.3563 37.9189V40.8096H41.0438V37.9189H31.3563ZM50.8094 36.4346L52.3719 35.8096L52.7625 37.1377L48.1531 39.2471C48.1011 39.6117 47.9708 39.6898 47.7625 39.4814L46.9031 37.7627L49.2469 36.9814V31.0439H47.3719V29.5596H49.2469V25.4189H50.7313C51.1479 25.471 51.174 25.6273 50.8094 25.8877V29.5596H52.6063V31.0439H50.8094V36.4346ZM62.3719 25.5752C63.3094 26.0439 64.0125 26.6429 64.4813 27.3721L63.3094 28.5439C62.7886 27.7627 62.1115 27.1377 61.2781 26.6689L62.3719 25.5752ZM56.7469 33.9346H54.7156V35.8096C54.7156 38.6221 53.5177 40.8617 51.1219 42.5283L50.1063 41.1221C52.1375 39.82 53.1531 37.8669 53.1531 35.2627V28.6221H59.0125V24.9502L60.4969 25.0283C60.9136 25.0804 60.9396 25.2367 60.575 25.4971V28.6221H64.8719V30.1064H60.6531L60.7313 31.6689C60.7833 33.1794 60.8875 34.6637 61.0438 36.1221C61.8771 34.4033 62.45 32.8669 62.7625 31.5127L64.325 32.2939C64.4292 32.5023 64.3511 32.6325 64.0906 32.6846C63.2573 35.0283 62.45 36.7992 61.6688 37.9971C62.45 39.5596 63.075 40.3408 63.5438 40.3408C63.7 40.3408 63.8563 39.5856 64.0125 38.0752L65.4969 38.9346C65.1844 41.2262 64.6896 42.3721 64.0125 42.3721C62.7104 42.3721 61.5646 41.3564 60.575 39.3252C59.2729 40.9398 57.8927 42.1117 56.4344 42.8408L55.575 41.5127C57.5542 40.3148 58.9865 39.0648 59.8719 37.7627C59.5073 36.2523 59.2729 34.3252 59.1688 31.9814L59.0906 30.1064H54.7156V32.4502H58.1531L58.075 37.1377C58.075 38.3877 57.6844 39.0127 56.9031 39.0127H55.4188L55.2625 37.5283H56.3563C56.5646 37.5283 56.6688 37.4242 56.6688 37.2158L56.7469 33.9346ZM80.1844 37.6064C81.2261 38.6481 82.7625 39.6898 84.7938 40.7314L83.8563 42.3721C82.0854 41.5387 80.4188 40.3408 78.8563 38.7783L80.1844 37.6064ZM73.3875 39.0127C72.5021 40.2627 71.1479 41.4867 69.325 42.6846L68.1531 41.2002C69.8198 40.2106 71.1479 39.0387 72.1375 37.6846L73.6219 38.5439C73.8823 38.7523 73.8042 38.9085 73.3875 39.0127ZM70.1844 36.9814V37.7627H68.6219V26.5127H70.1063C70.5229 26.5648 70.549 26.721 70.1844 26.9814V35.4971H84.5594V36.9814H77.2938V42.9971H75.4969V36.9814H70.1844ZM73.6219 33.2314H80.4188V31.7471H73.6219V33.2314ZM73.6219 30.4971H80.4188V29.2471H73.6219V30.4971ZM73.6219 27.9971H80.4188V26.7471H73.6219V27.9971ZM72.0594 34.4814V25.4971H81.9813V34.4814H72.0594ZM96.9813 30.1846C96.0958 35.3929 95.0281 38.6221 93.7781 39.8721C93.1011 40.5492 92.3979 40.8877 91.6688 40.8877C90.8354 40.8877 90.1844 40.6533 89.7156 40.1846C88.4656 38.9346 87.8406 37.3721 87.8406 35.4971C87.8406 33.2054 88.6479 31.2523 90.2625 29.6377C92.0333 27.8669 94.1948 26.9814 96.7469 26.9814C99.0386 26.9814 100.835 27.6325 102.138 28.9346C103.596 30.3929 104.325 32.1117 104.325 34.0908C104.325 36.2262 103.648 37.971 102.294 39.3252C101.408 40.2106 100.054 41.07 98.2313 41.9033L96.5906 40.2627C98.4136 39.6898 99.8458 38.8825 100.888 37.8408C101.877 36.8512 102.372 35.6533 102.372 34.2471C102.372 32.5804 101.825 31.2002 100.731 30.1064C99.6375 29.0127 97.9188 28.5179 95.575 28.6221L96.9813 29.3252C97.6063 29.5856 97.6063 29.8721 96.9813 30.1846ZM95.1844 28.7002C93.8302 29.0127 92.6583 29.6637 91.6688 30.6533C90.3146 32.0075 89.6375 33.6742 89.6375 35.6533C89.6375 36.8512 90.0281 37.8408 90.8094 38.6221C90.9656 38.7783 91.2 38.8564 91.5125 38.8564C91.825 38.8564 92.1636 38.6742 92.5281 38.3096C93.7261 37.1117 94.6115 33.9085 95.1844 28.7002ZM114.325 41.5127C116.46 40.3669 117.528 38.4137 117.528 35.6533V26.6689L119.169 26.9814L123.388 25.6533L124.559 27.2158C124.664 27.5283 124.481 27.5804 124.013 27.3721L119.091 28.3096V31.6689H125.263V33.1533H122.919V42.9189H121.356V33.1533H119.091V36.1221C119.091 39.195 117.789 41.4867 115.184 42.9971L114.325 41.5127ZM112.841 42.9971H111.278V38.3096C110.445 39.6637 109.533 40.7314 108.544 41.5127L107.372 40.1064C108.83 39.0648 110.054 37.7627 111.044 36.2002H107.763V34.7158H111.278V32.9971H107.294V31.5127H112.763L113.622 28.7002H107.841V27.2158H111.278V25.0283H112.763C113.179 25.0804 113.205 25.2367 112.841 25.4971V27.2158H116.278V28.7002H115.263L114.169 31.5127H116.669V32.9971H112.841V34.7158H116.278V36.2002H112.841V36.9033C113.57 37.1117 114.585 37.6585 115.888 38.5439L114.95 40.1064C114.221 39.3773 113.518 38.8044 112.841 38.3877V42.9971ZM109.716 31.3564C109.507 30.6273 109.221 29.9242 108.856 29.2471L110.341 28.7783C110.757 29.4554 111.07 30.1585 111.278 30.8877L109.716 31.3564ZM142.45 33.5439H137.372V35.2627H142.45V33.5439ZM140.341 36.7471H138.934V37.5283C138.934 40.7575 137.085 42.6585 133.388 43.2314L132.919 41.5908C135.888 41.2262 137.372 39.82 137.372 37.3721V36.7471H136.591H135.809V25.8096H144.013V36.7471H141.903V40.6533C141.903 41.07 142.085 41.2783 142.45 41.2783H143.231C143.492 41.2783 143.648 41.0179 143.7 40.4971L143.856 39.1689L145.419 39.6377L145.184 41.4346C145.08 42.32 144.585 42.7627 143.7 42.7627H141.747C140.809 42.7627 140.341 42.32 140.341 41.4346V36.7471ZM137.372 32.0596H142.45V30.4189H137.372V32.0596ZM137.372 28.9346H142.45V27.2939H137.372V28.9346ZM131.747 35.8877C132.789 36.3564 134.013 37.2158 135.419 38.4658L134.325 40.1064C133.231 38.9085 132.268 38.0231 131.434 37.4502C130.914 39.7419 129.82 41.5387 128.153 42.8408L126.981 41.4346C129.273 39.5075 130.367 37.0075 130.263 33.9346H127.294V32.4502H130.341V29.6377H127.841V28.1533H130.341V25.0283H131.825C132.242 25.0804 132.268 25.2367 131.903 25.4971V28.1533H134.638V29.6377H131.903V32.4502H135.028V33.9346H131.825C131.825 34.7679 131.799 35.4189 131.747 35.8877ZM151.825 32.1377C152.815 33.4919 153.309 34.8981 153.309 36.3564C153.309 38.3877 152.71 39.4033 151.513 39.4033H150.575L150.263 37.8408H151.044C151.565 37.8408 151.799 37.2939 151.747 36.2002C151.695 34.6898 151.226 33.3617 150.341 32.2158L151.903 27.1377H149.481V42.7627H147.919V25.8877H152.294L152.606 25.4971L153.934 26.6689L153.622 26.9814L151.825 32.1377ZM163.153 36.5127H162.372C161.539 40.3148 158.752 42.5023 154.013 43.0752L153.544 41.5908C157.606 41.2783 160.054 39.5856 160.888 36.5127H159.794C158.908 38.7002 157.033 40.0283 154.169 40.4971L153.7 39.1689C156.096 38.6481 157.58 37.7627 158.153 36.5127H156.903C156.174 37.2419 155.236 37.8148 154.091 38.2314L153.466 36.9033C155.132 36.3825 156.278 35.3929 156.903 33.9346H153.388V32.6846H165.106V33.9346H158.544C158.335 34.4033 158.075 34.846 157.763 35.2627H164.638L164.481 40.1846C164.429 41.8512 163.83 42.6846 162.684 42.6846H161.122L160.888 41.2002H162.216C162.684 41.2002 162.945 40.8877 162.997 40.2627L163.153 36.5127ZM156.513 30.4189H161.825V29.0908H156.513V30.4189ZM156.513 27.8408H161.825V26.5908H156.513V27.8408ZM163.153 25.3408V31.6689H155.184V25.3408H163.153ZM176.434 29.3252H178.544V25.2627H180.028C180.445 25.3148 180.471 25.471 180.106 25.7314V29.3252H184.325V30.8096H180.106V34.5596H184.091V36.0439H180.106V40.6533H185.263V42.1377H173.309V40.6533H178.544V36.0439H174.716V34.5596H178.544V30.8096H175.966C175.601 31.8512 175.028 32.8929 174.247 33.9346L172.919 32.9189C174.273 31.1481 175.158 29.0127 175.575 26.5127L177.059 26.8252C177.476 26.9814 177.476 27.1377 177.059 27.2939L176.434 29.3252ZM169.794 25.0283H171.278C171.695 25.0804 171.721 25.2367 171.356 25.4971V42.8408H169.794V25.0283ZM172.763 28.2314C173.231 28.8564 173.622 29.5596 173.934 30.3408L172.684 31.2002C172.32 30.3148 171.955 29.5856 171.591 29.0127L172.763 28.2314ZM169.325 29.0908C169.69 29.195 169.69 29.3512 169.325 29.5596C169.221 31.2262 168.986 32.7887 168.622 34.2471L167.138 33.7783C167.554 32.4762 167.789 30.8356 167.841 28.8564L169.325 29.0908ZM202.138 33.6221V42.6846H200.575V41.9033H193.544V42.9189H191.981V35.8096C190.627 36.5387 189.169 37.1117 187.606 37.5283L187.059 36.1221C188.518 35.7575 190.158 35.1064 191.981 34.1689V33.6221H193.075C194.169 32.9971 195.106 32.3721 195.888 31.7471H187.684V30.2627H194.559V28.3877H189.716V26.9033H194.559V25.0283H196.044C196.46 25.0804 196.486 25.2367 196.122 25.4971V26.9033H199.872V28.2314C200.497 27.5544 201.122 26.7992 201.747 25.9658L202.841 26.6689C203.205 26.9294 203.153 27.0856 202.684 27.1377C201.695 28.3356 200.705 29.3773 199.716 30.2627H205.106V31.7471H198.075C197.033 32.6325 196.2 33.2575 195.575 33.6221H202.138ZM197.606 30.2627C198.231 29.7939 198.934 29.1689 199.716 28.3877H196.122V30.2627H197.606ZM193.544 36.9814H200.575V34.8721H193.544V36.9814ZM193.544 40.6533H200.575V38.2314H193.544V40.6533ZM220.731 36.9033C221.46 35.4971 221.903 33.3617 222.059 30.4971H219.403C219.559 33.3617 220.002 35.4971 220.731 36.9033ZM223.622 30.4971C223.518 33.7262 222.893 36.3304 221.747 38.3096C222.58 39.3512 223.752 40.2627 225.263 41.0439L224.247 42.7627C222.58 41.6689 221.408 40.6273 220.731 39.6377C219.533 40.9919 217.684 42.1637 215.184 43.1533L214.403 41.5908C217.111 40.4971 218.908 39.3773 219.794 38.2314C218.908 36.5127 218.414 34.7939 218.309 33.0752C217.997 33.8564 217.684 34.4554 217.372 34.8721L216.044 33.8564C217.606 31.5648 218.544 28.7262 218.856 25.3408L220.497 25.7314C220.809 25.9398 220.731 26.096 220.263 26.2002C220.106 27.1377 219.898 28.0752 219.638 29.0127H224.95V30.4971H223.622ZM216.356 26.7471C216.044 27.5283 215.679 28.1794 215.263 28.7002L214.013 27.9971C214.429 27.32 214.82 26.5387 215.184 25.6533L216.591 26.3564C216.799 26.5648 216.721 26.695 216.356 26.7471ZM211.356 37.7627C212.085 37.971 212.736 38.2054 213.309 38.4658C213.726 37.9971 214.065 37.2939 214.325 36.3564H212.059C211.851 36.8252 211.617 37.2939 211.356 37.7627ZM210.263 39.7158L209.013 39.0127C209.533 38.2314 210.054 37.346 210.575 36.3564H207.606V35.1064H211.044C211.356 34.4294 211.591 33.8564 211.747 33.3877L213.231 33.7783C213.44 33.9867 213.361 34.1169 212.997 34.1689L212.528 35.1064H216.981V36.3564H215.809C215.549 37.3981 215.158 38.2835 214.638 39.0127C215.106 39.221 215.601 39.4814 216.122 39.7939L215.419 41.0439C214.846 40.6794 214.325 40.3929 213.856 40.1846C212.502 41.5387 210.679 42.3721 208.388 42.6846L207.841 41.2783C209.872 41.07 211.434 40.4971 212.528 39.5596C211.955 39.2992 211.382 39.0648 210.809 38.8564L210.263 39.7158ZM211.825 25.0283H213.075C213.492 25.0804 213.518 25.2367 213.153 25.4971V28.8564H217.138V30.1064H213.856C214.429 30.7835 215.315 31.4346 216.513 32.0596L215.653 33.3877C214.768 32.8669 213.934 32.1377 213.153 31.2002V33.0752H211.825V31.5908C210.992 32.6325 209.846 33.57 208.388 34.4033L207.372 33.1533C208.986 32.32 210.315 31.3044 211.356 30.1064H207.763V28.8564H211.825V25.0283ZM209.638 28.6221C209.273 27.8408 208.804 27.1637 208.231 26.5908L209.481 25.8096C210.106 26.4346 210.575 27.0856 210.888 27.7627L209.638 28.6221ZM236.981 30.1846C236.096 35.3929 235.028 38.6221 233.778 39.8721C233.101 40.5492 232.398 40.8877 231.669 40.8877C230.835 40.8877 230.184 40.6533 229.716 40.1846C228.466 38.9346 227.841 37.3721 227.841 35.4971C227.841 33.2054 228.648 31.2523 230.263 29.6377C232.033 27.8669 234.195 26.9814 236.747 26.9814C239.039 26.9814 240.835 27.6325 242.138 28.9346C243.596 30.3929 244.325 32.1117 244.325 34.0908C244.325 36.2262 243.648 37.971 242.294 39.3252C241.408 40.2106 240.054 41.07 238.231 41.9033L236.591 40.2627C238.414 39.6898 239.846 38.8825 240.888 37.8408C241.877 36.8512 242.372 35.6533 242.372 34.2471C242.372 32.5804 241.825 31.2002 240.731 30.1064C239.638 29.0127 237.919 28.5179 235.575 28.6221L236.981 29.3252C237.606 29.5856 237.606 29.8721 236.981 30.1846ZM235.184 28.7002C233.83 29.0127 232.658 29.6637 231.669 30.6533C230.315 32.0075 229.638 33.6742 229.638 35.6533C229.638 36.8512 230.028 37.8408 230.809 38.6221C230.966 38.7783 231.2 38.8564 231.513 38.8564C231.825 38.8564 232.164 38.6742 232.528 38.3096C233.726 37.1117 234.611 33.9085 235.184 28.7002ZM252.763 31.8252C254.481 30.2106 255.809 27.8669 256.747 24.7939L258.309 25.2627C258.57 25.471 258.518 25.6012 258.153 25.6533C257.736 26.695 257.32 27.6585 256.903 28.5439H259.247C259.82 27.346 260.263 26.2783 260.575 25.3408L262.059 25.8877C262.268 26.096 262.19 26.2262 261.825 26.2783C261.46 27.1117 261.096 27.8669 260.731 28.5439H264.716V30.0283H260.731V32.4502H263.934V33.9346H260.731V36.4346H263.934V37.9189H260.731V40.8096H265.184V42.2939H256.591V42.9971H255.028V31.6689C254.664 32.1898 254.273 32.6585 253.856 33.0752L252.763 31.8252ZM248.856 42.8408L248.544 41.3564H249.872C250.08 41.3564 250.184 41.2523 250.184 41.0439V36.2002L248.153 36.6689C248.101 37.0335 247.971 37.1117 247.763 36.9033L247.45 35.1064L250.184 34.5596V30.4189H247.763V28.9346H250.184V24.9502H251.669C252.085 25.0023 252.111 25.1585 251.747 25.4189V28.9346H253.778V30.4189H251.747V34.2471L253.778 33.7002L254.013 35.1064L251.747 35.8096V41.5908C251.747 42.4242 251.33 42.8408 250.497 42.8408H248.856ZM256.591 40.8096H259.169V37.9189H256.591V40.8096ZM256.591 36.4346H259.169V33.9346H256.591V36.4346ZM256.591 32.4502H259.169V30.0283H256.591V32.4502ZM282.841 27.1377L283.075 26.8252L284.325 27.8408L284.091 28.0752C282.736 30.4189 281.408 31.9814 280.106 32.7627L280.888 32.9971C281.252 33.1533 281.226 33.3096 280.809 33.4658C280.705 33.8304 280.575 34.1429 280.419 34.4033H283.778L284.013 34.0908L285.419 35.1064L285.106 35.4189C283.44 39.846 280.054 42.346 274.95 42.9189L274.325 41.4346C276.773 41.1742 278.7 40.5231 280.106 39.4814C279.377 38.7523 278.648 38.1273 277.919 37.6064C277.242 38.1794 276.33 38.7002 275.184 39.1689L274.481 37.7627C277.033 36.721 278.7 35.1325 279.481 32.9971C278.7 33.7262 277.294 34.3512 275.263 34.8721L274.559 33.4658C276.539 33.0492 278.023 32.5023 279.013 31.8252C278.492 31.2002 277.867 30.6533 277.138 30.1846C276.773 30.5492 276.408 30.8617 276.044 31.1221L274.95 29.9502C276.669 28.4919 277.763 26.9294 278.231 25.2627L279.638 25.7314C280.002 25.8877 279.976 26.0439 279.559 26.2002C279.507 26.5127 279.377 26.8252 279.169 27.1377H282.841ZM272.216 30.1846H274.794V31.6689H272.216V33.6221C273.257 34.0908 274.247 34.7939 275.184 35.7314L274.169 37.1377C273.335 36.3044 272.684 35.7054 272.216 35.3408V42.9189H270.653V35.1846C270.341 36.2262 269.481 37.5544 268.075 39.1689L266.903 37.6846C268.83 35.8617 270.028 33.8564 270.497 31.6689H267.45V30.1846H270.653V27.6064C269.611 27.7627 268.674 27.8929 267.841 27.9971L267.45 26.5127C269.533 26.3044 271.695 25.8877 273.934 25.2627L274.794 26.4346C275.002 26.7471 274.872 26.8512 274.403 26.7471C273.674 26.9554 272.945 27.1377 272.216 27.2939V30.1846ZM277.919 29.2471C278.7 29.6637 279.455 30.1846 280.184 30.8096C280.966 30.0804 281.617 29.2731 282.138 28.3877H278.544C278.335 28.7523 278.127 29.0387 277.919 29.2471ZM278.778 36.6689C279.507 37.0856 280.341 37.7106 281.278 38.5439C282.059 37.971 282.736 37.0075 283.309 35.6533H279.716C279.403 36.07 279.091 36.4085 278.778 36.6689ZM290.809 29.3252C291.382 28.1273 292.346 26.9033 293.7 25.6533L294.559 26.4346C293.257 27.6325 292.346 28.7783 291.825 29.8721C291.252 31.07 290.966 32.5023 290.966 34.1689C290.966 35.5752 291.252 36.9033 291.825 38.1533C292.346 39.2992 293.257 40.5752 294.559 41.9814L293.7 42.8408C292.398 41.3825 291.434 40.0023 290.809 38.7002C290.132 37.2939 289.794 35.7835 289.794 34.1689C289.794 32.346 290.132 30.7314 290.809 29.3252ZM301.903 41.9033H300.106V26.8252H312.372V41.5908H310.575V40.4971H301.903V41.9033ZM310.575 32.7627V28.3096H301.903V32.7627H310.575ZM310.575 39.0127V34.2471H301.903V39.0127H310.575ZM325.341 35.8096H322.372C321.903 38.7783 320.497 41.1221 318.153 42.8408L317.372 41.3564C319.664 39.7419 320.914 37.346 321.122 34.1689L321.278 31.7471H320.184V32.7627H318.622V26.0439H326.513V32.4502H324.95V31.7471H322.684L322.528 34.3252H326.903L326.513 40.4971C326.408 41.7471 325.888 42.3721 324.95 42.3721H322.841L322.606 40.8877H324.325C324.794 40.8877 325.054 40.6273 325.106 40.1064L325.341 35.8096ZM333.778 41.2002C333.778 42.0856 333.361 42.5283 332.528 42.5283H330.809L330.497 41.0439H331.981C332.138 41.0439 332.216 40.9658 332.216 40.8096V25.8096H333.7C334.117 25.8617 334.143 26.0179 333.778 26.2783V41.2002ZM330.028 27.6846C330.445 27.7367 330.471 27.8929 330.106 28.1533V38.8564H328.544V27.6846H330.028ZM324.95 30.4971V27.2939H320.184V30.4971H324.95ZM341.513 38.7002C340.888 40.0023 339.924 41.3825 338.622 42.8408L337.763 41.9814C339.065 40.5752 339.976 39.2992 340.497 38.1533C341.07 36.9033 341.356 35.5752 341.356 34.1689C341.356 32.5023 341.07 31.07 340.497 29.8721C339.976 28.7783 339.065 27.6325 337.763 26.4346L338.622 25.6533C339.976 26.9033 340.94 28.1273 341.513 29.3252C342.19 30.7314 342.528 32.346 342.528 34.1689C342.528 35.7835 342.19 37.2939 341.513 38.7002Z" fill="#757575"/>
</g>
<rect x="6" y="2" width="714" height="440" stroke="black" stroke-width="4" shape-rendering="crispEdges"/>
</g>
<defs>
<filter id="filter0_d_7_19765" x="0" y="0" width="726" height="452" filterUnits="userSpaceOnUse" color-interpolation-filters="sRGB">
<feFlood flood-opacity="0" result="BackgroundImageFix"/>
<feColorMatrix in="SourceAlpha" type="matrix" values="0 0 0 0 0 0 0 0 0 0 0 0 0 0 0 0 0 0 127 0" result="hardAlpha"/>
<feOffset dy="4"/>
<feGaussianBlur stdDeviation="2"/>
<feComposite in2="hardAlpha" operator="out"/>
<feColorMatrix type="matrix" values="0 0 0 0 0 0 0 0 0 0 0 0 0 0 0 0 0 0 0.25 0"/>
<feBlend mode="normal" in2="BackgroundImageFix" result="effect1_dropShadow_7_19765"/>
<feBlend mode="normal" in="SourceGraphic" in2="effect1_dropShadow_7_19765" result="shape"/>
</filter>
<clipPath id="clip0_7_19765">
<rect x="4" width="718" height="444" fill="white"/>
</clipPath>
</defs>
</svg>
