<svg width="718" height="444" viewBox="0 0 718 444" fill="none" xmlns="http://www.w3.org/2000/svg">
<g clip-path="url(#clip0_7_22872)">
<path d="M0 0H718V444H0V0Z" fill="white"/>
<path d="M181.5 91.5V369.5" stroke="#CCCCCC" stroke-miterlimit="10"/>
<path d="M302.5 91.5V369.5" stroke="#CCCCCC" stroke-miterlimit="10"/>
<path d="M424.5 91.5V369.5" stroke="#CCCCCC" stroke-miterlimit="10"/>
<path d="M545.5 91.5V369.5" stroke="#CCCCCC" stroke-miterlimit="10"/>
<path d="M666.5 91.5V369.5" stroke="#CCCCCC" stroke-miterlimit="10"/>
<path d="M88.5 369.5H695.5" stroke="#333333" stroke-miterlimit="10"/>
<path d="M88.5 314.5H695.5" stroke="#CCCCCC" stroke-miterlimit="10"/>
<path d="M88.5 258.5H695.5" stroke="#CCCCCC" stroke-miterlimit="10"/>
<path d="M88.5 202.5H695.5" stroke="#CCCCCC" stroke-miterlimit="10"/>
<path d="M88.5 147.5H695.5" stroke="#CCCCCC" stroke-miterlimit="10"/>
<path d="M88.5 91.5H695.5" stroke="#CCCCCC" stroke-miterlimit="10"/>
<path d="M88.2 369.8H88.8064H89.4128H90.0192H90.6255H91.2319H91.8383H92.4447H93.0511H93.6575H94.2639H94.8703H95.4766H96.083H96.6894H97.2958H97.9022H98.5086H99.115H99.7214H100.328H100.934H101.541H102.147H102.753H103.36H103.966H104.572H105.179H105.785H106.392H106.998H107.604H108.211H108.817H109.424H110.03H110.636H111.243H111.849H112.455H113.062H113.668H114.275H114.881H115.487H116.094H116.7H117.307H117.913H118.519H119.126H119.732H120.339H120.945H121.551H122.158H122.764L123.37 369.744L123.977 369.8H124.583H125.19H125.796H126.402H127.009H127.615H128.222H128.828H129.434L130.041 369.744L130.647 369.8H131.253H131.86H132.466H133.073H133.679L134.285 369.633L134.892 369.689H135.498L136.105 369.744H136.711L137.317 369.8H137.924L138.53 369.689L139.137 369.8L139.743 369.744L140.349 369.8H140.956H141.562H142.168L142.775 369.744H143.381H143.988L144.594 369.8H145.2H145.807H146.413H147.02H147.626H148.232H148.839H149.445H150.051H150.658H151.264H151.871H152.477H153.083H153.69H154.296H154.903H155.509H156.115H156.722H157.328H157.935H158.541H159.147H159.754H160.36H160.966H161.573H162.179H162.786H163.392H163.998H164.605H165.211H165.818H166.424H167.03H167.637H168.243H168.85H169.456H170.062H170.669H171.275H171.881H172.488H173.094H173.701H174.307H174.913H175.52H176.126H176.733H177.339H177.945H178.552H179.158H179.764H180.371H180.977H181.584H182.19H182.796H183.403H184.009H184.616H185.222H185.828H186.435H187.041H187.648H188.254H188.86H189.467H190.073H190.679L191.286 369.744L191.892 369.8H192.499H193.105H193.711L194.318 369.744H194.924L195.531 369.8L196.137 369.466L196.743 369.577L197.35 369.744H197.956L198.562 369.8L199.169 369.744L199.775 369.466L200.382 369.744L200.988 369.577L201.594 369.633H202.201L202.807 369.8L203.414 369.744L204.02 369.8L204.626 369.744L205.233 369.689L205.839 369.522L206.446 369.689L207.052 369.522L207.658 369.355L208.265 368.965L208.871 368.52L209.477 369.522L210.084 368.798L210.69 369.522H211.297L211.903 369.577L212.509 369.244L213.116 369.41L213.722 369.744L214.329 369.633L214.935 369.744L215.541 369.689L216.148 369.522L216.754 369.466L217.36 369.744L217.967 369.8L218.573 369.577L219.18 369.8L219.786 369.689L220.392 369.744L220.999 369.466L221.605 369.633H222.212L222.818 369.577H223.424L224.031 369.41L224.637 369.522H225.244L225.85 369.744H226.456H227.063L227.669 369.8L228.275 369.689L228.882 369.8H229.488H230.095H230.701H231.307H231.914H232.52H233.127L233.733 369.744L234.339 369.8L234.946 369.744L235.552 369.8H236.158H236.765H237.371H237.978H238.584H239.19H239.797H240.403H241.01H241.616H242.222H242.829H243.435H244.042H244.648L245.254 369.689L245.861 369.8H246.467H247.073H247.68H248.286H248.893L249.499 369.744L250.105 369.689L250.712 369.8H251.318H251.925H252.531H253.137H253.744H254.35L254.956 369.744L255.563 369.8H256.169H256.776H257.382H257.988L258.595 369.744H259.201L259.808 369.8H260.414H261.02H261.627H262.233H262.84L263.446 369.744L264.052 369.8H264.659H265.265H265.871L266.478 369.744L267.084 369.633L267.691 369.8H268.297H268.903H269.51H270.116H270.723L271.329 369.744L271.935 369.8L272.542 369.744L273.148 369.8L273.754 369.744H274.361H274.967L275.574 369.633H276.18L276.786 369.744H277.393H277.999H278.606H279.212L279.818 369.577L280.425 369.8L281.031 369.689L281.638 369.8L282.244 369.689L282.85 369.8H283.457H284.063H284.669L285.276 369.633L285.882 369.8L286.489 369.744H287.095L287.701 369.132L288.308 369.41L288.914 369.188L289.521 369.077L290.127 369.41L290.733 369.244L291.34 369.41H291.946L292.552 368.798L293.159 369.41L293.765 368.52L294.372 368.743L294.978 368.353L295.584 369.132L296.191 367.852L296.797 368.353L297.404 368.743L298.01 368.186L298.616 368.798L299.223 368.297L299.829 368.965L300.436 368.186L301.042 368.687L301.648 368.242L302.255 368.13L302.861 368.464L303.467 366.739L304.074 367.407L304.68 366.572L305.287 367.407L305.893 366.461L306.499 368.798L307.106 368.576L307.712 368.464L308.319 367.685L308.925 367.629L309.531 367.741L310.138 367.963L310.744 368.743L311.35 368.854L311.957 367.629L312.563 368.019L313.17 368.409H313.776L314.382 369.188L314.989 369.077L315.595 369.188L316.202 368.91L316.808 369.188L317.414 368.242L318.021 368.798L318.627 368.13L319.234 369.577H319.84L320.446 369.41L321.053 369.633H321.659L322.265 369.299L322.872 369.355L323.478 369.633L324.085 369.689L324.691 369.577L325.297 369.41L325.904 369.577L326.51 369.689L327.117 369.633L327.723 369.8H328.329L328.936 369.744L329.542 369.689H330.148L330.755 369.633L331.361 369.577L331.968 369.355L332.574 369.8L333.18 369.633L333.787 369.744L334.393 369.8H335L335.606 369.744L336.212 369.689L336.819 369.8H337.425H338.032H338.638H339.244H339.851H340.457H341.063L341.67 369.744L342.276 369.8H342.883H343.489H344.095H344.702H345.308L345.915 369.744L346.521 369.8H347.127L347.734 369.744L348.34 369.8L348.947 369.744L349.553 369.8L350.159 369.744L350.766 369.8L351.372 369.522L351.978 369.633L352.585 369.744H353.191H353.798H354.404L355.01 369.522L355.617 369.577L356.223 369.522L356.83 369.689L357.436 369.8H358.042L358.649 369.744L359.255 369.8L359.861 369.689H360.468L361.074 369.633L361.681 369.41L362.287 369.355L362.893 369.466L363.5 369.299L364.106 368.743L364.713 368.52L365.319 368.464L365.925 368.687L366.532 369.244L367.138 369.077L367.744 368.965L368.351 367.295L368.957 367.852L369.564 367.796L370.17 368.464L370.776 368.687L371.383 367.407L371.989 368.687L372.596 368.297L373.202 368.687L373.808 368.075L374.415 367.963L375.021 368.464L375.628 366.349L376.234 367.796L376.84 367.462L377.447 366.516L378.053 366.182L378.659 367.017H379.266L379.872 367.908L380.479 367.574L381.085 367.295L381.691 368.186L382.298 367.908L382.904 369.077L383.511 368.91L384.117 367.963L384.723 368.91L385.33 369.021L385.936 369.41H386.543L387.149 369.522L387.755 369.41H388.362L388.968 369.466L389.574 368.965L390.181 369.41L390.787 369.132L391.394 369.077L392 369.633L392.606 369.021L393.213 369.244L393.819 368.798L394.426 368.91L395.032 368.186L395.638 368.965L396.245 369.41L396.851 369.132L397.458 369.577L398.064 369.077L398.67 369.299L399.277 369.132L399.883 369.021L400.489 369.633L401.096 369.689L401.702 369.41L402.309 369.244L402.915 369.188L403.521 369.355L404.128 369.466L404.734 369.633L405.34 369.689L405.947 369.466L406.553 369.41L407.16 369.299L407.766 369.021L408.372 369.244L408.979 369.633L409.585 369.132L410.192 369.41L410.798 369.132L411.404 369.355L412.011 369.41L412.617 369.577L413.224 369.744L413.83 369.8L414.436 369.689L415.043 369.577L415.649 369.689L416.255 369.577L416.862 369.8H417.468L418.075 369.633L418.681 369.577L419.287 369.355L419.894 369.132L420.5 369.355H421.107L421.713 369.244L422.319 369.299L422.926 369.355L423.532 369.299L424.139 369.132L424.745 369.744L425.351 369.188L425.958 369.355L426.564 368.687L427.17 368.464L427.777 368.631L428.383 367.629L428.99 368.91L429.596 367.908L430.202 369.132L430.809 367.351L431.415 368.242L432.022 366.961L432.628 367.295L433.234 366.739L433.841 367.741L434.447 367.685L435.054 368.297L435.66 366.739L436.266 365.681L436.873 366.294L437.479 365.848L438.085 367.685L438.692 367.741L439.298 364.011L439.905 364.846L440.511 363.455L441.117 364.568L441.724 365.013L442.33 366.015L442.937 366.461L443.543 365.737H444.149L444.756 367.017L445.362 366.182L445.968 365.681L446.575 366.739L447.181 367.518L447.788 366.906L448.394 366.461L449 365.904L449.607 366.238L450.213 367.908L450.82 367.073L451.426 368.743L452.032 367.184L452.639 366.906L453.245 367.963L453.851 368.631H454.458L455.064 368.353L455.671 369.355L456.277 367.462L456.883 368.743L457.49 369.132L458.096 368.798L458.703 369.188L459.309 369.466L459.915 368.91L460.522 369.077L461.128 368.242L461.735 369.299H462.341L462.947 369.466L463.554 369.41L464.16 369.299L464.766 369.466L465.373 369.41L465.979 369.466L466.586 369.355L467.192 369.41L467.798 369.633H468.405L469.011 369.299L469.618 369.355L470.224 369.633L470.83 369.077L471.437 369.577L472.043 369.522L472.65 369.633H473.256H473.862L474.469 369.577H475.075L475.681 369.466L476.288 369.188L476.894 369.689L477.501 369.41H478.107L478.713 369.633H479.32L479.926 369.744L480.533 369.8H481.139L481.745 369.689H482.352L482.958 369.522L483.564 369.577L484.171 369.633L484.777 369.689L485.384 369.744L485.99 369.8L486.596 369.744L487.203 369.8L487.809 369.744L488.416 369.8H489.022H489.628H490.235H490.841H491.447H492.054H492.66H493.267H493.873H494.479H495.086H495.692L496.299 369.744L496.905 369.8H497.511H498.118H498.724H499.331H499.937H500.543H501.15H501.756H502.362H502.969H503.575H504.182H504.788H505.394H506.001H506.607H507.214H507.82H508.426H509.033H509.639H510.246H510.852H511.458H512.065H512.671H513.277H513.884H514.49H515.097H515.703L516.309 369.744L516.916 369.8L517.522 369.744L518.129 369.633L518.735 369.744L519.341 369.8L519.948 369.744L520.554 369.8H521.16H521.767L522.373 369.744H522.98H523.586L524.192 369.355L524.799 368.91L525.405 369.244L526.012 368.019L526.618 367.518L527.224 367.963L527.831 367.128L528.437 366.961L529.044 364.958L529.65 360.115L530.256 361.562L530.863 358.056L531.469 360.783L532.075 360.171L532.682 350.931L533.288 349.429L533.895 340.801L534.501 343.473L535.107 342.916L535.714 353.269L536.32 357.11L536.927 335.402L537.533 339.354L538.139 335.235L538.746 336.961L539.352 337.517L539.958 343.863L540.565 351.989L541.171 335.402L541.778 337.573L542.384 339.911L542.99 341.525L543.597 343.807L544.203 348.204L544.81 357.499L545.416 336.014L546.022 342.694L546.629 344.642L547.235 344.363L547.841 358.891L548.448 347.926L549.054 359.447L549.661 344.252L550.267 348.315L550.873 352.49L551.48 350.597L552.086 353.38L552.693 355.885L553.299 361.507L553.905 349.262L554.512 345.254L555.118 360.004L555.725 346.423L556.331 350.041L556.937 353.213L557.544 359.225L558.15 346.701L558.756 349.206L559.363 351.043L559.969 352.991L560.576 353.38L561.182 355.551L561.788 365.013L562.395 349.262L563.001 350.319L563.608 344.085L564.214 354.661L564.82 355.217L565.427 359.614L566.033 363.177L566.64 353.826L567.246 357.332L567.852 356.108L568.459 359.614L569.065 356.609L569.671 359.893L570.278 363.9L570.884 364.958L571.491 352.879L572.097 353.77L572.703 359.392L573.31 355.885L573.916 359.726L574.523 364.735L575.129 353.158L575.735 356.943L576.342 349.985L576.948 354.271L577.554 354.104L578.161 356.609L578.767 364.067L579.374 347.814L579.98 350.653L580.586 348.705L581.193 349.373L581.799 344.642L582.406 352.991L583.012 361.952L583.618 340.412L584.225 345.087L584.831 346.2L585.437 347.592L586.044 348.594L586.65 357.722L587.257 361.395L587.863 335.903L588.469 343.974L589.076 343.863L589.682 344.141L590.289 344.197L590.895 346.256L591.501 358.557L592.108 329.28L592.714 338.297L593.321 345.477L593.927 346.479L594.533 362.063L595.14 352.824L595.746 362.342L596.352 341.525L596.959 358.279L597.565 356.163L598.172 360.561L598.778 331.562L599.384 342.694L599.991 358.724L600.597 334.011L601.204 340.857L601.81 347.202L602.416 350.486L603.023 346.701L603.629 351.098L604.236 361.562L604.842 338.13L605.448 345.755L606.055 347.091L606.661 349.206L607.267 344.697L607.874 355.162L608.48 361.952L609.087 341.08L609.693 347.981L610.299 349.985L610.906 352.212L611.512 353.325L612.119 357.555L612.725 364.178L613.331 346.59L613.938 348.928L614.544 352.323L615.15 352.601L615.757 354.661L616.363 359.948L616.97 365.904L617.576 349.874L618.182 356.553L618.789 357.444L619.395 358.39L620.002 358.946L620.608 361.729L621.214 365.793L621.821 352.935L622.427 357.277L623.033 356.386L623.64 357.11L624.246 357.611L624.853 360.115L625.459 365.18L626.065 351.265L626.672 356.72L627.278 356.442L627.885 358.223L628.491 357.611L629.097 358L629.704 364.624L630.31 346.646L630.917 349.15L631.523 353.826L632.129 349.93L632.736 354.048L633.342 349.095L633.948 359.113L634.555 339.632L635.161 339.911L635.768 340.634L636.374 338.909L636.98 338.742L637.587 336.849L638.193 353.38L638.8 322.545L639.406 321.877L640.012 319.873L640.619 323.602L641.225 319.038L641.832 322.99L642.438 338.185L643.044 340.523L643.651 281.468L644.257 279.909L644.863 274.844L645.47 282.915L646.076 278.685L646.683 324.437L647.289 256.866L647.895 256.588L648.502 238.276L649.108 244.454L649.715 257.256L650.321 270.002L650.927 302.618L651.534 250.409L652.14 224.806L652.747 218.182L653.353 238.498L653.959 237.496L654.566 227.311L655.172 263.211L655.778 228.09L656.385 182.226L656.991 180.667L657.598 236.661L658.204 226.81L658.81 203.878L659.417 261.764L660.023 259.593L660.63 183.784L661.236 117.716L661.842 113.152L662.449 166.363L663.055 166.251L663.661 262.877L664.268 198.2L664.874 129.572L665.481 153.45L666.087 189.629L666.693 197.978L667.3 224.861L667.906 294.381L668.513 246.124L669.119 208.943L669.725 234.212L670.332 258.313L670.938 280.577L671.544 291.876L672.151 319.762L672.757 289.093L673.364 288.036L673.97 278.462L674.576 275.122L675.183 310.3L675.789 335.848L676.396 348.26L677.002 307.405L677.608 327.499L678.215 332.23L678.821 335.402L679.428 336.905L680.034 341.469L680.64 352.991L681.247 344.586L681.853 313.695L682.459 332.397L683.066 341.469L683.672 354.605L684.279 343.584L684.885 354.271L685.491 348.594L686.098 348.538L686.704 347.313L687.311 350.542L687.917 352.712L688.523 355.829L689.13 362.175L689.736 346.757L690.343 352.434L690.949 353.492L691.555 355.106L692.162 357.165L692.768 361.618L693.374 362.898L693.981 362.119L694.587 350.096L695.194 349.93L695.8 352.379" stroke="#4285F4" stroke-width="2" stroke-miterlimit="10"/>
<path d="M379.922 418.8V410.206H382.891C383.557 410.206 384.068 410.248 384.422 410.331C384.911 410.446 385.328 410.649 385.672 410.94C386.13 411.326 386.469 411.821 386.688 412.425C386.917 413.019 387.031 413.696 387.031 414.456C387.031 415.112 386.953 415.69 386.797 416.19C386.651 416.69 386.458 417.107 386.219 417.44C385.979 417.774 385.714 418.034 385.422 418.222C385.141 418.409 384.802 418.555 384.406 418.659C384.01 418.753 383.552 418.8 383.031 418.8H379.922ZM381.062 417.784H382.891C383.464 417.784 383.911 417.732 384.234 417.628C384.557 417.524 384.812 417.373 385 417.175C385.271 416.914 385.479 416.555 385.625 416.097C385.781 415.638 385.859 415.086 385.859 414.44C385.859 413.545 385.708 412.857 385.406 412.378C385.115 411.888 384.76 411.56 384.344 411.394C384.031 411.279 383.542 411.222 382.875 411.222H381.062V417.784ZM392.859 418.034C392.464 418.368 392.083 418.602 391.719 418.737C391.365 418.873 390.979 418.94 390.562 418.94C389.875 418.94 389.349 418.774 388.984 418.44C388.62 418.107 388.438 417.68 388.438 417.159C388.438 416.857 388.505 416.581 388.641 416.331C388.776 416.071 388.958 415.868 389.188 415.722C389.417 415.565 389.672 415.451 389.953 415.378C390.151 415.315 390.464 415.258 390.891 415.206C391.734 415.112 392.359 414.993 392.766 414.847C392.766 414.701 392.766 414.612 392.766 414.581C392.766 414.144 392.667 413.836 392.469 413.659C392.198 413.43 391.797 413.315 391.266 413.315C390.776 413.315 390.411 413.404 390.172 413.581C389.932 413.748 389.755 414.05 389.641 414.487L388.609 414.347C388.703 413.909 388.859 413.555 389.078 413.284C389.297 413.013 389.609 412.805 390.016 412.659C390.422 412.513 390.891 412.44 391.422 412.44C391.953 412.44 392.385 412.503 392.719 412.628C393.052 412.753 393.297 412.909 393.453 413.097C393.609 413.284 393.719 413.524 393.781 413.815C393.812 413.993 393.828 414.315 393.828 414.784V416.19C393.828 417.17 393.849 417.789 393.891 418.05C393.943 418.31 394.036 418.56 394.172 418.8H393.062C392.958 418.581 392.891 418.326 392.859 418.034ZM392.766 415.675C392.38 415.831 391.807 415.966 391.047 416.081C390.609 416.144 390.302 416.216 390.125 416.3C389.948 416.373 389.807 416.482 389.703 416.628C389.609 416.774 389.562 416.94 389.562 417.128C389.562 417.409 389.667 417.644 389.875 417.831C390.094 418.019 390.406 418.112 390.812 418.112C391.219 418.112 391.578 418.024 391.891 417.847C392.214 417.67 392.448 417.425 392.594 417.112C392.708 416.873 392.766 416.524 392.766 416.065V415.675ZM398.094 417.862L398.25 418.784C397.948 418.847 397.682 418.878 397.453 418.878C397.068 418.878 396.771 418.821 396.562 418.706C396.354 418.581 396.203 418.42 396.109 418.222C396.026 418.024 395.984 417.607 395.984 416.972V413.394H395.219V412.581H395.984V411.034L397.031 410.409V412.581H398.094V413.394H397.031V417.034C397.031 417.336 397.047 417.529 397.078 417.612C397.12 417.696 397.182 417.763 397.266 417.815C397.349 417.868 397.469 417.894 397.625 417.894C397.75 417.894 397.906 417.883 398.094 417.862ZM403.047 416.8L404.141 416.925C403.974 417.56 403.656 418.055 403.188 418.409C402.719 418.763 402.125 418.94 401.406 418.94C400.5 418.94 399.776 418.659 399.234 418.097C398.703 417.534 398.438 416.748 398.438 415.737C398.438 414.696 398.708 413.888 399.25 413.315C399.792 412.732 400.49 412.44 401.344 412.44C402.177 412.44 402.854 412.722 403.375 413.284C403.906 413.847 404.172 414.644 404.172 415.675C404.172 415.737 404.172 415.831 404.172 415.956H399.531C399.573 416.644 399.766 417.17 400.109 417.534C400.453 417.888 400.885 418.065 401.406 418.065C401.792 418.065 402.12 417.966 402.391 417.769C402.672 417.56 402.891 417.237 403.047 416.8ZM399.594 415.097H403.062C403.021 414.565 402.891 414.17 402.672 413.909C402.328 413.503 401.891 413.3 401.359 413.3C400.87 413.3 400.458 413.461 400.125 413.784C399.802 414.107 399.625 414.545 399.594 415.097Z" fill="black"/>
<path d="M33.2 262.728H24.6062V261.572L31.3562 257.056H24.6062V255.962H33.2V257.134L26.45 261.65H33.2V262.728ZM32.4344 249.791C32.7677 250.186 33.0021 250.567 33.1375 250.931C33.2729 251.285 33.3406 251.671 33.3406 252.087C33.3406 252.775 33.1739 253.301 32.8406 253.666C32.5073 254.03 32.0802 254.212 31.5594 254.212C31.2573 254.212 30.9812 254.145 30.7312 254.009C30.4708 253.874 30.2677 253.692 30.1219 253.462C29.9656 253.233 29.851 252.978 29.7781 252.697C29.7156 252.499 29.6583 252.186 29.6062 251.759C29.5125 250.916 29.3927 250.291 29.2469 249.884C29.101 249.884 29.0125 249.884 28.9812 249.884C28.5437 249.884 28.2364 249.983 28.0594 250.181C27.8302 250.452 27.7156 250.853 27.7156 251.384C27.7156 251.874 27.8041 252.238 27.9812 252.478C28.1479 252.718 28.45 252.895 28.8875 253.009L28.7469 254.041C28.3094 253.947 27.9552 253.791 27.6844 253.572C27.4135 253.353 27.2052 253.041 27.0594 252.634C26.9135 252.228 26.8406 251.759 26.8406 251.228C26.8406 250.697 26.9031 250.264 27.0281 249.931C27.1531 249.598 27.3094 249.353 27.4969 249.197C27.6844 249.041 27.9239 248.931 28.2156 248.869C28.3927 248.837 28.7156 248.822 29.1844 248.822H30.5906C31.5698 248.822 32.1896 248.801 32.45 248.759C32.7104 248.707 32.9604 248.613 33.2 248.478V249.587C32.9812 249.692 32.726 249.759 32.4344 249.791ZM30.075 249.884C30.2312 250.27 30.3666 250.843 30.4812 251.603C30.5437 252.041 30.6166 252.348 30.7 252.525C30.7729 252.702 30.8823 252.843 31.0281 252.947C31.1739 253.041 31.3406 253.087 31.5281 253.087C31.8094 253.087 32.0437 252.983 32.2312 252.775C32.4187 252.556 32.5125 252.244 32.5125 251.837C32.5125 251.431 32.4239 251.072 32.2469 250.759C32.0698 250.436 31.825 250.202 31.5125 250.056C31.2729 249.942 30.9239 249.884 30.4656 249.884H30.075ZM33.7156 247.056L33.8719 246.025C34.1844 245.983 34.4135 245.863 34.5594 245.666C34.7573 245.405 34.8562 245.051 34.8562 244.603C34.8562 244.113 34.7573 243.738 34.5594 243.478C34.3614 243.207 34.0906 243.025 33.7469 242.931C33.5281 242.869 33.075 242.843 32.3875 242.853C32.9292 243.311 33.2 243.884 33.2 244.572C33.2 245.426 32.8927 246.087 32.2781 246.556C31.6531 247.025 30.9135 247.259 30.0594 247.259C29.4656 247.259 28.9187 247.155 28.4187 246.947C27.9083 246.728 27.5177 246.416 27.2469 246.009C26.976 245.603 26.8406 245.124 26.8406 244.572C26.8406 243.832 27.1375 243.223 27.7312 242.744H26.9812V241.775H32.3562C33.325 241.775 34.0125 241.874 34.4187 242.072C34.825 242.27 35.1427 242.582 35.3719 243.009C35.6114 243.436 35.7312 243.962 35.7312 244.587C35.7312 245.327 35.5646 245.926 35.2312 246.384C34.8979 246.843 34.3927 247.067 33.7156 247.056ZM29.9812 246.181C30.7937 246.181 31.3875 246.02 31.7625 245.697C32.1375 245.374 32.325 244.968 32.325 244.478C32.325 243.988 32.1375 243.582 31.7625 243.259C31.3875 242.926 30.8041 242.759 30.0125 242.759C29.2521 242.759 28.6791 242.931 28.2937 243.275C27.9083 243.608 27.7156 244.014 27.7156 244.494C27.7156 244.962 27.9083 245.363 28.2937 245.697C28.6687 246.02 29.2312 246.181 29.9812 246.181ZM32.4344 235.791C32.7677 236.186 33.0021 236.567 33.1375 236.931C33.2729 237.285 33.3406 237.671 33.3406 238.087C33.3406 238.775 33.1739 239.301 32.8406 239.666C32.5073 240.03 32.0802 240.212 31.5594 240.212C31.2573 240.212 30.9812 240.145 30.7312 240.009C30.4708 239.874 30.2677 239.692 30.1219 239.462C29.9656 239.233 29.851 238.978 29.7781 238.697C29.7156 238.499 29.6583 238.186 29.6062 237.759C29.5125 236.916 29.3927 236.291 29.2469 235.884C29.101 235.884 29.0125 235.884 28.9812 235.884C28.5437 235.884 28.2364 235.983 28.0594 236.181C27.8302 236.452 27.7156 236.853 27.7156 237.384C27.7156 237.874 27.8041 238.238 27.9812 238.478C28.1479 238.718 28.45 238.895 28.8875 239.009L28.7469 240.041C28.3094 239.947 27.9552 239.791 27.6844 239.572C27.4135 239.353 27.2052 239.041 27.0594 238.634C26.9135 238.228 26.8406 237.759 26.8406 237.228C26.8406 236.697 26.9031 236.264 27.0281 235.931C27.1531 235.598 27.3094 235.353 27.4969 235.197C27.6844 235.041 27.9239 234.931 28.2156 234.869C28.3927 234.837 28.7156 234.822 29.1844 234.822H30.5906C31.5698 234.822 32.1896 234.801 32.45 234.759C32.7104 234.707 32.9604 234.613 33.2 234.478V235.587C32.9812 235.692 32.726 235.759 32.4344 235.791ZM30.075 235.884C30.2312 236.27 30.3666 236.843 30.4812 237.603C30.5437 238.041 30.6166 238.348 30.7 238.525C30.7729 238.702 30.8823 238.843 31.0281 238.947C31.1739 239.041 31.3406 239.087 31.5281 239.087C31.8094 239.087 32.0437 238.983 32.2312 238.775C32.4187 238.556 32.5125 238.244 32.5125 237.837C32.5125 237.431 32.4239 237.072 32.2469 236.759C32.0698 236.436 31.825 236.202 31.5125 236.056C31.2729 235.942 30.9239 235.884 30.4656 235.884H30.075ZM31.3406 233.275L31.1844 232.244C31.601 232.181 31.9187 232.02 32.1375 231.759C32.3562 231.488 32.4656 231.108 32.4656 230.619C32.4656 230.139 32.3719 229.785 32.1844 229.556C31.9864 229.317 31.7521 229.197 31.4812 229.197C31.2416 229.197 31.0541 229.301 30.9187 229.509C30.825 229.655 30.7052 230.014 30.5594 230.587C30.3614 231.358 30.1948 231.895 30.0594 232.197C29.9135 232.488 29.7156 232.712 29.4656 232.869C29.2156 233.025 28.9344 233.103 28.6219 233.103C28.351 233.103 28.0958 233.041 27.8562 232.916C27.6166 232.791 27.4187 232.619 27.2625 232.4C27.1479 232.233 27.0489 232.009 26.9656 231.728C26.8823 231.447 26.8406 231.139 26.8406 230.806C26.8406 230.327 26.9135 229.905 27.0594 229.541C27.1948 229.166 27.3823 228.889 27.6219 228.712C27.8614 228.535 28.1791 228.416 28.575 228.353L28.7156 229.384C28.4031 229.426 28.1583 229.561 27.9812 229.791C27.7937 230.009 27.7 230.327 27.7 230.744C27.7 231.223 27.7833 231.567 27.95 231.775C28.1062 231.983 28.2937 232.087 28.5125 232.087C28.6479 232.087 28.7677 232.046 28.8719 231.962C28.9864 231.869 29.0802 231.733 29.1531 231.556C29.1948 231.452 29.2833 231.139 29.4187 230.619C29.6271 229.869 29.7937 229.348 29.9187 229.056C30.0437 228.764 30.226 228.535 30.4656 228.369C30.7052 228.202 31.0073 228.119 31.3719 228.119C31.726 228.119 32.0594 228.223 32.3719 228.431C32.6739 228.629 32.9135 228.921 33.0906 229.306C33.2573 229.692 33.3406 230.129 33.3406 230.619C33.3406 231.431 33.1739 232.051 32.8406 232.478C32.4969 232.895 31.9969 233.16 31.3406 233.275ZM32.4344 221.791C32.7677 222.186 33.0021 222.567 33.1375 222.931C33.2729 223.285 33.3406 223.671 33.3406 224.087C33.3406 224.775 33.1739 225.301 32.8406 225.666C32.5073 226.03 32.0802 226.212 31.5594 226.212C31.2573 226.212 30.9812 226.145 30.7312 226.009C30.4708 225.874 30.2677 225.692 30.1219 225.462C29.9656 225.233 29.851 224.978 29.7781 224.697C29.7156 224.499 29.6583 224.186 29.6062 223.759C29.5125 222.916 29.3927 222.291 29.2469 221.884C29.101 221.884 29.0125 221.884 28.9812 221.884C28.5437 221.884 28.2364 221.983 28.0594 222.181C27.8302 222.452 27.7156 222.853 27.7156 223.384C27.7156 223.874 27.8041 224.238 27.9812 224.478C28.1479 224.718 28.45 224.895 28.8875 225.009L28.7469 226.041C28.3094 225.947 27.9552 225.791 27.6844 225.572C27.4135 225.353 27.2052 225.041 27.0594 224.634C26.9135 224.228 26.8406 223.759 26.8406 223.228C26.8406 222.697 26.9031 222.264 27.0281 221.931C27.1531 221.598 27.3094 221.353 27.4969 221.197C27.6844 221.041 27.9239 220.931 28.2156 220.869C28.3927 220.837 28.7156 220.822 29.1844 220.822H30.5906C31.5698 220.822 32.1896 220.801 32.45 220.759C32.7104 220.707 32.9604 220.613 33.2 220.478V221.587C32.9812 221.692 32.726 221.759 32.4344 221.791ZM30.075 221.884C30.2312 222.27 30.3666 222.843 30.4812 223.603C30.5437 224.041 30.6166 224.348 30.7 224.525C30.7729 224.702 30.8823 224.843 31.0281 224.947C31.1739 225.041 31.3406 225.087 31.5281 225.087C31.8094 225.087 32.0437 224.983 32.2312 224.775C32.4187 224.556 32.5125 224.244 32.5125 223.837C32.5125 223.431 32.4239 223.072 32.2469 222.759C32.0698 222.436 31.825 222.202 31.5125 222.056C31.2729 221.942 30.9239 221.884 30.4656 221.884H30.075ZM33.2 218.853H24.6062V217.791H29.5125L26.9812 215.306V213.931L29.2781 216.322L33.2 213.697V214.994L30.0125 217.056L30.7312 217.791H33.2V218.853ZM25.825 212.853H24.6062V211.791H25.825V212.853ZM33.2 212.853H26.9812V211.791H33.2V212.853Z" fill="black"/>
<path d="M75.7 369.565C75.7 368.545 75.8042 367.727 76.0125 367.112C76.2208 366.487 76.5281 366.008 76.9344 365.675C77.351 365.341 77.8719 365.175 78.4969 365.175C78.9552 365.175 79.3562 365.269 79.7 365.456C80.0542 365.644 80.3458 365.914 80.575 366.269C80.8042 366.612 80.9812 367.034 81.1062 367.534C81.2312 368.034 81.2937 368.711 81.2937 369.565C81.2937 370.576 81.1896 371.388 80.9812 372.003C80.7833 372.618 80.476 373.097 80.0594 373.44C79.6531 373.774 79.1323 373.94 78.4969 373.94C77.674 373.94 77.0229 373.644 76.5437 373.05C75.9812 372.341 75.7 371.18 75.7 369.565ZM76.7781 369.565C76.7781 370.972 76.9448 371.909 77.2781 372.378C77.6115 372.847 78.0177 373.081 78.4969 373.081C78.9865 373.081 79.3927 372.847 79.7156 372.378C80.049 371.909 80.2156 370.972 80.2156 369.565C80.2156 368.149 80.049 367.211 79.7156 366.753C79.3927 366.284 78.9812 366.05 78.4812 366.05C78.0021 366.05 77.6167 366.253 77.325 366.659C76.9604 367.18 76.7781 368.149 76.7781 369.565Z" fill="black"/>
<path d="M58.6687 318.14H57.6219V311.421C57.3615 311.661 57.0229 311.906 56.6062 312.156C56.2 312.395 55.8354 312.572 55.5125 312.687V311.671C56.0958 311.39 56.6062 311.057 57.0437 310.671C57.4917 310.276 57.8094 309.89 57.9969 309.515H58.6687V318.14ZM61.7 313.906C61.7 312.885 61.8042 312.067 62.0125 311.453C62.2208 310.828 62.5281 310.348 62.9344 310.015C63.351 309.682 63.8719 309.515 64.4969 309.515C64.9552 309.515 65.3562 309.609 65.7 309.796C66.0542 309.984 66.3458 310.255 66.575 310.609C66.8042 310.953 66.9812 311.375 67.1062 311.875C67.2312 312.375 67.2937 313.052 67.2937 313.906C67.2937 314.916 67.1896 315.729 66.9812 316.343C66.7833 316.958 66.476 317.437 66.0594 317.781C65.6531 318.114 65.1323 318.281 64.4969 318.281C63.674 318.281 63.0229 317.984 62.5437 317.39C61.9812 316.682 61.7 315.52 61.7 313.906ZM62.7781 313.906C62.7781 315.312 62.9448 316.25 63.2781 316.718C63.6115 317.187 64.0177 317.421 64.4969 317.421C64.9865 317.421 65.3927 317.187 65.7156 316.718C66.049 316.25 66.2156 315.312 66.2156 313.906C66.2156 312.489 66.049 311.552 65.7156 311.093C65.3927 310.625 64.9812 310.39 64.4812 310.39C64.0021 310.39 63.6167 310.593 63.325 311C62.9604 311.52 62.7781 312.489 62.7781 313.906ZM68.7 313.906C68.7 312.885 68.8042 312.067 69.0125 311.453C69.2208 310.828 69.5281 310.348 69.9344 310.015C70.351 309.682 70.8719 309.515 71.4969 309.515C71.9552 309.515 72.3562 309.609 72.7 309.796C73.0542 309.984 73.3458 310.255 73.575 310.609C73.8042 310.953 73.9812 311.375 74.1062 311.875C74.2312 312.375 74.2937 313.052 74.2937 313.906C74.2937 314.916 74.1896 315.729 73.9812 316.343C73.7833 316.958 73.476 317.437 73.0594 317.781C72.6531 318.114 72.1323 318.281 71.4969 318.281C70.674 318.281 70.0229 317.984 69.5437 317.39C68.9812 316.682 68.7 315.52 68.7 313.906ZM69.7781 313.906C69.7781 315.312 69.9448 316.25 70.2781 316.718C70.6115 317.187 71.0177 317.421 71.4969 317.421C71.9865 317.421 72.3927 317.187 72.7156 316.718C73.049 316.25 73.2156 315.312 73.2156 313.906C73.2156 312.489 73.049 311.552 72.7156 311.093C72.3927 310.625 71.9812 310.39 71.4812 310.39C71.0021 310.39 70.6167 310.593 70.325 311C69.9604 311.52 69.7781 312.489 69.7781 313.906ZM75.7 313.906C75.7 312.885 75.8042 312.067 76.0125 311.453C76.2208 310.828 76.5281 310.348 76.9344 310.015C77.351 309.682 77.8719 309.515 78.4969 309.515C78.9552 309.515 79.3562 309.609 79.7 309.796C80.0542 309.984 80.3458 310.255 80.575 310.609C80.8042 310.953 80.9812 311.375 81.1062 311.875C81.2312 312.375 81.2937 313.052 81.2937 313.906C81.2937 314.916 81.1896 315.729 80.9812 316.343C80.7833 316.958 80.476 317.437 80.0594 317.781C79.6531 318.114 79.1323 318.281 78.4969 318.281C77.674 318.281 77.0229 317.984 76.5437 317.39C75.9812 316.682 75.7 315.52 75.7 313.906ZM76.7781 313.906C76.7781 315.312 76.9448 316.25 77.2781 316.718C77.6115 317.187 78.0177 317.421 78.4969 317.421C78.9865 317.421 79.3927 317.187 79.7156 316.718C80.049 316.25 80.2156 315.312 80.2156 313.906C80.2156 312.489 80.049 311.552 79.7156 311.093C79.3927 310.625 78.9812 310.39 78.4812 310.39C78.0021 310.39 77.6167 310.593 77.325 311C76.9604 311.52 76.7781 312.489 76.7781 313.906Z" fill="black"/>
<path d="M60.2469 261.464V262.48H54.5594C54.5594 262.23 54.601 261.985 54.6844 261.746C54.8302 261.36 55.0594 260.98 55.3719 260.605C55.6948 260.23 56.1583 259.798 56.7625 259.308C57.7 258.537 58.3302 257.928 58.6531 257.48C58.9865 257.032 59.1531 256.61 59.1531 256.214C59.1531 255.798 59.0021 255.449 58.7 255.167C58.3979 254.876 58.0073 254.73 57.5281 254.73C57.0177 254.73 56.6115 254.881 56.3094 255.183C56.0073 255.485 55.851 255.907 55.8406 256.449L54.7625 256.339C54.8354 255.527 55.1115 254.912 55.5906 254.496C56.0802 254.069 56.7365 253.855 57.5594 253.855C58.3823 253.855 59.0333 254.084 59.5125 254.542C59.9917 255.001 60.2312 255.569 60.2312 256.246C60.2312 256.589 60.1583 256.928 60.0125 257.261C59.8771 257.584 59.6427 257.933 59.3094 258.308C58.9865 258.673 58.45 259.173 57.7 259.808C57.0646 260.339 56.6531 260.704 56.4656 260.902C56.2885 261.089 56.1427 261.277 56.0281 261.464H60.2469ZM61.7 258.246C61.7 257.225 61.8042 256.407 62.0125 255.792C62.2208 255.167 62.5281 254.688 62.9344 254.355C63.351 254.022 63.8719 253.855 64.4969 253.855C64.9552 253.855 65.3562 253.949 65.7 254.136C66.0542 254.324 66.3458 254.595 66.575 254.949C66.8042 255.292 66.9812 255.714 67.1062 256.214C67.2312 256.714 67.2937 257.391 67.2937 258.246C67.2937 259.256 67.1896 260.069 66.9812 260.683C66.7833 261.298 66.476 261.777 66.0594 262.121C65.6531 262.454 65.1323 262.621 64.4969 262.621C63.674 262.621 63.0229 262.324 62.5437 261.73C61.9812 261.022 61.7 259.86 61.7 258.246ZM62.7781 258.246C62.7781 259.652 62.9448 260.589 63.2781 261.058C63.6115 261.527 64.0177 261.761 64.4969 261.761C64.9865 261.761 65.3927 261.527 65.7156 261.058C66.049 260.589 66.2156 259.652 66.2156 258.246C66.2156 256.829 66.049 255.891 65.7156 255.433C65.3927 254.964 64.9812 254.73 64.4812 254.73C64.0021 254.73 63.6167 254.933 63.325 255.339C62.9604 255.86 62.7781 256.829 62.7781 258.246ZM68.7 258.246C68.7 257.225 68.8042 256.407 69.0125 255.792C69.2208 255.167 69.5281 254.688 69.9344 254.355C70.351 254.022 70.8719 253.855 71.4969 253.855C71.9552 253.855 72.3562 253.949 72.7 254.136C73.0542 254.324 73.3458 254.595 73.575 254.949C73.8042 255.292 73.9812 255.714 74.1062 256.214C74.2312 256.714 74.2937 257.391 74.2937 258.246C74.2937 259.256 74.1896 260.069 73.9812 260.683C73.7833 261.298 73.476 261.777 73.0594 262.121C72.6531 262.454 72.1323 262.621 71.4969 262.621C70.674 262.621 70.0229 262.324 69.5437 261.73C68.9812 261.022 68.7 259.86 68.7 258.246ZM69.7781 258.246C69.7781 259.652 69.9448 260.589 70.2781 261.058C70.6115 261.527 71.0177 261.761 71.4969 261.761C71.9865 261.761 72.3927 261.527 72.7156 261.058C73.049 260.589 73.2156 259.652 73.2156 258.246C73.2156 256.829 73.049 255.891 72.7156 255.433C72.3927 254.964 71.9812 254.73 71.4812 254.73C71.0021 254.73 70.6167 254.933 70.325 255.339C69.9604 255.86 69.7781 256.829 69.7781 258.246ZM75.7 258.246C75.7 257.225 75.8042 256.407 76.0125 255.792C76.2208 255.167 76.5281 254.688 76.9344 254.355C77.351 254.022 77.8719 253.855 78.4969 253.855C78.9552 253.855 79.3562 253.949 79.7 254.136C80.0542 254.324 80.3458 254.595 80.575 254.949C80.8042 255.292 80.9812 255.714 81.1062 256.214C81.2312 256.714 81.2937 257.391 81.2937 258.246C81.2937 259.256 81.1896 260.069 80.9812 260.683C80.7833 261.298 80.476 261.777 80.0594 262.121C79.6531 262.454 79.1323 262.621 78.4969 262.621C77.674 262.621 77.0229 262.324 76.5437 261.73C75.9812 261.022 75.7 259.86 75.7 258.246ZM76.7781 258.246C76.7781 259.652 76.9448 260.589 77.2781 261.058C77.6115 261.527 78.0177 261.761 78.4969 261.761C78.9865 261.761 79.3927 261.527 79.7156 261.058C80.049 260.589 80.2156 259.652 80.2156 258.246C80.2156 256.829 80.049 255.891 79.7156 255.433C79.3927 254.964 78.9812 254.73 78.4812 254.73C78.0021 254.73 77.6167 254.933 77.325 255.339C76.9604 255.86 76.7781 256.829 76.7781 258.246Z" fill="black"/>
<path d="M54.7 204.554L55.7625 204.414C55.8771 205.007 56.0802 205.44 56.3719 205.71C56.6635 205.971 57.0177 206.101 57.4344 206.101C57.9344 206.101 58.3562 205.929 58.7 205.585C59.0437 205.242 59.2156 204.815 59.2156 204.304C59.2156 203.825 59.0542 203.429 58.7312 203.117C58.4187 202.794 58.0177 202.632 57.5281 202.632C57.3302 202.632 57.0802 202.674 56.7781 202.757L56.9031 201.82C56.976 201.83 57.0333 201.835 57.075 201.835C57.5229 201.835 57.924 201.721 58.2781 201.492C58.6427 201.252 58.825 200.888 58.825 200.398C58.825 200.013 58.6948 199.695 58.4344 199.445C58.174 199.184 57.8354 199.054 57.4187 199.054C57.0125 199.054 56.6687 199.184 56.3875 199.445C56.1167 199.705 55.9448 200.091 55.8719 200.601L54.8094 200.414C54.9344 199.716 55.226 199.174 55.6844 198.789C56.1427 198.393 56.7104 198.195 57.3875 198.195C57.8562 198.195 58.2885 198.299 58.6844 198.507C59.0802 198.705 59.3823 198.976 59.5906 199.32C59.799 199.664 59.9031 200.033 59.9031 200.429C59.9031 200.794 59.8042 201.132 59.6062 201.445C59.4083 201.747 59.1167 201.986 58.7312 202.164C59.2312 202.278 59.6219 202.523 59.9031 202.898C60.1844 203.263 60.325 203.726 60.325 204.289C60.325 205.039 60.049 205.674 59.4969 206.195C58.9552 206.716 58.2677 206.976 57.4344 206.976C56.6844 206.976 56.0594 206.752 55.5594 206.304C55.0594 205.846 54.7729 205.263 54.7 204.554ZM61.7 202.585C61.7 201.565 61.8042 200.747 62.0125 200.132C62.2208 199.507 62.5281 199.028 62.9344 198.695C63.351 198.361 63.8719 198.195 64.4969 198.195C64.9552 198.195 65.3562 198.289 65.7 198.476C66.0542 198.664 66.3458 198.934 66.575 199.289C66.8042 199.632 66.9812 200.054 67.1062 200.554C67.2312 201.054 67.2937 201.731 67.2937 202.585C67.2937 203.596 67.1896 204.408 66.9812 205.023C66.7833 205.638 66.476 206.117 66.0594 206.46C65.6531 206.794 65.1323 206.96 64.4969 206.96C63.674 206.96 63.0229 206.664 62.5437 206.07C61.9812 205.361 61.7 204.2 61.7 202.585ZM62.7781 202.585C62.7781 203.992 62.9448 204.929 63.2781 205.398C63.6115 205.867 64.0177 206.101 64.4969 206.101C64.9865 206.101 65.3927 205.867 65.7156 205.398C66.049 204.929 66.2156 203.992 66.2156 202.585C66.2156 201.169 66.049 200.231 65.7156 199.773C65.3927 199.304 64.9812 199.07 64.4812 199.07C64.0021 199.07 63.6167 199.273 63.325 199.679C62.9604 200.2 62.7781 201.169 62.7781 202.585ZM68.7 202.585C68.7 201.565 68.8042 200.747 69.0125 200.132C69.2208 199.507 69.5281 199.028 69.9344 198.695C70.351 198.361 70.8719 198.195 71.4969 198.195C71.9552 198.195 72.3562 198.289 72.7 198.476C73.0542 198.664 73.3458 198.934 73.575 199.289C73.8042 199.632 73.9812 200.054 74.1062 200.554C74.2312 201.054 74.2937 201.731 74.2937 202.585C74.2937 203.596 74.1896 204.408 73.9812 205.023C73.7833 205.638 73.476 206.117 73.0594 206.46C72.6531 206.794 72.1323 206.96 71.4969 206.96C70.674 206.96 70.0229 206.664 69.5437 206.07C68.9812 205.361 68.7 204.2 68.7 202.585ZM69.7781 202.585C69.7781 203.992 69.9448 204.929 70.2781 205.398C70.6115 205.867 71.0177 206.101 71.4969 206.101C71.9865 206.101 72.3927 205.867 72.7156 205.398C73.049 204.929 73.2156 203.992 73.2156 202.585C73.2156 201.169 73.049 200.231 72.7156 199.773C72.3927 199.304 71.9812 199.07 71.4812 199.07C71.0021 199.07 70.6167 199.273 70.325 199.679C69.9604 200.2 69.7781 201.169 69.7781 202.585ZM75.7 202.585C75.7 201.565 75.8042 200.747 76.0125 200.132C76.2208 199.507 76.5281 199.028 76.9344 198.695C77.351 198.361 77.8719 198.195 78.4969 198.195C78.9552 198.195 79.3562 198.289 79.7 198.476C80.0542 198.664 80.3458 198.934 80.575 199.289C80.8042 199.632 80.9812 200.054 81.1062 200.554C81.2312 201.054 81.2937 201.731 81.2937 202.585C81.2937 203.596 81.1896 204.408 80.9812 205.023C80.7833 205.638 80.476 206.117 80.0594 206.46C79.6531 206.794 79.1323 206.96 78.4969 206.96C77.674 206.96 77.0229 206.664 76.5437 206.07C75.9812 205.361 75.7 204.2 75.7 202.585ZM76.7781 202.585C76.7781 203.992 76.9448 204.929 77.2781 205.398C77.6115 205.867 78.0177 206.101 78.4969 206.101C78.9865 206.101 79.3927 205.867 79.7156 205.398C80.049 204.929 80.2156 203.992 80.2156 202.585C80.2156 201.169 80.049 200.231 79.7156 199.773C79.3927 199.304 78.9812 199.07 78.4812 199.07C78.0021 199.07 77.6167 199.273 77.325 199.679C76.9604 200.2 76.7781 201.169 76.7781 202.585Z" fill="black"/>
<path d="M58.075 151.16V149.098H54.3562V148.129L58.2781 142.566H59.1375V148.129H60.2937V149.098H59.1375V151.16H58.075ZM58.075 148.129V144.27L55.3875 148.129H58.075ZM61.7 146.926C61.7 145.905 61.8042 145.087 62.0125 144.473C62.2208 143.848 62.5281 143.368 62.9344 143.035C63.351 142.702 63.8719 142.535 64.4969 142.535C64.9552 142.535 65.3562 142.629 65.7 142.816C66.0542 143.004 66.3458 143.275 66.575 143.629C66.8042 143.973 66.9812 144.395 67.1062 144.895C67.2312 145.395 67.2937 146.072 67.2937 146.926C67.2937 147.936 67.1896 148.749 66.9812 149.363C66.7833 149.978 66.476 150.457 66.0594 150.801C65.6531 151.134 65.1323 151.301 64.4969 151.301C63.674 151.301 63.0229 151.004 62.5437 150.41C61.9812 149.702 61.7 148.54 61.7 146.926ZM62.7781 146.926C62.7781 148.332 62.9448 149.27 63.2781 149.738C63.6115 150.207 64.0177 150.441 64.4969 150.441C64.9865 150.441 65.3927 150.207 65.7156 149.738C66.049 149.27 66.2156 148.332 66.2156 146.926C66.2156 145.509 66.049 144.572 65.7156 144.113C65.3927 143.645 64.9812 143.41 64.4812 143.41C64.0021 143.41 63.6167 143.613 63.325 144.02C62.9604 144.54 62.7781 145.509 62.7781 146.926ZM68.7 146.926C68.7 145.905 68.8042 145.087 69.0125 144.473C69.2208 143.848 69.5281 143.368 69.9344 143.035C70.351 142.702 70.8719 142.535 71.4969 142.535C71.9552 142.535 72.3562 142.629 72.7 142.816C73.0542 143.004 73.3458 143.275 73.575 143.629C73.8042 143.973 73.9812 144.395 74.1062 144.895C74.2312 145.395 74.2937 146.072 74.2937 146.926C74.2937 147.936 74.1896 148.749 73.9812 149.363C73.7833 149.978 73.476 150.457 73.0594 150.801C72.6531 151.134 72.1323 151.301 71.4969 151.301C70.674 151.301 70.0229 151.004 69.5437 150.41C68.9812 149.702 68.7 148.54 68.7 146.926ZM69.7781 146.926C69.7781 148.332 69.9448 149.27 70.2781 149.738C70.6115 150.207 71.0177 150.441 71.4969 150.441C71.9865 150.441 72.3927 150.207 72.7156 149.738C73.049 149.27 73.2156 148.332 73.2156 146.926C73.2156 145.509 73.049 144.572 72.7156 144.113C72.3927 143.645 71.9812 143.41 71.4812 143.41C71.0021 143.41 70.6167 143.613 70.325 144.02C69.9604 144.54 69.7781 145.509 69.7781 146.926ZM75.7 146.926C75.7 145.905 75.8042 145.087 76.0125 144.473C76.2208 143.848 76.5281 143.368 76.9344 143.035C77.351 142.702 77.8719 142.535 78.4969 142.535C78.9552 142.535 79.3562 142.629 79.7 142.816C80.0542 143.004 80.3458 143.275 80.575 143.629C80.8042 143.973 80.9812 144.395 81.1062 144.895C81.2312 145.395 81.2937 146.072 81.2937 146.926C81.2937 147.936 81.1896 148.749 80.9812 149.363C80.7833 149.978 80.476 150.457 80.0594 150.801C79.6531 151.134 79.1323 151.301 78.4969 151.301C77.674 151.301 77.0229 151.004 76.5437 150.41C75.9812 149.702 75.7 148.54 75.7 146.926ZM76.7781 146.926C76.7781 148.332 76.9448 149.27 77.2781 149.738C77.6115 150.207 78.0177 150.441 78.4969 150.441C78.9865 150.441 79.3927 150.207 79.7156 149.738C80.049 149.27 80.2156 148.332 80.2156 146.926C80.2156 145.509 80.049 144.572 79.7156 144.113C79.3927 143.645 78.9812 143.41 78.4812 143.41C78.0021 143.41 77.6167 143.613 77.325 144.02C76.9604 144.54 76.7781 145.509 76.7781 146.926Z" fill="black"/>
<path d="M54.7 93.25L55.8094 93.1562C55.8927 93.6979 56.0802 94.1042 56.3719 94.375C56.674 94.6458 57.0385 94.7812 57.4656 94.7812C57.9656 94.7812 58.3927 94.5885 58.7469 94.2031C59.101 93.8177 59.2781 93.3125 59.2781 92.6875C59.2781 92.0833 59.1062 91.6094 58.7625 91.2656C58.4292 90.9115 57.9865 90.7344 57.4344 90.7344C57.101 90.7344 56.7937 90.8125 56.5125 90.9688C56.2417 91.125 56.0281 91.3229 55.8719 91.5625L54.8875 91.4375L55.7156 87.0312H59.9969V88.0312H56.5594L56.1062 90.3438C56.6167 89.9792 57.1531 89.7969 57.7156 89.7969C58.4656 89.7969 59.0958 90.0573 59.6062 90.5781C60.1271 91.099 60.3875 91.7708 60.3875 92.5938C60.3875 93.3646 60.1635 94.0365 59.7156 94.6094C59.1635 95.2969 58.4135 95.6406 57.4656 95.6406C56.6844 95.6406 56.0437 95.4219 55.5437 94.9844C55.0542 94.5469 54.7729 93.9688 54.7 93.25ZM61.7 91.2656C61.7 90.2448 61.8042 89.4271 62.0125 88.8125C62.2208 88.1875 62.5281 87.7083 62.9344 87.375C63.351 87.0417 63.8719 86.875 64.4969 86.875C64.9552 86.875 65.3562 86.9688 65.7 87.1562C66.0542 87.3438 66.3458 87.6146 66.575 87.9688C66.8042 88.3125 66.9812 88.7344 67.1062 89.2344C67.2312 89.7344 67.2937 90.4115 67.2937 91.2656C67.2937 92.276 67.1896 93.0885 66.9812 93.7031C66.7833 94.3177 66.476 94.7969 66.0594 95.1406C65.6531 95.474 65.1323 95.6406 64.4969 95.6406C63.674 95.6406 63.0229 95.3438 62.5437 94.75C61.9812 94.0417 61.7 92.8802 61.7 91.2656ZM62.7781 91.2656C62.7781 92.6719 62.9448 93.6094 63.2781 94.0781C63.6115 94.5469 64.0177 94.7812 64.4969 94.7812C64.9865 94.7812 65.3927 94.5469 65.7156 94.0781C66.049 93.6094 66.2156 92.6719 66.2156 91.2656C66.2156 89.849 66.049 88.9115 65.7156 88.4531C65.3927 87.9844 64.9812 87.75 64.4812 87.75C64.0021 87.75 63.6167 87.9531 63.325 88.3594C62.9604 88.8802 62.7781 89.849 62.7781 91.2656ZM68.7 91.2656C68.7 90.2448 68.8042 89.4271 69.0125 88.8125C69.2208 88.1875 69.5281 87.7083 69.9344 87.375C70.351 87.0417 70.8719 86.875 71.4969 86.875C71.9552 86.875 72.3562 86.9688 72.7 87.1562C73.0542 87.3438 73.3458 87.6146 73.575 87.9688C73.8042 88.3125 73.9812 88.7344 74.1062 89.2344C74.2312 89.7344 74.2937 90.4115 74.2937 91.2656C74.2937 92.276 74.1896 93.0885 73.9812 93.7031C73.7833 94.3177 73.476 94.7969 73.0594 95.1406C72.6531 95.474 72.1323 95.6406 71.4969 95.6406C70.674 95.6406 70.0229 95.3438 69.5437 94.75C68.9812 94.0417 68.7 92.8802 68.7 91.2656ZM69.7781 91.2656C69.7781 92.6719 69.9448 93.6094 70.2781 94.0781C70.6115 94.5469 71.0177 94.7812 71.4969 94.7812C71.9865 94.7812 72.3927 94.5469 72.7156 94.0781C73.049 93.6094 73.2156 92.6719 73.2156 91.2656C73.2156 89.849 73.049 88.9115 72.7156 88.4531C72.3927 87.9844 71.9812 87.75 71.4812 87.75C71.0021 87.75 70.6167 87.9531 70.325 88.3594C69.9604 88.8802 69.7781 89.849 69.7781 91.2656ZM75.7 91.2656C75.7 90.2448 75.8042 89.4271 76.0125 88.8125C76.2208 88.1875 76.5281 87.7083 76.9344 87.375C77.351 87.0417 77.8719 86.875 78.4969 86.875C78.9552 86.875 79.3562 86.9688 79.7 87.1562C80.0542 87.3438 80.3458 87.6146 80.575 87.9688C80.8042 88.3125 80.9812 88.7344 81.1062 89.2344C81.2312 89.7344 81.2937 90.4115 81.2937 91.2656C81.2937 92.276 81.1896 93.0885 80.9812 93.7031C80.7833 94.3177 80.476 94.7969 80.0594 95.1406C79.6531 95.474 79.1323 95.6406 78.4969 95.6406C77.674 95.6406 77.0229 95.3438 76.5437 94.75C75.9812 94.0417 75.7 92.8802 75.7 91.2656ZM76.7781 91.2656C76.7781 92.6719 76.9448 93.6094 77.2781 94.0781C77.6115 94.5469 78.0177 94.7812 78.4969 94.7812C78.9865 94.7812 79.3927 94.5469 79.7156 94.0781C80.049 93.6094 80.2156 92.6719 80.2156 91.2656C80.2156 89.849 80.049 88.9115 79.7156 88.4531C79.3927 87.9844 78.9812 87.75 78.4812 87.75C78.0021 87.75 77.6167 87.9531 77.325 88.3594C76.9604 88.8802 76.7781 89.849 76.7781 91.2656Z" fill="black"/>
<path d="M167.959 386.8V384.737H164.24V383.769L168.162 378.206H169.021V383.769H170.177V384.737H169.021V386.8H167.959ZM167.959 383.769V379.909L165.271 383.769H167.959ZM174.959 386.8V384.737H171.24V383.769L175.162 378.206H176.021V383.769H177.177V384.737H176.021V386.8H174.959ZM174.959 383.769V379.909L172.271 383.769H174.959ZM178.584 382.565C178.584 381.545 178.688 380.727 178.896 380.112C179.104 379.487 179.412 379.008 179.818 378.675C180.235 378.341 180.756 378.175 181.381 378.175C181.839 378.175 182.24 378.269 182.584 378.456C182.938 378.644 183.229 378.914 183.459 379.269C183.688 379.612 183.865 380.034 183.99 380.534C184.115 381.034 184.177 381.711 184.177 382.565C184.177 383.576 184.073 384.388 183.865 385.003C183.667 385.618 183.36 386.097 182.943 386.44C182.537 386.774 182.016 386.94 181.381 386.94C180.558 386.94 179.907 386.644 179.427 386.05C178.865 385.341 178.584 384.18 178.584 382.565ZM179.662 382.565C179.662 383.972 179.828 384.909 180.162 385.378C180.495 385.847 180.901 386.081 181.381 386.081C181.87 386.081 182.276 385.847 182.599 385.378C182.933 384.909 183.099 383.972 183.099 382.565C183.099 381.149 182.933 380.211 182.599 379.753C182.276 379.284 181.865 379.05 181.365 379.05C180.886 379.05 180.5 379.253 180.209 379.659C179.844 380.18 179.662 381.149 179.662 382.565ZM185.584 382.565C185.584 381.545 185.688 380.727 185.896 380.112C186.104 379.487 186.412 379.008 186.818 378.675C187.235 378.341 187.756 378.175 188.381 378.175C188.839 378.175 189.24 378.269 189.584 378.456C189.938 378.644 190.229 378.914 190.459 379.269C190.688 379.612 190.865 380.034 190.99 380.534C191.115 381.034 191.177 381.711 191.177 382.565C191.177 383.576 191.073 384.388 190.865 385.003C190.667 385.618 190.36 386.097 189.943 386.44C189.537 386.774 189.016 386.94 188.381 386.94C187.558 386.94 186.907 386.644 186.427 386.05C185.865 385.341 185.584 384.18 185.584 382.565ZM186.662 382.565C186.662 383.972 186.828 384.909 187.162 385.378C187.495 385.847 187.901 386.081 188.381 386.081C188.87 386.081 189.276 385.847 189.599 385.378C189.933 384.909 190.099 383.972 190.099 382.565C190.099 381.149 189.933 380.211 189.599 379.753C189.276 379.284 188.865 379.05 188.365 379.05C187.886 379.05 187.5 379.253 187.209 379.659C186.844 380.18 186.662 381.149 186.662 382.565ZM192.584 382.565C192.584 381.545 192.688 380.727 192.896 380.112C193.104 379.487 193.412 379.008 193.818 378.675C194.235 378.341 194.756 378.175 195.381 378.175C195.839 378.175 196.24 378.269 196.584 378.456C196.938 378.644 197.229 378.914 197.459 379.269C197.688 379.612 197.865 380.034 197.99 380.534C198.115 381.034 198.177 381.711 198.177 382.565C198.177 383.576 198.073 384.388 197.865 385.003C197.667 385.618 197.36 386.097 196.943 386.44C196.537 386.774 196.016 386.94 195.381 386.94C194.558 386.94 193.907 386.644 193.427 386.05C192.865 385.341 192.584 384.18 192.584 382.565ZM193.662 382.565C193.662 383.972 193.828 384.909 194.162 385.378C194.495 385.847 194.901 386.081 195.381 386.081C195.87 386.081 196.276 385.847 196.599 385.378C196.933 384.909 197.099 383.972 197.099 382.565C197.099 381.149 196.933 380.211 196.599 379.753C196.276 379.284 195.865 379.05 195.365 379.05C194.886 379.05 194.5 379.253 194.209 379.659C193.844 380.18 193.662 381.149 193.662 382.565Z" fill="black"/>
<path d="M289.236 386.8V384.737H285.517V383.769L289.439 378.206H290.299V383.769H291.455V384.737H290.299V386.8H289.236ZM289.236 383.769V379.909L286.549 383.769H289.236ZM296.236 386.8V384.737H292.517V383.769L296.439 378.206H297.299V383.769H298.455V384.737H297.299V386.8H296.236ZM296.236 383.769V379.909L293.549 383.769H296.236ZM305.408 385.784V386.8H299.72C299.72 386.55 299.762 386.305 299.845 386.065C299.991 385.68 300.22 385.3 300.533 384.925C300.856 384.55 301.319 384.118 301.924 383.628C302.861 382.857 303.491 382.248 303.814 381.8C304.148 381.352 304.314 380.93 304.314 380.534C304.314 380.118 304.163 379.769 303.861 379.487C303.559 379.196 303.168 379.05 302.689 379.05C302.179 379.05 301.773 379.201 301.47 379.503C301.168 379.805 301.012 380.227 301.002 380.769L299.924 380.659C299.997 379.847 300.273 379.232 300.752 378.815C301.241 378.388 301.898 378.175 302.72 378.175C303.543 378.175 304.194 378.404 304.674 378.862C305.153 379.321 305.392 379.888 305.392 380.565C305.392 380.909 305.319 381.248 305.174 381.581C305.038 381.904 304.804 382.253 304.47 382.628C304.148 382.993 303.611 383.493 302.861 384.128C302.226 384.659 301.814 385.024 301.627 385.222C301.45 385.409 301.304 385.597 301.189 385.784H305.408ZM306.861 382.565C306.861 381.545 306.965 380.727 307.174 380.112C307.382 379.487 307.689 379.008 308.095 378.675C308.512 378.341 309.033 378.175 309.658 378.175C310.116 378.175 310.517 378.269 310.861 378.456C311.215 378.644 311.507 378.914 311.736 379.269C311.965 379.612 312.142 380.034 312.267 380.534C312.392 381.034 312.455 381.711 312.455 382.565C312.455 383.576 312.351 384.388 312.142 385.003C311.944 385.618 311.637 386.097 311.22 386.44C310.814 386.774 310.293 386.94 309.658 386.94C308.835 386.94 308.184 386.644 307.705 386.05C307.142 385.341 306.861 384.18 306.861 382.565ZM307.939 382.565C307.939 383.972 308.106 384.909 308.439 385.378C308.773 385.847 309.179 386.081 309.658 386.081C310.148 386.081 310.554 385.847 310.877 385.378C311.21 384.909 311.377 383.972 311.377 382.565C311.377 381.149 311.21 380.211 310.877 379.753C310.554 379.284 310.142 379.05 309.642 379.05C309.163 379.05 308.778 379.253 308.486 379.659C308.121 380.18 307.939 381.149 307.939 382.565ZM313.861 382.565C313.861 381.545 313.965 380.727 314.174 380.112C314.382 379.487 314.689 379.008 315.095 378.675C315.512 378.341 316.033 378.175 316.658 378.175C317.116 378.175 317.517 378.269 317.861 378.456C318.215 378.644 318.507 378.914 318.736 379.269C318.965 379.612 319.142 380.034 319.267 380.534C319.392 381.034 319.455 381.711 319.455 382.565C319.455 383.576 319.351 384.388 319.142 385.003C318.944 385.618 318.637 386.097 318.22 386.44C317.814 386.774 317.293 386.94 316.658 386.94C315.835 386.94 315.184 386.644 314.705 386.05C314.142 385.341 313.861 384.18 313.861 382.565ZM314.939 382.565C314.939 383.972 315.106 384.909 315.439 385.378C315.773 385.847 316.179 386.081 316.658 386.081C317.148 386.081 317.554 385.847 317.877 385.378C318.21 384.909 318.377 383.972 318.377 382.565C318.377 381.149 318.21 380.211 317.877 379.753C317.554 379.284 317.142 379.05 316.642 379.05C316.163 379.05 315.778 379.253 315.486 379.659C315.121 380.18 314.939 381.149 314.939 382.565Z" fill="black"/>
<path d="M410.514 386.8V384.737H406.795V383.769L410.717 378.206H411.576V383.769H412.732V384.737H411.576V386.8H410.514ZM410.514 383.769V379.909L407.826 383.769H410.514ZM417.514 386.8V384.737H413.795V383.769L417.717 378.206H418.576V383.769H419.732V384.737H418.576V386.8H417.514ZM417.514 383.769V379.909L414.826 383.769H417.514ZM424.514 386.8V384.737H420.795V383.769L424.717 378.206H425.576V383.769H426.732V384.737H425.576V386.8H424.514ZM424.514 383.769V379.909L421.826 383.769H424.514ZM428.139 382.565C428.139 381.545 428.243 380.727 428.451 380.112C428.659 379.487 428.967 379.008 429.373 378.675C429.79 378.341 430.31 378.175 430.935 378.175C431.394 378.175 431.795 378.269 432.139 378.456C432.493 378.644 432.784 378.914 433.014 379.269C433.243 379.612 433.42 380.034 433.545 380.534C433.67 381.034 433.732 381.711 433.732 382.565C433.732 383.576 433.628 384.388 433.42 385.003C433.222 385.618 432.915 386.097 432.498 386.44C432.092 386.774 431.571 386.94 430.935 386.94C430.112 386.94 429.461 386.644 428.982 386.05C428.42 385.341 428.139 384.18 428.139 382.565ZM429.217 382.565C429.217 383.972 429.383 384.909 429.717 385.378C430.05 385.847 430.456 386.081 430.935 386.081C431.425 386.081 431.831 385.847 432.154 385.378C432.487 384.909 432.654 383.972 432.654 382.565C432.654 381.149 432.487 380.211 432.154 379.753C431.831 379.284 431.42 379.05 430.92 379.05C430.441 379.05 430.055 379.253 429.764 379.659C429.399 380.18 429.217 381.149 429.217 382.565ZM435.139 382.565C435.139 381.545 435.243 380.727 435.451 380.112C435.659 379.487 435.967 379.008 436.373 378.675C436.79 378.341 437.31 378.175 437.935 378.175C438.394 378.175 438.795 378.269 439.139 378.456C439.493 378.644 439.784 378.914 440.014 379.269C440.243 379.612 440.42 380.034 440.545 380.534C440.67 381.034 440.732 381.711 440.732 382.565C440.732 383.576 440.628 384.388 440.42 385.003C440.222 385.618 439.915 386.097 439.498 386.44C439.092 386.774 438.571 386.94 437.935 386.94C437.112 386.94 436.461 386.644 435.982 386.05C435.42 385.341 435.139 384.18 435.139 382.565ZM436.217 382.565C436.217 383.972 436.383 384.909 436.717 385.378C437.05 385.847 437.456 386.081 437.935 386.081C438.425 386.081 438.831 385.847 439.154 385.378C439.487 384.909 439.654 383.972 439.654 382.565C439.654 381.149 439.487 380.211 439.154 379.753C438.831 379.284 438.42 379.05 437.92 379.05C437.441 379.05 437.055 379.253 436.764 379.659C436.399 380.18 436.217 381.149 436.217 382.565Z" fill="black"/>
<path d="M531.791 386.8V384.737H528.072V383.769L531.994 378.206H532.853V383.769H534.01V384.737H532.853V386.8H531.791ZM531.791 383.769V379.909L529.103 383.769H531.791ZM538.791 386.8V384.737H535.072V383.769L538.994 378.206H539.853V383.769H541.01V384.737H539.853V386.8H538.791ZM538.791 383.769V379.909L536.103 383.769H538.791ZM547.885 380.315L546.838 380.394C546.744 379.977 546.614 379.675 546.447 379.487C546.156 379.185 545.801 379.034 545.385 379.034C545.051 379.034 544.754 379.128 544.494 379.315C544.171 379.565 543.911 379.925 543.713 380.394C543.525 380.852 543.426 381.508 543.416 382.362C543.666 381.977 543.973 381.69 544.338 381.503C544.713 381.315 545.103 381.222 545.51 381.222C546.208 381.222 546.801 381.482 547.291 382.003C547.791 382.524 548.041 383.19 548.041 384.003C548.041 384.545 547.921 385.05 547.682 385.519C547.452 385.977 547.135 386.331 546.728 386.581C546.322 386.821 545.864 386.94 545.353 386.94C544.468 386.94 543.749 386.618 543.197 385.972C542.645 385.326 542.369 384.263 542.369 382.784C542.369 381.118 542.676 379.909 543.291 379.159C543.822 378.503 544.541 378.175 545.447 378.175C546.124 378.175 546.676 378.368 547.103 378.753C547.541 379.128 547.801 379.649 547.885 380.315ZM543.588 384.019C543.588 384.383 543.661 384.732 543.807 385.065C543.963 385.388 544.176 385.638 544.447 385.815C544.728 385.993 545.025 386.081 545.338 386.081C545.775 386.081 546.156 385.904 546.478 385.55C546.801 385.185 546.963 384.696 546.963 384.081C546.963 383.487 546.801 383.019 546.478 382.675C546.166 382.331 545.77 382.159 545.291 382.159C544.812 382.159 544.406 382.331 544.072 382.675C543.749 383.019 543.588 383.466 543.588 384.019ZM549.416 382.565C549.416 381.545 549.52 380.727 549.728 380.112C549.937 379.487 550.244 379.008 550.65 378.675C551.067 378.341 551.588 378.175 552.213 378.175C552.671 378.175 553.072 378.269 553.416 378.456C553.77 378.644 554.062 378.914 554.291 379.269C554.52 379.612 554.697 380.034 554.822 380.534C554.947 381.034 555.01 381.711 555.01 382.565C555.01 383.576 554.906 384.388 554.697 385.003C554.499 385.618 554.192 386.097 553.775 386.44C553.369 386.774 552.848 386.94 552.213 386.94C551.39 386.94 550.739 386.644 550.26 386.05C549.697 385.341 549.416 384.18 549.416 382.565ZM550.494 382.565C550.494 383.972 550.661 384.909 550.994 385.378C551.327 385.847 551.734 386.081 552.213 386.081C552.702 386.081 553.109 385.847 553.432 385.378C553.765 384.909 553.932 383.972 553.932 382.565C553.932 381.149 553.765 380.211 553.432 379.753C553.109 379.284 552.697 379.05 552.197 379.05C551.718 379.05 551.333 379.253 551.041 379.659C550.676 380.18 550.494 381.149 550.494 382.565ZM556.416 382.565C556.416 381.545 556.52 380.727 556.728 380.112C556.937 379.487 557.244 379.008 557.65 378.675C558.067 378.341 558.588 378.175 559.213 378.175C559.671 378.175 560.072 378.269 560.416 378.456C560.77 378.644 561.062 378.914 561.291 379.269C561.52 379.612 561.697 380.034 561.822 380.534C561.947 381.034 562.01 381.711 562.01 382.565C562.01 383.576 561.906 384.388 561.697 385.003C561.499 385.618 561.192 386.097 560.775 386.44C560.369 386.774 559.848 386.94 559.213 386.94C558.39 386.94 557.739 386.644 557.26 386.05C556.697 385.341 556.416 384.18 556.416 382.565ZM557.494 382.565C557.494 383.972 557.661 384.909 557.994 385.378C558.327 385.847 558.734 386.081 559.213 386.081C559.702 386.081 560.109 385.847 560.432 385.378C560.765 384.909 560.932 383.972 560.932 382.565C560.932 381.149 560.765 380.211 560.432 379.753C560.109 379.284 559.697 379.05 559.197 379.05C558.718 379.05 558.333 379.253 558.041 379.659C557.676 380.18 557.494 381.149 557.494 382.565Z" fill="black"/>
<path d="M653.068 386.8V384.737H649.35V383.769L653.272 378.206H654.131V383.769H655.287V384.737H654.131V386.8H653.068ZM653.068 383.769V379.909L650.381 383.769H653.068ZM660.068 386.8V384.737H656.35V383.769L660.272 378.206H661.131V383.769H662.287V384.737H661.131V386.8H660.068ZM660.068 383.769V379.909L657.381 383.769H660.068ZM665.318 382.144C664.881 381.977 664.553 381.748 664.334 381.456C664.126 381.154 664.022 380.8 664.022 380.394C664.022 379.769 664.246 379.243 664.693 378.815C665.152 378.388 665.751 378.175 666.49 378.175C667.24 378.175 667.844 378.394 668.303 378.831C668.761 379.269 668.99 379.8 668.99 380.425C668.99 380.821 668.886 381.164 668.678 381.456C668.469 381.748 668.152 381.977 667.725 382.144C668.256 382.31 668.657 382.586 668.928 382.972C669.199 383.357 669.334 383.815 669.334 384.347C669.334 385.076 669.074 385.69 668.553 386.19C668.042 386.69 667.36 386.94 666.506 386.94C665.662 386.94 664.98 386.69 664.459 386.19C663.938 385.69 663.678 385.065 663.678 384.315C663.678 383.753 663.818 383.284 664.1 382.909C664.391 382.534 664.798 382.279 665.318 382.144ZM665.1 380.347C665.1 380.753 665.23 381.086 665.49 381.347C665.761 381.607 666.105 381.737 666.522 381.737C666.928 381.737 667.261 381.612 667.522 381.362C667.782 381.102 667.912 380.784 667.912 380.409C667.912 380.024 667.777 379.701 667.506 379.44C667.235 379.17 666.902 379.034 666.506 379.034C666.1 379.034 665.761 379.164 665.49 379.425C665.23 379.685 665.1 379.993 665.1 380.347ZM664.772 384.315C664.772 384.618 664.839 384.909 664.975 385.19C665.12 385.472 665.334 385.69 665.615 385.847C665.897 386.003 666.199 386.081 666.522 386.081C667.022 386.081 667.433 385.92 667.756 385.597C668.089 385.274 668.256 384.862 668.256 384.362C668.256 383.852 668.089 383.43 667.756 383.097C667.423 382.763 667.001 382.597 666.49 382.597C665.99 382.597 665.579 382.763 665.256 383.097C664.933 383.42 664.772 383.826 664.772 384.315ZM670.693 382.565C670.693 381.545 670.798 380.727 671.006 380.112C671.214 379.487 671.522 379.008 671.928 378.675C672.344 378.341 672.865 378.175 673.49 378.175C673.949 378.175 674.35 378.269 674.693 378.456C675.048 378.644 675.339 378.914 675.568 379.269C675.798 379.612 675.975 380.034 676.1 380.534C676.225 381.034 676.287 381.711 676.287 382.565C676.287 383.576 676.183 384.388 675.975 385.003C675.777 385.618 675.469 386.097 675.053 386.44C674.647 386.774 674.126 386.94 673.49 386.94C672.667 386.94 672.016 386.644 671.537 386.05C670.975 385.341 670.693 384.18 670.693 382.565ZM671.772 382.565C671.772 383.972 671.938 384.909 672.272 385.378C672.605 385.847 673.011 386.081 673.49 386.081C673.98 386.081 674.386 385.847 674.709 385.378C675.042 384.909 675.209 383.972 675.209 382.565C675.209 381.149 675.042 380.211 674.709 379.753C674.386 379.284 673.975 379.05 673.475 379.05C672.995 379.05 672.61 379.253 672.318 379.659C671.954 380.18 671.772 381.149 671.772 382.565ZM677.693 382.565C677.693 381.545 677.798 380.727 678.006 380.112C678.214 379.487 678.522 379.008 678.928 378.675C679.344 378.341 679.865 378.175 680.49 378.175C680.949 378.175 681.35 378.269 681.693 378.456C682.048 378.644 682.339 378.914 682.568 379.269C682.798 379.612 682.975 380.034 683.1 380.534C683.225 381.034 683.287 381.711 683.287 382.565C683.287 383.576 683.183 384.388 682.975 385.003C682.777 385.618 682.469 386.097 682.053 386.44C681.647 386.774 681.126 386.94 680.49 386.94C679.667 386.94 679.016 386.644 678.537 386.05C677.975 385.341 677.693 384.18 677.693 382.565ZM678.772 382.565C678.772 383.972 678.938 384.909 679.272 385.378C679.605 385.847 680.011 386.081 680.49 386.081C680.98 386.081 681.386 385.847 681.709 385.378C682.042 384.909 682.209 383.972 682.209 382.565C682.209 381.149 682.042 380.211 681.709 379.753C681.386 379.284 680.975 379.05 680.475 379.05C679.995 379.05 679.61 379.253 679.318 379.659C678.954 380.18 678.772 381.149 678.772 382.565Z" fill="black"/>
<path d="M576.847 65.5127V66.7002H570.222C570.211 66.4085 570.258 66.1221 570.363 65.8408C570.54 65.3929 570.81 64.9502 571.175 64.5127C571.55 64.0752 572.086 63.57 572.784 62.9971C573.878 62.1012 574.613 61.3929 574.988 60.8721C575.373 60.3512 575.566 59.8564 575.566 59.3877C575.566 58.8981 575.389 58.4867 575.034 58.1533C574.691 57.82 574.243 57.6533 573.691 57.6533C573.097 57.6533 572.618 57.8304 572.253 58.1846C571.899 58.5387 571.722 59.0335 571.722 59.6689L570.456 59.5283C570.54 58.5908 570.862 57.8773 571.425 57.3877C571.998 56.8877 572.758 56.6377 573.706 56.6377C574.675 56.6377 575.435 56.9033 575.988 57.4346C576.55 57.9658 576.831 58.6273 576.831 59.4189C576.831 59.8252 576.748 60.221 576.581 60.6064C576.425 60.9919 576.154 61.3981 575.769 61.8252C575.394 62.2523 574.764 62.8408 573.878 63.5908C573.139 64.2054 572.665 64.6273 572.456 64.8564C572.248 65.0752 572.076 65.2939 571.941 65.5127H576.847ZM578.378 61.7627C578.378 60.5752 578.498 59.6221 578.738 58.9033C578.988 58.1742 579.352 57.6169 579.831 57.2314C580.31 56.8356 580.915 56.6377 581.644 56.6377C582.185 56.6377 582.659 56.7471 583.066 56.9658C583.472 57.1846 583.805 57.4971 584.066 57.9033C584.336 58.3096 584.545 58.8044 584.691 59.3877C584.836 59.971 584.909 60.7627 584.909 61.7627C584.909 62.9398 584.79 63.8877 584.55 64.6064C584.31 65.3252 583.951 65.8825 583.472 66.2783C582.993 66.6742 582.383 66.8721 581.644 66.8721C580.685 66.8721 579.93 66.5231 579.378 65.8252C578.711 64.9919 578.378 63.6377 578.378 61.7627ZM579.644 61.7627C579.644 63.4085 579.836 64.5023 580.222 65.0439C580.607 65.5856 581.081 65.8564 581.644 65.8564C582.217 65.8564 582.696 65.5856 583.081 65.0439C583.467 64.4919 583.659 63.3981 583.659 61.7627C583.659 60.1064 583.467 59.0075 583.081 58.4658C582.696 57.9242 582.211 57.6533 581.628 57.6533C581.066 57.6533 580.618 57.8929 580.284 58.3721C579.857 58.9867 579.644 60.1169 579.644 61.7627ZM592.847 65.5127V66.7002H586.222C586.211 66.4085 586.258 66.1221 586.363 65.8408C586.54 65.3929 586.81 64.9502 587.175 64.5127C587.55 64.0752 588.086 63.57 588.784 62.9971C589.878 62.1012 590.613 61.3929 590.988 60.8721C591.373 60.3512 591.566 59.8564 591.566 59.3877C591.566 58.8981 591.389 58.4867 591.034 58.1533C590.691 57.82 590.243 57.6533 589.691 57.6533C589.097 57.6533 588.618 57.8304 588.253 58.1846C587.899 58.5387 587.722 59.0335 587.722 59.6689L586.456 59.5283C586.54 58.5908 586.862 57.8773 587.425 57.3877C587.998 56.8877 588.758 56.6377 589.706 56.6377C590.675 56.6377 591.435 56.9033 591.988 57.4346C592.55 57.9658 592.831 58.6273 592.831 59.4189C592.831 59.8252 592.748 60.221 592.581 60.6064C592.425 60.9919 592.154 61.3981 591.769 61.8252C591.394 62.2523 590.764 62.8408 589.878 63.5908C589.139 64.2054 588.665 64.6273 588.456 64.8564C588.248 65.0752 588.076 65.2939 587.941 65.5127H592.847ZM600.847 65.5127V66.7002H594.222C594.211 66.4085 594.258 66.1221 594.363 65.8408C594.54 65.3929 594.81 64.9502 595.175 64.5127C595.55 64.0752 596.086 63.57 596.784 62.9971C597.878 62.1012 598.613 61.3929 598.988 60.8721C599.373 60.3512 599.566 59.8564 599.566 59.3877C599.566 58.8981 599.389 58.4867 599.034 58.1533C598.691 57.82 598.243 57.6533 597.691 57.6533C597.097 57.6533 596.618 57.8304 596.253 58.1846C595.899 58.5387 595.722 59.0335 595.722 59.6689L594.456 59.5283C594.54 58.5908 594.862 57.8773 595.425 57.3877C595.998 56.8877 596.758 56.6377 597.706 56.6377C598.675 56.6377 599.435 56.9033 599.988 57.4346C600.55 57.9658 600.831 58.6273 600.831 59.4189C600.831 59.8252 600.748 60.221 600.581 60.6064C600.425 60.9919 600.154 61.3981 599.769 61.8252C599.394 62.2523 598.764 62.8408 597.878 63.5908C597.139 64.2054 596.665 64.6273 596.456 64.8564C596.248 65.0752 596.076 65.2939 595.941 65.5127H600.847Z" fill="#999999"/>
<path d="M606.175 58.1689C605.487 59.3669 604.633 60.3669 603.612 61.1689L602.847 60.1846C604.336 59.0908 605.357 57.5075 605.909 55.4346L607.159 55.7627C607.305 55.9085 607.253 55.9971 607.003 56.0283L606.566 57.1221H614.269V58.1689H610.284V60.0283H613.566V61.0596H610.284V63.5283H614.878V64.5596H610.284V67.8564H609.191V64.5596H602.894V63.5283H605.362V60.0283H609.191V58.1689H606.175ZM606.456 63.5283H609.191V61.0596H606.456V63.5283Z" fill="#999999"/>
<path d="M616.566 64.3877L617.753 64.2783C617.847 64.8304 618.034 65.2314 618.316 65.4814C618.607 65.7314 618.972 65.8564 619.409 65.8564C619.784 65.8564 620.112 65.7731 620.394 65.6064C620.685 65.4294 620.92 65.195 621.097 64.9033C621.284 64.6117 621.441 64.221 621.566 63.7314C621.691 63.2419 621.753 62.7419 621.753 62.2314C621.753 62.1794 621.748 62.096 621.737 61.9814C621.498 62.3773 621.165 62.7002 620.737 62.9502C620.31 63.1898 619.847 63.3096 619.347 63.3096C618.514 63.3096 617.81 63.0075 617.237 62.4033C616.665 61.7992 616.378 61.0075 616.378 60.0283C616.378 59.0075 616.675 58.1898 617.269 57.5752C617.873 56.9502 618.628 56.6377 619.534 56.6377C620.18 56.6377 620.774 56.8148 621.316 57.1689C621.857 57.5127 622.269 58.0127 622.55 58.6689C622.831 59.3148 622.972 60.2523 622.972 61.4814C622.972 62.7627 622.831 63.7835 622.55 64.5439C622.279 65.3044 621.868 65.8825 621.316 66.2783C620.764 66.6742 620.118 66.8721 619.378 66.8721C618.597 66.8721 617.956 66.6533 617.456 66.2158C616.967 65.7783 616.67 65.1689 616.566 64.3877ZM621.597 59.9658C621.597 59.2575 621.409 58.695 621.034 58.2783C620.659 57.8617 620.211 57.6533 619.691 57.6533C619.139 57.6533 618.659 57.8773 618.253 58.3252C617.847 58.7731 617.644 59.3512 617.644 60.0596C617.644 60.695 617.836 61.2158 618.222 61.6221C618.607 62.0179 619.081 62.2158 619.644 62.2158C620.217 62.2158 620.685 62.0179 621.05 61.6221C621.415 61.2158 621.597 60.6637 621.597 59.9658Z" fill="#999999"/>
<path d="M633.706 63.5283H628.503C628.503 65.0908 627.701 66.57 626.097 67.9658L625.175 66.9189C626.665 65.971 627.409 64.5492 627.409 62.6533V55.9814H634.8V66.7627C634.8 67.346 634.487 67.6377 633.862 67.6377H632.55L632.331 66.4189H633.487C633.633 66.4189 633.706 66.346 633.706 66.2002V63.5283ZM628.503 62.3252H633.706V60.3564H628.503V62.3252ZM628.503 59.1533H633.706V57.1846H628.503V59.1533Z" fill="#999999"/>
<path d="M644.847 65.5127V66.7002H638.222C638.211 66.4085 638.258 66.1221 638.363 65.8408C638.54 65.3929 638.81 64.9502 639.175 64.5127C639.55 64.0752 640.086 63.57 640.784 62.9971C641.878 62.1012 642.613 61.3929 642.988 60.8721C643.373 60.3512 643.566 59.8564 643.566 59.3877C643.566 58.8981 643.389 58.4867 643.034 58.1533C642.691 57.82 642.243 57.6533 641.691 57.6533C641.097 57.6533 640.618 57.8304 640.253 58.1846C639.899 58.5387 639.722 59.0335 639.722 59.6689L638.456 59.5283C638.54 58.5908 638.862 57.8773 639.425 57.3877C639.998 56.8877 640.758 56.6377 641.706 56.6377C642.675 56.6377 643.435 56.9033 643.988 57.4346C644.55 57.9658 644.831 58.6273 644.831 59.4189C644.831 59.8252 644.748 60.221 644.581 60.6064C644.425 60.9919 644.154 61.3981 643.769 61.8252C643.394 62.2523 642.764 62.8408 641.878 63.5908C641.139 64.2054 640.665 64.6273 640.456 64.8564C640.248 65.0752 640.076 65.2939 639.941 65.5127H644.847ZM646.566 64.3877L647.753 64.2783C647.847 64.8304 648.034 65.2314 648.316 65.4814C648.607 65.7314 648.972 65.8564 649.409 65.8564C649.784 65.8564 650.113 65.7731 650.394 65.6064C650.685 65.4294 650.92 65.195 651.097 64.9033C651.284 64.6117 651.441 64.221 651.566 63.7314C651.691 63.2419 651.753 62.7419 651.753 62.2314C651.753 62.1794 651.748 62.096 651.738 61.9814C651.498 62.3773 651.165 62.7002 650.738 62.9502C650.31 63.1898 649.847 63.3096 649.347 63.3096C648.514 63.3096 647.81 63.0075 647.238 62.4033C646.665 61.7992 646.378 61.0075 646.378 60.0283C646.378 59.0075 646.675 58.1898 647.269 57.5752C647.873 56.9502 648.628 56.6377 649.534 56.6377C650.18 56.6377 650.774 56.8148 651.316 57.1689C651.857 57.5127 652.269 58.0127 652.55 58.6689C652.831 59.3148 652.972 60.2523 652.972 61.4814C652.972 62.7627 652.831 63.7835 652.55 64.5439C652.279 65.3044 651.868 65.8825 651.316 66.2783C650.764 66.6742 650.118 66.8721 649.378 66.8721C648.597 66.8721 647.956 66.6533 647.456 66.2158C646.967 65.7783 646.67 65.1689 646.566 64.3877ZM651.597 59.9658C651.597 59.2575 651.409 58.695 651.034 58.2783C650.659 57.8617 650.211 57.6533 649.691 57.6533C649.139 57.6533 648.659 57.8773 648.253 58.3252C647.847 58.7731 647.644 59.3512 647.644 60.0596C647.644 60.695 647.836 61.2158 648.222 61.6221C648.607 62.0179 649.081 62.2158 649.644 62.2158C650.217 62.2158 650.685 62.0179 651.05 61.6221C651.415 61.2158 651.597 60.6637 651.597 59.9658Z" fill="#999999"/>
<path d="M657.8 67.2002H656.534V56.6377H665.128V66.9814H663.862V66.2002H657.8V67.2002ZM663.862 60.7939V57.6689H657.8V60.7939H663.862ZM663.862 65.1689V61.8252H657.8V65.1689H663.862ZM678.081 59.8564H680.659V60.7314H678.362V61.9971H680.222V62.8721H678.362V64.1846H680.222V65.0596H678.362V66.4189H681.097V67.3096H675.566V67.8564H674.644V61.7783C674.352 62.1742 673.987 62.5387 673.55 62.8721L673.159 61.8252C674.545 60.5856 675.441 59.2939 675.847 57.9502H674.581V59.2002H673.659V57.0752H676.066C676.211 56.4919 676.336 55.8721 676.441 55.2158L677.534 55.4814C677.649 55.596 677.612 55.7054 677.425 55.8096C677.321 56.2471 677.211 56.6689 677.097 57.0752H680.987V58.9814H680.05V57.9502H676.878C676.659 58.7106 676.368 59.346 676.003 59.8564H677.159L677.862 58.2158L678.909 58.4346C679.086 58.5075 679.05 58.6012 678.8 58.7158L678.081 59.8564ZM668.847 57.3408V56.3096H673.487V57.3408H671.581C671.508 58.4762 671.269 59.5179 670.862 60.4658H673.003V66.9814H672.066V66.0908H670.644V67.5283H669.722V62.5908C669.503 62.9554 669.264 63.2835 669.003 63.5752L668.3 62.6533C669.571 61.2262 670.316 59.4554 670.534 57.3408H668.847ZM675.566 62.8721V64.1846H677.425V62.8721H675.566ZM675.566 60.7314V61.9971H677.425V60.7314H675.566ZM675.566 65.0596V66.4189H677.425V65.0596H675.566ZM670.644 61.3408V65.2158H672.066V61.3408H670.644ZM687.222 61.4502C688.566 61.0856 689.42 60.3721 689.784 59.3096L688.316 58.7158L688.691 57.7783L690.003 58.2783L690.112 56.9658H687.816V55.9189H694.378L694.269 60.6221C694.237 61.5387 693.857 61.9971 693.128 61.9971H691.862L691.753 60.9502H692.909C693.128 60.9502 693.237 60.8408 693.237 60.6221L693.347 56.9658H691.206L691.05 58.7158L692.362 59.4189L691.862 60.4033L690.769 59.8096C690.3 61.1533 689.264 62.0648 687.659 62.5439L687.222 61.4502ZM694.159 66.9189C693.868 65.8252 693.415 64.8773 692.8 64.0752L693.784 63.6377C694.586 64.6169 695.097 65.5439 695.316 66.4189L694.159 66.9189ZM686.831 63.4658V67.6846H685.909V67.3096H684.05V67.9033H683.112V63.4658H686.831ZM687.269 66.9814C687.529 66.0648 687.696 65.0231 687.769 63.8564L688.862 63.9658C688.935 63.9971 688.899 64.0856 688.753 64.2314C688.711 65.3981 688.545 66.4033 688.253 67.2471L687.269 66.9814ZM690.769 61.6689C691.279 61.9919 691.79 62.5544 692.3 63.3564L691.269 63.9658C691.008 63.4554 690.571 62.8721 689.956 62.2158L690.769 61.6689ZM683.331 55.7002H686.612V56.7471H683.331V55.7002ZM682.628 57.5596H687.331V58.6064H682.628V57.5596ZM683.331 59.5908H686.612V60.6221H683.331V59.5908ZM683.331 61.4502H686.612V62.4814H683.331V61.4502ZM684.05 64.3408V66.4189H685.909V64.3408H684.05ZM690.222 63.3096C690.514 63.3408 690.534 63.4502 690.284 63.6377V66.2002C690.284 66.4606 690.394 66.5908 690.612 66.5908H691.816C692.034 66.5908 692.159 66.4814 692.191 66.2627L692.3 65.3877L693.394 65.6533L693.175 66.8096C693.071 67.3617 692.743 67.6377 692.191 67.6377H690.112C689.498 67.6377 689.191 67.3044 689.191 66.6377V63.3096H690.222Z" fill="#999999"/>
<path d="M38.9702 42.6846C34.4911 41.6429 31.5223 39.2731 30.064 35.5752H27.6421V40.7314L32.0171 39.9502L32.3296 41.2783L24.2827 42.9189C24.2307 43.3356 24.1005 43.4398 23.8921 43.2314L23.3452 41.3564L26.0796 40.9658V35.5752H22.3296V34.0908H26.0796V25.6533H37.3296V27.1377H27.6421V28.3096H36.2359V29.7939H27.6421V31.1221H36.3921V32.6064H27.6421V34.0908H39.6734V35.5752H31.6265C31.939 36.2523 32.5119 37.0075 33.3452 37.8408L35.8452 35.8877L37.1734 36.8252C37.538 37.0856 37.4598 37.2158 36.939 37.2158L34.5171 38.8564C35.5588 39.5856 37.3557 40.2887 39.9077 40.9658L38.9702 42.6846ZM54.7515 26.9814H58.8921V28.4658H55.1421C55.8713 29.5596 57.2255 30.3408 59.2046 30.8096L58.5015 32.3721C56.5744 31.9033 55.09 30.9658 54.0484 29.5596C53.7359 30.8096 52.3817 31.7731 49.9859 32.4502L49.3609 31.0439C51.4963 30.471 52.6942 29.6117 52.9546 28.4658H49.6734V26.9814H53.189V25.1064H54.6734C55.09 25.1585 55.1161 25.3148 54.7515 25.5752V26.9814ZM48.814 28.7783C49.2307 28.8304 49.2567 28.9867 48.8921 29.2471V32.6064H59.9859V34.0908H58.2671V41.7471C58.2671 42.4762 57.9286 42.8408 57.2515 42.8408H55.4546L55.1421 41.3564H56.3921C56.6005 41.3564 56.7046 41.2523 56.7046 41.0439V34.0908H48.8921V39.4814H47.564V38.7002H43.814V40.4971H42.4859V28.7783H43.7359C44.1525 28.8304 44.1786 28.9867 43.814 29.2471V37.2158H45.064V25.9658H46.314C46.7307 26.0179 46.7567 26.1742 46.3921 26.4346V37.2158H47.564V28.7783H48.814ZM55.2202 35.3408V39.7939H51.6265V40.6533H50.2984V35.3408H55.2202ZM53.8921 36.5908H51.6265V38.5439H53.8921V36.5908ZM74.9859 37.6064C76.0275 38.6481 77.564 39.6898 79.5952 40.7314L78.6577 42.3721C76.8869 41.5387 75.2202 40.3408 73.6577 38.7783L74.9859 37.6064ZM68.189 39.0127C67.3036 40.2627 65.9494 41.4867 64.1265 42.6846L62.9546 41.2002C64.6213 40.2106 65.9494 39.0387 66.939 37.6846L68.4234 38.5439C68.6838 38.7523 68.6057 38.9085 68.189 39.0127ZM64.9859 36.9814V37.7627H63.4234V26.5127H64.9077C65.3244 26.5648 65.3504 26.721 64.9859 26.9814V35.4971H79.3609V36.9814H72.0952V42.9971H70.2984V36.9814H64.9859ZM68.4234 33.2314H75.2202V31.7471H68.4234V33.2314ZM68.4234 30.4971H75.2202V29.2471H68.4234V30.4971ZM68.4234 27.9971H75.2202V26.7471H68.4234V27.9971ZM66.8609 34.4814V25.4971H76.7827V34.4814H66.8609ZM91.7827 30.1846C90.8973 35.3929 89.8296 38.6221 88.5796 39.8721C87.9025 40.5492 87.1994 40.8877 86.4702 40.8877C85.6369 40.8877 84.9859 40.6533 84.5171 40.1846C83.2671 38.9346 82.6421 37.3721 82.6421 35.4971C82.6421 33.2054 83.4494 31.2523 85.064 29.6377C86.8348 27.8669 88.9963 26.9814 91.5484 26.9814C93.84 26.9814 95.6369 27.6325 96.939 28.9346C98.3973 30.3929 99.1265 32.1117 99.1265 34.0908C99.1265 36.2262 98.4494 37.971 97.0952 39.3252C96.2098 40.2106 94.8557 41.07 93.0327 41.9033L91.3921 40.2627C93.215 39.6898 94.6473 38.8825 95.689 37.8408C96.6786 36.8512 97.1734 35.6533 97.1734 34.2471C97.1734 32.5804 96.6265 31.2002 95.5327 30.1064C94.439 29.0127 92.7202 28.5179 90.3765 28.6221L91.7827 29.3252C92.4077 29.5856 92.4077 29.8721 91.7827 30.1846ZM89.9859 28.7002C88.6317 29.0127 87.4598 29.6637 86.4702 30.6533C85.1161 32.0075 84.439 33.6742 84.439 35.6533C84.439 36.8512 84.8296 37.8408 85.6109 38.6221C85.7671 38.7783 86.0015 38.8564 86.314 38.8564C86.6265 38.8564 86.965 38.6742 87.3296 38.3096C88.5275 37.1117 89.413 33.9085 89.9859 28.7002ZM109.126 41.5127C111.262 40.3669 112.33 38.4137 112.33 35.6533V26.6689L113.97 26.9814L118.189 25.6533L119.361 27.2158C119.465 27.5283 119.283 27.5804 118.814 27.3721L113.892 28.3096V31.6689H120.064V33.1533H117.72V42.9189H116.158V33.1533H113.892V36.1221C113.892 39.195 112.59 41.4867 109.986 42.9971L109.126 41.5127ZM107.642 42.9971H106.08V38.3096C105.246 39.6637 104.335 40.7314 103.345 41.5127L102.173 40.1064C103.632 39.0648 104.856 37.7627 105.845 36.2002H102.564V34.7158H106.08V32.9971H102.095V31.5127H107.564L108.423 28.7002H102.642V27.2158H106.08V25.0283H107.564C107.981 25.0804 108.007 25.2367 107.642 25.4971V27.2158H111.08V28.7002H110.064L108.97 31.5127H111.47V32.9971H107.642V34.7158H111.08V36.2002H107.642V36.9033C108.371 37.1117 109.387 37.6585 110.689 38.5439L109.751 40.1064C109.022 39.3773 108.319 38.8044 107.642 38.3877V42.9971ZM104.517 31.3564C104.309 30.6273 104.022 29.9242 103.658 29.2471L105.142 28.7783C105.559 29.4554 105.871 30.1585 106.08 30.8877L104.517 31.3564ZM137.251 33.5439H132.173V35.2627H137.251V33.5439ZM135.142 36.7471H133.736V37.5283C133.736 40.7575 131.887 42.6585 128.189 43.2314L127.72 41.5908C130.689 41.2262 132.173 39.82 132.173 37.3721V36.7471H131.392H130.611V25.8096H138.814V36.7471H136.705V40.6533C136.705 41.07 136.887 41.2783 137.251 41.2783H138.033C138.293 41.2783 138.449 41.0179 138.501 40.4971L138.658 39.1689L140.22 39.6377L139.986 41.4346C139.882 42.32 139.387 42.7627 138.501 42.7627H136.548C135.611 42.7627 135.142 42.32 135.142 41.4346V36.7471ZM132.173 32.0596H137.251V30.4189H132.173V32.0596ZM132.173 28.9346H137.251V27.2939H132.173V28.9346ZM126.548 35.8877C127.59 36.3564 128.814 37.2158 130.22 38.4658L129.126 40.1064C128.033 38.9085 127.069 38.0231 126.236 37.4502C125.715 39.7419 124.621 41.5387 122.955 42.8408L121.783 41.4346C124.074 39.5075 125.168 37.0075 125.064 33.9346H122.095V32.4502H125.142V29.6377H122.642V28.1533H125.142V25.0283H126.626C127.043 25.0804 127.069 25.2367 126.705 25.4971V28.1533H129.439V29.6377H126.705V32.4502H129.83V33.9346H126.626C126.626 34.7679 126.6 35.4189 126.548 35.8877ZM146.626 32.1377C147.616 33.4919 148.111 34.8981 148.111 36.3564C148.111 38.3877 147.512 39.4033 146.314 39.4033H145.376L145.064 37.8408H145.845C146.366 37.8408 146.6 37.2939 146.548 36.2002C146.496 34.6898 146.028 33.3617 145.142 32.2158L146.705 27.1377H144.283V42.7627H142.72V25.8877H147.095L147.408 25.4971L148.736 26.6689L148.423 26.9814L146.626 32.1377ZM157.955 36.5127H157.173C156.34 40.3148 153.554 42.5023 148.814 43.0752L148.345 41.5908C152.408 41.2783 154.856 39.5856 155.689 36.5127H154.595C153.71 38.7002 151.835 40.0283 148.97 40.4971L148.501 39.1689C150.897 38.6481 152.382 37.7627 152.955 36.5127H151.705C150.975 37.2419 150.038 37.8148 148.892 38.2314L148.267 36.9033C149.934 36.3825 151.08 35.3929 151.705 33.9346H148.189V32.6846H159.908V33.9346H153.345C153.137 34.4033 152.876 34.846 152.564 35.2627H159.439L159.283 40.1846C159.231 41.8512 158.632 42.6846 157.486 42.6846H155.923L155.689 41.2002H157.017C157.486 41.2002 157.746 40.8877 157.798 40.2627L157.955 36.5127ZM151.314 30.4189H156.626V29.0908H151.314V30.4189ZM151.314 27.8408H156.626V26.5908H151.314V27.8408ZM157.955 25.3408V31.6689H149.986V25.3408H157.955ZM171.236 29.3252H173.345V25.2627H174.83C175.246 25.3148 175.272 25.471 174.908 25.7314V29.3252H179.126V30.8096H174.908V34.5596H178.892V36.0439H174.908V40.6533H180.064V42.1377H168.111V40.6533H173.345V36.0439H169.517V34.5596H173.345V30.8096H170.767C170.403 31.8512 169.83 32.8929 169.048 33.9346L167.72 32.9189C169.074 31.1481 169.96 29.0127 170.376 26.5127L171.861 26.8252C172.278 26.9814 172.278 27.1377 171.861 27.2939L171.236 29.3252ZM164.595 25.0283H166.08C166.496 25.0804 166.522 25.2367 166.158 25.4971V42.8408H164.595V25.0283ZM167.564 28.2314C168.033 28.8564 168.423 29.5596 168.736 30.3408L167.486 31.2002C167.121 30.3148 166.757 29.5856 166.392 29.0127L167.564 28.2314ZM164.126 29.0908C164.491 29.195 164.491 29.3512 164.126 29.5596C164.022 31.2262 163.788 32.7887 163.423 34.2471L161.939 33.7783C162.356 32.4762 162.59 30.8356 162.642 28.8564L164.126 29.0908ZM196.939 33.6221V42.6846H195.376V41.9033H188.345V42.9189H186.783V35.8096C185.429 36.5387 183.97 37.1117 182.408 37.5283L181.861 36.1221C183.319 35.7575 184.96 35.1064 186.783 34.1689V33.6221H187.876C188.97 32.9971 189.908 32.3721 190.689 31.7471H182.486V30.2627H189.361V28.3877H184.517V26.9033H189.361V25.0283H190.845C191.262 25.0804 191.288 25.2367 190.923 25.4971V26.9033H194.673V28.2314C195.298 27.5544 195.923 26.7992 196.548 25.9658L197.642 26.6689C198.007 26.9294 197.955 27.0856 197.486 27.1377C196.496 28.3356 195.507 29.3773 194.517 30.2627H199.908V31.7471H192.876C191.835 32.6325 191.001 33.2575 190.376 33.6221H196.939ZM192.408 30.2627C193.033 29.7939 193.736 29.1689 194.517 28.3877H190.923V30.2627H192.408ZM188.345 36.9814H195.376V34.8721H188.345V36.9814ZM188.345 40.6533H195.376V38.2314H188.345V40.6533ZM215.533 36.9033C216.262 35.4971 216.705 33.3617 216.861 30.4971H214.205C214.361 33.3617 214.804 35.4971 215.533 36.9033ZM218.423 30.4971C218.319 33.7262 217.694 36.3304 216.548 38.3096C217.382 39.3512 218.554 40.2627 220.064 41.0439L219.048 42.7627C217.382 41.6689 216.21 40.6273 215.533 39.6377C214.335 40.9919 212.486 42.1637 209.986 43.1533L209.205 41.5908C211.913 40.4971 213.71 39.3773 214.595 38.2314C213.71 36.5127 213.215 34.7939 213.111 33.0752C212.798 33.8564 212.486 34.4554 212.173 34.8721L210.845 33.8564C212.408 31.5648 213.345 28.7262 213.658 25.3408L215.298 25.7314C215.611 25.9398 215.533 26.096 215.064 26.2002C214.908 27.1377 214.699 28.0752 214.439 29.0127H219.751V30.4971H218.423ZM211.158 26.7471C210.845 27.5283 210.481 28.1794 210.064 28.7002L208.814 27.9971C209.231 27.32 209.621 26.5387 209.986 25.6533L211.392 26.3564C211.6 26.5648 211.522 26.695 211.158 26.7471ZM206.158 37.7627C206.887 37.971 207.538 38.2054 208.111 38.4658C208.528 37.9971 208.866 37.2939 209.126 36.3564H206.861C206.653 36.8252 206.418 37.2939 206.158 37.7627ZM205.064 39.7158L203.814 39.0127C204.335 38.2314 204.856 37.346 205.376 36.3564H202.408V35.1064H205.845C206.158 34.4294 206.392 33.8564 206.548 33.3877L208.033 33.7783C208.241 33.9867 208.163 34.1169 207.798 34.1689L207.33 35.1064H211.783V36.3564H210.611C210.35 37.3981 209.96 38.2835 209.439 39.0127C209.908 39.221 210.403 39.4814 210.923 39.7939L210.22 41.0439C209.647 40.6794 209.126 40.3929 208.658 40.1846C207.304 41.5387 205.481 42.3721 203.189 42.6846L202.642 41.2783C204.673 41.07 206.236 40.4971 207.33 39.5596C206.757 39.2992 206.184 39.0648 205.611 38.8564L205.064 39.7158ZM206.626 25.0283H207.876C208.293 25.0804 208.319 25.2367 207.955 25.4971V28.8564H211.939V30.1064H208.658C209.231 30.7835 210.116 31.4346 211.314 32.0596L210.455 33.3877C209.569 32.8669 208.736 32.1377 207.955 31.2002V33.0752H206.626V31.5908C205.793 32.6325 204.647 33.57 203.189 34.4033L202.173 33.1533C203.788 32.32 205.116 31.3044 206.158 30.1064H202.564V28.8564H206.626V25.0283ZM204.439 28.6221C204.074 27.8408 203.606 27.1637 203.033 26.5908L204.283 25.8096C204.908 26.4346 205.376 27.0856 205.689 27.7627L204.439 28.6221ZM231.783 30.1846C230.897 35.3929 229.83 38.6221 228.58 39.8721C227.903 40.5492 227.199 40.8877 226.47 40.8877C225.637 40.8877 224.986 40.6533 224.517 40.1846C223.267 38.9346 222.642 37.3721 222.642 35.4971C222.642 33.2054 223.449 31.2523 225.064 29.6377C226.835 27.8669 228.996 26.9814 231.548 26.9814C233.84 26.9814 235.637 27.6325 236.939 28.9346C238.397 30.3929 239.126 32.1117 239.126 34.0908C239.126 36.2262 238.449 37.971 237.095 39.3252C236.21 40.2106 234.856 41.07 233.033 41.9033L231.392 40.2627C233.215 39.6898 234.647 38.8825 235.689 37.8408C236.679 36.8512 237.173 35.6533 237.173 34.2471C237.173 32.5804 236.626 31.2002 235.533 30.1064C234.439 29.0127 232.72 28.5179 230.376 28.6221L231.783 29.3252C232.408 29.5856 232.408 29.8721 231.783 30.1846ZM229.986 28.7002C228.632 29.0127 227.46 29.6637 226.47 30.6533C225.116 32.0075 224.439 33.6742 224.439 35.6533C224.439 36.8512 224.83 37.8408 225.611 38.6221C225.767 38.7783 226.001 38.8564 226.314 38.8564C226.626 38.8564 226.965 38.6742 227.33 38.3096C228.528 37.1117 229.413 33.9085 229.986 28.7002ZM247.564 31.8252C249.283 30.2106 250.611 27.8669 251.548 24.7939L253.111 25.2627C253.371 25.471 253.319 25.6012 252.955 25.6533C252.538 26.695 252.121 27.6585 251.705 28.5439H254.048C254.621 27.346 255.064 26.2783 255.376 25.3408L256.861 25.8877C257.069 26.096 256.991 26.2262 256.626 26.2783C256.262 27.1117 255.897 27.8669 255.533 28.5439H259.517V30.0283H255.533V32.4502H258.736V33.9346H255.533V36.4346H258.736V37.9189H255.533V40.8096H259.986V42.2939H251.392V42.9971H249.83V31.6689C249.465 32.1898 249.074 32.6585 248.658 33.0752L247.564 31.8252ZM243.658 42.8408L243.345 41.3564H244.673C244.882 41.3564 244.986 41.2523 244.986 41.0439V36.2002L242.955 36.6689C242.903 37.0335 242.772 37.1117 242.564 36.9033L242.251 35.1064L244.986 34.5596V30.4189H242.564V28.9346H244.986V24.9502H246.47C246.887 25.0023 246.913 25.1585 246.548 25.4189V28.9346H248.58V30.4189H246.548V34.2471L248.58 33.7002L248.814 35.1064L246.548 35.8096V41.5908C246.548 42.4242 246.132 42.8408 245.298 42.8408H243.658ZM251.392 40.8096H253.97V37.9189H251.392V40.8096ZM251.392 36.4346H253.97V33.9346H251.392V36.4346ZM251.392 32.4502H253.97V30.0283H251.392V32.4502ZM277.642 27.1377L277.876 26.8252L279.126 27.8408L278.892 28.0752C277.538 30.4189 276.21 31.9814 274.908 32.7627L275.689 32.9971C276.054 33.1533 276.028 33.3096 275.611 33.4658C275.507 33.8304 275.376 34.1429 275.22 34.4033H278.58L278.814 34.0908L280.22 35.1064L279.908 35.4189C278.241 39.846 274.856 42.346 269.751 42.9189L269.126 41.4346C271.574 41.1742 273.501 40.5231 274.908 39.4814C274.179 38.7523 273.449 38.1273 272.72 37.6064C272.043 38.1794 271.132 38.7002 269.986 39.1689L269.283 37.7627C271.835 36.721 273.501 35.1325 274.283 32.9971C273.501 33.7262 272.095 34.3512 270.064 34.8721L269.361 33.4658C271.34 33.0492 272.824 32.5023 273.814 31.8252C273.293 31.2002 272.668 30.6533 271.939 30.1846C271.574 30.5492 271.21 30.8617 270.845 31.1221L269.751 29.9502C271.47 28.4919 272.564 26.9294 273.033 25.2627L274.439 25.7314C274.804 25.8877 274.778 26.0439 274.361 26.2002C274.309 26.5127 274.179 26.8252 273.97 27.1377H277.642ZM267.017 30.1846H269.595V31.6689H267.017V33.6221C268.059 34.0908 269.048 34.7939 269.986 35.7314L268.97 37.1377C268.137 36.3044 267.486 35.7054 267.017 35.3408V42.9189H265.455V35.1846C265.142 36.2262 264.283 37.5544 262.876 39.1689L261.705 37.6846C263.632 35.8617 264.83 33.8564 265.298 31.6689H262.251V30.1846H265.455V27.6064C264.413 27.7627 263.475 27.8929 262.642 27.9971L262.251 26.5127C264.335 26.3044 266.496 25.8877 268.736 25.2627L269.595 26.4346C269.804 26.7471 269.673 26.8512 269.205 26.7471C268.475 26.9554 267.746 27.1377 267.017 27.2939V30.1846ZM272.72 29.2471C273.501 29.6637 274.257 30.1846 274.986 30.8096C275.767 30.0804 276.418 29.2731 276.939 28.3877H273.345C273.137 28.7523 272.929 29.0387 272.72 29.2471ZM273.58 36.6689C274.309 37.0856 275.142 37.7106 276.08 38.5439C276.861 37.971 277.538 37.0075 278.111 35.6533H274.517C274.205 36.07 273.892 36.4085 273.58 36.6689ZM285.611 29.3252C286.184 28.1273 287.147 26.9033 288.501 25.6533L289.361 26.4346C288.059 27.6325 287.147 28.7783 286.626 29.8721C286.054 31.07 285.767 32.5023 285.767 34.1689C285.767 35.5752 286.054 36.9033 286.626 38.1533C287.147 39.2992 288.059 40.5752 289.361 41.9814L288.501 42.8408C287.199 41.3825 286.236 40.0023 285.611 38.7002C284.934 37.2939 284.595 35.7835 284.595 34.1689C284.595 32.346 284.934 30.7314 285.611 29.3252ZM296.705 41.9033H294.908V26.8252H307.173V41.5908H305.376V40.4971H296.705V41.9033ZM305.376 32.7627V28.3096H296.705V32.7627H305.376ZM305.376 39.0127V34.2471H296.705V39.0127H305.376ZM320.142 35.8096H317.173C316.705 38.7783 315.298 41.1221 312.955 42.8408L312.173 41.3564C314.465 39.7419 315.715 37.346 315.923 34.1689L316.08 31.7471H314.986V32.7627H313.423V26.0439H321.314V32.4502H319.751V31.7471H317.486L317.33 34.3252H321.705L321.314 40.4971C321.21 41.7471 320.689 42.3721 319.751 42.3721H317.642L317.408 40.8877H319.126C319.595 40.8877 319.856 40.6273 319.908 40.1064L320.142 35.8096ZM328.58 41.2002C328.58 42.0856 328.163 42.5283 327.33 42.5283H325.611L325.298 41.0439H326.783C326.939 41.0439 327.017 40.9658 327.017 40.8096V25.8096H328.501C328.918 25.8617 328.944 26.0179 328.58 26.2783V41.2002ZM324.83 27.6846C325.246 27.7367 325.272 27.8929 324.908 28.1533V38.8564H323.345V27.6846H324.83ZM319.751 30.4971V27.2939H314.986V30.4971H319.751ZM336.314 38.7002C335.689 40.0023 334.725 41.3825 333.423 42.8408L332.564 41.9814C333.866 40.5752 334.778 39.2992 335.298 38.1533C335.871 36.9033 336.158 35.5752 336.158 34.1689C336.158 32.5023 335.871 31.07 335.298 29.8721C334.778 28.7783 333.866 27.6325 332.564 26.4346L333.423 25.6533C334.778 26.9033 335.741 28.1273 336.314 29.3252C336.991 30.7314 337.33 32.346 337.33 34.1689C337.33 35.7835 336.991 37.2939 336.314 38.7002Z" fill="#757575"/>
</g>
<rect x="2" y="2" width="714" height="440" stroke="black" stroke-width="4"/>
<defs>
<clipPath id="clip0_7_22872">
<rect width="718" height="444" fill="white"/>
</clipPath>
</defs>
</svg>
