<svg width="718" height="444" viewBox="0 0 718 444" fill="none" xmlns="http://www.w3.org/2000/svg">
<g clip-path="url(#clip0_7_21838)">
<path d="M0 0H718V444H0V0Z" fill="white"/>
<path d="M181.5 91.5V369.5" stroke="#CCCCCC" stroke-miterlimit="10"/>
<path d="M303.5 91.5V369.5" stroke="#CCCCCC" stroke-miterlimit="10"/>
<path d="M424.5 91.5V369.5" stroke="#CCCCCC" stroke-miterlimit="10"/>
<path d="M545.5 91.5V369.5" stroke="#CCCCCC" stroke-miterlimit="10"/>
<path d="M667.5 91.5V369.5" stroke="#CCCCCC" stroke-miterlimit="10"/>
<path d="M88.5 369.5H695.5" stroke="#333333" stroke-miterlimit="10"/>
<path d="M88.5 300.5H695.5" stroke="#CCCCCC" stroke-miterlimit="10"/>
<path d="M88.5 230.5H695.5" stroke="#CCCCCC" stroke-miterlimit="10"/>
<path d="M88.5 161.5H695.5" stroke="#CCCCCC" stroke-miterlimit="10"/>
<path d="M88.5 91.5H695.5" stroke="#CCCCCC" stroke-miterlimit="10"/>
<path d="M88.2 369.8H88.807H89.414H90.021H90.628H91.235H91.842H92.449H93.056H93.6629H94.2699H94.8769H95.4839H96.0909H96.6979H97.3049H97.9119H98.5189H99.1259H99.7329H100.34H100.947H101.554H102.161H102.768H103.375H103.982H104.589H105.196H105.803H106.41H107.017H107.624H108.231H108.838H109.445H110.052H110.659H111.266H111.873L112.48 369.731H113.087L113.694 369.8H114.301H114.908H115.515H116.122H116.729H117.336H117.943L118.55 369.731L119.157 369.8H119.764H120.371H120.978H121.585H122.192H122.799L123.406 369.731L124.013 369.8H124.62H125.227H125.834H126.441H127.048H127.655H128.262H128.869L129.476 369.731L130.083 369.8H130.69L131.297 369.731L131.904 369.8L132.51 369.661L133.117 369.8H133.724H134.331H134.938L135.545 369.731H136.152H136.759L137.366 369.661L137.973 369.8L138.58 369.452L139.187 369.661L139.794 369.383L140.401 369.731H141.008L141.615 369.313L142.222 369.731L142.829 369.661L143.436 369.383L144.043 369.661L144.65 369.8L145.257 369.452L145.864 369.731L146.471 369.661H147.078L147.685 369.591L148.292 369.522L148.899 369.661L149.506 369.8L150.113 369.731H150.72L151.327 369.8H151.934H152.541L153.148 369.522L153.755 369.8L154.362 369.661L154.969 369.8L155.576 369.731L156.183 369.8L156.79 369.731H157.397L158.004 369.8H158.611L159.218 369.731L159.825 369.8H160.432H161.039H161.646H162.253H162.86H163.467H164.074H164.681H165.288H165.895H166.502H167.109H167.716H168.323H168.93H169.537H170.144H170.751H171.358H171.965H172.572H173.179H173.786H174.393H175H175.607H176.214H176.821H177.428H178.035H178.642H179.249H179.856H180.463H181.07H181.677L182.284 369.731L182.891 369.8H183.498H184.105H184.712H185.319H185.926H186.533H187.14H187.747H188.354H188.961H189.568H190.175H190.782H191.389H191.996H192.603H193.21H193.817H194.424H195.031H195.638L196.245 369.731H196.852L197.459 369.8L198.066 369.731H198.673L199.28 369.661L199.887 369.731L200.494 369.8H201.101L201.708 369.661L202.315 369.8H202.922L203.529 369.731H204.136L204.743 369.522L205.35 369.8L205.957 369.383L206.564 369.522L207.171 369.731L207.778 369.661L208.385 369.383H208.992L209.599 369.661L210.206 369.591H210.813L211.42 369.731H212.027L212.634 369.8L213.241 369.522L213.848 369.731L214.455 369.661L215.062 369.452L215.669 369.731L216.276 369.452L216.883 369.591L217.49 369.8L218.097 369.731H218.704L219.311 369.661H219.917L220.524 369.174L221.131 369.383L221.738 369.591L222.345 369.035L222.952 369.661L223.559 369.174L224.166 369.383L224.773 368.478L225.38 368.548L225.987 368.965L226.594 369.313L227.201 369.452L227.808 369.313L228.415 368.965L229.022 369.522L229.629 369.661L230.236 369.731L230.843 369.591L231.45 369.661L232.057 369.731L232.664 369.661L233.271 369.731L233.878 369.8H234.485H235.092L235.699 369.731L236.306 369.661L236.913 369.8H237.52L238.127 369.661L238.734 369.8L239.341 369.661L239.948 369.8H240.555H241.162H241.769H242.376L242.983 369.661L243.59 369.8H244.197L244.804 369.522L245.411 369.731H246.018H246.625H247.232L247.839 369.8H248.446L249.053 369.591L249.66 369.731H250.267L250.874 369.661L251.481 369.8H252.088H252.695H253.302H253.909L254.516 369.591H255.123L255.73 369.8H256.337H256.944L257.551 369.731L258.158 369.661L258.765 369.731H259.372L259.979 369.591L260.586 369.8H261.193L261.8 369.731L262.407 369.591L263.014 369.731L263.621 369.661H264.228L264.835 369.731L265.442 369.452L266.049 369.731L266.656 369.8L267.263 369.731L267.87 368.687L268.477 369.591L269.084 368.826L269.691 369.591L270.298 369.383L270.905 368.896L271.512 368.2L272.119 368.478L272.726 368.896L273.333 369.104L273.94 368.13L274.547 367.713L275.154 368.409L275.761 368.269L276.368 368.061L276.975 368.826L277.582 368.965L278.189 369.035L278.796 369.174L279.403 368.687H280.01L280.617 368.339L281.224 368.965L281.831 368.756L282.438 368.548L283.045 368.965H283.652L284.259 368.826L284.866 368.965L285.473 368.617L286.08 368.409L286.687 368.756L287.294 368.061L287.901 367.782L288.508 368.617L289.115 367.574L289.722 368.687L290.329 368.409L290.936 368.826L291.543 368.756L292.15 369.313L292.757 369.104H293.364L293.971 368.896L294.578 369.522L295.185 369.591L295.792 369.243L296.399 369.104L297.006 368.617H297.613L298.22 368.339L298.827 369.591L299.434 369.035L300.041 368.2L300.648 368.409L301.255 368.2L301.862 369.035L302.469 368.061L303.076 368.548L303.683 366.739L304.29 366.321L304.897 364.304L305.504 365.139L306.111 366.947L306.717 365.069L307.324 364.721L307.931 366.252L308.538 367.365L309.145 366.252L309.752 365.834L310.359 365.556L310.966 366.182L311.573 368.061L312.18 368.826L312.787 366.391L313.394 368.061L314.001 367.922L314.608 367.991L315.215 367.782L315.822 369.174L316.429 368.2H317.036L317.643 368.617L318.25 368.965H318.857L319.464 369.243L320.071 369.661L320.678 369.243L321.285 368.687L321.892 369.452L322.499 369.174L323.106 369.731L323.713 369.383L324.32 369.591L324.927 369.661L325.534 369.452L326.141 369.8H326.748H327.355H327.962L328.569 369.661H329.176L329.783 369.8L330.39 369.591L330.997 369.661L331.604 369.522L332.211 369.8H332.818H333.425L334.032 369.731L334.639 369.8L335.246 369.522L335.853 369.731L336.46 369.8H337.067H337.674H338.281H338.888L339.495 369.522L340.102 369.731L340.709 369.452L341.316 369.8L341.923 369.452L342.53 369.383L343.137 369.522L343.744 369.104L344.351 369.243L344.958 369.104L345.565 368.826L346.172 369.243L346.779 368.061L347.386 368.826L347.993 368.548L348.6 368.617L349.207 368.478L349.814 369.104H350.421L351.028 367.782L351.635 367.504L352.242 367.226L352.849 367.852L353.456 367.574L354.063 368.409L354.67 368.269L355.277 366.808L355.884 367.574L356.491 367.922L357.098 366.6L357.705 367.504L358.312 368.2L358.919 368.061L359.526 366.46L360.133 367.087L360.74 366.46L361.347 367.156L361.954 366.669L362.561 368.339L363.168 367.782L363.775 365.486L364.382 367.087L364.989 365.486L365.596 365.834L366.203 367.365L366.81 368.409H367.417L368.024 367.365L368.631 365.973L369.238 367.017H369.845L370.452 368.409L371.059 369.383L371.666 368.339L372.273 366.878L372.88 368.339L373.487 367.782L374.094 368.339L374.701 366.739L375.308 368.339L375.915 368.478L376.522 368.687L377.129 369.174L377.736 366.53L378.343 366.6L378.95 367.226L379.557 368.756L380.164 368.061L380.771 367.156L381.378 367.295L381.985 366.808L382.592 367.017H383.199L383.806 368.2L384.413 367.922L385.02 365.486L385.627 367.226L386.234 367.365L386.841 366.46L387.448 367.156L388.055 367.782L388.662 368.826L389.269 367.365H389.876L390.483 368.896L391.09 368.339L391.697 369.104L392.304 369.035L392.911 368.548L393.518 368.687L394.125 368.548L394.732 369.243L395.339 368.756L395.945 369.035L396.552 369.591L397.159 369.243L397.766 368.756L398.373 368.896L398.98 369.383L399.587 369.104L400.194 369.522L400.801 369.661L401.408 369.522H402.015L402.622 369.452H403.229L403.836 369.313L404.443 369.104L405.05 369.313H405.657L406.264 368.617L406.871 369.452H407.478L408.085 369.035L408.692 369.522L409.299 369.731L409.906 369.591L410.513 369.452L411.12 369.731L411.727 369.8L412.334 369.661L412.941 369.8L413.548 369.661L414.155 369.522H414.762L415.369 369.452L415.976 369.591L416.583 369.661L417.19 369.731L417.797 369.591L418.404 369.661L419.011 369.452L419.618 369.731L420.225 369.522L420.832 369.383L421.439 369.452L422.046 369.383L422.653 369.452L423.26 369.174L423.867 369.243L424.474 369.452L425.081 369.243L425.688 369.104L426.295 368.896L426.902 368.2L427.509 368.687L428.116 367.782L428.723 367.365L429.33 366.947L429.937 367.087L430.544 367.226L431.151 366.739L431.758 365.556L432.365 365.417L432.972 365.626L433.579 366.391L434.186 366.947L434.793 366.878L435.4 367.017L436.007 364.721L436.614 363.956L437.221 362.216L437.828 362.843L438.435 362.912L439.042 365.626L439.649 363.886L440.256 359.225L440.863 358.807L441.47 360.338L442.077 359.364L442.684 361.312L443.291 364.443L443.898 363.33L444.505 361.103L445.112 362.356L445.719 361.66L446.326 362.773L446.933 365.765L447.54 367.017L448.147 365.486L448.754 364.373L449.361 365.765L449.968 366.043L450.575 366.669L451.182 366.808L451.789 367.922L452.396 367.713L453.003 367.226L453.61 367.574L454.217 367.504L454.824 367.852L455.431 368.548L456.038 368.478L456.645 367.226L457.252 367.365L457.859 366.669L458.466 364.443L459.073 367.435L459.68 368.2L460.287 369.383L460.894 369.104L461.501 368.896L462.108 368.339L462.715 368.548L463.322 369.522L463.929 369.313L464.536 369.383L465.143 368.896L465.75 368.965L466.357 369.243L466.964 368.687L467.571 368.965L468.178 369.383L468.785 369.661L469.392 369.035L469.999 368.965L470.606 369.522L471.213 369.104L471.82 369.313L472.427 369.591L473.034 369.661L473.641 369.243L474.248 368.965L474.855 369.591H475.462L476.069 369.313L476.676 369.8L477.283 369.661L477.89 369.522L478.497 369.452L479.104 369.661L479.711 369.522H480.318L480.924 369.731L481.531 369.591L482.138 369.174L482.745 369.8L483.352 369.591H483.959L484.566 369.731L485.173 369.8L485.78 369.731L486.387 369.8L486.994 369.661L487.601 369.8L488.208 369.731L488.815 369.8L489.422 369.731H490.029L490.636 369.661L491.243 369.731H491.85L492.457 369.8H493.064H493.671H494.278H494.885H495.492H496.099L496.706 369.661L497.313 369.8H497.92H498.527H499.134H499.741H500.348H500.955H501.562H502.169H502.776L503.383 369.661L503.99 369.8H504.597H505.204L505.811 369.731L506.418 369.591L507.025 369.8L507.632 369.731L508.239 369.8L508.846 369.731H509.453L510.06 369.8H510.667H511.274L511.881 369.661H512.488L513.095 369.8L513.702 369.731L514.309 369.661L514.916 369.522L515.523 369.591H516.13L516.737 369.522H517.344L517.951 369.313L518.558 369.731L519.165 369.661L519.772 369.731L520.379 369.522L520.986 369.174L521.593 369.104L522.2 369.591L522.807 369.661L523.414 368.478L524.021 369.383L524.628 368.965L525.235 367.922L525.842 366.252L526.449 366.53L527.056 361.729L527.663 362.147L528.27 364.512L528.877 363.538L529.484 354.285L530.091 355.398L530.698 354.354L531.305 352.893L531.912 358.529L532.519 354.494L533.126 345.658L533.733 341.413L534.34 342.944L534.947 338.004L535.554 339.883L536.161 336.682L536.768 350.458L537.375 332.577L537.982 326.524L538.589 321.167L539.196 326.664L539.803 324.994L540.41 341.9H541.017L541.624 323.324L542.231 326.455L542.838 329.864L543.445 332.23L544.052 329.794L544.659 330.212L545.266 343.083L545.873 334.873L546.48 316.714L547.087 323.254L547.694 326.107L548.301 346.075L548.908 335.708L549.515 351.502L550.122 324.368L550.729 327.359L551.336 333.551L551.943 332.647L552.55 338.004L553.157 344.892L553.764 353.659L554.371 335.36L554.978 338.491L555.585 351.293L556.192 339.674L556.799 346.632L557.406 347.954L558.013 354.702L558.62 343.501L559.227 339.952L559.834 343.014L560.441 345.379L561.048 343.57L561.655 346.632L562.262 354.911L562.869 343.083L563.476 337.378L564.083 340.509L564.69 341.831L565.297 345.379L565.904 347.954L566.51 351.015L567.117 335.013L567.724 331.603L568.331 332.23L568.938 333.551L569.545 338.77L570.152 339.396L570.759 348.719L571.366 350.18L571.973 322.559L572.58 337.865L573.187 334.873L573.794 337.1L574.401 345.936L575.008 348.928L575.615 329.516L576.222 329.864L576.829 328.264L577.436 325.133L578.043 331.673L578.65 336.195L579.257 345.518L579.864 317.549L580.471 320.054H581.078L581.685 310.8L582.292 317.897L582.899 328.751L583.506 346.145L584.113 304.469L584.72 305.722L585.327 313.514L585.934 316.854L586.541 323.254L587.148 330.49L587.755 352.128L588.362 311.427L588.969 320.402L589.576 325.481L590.183 332.16L590.79 331.186L591.397 334.039L592.004 354.215L592.611 326.107L593.218 331.395L593.825 335.917L594.432 343.918L595.039 354.841L595.646 349.484L596.253 349.415L596.86 338.213L597.467 349.832L598.074 356.233L598.681 353.172L599.288 324.924L599.895 340.648L600.502 355.189L601.109 333.273L601.716 338.491L602.323 341.205L602.93 345.658L603.537 339.952L604.144 337.865L604.751 352.963L605.358 332.09L605.965 333.343L606.572 339.883L607.179 338.491L607.786 340.092L608.393 344.683L609 356.65L609.607 332.856L610.214 338.7L610.821 346.562L611.428 350.11L612.035 347.536L612.642 354.494L613.249 363.26L613.856 347.467L614.463 352.685L615.07 354.702L615.677 356.233L616.284 359.225L616.891 360.268L617.498 363.19L618.105 354.076L618.712 357.485L619.319 356.65L619.926 360.199L620.533 353.798L621.14 362.147L621.747 364.234L622.354 356.024L622.961 357.485L623.568 360.268L624.175 359.99L624.782 358.877L625.389 363.469L625.996 365.695L626.603 359.573L627.21 362.008L627.817 361.242L628.424 361.869L629.031 360.825L629.638 363.956L630.245 367.226L630.852 361.173L631.459 361.312L632.066 360.686L632.673 362.564L633.28 360.268L633.887 360.477L634.494 363.26L635.101 351.224L635.708 348.719L636.315 347.049L636.922 347.745L637.529 340.996L638.136 344.405L638.743 352.198L639.35 324.089L639.957 321.167H640.564L641.171 318.871L641.778 313.096L642.385 319.08L642.992 333.691L643.599 336.195L644.206 258.898L644.813 259.106L645.42 262.307L646.027 256.671L646.634 265.438L647.241 318.454L647.848 243.104L648.455 219.866L649.062 220.214L649.669 248.74L650.276 239.347L650.883 253.61L651.49 317.41L652.096 216.387L652.703 206.299L653.31 210.056L653.917 233.016L654.524 221.605L655.131 243.243L655.738 302.869L656.345 182.295L656.952 203.725L657.559 192.662L658.166 268.151L658.773 207.969L659.38 237.329L659.987 285.197L660.594 245.957L661.201 211.795L661.808 119.4L662.415 115.921L663.022 137.837L663.629 189.601L664.236 285.614L664.843 164.554L665.45 149.317L666.057 182.991L666.664 221.466L667.271 219.17L667.878 230.581L668.485 311.079L669.092 199.689L669.699 199.55L670.306 220.423L670.913 249.087L671.52 253.749L672.127 266.272L672.734 327.707L673.341 231.485L673.948 228.354L674.555 259.663L675.162 275.456L675.769 281.022L676.376 295.007L676.983 333.83L677.59 265.994L678.197 266.899L678.804 286.658L679.411 296.051L680.018 299.321L680.625 305.374L681.232 340.718L681.839 331.673L682.446 286.032L683.053 291.876L683.66 310.522L684.267 336.334L684.874 307.809L685.481 329.516L686.088 324.855L686.695 292.781L687.302 305.095L687.909 316.645L688.516 326.246L689.123 318.245L689.73 345.379L690.337 326.037L690.944 290.415L691.551 317.271L692.158 318.593L692.765 319.984L693.372 325.968L693.979 345.379L694.586 344.892L695.193 301.477L695.8 273.926" stroke="#4285F4" stroke-width="2" stroke-miterlimit="10"/>
<path d="M379.922 418.8V410.206H382.891C383.557 410.206 384.068 410.248 384.422 410.331C384.911 410.446 385.328 410.649 385.672 410.94C386.13 411.326 386.469 411.821 386.688 412.425C386.917 413.019 387.031 413.696 387.031 414.456C387.031 415.112 386.953 415.69 386.797 416.19C386.651 416.69 386.458 417.107 386.219 417.44C385.979 417.774 385.714 418.034 385.422 418.222C385.141 418.409 384.802 418.555 384.406 418.659C384.01 418.753 383.552 418.8 383.031 418.8H379.922ZM381.062 417.784H382.891C383.464 417.784 383.911 417.732 384.234 417.628C384.557 417.524 384.812 417.373 385 417.175C385.271 416.914 385.479 416.555 385.625 416.097C385.781 415.638 385.859 415.086 385.859 414.44C385.859 413.545 385.708 412.857 385.406 412.378C385.115 411.888 384.76 411.56 384.344 411.394C384.031 411.279 383.542 411.222 382.875 411.222H381.062V417.784ZM392.859 418.034C392.464 418.368 392.083 418.602 391.719 418.737C391.365 418.873 390.979 418.94 390.562 418.94C389.875 418.94 389.349 418.774 388.984 418.44C388.62 418.107 388.438 417.68 388.438 417.159C388.438 416.857 388.505 416.581 388.641 416.331C388.776 416.071 388.958 415.868 389.188 415.722C389.417 415.565 389.672 415.451 389.953 415.378C390.151 415.315 390.464 415.258 390.891 415.206C391.734 415.112 392.359 414.993 392.766 414.847C392.766 414.701 392.766 414.612 392.766 414.581C392.766 414.144 392.667 413.836 392.469 413.659C392.198 413.43 391.797 413.315 391.266 413.315C390.776 413.315 390.411 413.404 390.172 413.581C389.932 413.748 389.755 414.05 389.641 414.487L388.609 414.347C388.703 413.909 388.859 413.555 389.078 413.284C389.297 413.013 389.609 412.805 390.016 412.659C390.422 412.513 390.891 412.44 391.422 412.44C391.953 412.44 392.385 412.503 392.719 412.628C393.052 412.753 393.297 412.909 393.453 413.097C393.609 413.284 393.719 413.524 393.781 413.815C393.812 413.993 393.828 414.315 393.828 414.784V416.19C393.828 417.17 393.849 417.789 393.891 418.05C393.943 418.31 394.036 418.56 394.172 418.8H393.062C392.958 418.581 392.891 418.326 392.859 418.034ZM392.766 415.675C392.38 415.831 391.807 415.966 391.047 416.081C390.609 416.144 390.302 416.216 390.125 416.3C389.948 416.373 389.807 416.482 389.703 416.628C389.609 416.774 389.562 416.94 389.562 417.128C389.562 417.409 389.667 417.644 389.875 417.831C390.094 418.019 390.406 418.112 390.812 418.112C391.219 418.112 391.578 418.024 391.891 417.847C392.214 417.67 392.448 417.425 392.594 417.112C392.708 416.873 392.766 416.524 392.766 416.065V415.675ZM398.094 417.862L398.25 418.784C397.948 418.847 397.682 418.878 397.453 418.878C397.068 418.878 396.771 418.821 396.562 418.706C396.354 418.581 396.203 418.42 396.109 418.222C396.026 418.024 395.984 417.607 395.984 416.972V413.394H395.219V412.581H395.984V411.034L397.031 410.409V412.581H398.094V413.394H397.031V417.034C397.031 417.336 397.047 417.529 397.078 417.612C397.12 417.696 397.182 417.763 397.266 417.815C397.349 417.868 397.469 417.894 397.625 417.894C397.75 417.894 397.906 417.883 398.094 417.862ZM403.047 416.8L404.141 416.925C403.974 417.56 403.656 418.055 403.188 418.409C402.719 418.763 402.125 418.94 401.406 418.94C400.5 418.94 399.776 418.659 399.234 418.097C398.703 417.534 398.438 416.748 398.438 415.737C398.438 414.696 398.708 413.888 399.25 413.315C399.792 412.732 400.49 412.44 401.344 412.44C402.177 412.44 402.854 412.722 403.375 413.284C403.906 413.847 404.172 414.644 404.172 415.675C404.172 415.737 404.172 415.831 404.172 415.956H399.531C399.573 416.644 399.766 417.17 400.109 417.534C400.453 417.888 400.885 418.065 401.406 418.065C401.792 418.065 402.12 417.966 402.391 417.769C402.672 417.56 402.891 417.237 403.047 416.8ZM399.594 415.097H403.062C403.021 414.565 402.891 414.17 402.672 413.909C402.328 413.503 401.891 413.3 401.359 413.3C400.87 413.3 400.458 413.461 400.125 413.784C399.802 414.107 399.625 414.545 399.594 415.097Z" fill="black"/>
<path d="M33.2 258.228H24.6062V257.072L31.3562 252.556H24.6062V251.462H33.2V252.634L26.45 257.15H33.2V258.228ZM32.4344 245.291C32.7677 245.686 33.0021 246.067 33.1375 246.431C33.2729 246.785 33.3406 247.171 33.3406 247.587C33.3406 248.275 33.1739 248.801 32.8406 249.166C32.5073 249.53 32.0802 249.712 31.5594 249.712C31.2573 249.712 30.9812 249.645 30.7312 249.509C30.4708 249.374 30.2677 249.192 30.1219 248.962C29.9656 248.733 29.851 248.478 29.7781 248.197C29.7156 247.999 29.6583 247.686 29.6062 247.259C29.5125 246.416 29.3927 245.791 29.2469 245.384C29.101 245.384 29.0125 245.384 28.9812 245.384C28.5437 245.384 28.2364 245.483 28.0594 245.681C27.8302 245.952 27.7156 246.353 27.7156 246.884C27.7156 247.374 27.8041 247.738 27.9812 247.978C28.1479 248.218 28.45 248.395 28.8875 248.509L28.7469 249.541C28.3094 249.447 27.9552 249.291 27.6844 249.072C27.4135 248.853 27.2052 248.541 27.0594 248.134C26.9135 247.728 26.8406 247.259 26.8406 246.728C26.8406 246.197 26.9031 245.764 27.0281 245.431C27.1531 245.098 27.3094 244.853 27.4969 244.697C27.6844 244.541 27.9239 244.431 28.2156 244.369C28.3927 244.337 28.7156 244.322 29.1844 244.322H30.5906C31.5698 244.322 32.1896 244.301 32.45 244.259C32.7104 244.207 32.9604 244.113 33.2 243.978V245.087C32.9812 245.192 32.726 245.259 32.4344 245.291ZM30.075 245.384C30.2312 245.77 30.3666 246.343 30.4812 247.103C30.5437 247.541 30.6166 247.848 30.7 248.025C30.7729 248.202 30.8823 248.343 31.0281 248.447C31.1739 248.541 31.3406 248.587 31.5281 248.587C31.8094 248.587 32.0437 248.483 32.2312 248.275C32.4187 248.056 32.5125 247.744 32.5125 247.337C32.5125 246.931 32.4239 246.572 32.2469 246.259C32.0698 245.936 31.825 245.702 31.5125 245.556C31.2729 245.442 30.9239 245.384 30.4656 245.384H30.075ZM33.7156 242.556L33.8719 241.525C34.1844 241.483 34.4135 241.363 34.5594 241.166C34.7573 240.905 34.8562 240.551 34.8562 240.103C34.8562 239.613 34.7573 239.238 34.5594 238.978C34.3614 238.707 34.0906 238.525 33.7469 238.431C33.5281 238.369 33.075 238.343 32.3875 238.353C32.9292 238.811 33.2 239.384 33.2 240.072C33.2 240.926 32.8927 241.587 32.2781 242.056C31.6531 242.525 30.9135 242.759 30.0594 242.759C29.4656 242.759 28.9187 242.655 28.4187 242.447C27.9083 242.228 27.5177 241.916 27.2469 241.509C26.976 241.103 26.8406 240.624 26.8406 240.072C26.8406 239.332 27.1375 238.723 27.7312 238.244H26.9812V237.275H32.3562C33.325 237.275 34.0125 237.374 34.4187 237.572C34.825 237.77 35.1427 238.082 35.3719 238.509C35.6114 238.936 35.7312 239.462 35.7312 240.087C35.7312 240.827 35.5646 241.426 35.2312 241.884C34.8979 242.343 34.3927 242.567 33.7156 242.556ZM29.9812 241.681C30.7937 241.681 31.3875 241.52 31.7625 241.197C32.1375 240.874 32.325 240.468 32.325 239.978C32.325 239.488 32.1375 239.082 31.7625 238.759C31.3875 238.426 30.8041 238.259 30.0125 238.259C29.2521 238.259 28.6791 238.431 28.2937 238.775C27.9083 239.108 27.7156 239.514 27.7156 239.994C27.7156 240.462 27.9083 240.863 28.2937 241.197C28.6687 241.52 29.2312 241.681 29.9812 241.681ZM32.4344 231.291C32.7677 231.686 33.0021 232.067 33.1375 232.431C33.2729 232.785 33.3406 233.171 33.3406 233.587C33.3406 234.275 33.1739 234.801 32.8406 235.166C32.5073 235.53 32.0802 235.712 31.5594 235.712C31.2573 235.712 30.9812 235.645 30.7312 235.509C30.4708 235.374 30.2677 235.192 30.1219 234.962C29.9656 234.733 29.851 234.478 29.7781 234.197C29.7156 233.999 29.6583 233.686 29.6062 233.259C29.5125 232.416 29.3927 231.791 29.2469 231.384C29.101 231.384 29.0125 231.384 28.9812 231.384C28.5437 231.384 28.2364 231.483 28.0594 231.681C27.8302 231.952 27.7156 232.353 27.7156 232.884C27.7156 233.374 27.8041 233.738 27.9812 233.978C28.1479 234.218 28.45 234.395 28.8875 234.509L28.7469 235.541C28.3094 235.447 27.9552 235.291 27.6844 235.072C27.4135 234.853 27.2052 234.541 27.0594 234.134C26.9135 233.728 26.8406 233.259 26.8406 232.728C26.8406 232.197 26.9031 231.764 27.0281 231.431C27.1531 231.098 27.3094 230.853 27.4969 230.697C27.6844 230.541 27.9239 230.431 28.2156 230.369C28.3927 230.337 28.7156 230.322 29.1844 230.322H30.5906C31.5698 230.322 32.1896 230.301 32.45 230.259C32.7104 230.207 32.9604 230.113 33.2 229.978V231.087C32.9812 231.192 32.726 231.259 32.4344 231.291ZM30.075 231.384C30.2312 231.77 30.3666 232.343 30.4812 233.103C30.5437 233.541 30.6166 233.848 30.7 234.025C30.7729 234.202 30.8823 234.343 31.0281 234.447C31.1739 234.541 31.3406 234.587 31.5281 234.587C31.8094 234.587 32.0437 234.483 32.2312 234.275C32.4187 234.056 32.5125 233.744 32.5125 233.337C32.5125 232.931 32.4239 232.572 32.2469 232.259C32.0698 231.936 31.825 231.702 31.5125 231.556C31.2729 231.442 30.9239 231.384 30.4656 231.384H30.075ZM33.2 228.353H26.9812V227.416H27.8562C27.1791 226.957 26.8406 226.296 26.8406 225.431C26.8406 225.056 26.9083 224.712 27.0437 224.4C27.1791 224.077 27.3562 223.837 27.575 223.681C27.7937 223.525 28.0489 223.416 28.3406 223.353C28.5385 223.322 28.8823 223.306 29.3719 223.306H33.2V224.353H29.4187C28.9812 224.353 28.6583 224.395 28.45 224.478C28.2416 224.561 28.075 224.707 27.95 224.916C27.8146 225.124 27.7469 225.369 27.7469 225.65C27.7469 226.098 27.8927 226.488 28.1844 226.822C28.4656 227.145 29.0021 227.306 29.7937 227.306H33.2V228.353ZM30.0906 221.744C28.9344 221.744 28.0802 221.426 27.5281 220.791C27.0698 220.259 26.8406 219.608 26.8406 218.837C26.8406 217.983 27.1219 217.285 27.6844 216.744C28.2364 216.192 29.0073 215.916 29.9969 215.916C30.7989 215.916 31.4291 216.035 31.8875 216.275C32.3458 216.514 32.7052 216.869 32.9656 217.337C33.2156 217.796 33.3406 218.296 33.3406 218.837C33.3406 219.702 33.0646 220.405 32.5125 220.947C31.95 221.478 31.1427 221.744 30.0906 221.744ZM30.0906 220.666C30.8823 220.666 31.476 220.494 31.8719 220.15C32.2677 219.796 32.4656 219.358 32.4656 218.837C32.4656 218.306 32.2677 217.869 31.8719 217.525C31.476 217.181 30.8719 217.009 30.0594 217.009C29.2885 217.009 28.7052 217.186 28.3094 217.541C27.9135 217.884 27.7156 218.317 27.7156 218.837C27.7156 219.358 27.9135 219.796 28.3094 220.15C28.6948 220.494 29.2885 220.666 30.0906 220.666Z" fill="black"/>
<path d="M75.7 369.565C75.7 368.545 75.8042 367.727 76.0125 367.112C76.2208 366.487 76.5281 366.008 76.9344 365.675C77.3511 365.341 77.8719 365.175 78.4969 365.175C78.9552 365.175 79.3563 365.269 79.7 365.456C80.0542 365.644 80.3458 365.914 80.575 366.269C80.8042 366.612 80.9813 367.034 81.1063 367.534C81.2313 368.034 81.2938 368.711 81.2938 369.565C81.2938 370.576 81.1896 371.388 80.9813 372.003C80.7833 372.618 80.4761 373.097 80.0594 373.44C79.6531 373.774 79.1323 373.94 78.4969 373.94C77.674 373.94 77.0229 373.644 76.5438 373.05C75.9813 372.341 75.7 371.18 75.7 369.565ZM76.7781 369.565C76.7781 370.972 76.9448 371.909 77.2781 372.378C77.6115 372.847 78.0177 373.081 78.4969 373.081C78.9865 373.081 79.3927 372.847 79.7156 372.378C80.049 371.909 80.2156 370.972 80.2156 369.565C80.2156 368.149 80.049 367.211 79.7156 366.753C79.3927 366.284 78.9813 366.05 78.4813 366.05C78.0021 366.05 77.6167 366.253 77.325 366.659C76.9604 367.18 76.7781 368.149 76.7781 369.565Z" fill="black"/>
<path d="M58.6688 304.225H57.6219V297.506C57.3615 297.746 57.0229 297.991 56.6063 298.241C56.2 298.48 55.8354 298.657 55.5125 298.772V297.756C56.0958 297.475 56.6063 297.142 57.0438 296.756C57.4917 296.361 57.8094 295.975 57.9969 295.6H58.6688V304.225ZM61.7 299.991C61.7 298.97 61.8042 298.152 62.0125 297.538C62.2208 296.913 62.5281 296.433 62.9344 296.1C63.3511 295.767 63.8719 295.6 64.4969 295.6C64.9552 295.6 65.3563 295.694 65.7 295.881C66.0542 296.069 66.3458 296.34 66.575 296.694C66.8042 297.038 66.9813 297.459 67.1063 297.959C67.2313 298.459 67.2938 299.137 67.2938 299.991C67.2938 301.001 67.1896 301.814 66.9813 302.428C66.7833 303.043 66.4761 303.522 66.0594 303.866C65.6531 304.199 65.1323 304.366 64.4969 304.366C63.674 304.366 63.0229 304.069 62.5438 303.475C61.9813 302.767 61.7 301.605 61.7 299.991ZM62.7781 299.991C62.7781 301.397 62.9448 302.334 63.2781 302.803C63.6115 303.272 64.0177 303.506 64.4969 303.506C64.9865 303.506 65.3927 303.272 65.7156 302.803C66.049 302.334 66.2156 301.397 66.2156 299.991C66.2156 298.574 66.049 297.637 65.7156 297.178C65.3927 296.709 64.9813 296.475 64.4813 296.475C64.0021 296.475 63.6167 296.678 63.325 297.084C62.9604 297.605 62.7781 298.574 62.7781 299.991ZM68.7 299.991C68.7 298.97 68.8042 298.152 69.0125 297.538C69.2208 296.913 69.5281 296.433 69.9344 296.1C70.3511 295.767 70.8719 295.6 71.4969 295.6C71.9552 295.6 72.3563 295.694 72.7 295.881C73.0542 296.069 73.3458 296.34 73.575 296.694C73.8042 297.038 73.9813 297.459 74.1063 297.959C74.2313 298.459 74.2938 299.137 74.2938 299.991C74.2938 301.001 74.1896 301.814 73.9813 302.428C73.7833 303.043 73.4761 303.522 73.0594 303.866C72.6531 304.199 72.1323 304.366 71.4969 304.366C70.674 304.366 70.0229 304.069 69.5438 303.475C68.9813 302.767 68.7 301.605 68.7 299.991ZM69.7781 299.991C69.7781 301.397 69.9448 302.334 70.2781 302.803C70.6115 303.272 71.0177 303.506 71.4969 303.506C71.9865 303.506 72.3927 303.272 72.7156 302.803C73.049 302.334 73.2156 301.397 73.2156 299.991C73.2156 298.574 73.049 297.637 72.7156 297.178C72.3927 296.709 71.9813 296.475 71.4813 296.475C71.0021 296.475 70.6167 296.678 70.325 297.084C69.9604 297.605 69.7781 298.574 69.7781 299.991ZM75.7 299.991C75.7 298.97 75.8042 298.152 76.0125 297.538C76.2208 296.913 76.5281 296.433 76.9344 296.1C77.3511 295.767 77.8719 295.6 78.4969 295.6C78.9552 295.6 79.3563 295.694 79.7 295.881C80.0542 296.069 80.3458 296.34 80.575 296.694C80.8042 297.038 80.9813 297.459 81.1063 297.959C81.2313 298.459 81.2938 299.137 81.2938 299.991C81.2938 301.001 81.1896 301.814 80.9813 302.428C80.7833 303.043 80.4761 303.522 80.0594 303.866C79.6531 304.199 79.1323 304.366 78.4969 304.366C77.674 304.366 77.0229 304.069 76.5438 303.475C75.9813 302.767 75.7 301.605 75.7 299.991ZM76.7781 299.991C76.7781 301.397 76.9448 302.334 77.2781 302.803C77.6115 303.272 78.0177 303.506 78.4969 303.506C78.9865 303.506 79.3927 303.272 79.7156 302.803C80.049 302.334 80.2156 301.397 80.2156 299.991C80.2156 298.574 80.049 297.637 79.7156 297.178C79.3927 296.709 78.9813 296.475 78.4813 296.475C78.0021 296.475 77.6167 296.678 77.325 297.084C76.9604 297.605 76.7781 298.574 76.7781 299.991Z" fill="black"/>
<path d="M60.2469 233.634V234.65H54.5594C54.5594 234.4 54.6011 234.155 54.6844 233.916C54.8302 233.53 55.0594 233.15 55.3719 232.775C55.6948 232.4 56.1583 231.968 56.7625 231.478C57.7 230.707 58.3302 230.098 58.6531 229.65C58.9865 229.202 59.1531 228.78 59.1531 228.384C59.1531 227.968 59.0021 227.619 58.7 227.337C58.3979 227.046 58.0073 226.9 57.5281 226.9C57.0177 226.9 56.6115 227.051 56.3094 227.353C56.0073 227.655 55.8511 228.077 55.8406 228.619L54.7625 228.509C54.8354 227.697 55.1115 227.082 55.5906 226.666C56.0802 226.238 56.7365 226.025 57.5594 226.025C58.3823 226.025 59.0333 226.254 59.5125 226.712C59.9917 227.171 60.2313 227.738 60.2313 228.416C60.2313 228.759 60.1583 229.098 60.0125 229.431C59.8771 229.754 59.6427 230.103 59.3094 230.478C58.9865 230.843 58.45 231.343 57.7 231.978C57.0646 232.509 56.6531 232.874 56.4656 233.072C56.2886 233.259 56.1427 233.447 56.0281 233.634H60.2469ZM61.7 230.416C61.7 229.395 61.8042 228.577 62.0125 227.962C62.2208 227.337 62.5281 226.858 62.9344 226.525C63.3511 226.192 63.8719 226.025 64.4969 226.025C64.9552 226.025 65.3563 226.119 65.7 226.306C66.0542 226.494 66.3458 226.764 66.575 227.119C66.8042 227.462 66.9813 227.884 67.1063 228.384C67.2313 228.884 67.2938 229.561 67.2938 230.416C67.2938 231.426 67.1896 232.238 66.9813 232.853C66.7833 233.468 66.4761 233.947 66.0594 234.291C65.6531 234.624 65.1323 234.791 64.4969 234.791C63.674 234.791 63.0229 234.494 62.5438 233.9C61.9813 233.192 61.7 232.03 61.7 230.416ZM62.7781 230.416C62.7781 231.822 62.9448 232.759 63.2781 233.228C63.6115 233.697 64.0177 233.931 64.4969 233.931C64.9865 233.931 65.3927 233.697 65.7156 233.228C66.049 232.759 66.2156 231.822 66.2156 230.416C66.2156 228.999 66.049 228.061 65.7156 227.603C65.3927 227.134 64.9813 226.9 64.4813 226.9C64.0021 226.9 63.6167 227.103 63.325 227.509C62.9604 228.03 62.7781 228.999 62.7781 230.416ZM68.7 230.416C68.7 229.395 68.8042 228.577 69.0125 227.962C69.2208 227.337 69.5281 226.858 69.9344 226.525C70.3511 226.192 70.8719 226.025 71.4969 226.025C71.9552 226.025 72.3563 226.119 72.7 226.306C73.0542 226.494 73.3458 226.764 73.575 227.119C73.8042 227.462 73.9813 227.884 74.1063 228.384C74.2313 228.884 74.2938 229.561 74.2938 230.416C74.2938 231.426 74.1896 232.238 73.9813 232.853C73.7833 233.468 73.4761 233.947 73.0594 234.291C72.6531 234.624 72.1323 234.791 71.4969 234.791C70.674 234.791 70.0229 234.494 69.5438 233.9C68.9813 233.192 68.7 232.03 68.7 230.416ZM69.7781 230.416C69.7781 231.822 69.9448 232.759 70.2781 233.228C70.6115 233.697 71.0177 233.931 71.4969 233.931C71.9865 233.931 72.3927 233.697 72.7156 233.228C73.049 232.759 73.2156 231.822 73.2156 230.416C73.2156 228.999 73.049 228.061 72.7156 227.603C72.3927 227.134 71.9813 226.9 71.4813 226.9C71.0021 226.9 70.6167 227.103 70.325 227.509C69.9604 228.03 69.7781 228.999 69.7781 230.416ZM75.7 230.416C75.7 229.395 75.8042 228.577 76.0125 227.962C76.2208 227.337 76.5281 226.858 76.9344 226.525C77.3511 226.192 77.8719 226.025 78.4969 226.025C78.9552 226.025 79.3563 226.119 79.7 226.306C80.0542 226.494 80.3458 226.764 80.575 227.119C80.8042 227.462 80.9813 227.884 81.1063 228.384C81.2313 228.884 81.2938 229.561 81.2938 230.416C81.2938 231.426 81.1896 232.238 80.9813 232.853C80.7833 233.468 80.4761 233.947 80.0594 234.291C79.6531 234.624 79.1323 234.791 78.4969 234.791C77.674 234.791 77.0229 234.494 76.5438 233.9C75.9813 233.192 75.7 232.03 75.7 230.416ZM76.7781 230.416C76.7781 231.822 76.9448 232.759 77.2781 233.228C77.6115 233.697 78.0177 233.931 78.4969 233.931C78.9865 233.931 79.3927 233.697 79.7156 233.228C80.049 232.759 80.2156 231.822 80.2156 230.416C80.2156 228.999 80.049 228.061 79.7156 227.603C79.3927 227.134 78.9813 226.9 78.4813 226.9C78.0021 226.9 77.6167 227.103 77.325 227.509C76.9604 228.03 76.7781 228.999 76.7781 230.416Z" fill="black"/>
<path d="M54.7 162.81L55.7625 162.669C55.8771 163.263 56.0802 163.695 56.3719 163.966C56.6636 164.226 57.0177 164.356 57.4344 164.356C57.9344 164.356 58.3563 164.185 58.7 163.841C59.0438 163.497 59.2156 163.07 59.2156 162.56C59.2156 162.08 59.0542 161.685 58.7313 161.372C58.4188 161.049 58.0177 160.888 57.5281 160.888C57.3302 160.888 57.0802 160.929 56.7781 161.013L56.9031 160.075C56.9761 160.086 57.0333 160.091 57.075 160.091C57.5229 160.091 57.924 159.976 58.2781 159.747C58.6427 159.507 58.825 159.143 58.825 158.653C58.825 158.268 58.6948 157.95 58.4344 157.7C58.174 157.44 57.8354 157.31 57.4188 157.31C57.0125 157.31 56.6688 157.44 56.3875 157.7C56.1167 157.961 55.9448 158.346 55.8719 158.856L54.8094 158.669C54.9344 157.971 55.2261 157.429 55.6844 157.044C56.1427 156.648 56.7104 156.45 57.3875 156.45C57.8563 156.45 58.2886 156.554 58.6844 156.763C59.0802 156.961 59.3823 157.231 59.5906 157.575C59.799 157.919 59.9031 158.289 59.9031 158.685C59.9031 159.049 59.8042 159.388 59.6063 159.7C59.4083 160.002 59.1167 160.242 58.7313 160.419C59.2313 160.534 59.6219 160.778 59.9031 161.153C60.1844 161.518 60.325 161.981 60.325 162.544C60.325 163.294 60.049 163.929 59.4969 164.45C58.9552 164.971 58.2677 165.231 57.4344 165.231C56.6844 165.231 56.0594 165.007 55.5594 164.56C55.0594 164.101 54.7729 163.518 54.7 162.81ZM61.7 160.841C61.7 159.82 61.8042 159.002 62.0125 158.388C62.2208 157.763 62.5281 157.284 62.9344 156.95C63.3511 156.617 63.8719 156.45 64.4969 156.45C64.9552 156.45 65.3563 156.544 65.7 156.731C66.0542 156.919 66.3458 157.19 66.575 157.544C66.8042 157.888 66.9813 158.31 67.1063 158.81C67.2313 159.31 67.2938 159.987 67.2938 160.841C67.2938 161.851 67.1896 162.664 66.9813 163.278C66.7833 163.893 66.4761 164.372 66.0594 164.716C65.6531 165.049 65.1323 165.216 64.4969 165.216C63.674 165.216 63.0229 164.919 62.5438 164.325C61.9813 163.617 61.7 162.455 61.7 160.841ZM62.7781 160.841C62.7781 162.247 62.9448 163.185 63.2781 163.653C63.6115 164.122 64.0177 164.356 64.4969 164.356C64.9865 164.356 65.3927 164.122 65.7156 163.653C66.049 163.185 66.2156 162.247 66.2156 160.841C66.2156 159.424 66.049 158.487 65.7156 158.028C65.3927 157.56 64.9813 157.325 64.4813 157.325C64.0021 157.325 63.6167 157.528 63.325 157.935C62.9604 158.455 62.7781 159.424 62.7781 160.841ZM68.7 160.841C68.7 159.82 68.8042 159.002 69.0125 158.388C69.2208 157.763 69.5281 157.284 69.9344 156.95C70.3511 156.617 70.8719 156.45 71.4969 156.45C71.9552 156.45 72.3563 156.544 72.7 156.731C73.0542 156.919 73.3458 157.19 73.575 157.544C73.8042 157.888 73.9813 158.31 74.1063 158.81C74.2313 159.31 74.2938 159.987 74.2938 160.841C74.2938 161.851 74.1896 162.664 73.9813 163.278C73.7833 163.893 73.4761 164.372 73.0594 164.716C72.6531 165.049 72.1323 165.216 71.4969 165.216C70.674 165.216 70.0229 164.919 69.5438 164.325C68.9813 163.617 68.7 162.455 68.7 160.841ZM69.7781 160.841C69.7781 162.247 69.9448 163.185 70.2781 163.653C70.6115 164.122 71.0177 164.356 71.4969 164.356C71.9865 164.356 72.3927 164.122 72.7156 163.653C73.049 163.185 73.2156 162.247 73.2156 160.841C73.2156 159.424 73.049 158.487 72.7156 158.028C72.3927 157.56 71.9813 157.325 71.4813 157.325C71.0021 157.325 70.6167 157.528 70.325 157.935C69.9604 158.455 69.7781 159.424 69.7781 160.841ZM75.7 160.841C75.7 159.82 75.8042 159.002 76.0125 158.388C76.2208 157.763 76.5281 157.284 76.9344 156.95C77.3511 156.617 77.8719 156.45 78.4969 156.45C78.9552 156.45 79.3563 156.544 79.7 156.731C80.0542 156.919 80.3458 157.19 80.575 157.544C80.8042 157.888 80.9813 158.31 81.1063 158.81C81.2313 159.31 81.2938 159.987 81.2938 160.841C81.2938 161.851 81.1896 162.664 80.9813 163.278C80.7833 163.893 80.4761 164.372 80.0594 164.716C79.6531 165.049 79.1323 165.216 78.4969 165.216C77.674 165.216 77.0229 164.919 76.5438 164.325C75.9813 163.617 75.7 162.455 75.7 160.841ZM76.7781 160.841C76.7781 162.247 76.9448 163.185 77.2781 163.653C77.6115 164.122 78.0177 164.356 78.4969 164.356C78.9865 164.356 79.3927 164.122 79.7156 163.653C80.049 163.185 80.2156 162.247 80.2156 160.841C80.2156 159.424 80.049 158.487 79.7156 158.028C79.3927 157.56 78.9813 157.325 78.4813 157.325C78.0021 157.325 77.6167 157.528 77.325 157.935C76.9604 158.455 76.7781 159.424 76.7781 160.841Z" fill="black"/>
<path d="M58.075 95.5V93.4375H54.3563V92.4688L58.2781 86.9062H59.1375V92.4688H60.2938V93.4375H59.1375V95.5H58.075ZM58.075 92.4688V88.6094L55.3875 92.4688H58.075ZM61.7 91.2656C61.7 90.2448 61.8042 89.4271 62.0125 88.8125C62.2208 88.1875 62.5281 87.7083 62.9344 87.375C63.3511 87.0417 63.8719 86.875 64.4969 86.875C64.9552 86.875 65.3563 86.9688 65.7 87.1562C66.0542 87.3438 66.3458 87.6146 66.575 87.9688C66.8042 88.3125 66.9813 88.7344 67.1063 89.2344C67.2313 89.7344 67.2938 90.4115 67.2938 91.2656C67.2938 92.276 67.1896 93.0885 66.9813 93.7031C66.7833 94.3177 66.4761 94.7969 66.0594 95.1406C65.6531 95.474 65.1323 95.6406 64.4969 95.6406C63.674 95.6406 63.0229 95.3438 62.5438 94.75C61.9813 94.0417 61.7 92.8802 61.7 91.2656ZM62.7781 91.2656C62.7781 92.6719 62.9448 93.6094 63.2781 94.0781C63.6115 94.5469 64.0177 94.7812 64.4969 94.7812C64.9865 94.7812 65.3927 94.5469 65.7156 94.0781C66.049 93.6094 66.2156 92.6719 66.2156 91.2656C66.2156 89.849 66.049 88.9115 65.7156 88.4531C65.3927 87.9844 64.9813 87.75 64.4813 87.75C64.0021 87.75 63.6167 87.9531 63.325 88.3594C62.9604 88.8802 62.7781 89.849 62.7781 91.2656ZM68.7 91.2656C68.7 90.2448 68.8042 89.4271 69.0125 88.8125C69.2208 88.1875 69.5281 87.7083 69.9344 87.375C70.3511 87.0417 70.8719 86.875 71.4969 86.875C71.9552 86.875 72.3563 86.9688 72.7 87.1562C73.0542 87.3438 73.3458 87.6146 73.575 87.9688C73.8042 88.3125 73.9813 88.7344 74.1063 89.2344C74.2313 89.7344 74.2938 90.4115 74.2938 91.2656C74.2938 92.276 74.1896 93.0885 73.9813 93.7031C73.7833 94.3177 73.4761 94.7969 73.0594 95.1406C72.6531 95.474 72.1323 95.6406 71.4969 95.6406C70.674 95.6406 70.0229 95.3438 69.5438 94.75C68.9813 94.0417 68.7 92.8802 68.7 91.2656ZM69.7781 91.2656C69.7781 92.6719 69.9448 93.6094 70.2781 94.0781C70.6115 94.5469 71.0177 94.7812 71.4969 94.7812C71.9865 94.7812 72.3927 94.5469 72.7156 94.0781C73.049 93.6094 73.2156 92.6719 73.2156 91.2656C73.2156 89.849 73.049 88.9115 72.7156 88.4531C72.3927 87.9844 71.9813 87.75 71.4813 87.75C71.0021 87.75 70.6167 87.9531 70.325 88.3594C69.9604 88.8802 69.7781 89.849 69.7781 91.2656ZM75.7 91.2656C75.7 90.2448 75.8042 89.4271 76.0125 88.8125C76.2208 88.1875 76.5281 87.7083 76.9344 87.375C77.3511 87.0417 77.8719 86.875 78.4969 86.875C78.9552 86.875 79.3563 86.9688 79.7 87.1562C80.0542 87.3438 80.3458 87.6146 80.575 87.9688C80.8042 88.3125 80.9813 88.7344 81.1063 89.2344C81.2313 89.7344 81.2938 90.4115 81.2938 91.2656C81.2938 92.276 81.1896 93.0885 80.9813 93.7031C80.7833 94.3177 80.4761 94.7969 80.0594 95.1406C79.6531 95.474 79.1323 95.6406 78.4969 95.6406C77.674 95.6406 77.0229 95.3438 76.5438 94.75C75.9813 94.0417 75.7 92.8802 75.7 91.2656ZM76.7781 91.2656C76.7781 92.6719 76.9448 93.6094 77.2781 94.0781C77.6115 94.5469 78.0177 94.7812 78.4969 94.7812C78.9865 94.7812 79.3927 94.5469 79.7156 94.0781C80.049 93.6094 80.2156 92.6719 80.2156 91.2656C80.2156 89.849 80.049 88.9115 79.7156 88.4531C79.3927 87.9844 78.9813 87.75 78.4813 87.75C78.0021 87.75 77.6167 87.9531 77.325 88.3594C76.9604 88.8802 76.7781 89.849 76.7781 91.2656Z" fill="black"/>
<path d="M168.052 386.8V384.737H164.333V383.769L168.255 378.206H169.114V383.769H170.271V384.737H169.114V386.8H168.052ZM168.052 383.769V379.909L165.364 383.769H168.052ZM175.052 386.8V384.737H171.333V383.769L175.255 378.206H176.114V383.769H177.271V384.737H176.114V386.8H175.052ZM175.052 383.769V379.909L172.364 383.769H175.052ZM178.677 382.565C178.677 381.545 178.781 380.727 178.989 380.112C179.198 379.487 179.505 379.008 179.911 378.675C180.328 378.341 180.849 378.175 181.474 378.175C181.932 378.175 182.333 378.269 182.677 378.456C183.031 378.644 183.323 378.914 183.552 379.269C183.781 379.612 183.958 380.034 184.083 380.534C184.208 381.034 184.271 381.711 184.271 382.565C184.271 383.576 184.167 384.388 183.958 385.003C183.76 385.618 183.453 386.097 183.036 386.44C182.63 386.774 182.109 386.94 181.474 386.94C180.651 386.94 180 386.644 179.521 386.05C178.958 385.341 178.677 384.18 178.677 382.565ZM179.755 382.565C179.755 383.972 179.922 384.909 180.255 385.378C180.588 385.847 180.995 386.081 181.474 386.081C181.963 386.081 182.37 385.847 182.693 385.378C183.026 384.909 183.193 383.972 183.193 382.565C183.193 381.149 183.026 380.211 182.693 379.753C182.37 379.284 181.958 379.05 181.458 379.05C180.979 379.05 180.594 379.253 180.302 379.659C179.937 380.18 179.755 381.149 179.755 382.565ZM185.677 382.565C185.677 381.545 185.781 380.727 185.989 380.112C186.198 379.487 186.505 379.008 186.911 378.675C187.328 378.341 187.849 378.175 188.474 378.175C188.932 378.175 189.333 378.269 189.677 378.456C190.031 378.644 190.323 378.914 190.552 379.269C190.781 379.612 190.958 380.034 191.083 380.534C191.208 381.034 191.271 381.711 191.271 382.565C191.271 383.576 191.167 384.388 190.958 385.003C190.76 385.618 190.453 386.097 190.036 386.44C189.63 386.774 189.109 386.94 188.474 386.94C187.651 386.94 187 386.644 186.521 386.05C185.958 385.341 185.677 384.18 185.677 382.565ZM186.755 382.565C186.755 383.972 186.922 384.909 187.255 385.378C187.588 385.847 187.995 386.081 188.474 386.081C188.963 386.081 189.37 385.847 189.693 385.378C190.026 384.909 190.193 383.972 190.193 382.565C190.193 381.149 190.026 380.211 189.693 379.753C189.37 379.284 188.958 379.05 188.458 379.05C187.979 379.05 187.594 379.253 187.302 379.659C186.937 380.18 186.755 381.149 186.755 382.565ZM192.677 382.565C192.677 381.545 192.781 380.727 192.989 380.112C193.198 379.487 193.505 379.008 193.911 378.675C194.328 378.341 194.849 378.175 195.474 378.175C195.932 378.175 196.333 378.269 196.677 378.456C197.031 378.644 197.323 378.914 197.552 379.269C197.781 379.612 197.958 380.034 198.083 380.534C198.208 381.034 198.271 381.711 198.271 382.565C198.271 383.576 198.167 384.388 197.958 385.003C197.76 385.618 197.453 386.097 197.036 386.44C196.63 386.774 196.109 386.94 195.474 386.94C194.651 386.94 194 386.644 193.521 386.05C192.958 385.341 192.677 384.18 192.677 382.565ZM193.755 382.565C193.755 383.972 193.922 384.909 194.255 385.378C194.588 385.847 194.995 386.081 195.474 386.081C195.963 386.081 196.37 385.847 196.693 385.378C197.026 384.909 197.193 383.972 197.193 382.565C197.193 381.149 197.026 380.211 196.693 379.753C196.37 379.284 195.958 379.05 195.458 379.05C194.979 379.05 194.594 379.253 194.302 379.659C193.937 380.18 193.755 381.149 193.755 382.565Z" fill="black"/>
<path d="M289.451 386.8V384.737H285.732V383.769L289.654 378.206H290.513V383.769H291.669V384.737H290.513V386.8H289.451ZM289.451 383.769V379.909L286.763 383.769H289.451ZM296.451 386.8V384.737H292.732V383.769L296.654 378.206H297.513V383.769H298.669V384.737H297.513V386.8H296.451ZM296.451 383.769V379.909L293.763 383.769H296.451ZM305.622 385.784V386.8H299.935C299.935 386.55 299.977 386.305 300.06 386.065C300.206 385.68 300.435 385.3 300.747 384.925C301.07 384.55 301.534 384.118 302.138 383.628C303.076 382.857 303.706 382.248 304.029 381.8C304.362 381.352 304.529 380.93 304.529 380.534C304.529 380.118 304.378 379.769 304.076 379.487C303.773 379.196 303.383 379.05 302.904 379.05C302.393 379.05 301.987 379.201 301.685 379.503C301.383 379.805 301.227 380.227 301.216 380.769L300.138 380.659C300.211 379.847 300.487 379.232 300.966 378.815C301.456 378.388 302.112 378.175 302.935 378.175C303.758 378.175 304.409 378.404 304.888 378.862C305.367 379.321 305.607 379.888 305.607 380.565C305.607 380.909 305.534 381.248 305.388 381.581C305.253 381.904 305.018 382.253 304.685 382.628C304.362 382.993 303.826 383.493 303.076 384.128C302.44 384.659 302.029 385.024 301.841 385.222C301.664 385.409 301.518 385.597 301.404 385.784H305.622ZM307.076 382.565C307.076 381.545 307.18 380.727 307.388 380.112C307.596 379.487 307.904 379.008 308.31 378.675C308.727 378.341 309.247 378.175 309.872 378.175C310.331 378.175 310.732 378.269 311.076 378.456C311.43 378.644 311.721 378.914 311.951 379.269C312.18 379.612 312.357 380.034 312.482 380.534C312.607 381.034 312.669 381.711 312.669 382.565C312.669 383.576 312.565 384.388 312.357 385.003C312.159 385.618 311.852 386.097 311.435 386.44C311.029 386.774 310.508 386.94 309.872 386.94C309.049 386.94 308.398 386.644 307.919 386.05C307.357 385.341 307.076 384.18 307.076 382.565ZM308.154 382.565C308.154 383.972 308.32 384.909 308.654 385.378C308.987 385.847 309.393 386.081 309.872 386.081C310.362 386.081 310.768 385.847 311.091 385.378C311.424 384.909 311.591 383.972 311.591 382.565C311.591 381.149 311.424 380.211 311.091 379.753C310.768 379.284 310.357 379.05 309.857 379.05C309.378 379.05 308.992 379.253 308.701 379.659C308.336 380.18 308.154 381.149 308.154 382.565ZM314.076 382.565C314.076 381.545 314.18 380.727 314.388 380.112C314.596 379.487 314.904 379.008 315.31 378.675C315.727 378.341 316.247 378.175 316.872 378.175C317.331 378.175 317.732 378.269 318.076 378.456C318.43 378.644 318.721 378.914 318.951 379.269C319.18 379.612 319.357 380.034 319.482 380.534C319.607 381.034 319.669 381.711 319.669 382.565C319.669 383.576 319.565 384.388 319.357 385.003C319.159 385.618 318.852 386.097 318.435 386.44C318.029 386.774 317.508 386.94 316.872 386.94C316.049 386.94 315.398 386.644 314.919 386.05C314.357 385.341 314.076 384.18 314.076 382.565ZM315.154 382.565C315.154 383.972 315.32 384.909 315.654 385.378C315.987 385.847 316.393 386.081 316.872 386.081C317.362 386.081 317.768 385.847 318.091 385.378C318.424 384.909 318.591 383.972 318.591 382.565C318.591 381.149 318.424 380.211 318.091 379.753C317.768 379.284 317.357 379.05 316.857 379.05C316.378 379.05 315.992 379.253 315.701 379.659C315.336 380.18 315.154 381.149 315.154 382.565Z" fill="black"/>
<path d="M410.849 386.8V384.737H407.13V383.769L411.052 378.206H411.912V383.769H413.068V384.737H411.912V386.8H410.849ZM410.849 383.769V379.909L408.162 383.769H410.849ZM417.849 386.8V384.737H414.13V383.769L418.052 378.206H418.912V383.769H420.068V384.737H418.912V386.8H417.849ZM417.849 383.769V379.909L415.162 383.769H417.849ZM424.849 386.8V384.737H421.13V383.769L425.052 378.206H425.912V383.769H427.068V384.737H425.912V386.8H424.849ZM424.849 383.769V379.909L422.162 383.769H424.849ZM428.474 382.565C428.474 381.545 428.578 380.727 428.787 380.112C428.995 379.487 429.302 379.008 429.708 378.675C430.125 378.341 430.646 378.175 431.271 378.175C431.729 378.175 432.13 378.269 432.474 378.456C432.828 378.644 433.12 378.914 433.349 379.269C433.578 379.612 433.755 380.034 433.88 380.534C434.005 381.034 434.068 381.711 434.068 382.565C434.068 383.576 433.964 384.388 433.755 385.003C433.557 385.618 433.25 386.097 432.833 386.44C432.427 386.774 431.906 386.94 431.271 386.94C430.448 386.94 429.797 386.644 429.318 386.05C428.755 385.341 428.474 384.18 428.474 382.565ZM429.552 382.565C429.552 383.972 429.719 384.909 430.052 385.378C430.386 385.847 430.792 386.081 431.271 386.081C431.761 386.081 432.167 385.847 432.49 385.378C432.823 384.909 432.99 383.972 432.99 382.565C432.99 381.149 432.823 380.211 432.49 379.753C432.167 379.284 431.755 379.05 431.255 379.05C430.776 379.05 430.391 379.253 430.099 379.659C429.735 380.18 429.552 381.149 429.552 382.565ZM435.474 382.565C435.474 381.545 435.578 380.727 435.787 380.112C435.995 379.487 436.302 379.008 436.708 378.675C437.125 378.341 437.646 378.175 438.271 378.175C438.729 378.175 439.13 378.269 439.474 378.456C439.828 378.644 440.12 378.914 440.349 379.269C440.578 379.612 440.755 380.034 440.88 380.534C441.005 381.034 441.068 381.711 441.068 382.565C441.068 383.576 440.964 384.388 440.755 385.003C440.557 385.618 440.25 386.097 439.833 386.44C439.427 386.774 438.906 386.94 438.271 386.94C437.448 386.94 436.797 386.644 436.318 386.05C435.755 385.341 435.474 384.18 435.474 382.565ZM436.552 382.565C436.552 383.972 436.719 384.909 437.052 385.378C437.386 385.847 437.792 386.081 438.271 386.081C438.761 386.081 439.167 385.847 439.49 385.378C439.823 384.909 439.99 383.972 439.99 382.565C439.99 381.149 439.823 380.211 439.49 379.753C439.167 379.284 438.755 379.05 438.255 379.05C437.776 379.05 437.391 379.253 437.099 379.659C436.735 380.18 436.552 381.149 436.552 382.565Z" fill="black"/>
<path d="M532.248 386.8V384.737H528.529V383.769L532.451 378.206H533.31V383.769H534.466V384.737H533.31V386.8H532.248ZM532.248 383.769V379.909L529.56 383.769H532.248ZM539.248 386.8V384.737H535.529V383.769L539.451 378.206H540.31V383.769H541.466V384.737H540.31V386.8H539.248ZM539.248 383.769V379.909L536.56 383.769H539.248ZM548.341 380.315L547.295 380.394C547.201 379.977 547.071 379.675 546.904 379.487C546.612 379.185 546.258 379.034 545.841 379.034C545.508 379.034 545.211 379.128 544.951 379.315C544.628 379.565 544.368 379.925 544.17 380.394C543.982 380.852 543.883 381.508 543.873 382.362C544.123 381.977 544.43 381.69 544.795 381.503C545.17 381.315 545.56 381.222 545.966 381.222C546.664 381.222 547.258 381.482 547.748 382.003C548.248 382.524 548.498 383.19 548.498 384.003C548.498 384.545 548.378 385.05 548.138 385.519C547.909 385.977 547.591 386.331 547.185 386.581C546.779 386.821 546.321 386.94 545.81 386.94C544.925 386.94 544.206 386.618 543.654 385.972C543.102 385.326 542.826 384.263 542.826 382.784C542.826 381.118 543.133 379.909 543.748 379.159C544.279 378.503 544.998 378.175 545.904 378.175C546.581 378.175 547.133 378.368 547.56 378.753C547.998 379.128 548.258 379.649 548.341 380.315ZM544.045 384.019C544.045 384.383 544.118 384.732 544.263 385.065C544.42 385.388 544.633 385.638 544.904 385.815C545.185 385.993 545.482 386.081 545.795 386.081C546.232 386.081 546.612 385.904 546.935 385.55C547.258 385.185 547.42 384.696 547.42 384.081C547.42 383.487 547.258 383.019 546.935 382.675C546.623 382.331 546.227 382.159 545.748 382.159C545.269 382.159 544.862 382.331 544.529 382.675C544.206 383.019 544.045 383.466 544.045 384.019ZM549.873 382.565C549.873 381.545 549.977 380.727 550.185 380.112C550.394 379.487 550.701 379.008 551.107 378.675C551.524 378.341 552.045 378.175 552.67 378.175C553.128 378.175 553.529 378.269 553.873 378.456C554.227 378.644 554.519 378.914 554.748 379.269C554.977 379.612 555.154 380.034 555.279 380.534C555.404 381.034 555.466 381.711 555.466 382.565C555.466 383.576 555.362 384.388 555.154 385.003C554.956 385.618 554.649 386.097 554.232 386.44C553.826 386.774 553.305 386.94 552.67 386.94C551.847 386.94 551.196 386.644 550.716 386.05C550.154 385.341 549.873 384.18 549.873 382.565ZM550.951 382.565C550.951 383.972 551.118 384.909 551.451 385.378C551.784 385.847 552.19 386.081 552.67 386.081C553.159 386.081 553.565 385.847 553.888 385.378C554.222 384.909 554.388 383.972 554.388 382.565C554.388 381.149 554.222 380.211 553.888 379.753C553.565 379.284 553.154 379.05 552.654 379.05C552.175 379.05 551.789 379.253 551.498 379.659C551.133 380.18 550.951 381.149 550.951 382.565ZM556.873 382.565C556.873 381.545 556.977 380.727 557.185 380.112C557.394 379.487 557.701 379.008 558.107 378.675C558.524 378.341 559.045 378.175 559.67 378.175C560.128 378.175 560.529 378.269 560.873 378.456C561.227 378.644 561.519 378.914 561.748 379.269C561.977 379.612 562.154 380.034 562.279 380.534C562.404 381.034 562.466 381.711 562.466 382.565C562.466 383.576 562.362 384.388 562.154 385.003C561.956 385.618 561.649 386.097 561.232 386.44C560.826 386.774 560.305 386.94 559.67 386.94C558.847 386.94 558.196 386.644 557.716 386.05C557.154 385.341 556.873 384.18 556.873 382.565ZM557.951 382.565C557.951 383.972 558.118 384.909 558.451 385.378C558.784 385.847 559.19 386.081 559.67 386.081C560.159 386.081 560.565 385.847 560.888 385.378C561.222 384.909 561.388 383.972 561.388 382.565C561.388 381.149 561.222 380.211 560.888 379.753C560.565 379.284 560.154 379.05 559.654 379.05C559.175 379.05 558.789 379.253 558.498 379.659C558.133 380.18 557.951 381.149 557.951 382.565Z" fill="black"/>
<path d="M653.646 386.8V384.737H649.928V383.769L653.849 378.206H654.709V383.769H655.865V384.737H654.709V386.8H653.646ZM653.646 383.769V379.909L650.959 383.769H653.646ZM660.646 386.8V384.737H656.928V383.769L660.849 378.206H661.709V383.769H662.865V384.737H661.709V386.8H660.646ZM660.646 383.769V379.909L657.959 383.769H660.646ZM665.896 382.144C665.459 381.977 665.131 381.748 664.912 381.456C664.704 381.154 664.599 380.8 664.599 380.394C664.599 379.769 664.823 379.243 665.271 378.815C665.73 378.388 666.329 378.175 667.068 378.175C667.818 378.175 668.422 378.394 668.881 378.831C669.339 379.269 669.568 379.8 669.568 380.425C669.568 380.821 669.464 381.164 669.256 381.456C669.047 381.748 668.73 381.977 668.303 382.144C668.834 382.31 669.235 382.586 669.506 382.972C669.776 383.357 669.912 383.815 669.912 384.347C669.912 385.076 669.651 385.69 669.131 386.19C668.62 386.69 667.938 386.94 667.084 386.94C666.24 386.94 665.558 386.69 665.037 386.19C664.516 385.69 664.256 385.065 664.256 384.315C664.256 383.753 664.396 383.284 664.678 382.909C664.969 382.534 665.375 382.279 665.896 382.144ZM665.678 380.347C665.678 380.753 665.808 381.086 666.068 381.347C666.339 381.607 666.683 381.737 667.099 381.737C667.506 381.737 667.839 381.612 668.099 381.362C668.36 381.102 668.49 380.784 668.49 380.409C668.49 380.024 668.355 379.701 668.084 379.44C667.813 379.17 667.48 379.034 667.084 379.034C666.678 379.034 666.339 379.164 666.068 379.425C665.808 379.685 665.678 379.993 665.678 380.347ZM665.349 384.315C665.349 384.618 665.417 384.909 665.553 385.19C665.698 385.472 665.912 385.69 666.193 385.847C666.474 386.003 666.777 386.081 667.099 386.081C667.599 386.081 668.011 385.92 668.334 385.597C668.667 385.274 668.834 384.862 668.834 384.362C668.834 383.852 668.667 383.43 668.334 383.097C668 382.763 667.579 382.597 667.068 382.597C666.568 382.597 666.157 382.763 665.834 383.097C665.511 383.42 665.349 383.826 665.349 384.315ZM671.271 382.565C671.271 381.545 671.375 380.727 671.584 380.112C671.792 379.487 672.099 379.008 672.506 378.675C672.922 378.341 673.443 378.175 674.068 378.175C674.527 378.175 674.928 378.269 675.271 378.456C675.625 378.644 675.917 378.914 676.146 379.269C676.375 379.612 676.553 380.034 676.678 380.534C676.803 381.034 676.865 381.711 676.865 382.565C676.865 383.576 676.761 384.388 676.553 385.003C676.355 385.618 676.047 386.097 675.631 386.44C675.224 386.774 674.704 386.94 674.068 386.94C673.245 386.94 672.594 386.644 672.115 386.05C671.553 385.341 671.271 384.18 671.271 382.565ZM672.349 382.565C672.349 383.972 672.516 384.909 672.849 385.378C673.183 385.847 673.589 386.081 674.068 386.081C674.558 386.081 674.964 385.847 675.287 385.378C675.62 384.909 675.787 383.972 675.787 382.565C675.787 381.149 675.62 380.211 675.287 379.753C674.964 379.284 674.553 379.05 674.053 379.05C673.573 379.05 673.188 379.253 672.896 379.659C672.532 380.18 672.349 381.149 672.349 382.565ZM678.271 382.565C678.271 381.545 678.375 380.727 678.584 380.112C678.792 379.487 679.099 379.008 679.506 378.675C679.922 378.341 680.443 378.175 681.068 378.175C681.527 378.175 681.928 378.269 682.271 378.456C682.625 378.644 682.917 378.914 683.146 379.269C683.375 379.612 683.553 380.034 683.678 380.534C683.803 381.034 683.865 381.711 683.865 382.565C683.865 383.576 683.761 384.388 683.553 385.003C683.355 385.618 683.047 386.097 682.631 386.44C682.224 386.774 681.704 386.94 681.068 386.94C680.245 386.94 679.594 386.644 679.115 386.05C678.553 385.341 678.271 384.18 678.271 382.565ZM679.349 382.565C679.349 383.972 679.516 384.909 679.849 385.378C680.183 385.847 680.589 386.081 681.068 386.081C681.558 386.081 681.964 385.847 682.287 385.378C682.62 384.909 682.787 383.972 682.787 382.565C682.787 381.149 682.62 380.211 682.287 379.753C681.964 379.284 681.553 379.05 681.053 379.05C680.573 379.05 680.188 379.253 679.896 379.659C679.532 380.18 679.349 381.149 679.349 382.565Z" fill="black"/>
<path d="M576.847 65.5127V66.7002H570.222C570.211 66.4085 570.258 66.1221 570.363 65.8408C570.54 65.3929 570.81 64.9502 571.175 64.5127C571.55 64.0752 572.086 63.57 572.784 62.9971C573.878 62.1012 574.613 61.3929 574.988 60.8721C575.373 60.3512 575.566 59.8564 575.566 59.3877C575.566 58.8981 575.389 58.4867 575.034 58.1533C574.691 57.82 574.243 57.6533 573.691 57.6533C573.097 57.6533 572.618 57.8304 572.253 58.1846C571.899 58.5387 571.722 59.0335 571.722 59.6689L570.456 59.5283C570.54 58.5908 570.862 57.8773 571.425 57.3877C571.998 56.8877 572.758 56.6377 573.706 56.6377C574.675 56.6377 575.435 56.9033 575.988 57.4346C576.55 57.9658 576.831 58.6273 576.831 59.4189C576.831 59.8252 576.748 60.221 576.581 60.6064C576.425 60.9919 576.154 61.3981 575.769 61.8252C575.394 62.2523 574.764 62.8408 573.878 63.5908C573.139 64.2054 572.665 64.6273 572.456 64.8564C572.248 65.0752 572.076 65.2939 571.941 65.5127H576.847ZM578.378 61.7627C578.378 60.5752 578.498 59.6221 578.738 58.9033C578.988 58.1742 579.352 57.6169 579.831 57.2314C580.31 56.8356 580.915 56.6377 581.644 56.6377C582.185 56.6377 582.659 56.7471 583.066 56.9658C583.472 57.1846 583.805 57.4971 584.066 57.9033C584.336 58.3096 584.545 58.8044 584.691 59.3877C584.836 59.971 584.909 60.7627 584.909 61.7627C584.909 62.9398 584.79 63.8877 584.55 64.6064C584.31 65.3252 583.951 65.8825 583.472 66.2783C582.993 66.6742 582.383 66.8721 581.644 66.8721C580.685 66.8721 579.93 66.5231 579.378 65.8252C578.711 64.9919 578.378 63.6377 578.378 61.7627ZM579.644 61.7627C579.644 63.4085 579.836 64.5023 580.222 65.0439C580.607 65.5856 581.081 65.8564 581.644 65.8564C582.217 65.8564 582.696 65.5856 583.081 65.0439C583.467 64.4919 583.659 63.3981 583.659 61.7627C583.659 60.1064 583.467 59.0075 583.081 58.4658C582.696 57.9242 582.211 57.6533 581.628 57.6533C581.066 57.6533 580.618 57.8929 580.284 58.3721C579.857 58.9867 579.644 60.1169 579.644 61.7627ZM592.847 65.5127V66.7002H586.222C586.211 66.4085 586.258 66.1221 586.363 65.8408C586.54 65.3929 586.81 64.9502 587.175 64.5127C587.55 64.0752 588.086 63.57 588.784 62.9971C589.878 62.1012 590.613 61.3929 590.988 60.8721C591.373 60.3512 591.566 59.8564 591.566 59.3877C591.566 58.8981 591.389 58.4867 591.034 58.1533C590.691 57.82 590.243 57.6533 589.691 57.6533C589.097 57.6533 588.618 57.8304 588.253 58.1846C587.899 58.5387 587.722 59.0335 587.722 59.6689L586.456 59.5283C586.54 58.5908 586.862 57.8773 587.425 57.3877C587.998 56.8877 588.758 56.6377 589.706 56.6377C590.675 56.6377 591.435 56.9033 591.988 57.4346C592.55 57.9658 592.831 58.6273 592.831 59.4189C592.831 59.8252 592.748 60.221 592.581 60.6064C592.425 60.9919 592.154 61.3981 591.769 61.8252C591.394 62.2523 590.764 62.8408 589.878 63.5908C589.139 64.2054 588.665 64.6273 588.456 64.8564C588.248 65.0752 588.076 65.2939 587.941 65.5127H592.847ZM600.847 65.5127V66.7002H594.222C594.211 66.4085 594.258 66.1221 594.363 65.8408C594.54 65.3929 594.81 64.9502 595.175 64.5127C595.55 64.0752 596.086 63.57 596.784 62.9971C597.878 62.1012 598.613 61.3929 598.988 60.8721C599.373 60.3512 599.566 59.8564 599.566 59.3877C599.566 58.8981 599.389 58.4867 599.034 58.1533C598.691 57.82 598.243 57.6533 597.691 57.6533C597.097 57.6533 596.618 57.8304 596.253 58.1846C595.899 58.5387 595.722 59.0335 595.722 59.6689L594.456 59.5283C594.54 58.5908 594.862 57.8773 595.425 57.3877C595.998 56.8877 596.758 56.6377 597.706 56.6377C598.675 56.6377 599.435 56.9033 599.988 57.4346C600.55 57.9658 600.831 58.6273 600.831 59.4189C600.831 59.8252 600.748 60.221 600.581 60.6064C600.425 60.9919 600.154 61.3981 599.769 61.8252C599.394 62.2523 598.764 62.8408 597.878 63.5908C597.139 64.2054 596.665 64.6273 596.456 64.8564C596.248 65.0752 596.076 65.2939 595.941 65.5127H600.847Z" fill="#999999"/>
<path d="M606.175 58.1689C605.487 59.3669 604.633 60.3669 603.612 61.1689L602.847 60.1846C604.336 59.0908 605.357 57.5075 605.909 55.4346L607.159 55.7627C607.305 55.9085 607.253 55.9971 607.003 56.0283L606.566 57.1221H614.269V58.1689H610.284V60.0283H613.566V61.0596H610.284V63.5283H614.878V64.5596H610.284V67.8564H609.191V64.5596H602.894V63.5283H605.362V60.0283H609.191V58.1689H606.175ZM606.456 63.5283H609.191V61.0596H606.456V63.5283Z" fill="#999999"/>
<path d="M616.566 64.3877L617.753 64.2783C617.847 64.8304 618.034 65.2314 618.316 65.4814C618.607 65.7314 618.972 65.8564 619.409 65.8564C619.784 65.8564 620.112 65.7731 620.394 65.6064C620.685 65.4294 620.92 65.195 621.097 64.9033C621.284 64.6117 621.441 64.221 621.566 63.7314C621.691 63.2419 621.753 62.7419 621.753 62.2314C621.753 62.1794 621.748 62.096 621.737 61.9814C621.498 62.3773 621.165 62.7002 620.737 62.9502C620.31 63.1898 619.847 63.3096 619.347 63.3096C618.514 63.3096 617.81 63.0075 617.237 62.4033C616.665 61.7992 616.378 61.0075 616.378 60.0283C616.378 59.0075 616.675 58.1898 617.269 57.5752C617.873 56.9502 618.628 56.6377 619.534 56.6377C620.18 56.6377 620.774 56.8148 621.316 57.1689C621.857 57.5127 622.269 58.0127 622.55 58.6689C622.831 59.3148 622.972 60.2523 622.972 61.4814C622.972 62.7627 622.831 63.7835 622.55 64.5439C622.279 65.3044 621.868 65.8825 621.316 66.2783C620.764 66.6742 620.118 66.8721 619.378 66.8721C618.597 66.8721 617.956 66.6533 617.456 66.2158C616.967 65.7783 616.67 65.1689 616.566 64.3877ZM621.597 59.9658C621.597 59.2575 621.409 58.695 621.034 58.2783C620.659 57.8617 620.211 57.6533 619.691 57.6533C619.139 57.6533 618.659 57.8773 618.253 58.3252C617.847 58.7731 617.644 59.3512 617.644 60.0596C617.644 60.695 617.836 61.2158 618.222 61.6221C618.607 62.0179 619.081 62.2158 619.644 62.2158C620.217 62.2158 620.685 62.0179 621.05 61.6221C621.415 61.2158 621.597 60.6637 621.597 59.9658Z" fill="#999999"/>
<path d="M633.706 63.5283H628.503C628.503 65.0908 627.701 66.57 626.097 67.9658L625.175 66.9189C626.665 65.971 627.409 64.5492 627.409 62.6533V55.9814H634.8V66.7627C634.8 67.346 634.487 67.6377 633.862 67.6377H632.55L632.331 66.4189H633.487C633.633 66.4189 633.706 66.346 633.706 66.2002V63.5283ZM628.503 62.3252H633.706V60.3564H628.503V62.3252ZM628.503 59.1533H633.706V57.1846H628.503V59.1533Z" fill="#999999"/>
<path d="M644.847 65.5127V66.7002H638.222C638.211 66.4085 638.258 66.1221 638.363 65.8408C638.54 65.3929 638.81 64.9502 639.175 64.5127C639.55 64.0752 640.086 63.57 640.784 62.9971C641.878 62.1012 642.613 61.3929 642.988 60.8721C643.373 60.3512 643.566 59.8564 643.566 59.3877C643.566 58.8981 643.389 58.4867 643.034 58.1533C642.691 57.82 642.243 57.6533 641.691 57.6533C641.097 57.6533 640.618 57.8304 640.253 58.1846C639.899 58.5387 639.722 59.0335 639.722 59.6689L638.456 59.5283C638.54 58.5908 638.862 57.8773 639.425 57.3877C639.998 56.8877 640.758 56.6377 641.706 56.6377C642.675 56.6377 643.435 56.9033 643.988 57.4346C644.55 57.9658 644.831 58.6273 644.831 59.4189C644.831 59.8252 644.748 60.221 644.581 60.6064C644.425 60.9919 644.154 61.3981 643.769 61.8252C643.394 62.2523 642.764 62.8408 641.878 63.5908C641.139 64.2054 640.665 64.6273 640.456 64.8564C640.248 65.0752 640.076 65.2939 639.941 65.5127H644.847ZM646.566 64.3877L647.753 64.2783C647.847 64.8304 648.034 65.2314 648.316 65.4814C648.607 65.7314 648.972 65.8564 649.409 65.8564C649.784 65.8564 650.113 65.7731 650.394 65.6064C650.685 65.4294 650.92 65.195 651.097 64.9033C651.284 64.6117 651.441 64.221 651.566 63.7314C651.691 63.2419 651.753 62.7419 651.753 62.2314C651.753 62.1794 651.748 62.096 651.738 61.9814C651.498 62.3773 651.165 62.7002 650.738 62.9502C650.31 63.1898 649.847 63.3096 649.347 63.3096C648.514 63.3096 647.81 63.0075 647.238 62.4033C646.665 61.7992 646.378 61.0075 646.378 60.0283C646.378 59.0075 646.675 58.1898 647.269 57.5752C647.873 56.9502 648.628 56.6377 649.534 56.6377C650.18 56.6377 650.774 56.8148 651.316 57.1689C651.857 57.5127 652.269 58.0127 652.55 58.6689C652.831 59.3148 652.972 60.2523 652.972 61.4814C652.972 62.7627 652.831 63.7835 652.55 64.5439C652.279 65.3044 651.868 65.8825 651.316 66.2783C650.764 66.6742 650.118 66.8721 649.378 66.8721C648.597 66.8721 647.956 66.6533 647.456 66.2158C646.967 65.7783 646.67 65.1689 646.566 64.3877ZM651.597 59.9658C651.597 59.2575 651.409 58.695 651.034 58.2783C650.659 57.8617 650.211 57.6533 649.691 57.6533C649.139 57.6533 648.659 57.8773 648.253 58.3252C647.847 58.7731 647.644 59.3512 647.644 60.0596C647.644 60.695 647.836 61.2158 648.222 61.6221C648.607 62.0179 649.081 62.2158 649.644 62.2158C650.217 62.2158 650.685 62.0179 651.05 61.6221C651.415 61.2158 651.597 60.6637 651.597 59.9658Z" fill="#999999"/>
<path d="M657.8 67.2002H656.534V56.6377H665.128V66.9814H663.862V66.2002H657.8V67.2002ZM663.862 60.7939V57.6689H657.8V60.7939H663.862ZM663.862 65.1689V61.8252H657.8V65.1689H663.862ZM678.081 59.8564H680.659V60.7314H678.362V61.9971H680.222V62.8721H678.362V64.1846H680.222V65.0596H678.362V66.4189H681.097V67.3096H675.566V67.8564H674.644V61.7783C674.352 62.1742 673.987 62.5387 673.55 62.8721L673.159 61.8252C674.545 60.5856 675.441 59.2939 675.847 57.9502H674.581V59.2002H673.659V57.0752H676.066C676.211 56.4919 676.336 55.8721 676.441 55.2158L677.534 55.4814C677.649 55.596 677.612 55.7054 677.425 55.8096C677.321 56.2471 677.211 56.6689 677.097 57.0752H680.987V58.9814H680.05V57.9502H676.878C676.659 58.7106 676.368 59.346 676.003 59.8564H677.159L677.862 58.2158L678.909 58.4346C679.086 58.5075 679.05 58.6012 678.8 58.7158L678.081 59.8564ZM668.847 57.3408V56.3096H673.487V57.3408H671.581C671.508 58.4762 671.269 59.5179 670.862 60.4658H673.003V66.9814H672.066V66.0908H670.644V67.5283H669.722V62.5908C669.503 62.9554 669.264 63.2835 669.003 63.5752L668.3 62.6533C669.571 61.2262 670.316 59.4554 670.534 57.3408H668.847ZM675.566 62.8721V64.1846H677.425V62.8721H675.566ZM675.566 60.7314V61.9971H677.425V60.7314H675.566ZM675.566 65.0596V66.4189H677.425V65.0596H675.566ZM670.644 61.3408V65.2158H672.066V61.3408H670.644ZM687.222 61.4502C688.566 61.0856 689.42 60.3721 689.784 59.3096L688.316 58.7158L688.691 57.7783L690.003 58.2783L690.112 56.9658H687.816V55.9189H694.378L694.269 60.6221C694.237 61.5387 693.857 61.9971 693.128 61.9971H691.862L691.753 60.9502H692.909C693.128 60.9502 693.237 60.8408 693.237 60.6221L693.347 56.9658H691.206L691.05 58.7158L692.362 59.4189L691.862 60.4033L690.769 59.8096C690.3 61.1533 689.264 62.0648 687.659 62.5439L687.222 61.4502ZM694.159 66.9189C693.868 65.8252 693.415 64.8773 692.8 64.0752L693.784 63.6377C694.586 64.6169 695.097 65.5439 695.316 66.4189L694.159 66.9189ZM686.831 63.4658V67.6846H685.909V67.3096H684.05V67.9033H683.112V63.4658H686.831ZM687.269 66.9814C687.529 66.0648 687.696 65.0231 687.769 63.8564L688.862 63.9658C688.935 63.9971 688.899 64.0856 688.753 64.2314C688.711 65.3981 688.545 66.4033 688.253 67.2471L687.269 66.9814ZM690.769 61.6689C691.279 61.9919 691.79 62.5544 692.3 63.3564L691.269 63.9658C691.008 63.4554 690.571 62.8721 689.956 62.2158L690.769 61.6689ZM683.331 55.7002H686.612V56.7471H683.331V55.7002ZM682.628 57.5596H687.331V58.6064H682.628V57.5596ZM683.331 59.5908H686.612V60.6221H683.331V59.5908ZM683.331 61.4502H686.612V62.4814H683.331V61.4502ZM684.05 64.3408V66.4189H685.909V64.3408H684.05ZM690.222 63.3096C690.514 63.3408 690.534 63.4502 690.284 63.6377V66.2002C690.284 66.4606 690.394 66.5908 690.612 66.5908H691.816C692.034 66.5908 692.159 66.4814 692.191 66.2627L692.3 65.3877L693.394 65.6533L693.175 66.8096C693.071 67.3617 692.743 67.6377 692.191 67.6377H690.112C689.498 67.6377 689.191 67.3044 689.191 66.6377V63.3096H690.222Z" fill="#999999"/>
<path d="M36.5769 42.6846C32.0977 41.6429 29.129 39.2731 27.6707 35.5752H25.2488V40.7314L29.6238 39.9502L29.9363 41.2783L21.8894 42.9189C21.8373 43.3356 21.7071 43.4398 21.4988 43.2314L20.9519 41.3564L23.6863 40.9658V35.5752H19.9363V34.0908H23.6863V25.6533H34.9363V27.1377H25.2488V28.3096H33.8425V29.7939H25.2488V31.1221H33.9988V32.6064H25.2488V34.0908H37.28V35.5752H29.2332C29.5457 36.2523 30.1186 37.0075 30.9519 37.8408L33.4519 35.8877L34.78 36.8252C35.1446 37.0856 35.0665 37.2158 34.5457 37.2158L32.1238 38.8564C33.1654 39.5856 34.9623 40.2887 37.5144 40.9658L36.5769 42.6846ZM53.9207 36.9033C54.8061 35.7054 55.4571 34.7158 55.8738 33.9346H53.6863V41.6689C53.6863 42.5544 53.2696 42.9971 52.4363 42.9971H51.03L50.7175 41.5127H51.8894C52.0457 41.5127 52.1238 41.4346 52.1238 41.2783V33.9346H49.5457V32.4502H56.3425L56.7332 32.0596L57.9832 33.1533C58.1915 33.3617 58.1134 33.4919 57.7488 33.5439C57.1238 34.9502 56.2904 36.3564 55.2488 37.7627L53.9207 36.9033ZM51.655 28.2314C52.0196 28.4398 52.4623 28.7523 52.9832 29.1689L54.3894 27.3721H49.6238V25.8877H55.4832L55.7175 25.6533L56.8894 26.8252C57.0977 27.0335 57.0196 27.1637 56.655 27.2158L53.9207 29.9502L54.78 30.8096L53.6863 31.9033C52.6967 30.8096 51.7071 29.8981 50.7175 29.1689L51.655 28.2314ZM49.3113 40.8877L40.5613 42.2158C40.5092 42.5804 40.379 42.6585 40.1707 42.4502L39.7019 40.4971L43.8425 40.1846V37.7627H40.3269V36.2783H43.8425V34.1689H42.1238H40.405V25.8096H48.8425V34.1689H45.405V36.2783H48.9207V37.7627H45.405V40.0283L49.2332 39.5596L49.3113 40.8877ZM43.8425 27.0596H41.9675V29.4033H43.8425V27.0596ZM43.8425 32.9189V30.6533H41.9675V32.9189H43.8425ZM47.28 29.4033V27.0596H45.405V29.4033H47.28ZM47.28 32.9189V30.6533H45.405V32.9189H47.28ZM72.5925 37.6064C73.6342 38.6481 75.1707 39.6898 77.2019 40.7314L76.2644 42.3721C74.4936 41.5387 72.8269 40.3408 71.2644 38.7783L72.5925 37.6064ZM65.7957 39.0127C64.9102 40.2627 63.5561 41.4867 61.7332 42.6846L60.5613 41.2002C62.2279 40.2106 63.5561 39.0387 64.5457 37.6846L66.03 38.5439C66.2904 38.7523 66.2123 38.9085 65.7957 39.0127ZM62.5925 36.9814V37.7627H61.03V26.5127H62.5144C62.9311 26.5648 62.9571 26.721 62.5925 26.9814V35.4971H76.9675V36.9814H69.7019V42.9971H67.905V36.9814H62.5925ZM66.03 33.2314H72.8269V31.7471H66.03V33.2314ZM66.03 30.4971H72.8269V29.2471H66.03V30.4971ZM66.03 27.9971H72.8269V26.7471H66.03V27.9971ZM64.4675 34.4814V25.4971H74.3894V34.4814H64.4675ZM89.3894 30.1846C88.504 35.3929 87.4363 38.6221 86.1863 39.8721C85.5092 40.5492 84.8061 40.8877 84.0769 40.8877C83.2436 40.8877 82.5925 40.6533 82.1238 40.1846C80.8738 38.9346 80.2488 37.3721 80.2488 35.4971C80.2488 33.2054 81.0561 31.2523 82.6707 29.6377C84.4415 27.8669 86.6029 26.9814 89.155 26.9814C91.4467 26.9814 93.2436 27.6325 94.5457 28.9346C96.004 30.3929 96.7332 32.1117 96.7332 34.0908C96.7332 36.2262 96.0561 37.971 94.7019 39.3252C93.8165 40.2106 92.4623 41.07 90.6394 41.9033L88.9988 40.2627C90.8217 39.6898 92.254 38.8825 93.2957 37.8408C94.2852 36.8512 94.78 35.6533 94.78 34.2471C94.78 32.5804 94.2332 31.2002 93.1394 30.1064C92.0457 29.0127 90.3269 28.5179 87.9832 28.6221L89.3894 29.3252C90.0144 29.5856 90.0144 29.8721 89.3894 30.1846ZM87.5925 28.7002C86.2384 29.0127 85.0665 29.6637 84.0769 30.6533C82.7227 32.0075 82.0457 33.6742 82.0457 35.6533C82.0457 36.8512 82.4363 37.8408 83.2175 38.6221C83.3738 38.7783 83.6082 38.8564 83.9207 38.8564C84.2332 38.8564 84.5717 38.6742 84.9363 38.3096C86.1342 37.1117 87.0196 33.9085 87.5925 28.7002ZM106.733 41.5127C108.869 40.3669 109.936 38.4137 109.936 35.6533V26.6689L111.577 26.9814L115.796 25.6533L116.968 27.2158C117.072 27.5283 116.889 27.5804 116.421 27.3721L111.499 28.3096V31.6689H117.671V33.1533H115.327V42.9189H113.764V33.1533H111.499V36.1221C111.499 39.195 110.197 41.4867 107.593 42.9971L106.733 41.5127ZM105.249 42.9971H103.686V38.3096C102.853 39.6637 101.941 40.7314 100.952 41.5127L99.78 40.1064C101.238 39.0648 102.462 37.7627 103.452 36.2002H100.171V34.7158H103.686V32.9971H99.7019V31.5127H105.171L106.03 28.7002H100.249V27.2158H103.686V25.0283H105.171C105.587 25.0804 105.613 25.2367 105.249 25.4971V27.2158H108.686V28.7002H107.671L106.577 31.5127H109.077V32.9971H105.249V34.7158H108.686V36.2002H105.249V36.9033C105.978 37.1117 106.994 37.6585 108.296 38.5439L107.358 40.1064C106.629 39.3773 105.926 38.8044 105.249 38.3877V42.9971ZM102.124 31.3564C101.915 30.6273 101.629 29.9242 101.264 29.2471L102.749 28.7783C103.165 29.4554 103.478 30.1585 103.686 30.8877L102.124 31.3564ZM134.858 33.5439H129.78V35.2627H134.858V33.5439ZM132.749 36.7471H131.343V37.5283C131.343 40.7575 129.494 42.6585 125.796 43.2314L125.327 41.5908C128.296 41.2262 129.78 39.82 129.78 37.3721V36.7471H128.999H128.218V25.8096H136.421V36.7471H134.311V40.6533C134.311 41.07 134.494 41.2783 134.858 41.2783H135.639C135.9 41.2783 136.056 41.0179 136.108 40.4971L136.264 39.1689L137.827 39.6377L137.593 41.4346C137.488 42.32 136.994 42.7627 136.108 42.7627H134.155C133.218 42.7627 132.749 42.32 132.749 41.4346V36.7471ZM129.78 32.0596H134.858V30.4189H129.78V32.0596ZM129.78 28.9346H134.858V27.2939H129.78V28.9346ZM124.155 35.8877C125.197 36.3564 126.421 37.2158 127.827 38.4658L126.733 40.1064C125.639 38.9085 124.676 38.0231 123.843 37.4502C123.322 39.7419 122.228 41.5387 120.561 42.8408L119.389 41.4346C121.681 39.5075 122.775 37.0075 122.671 33.9346H119.702V32.4502H122.749V29.6377H120.249V28.1533H122.749V25.0283H124.233C124.65 25.0804 124.676 25.2367 124.311 25.4971V28.1533H127.046V29.6377H124.311V32.4502H127.436V33.9346H124.233C124.233 34.7679 124.207 35.4189 124.155 35.8877ZM144.233 32.1377C145.223 33.4919 145.718 34.8981 145.718 36.3564C145.718 38.3877 145.119 39.4033 143.921 39.4033H142.983L142.671 37.8408H143.452C143.973 37.8408 144.207 37.2939 144.155 36.2002C144.103 34.6898 143.634 33.3617 142.749 32.2158L144.311 27.1377H141.889V42.7627H140.327V25.8877H144.702L145.014 25.4971L146.343 26.6689L146.03 26.9814L144.233 32.1377ZM155.561 36.5127H154.78C153.947 40.3148 151.16 42.5023 146.421 43.0752L145.952 41.5908C150.014 41.2783 152.462 39.5856 153.296 36.5127H152.202C151.316 38.7002 149.441 40.0283 146.577 40.4971L146.108 39.1689C148.504 38.6481 149.988 37.7627 150.561 36.5127H149.311C148.582 37.2419 147.645 37.8148 146.499 38.2314L145.874 36.9033C147.54 36.3825 148.686 35.3929 149.311 33.9346H145.796V32.6846H157.514V33.9346H150.952C150.744 34.4033 150.483 34.846 150.171 35.2627H157.046L156.889 40.1846C156.837 41.8512 156.238 42.6846 155.093 42.6846H153.53L153.296 41.2002H154.624C155.093 41.2002 155.353 40.8877 155.405 40.2627L155.561 36.5127ZM148.921 30.4189H154.233V29.0908H148.921V30.4189ZM148.921 27.8408H154.233V26.5908H148.921V27.8408ZM155.561 25.3408V31.6689H147.593V25.3408H155.561ZM168.843 29.3252H170.952V25.2627H172.436C172.853 25.3148 172.879 25.471 172.514 25.7314V29.3252H176.733V30.8096H172.514V34.5596H176.499V36.0439H172.514V40.6533H177.671V42.1377H165.718V40.6533H170.952V36.0439H167.124V34.5596H170.952V30.8096H168.374C168.009 31.8512 167.436 32.8929 166.655 33.9346L165.327 32.9189C166.681 31.1481 167.566 29.0127 167.983 26.5127L169.468 26.8252C169.884 26.9814 169.884 27.1377 169.468 27.2939L168.843 29.3252ZM162.202 25.0283H163.686C164.103 25.0804 164.129 25.2367 163.764 25.4971V42.8408H162.202V25.0283ZM165.171 28.2314C165.639 28.8564 166.03 29.5596 166.343 30.3408L165.093 31.2002C164.728 30.3148 164.363 29.5856 163.999 29.0127L165.171 28.2314ZM161.733 29.0908C162.098 29.195 162.098 29.3512 161.733 29.5596C161.629 31.2262 161.395 32.7887 161.03 34.2471L159.546 33.7783C159.962 32.4762 160.197 30.8356 160.249 28.8564L161.733 29.0908ZM194.546 33.6221V42.6846H192.983V41.9033H185.952V42.9189H184.389V35.8096C183.035 36.5387 181.577 37.1117 180.014 37.5283L179.468 36.1221C180.926 35.7575 182.566 35.1064 184.389 34.1689V33.6221H185.483C186.577 32.9971 187.514 32.3721 188.296 31.7471H180.093V30.2627H186.968V28.3877H182.124V26.9033H186.968V25.0283H188.452C188.869 25.0804 188.895 25.2367 188.53 25.4971V26.9033H192.28V28.2314C192.905 27.5544 193.53 26.7992 194.155 25.9658L195.249 26.6689C195.613 26.9294 195.561 27.0856 195.093 27.1377C194.103 28.3356 193.113 29.3773 192.124 30.2627H197.514V31.7471H190.483C189.441 32.6325 188.608 33.2575 187.983 33.6221H194.546ZM190.014 30.2627C190.639 29.7939 191.343 29.1689 192.124 28.3877H188.53V30.2627H190.014ZM185.952 36.9814H192.983V34.8721H185.952V36.9814ZM185.952 40.6533H192.983V38.2314H185.952V40.6533ZM213.139 36.9033C213.869 35.4971 214.311 33.3617 214.468 30.4971H211.811C211.968 33.3617 212.41 35.4971 213.139 36.9033ZM216.03 30.4971C215.926 33.7262 215.301 36.3304 214.155 38.3096C214.988 39.3512 216.16 40.2627 217.671 41.0439L216.655 42.7627C214.988 41.6689 213.816 40.6273 213.139 39.6377C211.941 40.9919 210.093 42.1637 207.593 43.1533L206.811 41.5908C209.52 40.4971 211.316 39.3773 212.202 38.2314C211.316 36.5127 210.822 34.7939 210.718 33.0752C210.405 33.8564 210.093 34.4554 209.78 34.8721L208.452 33.8564C210.014 31.5648 210.952 28.7262 211.264 25.3408L212.905 25.7314C213.218 25.9398 213.139 26.096 212.671 26.2002C212.514 27.1377 212.306 28.0752 212.046 29.0127H217.358V30.4971H216.03ZM208.764 26.7471C208.452 27.5283 208.087 28.1794 207.671 28.7002L206.421 27.9971C206.837 27.32 207.228 26.5387 207.593 25.6533L208.999 26.3564C209.207 26.5648 209.129 26.695 208.764 26.7471ZM203.764 37.7627C204.494 37.971 205.145 38.2054 205.718 38.4658C206.134 37.9971 206.473 37.2939 206.733 36.3564H204.468C204.259 36.8252 204.025 37.2939 203.764 37.7627ZM202.671 39.7158L201.421 39.0127C201.941 38.2314 202.462 37.346 202.983 36.3564H200.014V35.1064H203.452C203.764 34.4294 203.999 33.8564 204.155 33.3877L205.639 33.7783C205.848 33.9867 205.77 34.1169 205.405 34.1689L204.936 35.1064H209.389V36.3564H208.218C207.957 37.3981 207.566 38.2835 207.046 39.0127C207.514 39.221 208.009 39.4814 208.53 39.7939L207.827 41.0439C207.254 40.6794 206.733 40.3929 206.264 40.1846C204.91 41.5387 203.087 42.3721 200.796 42.6846L200.249 41.2783C202.28 41.07 203.843 40.4971 204.936 39.5596C204.363 39.2992 203.79 39.0648 203.218 38.8564L202.671 39.7158ZM204.233 25.0283H205.483C205.9 25.0804 205.926 25.2367 205.561 25.4971V28.8564H209.546V30.1064H206.264C206.837 30.7835 207.723 31.4346 208.921 32.0596L208.061 33.3877C207.176 32.8669 206.343 32.1377 205.561 31.2002V33.0752H204.233V31.5908C203.4 32.6325 202.254 33.57 200.796 34.4033L199.78 33.1533C201.395 32.32 202.723 31.3044 203.764 30.1064H200.171V28.8564H204.233V25.0283ZM202.046 28.6221C201.681 27.8408 201.212 27.1637 200.639 26.5908L201.889 25.8096C202.514 26.4346 202.983 27.0856 203.296 27.7627L202.046 28.6221ZM229.389 30.1846C228.504 35.3929 227.436 38.6221 226.186 39.8721C225.509 40.5492 224.806 40.8877 224.077 40.8877C223.244 40.8877 222.593 40.6533 222.124 40.1846C220.874 38.9346 220.249 37.3721 220.249 35.4971C220.249 33.2054 221.056 31.2523 222.671 29.6377C224.441 27.8669 226.603 26.9814 229.155 26.9814C231.447 26.9814 233.244 27.6325 234.546 28.9346C236.004 30.3929 236.733 32.1117 236.733 34.0908C236.733 36.2262 236.056 37.971 234.702 39.3252C233.816 40.2106 232.462 41.07 230.639 41.9033L228.999 40.2627C230.822 39.6898 232.254 38.8825 233.296 37.8408C234.285 36.8512 234.78 35.6533 234.78 34.2471C234.78 32.5804 234.233 31.2002 233.139 30.1064C232.046 29.0127 230.327 28.5179 227.983 28.6221L229.389 29.3252C230.014 29.5856 230.014 29.8721 229.389 30.1846ZM227.593 28.7002C226.238 29.0127 225.066 29.6637 224.077 30.6533C222.723 32.0075 222.046 33.6742 222.046 35.6533C222.046 36.8512 222.436 37.8408 223.218 38.6221C223.374 38.7783 223.608 38.8564 223.921 38.8564C224.233 38.8564 224.572 38.6742 224.936 38.3096C226.134 37.1117 227.02 33.9085 227.593 28.7002ZM245.171 31.8252C246.889 30.2106 248.218 27.8669 249.155 24.7939L250.718 25.2627C250.978 25.471 250.926 25.6012 250.561 25.6533C250.145 26.695 249.728 27.6585 249.311 28.5439H251.655C252.228 27.346 252.671 26.2783 252.983 25.3408L254.468 25.8877C254.676 26.096 254.598 26.2262 254.233 26.2783C253.869 27.1117 253.504 27.8669 253.139 28.5439H257.124V30.0283H253.139V32.4502H256.343V33.9346H253.139V36.4346H256.343V37.9189H253.139V40.8096H257.593V42.2939H248.999V42.9971H247.436V31.6689C247.072 32.1898 246.681 32.6585 246.264 33.0752L245.171 31.8252ZM241.264 42.8408L240.952 41.3564H242.28C242.488 41.3564 242.593 41.2523 242.593 41.0439V36.2002L240.561 36.6689C240.509 37.0335 240.379 37.1117 240.171 36.9033L239.858 35.1064L242.593 34.5596V30.4189H240.171V28.9346H242.593V24.9502H244.077C244.494 25.0023 244.52 25.1585 244.155 25.4189V28.9346H246.186V30.4189H244.155V34.2471L246.186 33.7002L246.421 35.1064L244.155 35.8096V41.5908C244.155 42.4242 243.738 42.8408 242.905 42.8408H241.264ZM248.999 40.8096H251.577V37.9189H248.999V40.8096ZM248.999 36.4346H251.577V33.9346H248.999V36.4346ZM248.999 32.4502H251.577V30.0283H248.999V32.4502ZM275.249 27.1377L275.483 26.8252L276.733 27.8408L276.499 28.0752C275.145 30.4189 273.816 31.9814 272.514 32.7627L273.296 32.9971C273.66 33.1533 273.634 33.3096 273.218 33.4658C273.113 33.8304 272.983 34.1429 272.827 34.4033H276.186L276.421 34.0908L277.827 35.1064L277.514 35.4189C275.848 39.846 272.462 42.346 267.358 42.9189L266.733 41.4346C269.181 41.1742 271.108 40.5231 272.514 39.4814C271.785 38.7523 271.056 38.1273 270.327 37.6064C269.65 38.1794 268.738 38.7002 267.593 39.1689L266.889 37.7627C269.441 36.721 271.108 35.1325 271.889 32.9971C271.108 33.7262 269.702 34.3512 267.671 34.8721L266.968 33.4658C268.947 33.0492 270.431 32.5023 271.421 31.8252C270.9 31.2002 270.275 30.6533 269.546 30.1846C269.181 30.5492 268.816 30.8617 268.452 31.1221L267.358 29.9502C269.077 28.4919 270.171 26.9294 270.639 25.2627L272.046 25.7314C272.41 25.8877 272.384 26.0439 271.968 26.2002C271.915 26.5127 271.785 26.8252 271.577 27.1377H275.249ZM264.624 30.1846H267.202V31.6689H264.624V33.6221C265.665 34.0908 266.655 34.7939 267.593 35.7314L266.577 37.1377C265.744 36.3044 265.093 35.7054 264.624 35.3408V42.9189H263.061V35.1846C262.749 36.2262 261.889 37.5544 260.483 39.1689L259.311 37.6846C261.238 35.8617 262.436 33.8564 262.905 31.6689H259.858V30.1846H263.061V27.6064C262.02 27.7627 261.082 27.8929 260.249 27.9971L259.858 26.5127C261.941 26.3044 264.103 25.8877 266.343 25.2627L267.202 26.4346C267.41 26.7471 267.28 26.8512 266.811 26.7471C266.082 26.9554 265.353 27.1377 264.624 27.2939V30.1846ZM270.327 29.2471C271.108 29.6637 271.863 30.1846 272.593 30.8096C273.374 30.0804 274.025 29.2731 274.546 28.3877H270.952C270.744 28.7523 270.535 29.0387 270.327 29.2471ZM271.186 36.6689C271.915 37.0856 272.749 37.7106 273.686 38.5439C274.468 37.971 275.145 37.0075 275.718 35.6533H272.124C271.811 36.07 271.499 36.4085 271.186 36.6689ZM283.218 29.3252C283.79 28.1273 284.754 26.9033 286.108 25.6533L286.968 26.4346C285.665 27.6325 284.754 28.7783 284.233 29.8721C283.66 31.07 283.374 32.5023 283.374 34.1689C283.374 35.5752 283.66 36.9033 284.233 38.1533C284.754 39.2992 285.665 40.5752 286.968 41.9814L286.108 42.8408C284.806 41.3825 283.843 40.0023 283.218 38.7002C282.54 37.2939 282.202 35.7835 282.202 34.1689C282.202 32.346 282.54 30.7314 283.218 29.3252ZM294.311 41.9033H292.514V26.8252H304.78V41.5908H302.983V40.4971H294.311V41.9033ZM302.983 32.7627V28.3096H294.311V32.7627H302.983ZM302.983 39.0127V34.2471H294.311V39.0127H302.983ZM317.749 35.8096H314.78C314.311 38.7783 312.905 41.1221 310.561 42.8408L309.78 41.3564C312.072 39.7419 313.322 37.346 313.53 34.1689L313.686 31.7471H312.593V32.7627H311.03V26.0439H318.921V32.4502H317.358V31.7471H315.093L314.936 34.3252H319.311L318.921 40.4971C318.816 41.7471 318.296 42.3721 317.358 42.3721H315.249L315.014 40.8877H316.733C317.202 40.8877 317.462 40.6273 317.514 40.1064L317.749 35.8096ZM326.186 41.2002C326.186 42.0856 325.77 42.5283 324.936 42.5283H323.218L322.905 41.0439H324.389C324.546 41.0439 324.624 40.9658 324.624 40.8096V25.8096H326.108C326.525 25.8617 326.551 26.0179 326.186 26.2783V41.2002ZM322.436 27.6846C322.853 27.7367 322.879 27.8929 322.514 28.1533V38.8564H320.952V27.6846H322.436ZM317.358 30.4971V27.2939H312.593V30.4971H317.358ZM333.921 38.7002C333.296 40.0023 332.332 41.3825 331.03 42.8408L330.171 41.9814C331.473 40.5752 332.384 39.2992 332.905 38.1533C333.478 36.9033 333.764 35.5752 333.764 34.1689C333.764 32.5023 333.478 31.07 332.905 29.8721C332.384 28.7783 331.473 27.6325 330.171 26.4346L331.03 25.6533C332.384 26.9033 333.348 28.1273 333.921 29.3252C334.598 30.7314 334.936 32.346 334.936 34.1689C334.936 35.7835 334.598 37.2939 333.921 38.7002Z" fill="#757575"/>
</g>
<rect x="2" y="2" width="714" height="440" stroke="black" stroke-width="4"/>
<defs>
<clipPath id="clip0_7_21838">
<rect width="718" height="444" fill="white"/>
</clipPath>
</defs>
</svg>
