<svg width="718" height="444" viewBox="0 0 718 444" fill="none" xmlns="http://www.w3.org/2000/svg">
<g clip-path="url(#clip0_7_25979)">
<path d="M0 0H718V444H0V0Z" fill="white"/>
<path d="M181.5 91.5V369.5" stroke="#CCCCCC" stroke-miterlimit="10"/>
<path d="M302.5 91.5V369.5" stroke="#CCCCCC" stroke-miterlimit="10"/>
<path d="M424.5 91.5V369.5" stroke="#CCCCCC" stroke-miterlimit="10"/>
<path d="M545.5 91.5V369.5" stroke="#CCCCCC" stroke-miterlimit="10"/>
<path d="M666.5 91.5V369.5" stroke="#CCCCCC" stroke-miterlimit="10"/>
<path d="M88.5 369.5H695.5" stroke="#333333" stroke-miterlimit="10"/>
<path d="M88.5 300.5H695.5" stroke="#CCCCCC" stroke-miterlimit="10"/>
<path d="M88.5 230.5H695.5" stroke="#CCCCCC" stroke-miterlimit="10"/>
<path d="M88.5 161.5H695.5" stroke="#CCCCCC" stroke-miterlimit="10"/>
<path d="M88.5 91.5H695.5" stroke="#CCCCCC" stroke-miterlimit="10"/>
<path d="M88.2 369.8H88.8064H89.4128H90.0192H90.6255H91.2319H91.8383H92.4447H93.0511H93.6575H94.2639H94.8703H95.4766H96.083H96.6894H97.2958H97.9022H98.5086H99.115H99.7214H100.328H100.934H101.541H102.147H102.753H103.36H103.966H104.572H105.179H105.785H106.392H106.998H107.604H108.211H108.817H109.424H110.03H110.636H111.243H111.849H112.455H113.062H113.668H114.275H114.881H115.487H116.094L116.7 369.73L117.307 369.8H117.913H118.519H119.126H119.732H120.339H120.945H121.551H122.158H122.764H123.37H123.977H124.583H125.19H125.796L126.402 369.661L127.009 369.452H127.615L128.222 369.243L128.828 369.73H129.434L130.041 369.661L130.647 369.8L131.253 369.661L131.86 369.8L132.466 369.73L133.073 369.8L133.679 369.73L134.285 369.8L134.892 369.73H135.498H136.105L136.711 369.8L137.317 369.73L137.924 369.661L138.53 369.382L139.137 369.8L139.743 369.73L140.349 369.8H140.956L141.562 369.73L142.168 369.661L142.775 369.452L143.381 369.522L143.988 369.8H144.594H145.2L145.807 369.73L146.413 369.522L147.02 369.8H147.626L148.232 369.73L148.839 369.8H149.445H150.051H150.658H151.264H151.871H152.477H153.083H153.69H154.296H154.903H155.509H156.115H156.722H157.328H157.935H158.541H159.147H159.754H160.36H160.966H161.573H162.179H162.786H163.392H163.998H164.605H165.211H165.818H166.424H167.03H167.637H168.243H168.85H169.456H170.062H170.669H171.275H171.881H172.488H173.094H173.701H174.307H174.913H175.52H176.126H176.733H177.339H177.945H178.552H179.158H179.764H180.371H180.977H181.584H182.19H182.796H183.403H184.009H184.616H185.222H185.828H186.435H187.041H187.648H188.254H188.86H189.467H190.073H190.679H191.286H191.892H192.499H193.105H193.711H194.318H194.924H195.531H196.137H196.743H197.35H197.956H198.562H199.169H199.775H200.382H200.988H201.594H202.201H202.807H203.414H204.02H204.626H205.233L205.839 369.661L206.446 369.8L207.052 369.661H207.658H208.265L208.871 369.8L209.477 369.661L210.084 369.591L210.69 369.73L211.297 369.661H211.903H212.509L213.116 369.313L213.722 369.452L214.329 369.73L214.935 369.8H215.541L216.148 369.73L216.754 369.591L217.36 369.382L217.967 369.104L218.573 369.313L219.18 369.104L219.786 369.522L220.392 369.591L220.999 369.73L221.605 369.8L222.212 369.661L222.818 369.8L223.424 369.591L224.031 369.73L224.637 369.8H225.244L225.85 369.73L226.456 369.8L227.063 369.661L227.669 369.591L228.275 369.73L228.882 369.661L229.488 369.522L230.095 369.8H230.701H231.307L231.914 369.73L232.52 369.8H233.127H233.733H234.339H234.946H235.552H236.158H236.765H237.371H237.978H238.584H239.19H239.797H240.403H241.01H241.616H242.222H242.829H243.435H244.042H244.648H245.254H245.861H246.467H247.073H247.68H248.286H248.893H249.499H250.105H250.712H251.318H251.925H252.531H253.137H253.744L254.35 369.73L254.956 369.8H255.563H256.169H256.776H257.382H257.988H258.595H259.201H259.808H260.414H261.02H261.627H262.233H262.84H263.446H264.052H264.659H265.265H265.871H266.478L267.084 369.73L267.691 369.8L268.297 369.73L268.903 369.8H269.51L270.116 369.73H270.723L271.329 369.8L271.935 369.73L272.542 369.8L273.148 369.522L273.754 369.034L274.361 369.104L274.967 369.313L275.574 368.965L276.18 369.73L276.786 369.104L277.393 369.522L277.999 369.452L278.606 369.104L279.212 369.243L279.818 369.174L280.425 368.547L281.031 369.313L281.638 368.756L282.244 368.826L282.85 368.756L283.457 368.547H284.063H284.669L285.276 368.478L285.882 369.034L286.489 369.104L287.095 368.339L287.701 368.06L288.308 367.991L288.914 368.547L289.521 369.243L290.127 369.382L290.733 368.965L291.34 369.174L291.946 368.895L292.552 369.591L293.159 369.313L293.765 369.243L294.372 369.661L294.978 369.522L295.584 369.313L296.191 369.174L296.797 369.313L297.404 368.826L298.01 369.591L298.616 368.478L299.223 368.756L299.829 368.895L300.436 368.269L301.042 369.034H301.648L302.255 369.174L302.861 369.104L303.467 368.687L304.074 367.991L304.68 368.478L305.287 368.617L305.893 368.895L306.499 369.243L307.106 369.174L307.712 368.826L308.319 368.617L308.925 368.687L309.531 368.965L310.138 368.478L310.744 369.104L311.35 369.313L311.957 369.382L312.563 368.687L313.17 367.504L313.776 367.991L314.382 368.547L314.989 369.104L315.595 369.382L316.202 367.643L316.808 368.826L317.414 368.269L318.021 368.408L318.627 369.104L319.234 368.895L319.84 369.243L320.446 369.034L321.053 368.826L321.659 368.756L322.265 369.174L322.872 369.243L323.478 369.591L324.085 369.313L324.691 369.522L325.297 369.452L325.904 369.313L326.51 369.661L327.117 369.104L327.723 369.73H328.329L328.936 369.522H329.542L330.148 369.452L330.755 369.522L331.361 369.591L331.968 369.661L332.574 369.73L333.18 369.661L333.787 369.8L334.393 369.73L335 369.8L335.606 369.661H336.212L336.819 369.8L337.425 369.73H338.032H338.638H339.244L339.851 369.8H340.457H341.063H341.67H342.276H342.883H343.489L344.095 369.73L344.702 369.8L345.308 369.73L345.915 369.8H346.521L347.127 369.73L347.734 369.8H348.34L348.947 369.73L349.553 369.8H350.159L350.766 369.73L351.372 369.8L351.978 369.661L352.585 369.8L353.191 369.73L353.798 369.661L354.404 369.73H355.01L355.617 369.452L356.223 369.73L356.83 369.452L357.436 369.661L358.042 369.73L358.649 369.591L359.255 369.661L359.861 369.452L360.468 369.522L361.074 369.452L361.681 369.661L362.287 369.522L362.893 369.452H363.5L364.106 369.591L364.713 369.382H365.319L365.925 369.452L366.532 369.73L367.138 369.382L367.744 367.713L368.351 366.878L368.957 366.669L369.564 364.512L370.17 365.417L370.776 367.504L371.383 366.251L371.989 367.434L372.596 366.947L373.202 365.973L373.808 366.182L374.415 366.808L375.021 366.112L375.628 366.739L376.234 366.182L376.84 366.53L377.447 364.373L378.053 363.329L378.659 364.651L379.266 364.582L379.872 365.695L380.479 365.277L381.085 364.512L381.691 362.703L382.298 365.486L382.904 365.764L383.511 367.852L384.117 366.739L384.723 366.251L385.33 366.739L385.936 366.53L386.543 367.365L387.149 367.921L387.755 367.643L388.362 367.295L388.968 367.156L389.574 368.269L390.181 368.547L390.787 368.13L391.394 368.2L392 368.895L392.606 368.617L393.213 368.269L393.819 368.965L394.426 369.522L395.032 369.243L395.638 369.313L396.245 369.8L396.851 369.522L397.458 369.382L398.064 369.522L398.67 369.313H399.277L399.883 369.8L400.489 369.73H401.096L401.702 369.522L402.309 369.661L402.915 369.8L403.521 369.452L404.128 369.73L404.734 369.452L405.34 369.8L405.947 369.73L406.553 369.661H407.16L407.766 369.8H408.372H408.979H409.585H410.192L410.798 369.73L411.404 369.8L412.011 369.661L412.617 369.8H413.224L413.83 369.73H414.436L415.043 369.452L415.649 369.591L416.255 369.8H416.862L417.468 369.73H418.075H418.681L419.287 369.313L419.894 369.382L420.5 369.591L421.107 369.522L421.713 369.591L422.319 368.965L422.926 369.73L423.532 369.661L424.139 369.452L424.745 369.034L425.351 369.591L425.958 369.382L426.564 368.965H427.17L427.777 368.408L428.383 368.339L428.99 368.2L429.596 367.782L430.202 368.617L430.809 368.269L431.415 367.434L432.022 367.643L432.628 366.251L433.234 366.46L433.841 366.878L434.447 367.086H435.054L435.66 365.556L436.266 364.025L436.873 363.19L437.479 363.608L438.085 363.26L438.692 363.886L439.298 359.503L439.905 358.529L440.511 356.024L441.117 354.911L441.724 354.841L442.33 355.467L442.937 359.085L443.543 358.877L444.149 356.859L444.756 358.459L445.362 357.415L445.968 359.572L446.575 361.66L447.181 361.312L447.788 362.286L448.394 360.964L449 361.799L449.607 364.025L450.213 364.721L450.82 365.486L451.426 366.182L452.032 365.973L452.639 366.46L453.245 366.321L453.851 367.156L454.458 367.573L455.064 367.504L455.671 368.269L456.277 367.365L456.883 368.269L457.49 368.06L458.096 367.852L458.703 368.617L459.309 368.687L459.915 368.826L460.522 369.034L461.128 368.408L461.735 367.852L462.341 368.617H462.947L463.554 368.756L464.16 368.895L464.766 368.13L465.373 369.104L465.979 369.452L466.586 369.034L467.192 369.174L467.798 368.965L468.405 369.661L469.011 369.313L469.618 369.174L470.224 368.965L470.83 368.547L471.437 369.174L472.043 369.661L472.65 369.73L473.256 369.522L473.862 369.382L474.469 369.73L475.075 369.591H475.681L476.288 369.8H476.894L477.501 368.826L478.107 369.452L478.713 369.8L479.32 368.339L479.926 369.661H480.533L481.139 369.8H481.745H482.352H482.958L483.564 369.243L484.171 369.8H484.777H485.384H485.99H486.596H487.203H487.809H488.416H489.022H489.628H490.235H490.841H491.447H492.054H492.66H493.267H493.873H494.479H495.086H495.692H496.299H496.905H497.511H498.118H498.724H499.331H499.937L500.543 369.73L501.15 369.8H501.756H502.362H502.969H503.575L504.182 369.73L504.788 369.8H505.394H506.001H506.607H507.214L507.82 369.73L508.426 369.8H509.033H509.639H510.246H510.852H511.458H512.065H512.671H513.277H513.884H514.49H515.097H515.703H516.309H516.916H517.522H518.129H518.735H519.341H519.948H520.554H521.16H521.767H522.373H522.98L523.586 369.73H524.192L524.799 369.661L525.405 369.104L526.012 368.826L526.618 368.06L527.224 368.269L527.831 368.13L528.437 367.504L529.044 367.573L529.65 366.321L530.256 364.025L530.863 363.816L531.469 360.894L532.075 360.825L532.682 355.259L533.288 353.589L533.895 353.171L534.501 354.215L535.107 353.728L535.714 346.84L536.32 350.319L536.927 347.814L537.533 346.005L538.139 345.17L538.746 348.997L539.352 340.926L539.958 342.248L540.565 351.362L541.171 339.952L541.778 333.551L542.384 345.727L542.99 342.457L543.597 334.943L544.203 343.431L544.81 349.553L545.416 330.977L546.022 335.499L546.629 337.865L547.235 341.135L547.841 346.075L548.448 340.578L549.054 350.875L549.661 340.578L550.267 346.005L550.873 342.457L551.48 350.458L552.086 348.44L552.693 353.519L553.299 355.607L553.905 348.162L554.512 344.266L555.118 352.893L555.725 346.492L556.331 347.327L556.937 354.563L557.544 349.414L558.15 339.465L558.756 344.405L559.363 346.144L559.969 345.031L560.576 350.041L561.182 356.65L561.788 347.745L562.395 349.066L563.001 349.484L563.608 349.901L564.214 347.466L564.82 351.78L565.427 356.928L566.033 357.346L566.64 355.05L567.246 352.476L567.852 350.945L568.459 355.746L569.065 354.911L569.671 355.885L570.278 360.338L570.884 356.928L571.491 351.293L572.097 351.362L572.703 349.693L573.31 350.041L573.916 352.476L574.523 353.658L575.129 343.64L575.735 343.709L576.342 341.692L576.948 343.431L577.554 343.779L578.161 345.936L578.767 354.98L579.374 340.787L579.98 343.083L580.586 336.96L581.193 339.674L581.799 339.117L582.406 341.831L583.012 348.788L583.618 334.943L584.225 336.613L584.831 343.361L585.437 339.396L586.044 349.832L586.65 351.78L587.257 355.954L587.863 341.9L588.469 344.822L589.076 342.874L589.682 341.622L590.289 338.213L590.895 347.466L591.501 354.841L592.108 332.647L592.714 336.195L593.321 338.63L593.927 338.074L594.533 354.076L595.14 348.162L595.746 359.572L596.352 342.387L596.959 353.45L597.565 354.632H598.172L598.778 334.873L599.384 345.031L599.991 348.927L600.597 330.56L601.204 340.23L601.81 340.578L602.416 344.822L603.023 344.892L603.629 352.893L604.236 352.058L604.842 338.839L605.448 342.596L606.055 336.473L606.661 348.371L607.267 342.526L607.874 351.641L608.48 356.859L609.087 337.795L609.693 343.709L610.299 350.18L610.906 350.458L611.512 351.015L612.119 356.928L612.725 360.407L613.331 348.997L613.938 349.066L614.544 352.476L615.15 357.694L615.757 357.137L616.363 364.373L616.97 362.216L617.576 357.068L618.182 359.642L618.789 358.529L619.395 361.52L620.002 361.381L620.608 362.981L621.214 364.721L621.821 359.781L622.427 361.66L623.033 360.616L623.64 362.077L624.246 362.564L624.853 363.121L625.459 367.643L626.065 360.616L626.672 363.469L627.278 362.773L627.885 362.981L628.491 361.59L629.097 364.721L629.704 364.651L630.31 353.589L630.917 351.989L631.523 354.285L632.129 352.893L632.736 352.406L633.342 349.066L633.948 356.302L634.555 334.734L635.161 333.76L635.768 331.047L636.374 329.098L636.98 325.202L637.587 323.324L638.193 339.535L638.8 292.363L639.406 291.598L640.012 293.059L640.619 297.372L641.225 293.476L641.832 294.45L642.438 324.854L643.044 316.227L643.651 234.824L644.257 230.719L644.863 258.341L645.47 258.758L646.076 257.297L646.683 303.286L647.289 220.77L647.895 236.703L648.502 239.277L649.108 248.461L649.715 244.078L650.321 243.73L650.927 293.963L651.534 223.136L652.14 201.15L652.747 234.824L653.353 231.902L653.959 232.946L654.566 241.712L655.172 298.485L655.778 208.247L656.385 204.003L656.991 220.701L657.598 263.768L658.204 217.918L658.81 232.737L659.417 262.446L660.023 236.633L660.63 159.196L661.236 161.423L661.842 192.384L662.449 194.193L663.055 212.352L663.661 281.927L664.268 185.913L664.874 171.929L665.481 216.944L666.087 241.712L666.693 243.73L667.3 265.368L667.906 304.608L668.513 237.468L669.119 263.072L669.725 273.578L670.332 284.71L670.938 283.944L671.544 295.772L672.151 318.314L672.757 256.532L673.364 281.509L673.97 295.563L674.576 298.207L675.183 301.686L675.789 320.68L676.396 338.143L677.002 304.469L677.608 316.158L678.215 325.063L678.821 330.977L679.428 327.429L680.034 336.056L680.64 346.144L681.247 349.345L681.853 305.165L682.459 331.464L683.066 333.412L683.672 350.528L684.279 338.561L684.885 347.675L685.491 357.485L686.098 339.883L686.704 347.953L687.311 352.615L687.917 349.832L688.523 348.927L689.13 357.346L689.736 351.362L690.343 348.232L690.949 349.971L691.555 352.128L692.162 355.537L692.768 357.068L693.374 361.242L693.981 362.355L694.587 346.075L695.194 344.127L695.8 349.762" stroke="#4285F4" stroke-width="2" stroke-miterlimit="10"/>
<path d="M379.922 418.8V410.206H382.891C383.557 410.206 384.068 410.248 384.422 410.331C384.911 410.446 385.328 410.649 385.672 410.94C386.13 411.326 386.469 411.821 386.688 412.425C386.917 413.019 387.031 413.696 387.031 414.456C387.031 415.112 386.953 415.69 386.797 416.19C386.651 416.69 386.458 417.107 386.219 417.44C385.979 417.774 385.714 418.034 385.422 418.222C385.141 418.409 384.802 418.555 384.406 418.659C384.01 418.753 383.552 418.8 383.031 418.8H379.922ZM381.062 417.784H382.891C383.464 417.784 383.911 417.732 384.234 417.628C384.557 417.524 384.812 417.373 385 417.175C385.271 416.914 385.479 416.555 385.625 416.097C385.781 415.638 385.859 415.086 385.859 414.44C385.859 413.545 385.708 412.857 385.406 412.378C385.115 411.888 384.76 411.56 384.344 411.394C384.031 411.279 383.542 411.222 382.875 411.222H381.062V417.784ZM392.859 418.034C392.464 418.368 392.083 418.602 391.719 418.737C391.365 418.873 390.979 418.94 390.562 418.94C389.875 418.94 389.349 418.774 388.984 418.44C388.62 418.107 388.438 417.68 388.438 417.159C388.438 416.857 388.505 416.581 388.641 416.331C388.776 416.071 388.958 415.868 389.188 415.722C389.417 415.565 389.672 415.451 389.953 415.378C390.151 415.315 390.464 415.258 390.891 415.206C391.734 415.112 392.359 414.993 392.766 414.847C392.766 414.701 392.766 414.612 392.766 414.581C392.766 414.144 392.667 413.836 392.469 413.659C392.198 413.43 391.797 413.315 391.266 413.315C390.776 413.315 390.411 413.404 390.172 413.581C389.932 413.748 389.755 414.05 389.641 414.487L388.609 414.347C388.703 413.909 388.859 413.555 389.078 413.284C389.297 413.013 389.609 412.805 390.016 412.659C390.422 412.513 390.891 412.44 391.422 412.44C391.953 412.44 392.385 412.503 392.719 412.628C393.052 412.753 393.297 412.909 393.453 413.097C393.609 413.284 393.719 413.524 393.781 413.815C393.812 413.993 393.828 414.315 393.828 414.784V416.19C393.828 417.17 393.849 417.789 393.891 418.05C393.943 418.31 394.036 418.56 394.172 418.8H393.062C392.958 418.581 392.891 418.326 392.859 418.034ZM392.766 415.675C392.38 415.831 391.807 415.966 391.047 416.081C390.609 416.144 390.302 416.216 390.125 416.3C389.948 416.373 389.807 416.482 389.703 416.628C389.609 416.774 389.562 416.94 389.562 417.128C389.562 417.409 389.667 417.644 389.875 417.831C390.094 418.019 390.406 418.112 390.812 418.112C391.219 418.112 391.578 418.024 391.891 417.847C392.214 417.67 392.448 417.425 392.594 417.112C392.708 416.873 392.766 416.524 392.766 416.065V415.675ZM398.094 417.862L398.25 418.784C397.948 418.847 397.682 418.878 397.453 418.878C397.068 418.878 396.771 418.821 396.562 418.706C396.354 418.581 396.203 418.42 396.109 418.222C396.026 418.024 395.984 417.607 395.984 416.972V413.394H395.219V412.581H395.984V411.034L397.031 410.409V412.581H398.094V413.394H397.031V417.034C397.031 417.336 397.047 417.529 397.078 417.612C397.12 417.696 397.182 417.763 397.266 417.815C397.349 417.868 397.469 417.894 397.625 417.894C397.75 417.894 397.906 417.883 398.094 417.862ZM403.047 416.8L404.141 416.925C403.974 417.56 403.656 418.055 403.188 418.409C402.719 418.763 402.125 418.94 401.406 418.94C400.5 418.94 399.776 418.659 399.234 418.097C398.703 417.534 398.438 416.748 398.438 415.737C398.438 414.696 398.708 413.888 399.25 413.315C399.792 412.732 400.49 412.44 401.344 412.44C402.177 412.44 402.854 412.722 403.375 413.284C403.906 413.847 404.172 414.644 404.172 415.675C404.172 415.737 404.172 415.831 404.172 415.956H399.531C399.573 416.644 399.766 417.17 400.109 417.534C400.453 417.888 400.885 418.065 401.406 418.065C401.792 418.065 402.12 417.966 402.391 417.769C402.672 417.56 402.891 417.237 403.047 416.8ZM399.594 415.097H403.062C403.021 414.565 402.891 414.17 402.672 413.909C402.328 413.503 401.891 413.3 401.359 413.3C400.87 413.3 400.458 413.461 400.125 413.784C399.802 414.107 399.625 414.545 399.594 415.097Z" fill="black"/>
<path d="M29.0125 247.572C27.5854 247.572 26.4708 247.192 25.6687 246.432C24.8562 245.661 24.45 244.671 24.45 243.463C24.45 242.661 24.6427 241.942 25.0281 241.307C25.4031 240.671 25.9291 240.187 26.6062 239.854C27.2833 239.52 28.0541 239.354 28.9187 239.354C29.7833 239.354 30.5594 239.531 31.2469 239.885C31.9344 240.239 32.4552 240.739 32.8094 241.385C33.1635 242.02 33.3406 242.713 33.3406 243.463C33.3406 244.275 33.1479 244.999 32.7625 245.635C32.3667 246.27 31.8354 246.755 31.1687 247.088C30.4916 247.411 29.7729 247.572 29.0125 247.572ZM29.0281 246.4C30.0698 246.4 30.8875 246.124 31.4812 245.572C32.075 245.01 32.3719 244.307 32.3719 243.463C32.3719 242.609 32.075 241.906 31.4812 241.354C30.8771 240.801 30.0177 240.525 28.9031 240.525C28.2052 240.525 27.5958 240.645 27.075 240.885C26.5541 241.114 26.1531 241.458 25.8719 241.916C25.5802 242.374 25.4344 242.885 25.4344 243.447C25.4344 244.249 25.7104 244.942 26.2625 245.525C26.8146 246.109 27.7364 246.4 29.0281 246.4ZM25.825 238.354H24.6062V237.291H25.825V238.354ZM33.2 238.354H26.9812V237.291H33.2V238.354ZM32.2625 233.057L33.1844 232.9C33.2469 233.202 33.2781 233.468 33.2781 233.697C33.2781 234.083 33.2208 234.38 33.1062 234.588C32.9812 234.796 32.8198 234.947 32.6219 235.041C32.4239 235.124 32.0073 235.166 31.3719 235.166H27.7937V235.932H26.9812V235.166H25.4344L24.8094 234.119H26.9812V233.057H27.7937V234.119H31.4344C31.7364 234.119 31.9291 234.104 32.0125 234.072C32.0958 234.031 32.1635 233.968 32.2156 233.885C32.2677 233.801 32.2937 233.682 32.2937 233.525C32.2937 233.4 32.2833 233.244 32.2625 233.057ZM32.4344 228.291C32.7677 228.687 33.0021 229.067 33.1375 229.432C33.2729 229.786 33.3406 230.171 33.3406 230.588C33.3406 231.275 33.1739 231.801 32.8406 232.166C32.5073 232.531 32.0802 232.713 31.5594 232.713C31.2573 232.713 30.9812 232.645 30.7312 232.51C30.4708 232.374 30.2677 232.192 30.1219 231.963C29.9656 231.734 29.851 231.479 29.7781 231.197C29.7156 230.999 29.6583 230.687 29.6062 230.26C29.5125 229.416 29.3927 228.791 29.2469 228.385C29.101 228.385 29.0125 228.385 28.9812 228.385C28.5437 228.385 28.2364 228.484 28.0594 228.682C27.8302 228.952 27.7156 229.354 27.7156 229.885C27.7156 230.374 27.8041 230.739 27.9812 230.979C28.1479 231.218 28.45 231.395 28.8875 231.51L28.7469 232.541C28.3094 232.447 27.9552 232.291 27.6844 232.072C27.4135 231.854 27.2052 231.541 27.0594 231.135C26.9135 230.729 26.8406 230.26 26.8406 229.729C26.8406 229.197 26.9031 228.765 27.0281 228.432C27.1531 228.098 27.3094 227.854 27.4969 227.697C27.6844 227.541 27.9239 227.432 28.2156 227.369C28.3927 227.338 28.7156 227.322 29.1844 227.322H30.5906C31.5698 227.322 32.1896 227.301 32.45 227.26C32.7104 227.208 32.9604 227.114 33.2 226.979V228.088C32.9812 228.192 32.726 228.26 32.4344 228.291ZM30.075 228.385C30.2312 228.77 30.3666 229.343 30.4812 230.104C30.5437 230.541 30.6166 230.848 30.7 231.025C30.7729 231.202 30.8823 231.343 31.0281 231.447C31.1739 231.541 31.3406 231.588 31.5281 231.588C31.8094 231.588 32.0437 231.484 32.2312 231.275C32.4187 231.057 32.5125 230.744 32.5125 230.338C32.5125 229.932 32.4239 229.572 32.2469 229.26C32.0698 228.937 31.825 228.702 31.5125 228.557C31.2729 228.442 30.9239 228.385 30.4656 228.385H30.075Z" fill="black"/>
<path d="M75.7 369.565C75.7 368.545 75.8042 367.727 76.0125 367.112C76.2208 366.487 76.5281 366.008 76.9344 365.675C77.3511 365.341 77.8719 365.175 78.4969 365.175C78.9552 365.175 79.3563 365.269 79.7 365.456C80.0542 365.644 80.3458 365.914 80.575 366.269C80.8042 366.612 80.9813 367.034 81.1063 367.534C81.2313 368.034 81.2938 368.711 81.2938 369.565C81.2938 370.576 81.1896 371.388 80.9813 372.003C80.7833 372.618 80.4761 373.097 80.0594 373.44C79.6531 373.774 79.1323 373.94 78.4969 373.94C77.674 373.94 77.0229 373.644 76.5438 373.05C75.9813 372.341 75.7 371.18 75.7 369.565ZM76.7781 369.565C76.7781 370.972 76.9448 371.909 77.2781 372.378C77.6115 372.847 78.0177 373.081 78.4969 373.081C78.9865 373.081 79.3927 372.847 79.7156 372.378C80.049 371.909 80.2156 370.972 80.2156 369.565C80.2156 368.149 80.049 367.211 79.7156 366.753C79.3927 366.284 78.9813 366.05 78.4813 366.05C78.0021 366.05 77.6167 366.253 77.325 366.659C76.9604 367.18 76.7781 368.149 76.7781 369.565Z" fill="black"/>
<path d="M58.6688 304.225H57.6219V297.506C57.3615 297.746 57.0229 297.991 56.6063 298.241C56.2 298.48 55.8354 298.657 55.5125 298.772V297.756C56.0958 297.475 56.6063 297.142 57.0438 296.756C57.4917 296.361 57.8094 295.975 57.9969 295.6H58.6688V304.225ZM61.7 299.991C61.7 298.97 61.8042 298.152 62.0125 297.538C62.2208 296.913 62.5281 296.433 62.9344 296.1C63.3511 295.767 63.8719 295.6 64.4969 295.6C64.9552 295.6 65.3563 295.694 65.7 295.881C66.0542 296.069 66.3458 296.34 66.575 296.694C66.8042 297.038 66.9813 297.459 67.1063 297.959C67.2313 298.459 67.2938 299.137 67.2938 299.991C67.2938 301.001 67.1896 301.814 66.9813 302.428C66.7833 303.043 66.4761 303.522 66.0594 303.866C65.6531 304.199 65.1323 304.366 64.4969 304.366C63.674 304.366 63.0229 304.069 62.5438 303.475C61.9813 302.767 61.7 301.605 61.7 299.991ZM62.7781 299.991C62.7781 301.397 62.9448 302.334 63.2781 302.803C63.6115 303.272 64.0177 303.506 64.4969 303.506C64.9865 303.506 65.3927 303.272 65.7156 302.803C66.049 302.334 66.2156 301.397 66.2156 299.991C66.2156 298.574 66.049 297.637 65.7156 297.178C65.3927 296.709 64.9813 296.475 64.4813 296.475C64.0021 296.475 63.6167 296.678 63.325 297.084C62.9604 297.605 62.7781 298.574 62.7781 299.991ZM68.7 299.991C68.7 298.97 68.8042 298.152 69.0125 297.538C69.2208 296.913 69.5281 296.433 69.9344 296.1C70.3511 295.767 70.8719 295.6 71.4969 295.6C71.9552 295.6 72.3563 295.694 72.7 295.881C73.0542 296.069 73.3458 296.34 73.575 296.694C73.8042 297.038 73.9813 297.459 74.1063 297.959C74.2313 298.459 74.2938 299.137 74.2938 299.991C74.2938 301.001 74.1896 301.814 73.9813 302.428C73.7833 303.043 73.4761 303.522 73.0594 303.866C72.6531 304.199 72.1323 304.366 71.4969 304.366C70.674 304.366 70.0229 304.069 69.5438 303.475C68.9813 302.767 68.7 301.605 68.7 299.991ZM69.7781 299.991C69.7781 301.397 69.9448 302.334 70.2781 302.803C70.6115 303.272 71.0177 303.506 71.4969 303.506C71.9865 303.506 72.3927 303.272 72.7156 302.803C73.049 302.334 73.2156 301.397 73.2156 299.991C73.2156 298.574 73.049 297.637 72.7156 297.178C72.3927 296.709 71.9813 296.475 71.4813 296.475C71.0021 296.475 70.6167 296.678 70.325 297.084C69.9604 297.605 69.7781 298.574 69.7781 299.991ZM75.7 299.991C75.7 298.97 75.8042 298.152 76.0125 297.538C76.2208 296.913 76.5281 296.433 76.9344 296.1C77.3511 295.767 77.8719 295.6 78.4969 295.6C78.9552 295.6 79.3563 295.694 79.7 295.881C80.0542 296.069 80.3458 296.34 80.575 296.694C80.8042 297.038 80.9813 297.459 81.1063 297.959C81.2313 298.459 81.2938 299.137 81.2938 299.991C81.2938 301.001 81.1896 301.814 80.9813 302.428C80.7833 303.043 80.4761 303.522 80.0594 303.866C79.6531 304.199 79.1323 304.366 78.4969 304.366C77.674 304.366 77.0229 304.069 76.5438 303.475C75.9813 302.767 75.7 301.605 75.7 299.991ZM76.7781 299.991C76.7781 301.397 76.9448 302.334 77.2781 302.803C77.6115 303.272 78.0177 303.506 78.4969 303.506C78.9865 303.506 79.3927 303.272 79.7156 302.803C80.049 302.334 80.2156 301.397 80.2156 299.991C80.2156 298.574 80.049 297.637 79.7156 297.178C79.3927 296.709 78.9813 296.475 78.4813 296.475C78.0021 296.475 77.6167 296.678 77.325 297.084C76.9604 297.605 76.7781 298.574 76.7781 299.991Z" fill="black"/>
<path d="M60.2469 233.635V234.65H54.5594C54.5594 234.4 54.6011 234.156 54.6844 233.916C54.8302 233.531 55.0594 233.15 55.3719 232.775C55.6948 232.4 56.1583 231.968 56.7625 231.479C57.7 230.708 58.3302 230.098 58.6531 229.65C58.9865 229.202 59.1531 228.781 59.1531 228.385C59.1531 227.968 59.0021 227.619 58.7 227.338C58.3979 227.046 58.0073 226.9 57.5281 226.9C57.0177 226.9 56.6115 227.051 56.3094 227.354C56.0073 227.656 55.8511 228.077 55.8406 228.619L54.7625 228.51C54.8354 227.697 55.1115 227.083 55.5906 226.666C56.0802 226.239 56.7365 226.025 57.5594 226.025C58.3823 226.025 59.0333 226.255 59.5125 226.713C59.9917 227.171 60.2313 227.739 60.2313 228.416C60.2313 228.76 60.1583 229.098 60.0125 229.432C59.8771 229.755 59.6427 230.104 59.3094 230.479C58.9865 230.843 58.45 231.343 57.7 231.979C57.0646 232.51 56.6531 232.874 56.4656 233.072C56.2886 233.26 56.1427 233.447 56.0281 233.635H60.2469ZM61.7 230.416C61.7 229.395 61.8042 228.577 62.0125 227.963C62.2208 227.338 62.5281 226.859 62.9344 226.525C63.3511 226.192 63.8719 226.025 64.4969 226.025C64.9552 226.025 65.3563 226.119 65.7 226.307C66.0542 226.494 66.3458 226.765 66.575 227.119C66.8042 227.463 66.9813 227.885 67.1063 228.385C67.2313 228.885 67.2938 229.562 67.2938 230.416C67.2938 231.426 67.1896 232.239 66.9813 232.854C66.7833 233.468 66.4761 233.947 66.0594 234.291C65.6531 234.624 65.1323 234.791 64.4969 234.791C63.674 234.791 63.0229 234.494 62.5438 233.9C61.9813 233.192 61.7 232.031 61.7 230.416ZM62.7781 230.416C62.7781 231.822 62.9448 232.76 63.2781 233.229C63.6115 233.697 64.0177 233.932 64.4969 233.932C64.9865 233.932 65.3927 233.697 65.7156 233.229C66.049 232.76 66.2156 231.822 66.2156 230.416C66.2156 228.999 66.049 228.062 65.7156 227.604C65.3927 227.135 64.9813 226.9 64.4813 226.9C64.0021 226.9 63.6167 227.104 63.325 227.51C62.9604 228.031 62.7781 228.999 62.7781 230.416ZM68.7 230.416C68.7 229.395 68.8042 228.577 69.0125 227.963C69.2208 227.338 69.5281 226.859 69.9344 226.525C70.3511 226.192 70.8719 226.025 71.4969 226.025C71.9552 226.025 72.3563 226.119 72.7 226.307C73.0542 226.494 73.3458 226.765 73.575 227.119C73.8042 227.463 73.9813 227.885 74.1063 228.385C74.2313 228.885 74.2938 229.562 74.2938 230.416C74.2938 231.426 74.1896 232.239 73.9813 232.854C73.7833 233.468 73.4761 233.947 73.0594 234.291C72.6531 234.624 72.1323 234.791 71.4969 234.791C70.674 234.791 70.0229 234.494 69.5438 233.9C68.9813 233.192 68.7 232.031 68.7 230.416ZM69.7781 230.416C69.7781 231.822 69.9448 232.76 70.2781 233.229C70.6115 233.697 71.0177 233.932 71.4969 233.932C71.9865 233.932 72.3927 233.697 72.7156 233.229C73.049 232.76 73.2156 231.822 73.2156 230.416C73.2156 228.999 73.049 228.062 72.7156 227.604C72.3927 227.135 71.9813 226.9 71.4813 226.9C71.0021 226.9 70.6167 227.104 70.325 227.51C69.9604 228.031 69.7781 228.999 69.7781 230.416ZM75.7 230.416C75.7 229.395 75.8042 228.577 76.0125 227.963C76.2208 227.338 76.5281 226.859 76.9344 226.525C77.3511 226.192 77.8719 226.025 78.4969 226.025C78.9552 226.025 79.3563 226.119 79.7 226.307C80.0542 226.494 80.3458 226.765 80.575 227.119C80.8042 227.463 80.9813 227.885 81.1063 228.385C81.2313 228.885 81.2938 229.562 81.2938 230.416C81.2938 231.426 81.1896 232.239 80.9813 232.854C80.7833 233.468 80.4761 233.947 80.0594 234.291C79.6531 234.624 79.1323 234.791 78.4969 234.791C77.674 234.791 77.0229 234.494 76.5438 233.9C75.9813 233.192 75.7 232.031 75.7 230.416ZM76.7781 230.416C76.7781 231.822 76.9448 232.76 77.2781 233.229C77.6115 233.697 78.0177 233.932 78.4969 233.932C78.9865 233.932 79.3927 233.697 79.7156 233.229C80.049 232.76 80.2156 231.822 80.2156 230.416C80.2156 228.999 80.049 228.062 79.7156 227.604C79.3927 227.135 78.9813 226.9 78.4813 226.9C78.0021 226.9 77.6167 227.104 77.325 227.51C76.9604 228.031 76.7781 228.999 76.7781 230.416Z" fill="black"/>
<path d="M54.7 162.81L55.7625 162.669C55.8771 163.263 56.0802 163.695 56.3719 163.966C56.6636 164.226 57.0177 164.356 57.4344 164.356C57.9344 164.356 58.3563 164.185 58.7 163.841C59.0438 163.497 59.2156 163.07 59.2156 162.56C59.2156 162.08 59.0542 161.685 58.7313 161.372C58.4188 161.049 58.0177 160.888 57.5281 160.888C57.3302 160.888 57.0802 160.929 56.7781 161.013L56.9031 160.075C56.9761 160.086 57.0333 160.091 57.075 160.091C57.5229 160.091 57.924 159.976 58.2781 159.747C58.6427 159.507 58.825 159.143 58.825 158.653C58.825 158.268 58.6948 157.95 58.4344 157.7C58.174 157.44 57.8354 157.31 57.4188 157.31C57.0125 157.31 56.6688 157.44 56.3875 157.7C56.1167 157.961 55.9448 158.346 55.8719 158.856L54.8094 158.669C54.9344 157.971 55.2261 157.429 55.6844 157.044C56.1427 156.648 56.7104 156.45 57.3875 156.45C57.8563 156.45 58.2886 156.554 58.6844 156.763C59.0802 156.961 59.3823 157.231 59.5906 157.575C59.799 157.919 59.9031 158.289 59.9031 158.685C59.9031 159.049 59.8042 159.388 59.6063 159.7C59.4083 160.002 59.1167 160.242 58.7313 160.419C59.2313 160.534 59.6219 160.778 59.9031 161.153C60.1844 161.518 60.325 161.981 60.325 162.544C60.325 163.294 60.049 163.929 59.4969 164.45C58.9552 164.971 58.2677 165.231 57.4344 165.231C56.6844 165.231 56.0594 165.007 55.5594 164.56C55.0594 164.101 54.7729 163.518 54.7 162.81ZM61.7 160.841C61.7 159.82 61.8042 159.002 62.0125 158.388C62.2208 157.763 62.5281 157.284 62.9344 156.95C63.3511 156.617 63.8719 156.45 64.4969 156.45C64.9552 156.45 65.3563 156.544 65.7 156.731C66.0542 156.919 66.3458 157.19 66.575 157.544C66.8042 157.888 66.9813 158.31 67.1063 158.81C67.2313 159.31 67.2938 159.987 67.2938 160.841C67.2938 161.851 67.1896 162.664 66.9813 163.278C66.7833 163.893 66.4761 164.372 66.0594 164.716C65.6531 165.049 65.1323 165.216 64.4969 165.216C63.674 165.216 63.0229 164.919 62.5438 164.325C61.9813 163.617 61.7 162.455 61.7 160.841ZM62.7781 160.841C62.7781 162.247 62.9448 163.185 63.2781 163.653C63.6115 164.122 64.0177 164.356 64.4969 164.356C64.9865 164.356 65.3927 164.122 65.7156 163.653C66.049 163.185 66.2156 162.247 66.2156 160.841C66.2156 159.424 66.049 158.487 65.7156 158.028C65.3927 157.56 64.9813 157.325 64.4813 157.325C64.0021 157.325 63.6167 157.528 63.325 157.935C62.9604 158.455 62.7781 159.424 62.7781 160.841ZM68.7 160.841C68.7 159.82 68.8042 159.002 69.0125 158.388C69.2208 157.763 69.5281 157.284 69.9344 156.95C70.3511 156.617 70.8719 156.45 71.4969 156.45C71.9552 156.45 72.3563 156.544 72.7 156.731C73.0542 156.919 73.3458 157.19 73.575 157.544C73.8042 157.888 73.9813 158.31 74.1063 158.81C74.2313 159.31 74.2938 159.987 74.2938 160.841C74.2938 161.851 74.1896 162.664 73.9813 163.278C73.7833 163.893 73.4761 164.372 73.0594 164.716C72.6531 165.049 72.1323 165.216 71.4969 165.216C70.674 165.216 70.0229 164.919 69.5438 164.325C68.9813 163.617 68.7 162.455 68.7 160.841ZM69.7781 160.841C69.7781 162.247 69.9448 163.185 70.2781 163.653C70.6115 164.122 71.0177 164.356 71.4969 164.356C71.9865 164.356 72.3927 164.122 72.7156 163.653C73.049 163.185 73.2156 162.247 73.2156 160.841C73.2156 159.424 73.049 158.487 72.7156 158.028C72.3927 157.56 71.9813 157.325 71.4813 157.325C71.0021 157.325 70.6167 157.528 70.325 157.935C69.9604 158.455 69.7781 159.424 69.7781 160.841ZM75.7 160.841C75.7 159.82 75.8042 159.002 76.0125 158.388C76.2208 157.763 76.5281 157.284 76.9344 156.95C77.3511 156.617 77.8719 156.45 78.4969 156.45C78.9552 156.45 79.3563 156.544 79.7 156.731C80.0542 156.919 80.3458 157.19 80.575 157.544C80.8042 157.888 80.9813 158.31 81.1063 158.81C81.2313 159.31 81.2938 159.987 81.2938 160.841C81.2938 161.851 81.1896 162.664 80.9813 163.278C80.7833 163.893 80.4761 164.372 80.0594 164.716C79.6531 165.049 79.1323 165.216 78.4969 165.216C77.674 165.216 77.0229 164.919 76.5438 164.325C75.9813 163.617 75.7 162.455 75.7 160.841ZM76.7781 160.841C76.7781 162.247 76.9448 163.185 77.2781 163.653C77.6115 164.122 78.0177 164.356 78.4969 164.356C78.9865 164.356 79.3927 164.122 79.7156 163.653C80.049 163.185 80.2156 162.247 80.2156 160.841C80.2156 159.424 80.049 158.487 79.7156 158.028C79.3927 157.56 78.9813 157.325 78.4813 157.325C78.0021 157.325 77.6167 157.528 77.325 157.935C76.9604 158.455 76.7781 159.424 76.7781 160.841Z" fill="black"/>
<path d="M58.075 95.5V93.4375H54.3563V92.4688L58.2781 86.9062H59.1375V92.4688H60.2938V93.4375H59.1375V95.5H58.075ZM58.075 92.4688V88.6094L55.3875 92.4688H58.075ZM61.7 91.2656C61.7 90.2448 61.8042 89.4271 62.0125 88.8125C62.2208 88.1875 62.5281 87.7083 62.9344 87.375C63.3511 87.0417 63.8719 86.875 64.4969 86.875C64.9552 86.875 65.3563 86.9688 65.7 87.1562C66.0542 87.3438 66.3458 87.6146 66.575 87.9688C66.8042 88.3125 66.9813 88.7344 67.1063 89.2344C67.2313 89.7344 67.2938 90.4115 67.2938 91.2656C67.2938 92.276 67.1896 93.0885 66.9813 93.7031C66.7833 94.3177 66.4761 94.7969 66.0594 95.1406C65.6531 95.474 65.1323 95.6406 64.4969 95.6406C63.674 95.6406 63.0229 95.3438 62.5438 94.75C61.9813 94.0417 61.7 92.8802 61.7 91.2656ZM62.7781 91.2656C62.7781 92.6719 62.9448 93.6094 63.2781 94.0781C63.6115 94.5469 64.0177 94.7812 64.4969 94.7812C64.9865 94.7812 65.3927 94.5469 65.7156 94.0781C66.049 93.6094 66.2156 92.6719 66.2156 91.2656C66.2156 89.849 66.049 88.9115 65.7156 88.4531C65.3927 87.9844 64.9813 87.75 64.4813 87.75C64.0021 87.75 63.6167 87.9531 63.325 88.3594C62.9604 88.8802 62.7781 89.849 62.7781 91.2656ZM68.7 91.2656C68.7 90.2448 68.8042 89.4271 69.0125 88.8125C69.2208 88.1875 69.5281 87.7083 69.9344 87.375C70.3511 87.0417 70.8719 86.875 71.4969 86.875C71.9552 86.875 72.3563 86.9688 72.7 87.1562C73.0542 87.3438 73.3458 87.6146 73.575 87.9688C73.8042 88.3125 73.9813 88.7344 74.1063 89.2344C74.2313 89.7344 74.2938 90.4115 74.2938 91.2656C74.2938 92.276 74.1896 93.0885 73.9813 93.7031C73.7833 94.3177 73.4761 94.7969 73.0594 95.1406C72.6531 95.474 72.1323 95.6406 71.4969 95.6406C70.674 95.6406 70.0229 95.3438 69.5438 94.75C68.9813 94.0417 68.7 92.8802 68.7 91.2656ZM69.7781 91.2656C69.7781 92.6719 69.9448 93.6094 70.2781 94.0781C70.6115 94.5469 71.0177 94.7812 71.4969 94.7812C71.9865 94.7812 72.3927 94.5469 72.7156 94.0781C73.049 93.6094 73.2156 92.6719 73.2156 91.2656C73.2156 89.849 73.049 88.9115 72.7156 88.4531C72.3927 87.9844 71.9813 87.75 71.4813 87.75C71.0021 87.75 70.6167 87.9531 70.325 88.3594C69.9604 88.8802 69.7781 89.849 69.7781 91.2656ZM75.7 91.2656C75.7 90.2448 75.8042 89.4271 76.0125 88.8125C76.2208 88.1875 76.5281 87.7083 76.9344 87.375C77.3511 87.0417 77.8719 86.875 78.4969 86.875C78.9552 86.875 79.3563 86.9688 79.7 87.1562C80.0542 87.3438 80.3458 87.6146 80.575 87.9688C80.8042 88.3125 80.9813 88.7344 81.1063 89.2344C81.2313 89.7344 81.2938 90.4115 81.2938 91.2656C81.2938 92.276 81.1896 93.0885 80.9813 93.7031C80.7833 94.3177 80.4761 94.7969 80.0594 95.1406C79.6531 95.474 79.1323 95.6406 78.4969 95.6406C77.674 95.6406 77.0229 95.3438 76.5438 94.75C75.9813 94.0417 75.7 92.8802 75.7 91.2656ZM76.7781 91.2656C76.7781 92.6719 76.9448 93.6094 77.2781 94.0781C77.6115 94.5469 78.0177 94.7812 78.4969 94.7812C78.9865 94.7812 79.3927 94.5469 79.7156 94.0781C80.049 93.6094 80.2156 92.6719 80.2156 91.2656C80.2156 89.849 80.049 88.9115 79.7156 88.4531C79.3927 87.9844 78.9813 87.75 78.4813 87.75C78.0021 87.75 77.6167 87.9531 77.325 88.3594C76.9604 88.8802 76.7781 89.849 76.7781 91.2656Z" fill="black"/>
<path d="M167.959 386.8V384.737H164.24V383.769L168.162 378.206H169.021V383.769H170.177V384.737H169.021V386.8H167.959ZM167.959 383.769V379.909L165.271 383.769H167.959ZM174.959 386.8V384.737H171.24V383.769L175.162 378.206H176.021V383.769H177.177V384.737H176.021V386.8H174.959ZM174.959 383.769V379.909L172.271 383.769H174.959ZM178.584 382.565C178.584 381.545 178.688 380.727 178.896 380.112C179.104 379.487 179.412 379.008 179.818 378.675C180.235 378.341 180.756 378.175 181.381 378.175C181.839 378.175 182.24 378.269 182.584 378.456C182.938 378.644 183.229 378.914 183.459 379.269C183.688 379.612 183.865 380.034 183.99 380.534C184.115 381.034 184.177 381.711 184.177 382.565C184.177 383.576 184.073 384.388 183.865 385.003C183.667 385.618 183.36 386.097 182.943 386.44C182.537 386.774 182.016 386.94 181.381 386.94C180.558 386.94 179.907 386.644 179.427 386.05C178.865 385.341 178.584 384.18 178.584 382.565ZM179.662 382.565C179.662 383.972 179.828 384.909 180.162 385.378C180.495 385.847 180.901 386.081 181.381 386.081C181.87 386.081 182.276 385.847 182.599 385.378C182.933 384.909 183.099 383.972 183.099 382.565C183.099 381.149 182.933 380.211 182.599 379.753C182.276 379.284 181.865 379.05 181.365 379.05C180.886 379.05 180.5 379.253 180.209 379.659C179.844 380.18 179.662 381.149 179.662 382.565ZM185.584 382.565C185.584 381.545 185.688 380.727 185.896 380.112C186.104 379.487 186.412 379.008 186.818 378.675C187.235 378.341 187.756 378.175 188.381 378.175C188.839 378.175 189.24 378.269 189.584 378.456C189.938 378.644 190.229 378.914 190.459 379.269C190.688 379.612 190.865 380.034 190.99 380.534C191.115 381.034 191.177 381.711 191.177 382.565C191.177 383.576 191.073 384.388 190.865 385.003C190.667 385.618 190.36 386.097 189.943 386.44C189.537 386.774 189.016 386.94 188.381 386.94C187.558 386.94 186.907 386.644 186.427 386.05C185.865 385.341 185.584 384.18 185.584 382.565ZM186.662 382.565C186.662 383.972 186.828 384.909 187.162 385.378C187.495 385.847 187.901 386.081 188.381 386.081C188.87 386.081 189.276 385.847 189.599 385.378C189.933 384.909 190.099 383.972 190.099 382.565C190.099 381.149 189.933 380.211 189.599 379.753C189.276 379.284 188.865 379.05 188.365 379.05C187.886 379.05 187.5 379.253 187.209 379.659C186.844 380.18 186.662 381.149 186.662 382.565ZM192.584 382.565C192.584 381.545 192.688 380.727 192.896 380.112C193.104 379.487 193.412 379.008 193.818 378.675C194.235 378.341 194.756 378.175 195.381 378.175C195.839 378.175 196.24 378.269 196.584 378.456C196.938 378.644 197.229 378.914 197.459 379.269C197.688 379.612 197.865 380.034 197.99 380.534C198.115 381.034 198.177 381.711 198.177 382.565C198.177 383.576 198.073 384.388 197.865 385.003C197.667 385.618 197.36 386.097 196.943 386.44C196.537 386.774 196.016 386.94 195.381 386.94C194.558 386.94 193.907 386.644 193.427 386.05C192.865 385.341 192.584 384.18 192.584 382.565ZM193.662 382.565C193.662 383.972 193.828 384.909 194.162 385.378C194.495 385.847 194.901 386.081 195.381 386.081C195.87 386.081 196.276 385.847 196.599 385.378C196.933 384.909 197.099 383.972 197.099 382.565C197.099 381.149 196.933 380.211 196.599 379.753C196.276 379.284 195.865 379.05 195.365 379.05C194.886 379.05 194.5 379.253 194.209 379.659C193.844 380.18 193.662 381.149 193.662 382.565Z" fill="black"/>
<path d="M289.236 386.8V384.737H285.517V383.769L289.439 378.206H290.299V383.769H291.455V384.737H290.299V386.8H289.236ZM289.236 383.769V379.909L286.549 383.769H289.236ZM296.236 386.8V384.737H292.517V383.769L296.439 378.206H297.299V383.769H298.455V384.737H297.299V386.8H296.236ZM296.236 383.769V379.909L293.549 383.769H296.236ZM305.408 385.784V386.8H299.72C299.72 386.55 299.762 386.305 299.845 386.065C299.991 385.68 300.22 385.3 300.533 384.925C300.856 384.55 301.319 384.118 301.924 383.628C302.861 382.857 303.491 382.248 303.814 381.8C304.148 381.352 304.314 380.93 304.314 380.534C304.314 380.118 304.163 379.769 303.861 379.487C303.559 379.196 303.168 379.05 302.689 379.05C302.179 379.05 301.773 379.201 301.47 379.503C301.168 379.805 301.012 380.227 301.002 380.769L299.924 380.659C299.997 379.847 300.273 379.232 300.752 378.815C301.241 378.388 301.898 378.175 302.72 378.175C303.543 378.175 304.194 378.404 304.674 378.862C305.153 379.321 305.392 379.888 305.392 380.565C305.392 380.909 305.319 381.248 305.174 381.581C305.038 381.904 304.804 382.253 304.47 382.628C304.148 382.993 303.611 383.493 302.861 384.128C302.226 384.659 301.814 385.024 301.627 385.222C301.45 385.409 301.304 385.597 301.189 385.784H305.408ZM306.861 382.565C306.861 381.545 306.965 380.727 307.174 380.112C307.382 379.487 307.689 379.008 308.095 378.675C308.512 378.341 309.033 378.175 309.658 378.175C310.116 378.175 310.517 378.269 310.861 378.456C311.215 378.644 311.507 378.914 311.736 379.269C311.965 379.612 312.142 380.034 312.267 380.534C312.392 381.034 312.455 381.711 312.455 382.565C312.455 383.576 312.351 384.388 312.142 385.003C311.944 385.618 311.637 386.097 311.22 386.44C310.814 386.774 310.293 386.94 309.658 386.94C308.835 386.94 308.184 386.644 307.705 386.05C307.142 385.341 306.861 384.18 306.861 382.565ZM307.939 382.565C307.939 383.972 308.106 384.909 308.439 385.378C308.773 385.847 309.179 386.081 309.658 386.081C310.148 386.081 310.554 385.847 310.877 385.378C311.21 384.909 311.377 383.972 311.377 382.565C311.377 381.149 311.21 380.211 310.877 379.753C310.554 379.284 310.142 379.05 309.642 379.05C309.163 379.05 308.778 379.253 308.486 379.659C308.121 380.18 307.939 381.149 307.939 382.565ZM313.861 382.565C313.861 381.545 313.965 380.727 314.174 380.112C314.382 379.487 314.689 379.008 315.095 378.675C315.512 378.341 316.033 378.175 316.658 378.175C317.116 378.175 317.517 378.269 317.861 378.456C318.215 378.644 318.507 378.914 318.736 379.269C318.965 379.612 319.142 380.034 319.267 380.534C319.392 381.034 319.455 381.711 319.455 382.565C319.455 383.576 319.351 384.388 319.142 385.003C318.944 385.618 318.637 386.097 318.22 386.44C317.814 386.774 317.293 386.94 316.658 386.94C315.835 386.94 315.184 386.644 314.705 386.05C314.142 385.341 313.861 384.18 313.861 382.565ZM314.939 382.565C314.939 383.972 315.106 384.909 315.439 385.378C315.773 385.847 316.179 386.081 316.658 386.081C317.148 386.081 317.554 385.847 317.877 385.378C318.21 384.909 318.377 383.972 318.377 382.565C318.377 381.149 318.21 380.211 317.877 379.753C317.554 379.284 317.142 379.05 316.642 379.05C316.163 379.05 315.778 379.253 315.486 379.659C315.121 380.18 314.939 381.149 314.939 382.565Z" fill="black"/>
<path d="M410.514 386.8V384.737H406.795V383.769L410.717 378.206H411.576V383.769H412.732V384.737H411.576V386.8H410.514ZM410.514 383.769V379.909L407.826 383.769H410.514ZM417.514 386.8V384.737H413.795V383.769L417.717 378.206H418.576V383.769H419.732V384.737H418.576V386.8H417.514ZM417.514 383.769V379.909L414.826 383.769H417.514ZM424.514 386.8V384.737H420.795V383.769L424.717 378.206H425.576V383.769H426.732V384.737H425.576V386.8H424.514ZM424.514 383.769V379.909L421.826 383.769H424.514ZM428.139 382.565C428.139 381.545 428.243 380.727 428.451 380.112C428.659 379.487 428.967 379.008 429.373 378.675C429.79 378.341 430.31 378.175 430.935 378.175C431.394 378.175 431.795 378.269 432.139 378.456C432.493 378.644 432.784 378.914 433.014 379.269C433.243 379.612 433.42 380.034 433.545 380.534C433.67 381.034 433.732 381.711 433.732 382.565C433.732 383.576 433.628 384.388 433.42 385.003C433.222 385.618 432.915 386.097 432.498 386.44C432.092 386.774 431.571 386.94 430.935 386.94C430.112 386.94 429.461 386.644 428.982 386.05C428.42 385.341 428.139 384.18 428.139 382.565ZM429.217 382.565C429.217 383.972 429.383 384.909 429.717 385.378C430.05 385.847 430.456 386.081 430.935 386.081C431.425 386.081 431.831 385.847 432.154 385.378C432.487 384.909 432.654 383.972 432.654 382.565C432.654 381.149 432.487 380.211 432.154 379.753C431.831 379.284 431.42 379.05 430.92 379.05C430.441 379.05 430.055 379.253 429.764 379.659C429.399 380.18 429.217 381.149 429.217 382.565ZM435.139 382.565C435.139 381.545 435.243 380.727 435.451 380.112C435.659 379.487 435.967 379.008 436.373 378.675C436.79 378.341 437.31 378.175 437.935 378.175C438.394 378.175 438.795 378.269 439.139 378.456C439.493 378.644 439.784 378.914 440.014 379.269C440.243 379.612 440.42 380.034 440.545 380.534C440.67 381.034 440.732 381.711 440.732 382.565C440.732 383.576 440.628 384.388 440.42 385.003C440.222 385.618 439.915 386.097 439.498 386.44C439.092 386.774 438.571 386.94 437.935 386.94C437.112 386.94 436.461 386.644 435.982 386.05C435.42 385.341 435.139 384.18 435.139 382.565ZM436.217 382.565C436.217 383.972 436.383 384.909 436.717 385.378C437.05 385.847 437.456 386.081 437.935 386.081C438.425 386.081 438.831 385.847 439.154 385.378C439.487 384.909 439.654 383.972 439.654 382.565C439.654 381.149 439.487 380.211 439.154 379.753C438.831 379.284 438.42 379.05 437.92 379.05C437.441 379.05 437.055 379.253 436.764 379.659C436.399 380.18 436.217 381.149 436.217 382.565Z" fill="black"/>
<path d="M531.791 386.8V384.737H528.072V383.769L531.994 378.206H532.853V383.769H534.01V384.737H532.853V386.8H531.791ZM531.791 383.769V379.909L529.103 383.769H531.791ZM538.791 386.8V384.737H535.072V383.769L538.994 378.206H539.853V383.769H541.01V384.737H539.853V386.8H538.791ZM538.791 383.769V379.909L536.103 383.769H538.791ZM547.885 380.315L546.838 380.394C546.744 379.977 546.614 379.675 546.447 379.487C546.156 379.185 545.801 379.034 545.385 379.034C545.051 379.034 544.754 379.128 544.494 379.315C544.171 379.565 543.911 379.925 543.713 380.394C543.525 380.852 543.426 381.508 543.416 382.362C543.666 381.977 543.973 381.69 544.338 381.503C544.713 381.315 545.103 381.222 545.51 381.222C546.208 381.222 546.801 381.482 547.291 382.003C547.791 382.524 548.041 383.19 548.041 384.003C548.041 384.545 547.921 385.05 547.682 385.519C547.452 385.977 547.135 386.331 546.728 386.581C546.322 386.821 545.864 386.94 545.353 386.94C544.468 386.94 543.749 386.618 543.197 385.972C542.645 385.326 542.369 384.263 542.369 382.784C542.369 381.118 542.676 379.909 543.291 379.159C543.822 378.503 544.541 378.175 545.447 378.175C546.124 378.175 546.676 378.368 547.103 378.753C547.541 379.128 547.801 379.649 547.885 380.315ZM543.588 384.019C543.588 384.383 543.661 384.732 543.807 385.065C543.963 385.388 544.176 385.638 544.447 385.815C544.728 385.993 545.025 386.081 545.338 386.081C545.775 386.081 546.156 385.904 546.478 385.55C546.801 385.185 546.963 384.696 546.963 384.081C546.963 383.487 546.801 383.019 546.478 382.675C546.166 382.331 545.77 382.159 545.291 382.159C544.812 382.159 544.406 382.331 544.072 382.675C543.749 383.019 543.588 383.466 543.588 384.019ZM549.416 382.565C549.416 381.545 549.52 380.727 549.728 380.112C549.937 379.487 550.244 379.008 550.65 378.675C551.067 378.341 551.588 378.175 552.213 378.175C552.671 378.175 553.072 378.269 553.416 378.456C553.77 378.644 554.062 378.914 554.291 379.269C554.52 379.612 554.697 380.034 554.822 380.534C554.947 381.034 555.01 381.711 555.01 382.565C555.01 383.576 554.906 384.388 554.697 385.003C554.499 385.618 554.192 386.097 553.775 386.44C553.369 386.774 552.848 386.94 552.213 386.94C551.39 386.94 550.739 386.644 550.26 386.05C549.697 385.341 549.416 384.18 549.416 382.565ZM550.494 382.565C550.494 383.972 550.661 384.909 550.994 385.378C551.327 385.847 551.734 386.081 552.213 386.081C552.702 386.081 553.109 385.847 553.432 385.378C553.765 384.909 553.932 383.972 553.932 382.565C553.932 381.149 553.765 380.211 553.432 379.753C553.109 379.284 552.697 379.05 552.197 379.05C551.718 379.05 551.333 379.253 551.041 379.659C550.676 380.18 550.494 381.149 550.494 382.565ZM556.416 382.565C556.416 381.545 556.52 380.727 556.728 380.112C556.937 379.487 557.244 379.008 557.65 378.675C558.067 378.341 558.588 378.175 559.213 378.175C559.671 378.175 560.072 378.269 560.416 378.456C560.77 378.644 561.062 378.914 561.291 379.269C561.52 379.612 561.697 380.034 561.822 380.534C561.947 381.034 562.01 381.711 562.01 382.565C562.01 383.576 561.906 384.388 561.697 385.003C561.499 385.618 561.192 386.097 560.775 386.44C560.369 386.774 559.848 386.94 559.213 386.94C558.39 386.94 557.739 386.644 557.26 386.05C556.697 385.341 556.416 384.18 556.416 382.565ZM557.494 382.565C557.494 383.972 557.661 384.909 557.994 385.378C558.327 385.847 558.734 386.081 559.213 386.081C559.702 386.081 560.109 385.847 560.432 385.378C560.765 384.909 560.932 383.972 560.932 382.565C560.932 381.149 560.765 380.211 560.432 379.753C560.109 379.284 559.697 379.05 559.197 379.05C558.718 379.05 558.333 379.253 558.041 379.659C557.676 380.18 557.494 381.149 557.494 382.565Z" fill="black"/>
<path d="M653.068 386.8V384.737H649.35V383.769L653.272 378.206H654.131V383.769H655.287V384.737H654.131V386.8H653.068ZM653.068 383.769V379.909L650.381 383.769H653.068ZM660.068 386.8V384.737H656.35V383.769L660.272 378.206H661.131V383.769H662.287V384.737H661.131V386.8H660.068ZM660.068 383.769V379.909L657.381 383.769H660.068ZM665.318 382.144C664.881 381.977 664.553 381.748 664.334 381.456C664.126 381.154 664.022 380.8 664.022 380.394C664.022 379.769 664.246 379.243 664.693 378.815C665.152 378.388 665.751 378.175 666.49 378.175C667.24 378.175 667.844 378.394 668.303 378.831C668.761 379.269 668.99 379.8 668.99 380.425C668.99 380.821 668.886 381.164 668.678 381.456C668.469 381.748 668.152 381.977 667.725 382.144C668.256 382.31 668.657 382.586 668.928 382.972C669.199 383.357 669.334 383.815 669.334 384.347C669.334 385.076 669.074 385.69 668.553 386.19C668.042 386.69 667.36 386.94 666.506 386.94C665.662 386.94 664.98 386.69 664.459 386.19C663.938 385.69 663.678 385.065 663.678 384.315C663.678 383.753 663.818 383.284 664.1 382.909C664.391 382.534 664.798 382.279 665.318 382.144ZM665.1 380.347C665.1 380.753 665.23 381.086 665.49 381.347C665.761 381.607 666.105 381.737 666.522 381.737C666.928 381.737 667.261 381.612 667.522 381.362C667.782 381.102 667.912 380.784 667.912 380.409C667.912 380.024 667.777 379.701 667.506 379.44C667.235 379.17 666.902 379.034 666.506 379.034C666.1 379.034 665.761 379.164 665.49 379.425C665.23 379.685 665.1 379.993 665.1 380.347ZM664.772 384.315C664.772 384.618 664.839 384.909 664.975 385.19C665.12 385.472 665.334 385.69 665.615 385.847C665.897 386.003 666.199 386.081 666.522 386.081C667.022 386.081 667.433 385.92 667.756 385.597C668.089 385.274 668.256 384.862 668.256 384.362C668.256 383.852 668.089 383.43 667.756 383.097C667.423 382.763 667.001 382.597 666.49 382.597C665.99 382.597 665.579 382.763 665.256 383.097C664.933 383.42 664.772 383.826 664.772 384.315ZM670.693 382.565C670.693 381.545 670.798 380.727 671.006 380.112C671.214 379.487 671.522 379.008 671.928 378.675C672.344 378.341 672.865 378.175 673.49 378.175C673.949 378.175 674.35 378.269 674.693 378.456C675.048 378.644 675.339 378.914 675.568 379.269C675.798 379.612 675.975 380.034 676.1 380.534C676.225 381.034 676.287 381.711 676.287 382.565C676.287 383.576 676.183 384.388 675.975 385.003C675.777 385.618 675.469 386.097 675.053 386.44C674.647 386.774 674.126 386.94 673.49 386.94C672.667 386.94 672.016 386.644 671.537 386.05C670.975 385.341 670.693 384.18 670.693 382.565ZM671.772 382.565C671.772 383.972 671.938 384.909 672.272 385.378C672.605 385.847 673.011 386.081 673.49 386.081C673.98 386.081 674.386 385.847 674.709 385.378C675.042 384.909 675.209 383.972 675.209 382.565C675.209 381.149 675.042 380.211 674.709 379.753C674.386 379.284 673.975 379.05 673.475 379.05C672.995 379.05 672.61 379.253 672.318 379.659C671.954 380.18 671.772 381.149 671.772 382.565ZM677.693 382.565C677.693 381.545 677.798 380.727 678.006 380.112C678.214 379.487 678.522 379.008 678.928 378.675C679.344 378.341 679.865 378.175 680.49 378.175C680.949 378.175 681.35 378.269 681.693 378.456C682.048 378.644 682.339 378.914 682.568 379.269C682.798 379.612 682.975 380.034 683.1 380.534C683.225 381.034 683.287 381.711 683.287 382.565C683.287 383.576 683.183 384.388 682.975 385.003C682.777 385.618 682.469 386.097 682.053 386.44C681.647 386.774 681.126 386.94 680.49 386.94C679.667 386.94 679.016 386.644 678.537 386.05C677.975 385.341 677.693 384.18 677.693 382.565ZM678.772 382.565C678.772 383.972 678.938 384.909 679.272 385.378C679.605 385.847 680.011 386.081 680.49 386.081C680.98 386.081 681.386 385.847 681.709 385.378C682.042 384.909 682.209 383.972 682.209 382.565C682.209 381.149 682.042 380.211 681.709 379.753C681.386 379.284 680.975 379.05 680.475 379.05C679.995 379.05 679.61 379.253 679.318 379.659C678.954 380.18 678.772 381.149 678.772 382.565Z" fill="black"/>
<path d="M576.847 65.5127V66.7002H570.222C570.211 66.4085 570.258 66.1221 570.363 65.8408C570.54 65.3929 570.81 64.9502 571.175 64.5127C571.55 64.0752 572.086 63.57 572.784 62.9971C573.878 62.1012 574.613 61.3929 574.988 60.8721C575.373 60.3512 575.566 59.8564 575.566 59.3877C575.566 58.8981 575.389 58.4867 575.034 58.1533C574.691 57.82 574.243 57.6533 573.691 57.6533C573.097 57.6533 572.618 57.8304 572.253 58.1846C571.899 58.5387 571.722 59.0335 571.722 59.6689L570.456 59.5283C570.54 58.5908 570.862 57.8773 571.425 57.3877C571.998 56.8877 572.758 56.6377 573.706 56.6377C574.675 56.6377 575.435 56.9033 575.988 57.4346C576.55 57.9658 576.831 58.6273 576.831 59.4189C576.831 59.8252 576.748 60.221 576.581 60.6064C576.425 60.9919 576.154 61.3981 575.769 61.8252C575.394 62.2523 574.764 62.8408 573.878 63.5908C573.139 64.2054 572.665 64.6273 572.456 64.8564C572.248 65.0752 572.076 65.2939 571.941 65.5127H576.847ZM578.378 61.7627C578.378 60.5752 578.498 59.6221 578.738 58.9033C578.988 58.1742 579.352 57.6169 579.831 57.2314C580.31 56.8356 580.915 56.6377 581.644 56.6377C582.185 56.6377 582.659 56.7471 583.066 56.9658C583.472 57.1846 583.805 57.4971 584.066 57.9033C584.336 58.3096 584.545 58.8044 584.691 59.3877C584.836 59.971 584.909 60.7627 584.909 61.7627C584.909 62.9398 584.79 63.8877 584.55 64.6064C584.31 65.3252 583.951 65.8825 583.472 66.2783C582.993 66.6742 582.383 66.8721 581.644 66.8721C580.685 66.8721 579.93 66.5231 579.378 65.8252C578.711 64.9919 578.378 63.6377 578.378 61.7627ZM579.644 61.7627C579.644 63.4085 579.836 64.5023 580.222 65.0439C580.607 65.5856 581.081 65.8564 581.644 65.8564C582.217 65.8564 582.696 65.5856 583.081 65.0439C583.467 64.4919 583.659 63.3981 583.659 61.7627C583.659 60.1064 583.467 59.0075 583.081 58.4658C582.696 57.9242 582.211 57.6533 581.628 57.6533C581.066 57.6533 580.618 57.8929 580.284 58.3721C579.857 58.9867 579.644 60.1169 579.644 61.7627ZM592.847 65.5127V66.7002H586.222C586.211 66.4085 586.258 66.1221 586.363 65.8408C586.54 65.3929 586.81 64.9502 587.175 64.5127C587.55 64.0752 588.086 63.57 588.784 62.9971C589.878 62.1012 590.613 61.3929 590.988 60.8721C591.373 60.3512 591.566 59.8564 591.566 59.3877C591.566 58.8981 591.389 58.4867 591.034 58.1533C590.691 57.82 590.243 57.6533 589.691 57.6533C589.097 57.6533 588.618 57.8304 588.253 58.1846C587.899 58.5387 587.722 59.0335 587.722 59.6689L586.456 59.5283C586.54 58.5908 586.862 57.8773 587.425 57.3877C587.998 56.8877 588.758 56.6377 589.706 56.6377C590.675 56.6377 591.435 56.9033 591.988 57.4346C592.55 57.9658 592.831 58.6273 592.831 59.4189C592.831 59.8252 592.748 60.221 592.581 60.6064C592.425 60.9919 592.154 61.3981 591.769 61.8252C591.394 62.2523 590.764 62.8408 589.878 63.5908C589.139 64.2054 588.665 64.6273 588.456 64.8564C588.248 65.0752 588.076 65.2939 587.941 65.5127H592.847ZM600.847 65.5127V66.7002H594.222C594.211 66.4085 594.258 66.1221 594.363 65.8408C594.54 65.3929 594.81 64.9502 595.175 64.5127C595.55 64.0752 596.086 63.57 596.784 62.9971C597.878 62.1012 598.613 61.3929 598.988 60.8721C599.373 60.3512 599.566 59.8564 599.566 59.3877C599.566 58.8981 599.389 58.4867 599.034 58.1533C598.691 57.82 598.243 57.6533 597.691 57.6533C597.097 57.6533 596.618 57.8304 596.253 58.1846C595.899 58.5387 595.722 59.0335 595.722 59.6689L594.456 59.5283C594.54 58.5908 594.862 57.8773 595.425 57.3877C595.998 56.8877 596.758 56.6377 597.706 56.6377C598.675 56.6377 599.435 56.9033 599.988 57.4346C600.55 57.9658 600.831 58.6273 600.831 59.4189C600.831 59.8252 600.748 60.221 600.581 60.6064C600.425 60.9919 600.154 61.3981 599.769 61.8252C599.394 62.2523 598.764 62.8408 597.878 63.5908C597.139 64.2054 596.665 64.6273 596.456 64.8564C596.248 65.0752 596.076 65.2939 595.941 65.5127H600.847Z" fill="#999999"/>
<path d="M606.175 58.1689C605.487 59.3669 604.633 60.3669 603.612 61.1689L602.847 60.1846C604.336 59.0908 605.357 57.5075 605.909 55.4346L607.159 55.7627C607.305 55.9085 607.253 55.9971 607.003 56.0283L606.566 57.1221H614.269V58.1689H610.284V60.0283H613.566V61.0596H610.284V63.5283H614.878V64.5596H610.284V67.8564H609.191V64.5596H602.894V63.5283H605.362V60.0283H609.191V58.1689H606.175ZM606.456 63.5283H609.191V61.0596H606.456V63.5283Z" fill="#999999"/>
<path d="M616.566 64.3877L617.753 64.2783C617.847 64.8304 618.034 65.2314 618.316 65.4814C618.607 65.7314 618.972 65.8564 619.409 65.8564C619.784 65.8564 620.112 65.7731 620.394 65.6064C620.685 65.4294 620.92 65.195 621.097 64.9033C621.284 64.6117 621.441 64.221 621.566 63.7314C621.691 63.2419 621.753 62.7419 621.753 62.2314C621.753 62.1794 621.748 62.096 621.737 61.9814C621.498 62.3773 621.165 62.7002 620.737 62.9502C620.31 63.1898 619.847 63.3096 619.347 63.3096C618.514 63.3096 617.81 63.0075 617.237 62.4033C616.665 61.7992 616.378 61.0075 616.378 60.0283C616.378 59.0075 616.675 58.1898 617.269 57.5752C617.873 56.9502 618.628 56.6377 619.534 56.6377C620.18 56.6377 620.774 56.8148 621.316 57.1689C621.857 57.5127 622.269 58.0127 622.55 58.6689C622.831 59.3148 622.972 60.2523 622.972 61.4814C622.972 62.7627 622.831 63.7835 622.55 64.5439C622.279 65.3044 621.868 65.8825 621.316 66.2783C620.764 66.6742 620.118 66.8721 619.378 66.8721C618.597 66.8721 617.956 66.6533 617.456 66.2158C616.967 65.7783 616.67 65.1689 616.566 64.3877ZM621.597 59.9658C621.597 59.2575 621.409 58.695 621.034 58.2783C620.659 57.8617 620.211 57.6533 619.691 57.6533C619.139 57.6533 618.659 57.8773 618.253 58.3252C617.847 58.7731 617.644 59.3512 617.644 60.0596C617.644 60.695 617.836 61.2158 618.222 61.6221C618.607 62.0179 619.081 62.2158 619.644 62.2158C620.217 62.2158 620.685 62.0179 621.05 61.6221C621.415 61.2158 621.597 60.6637 621.597 59.9658Z" fill="#999999"/>
<path d="M633.706 63.5283H628.503C628.503 65.0908 627.701 66.57 626.097 67.9658L625.175 66.9189C626.665 65.971 627.409 64.5492 627.409 62.6533V55.9814H634.8V66.7627C634.8 67.346 634.487 67.6377 633.862 67.6377H632.55L632.331 66.4189H633.487C633.633 66.4189 633.706 66.346 633.706 66.2002V63.5283ZM628.503 62.3252H633.706V60.3564H628.503V62.3252ZM628.503 59.1533H633.706V57.1846H628.503V59.1533Z" fill="#999999"/>
<path d="M644.847 65.5127V66.7002H638.222C638.211 66.4085 638.258 66.1221 638.363 65.8408C638.54 65.3929 638.81 64.9502 639.175 64.5127C639.55 64.0752 640.086 63.57 640.784 62.9971C641.878 62.1012 642.613 61.3929 642.988 60.8721C643.373 60.3512 643.566 59.8564 643.566 59.3877C643.566 58.8981 643.389 58.4867 643.034 58.1533C642.691 57.82 642.243 57.6533 641.691 57.6533C641.097 57.6533 640.618 57.8304 640.253 58.1846C639.899 58.5387 639.722 59.0335 639.722 59.6689L638.456 59.5283C638.54 58.5908 638.862 57.8773 639.425 57.3877C639.998 56.8877 640.758 56.6377 641.706 56.6377C642.675 56.6377 643.435 56.9033 643.988 57.4346C644.55 57.9658 644.831 58.6273 644.831 59.4189C644.831 59.8252 644.748 60.221 644.581 60.6064C644.425 60.9919 644.154 61.3981 643.769 61.8252C643.394 62.2523 642.764 62.8408 641.878 63.5908C641.139 64.2054 640.665 64.6273 640.456 64.8564C640.248 65.0752 640.076 65.2939 639.941 65.5127H644.847ZM646.566 64.3877L647.753 64.2783C647.847 64.8304 648.034 65.2314 648.316 65.4814C648.607 65.7314 648.972 65.8564 649.409 65.8564C649.784 65.8564 650.113 65.7731 650.394 65.6064C650.685 65.4294 650.92 65.195 651.097 64.9033C651.284 64.6117 651.441 64.221 651.566 63.7314C651.691 63.2419 651.753 62.7419 651.753 62.2314C651.753 62.1794 651.748 62.096 651.738 61.9814C651.498 62.3773 651.165 62.7002 650.738 62.9502C650.31 63.1898 649.847 63.3096 649.347 63.3096C648.514 63.3096 647.81 63.0075 647.238 62.4033C646.665 61.7992 646.378 61.0075 646.378 60.0283C646.378 59.0075 646.675 58.1898 647.269 57.5752C647.873 56.9502 648.628 56.6377 649.534 56.6377C650.18 56.6377 650.774 56.8148 651.316 57.1689C651.857 57.5127 652.269 58.0127 652.55 58.6689C652.831 59.3148 652.972 60.2523 652.972 61.4814C652.972 62.7627 652.831 63.7835 652.55 64.5439C652.279 65.3044 651.868 65.8825 651.316 66.2783C650.764 66.6742 650.118 66.8721 649.378 66.8721C648.597 66.8721 647.956 66.6533 647.456 66.2158C646.967 65.7783 646.67 65.1689 646.566 64.3877ZM651.597 59.9658C651.597 59.2575 651.409 58.695 651.034 58.2783C650.659 57.8617 650.211 57.6533 649.691 57.6533C649.139 57.6533 648.659 57.8773 648.253 58.3252C647.847 58.7731 647.644 59.3512 647.644 60.0596C647.644 60.695 647.836 61.2158 648.222 61.6221C648.607 62.0179 649.081 62.2158 649.644 62.2158C650.217 62.2158 650.685 62.0179 651.05 61.6221C651.415 61.2158 651.597 60.6637 651.597 59.9658Z" fill="#999999"/>
<path d="M657.8 67.2002H656.534V56.6377H665.128V66.9814H663.862V66.2002H657.8V67.2002ZM663.862 60.7939V57.6689H657.8V60.7939H663.862ZM663.862 65.1689V61.8252H657.8V65.1689H663.862ZM678.081 59.8564H680.659V60.7314H678.362V61.9971H680.222V62.8721H678.362V64.1846H680.222V65.0596H678.362V66.4189H681.097V67.3096H675.566V67.8564H674.644V61.7783C674.352 62.1742 673.987 62.5387 673.55 62.8721L673.159 61.8252C674.545 60.5856 675.441 59.2939 675.847 57.9502H674.581V59.2002H673.659V57.0752H676.066C676.211 56.4919 676.336 55.8721 676.441 55.2158L677.534 55.4814C677.649 55.596 677.612 55.7054 677.425 55.8096C677.321 56.2471 677.211 56.6689 677.097 57.0752H680.987V58.9814H680.05V57.9502H676.878C676.659 58.7106 676.368 59.346 676.003 59.8564H677.159L677.862 58.2158L678.909 58.4346C679.086 58.5075 679.05 58.6012 678.8 58.7158L678.081 59.8564ZM668.847 57.3408V56.3096H673.487V57.3408H671.581C671.508 58.4762 671.269 59.5179 670.862 60.4658H673.003V66.9814H672.066V66.0908H670.644V67.5283H669.722V62.5908C669.503 62.9554 669.264 63.2835 669.003 63.5752L668.3 62.6533C669.571 61.2262 670.316 59.4554 670.534 57.3408H668.847ZM675.566 62.8721V64.1846H677.425V62.8721H675.566ZM675.566 60.7314V61.9971H677.425V60.7314H675.566ZM675.566 65.0596V66.4189H677.425V65.0596H675.566ZM670.644 61.3408V65.2158H672.066V61.3408H670.644ZM687.222 61.4502C688.566 61.0856 689.42 60.3721 689.784 59.3096L688.316 58.7158L688.691 57.7783L690.003 58.2783L690.112 56.9658H687.816V55.9189H694.378L694.269 60.6221C694.237 61.5387 693.857 61.9971 693.128 61.9971H691.862L691.753 60.9502H692.909C693.128 60.9502 693.237 60.8408 693.237 60.6221L693.347 56.9658H691.206L691.05 58.7158L692.362 59.4189L691.862 60.4033L690.769 59.8096C690.3 61.1533 689.264 62.0648 687.659 62.5439L687.222 61.4502ZM694.159 66.9189C693.868 65.8252 693.415 64.8773 692.8 64.0752L693.784 63.6377C694.586 64.6169 695.097 65.5439 695.316 66.4189L694.159 66.9189ZM686.831 63.4658V67.6846H685.909V67.3096H684.05V67.9033H683.112V63.4658H686.831ZM687.269 66.9814C687.529 66.0648 687.696 65.0231 687.769 63.8564L688.862 63.9658C688.935 63.9971 688.899 64.0856 688.753 64.2314C688.711 65.3981 688.545 66.4033 688.253 67.2471L687.269 66.9814ZM690.769 61.6689C691.279 61.9919 691.79 62.5544 692.3 63.3564L691.269 63.9658C691.008 63.4554 690.571 62.8721 689.956 62.2158L690.769 61.6689ZM683.331 55.7002H686.612V56.7471H683.331V55.7002ZM682.628 57.5596H687.331V58.6064H682.628V57.5596ZM683.331 59.5908H686.612V60.6221H683.331V59.5908ZM683.331 61.4502H686.612V62.4814H683.331V61.4502ZM684.05 64.3408V66.4189H685.909V64.3408H684.05ZM690.222 63.3096C690.514 63.3408 690.534 63.4502 690.284 63.6377V66.2002C690.284 66.4606 690.394 66.5908 690.612 66.5908H691.816C692.034 66.5908 692.159 66.4814 692.191 66.2627L692.3 65.3877L693.394 65.6533L693.175 66.8096C693.071 67.3617 692.743 67.6377 692.191 67.6377H690.112C689.498 67.6377 689.191 67.3044 689.191 66.6377V63.3096H690.222Z" fill="#999999"/>
<path d="M23.45 40.8096C28.2417 39.1429 30.7677 35.9398 31.0281 31.2002H23.9969V29.4814H31.1844V25.3408H32.9031C33.424 25.445 33.45 25.6533 32.9813 25.9658V29.4814H40.4813V31.2002H33.1375C34.2313 35.5231 36.8875 38.596 41.1063 40.4189L40.0906 42.2939C36.4448 40.6273 33.8667 37.8148 32.3563 33.8564C31.4708 38.1273 28.7365 41.07 24.1531 42.6846L23.45 40.8096ZM57.5125 32.9189L57.2 39.2471C57.0958 41.4346 56.3406 42.5283 54.9344 42.5283H52.5906L52.3563 40.8096H54.3094C54.9865 40.8096 55.3511 40.3669 55.4031 39.4814L55.7156 34.4033H51.4188L51.3406 35.0283C50.9761 37.8929 48.9188 40.5231 45.1688 42.9189L43.9969 41.4346C47.3823 39.5075 49.2573 37.4762 49.6219 35.3408L49.7781 34.4033H46.8094V32.9189H57.5125ZM50.4813 26.7471C49.2313 29.4554 47.2261 31.9294 44.4656 34.1689L43.2156 32.6846C45.924 30.8096 47.9031 28.3877 49.1531 25.4189L50.6375 26.3564C50.95 26.5648 50.8979 26.695 50.4813 26.7471ZM60.1688 34.1689C57.3042 32.5023 55.1948 29.7679 53.8406 25.9658L55.325 25.3408C56.575 28.6742 58.5802 31.07 61.3406 32.5283L60.1688 34.1689ZM76.1844 37.6064C77.2261 38.6481 78.7625 39.6898 80.7938 40.7314L79.8563 42.3721C78.0854 41.5387 76.4188 40.3408 74.8563 38.7783L76.1844 37.6064ZM69.3875 39.0127C68.5021 40.2627 67.1479 41.4867 65.325 42.6846L64.1531 41.2002C65.8198 40.2106 67.1479 39.0387 68.1375 37.6846L69.6219 38.5439C69.8823 38.7523 69.8042 38.9085 69.3875 39.0127ZM66.1844 36.9814V37.7627H64.6219V26.5127H66.1063C66.5229 26.5648 66.549 26.721 66.1844 26.9814V35.4971H80.5594V36.9814H73.2938V42.9971H71.4969V36.9814H66.1844ZM69.6219 33.2314H76.4188V31.7471H69.6219V33.2314ZM69.6219 30.4971H76.4188V29.2471H69.6219V30.4971ZM69.6219 27.9971H76.4188V26.7471H69.6219V27.9971ZM68.0594 34.4814V25.4971H77.9813V34.4814H68.0594ZM92.9813 30.1846C92.0958 35.3929 91.0281 38.6221 89.7781 39.8721C89.1011 40.5492 88.3979 40.8877 87.6688 40.8877C86.8354 40.8877 86.1844 40.6533 85.7156 40.1846C84.4656 38.9346 83.8406 37.3721 83.8406 35.4971C83.8406 33.2054 84.6479 31.2523 86.2625 29.6377C88.0333 27.8669 90.1948 26.9814 92.7469 26.9814C95.0386 26.9814 96.8354 27.6325 98.1375 28.9346C99.5958 30.3929 100.325 32.1117 100.325 34.0908C100.325 36.2262 99.6479 37.971 98.2938 39.3252C97.4083 40.2106 96.0542 41.07 94.2313 41.9033L92.5906 40.2627C94.4136 39.6898 95.8458 38.8825 96.8875 37.8408C97.8771 36.8512 98.3719 35.6533 98.3719 34.2471C98.3719 32.5804 97.825 31.2002 96.7313 30.1064C95.6375 29.0127 93.9188 28.5179 91.575 28.6221L92.9813 29.3252C93.6063 29.5856 93.6063 29.8721 92.9813 30.1846ZM91.1844 28.7002C89.8302 29.0127 88.6583 29.6637 87.6688 30.6533C86.3146 32.0075 85.6375 33.6742 85.6375 35.6533C85.6375 36.8512 86.0281 37.8408 86.8094 38.6221C86.9656 38.7783 87.2 38.8564 87.5125 38.8564C87.825 38.8564 88.1636 38.6742 88.5281 38.3096C89.7261 37.1117 90.6115 33.9085 91.1844 28.7002ZM110.325 41.5127C112.46 40.3669 113.528 38.4137 113.528 35.6533V26.6689L115.169 26.9814L119.388 25.6533L120.559 27.2158C120.664 27.5283 120.481 27.5804 120.013 27.3721L115.091 28.3096V31.6689H121.263V33.1533H118.919V42.9189H117.356V33.1533H115.091V36.1221C115.091 39.195 113.789 41.4867 111.184 42.9971L110.325 41.5127ZM108.841 42.9971H107.278V38.3096C106.445 39.6637 105.533 40.7314 104.544 41.5127L103.372 40.1064C104.83 39.0648 106.054 37.7627 107.044 36.2002H103.763V34.7158H107.278V32.9971H103.294V31.5127H108.763L109.622 28.7002H103.841V27.2158H107.278V25.0283H108.763C109.179 25.0804 109.205 25.2367 108.841 25.4971V27.2158H112.278V28.7002H111.263L110.169 31.5127H112.669V32.9971H108.841V34.7158H112.278V36.2002H108.841V36.9033C109.57 37.1117 110.585 37.6585 111.888 38.5439L110.95 40.1064C110.221 39.3773 109.518 38.8044 108.841 38.3877V42.9971ZM105.716 31.3564C105.507 30.6273 105.221 29.9242 104.856 29.2471L106.341 28.7783C106.757 29.4554 107.07 30.1585 107.278 30.8877L105.716 31.3564ZM138.45 33.5439H133.372V35.2627H138.45V33.5439ZM136.341 36.7471H134.934V37.5283C134.934 40.7575 133.085 42.6585 129.388 43.2314L128.919 41.5908C131.888 41.2262 133.372 39.82 133.372 37.3721V36.7471H132.591H131.809V25.8096H140.013V36.7471H137.903V40.6533C137.903 41.07 138.085 41.2783 138.45 41.2783H139.231C139.492 41.2783 139.648 41.0179 139.7 40.4971L139.856 39.1689L141.419 39.6377L141.184 41.4346C141.08 42.32 140.585 42.7627 139.7 42.7627H137.747C136.809 42.7627 136.341 42.32 136.341 41.4346V36.7471ZM133.372 32.0596H138.45V30.4189H133.372V32.0596ZM133.372 28.9346H138.45V27.2939H133.372V28.9346ZM127.747 35.8877C128.789 36.3564 130.013 37.2158 131.419 38.4658L130.325 40.1064C129.231 38.9085 128.268 38.0231 127.434 37.4502C126.914 39.7419 125.82 41.5387 124.153 42.8408L122.981 41.4346C125.273 39.5075 126.367 37.0075 126.263 33.9346H123.294V32.4502H126.341V29.6377H123.841V28.1533H126.341V25.0283H127.825C128.242 25.0804 128.268 25.2367 127.903 25.4971V28.1533H130.638V29.6377H127.903V32.4502H131.028V33.9346H127.825C127.825 34.7679 127.799 35.4189 127.747 35.8877ZM147.825 32.1377C148.815 33.4919 149.309 34.8981 149.309 36.3564C149.309 38.3877 148.71 39.4033 147.513 39.4033H146.575L146.263 37.8408H147.044C147.565 37.8408 147.799 37.2939 147.747 36.2002C147.695 34.6898 147.226 33.3617 146.341 32.2158L147.903 27.1377H145.481V42.7627H143.919V25.8877H148.294L148.606 25.4971L149.934 26.6689L149.622 26.9814L147.825 32.1377ZM159.153 36.5127H158.372C157.539 40.3148 154.752 42.5023 150.013 43.0752L149.544 41.5908C153.606 41.2783 156.054 39.5856 156.888 36.5127H155.794C154.908 38.7002 153.033 40.0283 150.169 40.4971L149.7 39.1689C152.096 38.6481 153.58 37.7627 154.153 36.5127H152.903C152.174 37.2419 151.236 37.8148 150.091 38.2314L149.466 36.9033C151.132 36.3825 152.278 35.3929 152.903 33.9346H149.388V32.6846H161.106V33.9346H154.544C154.335 34.4033 154.075 34.846 153.763 35.2627H160.638L160.481 40.1846C160.429 41.8512 159.83 42.6846 158.684 42.6846H157.122L156.888 41.2002H158.216C158.684 41.2002 158.945 40.8877 158.997 40.2627L159.153 36.5127ZM152.513 30.4189H157.825V29.0908H152.513V30.4189ZM152.513 27.8408H157.825V26.5908H152.513V27.8408ZM159.153 25.3408V31.6689H151.184V25.3408H159.153ZM172.434 29.3252H174.544V25.2627H176.028C176.445 25.3148 176.471 25.471 176.106 25.7314V29.3252H180.325V30.8096H176.106V34.5596H180.091V36.0439H176.106V40.6533H181.263V42.1377H169.309V40.6533H174.544V36.0439H170.716V34.5596H174.544V30.8096H171.966C171.601 31.8512 171.028 32.8929 170.247 33.9346L168.919 32.9189C170.273 31.1481 171.158 29.0127 171.575 26.5127L173.059 26.8252C173.476 26.9814 173.476 27.1377 173.059 27.2939L172.434 29.3252ZM165.794 25.0283H167.278C167.695 25.0804 167.721 25.2367 167.356 25.4971V42.8408H165.794V25.0283ZM168.763 28.2314C169.231 28.8564 169.622 29.5596 169.934 30.3408L168.684 31.2002C168.32 30.3148 167.955 29.5856 167.591 29.0127L168.763 28.2314ZM165.325 29.0908C165.69 29.195 165.69 29.3512 165.325 29.5596C165.221 31.2262 164.986 32.7887 164.622 34.2471L163.138 33.7783C163.554 32.4762 163.789 30.8356 163.841 28.8564L165.325 29.0908ZM198.138 33.6221V42.6846H196.575V41.9033H189.544V42.9189H187.981V35.8096C186.627 36.5387 185.169 37.1117 183.606 37.5283L183.059 36.1221C184.518 35.7575 186.158 35.1064 187.981 34.1689V33.6221H189.075C190.169 32.9971 191.106 32.3721 191.888 31.7471H183.684V30.2627H190.559V28.3877H185.716V26.9033H190.559V25.0283H192.044C192.46 25.0804 192.486 25.2367 192.122 25.4971V26.9033H195.872V28.2314C196.497 27.5544 197.122 26.7992 197.747 25.9658L198.841 26.6689C199.205 26.9294 199.153 27.0856 198.684 27.1377C197.695 28.3356 196.705 29.3773 195.716 30.2627H201.106V31.7471H194.075C193.033 32.6325 192.2 33.2575 191.575 33.6221H198.138ZM193.606 30.2627C194.231 29.7939 194.934 29.1689 195.716 28.3877H192.122V30.2627H193.606ZM189.544 36.9814H196.575V34.8721H189.544V36.9814ZM189.544 40.6533H196.575V38.2314H189.544V40.6533ZM216.731 36.9033C217.46 35.4971 217.903 33.3617 218.059 30.4971H215.403C215.559 33.3617 216.002 35.4971 216.731 36.9033ZM219.622 30.4971C219.518 33.7262 218.893 36.3304 217.747 38.3096C218.58 39.3512 219.752 40.2627 221.263 41.0439L220.247 42.7627C218.58 41.6689 217.408 40.6273 216.731 39.6377C215.533 40.9919 213.684 42.1637 211.184 43.1533L210.403 41.5908C213.111 40.4971 214.908 39.3773 215.794 38.2314C214.908 36.5127 214.414 34.7939 214.309 33.0752C213.997 33.8564 213.684 34.4554 213.372 34.8721L212.044 33.8564C213.606 31.5648 214.544 28.7262 214.856 25.3408L216.497 25.7314C216.809 25.9398 216.731 26.096 216.263 26.2002C216.106 27.1377 215.898 28.0752 215.638 29.0127H220.95V30.4971H219.622ZM212.356 26.7471C212.044 27.5283 211.679 28.1794 211.263 28.7002L210.013 27.9971C210.429 27.32 210.82 26.5387 211.184 25.6533L212.591 26.3564C212.799 26.5648 212.721 26.695 212.356 26.7471ZM207.356 37.7627C208.085 37.971 208.736 38.2054 209.309 38.4658C209.726 37.9971 210.065 37.2939 210.325 36.3564H208.059C207.851 36.8252 207.617 37.2939 207.356 37.7627ZM206.263 39.7158L205.013 39.0127C205.533 38.2314 206.054 37.346 206.575 36.3564H203.606V35.1064H207.044C207.356 34.4294 207.591 33.8564 207.747 33.3877L209.231 33.7783C209.44 33.9867 209.361 34.1169 208.997 34.1689L208.528 35.1064H212.981V36.3564H211.809C211.549 37.3981 211.158 38.2835 210.638 39.0127C211.106 39.221 211.601 39.4814 212.122 39.7939L211.419 41.0439C210.846 40.6794 210.325 40.3929 209.856 40.1846C208.502 41.5387 206.679 42.3721 204.388 42.6846L203.841 41.2783C205.872 41.07 207.434 40.4971 208.528 39.5596C207.955 39.2992 207.382 39.0648 206.809 38.8564L206.263 39.7158ZM207.825 25.0283H209.075C209.492 25.0804 209.518 25.2367 209.153 25.4971V28.8564H213.138V30.1064H209.856C210.429 30.7835 211.315 31.4346 212.513 32.0596L211.653 33.3877C210.768 32.8669 209.934 32.1377 209.153 31.2002V33.0752H207.825V31.5908C206.992 32.6325 205.846 33.57 204.388 34.4033L203.372 33.1533C204.986 32.32 206.315 31.3044 207.356 30.1064H203.763V28.8564H207.825V25.0283ZM205.638 28.6221C205.273 27.8408 204.804 27.1637 204.231 26.5908L205.481 25.8096C206.106 26.4346 206.575 27.0856 206.888 27.7627L205.638 28.6221ZM232.981 30.1846C232.096 35.3929 231.028 38.6221 229.778 39.8721C229.101 40.5492 228.398 40.8877 227.669 40.8877C226.835 40.8877 226.184 40.6533 225.716 40.1846C224.466 38.9346 223.841 37.3721 223.841 35.4971C223.841 33.2054 224.648 31.2523 226.263 29.6377C228.033 27.8669 230.195 26.9814 232.747 26.9814C235.039 26.9814 236.835 27.6325 238.138 28.9346C239.596 30.3929 240.325 32.1117 240.325 34.0908C240.325 36.2262 239.648 37.971 238.294 39.3252C237.408 40.2106 236.054 41.07 234.231 41.9033L232.591 40.2627C234.414 39.6898 235.846 38.8825 236.888 37.8408C237.877 36.8512 238.372 35.6533 238.372 34.2471C238.372 32.5804 237.825 31.2002 236.731 30.1064C235.638 29.0127 233.919 28.5179 231.575 28.6221L232.981 29.3252C233.606 29.5856 233.606 29.8721 232.981 30.1846ZM231.184 28.7002C229.83 29.0127 228.658 29.6637 227.669 30.6533C226.315 32.0075 225.638 33.6742 225.638 35.6533C225.638 36.8512 226.028 37.8408 226.809 38.6221C226.966 38.7783 227.2 38.8564 227.513 38.8564C227.825 38.8564 228.164 38.6742 228.528 38.3096C229.726 37.1117 230.611 33.9085 231.184 28.7002ZM248.763 31.8252C250.481 30.2106 251.809 27.8669 252.747 24.7939L254.309 25.2627C254.57 25.471 254.518 25.6012 254.153 25.6533C253.736 26.695 253.32 27.6585 252.903 28.5439H255.247C255.82 27.346 256.263 26.2783 256.575 25.3408L258.059 25.8877C258.268 26.096 258.19 26.2262 257.825 26.2783C257.46 27.1117 257.096 27.8669 256.731 28.5439H260.716V30.0283H256.731V32.4502H259.934V33.9346H256.731V36.4346H259.934V37.9189H256.731V40.8096H261.184V42.2939H252.591V42.9971H251.028V31.6689C250.664 32.1898 250.273 32.6585 249.856 33.0752L248.763 31.8252ZM244.856 42.8408L244.544 41.3564H245.872C246.08 41.3564 246.184 41.2523 246.184 41.0439V36.2002L244.153 36.6689C244.101 37.0335 243.971 37.1117 243.763 36.9033L243.45 35.1064L246.184 34.5596V30.4189H243.763V28.9346H246.184V24.9502H247.669C248.085 25.0023 248.111 25.1585 247.747 25.4189V28.9346H249.778V30.4189H247.747V34.2471L249.778 33.7002L250.013 35.1064L247.747 35.8096V41.5908C247.747 42.4242 247.33 42.8408 246.497 42.8408H244.856ZM252.591 40.8096H255.169V37.9189H252.591V40.8096ZM252.591 36.4346H255.169V33.9346H252.591V36.4346ZM252.591 32.4502H255.169V30.0283H252.591V32.4502ZM278.841 27.1377L279.075 26.8252L280.325 27.8408L280.091 28.0752C278.736 30.4189 277.408 31.9814 276.106 32.7627L276.888 32.9971C277.252 33.1533 277.226 33.3096 276.809 33.4658C276.705 33.8304 276.575 34.1429 276.419 34.4033H279.778L280.013 34.0908L281.419 35.1064L281.106 35.4189C279.44 39.846 276.054 42.346 270.95 42.9189L270.325 41.4346C272.773 41.1742 274.7 40.5231 276.106 39.4814C275.377 38.7523 274.648 38.1273 273.919 37.6064C273.242 38.1794 272.33 38.7002 271.184 39.1689L270.481 37.7627C273.033 36.721 274.7 35.1325 275.481 32.9971C274.7 33.7262 273.294 34.3512 271.263 34.8721L270.559 33.4658C272.539 33.0492 274.023 32.5023 275.013 31.8252C274.492 31.2002 273.867 30.6533 273.138 30.1846C272.773 30.5492 272.408 30.8617 272.044 31.1221L270.95 29.9502C272.669 28.4919 273.763 26.9294 274.231 25.2627L275.638 25.7314C276.002 25.8877 275.976 26.0439 275.559 26.2002C275.507 26.5127 275.377 26.8252 275.169 27.1377H278.841ZM268.216 30.1846H270.794V31.6689H268.216V33.6221C269.257 34.0908 270.247 34.7939 271.184 35.7314L270.169 37.1377C269.335 36.3044 268.684 35.7054 268.216 35.3408V42.9189H266.653V35.1846C266.341 36.2262 265.481 37.5544 264.075 39.1689L262.903 37.6846C264.83 35.8617 266.028 33.8564 266.497 31.6689H263.45V30.1846H266.653V27.6064C265.611 27.7627 264.674 27.8929 263.841 27.9971L263.45 26.5127C265.533 26.3044 267.695 25.8877 269.934 25.2627L270.794 26.4346C271.002 26.7471 270.872 26.8512 270.403 26.7471C269.674 26.9554 268.945 27.1377 268.216 27.2939V30.1846ZM273.919 29.2471C274.7 29.6637 275.455 30.1846 276.184 30.8096C276.966 30.0804 277.617 29.2731 278.138 28.3877H274.544C274.335 28.7523 274.127 29.0387 273.919 29.2471ZM274.778 36.6689C275.507 37.0856 276.341 37.7106 277.278 38.5439C278.059 37.971 278.736 37.0075 279.309 35.6533H275.716C275.403 36.07 275.091 36.4085 274.778 36.6689ZM286.809 29.3252C287.382 28.1273 288.346 26.9033 289.7 25.6533L290.559 26.4346C289.257 27.6325 288.346 28.7783 287.825 29.8721C287.252 31.07 286.966 32.5023 286.966 34.1689C286.966 35.5752 287.252 36.9033 287.825 38.1533C288.346 39.2992 289.257 40.5752 290.559 41.9814L289.7 42.8408C288.398 41.3825 287.434 40.0023 286.809 38.7002C286.132 37.2939 285.794 35.7835 285.794 34.1689C285.794 32.346 286.132 30.7314 286.809 29.3252ZM297.903 41.9033H296.106V26.8252H308.372V41.5908H306.575V40.4971H297.903V41.9033ZM306.575 32.7627V28.3096H297.903V32.7627H306.575ZM306.575 39.0127V34.2471H297.903V39.0127H306.575ZM321.341 35.8096H318.372C317.903 38.7783 316.497 41.1221 314.153 42.8408L313.372 41.3564C315.664 39.7419 316.914 37.346 317.122 34.1689L317.278 31.7471H316.184V32.7627H314.622V26.0439H322.513V32.4502H320.95V31.7471H318.684L318.528 34.3252H322.903L322.513 40.4971C322.408 41.7471 321.888 42.3721 320.95 42.3721H318.841L318.606 40.8877H320.325C320.794 40.8877 321.054 40.6273 321.106 40.1064L321.341 35.8096ZM329.778 41.2002C329.778 42.0856 329.361 42.5283 328.528 42.5283H326.809L326.497 41.0439H327.981C328.138 41.0439 328.216 40.9658 328.216 40.8096V25.8096H329.7C330.117 25.8617 330.143 26.0179 329.778 26.2783V41.2002ZM326.028 27.6846C326.445 27.7367 326.471 27.8929 326.106 28.1533V38.8564H324.544V27.6846H326.028ZM320.95 30.4971V27.2939H316.184V30.4971H320.95ZM337.513 38.7002C336.888 40.0023 335.924 41.3825 334.622 42.8408L333.763 41.9814C335.065 40.5752 335.976 39.2992 336.497 38.1533C337.07 36.9033 337.356 35.5752 337.356 34.1689C337.356 32.5023 337.07 31.07 336.497 29.8721C335.976 28.7783 335.065 27.6325 333.763 26.4346L334.622 25.6533C335.976 26.9033 336.94 28.1273 337.513 29.3252C338.19 30.7314 338.528 32.346 338.528 34.1689C338.528 35.7835 338.19 37.2939 337.513 38.7002Z" fill="#757575"/>
</g>
<rect x="2" y="2" width="714" height="440" stroke="black" stroke-width="4"/>
<defs>
<clipPath id="clip0_7_25979">
<rect width="718" height="444" fill="white"/>
</clipPath>
</defs>
</svg>
