<svg width="718" height="444" viewBox="0 0 718 444" fill="none" xmlns="http://www.w3.org/2000/svg">
<g clip-path="url(#clip0_7_27014)">
<path d="M0 0H718V444H0V0Z" fill="white"/>
<path d="M181.5 91.5V369.5" stroke="#CCCCCC" stroke-miterlimit="10"/>
<path d="M303.5 91.5V369.5" stroke="#CCCCCC" stroke-miterlimit="10"/>
<path d="M424.5 91.5V369.5" stroke="#CCCCCC" stroke-miterlimit="10"/>
<path d="M545.5 91.5V369.5" stroke="#CCCCCC" stroke-miterlimit="10"/>
<path d="M667.5 91.5V369.5" stroke="#CCCCCC" stroke-miterlimit="10"/>
<path d="M88.5 369.5H695.5" stroke="#333333" stroke-miterlimit="10"/>
<path d="M88.5 314.5H695.5" stroke="#CCCCCC" stroke-miterlimit="10"/>
<path d="M88.5 258.5H695.5" stroke="#CCCCCC" stroke-miterlimit="10"/>
<path d="M88.5 202.5H695.5" stroke="#CCCCCC" stroke-miterlimit="10"/>
<path d="M88.5 147.5H695.5" stroke="#CCCCCC" stroke-miterlimit="10"/>
<path d="M88.5 91.5H695.5" stroke="#CCCCCC" stroke-miterlimit="10"/>
<path d="M88.2 369.799H88.807H89.414H90.021H90.628H91.235H91.842H92.449H93.0559H93.6629H94.2699H94.8769H95.4839H96.0909H96.6979H97.3049H97.9119H98.5189H99.1259H99.7329H100.34H100.947H101.554H102.161H102.768H103.375H103.982H104.589H105.196H105.803H106.41H107.017H107.624H108.231H108.838H109.445H110.052H110.659H111.266H111.873H112.48H113.087H113.694H114.301H114.908H115.515H116.122H116.729H117.336H117.943H118.55H119.157H119.764H120.371H120.978H121.585H122.192H122.799H123.406H124.013H124.62H125.227H125.834H126.441H127.048H127.655L128.262 369.744L128.869 369.799H129.476H130.083H130.69L131.297 369.744H131.904L132.51 369.799L133.117 369.744L133.724 369.799L134.331 369.744L134.938 369.688H135.545L136.152 369.744H136.759L137.366 369.799L137.973 369.744L138.58 369.688L139.187 369.744L139.794 369.799H140.401H141.008H141.615L142.222 369.744L142.829 369.799L143.436 369.744H144.043L144.65 369.799L145.257 369.744L145.864 369.799H146.471H147.078H147.685L148.292 369.688L148.899 369.799L149.506 369.744L150.113 369.799H150.72L151.327 369.744L151.934 369.799H152.541H153.148H153.755H154.362H154.969H155.576H156.183L156.79 369.744L157.397 369.799H158.004L158.611 369.744L159.218 369.799H159.825H160.432H161.039H161.646H162.253H162.86H163.467H164.074H164.681H165.288H165.895H166.502H167.109H167.716H168.323H168.93H169.537H170.144H170.751H171.358H171.965H172.572H173.179H173.786H174.393H175H175.607H176.214H176.821H177.428H178.035H178.642H179.249H179.856H180.463H181.07H181.677H182.284H182.891H183.498H184.105H184.712L185.319 369.744L185.926 369.799H186.533H187.14H187.747H188.354H188.961H189.568L190.175 369.688L190.782 369.799H191.389H191.996H192.603H193.21H193.817H194.424H195.031H195.638H196.245H196.852L197.459 369.744H198.066L198.673 369.688H199.28L199.887 369.633L200.494 369.577L201.101 369.688L201.708 369.744L202.315 369.799L202.922 369.744L203.529 369.577L204.136 369.243L204.743 369.688L205.35 369.633L205.957 369.688L206.564 369.521H207.171L207.778 369.633L208.385 369.41L208.992 369.688L209.599 369.633H210.206L210.813 369.41L211.42 369.688L212.027 369.577L212.634 369.633L213.241 369.744L213.848 369.688H214.455H215.062H215.669L216.276 369.577L216.883 369.688L217.49 369.744L218.096 369.799L218.703 369.688L219.31 369.744L219.917 369.688H220.524H221.131L221.738 369.633H222.345L222.952 369.744L223.559 369.799L224.166 369.744L224.773 369.688L225.38 369.799H225.987H226.594H227.201H227.808L228.415 369.744L229.022 369.799H229.629H230.236H230.843H231.45H232.057H232.664H233.271H233.878H234.485L235.092 369.744L235.699 369.799H236.306H236.913L237.52 369.744L238.127 369.799H238.734H239.341H239.948H240.555L241.162 369.744H241.769L242.376 369.688L242.983 369.744H243.59L244.197 369.799L244.804 369.633L245.411 369.799H246.018L246.625 369.744L247.232 369.799L247.839 369.633L248.446 369.799H249.053L249.66 369.744H250.267L250.874 369.799H251.481H252.088L252.695 369.744L253.302 369.577L253.909 369.799L254.516 369.688H255.123L255.73 369.744L256.337 369.799L256.944 369.744L257.551 369.187L258.158 369.633L258.765 369.466L259.372 369.577L259.979 369.521L260.586 369.633L261.193 369.299L261.8 368.965L262.407 368.074L263.014 369.132L263.621 369.076L264.228 369.521L264.835 369.799L265.442 369.132L266.049 369.466H266.656L267.263 369.354L267.87 369.299L268.477 369.466L269.084 369.688L269.691 369.744L270.298 369.41L270.905 369.466L271.512 369.076L272.119 369.132L272.726 368.853L273.333 369.633L273.94 369.41L274.547 368.464L275.154 368.965L275.761 369.076L276.368 368.297L276.975 369.076L277.582 369.243L278.189 369.41L278.796 368.965L279.403 369.02L280.01 368.464L280.617 368.965L281.224 369.299L281.831 369.41L282.438 369.243H283.045H283.652L284.259 369.521L284.866 369.187L285.473 369.132L286.08 369.299L286.687 369.132L287.294 369.187L287.901 369.076L288.508 368.909L289.115 368.575L289.722 367.684L290.329 368.297L290.936 368.631L291.543 368.018L292.15 368.297L292.757 368.352L293.364 366.46L293.971 363.621L294.578 368.185L295.185 369.076L295.792 367.851L296.399 368.297L297.006 368.074L297.613 368.241L298.22 368.631L298.827 368.742L299.434 368.519L300.041 368.018L300.648 368.519L301.255 368.297L301.862 368.519L302.469 368.297L303.076 367.963L303.683 366.961L304.29 366.516L304.897 366.126L305.504 367.239L306.111 365.347L306.717 368.018L307.324 366.905L307.931 367.963L308.538 367.74L309.145 367.684L309.752 367.851H310.359L310.966 367.907L311.573 368.074L312.18 368.575L312.787 368.13L313.394 368.185L314.001 368.686L314.608 368.909L315.215 369.299L315.822 368.631L316.429 368.798H317.036H317.643L318.25 369.132L318.857 369.02L319.464 369.299L320.071 369.41L320.678 369.299L321.285 369.132L321.892 369.299L322.499 369.521L323.106 369.243L323.713 368.909L324.32 369.633L324.927 369.466L325.534 369.41L326.141 369.466L326.748 369.243L327.355 369.577L327.962 369.633L328.569 369.577L329.176 369.521L329.783 369.577L330.39 369.688L330.997 369.744L331.604 369.688L332.211 369.633L332.818 369.577L333.425 369.688H334.032L334.639 369.799L335.246 369.577L335.853 369.744L336.46 369.521L337.067 369.688H337.674L338.281 369.354L338.888 369.243L339.495 369.633L340.102 369.299L340.709 369.521L341.316 369.633L341.923 369.243L342.53 368.909L343.137 369.187L343.744 369.354L344.351 369.466L344.958 369.688L345.565 369.577L346.172 369.521L346.779 369.688L347.386 369.354L347.993 369.299L348.6 369.577L349.207 369.299L349.814 369.41L350.421 369.633L351.028 369.521L351.635 369.688L352.242 369.521L352.849 369.799L353.456 369.633L354.063 369.577L354.67 368.408L355.277 368.742L355.884 369.243L356.491 368.798L357.098 368.686L357.705 369.02L358.312 369.41L358.919 368.742L359.526 368.519L360.133 368.352L360.74 368.408L361.347 367.851L361.954 366.85L362.561 368.074L363.168 368.853L363.775 368.018L364.382 367.239L364.989 368.074L365.596 366.85L366.203 366.404L366.81 368.13L367.417 367.684L368.024 366.571L368.631 367.295L369.238 366.349L369.845 364.846L370.452 366.182L371.059 367.684L371.666 367.184L372.273 364.957L372.88 364.289L373.487 365.681L374.094 365.569L374.701 363.454L375.308 363.733L375.915 366.015L376.522 364.734L377.129 363.454L377.736 362.619L378.343 359.28L378.95 361.395L379.557 362.174L380.164 362.397L380.771 359.447L381.378 360.282L381.985 360.56L382.592 359.502L383.199 360.282L383.806 363.788L384.413 362.564L385.02 362.341L385.627 362.953L386.234 363.621L386.841 363.955L387.448 365.18L388.055 367.517L388.662 366.571L389.269 365.235L389.876 365.681L390.483 366.516L391.09 367.128L391.697 368.297L392.304 368.631L392.911 368.686L393.518 367.74L394.124 368.074L394.731 368.909L395.338 368.686L395.945 369.132H396.552L397.159 369.354L397.766 369.076L398.373 369.132H398.98L399.587 369.187L400.194 369.466L400.801 369.744L401.408 369.521L402.015 369.354L402.622 369.577L403.229 369.633L403.836 369.466L404.443 369.688L405.05 369.744H405.657H406.264L406.871 369.688L407.478 369.799L408.085 369.633L408.692 369.744L409.299 369.799H409.906L410.513 369.688L411.12 369.744L411.727 369.577L412.334 369.799L412.941 369.744L413.548 369.799L414.155 369.633L414.762 369.577L415.369 369.688L415.976 369.577H416.583L417.19 369.633L417.797 369.466H418.404L419.011 369.243L419.618 368.742L420.225 369.187L420.832 369.299H421.439L422.046 369.02L422.653 368.909L423.26 367.963H423.867L424.474 368.241L425.081 368.074L425.688 368.297L426.295 368.519L426.902 367.851L427.509 366.571L428.116 366.516L428.723 365.514L429.33 366.182L429.937 364.567L430.544 367.017L431.151 365.458L431.758 362.508L432.365 364.846L432.972 364.178L433.579 363.12L434.186 364.957H434.793L435.4 366.237L436.007 362.174L436.614 357.721L437.221 360.504L437.828 358.723L438.435 360.393L439.042 361.896L439.649 360.727L440.256 352.712L440.863 355.662L441.47 354.549L442.077 355.829L442.684 356.107L443.291 360.504L443.898 360.894L444.505 352.99L445.112 358.334L445.719 355.996L446.326 358.111L446.933 359.335L447.54 361.395L448.147 362.063L448.754 357.666L449.361 360.727L449.968 359.502L450.575 361.951L451.182 362.397L451.789 366.015L452.396 366.349L453.003 363.51L453.61 365.792L454.217 365.18L454.824 367.239L455.431 366.349L456.038 368.018L456.645 367.629L457.252 367.184L457.859 367.35L458.466 368.408L459.073 367.684L459.68 368.909L460.287 369.076L460.894 369.633L461.501 368.686L462.108 368.631L462.715 369.02H463.322L463.929 369.243L464.536 369.688L465.143 369.633L465.75 368.798L466.357 369.299H466.964L467.571 369.243L468.178 369.688L468.785 369.132L469.392 369.243L469.999 368.853L470.606 369.299H471.213L471.82 369.633H472.427L473.034 369.521L473.641 369.299L474.248 369.243L474.855 369.688L475.462 369.299L476.069 369.688L476.676 369.41L477.283 369.688L477.89 369.243L478.497 369.354L479.104 369.633L479.71 369.688H480.317L480.924 369.633L481.531 369.688L482.138 369.633L482.745 369.187L483.352 369.466L483.959 369.243L484.566 369.354L485.173 369.299L485.78 369.521L486.387 369.076H486.994L487.601 368.965L488.208 368.853L488.815 369.132L489.422 369.299L490.029 369.41L490.636 369.187L491.243 369.076L491.85 369.299L492.457 369.466L493.064 368.965L493.671 369.299L494.278 369.633L494.885 369.354L495.492 368.853L496.099 369.132L496.706 369.299L497.313 369.521L497.92 369.466L498.527 369.799L499.134 369.744L499.741 369.521L500.348 369.577L500.955 369.299L501.562 369.633L502.169 369.744L502.776 369.688L503.383 369.744L503.99 369.577L504.597 369.744L505.204 369.799H505.811H506.418H507.025L507.632 369.688H508.239L508.846 369.799H509.453L510.06 369.744H510.667L511.274 369.799L511.881 369.688L512.488 369.799H513.095H513.702H514.309L514.916 369.744L515.523 369.799L516.13 369.744H516.737H517.344H517.951L518.558 369.799H519.165H519.772H520.379H520.986H521.593H522.2L522.807 369.633L523.414 369.688L524.021 369.466L524.628 369.744L525.235 369.02L525.842 368.241L526.449 367.295L527.056 365.903L527.663 365.681L528.27 366.404L528.877 367.017L529.484 364.623L530.091 360.783L530.698 357.944L531.305 357.109L531.912 356.33L532.519 359.447L533.126 352.155L533.733 343.083L534.34 343.417L534.947 339.187L535.554 337.739L536.161 341.079L536.768 346.979L537.375 328.333L537.982 321.988L538.589 329.056L539.196 324.325L539.803 317.535L540.41 325.55L541.017 335.068L541.624 298.722L542.231 305.679L542.838 308.518L543.445 313.583L544.052 293.935L544.659 318.425L545.266 342.804L545.873 321.32L546.48 305.512L547.087 316.923L547.694 319.483L548.301 342.359L548.908 334.678L549.515 337.739L550.122 327.22L550.729 314.028L551.336 327.22L551.943 333.454L552.55 335.012L553.157 339.131L553.764 350.764L554.371 334.511L554.978 330.559L555.585 342.693L556.192 338.018L556.799 330.114L557.406 344.029L558.013 347.591L558.62 335.791L559.227 325.16L559.834 337.628L560.441 341.914L561.048 337.851L561.655 345.42L562.262 351.487L562.869 344.586L563.476 332.73L564.083 340.522L564.689 345.142L565.296 340.968L565.903 347.369L566.51 355.829L567.117 345.476L567.724 337.572L568.331 345.365L568.938 348.537L569.545 347.257L570.152 352.879L570.759 358.278L571.366 360.282L571.973 347.48L572.58 343.305L573.187 347.035L573.794 348.871H574.401L575.008 356.831L575.615 346.478L576.222 334.845L576.829 340.968L577.436 344.586L578.043 339.91L578.65 346.311L579.257 354.716L579.864 341.803L580.471 333.12L581.078 336.682L581.685 335.513L582.292 332.73L582.899 337.906L583.506 350.207L584.113 333.398L584.72 319.149L585.327 329.39L585.934 332.563L586.541 331.338L587.148 341.858L587.755 354.827L588.362 340.021L588.969 328.611L589.576 334.066L590.183 338.853L590.79 334.734L591.397 337.461L592.004 354.326L592.611 335.958L593.218 326.719L593.825 336.07L594.432 340.801L595.039 353.992L595.646 350.263L596.253 352.378L596.86 341.58L597.467 341.135L598.074 353.213L598.681 349.762L599.288 322.266L599.895 320.206L600.502 347.09L601.109 321.765L601.716 315.754L602.323 329.168L602.93 330.058L603.537 328.221L604.144 335.068L604.751 351.766L605.358 331.171L605.965 322.21L606.572 331.45L607.179 332.674L607.786 335.068L608.393 339.298L609 353.324L609.607 336.904L610.214 332.897L610.821 341.079L611.428 345.42H612.035L612.642 350.931L613.249 360.17L613.856 347.981L614.463 345.142L615.07 350.43L615.677 351.766L616.284 353.38L616.891 357.944L617.498 363.009L618.105 355.495L618.712 352.656L619.319 355.773L619.926 358.167L620.533 355.885L621.14 360.115L621.747 364.957L622.354 357.888L622.961 356.274L623.568 359.502L624.175 359.892L624.782 358.668L625.389 360.393L625.996 363.788L626.603 359.781L627.21 356.775L627.817 360.894L628.424 362.452L629.031 361.562L629.638 362.063L630.245 366.85L630.852 360.838L631.459 358.167L632.066 359.948L632.673 359.168L633.28 358.222L633.887 359.391L634.494 359.725L635.101 356.942L635.708 350.096L636.315 347.814L636.922 348.148L637.529 346.422L638.136 346.144L638.743 353.324L639.35 342.248L639.957 327.554L640.564 326.051L641.171 327.721L641.778 321.208L642.385 318.815L642.992 329.056L643.599 337.405L644.206 306.737L644.813 268.443L645.42 265.938L646.027 264.435L646.634 268.22L647.241 298.332L647.848 282.914L648.455 243.34L649.062 234.323L649.669 236.049L650.275 224.193L650.882 236.661L651.489 282.58L652.096 250.52L652.703 203.042L653.31 192.578L653.917 186.233L654.524 205.38L655.131 209.833L655.738 245.789L656.345 248.85L656.952 185.287L657.559 186.845L658.166 186.511L658.773 242.616L659.38 206.437L659.987 214.508L660.594 269.5L661.201 169.145L661.808 131.352L662.415 134.636L663.022 124.951L663.629 140.647L664.236 211.836L664.843 206.938L665.45 153.616L666.057 148.106L666.664 172.04L667.271 183.505L667.878 198.923L668.485 244.008L669.092 250.186L669.699 209.61L670.306 195.305L670.913 236.438L671.52 247.793L672.127 249.518L672.734 285.308L673.341 272.673L673.948 229.536L674.555 242.171L675.162 261.541L675.769 273.396L676.376 283.193L676.983 311.913L677.59 297.441L678.197 268.944L678.804 282.024L679.411 291.43L680.018 305.624L680.625 301.672L681.232 319.205L681.839 334.678L682.446 319.817L683.053 288.703L683.66 307.85L684.267 320.429L684.874 328.277L685.481 309.742L686.088 338.574L686.695 325.272L687.302 332.173L687.909 336.237L688.516 340.355L689.123 342.47L689.73 355.05L690.337 334.066L690.944 330.448L691.551 334.622L692.158 341.691L692.765 340.689L693.372 346.979L693.979 352.768L694.586 359.502L695.193 320.819L695.8 316.366" stroke="#4285F4" stroke-width="2" stroke-miterlimit="10"/>
<path d="M379.922 418.8V410.206H382.891C383.557 410.206 384.068 410.248 384.422 410.331C384.911 410.446 385.328 410.649 385.672 410.94C386.13 411.326 386.469 411.821 386.688 412.425C386.917 413.019 387.031 413.696 387.031 414.456C387.031 415.112 386.953 415.69 386.797 416.19C386.651 416.69 386.458 417.107 386.219 417.44C385.979 417.774 385.714 418.034 385.422 418.222C385.141 418.409 384.802 418.555 384.406 418.659C384.01 418.753 383.552 418.8 383.031 418.8H379.922ZM381.062 417.784H382.891C383.464 417.784 383.911 417.732 384.234 417.628C384.557 417.524 384.812 417.373 385 417.175C385.271 416.914 385.479 416.555 385.625 416.097C385.781 415.638 385.859 415.086 385.859 414.44C385.859 413.545 385.708 412.857 385.406 412.378C385.115 411.888 384.76 411.56 384.344 411.394C384.031 411.279 383.542 411.222 382.875 411.222H381.062V417.784ZM392.859 418.034C392.464 418.368 392.083 418.602 391.719 418.737C391.365 418.873 390.979 418.94 390.562 418.94C389.875 418.94 389.349 418.774 388.984 418.44C388.62 418.107 388.438 417.68 388.438 417.159C388.438 416.857 388.505 416.581 388.641 416.331C388.776 416.071 388.958 415.868 389.188 415.722C389.417 415.565 389.672 415.451 389.953 415.378C390.151 415.315 390.464 415.258 390.891 415.206C391.734 415.112 392.359 414.993 392.766 414.847C392.766 414.701 392.766 414.612 392.766 414.581C392.766 414.144 392.667 413.836 392.469 413.659C392.198 413.43 391.797 413.315 391.266 413.315C390.776 413.315 390.411 413.404 390.172 413.581C389.932 413.748 389.755 414.05 389.641 414.487L388.609 414.347C388.703 413.909 388.859 413.555 389.078 413.284C389.297 413.013 389.609 412.805 390.016 412.659C390.422 412.513 390.891 412.44 391.422 412.44C391.953 412.44 392.385 412.503 392.719 412.628C393.052 412.753 393.297 412.909 393.453 413.097C393.609 413.284 393.719 413.524 393.781 413.815C393.812 413.993 393.828 414.315 393.828 414.784V416.19C393.828 417.17 393.849 417.789 393.891 418.05C393.943 418.31 394.036 418.56 394.172 418.8H393.062C392.958 418.581 392.891 418.326 392.859 418.034ZM392.766 415.675C392.38 415.831 391.807 415.966 391.047 416.081C390.609 416.144 390.302 416.216 390.125 416.3C389.948 416.373 389.807 416.482 389.703 416.628C389.609 416.774 389.562 416.94 389.562 417.128C389.562 417.409 389.667 417.644 389.875 417.831C390.094 418.019 390.406 418.112 390.812 418.112C391.219 418.112 391.578 418.024 391.891 417.847C392.214 417.67 392.448 417.425 392.594 417.112C392.708 416.873 392.766 416.524 392.766 416.065V415.675ZM398.094 417.862L398.25 418.784C397.948 418.847 397.682 418.878 397.453 418.878C397.068 418.878 396.771 418.821 396.562 418.706C396.354 418.581 396.203 418.42 396.109 418.222C396.026 418.024 395.984 417.607 395.984 416.972V413.394H395.219V412.581H395.984V411.034L397.031 410.409V412.581H398.094V413.394H397.031V417.034C397.031 417.336 397.047 417.529 397.078 417.612C397.12 417.696 397.182 417.763 397.266 417.815C397.349 417.868 397.469 417.894 397.625 417.894C397.75 417.894 397.906 417.883 398.094 417.862ZM403.047 416.8L404.141 416.925C403.974 417.56 403.656 418.055 403.188 418.409C402.719 418.763 402.125 418.94 401.406 418.94C400.5 418.94 399.776 418.659 399.234 418.097C398.703 417.534 398.438 416.748 398.438 415.737C398.438 414.696 398.708 413.888 399.25 413.315C399.792 412.732 400.49 412.44 401.344 412.44C402.177 412.44 402.854 412.722 403.375 413.284C403.906 413.847 404.172 414.644 404.172 415.675C404.172 415.737 404.172 415.831 404.172 415.956H399.531C399.573 416.644 399.766 417.17 400.109 417.534C400.453 417.888 400.885 418.065 401.406 418.065C401.792 418.065 402.12 417.966 402.391 417.769C402.672 417.56 402.891 417.237 403.047 416.8ZM399.594 415.097H403.062C403.021 414.565 402.891 414.17 402.672 413.909C402.328 413.503 401.891 413.3 401.359 413.3C400.87 413.3 400.458 413.461 400.125 413.784C399.802 414.107 399.625 414.545 399.594 415.097Z" fill="black"/>
<path d="M29.0125 262.572C27.5854 262.572 26.4708 262.192 25.6687 261.432C24.8562 260.661 24.45 259.671 24.45 258.463C24.45 257.661 24.6427 256.942 25.0281 256.307C25.4031 255.671 25.9291 255.187 26.6062 254.854C27.2833 254.52 28.0541 254.354 28.9187 254.354C29.7833 254.354 30.5594 254.531 31.2469 254.885C31.9344 255.239 32.4552 255.739 32.8094 256.385C33.1635 257.02 33.3406 257.713 33.3406 258.463C33.3406 259.275 33.1479 259.999 32.7625 260.635C32.3667 261.27 31.8354 261.755 31.1687 262.088C30.4916 262.411 29.7729 262.572 29.0125 262.572ZM29.0281 261.4C30.0698 261.4 30.8875 261.124 31.4812 260.572C32.075 260.01 32.3719 259.307 32.3719 258.463C32.3719 257.609 32.075 256.906 31.4812 256.354C30.8771 255.801 30.0177 255.525 28.9031 255.525C28.2052 255.525 27.5958 255.645 27.075 255.885C26.5541 256.114 26.1531 256.458 25.8719 256.916C25.5802 257.374 25.4344 257.885 25.4344 258.447C25.4344 259.249 25.7104 259.942 26.2625 260.525C26.8146 261.109 27.7364 261.4 29.0281 261.4ZM33.2 253.354H24.6062V252.291H29.5125L26.9812 249.807V248.432L29.2781 250.822L33.2 248.197V249.494L30.0125 251.557L30.7312 252.291H33.2V253.354ZM32.4344 243.291C32.7677 243.687 33.0021 244.067 33.1375 244.432C33.2729 244.786 33.3406 245.171 33.3406 245.588C33.3406 246.275 33.1739 246.801 32.8406 247.166C32.5073 247.531 32.0802 247.713 31.5594 247.713C31.2573 247.713 30.9812 247.645 30.7312 247.51C30.4708 247.374 30.2677 247.192 30.1219 246.963C29.9656 246.734 29.851 246.479 29.7781 246.197C29.7156 245.999 29.6583 245.687 29.6062 245.26C29.5125 244.416 29.3927 243.791 29.2469 243.385C29.101 243.385 29.0125 243.385 28.9812 243.385C28.5437 243.385 28.2364 243.484 28.0594 243.682C27.8302 243.952 27.7156 244.354 27.7156 244.885C27.7156 245.374 27.8041 245.739 27.9812 245.979C28.1479 246.218 28.45 246.395 28.8875 246.51L28.7469 247.541C28.3094 247.447 27.9552 247.291 27.6844 247.072C27.4135 246.854 27.2052 246.541 27.0594 246.135C26.9135 245.729 26.8406 245.26 26.8406 244.729C26.8406 244.197 26.9031 243.765 27.0281 243.432C27.1531 243.098 27.3094 242.854 27.4969 242.697C27.6844 242.541 27.9239 242.432 28.2156 242.369C28.3927 242.338 28.7156 242.322 29.1844 242.322H30.5906C31.5698 242.322 32.1896 242.301 32.45 242.26C32.7104 242.208 32.9604 242.114 33.2 241.979V243.088C32.9812 243.192 32.726 243.26 32.4344 243.291ZM30.075 243.385C30.2312 243.77 30.3666 244.343 30.4812 245.104C30.5437 245.541 30.6166 245.848 30.7 246.025C30.7729 246.202 30.8823 246.343 31.0281 246.447C31.1739 246.541 31.3406 246.588 31.5281 246.588C31.8094 246.588 32.0437 246.484 32.2312 246.275C32.4187 246.057 32.5125 245.744 32.5125 245.338C32.5125 244.932 32.4239 244.572 32.2469 244.26C32.0698 243.937 31.825 243.702 31.5125 243.557C31.2729 243.442 30.9239 243.385 30.4656 243.385H30.075ZM35.5906 240.4L34.6062 240.525C34.6687 240.296 34.7 240.093 34.7 239.916C34.7 239.687 34.6583 239.505 34.575 239.369C34.5021 239.223 34.3979 239.104 34.2625 239.01C34.1479 238.947 33.8823 238.838 33.4656 238.682C33.4135 238.671 33.3302 238.64 33.2156 238.588L26.9812 240.963V239.822L30.575 238.525C31.0333 238.359 31.5177 238.208 32.0281 238.072C31.5385 237.947 31.0646 237.801 30.6062 237.635L26.9812 236.307V235.26L33.3094 237.619C33.9864 237.88 34.4552 238.077 34.7156 238.213C35.0698 238.4 35.325 238.619 35.4812 238.869C35.6479 239.109 35.7312 239.395 35.7312 239.729C35.7312 239.926 35.6844 240.15 35.5906 240.4ZM32.4344 231.291C32.7677 231.687 33.0021 232.067 33.1375 232.432C33.2729 232.786 33.3406 233.171 33.3406 233.588C33.3406 234.275 33.1739 234.801 32.8406 235.166C32.5073 235.531 32.0802 235.713 31.5594 235.713C31.2573 235.713 30.9812 235.645 30.7312 235.51C30.4708 235.374 30.2677 235.192 30.1219 234.963C29.9656 234.734 29.851 234.479 29.7781 234.197C29.7156 233.999 29.6583 233.687 29.6062 233.26C29.5125 232.416 29.3927 231.791 29.2469 231.385C29.101 231.385 29.0125 231.385 28.9812 231.385C28.5437 231.385 28.2364 231.484 28.0594 231.682C27.8302 231.952 27.7156 232.354 27.7156 232.885C27.7156 233.374 27.8041 233.739 27.9812 233.979C28.1479 234.218 28.45 234.395 28.8875 234.51L28.7469 235.541C28.3094 235.447 27.9552 235.291 27.6844 235.072C27.4135 234.854 27.2052 234.541 27.0594 234.135C26.9135 233.729 26.8406 233.26 26.8406 232.729C26.8406 232.197 26.9031 231.765 27.0281 231.432C27.1531 231.098 27.3094 230.854 27.4969 230.697C27.6844 230.541 27.9239 230.432 28.2156 230.369C28.3927 230.338 28.7156 230.322 29.1844 230.322H30.5906C31.5698 230.322 32.1896 230.301 32.45 230.26C32.7104 230.208 32.9604 230.114 33.2 229.979V231.088C32.9812 231.192 32.726 231.26 32.4344 231.291ZM30.075 231.385C30.2312 231.77 30.3666 232.343 30.4812 233.104C30.5437 233.541 30.6166 233.848 30.7 234.025C30.7729 234.202 30.8823 234.343 31.0281 234.447C31.1739 234.541 31.3406 234.588 31.5281 234.588C31.8094 234.588 32.0437 234.484 32.2312 234.275C32.4187 234.057 32.5125 233.744 32.5125 233.338C32.5125 232.932 32.4239 232.572 32.2469 232.26C32.0698 231.937 31.825 231.702 31.5125 231.557C31.2729 231.442 30.9239 231.385 30.4656 231.385H30.075ZM33.2 228.354H26.9812V227.416H27.8562C27.5437 227.218 27.2989 226.958 27.1219 226.635C26.9344 226.312 26.8406 225.942 26.8406 225.525C26.8406 225.067 26.9344 224.692 27.1219 224.4C27.3094 224.098 27.575 223.89 27.9187 223.775C27.2 223.275 26.8406 222.635 26.8406 221.854C26.8406 221.229 27.0125 220.755 27.3562 220.432C27.6896 220.098 28.2156 219.932 28.9344 219.932H33.2V220.979H29.2781C28.8614 220.979 28.5594 221.015 28.3719 221.088C28.1844 221.15 28.0333 221.27 27.9187 221.447C27.8041 221.624 27.7469 221.838 27.7469 222.088C27.7469 222.525 27.8927 222.89 28.1844 223.182C28.476 223.463 28.9448 223.604 29.5906 223.604H33.2V224.666H29.1531C28.6844 224.666 28.3354 224.755 28.1062 224.932C27.8666 225.098 27.7469 225.374 27.7469 225.76C27.7469 226.062 27.825 226.338 27.9812 226.588C28.1375 226.838 28.3666 227.02 28.6687 227.135C28.9708 227.249 29.4031 227.307 29.9656 227.307H33.2V228.354ZM32.4344 213.291C32.7677 213.687 33.0021 214.067 33.1375 214.432C33.2729 214.786 33.3406 215.171 33.3406 215.588C33.3406 216.275 33.1739 216.801 32.8406 217.166C32.5073 217.531 32.0802 217.713 31.5594 217.713C31.2573 217.713 30.9812 217.645 30.7312 217.51C30.4708 217.374 30.2677 217.192 30.1219 216.963C29.9656 216.734 29.851 216.479 29.7781 216.197C29.7156 215.999 29.6583 215.687 29.6062 215.26C29.5125 214.416 29.3927 213.791 29.2469 213.385C29.101 213.385 29.0125 213.385 28.9812 213.385C28.5437 213.385 28.2364 213.484 28.0594 213.682C27.8302 213.952 27.7156 214.354 27.7156 214.885C27.7156 215.374 27.8041 215.739 27.9812 215.979C28.1479 216.218 28.45 216.395 28.8875 216.51L28.7469 217.541C28.3094 217.447 27.9552 217.291 27.6844 217.072C27.4135 216.854 27.2052 216.541 27.0594 216.135C26.9135 215.729 26.8406 215.26 26.8406 214.729C26.8406 214.197 26.9031 213.765 27.0281 213.432C27.1531 213.098 27.3094 212.854 27.4969 212.697C27.6844 212.541 27.9239 212.432 28.2156 212.369C28.3927 212.338 28.7156 212.322 29.1844 212.322H30.5906C31.5698 212.322 32.1896 212.301 32.45 212.26C32.7104 212.208 32.9604 212.114 33.2 211.979V213.088C32.9812 213.192 32.726 213.26 32.4344 213.291ZM30.075 213.385C30.2312 213.77 30.3666 214.343 30.4812 215.104C30.5437 215.541 30.6166 215.848 30.7 216.025C30.7729 216.202 30.8823 216.343 31.0281 216.447C31.1739 216.541 31.3406 216.588 31.5281 216.588C31.8094 216.588 32.0437 216.484 32.2312 216.275C32.4187 216.057 32.5125 215.744 32.5125 215.338C32.5125 214.932 32.4239 214.572 32.2469 214.26C32.0698 213.937 31.825 213.702 31.5125 213.557C31.2729 213.442 30.9239 213.385 30.4656 213.385H30.075Z" fill="black"/>
<path d="M75.7 369.565C75.7 368.545 75.8042 367.727 76.0125 367.112C76.2208 366.487 76.5281 366.008 76.9344 365.675C77.351 365.341 77.8719 365.175 78.4969 365.175C78.9552 365.175 79.3562 365.269 79.7 365.456C80.0542 365.644 80.3458 365.914 80.575 366.269C80.8042 366.612 80.9812 367.034 81.1062 367.534C81.2312 368.034 81.2937 368.711 81.2937 369.565C81.2937 370.576 81.1896 371.388 80.9812 372.003C80.7833 372.618 80.476 373.097 80.0594 373.44C79.6531 373.774 79.1323 373.94 78.4969 373.94C77.674 373.94 77.0229 373.644 76.5437 373.05C75.9812 372.341 75.7 371.18 75.7 369.565ZM76.7781 369.565C76.7781 370.972 76.9448 371.909 77.2781 372.378C77.6115 372.847 78.0177 373.081 78.4969 373.081C78.9865 373.081 79.3927 372.847 79.7156 372.378C80.049 371.909 80.2156 370.972 80.2156 369.565C80.2156 368.149 80.049 367.211 79.7156 366.753C79.3927 366.284 78.9812 366.05 78.4812 366.05C78.0021 366.05 77.6167 366.253 77.325 366.659C76.9604 367.18 76.7781 368.149 76.7781 369.565Z" fill="black"/>
<path d="M58.6687 318.14H57.6219V311.421C57.3615 311.66 57.0229 311.905 56.6062 312.155C56.2 312.395 55.8354 312.572 55.5125 312.687V311.671C56.0958 311.39 56.6062 311.056 57.0437 310.671C57.4917 310.275 57.8094 309.89 57.9969 309.515H58.6687V318.14ZM61.7 313.905C61.7 312.884 61.8042 312.067 62.0125 311.452C62.2208 310.827 62.5281 310.348 62.9344 310.015C63.351 309.681 63.8719 309.515 64.4969 309.515C64.9552 309.515 65.3562 309.608 65.7 309.796C66.0542 309.983 66.3458 310.254 66.575 310.608C66.8042 310.952 66.9812 311.374 67.1062 311.874C67.2312 312.374 67.2937 313.051 67.2937 313.905C67.2937 314.916 67.1896 315.728 66.9812 316.343C66.7833 316.957 66.476 317.437 66.0594 317.78C65.6531 318.114 65.1323 318.28 64.4969 318.28C63.674 318.28 63.0229 317.983 62.5437 317.39C61.9812 316.681 61.7 315.52 61.7 313.905ZM62.7781 313.905C62.7781 315.312 62.9448 316.249 63.2781 316.718C63.6115 317.187 64.0177 317.421 64.4969 317.421C64.9865 317.421 65.3927 317.187 65.7156 316.718C66.049 316.249 66.2156 315.312 66.2156 313.905C66.2156 312.489 66.049 311.551 65.7156 311.093C65.3927 310.624 64.9812 310.39 64.4812 310.39C64.0021 310.39 63.6167 310.593 63.325 310.999C62.9604 311.52 62.7781 312.489 62.7781 313.905ZM68.7 313.905C68.7 312.884 68.8042 312.067 69.0125 311.452C69.2208 310.827 69.5281 310.348 69.9344 310.015C70.351 309.681 70.8719 309.515 71.4969 309.515C71.9552 309.515 72.3562 309.608 72.7 309.796C73.0542 309.983 73.3458 310.254 73.575 310.608C73.8042 310.952 73.9812 311.374 74.1062 311.874C74.2312 312.374 74.2937 313.051 74.2937 313.905C74.2937 314.916 74.1896 315.728 73.9812 316.343C73.7833 316.957 73.476 317.437 73.0594 317.78C72.6531 318.114 72.1323 318.28 71.4969 318.28C70.674 318.28 70.0229 317.983 69.5437 317.39C68.9812 316.681 68.7 315.52 68.7 313.905ZM69.7781 313.905C69.7781 315.312 69.9448 316.249 70.2781 316.718C70.6115 317.187 71.0177 317.421 71.4969 317.421C71.9865 317.421 72.3927 317.187 72.7156 316.718C73.049 316.249 73.2156 315.312 73.2156 313.905C73.2156 312.489 73.049 311.551 72.7156 311.093C72.3927 310.624 71.9812 310.39 71.4812 310.39C71.0021 310.39 70.6167 310.593 70.325 310.999C69.9604 311.52 69.7781 312.489 69.7781 313.905ZM75.7 313.905C75.7 312.884 75.8042 312.067 76.0125 311.452C76.2208 310.827 76.5281 310.348 76.9344 310.015C77.351 309.681 77.8719 309.515 78.4969 309.515C78.9552 309.515 79.3562 309.608 79.7 309.796C80.0542 309.983 80.3458 310.254 80.575 310.608C80.8042 310.952 80.9812 311.374 81.1062 311.874C81.2312 312.374 81.2937 313.051 81.2937 313.905C81.2937 314.916 81.1896 315.728 80.9812 316.343C80.7833 316.957 80.476 317.437 80.0594 317.78C79.6531 318.114 79.1323 318.28 78.4969 318.28C77.674 318.28 77.0229 317.983 76.5437 317.39C75.9812 316.681 75.7 315.52 75.7 313.905ZM76.7781 313.905C76.7781 315.312 76.9448 316.249 77.2781 316.718C77.6115 317.187 78.0177 317.421 78.4969 317.421C78.9865 317.421 79.3927 317.187 79.7156 316.718C80.049 316.249 80.2156 315.312 80.2156 313.905C80.2156 312.489 80.049 311.551 79.7156 311.093C79.3927 310.624 78.9812 310.39 78.4812 310.39C78.0021 310.39 77.6167 310.593 77.325 310.999C76.9604 311.52 76.7781 312.489 76.7781 313.905Z" fill="black"/>
<path d="M60.2469 261.465V262.48H54.5594C54.5594 262.23 54.601 261.986 54.6844 261.746C54.8302 261.361 55.0594 260.98 55.3719 260.605C55.6948 260.23 56.1583 259.798 56.7625 259.309C57.7 258.538 58.3302 257.928 58.6531 257.48C58.9865 257.033 59.1531 256.611 59.1531 256.215C59.1531 255.798 59.0021 255.449 58.7 255.168C58.3979 254.876 58.0073 254.73 57.5281 254.73C57.0177 254.73 56.6115 254.882 56.3094 255.184C56.0073 255.486 55.851 255.908 55.8406 256.449L54.7625 256.34C54.8354 255.527 55.1115 254.913 55.5906 254.496C56.0802 254.069 56.7365 253.855 57.5594 253.855C58.3823 253.855 59.0333 254.085 59.5125 254.543C59.9917 255.001 60.2312 255.569 60.2312 256.246C60.2312 256.59 60.1583 256.928 60.0125 257.262C59.8771 257.585 59.6427 257.934 59.3094 258.309C58.9865 258.673 58.45 259.173 57.7 259.809C57.0646 260.34 56.6531 260.704 56.4656 260.902C56.2885 261.09 56.1427 261.277 56.0281 261.465H60.2469ZM61.7 258.246C61.7 257.225 61.8042 256.408 62.0125 255.793C62.2208 255.168 62.5281 254.689 62.9344 254.355C63.351 254.022 63.8719 253.855 64.4969 253.855C64.9552 253.855 65.3562 253.949 65.7 254.137C66.0542 254.324 66.3458 254.595 66.575 254.949C66.8042 255.293 66.9812 255.715 67.1062 256.215C67.2312 256.715 67.2937 257.392 67.2937 258.246C67.2937 259.257 67.1896 260.069 66.9812 260.684C66.7833 261.298 66.476 261.777 66.0594 262.121C65.6531 262.454 65.1323 262.621 64.4969 262.621C63.674 262.621 63.0229 262.324 62.5437 261.73C61.9812 261.022 61.7 259.861 61.7 258.246ZM62.7781 258.246C62.7781 259.652 62.9448 260.59 63.2781 261.059C63.6115 261.527 64.0177 261.762 64.4969 261.762C64.9865 261.762 65.3927 261.527 65.7156 261.059C66.049 260.59 66.2156 259.652 66.2156 258.246C66.2156 256.829 66.049 255.892 65.7156 255.434C65.3927 254.965 64.9812 254.73 64.4812 254.73C64.0021 254.73 63.6167 254.934 63.325 255.34C62.9604 255.861 62.7781 256.829 62.7781 258.246ZM68.7 258.246C68.7 257.225 68.8042 256.408 69.0125 255.793C69.2208 255.168 69.5281 254.689 69.9344 254.355C70.351 254.022 70.8719 253.855 71.4969 253.855C71.9552 253.855 72.3562 253.949 72.7 254.137C73.0542 254.324 73.3458 254.595 73.575 254.949C73.8042 255.293 73.9812 255.715 74.1062 256.215C74.2312 256.715 74.2937 257.392 74.2937 258.246C74.2937 259.257 74.1896 260.069 73.9812 260.684C73.7833 261.298 73.476 261.777 73.0594 262.121C72.6531 262.454 72.1323 262.621 71.4969 262.621C70.674 262.621 70.0229 262.324 69.5437 261.73C68.9812 261.022 68.7 259.861 68.7 258.246ZM69.7781 258.246C69.7781 259.652 69.9448 260.59 70.2781 261.059C70.6115 261.527 71.0177 261.762 71.4969 261.762C71.9865 261.762 72.3927 261.527 72.7156 261.059C73.049 260.59 73.2156 259.652 73.2156 258.246C73.2156 256.829 73.049 255.892 72.7156 255.434C72.3927 254.965 71.9812 254.73 71.4812 254.73C71.0021 254.73 70.6167 254.934 70.325 255.34C69.9604 255.861 69.7781 256.829 69.7781 258.246ZM75.7 258.246C75.7 257.225 75.8042 256.408 76.0125 255.793C76.2208 255.168 76.5281 254.689 76.9344 254.355C77.351 254.022 77.8719 253.855 78.4969 253.855C78.9552 253.855 79.3562 253.949 79.7 254.137C80.0542 254.324 80.3458 254.595 80.575 254.949C80.8042 255.293 80.9812 255.715 81.1062 256.215C81.2312 256.715 81.2937 257.392 81.2937 258.246C81.2937 259.257 81.1896 260.069 80.9812 260.684C80.7833 261.298 80.476 261.777 80.0594 262.121C79.6531 262.454 79.1323 262.621 78.4969 262.621C77.674 262.621 77.0229 262.324 76.5437 261.73C75.9812 261.022 75.7 259.861 75.7 258.246ZM76.7781 258.246C76.7781 259.652 76.9448 260.59 77.2781 261.059C77.6115 261.527 78.0177 261.762 78.4969 261.762C78.9865 261.762 79.3927 261.527 79.7156 261.059C80.049 260.59 80.2156 259.652 80.2156 258.246C80.2156 256.829 80.049 255.892 79.7156 255.434C79.3927 254.965 78.9812 254.73 78.4812 254.73C78.0021 254.73 77.6167 254.934 77.325 255.34C76.9604 255.861 76.7781 256.829 76.7781 258.246Z" fill="black"/>
<path d="M54.7 204.555L55.7625 204.414C55.8771 205.008 56.0802 205.44 56.3719 205.711C56.6635 205.971 57.0177 206.102 57.4344 206.102C57.9344 206.102 58.3562 205.93 58.7 205.586C59.0437 205.242 59.2156 204.815 59.2156 204.305C59.2156 203.826 59.0542 203.43 58.7312 203.117C58.4187 202.794 58.0177 202.633 57.5281 202.633C57.3302 202.633 57.0802 202.674 56.7781 202.758L56.9031 201.82C56.976 201.831 57.0333 201.836 57.075 201.836C57.5229 201.836 57.924 201.721 58.2781 201.492C58.6427 201.253 58.825 200.888 58.825 200.398C58.825 200.013 58.6948 199.695 58.4344 199.445C58.174 199.185 57.8354 199.055 57.4187 199.055C57.0125 199.055 56.6687 199.185 56.3875 199.445C56.1167 199.706 55.9448 200.091 55.8719 200.602L54.8094 200.414C54.9344 199.716 55.226 199.174 55.6844 198.789C56.1427 198.393 56.7104 198.195 57.3875 198.195C57.8562 198.195 58.2885 198.299 58.6844 198.508C59.0802 198.706 59.3823 198.977 59.5906 199.32C59.799 199.664 59.9031 200.034 59.9031 200.43C59.9031 200.794 59.8042 201.133 59.6062 201.445C59.4083 201.747 59.1167 201.987 58.7312 202.164C59.2312 202.279 59.6219 202.523 59.9031 202.898C60.1844 203.263 60.325 203.727 60.325 204.289C60.325 205.039 60.049 205.674 59.4969 206.195C58.9552 206.716 58.2677 206.977 57.4344 206.977C56.6844 206.977 56.0594 206.753 55.5594 206.305C55.0594 205.846 54.7729 205.263 54.7 204.555ZM61.7 202.586C61.7 201.565 61.8042 200.747 62.0125 200.133C62.2208 199.508 62.5281 199.029 62.9344 198.695C63.351 198.362 63.8719 198.195 64.4969 198.195C64.9552 198.195 65.3562 198.289 65.7 198.477C66.0542 198.664 66.3458 198.935 66.575 199.289C66.8042 199.633 66.9812 200.055 67.1062 200.555C67.2312 201.055 67.2937 201.732 67.2937 202.586C67.2937 203.596 67.1896 204.409 66.9812 205.023C66.7833 205.638 66.476 206.117 66.0594 206.461C65.6531 206.794 65.1323 206.961 64.4969 206.961C63.674 206.961 63.0229 206.664 62.5437 206.07C61.9812 205.362 61.7 204.201 61.7 202.586ZM62.7781 202.586C62.7781 203.992 62.9448 204.93 63.2781 205.398C63.6115 205.867 64.0177 206.102 64.4969 206.102C64.9865 206.102 65.3927 205.867 65.7156 205.398C66.049 204.93 66.2156 203.992 66.2156 202.586C66.2156 201.169 66.049 200.232 65.7156 199.773C65.3927 199.305 64.9812 199.07 64.4812 199.07C64.0021 199.07 63.6167 199.273 63.325 199.68C62.9604 200.201 62.7781 201.169 62.7781 202.586ZM68.7 202.586C68.7 201.565 68.8042 200.747 69.0125 200.133C69.2208 199.508 69.5281 199.029 69.9344 198.695C70.351 198.362 70.8719 198.195 71.4969 198.195C71.9552 198.195 72.3562 198.289 72.7 198.477C73.0542 198.664 73.3458 198.935 73.575 199.289C73.8042 199.633 73.9812 200.055 74.1062 200.555C74.2312 201.055 74.2937 201.732 74.2937 202.586C74.2937 203.596 74.1896 204.409 73.9812 205.023C73.7833 205.638 73.476 206.117 73.0594 206.461C72.6531 206.794 72.1323 206.961 71.4969 206.961C70.674 206.961 70.0229 206.664 69.5437 206.07C68.9812 205.362 68.7 204.201 68.7 202.586ZM69.7781 202.586C69.7781 203.992 69.9448 204.93 70.2781 205.398C70.6115 205.867 71.0177 206.102 71.4969 206.102C71.9865 206.102 72.3927 205.867 72.7156 205.398C73.049 204.93 73.2156 203.992 73.2156 202.586C73.2156 201.169 73.049 200.232 72.7156 199.773C72.3927 199.305 71.9812 199.07 71.4812 199.07C71.0021 199.07 70.6167 199.273 70.325 199.68C69.9604 200.201 69.7781 201.169 69.7781 202.586ZM75.7 202.586C75.7 201.565 75.8042 200.747 76.0125 200.133C76.2208 199.508 76.5281 199.029 76.9344 198.695C77.351 198.362 77.8719 198.195 78.4969 198.195C78.9552 198.195 79.3562 198.289 79.7 198.477C80.0542 198.664 80.3458 198.935 80.575 199.289C80.8042 199.633 80.9812 200.055 81.1062 200.555C81.2312 201.055 81.2937 201.732 81.2937 202.586C81.2937 203.596 81.1896 204.409 80.9812 205.023C80.7833 205.638 80.476 206.117 80.0594 206.461C79.6531 206.794 79.1323 206.961 78.4969 206.961C77.674 206.961 77.0229 206.664 76.5437 206.07C75.9812 205.362 75.7 204.201 75.7 202.586ZM76.7781 202.586C76.7781 203.992 76.9448 204.93 77.2781 205.398C77.6115 205.867 78.0177 206.102 78.4969 206.102C78.9865 206.102 79.3927 205.867 79.7156 205.398C80.049 204.93 80.2156 203.992 80.2156 202.586C80.2156 201.169 80.049 200.232 79.7156 199.773C79.3927 199.305 78.9812 199.07 78.4812 199.07C78.0021 199.07 77.6167 199.273 77.325 199.68C76.9604 200.201 76.7781 201.169 76.7781 202.586Z" fill="black"/>
<path d="M58.075 151.16V149.098H54.3562V148.129L58.2781 142.566H59.1375V148.129H60.2937V149.098H59.1375V151.16H58.075ZM58.075 148.129V144.27L55.3875 148.129H58.075ZM61.7 146.926C61.7 145.905 61.8042 145.087 62.0125 144.473C62.2208 143.848 62.5281 143.368 62.9344 143.035C63.351 142.702 63.8719 142.535 64.4969 142.535C64.9552 142.535 65.3562 142.629 65.7 142.816C66.0542 143.004 66.3458 143.275 66.575 143.629C66.8042 143.973 66.9812 144.395 67.1062 144.895C67.2312 145.395 67.2937 146.072 67.2937 146.926C67.2937 147.936 67.1896 148.749 66.9812 149.363C66.7833 149.978 66.476 150.457 66.0594 150.801C65.6531 151.134 65.1323 151.301 64.4969 151.301C63.674 151.301 63.0229 151.004 62.5437 150.41C61.9812 149.702 61.7 148.54 61.7 146.926ZM62.7781 146.926C62.7781 148.332 62.9448 149.27 63.2781 149.738C63.6115 150.207 64.0177 150.441 64.4969 150.441C64.9865 150.441 65.3927 150.207 65.7156 149.738C66.049 149.27 66.2156 148.332 66.2156 146.926C66.2156 145.509 66.049 144.572 65.7156 144.113C65.3927 143.645 64.9812 143.41 64.4812 143.41C64.0021 143.41 63.6167 143.613 63.325 144.02C62.9604 144.54 62.7781 145.509 62.7781 146.926ZM68.7 146.926C68.7 145.905 68.8042 145.087 69.0125 144.473C69.2208 143.848 69.5281 143.368 69.9344 143.035C70.351 142.702 70.8719 142.535 71.4969 142.535C71.9552 142.535 72.3562 142.629 72.7 142.816C73.0542 143.004 73.3458 143.275 73.575 143.629C73.8042 143.973 73.9812 144.395 74.1062 144.895C74.2312 145.395 74.2937 146.072 74.2937 146.926C74.2937 147.936 74.1896 148.749 73.9812 149.363C73.7833 149.978 73.476 150.457 73.0594 150.801C72.6531 151.134 72.1323 151.301 71.4969 151.301C70.674 151.301 70.0229 151.004 69.5437 150.41C68.9812 149.702 68.7 148.54 68.7 146.926ZM69.7781 146.926C69.7781 148.332 69.9448 149.27 70.2781 149.738C70.6115 150.207 71.0177 150.441 71.4969 150.441C71.9865 150.441 72.3927 150.207 72.7156 149.738C73.049 149.27 73.2156 148.332 73.2156 146.926C73.2156 145.509 73.049 144.572 72.7156 144.113C72.3927 143.645 71.9812 143.41 71.4812 143.41C71.0021 143.41 70.6167 143.613 70.325 144.02C69.9604 144.54 69.7781 145.509 69.7781 146.926ZM75.7 146.926C75.7 145.905 75.8042 145.087 76.0125 144.473C76.2208 143.848 76.5281 143.368 76.9344 143.035C77.351 142.702 77.8719 142.535 78.4969 142.535C78.9552 142.535 79.3562 142.629 79.7 142.816C80.0542 143.004 80.3458 143.275 80.575 143.629C80.8042 143.973 80.9812 144.395 81.1062 144.895C81.2312 145.395 81.2937 146.072 81.2937 146.926C81.2937 147.936 81.1896 148.749 80.9812 149.363C80.7833 149.978 80.476 150.457 80.0594 150.801C79.6531 151.134 79.1323 151.301 78.4969 151.301C77.674 151.301 77.0229 151.004 76.5437 150.41C75.9812 149.702 75.7 148.54 75.7 146.926ZM76.7781 146.926C76.7781 148.332 76.9448 149.27 77.2781 149.738C77.6115 150.207 78.0177 150.441 78.4969 150.441C78.9865 150.441 79.3927 150.207 79.7156 149.738C80.049 149.27 80.2156 148.332 80.2156 146.926C80.2156 145.509 80.049 144.572 79.7156 144.113C79.3927 143.645 78.9812 143.41 78.4812 143.41C78.0021 143.41 77.6167 143.613 77.325 144.02C76.9604 144.54 76.7781 145.509 76.7781 146.926Z" fill="black"/>
<path d="M54.7 93.25L55.8094 93.1562C55.8927 93.6979 56.0802 94.1042 56.3719 94.375C56.674 94.6458 57.0385 94.7812 57.4656 94.7812C57.9656 94.7812 58.3927 94.5885 58.7469 94.2031C59.101 93.8177 59.2781 93.3125 59.2781 92.6875C59.2781 92.0833 59.1062 91.6094 58.7625 91.2656C58.4292 90.9115 57.9865 90.7344 57.4344 90.7344C57.101 90.7344 56.7937 90.8125 56.5125 90.9688C56.2417 91.125 56.0281 91.3229 55.8719 91.5625L54.8875 91.4375L55.7156 87.0312H59.9969V88.0312H56.5594L56.1062 90.3438C56.6167 89.9792 57.1531 89.7969 57.7156 89.7969C58.4656 89.7969 59.0958 90.0573 59.6062 90.5781C60.1271 91.099 60.3875 91.7708 60.3875 92.5938C60.3875 93.3646 60.1635 94.0365 59.7156 94.6094C59.1635 95.2969 58.4135 95.6406 57.4656 95.6406C56.6844 95.6406 56.0437 95.4219 55.5437 94.9844C55.0542 94.5469 54.7729 93.9688 54.7 93.25ZM61.7 91.2656C61.7 90.2448 61.8042 89.4271 62.0125 88.8125C62.2208 88.1875 62.5281 87.7083 62.9344 87.375C63.351 87.0417 63.8719 86.875 64.4969 86.875C64.9552 86.875 65.3562 86.9688 65.7 87.1562C66.0542 87.3438 66.3458 87.6146 66.575 87.9688C66.8042 88.3125 66.9812 88.7344 67.1062 89.2344C67.2312 89.7344 67.2937 90.4115 67.2937 91.2656C67.2937 92.276 67.1896 93.0885 66.9812 93.7031C66.7833 94.3177 66.476 94.7969 66.0594 95.1406C65.6531 95.474 65.1323 95.6406 64.4969 95.6406C63.674 95.6406 63.0229 95.3438 62.5437 94.75C61.9812 94.0417 61.7 92.8802 61.7 91.2656ZM62.7781 91.2656C62.7781 92.6719 62.9448 93.6094 63.2781 94.0781C63.6115 94.5469 64.0177 94.7812 64.4969 94.7812C64.9865 94.7812 65.3927 94.5469 65.7156 94.0781C66.049 93.6094 66.2156 92.6719 66.2156 91.2656C66.2156 89.849 66.049 88.9115 65.7156 88.4531C65.3927 87.9844 64.9812 87.75 64.4812 87.75C64.0021 87.75 63.6167 87.9531 63.325 88.3594C62.9604 88.8802 62.7781 89.849 62.7781 91.2656ZM68.7 91.2656C68.7 90.2448 68.8042 89.4271 69.0125 88.8125C69.2208 88.1875 69.5281 87.7083 69.9344 87.375C70.351 87.0417 70.8719 86.875 71.4969 86.875C71.9552 86.875 72.3562 86.9688 72.7 87.1562C73.0542 87.3438 73.3458 87.6146 73.575 87.9688C73.8042 88.3125 73.9812 88.7344 74.1062 89.2344C74.2312 89.7344 74.2937 90.4115 74.2937 91.2656C74.2937 92.276 74.1896 93.0885 73.9812 93.7031C73.7833 94.3177 73.476 94.7969 73.0594 95.1406C72.6531 95.474 72.1323 95.6406 71.4969 95.6406C70.674 95.6406 70.0229 95.3438 69.5437 94.75C68.9812 94.0417 68.7 92.8802 68.7 91.2656ZM69.7781 91.2656C69.7781 92.6719 69.9448 93.6094 70.2781 94.0781C70.6115 94.5469 71.0177 94.7812 71.4969 94.7812C71.9865 94.7812 72.3927 94.5469 72.7156 94.0781C73.049 93.6094 73.2156 92.6719 73.2156 91.2656C73.2156 89.849 73.049 88.9115 72.7156 88.4531C72.3927 87.9844 71.9812 87.75 71.4812 87.75C71.0021 87.75 70.6167 87.9531 70.325 88.3594C69.9604 88.8802 69.7781 89.849 69.7781 91.2656ZM75.7 91.2656C75.7 90.2448 75.8042 89.4271 76.0125 88.8125C76.2208 88.1875 76.5281 87.7083 76.9344 87.375C77.351 87.0417 77.8719 86.875 78.4969 86.875C78.9552 86.875 79.3562 86.9688 79.7 87.1562C80.0542 87.3438 80.3458 87.6146 80.575 87.9688C80.8042 88.3125 80.9812 88.7344 81.1062 89.2344C81.2312 89.7344 81.2937 90.4115 81.2937 91.2656C81.2937 92.276 81.1896 93.0885 80.9812 93.7031C80.7833 94.3177 80.476 94.7969 80.0594 95.1406C79.6531 95.474 79.1323 95.6406 78.4969 95.6406C77.674 95.6406 77.0229 95.3438 76.5437 94.75C75.9812 94.0417 75.7 92.8802 75.7 91.2656ZM76.7781 91.2656C76.7781 92.6719 76.9448 93.6094 77.2781 94.0781C77.6115 94.5469 78.0177 94.7812 78.4969 94.7812C78.9865 94.7812 79.3927 94.5469 79.7156 94.0781C80.049 93.6094 80.2156 92.6719 80.2156 91.2656C80.2156 89.849 80.049 88.9115 79.7156 88.4531C79.3927 87.9844 78.9812 87.75 78.4812 87.75C78.0021 87.75 77.6167 87.9531 77.325 88.3594C76.9604 88.8802 76.7781 89.849 76.7781 91.2656Z" fill="black"/>
<path d="M168.052 386.8V384.737H164.333V383.769L168.255 378.206H169.114V383.769H170.271V384.737H169.114V386.8H168.052ZM168.052 383.769V379.909L165.364 383.769H168.052ZM175.052 386.8V384.737H171.333V383.769L175.255 378.206H176.114V383.769H177.271V384.737H176.114V386.8H175.052ZM175.052 383.769V379.909L172.364 383.769H175.052ZM178.677 382.565C178.677 381.545 178.781 380.727 178.989 380.112C179.198 379.487 179.505 379.008 179.911 378.675C180.328 378.341 180.849 378.175 181.474 378.175C181.932 378.175 182.333 378.269 182.677 378.456C183.031 378.644 183.323 378.914 183.552 379.269C183.781 379.612 183.958 380.034 184.083 380.534C184.208 381.034 184.271 381.711 184.271 382.565C184.271 383.576 184.167 384.388 183.958 385.003C183.76 385.618 183.453 386.097 183.036 386.44C182.63 386.774 182.109 386.94 181.474 386.94C180.651 386.94 180 386.644 179.521 386.05C178.958 385.341 178.677 384.18 178.677 382.565ZM179.755 382.565C179.755 383.972 179.922 384.909 180.255 385.378C180.588 385.847 180.995 386.081 181.474 386.081C181.963 386.081 182.37 385.847 182.693 385.378C183.026 384.909 183.193 383.972 183.193 382.565C183.193 381.149 183.026 380.211 182.693 379.753C182.37 379.284 181.958 379.05 181.458 379.05C180.979 379.05 180.594 379.253 180.302 379.659C179.937 380.18 179.755 381.149 179.755 382.565ZM185.677 382.565C185.677 381.545 185.781 380.727 185.989 380.112C186.198 379.487 186.505 379.008 186.911 378.675C187.328 378.341 187.849 378.175 188.474 378.175C188.932 378.175 189.333 378.269 189.677 378.456C190.031 378.644 190.323 378.914 190.552 379.269C190.781 379.612 190.958 380.034 191.083 380.534C191.208 381.034 191.271 381.711 191.271 382.565C191.271 383.576 191.167 384.388 190.958 385.003C190.76 385.618 190.453 386.097 190.036 386.44C189.63 386.774 189.109 386.94 188.474 386.94C187.651 386.94 187 386.644 186.521 386.05C185.958 385.341 185.677 384.18 185.677 382.565ZM186.755 382.565C186.755 383.972 186.922 384.909 187.255 385.378C187.588 385.847 187.995 386.081 188.474 386.081C188.963 386.081 189.37 385.847 189.693 385.378C190.026 384.909 190.193 383.972 190.193 382.565C190.193 381.149 190.026 380.211 189.693 379.753C189.37 379.284 188.958 379.05 188.458 379.05C187.979 379.05 187.594 379.253 187.302 379.659C186.937 380.18 186.755 381.149 186.755 382.565ZM192.677 382.565C192.677 381.545 192.781 380.727 192.989 380.112C193.198 379.487 193.505 379.008 193.911 378.675C194.328 378.341 194.849 378.175 195.474 378.175C195.932 378.175 196.333 378.269 196.677 378.456C197.031 378.644 197.323 378.914 197.552 379.269C197.781 379.612 197.958 380.034 198.083 380.534C198.208 381.034 198.271 381.711 198.271 382.565C198.271 383.576 198.167 384.388 197.958 385.003C197.76 385.618 197.453 386.097 197.036 386.44C196.63 386.774 196.109 386.94 195.474 386.94C194.651 386.94 194 386.644 193.521 386.05C192.958 385.341 192.677 384.18 192.677 382.565ZM193.755 382.565C193.755 383.972 193.922 384.909 194.255 385.378C194.588 385.847 194.995 386.081 195.474 386.081C195.963 386.081 196.37 385.847 196.693 385.378C197.026 384.909 197.193 383.972 197.193 382.565C197.193 381.149 197.026 380.211 196.693 379.753C196.37 379.284 195.958 379.05 195.458 379.05C194.979 379.05 194.594 379.253 194.302 379.659C193.937 380.18 193.755 381.149 193.755 382.565Z" fill="black"/>
<path d="M289.451 386.8V384.737H285.732V383.769L289.654 378.206H290.513V383.769H291.669V384.737H290.513V386.8H289.451ZM289.451 383.769V379.909L286.763 383.769H289.451ZM296.451 386.8V384.737H292.732V383.769L296.654 378.206H297.513V383.769H298.669V384.737H297.513V386.8H296.451ZM296.451 383.769V379.909L293.763 383.769H296.451ZM305.622 385.784V386.8H299.935C299.935 386.55 299.977 386.305 300.06 386.065C300.206 385.68 300.435 385.3 300.747 384.925C301.07 384.55 301.534 384.118 302.138 383.628C303.076 382.857 303.706 382.248 304.029 381.8C304.362 381.352 304.529 380.93 304.529 380.534C304.529 380.118 304.378 379.769 304.076 379.487C303.773 379.196 303.383 379.05 302.904 379.05C302.393 379.05 301.987 379.201 301.685 379.503C301.383 379.805 301.227 380.227 301.216 380.769L300.138 380.659C300.211 379.847 300.487 379.232 300.966 378.815C301.456 378.388 302.112 378.175 302.935 378.175C303.758 378.175 304.409 378.404 304.888 378.862C305.367 379.321 305.607 379.888 305.607 380.565C305.607 380.909 305.534 381.248 305.388 381.581C305.253 381.904 305.018 382.253 304.685 382.628C304.362 382.993 303.826 383.493 303.076 384.128C302.44 384.659 302.029 385.024 301.841 385.222C301.664 385.409 301.518 385.597 301.404 385.784H305.622ZM307.076 382.565C307.076 381.545 307.18 380.727 307.388 380.112C307.596 379.487 307.904 379.008 308.31 378.675C308.727 378.341 309.247 378.175 309.872 378.175C310.331 378.175 310.732 378.269 311.076 378.456C311.43 378.644 311.721 378.914 311.951 379.269C312.18 379.612 312.357 380.034 312.482 380.534C312.607 381.034 312.669 381.711 312.669 382.565C312.669 383.576 312.565 384.388 312.357 385.003C312.159 385.618 311.852 386.097 311.435 386.44C311.029 386.774 310.508 386.94 309.872 386.94C309.049 386.94 308.398 386.644 307.919 386.05C307.357 385.341 307.076 384.18 307.076 382.565ZM308.154 382.565C308.154 383.972 308.32 384.909 308.654 385.378C308.987 385.847 309.393 386.081 309.872 386.081C310.362 386.081 310.768 385.847 311.091 385.378C311.424 384.909 311.591 383.972 311.591 382.565C311.591 381.149 311.424 380.211 311.091 379.753C310.768 379.284 310.357 379.05 309.857 379.05C309.378 379.05 308.992 379.253 308.701 379.659C308.336 380.18 308.154 381.149 308.154 382.565ZM314.076 382.565C314.076 381.545 314.18 380.727 314.388 380.112C314.596 379.487 314.904 379.008 315.31 378.675C315.727 378.341 316.247 378.175 316.872 378.175C317.331 378.175 317.732 378.269 318.076 378.456C318.43 378.644 318.721 378.914 318.951 379.269C319.18 379.612 319.357 380.034 319.482 380.534C319.607 381.034 319.669 381.711 319.669 382.565C319.669 383.576 319.565 384.388 319.357 385.003C319.159 385.618 318.852 386.097 318.435 386.44C318.029 386.774 317.508 386.94 316.872 386.94C316.049 386.94 315.398 386.644 314.919 386.05C314.357 385.341 314.076 384.18 314.076 382.565ZM315.154 382.565C315.154 383.972 315.32 384.909 315.654 385.378C315.987 385.847 316.393 386.081 316.872 386.081C317.362 386.081 317.768 385.847 318.091 385.378C318.424 384.909 318.591 383.972 318.591 382.565C318.591 381.149 318.424 380.211 318.091 379.753C317.768 379.284 317.357 379.05 316.857 379.05C316.378 379.05 315.992 379.253 315.701 379.659C315.336 380.18 315.154 381.149 315.154 382.565Z" fill="black"/>
<path d="M410.849 386.8V384.737H407.13V383.769L411.052 378.206H411.912V383.769H413.068V384.737H411.912V386.8H410.849ZM410.849 383.769V379.909L408.162 383.769H410.849ZM417.849 386.8V384.737H414.13V383.769L418.052 378.206H418.912V383.769H420.068V384.737H418.912V386.8H417.849ZM417.849 383.769V379.909L415.162 383.769H417.849ZM424.849 386.8V384.737H421.13V383.769L425.052 378.206H425.912V383.769H427.068V384.737H425.912V386.8H424.849ZM424.849 383.769V379.909L422.162 383.769H424.849ZM428.474 382.565C428.474 381.545 428.578 380.727 428.787 380.112C428.995 379.487 429.302 379.008 429.708 378.675C430.125 378.341 430.646 378.175 431.271 378.175C431.729 378.175 432.13 378.269 432.474 378.456C432.828 378.644 433.12 378.914 433.349 379.269C433.578 379.612 433.755 380.034 433.88 380.534C434.005 381.034 434.068 381.711 434.068 382.565C434.068 383.576 433.964 384.388 433.755 385.003C433.557 385.618 433.25 386.097 432.833 386.44C432.427 386.774 431.906 386.94 431.271 386.94C430.448 386.94 429.797 386.644 429.318 386.05C428.755 385.341 428.474 384.18 428.474 382.565ZM429.552 382.565C429.552 383.972 429.719 384.909 430.052 385.378C430.386 385.847 430.792 386.081 431.271 386.081C431.761 386.081 432.167 385.847 432.49 385.378C432.823 384.909 432.99 383.972 432.99 382.565C432.99 381.149 432.823 380.211 432.49 379.753C432.167 379.284 431.755 379.05 431.255 379.05C430.776 379.05 430.391 379.253 430.099 379.659C429.735 380.18 429.552 381.149 429.552 382.565ZM435.474 382.565C435.474 381.545 435.578 380.727 435.787 380.112C435.995 379.487 436.302 379.008 436.708 378.675C437.125 378.341 437.646 378.175 438.271 378.175C438.729 378.175 439.13 378.269 439.474 378.456C439.828 378.644 440.12 378.914 440.349 379.269C440.578 379.612 440.755 380.034 440.88 380.534C441.005 381.034 441.068 381.711 441.068 382.565C441.068 383.576 440.964 384.388 440.755 385.003C440.557 385.618 440.25 386.097 439.833 386.44C439.427 386.774 438.906 386.94 438.271 386.94C437.448 386.94 436.797 386.644 436.318 386.05C435.755 385.341 435.474 384.18 435.474 382.565ZM436.552 382.565C436.552 383.972 436.719 384.909 437.052 385.378C437.386 385.847 437.792 386.081 438.271 386.081C438.761 386.081 439.167 385.847 439.49 385.378C439.823 384.909 439.99 383.972 439.99 382.565C439.99 381.149 439.823 380.211 439.49 379.753C439.167 379.284 438.755 379.05 438.255 379.05C437.776 379.05 437.391 379.253 437.099 379.659C436.735 380.18 436.552 381.149 436.552 382.565Z" fill="black"/>
<path d="M532.248 386.8V384.737H528.529V383.769L532.451 378.206H533.31V383.769H534.466V384.737H533.31V386.8H532.248ZM532.248 383.769V379.909L529.56 383.769H532.248ZM539.248 386.8V384.737H535.529V383.769L539.451 378.206H540.31V383.769H541.466V384.737H540.31V386.8H539.248ZM539.248 383.769V379.909L536.56 383.769H539.248ZM548.341 380.315L547.295 380.394C547.201 379.977 547.071 379.675 546.904 379.487C546.612 379.185 546.258 379.034 545.841 379.034C545.508 379.034 545.211 379.128 544.951 379.315C544.628 379.565 544.368 379.925 544.17 380.394C543.982 380.852 543.883 381.508 543.873 382.362C544.123 381.977 544.43 381.69 544.795 381.503C545.17 381.315 545.56 381.222 545.966 381.222C546.664 381.222 547.258 381.482 547.748 382.003C548.248 382.524 548.498 383.19 548.498 384.003C548.498 384.545 548.378 385.05 548.138 385.519C547.909 385.977 547.591 386.331 547.185 386.581C546.779 386.821 546.321 386.94 545.81 386.94C544.925 386.94 544.206 386.618 543.654 385.972C543.102 385.326 542.826 384.263 542.826 382.784C542.826 381.118 543.133 379.909 543.748 379.159C544.279 378.503 544.998 378.175 545.904 378.175C546.581 378.175 547.133 378.368 547.56 378.753C547.998 379.128 548.258 379.649 548.341 380.315ZM544.045 384.019C544.045 384.383 544.118 384.732 544.263 385.065C544.42 385.388 544.633 385.638 544.904 385.815C545.185 385.993 545.482 386.081 545.795 386.081C546.232 386.081 546.612 385.904 546.935 385.55C547.258 385.185 547.42 384.696 547.42 384.081C547.42 383.487 547.258 383.019 546.935 382.675C546.623 382.331 546.227 382.159 545.748 382.159C545.269 382.159 544.862 382.331 544.529 382.675C544.206 383.019 544.045 383.466 544.045 384.019ZM549.873 382.565C549.873 381.545 549.977 380.727 550.185 380.112C550.394 379.487 550.701 379.008 551.107 378.675C551.524 378.341 552.045 378.175 552.67 378.175C553.128 378.175 553.529 378.269 553.873 378.456C554.227 378.644 554.519 378.914 554.748 379.269C554.977 379.612 555.154 380.034 555.279 380.534C555.404 381.034 555.466 381.711 555.466 382.565C555.466 383.576 555.362 384.388 555.154 385.003C554.956 385.618 554.649 386.097 554.232 386.44C553.826 386.774 553.305 386.94 552.67 386.94C551.847 386.94 551.196 386.644 550.716 386.05C550.154 385.341 549.873 384.18 549.873 382.565ZM550.951 382.565C550.951 383.972 551.118 384.909 551.451 385.378C551.784 385.847 552.19 386.081 552.67 386.081C553.159 386.081 553.565 385.847 553.888 385.378C554.222 384.909 554.388 383.972 554.388 382.565C554.388 381.149 554.222 380.211 553.888 379.753C553.565 379.284 553.154 379.05 552.654 379.05C552.175 379.05 551.789 379.253 551.498 379.659C551.133 380.18 550.951 381.149 550.951 382.565ZM556.873 382.565C556.873 381.545 556.977 380.727 557.185 380.112C557.394 379.487 557.701 379.008 558.107 378.675C558.524 378.341 559.045 378.175 559.67 378.175C560.128 378.175 560.529 378.269 560.873 378.456C561.227 378.644 561.519 378.914 561.748 379.269C561.977 379.612 562.154 380.034 562.279 380.534C562.404 381.034 562.466 381.711 562.466 382.565C562.466 383.576 562.362 384.388 562.154 385.003C561.956 385.618 561.649 386.097 561.232 386.44C560.826 386.774 560.305 386.94 559.67 386.94C558.847 386.94 558.196 386.644 557.716 386.05C557.154 385.341 556.873 384.18 556.873 382.565ZM557.951 382.565C557.951 383.972 558.118 384.909 558.451 385.378C558.784 385.847 559.19 386.081 559.67 386.081C560.159 386.081 560.565 385.847 560.888 385.378C561.222 384.909 561.388 383.972 561.388 382.565C561.388 381.149 561.222 380.211 560.888 379.753C560.565 379.284 560.154 379.05 559.654 379.05C559.175 379.05 558.789 379.253 558.498 379.659C558.133 380.18 557.951 381.149 557.951 382.565Z" fill="black"/>
<path d="M653.646 386.8V384.737H649.928V383.769L653.849 378.206H654.709V383.769H655.865V384.737H654.709V386.8H653.646ZM653.646 383.769V379.909L650.959 383.769H653.646ZM660.646 386.8V384.737H656.928V383.769L660.849 378.206H661.709V383.769H662.865V384.737H661.709V386.8H660.646ZM660.646 383.769V379.909L657.959 383.769H660.646ZM665.896 382.144C665.459 381.977 665.131 381.748 664.912 381.456C664.704 381.154 664.599 380.8 664.599 380.394C664.599 379.769 664.823 379.243 665.271 378.815C665.73 378.388 666.329 378.175 667.068 378.175C667.818 378.175 668.422 378.394 668.881 378.831C669.339 379.269 669.568 379.8 669.568 380.425C669.568 380.821 669.464 381.164 669.256 381.456C669.047 381.748 668.73 381.977 668.303 382.144C668.834 382.31 669.235 382.586 669.506 382.972C669.776 383.357 669.912 383.815 669.912 384.347C669.912 385.076 669.651 385.69 669.131 386.19C668.62 386.69 667.938 386.94 667.084 386.94C666.24 386.94 665.558 386.69 665.037 386.19C664.516 385.69 664.256 385.065 664.256 384.315C664.256 383.753 664.396 383.284 664.678 382.909C664.969 382.534 665.375 382.279 665.896 382.144ZM665.678 380.347C665.678 380.753 665.808 381.086 666.068 381.347C666.339 381.607 666.683 381.737 667.099 381.737C667.506 381.737 667.839 381.612 668.099 381.362C668.36 381.102 668.49 380.784 668.49 380.409C668.49 380.024 668.355 379.701 668.084 379.44C667.813 379.17 667.48 379.034 667.084 379.034C666.678 379.034 666.339 379.164 666.068 379.425C665.808 379.685 665.678 379.993 665.678 380.347ZM665.349 384.315C665.349 384.618 665.417 384.909 665.553 385.19C665.698 385.472 665.912 385.69 666.193 385.847C666.474 386.003 666.777 386.081 667.099 386.081C667.599 386.081 668.011 385.92 668.334 385.597C668.667 385.274 668.834 384.862 668.834 384.362C668.834 383.852 668.667 383.43 668.334 383.097C668 382.763 667.579 382.597 667.068 382.597C666.568 382.597 666.157 382.763 665.834 383.097C665.511 383.42 665.349 383.826 665.349 384.315ZM671.271 382.565C671.271 381.545 671.375 380.727 671.584 380.112C671.792 379.487 672.099 379.008 672.506 378.675C672.922 378.341 673.443 378.175 674.068 378.175C674.527 378.175 674.928 378.269 675.271 378.456C675.625 378.644 675.917 378.914 676.146 379.269C676.375 379.612 676.553 380.034 676.678 380.534C676.803 381.034 676.865 381.711 676.865 382.565C676.865 383.576 676.761 384.388 676.553 385.003C676.355 385.618 676.047 386.097 675.631 386.44C675.224 386.774 674.704 386.94 674.068 386.94C673.245 386.94 672.594 386.644 672.115 386.05C671.553 385.341 671.271 384.18 671.271 382.565ZM672.349 382.565C672.349 383.972 672.516 384.909 672.849 385.378C673.183 385.847 673.589 386.081 674.068 386.081C674.558 386.081 674.964 385.847 675.287 385.378C675.62 384.909 675.787 383.972 675.787 382.565C675.787 381.149 675.62 380.211 675.287 379.753C674.964 379.284 674.553 379.05 674.053 379.05C673.573 379.05 673.188 379.253 672.896 379.659C672.532 380.18 672.349 381.149 672.349 382.565ZM678.271 382.565C678.271 381.545 678.375 380.727 678.584 380.112C678.792 379.487 679.099 379.008 679.506 378.675C679.922 378.341 680.443 378.175 681.068 378.175C681.527 378.175 681.928 378.269 682.271 378.456C682.625 378.644 682.917 378.914 683.146 379.269C683.375 379.612 683.553 380.034 683.678 380.534C683.803 381.034 683.865 381.711 683.865 382.565C683.865 383.576 683.761 384.388 683.553 385.003C683.355 385.618 683.047 386.097 682.631 386.44C682.224 386.774 681.704 386.94 681.068 386.94C680.245 386.94 679.594 386.644 679.115 386.05C678.553 385.341 678.271 384.18 678.271 382.565ZM679.349 382.565C679.349 383.972 679.516 384.909 679.849 385.378C680.183 385.847 680.589 386.081 681.068 386.081C681.558 386.081 681.964 385.847 682.287 385.378C682.62 384.909 682.787 383.972 682.787 382.565C682.787 381.149 682.62 380.211 682.287 379.753C681.964 379.284 681.553 379.05 681.053 379.05C680.573 379.05 680.188 379.253 679.896 379.659C679.532 380.18 679.349 381.149 679.349 382.565Z" fill="black"/>
<path d="M576.847 65.5127V66.7002H570.222C570.211 66.4085 570.258 66.1221 570.363 65.8408C570.54 65.3929 570.81 64.9502 571.175 64.5127C571.55 64.0752 572.086 63.57 572.784 62.9971C573.878 62.1012 574.613 61.3929 574.988 60.8721C575.373 60.3512 575.566 59.8564 575.566 59.3877C575.566 58.8981 575.389 58.4867 575.034 58.1533C574.691 57.82 574.243 57.6533 573.691 57.6533C573.097 57.6533 572.618 57.8304 572.253 58.1846C571.899 58.5387 571.722 59.0335 571.722 59.6689L570.456 59.5283C570.54 58.5908 570.862 57.8773 571.425 57.3877C571.998 56.8877 572.758 56.6377 573.706 56.6377C574.675 56.6377 575.435 56.9033 575.988 57.4346C576.55 57.9658 576.831 58.6273 576.831 59.4189C576.831 59.8252 576.748 60.221 576.581 60.6064C576.425 60.9919 576.154 61.3981 575.769 61.8252C575.394 62.2523 574.764 62.8408 573.878 63.5908C573.139 64.2054 572.665 64.6273 572.456 64.8564C572.248 65.0752 572.076 65.2939 571.941 65.5127H576.847ZM578.378 61.7627C578.378 60.5752 578.498 59.6221 578.738 58.9033C578.988 58.1742 579.352 57.6169 579.831 57.2314C580.31 56.8356 580.915 56.6377 581.644 56.6377C582.185 56.6377 582.659 56.7471 583.066 56.9658C583.472 57.1846 583.805 57.4971 584.066 57.9033C584.336 58.3096 584.545 58.8044 584.691 59.3877C584.836 59.971 584.909 60.7627 584.909 61.7627C584.909 62.9398 584.79 63.8877 584.55 64.6064C584.31 65.3252 583.951 65.8825 583.472 66.2783C582.993 66.6742 582.383 66.8721 581.644 66.8721C580.685 66.8721 579.93 66.5231 579.378 65.8252C578.711 64.9919 578.378 63.6377 578.378 61.7627ZM579.644 61.7627C579.644 63.4085 579.836 64.5023 580.222 65.0439C580.607 65.5856 581.081 65.8564 581.644 65.8564C582.217 65.8564 582.696 65.5856 583.081 65.0439C583.467 64.4919 583.659 63.3981 583.659 61.7627C583.659 60.1064 583.467 59.0075 583.081 58.4658C582.696 57.9242 582.211 57.6533 581.628 57.6533C581.066 57.6533 580.618 57.8929 580.284 58.3721C579.857 58.9867 579.644 60.1169 579.644 61.7627ZM592.847 65.5127V66.7002H586.222C586.211 66.4085 586.258 66.1221 586.363 65.8408C586.54 65.3929 586.81 64.9502 587.175 64.5127C587.55 64.0752 588.086 63.57 588.784 62.9971C589.878 62.1012 590.613 61.3929 590.988 60.8721C591.373 60.3512 591.566 59.8564 591.566 59.3877C591.566 58.8981 591.389 58.4867 591.034 58.1533C590.691 57.82 590.243 57.6533 589.691 57.6533C589.097 57.6533 588.618 57.8304 588.253 58.1846C587.899 58.5387 587.722 59.0335 587.722 59.6689L586.456 59.5283C586.54 58.5908 586.862 57.8773 587.425 57.3877C587.998 56.8877 588.758 56.6377 589.706 56.6377C590.675 56.6377 591.435 56.9033 591.988 57.4346C592.55 57.9658 592.831 58.6273 592.831 59.4189C592.831 59.8252 592.748 60.221 592.581 60.6064C592.425 60.9919 592.154 61.3981 591.769 61.8252C591.394 62.2523 590.764 62.8408 589.878 63.5908C589.139 64.2054 588.665 64.6273 588.456 64.8564C588.248 65.0752 588.076 65.2939 587.941 65.5127H592.847ZM600.847 65.5127V66.7002H594.222C594.211 66.4085 594.258 66.1221 594.363 65.8408C594.54 65.3929 594.81 64.9502 595.175 64.5127C595.55 64.0752 596.086 63.57 596.784 62.9971C597.878 62.1012 598.613 61.3929 598.988 60.8721C599.373 60.3512 599.566 59.8564 599.566 59.3877C599.566 58.8981 599.389 58.4867 599.034 58.1533C598.691 57.82 598.243 57.6533 597.691 57.6533C597.097 57.6533 596.618 57.8304 596.253 58.1846C595.899 58.5387 595.722 59.0335 595.722 59.6689L594.456 59.5283C594.54 58.5908 594.862 57.8773 595.425 57.3877C595.998 56.8877 596.758 56.6377 597.706 56.6377C598.675 56.6377 599.435 56.9033 599.988 57.4346C600.55 57.9658 600.831 58.6273 600.831 59.4189C600.831 59.8252 600.748 60.221 600.581 60.6064C600.425 60.9919 600.154 61.3981 599.769 61.8252C599.394 62.2523 598.764 62.8408 597.878 63.5908C597.139 64.2054 596.665 64.6273 596.456 64.8564C596.248 65.0752 596.076 65.2939 595.941 65.5127H600.847Z" fill="#999999"/>
<path d="M606.175 58.1689C605.487 59.3669 604.633 60.3669 603.612 61.1689L602.847 60.1846C604.336 59.0908 605.357 57.5075 605.909 55.4346L607.159 55.7627C607.305 55.9085 607.253 55.9971 607.003 56.0283L606.566 57.1221H614.269V58.1689H610.284V60.0283H613.566V61.0596H610.284V63.5283H614.878V64.5596H610.284V67.8564H609.191V64.5596H602.894V63.5283H605.362V60.0283H609.191V58.1689H606.175ZM606.456 63.5283H609.191V61.0596H606.456V63.5283Z" fill="#999999"/>
<path d="M616.566 64.3877L617.753 64.2783C617.847 64.8304 618.034 65.2314 618.316 65.4814C618.607 65.7314 618.972 65.8564 619.409 65.8564C619.784 65.8564 620.112 65.7731 620.394 65.6064C620.685 65.4294 620.92 65.195 621.097 64.9033C621.284 64.6117 621.441 64.221 621.566 63.7314C621.691 63.2419 621.753 62.7419 621.753 62.2314C621.753 62.1794 621.748 62.096 621.737 61.9814C621.498 62.3773 621.165 62.7002 620.737 62.9502C620.31 63.1898 619.847 63.3096 619.347 63.3096C618.514 63.3096 617.81 63.0075 617.237 62.4033C616.665 61.7992 616.378 61.0075 616.378 60.0283C616.378 59.0075 616.675 58.1898 617.269 57.5752C617.873 56.9502 618.628 56.6377 619.534 56.6377C620.18 56.6377 620.774 56.8148 621.316 57.1689C621.857 57.5127 622.269 58.0127 622.55 58.6689C622.831 59.3148 622.972 60.2523 622.972 61.4814C622.972 62.7627 622.831 63.7835 622.55 64.5439C622.279 65.3044 621.868 65.8825 621.316 66.2783C620.764 66.6742 620.118 66.8721 619.378 66.8721C618.597 66.8721 617.956 66.6533 617.456 66.2158C616.967 65.7783 616.67 65.1689 616.566 64.3877ZM621.597 59.9658C621.597 59.2575 621.409 58.695 621.034 58.2783C620.659 57.8617 620.211 57.6533 619.691 57.6533C619.139 57.6533 618.659 57.8773 618.253 58.3252C617.847 58.7731 617.644 59.3512 617.644 60.0596C617.644 60.695 617.836 61.2158 618.222 61.6221C618.607 62.0179 619.081 62.2158 619.644 62.2158C620.217 62.2158 620.685 62.0179 621.05 61.6221C621.415 61.2158 621.597 60.6637 621.597 59.9658Z" fill="#999999"/>
<path d="M633.706 63.5283H628.503C628.503 65.0908 627.701 66.57 626.097 67.9658L625.175 66.9189C626.665 65.971 627.409 64.5492 627.409 62.6533V55.9814H634.8V66.7627C634.8 67.346 634.487 67.6377 633.862 67.6377H632.55L632.331 66.4189H633.487C633.633 66.4189 633.706 66.346 633.706 66.2002V63.5283ZM628.503 62.3252H633.706V60.3564H628.503V62.3252ZM628.503 59.1533H633.706V57.1846H628.503V59.1533Z" fill="#999999"/>
<path d="M644.847 65.5127V66.7002H638.222C638.211 66.4085 638.258 66.1221 638.363 65.8408C638.54 65.3929 638.81 64.9502 639.175 64.5127C639.55 64.0752 640.086 63.57 640.784 62.9971C641.878 62.1012 642.613 61.3929 642.988 60.8721C643.373 60.3512 643.566 59.8564 643.566 59.3877C643.566 58.8981 643.389 58.4867 643.034 58.1533C642.691 57.82 642.243 57.6533 641.691 57.6533C641.097 57.6533 640.618 57.8304 640.253 58.1846C639.899 58.5387 639.722 59.0335 639.722 59.6689L638.456 59.5283C638.54 58.5908 638.862 57.8773 639.425 57.3877C639.998 56.8877 640.758 56.6377 641.706 56.6377C642.675 56.6377 643.435 56.9033 643.988 57.4346C644.55 57.9658 644.831 58.6273 644.831 59.4189C644.831 59.8252 644.748 60.221 644.581 60.6064C644.425 60.9919 644.154 61.3981 643.769 61.8252C643.394 62.2523 642.764 62.8408 641.878 63.5908C641.139 64.2054 640.665 64.6273 640.456 64.8564C640.248 65.0752 640.076 65.2939 639.941 65.5127H644.847ZM646.566 64.3877L647.753 64.2783C647.847 64.8304 648.034 65.2314 648.316 65.4814C648.607 65.7314 648.972 65.8564 649.409 65.8564C649.784 65.8564 650.113 65.7731 650.394 65.6064C650.685 65.4294 650.92 65.195 651.097 64.9033C651.284 64.6117 651.441 64.221 651.566 63.7314C651.691 63.2419 651.753 62.7419 651.753 62.2314C651.753 62.1794 651.748 62.096 651.738 61.9814C651.498 62.3773 651.165 62.7002 650.738 62.9502C650.31 63.1898 649.847 63.3096 649.347 63.3096C648.514 63.3096 647.81 63.0075 647.238 62.4033C646.665 61.7992 646.378 61.0075 646.378 60.0283C646.378 59.0075 646.675 58.1898 647.269 57.5752C647.873 56.9502 648.628 56.6377 649.534 56.6377C650.18 56.6377 650.774 56.8148 651.316 57.1689C651.857 57.5127 652.269 58.0127 652.55 58.6689C652.831 59.3148 652.972 60.2523 652.972 61.4814C652.972 62.7627 652.831 63.7835 652.55 64.5439C652.279 65.3044 651.868 65.8825 651.316 66.2783C650.764 66.6742 650.118 66.8721 649.378 66.8721C648.597 66.8721 647.956 66.6533 647.456 66.2158C646.967 65.7783 646.67 65.1689 646.566 64.3877ZM651.597 59.9658C651.597 59.2575 651.409 58.695 651.034 58.2783C650.659 57.8617 650.211 57.6533 649.691 57.6533C649.139 57.6533 648.659 57.8773 648.253 58.3252C647.847 58.7731 647.644 59.3512 647.644 60.0596C647.644 60.695 647.836 61.2158 648.222 61.6221C648.607 62.0179 649.081 62.2158 649.644 62.2158C650.217 62.2158 650.685 62.0179 651.05 61.6221C651.415 61.2158 651.597 60.6637 651.597 59.9658Z" fill="#999999"/>
<path d="M657.8 67.2002H656.534V56.6377H665.128V66.9814H663.862V66.2002H657.8V67.2002ZM663.862 60.7939V57.6689H657.8V60.7939H663.862ZM663.862 65.1689V61.8252H657.8V65.1689H663.862ZM678.081 59.8564H680.659V60.7314H678.362V61.9971H680.222V62.8721H678.362V64.1846H680.222V65.0596H678.362V66.4189H681.097V67.3096H675.566V67.8564H674.644V61.7783C674.352 62.1742 673.987 62.5387 673.55 62.8721L673.159 61.8252C674.545 60.5856 675.441 59.2939 675.847 57.9502H674.581V59.2002H673.659V57.0752H676.066C676.211 56.4919 676.336 55.8721 676.441 55.2158L677.534 55.4814C677.649 55.596 677.612 55.7054 677.425 55.8096C677.321 56.2471 677.211 56.6689 677.097 57.0752H680.987V58.9814H680.05V57.9502H676.878C676.659 58.7106 676.368 59.346 676.003 59.8564H677.159L677.862 58.2158L678.909 58.4346C679.086 58.5075 679.05 58.6012 678.8 58.7158L678.081 59.8564ZM668.847 57.3408V56.3096H673.487V57.3408H671.581C671.508 58.4762 671.269 59.5179 670.862 60.4658H673.003V66.9814H672.066V66.0908H670.644V67.5283H669.722V62.5908C669.503 62.9554 669.264 63.2835 669.003 63.5752L668.3 62.6533C669.571 61.2262 670.316 59.4554 670.534 57.3408H668.847ZM675.566 62.8721V64.1846H677.425V62.8721H675.566ZM675.566 60.7314V61.9971H677.425V60.7314H675.566ZM675.566 65.0596V66.4189H677.425V65.0596H675.566ZM670.644 61.3408V65.2158H672.066V61.3408H670.644ZM687.222 61.4502C688.566 61.0856 689.42 60.3721 689.784 59.3096L688.316 58.7158L688.691 57.7783L690.003 58.2783L690.112 56.9658H687.816V55.9189H694.378L694.269 60.6221C694.237 61.5387 693.857 61.9971 693.128 61.9971H691.862L691.753 60.9502H692.909C693.128 60.9502 693.237 60.8408 693.237 60.6221L693.347 56.9658H691.206L691.05 58.7158L692.362 59.4189L691.862 60.4033L690.769 59.8096C690.3 61.1533 689.264 62.0648 687.659 62.5439L687.222 61.4502ZM694.159 66.9189C693.868 65.8252 693.415 64.8773 692.8 64.0752L693.784 63.6377C694.586 64.6169 695.097 65.5439 695.316 66.4189L694.159 66.9189ZM686.831 63.4658V67.6846H685.909V67.3096H684.05V67.9033H683.112V63.4658H686.831ZM687.269 66.9814C687.529 66.0648 687.696 65.0231 687.769 63.8564L688.862 63.9658C688.935 63.9971 688.899 64.0856 688.753 64.2314C688.711 65.3981 688.545 66.4033 688.253 67.2471L687.269 66.9814ZM690.769 61.6689C691.279 61.9919 691.79 62.5544 692.3 63.3564L691.269 63.9658C691.008 63.4554 690.571 62.8721 689.956 62.2158L690.769 61.6689ZM683.331 55.7002H686.612V56.7471H683.331V55.7002ZM682.628 57.5596H687.331V58.6064H682.628V57.5596ZM683.331 59.5908H686.612V60.6221H683.331V59.5908ZM683.331 61.4502H686.612V62.4814H683.331V61.4502ZM684.05 64.3408V66.4189H685.909V64.3408H684.05ZM690.222 63.3096C690.514 63.3408 690.534 63.4502 690.284 63.6377V66.2002C690.284 66.4606 690.394 66.5908 690.612 66.5908H691.816C692.034 66.5908 692.159 66.4814 692.191 66.2627L692.3 65.3877L693.394 65.6533L693.175 66.8096C693.071 67.3617 692.743 67.6377 692.191 67.6377H690.112C689.498 67.6377 689.191 67.3044 689.191 66.6377V63.3096H690.222Z" fill="#999999"/>
<path d="M29.4656 28.0752C30.0385 28.5439 30.5333 29.221 30.95 30.1064L29.6219 30.9658C29.2573 30.2367 28.7885 29.5335 28.2156 28.8564L29.4656 28.0752ZM35.7156 28.4658C35.924 28.7262 35.8458 28.8825 35.4812 28.9346L34.3875 31.2002H37.7469V32.6846H32.9031V38.3096H35.0125V34.0908H36.4969C36.9135 34.1429 36.9396 34.2992 36.575 34.5596V40.0283H35.0125V39.7939H29.2312V40.4971H27.6687V34.0908H29.1531C29.5698 34.1429 29.5958 34.2992 29.2312 34.5596V38.3096H31.3406V32.6846H26.575V31.2002H32.9812L34.2312 27.9189L35.7156 28.4658ZM24.2312 25.8877H40.0125V41.2783C40.0125 42.1117 39.5958 42.5283 38.7625 42.5283H36.9656L36.575 40.8096H38.1375C38.3458 40.8096 38.45 40.7054 38.45 40.4971V27.3721H25.7937V42.6064H24.2312V25.8877ZM59.9344 28.9346C60.4552 29.0387 60.4812 29.2471 60.0125 29.5596V42.0596H58.2156V40.8096H46.2625V42.3721H44.4656V28.9346H46.1844C46.7052 29.0387 46.7312 29.2471 46.2625 29.5596V39.0908H51.2625V25.6533H52.9812C53.5021 25.7575 53.5281 25.9658 53.0594 26.2783V39.0908H58.2156V28.9346H59.9344ZM76.1844 37.6064C77.226 38.6481 78.7625 39.6898 80.7937 40.7314L79.8562 42.3721C78.0854 41.5387 76.4187 40.3408 74.8562 38.7783L76.1844 37.6064ZM69.3875 39.0127C68.5021 40.2627 67.1479 41.4867 65.325 42.6846L64.1531 41.2002C65.8198 40.2106 67.1479 39.0387 68.1375 37.6846L69.6219 38.5439C69.8823 38.7523 69.8042 38.9085 69.3875 39.0127ZM66.1844 36.9814V37.7627H64.6219V26.5127H66.1062C66.5229 26.5648 66.549 26.721 66.1844 26.9814V35.4971H80.5594V36.9814H73.2937V42.9971H71.4969V36.9814H66.1844ZM69.6219 33.2314H76.4187V31.7471H69.6219V33.2314ZM69.6219 30.4971H76.4187V29.2471H69.6219V30.4971ZM69.6219 27.9971H76.4187V26.7471H69.6219V27.9971ZM68.0594 34.4814V25.4971H77.9812V34.4814H68.0594ZM92.9812 30.1846C92.0958 35.3929 91.0281 38.6221 89.7781 39.8721C89.101 40.5492 88.3979 40.8877 87.6687 40.8877C86.8354 40.8877 86.1844 40.6533 85.7156 40.1846C84.4656 38.9346 83.8406 37.3721 83.8406 35.4971C83.8406 33.2054 84.6479 31.2523 86.2625 29.6377C88.0333 27.8669 90.1948 26.9814 92.7469 26.9814C95.0385 26.9814 96.8354 27.6325 98.1375 28.9346C99.5958 30.3929 100.325 32.1117 100.325 34.0908C100.325 36.2262 99.6479 37.971 98.2937 39.3252C97.4083 40.2106 96.0542 41.07 94.2312 41.9033L92.5906 40.2627C94.4135 39.6898 95.8458 38.8825 96.8875 37.8408C97.8771 36.8512 98.3719 35.6533 98.3719 34.2471C98.3719 32.5804 97.825 31.2002 96.7312 30.1064C95.6375 29.0127 93.9187 28.5179 91.575 28.6221L92.9812 29.3252C93.6062 29.5856 93.6062 29.8721 92.9812 30.1846ZM91.1844 28.7002C89.8302 29.0127 88.6583 29.6637 87.6687 30.6533C86.3146 32.0075 85.6375 33.6742 85.6375 35.6533C85.6375 36.8512 86.0281 37.8408 86.8094 38.6221C86.9656 38.7783 87.2 38.8564 87.5125 38.8564C87.825 38.8564 88.1635 38.6742 88.5281 38.3096C89.726 37.1117 90.6115 33.9085 91.1844 28.7002ZM110.325 41.5127C112.46 40.3669 113.528 38.4137 113.528 35.6533V26.6689L115.169 26.9814L119.387 25.6533L120.559 27.2158C120.664 27.5283 120.481 27.5804 120.012 27.3721L115.091 28.3096V31.6689H121.262V33.1533H118.919V42.9189H117.356V33.1533H115.091V36.1221C115.091 39.195 113.789 41.4867 111.184 42.9971L110.325 41.5127ZM108.841 42.9971H107.278V38.3096C106.445 39.6637 105.533 40.7314 104.544 41.5127L103.372 40.1064C104.83 39.0648 106.054 37.7627 107.044 36.2002H103.762V34.7158H107.278V32.9971H103.294V31.5127H108.762L109.622 28.7002H103.841V27.2158H107.278V25.0283H108.762C109.179 25.0804 109.205 25.2367 108.841 25.4971V27.2158H112.278V28.7002H111.262L110.169 31.5127H112.669V32.9971H108.841V34.7158H112.278V36.2002H108.841V36.9033C109.57 37.1117 110.585 37.6585 111.887 38.5439L110.95 40.1064C110.221 39.3773 109.518 38.8044 108.841 38.3877V42.9971ZM105.716 31.3564C105.507 30.6273 105.221 29.9242 104.856 29.2471L106.341 28.7783C106.757 29.4554 107.07 30.1585 107.278 30.8877L105.716 31.3564ZM138.45 33.5439H133.372V35.2627H138.45V33.5439ZM136.341 36.7471H134.934V37.5283C134.934 40.7575 133.085 42.6585 129.387 43.2314L128.919 41.5908C131.887 41.2262 133.372 39.82 133.372 37.3721V36.7471H132.591H131.809V25.8096H140.012V36.7471H137.903V40.6533C137.903 41.07 138.085 41.2783 138.45 41.2783H139.231C139.492 41.2783 139.648 41.0179 139.7 40.4971L139.856 39.1689L141.419 39.6377L141.184 41.4346C141.08 42.32 140.585 42.7627 139.7 42.7627H137.747C136.809 42.7627 136.341 42.32 136.341 41.4346V36.7471ZM133.372 32.0596H138.45V30.4189H133.372V32.0596ZM133.372 28.9346H138.45V27.2939H133.372V28.9346ZM127.747 35.8877C128.789 36.3564 130.012 37.2158 131.419 38.4658L130.325 40.1064C129.231 38.9085 128.268 38.0231 127.434 37.4502C126.914 39.7419 125.82 41.5387 124.153 42.8408L122.981 41.4346C125.273 39.5075 126.367 37.0075 126.262 33.9346H123.294V32.4502H126.341V29.6377H123.841V28.1533H126.341V25.0283H127.825C128.242 25.0804 128.268 25.2367 127.903 25.4971V28.1533H130.637V29.6377H127.903V32.4502H131.028V33.9346H127.825C127.825 34.7679 127.799 35.4189 127.747 35.8877ZM147.825 32.1377C148.815 33.4919 149.309 34.8981 149.309 36.3564C149.309 38.3877 148.71 39.4033 147.512 39.4033H146.575L146.262 37.8408H147.044C147.565 37.8408 147.799 37.2939 147.747 36.2002C147.695 34.6898 147.226 33.3617 146.341 32.2158L147.903 27.1377H145.481V42.7627H143.919V25.8877H148.294L148.606 25.4971L149.934 26.6689L149.622 26.9814L147.825 32.1377ZM159.153 36.5127H158.372C157.539 40.3148 154.752 42.5023 150.012 43.0752L149.544 41.5908C153.606 41.2783 156.054 39.5856 156.887 36.5127H155.794C154.908 38.7002 153.033 40.0283 150.169 40.4971L149.7 39.1689C152.096 38.6481 153.58 37.7627 154.153 36.5127H152.903C152.174 37.2419 151.236 37.8148 150.091 38.2314L149.466 36.9033C151.132 36.3825 152.278 35.3929 152.903 33.9346H149.387V32.6846H161.106V33.9346H154.544C154.335 34.4033 154.075 34.846 153.762 35.2627H160.637L160.481 40.1846C160.429 41.8512 159.83 42.6846 158.684 42.6846H157.122L156.887 41.2002H158.216C158.684 41.2002 158.945 40.8877 158.997 40.2627L159.153 36.5127ZM152.512 30.4189H157.825V29.0908H152.512V30.4189ZM152.512 27.8408H157.825V26.5908H152.512V27.8408ZM159.153 25.3408V31.6689H151.184V25.3408H159.153ZM172.434 29.3252H174.544V25.2627H176.028C176.445 25.3148 176.471 25.471 176.106 25.7314V29.3252H180.325V30.8096H176.106V34.5596H180.091V36.0439H176.106V40.6533H181.262V42.1377H169.309V40.6533H174.544V36.0439H170.716V34.5596H174.544V30.8096H171.966C171.601 31.8512 171.028 32.8929 170.247 33.9346L168.919 32.9189C170.273 31.1481 171.158 29.0127 171.575 26.5127L173.059 26.8252C173.476 26.9814 173.476 27.1377 173.059 27.2939L172.434 29.3252ZM165.794 25.0283H167.278C167.695 25.0804 167.721 25.2367 167.356 25.4971V42.8408H165.794V25.0283ZM168.762 28.2314C169.231 28.8564 169.622 29.5596 169.934 30.3408L168.684 31.2002C168.32 30.3148 167.955 29.5856 167.591 29.0127L168.762 28.2314ZM165.325 29.0908C165.69 29.195 165.69 29.3512 165.325 29.5596C165.221 31.2262 164.986 32.7887 164.622 34.2471L163.137 33.7783C163.554 32.4762 163.789 30.8356 163.841 28.8564L165.325 29.0908ZM198.137 33.6221V42.6846H196.575V41.9033H189.544V42.9189H187.981V35.8096C186.627 36.5387 185.169 37.1117 183.606 37.5283L183.059 36.1221C184.518 35.7575 186.158 35.1064 187.981 34.1689V33.6221H189.075C190.169 32.9971 191.106 32.3721 191.887 31.7471H183.684V30.2627H190.559V28.3877H185.716V26.9033H190.559V25.0283H192.044C192.46 25.0804 192.486 25.2367 192.122 25.4971V26.9033H195.872V28.2314C196.497 27.5544 197.122 26.7992 197.747 25.9658L198.841 26.6689C199.205 26.9294 199.153 27.0856 198.684 27.1377C197.695 28.3356 196.705 29.3773 195.716 30.2627H201.106V31.7471H194.075C193.033 32.6325 192.2 33.2575 191.575 33.6221H198.137ZM193.606 30.2627C194.231 29.7939 194.934 29.1689 195.716 28.3877H192.122V30.2627H193.606ZM189.544 36.9814H196.575V34.8721H189.544V36.9814ZM189.544 40.6533H196.575V38.2314H189.544V40.6533ZM216.731 36.9033C217.46 35.4971 217.903 33.3617 218.059 30.4971H215.403C215.559 33.3617 216.002 35.4971 216.731 36.9033ZM219.622 30.4971C219.518 33.7262 218.893 36.3304 217.747 38.3096C218.58 39.3512 219.752 40.2627 221.262 41.0439L220.247 42.7627C218.58 41.6689 217.408 40.6273 216.731 39.6377C215.533 40.9919 213.684 42.1637 211.184 43.1533L210.403 41.5908C213.111 40.4971 214.908 39.3773 215.794 38.2314C214.908 36.5127 214.414 34.7939 214.309 33.0752C213.997 33.8564 213.684 34.4554 213.372 34.8721L212.044 33.8564C213.606 31.5648 214.544 28.7262 214.856 25.3408L216.497 25.7314C216.809 25.9398 216.731 26.096 216.262 26.2002C216.106 27.1377 215.898 28.0752 215.637 29.0127H220.95V30.4971H219.622ZM212.356 26.7471C212.044 27.5283 211.679 28.1794 211.262 28.7002L210.012 27.9971C210.429 27.32 210.82 26.5387 211.184 25.6533L212.591 26.3564C212.799 26.5648 212.721 26.695 212.356 26.7471ZM207.356 37.7627C208.085 37.971 208.736 38.2054 209.309 38.4658C209.726 37.9971 210.065 37.2939 210.325 36.3564H208.059C207.851 36.8252 207.617 37.2939 207.356 37.7627ZM206.262 39.7158L205.012 39.0127C205.533 38.2314 206.054 37.346 206.575 36.3564H203.606V35.1064H207.044C207.356 34.4294 207.591 33.8564 207.747 33.3877L209.231 33.7783C209.44 33.9867 209.361 34.1169 208.997 34.1689L208.528 35.1064H212.981V36.3564H211.809C211.549 37.3981 211.158 38.2835 210.637 39.0127C211.106 39.221 211.601 39.4814 212.122 39.7939L211.419 41.0439C210.846 40.6794 210.325 40.3929 209.856 40.1846C208.502 41.5387 206.679 42.3721 204.387 42.6846L203.841 41.2783C205.872 41.07 207.434 40.4971 208.528 39.5596C207.955 39.2992 207.382 39.0648 206.809 38.8564L206.262 39.7158ZM207.825 25.0283H209.075C209.492 25.0804 209.518 25.2367 209.153 25.4971V28.8564H213.137V30.1064H209.856C210.429 30.7835 211.315 31.4346 212.512 32.0596L211.653 33.3877C210.768 32.8669 209.934 32.1377 209.153 31.2002V33.0752H207.825V31.5908C206.992 32.6325 205.846 33.57 204.387 34.4033L203.372 33.1533C204.986 32.32 206.315 31.3044 207.356 30.1064H203.762V28.8564H207.825V25.0283ZM205.637 28.6221C205.273 27.8408 204.804 27.1637 204.231 26.5908L205.481 25.8096C206.106 26.4346 206.575 27.0856 206.887 27.7627L205.637 28.6221ZM232.981 30.1846C232.096 35.3929 231.028 38.6221 229.778 39.8721C229.101 40.5492 228.398 40.8877 227.669 40.8877C226.835 40.8877 226.184 40.6533 225.716 40.1846C224.466 38.9346 223.841 37.3721 223.841 35.4971C223.841 33.2054 224.648 31.2523 226.262 29.6377C228.033 27.8669 230.195 26.9814 232.747 26.9814C235.039 26.9814 236.835 27.6325 238.137 28.9346C239.596 30.3929 240.325 32.1117 240.325 34.0908C240.325 36.2262 239.648 37.971 238.294 39.3252C237.408 40.2106 236.054 41.07 234.231 41.9033L232.591 40.2627C234.414 39.6898 235.846 38.8825 236.887 37.8408C237.877 36.8512 238.372 35.6533 238.372 34.2471C238.372 32.5804 237.825 31.2002 236.731 30.1064C235.637 29.0127 233.919 28.5179 231.575 28.6221L232.981 29.3252C233.606 29.5856 233.606 29.8721 232.981 30.1846ZM231.184 28.7002C229.83 29.0127 228.658 29.6637 227.669 30.6533C226.315 32.0075 225.637 33.6742 225.637 35.6533C225.637 36.8512 226.028 37.8408 226.809 38.6221C226.966 38.7783 227.2 38.8564 227.512 38.8564C227.825 38.8564 228.164 38.6742 228.528 38.3096C229.726 37.1117 230.611 33.9085 231.184 28.7002ZM248.762 31.8252C250.481 30.2106 251.809 27.8669 252.747 24.7939L254.309 25.2627C254.57 25.471 254.518 25.6012 254.153 25.6533C253.736 26.695 253.32 27.6585 252.903 28.5439H255.247C255.82 27.346 256.263 26.2783 256.575 25.3408L258.059 25.8877C258.268 26.096 258.19 26.2262 257.825 26.2783C257.46 27.1117 257.096 27.8669 256.731 28.5439H260.716V30.0283H256.731V32.4502H259.934V33.9346H256.731V36.4346H259.934V37.9189H256.731V40.8096H261.184V42.2939H252.591V42.9971H251.028V31.6689C250.664 32.1898 250.273 32.6585 249.856 33.0752L248.762 31.8252ZM244.856 42.8408L244.544 41.3564H245.872C246.08 41.3564 246.184 41.2523 246.184 41.0439V36.2002L244.153 36.6689C244.101 37.0335 243.971 37.1117 243.762 36.9033L243.45 35.1064L246.184 34.5596V30.4189H243.762V28.9346H246.184V24.9502H247.669C248.085 25.0023 248.111 25.1585 247.747 25.4189V28.9346H249.778V30.4189H247.747V34.2471L249.778 33.7002L250.012 35.1064L247.747 35.8096V41.5908C247.747 42.4242 247.33 42.8408 246.497 42.8408H244.856ZM252.591 40.8096H255.169V37.9189H252.591V40.8096ZM252.591 36.4346H255.169V33.9346H252.591V36.4346ZM252.591 32.4502H255.169V30.0283H252.591V32.4502ZM278.841 27.1377L279.075 26.8252L280.325 27.8408L280.091 28.0752C278.736 30.4189 277.408 31.9814 276.106 32.7627L276.888 32.9971C277.252 33.1533 277.226 33.3096 276.809 33.4658C276.705 33.8304 276.575 34.1429 276.419 34.4033H279.778L280.013 34.0908L281.419 35.1064L281.106 35.4189C279.44 39.846 276.054 42.346 270.95 42.9189L270.325 41.4346C272.773 41.1742 274.7 40.5231 276.106 39.4814C275.377 38.7523 274.648 38.1273 273.919 37.6064C273.242 38.1794 272.33 38.7002 271.184 39.1689L270.481 37.7627C273.033 36.721 274.7 35.1325 275.481 32.9971C274.7 33.7262 273.294 34.3512 271.263 34.8721L270.559 33.4658C272.539 33.0492 274.023 32.5023 275.013 31.8252C274.492 31.2002 273.867 30.6533 273.138 30.1846C272.773 30.5492 272.408 30.8617 272.044 31.1221L270.95 29.9502C272.669 28.4919 273.763 26.9294 274.231 25.2627L275.638 25.7314C276.002 25.8877 275.976 26.0439 275.559 26.2002C275.507 26.5127 275.377 26.8252 275.169 27.1377H278.841ZM268.216 30.1846H270.794V31.6689H268.216V33.6221C269.257 34.0908 270.247 34.7939 271.184 35.7314L270.169 37.1377C269.335 36.3044 268.684 35.7054 268.216 35.3408V42.9189H266.653V35.1846C266.341 36.2262 265.481 37.5544 264.075 39.1689L262.903 37.6846C264.83 35.8617 266.028 33.8564 266.497 31.6689H263.45V30.1846H266.653V27.6064C265.611 27.7627 264.674 27.8929 263.841 27.9971L263.45 26.5127C265.533 26.3044 267.695 25.8877 269.934 25.2627L270.794 26.4346C271.002 26.7471 270.872 26.8512 270.403 26.7471C269.674 26.9554 268.945 27.1377 268.216 27.2939V30.1846ZM273.919 29.2471C274.7 29.6637 275.455 30.1846 276.184 30.8096C276.966 30.0804 277.617 29.2731 278.138 28.3877H274.544C274.335 28.7523 274.127 29.0387 273.919 29.2471ZM274.778 36.6689C275.507 37.0856 276.341 37.7106 277.278 38.5439C278.059 37.971 278.736 37.0075 279.309 35.6533H275.716C275.403 36.07 275.091 36.4085 274.778 36.6689ZM286.809 29.3252C287.382 28.1273 288.346 26.9033 289.7 25.6533L290.559 26.4346C289.257 27.6325 288.346 28.7783 287.825 29.8721C287.252 31.07 286.966 32.5023 286.966 34.1689C286.966 35.5752 287.252 36.9033 287.825 38.1533C288.346 39.2992 289.257 40.5752 290.559 41.9814L289.7 42.8408C288.398 41.3825 287.434 40.0023 286.809 38.7002C286.132 37.2939 285.794 35.7835 285.794 34.1689C285.794 32.346 286.132 30.7314 286.809 29.3252ZM297.903 41.9033H296.106V26.8252H308.372V41.5908H306.575V40.4971H297.903V41.9033ZM306.575 32.7627V28.3096H297.903V32.7627H306.575ZM306.575 39.0127V34.2471H297.903V39.0127H306.575ZM321.341 35.8096H318.372C317.903 38.7783 316.497 41.1221 314.153 42.8408L313.372 41.3564C315.664 39.7419 316.914 37.346 317.122 34.1689L317.278 31.7471H316.184V32.7627H314.622V26.0439H322.512V32.4502H320.95V31.7471H318.684L318.528 34.3252H322.903L322.512 40.4971C322.408 41.7471 321.888 42.3721 320.95 42.3721H318.841L318.606 40.8877H320.325C320.794 40.8877 321.054 40.6273 321.106 40.1064L321.341 35.8096ZM329.778 41.2002C329.778 42.0856 329.361 42.5283 328.528 42.5283H326.809L326.497 41.0439H327.981C328.138 41.0439 328.216 40.9658 328.216 40.8096V25.8096H329.7C330.117 25.8617 330.143 26.0179 329.778 26.2783V41.2002ZM326.028 27.6846C326.445 27.7367 326.471 27.8929 326.106 28.1533V38.8564H324.544V27.6846H326.028ZM320.95 30.4971V27.2939H316.184V30.4971H320.95ZM337.512 38.7002C336.887 40.0023 335.924 41.3825 334.622 42.8408L333.762 41.9814C335.065 40.5752 335.976 39.2992 336.497 38.1533C337.07 36.9033 337.356 35.5752 337.356 34.1689C337.356 32.5023 337.07 31.07 336.497 29.8721C335.976 28.7783 335.065 27.6325 333.762 26.4346L334.622 25.6533C335.976 26.9033 336.94 28.1273 337.512 29.3252C338.19 30.7314 338.528 32.346 338.528 34.1689C338.528 35.7835 338.19 37.2939 337.512 38.7002Z" fill="#757575"/>
</g>
<rect x="2" y="2" width="714" height="440" stroke="black" stroke-width="4"/>
<defs>
<clipPath id="clip0_7_27014">
<rect width="718" height="444" fill="white"/>
</clipPath>
</defs>
</svg>
