<svg width="718" height="444" viewBox="0 0 718 444" fill="none" xmlns="http://www.w3.org/2000/svg">
<g clip-path="url(#clip0_7_28050)">
<path d="M0 0H718V444H0V0Z" fill="white"/>
<path d="M181.5 91.5V369.5" stroke="#CCCCCC" stroke-miterlimit="10"/>
<path d="M302.5 91.5V369.5" stroke="#CCCCCC" stroke-miterlimit="10"/>
<path d="M424.5 91.5V369.5" stroke="#CCCCCC" stroke-miterlimit="10"/>
<path d="M545.5 91.5V369.5" stroke="#CCCCCC" stroke-miterlimit="10"/>
<path d="M666.5 91.5V369.5" stroke="#CCCCCC" stroke-miterlimit="10"/>
<path d="M88.5 369.5H695.5" stroke="#333333" stroke-miterlimit="10"/>
<path d="M88.5 300.5H695.5" stroke="#CCCCCC" stroke-miterlimit="10"/>
<path d="M88.5 230.5H695.5" stroke="#CCCCCC" stroke-miterlimit="10"/>
<path d="M88.5 161.5H695.5" stroke="#CCCCCC" stroke-miterlimit="10"/>
<path d="M88.5 91.5H695.5" stroke="#CCCCCC" stroke-miterlimit="10"/>
<path d="M88.2 369.8H88.8064H89.4128H90.0192H90.6255H91.2319H91.8383H92.4447H93.0511H93.6575H94.2639H94.8703H95.4766H96.083H96.6894H97.2958H97.9022H98.5086H99.115H99.7214H100.328H100.934H101.541H102.147H102.753H103.36H103.966H104.572H105.179L105.785 369.765L106.392 369.8H106.998H107.604H108.211L108.817 369.765H109.424L110.03 369.8H110.636H111.243H111.849H112.455H113.062H113.668H114.275H114.881H115.487H116.094H116.7H117.307H117.913H118.519H119.126H119.732H120.339H120.945H121.551H122.158H122.764H123.37H123.977H124.583H125.19H125.796H126.402H127.009H127.615H128.222L128.828 369.765H129.434L130.041 369.8L130.647 369.765L131.253 369.8L131.86 369.731L132.466 369.8L133.073 369.765L133.679 369.8H134.285H134.892L135.498 369.731L136.105 369.626L136.711 369.8L137.317 369.592L137.924 369.418L138.53 369.626L139.137 369.696L139.743 369.557L140.349 369.522L140.956 369.487L141.562 369.557L142.168 369.661L142.775 369.452L143.381 369.522H143.988L144.594 369.487L145.2 369.626L145.807 369.592L146.413 369.661L147.02 369.626L147.626 369.731L148.232 369.765H148.839L149.445 369.696L150.051 369.8L150.658 369.661L151.264 369.8L151.871 369.765L152.477 369.8H153.083H153.69H154.296H154.903H155.509H156.115H156.722H157.328H157.935H158.541H159.147H159.754H160.36H160.966H161.573L162.179 369.765L162.786 369.8H163.392L163.998 369.765L164.605 369.8H165.211L165.818 369.765L166.424 369.8H167.03L167.637 369.765L168.243 369.8H168.85H169.456H170.062H170.669H171.275H171.881H172.488H173.094H173.701H174.307H174.913H175.52H176.126H176.733H177.339H177.945H178.552H179.158H179.764H180.371H180.977H181.584H182.19H182.796H183.403H184.009H184.616H185.222H185.828H186.435H187.041H187.648H188.254H188.86H189.467H190.073H190.679H191.286H191.892H192.499H193.105L193.711 369.731L194.318 369.765H194.924L195.531 369.731L196.137 369.8H196.743H197.35H197.956L198.562 369.765L199.169 369.8H199.775L200.382 369.731H200.988H201.594H202.201L202.807 369.626L203.414 369.452L204.02 369.313L204.626 369.592L205.233 369.174L205.839 369.07L206.446 368.27L207.052 368.096L207.658 367.33L208.265 367.783L208.871 367.609L209.477 368.513L210.084 366.913L210.69 367.226L211.297 367.296L211.903 366.321L212.509 366.878L213.116 364.373L213.722 368.026L214.329 367.574L214.935 367.539L215.541 366.495L216.148 366.148L216.754 368.165L217.36 367.748L217.967 368.478L218.573 368.652L219.18 367.4L219.786 368.339L220.392 368.757L220.999 368.722L221.605 368.931L222.212 369.035L222.818 368.722L223.424 368.617H224.031L224.637 368.339L225.244 368.722L225.85 368.652L226.456 369L227.063 369.8L227.669 369.313L228.275 369.139L228.882 368.861L229.488 369.104L230.095 369.8L230.701 369.174L231.307 369.487L231.914 369.522L232.52 369.244L233.127 369.452L233.733 369.418L234.339 369.452L234.946 369.696L235.552 369.661L236.158 369.522L236.765 369.626L237.371 369.383L237.978 369.348L238.584 369.278L239.19 369.557L239.797 369.592L240.403 369.348L241.01 369.592H241.616L242.222 369.104H242.829L243.435 369.313L244.042 369.139L244.648 368.931L245.254 368.791L245.861 368.931L246.467 368.791L247.073 369.104L247.68 369.139L248.286 369.035L248.893 368.896H249.499L250.105 368.826L250.712 369.139L251.318 369.418L251.925 369.313H252.531L253.137 369.104L253.744 368.444L254.35 368.757L254.956 368.652L255.563 368.826L256.169 368.583L256.776 369.07L257.382 368.513L257.988 368.478L258.595 368.27L259.201 368.409L259.808 368.722L260.414 368.791L261.02 369.035L261.627 368.791L262.233 368.687L262.84 368.861L263.446 368.722L264.052 368.896L264.659 369.348L265.265 369.139L265.871 369.244L266.478 368.861L267.084 369.07L267.691 368.687L268.297 368.791L268.903 369.174L269.51 368.931L270.116 368.548L270.723 368.965L271.329 368.13L271.935 368.896L272.542 368.27L273.148 368.861L273.754 368.965L274.361 368.374L274.967 367.956L275.574 368.409L276.18 368.339L276.786 368.687L277.393 369.244H277.999L278.606 368.861L279.212 367.261L279.818 368.478L280.425 367.156L281.031 368.235L281.638 368.687L282.244 368.861L282.85 368.2L283.457 368.096L284.063 368.165L284.669 368.374L285.276 368.444L285.882 369.383L286.489 368.861L287.095 368.304L287.701 368.235L288.308 368.687L288.914 368.026L289.521 369.104L290.127 368.478L290.733 369.731L291.34 368.548L291.946 369.174L292.552 368.687L293.159 369.104L293.765 369.07H294.372H294.978L295.584 368.583L296.191 368.13L296.797 368.374L297.404 368.548L298.01 368.757L298.616 369.07L299.223 368.478L299.829 368.165L300.436 367.783L301.042 368.13L301.648 369.383L302.255 368.861L302.861 368.548L303.467 367.956L304.074 367.296L304.68 367.504L305.287 366.948L305.893 367.365L306.499 367.226L307.106 368.374L307.712 368.861L308.319 367.504L308.925 367.365L309.531 367.261L310.138 365.313L310.744 366.704L311.35 367.469L311.957 365.869L312.563 365.939L313.17 367.469L313.776 366.217L314.382 367.052L314.989 367.156L315.595 368.374L316.202 366.878L316.808 365.243L317.414 366.461L318.021 367.609L318.627 367.156L319.234 368.444L319.84 368.583L320.446 368.2L321.053 367.748L321.659 367.783L322.265 368.374L322.872 368.687L323.478 368.861L324.085 368.409L324.691 369.139L325.297 368.861L325.904 369.244H326.51L327.117 369.418L327.723 369.174L328.329 369.626L328.936 369.348L329.542 369.104L330.148 369.209L330.755 369.174L331.361 369.348L331.968 369.557L332.574 369.452L333.18 369.209L333.787 369.383L334.393 369.278L335 369L335.606 369.139L336.212 369.278L336.819 369.557L337.425 369.209L338.032 369.174L338.638 368.826L339.244 369.348L339.851 368.861L340.457 369.174L341.063 369.557L341.67 369.035L342.276 368.896L342.883 368.791L343.489 368.478L344.095 368.757L344.702 369L345.308 369.244L345.915 368.861L346.521 368.583L347.127 368.304L347.734 368.27L348.34 367.539L348.947 368.965L349.553 369.174L350.159 367.191L350.766 367.435L351.372 367.122L351.978 366.739L352.585 366.391L353.191 367.435L353.798 368.339L354.404 366.774L355.01 365.939L355.617 366.565L356.223 366.217L356.83 365.73L357.436 366.461L358.042 368.061L358.649 366.391L359.255 364.408L359.861 364.93L360.468 365.243L361.074 364.721L361.681 366.565L362.287 368.513L362.893 365.452L363.5 365.034L364.106 365.139L364.713 366.217L365.319 363.991L365.925 366.6L366.532 368.687L367.138 365.8L367.744 366.495L368.351 365.626L368.957 366.843L369.564 365.73L370.17 367.504L370.776 368.27L371.383 366.809L371.989 367.609L372.596 367.156L373.202 367.748L373.808 366.148L374.415 367.817H375.021L375.628 368.652L376.234 367.609L376.84 368.444L377.447 366.948L378.053 366.565L378.659 366.217L379.266 368.548L379.872 365.208L380.479 366.008L381.085 365.417L381.691 365.139L382.298 364.234L382.904 367.087L383.511 367.748L384.117 363.956L384.723 362.738L385.33 362.912L385.936 362.599L386.543 361.764L387.149 364.373L387.755 366.182L388.362 360.895L388.968 359.294L389.574 361.451L390.181 358.912L390.787 358.146L391.394 360.373L392 364.86L392.606 362.043L393.213 359.468L393.819 361.312L394.426 361.208L395.032 360.721L395.638 363.434L396.245 366.182L396.851 364.269L397.458 363.747L398.064 364.025L398.67 364.756L399.277 364.339L399.883 366.182L400.489 367.922L401.096 366.078L401.702 365.8L402.309 366.426L402.915 366.809L403.521 366.426L404.128 367.678L404.734 368.652L405.34 366.391L405.947 366.461L406.553 367.643L407.16 366.948L407.766 367.226L408.372 367.678L408.979 368.931L409.585 366.878L410.192 367.469L410.798 367.609L411.404 367.678L412.011 367.156L412.617 368.617L413.224 368.826L413.83 367.643L414.436 367.783L415.043 368.583L415.649 367.887L416.255 367.574L416.862 368.757L417.468 368.826L418.075 367.539L418.681 366.913L419.287 367.713L419.894 367.156L420.5 366.982L421.107 367.365L421.713 368.583L422.319 364.443L422.926 363.921L423.532 364.478L424.139 366.321L424.745 366.356L425.351 362.53L425.958 365.765L426.564 357.485L427.17 357.729L427.777 356.164L428.383 356.511L428.99 354.529L429.596 357.033L430.202 362.53L430.809 353.554L431.415 348.858L432.022 347.258L432.628 350.145L433.234 350.737L433.841 349.832L434.447 358.251H435.054L435.66 347.606L436.266 344.336L436.873 344.718L437.479 343.64L438.085 346.806L438.692 358.007L439.298 346.006L439.905 343.327L440.511 343.083L441.117 343.953L441.724 346.214L442.33 349.415L442.937 360.06L443.543 343.71L444.149 341.657L444.756 346.145L445.362 345.727L445.968 347.014L446.575 349.623L447.181 362.599L447.788 350.528L448.394 351.189L449 350.145L449.607 352.163L450.213 350.389L450.82 357.033L451.426 363.991L452.032 356.477L452.639 355.433L453.245 358.112L453.851 359.329L454.458 360.408L455.064 360.547L455.671 365.034L456.277 359.329L456.883 360.895L457.49 362.495L458.096 363.365L458.703 363.712L459.309 365.834L459.915 367.156L460.522 367.609L461.128 364.93H461.735L462.341 367.539L462.947 365.904L463.554 367.435L464.16 368.27L464.766 367.643L465.373 367.574L465.979 367.748L466.586 368.27L467.192 368.2L467.798 369L468.405 369.313L469.011 368.617L469.618 368.652L470.224 369.313L470.83 368.791L471.437 369.244L472.043 369.313L472.65 369.661L473.256 368.652L473.862 368.757L474.469 368.687L475.075 368.931L475.681 368.757L476.288 369.487L476.894 369.313L477.501 368.722L478.107 369.139H478.713L479.32 369.313L479.926 369.418H480.533L481.139 369.626L481.745 369.348L482.352 369.209L482.958 369.487L483.564 369.592L484.171 369.418L484.777 369.696L485.384 369.765L485.99 369.452L486.596 369.592L487.203 369.522L487.809 369.278L488.416 369.661L489.022 369.696L489.628 369.765L490.235 369.661H490.841L491.447 369.696H492.054L492.66 369.765H493.267L493.873 369.8L494.479 369.696L495.086 369.8L495.692 369.765L496.299 369.731L496.905 369.765L497.511 369.8L498.118 369.731H498.724L499.331 369.8L499.937 369.731L500.543 369.696H501.15L501.756 369.765H502.362L502.969 369.696L503.575 369.765L504.182 369.731L504.788 369.626L505.394 369.661L506.001 369.626L506.607 369.661L507.214 369.696L507.82 369.731L508.426 369.8L509.033 369.661L509.639 369.592L510.246 369.626L510.852 369.765L511.458 369.661H512.065L512.671 369.592L513.277 369.765L513.884 369.592L514.49 369.696L515.097 369.731L515.703 369.452L516.309 369.557L516.916 368.931L517.522 368.722L518.129 368.687L518.735 369.139L519.341 369.626L519.948 368.757L520.554 368.861L521.16 368.165L521.767 368.235L522.373 368.2L522.98 367.956L523.586 365.347L524.192 362.286L524.799 347.919L525.405 335.778L526.012 320.541L526.618 309.235L527.224 315.393L527.831 342.562L528.437 343.466L529.044 313.236L529.65 306.522L530.256 313.062L530.863 306.557L531.469 327.186L532.075 350.284L532.682 320.298L533.288 318.558L533.895 325.098L534.501 326.803L535.107 323.394L535.714 337.274L536.32 347.327L536.927 329.76L537.533 326.733L538.139 331.151L538.746 332.856L539.352 335.882L539.958 342.388L540.565 354.007L541.171 344.545L541.778 342.91L542.384 346.701L542.99 345.832L543.597 345.971L544.203 352.372L544.81 358.599L545.416 346.284L546.022 346.214L546.629 345.936L547.235 346.98L547.841 357.972L548.448 350.598L549.054 359.781L549.661 345.379L550.267 346.493L550.873 345.275L551.48 346.214L552.086 347.397L552.693 350.945L553.299 358.842L553.905 347.954L554.512 342.736L555.118 357.52L555.725 343.257L556.331 339.152L556.937 347.258L557.544 356.685L558.15 334.317L558.756 335.778L559.363 336.369L559.969 340.509L560.576 338.735L561.182 351.085L561.788 359.851L562.395 340.579L563.001 343.188L563.608 346.91L564.214 344.579L564.82 346.214L565.427 349.276L566.033 360.964L566.64 350.319L567.246 340.3L567.852 345.762L568.459 347.536L569.065 342.283L569.671 346.527L570.278 358.842L570.884 358.286L571.491 337.9L572.097 336.474L572.703 340.683L573.31 339.466L573.916 340.996L574.523 356.79L575.129 335.639L575.735 332.96L576.342 330.212L576.948 331.082L577.554 328.334L578.161 333.099L578.767 351.989L579.374 327.359L579.98 321.272L580.586 321.898L581.193 323.394L581.799 318.245L582.406 329.099L583.012 348.997L583.618 317.654L584.225 311.775L584.831 320.645L585.437 316.436L586.044 319.811L586.65 325.377L587.257 348.441L587.863 315.184L588.469 314.453L589.076 314.627L589.682 320.332L590.289 312.366L590.895 323.533L591.501 353.346L592.108 320.576L592.714 313.375L593.321 311.114L593.927 314.592L594.533 341.344L595.14 314.453L595.746 343.397L596.352 307.148L596.959 329.134L597.565 323.289L598.172 321.62L598.778 285.406L599.384 295.425L599.991 332.473L600.597 290.311L601.204 275.387L601.81 289.615L602.416 291.876L603.023 284.049L603.629 298.625L604.236 334.734L604.842 293.998L605.448 281.092L606.055 288.189L606.661 292.259L607.267 292.92L607.874 308.748L608.48 346.736L609.087 302.452L609.693 297.929L610.299 313.305L610.906 316.332L611.512 317.132L612.119 328.473L612.725 353.172L613.331 318.558L613.938 318.384L614.544 323.15L615.15 323.463L615.757 322.385L616.363 327.116L616.97 354.633L617.576 318.732L618.182 313.584L618.789 322.559L619.395 319.985L620.002 322.281L620.608 330.247L621.214 352.163L621.821 324.89L622.427 320.054L623.033 321.376L623.64 327.673L624.246 325.203L624.853 334.456L625.459 355.642L626.065 319.915L626.672 314.419L627.278 316.332L627.885 329.308L628.491 316.854L629.097 325.551L629.704 349.241L630.31 308.783L630.917 309.583L631.523 309.966L632.129 316.123L632.736 310.835L633.342 328.194L633.948 346.562L634.555 290.972L635.161 291.841L635.768 286.693L636.374 285.719L636.98 282.205L637.587 284.293L638.193 336.996L638.8 250.27L639.406 247.418L640.012 245.783L640.619 249.366L641.225 233.99L641.832 224.91L642.438 300.573L643.044 298.312L643.651 190.297L644.257 187.166L644.863 207.899L645.47 185.531L646.076 208.908L646.683 280.675L647.289 174.225L647.895 202.264L648.502 180.487L649.108 187.061L649.715 169.355L650.321 216.527L650.927 256.428L651.534 175.199L652.14 154.813L652.747 194.123L653.353 170.816L653.959 193.567L654.566 221.014L655.172 279.074L655.778 220.597L656.385 193.671L656.991 227.902L657.598 244.391L658.204 261.089L658.81 241.817L659.417 297.373L660.023 219.692L660.63 201.533L661.236 212.874L661.842 239.138L662.449 232.703L663.055 256.95L663.661 310.661L664.268 237.503L664.874 240.078L665.481 254.932L666.087 264.916L666.693 268.986L667.3 291.459L667.906 314.697L668.513 275.074L669.119 281.231L669.725 298.834L670.332 300.677L670.938 299.39L671.544 329.934L672.151 347.188L672.757 312.853L673.364 310.975L673.97 334.073L674.576 328.647L675.183 339.152L675.789 344.718L676.396 354.041L677.002 340.892L677.608 341.135L678.215 343.605L678.821 345.936L679.428 346.771L680.034 351.224L680.64 359.573L681.247 358.807L681.853 342.596L682.459 346.493L683.066 347.571L683.672 358.042L684.279 351.258L684.885 359.921L685.491 349.867L686.098 353.346L686.704 350.006L687.311 354.529L687.917 353.241L688.523 359.225L689.13 362.564L689.736 351.989L690.343 355.676L690.949 356.094L691.555 357.555L692.162 354.285L692.768 361.903L693.374 366.182L693.981 364.269L694.587 348.475L695.194 355.468L695.8 358.981" stroke="#4285F4" stroke-width="2" stroke-miterlimit="10"/>
<path d="M379.922 418.8V410.206H382.891C383.557 410.206 384.068 410.248 384.422 410.331C384.911 410.446 385.328 410.649 385.672 410.94C386.13 411.326 386.469 411.821 386.688 412.425C386.917 413.019 387.031 413.696 387.031 414.456C387.031 415.112 386.953 415.69 386.797 416.19C386.651 416.69 386.458 417.107 386.219 417.44C385.979 417.774 385.714 418.034 385.422 418.222C385.141 418.409 384.802 418.555 384.406 418.659C384.01 418.753 383.552 418.8 383.031 418.8H379.922ZM381.062 417.784H382.891C383.464 417.784 383.911 417.732 384.234 417.628C384.557 417.524 384.812 417.373 385 417.175C385.271 416.914 385.479 416.555 385.625 416.097C385.781 415.638 385.859 415.086 385.859 414.44C385.859 413.545 385.708 412.857 385.406 412.378C385.115 411.888 384.76 411.56 384.344 411.394C384.031 411.279 383.542 411.222 382.875 411.222H381.062V417.784ZM392.859 418.034C392.464 418.368 392.083 418.602 391.719 418.737C391.365 418.873 390.979 418.94 390.562 418.94C389.875 418.94 389.349 418.774 388.984 418.44C388.62 418.107 388.438 417.68 388.438 417.159C388.438 416.857 388.505 416.581 388.641 416.331C388.776 416.071 388.958 415.868 389.188 415.722C389.417 415.565 389.672 415.451 389.953 415.378C390.151 415.315 390.464 415.258 390.891 415.206C391.734 415.112 392.359 414.993 392.766 414.847C392.766 414.701 392.766 414.612 392.766 414.581C392.766 414.144 392.667 413.836 392.469 413.659C392.198 413.43 391.797 413.315 391.266 413.315C390.776 413.315 390.411 413.404 390.172 413.581C389.932 413.748 389.755 414.05 389.641 414.487L388.609 414.347C388.703 413.909 388.859 413.555 389.078 413.284C389.297 413.013 389.609 412.805 390.016 412.659C390.422 412.513 390.891 412.44 391.422 412.44C391.953 412.44 392.385 412.503 392.719 412.628C393.052 412.753 393.297 412.909 393.453 413.097C393.609 413.284 393.719 413.524 393.781 413.815C393.812 413.993 393.828 414.315 393.828 414.784V416.19C393.828 417.17 393.849 417.789 393.891 418.05C393.943 418.31 394.036 418.56 394.172 418.8H393.062C392.958 418.581 392.891 418.326 392.859 418.034ZM392.766 415.675C392.38 415.831 391.807 415.966 391.047 416.081C390.609 416.144 390.302 416.216 390.125 416.3C389.948 416.373 389.807 416.482 389.703 416.628C389.609 416.774 389.562 416.94 389.562 417.128C389.562 417.409 389.667 417.644 389.875 417.831C390.094 418.019 390.406 418.112 390.812 418.112C391.219 418.112 391.578 418.024 391.891 417.847C392.214 417.67 392.448 417.425 392.594 417.112C392.708 416.873 392.766 416.524 392.766 416.065V415.675ZM398.094 417.862L398.25 418.784C397.948 418.847 397.682 418.878 397.453 418.878C397.068 418.878 396.771 418.821 396.562 418.706C396.354 418.581 396.203 418.42 396.109 418.222C396.026 418.024 395.984 417.607 395.984 416.972V413.394H395.219V412.581H395.984V411.034L397.031 410.409V412.581H398.094V413.394H397.031V417.034C397.031 417.336 397.047 417.529 397.078 417.612C397.12 417.696 397.182 417.763 397.266 417.815C397.349 417.868 397.469 417.894 397.625 417.894C397.75 417.894 397.906 417.883 398.094 417.862ZM403.047 416.8L404.141 416.925C403.974 417.56 403.656 418.055 403.188 418.409C402.719 418.763 402.125 418.94 401.406 418.94C400.5 418.94 399.776 418.659 399.234 418.097C398.703 417.534 398.438 416.748 398.438 415.737C398.438 414.696 398.708 413.888 399.25 413.315C399.792 412.732 400.49 412.44 401.344 412.44C402.177 412.44 402.854 412.722 403.375 413.284C403.906 413.847 404.172 414.644 404.172 415.675C404.172 415.737 404.172 415.831 404.172 415.956H399.531C399.573 416.644 399.766 417.17 400.109 417.534C400.453 417.888 400.885 418.065 401.406 418.065C401.792 418.065 402.12 417.966 402.391 417.769C402.672 417.56 402.891 417.237 403.047 416.8ZM399.594 415.097H403.062C403.021 414.565 402.891 414.17 402.672 413.909C402.328 413.503 401.891 413.3 401.359 413.3C400.87 413.3 400.458 413.461 400.125 413.784C399.802 414.107 399.625 414.545 399.594 415.097Z" fill="black"/>
<path d="M29.0125 260.572C27.5854 260.572 26.4708 260.192 25.6687 259.432C24.8562 258.661 24.45 257.671 24.45 256.463C24.45 255.661 24.6427 254.942 25.0281 254.307C25.4031 253.671 25.9291 253.187 26.6062 252.854C27.2833 252.52 28.0541 252.354 28.9187 252.354C29.7833 252.354 30.5594 252.531 31.2469 252.885C31.9344 253.239 32.4552 253.739 32.8094 254.385C33.1635 255.02 33.3406 255.713 33.3406 256.463C33.3406 257.275 33.1479 257.999 32.7625 258.635C32.3667 259.27 31.8354 259.755 31.1687 260.088C30.4916 260.411 29.7729 260.572 29.0125 260.572ZM29.0281 259.4C30.0698 259.4 30.8875 259.124 31.4812 258.572C32.075 258.01 32.3719 257.307 32.3719 256.463C32.3719 255.609 32.075 254.906 31.4812 254.354C30.8771 253.801 30.0177 253.525 28.9031 253.525C28.2052 253.525 27.5958 253.645 27.075 253.885C26.5541 254.114 26.1531 254.458 25.8719 254.916C25.5802 255.374 25.4344 255.885 25.4344 256.447C25.4344 257.249 25.7104 257.942 26.2625 258.525C26.8146 259.109 27.7364 259.4 29.0281 259.4ZM33.2 251.354H24.6062V250.291H29.5125L26.9812 247.807V246.432L29.2781 248.822L33.2 246.197V247.494L30.0125 249.557L30.7312 250.291H33.2V251.354ZM25.825 245.354H24.6062V244.291H25.825V245.354ZM33.2 245.354H26.9812V244.291H33.2V245.354ZM33.2 242.354H26.9812V241.416H27.8562C27.1791 240.958 26.8406 240.296 26.8406 239.432C26.8406 239.057 26.9083 238.713 27.0437 238.4C27.1791 238.077 27.3562 237.838 27.575 237.682C27.7937 237.525 28.0489 237.416 28.3406 237.354C28.5385 237.322 28.8823 237.307 29.3719 237.307H33.2V238.354H29.4187C28.9812 238.354 28.6583 238.395 28.45 238.479C28.2416 238.562 28.075 238.708 27.95 238.916C27.8146 239.124 27.7469 239.369 27.7469 239.65C27.7469 240.098 27.8927 240.489 28.1844 240.822C28.4656 241.145 29.0021 241.307 29.7937 241.307H33.2V242.354ZM32.4344 231.291C32.7677 231.687 33.0021 232.067 33.1375 232.432C33.2729 232.786 33.3406 233.171 33.3406 233.588C33.3406 234.275 33.1739 234.801 32.8406 235.166C32.5073 235.531 32.0802 235.713 31.5594 235.713C31.2573 235.713 30.9812 235.645 30.7312 235.51C30.4708 235.374 30.2677 235.192 30.1219 234.963C29.9656 234.734 29.851 234.479 29.7781 234.197C29.7156 233.999 29.6583 233.687 29.6062 233.26C29.5125 232.416 29.3927 231.791 29.2469 231.385C29.101 231.385 29.0125 231.385 28.9812 231.385C28.5437 231.385 28.2364 231.484 28.0594 231.682C27.8302 231.952 27.7156 232.354 27.7156 232.885C27.7156 233.374 27.8041 233.739 27.9812 233.979C28.1479 234.218 28.45 234.395 28.8875 234.51L28.7469 235.541C28.3094 235.447 27.9552 235.291 27.6844 235.072C27.4135 234.854 27.2052 234.541 27.0594 234.135C26.9135 233.729 26.8406 233.26 26.8406 232.729C26.8406 232.197 26.9031 231.765 27.0281 231.432C27.1531 231.098 27.3094 230.854 27.4969 230.697C27.6844 230.541 27.9239 230.432 28.2156 230.369C28.3927 230.338 28.7156 230.322 29.1844 230.322H30.5906C31.5698 230.322 32.1896 230.301 32.45 230.26C32.7104 230.208 32.9604 230.114 33.2 229.979V231.088C32.9812 231.192 32.726 231.26 32.4344 231.291ZM30.075 231.385C30.2312 231.77 30.3666 232.343 30.4812 233.104C30.5437 233.541 30.6166 233.848 30.7 234.025C30.7729 234.202 30.8823 234.343 31.0281 234.447C31.1739 234.541 31.3406 234.588 31.5281 234.588C31.8094 234.588 32.0437 234.484 32.2312 234.275C32.4187 234.057 32.5125 233.744 32.5125 233.338C32.5125 232.932 32.4239 232.572 32.2469 232.26C32.0698 231.937 31.825 231.702 31.5125 231.557C31.2729 231.442 30.9239 231.385 30.4656 231.385H30.075ZM33.2 227.213L26.9812 229.119V228.025L30.575 227.041L31.9031 226.666C31.8406 226.645 31.4135 226.536 30.6219 226.338L26.9812 225.354V224.275L30.5906 223.338L31.7781 223.025L30.575 222.666L26.9812 221.604V220.572L33.2 222.525V223.619L29.4656 224.604L28.4187 224.854L33.2 226.104V227.213ZM32.4344 215.291C32.7677 215.687 33.0021 216.067 33.1375 216.432C33.2729 216.786 33.3406 217.171 33.3406 217.588C33.3406 218.275 33.1739 218.801 32.8406 219.166C32.5073 219.531 32.0802 219.713 31.5594 219.713C31.2573 219.713 30.9812 219.645 30.7312 219.51C30.4708 219.374 30.2677 219.192 30.1219 218.963C29.9656 218.734 29.851 218.479 29.7781 218.197C29.7156 217.999 29.6583 217.687 29.6062 217.26C29.5125 216.416 29.3927 215.791 29.2469 215.385C29.101 215.385 29.0125 215.385 28.9812 215.385C28.5437 215.385 28.2364 215.484 28.0594 215.682C27.8302 215.952 27.7156 216.354 27.7156 216.885C27.7156 217.374 27.8041 217.739 27.9812 217.979C28.1479 218.218 28.45 218.395 28.8875 218.51L28.7469 219.541C28.3094 219.447 27.9552 219.291 27.6844 219.072C27.4135 218.854 27.2052 218.541 27.0594 218.135C26.9135 217.729 26.8406 217.26 26.8406 216.729C26.8406 216.197 26.9031 215.765 27.0281 215.432C27.1531 215.098 27.3094 214.854 27.4969 214.697C27.6844 214.541 27.9239 214.432 28.2156 214.369C28.3927 214.338 28.7156 214.322 29.1844 214.322H30.5906C31.5698 214.322 32.1896 214.301 32.45 214.26C32.7104 214.208 32.9604 214.114 33.2 213.979V215.088C32.9812 215.192 32.726 215.26 32.4344 215.291ZM30.075 215.385C30.2312 215.77 30.3666 216.343 30.4812 217.104C30.5437 217.541 30.6166 217.848 30.7 218.025C30.7729 218.202 30.8823 218.343 31.0281 218.447C31.1739 218.541 31.3406 218.588 31.5281 218.588C31.8094 218.588 32.0437 218.484 32.2312 218.275C32.4187 218.057 32.5125 217.744 32.5125 217.338C32.5125 216.932 32.4239 216.572 32.2469 216.26C32.0698 215.937 31.825 215.702 31.5125 215.557C31.2729 215.442 30.9239 215.385 30.4656 215.385H30.075Z" fill="black"/>
<path d="M75.7 369.565C75.7 368.545 75.8042 367.727 76.0125 367.112C76.2208 366.487 76.5281 366.008 76.9344 365.675C77.351 365.341 77.8719 365.175 78.4969 365.175C78.9552 365.175 79.3562 365.269 79.7 365.456C80.0542 365.644 80.3458 365.914 80.575 366.269C80.8042 366.612 80.9812 367.034 81.1062 367.534C81.2312 368.034 81.2937 368.711 81.2937 369.565C81.2937 370.576 81.1896 371.388 80.9812 372.003C80.7833 372.618 80.476 373.097 80.0594 373.44C79.6531 373.774 79.1323 373.94 78.4969 373.94C77.674 373.94 77.0229 373.644 76.5437 373.05C75.9812 372.341 75.7 371.18 75.7 369.565ZM76.7781 369.565C76.7781 370.972 76.9448 371.909 77.2781 372.378C77.6115 372.847 78.0177 373.081 78.4969 373.081C78.9865 373.081 79.3927 372.847 79.7156 372.378C80.049 371.909 80.2156 370.972 80.2156 369.565C80.2156 368.149 80.049 367.211 79.7156 366.753C79.3927 366.284 78.9812 366.05 78.4812 366.05C78.0021 366.05 77.6167 366.253 77.325 366.659C76.9604 367.18 76.7781 368.149 76.7781 369.565Z" fill="black"/>
<path d="M60.2469 303.209V304.225H54.5594C54.5594 303.975 54.601 303.73 54.6844 303.49C54.8302 303.105 55.0594 302.725 55.3719 302.35C55.6948 301.975 56.1583 301.542 56.7625 301.053C57.7 300.282 58.3302 299.673 58.6531 299.225C58.9865 298.777 59.1531 298.355 59.1531 297.959C59.1531 297.542 59.0021 297.193 58.7 296.912C58.3979 296.62 58.0073 296.475 57.5281 296.475C57.0177 296.475 56.6115 296.626 56.3094 296.928C56.0073 297.23 55.851 297.652 55.8406 298.193L54.7625 298.084C54.8354 297.271 55.1115 296.657 55.5906 296.24C56.0802 295.813 56.7365 295.6 57.5594 295.6C58.3823 295.6 59.0333 295.829 59.5125 296.287C59.9917 296.745 60.2312 297.313 60.2312 297.99C60.2312 298.334 60.1583 298.673 60.0125 299.006C59.8771 299.329 59.6427 299.678 59.3094 300.053C58.9865 300.417 58.45 300.917 57.7 301.553C57.0646 302.084 56.6531 302.449 56.4656 302.646C56.2885 302.834 56.1427 303.021 56.0281 303.209H60.2469ZM61.7 299.99C61.7 298.969 61.8042 298.152 62.0125 297.537C62.2208 296.912 62.5281 296.433 62.9344 296.1C63.351 295.766 63.8719 295.6 64.4969 295.6C64.9552 295.6 65.3562 295.693 65.7 295.881C66.0542 296.068 66.3458 296.339 66.575 296.693C66.8042 297.037 66.9812 297.459 67.1062 297.959C67.2312 298.459 67.2937 299.136 67.2937 299.99C67.2937 301.001 67.1896 301.813 66.9812 302.428C66.7833 303.042 66.476 303.521 66.0594 303.865C65.6531 304.199 65.1323 304.365 64.4969 304.365C63.674 304.365 63.0229 304.068 62.5437 303.475C61.9812 302.766 61.7 301.605 61.7 299.99ZM62.7781 299.99C62.7781 301.396 62.9448 302.334 63.2781 302.803C63.6115 303.271 64.0177 303.506 64.4969 303.506C64.9865 303.506 65.3927 303.271 65.7156 302.803C66.049 302.334 66.2156 301.396 66.2156 299.99C66.2156 298.574 66.049 297.636 65.7156 297.178C65.3927 296.709 64.9812 296.475 64.4812 296.475C64.0021 296.475 63.6167 296.678 63.325 297.084C62.9604 297.605 62.7781 298.574 62.7781 299.99ZM68.7 299.99C68.7 298.969 68.8042 298.152 69.0125 297.537C69.2208 296.912 69.5281 296.433 69.9344 296.1C70.351 295.766 70.8719 295.6 71.4969 295.6C71.9552 295.6 72.3562 295.693 72.7 295.881C73.0542 296.068 73.3458 296.339 73.575 296.693C73.8042 297.037 73.9812 297.459 74.1062 297.959C74.2312 298.459 74.2937 299.136 74.2937 299.99C74.2937 301.001 74.1896 301.813 73.9812 302.428C73.7833 303.042 73.476 303.521 73.0594 303.865C72.6531 304.199 72.1323 304.365 71.4969 304.365C70.674 304.365 70.0229 304.068 69.5437 303.475C68.9812 302.766 68.7 301.605 68.7 299.99ZM69.7781 299.99C69.7781 301.396 69.9448 302.334 70.2781 302.803C70.6115 303.271 71.0177 303.506 71.4969 303.506C71.9865 303.506 72.3927 303.271 72.7156 302.803C73.049 302.334 73.2156 301.396 73.2156 299.99C73.2156 298.574 73.049 297.636 72.7156 297.178C72.3927 296.709 71.9812 296.475 71.4812 296.475C71.0021 296.475 70.6167 296.678 70.325 297.084C69.9604 297.605 69.7781 298.574 69.7781 299.99ZM75.7 299.99C75.7 298.969 75.8042 298.152 76.0125 297.537C76.2208 296.912 76.5281 296.433 76.9344 296.1C77.351 295.766 77.8719 295.6 78.4969 295.6C78.9552 295.6 79.3562 295.693 79.7 295.881C80.0542 296.068 80.3458 296.339 80.575 296.693C80.8042 297.037 80.9812 297.459 81.1062 297.959C81.2312 298.459 81.2937 299.136 81.2937 299.99C81.2937 301.001 81.1896 301.813 80.9812 302.428C80.7833 303.042 80.476 303.521 80.0594 303.865C79.6531 304.199 79.1323 304.365 78.4969 304.365C77.674 304.365 77.0229 304.068 76.5437 303.475C75.9812 302.766 75.7 301.605 75.7 299.99ZM76.7781 299.99C76.7781 301.396 76.9448 302.334 77.2781 302.803C77.6115 303.271 78.0177 303.506 78.4969 303.506C78.9865 303.506 79.3927 303.271 79.7156 302.803C80.049 302.334 80.2156 301.396 80.2156 299.99C80.2156 298.574 80.049 297.636 79.7156 297.178C79.3927 296.709 78.9812 296.475 78.4812 296.475C78.0021 296.475 77.6167 296.678 77.325 297.084C76.9604 297.605 76.7781 298.574 76.7781 299.99Z" fill="black"/>
<path d="M58.075 234.65V232.588H54.3562V231.619L58.2781 226.057H59.1375V231.619H60.2937V232.588H59.1375V234.65H58.075ZM58.075 231.619V227.76L55.3875 231.619H58.075ZM61.7 230.416C61.7 229.395 61.8042 228.577 62.0125 227.963C62.2208 227.338 62.5281 226.859 62.9344 226.525C63.351 226.192 63.8719 226.025 64.4969 226.025C64.9552 226.025 65.3562 226.119 65.7 226.307C66.0542 226.494 66.3458 226.765 66.575 227.119C66.8042 227.463 66.9812 227.885 67.1062 228.385C67.2312 228.885 67.2937 229.562 67.2937 230.416C67.2937 231.426 67.1896 232.239 66.9812 232.854C66.7833 233.468 66.476 233.947 66.0594 234.291C65.6531 234.624 65.1323 234.791 64.4969 234.791C63.674 234.791 63.0229 234.494 62.5437 233.9C61.9812 233.192 61.7 232.031 61.7 230.416ZM62.7781 230.416C62.7781 231.822 62.9448 232.76 63.2781 233.229C63.6115 233.697 64.0177 233.932 64.4969 233.932C64.9865 233.932 65.3927 233.697 65.7156 233.229C66.049 232.76 66.2156 231.822 66.2156 230.416C66.2156 228.999 66.049 228.062 65.7156 227.604C65.3927 227.135 64.9812 226.9 64.4812 226.9C64.0021 226.9 63.6167 227.104 63.325 227.51C62.9604 228.031 62.7781 228.999 62.7781 230.416ZM68.7 230.416C68.7 229.395 68.8042 228.577 69.0125 227.963C69.2208 227.338 69.5281 226.859 69.9344 226.525C70.351 226.192 70.8719 226.025 71.4969 226.025C71.9552 226.025 72.3562 226.119 72.7 226.307C73.0542 226.494 73.3458 226.765 73.575 227.119C73.8042 227.463 73.9812 227.885 74.1062 228.385C74.2312 228.885 74.2937 229.562 74.2937 230.416C74.2937 231.426 74.1896 232.239 73.9812 232.854C73.7833 233.468 73.476 233.947 73.0594 234.291C72.6531 234.624 72.1323 234.791 71.4969 234.791C70.674 234.791 70.0229 234.494 69.5437 233.9C68.9812 233.192 68.7 232.031 68.7 230.416ZM69.7781 230.416C69.7781 231.822 69.9448 232.76 70.2781 233.229C70.6115 233.697 71.0177 233.932 71.4969 233.932C71.9865 233.932 72.3927 233.697 72.7156 233.229C73.049 232.76 73.2156 231.822 73.2156 230.416C73.2156 228.999 73.049 228.062 72.7156 227.604C72.3927 227.135 71.9812 226.9 71.4812 226.9C71.0021 226.9 70.6167 227.104 70.325 227.51C69.9604 228.031 69.7781 228.999 69.7781 230.416ZM75.7 230.416C75.7 229.395 75.8042 228.577 76.0125 227.963C76.2208 227.338 76.5281 226.859 76.9344 226.525C77.351 226.192 77.8719 226.025 78.4969 226.025C78.9552 226.025 79.3562 226.119 79.7 226.307C80.0542 226.494 80.3458 226.765 80.575 227.119C80.8042 227.463 80.9812 227.885 81.1062 228.385C81.2312 228.885 81.2937 229.562 81.2937 230.416C81.2937 231.426 81.1896 232.239 80.9812 232.854C80.7833 233.468 80.476 233.947 80.0594 234.291C79.6531 234.624 79.1323 234.791 78.4969 234.791C77.674 234.791 77.0229 234.494 76.5437 233.9C75.9812 233.192 75.7 232.031 75.7 230.416ZM76.7781 230.416C76.7781 231.822 76.9448 232.76 77.2781 233.229C77.6115 233.697 78.0177 233.932 78.4969 233.932C78.9865 233.932 79.3927 233.697 79.7156 233.229C80.049 232.76 80.2156 231.822 80.2156 230.416C80.2156 228.999 80.049 228.062 79.7156 227.604C79.3927 227.135 78.9812 226.9 78.4812 226.9C78.0021 226.9 77.6167 227.104 77.325 227.51C76.9604 228.031 76.7781 228.999 76.7781 230.416Z" fill="black"/>
<path d="M60.1687 158.591L59.1219 158.669C59.0281 158.252 58.8979 157.95 58.7312 157.763C58.4396 157.461 58.0854 157.31 57.6687 157.31C57.3354 157.31 57.0385 157.403 56.7781 157.591C56.4552 157.841 56.1948 158.2 55.9969 158.669C55.8094 159.127 55.7104 159.784 55.7 160.638C55.95 160.252 56.2573 159.966 56.6219 159.778C56.9969 159.591 57.3875 159.497 57.7937 159.497C58.4917 159.497 59.0854 159.757 59.575 160.278C60.075 160.799 60.325 161.466 60.325 162.278C60.325 162.82 60.2052 163.325 59.9656 163.794C59.7365 164.252 59.4187 164.606 59.0125 164.856C58.6062 165.096 58.1479 165.216 57.6375 165.216C56.7521 165.216 56.0333 164.893 55.4812 164.247C54.9292 163.601 54.6531 162.539 54.6531 161.06C54.6531 159.393 54.9604 158.185 55.575 157.435C56.1062 156.778 56.825 156.45 57.7312 156.45C58.4083 156.45 58.9604 156.643 59.3875 157.028C59.825 157.403 60.0854 157.924 60.1687 158.591ZM55.8719 162.294C55.8719 162.659 55.9448 163.007 56.0906 163.341C56.2469 163.664 56.4604 163.914 56.7312 164.091C57.0125 164.268 57.3094 164.356 57.6219 164.356C58.0594 164.356 58.4396 164.179 58.7625 163.825C59.0854 163.461 59.2469 162.971 59.2469 162.356C59.2469 161.763 59.0854 161.294 58.7625 160.95C58.45 160.606 58.0542 160.435 57.575 160.435C57.0958 160.435 56.6896 160.606 56.3562 160.95C56.0333 161.294 55.8719 161.742 55.8719 162.294ZM61.7 160.841C61.7 159.82 61.8042 159.002 62.0125 158.388C62.2208 157.763 62.5281 157.284 62.9344 156.95C63.351 156.617 63.8719 156.45 64.4969 156.45C64.9552 156.45 65.3562 156.544 65.7 156.731C66.0542 156.919 66.3458 157.19 66.575 157.544C66.8042 157.888 66.9812 158.31 67.1062 158.81C67.2312 159.31 67.2937 159.987 67.2937 160.841C67.2937 161.851 67.1896 162.664 66.9812 163.278C66.7833 163.893 66.476 164.372 66.0594 164.716C65.6531 165.049 65.1323 165.216 64.4969 165.216C63.674 165.216 63.0229 164.919 62.5437 164.325C61.9812 163.617 61.7 162.455 61.7 160.841ZM62.7781 160.841C62.7781 162.247 62.9448 163.185 63.2781 163.653C63.6115 164.122 64.0177 164.356 64.4969 164.356C64.9865 164.356 65.3927 164.122 65.7156 163.653C66.049 163.185 66.2156 162.247 66.2156 160.841C66.2156 159.424 66.049 158.487 65.7156 158.028C65.3927 157.56 64.9812 157.325 64.4812 157.325C64.0021 157.325 63.6167 157.528 63.325 157.935C62.9604 158.455 62.7781 159.424 62.7781 160.841ZM68.7 160.841C68.7 159.82 68.8042 159.002 69.0125 158.388C69.2208 157.763 69.5281 157.284 69.9344 156.95C70.351 156.617 70.8719 156.45 71.4969 156.45C71.9552 156.45 72.3562 156.544 72.7 156.731C73.0542 156.919 73.3458 157.19 73.575 157.544C73.8042 157.888 73.9812 158.31 74.1062 158.81C74.2312 159.31 74.2937 159.987 74.2937 160.841C74.2937 161.851 74.1896 162.664 73.9812 163.278C73.7833 163.893 73.476 164.372 73.0594 164.716C72.6531 165.049 72.1323 165.216 71.4969 165.216C70.674 165.216 70.0229 164.919 69.5437 164.325C68.9812 163.617 68.7 162.455 68.7 160.841ZM69.7781 160.841C69.7781 162.247 69.9448 163.185 70.2781 163.653C70.6115 164.122 71.0177 164.356 71.4969 164.356C71.9865 164.356 72.3927 164.122 72.7156 163.653C73.049 163.185 73.2156 162.247 73.2156 160.841C73.2156 159.424 73.049 158.487 72.7156 158.028C72.3927 157.56 71.9812 157.325 71.4812 157.325C71.0021 157.325 70.6167 157.528 70.325 157.935C69.9604 158.455 69.7781 159.424 69.7781 160.841ZM75.7 160.841C75.7 159.82 75.8042 159.002 76.0125 158.388C76.2208 157.763 76.5281 157.284 76.9344 156.95C77.351 156.617 77.8719 156.45 78.4969 156.45C78.9552 156.45 79.3562 156.544 79.7 156.731C80.0542 156.919 80.3458 157.19 80.575 157.544C80.8042 157.888 80.9812 158.31 81.1062 158.81C81.2312 159.31 81.2937 159.987 81.2937 160.841C81.2937 161.851 81.1896 162.664 80.9812 163.278C80.7833 163.893 80.476 164.372 80.0594 164.716C79.6531 165.049 79.1323 165.216 78.4969 165.216C77.674 165.216 77.0229 164.919 76.5437 164.325C75.9812 163.617 75.7 162.455 75.7 160.841ZM76.7781 160.841C76.7781 162.247 76.9448 163.185 77.2781 163.653C77.6115 164.122 78.0177 164.356 78.4969 164.356C78.9865 164.356 79.3927 164.122 79.7156 163.653C80.049 163.185 80.2156 162.247 80.2156 160.841C80.2156 159.424 80.049 158.487 79.7156 158.028C79.3927 157.56 78.9812 157.325 78.4812 157.325C78.0021 157.325 77.6167 157.528 77.325 157.935C76.9604 158.455 76.7781 159.424 76.7781 160.841Z" fill="black"/>
<path d="M56.325 90.8438C55.8875 90.6771 55.5594 90.4479 55.3406 90.1562C55.1323 89.8542 55.0281 89.5 55.0281 89.0938C55.0281 88.4688 55.2521 87.9427 55.7 87.5156C56.1583 87.0885 56.7573 86.875 57.4969 86.875C58.2469 86.875 58.851 87.0938 59.3094 87.5312C59.7677 87.9688 59.9969 88.5 59.9969 89.125C59.9969 89.5208 59.8927 89.8646 59.6844 90.1562C59.476 90.4479 59.1583 90.6771 58.7312 90.8438C59.2625 91.0104 59.6635 91.2865 59.9344 91.6719C60.2052 92.0573 60.3406 92.5156 60.3406 93.0469C60.3406 93.776 60.0802 94.3906 59.5594 94.8906C59.049 95.3906 58.3667 95.6406 57.5125 95.6406C56.6687 95.6406 55.9865 95.3906 55.4656 94.8906C54.9448 94.3906 54.6844 93.7656 54.6844 93.0156C54.6844 92.4531 54.825 91.9844 55.1062 91.6094C55.3979 91.2344 55.8042 90.9792 56.325 90.8438ZM56.1062 89.0469C56.1062 89.4531 56.2365 89.7865 56.4969 90.0469C56.7677 90.3073 57.1115 90.4375 57.5281 90.4375C57.9344 90.4375 58.2677 90.3125 58.5281 90.0625C58.7885 89.8021 58.9187 89.4844 58.9187 89.1094C58.9187 88.724 58.7833 88.401 58.5125 88.1406C58.2417 87.8698 57.9083 87.7344 57.5125 87.7344C57.1062 87.7344 56.7677 87.8646 56.4969 88.125C56.2365 88.3854 56.1062 88.6927 56.1062 89.0469ZM55.7781 93.0156C55.7781 93.3177 55.8458 93.6094 55.9812 93.8906C56.1271 94.1719 56.3406 94.3906 56.6219 94.5469C56.9031 94.7031 57.2052 94.7812 57.5281 94.7812C58.0281 94.7812 58.4396 94.6198 58.7625 94.2969C59.0958 93.974 59.2625 93.5625 59.2625 93.0625C59.2625 92.5521 59.0958 92.1302 58.7625 91.7969C58.4292 91.4635 58.0073 91.2969 57.4969 91.2969C56.9969 91.2969 56.5854 91.4635 56.2625 91.7969C55.9396 92.1198 55.7781 92.526 55.7781 93.0156ZM61.7 91.2656C61.7 90.2448 61.8042 89.4271 62.0125 88.8125C62.2208 88.1875 62.5281 87.7083 62.9344 87.375C63.351 87.0417 63.8719 86.875 64.4969 86.875C64.9552 86.875 65.3562 86.9688 65.7 87.1562C66.0542 87.3438 66.3458 87.6146 66.575 87.9688C66.8042 88.3125 66.9812 88.7344 67.1062 89.2344C67.2312 89.7344 67.2937 90.4115 67.2937 91.2656C67.2937 92.276 67.1896 93.0885 66.9812 93.7031C66.7833 94.3177 66.476 94.7969 66.0594 95.1406C65.6531 95.474 65.1323 95.6406 64.4969 95.6406C63.674 95.6406 63.0229 95.3438 62.5437 94.75C61.9812 94.0417 61.7 92.8802 61.7 91.2656ZM62.7781 91.2656C62.7781 92.6719 62.9448 93.6094 63.2781 94.0781C63.6115 94.5469 64.0177 94.7812 64.4969 94.7812C64.9865 94.7812 65.3927 94.5469 65.7156 94.0781C66.049 93.6094 66.2156 92.6719 66.2156 91.2656C66.2156 89.849 66.049 88.9115 65.7156 88.4531C65.3927 87.9844 64.9812 87.75 64.4812 87.75C64.0021 87.75 63.6167 87.9531 63.325 88.3594C62.9604 88.8802 62.7781 89.849 62.7781 91.2656ZM68.7 91.2656C68.7 90.2448 68.8042 89.4271 69.0125 88.8125C69.2208 88.1875 69.5281 87.7083 69.9344 87.375C70.351 87.0417 70.8719 86.875 71.4969 86.875C71.9552 86.875 72.3562 86.9688 72.7 87.1562C73.0542 87.3438 73.3458 87.6146 73.575 87.9688C73.8042 88.3125 73.9812 88.7344 74.1062 89.2344C74.2312 89.7344 74.2937 90.4115 74.2937 91.2656C74.2937 92.276 74.1896 93.0885 73.9812 93.7031C73.7833 94.3177 73.476 94.7969 73.0594 95.1406C72.6531 95.474 72.1323 95.6406 71.4969 95.6406C70.674 95.6406 70.0229 95.3438 69.5437 94.75C68.9812 94.0417 68.7 92.8802 68.7 91.2656ZM69.7781 91.2656C69.7781 92.6719 69.9448 93.6094 70.2781 94.0781C70.6115 94.5469 71.0177 94.7812 71.4969 94.7812C71.9865 94.7812 72.3927 94.5469 72.7156 94.0781C73.049 93.6094 73.2156 92.6719 73.2156 91.2656C73.2156 89.849 73.049 88.9115 72.7156 88.4531C72.3927 87.9844 71.9812 87.75 71.4812 87.75C71.0021 87.75 70.6167 87.9531 70.325 88.3594C69.9604 88.8802 69.7781 89.849 69.7781 91.2656ZM75.7 91.2656C75.7 90.2448 75.8042 89.4271 76.0125 88.8125C76.2208 88.1875 76.5281 87.7083 76.9344 87.375C77.351 87.0417 77.8719 86.875 78.4969 86.875C78.9552 86.875 79.3562 86.9688 79.7 87.1562C80.0542 87.3438 80.3458 87.6146 80.575 87.9688C80.8042 88.3125 80.9812 88.7344 81.1062 89.2344C81.2312 89.7344 81.2937 90.4115 81.2937 91.2656C81.2937 92.276 81.1896 93.0885 80.9812 93.7031C80.7833 94.3177 80.476 94.7969 80.0594 95.1406C79.6531 95.474 79.1323 95.6406 78.4969 95.6406C77.674 95.6406 77.0229 95.3438 76.5437 94.75C75.9812 94.0417 75.7 92.8802 75.7 91.2656ZM76.7781 91.2656C76.7781 92.6719 76.9448 93.6094 77.2781 94.0781C77.6115 94.5469 78.0177 94.7812 78.4969 94.7812C78.9865 94.7812 79.3927 94.5469 79.7156 94.0781C80.049 93.6094 80.2156 92.6719 80.2156 91.2656C80.2156 89.849 80.049 88.9115 79.7156 88.4531C79.3927 87.9844 78.9812 87.75 78.4812 87.75C78.0021 87.75 77.6167 87.9531 77.325 88.3594C76.9604 88.8802 76.7781 89.849 76.7781 91.2656Z" fill="black"/>
<path d="M167.959 386.8V384.737H164.24V383.769L168.162 378.206H169.021V383.769H170.177V384.737H169.021V386.8H167.959ZM167.959 383.769V379.909L165.271 383.769H167.959ZM174.959 386.8V384.737H171.24V383.769L175.162 378.206H176.021V383.769H177.177V384.737H176.021V386.8H174.959ZM174.959 383.769V379.909L172.271 383.769H174.959ZM178.584 382.565C178.584 381.545 178.688 380.727 178.896 380.112C179.104 379.487 179.412 379.008 179.818 378.675C180.235 378.341 180.756 378.175 181.381 378.175C181.839 378.175 182.24 378.269 182.584 378.456C182.938 378.644 183.229 378.914 183.459 379.269C183.688 379.612 183.865 380.034 183.99 380.534C184.115 381.034 184.177 381.711 184.177 382.565C184.177 383.576 184.073 384.388 183.865 385.003C183.667 385.618 183.36 386.097 182.943 386.44C182.537 386.774 182.016 386.94 181.381 386.94C180.558 386.94 179.907 386.644 179.427 386.05C178.865 385.341 178.584 384.18 178.584 382.565ZM179.662 382.565C179.662 383.972 179.828 384.909 180.162 385.378C180.495 385.847 180.901 386.081 181.381 386.081C181.87 386.081 182.276 385.847 182.599 385.378C182.933 384.909 183.099 383.972 183.099 382.565C183.099 381.149 182.933 380.211 182.599 379.753C182.276 379.284 181.865 379.05 181.365 379.05C180.886 379.05 180.5 379.253 180.209 379.659C179.844 380.18 179.662 381.149 179.662 382.565ZM185.584 382.565C185.584 381.545 185.688 380.727 185.896 380.112C186.104 379.487 186.412 379.008 186.818 378.675C187.235 378.341 187.756 378.175 188.381 378.175C188.839 378.175 189.24 378.269 189.584 378.456C189.938 378.644 190.229 378.914 190.459 379.269C190.688 379.612 190.865 380.034 190.99 380.534C191.115 381.034 191.177 381.711 191.177 382.565C191.177 383.576 191.073 384.388 190.865 385.003C190.667 385.618 190.36 386.097 189.943 386.44C189.537 386.774 189.016 386.94 188.381 386.94C187.558 386.94 186.907 386.644 186.427 386.05C185.865 385.341 185.584 384.18 185.584 382.565ZM186.662 382.565C186.662 383.972 186.828 384.909 187.162 385.378C187.495 385.847 187.901 386.081 188.381 386.081C188.87 386.081 189.276 385.847 189.599 385.378C189.933 384.909 190.099 383.972 190.099 382.565C190.099 381.149 189.933 380.211 189.599 379.753C189.276 379.284 188.865 379.05 188.365 379.05C187.886 379.05 187.5 379.253 187.209 379.659C186.844 380.18 186.662 381.149 186.662 382.565ZM192.584 382.565C192.584 381.545 192.688 380.727 192.896 380.112C193.104 379.487 193.412 379.008 193.818 378.675C194.235 378.341 194.756 378.175 195.381 378.175C195.839 378.175 196.24 378.269 196.584 378.456C196.938 378.644 197.229 378.914 197.459 379.269C197.688 379.612 197.865 380.034 197.99 380.534C198.115 381.034 198.177 381.711 198.177 382.565C198.177 383.576 198.073 384.388 197.865 385.003C197.667 385.618 197.36 386.097 196.943 386.44C196.537 386.774 196.016 386.94 195.381 386.94C194.558 386.94 193.907 386.644 193.427 386.05C192.865 385.341 192.584 384.18 192.584 382.565ZM193.662 382.565C193.662 383.972 193.828 384.909 194.162 385.378C194.495 385.847 194.901 386.081 195.381 386.081C195.87 386.081 196.276 385.847 196.599 385.378C196.933 384.909 197.099 383.972 197.099 382.565C197.099 381.149 196.933 380.211 196.599 379.753C196.276 379.284 195.865 379.05 195.365 379.05C194.886 379.05 194.5 379.253 194.209 379.659C193.844 380.18 193.662 381.149 193.662 382.565Z" fill="black"/>
<path d="M289.236 386.8V384.737H285.517V383.769L289.439 378.206H290.299V383.769H291.455V384.737H290.299V386.8H289.236ZM289.236 383.769V379.909L286.549 383.769H289.236ZM296.236 386.8V384.737H292.517V383.769L296.439 378.206H297.299V383.769H298.455V384.737H297.299V386.8H296.236ZM296.236 383.769V379.909L293.549 383.769H296.236ZM305.408 385.784V386.8H299.72C299.72 386.55 299.762 386.305 299.845 386.065C299.991 385.68 300.22 385.3 300.533 384.925C300.856 384.55 301.319 384.118 301.924 383.628C302.861 382.857 303.491 382.248 303.814 381.8C304.148 381.352 304.314 380.93 304.314 380.534C304.314 380.118 304.163 379.769 303.861 379.487C303.559 379.196 303.168 379.05 302.689 379.05C302.179 379.05 301.773 379.201 301.47 379.503C301.168 379.805 301.012 380.227 301.002 380.769L299.924 380.659C299.997 379.847 300.273 379.232 300.752 378.815C301.241 378.388 301.898 378.175 302.72 378.175C303.543 378.175 304.194 378.404 304.674 378.862C305.153 379.321 305.392 379.888 305.392 380.565C305.392 380.909 305.319 381.248 305.174 381.581C305.038 381.904 304.804 382.253 304.47 382.628C304.148 382.993 303.611 383.493 302.861 384.128C302.226 384.659 301.814 385.024 301.627 385.222C301.45 385.409 301.304 385.597 301.189 385.784H305.408ZM306.861 382.565C306.861 381.545 306.965 380.727 307.174 380.112C307.382 379.487 307.689 379.008 308.095 378.675C308.512 378.341 309.033 378.175 309.658 378.175C310.116 378.175 310.517 378.269 310.861 378.456C311.215 378.644 311.507 378.914 311.736 379.269C311.965 379.612 312.142 380.034 312.267 380.534C312.392 381.034 312.455 381.711 312.455 382.565C312.455 383.576 312.351 384.388 312.142 385.003C311.944 385.618 311.637 386.097 311.22 386.44C310.814 386.774 310.293 386.94 309.658 386.94C308.835 386.94 308.184 386.644 307.705 386.05C307.142 385.341 306.861 384.18 306.861 382.565ZM307.939 382.565C307.939 383.972 308.106 384.909 308.439 385.378C308.773 385.847 309.179 386.081 309.658 386.081C310.148 386.081 310.554 385.847 310.877 385.378C311.21 384.909 311.377 383.972 311.377 382.565C311.377 381.149 311.21 380.211 310.877 379.753C310.554 379.284 310.142 379.05 309.642 379.05C309.163 379.05 308.778 379.253 308.486 379.659C308.121 380.18 307.939 381.149 307.939 382.565ZM313.861 382.565C313.861 381.545 313.965 380.727 314.174 380.112C314.382 379.487 314.689 379.008 315.095 378.675C315.512 378.341 316.033 378.175 316.658 378.175C317.116 378.175 317.517 378.269 317.861 378.456C318.215 378.644 318.507 378.914 318.736 379.269C318.965 379.612 319.142 380.034 319.267 380.534C319.392 381.034 319.455 381.711 319.455 382.565C319.455 383.576 319.351 384.388 319.142 385.003C318.944 385.618 318.637 386.097 318.22 386.44C317.814 386.774 317.293 386.94 316.658 386.94C315.835 386.94 315.184 386.644 314.705 386.05C314.142 385.341 313.861 384.18 313.861 382.565ZM314.939 382.565C314.939 383.972 315.106 384.909 315.439 385.378C315.773 385.847 316.179 386.081 316.658 386.081C317.148 386.081 317.554 385.847 317.877 385.378C318.21 384.909 318.377 383.972 318.377 382.565C318.377 381.149 318.21 380.211 317.877 379.753C317.554 379.284 317.142 379.05 316.642 379.05C316.163 379.05 315.778 379.253 315.486 379.659C315.121 380.18 314.939 381.149 314.939 382.565Z" fill="black"/>
<path d="M410.514 386.8V384.737H406.795V383.769L410.717 378.206H411.576V383.769H412.732V384.737H411.576V386.8H410.514ZM410.514 383.769V379.909L407.826 383.769H410.514ZM417.514 386.8V384.737H413.795V383.769L417.717 378.206H418.576V383.769H419.732V384.737H418.576V386.8H417.514ZM417.514 383.769V379.909L414.826 383.769H417.514ZM424.514 386.8V384.737H420.795V383.769L424.717 378.206H425.576V383.769H426.732V384.737H425.576V386.8H424.514ZM424.514 383.769V379.909L421.826 383.769H424.514ZM428.139 382.565C428.139 381.545 428.243 380.727 428.451 380.112C428.659 379.487 428.967 379.008 429.373 378.675C429.79 378.341 430.31 378.175 430.935 378.175C431.394 378.175 431.795 378.269 432.139 378.456C432.493 378.644 432.784 378.914 433.014 379.269C433.243 379.612 433.42 380.034 433.545 380.534C433.67 381.034 433.732 381.711 433.732 382.565C433.732 383.576 433.628 384.388 433.42 385.003C433.222 385.618 432.915 386.097 432.498 386.44C432.092 386.774 431.571 386.94 430.935 386.94C430.112 386.94 429.461 386.644 428.982 386.05C428.42 385.341 428.139 384.18 428.139 382.565ZM429.217 382.565C429.217 383.972 429.383 384.909 429.717 385.378C430.05 385.847 430.456 386.081 430.935 386.081C431.425 386.081 431.831 385.847 432.154 385.378C432.487 384.909 432.654 383.972 432.654 382.565C432.654 381.149 432.487 380.211 432.154 379.753C431.831 379.284 431.42 379.05 430.92 379.05C430.441 379.05 430.055 379.253 429.764 379.659C429.399 380.18 429.217 381.149 429.217 382.565ZM435.139 382.565C435.139 381.545 435.243 380.727 435.451 380.112C435.659 379.487 435.967 379.008 436.373 378.675C436.79 378.341 437.31 378.175 437.935 378.175C438.394 378.175 438.795 378.269 439.139 378.456C439.493 378.644 439.784 378.914 440.014 379.269C440.243 379.612 440.42 380.034 440.545 380.534C440.67 381.034 440.732 381.711 440.732 382.565C440.732 383.576 440.628 384.388 440.42 385.003C440.222 385.618 439.915 386.097 439.498 386.44C439.092 386.774 438.571 386.94 437.935 386.94C437.112 386.94 436.461 386.644 435.982 386.05C435.42 385.341 435.139 384.18 435.139 382.565ZM436.217 382.565C436.217 383.972 436.383 384.909 436.717 385.378C437.05 385.847 437.456 386.081 437.935 386.081C438.425 386.081 438.831 385.847 439.154 385.378C439.487 384.909 439.654 383.972 439.654 382.565C439.654 381.149 439.487 380.211 439.154 379.753C438.831 379.284 438.42 379.05 437.92 379.05C437.441 379.05 437.055 379.253 436.764 379.659C436.399 380.18 436.217 381.149 436.217 382.565Z" fill="black"/>
<path d="M531.791 386.8V384.737H528.072V383.769L531.994 378.206H532.853V383.769H534.01V384.737H532.853V386.8H531.791ZM531.791 383.769V379.909L529.103 383.769H531.791ZM538.791 386.8V384.737H535.072V383.769L538.994 378.206H539.853V383.769H541.01V384.737H539.853V386.8H538.791ZM538.791 383.769V379.909L536.103 383.769H538.791ZM547.885 380.315L546.838 380.394C546.744 379.977 546.614 379.675 546.447 379.487C546.156 379.185 545.801 379.034 545.385 379.034C545.051 379.034 544.754 379.128 544.494 379.315C544.171 379.565 543.911 379.925 543.713 380.394C543.525 380.852 543.426 381.508 543.416 382.362C543.666 381.977 543.973 381.69 544.338 381.503C544.713 381.315 545.103 381.222 545.51 381.222C546.208 381.222 546.801 381.482 547.291 382.003C547.791 382.524 548.041 383.19 548.041 384.003C548.041 384.545 547.921 385.05 547.682 385.519C547.452 385.977 547.135 386.331 546.728 386.581C546.322 386.821 545.864 386.94 545.353 386.94C544.468 386.94 543.749 386.618 543.197 385.972C542.645 385.326 542.369 384.263 542.369 382.784C542.369 381.118 542.676 379.909 543.291 379.159C543.822 378.503 544.541 378.175 545.447 378.175C546.124 378.175 546.676 378.368 547.103 378.753C547.541 379.128 547.801 379.649 547.885 380.315ZM543.588 384.019C543.588 384.383 543.661 384.732 543.807 385.065C543.963 385.388 544.176 385.638 544.447 385.815C544.728 385.993 545.025 386.081 545.338 386.081C545.775 386.081 546.156 385.904 546.478 385.55C546.801 385.185 546.963 384.696 546.963 384.081C546.963 383.487 546.801 383.019 546.478 382.675C546.166 382.331 545.77 382.159 545.291 382.159C544.812 382.159 544.406 382.331 544.072 382.675C543.749 383.019 543.588 383.466 543.588 384.019ZM549.416 382.565C549.416 381.545 549.52 380.727 549.728 380.112C549.937 379.487 550.244 379.008 550.65 378.675C551.067 378.341 551.588 378.175 552.213 378.175C552.671 378.175 553.072 378.269 553.416 378.456C553.77 378.644 554.062 378.914 554.291 379.269C554.52 379.612 554.697 380.034 554.822 380.534C554.947 381.034 555.01 381.711 555.01 382.565C555.01 383.576 554.906 384.388 554.697 385.003C554.499 385.618 554.192 386.097 553.775 386.44C553.369 386.774 552.848 386.94 552.213 386.94C551.39 386.94 550.739 386.644 550.26 386.05C549.697 385.341 549.416 384.18 549.416 382.565ZM550.494 382.565C550.494 383.972 550.661 384.909 550.994 385.378C551.327 385.847 551.734 386.081 552.213 386.081C552.702 386.081 553.109 385.847 553.432 385.378C553.765 384.909 553.932 383.972 553.932 382.565C553.932 381.149 553.765 380.211 553.432 379.753C553.109 379.284 552.697 379.05 552.197 379.05C551.718 379.05 551.333 379.253 551.041 379.659C550.676 380.18 550.494 381.149 550.494 382.565ZM556.416 382.565C556.416 381.545 556.52 380.727 556.728 380.112C556.937 379.487 557.244 379.008 557.65 378.675C558.067 378.341 558.588 378.175 559.213 378.175C559.671 378.175 560.072 378.269 560.416 378.456C560.77 378.644 561.062 378.914 561.291 379.269C561.52 379.612 561.697 380.034 561.822 380.534C561.947 381.034 562.01 381.711 562.01 382.565C562.01 383.576 561.906 384.388 561.697 385.003C561.499 385.618 561.192 386.097 560.775 386.44C560.369 386.774 559.848 386.94 559.213 386.94C558.39 386.94 557.739 386.644 557.26 386.05C556.697 385.341 556.416 384.18 556.416 382.565ZM557.494 382.565C557.494 383.972 557.661 384.909 557.994 385.378C558.327 385.847 558.734 386.081 559.213 386.081C559.702 386.081 560.109 385.847 560.432 385.378C560.765 384.909 560.932 383.972 560.932 382.565C560.932 381.149 560.765 380.211 560.432 379.753C560.109 379.284 559.697 379.05 559.197 379.05C558.718 379.05 558.333 379.253 558.041 379.659C557.676 380.18 557.494 381.149 557.494 382.565Z" fill="black"/>
<path d="M653.068 386.8V384.737H649.35V383.769L653.272 378.206H654.131V383.769H655.287V384.737H654.131V386.8H653.068ZM653.068 383.769V379.909L650.381 383.769H653.068ZM660.068 386.8V384.737H656.35V383.769L660.272 378.206H661.131V383.769H662.287V384.737H661.131V386.8H660.068ZM660.068 383.769V379.909L657.381 383.769H660.068ZM665.318 382.144C664.881 381.977 664.553 381.748 664.334 381.456C664.126 381.154 664.022 380.8 664.022 380.394C664.022 379.769 664.246 379.243 664.693 378.815C665.152 378.388 665.751 378.175 666.49 378.175C667.24 378.175 667.844 378.394 668.303 378.831C668.761 379.269 668.99 379.8 668.99 380.425C668.99 380.821 668.886 381.164 668.678 381.456C668.469 381.748 668.152 381.977 667.725 382.144C668.256 382.31 668.657 382.586 668.928 382.972C669.199 383.357 669.334 383.815 669.334 384.347C669.334 385.076 669.074 385.69 668.553 386.19C668.042 386.69 667.36 386.94 666.506 386.94C665.662 386.94 664.98 386.69 664.459 386.19C663.938 385.69 663.678 385.065 663.678 384.315C663.678 383.753 663.818 383.284 664.1 382.909C664.391 382.534 664.798 382.279 665.318 382.144ZM665.1 380.347C665.1 380.753 665.23 381.086 665.49 381.347C665.761 381.607 666.105 381.737 666.522 381.737C666.928 381.737 667.261 381.612 667.522 381.362C667.782 381.102 667.912 380.784 667.912 380.409C667.912 380.024 667.777 379.701 667.506 379.44C667.235 379.17 666.902 379.034 666.506 379.034C666.1 379.034 665.761 379.164 665.49 379.425C665.23 379.685 665.1 379.993 665.1 380.347ZM664.772 384.315C664.772 384.618 664.839 384.909 664.975 385.19C665.12 385.472 665.334 385.69 665.615 385.847C665.897 386.003 666.199 386.081 666.522 386.081C667.022 386.081 667.433 385.92 667.756 385.597C668.089 385.274 668.256 384.862 668.256 384.362C668.256 383.852 668.089 383.43 667.756 383.097C667.423 382.763 667.001 382.597 666.49 382.597C665.99 382.597 665.579 382.763 665.256 383.097C664.933 383.42 664.772 383.826 664.772 384.315ZM670.693 382.565C670.693 381.545 670.798 380.727 671.006 380.112C671.214 379.487 671.522 379.008 671.928 378.675C672.344 378.341 672.865 378.175 673.49 378.175C673.949 378.175 674.35 378.269 674.693 378.456C675.048 378.644 675.339 378.914 675.568 379.269C675.798 379.612 675.975 380.034 676.1 380.534C676.225 381.034 676.287 381.711 676.287 382.565C676.287 383.576 676.183 384.388 675.975 385.003C675.777 385.618 675.469 386.097 675.053 386.44C674.647 386.774 674.126 386.94 673.49 386.94C672.667 386.94 672.016 386.644 671.537 386.05C670.975 385.341 670.693 384.18 670.693 382.565ZM671.772 382.565C671.772 383.972 671.938 384.909 672.272 385.378C672.605 385.847 673.011 386.081 673.49 386.081C673.98 386.081 674.386 385.847 674.709 385.378C675.042 384.909 675.209 383.972 675.209 382.565C675.209 381.149 675.042 380.211 674.709 379.753C674.386 379.284 673.975 379.05 673.475 379.05C672.995 379.05 672.61 379.253 672.318 379.659C671.954 380.18 671.772 381.149 671.772 382.565ZM677.693 382.565C677.693 381.545 677.798 380.727 678.006 380.112C678.214 379.487 678.522 379.008 678.928 378.675C679.344 378.341 679.865 378.175 680.49 378.175C680.949 378.175 681.35 378.269 681.693 378.456C682.048 378.644 682.339 378.914 682.568 379.269C682.798 379.612 682.975 380.034 683.1 380.534C683.225 381.034 683.287 381.711 683.287 382.565C683.287 383.576 683.183 384.388 682.975 385.003C682.777 385.618 682.469 386.097 682.053 386.44C681.647 386.774 681.126 386.94 680.49 386.94C679.667 386.94 679.016 386.644 678.537 386.05C677.975 385.341 677.693 384.18 677.693 382.565ZM678.772 382.565C678.772 383.972 678.938 384.909 679.272 385.378C679.605 385.847 680.011 386.081 680.49 386.081C680.98 386.081 681.386 385.847 681.709 385.378C682.042 384.909 682.209 383.972 682.209 382.565C682.209 381.149 682.042 380.211 681.709 379.753C681.386 379.284 680.975 379.05 680.475 379.05C679.995 379.05 679.61 379.253 679.318 379.659C678.954 380.18 678.772 381.149 678.772 382.565Z" fill="black"/>
<path d="M576.847 65.5127V66.7002H570.222C570.211 66.4085 570.258 66.1221 570.363 65.8408C570.54 65.3929 570.81 64.9502 571.175 64.5127C571.55 64.0752 572.086 63.57 572.784 62.9971C573.878 62.1012 574.613 61.3929 574.988 60.8721C575.373 60.3512 575.566 59.8564 575.566 59.3877C575.566 58.8981 575.389 58.4867 575.034 58.1533C574.691 57.82 574.243 57.6533 573.691 57.6533C573.097 57.6533 572.618 57.8304 572.253 58.1846C571.899 58.5387 571.722 59.0335 571.722 59.6689L570.456 59.5283C570.54 58.5908 570.862 57.8773 571.425 57.3877C571.998 56.8877 572.758 56.6377 573.706 56.6377C574.675 56.6377 575.435 56.9033 575.988 57.4346C576.55 57.9658 576.831 58.6273 576.831 59.4189C576.831 59.8252 576.748 60.221 576.581 60.6064C576.425 60.9919 576.154 61.3981 575.769 61.8252C575.394 62.2523 574.764 62.8408 573.878 63.5908C573.139 64.2054 572.665 64.6273 572.456 64.8564C572.248 65.0752 572.076 65.2939 571.941 65.5127H576.847ZM578.378 61.7627C578.378 60.5752 578.498 59.6221 578.738 58.9033C578.988 58.1742 579.352 57.6169 579.831 57.2314C580.31 56.8356 580.915 56.6377 581.644 56.6377C582.185 56.6377 582.659 56.7471 583.066 56.9658C583.472 57.1846 583.805 57.4971 584.066 57.9033C584.336 58.3096 584.545 58.8044 584.691 59.3877C584.836 59.971 584.909 60.7627 584.909 61.7627C584.909 62.9398 584.79 63.8877 584.55 64.6064C584.31 65.3252 583.951 65.8825 583.472 66.2783C582.993 66.6742 582.383 66.8721 581.644 66.8721C580.685 66.8721 579.93 66.5231 579.378 65.8252C578.711 64.9919 578.378 63.6377 578.378 61.7627ZM579.644 61.7627C579.644 63.4085 579.836 64.5023 580.222 65.0439C580.607 65.5856 581.081 65.8564 581.644 65.8564C582.217 65.8564 582.696 65.5856 583.081 65.0439C583.467 64.4919 583.659 63.3981 583.659 61.7627C583.659 60.1064 583.467 59.0075 583.081 58.4658C582.696 57.9242 582.211 57.6533 581.628 57.6533C581.066 57.6533 580.618 57.8929 580.284 58.3721C579.857 58.9867 579.644 60.1169 579.644 61.7627ZM592.847 65.5127V66.7002H586.222C586.211 66.4085 586.258 66.1221 586.363 65.8408C586.54 65.3929 586.81 64.9502 587.175 64.5127C587.55 64.0752 588.086 63.57 588.784 62.9971C589.878 62.1012 590.613 61.3929 590.988 60.8721C591.373 60.3512 591.566 59.8564 591.566 59.3877C591.566 58.8981 591.389 58.4867 591.034 58.1533C590.691 57.82 590.243 57.6533 589.691 57.6533C589.097 57.6533 588.618 57.8304 588.253 58.1846C587.899 58.5387 587.722 59.0335 587.722 59.6689L586.456 59.5283C586.54 58.5908 586.862 57.8773 587.425 57.3877C587.998 56.8877 588.758 56.6377 589.706 56.6377C590.675 56.6377 591.435 56.9033 591.988 57.4346C592.55 57.9658 592.831 58.6273 592.831 59.4189C592.831 59.8252 592.748 60.221 592.581 60.6064C592.425 60.9919 592.154 61.3981 591.769 61.8252C591.394 62.2523 590.764 62.8408 589.878 63.5908C589.139 64.2054 588.665 64.6273 588.456 64.8564C588.248 65.0752 588.076 65.2939 587.941 65.5127H592.847ZM600.847 65.5127V66.7002H594.222C594.211 66.4085 594.258 66.1221 594.363 65.8408C594.54 65.3929 594.81 64.9502 595.175 64.5127C595.55 64.0752 596.086 63.57 596.784 62.9971C597.878 62.1012 598.613 61.3929 598.988 60.8721C599.373 60.3512 599.566 59.8564 599.566 59.3877C599.566 58.8981 599.389 58.4867 599.034 58.1533C598.691 57.82 598.243 57.6533 597.691 57.6533C597.097 57.6533 596.618 57.8304 596.253 58.1846C595.899 58.5387 595.722 59.0335 595.722 59.6689L594.456 59.5283C594.54 58.5908 594.862 57.8773 595.425 57.3877C595.998 56.8877 596.758 56.6377 597.706 56.6377C598.675 56.6377 599.435 56.9033 599.988 57.4346C600.55 57.9658 600.831 58.6273 600.831 59.4189C600.831 59.8252 600.748 60.221 600.581 60.6064C600.425 60.9919 600.154 61.3981 599.769 61.8252C599.394 62.2523 598.764 62.8408 597.878 63.5908C597.139 64.2054 596.665 64.6273 596.456 64.8564C596.248 65.0752 596.076 65.2939 595.941 65.5127H600.847Z" fill="#999999"/>
<path d="M606.175 58.1689C605.487 59.3669 604.633 60.3669 603.612 61.1689L602.847 60.1846C604.336 59.0908 605.357 57.5075 605.909 55.4346L607.159 55.7627C607.305 55.9085 607.253 55.9971 607.003 56.0283L606.566 57.1221H614.269V58.1689H610.284V60.0283H613.566V61.0596H610.284V63.5283H614.878V64.5596H610.284V67.8564H609.191V64.5596H602.894V63.5283H605.362V60.0283H609.191V58.1689H606.175ZM606.456 63.5283H609.191V61.0596H606.456V63.5283Z" fill="#999999"/>
<path d="M616.566 64.3877L617.753 64.2783C617.847 64.8304 618.034 65.2314 618.316 65.4814C618.607 65.7314 618.972 65.8564 619.409 65.8564C619.784 65.8564 620.112 65.7731 620.394 65.6064C620.685 65.4294 620.92 65.195 621.097 64.9033C621.284 64.6117 621.441 64.221 621.566 63.7314C621.691 63.2419 621.753 62.7419 621.753 62.2314C621.753 62.1794 621.748 62.096 621.737 61.9814C621.498 62.3773 621.165 62.7002 620.737 62.9502C620.31 63.1898 619.847 63.3096 619.347 63.3096C618.514 63.3096 617.81 63.0075 617.237 62.4033C616.665 61.7992 616.378 61.0075 616.378 60.0283C616.378 59.0075 616.675 58.1898 617.269 57.5752C617.873 56.9502 618.628 56.6377 619.534 56.6377C620.18 56.6377 620.774 56.8148 621.316 57.1689C621.857 57.5127 622.269 58.0127 622.55 58.6689C622.831 59.3148 622.972 60.2523 622.972 61.4814C622.972 62.7627 622.831 63.7835 622.55 64.5439C622.279 65.3044 621.868 65.8825 621.316 66.2783C620.764 66.6742 620.118 66.8721 619.378 66.8721C618.597 66.8721 617.956 66.6533 617.456 66.2158C616.967 65.7783 616.67 65.1689 616.566 64.3877ZM621.597 59.9658C621.597 59.2575 621.409 58.695 621.034 58.2783C620.659 57.8617 620.211 57.6533 619.691 57.6533C619.139 57.6533 618.659 57.8773 618.253 58.3252C617.847 58.7731 617.644 59.3512 617.644 60.0596C617.644 60.695 617.836 61.2158 618.222 61.6221C618.607 62.0179 619.081 62.2158 619.644 62.2158C620.217 62.2158 620.685 62.0179 621.05 61.6221C621.415 61.2158 621.597 60.6637 621.597 59.9658Z" fill="#999999"/>
<path d="M633.706 63.5283H628.503C628.503 65.0908 627.701 66.57 626.097 67.9658L625.175 66.9189C626.665 65.971 627.409 64.5492 627.409 62.6533V55.9814H634.8V66.7627C634.8 67.346 634.487 67.6377 633.862 67.6377H632.55L632.331 66.4189H633.487C633.633 66.4189 633.706 66.346 633.706 66.2002V63.5283ZM628.503 62.3252H633.706V60.3564H628.503V62.3252ZM628.503 59.1533H633.706V57.1846H628.503V59.1533Z" fill="#999999"/>
<path d="M644.847 65.5127V66.7002H638.222C638.211 66.4085 638.258 66.1221 638.363 65.8408C638.54 65.3929 638.81 64.9502 639.175 64.5127C639.55 64.0752 640.086 63.57 640.784 62.9971C641.878 62.1012 642.613 61.3929 642.988 60.8721C643.373 60.3512 643.566 59.8564 643.566 59.3877C643.566 58.8981 643.389 58.4867 643.034 58.1533C642.691 57.82 642.243 57.6533 641.691 57.6533C641.097 57.6533 640.618 57.8304 640.253 58.1846C639.899 58.5387 639.722 59.0335 639.722 59.6689L638.456 59.5283C638.54 58.5908 638.862 57.8773 639.425 57.3877C639.998 56.8877 640.758 56.6377 641.706 56.6377C642.675 56.6377 643.435 56.9033 643.988 57.4346C644.55 57.9658 644.831 58.6273 644.831 59.4189C644.831 59.8252 644.748 60.221 644.581 60.6064C644.425 60.9919 644.154 61.3981 643.769 61.8252C643.394 62.2523 642.764 62.8408 641.878 63.5908C641.139 64.2054 640.665 64.6273 640.456 64.8564C640.248 65.0752 640.076 65.2939 639.941 65.5127H644.847ZM646.566 64.3877L647.753 64.2783C647.847 64.8304 648.034 65.2314 648.316 65.4814C648.607 65.7314 648.972 65.8564 649.409 65.8564C649.784 65.8564 650.113 65.7731 650.394 65.6064C650.685 65.4294 650.92 65.195 651.097 64.9033C651.284 64.6117 651.441 64.221 651.566 63.7314C651.691 63.2419 651.753 62.7419 651.753 62.2314C651.753 62.1794 651.748 62.096 651.738 61.9814C651.498 62.3773 651.165 62.7002 650.738 62.9502C650.31 63.1898 649.847 63.3096 649.347 63.3096C648.514 63.3096 647.81 63.0075 647.238 62.4033C646.665 61.7992 646.378 61.0075 646.378 60.0283C646.378 59.0075 646.675 58.1898 647.269 57.5752C647.873 56.9502 648.628 56.6377 649.534 56.6377C650.18 56.6377 650.774 56.8148 651.316 57.1689C651.857 57.5127 652.269 58.0127 652.55 58.6689C652.831 59.3148 652.972 60.2523 652.972 61.4814C652.972 62.7627 652.831 63.7835 652.55 64.5439C652.279 65.3044 651.868 65.8825 651.316 66.2783C650.764 66.6742 650.118 66.8721 649.378 66.8721C648.597 66.8721 647.956 66.6533 647.456 66.2158C646.967 65.7783 646.67 65.1689 646.566 64.3877ZM651.597 59.9658C651.597 59.2575 651.409 58.695 651.034 58.2783C650.659 57.8617 650.211 57.6533 649.691 57.6533C649.139 57.6533 648.659 57.8773 648.253 58.3252C647.847 58.7731 647.644 59.3512 647.644 60.0596C647.644 60.695 647.836 61.2158 648.222 61.6221C648.607 62.0179 649.081 62.2158 649.644 62.2158C650.217 62.2158 650.685 62.0179 651.05 61.6221C651.415 61.2158 651.597 60.6637 651.597 59.9658Z" fill="#999999"/>
<path d="M657.8 67.2002H656.534V56.6377H665.128V66.9814H663.862V66.2002H657.8V67.2002ZM663.862 60.7939V57.6689H657.8V60.7939H663.862ZM663.862 65.1689V61.8252H657.8V65.1689H663.862ZM678.081 59.8564H680.659V60.7314H678.362V61.9971H680.222V62.8721H678.362V64.1846H680.222V65.0596H678.362V66.4189H681.097V67.3096H675.566V67.8564H674.644V61.7783C674.352 62.1742 673.987 62.5387 673.55 62.8721L673.159 61.8252C674.545 60.5856 675.441 59.2939 675.847 57.9502H674.581V59.2002H673.659V57.0752H676.066C676.211 56.4919 676.336 55.8721 676.441 55.2158L677.534 55.4814C677.649 55.596 677.612 55.7054 677.425 55.8096C677.321 56.2471 677.211 56.6689 677.097 57.0752H680.987V58.9814H680.05V57.9502H676.878C676.659 58.7106 676.368 59.346 676.003 59.8564H677.159L677.862 58.2158L678.909 58.4346C679.086 58.5075 679.05 58.6012 678.8 58.7158L678.081 59.8564ZM668.847 57.3408V56.3096H673.487V57.3408H671.581C671.508 58.4762 671.269 59.5179 670.862 60.4658H673.003V66.9814H672.066V66.0908H670.644V67.5283H669.722V62.5908C669.503 62.9554 669.264 63.2835 669.003 63.5752L668.3 62.6533C669.571 61.2262 670.316 59.4554 670.534 57.3408H668.847ZM675.566 62.8721V64.1846H677.425V62.8721H675.566ZM675.566 60.7314V61.9971H677.425V60.7314H675.566ZM675.566 65.0596V66.4189H677.425V65.0596H675.566ZM670.644 61.3408V65.2158H672.066V61.3408H670.644ZM687.222 61.4502C688.566 61.0856 689.42 60.3721 689.784 59.3096L688.316 58.7158L688.691 57.7783L690.003 58.2783L690.112 56.9658H687.816V55.9189H694.378L694.269 60.6221C694.237 61.5387 693.857 61.9971 693.128 61.9971H691.862L691.753 60.9502H692.909C693.128 60.9502 693.237 60.8408 693.237 60.6221L693.347 56.9658H691.206L691.05 58.7158L692.362 59.4189L691.862 60.4033L690.769 59.8096C690.3 61.1533 689.264 62.0648 687.659 62.5439L687.222 61.4502ZM694.159 66.9189C693.868 65.8252 693.415 64.8773 692.8 64.0752L693.784 63.6377C694.586 64.6169 695.097 65.5439 695.316 66.4189L694.159 66.9189ZM686.831 63.4658V67.6846H685.909V67.3096H684.05V67.9033H683.112V63.4658H686.831ZM687.269 66.9814C687.529 66.0648 687.696 65.0231 687.769 63.8564L688.862 63.9658C688.935 63.9971 688.899 64.0856 688.753 64.2314C688.711 65.3981 688.545 66.4033 688.253 67.2471L687.269 66.9814ZM690.769 61.6689C691.279 61.9919 691.79 62.5544 692.3 63.3564L691.269 63.9658C691.008 63.4554 690.571 62.8721 689.956 62.2158L690.769 61.6689ZM683.331 55.7002H686.612V56.7471H683.331V55.7002ZM682.628 57.5596H687.331V58.6064H682.628V57.5596ZM683.331 59.5908H686.612V60.6221H683.331V59.5908ZM683.331 61.4502H686.612V62.4814H683.331V61.4502ZM684.05 64.3408V66.4189H685.909V64.3408H684.05ZM690.222 63.3096C690.514 63.3408 690.534 63.4502 690.284 63.6377V66.2002C690.284 66.4606 690.394 66.5908 690.612 66.5908H691.816C692.034 66.5908 692.159 66.4814 692.191 66.2627L692.3 65.3877L693.394 65.6533L693.175 66.8096C693.071 67.3617 692.743 67.6377 692.191 67.6377H690.112C689.498 67.6377 689.191 67.3044 689.191 66.6377V63.3096H690.222Z" fill="#999999"/>
<path d="M27.9812 36.7471C27.3562 38.2054 26.4448 40.0283 25.2469 42.2158C25.299 42.7887 25.1948 42.945 24.9344 42.6846L23.45 41.2002C24.6479 39.4814 25.7417 37.6325 26.7312 35.6533L27.9812 36.7471ZM35.4812 34.7939H38.7625V30.2627H35.4812V34.7939ZM25.7156 26.0439C26.549 26.4606 27.4344 27.0596 28.3719 27.8408L27.3562 29.3252C26.4187 28.4919 25.5594 27.8929 24.7781 27.5283L25.7156 26.0439ZM26.7312 33.9346C25.8979 33.1533 24.9604 32.5283 23.9187 32.0596L24.8562 30.5752C25.8458 30.9919 26.8094 31.5908 27.7469 32.3721L26.7312 33.9346ZM33.9187 28.7783V25.1064H35.4031C35.8719 25.1064 35.8979 25.2627 35.4812 25.5752V28.7783H40.325V36.9033H38.7625V36.2783H35.4812V42.6064H33.9187V36.2783H30.6375V37.3721H29.075V28.7783H33.9187ZM33.9187 34.7939V30.2627H30.6375V34.7939H33.9187ZM45.5594 36.9814C45.4031 38.7523 45.1167 40.2367 44.7 41.4346L43.2937 40.8096C43.6062 39.7158 43.8927 38.1533 44.1531 36.1221L45.7156 36.5127C45.8719 36.6689 45.8198 36.8252 45.5594 36.9814ZM46.3406 33.5439L49.2312 33.3877L48.45 31.9033L49.6219 31.4346C50.299 32.4242 50.8198 33.5439 51.1844 34.7939L49.8562 35.2627L49.6219 34.5596L48.0594 34.7158V43.0752H46.4969V34.8721L43.9187 35.1064C43.8667 35.471 43.7365 35.5492 43.5281 35.3408L43.2156 33.6221L44.7 33.5439L46.1062 31.8252C45.0646 30.8356 44.101 30.0283 43.2156 29.4033L43.9969 28.2314L44.8562 28.8564L47.2 24.9502L48.3719 25.8096C48.5802 26.0179 48.5021 26.1481 48.1375 26.2002L45.8719 29.6377C46.549 30.1585 46.9135 30.471 46.9656 30.5752L48.9969 27.4502L50.2469 28.2314C50.4552 28.4398 50.3771 28.57 50.0125 28.6221L46.3406 33.5439ZM52.7469 40.4971H51.4187V32.9189H55.2469V31.6689H53.45H51.6531V25.5752H60.1687V31.6689H56.575V32.9189H60.6375V39.2471H56.575V40.8877C56.575 41.2523 56.7573 41.4346 57.1219 41.4346H59.1531C59.5698 41.4346 59.8042 41.1742 59.8562 40.6533L59.9344 40.0283L61.3406 40.2627L61.1844 41.3564C61.0802 42.2419 60.6896 42.6846 60.0125 42.6846H56.4969C55.6635 42.6846 55.2469 42.2939 55.2469 41.5127V39.2471H52.7469V40.4971ZM49.4656 40.4971C49.3094 39.0387 49.049 37.7106 48.6844 36.5127L50.0906 36.0439C50.5594 37.346 50.8198 38.6481 50.8719 39.9502L49.4656 40.4971ZM52.9812 28.0752H55.2469V26.5127H52.9812V28.0752ZM56.575 28.0752H58.8406V26.5127H56.575V28.0752ZM56.575 30.7314H58.8406V29.0127H56.575V30.7314ZM52.9812 30.7314H55.2469V29.0127H52.9812V30.7314ZM52.7469 35.6533H55.2469V33.8564H52.7469V35.6533ZM56.575 35.6533H59.3094V33.8564H56.575V35.6533ZM56.575 38.3096H59.3094V36.5908H56.575V38.3096ZM52.7469 38.3096H55.2469V36.5908H52.7469V38.3096ZM76.1844 37.6064C77.226 38.6481 78.7625 39.6898 80.7937 40.7314L79.8562 42.3721C78.0854 41.5387 76.4187 40.3408 74.8562 38.7783L76.1844 37.6064ZM69.3875 39.0127C68.5021 40.2627 67.1479 41.4867 65.325 42.6846L64.1531 41.2002C65.8198 40.2106 67.1479 39.0387 68.1375 37.6846L69.6219 38.5439C69.8823 38.7523 69.8042 38.9085 69.3875 39.0127ZM66.1844 36.9814V37.7627H64.6219V26.5127H66.1062C66.5229 26.5648 66.549 26.721 66.1844 26.9814V35.4971H80.5594V36.9814H73.2937V42.9971H71.4969V36.9814H66.1844ZM69.6219 33.2314H76.4187V31.7471H69.6219V33.2314ZM69.6219 30.4971H76.4187V29.2471H69.6219V30.4971ZM69.6219 27.9971H76.4187V26.7471H69.6219V27.9971ZM68.0594 34.4814V25.4971H77.9812V34.4814H68.0594ZM92.9812 30.1846C92.0958 35.3929 91.0281 38.6221 89.7781 39.8721C89.101 40.5492 88.3979 40.8877 87.6687 40.8877C86.8354 40.8877 86.1844 40.6533 85.7156 40.1846C84.4656 38.9346 83.8406 37.3721 83.8406 35.4971C83.8406 33.2054 84.6479 31.2523 86.2625 29.6377C88.0333 27.8669 90.1948 26.9814 92.7469 26.9814C95.0385 26.9814 96.8354 27.6325 98.1375 28.9346C99.5958 30.3929 100.325 32.1117 100.325 34.0908C100.325 36.2262 99.6479 37.971 98.2937 39.3252C97.4083 40.2106 96.0542 41.07 94.2312 41.9033L92.5906 40.2627C94.4135 39.6898 95.8458 38.8825 96.8875 37.8408C97.8771 36.8512 98.3719 35.6533 98.3719 34.2471C98.3719 32.5804 97.825 31.2002 96.7312 30.1064C95.6375 29.0127 93.9187 28.5179 91.575 28.6221L92.9812 29.3252C93.6062 29.5856 93.6062 29.8721 92.9812 30.1846ZM91.1844 28.7002C89.8302 29.0127 88.6583 29.6637 87.6687 30.6533C86.3146 32.0075 85.6375 33.6742 85.6375 35.6533C85.6375 36.8512 86.0281 37.8408 86.8094 38.6221C86.9656 38.7783 87.2 38.8564 87.5125 38.8564C87.825 38.8564 88.1635 38.6742 88.5281 38.3096C89.726 37.1117 90.6115 33.9085 91.1844 28.7002ZM110.325 41.5127C112.46 40.3669 113.528 38.4137 113.528 35.6533V26.6689L115.169 26.9814L119.387 25.6533L120.559 27.2158C120.664 27.5283 120.481 27.5804 120.012 27.3721L115.091 28.3096V31.6689H121.262V33.1533H118.919V42.9189H117.356V33.1533H115.091V36.1221C115.091 39.195 113.789 41.4867 111.184 42.9971L110.325 41.5127ZM108.841 42.9971H107.278V38.3096C106.445 39.6637 105.533 40.7314 104.544 41.5127L103.372 40.1064C104.83 39.0648 106.054 37.7627 107.044 36.2002H103.762V34.7158H107.278V32.9971H103.294V31.5127H108.762L109.622 28.7002H103.841V27.2158H107.278V25.0283H108.762C109.179 25.0804 109.205 25.2367 108.841 25.4971V27.2158H112.278V28.7002H111.262L110.169 31.5127H112.669V32.9971H108.841V34.7158H112.278V36.2002H108.841V36.9033C109.57 37.1117 110.585 37.6585 111.887 38.5439L110.95 40.1064C110.221 39.3773 109.518 38.8044 108.841 38.3877V42.9971ZM105.716 31.3564C105.507 30.6273 105.221 29.9242 104.856 29.2471L106.341 28.7783C106.757 29.4554 107.07 30.1585 107.278 30.8877L105.716 31.3564ZM138.45 33.5439H133.372V35.2627H138.45V33.5439ZM136.341 36.7471H134.934V37.5283C134.934 40.7575 133.085 42.6585 129.387 43.2314L128.919 41.5908C131.887 41.2262 133.372 39.82 133.372 37.3721V36.7471H132.591H131.809V25.8096H140.012V36.7471H137.903V40.6533C137.903 41.07 138.085 41.2783 138.45 41.2783H139.231C139.492 41.2783 139.648 41.0179 139.7 40.4971L139.856 39.1689L141.419 39.6377L141.184 41.4346C141.08 42.32 140.585 42.7627 139.7 42.7627H137.747C136.809 42.7627 136.341 42.32 136.341 41.4346V36.7471ZM133.372 32.0596H138.45V30.4189H133.372V32.0596ZM133.372 28.9346H138.45V27.2939H133.372V28.9346ZM127.747 35.8877C128.789 36.3564 130.012 37.2158 131.419 38.4658L130.325 40.1064C129.231 38.9085 128.268 38.0231 127.434 37.4502C126.914 39.7419 125.82 41.5387 124.153 42.8408L122.981 41.4346C125.273 39.5075 126.367 37.0075 126.262 33.9346H123.294V32.4502H126.341V29.6377H123.841V28.1533H126.341V25.0283H127.825C128.242 25.0804 128.268 25.2367 127.903 25.4971V28.1533H130.637V29.6377H127.903V32.4502H131.028V33.9346H127.825C127.825 34.7679 127.799 35.4189 127.747 35.8877ZM147.825 32.1377C148.815 33.4919 149.309 34.8981 149.309 36.3564C149.309 38.3877 148.71 39.4033 147.512 39.4033H146.575L146.262 37.8408H147.044C147.565 37.8408 147.799 37.2939 147.747 36.2002C147.695 34.6898 147.226 33.3617 146.341 32.2158L147.903 27.1377H145.481V42.7627H143.919V25.8877H148.294L148.606 25.4971L149.934 26.6689L149.622 26.9814L147.825 32.1377ZM159.153 36.5127H158.372C157.539 40.3148 154.752 42.5023 150.012 43.0752L149.544 41.5908C153.606 41.2783 156.054 39.5856 156.887 36.5127H155.794C154.908 38.7002 153.033 40.0283 150.169 40.4971L149.7 39.1689C152.096 38.6481 153.58 37.7627 154.153 36.5127H152.903C152.174 37.2419 151.236 37.8148 150.091 38.2314L149.466 36.9033C151.132 36.3825 152.278 35.3929 152.903 33.9346H149.387V32.6846H161.106V33.9346H154.544C154.335 34.4033 154.075 34.846 153.762 35.2627H160.637L160.481 40.1846C160.429 41.8512 159.83 42.6846 158.684 42.6846H157.122L156.887 41.2002H158.216C158.684 41.2002 158.945 40.8877 158.997 40.2627L159.153 36.5127ZM152.512 30.4189H157.825V29.0908H152.512V30.4189ZM152.512 27.8408H157.825V26.5908H152.512V27.8408ZM159.153 25.3408V31.6689H151.184V25.3408H159.153ZM172.434 29.3252H174.544V25.2627H176.028C176.445 25.3148 176.471 25.471 176.106 25.7314V29.3252H180.325V30.8096H176.106V34.5596H180.091V36.0439H176.106V40.6533H181.262V42.1377H169.309V40.6533H174.544V36.0439H170.716V34.5596H174.544V30.8096H171.966C171.601 31.8512 171.028 32.8929 170.247 33.9346L168.919 32.9189C170.273 31.1481 171.158 29.0127 171.575 26.5127L173.059 26.8252C173.476 26.9814 173.476 27.1377 173.059 27.2939L172.434 29.3252ZM165.794 25.0283H167.278C167.695 25.0804 167.721 25.2367 167.356 25.4971V42.8408H165.794V25.0283ZM168.762 28.2314C169.231 28.8564 169.622 29.5596 169.934 30.3408L168.684 31.2002C168.32 30.3148 167.955 29.5856 167.591 29.0127L168.762 28.2314ZM165.325 29.0908C165.69 29.195 165.69 29.3512 165.325 29.5596C165.221 31.2262 164.986 32.7887 164.622 34.2471L163.137 33.7783C163.554 32.4762 163.789 30.8356 163.841 28.8564L165.325 29.0908ZM198.137 33.6221V42.6846H196.575V41.9033H189.544V42.9189H187.981V35.8096C186.627 36.5387 185.169 37.1117 183.606 37.5283L183.059 36.1221C184.518 35.7575 186.158 35.1064 187.981 34.1689V33.6221H189.075C190.169 32.9971 191.106 32.3721 191.887 31.7471H183.684V30.2627H190.559V28.3877H185.716V26.9033H190.559V25.0283H192.044C192.46 25.0804 192.486 25.2367 192.122 25.4971V26.9033H195.872V28.2314C196.497 27.5544 197.122 26.7992 197.747 25.9658L198.841 26.6689C199.205 26.9294 199.153 27.0856 198.684 27.1377C197.695 28.3356 196.705 29.3773 195.716 30.2627H201.106V31.7471H194.075C193.033 32.6325 192.2 33.2575 191.575 33.6221H198.137ZM193.606 30.2627C194.231 29.7939 194.934 29.1689 195.716 28.3877H192.122V30.2627H193.606ZM189.544 36.9814H196.575V34.8721H189.544V36.9814ZM189.544 40.6533H196.575V38.2314H189.544V40.6533ZM216.731 36.9033C217.46 35.4971 217.903 33.3617 218.059 30.4971H215.403C215.559 33.3617 216.002 35.4971 216.731 36.9033ZM219.622 30.4971C219.518 33.7262 218.893 36.3304 217.747 38.3096C218.58 39.3512 219.752 40.2627 221.262 41.0439L220.247 42.7627C218.58 41.6689 217.408 40.6273 216.731 39.6377C215.533 40.9919 213.684 42.1637 211.184 43.1533L210.403 41.5908C213.111 40.4971 214.908 39.3773 215.794 38.2314C214.908 36.5127 214.414 34.7939 214.309 33.0752C213.997 33.8564 213.684 34.4554 213.372 34.8721L212.044 33.8564C213.606 31.5648 214.544 28.7262 214.856 25.3408L216.497 25.7314C216.809 25.9398 216.731 26.096 216.262 26.2002C216.106 27.1377 215.898 28.0752 215.637 29.0127H220.95V30.4971H219.622ZM212.356 26.7471C212.044 27.5283 211.679 28.1794 211.262 28.7002L210.012 27.9971C210.429 27.32 210.82 26.5387 211.184 25.6533L212.591 26.3564C212.799 26.5648 212.721 26.695 212.356 26.7471ZM207.356 37.7627C208.085 37.971 208.736 38.2054 209.309 38.4658C209.726 37.9971 210.065 37.2939 210.325 36.3564H208.059C207.851 36.8252 207.617 37.2939 207.356 37.7627ZM206.262 39.7158L205.012 39.0127C205.533 38.2314 206.054 37.346 206.575 36.3564H203.606V35.1064H207.044C207.356 34.4294 207.591 33.8564 207.747 33.3877L209.231 33.7783C209.44 33.9867 209.361 34.1169 208.997 34.1689L208.528 35.1064H212.981V36.3564H211.809C211.549 37.3981 211.158 38.2835 210.637 39.0127C211.106 39.221 211.601 39.4814 212.122 39.7939L211.419 41.0439C210.846 40.6794 210.325 40.3929 209.856 40.1846C208.502 41.5387 206.679 42.3721 204.387 42.6846L203.841 41.2783C205.872 41.07 207.434 40.4971 208.528 39.5596C207.955 39.2992 207.382 39.0648 206.809 38.8564L206.262 39.7158ZM207.825 25.0283H209.075C209.492 25.0804 209.518 25.2367 209.153 25.4971V28.8564H213.137V30.1064H209.856C210.429 30.7835 211.315 31.4346 212.512 32.0596L211.653 33.3877C210.768 32.8669 209.934 32.1377 209.153 31.2002V33.0752H207.825V31.5908C206.992 32.6325 205.846 33.57 204.387 34.4033L203.372 33.1533C204.986 32.32 206.315 31.3044 207.356 30.1064H203.762V28.8564H207.825V25.0283ZM205.637 28.6221C205.273 27.8408 204.804 27.1637 204.231 26.5908L205.481 25.8096C206.106 26.4346 206.575 27.0856 206.887 27.7627L205.637 28.6221ZM232.981 30.1846C232.096 35.3929 231.028 38.6221 229.778 39.8721C229.101 40.5492 228.398 40.8877 227.669 40.8877C226.835 40.8877 226.184 40.6533 225.716 40.1846C224.466 38.9346 223.841 37.3721 223.841 35.4971C223.841 33.2054 224.648 31.2523 226.262 29.6377C228.033 27.8669 230.195 26.9814 232.747 26.9814C235.039 26.9814 236.835 27.6325 238.137 28.9346C239.596 30.3929 240.325 32.1117 240.325 34.0908C240.325 36.2262 239.648 37.971 238.294 39.3252C237.408 40.2106 236.054 41.07 234.231 41.9033L232.591 40.2627C234.414 39.6898 235.846 38.8825 236.887 37.8408C237.877 36.8512 238.372 35.6533 238.372 34.2471C238.372 32.5804 237.825 31.2002 236.731 30.1064C235.637 29.0127 233.919 28.5179 231.575 28.6221L232.981 29.3252C233.606 29.5856 233.606 29.8721 232.981 30.1846ZM231.184 28.7002C229.83 29.0127 228.658 29.6637 227.669 30.6533C226.315 32.0075 225.637 33.6742 225.637 35.6533C225.637 36.8512 226.028 37.8408 226.809 38.6221C226.966 38.7783 227.2 38.8564 227.512 38.8564C227.825 38.8564 228.164 38.6742 228.528 38.3096C229.726 37.1117 230.611 33.9085 231.184 28.7002ZM248.762 31.8252C250.481 30.2106 251.809 27.8669 252.747 24.7939L254.309 25.2627C254.57 25.471 254.518 25.6012 254.153 25.6533C253.736 26.695 253.32 27.6585 252.903 28.5439H255.247C255.82 27.346 256.263 26.2783 256.575 25.3408L258.059 25.8877C258.268 26.096 258.19 26.2262 257.825 26.2783C257.46 27.1117 257.096 27.8669 256.731 28.5439H260.716V30.0283H256.731V32.4502H259.934V33.9346H256.731V36.4346H259.934V37.9189H256.731V40.8096H261.184V42.2939H252.591V42.9971H251.028V31.6689C250.664 32.1898 250.273 32.6585 249.856 33.0752L248.762 31.8252ZM244.856 42.8408L244.544 41.3564H245.872C246.08 41.3564 246.184 41.2523 246.184 41.0439V36.2002L244.153 36.6689C244.101 37.0335 243.971 37.1117 243.762 36.9033L243.45 35.1064L246.184 34.5596V30.4189H243.762V28.9346H246.184V24.9502H247.669C248.085 25.0023 248.111 25.1585 247.747 25.4189V28.9346H249.778V30.4189H247.747V34.2471L249.778 33.7002L250.012 35.1064L247.747 35.8096V41.5908C247.747 42.4242 247.33 42.8408 246.497 42.8408H244.856ZM252.591 40.8096H255.169V37.9189H252.591V40.8096ZM252.591 36.4346H255.169V33.9346H252.591V36.4346ZM252.591 32.4502H255.169V30.0283H252.591V32.4502ZM278.841 27.1377L279.075 26.8252L280.325 27.8408L280.091 28.0752C278.736 30.4189 277.408 31.9814 276.106 32.7627L276.888 32.9971C277.252 33.1533 277.226 33.3096 276.809 33.4658C276.705 33.8304 276.575 34.1429 276.419 34.4033H279.778L280.012 34.0908L281.419 35.1064L281.106 35.4189C279.44 39.846 276.054 42.346 270.95 42.9189L270.325 41.4346C272.773 41.1742 274.7 40.5231 276.106 39.4814C275.377 38.7523 274.648 38.1273 273.919 37.6064C273.242 38.1794 272.33 38.7002 271.184 39.1689L270.481 37.7627C273.033 36.721 274.7 35.1325 275.481 32.9971C274.7 33.7262 273.294 34.3512 271.263 34.8721L270.559 33.4658C272.539 33.0492 274.023 32.5023 275.013 31.8252C274.492 31.2002 273.867 30.6533 273.138 30.1846C272.773 30.5492 272.408 30.8617 272.044 31.1221L270.95 29.9502C272.669 28.4919 273.763 26.9294 274.231 25.2627L275.638 25.7314C276.002 25.8877 275.976 26.0439 275.559 26.2002C275.507 26.5127 275.377 26.8252 275.169 27.1377H278.841ZM268.216 30.1846H270.794V31.6689H268.216V33.6221C269.257 34.0908 270.247 34.7939 271.184 35.7314L270.169 37.1377C269.335 36.3044 268.684 35.7054 268.216 35.3408V42.9189H266.653V35.1846C266.341 36.2262 265.481 37.5544 264.075 39.1689L262.903 37.6846C264.83 35.8617 266.028 33.8564 266.497 31.6689H263.45V30.1846H266.653V27.6064C265.611 27.7627 264.674 27.8929 263.841 27.9971L263.45 26.5127C265.533 26.3044 267.695 25.8877 269.934 25.2627L270.794 26.4346C271.002 26.7471 270.872 26.8512 270.403 26.7471C269.674 26.9554 268.945 27.1377 268.216 27.2939V30.1846ZM273.919 29.2471C274.7 29.6637 275.455 30.1846 276.184 30.8096C276.966 30.0804 277.617 29.2731 278.138 28.3877H274.544C274.335 28.7523 274.127 29.0387 273.919 29.2471ZM274.778 36.6689C275.507 37.0856 276.341 37.7106 277.278 38.5439C278.059 37.971 278.736 37.0075 279.309 35.6533H275.716C275.403 36.07 275.091 36.4085 274.778 36.6689ZM286.809 29.3252C287.382 28.1273 288.346 26.9033 289.7 25.6533L290.559 26.4346C289.257 27.6325 288.346 28.7783 287.825 29.8721C287.252 31.07 286.966 32.5023 286.966 34.1689C286.966 35.5752 287.252 36.9033 287.825 38.1533C288.346 39.2992 289.257 40.5752 290.559 41.9814L289.7 42.8408C288.398 41.3825 287.434 40.0023 286.809 38.7002C286.132 37.2939 285.794 35.7835 285.794 34.1689C285.794 32.346 286.132 30.7314 286.809 29.3252ZM297.903 41.9033H296.106V26.8252H308.372V41.5908H306.575V40.4971H297.903V41.9033ZM306.575 32.7627V28.3096H297.903V32.7627H306.575ZM306.575 39.0127V34.2471H297.903V39.0127H306.575ZM321.341 35.8096H318.372C317.903 38.7783 316.497 41.1221 314.153 42.8408L313.372 41.3564C315.664 39.7419 316.914 37.346 317.122 34.1689L317.278 31.7471H316.184V32.7627H314.622V26.0439H322.512V32.4502H320.95V31.7471H318.684L318.528 34.3252H322.903L322.512 40.4971C322.408 41.7471 321.888 42.3721 320.95 42.3721H318.841L318.606 40.8877H320.325C320.794 40.8877 321.054 40.6273 321.106 40.1064L321.341 35.8096ZM329.778 41.2002C329.778 42.0856 329.361 42.5283 328.528 42.5283H326.809L326.497 41.0439H327.981C328.138 41.0439 328.216 40.9658 328.216 40.8096V25.8096H329.7C330.117 25.8617 330.143 26.0179 329.778 26.2783V41.2002ZM326.028 27.6846C326.445 27.7367 326.471 27.8929 326.106 28.1533V38.8564H324.544V27.6846H326.028ZM320.95 30.4971V27.2939H316.184V30.4971H320.95ZM337.512 38.7002C336.887 40.0023 335.924 41.3825 334.622 42.8408L333.762 41.9814C335.065 40.5752 335.976 39.2992 336.497 38.1533C337.07 36.9033 337.356 35.5752 337.356 34.1689C337.356 32.5023 337.07 31.07 336.497 29.8721C335.976 28.7783 335.065 27.6325 333.762 26.4346L334.622 25.6533C335.976 26.9033 336.94 28.1273 337.512 29.3252C338.19 30.7314 338.528 32.346 338.528 34.1689C338.528 35.7835 338.19 37.2939 337.512 38.7002Z" fill="#757575"/>
</g>
<rect x="2" y="2" width="714" height="440" stroke="black" stroke-width="4"/>
<defs>
<clipPath id="clip0_7_28050">
<rect width="718" height="444" fill="white"/>
</clipPath>
</defs>
</svg>
