<svg width="718" height="444" viewBox="0 0 718 444" fill="none" xmlns="http://www.w3.org/2000/svg">
<g clip-path="url(#clip0_7_29085)">
<path d="M0 0H718V444H0V0Z" fill="white"/>
<path d="M187.5 91.5V369.5" stroke="#CCCCCC" stroke-miterlimit="10"/>
<path d="M307.5 91.5V369.5" stroke="#CCCCCC" stroke-miterlimit="10"/>
<path d="M427.5 91.5V369.5" stroke="#CCCCCC" stroke-miterlimit="10"/>
<path d="M547.5 91.5V369.5" stroke="#CCCCCC" stroke-miterlimit="10"/>
<path d="M667.5 91.5V369.5" stroke="#CCCCCC" stroke-miterlimit="10"/>
<path d="M95.5 369.5H695.5" stroke="#333333" stroke-miterlimit="10"/>
<path d="M95.5 277.5H695.5" stroke="#CCCCCC" stroke-miterlimit="10"/>
<path d="M95.5 184.5H695.5" stroke="#CCCCCC" stroke-miterlimit="10"/>
<path d="M95.5 91.5H695.5" stroke="#CCCCCC" stroke-miterlimit="10"/>
<path d="M95.2 369.8H95.8H96.4H97H97.6H98.2H98.8H99.4H100H100.6H101.2H101.8H102.4L103 369.791L103.6 369.8H104.2H104.8H105.4H106H106.6H107.2H107.8H108.4H109H109.6H110.2H110.8H111.4H112H112.6H113.2H113.8H114.4H115H115.6H116.2H116.8H117.4H118H118.6H119.2H119.8L120.4 369.791L121 369.781L121.6 369.8H122.2L122.8 369.781H123.4L124 369.716L124.6 369.791L125.2 369.679L125.8 369.707L126.4 369.661L127 369.8L127.6 369.642L128.2 369.735L128.8 369.716L129.4 369.772L130 369.707L130.6 369.763L131.2 369.781L131.8 369.763L132.4 369.754L133 369.781L133.6 369.763L134.2 369.781L134.8 369.744L135.4 369.772L136 369.726L136.6 369.735H137.2L137.8 369.614L138.4 369.661L139 369.642L139.6 369.726L140.2 369.54L140.8 369.485L141.4 369.494L142 369.466L142.6 369.429L143.2 369.605L143.8 369.614L144.4 369.308L145 369.401L145.6 368.946L146.2 369.058L146.8 369.151L147.4 369.382L148 369.577L148.6 369.234L149.2 369.113L149.8 369.308L150.4 369.327L151 369.002L151.6 369.355L152.2 369.03L152.8 369.29L153.4 369.503L154 369.485H154.6L155.2 369.531L155.8 369.642L156.4 369.54L157 369.503L157.6 369.401L158.2 369.559L158.8 369.577L159.4 369.735L160 369.698L160.6 369.679L161.2 369.735L161.8 369.661L162.4 369.716L163 369.707L163.6 369.652L164.2 369.698L164.8 369.791L165.4 369.707L166 369.689L166.6 369.772L167.2 369.763H167.8L168.4 369.8L169 369.781L169.6 369.744L170.2 369.772L170.8 369.763H171.4L172 369.791L172.6 369.8H173.2L173.8 369.791L174.4 369.763L175 369.8L175.6 369.791L176.2 369.781L176.8 369.791L177.4 369.8L178 369.791L178.6 369.8H179.2H179.8L180.4 369.791H181L181.6 369.8H182.2H182.8L183.4 369.791H184L184.6 369.8L185.2 369.781L185.8 369.8L186.4 369.772L187 369.763H187.6L188.2 369.781L188.8 369.744L189.4 369.772L190 369.8H190.6L191.2 369.781L191.8 369.791L192.4 369.781H193L193.6 369.754L194.2 369.735L194.8 369.754L195.4 369.707L196 369.726L196.6 369.698L197.2 369.642L197.8 369.744L198.4 369.726L199 369.689L199.6 369.707L200.2 369.512L200.8 369.596L201.4 369.54L202 369.503L202.6 369.633L203.2 369.614L203.8 369.234L204.4 369.188L205 369.308L205.6 369.002L206.2 368.974L206.8 369.345L207.4 369.132L208 368.677L208.6 368.835L209.2 368.418L209.8 368.575L210.4 368.492L211 369.002L211.6 368.362L212.2 367.75L212.8 368.037L213.4 367.796L214 367.991L214.6 368L215.2 369.039L215.8 368.01L216.4 367.982L217 367.713L217.6 367.434L218.2 368.13L218.8 367.991L219.4 368.659L220 368.863L220.6 368.093L221.2 368.158L221.8 368.019L222.4 368.381L223 368.436L223.6 369.141L224.2 368.065H224.8L225.4 368.575L226 368.26L226.6 368.538L227.2 368.668L227.8 369.243L228.4 368.696L229 368.687L229.6 368.909L230.2 368.807L230.8 368.956L231.4 369.225L232 369.299L232.6 368.733L233.2 368.909L233.8 369.104L234.4 369.095H235L235.6 369.178L236.2 369.382L236.8 369.039L237.4 369.206L238 368.937L238.6 368.687L239.2 369.021L239.8 369.076L240.4 369.494L241 368.974L241.6 369.076L242.2 369.271L242.8 369.234L243.4 369.049L244 369.243L244.6 369.429L245.2 369.178L245.8 369.438L246.4 369.188L247 369.225L247.6 369.188L248.2 369.355L248.8 369.466L249.4 369.318L250 369.253L250.6 369.095L251.2 369.336L251.8 369.308L252.4 369.438L253 369.503L253.6 369.243L254.2 369.327L254.8 369.345L255.4 369.262L256 369.318L256.6 369.382L257.2 369.559L257.8 369.16L258.4 369.234L259 369.327L259.6 369.308L260.2 369.336H260.8L261.4 369.42L262 369.197L262.6 369.039L263.2 369.076L263.8 368.872L264.4 368.909L265 369.151L265.6 369.401L266.2 368.473L266.8 368.715L267.4 368.64L268 368.529L268.6 368.473L269.2 368.659L269.8 369.123L270.4 368.353L271 369.011L271.6 368.64L272.2 368.232L272.8 368.037L273.4 368.501L274 369.076L274.6 367.703L275.2 367.425L275.8 367.657L276.4 367.351L277 367.156L277.6 367.332L278.2 369.123L278.8 367.305L279.4 367.267L280 366.664L280.6 366.368L281.2 365.95L281.8 365.254L282.4 367.193L283 367.852L283.6 366.85L284.2 366.776L284.8 366.247L285.4 365.505L286 366.266L286.6 367.369L287.2 366.85L287.8 365.839L288.4 366.219L289 366.145L289.6 366.099L290.2 366.924L290.8 367.685L291.4 367.407L292 365.839L292.6 365.95L293.2 366.488L293.8 365.82L294.4 366.943L295 368.084L295.6 366.961L296.2 366.126L296.8 366.544L297.4 366.933L298 366.915L298.6 367.481L299.2 368.13L299.8 367.175L300.4 366.906L301 367.119L301.6 367.073L302.2 367.026L302.8 367.638L303.4 368.408L304 366.998L304.6 366.952L305.2 366.896L305.8 367.369L306.4 367.407L307 367.453L307.6 367.147L308.2 366.145L308.8 364.605L309.4 364.169L310 363.733L310.6 363.798L311.2 364.865L311.8 365.347L312.4 366.33L313 364.828L313.6 364.308L314.2 364.531L314.8 363.965L315.4 365.496L316 365.802L316.6 364.93L317.2 365.106L317.8 365.152L318.4 365.625L319 364.93L319.6 365.894L320.2 367.267L320.8 366.618L321.4 366.488L322 366.117L322.6 366.59L323.2 366.664L323.8 367.815L324.4 368.158L325 367.843L325.6 367.536L326.2 367.88L326.8 367.861L327.4 368.056L328 368.715L328.6 368.696L329.2 368.362L329.8 368.622L330.4 368.492L331 368.974L331.6 368.483L332.2 368.891L332.8 369.16L333.4 368.891L334 368.566L334.6 368.974L335.2 368.956L335.8 368.928L336.4 369.243L337 369.225L337.6 368.872L338.2 369.225L338.8 369.039L339.4 369.086L340 369.16L340.6 369.299L341.2 369.28L341.8 369.049L342.4 368.891L343 369.049L343.6 369.113L344.2 369.039L344.8 369.095L345.4 369.447L346 368.844L346.6 369.021L347.2 368.984L347.8 368.77L348.4 368.687L349 368.946L349.6 369.178L350.2 369.002L350.8 368.436L351.4 368.492L352 368.334L352.6 368.381L353.2 368.872L353.8 369.067L354.4 368.102L355 367.369L355.6 367.332L356.2 367.017L356.8 366.219L357.4 366.804L358 367.824L358.6 365.792L359.2 364.234L359.8 364.086L360.4 364.104L361 363.622L361.6 364.299L362.2 366.637L362.8 363.009L363.4 361.646L364 360.922L364.6 361.2L365.2 360.607L365.8 362.128L366.4 364.206L367 359.605L367.6 359.317L368.2 358.594L368.8 358.584L369.4 359.03L370 358.482L370.6 363.13L371.2 359.104L371.8 358.278L372.4 358.974L373 359.02L373.6 359.623L374.2 360.059L374.8 361.228L375.4 358.39L376 358.111L376.6 358.928L377.2 360.124L377.8 358.093L378.4 359.995L379 361.943L379.6 361.599L380.2 363.603L380.8 362.87L381.4 360.477L382 360.328L382.6 361.692L383.2 363.603L383.8 360.764L384.4 361.905L385 362.74L385.6 364.457L386.2 362.518L386.8 364.048L387.4 366.256L388 365.078L388.6 365.375L389.2 365.152L389.8 365.95L390.4 366.034L391 367.258L391.6 367.796L392.2 366.766L392.8 366.729L393.4 366.933L394 367.11L394.6 367.796L395.2 367.972L395.8 368.891L396.4 367.935L397 367.824L397.6 367.703L398.2 368.047L398.8 368.186L399.4 368.455L400 369.132L400.6 368.037L401.2 368.381L401.8 368.427L402.4 368.557L403 368.631L403.6 368.909L404.2 369.271L404.8 368.78L405.4 368.798L406 368.919L406.6 369.067L407.2 368.77L407.8 368.817L408.4 369.41L409 368.807L409.6 368.64L410.2 368.724L410.8 368.687L411.4 368.984L412 368.909L412.6 369.429L413.2 368.863L413.8 368.798H414.4L415 368.659L415.6 368.427L416.2 368.984L416.8 369.076L417.4 368.538L418 368.399L418.6 368.64L419.2 368.473L419.8 367.945L420.4 368.26L421 368.835L421.6 367.713L422.2 366.562L422.8 366.794L423.4 367.444L424 366.275L424.6 367.369L425.2 367.722L425.8 366.896L426.4 365.245L427 365.523L427.6 366.284L428.2 367.175L428.8 365.431L429.4 366.33L430 362.926L430.6 362.397L431.2 361.154L431.8 361.618L432.4 360.152L433 361.544L433.6 365.644L434.2 359.79L434.8 358.445L435.4 359.735L436 357.647L436.6 359.382L437.2 359.002L437.8 360.57L438.4 363.334L439 355.978L439.6 354.456L440.2 355.319L440.8 352.842L441.4 353.436L442 360.857L442.6 352.582L443.2 348.501L443.8 347.137L444.4 345.81L445 346.089L445.6 349.196L446.2 355.347L446.8 347.833L447.4 343.751L448 343.547L448.6 343.695L449.2 345.3L449.8 347.638L450.4 354.911L451 348.028L451.6 341.933L452.2 346.599L452.8 348.417L453.4 347.972L454 352.916L454.6 361.228L455.2 354.503L455.8 351.135L456.4 355.996L457 357.657L457.6 358.083L458.2 360.189L458.8 365.765L459.4 359.707L460 360.115L460.6 362.314L461.2 362.907L461.8 363.696L462.4 365.496L463 367.286L463.6 367.778L464.2 363.956L464.8 364.948L465.4 367.657L466 365.542L466.6 366.59L467.2 368.594L467.8 366.692L468.4 366.59L469 367.332L469.6 367.694L470.2 367.917L470.8 368.687L471.4 368.909L472 367.945L472.6 368.037L473.2 368.334L473.8 368.232L474.4 368.668L475 368.974L475.6 369.345L476.2 368.622L476.8 368.807L477.4 368.761L478 369.206L478.6 369.039L479.2 369.16L479.8 369.596L480.4 368.946L481 369.197L481.6 369.364L482.2 369.327L482.8 369.308L483.4 369.522L484 369.577L484.6 369.28L485.2 369.16L485.8 369.206L486.4 369.29L487 369.438L487.6 369.42L488.2 369.726L488.8 369.447L489.4 369.299L490 369.67L490.6 369.475L491.2 369.41L491.8 369.438L492.4 369.689L493 369.531L493.6 369.587L494.2 369.188L494.8 369.596L495.4 369.522L496 369.633L496.6 369.698L497.2 369.689L497.8 369.596H498.4L499 369.568L499.6 369.614L500.2 369.642L500.8 369.781L501.4 369.614L502 369.763L502.6 369.67L503.2 369.679L503.8 369.614L504.4 369.698L505 369.716L505.6 369.679L506.2 369.661L506.8 369.642L507.4 369.624L508 369.679L508.6 369.716L509.2 369.754L509.8 369.661L510.4 369.689L511 369.67L511.6 369.735L512.2 369.624L512.8 369.763L513.4 369.781L514 369.642L514.6 369.661L515.2 369.67L515.8 369.679L516.4 369.661L517 369.698L517.6 369.754L518.2 369.531L518.8 369.559L519.4 369.503L520 369.559L520.6 369.596L521.2 369.522L521.8 369.689L522.4 369.216L523 369.345L523.6 369.28L524.2 369.067L524.8 369.151L525.4 369.271L526 369.021L526.6 368.538L527.2 367.305L527.8 364.911L528.4 363.399L529 361.238L529.6 361.961L530.2 365.032L530.8 363.946L531.4 350.625L532 346.775L532.6 341.525L533.2 330.439L533.8 333.092L534.4 350.56L535 308.203L535.6 301.505L536.2 296.329L536.8 298.073L537.4 283.054L538 302.09L538.6 333.036L539.2 253.582L539.8 266.987L540.4 266.17L541 262.432L541.6 250.001L542.2 273.304L542.8 324.539L543.4 219.11L544 245.789L544.6 244.695L545.2 251.56L545.8 239.695L546.4 282.154L547 326.534L547.6 223.21L548.2 255.651L548.8 255.177L549.4 261.69L550 333.111L550.6 265.178L551.2 332.48L551.8 232.932L552.4 253.053L553 265.215L553.6 281.384L554.2 276.681L554.8 300.457L555.4 344.224L556 259.361L556.6 275.892L557.2 339.539L557.8 281.681L558.4 288.471L559 310.986L559.6 348.018L560.2 277.59L560.8 296.236L561.4 309.362L562 314.474L562.6 309.826L563.2 327.619L563.8 354.085L564.4 300.828L565 309.947L565.6 322.628L566.2 326.979L566.8 321.116L567.4 334.02L568 356.757L568.6 308.732L569.2 321.905L569.8 332.174L570.4 337.582L571 338.371L571.6 345.347L572.2 359.308L572.8 360.579L573.4 322.693L574 333.25L574.6 339.975L575.2 338.899L575.8 344.697L576.4 360.106L577 326.784L577.6 333.695L578.2 338.918L578.8 339.326L579.4 336.209L580 343.547L580.6 359.957L581.2 324.029L581.8 327.953L582.4 332.016L583 336.135L583.6 331.636L584.2 341.116L584.8 358.64L585.4 318.305L586 327.248L586.6 333.742L587.2 337.693L587.8 338.807L588.4 348.742L589 361.655L589.6 332.656L590.2 336.46L590.8 340.291L591.4 344.799L592 342.044L592.6 348.584L593.2 361.794L593.8 331.589L594.4 339.549L595 343.723L595.6 347.323L596.2 361.952L596.8 349.883L597.4 361.822L598 339.206L598.6 358L599.2 358.39L599.8 356.85L600.4 330.402L601 342.128L601.6 357.954L602.2 330.207L602.8 337.192L603.4 340.43L604 341.293L604.6 339.456L605.2 348.835L605.8 361.72L606.4 333.76L607 339.15L607.6 343.018L608.2 343.909L608.8 343.352L609.4 351.237L610 362.11L610.6 336.664L611.2 344.178L611.8 348.269L612.4 350.978L613 349.929L613.6 357.592L614.2 365.143L614.8 348.427L615.4 352.796L616 356.404L616.6 356.72L617.2 356.256L617.8 359.985L618.4 365.932L619 351.683L619.6 354.577L620.2 357.638L620.8 359.113L621.4 358.26L622 360.152L622.6 366.321L623.2 354.846L623.8 357.388L624.4 359.16L625 359.716L625.6 358.594L626.2 361.831L626.8 366.303L627.4 355.384L628 357.221L628.6 358.38L629.2 357.583L629.8 356.043L630.4 359.8L631 364.642L631.6 347.499L632.2 349.809L632.8 350.05L633.4 349.994L634 346.191L634.6 351.154L635.2 359.132L635.8 327.842L636.4 326.932L637 326.988L637.6 325.226L638.2 318.157L638.8 322.665L639.4 346.469L640 277.404L640.6 272.84L641.2 277.432L641.8 279.399L642.4 255.224L643 269.575L643.6 324.725L644.2 323.24L644.8 165.936L645.4 165.277L646 184.712L646.6 161.066L647.2 207.968L647.8 297.581L648.4 130.814L649 167.012L649.6 144.414L650.2 171.4L650.8 157.986L651.4 216.985L652 302.247L652.6 136.64L653.2 146.807L653.8 162.272L654.4 181.233L655 160.611L655.6 199.953L656.2 294.065L656.8 135.137L657.4 149.665L658 165.24L658.6 276.746L659.2 206.93L659.8 234.862L660.4 281.291L661 195.157L661.6 158.153L662.2 144.164L662.8 158.31L663.4 155.527L664 205.872L664.6 296.588L665.2 157.142L665.8 176.78L666.4 210.408L667 226.03L667.6 230.668L668.2 262.135L668.8 320.726L669.4 217.997L670 242.914L670.6 266.875L671.2 281.301L671.8 282.738L672.4 299.474L673 336.784L673.6 257.617L674.2 280.735L674.8 292.887L675.4 302.219L676 300.828L676.6 316.218L677.2 345.365L677.8 280.586L678.4 298.193L679 309.492L679.6 317.016L680.2 316.172L680.8 330.04L681.4 348.204L682 350.068L682.6 299.965L683.2 315.374L683.8 324.066L684.4 348.408L685 327.6L685.6 348.872L686.2 339.187L686.8 336.45L687.4 341.423L688 345.439L688.6 345.449L689.2 349.688L689.8 361.219L690.4 339.456L691 341.098L691.6 347.35L692.2 351.052L692.8 352.638L693.4 355.746L694 362.796L694.6 360.746L695.2 337.925L695.8 339.066" stroke="#4285F4" stroke-width="2" stroke-miterlimit="10"/>
<path d="M383.422 418.8V410.206H386.391C387.057 410.206 387.568 410.248 387.922 410.331C388.411 410.446 388.828 410.649 389.172 410.94C389.63 411.326 389.969 411.821 390.188 412.425C390.417 413.019 390.531 413.696 390.531 414.456C390.531 415.112 390.453 415.69 390.297 416.19C390.151 416.69 389.958 417.107 389.719 417.44C389.479 417.774 389.214 418.034 388.922 418.222C388.641 418.409 388.302 418.555 387.906 418.659C387.51 418.753 387.052 418.8 386.531 418.8H383.422ZM384.562 417.784H386.391C386.964 417.784 387.411 417.732 387.734 417.628C388.057 417.524 388.312 417.373 388.5 417.175C388.771 416.914 388.979 416.555 389.125 416.097C389.281 415.638 389.359 415.086 389.359 414.44C389.359 413.545 389.208 412.857 388.906 412.378C388.615 411.888 388.26 411.56 387.844 411.394C387.531 411.279 387.042 411.222 386.375 411.222H384.562V417.784ZM396.359 418.034C395.964 418.368 395.583 418.602 395.219 418.737C394.865 418.873 394.479 418.94 394.062 418.94C393.375 418.94 392.849 418.774 392.484 418.44C392.12 418.107 391.938 417.68 391.938 417.159C391.938 416.857 392.005 416.581 392.141 416.331C392.276 416.071 392.458 415.868 392.688 415.722C392.917 415.565 393.172 415.451 393.453 415.378C393.651 415.315 393.964 415.258 394.391 415.206C395.234 415.112 395.859 414.993 396.266 414.847C396.266 414.701 396.266 414.612 396.266 414.581C396.266 414.144 396.167 413.836 395.969 413.659C395.698 413.43 395.297 413.315 394.766 413.315C394.276 413.315 393.911 413.404 393.672 413.581C393.432 413.748 393.255 414.05 393.141 414.487L392.109 414.347C392.203 413.909 392.359 413.555 392.578 413.284C392.797 413.013 393.109 412.805 393.516 412.659C393.922 412.513 394.391 412.44 394.922 412.44C395.453 412.44 395.885 412.503 396.219 412.628C396.552 412.753 396.797 412.909 396.953 413.097C397.109 413.284 397.219 413.524 397.281 413.815C397.312 413.993 397.328 414.315 397.328 414.784V416.19C397.328 417.17 397.349 417.789 397.391 418.05C397.443 418.31 397.536 418.56 397.672 418.8H396.562C396.458 418.581 396.391 418.326 396.359 418.034ZM396.266 415.675C395.88 415.831 395.307 415.966 394.547 416.081C394.109 416.144 393.802 416.216 393.625 416.3C393.448 416.373 393.307 416.482 393.203 416.628C393.109 416.774 393.062 416.94 393.062 417.128C393.062 417.409 393.167 417.644 393.375 417.831C393.594 418.019 393.906 418.112 394.312 418.112C394.719 418.112 395.078 418.024 395.391 417.847C395.714 417.67 395.948 417.425 396.094 417.112C396.208 416.873 396.266 416.524 396.266 416.065V415.675ZM401.594 417.862L401.75 418.784C401.448 418.847 401.182 418.878 400.953 418.878C400.568 418.878 400.271 418.821 400.062 418.706C399.854 418.581 399.703 418.42 399.609 418.222C399.526 418.024 399.484 417.607 399.484 416.972V413.394H398.719V412.581H399.484V411.034L400.531 410.409V412.581H401.594V413.394H400.531V417.034C400.531 417.336 400.547 417.529 400.578 417.612C400.62 417.696 400.682 417.763 400.766 417.815C400.849 417.868 400.969 417.894 401.125 417.894C401.25 417.894 401.406 417.883 401.594 417.862ZM406.547 416.8L407.641 416.925C407.474 417.56 407.156 418.055 406.688 418.409C406.219 418.763 405.625 418.94 404.906 418.94C404 418.94 403.276 418.659 402.734 418.097C402.203 417.534 401.938 416.748 401.938 415.737C401.938 414.696 402.208 413.888 402.75 413.315C403.292 412.732 403.99 412.44 404.844 412.44C405.677 412.44 406.354 412.722 406.875 413.284C407.406 413.847 407.672 414.644 407.672 415.675C407.672 415.737 407.672 415.831 407.672 415.956H403.031C403.073 416.644 403.266 417.17 403.609 417.534C403.953 417.888 404.385 418.065 404.906 418.065C405.292 418.065 405.62 417.966 405.891 417.769C406.172 417.56 406.391 417.237 406.547 416.8ZM403.094 415.097H406.562C406.521 414.565 406.391 414.17 406.172 413.909C405.828 413.503 405.391 413.3 404.859 413.3C404.37 413.3 403.958 413.461 403.625 413.784C403.302 414.107 403.125 414.545 403.094 415.097Z" fill="black"/>
<path d="M29.0125 254.572C27.5854 254.572 26.4708 254.192 25.6687 253.432C24.8562 252.661 24.45 251.671 24.45 250.463C24.45 249.661 24.6427 248.942 25.0281 248.307C25.4031 247.671 25.9291 247.187 26.6062 246.854C27.2833 246.52 28.0541 246.354 28.9187 246.354C29.7833 246.354 30.5594 246.531 31.2469 246.885C31.9344 247.239 32.4552 247.739 32.8094 248.385C33.1635 249.02 33.3406 249.713 33.3406 250.463C33.3406 251.275 33.1479 251.999 32.7625 252.635C32.3667 253.27 31.8354 253.755 31.1687 254.088C30.4916 254.411 29.7729 254.572 29.0125 254.572ZM29.0281 253.4C30.0698 253.4 30.8875 253.124 31.4812 252.572C32.075 252.01 32.3719 251.307 32.3719 250.463C32.3719 249.609 32.075 248.906 31.4812 248.354C30.8771 247.801 30.0177 247.525 28.9031 247.525C28.2052 247.525 27.5958 247.645 27.075 247.885C26.5541 248.114 26.1531 248.458 25.8719 248.916C25.5802 249.374 25.4344 249.885 25.4344 250.447C25.4344 251.249 25.7104 251.942 26.2625 252.525C26.8146 253.109 27.7364 253.4 29.0281 253.4ZM31.3406 245.775L31.1844 244.744C31.601 244.682 31.9187 244.52 32.1375 244.26C32.3562 243.989 32.4656 243.609 32.4656 243.119C32.4656 242.64 32.3719 242.286 32.1844 242.057C31.9864 241.817 31.7521 241.697 31.4812 241.697C31.2416 241.697 31.0541 241.801 30.9187 242.01C30.825 242.156 30.7052 242.515 30.5594 243.088C30.3614 243.859 30.1948 244.395 30.0594 244.697C29.9135 244.989 29.7156 245.213 29.4656 245.369C29.2156 245.525 28.9344 245.604 28.6219 245.604C28.351 245.604 28.0958 245.541 27.8562 245.416C27.6166 245.291 27.4187 245.119 27.2625 244.9C27.1479 244.734 27.0489 244.51 26.9656 244.229C26.8823 243.947 26.8406 243.64 26.8406 243.307C26.8406 242.827 26.9135 242.406 27.0594 242.041C27.1948 241.666 27.3823 241.39 27.6219 241.213C27.8614 241.036 28.1791 240.916 28.575 240.854L28.7156 241.885C28.4031 241.926 28.1583 242.062 27.9812 242.291C27.7937 242.51 27.7 242.827 27.7 243.244C27.7 243.723 27.7833 244.067 27.95 244.275C28.1062 244.484 28.2937 244.588 28.5125 244.588C28.6479 244.588 28.7677 244.546 28.8719 244.463C28.9864 244.369 29.0802 244.234 29.1531 244.057C29.1948 243.952 29.2833 243.64 29.4187 243.119C29.6271 242.369 29.7937 241.848 29.9187 241.557C30.0437 241.265 30.226 241.036 30.4656 240.869C30.7052 240.702 31.0073 240.619 31.3719 240.619C31.726 240.619 32.0594 240.723 32.3719 240.932C32.6739 241.13 32.9135 241.421 33.0906 241.807C33.2573 242.192 33.3406 242.63 33.3406 243.119C33.3406 243.932 33.1739 244.551 32.8406 244.979C32.4969 245.395 31.9969 245.661 31.3406 245.775ZM32.4344 234.291C32.7677 234.687 33.0021 235.067 33.1375 235.432C33.2729 235.786 33.3406 236.171 33.3406 236.588C33.3406 237.275 33.1739 237.801 32.8406 238.166C32.5073 238.531 32.0802 238.713 31.5594 238.713C31.2573 238.713 30.9812 238.645 30.7312 238.51C30.4708 238.374 30.2677 238.192 30.1219 237.963C29.9656 237.734 29.851 237.479 29.7781 237.197C29.7156 236.999 29.6583 236.687 29.6062 236.26C29.5125 235.416 29.3927 234.791 29.2469 234.385C29.101 234.385 29.0125 234.385 28.9812 234.385C28.5437 234.385 28.2364 234.484 28.0594 234.682C27.8302 234.952 27.7156 235.354 27.7156 235.885C27.7156 236.374 27.8041 236.739 27.9812 236.979C28.1479 237.218 28.45 237.395 28.8875 237.51L28.7469 238.541C28.3094 238.447 27.9552 238.291 27.6844 238.072C27.4135 237.854 27.2052 237.541 27.0594 237.135C26.9135 236.729 26.8406 236.26 26.8406 235.729C26.8406 235.197 26.9031 234.765 27.0281 234.432C27.1531 234.098 27.3094 233.854 27.4969 233.697C27.6844 233.541 27.9239 233.432 28.2156 233.369C28.3927 233.338 28.7156 233.322 29.1844 233.322H30.5906C31.5698 233.322 32.1896 233.301 32.45 233.26C32.7104 233.208 32.9604 233.114 33.2 232.979V234.088C32.9812 234.192 32.726 234.26 32.4344 234.291ZM30.075 234.385C30.2312 234.77 30.3666 235.343 30.4812 236.104C30.5437 236.541 30.6166 236.848 30.7 237.025C30.7729 237.202 30.8823 237.343 31.0281 237.447C31.1739 237.541 31.3406 237.588 31.5281 237.588C31.8094 237.588 32.0437 237.484 32.2312 237.275C32.4187 237.057 32.5125 236.744 32.5125 236.338C32.5125 235.932 32.4239 235.572 32.2469 235.26C32.0698 234.937 31.825 234.702 31.5125 234.557C31.2729 234.442 30.9239 234.385 30.4656 234.385H30.075ZM33.2 231.354H24.6062V230.291H29.5125L26.9812 227.807V226.432L29.2781 228.822L33.2 226.197V227.494L30.0125 229.557L30.7312 230.291H33.2V231.354ZM32.4344 221.291C32.7677 221.687 33.0021 222.067 33.1375 222.432C33.2729 222.786 33.3406 223.171 33.3406 223.588C33.3406 224.275 33.1739 224.801 32.8406 225.166C32.5073 225.531 32.0802 225.713 31.5594 225.713C31.2573 225.713 30.9812 225.645 30.7312 225.51C30.4708 225.374 30.2677 225.192 30.1219 224.963C29.9656 224.734 29.851 224.479 29.7781 224.197C29.7156 223.999 29.6583 223.687 29.6062 223.26C29.5125 222.416 29.3927 221.791 29.2469 221.385C29.101 221.385 29.0125 221.385 28.9812 221.385C28.5437 221.385 28.2364 221.484 28.0594 221.682C27.8302 221.952 27.7156 222.354 27.7156 222.885C27.7156 223.374 27.8041 223.739 27.9812 223.979C28.1479 224.218 28.45 224.395 28.8875 224.51L28.7469 225.541C28.3094 225.447 27.9552 225.291 27.6844 225.072C27.4135 224.854 27.2052 224.541 27.0594 224.135C26.9135 223.729 26.8406 223.26 26.8406 222.729C26.8406 222.197 26.9031 221.765 27.0281 221.432C27.1531 221.098 27.3094 220.854 27.4969 220.697C27.6844 220.541 27.9239 220.432 28.2156 220.369C28.3927 220.338 28.7156 220.322 29.1844 220.322H30.5906C31.5698 220.322 32.1896 220.301 32.45 220.26C32.7104 220.208 32.9604 220.114 33.2 219.979V221.088C32.9812 221.192 32.726 221.26 32.4344 221.291ZM30.075 221.385C30.2312 221.77 30.3666 222.343 30.4812 223.104C30.5437 223.541 30.6166 223.848 30.7 224.025C30.7729 224.202 30.8823 224.343 31.0281 224.447C31.1739 224.541 31.3406 224.588 31.5281 224.588C31.8094 224.588 32.0437 224.484 32.2312 224.275C32.4187 224.057 32.5125 223.744 32.5125 223.338C32.5125 222.932 32.4239 222.572 32.2469 222.26C32.0698 221.937 31.825 221.702 31.5125 221.557C31.2729 221.442 30.9239 221.385 30.4656 221.385H30.075Z" fill="black"/>
<path d="M82.7 369.565C82.7 368.545 82.8042 367.727 83.0125 367.112C83.2208 366.487 83.5281 366.008 83.9344 365.675C84.351 365.341 84.8719 365.175 85.4969 365.175C85.9552 365.175 86.3562 365.269 86.7 365.456C87.0542 365.644 87.3458 365.914 87.575 366.269C87.8042 366.612 87.9812 367.034 88.1062 367.534C88.2312 368.034 88.2937 368.711 88.2937 369.565C88.2937 370.576 88.1896 371.388 87.9812 372.003C87.7833 372.618 87.476 373.097 87.0594 373.44C86.6531 373.774 86.1323 373.94 85.4969 373.94C84.674 373.94 84.0229 373.644 83.5437 373.05C82.9812 372.341 82.7 371.18 82.7 369.565ZM83.7781 369.565C83.7781 370.972 83.9448 371.909 84.2781 372.378C84.6115 372.847 85.0177 373.081 85.4969 373.081C85.9865 373.081 86.3927 372.847 86.7156 372.378C87.049 371.909 87.2156 370.972 87.2156 369.565C87.2156 368.149 87.049 367.211 86.7156 366.753C86.3927 366.284 85.9812 366.05 85.4812 366.05C85.0021 366.05 84.6167 366.253 84.325 366.659C83.9604 367.18 83.7781 368.149 83.7781 369.565Z" fill="black"/>
<path d="M58.6688 281.033H57.6219V274.314C57.3615 274.554 57.0229 274.799 56.6063 275.049C56.2 275.288 55.8354 275.465 55.5125 275.58V274.564C56.0958 274.283 56.6063 273.95 57.0438 273.564C57.4917 273.169 57.8094 272.783 57.9969 272.408H58.6688V281.033ZM61.7 276.799C61.7 275.778 61.8042 274.96 62.0125 274.346C62.2208 273.721 62.5281 273.242 62.9344 272.908C63.3511 272.575 63.8719 272.408 64.4969 272.408C64.9552 272.408 65.3563 272.502 65.7 272.689C66.0542 272.877 66.3458 273.148 66.575 273.502C66.8042 273.846 66.9813 274.268 67.1063 274.768C67.2313 275.268 67.2938 275.945 67.2938 276.799C67.2938 277.809 67.1896 278.622 66.9813 279.236C66.7833 279.851 66.4761 280.33 66.0594 280.674C65.6531 281.007 65.1323 281.174 64.4969 281.174C63.674 281.174 63.0229 280.877 62.5438 280.283C61.9813 279.575 61.7 278.413 61.7 276.799ZM62.7781 276.799C62.7781 278.205 62.9448 279.143 63.2781 279.611C63.6115 280.08 64.0177 280.314 64.4969 280.314C64.9865 280.314 65.3927 280.08 65.7156 279.611C66.049 279.143 66.2156 278.205 66.2156 276.799C66.2156 275.382 66.049 274.445 65.7156 273.986C65.3927 273.518 64.9813 273.283 64.4813 273.283C64.0021 273.283 63.6167 273.486 63.325 273.893C62.9604 274.413 62.7781 275.382 62.7781 276.799ZM68.7 276.799C68.7 275.778 68.8042 274.96 69.0125 274.346C69.2208 273.721 69.5281 273.242 69.9344 272.908C70.3511 272.575 70.8719 272.408 71.4969 272.408C71.9552 272.408 72.3563 272.502 72.7 272.689C73.0542 272.877 73.3458 273.148 73.575 273.502C73.8042 273.846 73.9813 274.268 74.1063 274.768C74.2313 275.268 74.2938 275.945 74.2938 276.799C74.2938 277.809 74.1896 278.622 73.9813 279.236C73.7833 279.851 73.4761 280.33 73.0594 280.674C72.6531 281.007 72.1323 281.174 71.4969 281.174C70.674 281.174 70.0229 280.877 69.5438 280.283C68.9813 279.575 68.7 278.413 68.7 276.799ZM69.7781 276.799C69.7781 278.205 69.9448 279.143 70.2781 279.611C70.6115 280.08 71.0177 280.314 71.4969 280.314C71.9865 280.314 72.3927 280.08 72.7156 279.611C73.049 279.143 73.2156 278.205 73.2156 276.799C73.2156 275.382 73.049 274.445 72.7156 273.986C72.3927 273.518 71.9813 273.283 71.4813 273.283C71.0021 273.283 70.6167 273.486 70.325 273.893C69.9604 274.413 69.7781 275.382 69.7781 276.799ZM75.7 276.799C75.7 275.778 75.8042 274.96 76.0125 274.346C76.2208 273.721 76.5281 273.242 76.9344 272.908C77.3511 272.575 77.8719 272.408 78.4969 272.408C78.9552 272.408 79.3563 272.502 79.7 272.689C80.0542 272.877 80.3458 273.148 80.575 273.502C80.8042 273.846 80.9813 274.268 81.1063 274.768C81.2313 275.268 81.2938 275.945 81.2938 276.799C81.2938 277.809 81.1896 278.622 80.9813 279.236C80.7833 279.851 80.4761 280.33 80.0594 280.674C79.6531 281.007 79.1323 281.174 78.4969 281.174C77.674 281.174 77.0229 280.877 76.5438 280.283C75.9813 279.575 75.7 278.413 75.7 276.799ZM76.7781 276.799C76.7781 278.205 76.9448 279.143 77.2781 279.611C77.6115 280.08 78.0177 280.314 78.4969 280.314C78.9865 280.314 79.3927 280.08 79.7156 279.611C80.049 279.143 80.2156 278.205 80.2156 276.799C80.2156 275.382 80.049 274.445 79.7156 273.986C79.3927 273.518 78.9813 273.283 78.4813 273.283C78.0021 273.283 77.6167 273.486 77.325 273.893C76.9604 274.413 76.7781 275.382 76.7781 276.799ZM82.7 276.799C82.7 275.778 82.8042 274.96 83.0125 274.346C83.2208 273.721 83.5281 273.242 83.9344 272.908C84.3511 272.575 84.8719 272.408 85.4969 272.408C85.9552 272.408 86.3563 272.502 86.7 272.689C87.0542 272.877 87.3458 273.148 87.575 273.502C87.8042 273.846 87.9813 274.268 88.1063 274.768C88.2313 275.268 88.2938 275.945 88.2938 276.799C88.2938 277.809 88.1896 278.622 87.9813 279.236C87.7833 279.851 87.4761 280.33 87.0594 280.674C86.6531 281.007 86.1323 281.174 85.4969 281.174C84.674 281.174 84.0229 280.877 83.5438 280.283C82.9813 279.575 82.7 278.413 82.7 276.799ZM83.7781 276.799C83.7781 278.205 83.9448 279.143 84.2781 279.611C84.6115 280.08 85.0177 280.314 85.4969 280.314C85.9865 280.314 86.3927 280.08 86.7156 279.611C87.049 279.143 87.2156 278.205 87.2156 276.799C87.2156 275.382 87.049 274.445 86.7156 273.986C86.3927 273.518 85.9813 273.283 85.4813 273.283C85.0021 273.283 84.6167 273.486 84.325 273.893C83.9604 274.413 83.7781 275.382 83.7781 276.799Z" fill="black"/>
<path d="M60.2469 187.251V188.267H54.5594C54.5594 188.017 54.6011 187.772 54.6844 187.532C54.8302 187.147 55.0594 186.767 55.3719 186.392C55.6948 186.017 56.1583 185.584 56.7625 185.095C57.7 184.324 58.3302 183.715 58.6531 183.267C58.9865 182.819 59.1531 182.397 59.1531 182.001C59.1531 181.584 59.0021 181.235 58.7 180.954C58.3979 180.662 58.0073 180.517 57.5281 180.517C57.0177 180.517 56.6115 180.668 56.3094 180.97C56.0073 181.272 55.8511 181.694 55.8406 182.235L54.7625 182.126C54.8354 181.313 55.1115 180.699 55.5906 180.282C56.0802 179.855 56.7365 179.642 57.5594 179.642C58.3823 179.642 59.0333 179.871 59.5125 180.329C59.9917 180.787 60.2313 181.355 60.2313 182.032C60.2313 182.376 60.1583 182.715 60.0125 183.048C59.8771 183.371 59.6427 183.72 59.3094 184.095C58.9865 184.459 58.45 184.959 57.7 185.595C57.0646 186.126 56.6531 186.491 56.4656 186.688C56.2886 186.876 56.1427 187.063 56.0281 187.251H60.2469ZM61.7 184.032C61.7 183.011 61.8042 182.194 62.0125 181.579C62.2208 180.954 62.5281 180.475 62.9344 180.142C63.3511 179.808 63.8719 179.642 64.4969 179.642C64.9552 179.642 65.3563 179.735 65.7 179.923C66.0542 180.11 66.3458 180.381 66.575 180.735C66.8042 181.079 66.9813 181.501 67.1063 182.001C67.2313 182.501 67.2938 183.178 67.2938 184.032C67.2938 185.043 67.1896 185.855 66.9813 186.47C66.7833 187.084 66.4761 187.563 66.0594 187.907C65.6531 188.241 65.1323 188.407 64.4969 188.407C63.674 188.407 63.0229 188.11 62.5438 187.517C61.9813 186.808 61.7 185.647 61.7 184.032ZM62.7781 184.032C62.7781 185.438 62.9448 186.376 63.2781 186.845C63.6115 187.313 64.0177 187.548 64.4969 187.548C64.9865 187.548 65.3927 187.313 65.7156 186.845C66.049 186.376 66.2156 185.438 66.2156 184.032C66.2156 182.616 66.049 181.678 65.7156 181.22C65.3927 180.751 64.9813 180.517 64.4813 180.517C64.0021 180.517 63.6167 180.72 63.325 181.126C62.9604 181.647 62.7781 182.616 62.7781 184.032ZM68.7 184.032C68.7 183.011 68.8042 182.194 69.0125 181.579C69.2208 180.954 69.5281 180.475 69.9344 180.142C70.3511 179.808 70.8719 179.642 71.4969 179.642C71.9552 179.642 72.3563 179.735 72.7 179.923C73.0542 180.11 73.3458 180.381 73.575 180.735C73.8042 181.079 73.9813 181.501 74.1063 182.001C74.2313 182.501 74.2938 183.178 74.2938 184.032C74.2938 185.043 74.1896 185.855 73.9813 186.47C73.7833 187.084 73.4761 187.563 73.0594 187.907C72.6531 188.241 72.1323 188.407 71.4969 188.407C70.674 188.407 70.0229 188.11 69.5438 187.517C68.9813 186.808 68.7 185.647 68.7 184.032ZM69.7781 184.032C69.7781 185.438 69.9448 186.376 70.2781 186.845C70.6115 187.313 71.0177 187.548 71.4969 187.548C71.9865 187.548 72.3927 187.313 72.7156 186.845C73.049 186.376 73.2156 185.438 73.2156 184.032C73.2156 182.616 73.049 181.678 72.7156 181.22C72.3927 180.751 71.9813 180.517 71.4813 180.517C71.0021 180.517 70.6167 180.72 70.325 181.126C69.9604 181.647 69.7781 182.616 69.7781 184.032ZM75.7 184.032C75.7 183.011 75.8042 182.194 76.0125 181.579C76.2208 180.954 76.5281 180.475 76.9344 180.142C77.3511 179.808 77.8719 179.642 78.4969 179.642C78.9552 179.642 79.3563 179.735 79.7 179.923C80.0542 180.11 80.3458 180.381 80.575 180.735C80.8042 181.079 80.9813 181.501 81.1063 182.001C81.2313 182.501 81.2938 183.178 81.2938 184.032C81.2938 185.043 81.1896 185.855 80.9813 186.47C80.7833 187.084 80.4761 187.563 80.0594 187.907C79.6531 188.241 79.1323 188.407 78.4969 188.407C77.674 188.407 77.0229 188.11 76.5438 187.517C75.9813 186.808 75.7 185.647 75.7 184.032ZM76.7781 184.032C76.7781 185.438 76.9448 186.376 77.2781 186.845C77.6115 187.313 78.0177 187.548 78.4969 187.548C78.9865 187.548 79.3927 187.313 79.7156 186.845C80.049 186.376 80.2156 185.438 80.2156 184.032C80.2156 182.616 80.049 181.678 79.7156 181.22C79.3927 180.751 78.9813 180.517 78.4813 180.517C78.0021 180.517 77.6167 180.72 77.325 181.126C76.9604 181.647 76.7781 182.616 76.7781 184.032ZM82.7 184.032C82.7 183.011 82.8042 182.194 83.0125 181.579C83.2208 180.954 83.5281 180.475 83.9344 180.142C84.3511 179.808 84.8719 179.642 85.4969 179.642C85.9552 179.642 86.3563 179.735 86.7 179.923C87.0542 180.11 87.3458 180.381 87.575 180.735C87.8042 181.079 87.9813 181.501 88.1063 182.001C88.2313 182.501 88.2938 183.178 88.2938 184.032C88.2938 185.043 88.1896 185.855 87.9813 186.47C87.7833 187.084 87.4761 187.563 87.0594 187.907C86.6531 188.241 86.1323 188.407 85.4969 188.407C84.674 188.407 84.0229 188.11 83.5438 187.517C82.9813 186.808 82.7 185.647 82.7 184.032ZM83.7781 184.032C83.7781 185.438 83.9448 186.376 84.2781 186.845C84.6115 187.313 85.0177 187.548 85.4969 187.548C85.9865 187.548 86.3927 187.313 86.7156 186.845C87.049 186.376 87.2156 185.438 87.2156 184.032C87.2156 182.616 87.049 181.678 86.7156 181.22C86.3927 180.751 85.9813 180.517 85.4813 180.517C85.0021 180.517 84.6167 180.72 84.325 181.126C83.9604 181.647 83.7781 182.616 83.7781 184.032Z" fill="black"/>
<path d="M54.7 93.2344L55.7625 93.0938C55.8771 93.6875 56.0802 94.1198 56.3719 94.3906C56.6636 94.651 57.0177 94.7812 57.4344 94.7812C57.9344 94.7812 58.3563 94.6094 58.7 94.2656C59.0438 93.9219 59.2156 93.4948 59.2156 92.9844C59.2156 92.5052 59.0542 92.1094 58.7313 91.7969C58.4188 91.474 58.0177 91.3125 57.5281 91.3125C57.3302 91.3125 57.0802 91.3542 56.7781 91.4375L56.9031 90.5C56.9761 90.5104 57.0333 90.5156 57.075 90.5156C57.5229 90.5156 57.924 90.401 58.2781 90.1719C58.6427 89.9323 58.825 89.5677 58.825 89.0781C58.825 88.6927 58.6948 88.375 58.4344 88.125C58.174 87.8646 57.8354 87.7344 57.4188 87.7344C57.0125 87.7344 56.6688 87.8646 56.3875 88.125C56.1167 88.3854 55.9448 88.7708 55.8719 89.2812L54.8094 89.0938C54.9344 88.3958 55.2261 87.8542 55.6844 87.4688C56.1427 87.0729 56.7104 86.875 57.3875 86.875C57.8563 86.875 58.2886 86.9792 58.6844 87.1875C59.0802 87.3854 59.3823 87.6562 59.5906 88C59.799 88.3438 59.9031 88.7135 59.9031 89.1094C59.9031 89.474 59.8042 89.8125 59.6063 90.125C59.4083 90.4271 59.1167 90.6667 58.7313 90.8438C59.2313 90.9583 59.6219 91.2031 59.9031 91.5781C60.1844 91.9427 60.325 92.4062 60.325 92.9688C60.325 93.7188 60.049 94.3542 59.4969 94.875C58.9552 95.3958 58.2677 95.6562 57.4344 95.6562C56.6844 95.6562 56.0594 95.4323 55.5594 94.9844C55.0594 94.526 54.7729 93.9427 54.7 93.2344ZM61.7 91.2656C61.7 90.2448 61.8042 89.4271 62.0125 88.8125C62.2208 88.1875 62.5281 87.7083 62.9344 87.375C63.3511 87.0417 63.8719 86.875 64.4969 86.875C64.9552 86.875 65.3563 86.9688 65.7 87.1562C66.0542 87.3438 66.3458 87.6146 66.575 87.9688C66.8042 88.3125 66.9813 88.7344 67.1063 89.2344C67.2313 89.7344 67.2938 90.4115 67.2938 91.2656C67.2938 92.276 67.1896 93.0885 66.9813 93.7031C66.7833 94.3177 66.4761 94.7969 66.0594 95.1406C65.6531 95.474 65.1323 95.6406 64.4969 95.6406C63.674 95.6406 63.0229 95.3438 62.5438 94.75C61.9813 94.0417 61.7 92.8802 61.7 91.2656ZM62.7781 91.2656C62.7781 92.6719 62.9448 93.6094 63.2781 94.0781C63.6115 94.5469 64.0177 94.7812 64.4969 94.7812C64.9865 94.7812 65.3927 94.5469 65.7156 94.0781C66.049 93.6094 66.2156 92.6719 66.2156 91.2656C66.2156 89.849 66.049 88.9115 65.7156 88.4531C65.3927 87.9844 64.9813 87.75 64.4813 87.75C64.0021 87.75 63.6167 87.9531 63.325 88.3594C62.9604 88.8802 62.7781 89.849 62.7781 91.2656ZM68.7 91.2656C68.7 90.2448 68.8042 89.4271 69.0125 88.8125C69.2208 88.1875 69.5281 87.7083 69.9344 87.375C70.3511 87.0417 70.8719 86.875 71.4969 86.875C71.9552 86.875 72.3563 86.9688 72.7 87.1562C73.0542 87.3438 73.3458 87.6146 73.575 87.9688C73.8042 88.3125 73.9813 88.7344 74.1063 89.2344C74.2313 89.7344 74.2938 90.4115 74.2938 91.2656C74.2938 92.276 74.1896 93.0885 73.9813 93.7031C73.7833 94.3177 73.4761 94.7969 73.0594 95.1406C72.6531 95.474 72.1323 95.6406 71.4969 95.6406C70.674 95.6406 70.0229 95.3438 69.5438 94.75C68.9813 94.0417 68.7 92.8802 68.7 91.2656ZM69.7781 91.2656C69.7781 92.6719 69.9448 93.6094 70.2781 94.0781C70.6115 94.5469 71.0177 94.7812 71.4969 94.7812C71.9865 94.7812 72.3927 94.5469 72.7156 94.0781C73.049 93.6094 73.2156 92.6719 73.2156 91.2656C73.2156 89.849 73.049 88.9115 72.7156 88.4531C72.3927 87.9844 71.9813 87.75 71.4813 87.75C71.0021 87.75 70.6167 87.9531 70.325 88.3594C69.9604 88.8802 69.7781 89.849 69.7781 91.2656ZM75.7 91.2656C75.7 90.2448 75.8042 89.4271 76.0125 88.8125C76.2208 88.1875 76.5281 87.7083 76.9344 87.375C77.3511 87.0417 77.8719 86.875 78.4969 86.875C78.9552 86.875 79.3563 86.9688 79.7 87.1562C80.0542 87.3438 80.3458 87.6146 80.575 87.9688C80.8042 88.3125 80.9813 88.7344 81.1063 89.2344C81.2313 89.7344 81.2938 90.4115 81.2938 91.2656C81.2938 92.276 81.1896 93.0885 80.9813 93.7031C80.7833 94.3177 80.4761 94.7969 80.0594 95.1406C79.6531 95.474 79.1323 95.6406 78.4969 95.6406C77.674 95.6406 77.0229 95.3438 76.5438 94.75C75.9813 94.0417 75.7 92.8802 75.7 91.2656ZM76.7781 91.2656C76.7781 92.6719 76.9448 93.6094 77.2781 94.0781C77.6115 94.5469 78.0177 94.7812 78.4969 94.7812C78.9865 94.7812 79.3927 94.5469 79.7156 94.0781C80.049 93.6094 80.2156 92.6719 80.2156 91.2656C80.2156 89.849 80.049 88.9115 79.7156 88.4531C79.3927 87.9844 78.9813 87.75 78.4813 87.75C78.0021 87.75 77.6167 87.9531 77.325 88.3594C76.9604 88.8802 76.7781 89.849 76.7781 91.2656ZM82.7 91.2656C82.7 90.2448 82.8042 89.4271 83.0125 88.8125C83.2208 88.1875 83.5281 87.7083 83.9344 87.375C84.3511 87.0417 84.8719 86.875 85.4969 86.875C85.9552 86.875 86.3563 86.9688 86.7 87.1562C87.0542 87.3438 87.3458 87.6146 87.575 87.9688C87.8042 88.3125 87.9813 88.7344 88.1063 89.2344C88.2313 89.7344 88.2938 90.4115 88.2938 91.2656C88.2938 92.276 88.1896 93.0885 87.9813 93.7031C87.7833 94.3177 87.4761 94.7969 87.0594 95.1406C86.6531 95.474 86.1323 95.6406 85.4969 95.6406C84.674 95.6406 84.0229 95.3438 83.5438 94.75C82.9813 94.0417 82.7 92.8802 82.7 91.2656ZM83.7781 91.2656C83.7781 92.6719 83.9448 93.6094 84.2781 94.0781C84.6115 94.5469 85.0177 94.7812 85.4969 94.7812C85.9865 94.7812 86.3927 94.5469 86.7156 94.0781C87.049 93.6094 87.2156 92.6719 87.2156 91.2656C87.2156 89.849 87.049 88.9115 86.7156 88.4531C86.3927 87.9844 85.9813 87.75 85.4813 87.75C85.0021 87.75 84.6167 87.9531 84.325 88.3594C83.9604 88.8802 83.7781 89.849 83.7781 91.2656Z" fill="black"/>
<path d="M173.975 386.8V384.737H170.256V383.769L174.178 378.206H175.038V383.769H176.194V384.737H175.038V386.8H173.975ZM173.975 383.769V379.909L171.288 383.769H173.975ZM180.975 386.8V384.737H177.256V383.769L181.178 378.206H182.038V383.769H183.194V384.737H182.038V386.8H180.975ZM180.975 383.769V379.909L178.288 383.769H180.975ZM184.6 382.565C184.6 381.545 184.704 380.727 184.913 380.112C185.121 379.487 185.428 379.008 185.834 378.675C186.251 378.341 186.772 378.175 187.397 378.175C187.855 378.175 188.256 378.269 188.6 378.456C188.954 378.644 189.246 378.914 189.475 379.269C189.704 379.612 189.881 380.034 190.006 380.534C190.131 381.034 190.194 381.711 190.194 382.565C190.194 383.576 190.09 384.388 189.881 385.003C189.683 385.618 189.376 386.097 188.959 386.44C188.553 386.774 188.032 386.94 187.397 386.94C186.574 386.94 185.923 386.644 185.444 386.05C184.881 385.341 184.6 384.18 184.6 382.565ZM185.678 382.565C185.678 383.972 185.845 384.909 186.178 385.378C186.511 385.847 186.918 386.081 187.397 386.081C187.886 386.081 188.293 385.847 188.616 385.378C188.949 384.909 189.116 383.972 189.116 382.565C189.116 381.149 188.949 380.211 188.616 379.753C188.293 379.284 187.881 379.05 187.381 379.05C186.902 379.05 186.517 379.253 186.225 379.659C185.86 380.18 185.678 381.149 185.678 382.565ZM191.6 382.565C191.6 381.545 191.704 380.727 191.913 380.112C192.121 379.487 192.428 379.008 192.834 378.675C193.251 378.341 193.772 378.175 194.397 378.175C194.855 378.175 195.256 378.269 195.6 378.456C195.954 378.644 196.246 378.914 196.475 379.269C196.704 379.612 196.881 380.034 197.006 380.534C197.131 381.034 197.194 381.711 197.194 382.565C197.194 383.576 197.09 384.388 196.881 385.003C196.683 385.618 196.376 386.097 195.959 386.44C195.553 386.774 195.032 386.94 194.397 386.94C193.574 386.94 192.923 386.644 192.444 386.05C191.881 385.341 191.6 384.18 191.6 382.565ZM192.678 382.565C192.678 383.972 192.845 384.909 193.178 385.378C193.511 385.847 193.918 386.081 194.397 386.081C194.886 386.081 195.293 385.847 195.616 385.378C195.949 384.909 196.116 383.972 196.116 382.565C196.116 381.149 195.949 380.211 195.616 379.753C195.293 379.284 194.881 379.05 194.381 379.05C193.902 379.05 193.517 379.253 193.225 379.659C192.86 380.18 192.678 381.149 192.678 382.565ZM198.6 382.565C198.6 381.545 198.704 380.727 198.913 380.112C199.121 379.487 199.428 379.008 199.834 378.675C200.251 378.341 200.772 378.175 201.397 378.175C201.855 378.175 202.256 378.269 202.6 378.456C202.954 378.644 203.246 378.914 203.475 379.269C203.704 379.612 203.881 380.034 204.006 380.534C204.131 381.034 204.194 381.711 204.194 382.565C204.194 383.576 204.09 384.388 203.881 385.003C203.683 385.618 203.376 386.097 202.959 386.44C202.553 386.774 202.032 386.94 201.397 386.94C200.574 386.94 199.923 386.644 199.444 386.05C198.881 385.341 198.6 384.18 198.6 382.565ZM199.678 382.565C199.678 383.972 199.845 384.909 200.178 385.378C200.511 385.847 200.918 386.081 201.397 386.081C201.886 386.081 202.293 385.847 202.616 385.378C202.949 384.909 203.116 383.972 203.116 382.565C203.116 381.149 202.949 380.211 202.616 379.753C202.293 379.284 201.881 379.05 201.381 379.05C200.902 379.05 200.517 379.253 200.225 379.659C199.86 380.18 199.678 381.149 199.678 382.565Z" fill="black"/>
<path d="M293.975 386.8V384.737H290.256V383.769L294.178 378.206H295.038V383.769H296.194V384.737H295.038V386.8H293.975ZM293.975 383.769V379.909L291.288 383.769H293.975ZM300.975 386.8V384.737H297.256V383.769L301.178 378.206H302.038V383.769H303.194V384.737H302.038V386.8H300.975ZM300.975 383.769V379.909L298.288 383.769H300.975ZM310.147 385.784V386.8H304.459C304.459 386.55 304.501 386.305 304.584 386.065C304.73 385.68 304.959 385.3 305.272 384.925C305.595 384.55 306.058 384.118 306.663 383.628C307.6 382.857 308.23 382.248 308.553 381.8C308.886 381.352 309.053 380.93 309.053 380.534C309.053 380.118 308.902 379.769 308.6 379.487C308.298 379.196 307.907 379.05 307.428 379.05C306.918 379.05 306.511 379.201 306.209 379.503C305.907 379.805 305.751 380.227 305.741 380.769L304.663 380.659C304.735 379.847 305.011 379.232 305.491 378.815C305.98 378.388 306.636 378.175 307.459 378.175C308.282 378.175 308.933 378.404 309.413 378.862C309.892 379.321 310.131 379.888 310.131 380.565C310.131 380.909 310.058 381.248 309.913 381.581C309.777 381.904 309.543 382.253 309.209 382.628C308.886 382.993 308.35 383.493 307.6 384.128C306.965 384.659 306.553 385.024 306.366 385.222C306.189 385.409 306.043 385.597 305.928 385.784H310.147ZM311.6 382.565C311.6 381.545 311.704 380.727 311.913 380.112C312.121 379.487 312.428 379.008 312.834 378.675C313.251 378.341 313.772 378.175 314.397 378.175C314.855 378.175 315.256 378.269 315.6 378.456C315.954 378.644 316.246 378.914 316.475 379.269C316.704 379.612 316.881 380.034 317.006 380.534C317.131 381.034 317.194 381.711 317.194 382.565C317.194 383.576 317.09 384.388 316.881 385.003C316.683 385.618 316.376 386.097 315.959 386.44C315.553 386.774 315.032 386.94 314.397 386.94C313.574 386.94 312.923 386.644 312.444 386.05C311.881 385.341 311.6 384.18 311.6 382.565ZM312.678 382.565C312.678 383.972 312.845 384.909 313.178 385.378C313.511 385.847 313.918 386.081 314.397 386.081C314.886 386.081 315.293 385.847 315.616 385.378C315.949 384.909 316.116 383.972 316.116 382.565C316.116 381.149 315.949 380.211 315.616 379.753C315.293 379.284 314.881 379.05 314.381 379.05C313.902 379.05 313.517 379.253 313.225 379.659C312.86 380.18 312.678 381.149 312.678 382.565ZM318.6 382.565C318.6 381.545 318.704 380.727 318.913 380.112C319.121 379.487 319.428 379.008 319.834 378.675C320.251 378.341 320.772 378.175 321.397 378.175C321.855 378.175 322.256 378.269 322.6 378.456C322.954 378.644 323.246 378.914 323.475 379.269C323.704 379.612 323.881 380.034 324.006 380.534C324.131 381.034 324.194 381.711 324.194 382.565C324.194 383.576 324.09 384.388 323.881 385.003C323.683 385.618 323.376 386.097 322.959 386.44C322.553 386.774 322.032 386.94 321.397 386.94C320.574 386.94 319.923 386.644 319.444 386.05C318.881 385.341 318.6 384.18 318.6 382.565ZM319.678 382.565C319.678 383.972 319.845 384.909 320.178 385.378C320.511 385.847 320.918 386.081 321.397 386.081C321.886 386.081 322.293 385.847 322.616 385.378C322.949 384.909 323.116 383.972 323.116 382.565C323.116 381.149 322.949 380.211 322.616 379.753C322.293 379.284 321.881 379.05 321.381 379.05C320.902 379.05 320.517 379.253 320.225 379.659C319.86 380.18 319.678 381.149 319.678 382.565Z" fill="black"/>
<path d="M413.975 386.8V384.737H410.256V383.769L414.178 378.206H415.038V383.769H416.194V384.737H415.038V386.8H413.975ZM413.975 383.769V379.909L411.288 383.769H413.975ZM420.975 386.8V384.737H417.256V383.769L421.178 378.206H422.038V383.769H423.194V384.737H422.038V386.8H420.975ZM420.975 383.769V379.909L418.288 383.769H420.975ZM427.975 386.8V384.737H424.256V383.769L428.178 378.206H429.038V383.769H430.194V384.737H429.038V386.8H427.975ZM427.975 383.769V379.909L425.288 383.769H427.975ZM431.6 382.565C431.6 381.545 431.704 380.727 431.913 380.112C432.121 379.487 432.428 379.008 432.834 378.675C433.251 378.341 433.772 378.175 434.397 378.175C434.855 378.175 435.256 378.269 435.6 378.456C435.954 378.644 436.246 378.914 436.475 379.269C436.704 379.612 436.881 380.034 437.006 380.534C437.131 381.034 437.194 381.711 437.194 382.565C437.194 383.576 437.09 384.388 436.881 385.003C436.683 385.618 436.376 386.097 435.959 386.44C435.553 386.774 435.032 386.94 434.397 386.94C433.574 386.94 432.923 386.644 432.444 386.05C431.881 385.341 431.6 384.18 431.6 382.565ZM432.678 382.565C432.678 383.972 432.845 384.909 433.178 385.378C433.511 385.847 433.918 386.081 434.397 386.081C434.886 386.081 435.293 385.847 435.616 385.378C435.949 384.909 436.116 383.972 436.116 382.565C436.116 381.149 435.949 380.211 435.616 379.753C435.293 379.284 434.881 379.05 434.381 379.05C433.902 379.05 433.517 379.253 433.225 379.659C432.86 380.18 432.678 381.149 432.678 382.565ZM438.6 382.565C438.6 381.545 438.704 380.727 438.913 380.112C439.121 379.487 439.428 379.008 439.834 378.675C440.251 378.341 440.772 378.175 441.397 378.175C441.855 378.175 442.256 378.269 442.6 378.456C442.954 378.644 443.246 378.914 443.475 379.269C443.704 379.612 443.881 380.034 444.006 380.534C444.131 381.034 444.194 381.711 444.194 382.565C444.194 383.576 444.09 384.388 443.881 385.003C443.683 385.618 443.376 386.097 442.959 386.44C442.553 386.774 442.032 386.94 441.397 386.94C440.574 386.94 439.923 386.644 439.444 386.05C438.881 385.341 438.6 384.18 438.6 382.565ZM439.678 382.565C439.678 383.972 439.845 384.909 440.178 385.378C440.511 385.847 440.918 386.081 441.397 386.081C441.886 386.081 442.293 385.847 442.616 385.378C442.949 384.909 443.116 383.972 443.116 382.565C443.116 381.149 442.949 380.211 442.616 379.753C442.293 379.284 441.881 379.05 441.381 379.05C440.902 379.05 440.517 379.253 440.225 379.659C439.86 380.18 439.678 381.149 439.678 382.565Z" fill="black"/>
<path d="M533.975 386.8V384.737H530.256V383.769L534.178 378.206H535.037V383.769H536.194V384.737H535.037V386.8H533.975ZM533.975 383.769V379.909L531.287 383.769H533.975ZM540.975 386.8V384.737H537.256V383.769L541.178 378.206H542.037V383.769H543.194V384.737H542.037V386.8H540.975ZM540.975 383.769V379.909L538.287 383.769H540.975ZM550.069 380.315L549.022 380.394C548.928 379.977 548.798 379.675 548.631 379.487C548.34 379.185 547.985 379.034 547.569 379.034C547.235 379.034 546.939 379.128 546.678 379.315C546.355 379.565 546.095 379.925 545.897 380.394C545.709 380.852 545.61 381.508 545.6 382.362C545.85 381.977 546.157 381.69 546.522 381.503C546.897 381.315 547.287 381.222 547.694 381.222C548.392 381.222 548.985 381.482 549.475 382.003C549.975 382.524 550.225 383.19 550.225 384.003C550.225 384.545 550.105 385.05 549.866 385.519C549.636 385.977 549.319 386.331 548.912 386.581C548.506 386.821 548.048 386.94 547.537 386.94C546.652 386.94 545.933 386.618 545.381 385.972C544.829 385.326 544.553 384.263 544.553 382.784C544.553 381.118 544.86 379.909 545.475 379.159C546.006 378.503 546.725 378.175 547.631 378.175C548.308 378.175 548.86 378.368 549.287 378.753C549.725 379.128 549.985 379.649 550.069 380.315ZM545.772 384.019C545.772 384.383 545.845 384.732 545.991 385.065C546.147 385.388 546.36 385.638 546.631 385.815C546.912 385.993 547.209 386.081 547.522 386.081C547.959 386.081 548.34 385.904 548.662 385.55C548.985 385.185 549.147 384.696 549.147 384.081C549.147 383.487 548.985 383.019 548.662 382.675C548.35 382.331 547.954 382.159 547.475 382.159C546.996 382.159 546.59 382.331 546.256 382.675C545.933 383.019 545.772 383.466 545.772 384.019ZM551.6 382.565C551.6 381.545 551.704 380.727 551.912 380.112C552.121 379.487 552.428 379.008 552.834 378.675C553.251 378.341 553.772 378.175 554.397 378.175C554.855 378.175 555.256 378.269 555.6 378.456C555.954 378.644 556.246 378.914 556.475 379.269C556.704 379.612 556.881 380.034 557.006 380.534C557.131 381.034 557.194 381.711 557.194 382.565C557.194 383.576 557.09 384.388 556.881 385.003C556.683 385.618 556.376 386.097 555.959 386.44C555.553 386.774 555.032 386.94 554.397 386.94C553.574 386.94 552.923 386.644 552.444 386.05C551.881 385.341 551.6 384.18 551.6 382.565ZM552.678 382.565C552.678 383.972 552.845 384.909 553.178 385.378C553.511 385.847 553.918 386.081 554.397 386.081C554.886 386.081 555.293 385.847 555.616 385.378C555.949 384.909 556.116 383.972 556.116 382.565C556.116 381.149 555.949 380.211 555.616 379.753C555.293 379.284 554.881 379.05 554.381 379.05C553.902 379.05 553.517 379.253 553.225 379.659C552.86 380.18 552.678 381.149 552.678 382.565ZM558.6 382.565C558.6 381.545 558.704 380.727 558.912 380.112C559.121 379.487 559.428 379.008 559.834 378.675C560.251 378.341 560.772 378.175 561.397 378.175C561.855 378.175 562.256 378.269 562.6 378.456C562.954 378.644 563.246 378.914 563.475 379.269C563.704 379.612 563.881 380.034 564.006 380.534C564.131 381.034 564.194 381.711 564.194 382.565C564.194 383.576 564.09 384.388 563.881 385.003C563.683 385.618 563.376 386.097 562.959 386.44C562.553 386.774 562.032 386.94 561.397 386.94C560.574 386.94 559.923 386.644 559.444 386.05C558.881 385.341 558.6 384.18 558.6 382.565ZM559.678 382.565C559.678 383.972 559.845 384.909 560.178 385.378C560.511 385.847 560.918 386.081 561.397 386.081C561.886 386.081 562.293 385.847 562.616 385.378C562.949 384.909 563.116 383.972 563.116 382.565C563.116 381.149 562.949 380.211 562.616 379.753C562.293 379.284 561.881 379.05 561.381 379.05C560.902 379.05 560.517 379.253 560.225 379.659C559.86 380.18 559.678 381.149 559.678 382.565Z" fill="black"/>
<path d="M653.975 386.8V384.737H650.256V383.769L654.178 378.206H655.037V383.769H656.194V384.737H655.037V386.8H653.975ZM653.975 383.769V379.909L651.287 383.769H653.975ZM660.975 386.8V384.737H657.256V383.769L661.178 378.206H662.037V383.769H663.194V384.737H662.037V386.8H660.975ZM660.975 383.769V379.909L658.287 383.769H660.975ZM666.225 382.144C665.787 381.977 665.459 381.748 665.241 381.456C665.032 381.154 664.928 380.8 664.928 380.394C664.928 379.769 665.152 379.243 665.6 378.815C666.058 378.388 666.657 378.175 667.397 378.175C668.147 378.175 668.751 378.394 669.209 378.831C669.668 379.269 669.897 379.8 669.897 380.425C669.897 380.821 669.793 381.164 669.584 381.456C669.376 381.748 669.058 381.977 668.631 382.144C669.162 382.31 669.564 382.586 669.834 382.972C670.105 383.357 670.241 383.815 670.241 384.347C670.241 385.076 669.98 385.69 669.459 386.19C668.949 386.69 668.267 386.94 667.412 386.94C666.569 386.94 665.886 386.69 665.366 386.19C664.845 385.69 664.584 385.065 664.584 384.315C664.584 383.753 664.725 383.284 665.006 382.909C665.298 382.534 665.704 382.279 666.225 382.144ZM666.006 380.347C666.006 380.753 666.136 381.086 666.397 381.347C666.668 381.607 667.011 381.737 667.428 381.737C667.834 381.737 668.168 381.612 668.428 381.362C668.689 381.102 668.819 380.784 668.819 380.409C668.819 380.024 668.683 379.701 668.412 379.44C668.142 379.17 667.808 379.034 667.412 379.034C667.006 379.034 666.668 379.164 666.397 379.425C666.136 379.685 666.006 379.993 666.006 380.347ZM665.678 384.315C665.678 384.618 665.746 384.909 665.881 385.19C666.027 385.472 666.241 385.69 666.522 385.847C666.803 386.003 667.105 386.081 667.428 386.081C667.928 386.081 668.34 385.92 668.662 385.597C668.996 385.274 669.162 384.862 669.162 384.362C669.162 383.852 668.996 383.43 668.662 383.097C668.329 382.763 667.907 382.597 667.397 382.597C666.897 382.597 666.485 382.763 666.162 383.097C665.84 383.42 665.678 383.826 665.678 384.315ZM671.6 382.565C671.6 381.545 671.704 380.727 671.912 380.112C672.121 379.487 672.428 379.008 672.834 378.675C673.251 378.341 673.772 378.175 674.397 378.175C674.855 378.175 675.256 378.269 675.6 378.456C675.954 378.644 676.246 378.914 676.475 379.269C676.704 379.612 676.881 380.034 677.006 380.534C677.131 381.034 677.194 381.711 677.194 382.565C677.194 383.576 677.09 384.388 676.881 385.003C676.683 385.618 676.376 386.097 675.959 386.44C675.553 386.774 675.032 386.94 674.397 386.94C673.574 386.94 672.923 386.644 672.444 386.05C671.881 385.341 671.6 384.18 671.6 382.565ZM672.678 382.565C672.678 383.972 672.845 384.909 673.178 385.378C673.511 385.847 673.918 386.081 674.397 386.081C674.886 386.081 675.293 385.847 675.616 385.378C675.949 384.909 676.116 383.972 676.116 382.565C676.116 381.149 675.949 380.211 675.616 379.753C675.293 379.284 674.881 379.05 674.381 379.05C673.902 379.05 673.517 379.253 673.225 379.659C672.86 380.18 672.678 381.149 672.678 382.565ZM678.6 382.565C678.6 381.545 678.704 380.727 678.912 380.112C679.121 379.487 679.428 379.008 679.834 378.675C680.251 378.341 680.772 378.175 681.397 378.175C681.855 378.175 682.256 378.269 682.6 378.456C682.954 378.644 683.246 378.914 683.475 379.269C683.704 379.612 683.881 380.034 684.006 380.534C684.131 381.034 684.194 381.711 684.194 382.565C684.194 383.576 684.09 384.388 683.881 385.003C683.683 385.618 683.376 386.097 682.959 386.44C682.553 386.774 682.032 386.94 681.397 386.94C680.574 386.94 679.923 386.644 679.444 386.05C678.881 385.341 678.6 384.18 678.6 382.565ZM679.678 382.565C679.678 383.972 679.845 384.909 680.178 385.378C680.511 385.847 680.918 386.081 681.397 386.081C681.886 386.081 682.293 385.847 682.616 385.378C682.949 384.909 683.116 383.972 683.116 382.565C683.116 381.149 682.949 380.211 682.616 379.753C682.293 379.284 681.881 379.05 681.381 379.05C680.902 379.05 680.517 379.253 680.225 379.659C679.86 380.18 679.678 381.149 679.678 382.565Z" fill="black"/>
<path d="M576.847 65.5127V66.7002H570.222C570.211 66.4085 570.258 66.1221 570.363 65.8408C570.54 65.3929 570.81 64.9502 571.175 64.5127C571.55 64.0752 572.086 63.57 572.784 62.9971C573.878 62.1012 574.613 61.3929 574.988 60.8721C575.373 60.3512 575.566 59.8564 575.566 59.3877C575.566 58.8981 575.389 58.4867 575.034 58.1533C574.691 57.82 574.243 57.6533 573.691 57.6533C573.097 57.6533 572.618 57.8304 572.253 58.1846C571.899 58.5387 571.722 59.0335 571.722 59.6689L570.456 59.5283C570.54 58.5908 570.862 57.8773 571.425 57.3877C571.998 56.8877 572.758 56.6377 573.706 56.6377C574.675 56.6377 575.435 56.9033 575.988 57.4346C576.55 57.9658 576.831 58.6273 576.831 59.4189C576.831 59.8252 576.748 60.221 576.581 60.6064C576.425 60.9919 576.154 61.3981 575.769 61.8252C575.394 62.2523 574.764 62.8408 573.878 63.5908C573.139 64.2054 572.665 64.6273 572.456 64.8564C572.248 65.0752 572.076 65.2939 571.941 65.5127H576.847ZM578.378 61.7627C578.378 60.5752 578.498 59.6221 578.738 58.9033C578.988 58.1742 579.352 57.6169 579.831 57.2314C580.31 56.8356 580.915 56.6377 581.644 56.6377C582.185 56.6377 582.659 56.7471 583.066 56.9658C583.472 57.1846 583.805 57.4971 584.066 57.9033C584.336 58.3096 584.545 58.8044 584.691 59.3877C584.836 59.971 584.909 60.7627 584.909 61.7627C584.909 62.9398 584.79 63.8877 584.55 64.6064C584.31 65.3252 583.951 65.8825 583.472 66.2783C582.993 66.6742 582.383 66.8721 581.644 66.8721C580.685 66.8721 579.93 66.5231 579.378 65.8252C578.711 64.9919 578.378 63.6377 578.378 61.7627ZM579.644 61.7627C579.644 63.4085 579.836 64.5023 580.222 65.0439C580.607 65.5856 581.081 65.8564 581.644 65.8564C582.217 65.8564 582.696 65.5856 583.081 65.0439C583.467 64.4919 583.659 63.3981 583.659 61.7627C583.659 60.1064 583.467 59.0075 583.081 58.4658C582.696 57.9242 582.211 57.6533 581.628 57.6533C581.066 57.6533 580.618 57.8929 580.284 58.3721C579.857 58.9867 579.644 60.1169 579.644 61.7627ZM592.847 65.5127V66.7002H586.222C586.211 66.4085 586.258 66.1221 586.363 65.8408C586.54 65.3929 586.81 64.9502 587.175 64.5127C587.55 64.0752 588.086 63.57 588.784 62.9971C589.878 62.1012 590.613 61.3929 590.988 60.8721C591.373 60.3512 591.566 59.8564 591.566 59.3877C591.566 58.8981 591.389 58.4867 591.034 58.1533C590.691 57.82 590.243 57.6533 589.691 57.6533C589.097 57.6533 588.618 57.8304 588.253 58.1846C587.899 58.5387 587.722 59.0335 587.722 59.6689L586.456 59.5283C586.54 58.5908 586.862 57.8773 587.425 57.3877C587.998 56.8877 588.758 56.6377 589.706 56.6377C590.675 56.6377 591.435 56.9033 591.988 57.4346C592.55 57.9658 592.831 58.6273 592.831 59.4189C592.831 59.8252 592.748 60.221 592.581 60.6064C592.425 60.9919 592.154 61.3981 591.769 61.8252C591.394 62.2523 590.764 62.8408 589.878 63.5908C589.139 64.2054 588.665 64.6273 588.456 64.8564C588.248 65.0752 588.076 65.2939 587.941 65.5127H592.847ZM600.847 65.5127V66.7002H594.222C594.211 66.4085 594.258 66.1221 594.363 65.8408C594.54 65.3929 594.81 64.9502 595.175 64.5127C595.55 64.0752 596.086 63.57 596.784 62.9971C597.878 62.1012 598.613 61.3929 598.988 60.8721C599.373 60.3512 599.566 59.8564 599.566 59.3877C599.566 58.8981 599.389 58.4867 599.034 58.1533C598.691 57.82 598.243 57.6533 597.691 57.6533C597.097 57.6533 596.618 57.8304 596.253 58.1846C595.899 58.5387 595.722 59.0335 595.722 59.6689L594.456 59.5283C594.54 58.5908 594.862 57.8773 595.425 57.3877C595.998 56.8877 596.758 56.6377 597.706 56.6377C598.675 56.6377 599.435 56.9033 599.988 57.4346C600.55 57.9658 600.831 58.6273 600.831 59.4189C600.831 59.8252 600.748 60.221 600.581 60.6064C600.425 60.9919 600.154 61.3981 599.769 61.8252C599.394 62.2523 598.764 62.8408 597.878 63.5908C597.139 64.2054 596.665 64.6273 596.456 64.8564C596.248 65.0752 596.076 65.2939 595.941 65.5127H600.847Z" fill="#999999"/>
<path d="M606.175 58.1689C605.487 59.3669 604.633 60.3669 603.612 61.1689L602.847 60.1846C604.336 59.0908 605.357 57.5075 605.909 55.4346L607.159 55.7627C607.305 55.9085 607.253 55.9971 607.003 56.0283L606.566 57.1221H614.269V58.1689H610.284V60.0283H613.566V61.0596H610.284V63.5283H614.878V64.5596H610.284V67.8564H609.191V64.5596H602.894V63.5283H605.362V60.0283H609.191V58.1689H606.175ZM606.456 63.5283H609.191V61.0596H606.456V63.5283Z" fill="#999999"/>
<path d="M616.566 64.3877L617.753 64.2783C617.847 64.8304 618.034 65.2314 618.316 65.4814C618.607 65.7314 618.972 65.8564 619.409 65.8564C619.784 65.8564 620.112 65.7731 620.394 65.6064C620.685 65.4294 620.92 65.195 621.097 64.9033C621.284 64.6117 621.441 64.221 621.566 63.7314C621.691 63.2419 621.753 62.7419 621.753 62.2314C621.753 62.1794 621.748 62.096 621.737 61.9814C621.498 62.3773 621.165 62.7002 620.737 62.9502C620.31 63.1898 619.847 63.3096 619.347 63.3096C618.514 63.3096 617.81 63.0075 617.237 62.4033C616.665 61.7992 616.378 61.0075 616.378 60.0283C616.378 59.0075 616.675 58.1898 617.269 57.5752C617.873 56.9502 618.628 56.6377 619.534 56.6377C620.18 56.6377 620.774 56.8148 621.316 57.1689C621.857 57.5127 622.269 58.0127 622.55 58.6689C622.831 59.3148 622.972 60.2523 622.972 61.4814C622.972 62.7627 622.831 63.7835 622.55 64.5439C622.279 65.3044 621.868 65.8825 621.316 66.2783C620.764 66.6742 620.118 66.8721 619.378 66.8721C618.597 66.8721 617.956 66.6533 617.456 66.2158C616.967 65.7783 616.67 65.1689 616.566 64.3877ZM621.597 59.9658C621.597 59.2575 621.409 58.695 621.034 58.2783C620.659 57.8617 620.211 57.6533 619.691 57.6533C619.139 57.6533 618.659 57.8773 618.253 58.3252C617.847 58.7731 617.644 59.3512 617.644 60.0596C617.644 60.695 617.836 61.2158 618.222 61.6221C618.607 62.0179 619.081 62.2158 619.644 62.2158C620.217 62.2158 620.685 62.0179 621.05 61.6221C621.415 61.2158 621.597 60.6637 621.597 59.9658Z" fill="#999999"/>
<path d="M633.706 63.5283H628.503C628.503 65.0908 627.701 66.57 626.097 67.9658L625.175 66.9189C626.665 65.971 627.409 64.5492 627.409 62.6533V55.9814H634.8V66.7627C634.8 67.346 634.487 67.6377 633.862 67.6377H632.55L632.331 66.4189H633.487C633.633 66.4189 633.706 66.346 633.706 66.2002V63.5283ZM628.503 62.3252H633.706V60.3564H628.503V62.3252ZM628.503 59.1533H633.706V57.1846H628.503V59.1533Z" fill="#999999"/>
<path d="M644.847 65.5127V66.7002H638.222C638.211 66.4085 638.258 66.1221 638.363 65.8408C638.54 65.3929 638.81 64.9502 639.175 64.5127C639.55 64.0752 640.086 63.57 640.784 62.9971C641.878 62.1012 642.613 61.3929 642.988 60.8721C643.373 60.3512 643.566 59.8564 643.566 59.3877C643.566 58.8981 643.389 58.4867 643.034 58.1533C642.691 57.82 642.243 57.6533 641.691 57.6533C641.097 57.6533 640.618 57.8304 640.253 58.1846C639.899 58.5387 639.722 59.0335 639.722 59.6689L638.456 59.5283C638.54 58.5908 638.862 57.8773 639.425 57.3877C639.998 56.8877 640.758 56.6377 641.706 56.6377C642.675 56.6377 643.435 56.9033 643.988 57.4346C644.55 57.9658 644.831 58.6273 644.831 59.4189C644.831 59.8252 644.748 60.221 644.581 60.6064C644.425 60.9919 644.154 61.3981 643.769 61.8252C643.394 62.2523 642.764 62.8408 641.878 63.5908C641.139 64.2054 640.665 64.6273 640.456 64.8564C640.248 65.0752 640.076 65.2939 639.941 65.5127H644.847ZM646.566 64.3877L647.753 64.2783C647.847 64.8304 648.034 65.2314 648.316 65.4814C648.607 65.7314 648.972 65.8564 649.409 65.8564C649.784 65.8564 650.113 65.7731 650.394 65.6064C650.685 65.4294 650.92 65.195 651.097 64.9033C651.284 64.6117 651.441 64.221 651.566 63.7314C651.691 63.2419 651.753 62.7419 651.753 62.2314C651.753 62.1794 651.748 62.096 651.738 61.9814C651.498 62.3773 651.165 62.7002 650.738 62.9502C650.31 63.1898 649.847 63.3096 649.347 63.3096C648.514 63.3096 647.81 63.0075 647.238 62.4033C646.665 61.7992 646.378 61.0075 646.378 60.0283C646.378 59.0075 646.675 58.1898 647.269 57.5752C647.873 56.9502 648.628 56.6377 649.534 56.6377C650.18 56.6377 650.774 56.8148 651.316 57.1689C651.857 57.5127 652.269 58.0127 652.55 58.6689C652.831 59.3148 652.972 60.2523 652.972 61.4814C652.972 62.7627 652.831 63.7835 652.55 64.5439C652.279 65.3044 651.868 65.8825 651.316 66.2783C650.764 66.6742 650.118 66.8721 649.378 66.8721C648.597 66.8721 647.956 66.6533 647.456 66.2158C646.967 65.7783 646.67 65.1689 646.566 64.3877ZM651.597 59.9658C651.597 59.2575 651.409 58.695 651.034 58.2783C650.659 57.8617 650.211 57.6533 649.691 57.6533C649.139 57.6533 648.659 57.8773 648.253 58.3252C647.847 58.7731 647.644 59.3512 647.644 60.0596C647.644 60.695 647.836 61.2158 648.222 61.6221C648.607 62.0179 649.081 62.2158 649.644 62.2158C650.217 62.2158 650.685 62.0179 651.05 61.6221C651.415 61.2158 651.597 60.6637 651.597 59.9658Z" fill="#999999"/>
<path d="M657.8 67.2002H656.534V56.6377H665.128V66.9814H663.862V66.2002H657.8V67.2002ZM663.862 60.7939V57.6689H657.8V60.7939H663.862ZM663.862 65.1689V61.8252H657.8V65.1689H663.862ZM678.081 59.8564H680.659V60.7314H678.362V61.9971H680.222V62.8721H678.362V64.1846H680.222V65.0596H678.362V66.4189H681.097V67.3096H675.566V67.8564H674.644V61.7783C674.352 62.1742 673.987 62.5387 673.55 62.8721L673.159 61.8252C674.545 60.5856 675.441 59.2939 675.847 57.9502H674.581V59.2002H673.659V57.0752H676.066C676.211 56.4919 676.336 55.8721 676.441 55.2158L677.534 55.4814C677.649 55.596 677.612 55.7054 677.425 55.8096C677.321 56.2471 677.211 56.6689 677.097 57.0752H680.987V58.9814H680.05V57.9502H676.878C676.659 58.7106 676.368 59.346 676.003 59.8564H677.159L677.862 58.2158L678.909 58.4346C679.086 58.5075 679.05 58.6012 678.8 58.7158L678.081 59.8564ZM668.847 57.3408V56.3096H673.487V57.3408H671.581C671.508 58.4762 671.269 59.5179 670.862 60.4658H673.003V66.9814H672.066V66.0908H670.644V67.5283H669.722V62.5908C669.503 62.9554 669.264 63.2835 669.003 63.5752L668.3 62.6533C669.571 61.2262 670.316 59.4554 670.534 57.3408H668.847ZM675.566 62.8721V64.1846H677.425V62.8721H675.566ZM675.566 60.7314V61.9971H677.425V60.7314H675.566ZM675.566 65.0596V66.4189H677.425V65.0596H675.566ZM670.644 61.3408V65.2158H672.066V61.3408H670.644ZM687.222 61.4502C688.566 61.0856 689.42 60.3721 689.784 59.3096L688.316 58.7158L688.691 57.7783L690.003 58.2783L690.112 56.9658H687.816V55.9189H694.378L694.269 60.6221C694.237 61.5387 693.857 61.9971 693.128 61.9971H691.862L691.753 60.9502H692.909C693.128 60.9502 693.237 60.8408 693.237 60.6221L693.347 56.9658H691.206L691.05 58.7158L692.362 59.4189L691.862 60.4033L690.769 59.8096C690.3 61.1533 689.264 62.0648 687.659 62.5439L687.222 61.4502ZM694.159 66.9189C693.868 65.8252 693.415 64.8773 692.8 64.0752L693.784 63.6377C694.586 64.6169 695.097 65.5439 695.316 66.4189L694.159 66.9189ZM686.831 63.4658V67.6846H685.909V67.3096H684.05V67.9033H683.112V63.4658H686.831ZM687.269 66.9814C687.529 66.0648 687.696 65.0231 687.769 63.8564L688.862 63.9658C688.935 63.9971 688.899 64.0856 688.753 64.2314C688.711 65.3981 688.545 66.4033 688.253 67.2471L687.269 66.9814ZM690.769 61.6689C691.279 61.9919 691.79 62.5544 692.3 63.3564L691.269 63.9658C691.008 63.4554 690.571 62.8721 689.956 62.2158L690.769 61.6689ZM683.331 55.7002H686.612V56.7471H683.331V55.7002ZM682.628 57.5596H687.331V58.6064H682.628V57.5596ZM683.331 59.5908H686.612V60.6221H683.331V59.5908ZM683.331 61.4502H686.612V62.4814H683.331V61.4502ZM684.05 64.3408V66.4189H685.909V64.3408H684.05ZM690.222 63.3096C690.514 63.3408 690.534 63.4502 690.284 63.6377V66.2002C690.284 66.4606 690.394 66.5908 690.612 66.5908H691.816C692.034 66.5908 692.159 66.4814 692.191 66.2627L692.3 65.3877L693.394 65.6533L693.175 66.8096C693.071 67.3617 692.743 67.6377 692.191 67.6377H690.112C689.498 67.6377 689.191 67.3044 689.191 66.6377V63.3096H690.222Z" fill="#999999"/>
<path d="M23.45 40.8096C28.2417 39.1429 30.7677 35.9398 31.0281 31.2002H23.9969V29.4814H31.1844V25.3408H32.9031C33.424 25.445 33.45 25.6533 32.9813 25.9658V29.4814H40.4813V31.2002H33.1375C34.2313 35.5231 36.8875 38.596 41.1063 40.4189L40.0906 42.2939C36.4448 40.6273 33.8667 37.8148 32.3563 33.8564C31.4708 38.1273 28.7365 41.07 24.1531 42.6846L23.45 40.8096ZM49.7 36.5127C49.7 38.2835 49.0229 39.1689 47.6688 39.1689H46.4188L46.1844 37.4502H47.5125C47.9292 37.4502 48.1375 37.0335 48.1375 36.2002C48.1375 34.8981 47.6167 33.5439 46.575 32.1377L47.9031 27.3721H45.4813V42.8408H43.9188V25.8877H48.2156L48.45 25.5752L50.0125 26.7471L49.7781 26.9814L48.0594 31.9033C49.1531 33.2054 49.7 34.7419 49.7 36.5127ZM50.7938 25.9658H60.7156V27.4502H52.3563V30.9658H58.2156L58.2938 30.6533L59.9344 31.5127L59.6219 31.8252C58.9448 34.846 58.1375 36.9814 57.2 38.2314C57.9292 39.0648 59.2833 39.8981 61.2625 40.7314L60.5594 42.5283C58.7886 41.7992 57.3302 40.8356 56.1844 39.6377C55.299 40.6794 53.8146 41.7471 51.7313 42.8408L50.7156 41.2002C52.5906 40.3669 54.049 39.4033 55.0906 38.3096C54.1531 36.7471 53.6063 34.7939 53.45 32.4502H52.3563V35.0283C52.3563 38.5179 50.8458 41.096 47.825 42.7627L46.8875 41.2002C49.4917 39.9502 50.7938 37.7627 50.7938 34.6377V25.9658ZM56.1844 36.9033C56.9656 35.6533 57.4865 34.1689 57.7469 32.4502H55.0125C55.0125 33.8044 55.4031 35.2887 56.1844 36.9033ZM71.4188 30.1846C71.1063 31.1221 70.7417 32.0335 70.325 32.9189C70.95 33.0752 71.0021 33.2575 70.4813 33.4658V42.9189H68.9188V35.3408C68.5021 36.0179 68.0594 36.5648 67.5906 36.9814L66.6531 35.4971C68.3198 33.6221 69.3875 31.5648 69.8563 29.3252L71.6531 29.7158C71.8615 29.8721 71.7833 30.0283 71.4188 30.1846ZM73.2156 35.1846C74.1011 36.1221 74.7781 37.1377 75.2469 38.2314L73.6063 39.2471C73.1375 38.1533 72.5125 37.1377 71.7313 36.2002L73.2156 35.1846ZM76.4188 32.1377V29.2471H77.9031C78.3198 29.2992 78.3458 29.4554 77.9813 29.7158V32.1377H80.7938V33.6221H77.9813V41.5127C77.9813 42.346 77.5646 42.7627 76.7313 42.7627H75.1688L74.9344 41.2783H76.1063C76.3146 41.2783 76.4188 41.1742 76.4188 40.9658V33.6221H71.575V32.1377H76.4188ZM66.4188 28.7002V35.5752C66.4188 38.7523 65.7938 41.1742 64.5438 42.8408L63.2156 41.5908C64.3094 39.9762 64.8563 37.9971 64.8563 35.6533V27.2158H71.7313V24.9502H73.45C73.9708 25.0544 73.9969 25.2627 73.5281 25.5752V27.2158H80.6375V28.7002H66.4188ZM92.9813 30.1846C92.0958 35.3929 91.0281 38.6221 89.7781 39.8721C89.1011 40.5492 88.3979 40.8877 87.6688 40.8877C86.8354 40.8877 86.1844 40.6533 85.7156 40.1846C84.4656 38.9346 83.8406 37.3721 83.8406 35.4971C83.8406 33.2054 84.6479 31.2523 86.2625 29.6377C88.0333 27.8669 90.1948 26.9814 92.7469 26.9814C95.0386 26.9814 96.8354 27.6325 98.1375 28.9346C99.5958 30.3929 100.325 32.1117 100.325 34.0908C100.325 36.2262 99.6479 37.971 98.2938 39.3252C97.4083 40.2106 96.0542 41.07 94.2313 41.9033L92.5906 40.2627C94.4136 39.6898 95.8458 38.8825 96.8875 37.8408C97.8771 36.8512 98.3719 35.6533 98.3719 34.2471C98.3719 32.5804 97.825 31.2002 96.7313 30.1064C95.6375 29.0127 93.9188 28.5179 91.575 28.6221L92.9813 29.3252C93.6063 29.5856 93.6063 29.8721 92.9813 30.1846ZM91.1844 28.7002C89.8302 29.0127 88.6583 29.6637 87.6688 30.6533C86.3146 32.0075 85.6375 33.6742 85.6375 35.6533C85.6375 36.8512 86.0281 37.8408 86.8094 38.6221C86.9656 38.7783 87.2 38.8564 87.5125 38.8564C87.825 38.8564 88.1636 38.6742 88.5281 38.3096C89.7261 37.1117 90.6115 33.9085 91.1844 28.7002ZM110.325 41.5127C112.46 40.3669 113.528 38.4137 113.528 35.6533V26.6689L115.169 26.9814L119.388 25.6533L120.559 27.2158C120.664 27.5283 120.481 27.5804 120.013 27.3721L115.091 28.3096V31.6689H121.263V33.1533H118.919V42.9189H117.356V33.1533H115.091V36.1221C115.091 39.195 113.789 41.4867 111.184 42.9971L110.325 41.5127ZM108.841 42.9971H107.278V38.3096C106.445 39.6637 105.533 40.7314 104.544 41.5127L103.372 40.1064C104.83 39.0648 106.054 37.7627 107.044 36.2002H103.763V34.7158H107.278V32.9971H103.294V31.5127H108.763L109.622 28.7002H103.841V27.2158H107.278V25.0283H108.763C109.179 25.0804 109.205 25.2367 108.841 25.4971V27.2158H112.278V28.7002H111.263L110.169 31.5127H112.669V32.9971H108.841V34.7158H112.278V36.2002H108.841V36.9033C109.57 37.1117 110.585 37.6585 111.888 38.5439L110.95 40.1064C110.221 39.3773 109.518 38.8044 108.841 38.3877V42.9971ZM105.716 31.3564C105.507 30.6273 105.221 29.9242 104.856 29.2471L106.341 28.7783C106.757 29.4554 107.07 30.1585 107.278 30.8877L105.716 31.3564ZM138.45 33.5439H133.372V35.2627H138.45V33.5439ZM136.341 36.7471H134.934V37.5283C134.934 40.7575 133.085 42.6585 129.388 43.2314L128.919 41.5908C131.888 41.2262 133.372 39.82 133.372 37.3721V36.7471H132.591H131.809V25.8096H140.013V36.7471H137.903V40.6533C137.903 41.07 138.085 41.2783 138.45 41.2783H139.231C139.492 41.2783 139.648 41.0179 139.7 40.4971L139.856 39.1689L141.419 39.6377L141.184 41.4346C141.08 42.32 140.585 42.7627 139.7 42.7627H137.747C136.809 42.7627 136.341 42.32 136.341 41.4346V36.7471ZM133.372 32.0596H138.45V30.4189H133.372V32.0596ZM133.372 28.9346H138.45V27.2939H133.372V28.9346ZM127.747 35.8877C128.789 36.3564 130.013 37.2158 131.419 38.4658L130.325 40.1064C129.231 38.9085 128.268 38.0231 127.434 37.4502C126.914 39.7419 125.82 41.5387 124.153 42.8408L122.981 41.4346C125.273 39.5075 126.367 37.0075 126.263 33.9346H123.294V32.4502H126.341V29.6377H123.841V28.1533H126.341V25.0283H127.825C128.242 25.0804 128.268 25.2367 127.903 25.4971V28.1533H130.638V29.6377H127.903V32.4502H131.028V33.9346H127.825C127.825 34.7679 127.799 35.4189 127.747 35.8877ZM147.825 32.1377C148.815 33.4919 149.309 34.8981 149.309 36.3564C149.309 38.3877 148.71 39.4033 147.513 39.4033H146.575L146.263 37.8408H147.044C147.565 37.8408 147.799 37.2939 147.747 36.2002C147.695 34.6898 147.226 33.3617 146.341 32.2158L147.903 27.1377H145.481V42.7627H143.919V25.8877H148.294L148.606 25.4971L149.934 26.6689L149.622 26.9814L147.825 32.1377ZM159.153 36.5127H158.372C157.539 40.3148 154.752 42.5023 150.013 43.0752L149.544 41.5908C153.606 41.2783 156.054 39.5856 156.888 36.5127H155.794C154.908 38.7002 153.033 40.0283 150.169 40.4971L149.7 39.1689C152.096 38.6481 153.58 37.7627 154.153 36.5127H152.903C152.174 37.2419 151.236 37.8148 150.091 38.2314L149.466 36.9033C151.132 36.3825 152.278 35.3929 152.903 33.9346H149.388V32.6846H161.106V33.9346H154.544C154.335 34.4033 154.075 34.846 153.763 35.2627H160.638L160.481 40.1846C160.429 41.8512 159.83 42.6846 158.684 42.6846H157.122L156.888 41.2002H158.216C158.684 41.2002 158.945 40.8877 158.997 40.2627L159.153 36.5127ZM152.513 30.4189H157.825V29.0908H152.513V30.4189ZM152.513 27.8408H157.825V26.5908H152.513V27.8408ZM159.153 25.3408V31.6689H151.184V25.3408H159.153ZM172.434 29.3252H174.544V25.2627H176.028C176.445 25.3148 176.471 25.471 176.106 25.7314V29.3252H180.325V30.8096H176.106V34.5596H180.091V36.0439H176.106V40.6533H181.263V42.1377H169.309V40.6533H174.544V36.0439H170.716V34.5596H174.544V30.8096H171.966C171.601 31.8512 171.028 32.8929 170.247 33.9346L168.919 32.9189C170.273 31.1481 171.158 29.0127 171.575 26.5127L173.059 26.8252C173.476 26.9814 173.476 27.1377 173.059 27.2939L172.434 29.3252ZM165.794 25.0283H167.278C167.695 25.0804 167.721 25.2367 167.356 25.4971V42.8408H165.794V25.0283ZM168.763 28.2314C169.231 28.8564 169.622 29.5596 169.934 30.3408L168.684 31.2002C168.32 30.3148 167.955 29.5856 167.591 29.0127L168.763 28.2314ZM165.325 29.0908C165.69 29.195 165.69 29.3512 165.325 29.5596C165.221 31.2262 164.986 32.7887 164.622 34.2471L163.138 33.7783C163.554 32.4762 163.789 30.8356 163.841 28.8564L165.325 29.0908ZM198.138 33.6221V42.6846H196.575V41.9033H189.544V42.9189H187.981V35.8096C186.627 36.5387 185.169 37.1117 183.606 37.5283L183.059 36.1221C184.518 35.7575 186.158 35.1064 187.981 34.1689V33.6221H189.075C190.169 32.9971 191.106 32.3721 191.888 31.7471H183.684V30.2627H190.559V28.3877H185.716V26.9033H190.559V25.0283H192.044C192.46 25.0804 192.486 25.2367 192.122 25.4971V26.9033H195.872V28.2314C196.497 27.5544 197.122 26.7992 197.747 25.9658L198.841 26.6689C199.205 26.9294 199.153 27.0856 198.684 27.1377C197.695 28.3356 196.705 29.3773 195.716 30.2627H201.106V31.7471H194.075C193.033 32.6325 192.2 33.2575 191.575 33.6221H198.138ZM193.606 30.2627C194.231 29.7939 194.934 29.1689 195.716 28.3877H192.122V30.2627H193.606ZM189.544 36.9814H196.575V34.8721H189.544V36.9814ZM189.544 40.6533H196.575V38.2314H189.544V40.6533ZM216.731 36.9033C217.46 35.4971 217.903 33.3617 218.059 30.4971H215.403C215.559 33.3617 216.002 35.4971 216.731 36.9033ZM219.622 30.4971C219.518 33.7262 218.893 36.3304 217.747 38.3096C218.58 39.3512 219.752 40.2627 221.263 41.0439L220.247 42.7627C218.58 41.6689 217.408 40.6273 216.731 39.6377C215.533 40.9919 213.684 42.1637 211.184 43.1533L210.403 41.5908C213.111 40.4971 214.908 39.3773 215.794 38.2314C214.908 36.5127 214.414 34.7939 214.309 33.0752C213.997 33.8564 213.684 34.4554 213.372 34.8721L212.044 33.8564C213.606 31.5648 214.544 28.7262 214.856 25.3408L216.497 25.7314C216.809 25.9398 216.731 26.096 216.263 26.2002C216.106 27.1377 215.898 28.0752 215.638 29.0127H220.95V30.4971H219.622ZM212.356 26.7471C212.044 27.5283 211.679 28.1794 211.263 28.7002L210.013 27.9971C210.429 27.32 210.82 26.5387 211.184 25.6533L212.591 26.3564C212.799 26.5648 212.721 26.695 212.356 26.7471ZM207.356 37.7627C208.085 37.971 208.736 38.2054 209.309 38.4658C209.726 37.9971 210.065 37.2939 210.325 36.3564H208.059C207.851 36.8252 207.617 37.2939 207.356 37.7627ZM206.263 39.7158L205.013 39.0127C205.533 38.2314 206.054 37.346 206.575 36.3564H203.606V35.1064H207.044C207.356 34.4294 207.591 33.8564 207.747 33.3877L209.231 33.7783C209.44 33.9867 209.361 34.1169 208.997 34.1689L208.528 35.1064H212.981V36.3564H211.809C211.549 37.3981 211.158 38.2835 210.638 39.0127C211.106 39.221 211.601 39.4814 212.122 39.7939L211.419 41.0439C210.846 40.6794 210.325 40.3929 209.856 40.1846C208.502 41.5387 206.679 42.3721 204.388 42.6846L203.841 41.2783C205.872 41.07 207.434 40.4971 208.528 39.5596C207.955 39.2992 207.382 39.0648 206.809 38.8564L206.263 39.7158ZM207.825 25.0283H209.075C209.492 25.0804 209.518 25.2367 209.153 25.4971V28.8564H213.138V30.1064H209.856C210.429 30.7835 211.315 31.4346 212.513 32.0596L211.653 33.3877C210.768 32.8669 209.934 32.1377 209.153 31.2002V33.0752H207.825V31.5908C206.992 32.6325 205.846 33.57 204.388 34.4033L203.372 33.1533C204.986 32.32 206.315 31.3044 207.356 30.1064H203.763V28.8564H207.825V25.0283ZM205.638 28.6221C205.273 27.8408 204.804 27.1637 204.231 26.5908L205.481 25.8096C206.106 26.4346 206.575 27.0856 206.888 27.7627L205.638 28.6221ZM232.981 30.1846C232.096 35.3929 231.028 38.6221 229.778 39.8721C229.101 40.5492 228.398 40.8877 227.669 40.8877C226.835 40.8877 226.184 40.6533 225.716 40.1846C224.466 38.9346 223.841 37.3721 223.841 35.4971C223.841 33.2054 224.648 31.2523 226.263 29.6377C228.033 27.8669 230.195 26.9814 232.747 26.9814C235.039 26.9814 236.835 27.6325 238.138 28.9346C239.596 30.3929 240.325 32.1117 240.325 34.0908C240.325 36.2262 239.648 37.971 238.294 39.3252C237.408 40.2106 236.054 41.07 234.231 41.9033L232.591 40.2627C234.414 39.6898 235.846 38.8825 236.888 37.8408C237.877 36.8512 238.372 35.6533 238.372 34.2471C238.372 32.5804 237.825 31.2002 236.731 30.1064C235.638 29.0127 233.919 28.5179 231.575 28.6221L232.981 29.3252C233.606 29.5856 233.606 29.8721 232.981 30.1846ZM231.184 28.7002C229.83 29.0127 228.658 29.6637 227.669 30.6533C226.315 32.0075 225.638 33.6742 225.638 35.6533C225.638 36.8512 226.028 37.8408 226.809 38.6221C226.966 38.7783 227.2 38.8564 227.513 38.8564C227.825 38.8564 228.164 38.6742 228.528 38.3096C229.726 37.1117 230.611 33.9085 231.184 28.7002ZM248.763 31.8252C250.481 30.2106 251.809 27.8669 252.747 24.7939L254.309 25.2627C254.57 25.471 254.518 25.6012 254.153 25.6533C253.736 26.695 253.32 27.6585 252.903 28.5439H255.247C255.82 27.346 256.263 26.2783 256.575 25.3408L258.059 25.8877C258.268 26.096 258.19 26.2262 257.825 26.2783C257.46 27.1117 257.096 27.8669 256.731 28.5439H260.716V30.0283H256.731V32.4502H259.934V33.9346H256.731V36.4346H259.934V37.9189H256.731V40.8096H261.184V42.2939H252.591V42.9971H251.028V31.6689C250.664 32.1898 250.273 32.6585 249.856 33.0752L248.763 31.8252ZM244.856 42.8408L244.544 41.3564H245.872C246.08 41.3564 246.184 41.2523 246.184 41.0439V36.2002L244.153 36.6689C244.101 37.0335 243.971 37.1117 243.763 36.9033L243.45 35.1064L246.184 34.5596V30.4189H243.763V28.9346H246.184V24.9502H247.669C248.085 25.0023 248.111 25.1585 247.747 25.4189V28.9346H249.778V30.4189H247.747V34.2471L249.778 33.7002L250.013 35.1064L247.747 35.8096V41.5908C247.747 42.4242 247.33 42.8408 246.497 42.8408H244.856ZM252.591 40.8096H255.169V37.9189H252.591V40.8096ZM252.591 36.4346H255.169V33.9346H252.591V36.4346ZM252.591 32.4502H255.169V30.0283H252.591V32.4502ZM278.841 27.1377L279.075 26.8252L280.325 27.8408L280.091 28.0752C278.736 30.4189 277.408 31.9814 276.106 32.7627L276.888 32.9971C277.252 33.1533 277.226 33.3096 276.809 33.4658C276.705 33.8304 276.575 34.1429 276.419 34.4033H279.778L280.013 34.0908L281.419 35.1064L281.106 35.4189C279.44 39.846 276.054 42.346 270.95 42.9189L270.325 41.4346C272.773 41.1742 274.7 40.5231 276.106 39.4814C275.377 38.7523 274.648 38.1273 273.919 37.6064C273.242 38.1794 272.33 38.7002 271.184 39.1689L270.481 37.7627C273.033 36.721 274.7 35.1325 275.481 32.9971C274.7 33.7262 273.294 34.3512 271.263 34.8721L270.559 33.4658C272.539 33.0492 274.023 32.5023 275.013 31.8252C274.492 31.2002 273.867 30.6533 273.138 30.1846C272.773 30.5492 272.408 30.8617 272.044 31.1221L270.95 29.9502C272.669 28.4919 273.763 26.9294 274.231 25.2627L275.638 25.7314C276.002 25.8877 275.976 26.0439 275.559 26.2002C275.507 26.5127 275.377 26.8252 275.169 27.1377H278.841ZM268.216 30.1846H270.794V31.6689H268.216V33.6221C269.257 34.0908 270.247 34.7939 271.184 35.7314L270.169 37.1377C269.335 36.3044 268.684 35.7054 268.216 35.3408V42.9189H266.653V35.1846C266.341 36.2262 265.481 37.5544 264.075 39.1689L262.903 37.6846C264.83 35.8617 266.028 33.8564 266.497 31.6689H263.45V30.1846H266.653V27.6064C265.611 27.7627 264.674 27.8929 263.841 27.9971L263.45 26.5127C265.533 26.3044 267.695 25.8877 269.934 25.2627L270.794 26.4346C271.002 26.7471 270.872 26.8512 270.403 26.7471C269.674 26.9554 268.945 27.1377 268.216 27.2939V30.1846ZM273.919 29.2471C274.7 29.6637 275.455 30.1846 276.184 30.8096C276.966 30.0804 277.617 29.2731 278.138 28.3877H274.544C274.335 28.7523 274.127 29.0387 273.919 29.2471ZM274.778 36.6689C275.507 37.0856 276.341 37.7106 277.278 38.5439C278.059 37.971 278.736 37.0075 279.309 35.6533H275.716C275.403 36.07 275.091 36.4085 274.778 36.6689ZM286.809 29.3252C287.382 28.1273 288.346 26.9033 289.7 25.6533L290.559 26.4346C289.257 27.6325 288.346 28.7783 287.825 29.8721C287.252 31.07 286.966 32.5023 286.966 34.1689C286.966 35.5752 287.252 36.9033 287.825 38.1533C288.346 39.2992 289.257 40.5752 290.559 41.9814L289.7 42.8408C288.398 41.3825 287.434 40.0023 286.809 38.7002C286.132 37.2939 285.794 35.7835 285.794 34.1689C285.794 32.346 286.132 30.7314 286.809 29.3252ZM297.903 41.9033H296.106V26.8252H308.372V41.5908H306.575V40.4971H297.903V41.9033ZM306.575 32.7627V28.3096H297.903V32.7627H306.575ZM306.575 39.0127V34.2471H297.903V39.0127H306.575ZM321.341 35.8096H318.372C317.903 38.7783 316.497 41.1221 314.153 42.8408L313.372 41.3564C315.664 39.7419 316.914 37.346 317.122 34.1689L317.278 31.7471H316.184V32.7627H314.622V26.0439H322.513V32.4502H320.95V31.7471H318.684L318.528 34.3252H322.903L322.513 40.4971C322.408 41.7471 321.888 42.3721 320.95 42.3721H318.841L318.606 40.8877H320.325C320.794 40.8877 321.054 40.6273 321.106 40.1064L321.341 35.8096ZM329.778 41.2002C329.778 42.0856 329.361 42.5283 328.528 42.5283H326.809L326.497 41.0439H327.981C328.138 41.0439 328.216 40.9658 328.216 40.8096V25.8096H329.7C330.117 25.8617 330.143 26.0179 329.778 26.2783V41.2002ZM326.028 27.6846C326.445 27.7367 326.471 27.8929 326.106 28.1533V38.8564H324.544V27.6846H326.028ZM320.95 30.4971V27.2939H316.184V30.4971H320.95ZM337.513 38.7002C336.888 40.0023 335.924 41.3825 334.622 42.8408L333.763 41.9814C335.065 40.5752 335.976 39.2992 336.497 38.1533C337.07 36.9033 337.356 35.5752 337.356 34.1689C337.356 32.5023 337.07 31.07 336.497 29.8721C335.976 28.7783 335.065 27.6325 333.763 26.4346L334.622 25.6533C335.976 26.9033 336.94 28.1273 337.513 29.3252C338.19 30.7314 338.528 32.346 338.528 34.1689C338.528 35.7835 338.19 37.2939 337.513 38.7002Z" fill="#757575"/>
</g>
<rect x="2" y="2" width="714" height="440" stroke="black" stroke-width="4"/>
<defs>
<clipPath id="clip0_7_29085">
<rect width="718" height="444" fill="white"/>
</clipPath>
</defs>
</svg>
