<svg width="718" height="444" viewBox="0 0 718 444" fill="none" xmlns="http://www.w3.org/2000/svg">
<g clip-path="url(#clip0_7_30117)">
<path d="M0 0H718V444H0V0Z" fill="white"/>
<path d="M181.5 91.5V369.5" stroke="#CCCCCC" stroke-miterlimit="10"/>
<path d="M302.5 91.5V369.5" stroke="#CCCCCC" stroke-miterlimit="10"/>
<path d="M424.5 91.5V369.5" stroke="#CCCCCC" stroke-miterlimit="10"/>
<path d="M545.5 91.5V369.5" stroke="#CCCCCC" stroke-miterlimit="10"/>
<path d="M666.5 91.5V369.5" stroke="#CCCCCC" stroke-miterlimit="10"/>
<path d="M88.5 369.5H695.5" stroke="#333333" stroke-miterlimit="10"/>
<path d="M88.5 277.5H695.5" stroke="#CCCCCC" stroke-miterlimit="10"/>
<path d="M88.5 184.5H695.5" stroke="#CCCCCC" stroke-miterlimit="10"/>
<path d="M88.5 91.5H695.5" stroke="#CCCCCC" stroke-miterlimit="10"/>
<path d="M88.2 369.8H88.8064H89.4128H90.0192H90.6255H91.2319H91.8383H92.4447H93.0511H93.6575H94.2639H94.8703H95.4766H96.083H96.6894H97.2958H97.9022H98.5086H99.115H99.7214H100.328H100.934H101.541H102.147H102.753H103.36H103.966H104.572H105.179H105.785H106.392H106.998H107.604H108.211H108.817H109.424H110.03H110.636H111.243H111.849H112.455H113.062H113.668H114.275H114.881H115.487H116.094H116.7H117.307H117.913H118.519H119.126H119.732H120.339H120.945H121.551H122.158L122.764 369.707L123.37 369.8H123.977H124.583H125.19H125.796H126.402H127.009H127.615H128.222H128.828H129.434H130.041H130.647H131.253H131.86H132.466H133.073L133.679 369.707H134.285L134.892 369.8L135.498 369.615L136.105 369.8L136.711 369.522L137.317 369.8L137.924 369.707L138.53 369.615L139.137 369.8L139.743 369.707L140.349 369.8L140.956 369.707L141.562 369.8H142.168L142.775 369.615L143.381 369.8L143.988 369.707L144.594 369.8H145.2L145.807 369.707L146.413 369.8L147.02 369.707L147.626 369.058L148.232 369.243L148.839 369.429L149.445 369.707L150.051 369.8H150.658L151.264 369.707L151.871 369.615L152.477 369.8L153.083 369.707L153.69 369.615L154.296 369.707L154.903 369.8H155.509H156.115H156.722H157.328H157.935H158.541H159.147L159.754 369.707L160.36 369.8H160.966L161.573 369.707L162.179 369.8H162.786H163.392H163.998H164.605H165.211H165.818H166.424L167.03 369.707L167.637 369.8H168.243H168.85H169.456H170.062H170.669H171.275H171.881H172.488H173.094H173.701H174.307H174.913H175.52H176.126H176.733H177.339H177.945H178.552H179.158H179.764H180.371H180.977H181.584H182.19H182.796H183.403H184.009H184.616H185.222H185.828H186.435H187.041H187.648H188.254H188.86H189.467H190.073H190.679H191.286H191.892H192.499H193.105H193.711H194.318H194.924H195.531H196.137H196.743H197.35H197.956H198.562H199.169H199.775H200.382L200.988 369.707H201.594L202.201 369.243L202.807 369.615L203.414 369.243L204.02 369.522L204.626 369.707L205.233 369.8L205.839 369.615L206.446 369.522H207.052L207.658 369.151L208.265 369.058L208.871 369.336L209.477 368.965L210.084 369.151L210.69 368.872L211.297 368.687L211.903 369.151L212.509 369.336L213.116 368.965L213.722 369.522L214.329 369.336L214.935 368.687L215.541 369.707L216.148 369.336L216.754 368.872L217.36 369.336L217.967 369.522L218.573 369.707L219.18 369.429H219.786L220.392 369.151L220.999 369.429H221.605L222.212 369.615L222.818 369.707L223.424 369.615H224.031L224.637 369.243L225.244 369.615L225.85 369.8H226.456H227.063L227.669 369.615L228.275 369.8H228.882L229.488 369.707L230.095 369.8L230.701 369.707H231.307L231.914 369.8L232.52 369.707H233.127L233.733 369.8H234.339H234.946H235.552H236.158H236.765H237.371H237.978H238.584H239.19H239.797H240.403H241.01H241.616L242.222 369.707L242.829 369.8H243.435H244.042H244.648H245.254H245.861L246.467 369.707L247.073 369.8H247.68H248.286L248.893 369.615L249.499 369.8H250.105H250.712H251.318H251.925L252.531 369.707L253.137 369.8H253.744L254.35 369.707L254.956 369.615L255.563 369.8H256.169H256.776L257.382 369.707L257.988 369.8H258.595L259.201 369.707L259.808 369.8H260.414H261.02H261.627H262.233H262.84H263.446H264.052L264.659 369.615L265.265 369.058L265.871 369.615L266.478 369.8L267.084 369.707H267.691L268.297 369.8L268.903 369.243L269.51 369.8L270.116 369.707H270.723L271.329 369.8L271.935 369.615L272.542 369.8L273.148 369.707H273.754L274.361 369.429L274.967 369.243L275.574 369.8L276.18 369.707L276.786 369.615L277.393 369.8L277.999 369.429L278.606 369.615L279.212 369.707L279.818 369.8L280.425 369.151L281.031 369.8L281.638 369.615L282.244 368.872L282.85 369.243L283.457 369.429H284.063L284.669 369.522L285.276 369.707L285.882 369.429L286.489 369.243L287.095 369.151L287.701 368.594L288.308 369.429L288.914 369.151L289.521 369.615L290.127 369.429L290.733 369.243L291.34 369.058L291.946 369.336L292.552 369.615L293.159 369.429L293.765 369.8L294.372 369.615L294.978 369.243L295.584 369.151L296.191 368.965L296.797 369.243L297.404 369.429L298.01 369.615L298.616 369.336L299.223 369.151H299.829L300.436 369.429L301.042 369.707L301.648 369.336L302.255 369.522L302.861 367.666L303.467 368.872L304.074 368.78L304.68 367.852L305.287 367.574L305.893 368.594L306.499 367.759L307.106 369.151L307.712 366.832H308.319L308.925 367.388L309.531 366.553L310.138 368.13L310.744 368.501L311.35 367.203L311.957 368.038L312.563 367.945L313.17 367.388L313.776 368.13L314.382 368.872L314.989 368.594L315.595 368.687L316.202 368.594L316.808 369.151H317.414L318.021 369.615L318.627 369.243L319.234 369.336L319.84 369.615L320.446 369.429L321.053 369.058L321.659 369.429L322.265 369.243L322.872 369.707L323.478 369.615L324.085 369.522L324.691 369.336L325.297 369.243L325.904 369.707H326.51H327.117L327.723 369.8H328.329H328.936H329.542H330.148L330.755 369.707L331.361 369.058H331.968L332.574 369.336L333.18 368.78L333.787 369.429L334.393 368.687L335 369.058L335.606 369.615L336.212 369.522L336.819 369.243L337.425 369.429L338.032 369.615L338.638 369.522L339.244 369.336L339.851 369.707L340.457 368.687L341.063 369.429L341.67 367.945L342.276 368.78L342.883 369.336L343.489 369.243L344.095 369.522H344.702L345.308 369.8L345.915 369.615L346.521 369.429L347.127 369.615L347.734 369.336L348.34 369.522L348.947 369.429L349.553 369.707L350.159 369.8L350.766 369.707L351.372 369.8H351.978L352.585 369.243L353.191 368.78L353.798 369.615L354.404 369.707L355.01 369.336L355.617 368.965L356.223 369.058H356.83L357.436 369.336H358.042L358.649 368.965L359.255 369.151L359.861 369.429L360.468 368.965L361.074 369.058L361.681 369.429L362.287 368.78L362.893 368.687L363.5 368.965L364.106 369.336L364.713 369.151L365.319 368.13L365.925 368.872L366.532 368.409L367.138 366.275L367.744 367.017L368.351 366.832L368.957 367.481L369.564 367.666L370.17 367.574L370.776 368.78L371.383 368.409L371.989 368.038L372.596 368.409L373.202 367.945L373.808 367.388L374.415 367.11L375.021 368.13L375.628 367.481L376.234 366.368H376.84L377.447 364.327L378.053 362.75L378.659 365.904L379.266 365.718L379.872 365.626L380.479 365.162L381.085 366.46L381.691 365.904L382.298 367.11L382.904 367.295H383.511L384.117 367.388L384.723 365.904L385.33 367.852L385.936 366.46L386.543 368.316L387.149 368.223L387.755 368.78L388.362 368.316L388.968 368.687L389.574 367.852L390.181 369.151L390.787 368.316L391.394 369.243L392 369.522L392.606 369.151L393.213 369.522L393.819 369.243L394.426 369.336L395.032 369.429L395.638 369.8H396.245L396.851 369.336L397.458 369.707H398.064L398.67 369.615L399.277 369.8H399.883L400.489 369.615L401.096 369.8H401.702L402.309 369.429L402.915 369.8L403.521 369.615L404.128 369.707L404.734 369.8L405.34 369.707L405.947 369.522L406.553 369.429L407.16 369.8H407.766L408.372 369.707L408.979 369.8L409.585 369.707L410.192 369.8L410.798 369.707L411.404 369.151L412.011 369.615L412.617 369.8H413.224H413.83L414.436 369.429L415.043 369.707L415.649 369.8H416.255H416.862H417.468L418.075 369.615L418.681 369.522L419.287 369.243L419.894 368.965L420.5 369.429L421.107 369.522L421.713 369.058L422.319 368.965L422.926 369.151L423.532 369.058L424.139 369.429L424.745 369.522L425.351 369.615L425.958 369.522L426.564 368.501L427.17 368.038L427.777 367.481H428.383L428.99 367.666L429.596 368.594L430.202 367.759L430.809 368.038L431.415 366.924L432.022 365.718L432.628 366.646L433.234 366.275L433.841 366.646L434.447 367.574L435.054 364.976L435.66 363.028L436.266 361.544L436.873 361.08L437.479 361.915L438.085 366.089L438.692 359.225L439.298 358.575L439.905 352.917L440.511 356.442L441.117 356.906L441.724 358.483L442.33 362.1L442.937 358.854L443.543 360.894L444.149 358.297L444.756 360.245L445.362 360.987L445.968 363.399L446.575 364.327L447.181 364.976L447.788 362.286L448.394 362.193L449 365.162L449.607 363.121L450.213 365.811L450.82 365.347L451.426 367.945L452.032 367.203L452.639 367.017L453.245 367.574L453.851 367.852H454.458L455.064 368.409L455.671 368.594L456.277 368.316L456.883 368.13L457.49 369.151L458.096 368.78L458.703 369.151L459.309 369.336L459.915 369.522L460.522 369.429L461.128 369.058L461.735 368.409L462.341 369.615L462.947 368.594L463.554 369.058L464.16 369.336L464.766 368.687L465.373 369.243L465.979 369.151L466.586 368.872L467.192 368.78L467.798 369.615L468.405 369.707L469.011 369.522L469.618 369.243L470.224 369.058L470.83 369.336L471.437 368.965L472.043 369.243L472.65 369.615L473.256 369.707L473.862 369.429L474.469 369.8H475.075L475.681 369.707L476.288 369.615L476.894 369.243L477.501 369.707L478.107 369.522L478.713 369.336L479.32 369.058L479.926 369.151H480.533L481.139 369.615H481.745L482.352 369.8L482.958 369.615L483.564 369.707H484.171L484.777 369.8H485.384L485.99 369.615L486.596 369.707H487.203H487.809L488.416 369.522L489.022 369.8H489.628L490.235 369.707L490.841 369.615L491.447 369.8H492.054H492.66H493.267H493.873H494.479L495.086 369.707H495.692L496.299 369.8H496.905H497.511H498.118H498.724H499.331H499.937H500.543H501.15H501.756H502.362H502.969H503.575H504.182H504.788H505.394H506.001H506.607H507.214H507.82H508.426H509.033H509.639H510.246H510.852H511.458H512.065H512.671H513.277H513.884H514.49H515.097H515.703H516.309H516.916H517.522H518.129L518.735 369.522L519.341 369.8H519.948L520.554 369.522L521.16 369.707L521.767 369.615L522.373 369.8H522.98L523.586 369.707L524.192 369.336L524.799 368.872L525.405 368.13H526.012L526.618 364.976L527.224 365.069L527.831 364.698L528.437 365.069L529.044 359.225L529.65 360.338L530.256 357.277L530.863 354.494L531.469 357.648L532.075 358.111L532.682 350.876L533.288 351.154L533.895 348.278L534.501 343.083L535.107 342.898L535.714 347.443L536.32 354.215L536.927 335.662L537.533 336.59L538.139 327.498L538.746 329.818L539.352 327.684L539.958 341.692L540.565 343.918L541.171 315.624L541.778 321.098L542.384 319.428L542.99 321.561L543.597 322.489L544.203 331.209L544.81 342.063L545.416 318.407L546.022 319.613L546.629 324.344L547.235 327.591L547.841 346.516L548.448 327.127L549.054 344.846L549.661 322.675L550.267 326.664L550.873 326.571L551.48 331.209L552.086 335.384L552.693 341.506L553.299 352.917L553.905 330.745L554.512 329.168L555.118 352.174L555.725 331.673L556.331 337.053L556.937 343.64L557.544 351.061L558.15 335.384L558.756 334.549L559.363 339.929L559.969 334.92L560.576 333.807L561.182 345.681L561.788 354.865L562.395 328.333L563.001 340.115L563.608 340.857L564.214 342.805L564.82 341.413L565.427 349.391L566.033 354.865L566.64 333.807L567.246 340.393L567.852 340.95L568.459 348.185L569.065 351.711L569.671 357.091L570.278 360.523L570.884 363.306L571.491 343.733L572.097 346.052L572.703 348.835L573.31 345.959L573.916 345.866L574.523 354.308L575.129 336.497L575.735 331.209L576.342 331.951L576.948 337.61L577.554 340.208L578.161 343.454L578.767 354.957L579.374 328.426L579.98 332.693L580.586 331.673L581.193 335.384L581.799 332.693L582.406 339.002L583.012 352.174L583.618 312.47L584.225 322.025L584.831 323.417H585.437L586.044 322.582L586.65 335.94L587.257 350.412L587.863 305.698L588.469 322.396L589.076 323.046L589.682 328.983L590.289 329.539L590.895 336.219L591.501 352.917L592.108 314.233L592.714 326.385L593.321 334.641L593.927 337.888L594.533 358.111L595.14 344.289L595.746 356.998L596.352 332.693L596.959 355.514L597.565 353.844L598.172 351.061L598.778 325.736L599.384 343.083L599.991 354.308L600.597 328.797L601.204 341.042L601.81 339.744L602.416 341.228L603.023 343.362L603.629 350.505L604.236 359.317L604.842 340.579L605.448 349.762L606.055 344.382L606.661 345.402L607.267 344.289L607.874 352.638L608.48 359.039L609.087 337.888L609.693 346.237L610.299 348.649L610.906 350.041L611.512 355.328L612.119 358.204L612.725 362.843L613.331 350.226L613.938 357.555L614.544 356.998L615.15 359.781L615.757 359.41L616.363 361.358L616.97 366.368L617.576 355.236L618.182 359.41L618.789 357.926L619.395 357.74L620.002 357.833L620.608 360.431L621.214 365.626L621.821 352.082L622.427 355.143L623.033 353.195L623.64 356.813L624.246 357.833L624.853 359.132L625.459 362.286L626.065 352.267L626.672 352.731L627.278 351.247L627.885 355.236L628.491 353.288L629.097 355.143L629.704 361.915L630.31 341.042L630.917 341.877L631.523 341.321L632.129 338.816L632.736 333.621L633.342 351.34L633.948 333.528L634.555 314.882L635.161 310.986L635.768 305.42L636.374 306.44L636.98 307.646L637.587 320.727L638.193 307.832L638.8 258.016L639.406 270.447L640.012 280.002L640.619 277.404L641.225 279.538L641.832 308.574L642.438 301.338L643.044 284.64L643.651 202.635L644.257 221.93L644.863 233.526L645.47 234.268L646.076 299.576L646.683 266.18L647.289 204.212L647.895 212.468L648.502 223.229L649.108 239.556L649.715 228.424L650.321 264.695L650.927 268.406L651.534 179.165L652.14 204.583L652.747 228.795L653.353 218.59L653.959 230.743L654.566 267.571L655.172 245.586L655.778 180.834L656.385 185.38L656.991 214.045L657.598 266.272L658.204 185.751L658.81 268.128L659.417 251.708L660.023 203.284L660.63 92.5205L661.236 136.306L661.842 142.893L662.449 131.761L663.055 253.656L663.661 263.397L664.268 96.0456L664.874 186.122L665.481 186.957L666.087 224.62L666.693 214.973L667.3 292.896L667.906 275.735L668.513 187.792L669.119 256.346L669.725 262.005L670.332 298.091L670.938 280.837L671.544 300.04L672.151 327.684L672.757 246.049L673.364 285.104L673.97 285.661L674.576 298.834L675.183 301.338L675.789 327.22L676.396 338.816L677.002 288.722L677.608 315.439L678.215 322.675L678.821 332.693L679.428 322.767L680.034 337.981L680.64 351.525L681.247 347.814L681.853 301.524L682.459 329.632L683.066 340.95L683.672 354.865L684.279 338.909L684.885 356.071L685.491 339.836L686.098 337.981L686.704 341.97L687.311 346.701L687.917 347.072L688.523 347.165L689.13 361.822L689.736 342.156L690.343 347.351L690.949 350.968L691.555 353.844L692.162 354.679L692.768 357.926L693.374 366.182L693.981 365.069L694.587 339.187L695.194 345.588L695.8 351.061" stroke="#4285F4" stroke-width="2" stroke-miterlimit="10"/>
<path d="M379.922 418.8V410.206H382.891C383.557 410.206 384.068 410.248 384.422 410.331C384.911 410.446 385.328 410.649 385.672 410.94C386.13 411.326 386.469 411.821 386.688 412.425C386.917 413.019 387.031 413.696 387.031 414.456C387.031 415.112 386.953 415.69 386.797 416.19C386.651 416.69 386.458 417.107 386.219 417.44C385.979 417.774 385.714 418.034 385.422 418.222C385.141 418.409 384.802 418.555 384.406 418.659C384.01 418.753 383.552 418.8 383.031 418.8H379.922ZM381.062 417.784H382.891C383.464 417.784 383.911 417.732 384.234 417.628C384.557 417.524 384.812 417.373 385 417.175C385.271 416.914 385.479 416.555 385.625 416.097C385.781 415.638 385.859 415.086 385.859 414.44C385.859 413.545 385.708 412.857 385.406 412.378C385.115 411.888 384.76 411.56 384.344 411.394C384.031 411.279 383.542 411.222 382.875 411.222H381.062V417.784ZM392.859 418.034C392.464 418.368 392.083 418.602 391.719 418.737C391.365 418.873 390.979 418.94 390.562 418.94C389.875 418.94 389.349 418.774 388.984 418.44C388.62 418.107 388.438 417.68 388.438 417.159C388.438 416.857 388.505 416.581 388.641 416.331C388.776 416.071 388.958 415.868 389.188 415.722C389.417 415.565 389.672 415.451 389.953 415.378C390.151 415.315 390.464 415.258 390.891 415.206C391.734 415.112 392.359 414.993 392.766 414.847C392.766 414.701 392.766 414.612 392.766 414.581C392.766 414.144 392.667 413.836 392.469 413.659C392.198 413.43 391.797 413.315 391.266 413.315C390.776 413.315 390.411 413.404 390.172 413.581C389.932 413.748 389.755 414.05 389.641 414.487L388.609 414.347C388.703 413.909 388.859 413.555 389.078 413.284C389.297 413.013 389.609 412.805 390.016 412.659C390.422 412.513 390.891 412.44 391.422 412.44C391.953 412.44 392.385 412.503 392.719 412.628C393.052 412.753 393.297 412.909 393.453 413.097C393.609 413.284 393.719 413.524 393.781 413.815C393.812 413.993 393.828 414.315 393.828 414.784V416.19C393.828 417.17 393.849 417.789 393.891 418.05C393.943 418.31 394.036 418.56 394.172 418.8H393.062C392.958 418.581 392.891 418.326 392.859 418.034ZM392.766 415.675C392.38 415.831 391.807 415.966 391.047 416.081C390.609 416.144 390.302 416.216 390.125 416.3C389.948 416.373 389.807 416.482 389.703 416.628C389.609 416.774 389.562 416.94 389.562 417.128C389.562 417.409 389.667 417.644 389.875 417.831C390.094 418.019 390.406 418.112 390.812 418.112C391.219 418.112 391.578 418.024 391.891 417.847C392.214 417.67 392.448 417.425 392.594 417.112C392.708 416.873 392.766 416.524 392.766 416.065V415.675ZM398.094 417.862L398.25 418.784C397.948 418.847 397.682 418.878 397.453 418.878C397.068 418.878 396.771 418.821 396.562 418.706C396.354 418.581 396.203 418.42 396.109 418.222C396.026 418.024 395.984 417.607 395.984 416.972V413.394H395.219V412.581H395.984V411.034L397.031 410.409V412.581H398.094V413.394H397.031V417.034C397.031 417.336 397.047 417.529 397.078 417.612C397.12 417.696 397.182 417.763 397.266 417.815C397.349 417.868 397.469 417.894 397.625 417.894C397.75 417.894 397.906 417.883 398.094 417.862ZM403.047 416.8L404.141 416.925C403.974 417.56 403.656 418.055 403.188 418.409C402.719 418.763 402.125 418.94 401.406 418.94C400.5 418.94 399.776 418.659 399.234 418.097C398.703 417.534 398.438 416.748 398.438 415.737C398.438 414.696 398.708 413.888 399.25 413.315C399.792 412.732 400.49 412.44 401.344 412.44C402.177 412.44 402.854 412.722 403.375 413.284C403.906 413.847 404.172 414.644 404.172 415.675C404.172 415.737 404.172 415.831 404.172 415.956H399.531C399.573 416.644 399.766 417.17 400.109 417.534C400.453 417.888 400.885 418.065 401.406 418.065C401.792 418.065 402.12 417.966 402.391 417.769C402.672 417.56 402.891 417.237 403.047 416.8ZM399.594 415.097H403.062C403.021 414.565 402.891 414.17 402.672 413.909C402.328 413.503 401.891 413.3 401.359 413.3C400.87 413.3 400.458 413.461 400.125 413.784C399.802 414.107 399.625 414.545 399.594 415.097Z" fill="black"/>
<path d="M30.4344 251.104L30.3406 250.041C30.7781 249.989 31.1323 249.869 31.4031 249.682C31.6739 249.494 31.8979 249.208 32.075 248.822C32.2417 248.426 32.325 247.984 32.325 247.494C32.325 247.067 32.2625 246.687 32.1375 246.354C32.0021 246.02 31.825 245.775 31.6062 245.619C31.3771 245.452 31.1323 245.369 30.8719 245.369C30.601 245.369 30.3666 245.447 30.1687 245.604C29.9604 245.76 29.7885 246.015 29.6531 246.369C29.5594 246.609 29.4187 247.124 29.2312 247.916C29.0437 248.697 28.8666 249.244 28.7 249.557C28.4812 249.973 28.2156 250.281 27.9031 250.479C27.5802 250.676 27.2208 250.775 26.825 250.775C26.3979 250.775 25.9969 250.656 25.6219 250.416C25.2364 250.166 24.95 249.807 24.7625 249.338C24.5646 248.859 24.4656 248.333 24.4656 247.76C24.4656 247.124 24.5698 246.562 24.7781 246.072C24.976 245.583 25.2781 245.208 25.6844 244.947C26.0802 244.687 26.5281 244.546 27.0281 244.525L27.1062 245.619C26.5646 245.682 26.1583 245.885 25.8875 246.229C25.6062 246.562 25.4656 247.057 25.4656 247.713C25.4656 248.4 25.5906 248.9 25.8406 249.213C26.0906 249.525 26.3927 249.682 26.7469 249.682C27.0594 249.682 27.3146 249.572 27.5125 249.354C27.7104 249.135 27.9135 248.567 28.1219 247.65C28.3302 246.723 28.5125 246.088 28.6687 245.744C28.9083 245.244 29.2052 244.874 29.5594 244.635C29.9031 244.395 30.3094 244.275 30.7781 244.275C31.2364 244.275 31.6687 244.406 32.075 244.666C32.4708 244.926 32.7833 245.301 33.0125 245.791C33.2312 246.281 33.3406 246.833 33.3406 247.447C33.3406 248.229 33.2312 248.885 33.0125 249.416C32.7833 249.937 32.4396 250.348 31.9812 250.65C31.5229 250.942 31.0073 251.093 30.4344 251.104ZM32.4344 238.791C32.7677 239.187 33.0021 239.567 33.1375 239.932C33.2729 240.286 33.3406 240.671 33.3406 241.088C33.3406 241.775 33.1739 242.301 32.8406 242.666C32.5073 243.031 32.0802 243.213 31.5594 243.213C31.2573 243.213 30.9812 243.145 30.7312 243.01C30.4708 242.874 30.2677 242.692 30.1219 242.463C29.9656 242.234 29.851 241.979 29.7781 241.697C29.7156 241.499 29.6583 241.187 29.6062 240.76C29.5125 239.916 29.3927 239.291 29.2469 238.885C29.101 238.885 29.0125 238.885 28.9812 238.885C28.5437 238.885 28.2364 238.984 28.0594 239.182C27.8302 239.452 27.7156 239.854 27.7156 240.385C27.7156 240.874 27.8041 241.239 27.9812 241.479C28.1479 241.718 28.45 241.895 28.8875 242.01L28.7469 243.041C28.3094 242.947 27.9552 242.791 27.6844 242.572C27.4135 242.354 27.2052 242.041 27.0594 241.635C26.9135 241.229 26.8406 240.76 26.8406 240.229C26.8406 239.697 26.9031 239.265 27.0281 238.932C27.1531 238.598 27.3094 238.354 27.4969 238.197C27.6844 238.041 27.9239 237.932 28.2156 237.869C28.3927 237.838 28.7156 237.822 29.1844 237.822H30.5906C31.5698 237.822 32.1896 237.801 32.45 237.76C32.7104 237.708 32.9604 237.614 33.2 237.479V238.588C32.9812 238.692 32.726 238.76 32.4344 238.791ZM30.075 238.885C30.2312 239.27 30.3666 239.843 30.4812 240.604C30.5437 241.041 30.6166 241.348 30.7 241.525C30.7729 241.702 30.8823 241.843 31.0281 241.947C31.1739 242.041 31.3406 242.088 31.5281 242.088C31.8094 242.088 32.0437 241.984 32.2312 241.775C32.4187 241.557 32.5125 241.244 32.5125 240.838C32.5125 240.432 32.4239 240.072 32.2469 239.76C32.0698 239.437 31.825 239.202 31.5125 239.057C31.2729 238.942 30.9239 238.885 30.4656 238.885H30.075ZM33.7156 236.057L33.8719 235.025C34.1844 234.984 34.4135 234.864 34.5594 234.666C34.7573 234.406 34.8562 234.051 34.8562 233.604C34.8562 233.114 34.7573 232.739 34.5594 232.479C34.3614 232.208 34.0906 232.025 33.7469 231.932C33.5281 231.869 33.075 231.843 32.3875 231.854C32.9292 232.312 33.2 232.885 33.2 233.572C33.2 234.426 32.8927 235.088 32.2781 235.557C31.6531 236.025 30.9135 236.26 30.0594 236.26C29.4656 236.26 28.9187 236.156 28.4187 235.947C27.9083 235.729 27.5177 235.416 27.2469 235.01C26.976 234.604 26.8406 234.124 26.8406 233.572C26.8406 232.833 27.1375 232.223 27.7312 231.744H26.9812V230.775H32.3562C33.325 230.775 34.0125 230.874 34.4187 231.072C34.825 231.27 35.1427 231.583 35.3719 232.01C35.6114 232.437 35.7312 232.963 35.7312 233.588C35.7312 234.327 35.5646 234.926 35.2312 235.385C34.8979 235.843 34.3927 236.067 33.7156 236.057ZM29.9812 235.182C30.7937 235.182 31.3875 235.02 31.7625 234.697C32.1375 234.374 32.325 233.968 32.325 233.479C32.325 232.989 32.1375 232.583 31.7625 232.26C31.3875 231.926 30.8041 231.76 30.0125 231.76C29.2521 231.76 28.6791 231.932 28.2937 232.275C27.9083 232.609 27.7156 233.015 27.7156 233.494C27.7156 233.963 27.9083 234.364 28.2937 234.697C28.6687 235.02 29.2312 235.182 29.9812 235.182ZM32.4344 224.791C32.7677 225.187 33.0021 225.567 33.1375 225.932C33.2729 226.286 33.3406 226.671 33.3406 227.088C33.3406 227.775 33.1739 228.301 32.8406 228.666C32.5073 229.031 32.0802 229.213 31.5594 229.213C31.2573 229.213 30.9812 229.145 30.7312 229.01C30.4708 228.874 30.2677 228.692 30.1219 228.463C29.9656 228.234 29.851 227.979 29.7781 227.697C29.7156 227.499 29.6583 227.187 29.6062 226.76C29.5125 225.916 29.3927 225.291 29.2469 224.885C29.101 224.885 29.0125 224.885 28.9812 224.885C28.5437 224.885 28.2364 224.984 28.0594 225.182C27.8302 225.452 27.7156 225.854 27.7156 226.385C27.7156 226.874 27.8041 227.239 27.9812 227.479C28.1479 227.718 28.45 227.895 28.8875 228.01L28.7469 229.041C28.3094 228.947 27.9552 228.791 27.6844 228.572C27.4135 228.354 27.2052 228.041 27.0594 227.635C26.9135 227.229 26.8406 226.76 26.8406 226.229C26.8406 225.697 26.9031 225.265 27.0281 224.932C27.1531 224.598 27.3094 224.354 27.4969 224.197C27.6844 224.041 27.9239 223.932 28.2156 223.869C28.3927 223.838 28.7156 223.822 29.1844 223.822H30.5906C31.5698 223.822 32.1896 223.801 32.45 223.76C32.7104 223.708 32.9604 223.614 33.2 223.479V224.588C32.9812 224.692 32.726 224.76 32.4344 224.791ZM30.075 224.885C30.2312 225.27 30.3666 225.843 30.4812 226.604C30.5437 227.041 30.6166 227.348 30.7 227.525C30.7729 227.702 30.8823 227.843 31.0281 227.947C31.1739 228.041 31.3406 228.088 31.5281 228.088C31.8094 228.088 32.0437 227.984 32.2312 227.775C32.4187 227.557 32.5125 227.244 32.5125 226.838C32.5125 226.432 32.4239 226.072 32.2469 225.76C32.0698 225.437 31.825 225.202 31.5125 225.057C31.2729 224.942 30.9239 224.885 30.4656 224.885H30.075Z" fill="black"/>
<path d="M75.7 369.565C75.7 368.545 75.8042 367.727 76.0125 367.112C76.2208 366.487 76.5281 366.008 76.9344 365.675C77.351 365.341 77.8719 365.175 78.4969 365.175C78.9552 365.175 79.3562 365.269 79.7 365.456C80.0542 365.644 80.3458 365.914 80.575 366.269C80.8042 366.612 80.9812 367.034 81.1062 367.534C81.2312 368.034 81.2937 368.711 81.2937 369.565C81.2937 370.576 81.1896 371.388 80.9812 372.003C80.7833 372.618 80.476 373.097 80.0594 373.44C79.6531 373.774 79.1323 373.94 78.4969 373.94C77.674 373.94 77.0229 373.644 76.5437 373.05C75.9812 372.341 75.7 371.18 75.7 369.565ZM76.7781 369.565C76.7781 370.972 76.9448 371.909 77.2781 372.378C77.6115 372.847 78.0177 373.081 78.4969 373.081C78.9865 373.081 79.3927 372.847 79.7156 372.378C80.049 371.909 80.2156 370.972 80.2156 369.565C80.2156 368.149 80.049 367.211 79.7156 366.753C79.3927 366.284 78.9812 366.05 78.4812 366.05C78.0021 366.05 77.6167 366.253 77.325 366.659C76.9604 367.18 76.7781 368.149 76.7781 369.565Z" fill="black"/>
<path d="M58.6688 281.033H57.6219V274.314C57.3615 274.554 57.0229 274.799 56.6063 275.049C56.2 275.288 55.8354 275.465 55.5125 275.58V274.564C56.0958 274.283 56.6063 273.95 57.0438 273.564C57.4917 273.169 57.8094 272.783 57.9969 272.408H58.6688V281.033ZM61.7 276.799C61.7 275.778 61.8042 274.96 62.0125 274.346C62.2208 273.721 62.5281 273.242 62.9344 272.908C63.3511 272.575 63.8719 272.408 64.4969 272.408C64.9552 272.408 65.3563 272.502 65.7 272.689C66.0542 272.877 66.3458 273.148 66.575 273.502C66.8042 273.846 66.9813 274.268 67.1063 274.768C67.2313 275.268 67.2938 275.945 67.2938 276.799C67.2938 277.809 67.1896 278.622 66.9813 279.236C66.7833 279.851 66.4761 280.33 66.0594 280.674C65.6531 281.007 65.1323 281.174 64.4969 281.174C63.674 281.174 63.0229 280.877 62.5438 280.283C61.9813 279.575 61.7 278.413 61.7 276.799ZM62.7781 276.799C62.7781 278.205 62.9448 279.143 63.2781 279.611C63.6115 280.08 64.0177 280.314 64.4969 280.314C64.9865 280.314 65.3927 280.08 65.7156 279.611C66.049 279.143 66.2156 278.205 66.2156 276.799C66.2156 275.382 66.049 274.445 65.7156 273.986C65.3927 273.518 64.9813 273.283 64.4813 273.283C64.0021 273.283 63.6167 273.486 63.325 273.893C62.9604 274.413 62.7781 275.382 62.7781 276.799ZM68.7 276.799C68.7 275.778 68.8042 274.96 69.0125 274.346C69.2208 273.721 69.5281 273.242 69.9344 272.908C70.3511 272.575 70.8719 272.408 71.4969 272.408C71.9552 272.408 72.3563 272.502 72.7 272.689C73.0542 272.877 73.3458 273.148 73.575 273.502C73.8042 273.846 73.9813 274.268 74.1063 274.768C74.2313 275.268 74.2938 275.945 74.2938 276.799C74.2938 277.809 74.1896 278.622 73.9813 279.236C73.7833 279.851 73.4761 280.33 73.0594 280.674C72.6531 281.007 72.1323 281.174 71.4969 281.174C70.674 281.174 70.0229 280.877 69.5438 280.283C68.9813 279.575 68.7 278.413 68.7 276.799ZM69.7781 276.799C69.7781 278.205 69.9448 279.143 70.2781 279.611C70.6115 280.08 71.0177 280.314 71.4969 280.314C71.9865 280.314 72.3927 280.08 72.7156 279.611C73.049 279.143 73.2156 278.205 73.2156 276.799C73.2156 275.382 73.049 274.445 72.7156 273.986C72.3927 273.518 71.9813 273.283 71.4813 273.283C71.0021 273.283 70.6167 273.486 70.325 273.893C69.9604 274.413 69.7781 275.382 69.7781 276.799ZM75.7 276.799C75.7 275.778 75.8042 274.96 76.0125 274.346C76.2208 273.721 76.5281 273.242 76.9344 272.908C77.3511 272.575 77.8719 272.408 78.4969 272.408C78.9552 272.408 79.3563 272.502 79.7 272.689C80.0542 272.877 80.3458 273.148 80.575 273.502C80.8042 273.846 80.9813 274.268 81.1063 274.768C81.2313 275.268 81.2938 275.945 81.2938 276.799C81.2938 277.809 81.1896 278.622 80.9813 279.236C80.7833 279.851 80.4761 280.33 80.0594 280.674C79.6531 281.007 79.1323 281.174 78.4969 281.174C77.674 281.174 77.0229 280.877 76.5438 280.283C75.9813 279.575 75.7 278.413 75.7 276.799ZM76.7781 276.799C76.7781 278.205 76.9448 279.143 77.2781 279.611C77.6115 280.08 78.0177 280.314 78.4969 280.314C78.9865 280.314 79.3927 280.08 79.7156 279.611C80.049 279.143 80.2156 278.205 80.2156 276.799C80.2156 275.382 80.049 274.445 79.7156 273.986C79.3927 273.518 78.9813 273.283 78.4813 273.283C78.0021 273.283 77.6167 273.486 77.325 273.893C76.9604 274.413 76.7781 275.382 76.7781 276.799Z" fill="black"/>
<path d="M60.2469 187.251V188.267H54.5594C54.5594 188.017 54.6011 187.772 54.6844 187.532C54.8302 187.147 55.0594 186.767 55.3719 186.392C55.6948 186.017 56.1583 185.584 56.7625 185.095C57.7 184.324 58.3302 183.715 58.6531 183.267C58.9865 182.819 59.1531 182.397 59.1531 182.001C59.1531 181.584 59.0021 181.235 58.7 180.954C58.3979 180.662 58.0073 180.517 57.5281 180.517C57.0177 180.517 56.6115 180.668 56.3094 180.97C56.0073 181.272 55.8511 181.694 55.8406 182.235L54.7625 182.126C54.8354 181.313 55.1115 180.699 55.5906 180.282C56.0802 179.855 56.7365 179.642 57.5594 179.642C58.3823 179.642 59.0333 179.871 59.5125 180.329C59.9917 180.787 60.2313 181.355 60.2313 182.032C60.2313 182.376 60.1583 182.715 60.0125 183.048C59.8771 183.371 59.6427 183.72 59.3094 184.095C58.9865 184.459 58.45 184.959 57.7 185.595C57.0646 186.126 56.6531 186.491 56.4656 186.688C56.2886 186.876 56.1427 187.063 56.0281 187.251H60.2469ZM61.7 184.032C61.7 183.011 61.8042 182.194 62.0125 181.579C62.2208 180.954 62.5281 180.475 62.9344 180.142C63.3511 179.808 63.8719 179.642 64.4969 179.642C64.9552 179.642 65.3563 179.735 65.7 179.923C66.0542 180.11 66.3458 180.381 66.575 180.735C66.8042 181.079 66.9813 181.501 67.1063 182.001C67.2313 182.501 67.2938 183.178 67.2938 184.032C67.2938 185.043 67.1896 185.855 66.9813 186.47C66.7833 187.084 66.4761 187.563 66.0594 187.907C65.6531 188.241 65.1323 188.407 64.4969 188.407C63.674 188.407 63.0229 188.11 62.5438 187.517C61.9813 186.808 61.7 185.647 61.7 184.032ZM62.7781 184.032C62.7781 185.438 62.9448 186.376 63.2781 186.845C63.6115 187.313 64.0177 187.548 64.4969 187.548C64.9865 187.548 65.3927 187.313 65.7156 186.845C66.049 186.376 66.2156 185.438 66.2156 184.032C66.2156 182.616 66.049 181.678 65.7156 181.22C65.3927 180.751 64.9813 180.517 64.4813 180.517C64.0021 180.517 63.6167 180.72 63.325 181.126C62.9604 181.647 62.7781 182.616 62.7781 184.032ZM68.7 184.032C68.7 183.011 68.8042 182.194 69.0125 181.579C69.2208 180.954 69.5281 180.475 69.9344 180.142C70.3511 179.808 70.8719 179.642 71.4969 179.642C71.9552 179.642 72.3563 179.735 72.7 179.923C73.0542 180.11 73.3458 180.381 73.575 180.735C73.8042 181.079 73.9813 181.501 74.1063 182.001C74.2313 182.501 74.2938 183.178 74.2938 184.032C74.2938 185.043 74.1896 185.855 73.9813 186.47C73.7833 187.084 73.4761 187.563 73.0594 187.907C72.6531 188.241 72.1323 188.407 71.4969 188.407C70.674 188.407 70.0229 188.11 69.5438 187.517C68.9813 186.808 68.7 185.647 68.7 184.032ZM69.7781 184.032C69.7781 185.438 69.9448 186.376 70.2781 186.845C70.6115 187.313 71.0177 187.548 71.4969 187.548C71.9865 187.548 72.3927 187.313 72.7156 186.845C73.049 186.376 73.2156 185.438 73.2156 184.032C73.2156 182.616 73.049 181.678 72.7156 181.22C72.3927 180.751 71.9813 180.517 71.4813 180.517C71.0021 180.517 70.6167 180.72 70.325 181.126C69.9604 181.647 69.7781 182.616 69.7781 184.032ZM75.7 184.032C75.7 183.011 75.8042 182.194 76.0125 181.579C76.2208 180.954 76.5281 180.475 76.9344 180.142C77.3511 179.808 77.8719 179.642 78.4969 179.642C78.9552 179.642 79.3563 179.735 79.7 179.923C80.0542 180.11 80.3458 180.381 80.575 180.735C80.8042 181.079 80.9813 181.501 81.1063 182.001C81.2313 182.501 81.2938 183.178 81.2938 184.032C81.2938 185.043 81.1896 185.855 80.9813 186.47C80.7833 187.084 80.4761 187.563 80.0594 187.907C79.6531 188.241 79.1323 188.407 78.4969 188.407C77.674 188.407 77.0229 188.11 76.5438 187.517C75.9813 186.808 75.7 185.647 75.7 184.032ZM76.7781 184.032C76.7781 185.438 76.9448 186.376 77.2781 186.845C77.6115 187.313 78.0177 187.548 78.4969 187.548C78.9865 187.548 79.3927 187.313 79.7156 186.845C80.049 186.376 80.2156 185.438 80.2156 184.032C80.2156 182.616 80.049 181.678 79.7156 181.22C79.3927 180.751 78.9813 180.517 78.4813 180.517C78.0021 180.517 77.6167 180.72 77.325 181.126C76.9604 181.647 76.7781 182.616 76.7781 184.032Z" fill="black"/>
<path d="M54.7 93.2344L55.7625 93.0938C55.8771 93.6875 56.0802 94.1198 56.3719 94.3906C56.6636 94.651 57.0177 94.7812 57.4344 94.7812C57.9344 94.7812 58.3563 94.6094 58.7 94.2656C59.0438 93.9219 59.2156 93.4948 59.2156 92.9844C59.2156 92.5052 59.0542 92.1094 58.7313 91.7969C58.4188 91.474 58.0177 91.3125 57.5281 91.3125C57.3302 91.3125 57.0802 91.3542 56.7781 91.4375L56.9031 90.5C56.9761 90.5104 57.0333 90.5156 57.075 90.5156C57.5229 90.5156 57.924 90.401 58.2781 90.1719C58.6427 89.9323 58.825 89.5677 58.825 89.0781C58.825 88.6927 58.6948 88.375 58.4344 88.125C58.174 87.8646 57.8354 87.7344 57.4188 87.7344C57.0125 87.7344 56.6688 87.8646 56.3875 88.125C56.1167 88.3854 55.9448 88.7708 55.8719 89.2812L54.8094 89.0938C54.9344 88.3958 55.2261 87.8542 55.6844 87.4688C56.1427 87.0729 56.7104 86.875 57.3875 86.875C57.8563 86.875 58.2886 86.9792 58.6844 87.1875C59.0802 87.3854 59.3823 87.6562 59.5906 88C59.799 88.3438 59.9031 88.7135 59.9031 89.1094C59.9031 89.474 59.8042 89.8125 59.6063 90.125C59.4083 90.4271 59.1167 90.6667 58.7313 90.8438C59.2313 90.9583 59.6219 91.2031 59.9031 91.5781C60.1844 91.9427 60.325 92.4062 60.325 92.9688C60.325 93.7188 60.049 94.3542 59.4969 94.875C58.9552 95.3958 58.2677 95.6562 57.4344 95.6562C56.6844 95.6562 56.0594 95.4323 55.5594 94.9844C55.0594 94.526 54.7729 93.9427 54.7 93.2344ZM61.7 91.2656C61.7 90.2448 61.8042 89.4271 62.0125 88.8125C62.2208 88.1875 62.5281 87.7083 62.9344 87.375C63.3511 87.0417 63.8719 86.875 64.4969 86.875C64.9552 86.875 65.3563 86.9688 65.7 87.1562C66.0542 87.3438 66.3458 87.6146 66.575 87.9688C66.8042 88.3125 66.9813 88.7344 67.1063 89.2344C67.2313 89.7344 67.2938 90.4115 67.2938 91.2656C67.2938 92.276 67.1896 93.0885 66.9813 93.7031C66.7833 94.3177 66.4761 94.7969 66.0594 95.1406C65.6531 95.474 65.1323 95.6406 64.4969 95.6406C63.674 95.6406 63.0229 95.3438 62.5438 94.75C61.9813 94.0417 61.7 92.8802 61.7 91.2656ZM62.7781 91.2656C62.7781 92.6719 62.9448 93.6094 63.2781 94.0781C63.6115 94.5469 64.0177 94.7812 64.4969 94.7812C64.9865 94.7812 65.3927 94.5469 65.7156 94.0781C66.049 93.6094 66.2156 92.6719 66.2156 91.2656C66.2156 89.849 66.049 88.9115 65.7156 88.4531C65.3927 87.9844 64.9813 87.75 64.4813 87.75C64.0021 87.75 63.6167 87.9531 63.325 88.3594C62.9604 88.8802 62.7781 89.849 62.7781 91.2656ZM68.7 91.2656C68.7 90.2448 68.8042 89.4271 69.0125 88.8125C69.2208 88.1875 69.5281 87.7083 69.9344 87.375C70.3511 87.0417 70.8719 86.875 71.4969 86.875C71.9552 86.875 72.3563 86.9688 72.7 87.1562C73.0542 87.3438 73.3458 87.6146 73.575 87.9688C73.8042 88.3125 73.9813 88.7344 74.1063 89.2344C74.2313 89.7344 74.2938 90.4115 74.2938 91.2656C74.2938 92.276 74.1896 93.0885 73.9813 93.7031C73.7833 94.3177 73.4761 94.7969 73.0594 95.1406C72.6531 95.474 72.1323 95.6406 71.4969 95.6406C70.674 95.6406 70.0229 95.3438 69.5438 94.75C68.9813 94.0417 68.7 92.8802 68.7 91.2656ZM69.7781 91.2656C69.7781 92.6719 69.9448 93.6094 70.2781 94.0781C70.6115 94.5469 71.0177 94.7812 71.4969 94.7812C71.9865 94.7812 72.3927 94.5469 72.7156 94.0781C73.049 93.6094 73.2156 92.6719 73.2156 91.2656C73.2156 89.849 73.049 88.9115 72.7156 88.4531C72.3927 87.9844 71.9813 87.75 71.4813 87.75C71.0021 87.75 70.6167 87.9531 70.325 88.3594C69.9604 88.8802 69.7781 89.849 69.7781 91.2656ZM75.7 91.2656C75.7 90.2448 75.8042 89.4271 76.0125 88.8125C76.2208 88.1875 76.5281 87.7083 76.9344 87.375C77.3511 87.0417 77.8719 86.875 78.4969 86.875C78.9552 86.875 79.3563 86.9688 79.7 87.1562C80.0542 87.3438 80.3458 87.6146 80.575 87.9688C80.8042 88.3125 80.9813 88.7344 81.1063 89.2344C81.2313 89.7344 81.2938 90.4115 81.2938 91.2656C81.2938 92.276 81.1896 93.0885 80.9813 93.7031C80.7833 94.3177 80.4761 94.7969 80.0594 95.1406C79.6531 95.474 79.1323 95.6406 78.4969 95.6406C77.674 95.6406 77.0229 95.3438 76.5438 94.75C75.9813 94.0417 75.7 92.8802 75.7 91.2656ZM76.7781 91.2656C76.7781 92.6719 76.9448 93.6094 77.2781 94.0781C77.6115 94.5469 78.0177 94.7812 78.4969 94.7812C78.9865 94.7812 79.3927 94.5469 79.7156 94.0781C80.049 93.6094 80.2156 92.6719 80.2156 91.2656C80.2156 89.849 80.049 88.9115 79.7156 88.4531C79.3927 87.9844 78.9813 87.75 78.4813 87.75C78.0021 87.75 77.6167 87.9531 77.325 88.3594C76.9604 88.8802 76.7781 89.849 76.7781 91.2656Z" fill="black"/>
<path d="M167.959 386.8V384.737H164.24V383.769L168.162 378.206H169.021V383.769H170.177V384.737H169.021V386.8H167.959ZM167.959 383.769V379.909L165.271 383.769H167.959ZM174.959 386.8V384.737H171.24V383.769L175.162 378.206H176.021V383.769H177.177V384.737H176.021V386.8H174.959ZM174.959 383.769V379.909L172.271 383.769H174.959ZM178.584 382.565C178.584 381.545 178.688 380.727 178.896 380.112C179.104 379.487 179.412 379.008 179.818 378.675C180.235 378.341 180.756 378.175 181.381 378.175C181.839 378.175 182.24 378.269 182.584 378.456C182.938 378.644 183.229 378.914 183.459 379.269C183.688 379.612 183.865 380.034 183.99 380.534C184.115 381.034 184.177 381.711 184.177 382.565C184.177 383.576 184.073 384.388 183.865 385.003C183.667 385.618 183.36 386.097 182.943 386.44C182.537 386.774 182.016 386.94 181.381 386.94C180.558 386.94 179.907 386.644 179.427 386.05C178.865 385.341 178.584 384.18 178.584 382.565ZM179.662 382.565C179.662 383.972 179.828 384.909 180.162 385.378C180.495 385.847 180.901 386.081 181.381 386.081C181.87 386.081 182.276 385.847 182.599 385.378C182.933 384.909 183.099 383.972 183.099 382.565C183.099 381.149 182.933 380.211 182.599 379.753C182.276 379.284 181.865 379.05 181.365 379.05C180.886 379.05 180.5 379.253 180.209 379.659C179.844 380.18 179.662 381.149 179.662 382.565ZM185.584 382.565C185.584 381.545 185.688 380.727 185.896 380.112C186.104 379.487 186.412 379.008 186.818 378.675C187.235 378.341 187.756 378.175 188.381 378.175C188.839 378.175 189.24 378.269 189.584 378.456C189.938 378.644 190.229 378.914 190.459 379.269C190.688 379.612 190.865 380.034 190.99 380.534C191.115 381.034 191.177 381.711 191.177 382.565C191.177 383.576 191.073 384.388 190.865 385.003C190.667 385.618 190.36 386.097 189.943 386.44C189.537 386.774 189.016 386.94 188.381 386.94C187.558 386.94 186.907 386.644 186.427 386.05C185.865 385.341 185.584 384.18 185.584 382.565ZM186.662 382.565C186.662 383.972 186.828 384.909 187.162 385.378C187.495 385.847 187.901 386.081 188.381 386.081C188.87 386.081 189.276 385.847 189.599 385.378C189.933 384.909 190.099 383.972 190.099 382.565C190.099 381.149 189.933 380.211 189.599 379.753C189.276 379.284 188.865 379.05 188.365 379.05C187.886 379.05 187.5 379.253 187.209 379.659C186.844 380.18 186.662 381.149 186.662 382.565ZM192.584 382.565C192.584 381.545 192.688 380.727 192.896 380.112C193.104 379.487 193.412 379.008 193.818 378.675C194.235 378.341 194.756 378.175 195.381 378.175C195.839 378.175 196.24 378.269 196.584 378.456C196.938 378.644 197.229 378.914 197.459 379.269C197.688 379.612 197.865 380.034 197.99 380.534C198.115 381.034 198.177 381.711 198.177 382.565C198.177 383.576 198.073 384.388 197.865 385.003C197.667 385.618 197.36 386.097 196.943 386.44C196.537 386.774 196.016 386.94 195.381 386.94C194.558 386.94 193.907 386.644 193.427 386.05C192.865 385.341 192.584 384.18 192.584 382.565ZM193.662 382.565C193.662 383.972 193.828 384.909 194.162 385.378C194.495 385.847 194.901 386.081 195.381 386.081C195.87 386.081 196.276 385.847 196.599 385.378C196.933 384.909 197.099 383.972 197.099 382.565C197.099 381.149 196.933 380.211 196.599 379.753C196.276 379.284 195.865 379.05 195.365 379.05C194.886 379.05 194.5 379.253 194.209 379.659C193.844 380.18 193.662 381.149 193.662 382.565Z" fill="black"/>
<path d="M289.236 386.8V384.737H285.517V383.769L289.439 378.206H290.299V383.769H291.455V384.737H290.299V386.8H289.236ZM289.236 383.769V379.909L286.549 383.769H289.236ZM296.236 386.8V384.737H292.517V383.769L296.439 378.206H297.299V383.769H298.455V384.737H297.299V386.8H296.236ZM296.236 383.769V379.909L293.549 383.769H296.236ZM305.408 385.784V386.8H299.72C299.72 386.55 299.762 386.305 299.845 386.065C299.991 385.68 300.22 385.3 300.533 384.925C300.856 384.55 301.319 384.118 301.924 383.628C302.861 382.857 303.491 382.248 303.814 381.8C304.148 381.352 304.314 380.93 304.314 380.534C304.314 380.118 304.163 379.769 303.861 379.487C303.559 379.196 303.168 379.05 302.689 379.05C302.179 379.05 301.773 379.201 301.47 379.503C301.168 379.805 301.012 380.227 301.002 380.769L299.924 380.659C299.997 379.847 300.273 379.232 300.752 378.815C301.241 378.388 301.898 378.175 302.72 378.175C303.543 378.175 304.194 378.404 304.674 378.862C305.153 379.321 305.392 379.888 305.392 380.565C305.392 380.909 305.319 381.248 305.174 381.581C305.038 381.904 304.804 382.253 304.47 382.628C304.148 382.993 303.611 383.493 302.861 384.128C302.226 384.659 301.814 385.024 301.627 385.222C301.45 385.409 301.304 385.597 301.189 385.784H305.408ZM306.861 382.565C306.861 381.545 306.965 380.727 307.174 380.112C307.382 379.487 307.689 379.008 308.095 378.675C308.512 378.341 309.033 378.175 309.658 378.175C310.116 378.175 310.517 378.269 310.861 378.456C311.215 378.644 311.507 378.914 311.736 379.269C311.965 379.612 312.142 380.034 312.267 380.534C312.392 381.034 312.455 381.711 312.455 382.565C312.455 383.576 312.351 384.388 312.142 385.003C311.944 385.618 311.637 386.097 311.22 386.44C310.814 386.774 310.293 386.94 309.658 386.94C308.835 386.94 308.184 386.644 307.705 386.05C307.142 385.341 306.861 384.18 306.861 382.565ZM307.939 382.565C307.939 383.972 308.106 384.909 308.439 385.378C308.773 385.847 309.179 386.081 309.658 386.081C310.148 386.081 310.554 385.847 310.877 385.378C311.21 384.909 311.377 383.972 311.377 382.565C311.377 381.149 311.21 380.211 310.877 379.753C310.554 379.284 310.142 379.05 309.642 379.05C309.163 379.05 308.778 379.253 308.486 379.659C308.121 380.18 307.939 381.149 307.939 382.565ZM313.861 382.565C313.861 381.545 313.965 380.727 314.174 380.112C314.382 379.487 314.689 379.008 315.095 378.675C315.512 378.341 316.033 378.175 316.658 378.175C317.116 378.175 317.517 378.269 317.861 378.456C318.215 378.644 318.507 378.914 318.736 379.269C318.965 379.612 319.142 380.034 319.267 380.534C319.392 381.034 319.455 381.711 319.455 382.565C319.455 383.576 319.351 384.388 319.142 385.003C318.944 385.618 318.637 386.097 318.22 386.44C317.814 386.774 317.293 386.94 316.658 386.94C315.835 386.94 315.184 386.644 314.705 386.05C314.142 385.341 313.861 384.18 313.861 382.565ZM314.939 382.565C314.939 383.972 315.106 384.909 315.439 385.378C315.773 385.847 316.179 386.081 316.658 386.081C317.148 386.081 317.554 385.847 317.877 385.378C318.21 384.909 318.377 383.972 318.377 382.565C318.377 381.149 318.21 380.211 317.877 379.753C317.554 379.284 317.142 379.05 316.642 379.05C316.163 379.05 315.778 379.253 315.486 379.659C315.121 380.18 314.939 381.149 314.939 382.565Z" fill="black"/>
<path d="M410.514 386.8V384.737H406.795V383.769L410.717 378.206H411.576V383.769H412.732V384.737H411.576V386.8H410.514ZM410.514 383.769V379.909L407.826 383.769H410.514ZM417.514 386.8V384.737H413.795V383.769L417.717 378.206H418.576V383.769H419.732V384.737H418.576V386.8H417.514ZM417.514 383.769V379.909L414.826 383.769H417.514ZM424.514 386.8V384.737H420.795V383.769L424.717 378.206H425.576V383.769H426.732V384.737H425.576V386.8H424.514ZM424.514 383.769V379.909L421.826 383.769H424.514ZM428.139 382.565C428.139 381.545 428.243 380.727 428.451 380.112C428.659 379.487 428.967 379.008 429.373 378.675C429.79 378.341 430.31 378.175 430.935 378.175C431.394 378.175 431.795 378.269 432.139 378.456C432.493 378.644 432.784 378.914 433.014 379.269C433.243 379.612 433.42 380.034 433.545 380.534C433.67 381.034 433.732 381.711 433.732 382.565C433.732 383.576 433.628 384.388 433.42 385.003C433.222 385.618 432.915 386.097 432.498 386.44C432.092 386.774 431.571 386.94 430.935 386.94C430.112 386.94 429.461 386.644 428.982 386.05C428.42 385.341 428.139 384.18 428.139 382.565ZM429.217 382.565C429.217 383.972 429.383 384.909 429.717 385.378C430.05 385.847 430.456 386.081 430.935 386.081C431.425 386.081 431.831 385.847 432.154 385.378C432.487 384.909 432.654 383.972 432.654 382.565C432.654 381.149 432.487 380.211 432.154 379.753C431.831 379.284 431.42 379.05 430.92 379.05C430.441 379.05 430.055 379.253 429.764 379.659C429.399 380.18 429.217 381.149 429.217 382.565ZM435.139 382.565C435.139 381.545 435.243 380.727 435.451 380.112C435.659 379.487 435.967 379.008 436.373 378.675C436.79 378.341 437.31 378.175 437.935 378.175C438.394 378.175 438.795 378.269 439.139 378.456C439.493 378.644 439.784 378.914 440.014 379.269C440.243 379.612 440.42 380.034 440.545 380.534C440.67 381.034 440.732 381.711 440.732 382.565C440.732 383.576 440.628 384.388 440.42 385.003C440.222 385.618 439.915 386.097 439.498 386.44C439.092 386.774 438.571 386.94 437.935 386.94C437.112 386.94 436.461 386.644 435.982 386.05C435.42 385.341 435.139 384.18 435.139 382.565ZM436.217 382.565C436.217 383.972 436.383 384.909 436.717 385.378C437.05 385.847 437.456 386.081 437.935 386.081C438.425 386.081 438.831 385.847 439.154 385.378C439.487 384.909 439.654 383.972 439.654 382.565C439.654 381.149 439.487 380.211 439.154 379.753C438.831 379.284 438.42 379.05 437.92 379.05C437.441 379.05 437.055 379.253 436.764 379.659C436.399 380.18 436.217 381.149 436.217 382.565Z" fill="black"/>
<path d="M531.791 386.8V384.737H528.072V383.769L531.994 378.206H532.853V383.769H534.01V384.737H532.853V386.8H531.791ZM531.791 383.769V379.909L529.103 383.769H531.791ZM538.791 386.8V384.737H535.072V383.769L538.994 378.206H539.853V383.769H541.01V384.737H539.853V386.8H538.791ZM538.791 383.769V379.909L536.103 383.769H538.791ZM547.885 380.315L546.838 380.394C546.744 379.977 546.614 379.675 546.447 379.487C546.156 379.185 545.801 379.034 545.385 379.034C545.051 379.034 544.754 379.128 544.494 379.315C544.171 379.565 543.911 379.925 543.713 380.394C543.525 380.852 543.426 381.508 543.416 382.362C543.666 381.977 543.973 381.69 544.338 381.503C544.713 381.315 545.103 381.222 545.51 381.222C546.208 381.222 546.801 381.482 547.291 382.003C547.791 382.524 548.041 383.19 548.041 384.003C548.041 384.545 547.921 385.05 547.682 385.519C547.452 385.977 547.135 386.331 546.728 386.581C546.322 386.821 545.864 386.94 545.353 386.94C544.468 386.94 543.749 386.618 543.197 385.972C542.645 385.326 542.369 384.263 542.369 382.784C542.369 381.118 542.676 379.909 543.291 379.159C543.822 378.503 544.541 378.175 545.447 378.175C546.124 378.175 546.676 378.368 547.103 378.753C547.541 379.128 547.801 379.649 547.885 380.315ZM543.588 384.019C543.588 384.383 543.661 384.732 543.807 385.065C543.963 385.388 544.176 385.638 544.447 385.815C544.728 385.993 545.025 386.081 545.338 386.081C545.775 386.081 546.156 385.904 546.478 385.55C546.801 385.185 546.963 384.696 546.963 384.081C546.963 383.487 546.801 383.019 546.478 382.675C546.166 382.331 545.77 382.159 545.291 382.159C544.812 382.159 544.406 382.331 544.072 382.675C543.749 383.019 543.588 383.466 543.588 384.019ZM549.416 382.565C549.416 381.545 549.52 380.727 549.728 380.112C549.937 379.487 550.244 379.008 550.65 378.675C551.067 378.341 551.588 378.175 552.213 378.175C552.671 378.175 553.072 378.269 553.416 378.456C553.77 378.644 554.062 378.914 554.291 379.269C554.52 379.612 554.697 380.034 554.822 380.534C554.947 381.034 555.01 381.711 555.01 382.565C555.01 383.576 554.906 384.388 554.697 385.003C554.499 385.618 554.192 386.097 553.775 386.44C553.369 386.774 552.848 386.94 552.213 386.94C551.39 386.94 550.739 386.644 550.26 386.05C549.697 385.341 549.416 384.18 549.416 382.565ZM550.494 382.565C550.494 383.972 550.661 384.909 550.994 385.378C551.327 385.847 551.734 386.081 552.213 386.081C552.702 386.081 553.109 385.847 553.432 385.378C553.765 384.909 553.932 383.972 553.932 382.565C553.932 381.149 553.765 380.211 553.432 379.753C553.109 379.284 552.697 379.05 552.197 379.05C551.718 379.05 551.333 379.253 551.041 379.659C550.676 380.18 550.494 381.149 550.494 382.565ZM556.416 382.565C556.416 381.545 556.52 380.727 556.728 380.112C556.937 379.487 557.244 379.008 557.65 378.675C558.067 378.341 558.588 378.175 559.213 378.175C559.671 378.175 560.072 378.269 560.416 378.456C560.77 378.644 561.062 378.914 561.291 379.269C561.52 379.612 561.697 380.034 561.822 380.534C561.947 381.034 562.01 381.711 562.01 382.565C562.01 383.576 561.906 384.388 561.697 385.003C561.499 385.618 561.192 386.097 560.775 386.44C560.369 386.774 559.848 386.94 559.213 386.94C558.39 386.94 557.739 386.644 557.26 386.05C556.697 385.341 556.416 384.18 556.416 382.565ZM557.494 382.565C557.494 383.972 557.661 384.909 557.994 385.378C558.327 385.847 558.734 386.081 559.213 386.081C559.702 386.081 560.109 385.847 560.432 385.378C560.765 384.909 560.932 383.972 560.932 382.565C560.932 381.149 560.765 380.211 560.432 379.753C560.109 379.284 559.697 379.05 559.197 379.05C558.718 379.05 558.333 379.253 558.041 379.659C557.676 380.18 557.494 381.149 557.494 382.565Z" fill="black"/>
<path d="M653.068 386.8V384.737H649.35V383.769L653.272 378.206H654.131V383.769H655.287V384.737H654.131V386.8H653.068ZM653.068 383.769V379.909L650.381 383.769H653.068ZM660.068 386.8V384.737H656.35V383.769L660.272 378.206H661.131V383.769H662.287V384.737H661.131V386.8H660.068ZM660.068 383.769V379.909L657.381 383.769H660.068ZM665.318 382.144C664.881 381.977 664.553 381.748 664.334 381.456C664.126 381.154 664.022 380.8 664.022 380.394C664.022 379.769 664.246 379.243 664.693 378.815C665.152 378.388 665.751 378.175 666.49 378.175C667.24 378.175 667.844 378.394 668.303 378.831C668.761 379.269 668.99 379.8 668.99 380.425C668.99 380.821 668.886 381.164 668.678 381.456C668.469 381.748 668.152 381.977 667.725 382.144C668.256 382.31 668.657 382.586 668.928 382.972C669.199 383.357 669.334 383.815 669.334 384.347C669.334 385.076 669.074 385.69 668.553 386.19C668.042 386.69 667.36 386.94 666.506 386.94C665.662 386.94 664.98 386.69 664.459 386.19C663.938 385.69 663.678 385.065 663.678 384.315C663.678 383.753 663.818 383.284 664.1 382.909C664.391 382.534 664.798 382.279 665.318 382.144ZM665.1 380.347C665.1 380.753 665.23 381.086 665.49 381.347C665.761 381.607 666.105 381.737 666.522 381.737C666.928 381.737 667.261 381.612 667.522 381.362C667.782 381.102 667.912 380.784 667.912 380.409C667.912 380.024 667.777 379.701 667.506 379.44C667.235 379.17 666.902 379.034 666.506 379.034C666.1 379.034 665.761 379.164 665.49 379.425C665.23 379.685 665.1 379.993 665.1 380.347ZM664.772 384.315C664.772 384.618 664.839 384.909 664.975 385.19C665.12 385.472 665.334 385.69 665.615 385.847C665.897 386.003 666.199 386.081 666.522 386.081C667.022 386.081 667.433 385.92 667.756 385.597C668.089 385.274 668.256 384.862 668.256 384.362C668.256 383.852 668.089 383.43 667.756 383.097C667.423 382.763 667.001 382.597 666.49 382.597C665.99 382.597 665.579 382.763 665.256 383.097C664.933 383.42 664.772 383.826 664.772 384.315ZM670.693 382.565C670.693 381.545 670.798 380.727 671.006 380.112C671.214 379.487 671.522 379.008 671.928 378.675C672.344 378.341 672.865 378.175 673.49 378.175C673.949 378.175 674.35 378.269 674.693 378.456C675.048 378.644 675.339 378.914 675.568 379.269C675.798 379.612 675.975 380.034 676.1 380.534C676.225 381.034 676.287 381.711 676.287 382.565C676.287 383.576 676.183 384.388 675.975 385.003C675.777 385.618 675.469 386.097 675.053 386.44C674.647 386.774 674.126 386.94 673.49 386.94C672.667 386.94 672.016 386.644 671.537 386.05C670.975 385.341 670.693 384.18 670.693 382.565ZM671.772 382.565C671.772 383.972 671.938 384.909 672.272 385.378C672.605 385.847 673.011 386.081 673.49 386.081C673.98 386.081 674.386 385.847 674.709 385.378C675.042 384.909 675.209 383.972 675.209 382.565C675.209 381.149 675.042 380.211 674.709 379.753C674.386 379.284 673.975 379.05 673.475 379.05C672.995 379.05 672.61 379.253 672.318 379.659C671.954 380.18 671.772 381.149 671.772 382.565ZM677.693 382.565C677.693 381.545 677.798 380.727 678.006 380.112C678.214 379.487 678.522 379.008 678.928 378.675C679.344 378.341 679.865 378.175 680.49 378.175C680.949 378.175 681.35 378.269 681.693 378.456C682.048 378.644 682.339 378.914 682.568 379.269C682.798 379.612 682.975 380.034 683.1 380.534C683.225 381.034 683.287 381.711 683.287 382.565C683.287 383.576 683.183 384.388 682.975 385.003C682.777 385.618 682.469 386.097 682.053 386.44C681.647 386.774 681.126 386.94 680.49 386.94C679.667 386.94 679.016 386.644 678.537 386.05C677.975 385.341 677.693 384.18 677.693 382.565ZM678.772 382.565C678.772 383.972 678.938 384.909 679.272 385.378C679.605 385.847 680.011 386.081 680.49 386.081C680.98 386.081 681.386 385.847 681.709 385.378C682.042 384.909 682.209 383.972 682.209 382.565C682.209 381.149 682.042 380.211 681.709 379.753C681.386 379.284 680.975 379.05 680.475 379.05C679.995 379.05 679.61 379.253 679.318 379.659C678.954 380.18 678.772 381.149 678.772 382.565Z" fill="black"/>
<path d="M576.847 65.5127V66.7002H570.222C570.211 66.4085 570.258 66.1221 570.363 65.8408C570.54 65.3929 570.81 64.9502 571.175 64.5127C571.55 64.0752 572.086 63.57 572.784 62.9971C573.878 62.1012 574.613 61.3929 574.988 60.8721C575.373 60.3512 575.566 59.8564 575.566 59.3877C575.566 58.8981 575.389 58.4867 575.034 58.1533C574.691 57.82 574.243 57.6533 573.691 57.6533C573.097 57.6533 572.618 57.8304 572.253 58.1846C571.899 58.5387 571.722 59.0335 571.722 59.6689L570.456 59.5283C570.54 58.5908 570.862 57.8773 571.425 57.3877C571.998 56.8877 572.758 56.6377 573.706 56.6377C574.675 56.6377 575.435 56.9033 575.988 57.4346C576.55 57.9658 576.831 58.6273 576.831 59.4189C576.831 59.8252 576.748 60.221 576.581 60.6064C576.425 60.9919 576.154 61.3981 575.769 61.8252C575.394 62.2523 574.764 62.8408 573.878 63.5908C573.139 64.2054 572.665 64.6273 572.456 64.8564C572.248 65.0752 572.076 65.2939 571.941 65.5127H576.847ZM578.378 61.7627C578.378 60.5752 578.498 59.6221 578.738 58.9033C578.988 58.1742 579.352 57.6169 579.831 57.2314C580.31 56.8356 580.915 56.6377 581.644 56.6377C582.185 56.6377 582.659 56.7471 583.066 56.9658C583.472 57.1846 583.805 57.4971 584.066 57.9033C584.336 58.3096 584.545 58.8044 584.691 59.3877C584.836 59.971 584.909 60.7627 584.909 61.7627C584.909 62.9398 584.79 63.8877 584.55 64.6064C584.31 65.3252 583.951 65.8825 583.472 66.2783C582.993 66.6742 582.383 66.8721 581.644 66.8721C580.685 66.8721 579.93 66.5231 579.378 65.8252C578.711 64.9919 578.378 63.6377 578.378 61.7627ZM579.644 61.7627C579.644 63.4085 579.836 64.5023 580.222 65.0439C580.607 65.5856 581.081 65.8564 581.644 65.8564C582.217 65.8564 582.696 65.5856 583.081 65.0439C583.467 64.4919 583.659 63.3981 583.659 61.7627C583.659 60.1064 583.467 59.0075 583.081 58.4658C582.696 57.9242 582.211 57.6533 581.628 57.6533C581.066 57.6533 580.618 57.8929 580.284 58.3721C579.857 58.9867 579.644 60.1169 579.644 61.7627ZM592.847 65.5127V66.7002H586.222C586.211 66.4085 586.258 66.1221 586.363 65.8408C586.54 65.3929 586.81 64.9502 587.175 64.5127C587.55 64.0752 588.086 63.57 588.784 62.9971C589.878 62.1012 590.613 61.3929 590.988 60.8721C591.373 60.3512 591.566 59.8564 591.566 59.3877C591.566 58.8981 591.389 58.4867 591.034 58.1533C590.691 57.82 590.243 57.6533 589.691 57.6533C589.097 57.6533 588.618 57.8304 588.253 58.1846C587.899 58.5387 587.722 59.0335 587.722 59.6689L586.456 59.5283C586.54 58.5908 586.862 57.8773 587.425 57.3877C587.998 56.8877 588.758 56.6377 589.706 56.6377C590.675 56.6377 591.435 56.9033 591.988 57.4346C592.55 57.9658 592.831 58.6273 592.831 59.4189C592.831 59.8252 592.748 60.221 592.581 60.6064C592.425 60.9919 592.154 61.3981 591.769 61.8252C591.394 62.2523 590.764 62.8408 589.878 63.5908C589.139 64.2054 588.665 64.6273 588.456 64.8564C588.248 65.0752 588.076 65.2939 587.941 65.5127H592.847ZM600.847 65.5127V66.7002H594.222C594.211 66.4085 594.258 66.1221 594.363 65.8408C594.54 65.3929 594.81 64.9502 595.175 64.5127C595.55 64.0752 596.086 63.57 596.784 62.9971C597.878 62.1012 598.613 61.3929 598.988 60.8721C599.373 60.3512 599.566 59.8564 599.566 59.3877C599.566 58.8981 599.389 58.4867 599.034 58.1533C598.691 57.82 598.243 57.6533 597.691 57.6533C597.097 57.6533 596.618 57.8304 596.253 58.1846C595.899 58.5387 595.722 59.0335 595.722 59.6689L594.456 59.5283C594.54 58.5908 594.862 57.8773 595.425 57.3877C595.998 56.8877 596.758 56.6377 597.706 56.6377C598.675 56.6377 599.435 56.9033 599.988 57.4346C600.55 57.9658 600.831 58.6273 600.831 59.4189C600.831 59.8252 600.748 60.221 600.581 60.6064C600.425 60.9919 600.154 61.3981 599.769 61.8252C599.394 62.2523 598.764 62.8408 597.878 63.5908C597.139 64.2054 596.665 64.6273 596.456 64.8564C596.248 65.0752 596.076 65.2939 595.941 65.5127H600.847Z" fill="#999999"/>
<path d="M606.175 58.1689C605.487 59.3669 604.633 60.3669 603.612 61.1689L602.847 60.1846C604.336 59.0908 605.357 57.5075 605.909 55.4346L607.159 55.7627C607.305 55.9085 607.253 55.9971 607.003 56.0283L606.566 57.1221H614.269V58.1689H610.284V60.0283H613.566V61.0596H610.284V63.5283H614.878V64.5596H610.284V67.8564H609.191V64.5596H602.894V63.5283H605.362V60.0283H609.191V58.1689H606.175ZM606.456 63.5283H609.191V61.0596H606.456V63.5283Z" fill="#999999"/>
<path d="M616.566 64.3877L617.753 64.2783C617.847 64.8304 618.034 65.2314 618.316 65.4814C618.607 65.7314 618.972 65.8564 619.409 65.8564C619.784 65.8564 620.112 65.7731 620.394 65.6064C620.685 65.4294 620.92 65.195 621.097 64.9033C621.284 64.6117 621.441 64.221 621.566 63.7314C621.691 63.2419 621.753 62.7419 621.753 62.2314C621.753 62.1794 621.748 62.096 621.737 61.9814C621.498 62.3773 621.165 62.7002 620.737 62.9502C620.31 63.1898 619.847 63.3096 619.347 63.3096C618.514 63.3096 617.81 63.0075 617.237 62.4033C616.665 61.7992 616.378 61.0075 616.378 60.0283C616.378 59.0075 616.675 58.1898 617.269 57.5752C617.873 56.9502 618.628 56.6377 619.534 56.6377C620.18 56.6377 620.774 56.8148 621.316 57.1689C621.857 57.5127 622.269 58.0127 622.55 58.6689C622.831 59.3148 622.972 60.2523 622.972 61.4814C622.972 62.7627 622.831 63.7835 622.55 64.5439C622.279 65.3044 621.868 65.8825 621.316 66.2783C620.764 66.6742 620.118 66.8721 619.378 66.8721C618.597 66.8721 617.956 66.6533 617.456 66.2158C616.967 65.7783 616.67 65.1689 616.566 64.3877ZM621.597 59.9658C621.597 59.2575 621.409 58.695 621.034 58.2783C620.659 57.8617 620.211 57.6533 619.691 57.6533C619.139 57.6533 618.659 57.8773 618.253 58.3252C617.847 58.7731 617.644 59.3512 617.644 60.0596C617.644 60.695 617.836 61.2158 618.222 61.6221C618.607 62.0179 619.081 62.2158 619.644 62.2158C620.217 62.2158 620.685 62.0179 621.05 61.6221C621.415 61.2158 621.597 60.6637 621.597 59.9658Z" fill="#999999"/>
<path d="M633.706 63.5283H628.503C628.503 65.0908 627.701 66.57 626.097 67.9658L625.175 66.9189C626.665 65.971 627.409 64.5492 627.409 62.6533V55.9814H634.8V66.7627C634.8 67.346 634.487 67.6377 633.862 67.6377H632.55L632.331 66.4189H633.487C633.633 66.4189 633.706 66.346 633.706 66.2002V63.5283ZM628.503 62.3252H633.706V60.3564H628.503V62.3252ZM628.503 59.1533H633.706V57.1846H628.503V59.1533Z" fill="#999999"/>
<path d="M644.847 65.5127V66.7002H638.222C638.211 66.4085 638.258 66.1221 638.363 65.8408C638.54 65.3929 638.81 64.9502 639.175 64.5127C639.55 64.0752 640.086 63.57 640.784 62.9971C641.878 62.1012 642.613 61.3929 642.988 60.8721C643.373 60.3512 643.566 59.8564 643.566 59.3877C643.566 58.8981 643.389 58.4867 643.034 58.1533C642.691 57.82 642.243 57.6533 641.691 57.6533C641.097 57.6533 640.618 57.8304 640.253 58.1846C639.899 58.5387 639.722 59.0335 639.722 59.6689L638.456 59.5283C638.54 58.5908 638.862 57.8773 639.425 57.3877C639.998 56.8877 640.758 56.6377 641.706 56.6377C642.675 56.6377 643.435 56.9033 643.988 57.4346C644.55 57.9658 644.831 58.6273 644.831 59.4189C644.831 59.8252 644.748 60.221 644.581 60.6064C644.425 60.9919 644.154 61.3981 643.769 61.8252C643.394 62.2523 642.764 62.8408 641.878 63.5908C641.139 64.2054 640.665 64.6273 640.456 64.8564C640.248 65.0752 640.076 65.2939 639.941 65.5127H644.847ZM646.566 64.3877L647.753 64.2783C647.847 64.8304 648.034 65.2314 648.316 65.4814C648.607 65.7314 648.972 65.8564 649.409 65.8564C649.784 65.8564 650.113 65.7731 650.394 65.6064C650.685 65.4294 650.92 65.195 651.097 64.9033C651.284 64.6117 651.441 64.221 651.566 63.7314C651.691 63.2419 651.753 62.7419 651.753 62.2314C651.753 62.1794 651.748 62.096 651.738 61.9814C651.498 62.3773 651.165 62.7002 650.738 62.9502C650.31 63.1898 649.847 63.3096 649.347 63.3096C648.514 63.3096 647.81 63.0075 647.238 62.4033C646.665 61.7992 646.378 61.0075 646.378 60.0283C646.378 59.0075 646.675 58.1898 647.269 57.5752C647.873 56.9502 648.628 56.6377 649.534 56.6377C650.18 56.6377 650.774 56.8148 651.316 57.1689C651.857 57.5127 652.269 58.0127 652.55 58.6689C652.831 59.3148 652.972 60.2523 652.972 61.4814C652.972 62.7627 652.831 63.7835 652.55 64.5439C652.279 65.3044 651.868 65.8825 651.316 66.2783C650.764 66.6742 650.118 66.8721 649.378 66.8721C648.597 66.8721 647.956 66.6533 647.456 66.2158C646.967 65.7783 646.67 65.1689 646.566 64.3877ZM651.597 59.9658C651.597 59.2575 651.409 58.695 651.034 58.2783C650.659 57.8617 650.211 57.6533 649.691 57.6533C649.139 57.6533 648.659 57.8773 648.253 58.3252C647.847 58.7731 647.644 59.3512 647.644 60.0596C647.644 60.695 647.836 61.2158 648.222 61.6221C648.607 62.0179 649.081 62.2158 649.644 62.2158C650.217 62.2158 650.685 62.0179 651.05 61.6221C651.415 61.2158 651.597 60.6637 651.597 59.9658Z" fill="#999999"/>
<path d="M657.8 67.2002H656.534V56.6377H665.128V66.9814H663.862V66.2002H657.8V67.2002ZM663.862 60.7939V57.6689H657.8V60.7939H663.862ZM663.862 65.1689V61.8252H657.8V65.1689H663.862ZM678.081 59.8564H680.659V60.7314H678.362V61.9971H680.222V62.8721H678.362V64.1846H680.222V65.0596H678.362V66.4189H681.097V67.3096H675.566V67.8564H674.644V61.7783C674.352 62.1742 673.987 62.5387 673.55 62.8721L673.159 61.8252C674.545 60.5856 675.441 59.2939 675.847 57.9502H674.581V59.2002H673.659V57.0752H676.066C676.211 56.4919 676.336 55.8721 676.441 55.2158L677.534 55.4814C677.649 55.596 677.612 55.7054 677.425 55.8096C677.321 56.2471 677.211 56.6689 677.097 57.0752H680.987V58.9814H680.05V57.9502H676.878C676.659 58.7106 676.368 59.346 676.003 59.8564H677.159L677.862 58.2158L678.909 58.4346C679.086 58.5075 679.05 58.6012 678.8 58.7158L678.081 59.8564ZM668.847 57.3408V56.3096H673.487V57.3408H671.581C671.508 58.4762 671.269 59.5179 670.862 60.4658H673.003V66.9814H672.066V66.0908H670.644V67.5283H669.722V62.5908C669.503 62.9554 669.264 63.2835 669.003 63.5752L668.3 62.6533C669.571 61.2262 670.316 59.4554 670.534 57.3408H668.847ZM675.566 62.8721V64.1846H677.425V62.8721H675.566ZM675.566 60.7314V61.9971H677.425V60.7314H675.566ZM675.566 65.0596V66.4189H677.425V65.0596H675.566ZM670.644 61.3408V65.2158H672.066V61.3408H670.644ZM687.222 61.4502C688.566 61.0856 689.42 60.3721 689.784 59.3096L688.316 58.7158L688.691 57.7783L690.003 58.2783L690.112 56.9658H687.816V55.9189H694.378L694.269 60.6221C694.237 61.5387 693.857 61.9971 693.128 61.9971H691.862L691.753 60.9502H692.909C693.128 60.9502 693.237 60.8408 693.237 60.6221L693.347 56.9658H691.206L691.05 58.7158L692.362 59.4189L691.862 60.4033L690.769 59.8096C690.3 61.1533 689.264 62.0648 687.659 62.5439L687.222 61.4502ZM694.159 66.9189C693.868 65.8252 693.415 64.8773 692.8 64.0752L693.784 63.6377C694.586 64.6169 695.097 65.5439 695.316 66.4189L694.159 66.9189ZM686.831 63.4658V67.6846H685.909V67.3096H684.05V67.9033H683.112V63.4658H686.831ZM687.269 66.9814C687.529 66.0648 687.696 65.0231 687.769 63.8564L688.862 63.9658C688.935 63.9971 688.899 64.0856 688.753 64.2314C688.711 65.3981 688.545 66.4033 688.253 67.2471L687.269 66.9814ZM690.769 61.6689C691.279 61.9919 691.79 62.5544 692.3 63.3564L691.269 63.9658C691.008 63.4554 690.571 62.8721 689.956 62.2158L690.769 61.6689ZM683.331 55.7002H686.612V56.7471H683.331V55.7002ZM682.628 57.5596H687.331V58.6064H682.628V57.5596ZM683.331 59.5908H686.612V60.6221H683.331V59.5908ZM683.331 61.4502H686.612V62.4814H683.331V61.4502ZM684.05 64.3408V66.4189H685.909V64.3408H684.05ZM690.222 63.3096C690.514 63.3408 690.534 63.4502 690.284 63.6377V66.2002C690.284 66.4606 690.394 66.5908 690.612 66.5908H691.816C692.034 66.5908 692.159 66.4814 692.191 66.2627L692.3 65.3877L693.394 65.6533L693.175 66.8096C693.071 67.3617 692.743 67.6377 692.191 67.6377H690.112C689.498 67.6377 689.191 67.3044 689.191 66.6377V63.3096H690.222Z" fill="#999999"/>
<path d="M27.5906 38.3096C30.0906 35.9137 31.6011 33.3356 32.1219 30.5752H28.7625V28.8564H32.4344C32.5906 27.8148 32.7208 26.5648 32.825 25.1064L34.7781 25.4189C34.9865 25.6273 34.9083 25.7575 34.5438 25.8096C34.3875 26.8512 34.2313 27.8669 34.075 28.8564H40.4031V30.5752H33.7625C33.6063 31.6169 33.2938 32.6846 32.825 33.7783H39.8563V35.4971H36.4188V40.3408H40.8719V42.0596H29.5438V40.3408H34.6219V35.4971H32.0438C30.7417 37.5283 29.6219 38.9085 28.6844 39.6377L27.5906 38.3096ZM22.9031 33.8564C24.8302 32.0856 26.1583 29.1689 26.8875 25.1064L28.8406 25.7314C29.1011 25.9398 28.9708 26.07 28.45 26.1221C28.1375 27.5804 27.7469 28.9085 27.2781 30.1064L27.5125 30.3408C27.6167 30.445 27.5125 30.5752 27.2 30.7314V42.7627H25.6375V33.1533C24.9604 34.0908 24.4396 34.7419 24.075 35.1064L22.9031 33.8564ZM48.5281 26.5908H52.0438L51.8875 30.0283C51.8354 30.9137 51.3927 31.3564 50.5594 31.3564H48.7625V30.1064H50.1688C50.4292 30.1064 50.5594 29.9762 50.5594 29.7158L50.6375 27.8408H48.45C48.45 29.8721 47.0177 31.3825 44.1531 32.3721L43.6063 30.9658C45.8458 30.3408 46.9917 29.2992 47.0438 27.8408H44.2313V26.5908H47.2V24.9502H48.45C48.8667 25.0023 48.8927 25.1585 48.5281 25.4189V26.5908ZM56.3406 37.7627H48.0594V38.7783H56.3406V37.7627ZM57.6688 40.0283H55.2469C56.7573 40.7054 58.45 41.1481 60.325 41.3564L59.9344 42.9189C57.2261 42.5023 55.1948 41.8512 53.8406 40.9658L54.5438 40.0283H49.7781L50.4031 40.8877C50.6636 41.2523 50.5854 41.4085 50.1688 41.3564C48.3979 42.2419 46.4969 42.7627 44.4656 42.9189L44.075 41.3564C46.0021 41.3044 47.7208 40.8617 49.2313 40.0283H46.7313V31.9814H57.6688V40.0283ZM56.3406 34.2471V33.2314H48.0594V34.2471H56.3406ZM56.3406 35.4971H48.0594V36.5127H56.3406V35.4971ZM53.3719 26.2783H59.8563V31.2002H58.5281V30.8877H54.7V31.3564H53.3719V26.2783ZM58.5281 27.5283H54.7V29.6377H58.5281V27.5283ZM76.1844 37.6064C77.2261 38.6481 78.7625 39.6898 80.7938 40.7314L79.8563 42.3721C78.0854 41.5387 76.4188 40.3408 74.8563 38.7783L76.1844 37.6064ZM69.3875 39.0127C68.5021 40.2627 67.1479 41.4867 65.325 42.6846L64.1531 41.2002C65.8198 40.2106 67.1479 39.0387 68.1375 37.6846L69.6219 38.5439C69.8823 38.7523 69.8042 38.9085 69.3875 39.0127ZM66.1844 36.9814V37.7627H64.6219V26.5127H66.1063C66.5229 26.5648 66.549 26.721 66.1844 26.9814V35.4971H80.5594V36.9814H73.2938V42.9971H71.4969V36.9814H66.1844ZM69.6219 33.2314H76.4188V31.7471H69.6219V33.2314ZM69.6219 30.4971H76.4188V29.2471H69.6219V30.4971ZM69.6219 27.9971H76.4188V26.7471H69.6219V27.9971ZM68.0594 34.4814V25.4971H77.9813V34.4814H68.0594ZM92.9813 30.1846C92.0958 35.3929 91.0281 38.6221 89.7781 39.8721C89.1011 40.5492 88.3979 40.8877 87.6688 40.8877C86.8354 40.8877 86.1844 40.6533 85.7156 40.1846C84.4656 38.9346 83.8406 37.3721 83.8406 35.4971C83.8406 33.2054 84.6479 31.2523 86.2625 29.6377C88.0333 27.8669 90.1948 26.9814 92.7469 26.9814C95.0386 26.9814 96.8354 27.6325 98.1375 28.9346C99.5958 30.3929 100.325 32.1117 100.325 34.0908C100.325 36.2262 99.6479 37.971 98.2938 39.3252C97.4083 40.2106 96.0542 41.07 94.2313 41.9033L92.5906 40.2627C94.4136 39.6898 95.8458 38.8825 96.8875 37.8408C97.8771 36.8512 98.3719 35.6533 98.3719 34.2471C98.3719 32.5804 97.825 31.2002 96.7313 30.1064C95.6375 29.0127 93.9188 28.5179 91.575 28.6221L92.9813 29.3252C93.6063 29.5856 93.6063 29.8721 92.9813 30.1846ZM91.1844 28.7002C89.8302 29.0127 88.6583 29.6637 87.6688 30.6533C86.3146 32.0075 85.6375 33.6742 85.6375 35.6533C85.6375 36.8512 86.0281 37.8408 86.8094 38.6221C86.9656 38.7783 87.2 38.8564 87.5125 38.8564C87.825 38.8564 88.1636 38.6742 88.5281 38.3096C89.7261 37.1117 90.6115 33.9085 91.1844 28.7002ZM110.325 41.5127C112.46 40.3669 113.528 38.4137 113.528 35.6533V26.6689L115.169 26.9814L119.388 25.6533L120.559 27.2158C120.664 27.5283 120.481 27.5804 120.013 27.3721L115.091 28.3096V31.6689H121.263V33.1533H118.919V42.9189H117.356V33.1533H115.091V36.1221C115.091 39.195 113.789 41.4867 111.184 42.9971L110.325 41.5127ZM108.841 42.9971H107.278V38.3096C106.445 39.6637 105.533 40.7314 104.544 41.5127L103.372 40.1064C104.83 39.0648 106.054 37.7627 107.044 36.2002H103.763V34.7158H107.278V32.9971H103.294V31.5127H108.763L109.622 28.7002H103.841V27.2158H107.278V25.0283H108.763C109.179 25.0804 109.205 25.2367 108.841 25.4971V27.2158H112.278V28.7002H111.263L110.169 31.5127H112.669V32.9971H108.841V34.7158H112.278V36.2002H108.841V36.9033C109.57 37.1117 110.585 37.6585 111.888 38.5439L110.95 40.1064C110.221 39.3773 109.518 38.8044 108.841 38.3877V42.9971ZM105.716 31.3564C105.507 30.6273 105.221 29.9242 104.856 29.2471L106.341 28.7783C106.757 29.4554 107.07 30.1585 107.278 30.8877L105.716 31.3564ZM138.45 33.5439H133.372V35.2627H138.45V33.5439ZM136.341 36.7471H134.934V37.5283C134.934 40.7575 133.085 42.6585 129.388 43.2314L128.919 41.5908C131.888 41.2262 133.372 39.82 133.372 37.3721V36.7471H132.591H131.809V25.8096H140.013V36.7471H137.903V40.6533C137.903 41.07 138.085 41.2783 138.45 41.2783H139.231C139.492 41.2783 139.648 41.0179 139.7 40.4971L139.856 39.1689L141.419 39.6377L141.184 41.4346C141.08 42.32 140.585 42.7627 139.7 42.7627H137.747C136.809 42.7627 136.341 42.32 136.341 41.4346V36.7471ZM133.372 32.0596H138.45V30.4189H133.372V32.0596ZM133.372 28.9346H138.45V27.2939H133.372V28.9346ZM127.747 35.8877C128.789 36.3564 130.013 37.2158 131.419 38.4658L130.325 40.1064C129.231 38.9085 128.268 38.0231 127.434 37.4502C126.914 39.7419 125.82 41.5387 124.153 42.8408L122.981 41.4346C125.273 39.5075 126.367 37.0075 126.263 33.9346H123.294V32.4502H126.341V29.6377H123.841V28.1533H126.341V25.0283H127.825C128.242 25.0804 128.268 25.2367 127.903 25.4971V28.1533H130.638V29.6377H127.903V32.4502H131.028V33.9346H127.825C127.825 34.7679 127.799 35.4189 127.747 35.8877ZM147.825 32.1377C148.815 33.4919 149.309 34.8981 149.309 36.3564C149.309 38.3877 148.71 39.4033 147.513 39.4033H146.575L146.263 37.8408H147.044C147.565 37.8408 147.799 37.2939 147.747 36.2002C147.695 34.6898 147.226 33.3617 146.341 32.2158L147.903 27.1377H145.481V42.7627H143.919V25.8877H148.294L148.606 25.4971L149.934 26.6689L149.622 26.9814L147.825 32.1377ZM159.153 36.5127H158.372C157.539 40.3148 154.752 42.5023 150.013 43.0752L149.544 41.5908C153.606 41.2783 156.054 39.5856 156.888 36.5127H155.794C154.908 38.7002 153.033 40.0283 150.169 40.4971L149.7 39.1689C152.096 38.6481 153.58 37.7627 154.153 36.5127H152.903C152.174 37.2419 151.236 37.8148 150.091 38.2314L149.466 36.9033C151.132 36.3825 152.278 35.3929 152.903 33.9346H149.388V32.6846H161.106V33.9346H154.544C154.335 34.4033 154.075 34.846 153.763 35.2627H160.638L160.481 40.1846C160.429 41.8512 159.83 42.6846 158.684 42.6846H157.122L156.888 41.2002H158.216C158.684 41.2002 158.945 40.8877 158.997 40.2627L159.153 36.5127ZM152.513 30.4189H157.825V29.0908H152.513V30.4189ZM152.513 27.8408H157.825V26.5908H152.513V27.8408ZM159.153 25.3408V31.6689H151.184V25.3408H159.153ZM172.434 29.3252H174.544V25.2627H176.028C176.445 25.3148 176.471 25.471 176.106 25.7314V29.3252H180.325V30.8096H176.106V34.5596H180.091V36.0439H176.106V40.6533H181.263V42.1377H169.309V40.6533H174.544V36.0439H170.716V34.5596H174.544V30.8096H171.966C171.601 31.8512 171.028 32.8929 170.247 33.9346L168.919 32.9189C170.273 31.1481 171.158 29.0127 171.575 26.5127L173.059 26.8252C173.476 26.9814 173.476 27.1377 173.059 27.2939L172.434 29.3252ZM165.794 25.0283H167.278C167.695 25.0804 167.721 25.2367 167.356 25.4971V42.8408H165.794V25.0283ZM168.763 28.2314C169.231 28.8564 169.622 29.5596 169.934 30.3408L168.684 31.2002C168.32 30.3148 167.955 29.5856 167.591 29.0127L168.763 28.2314ZM165.325 29.0908C165.69 29.195 165.69 29.3512 165.325 29.5596C165.221 31.2262 164.986 32.7887 164.622 34.2471L163.138 33.7783C163.554 32.4762 163.789 30.8356 163.841 28.8564L165.325 29.0908ZM198.138 33.6221V42.6846H196.575V41.9033H189.544V42.9189H187.981V35.8096C186.627 36.5387 185.169 37.1117 183.606 37.5283L183.059 36.1221C184.518 35.7575 186.158 35.1064 187.981 34.1689V33.6221H189.075C190.169 32.9971 191.106 32.3721 191.888 31.7471H183.684V30.2627H190.559V28.3877H185.716V26.9033H190.559V25.0283H192.044C192.46 25.0804 192.486 25.2367 192.122 25.4971V26.9033H195.872V28.2314C196.497 27.5544 197.122 26.7992 197.747 25.9658L198.841 26.6689C199.205 26.9294 199.153 27.0856 198.684 27.1377C197.695 28.3356 196.705 29.3773 195.716 30.2627H201.106V31.7471H194.075C193.033 32.6325 192.2 33.2575 191.575 33.6221H198.138ZM193.606 30.2627C194.231 29.7939 194.934 29.1689 195.716 28.3877H192.122V30.2627H193.606ZM189.544 36.9814H196.575V34.8721H189.544V36.9814ZM189.544 40.6533H196.575V38.2314H189.544V40.6533ZM216.731 36.9033C217.46 35.4971 217.903 33.3617 218.059 30.4971H215.403C215.559 33.3617 216.002 35.4971 216.731 36.9033ZM219.622 30.4971C219.518 33.7262 218.893 36.3304 217.747 38.3096C218.58 39.3512 219.752 40.2627 221.263 41.0439L220.247 42.7627C218.58 41.6689 217.408 40.6273 216.731 39.6377C215.533 40.9919 213.684 42.1637 211.184 43.1533L210.403 41.5908C213.111 40.4971 214.908 39.3773 215.794 38.2314C214.908 36.5127 214.414 34.7939 214.309 33.0752C213.997 33.8564 213.684 34.4554 213.372 34.8721L212.044 33.8564C213.606 31.5648 214.544 28.7262 214.856 25.3408L216.497 25.7314C216.809 25.9398 216.731 26.096 216.263 26.2002C216.106 27.1377 215.898 28.0752 215.638 29.0127H220.95V30.4971H219.622ZM212.356 26.7471C212.044 27.5283 211.679 28.1794 211.263 28.7002L210.013 27.9971C210.429 27.32 210.82 26.5387 211.184 25.6533L212.591 26.3564C212.799 26.5648 212.721 26.695 212.356 26.7471ZM207.356 37.7627C208.085 37.971 208.736 38.2054 209.309 38.4658C209.726 37.9971 210.065 37.2939 210.325 36.3564H208.059C207.851 36.8252 207.617 37.2939 207.356 37.7627ZM206.263 39.7158L205.013 39.0127C205.533 38.2314 206.054 37.346 206.575 36.3564H203.606V35.1064H207.044C207.356 34.4294 207.591 33.8564 207.747 33.3877L209.231 33.7783C209.44 33.9867 209.361 34.1169 208.997 34.1689L208.528 35.1064H212.981V36.3564H211.809C211.549 37.3981 211.158 38.2835 210.638 39.0127C211.106 39.221 211.601 39.4814 212.122 39.7939L211.419 41.0439C210.846 40.6794 210.325 40.3929 209.856 40.1846C208.502 41.5387 206.679 42.3721 204.388 42.6846L203.841 41.2783C205.872 41.07 207.434 40.4971 208.528 39.5596C207.955 39.2992 207.382 39.0648 206.809 38.8564L206.263 39.7158ZM207.825 25.0283H209.075C209.492 25.0804 209.518 25.2367 209.153 25.4971V28.8564H213.138V30.1064H209.856C210.429 30.7835 211.315 31.4346 212.513 32.0596L211.653 33.3877C210.768 32.8669 209.934 32.1377 209.153 31.2002V33.0752H207.825V31.5908C206.992 32.6325 205.846 33.57 204.388 34.4033L203.372 33.1533C204.986 32.32 206.315 31.3044 207.356 30.1064H203.763V28.8564H207.825V25.0283ZM205.638 28.6221C205.273 27.8408 204.804 27.1637 204.231 26.5908L205.481 25.8096C206.106 26.4346 206.575 27.0856 206.888 27.7627L205.638 28.6221ZM232.981 30.1846C232.096 35.3929 231.028 38.6221 229.778 39.8721C229.101 40.5492 228.398 40.8877 227.669 40.8877C226.835 40.8877 226.184 40.6533 225.716 40.1846C224.466 38.9346 223.841 37.3721 223.841 35.4971C223.841 33.2054 224.648 31.2523 226.263 29.6377C228.033 27.8669 230.195 26.9814 232.747 26.9814C235.039 26.9814 236.835 27.6325 238.138 28.9346C239.596 30.3929 240.325 32.1117 240.325 34.0908C240.325 36.2262 239.648 37.971 238.294 39.3252C237.408 40.2106 236.054 41.07 234.231 41.9033L232.591 40.2627C234.414 39.6898 235.846 38.8825 236.888 37.8408C237.877 36.8512 238.372 35.6533 238.372 34.2471C238.372 32.5804 237.825 31.2002 236.731 30.1064C235.638 29.0127 233.919 28.5179 231.575 28.6221L232.981 29.3252C233.606 29.5856 233.606 29.8721 232.981 30.1846ZM231.184 28.7002C229.83 29.0127 228.658 29.6637 227.669 30.6533C226.315 32.0075 225.638 33.6742 225.638 35.6533C225.638 36.8512 226.028 37.8408 226.809 38.6221C226.966 38.7783 227.2 38.8564 227.513 38.8564C227.825 38.8564 228.164 38.6742 228.528 38.3096C229.726 37.1117 230.611 33.9085 231.184 28.7002ZM248.763 31.8252C250.481 30.2106 251.809 27.8669 252.747 24.7939L254.309 25.2627C254.57 25.471 254.518 25.6012 254.153 25.6533C253.736 26.695 253.32 27.6585 252.903 28.5439H255.247C255.82 27.346 256.263 26.2783 256.575 25.3408L258.059 25.8877C258.268 26.096 258.19 26.2262 257.825 26.2783C257.46 27.1117 257.096 27.8669 256.731 28.5439H260.716V30.0283H256.731V32.4502H259.934V33.9346H256.731V36.4346H259.934V37.9189H256.731V40.8096H261.184V42.2939H252.591V42.9971H251.028V31.6689C250.664 32.1898 250.273 32.6585 249.856 33.0752L248.763 31.8252ZM244.856 42.8408L244.544 41.3564H245.872C246.08 41.3564 246.184 41.2523 246.184 41.0439V36.2002L244.153 36.6689C244.101 37.0335 243.971 37.1117 243.763 36.9033L243.45 35.1064L246.184 34.5596V30.4189H243.763V28.9346H246.184V24.9502H247.669C248.085 25.0023 248.111 25.1585 247.747 25.4189V28.9346H249.778V30.4189H247.747V34.2471L249.778 33.7002L250.013 35.1064L247.747 35.8096V41.5908C247.747 42.4242 247.33 42.8408 246.497 42.8408H244.856ZM252.591 40.8096H255.169V37.9189H252.591V40.8096ZM252.591 36.4346H255.169V33.9346H252.591V36.4346ZM252.591 32.4502H255.169V30.0283H252.591V32.4502ZM278.841 27.1377L279.075 26.8252L280.325 27.8408L280.091 28.0752C278.736 30.4189 277.408 31.9814 276.106 32.7627L276.888 32.9971C277.252 33.1533 277.226 33.3096 276.809 33.4658C276.705 33.8304 276.575 34.1429 276.419 34.4033H279.778L280.013 34.0908L281.419 35.1064L281.106 35.4189C279.44 39.846 276.054 42.346 270.95 42.9189L270.325 41.4346C272.773 41.1742 274.7 40.5231 276.106 39.4814C275.377 38.7523 274.648 38.1273 273.919 37.6064C273.242 38.1794 272.33 38.7002 271.184 39.1689L270.481 37.7627C273.033 36.721 274.7 35.1325 275.481 32.9971C274.7 33.7262 273.294 34.3512 271.263 34.8721L270.559 33.4658C272.539 33.0492 274.023 32.5023 275.013 31.8252C274.492 31.2002 273.867 30.6533 273.138 30.1846C272.773 30.5492 272.408 30.8617 272.044 31.1221L270.95 29.9502C272.669 28.4919 273.763 26.9294 274.231 25.2627L275.638 25.7314C276.002 25.8877 275.976 26.0439 275.559 26.2002C275.507 26.5127 275.377 26.8252 275.169 27.1377H278.841ZM268.216 30.1846H270.794V31.6689H268.216V33.6221C269.257 34.0908 270.247 34.7939 271.184 35.7314L270.169 37.1377C269.335 36.3044 268.684 35.7054 268.216 35.3408V42.9189H266.653V35.1846C266.341 36.2262 265.481 37.5544 264.075 39.1689L262.903 37.6846C264.83 35.8617 266.028 33.8564 266.497 31.6689H263.45V30.1846H266.653V27.6064C265.611 27.7627 264.674 27.8929 263.841 27.9971L263.45 26.5127C265.533 26.3044 267.695 25.8877 269.934 25.2627L270.794 26.4346C271.002 26.7471 270.872 26.8512 270.403 26.7471C269.674 26.9554 268.945 27.1377 268.216 27.2939V30.1846ZM273.919 29.2471C274.7 29.6637 275.455 30.1846 276.184 30.8096C276.966 30.0804 277.617 29.2731 278.138 28.3877H274.544C274.335 28.7523 274.127 29.0387 273.919 29.2471ZM274.778 36.6689C275.507 37.0856 276.341 37.7106 277.278 38.5439C278.059 37.971 278.736 37.0075 279.309 35.6533H275.716C275.403 36.07 275.091 36.4085 274.778 36.6689ZM286.809 29.3252C287.382 28.1273 288.346 26.9033 289.7 25.6533L290.559 26.4346C289.257 27.6325 288.346 28.7783 287.825 29.8721C287.252 31.07 286.966 32.5023 286.966 34.1689C286.966 35.5752 287.252 36.9033 287.825 38.1533C288.346 39.2992 289.257 40.5752 290.559 41.9814L289.7 42.8408C288.398 41.3825 287.434 40.0023 286.809 38.7002C286.132 37.2939 285.794 35.7835 285.794 34.1689C285.794 32.346 286.132 30.7314 286.809 29.3252ZM297.903 41.9033H296.106V26.8252H308.372V41.5908H306.575V40.4971H297.903V41.9033ZM306.575 32.7627V28.3096H297.903V32.7627H306.575ZM306.575 39.0127V34.2471H297.903V39.0127H306.575ZM321.341 35.8096H318.372C317.903 38.7783 316.497 41.1221 314.153 42.8408L313.372 41.3564C315.664 39.7419 316.914 37.346 317.122 34.1689L317.278 31.7471H316.184V32.7627H314.622V26.0439H322.513V32.4502H320.95V31.7471H318.684L318.528 34.3252H322.903L322.513 40.4971C322.408 41.7471 321.888 42.3721 320.95 42.3721H318.841L318.606 40.8877H320.325C320.794 40.8877 321.054 40.6273 321.106 40.1064L321.341 35.8096ZM329.778 41.2002C329.778 42.0856 329.361 42.5283 328.528 42.5283H326.809L326.497 41.0439H327.981C328.138 41.0439 328.216 40.9658 328.216 40.8096V25.8096H329.7C330.117 25.8617 330.143 26.0179 329.778 26.2783V41.2002ZM326.028 27.6846C326.445 27.7367 326.471 27.8929 326.106 28.1533V38.8564H324.544V27.6846H326.028ZM320.95 30.4971V27.2939H316.184V30.4971H320.95ZM337.513 38.7002C336.888 40.0023 335.924 41.3825 334.622 42.8408L333.763 41.9814C335.065 40.5752 335.976 39.2992 336.497 38.1533C337.07 36.9033 337.356 35.5752 337.356 34.1689C337.356 32.5023 337.07 31.07 336.497 29.8721C335.976 28.7783 335.065 27.6325 333.763 26.4346L334.622 25.6533C335.976 26.9033 336.94 28.1273 337.513 29.3252C338.19 30.7314 338.528 32.346 338.528 34.1689C338.528 35.7835 338.19 37.2939 337.513 38.7002Z" fill="#757575"/>
</g>
<rect x="2" y="2" width="714" height="440" stroke="black" stroke-width="4"/>
<defs>
<clipPath id="clip0_7_30117">
<rect width="718" height="444" fill="white"/>
</clipPath>
</defs>
</svg>
