<svg width="718" height="444" viewBox="0 0 718 444" fill="none" xmlns="http://www.w3.org/2000/svg">
<g clip-path="url(#clip0_7_31150)">
<path d="M0 0H718V444H0V0Z" fill="white"/>
<path d="M187.5 91.5V369.5" stroke="#CCCCCC" stroke-miterlimit="10"/>
<path d="M307.5 91.5V369.5" stroke="#CCCCCC" stroke-miterlimit="10"/>
<path d="M427.5 91.5V369.5" stroke="#CCCCCC" stroke-miterlimit="10"/>
<path d="M547.5 91.5V369.5" stroke="#CCCCCC" stroke-miterlimit="10"/>
<path d="M667.5 91.5V369.5" stroke="#CCCCCC" stroke-miterlimit="10"/>
<path d="M95.5 369.5H695.5" stroke="#333333" stroke-miterlimit="10"/>
<path d="M95.5 277.5H695.5" stroke="#CCCCCC" stroke-miterlimit="10"/>
<path d="M95.5 184.5H695.5" stroke="#CCCCCC" stroke-miterlimit="10"/>
<path d="M95.5 91.5H695.5" stroke="#CCCCCC" stroke-miterlimit="10"/>
<path d="M95.2 369.8H95.8H96.4H97H97.6H98.2H98.8H99.4H100H100.6H101.2H101.8H102.4H103H103.6H104.2H104.8H105.4H106H106.6H107.2H107.8H108.4H109H109.6H110.2H110.8H111.4H112H112.6H113.2H113.8H114.4H115H115.6H116.2H116.8H117.4H118H118.6H119.2H119.8H120.4H121H121.6H122.2H122.8H123.4H124L124.6 369.763L125.2 369.745L125.8 369.8L126.4 369.782L127 369.8L127.6 369.708L128.2 369.763L128.8 369.689L129.4 369.763L130 369.671L130.6 369.8H131.2L131.8 369.708L132.4 369.782L133 369.726L133.6 369.745H134.2L134.8 369.689L135.4 369.782L136 369.671L136.6 369.782L137.2 369.671L137.8 369.689H138.4L139 369.708L139.6 369.782L140.2 369.504L140.8 369.763L141.4 369.652L142 369.355L142.6 369.448L143.2 369.355L143.8 369.392L144.4 369.578L145 369.151L145.6 369.207L146.2 368.761L146.8 369.392L147.4 369.058L148 369.281L148.6 369.392L149.2 368.891L149.8 368.873L150.4 369.114L151 369.207L151.6 369.151L152.2 369.411L152.8 369.615L153.4 369.188L154 369.095L154.6 369.504L155.2 369.466L155.8 369.429L156.4 369.485L157 369.633L157.6 369.615L158.2 369.633L158.8 369.578L159.4 369.541L160 369.671L160.6 369.708L161.2 369.745L161.8 369.652L162.4 369.299L163 369.633H163.6L164.2 369.708L164.8 369.541L165.4 369.782L166 369.745L166.6 369.726L167.2 369.745L167.8 369.726L168.4 369.708L169 369.763H169.6L170.2 369.708L170.8 369.782L171.4 369.763L172 369.782L172.6 369.8L173.2 369.782H173.8L174.4 369.8L175 369.745L175.6 369.782L176.2 369.745L176.8 369.782L177.4 369.8H178L178.6 369.763L179.2 369.782H179.8H180.4L181 369.8L181.6 369.782H182.2L182.8 369.689L183.4 369.745L184 369.763L184.6 369.8L185.2 369.763L185.8 369.8L186.4 369.782H187L187.6 369.763L188.2 369.782L188.8 369.708L189.4 369.671L190 369.726L190.6 369.578L191.2 369.633L191.8 369.596L192.4 369.504L193 369.596L193.6 369.652L194.2 369.559L194.8 369.615L195.4 369.541L196 369.448L196.6 369.318L197.2 369.299L197.8 369.411L198.4 369.504L199 369.299L199.6 368.91L200.2 369.392L200.8 368.984L201.4 369.132L202 369.207L202.6 369.318L203.2 369.021L203.8 369.095L204.4 368.891L205 368.854L205.6 368.91L206.2 369.095L206.8 369.281L207.4 368.928L208 368.65L208.6 368.613L209.2 368.965L209.8 369.151L210.4 369.188L211 369.374L211.6 368.78L212.2 368.799L212.8 368.743H213.4L214 368.409L214.6 368.427L215.2 368.891H215.8L216.4 368.613L217 368.594L217.6 368.873L218.2 368.242L218.8 368.761L219.4 369.021L220 369.132L220.6 368.965L221.2 368.761H221.8L222.4 368.836L223 368.761L223.6 369.151L224.2 369.355L224.8 368.65L225.4 368.502L226 368.854L226.6 368.576L227.2 369.225L227.8 369.244L228.4 369.151L229 368.799L229.6 368.52L230.2 368.761L230.8 368.78L231.4 369.021L232 369.337L232.6 368.947L233.2 369.058L233.8 369.021L234.4 369.355L235 369.392L235.6 369.411L236.2 369.541L236.8 369.578L237.4 369.337L238 369.244L238.6 369.337L239.2 369.132L239.8 369.392L240.4 369.504L241 369.448L241.6 369.262L242.2 369.429L242.8 369.355L243.4 369.374L244 369.504L244.6 369.522L245.2 369.541L245.8 369.578L246.4 369.411L247 369.299L247.6 369.374L248.2 369.151L248.8 369.429L249.4 369.337L250 369.281L250.6 369.188L251.2 369.244L251.8 368.873L252.4 369.151L253 369.429H253.6L254.2 369.077L254.8 368.965L255.4 369.281L256 367.945L256.6 369.244L257.2 369.466L257.8 369.225L258.4 368.928L259 368.743L259.6 368.836L260.2 368.965L260.8 369.058L261.4 369.392L262 369.207L262.6 368.873L263.2 368.965L263.8 369.058L264.4 369.04L265 369.485L265.6 369.17L266.2 369.262L266.8 368.984L267.4 369.077L268 368.669L268.6 369.262L269.2 369.188L269.8 369.318L270.4 369.244L271 369.132L271.6 369.095L272.2 367.685L272.8 368.52L273.4 368.984L274 368.854L274.6 368.557L275.2 367.648L275.8 368.409L276.4 368.26L277 367.871L277.6 368.316L278.2 368.186L278.8 368.168L279.4 367.463L280 367.797L280.6 368.019L281.2 366.609L281.8 367.704L282.4 368.149L283 369.003L283.6 367.964L284.2 366.85L284.8 367.889L285.4 367.611L286 367.24L286.6 368.594L287.2 367.889L287.8 367.017L288.4 367.036L289 366.776L289.6 366.683L290.2 366.795L290.8 368.131L291.4 366.609L292 367.11L292.6 366.331L293.2 366.387L293.8 366.108L294.4 367.147L295 367.908L295.6 366.646L296.2 366.479L296.8 366.164L297.4 366.071L298 365.607L298.6 366.869L299.2 367.63L299.8 366.164L300.4 365.533L301 365.144L301.6 364.309L302.2 364.884L302.8 365.886L303.4 366.387L304 364.272L304.6 365.273L305.2 363.678L305.8 365.719L306.4 365.849L307 365.997L307.6 365.292L308.2 362.973L308.8 362.49L309.4 361.266L310 360.598L310.6 360.208L311.2 362.119L311.8 363.362L312.4 364.958L313 362.546L313.6 361.359L314.2 360.709L314.8 359.002L315.4 361.767L316 363.715L316.6 361.971L317.2 362.175L317.8 361.711L318.4 363.158L319 363.771L319.6 364.513L320.2 365.144L320.8 365.106L321.4 365.218L322 364.383L322.6 365.051L323.2 364.123L323.8 365.292L324.4 366.85L325 365.218L325.6 365.032L326.2 365.329L326.8 365.589L327.4 365.978L328 366.331L328.6 367.555L329.2 366.591L329.8 366.665L330.4 366.609L331 367.5L331.6 366.758L332.2 367.37L332.8 368.056L333.4 367.685L334 367.388L334.6 365.904L335.2 367.184L335.8 367.555L336.4 368.242L337 367.927L337.6 367.852L338.2 368.706L338.8 367.741L339.4 367.927L340 367.611L340.6 368.001L341.2 368.669L341.8 367.908L342.4 367.982L343 367.518L343.6 368.131L344.2 367.685L344.8 367.518L345.4 368.594L346 367.834L346.6 367.296L347.2 367.463L347.8 366.925L348.4 366.405L349 368.372L349.6 368.465L350.2 368.019L350.8 367.351L351.4 367.667L352 367.296L352.6 367.333L353.2 368.335L353.8 368.687L354.4 367.277L355 367.555L355.6 367.704L356.2 367.296L356.8 367.5L357.4 367.685L358 367.908L358.6 367.815L359.2 366.98L359.8 367.351L360.4 366.776L361 367.036L361.6 367.296L362.2 368.205L362.8 367.648L363.4 366.869L364 366.943L364.6 367.37L365.2 367.166L365.8 367.221L366.4 368.019L367 366.906L367.6 367.11L368.2 366.312L368.8 366.776L369.4 365.96L370 366.721L370.6 367.611L371.2 365.96L371.8 365.589L372.4 365.477L373 365.96L373.6 365.552L374.2 365.886L374.8 367.778L375.4 366.405L376 365.644L376.6 365.051L377.2 367.092L377.8 365.422L378.4 364.42L379 366.127L379.6 366.368L380.2 366.739L380.8 366.479L381.4 365.385L382 364.513L382.6 364.624L383.2 366.925L383.8 364.643L384.4 364.995L385 364.438L385.6 365.032L386.2 365.236L386.8 365.774L387.4 367.296L388 366.349L388.6 366.238L389.2 365.57L389.8 366.424L390.4 366.442L391 366.739L391.6 368.26L392.2 367.426L392.8 366.758L393.4 367.388L394 367.852L394.6 366.925L395.2 367.537L395.8 368.557L396.4 367.685L397 367.351L397.6 367.537L398.2 367.908L398.8 367.593L399.4 368.298L400 368.984L400.6 368.26L401.2 367.555L401.8 367.76L402.4 368.186L403 368.26L403.6 368.594L404.2 369.04L404.8 368.502L405.4 368.186L406 368.335L406.6 368.613L407.2 368.335L407.8 368.465L408.4 368.817L409 368.075L409.6 367.797L410.2 367.593L410.8 367.945L411.4 368.019L412 368.223L412.6 368.539L413.2 368.39L413.8 367.778L414.4 367.166L415 367.481L415.6 367.648L416.2 367.5L416.8 368.39L417.4 367.259L418 366.888L418.6 366.925L419.2 367.017L419.8 367.073L420.4 366.776L421 367.76L421.6 366.498L422.2 365.292L422.8 363.715L423.4 364.42L424 363.9L424.6 364.476L425.2 366.108L425.8 363.975L426.4 362.732L427 360.338L427.6 362.361L428.2 363.4L428.8 361.47H429.4L430 358.78L430.6 353.659L431.2 353.77L431.8 353.974L432.4 350.579L433 353.121L433.6 355.663L434.2 350.264L434.8 347.518L435.4 346.887L436 347.165L436.6 342.917L437.2 344.494L437.8 348.279L438.4 348.167L439 347.035L439.6 341.451L440.2 338.334L440.8 336.404L441.4 336.905L442 345.663L442.6 339.484L443.2 342.88L443.8 329.558L444.4 335.959L445 335.013L445.6 338.334L446.2 345.087L446.8 345.384L447.4 339.855L448 338.093L448.6 341.525L449.2 339.967L449.8 342.657L450.4 349.28L451 351.321L451.6 347.481L452.2 349.113L452.8 352.639L453.4 349.856L454 354.642L454.6 361.451L455.2 357.796L455.8 355.347L456.4 356.869L457 359.485L457.6 355.329L458.2 361.934L458.8 366.275L459.4 361.637L460 360.765L460.6 363.474L461.2 364.105L461.8 364.272L462.4 366.164L463 367.927L463.6 368.075L464.2 364.995L464.8 365.644L465.4 367.722L466 366.498L466.6 367.073L467.2 368.891L467.8 367.166L468.4 367.593L469 367.648L469.6 367.834L470.2 368.483L470.8 368.502L471.4 369.188L472 368.316L472.6 368.409L473.2 368.891L473.8 369.244L474.4 369.095L475 369.188L475.6 369.429L476.2 369.132L476.8 369.077L477.4 369.132L478 369.299L478.6 369.392L479.2 369.448L479.8 369.559L480.4 369.466L481 369.596L481.6 369.541H482.2L482.8 369.485L483.4 369.671L484 369.763L484.6 369.559H485.2H485.8H486.4L487 369.541L487.6 369.578L488.2 369.8L488.8 369.615L489.4 369.671L490 369.726L490.6 369.615L491.2 369.689L491.8 369.708L492.4 369.745L493 369.541L493.6 369.559L494.2 369.689L494.8 369.633L495.4 369.596L496 369.689L496.6 369.633L497.2 369.448L497.8 369.504L498.4 369.689H499L499.6 369.726L500.2 369.689L500.8 369.763L501.4 369.689L502 369.726L502.6 369.596L503.2 369.652L503.8 369.615L504.4 369.708H505L505.6 369.615L506.2 369.596L506.8 369.708L507.4 369.559L508 369.633L508.6 369.745L509.2 369.763L509.8 369.689L510.4 369.615L511 369.596L511.6 369.671L512.2 369.652L512.8 369.726H513.4L514 369.689L514.6 369.578L515.2 369.726L515.8 369.633L516.4 369.596L517 369.578L517.6 369.745L518.2 369.708L518.8 369.633L519.4 369.708L520 369.689L520.6 369.615L521.2 369.578L521.8 369.671L522.4 369.559L523 369.541L523.6 369.522L524.2 369.596L524.8 369.485L525.4 369.541L526 369.374L526.6 369.095L527.2 367.797L527.8 366.591L528.4 364.55L529 362.064L529.6 362.527L530.2 365.032L530.8 365.069L531.4 355.681L532 348.149L532.6 345.996L533.2 337.48L533.8 340.319L534.4 352.101L535 325.421L535.6 321.321L536.2 314.252L536.8 311.395L537.4 303.602L538 309.428L538.6 332.657L539.2 280.856L539.8 280.781L540.4 269.26L541 272.358L541.6 259.668L542.2 271.672L542.8 321.154L543.4 253.824L544 263.842L544.6 239.018L545.2 247.849L545.8 240.632L546.4 264.195L547 313.621L547.6 237.534L548.2 256.087L548.8 242.747L549.4 259.167L550 320.708L550.6 266.31L551.2 324.901L551.8 244.046L552.4 249.185L553 253.471L553.6 272.191L554.2 264.492L554.8 284.882L555.4 332.712L556 261.004L556.6 257.924L557.2 318.278L557.8 277.238L558.4 268.314L559 290.466L559.6 331.117L560.2 270.058L560.8 274.288L561.4 287.999L562 294.158L562.6 289.743L563.2 305.791L563.8 340.913L564.4 287.498L565 281.82L565.6 295.327L566.2 303.287L566.8 292.99L567.4 308.964L568 341.432L568.6 286.218L569.2 286.57L569.8 295.531L570.4 307.795L571 304.901L571.6 315.847L572.2 342.453L572.8 347.444L573.4 290.095L574 290.281L574.6 301.673L575.2 298.964L575.8 310.096L576.4 339.688L577 287.257L577.6 292.841L578.2 293.361L578.8 302.934L579.4 295.921L580 314.53L580.6 342.137L581.2 298.648L581.8 291.691L582.4 301.023L583 303.862L583.6 299.094L584.2 315.272L584.8 345.069L585.4 296.032L586 300.188L586.6 311.45L587.2 321.395L587.8 322.471L588.4 333.603L589 353.306L589.6 315.736L590.2 313.51L590.8 322.378L591.4 325.94L592 321.005L592.6 331.469L593.2 350.264L593.8 325.699L594.4 323.899L595 330.709L595.6 337.202L596.2 355.217L596.8 345.941L597.4 357.073L598 335.922L598.6 351.544L599.2 350.895L599.8 354.939L600.4 328.686L601 336.07L601.6 354.457L602.2 331.747L602.8 336.349L603.4 340.727L604 342.991L604.6 340.115L605.2 347.481L605.8 358.835L606.4 340.969L607 339.373L607.6 346.126L608.2 346.72L608.8 344.234L609.4 350.319L610 360.969L610.6 345.607L611.2 345.737L611.8 349.243L612.4 353.585L613 351.804L613.6 357.407L614.2 363.529L614.8 353.344L615.4 353.566L616 355.644L616.6 358.334L617.2 357.945L617.8 360.542L618.4 365.403L619 356.887L619.6 357.908L620.2 359.893L620.8 360.06L621.4 359.077L622 360.542L622.6 364.921L623.2 357.128L623.8 356.238L624.4 358.631L625 359.429L625.6 357.629L626.2 359.986L626.8 365.106L627.4 354.958L628 355.978L628.6 356.386L629.2 358.891L629.8 356.535L630.4 359.132L631 364.29L631.6 352.88L632.2 348L632.8 348.687L633.4 348.779L634 347.165L634.6 346.943L635.2 352.88L635.8 349.596L636.4 331.896L637 324.642L637.6 327.48L638.2 322.564L638.8 315.198L639.4 324.734L640 326.2L640.6 276.997L641.2 263.1L641.8 263.026L642.4 256.347L643 248.332L643.6 265.178L644.2 307.09L644.8 280.54L645.4 168.998L646 154.619L646.6 139.294L647.2 143.728L647.8 197.922L648.4 239.742L649 130.611L649.6 127.531L650.2 125.731L650.8 132.911L651.4 115.805L652 187.718L652.6 234.973L653.2 114.135L653.8 113.375L654.4 110.221L655 130.889L655.6 128.459L656.2 205.937L656.8 238.369L657.4 127.958L658 120.592L658.6 174.471L659.2 244.046L659.8 190.594L660.4 237.552L661 259.594L661.6 184.453L662.2 162.244L662.8 159.647L663.4 156.511L664 157.383L664.6 218.479L665.2 260.762L665.8 167.346L666.4 182.356L667 204.472L667.6 223.656L668.2 226.309L668.8 269.26L669.4 282.674L670 218.108L670.6 230.78L671.2 254.695L671.8 258.703L672.4 265.846L673 296.478L673.6 305.402L674.2 243.601L674.8 259.445L675.4 271.412L676 283.472L676.6 280.41L677.2 301.357L677.8 314.474L678.4 257.757L679 262.247L679.6 281.06L680.2 289.353L680.8 292.118L681.4 315.346L682 336.72L682.6 328.575L683.2 270.188L683.8 296.997L684.4 318.371L685 333.028L685.6 298.723L686.2 322.953L686.8 318.556L687.4 332.49L688 333.083L688.6 335.829L689.2 340.041L689.8 358.947L690.4 329.762L691 328.315L691.6 339.948L692.2 342.453L692.8 345.792L693.4 350.227L694 357.555L694.6 359.021L695.2 325.736L695.8 332.545" stroke="#4285F4" stroke-width="2" stroke-miterlimit="10"/>
<path d="M383.422 418.8V410.206H386.391C387.057 410.206 387.568 410.248 387.922 410.331C388.411 410.446 388.828 410.649 389.172 410.94C389.63 411.326 389.969 411.821 390.188 412.425C390.417 413.019 390.531 413.696 390.531 414.456C390.531 415.112 390.453 415.69 390.297 416.19C390.151 416.69 389.958 417.107 389.719 417.44C389.479 417.774 389.214 418.034 388.922 418.222C388.641 418.409 388.302 418.555 387.906 418.659C387.51 418.753 387.052 418.8 386.531 418.8H383.422ZM384.562 417.784H386.391C386.964 417.784 387.411 417.732 387.734 417.628C388.057 417.524 388.312 417.373 388.5 417.175C388.771 416.914 388.979 416.555 389.125 416.097C389.281 415.638 389.359 415.086 389.359 414.44C389.359 413.545 389.208 412.857 388.906 412.378C388.615 411.888 388.26 411.56 387.844 411.394C387.531 411.279 387.042 411.222 386.375 411.222H384.562V417.784ZM396.359 418.034C395.964 418.368 395.583 418.602 395.219 418.737C394.865 418.873 394.479 418.94 394.062 418.94C393.375 418.94 392.849 418.774 392.484 418.44C392.12 418.107 391.938 417.68 391.938 417.159C391.938 416.857 392.005 416.581 392.141 416.331C392.276 416.071 392.458 415.868 392.688 415.722C392.917 415.565 393.172 415.451 393.453 415.378C393.651 415.315 393.964 415.258 394.391 415.206C395.234 415.112 395.859 414.993 396.266 414.847C396.266 414.701 396.266 414.612 396.266 414.581C396.266 414.144 396.167 413.836 395.969 413.659C395.698 413.43 395.297 413.315 394.766 413.315C394.276 413.315 393.911 413.404 393.672 413.581C393.432 413.748 393.255 414.05 393.141 414.487L392.109 414.347C392.203 413.909 392.359 413.555 392.578 413.284C392.797 413.013 393.109 412.805 393.516 412.659C393.922 412.513 394.391 412.44 394.922 412.44C395.453 412.44 395.885 412.503 396.219 412.628C396.552 412.753 396.797 412.909 396.953 413.097C397.109 413.284 397.219 413.524 397.281 413.815C397.312 413.993 397.328 414.315 397.328 414.784V416.19C397.328 417.17 397.349 417.789 397.391 418.05C397.443 418.31 397.536 418.56 397.672 418.8H396.562C396.458 418.581 396.391 418.326 396.359 418.034ZM396.266 415.675C395.88 415.831 395.307 415.966 394.547 416.081C394.109 416.144 393.802 416.216 393.625 416.3C393.448 416.373 393.307 416.482 393.203 416.628C393.109 416.774 393.062 416.94 393.062 417.128C393.062 417.409 393.167 417.644 393.375 417.831C393.594 418.019 393.906 418.112 394.312 418.112C394.719 418.112 395.078 418.024 395.391 417.847C395.714 417.67 395.948 417.425 396.094 417.112C396.208 416.873 396.266 416.524 396.266 416.065V415.675ZM401.594 417.862L401.75 418.784C401.448 418.847 401.182 418.878 400.953 418.878C400.568 418.878 400.271 418.821 400.062 418.706C399.854 418.581 399.703 418.42 399.609 418.222C399.526 418.024 399.484 417.607 399.484 416.972V413.394H398.719V412.581H399.484V411.034L400.531 410.409V412.581H401.594V413.394H400.531V417.034C400.531 417.336 400.547 417.529 400.578 417.612C400.62 417.696 400.682 417.763 400.766 417.815C400.849 417.868 400.969 417.894 401.125 417.894C401.25 417.894 401.406 417.883 401.594 417.862ZM406.547 416.8L407.641 416.925C407.474 417.56 407.156 418.055 406.688 418.409C406.219 418.763 405.625 418.94 404.906 418.94C404 418.94 403.276 418.659 402.734 418.097C402.203 417.534 401.938 416.748 401.938 415.737C401.938 414.696 402.208 413.888 402.75 413.315C403.292 412.732 403.99 412.44 404.844 412.44C405.677 412.44 406.354 412.722 406.875 413.284C407.406 413.847 407.672 414.644 407.672 415.675C407.672 415.737 407.672 415.831 407.672 415.956H403.031C403.073 416.644 403.266 417.17 403.609 417.534C403.953 417.888 404.385 418.065 404.906 418.065C405.292 418.065 405.62 417.966 405.891 417.769C406.172 417.56 406.391 417.237 406.547 416.8ZM403.094 415.097H406.562C406.521 414.565 406.391 414.17 406.172 413.909C405.828 413.503 405.391 413.3 404.859 413.3C404.37 413.3 403.958 413.461 403.625 413.784C403.302 414.107 403.125 414.545 403.094 415.097Z" fill="black"/>
<path d="M30.4344 259.604L30.3406 258.541C30.7781 258.489 31.1323 258.369 31.4031 258.182C31.6739 257.994 31.8979 257.708 32.075 257.322C32.2417 256.926 32.325 256.484 32.325 255.994C32.325 255.567 32.2625 255.187 32.1375 254.854C32.0021 254.52 31.825 254.275 31.6062 254.119C31.3771 253.952 31.1323 253.869 30.8719 253.869C30.601 253.869 30.3666 253.947 30.1687 254.104C29.9604 254.26 29.7885 254.515 29.6531 254.869C29.5594 255.109 29.4187 255.624 29.2312 256.416C29.0437 257.197 28.8666 257.744 28.7 258.057C28.4812 258.473 28.2156 258.781 27.9031 258.979C27.5802 259.176 27.2208 259.275 26.825 259.275C26.3979 259.275 25.9969 259.156 25.6219 258.916C25.2364 258.666 24.95 258.307 24.7625 257.838C24.5646 257.359 24.4656 256.833 24.4656 256.26C24.4656 255.624 24.5698 255.062 24.7781 254.572C24.976 254.083 25.2781 253.708 25.6844 253.447C26.0802 253.187 26.5281 253.046 27.0281 253.025L27.1062 254.119C26.5646 254.182 26.1583 254.385 25.8875 254.729C25.6062 255.062 25.4656 255.557 25.4656 256.213C25.4656 256.9 25.5906 257.4 25.8406 257.713C26.0906 258.025 26.3927 258.182 26.7469 258.182C27.0594 258.182 27.3146 258.072 27.5125 257.854C27.7104 257.635 27.9135 257.067 28.1219 256.15C28.3302 255.223 28.5125 254.588 28.6687 254.244C28.9083 253.744 29.2052 253.374 29.5594 253.135C29.9031 252.895 30.3094 252.775 30.7781 252.775C31.2364 252.775 31.6687 252.906 32.075 253.166C32.4708 253.426 32.7833 253.801 33.0125 254.291C33.2312 254.781 33.3406 255.333 33.3406 255.947C33.3406 256.729 33.2312 257.385 33.0125 257.916C32.7833 258.437 32.4396 258.848 31.9812 259.15C31.5229 259.442 31.0073 259.593 30.4344 259.604ZM32.4344 247.291C32.7677 247.687 33.0021 248.067 33.1375 248.432C33.2729 248.786 33.3406 249.171 33.3406 249.588C33.3406 250.275 33.1739 250.801 32.8406 251.166C32.5073 251.531 32.0802 251.713 31.5594 251.713C31.2573 251.713 30.9812 251.645 30.7312 251.51C30.4708 251.374 30.2677 251.192 30.1219 250.963C29.9656 250.734 29.851 250.479 29.7781 250.197C29.7156 249.999 29.6583 249.687 29.6062 249.26C29.5125 248.416 29.3927 247.791 29.2469 247.385C29.101 247.385 29.0125 247.385 28.9812 247.385C28.5437 247.385 28.2364 247.484 28.0594 247.682C27.8302 247.952 27.7156 248.354 27.7156 248.885C27.7156 249.374 27.8041 249.739 27.9812 249.979C28.1479 250.218 28.45 250.395 28.8875 250.51L28.7469 251.541C28.3094 251.447 27.9552 251.291 27.6844 251.072C27.4135 250.854 27.2052 250.541 27.0594 250.135C26.9135 249.729 26.8406 249.26 26.8406 248.729C26.8406 248.197 26.9031 247.765 27.0281 247.432C27.1531 247.098 27.3094 246.854 27.4969 246.697C27.6844 246.541 27.9239 246.432 28.2156 246.369C28.3927 246.338 28.7156 246.322 29.1844 246.322H30.5906C31.5698 246.322 32.1896 246.301 32.45 246.26C32.7104 246.208 32.9604 246.114 33.2 245.979V247.088C32.9812 247.192 32.726 247.26 32.4344 247.291ZM30.075 247.385C30.2312 247.77 30.3666 248.343 30.4812 249.104C30.5437 249.541 30.6166 249.848 30.7 250.025C30.7729 250.202 30.8823 250.343 31.0281 250.447C31.1739 250.541 31.3406 250.588 31.5281 250.588C31.8094 250.588 32.0437 250.484 32.2312 250.275C32.4187 250.057 32.5125 249.744 32.5125 249.338C32.5125 248.932 32.4239 248.572 32.2469 248.26C32.0698 247.937 31.825 247.702 31.5125 247.557C31.2729 247.442 30.9239 247.385 30.4656 247.385H30.075ZM25.825 244.354H24.6062V243.291H25.825V244.354ZM33.2 244.354H26.9812V243.291H33.2V244.354ZM32.2625 239.057L33.1844 238.9C33.2469 239.202 33.2781 239.468 33.2781 239.697C33.2781 240.083 33.2208 240.38 33.1062 240.588C32.9812 240.796 32.8198 240.947 32.6219 241.041C32.4239 241.124 32.0073 241.166 31.3719 241.166H27.7937V241.932H26.9812V241.166H25.4344L24.8094 240.119H26.9812V239.057H27.7937V240.119H31.4344C31.7364 240.119 31.9291 240.104 32.0125 240.072C32.0958 240.031 32.1635 239.968 32.2156 239.885C32.2677 239.801 32.2937 239.682 32.2937 239.525C32.2937 239.4 32.2833 239.244 32.2625 239.057ZM32.4344 234.291C32.7677 234.687 33.0021 235.067 33.1375 235.432C33.2729 235.786 33.3406 236.171 33.3406 236.588C33.3406 237.275 33.1739 237.801 32.8406 238.166C32.5073 238.531 32.0802 238.713 31.5594 238.713C31.2573 238.713 30.9812 238.645 30.7312 238.51C30.4708 238.374 30.2677 238.192 30.1219 237.963C29.9656 237.734 29.851 237.479 29.7781 237.197C29.7156 236.999 29.6583 236.687 29.6062 236.26C29.5125 235.416 29.3927 234.791 29.2469 234.385C29.101 234.385 29.0125 234.385 28.9812 234.385C28.5437 234.385 28.2364 234.484 28.0594 234.682C27.8302 234.952 27.7156 235.354 27.7156 235.885C27.7156 236.374 27.8041 236.739 27.9812 236.979C28.1479 237.218 28.45 237.395 28.8875 237.51L28.7469 238.541C28.3094 238.447 27.9552 238.291 27.6844 238.072C27.4135 237.854 27.2052 237.541 27.0594 237.135C26.9135 236.729 26.8406 236.26 26.8406 235.729C26.8406 235.197 26.9031 234.765 27.0281 234.432C27.1531 234.098 27.3094 233.854 27.4969 233.697C27.6844 233.541 27.9239 233.432 28.2156 233.369C28.3927 233.338 28.7156 233.322 29.1844 233.322H30.5906C31.5698 233.322 32.1896 233.301 32.45 233.26C32.7104 233.208 32.9604 233.114 33.2 232.979V234.088C32.9812 234.192 32.726 234.26 32.4344 234.291ZM30.075 234.385C30.2312 234.77 30.3666 235.343 30.4812 236.104C30.5437 236.541 30.6166 236.848 30.7 237.025C30.7729 237.202 30.8823 237.343 31.0281 237.447C31.1739 237.541 31.3406 237.588 31.5281 237.588C31.8094 237.588 32.0437 237.484 32.2312 237.275C32.4187 237.057 32.5125 236.744 32.5125 236.338C32.5125 235.932 32.4239 235.572 32.2469 235.26C32.0698 234.937 31.825 234.702 31.5125 234.557C31.2729 234.442 30.9239 234.385 30.4656 234.385H30.075ZM33.2 231.354H26.9812V230.416H27.8562C27.5437 230.218 27.2989 229.958 27.1219 229.635C26.9344 229.312 26.8406 228.942 26.8406 228.525C26.8406 228.067 26.9344 227.692 27.1219 227.4C27.3094 227.098 27.575 226.89 27.9187 226.775C27.2 226.275 26.8406 225.635 26.8406 224.854C26.8406 224.229 27.0125 223.755 27.3562 223.432C27.6896 223.098 28.2156 222.932 28.9344 222.932H33.2V223.979H29.2781C28.8614 223.979 28.5594 224.015 28.3719 224.088C28.1844 224.15 28.0333 224.27 27.9187 224.447C27.8041 224.624 27.7469 224.838 27.7469 225.088C27.7469 225.525 27.8927 225.89 28.1844 226.182C28.476 226.463 28.9448 226.604 29.5906 226.604H33.2V227.666H29.1531C28.6844 227.666 28.3354 227.755 28.1062 227.932C27.8666 228.098 27.7469 228.374 27.7469 228.76C27.7469 229.062 27.825 229.338 27.9812 229.588C28.1375 229.838 28.3666 230.02 28.6687 230.135C28.9708 230.249 29.4031 230.307 29.9656 230.307H33.2V231.354ZM32.4344 216.291C32.7677 216.687 33.0021 217.067 33.1375 217.432C33.2729 217.786 33.3406 218.171 33.3406 218.588C33.3406 219.275 33.1739 219.801 32.8406 220.166C32.5073 220.531 32.0802 220.713 31.5594 220.713C31.2573 220.713 30.9812 220.645 30.7312 220.51C30.4708 220.374 30.2677 220.192 30.1219 219.963C29.9656 219.734 29.851 219.479 29.7781 219.197C29.7156 218.999 29.6583 218.687 29.6062 218.26C29.5125 217.416 29.3927 216.791 29.2469 216.385C29.101 216.385 29.0125 216.385 28.9812 216.385C28.5437 216.385 28.2364 216.484 28.0594 216.682C27.8302 216.952 27.7156 217.354 27.7156 217.885C27.7156 218.374 27.8041 218.739 27.9812 218.979C28.1479 219.218 28.45 219.395 28.8875 219.51L28.7469 220.541C28.3094 220.447 27.9552 220.291 27.6844 220.072C27.4135 219.854 27.2052 219.541 27.0594 219.135C26.9135 218.729 26.8406 218.26 26.8406 217.729C26.8406 217.197 26.9031 216.765 27.0281 216.432C27.1531 216.098 27.3094 215.854 27.4969 215.697C27.6844 215.541 27.9239 215.432 28.2156 215.369C28.3927 215.338 28.7156 215.322 29.1844 215.322H30.5906C31.5698 215.322 32.1896 215.301 32.45 215.26C32.7104 215.208 32.9604 215.114 33.2 214.979V216.088C32.9812 216.192 32.726 216.26 32.4344 216.291ZM30.075 216.385C30.2312 216.77 30.3666 217.343 30.4812 218.104C30.5437 218.541 30.6166 218.848 30.7 219.025C30.7729 219.202 30.8823 219.343 31.0281 219.447C31.1739 219.541 31.3406 219.588 31.5281 219.588C31.8094 219.588 32.0437 219.484 32.2312 219.275C32.4187 219.057 32.5125 218.744 32.5125 218.338C32.5125 217.932 32.4239 217.572 32.2469 217.26C32.0698 216.937 31.825 216.702 31.5125 216.557C31.2729 216.442 30.9239 216.385 30.4656 216.385H30.075Z" fill="black"/>
<path d="M82.7 369.565C82.7 368.545 82.8042 367.727 83.0125 367.112C83.2208 366.487 83.5281 366.008 83.9344 365.675C84.351 365.341 84.8719 365.175 85.4969 365.175C85.9552 365.175 86.3562 365.269 86.7 365.456C87.0542 365.644 87.3458 365.914 87.575 366.269C87.8042 366.612 87.9812 367.034 88.1062 367.534C88.2312 368.034 88.2937 368.711 88.2937 369.565C88.2937 370.576 88.1896 371.388 87.9812 372.003C87.7833 372.618 87.476 373.097 87.0594 373.44C86.6531 373.774 86.1323 373.94 85.4969 373.94C84.674 373.94 84.0229 373.644 83.5437 373.05C82.9812 372.341 82.7 371.18 82.7 369.565ZM83.7781 369.565C83.7781 370.972 83.9448 371.909 84.2781 372.378C84.6115 372.847 85.0177 373.081 85.4969 373.081C85.9865 373.081 86.3927 372.847 86.7156 372.378C87.049 371.909 87.2156 370.972 87.2156 369.565C87.2156 368.149 87.049 367.211 86.7156 366.753C86.3927 366.284 85.9812 366.05 85.4812 366.05C85.0021 366.05 84.6167 366.253 84.325 366.659C83.9604 367.18 83.7781 368.149 83.7781 369.565Z" fill="black"/>
<path d="M61.7 278.783L62.8094 278.689C62.8927 279.231 63.0802 279.637 63.3719 279.908C63.674 280.179 64.0385 280.314 64.4656 280.314C64.9656 280.314 65.3927 280.122 65.7469 279.736C66.101 279.351 66.2781 278.846 66.2781 278.221C66.2781 277.617 66.1062 277.143 65.7625 276.799C65.4292 276.445 64.9865 276.268 64.4344 276.268C64.101 276.268 63.7937 276.346 63.5125 276.502C63.2417 276.658 63.0281 276.856 62.8719 277.096L61.8875 276.971L62.7156 272.564H66.9969V273.564H63.5594L63.1062 275.877C63.6167 275.512 64.1531 275.33 64.7156 275.33C65.4656 275.33 66.0958 275.59 66.6062 276.111C67.1271 276.632 67.3875 277.304 67.3875 278.127C67.3875 278.898 67.1635 279.57 66.7156 280.143C66.1635 280.83 65.4135 281.174 64.4656 281.174C63.6844 281.174 63.0437 280.955 62.5437 280.518C62.0542 280.08 61.7729 279.502 61.7 278.783ZM68.7 276.799C68.7 275.778 68.8042 274.96 69.0125 274.346C69.2208 273.721 69.5281 273.242 69.9344 272.908C70.351 272.575 70.8719 272.408 71.4969 272.408C71.9552 272.408 72.3562 272.502 72.7 272.689C73.0542 272.877 73.3458 273.148 73.575 273.502C73.8042 273.846 73.9812 274.268 74.1062 274.768C74.2312 275.268 74.2937 275.945 74.2937 276.799C74.2937 277.809 74.1896 278.622 73.9812 279.236C73.7833 279.851 73.476 280.33 73.0594 280.674C72.6531 281.007 72.1323 281.174 71.4969 281.174C70.674 281.174 70.0229 280.877 69.5437 280.283C68.9812 279.575 68.7 278.413 68.7 276.799ZM69.7781 276.799C69.7781 278.205 69.9448 279.143 70.2781 279.611C70.6115 280.08 71.0177 280.314 71.4969 280.314C71.9865 280.314 72.3927 280.08 72.7156 279.611C73.049 279.143 73.2156 278.205 73.2156 276.799C73.2156 275.382 73.049 274.445 72.7156 273.986C72.3927 273.518 71.9812 273.283 71.4812 273.283C71.0021 273.283 70.6167 273.486 70.325 273.893C69.9604 274.413 69.7781 275.382 69.7781 276.799ZM75.7 276.799C75.7 275.778 75.8042 274.96 76.0125 274.346C76.2208 273.721 76.5281 273.242 76.9344 272.908C77.351 272.575 77.8719 272.408 78.4969 272.408C78.9552 272.408 79.3562 272.502 79.7 272.689C80.0542 272.877 80.3458 273.148 80.575 273.502C80.8042 273.846 80.9812 274.268 81.1062 274.768C81.2312 275.268 81.2937 275.945 81.2937 276.799C81.2937 277.809 81.1896 278.622 80.9812 279.236C80.7833 279.851 80.476 280.33 80.0594 280.674C79.6531 281.007 79.1323 281.174 78.4969 281.174C77.674 281.174 77.0229 280.877 76.5437 280.283C75.9812 279.575 75.7 278.413 75.7 276.799ZM76.7781 276.799C76.7781 278.205 76.9448 279.143 77.2781 279.611C77.6115 280.08 78.0177 280.314 78.4969 280.314C78.9865 280.314 79.3927 280.08 79.7156 279.611C80.049 279.143 80.2156 278.205 80.2156 276.799C80.2156 275.382 80.049 274.445 79.7156 273.986C79.3927 273.518 78.9812 273.283 78.4812 273.283C78.0021 273.283 77.6167 273.486 77.325 273.893C76.9604 274.413 76.7781 275.382 76.7781 276.799ZM82.7 276.799C82.7 275.778 82.8042 274.96 83.0125 274.346C83.2208 273.721 83.5281 273.242 83.9344 272.908C84.351 272.575 84.8719 272.408 85.4969 272.408C85.9552 272.408 86.3562 272.502 86.7 272.689C87.0542 272.877 87.3458 273.148 87.575 273.502C87.8042 273.846 87.9812 274.268 88.1062 274.768C88.2312 275.268 88.2937 275.945 88.2937 276.799C88.2937 277.809 88.1896 278.622 87.9812 279.236C87.7833 279.851 87.476 280.33 87.0594 280.674C86.6531 281.007 86.1323 281.174 85.4969 281.174C84.674 281.174 84.0229 280.877 83.5437 280.283C82.9812 279.575 82.7 278.413 82.7 276.799ZM83.7781 276.799C83.7781 278.205 83.9448 279.143 84.2781 279.611C84.6115 280.08 85.0177 280.314 85.4969 280.314C85.9865 280.314 86.3927 280.08 86.7156 279.611C87.049 279.143 87.2156 278.205 87.2156 276.799C87.2156 275.382 87.049 274.445 86.7156 273.986C86.3927 273.518 85.9812 273.283 85.4812 273.283C85.0021 273.283 84.6167 273.486 84.325 273.893C83.9604 274.413 83.7781 275.382 83.7781 276.799Z" fill="black"/>
<path d="M58.6687 188.267H57.6219V181.548C57.3615 181.787 57.0229 182.032 56.6062 182.282C56.2 182.522 55.8354 182.699 55.5125 182.813V181.798C56.0958 181.517 56.6062 181.183 57.0437 180.798C57.4917 180.402 57.8094 180.017 57.9969 179.642H58.6687V188.267ZM61.7 184.032C61.7 183.011 61.8042 182.194 62.0125 181.579C62.2208 180.954 62.5281 180.475 62.9344 180.142C63.351 179.808 63.8719 179.642 64.4969 179.642C64.9552 179.642 65.3562 179.735 65.7 179.923C66.0542 180.11 66.3458 180.381 66.575 180.735C66.8042 181.079 66.9812 181.501 67.1062 182.001C67.2312 182.501 67.2937 183.178 67.2937 184.032C67.2937 185.043 67.1896 185.855 66.9812 186.47C66.7833 187.084 66.476 187.563 66.0594 187.907C65.6531 188.241 65.1323 188.407 64.4969 188.407C63.674 188.407 63.0229 188.11 62.5437 187.517C61.9812 186.808 61.7 185.647 61.7 184.032ZM62.7781 184.032C62.7781 185.438 62.9448 186.376 63.2781 186.845C63.6115 187.313 64.0177 187.548 64.4969 187.548C64.9865 187.548 65.3927 187.313 65.7156 186.845C66.049 186.376 66.2156 185.438 66.2156 184.032C66.2156 182.616 66.049 181.678 65.7156 181.22C65.3927 180.751 64.9812 180.517 64.4812 180.517C64.0021 180.517 63.6167 180.72 63.325 181.126C62.9604 181.647 62.7781 182.616 62.7781 184.032ZM68.7 184.032C68.7 183.011 68.8042 182.194 69.0125 181.579C69.2208 180.954 69.5281 180.475 69.9344 180.142C70.351 179.808 70.8719 179.642 71.4969 179.642C71.9552 179.642 72.3562 179.735 72.7 179.923C73.0542 180.11 73.3458 180.381 73.575 180.735C73.8042 181.079 73.9812 181.501 74.1062 182.001C74.2312 182.501 74.2937 183.178 74.2937 184.032C74.2937 185.043 74.1896 185.855 73.9812 186.47C73.7833 187.084 73.476 187.563 73.0594 187.907C72.6531 188.241 72.1323 188.407 71.4969 188.407C70.674 188.407 70.0229 188.11 69.5437 187.517C68.9812 186.808 68.7 185.647 68.7 184.032ZM69.7781 184.032C69.7781 185.438 69.9448 186.376 70.2781 186.845C70.6115 187.313 71.0177 187.548 71.4969 187.548C71.9865 187.548 72.3927 187.313 72.7156 186.845C73.049 186.376 73.2156 185.438 73.2156 184.032C73.2156 182.616 73.049 181.678 72.7156 181.22C72.3927 180.751 71.9812 180.517 71.4812 180.517C71.0021 180.517 70.6167 180.72 70.325 181.126C69.9604 181.647 69.7781 182.616 69.7781 184.032ZM75.7 184.032C75.7 183.011 75.8042 182.194 76.0125 181.579C76.2208 180.954 76.5281 180.475 76.9344 180.142C77.351 179.808 77.8719 179.642 78.4969 179.642C78.9552 179.642 79.3562 179.735 79.7 179.923C80.0542 180.11 80.3458 180.381 80.575 180.735C80.8042 181.079 80.9812 181.501 81.1062 182.001C81.2312 182.501 81.2937 183.178 81.2937 184.032C81.2937 185.043 81.1896 185.855 80.9812 186.47C80.7833 187.084 80.476 187.563 80.0594 187.907C79.6531 188.241 79.1323 188.407 78.4969 188.407C77.674 188.407 77.0229 188.11 76.5437 187.517C75.9812 186.808 75.7 185.647 75.7 184.032ZM76.7781 184.032C76.7781 185.438 76.9448 186.376 77.2781 186.845C77.6115 187.313 78.0177 187.548 78.4969 187.548C78.9865 187.548 79.3927 187.313 79.7156 186.845C80.049 186.376 80.2156 185.438 80.2156 184.032C80.2156 182.616 80.049 181.678 79.7156 181.22C79.3927 180.751 78.9812 180.517 78.4812 180.517C78.0021 180.517 77.6167 180.72 77.325 181.126C76.9604 181.647 76.7781 182.616 76.7781 184.032ZM82.7 184.032C82.7 183.011 82.8042 182.194 83.0125 181.579C83.2208 180.954 83.5281 180.475 83.9344 180.142C84.351 179.808 84.8719 179.642 85.4969 179.642C85.9552 179.642 86.3562 179.735 86.7 179.923C87.0542 180.11 87.3458 180.381 87.575 180.735C87.8042 181.079 87.9812 181.501 88.1062 182.001C88.2312 182.501 88.2937 183.178 88.2937 184.032C88.2937 185.043 88.1896 185.855 87.9812 186.47C87.7833 187.084 87.476 187.563 87.0594 187.907C86.6531 188.241 86.1323 188.407 85.4969 188.407C84.674 188.407 84.0229 188.11 83.5437 187.517C82.9812 186.808 82.7 185.647 82.7 184.032ZM83.7781 184.032C83.7781 185.438 83.9448 186.376 84.2781 186.845C84.6115 187.313 85.0177 187.548 85.4969 187.548C85.9865 187.548 86.3927 187.313 86.7156 186.845C87.049 186.376 87.2156 185.438 87.2156 184.032C87.2156 182.616 87.049 181.678 86.7156 181.22C86.3927 180.751 85.9812 180.517 85.4812 180.517C85.0021 180.517 84.6167 180.72 84.325 181.126C83.9604 181.647 83.7781 182.616 83.7781 184.032Z" fill="black"/>
<path d="M58.6687 95.5H57.6219V88.7812C57.3615 89.0208 57.0229 89.2656 56.6062 89.5156C56.2 89.7552 55.8354 89.9323 55.5125 90.0469V89.0312C56.0958 88.75 56.6062 88.4167 57.0437 88.0312C57.4917 87.6354 57.8094 87.25 57.9969 86.875H58.6687V95.5ZM61.7 93.25L62.8094 93.1562C62.8927 93.6979 63.0802 94.1042 63.3719 94.375C63.674 94.6458 64.0385 94.7812 64.4656 94.7812C64.9656 94.7812 65.3927 94.5885 65.7469 94.2031C66.101 93.8177 66.2781 93.3125 66.2781 92.6875C66.2781 92.0833 66.1062 91.6094 65.7625 91.2656C65.4292 90.9115 64.9865 90.7344 64.4344 90.7344C64.101 90.7344 63.7937 90.8125 63.5125 90.9688C63.2417 91.125 63.0281 91.3229 62.8719 91.5625L61.8875 91.4375L62.7156 87.0312H66.9969V88.0312H63.5594L63.1062 90.3438C63.6167 89.9792 64.1531 89.7969 64.7156 89.7969C65.4656 89.7969 66.0958 90.0573 66.6062 90.5781C67.1271 91.099 67.3875 91.7708 67.3875 92.5938C67.3875 93.3646 67.1635 94.0365 66.7156 94.6094C66.1635 95.2969 65.4135 95.6406 64.4656 95.6406C63.6844 95.6406 63.0437 95.4219 62.5437 94.9844C62.0542 94.5469 61.7729 93.9688 61.7 93.25ZM68.7 91.2656C68.7 90.2448 68.8042 89.4271 69.0125 88.8125C69.2208 88.1875 69.5281 87.7083 69.9344 87.375C70.351 87.0417 70.8719 86.875 71.4969 86.875C71.9552 86.875 72.3562 86.9688 72.7 87.1562C73.0542 87.3438 73.3458 87.6146 73.575 87.9688C73.8042 88.3125 73.9812 88.7344 74.1062 89.2344C74.2312 89.7344 74.2937 90.4115 74.2937 91.2656C74.2937 92.276 74.1896 93.0885 73.9812 93.7031C73.7833 94.3177 73.476 94.7969 73.0594 95.1406C72.6531 95.474 72.1323 95.6406 71.4969 95.6406C70.674 95.6406 70.0229 95.3438 69.5437 94.75C68.9812 94.0417 68.7 92.8802 68.7 91.2656ZM69.7781 91.2656C69.7781 92.6719 69.9448 93.6094 70.2781 94.0781C70.6115 94.5469 71.0177 94.7812 71.4969 94.7812C71.9865 94.7812 72.3927 94.5469 72.7156 94.0781C73.049 93.6094 73.2156 92.6719 73.2156 91.2656C73.2156 89.849 73.049 88.9115 72.7156 88.4531C72.3927 87.9844 71.9812 87.75 71.4812 87.75C71.0021 87.75 70.6167 87.9531 70.325 88.3594C69.9604 88.8802 69.7781 89.849 69.7781 91.2656ZM75.7 91.2656C75.7 90.2448 75.8042 89.4271 76.0125 88.8125C76.2208 88.1875 76.5281 87.7083 76.9344 87.375C77.351 87.0417 77.8719 86.875 78.4969 86.875C78.9552 86.875 79.3562 86.9688 79.7 87.1562C80.0542 87.3438 80.3458 87.6146 80.575 87.9688C80.8042 88.3125 80.9812 88.7344 81.1062 89.2344C81.2312 89.7344 81.2937 90.4115 81.2937 91.2656C81.2937 92.276 81.1896 93.0885 80.9812 93.7031C80.7833 94.3177 80.476 94.7969 80.0594 95.1406C79.6531 95.474 79.1323 95.6406 78.4969 95.6406C77.674 95.6406 77.0229 95.3438 76.5437 94.75C75.9812 94.0417 75.7 92.8802 75.7 91.2656ZM76.7781 91.2656C76.7781 92.6719 76.9448 93.6094 77.2781 94.0781C77.6115 94.5469 78.0177 94.7812 78.4969 94.7812C78.9865 94.7812 79.3927 94.5469 79.7156 94.0781C80.049 93.6094 80.2156 92.6719 80.2156 91.2656C80.2156 89.849 80.049 88.9115 79.7156 88.4531C79.3927 87.9844 78.9812 87.75 78.4812 87.75C78.0021 87.75 77.6167 87.9531 77.325 88.3594C76.9604 88.8802 76.7781 89.849 76.7781 91.2656ZM82.7 91.2656C82.7 90.2448 82.8042 89.4271 83.0125 88.8125C83.2208 88.1875 83.5281 87.7083 83.9344 87.375C84.351 87.0417 84.8719 86.875 85.4969 86.875C85.9552 86.875 86.3562 86.9688 86.7 87.1562C87.0542 87.3438 87.3458 87.6146 87.575 87.9688C87.8042 88.3125 87.9812 88.7344 88.1062 89.2344C88.2312 89.7344 88.2937 90.4115 88.2937 91.2656C88.2937 92.276 88.1896 93.0885 87.9812 93.7031C87.7833 94.3177 87.476 94.7969 87.0594 95.1406C86.6531 95.474 86.1323 95.6406 85.4969 95.6406C84.674 95.6406 84.0229 95.3438 83.5437 94.75C82.9812 94.0417 82.7 92.8802 82.7 91.2656ZM83.7781 91.2656C83.7781 92.6719 83.9448 93.6094 84.2781 94.0781C84.6115 94.5469 85.0177 94.7812 85.4969 94.7812C85.9865 94.7812 86.3927 94.5469 86.7156 94.0781C87.049 93.6094 87.2156 92.6719 87.2156 91.2656C87.2156 89.849 87.049 88.9115 86.7156 88.4531C86.3927 87.9844 85.9812 87.75 85.4812 87.75C85.0021 87.75 84.6167 87.9531 84.325 88.3594C83.9604 88.8802 83.7781 89.849 83.7781 91.2656Z" fill="black"/>
<path d="M173.975 386.8V384.737H170.256V383.769L174.178 378.206H175.038V383.769H176.194V384.737H175.038V386.8H173.975ZM173.975 383.769V379.909L171.288 383.769H173.975ZM180.975 386.8V384.737H177.256V383.769L181.178 378.206H182.038V383.769H183.194V384.737H182.038V386.8H180.975ZM180.975 383.769V379.909L178.288 383.769H180.975ZM184.6 382.565C184.6 381.545 184.704 380.727 184.913 380.112C185.121 379.487 185.428 379.008 185.834 378.675C186.251 378.341 186.772 378.175 187.397 378.175C187.855 378.175 188.256 378.269 188.6 378.456C188.954 378.644 189.246 378.914 189.475 379.269C189.704 379.612 189.881 380.034 190.006 380.534C190.131 381.034 190.194 381.711 190.194 382.565C190.194 383.576 190.09 384.388 189.881 385.003C189.683 385.618 189.376 386.097 188.959 386.44C188.553 386.774 188.032 386.94 187.397 386.94C186.574 386.94 185.923 386.644 185.444 386.05C184.881 385.341 184.6 384.18 184.6 382.565ZM185.678 382.565C185.678 383.972 185.845 384.909 186.178 385.378C186.511 385.847 186.918 386.081 187.397 386.081C187.886 386.081 188.293 385.847 188.616 385.378C188.949 384.909 189.116 383.972 189.116 382.565C189.116 381.149 188.949 380.211 188.616 379.753C188.293 379.284 187.881 379.05 187.381 379.05C186.902 379.05 186.517 379.253 186.225 379.659C185.86 380.18 185.678 381.149 185.678 382.565ZM191.6 382.565C191.6 381.545 191.704 380.727 191.913 380.112C192.121 379.487 192.428 379.008 192.834 378.675C193.251 378.341 193.772 378.175 194.397 378.175C194.855 378.175 195.256 378.269 195.6 378.456C195.954 378.644 196.246 378.914 196.475 379.269C196.704 379.612 196.881 380.034 197.006 380.534C197.131 381.034 197.194 381.711 197.194 382.565C197.194 383.576 197.09 384.388 196.881 385.003C196.683 385.618 196.376 386.097 195.959 386.44C195.553 386.774 195.032 386.94 194.397 386.94C193.574 386.94 192.923 386.644 192.444 386.05C191.881 385.341 191.6 384.18 191.6 382.565ZM192.678 382.565C192.678 383.972 192.845 384.909 193.178 385.378C193.511 385.847 193.918 386.081 194.397 386.081C194.886 386.081 195.293 385.847 195.616 385.378C195.949 384.909 196.116 383.972 196.116 382.565C196.116 381.149 195.949 380.211 195.616 379.753C195.293 379.284 194.881 379.05 194.381 379.05C193.902 379.05 193.517 379.253 193.225 379.659C192.86 380.18 192.678 381.149 192.678 382.565ZM198.6 382.565C198.6 381.545 198.704 380.727 198.913 380.112C199.121 379.487 199.428 379.008 199.834 378.675C200.251 378.341 200.772 378.175 201.397 378.175C201.855 378.175 202.256 378.269 202.6 378.456C202.954 378.644 203.246 378.914 203.475 379.269C203.704 379.612 203.881 380.034 204.006 380.534C204.131 381.034 204.194 381.711 204.194 382.565C204.194 383.576 204.09 384.388 203.881 385.003C203.683 385.618 203.376 386.097 202.959 386.44C202.553 386.774 202.032 386.94 201.397 386.94C200.574 386.94 199.923 386.644 199.444 386.05C198.881 385.341 198.6 384.18 198.6 382.565ZM199.678 382.565C199.678 383.972 199.845 384.909 200.178 385.378C200.511 385.847 200.918 386.081 201.397 386.081C201.886 386.081 202.293 385.847 202.616 385.378C202.949 384.909 203.116 383.972 203.116 382.565C203.116 381.149 202.949 380.211 202.616 379.753C202.293 379.284 201.881 379.05 201.381 379.05C200.902 379.05 200.517 379.253 200.225 379.659C199.86 380.18 199.678 381.149 199.678 382.565Z" fill="black"/>
<path d="M293.975 386.8V384.737H290.256V383.769L294.178 378.206H295.038V383.769H296.194V384.737H295.038V386.8H293.975ZM293.975 383.769V379.909L291.288 383.769H293.975ZM300.975 386.8V384.737H297.256V383.769L301.178 378.206H302.038V383.769H303.194V384.737H302.038V386.8H300.975ZM300.975 383.769V379.909L298.288 383.769H300.975ZM310.147 385.784V386.8H304.459C304.459 386.55 304.501 386.305 304.584 386.065C304.73 385.68 304.959 385.3 305.272 384.925C305.595 384.55 306.058 384.118 306.663 383.628C307.6 382.857 308.23 382.248 308.553 381.8C308.886 381.352 309.053 380.93 309.053 380.534C309.053 380.118 308.902 379.769 308.6 379.487C308.298 379.196 307.907 379.05 307.428 379.05C306.918 379.05 306.511 379.201 306.209 379.503C305.907 379.805 305.751 380.227 305.741 380.769L304.663 380.659C304.735 379.847 305.011 379.232 305.491 378.815C305.98 378.388 306.636 378.175 307.459 378.175C308.282 378.175 308.933 378.404 309.413 378.862C309.892 379.321 310.131 379.888 310.131 380.565C310.131 380.909 310.058 381.248 309.913 381.581C309.777 381.904 309.543 382.253 309.209 382.628C308.886 382.993 308.35 383.493 307.6 384.128C306.965 384.659 306.553 385.024 306.366 385.222C306.189 385.409 306.043 385.597 305.928 385.784H310.147ZM311.6 382.565C311.6 381.545 311.704 380.727 311.913 380.112C312.121 379.487 312.428 379.008 312.834 378.675C313.251 378.341 313.772 378.175 314.397 378.175C314.855 378.175 315.256 378.269 315.6 378.456C315.954 378.644 316.246 378.914 316.475 379.269C316.704 379.612 316.881 380.034 317.006 380.534C317.131 381.034 317.194 381.711 317.194 382.565C317.194 383.576 317.09 384.388 316.881 385.003C316.683 385.618 316.376 386.097 315.959 386.44C315.553 386.774 315.032 386.94 314.397 386.94C313.574 386.94 312.923 386.644 312.444 386.05C311.881 385.341 311.6 384.18 311.6 382.565ZM312.678 382.565C312.678 383.972 312.845 384.909 313.178 385.378C313.511 385.847 313.918 386.081 314.397 386.081C314.886 386.081 315.293 385.847 315.616 385.378C315.949 384.909 316.116 383.972 316.116 382.565C316.116 381.149 315.949 380.211 315.616 379.753C315.293 379.284 314.881 379.05 314.381 379.05C313.902 379.05 313.517 379.253 313.225 379.659C312.86 380.18 312.678 381.149 312.678 382.565ZM318.6 382.565C318.6 381.545 318.704 380.727 318.913 380.112C319.121 379.487 319.428 379.008 319.834 378.675C320.251 378.341 320.772 378.175 321.397 378.175C321.855 378.175 322.256 378.269 322.6 378.456C322.954 378.644 323.246 378.914 323.475 379.269C323.704 379.612 323.881 380.034 324.006 380.534C324.131 381.034 324.194 381.711 324.194 382.565C324.194 383.576 324.09 384.388 323.881 385.003C323.683 385.618 323.376 386.097 322.959 386.44C322.553 386.774 322.032 386.94 321.397 386.94C320.574 386.94 319.923 386.644 319.444 386.05C318.881 385.341 318.6 384.18 318.6 382.565ZM319.678 382.565C319.678 383.972 319.845 384.909 320.178 385.378C320.511 385.847 320.918 386.081 321.397 386.081C321.886 386.081 322.293 385.847 322.616 385.378C322.949 384.909 323.116 383.972 323.116 382.565C323.116 381.149 322.949 380.211 322.616 379.753C322.293 379.284 321.881 379.05 321.381 379.05C320.902 379.05 320.517 379.253 320.225 379.659C319.86 380.18 319.678 381.149 319.678 382.565Z" fill="black"/>
<path d="M413.975 386.8V384.737H410.256V383.769L414.178 378.206H415.038V383.769H416.194V384.737H415.038V386.8H413.975ZM413.975 383.769V379.909L411.288 383.769H413.975ZM420.975 386.8V384.737H417.256V383.769L421.178 378.206H422.038V383.769H423.194V384.737H422.038V386.8H420.975ZM420.975 383.769V379.909L418.288 383.769H420.975ZM427.975 386.8V384.737H424.256V383.769L428.178 378.206H429.038V383.769H430.194V384.737H429.038V386.8H427.975ZM427.975 383.769V379.909L425.288 383.769H427.975ZM431.6 382.565C431.6 381.545 431.704 380.727 431.913 380.112C432.121 379.487 432.428 379.008 432.834 378.675C433.251 378.341 433.772 378.175 434.397 378.175C434.855 378.175 435.256 378.269 435.6 378.456C435.954 378.644 436.246 378.914 436.475 379.269C436.704 379.612 436.881 380.034 437.006 380.534C437.131 381.034 437.194 381.711 437.194 382.565C437.194 383.576 437.09 384.388 436.881 385.003C436.683 385.618 436.376 386.097 435.959 386.44C435.553 386.774 435.032 386.94 434.397 386.94C433.574 386.94 432.923 386.644 432.444 386.05C431.881 385.341 431.6 384.18 431.6 382.565ZM432.678 382.565C432.678 383.972 432.845 384.909 433.178 385.378C433.511 385.847 433.918 386.081 434.397 386.081C434.886 386.081 435.293 385.847 435.616 385.378C435.949 384.909 436.116 383.972 436.116 382.565C436.116 381.149 435.949 380.211 435.616 379.753C435.293 379.284 434.881 379.05 434.381 379.05C433.902 379.05 433.517 379.253 433.225 379.659C432.86 380.18 432.678 381.149 432.678 382.565ZM438.6 382.565C438.6 381.545 438.704 380.727 438.913 380.112C439.121 379.487 439.428 379.008 439.834 378.675C440.251 378.341 440.772 378.175 441.397 378.175C441.855 378.175 442.256 378.269 442.6 378.456C442.954 378.644 443.246 378.914 443.475 379.269C443.704 379.612 443.881 380.034 444.006 380.534C444.131 381.034 444.194 381.711 444.194 382.565C444.194 383.576 444.09 384.388 443.881 385.003C443.683 385.618 443.376 386.097 442.959 386.44C442.553 386.774 442.032 386.94 441.397 386.94C440.574 386.94 439.923 386.644 439.444 386.05C438.881 385.341 438.6 384.18 438.6 382.565ZM439.678 382.565C439.678 383.972 439.845 384.909 440.178 385.378C440.511 385.847 440.918 386.081 441.397 386.081C441.886 386.081 442.293 385.847 442.616 385.378C442.949 384.909 443.116 383.972 443.116 382.565C443.116 381.149 442.949 380.211 442.616 379.753C442.293 379.284 441.881 379.05 441.381 379.05C440.902 379.05 440.517 379.253 440.225 379.659C439.86 380.18 439.678 381.149 439.678 382.565Z" fill="black"/>
<path d="M533.975 386.8V384.737H530.256V383.769L534.178 378.206H535.037V383.769H536.194V384.737H535.037V386.8H533.975ZM533.975 383.769V379.909L531.287 383.769H533.975ZM540.975 386.8V384.737H537.256V383.769L541.178 378.206H542.037V383.769H543.194V384.737H542.037V386.8H540.975ZM540.975 383.769V379.909L538.287 383.769H540.975ZM550.069 380.315L549.022 380.394C548.928 379.977 548.798 379.675 548.631 379.487C548.34 379.185 547.985 379.034 547.569 379.034C547.235 379.034 546.939 379.128 546.678 379.315C546.355 379.565 546.095 379.925 545.897 380.394C545.709 380.852 545.61 381.508 545.6 382.362C545.85 381.977 546.157 381.69 546.522 381.503C546.897 381.315 547.287 381.222 547.694 381.222C548.392 381.222 548.985 381.482 549.475 382.003C549.975 382.524 550.225 383.19 550.225 384.003C550.225 384.545 550.105 385.05 549.866 385.519C549.636 385.977 549.319 386.331 548.912 386.581C548.506 386.821 548.048 386.94 547.537 386.94C546.652 386.94 545.933 386.618 545.381 385.972C544.829 385.326 544.553 384.263 544.553 382.784C544.553 381.118 544.86 379.909 545.475 379.159C546.006 378.503 546.725 378.175 547.631 378.175C548.308 378.175 548.86 378.368 549.287 378.753C549.725 379.128 549.985 379.649 550.069 380.315ZM545.772 384.019C545.772 384.383 545.845 384.732 545.991 385.065C546.147 385.388 546.36 385.638 546.631 385.815C546.912 385.993 547.209 386.081 547.522 386.081C547.959 386.081 548.34 385.904 548.662 385.55C548.985 385.185 549.147 384.696 549.147 384.081C549.147 383.487 548.985 383.019 548.662 382.675C548.35 382.331 547.954 382.159 547.475 382.159C546.996 382.159 546.59 382.331 546.256 382.675C545.933 383.019 545.772 383.466 545.772 384.019ZM551.6 382.565C551.6 381.545 551.704 380.727 551.912 380.112C552.121 379.487 552.428 379.008 552.834 378.675C553.251 378.341 553.772 378.175 554.397 378.175C554.855 378.175 555.256 378.269 555.6 378.456C555.954 378.644 556.246 378.914 556.475 379.269C556.704 379.612 556.881 380.034 557.006 380.534C557.131 381.034 557.194 381.711 557.194 382.565C557.194 383.576 557.09 384.388 556.881 385.003C556.683 385.618 556.376 386.097 555.959 386.44C555.553 386.774 555.032 386.94 554.397 386.94C553.574 386.94 552.923 386.644 552.444 386.05C551.881 385.341 551.6 384.18 551.6 382.565ZM552.678 382.565C552.678 383.972 552.845 384.909 553.178 385.378C553.511 385.847 553.918 386.081 554.397 386.081C554.886 386.081 555.293 385.847 555.616 385.378C555.949 384.909 556.116 383.972 556.116 382.565C556.116 381.149 555.949 380.211 555.616 379.753C555.293 379.284 554.881 379.05 554.381 379.05C553.902 379.05 553.517 379.253 553.225 379.659C552.86 380.18 552.678 381.149 552.678 382.565ZM558.6 382.565C558.6 381.545 558.704 380.727 558.912 380.112C559.121 379.487 559.428 379.008 559.834 378.675C560.251 378.341 560.772 378.175 561.397 378.175C561.855 378.175 562.256 378.269 562.6 378.456C562.954 378.644 563.246 378.914 563.475 379.269C563.704 379.612 563.881 380.034 564.006 380.534C564.131 381.034 564.194 381.711 564.194 382.565C564.194 383.576 564.09 384.388 563.881 385.003C563.683 385.618 563.376 386.097 562.959 386.44C562.553 386.774 562.032 386.94 561.397 386.94C560.574 386.94 559.923 386.644 559.444 386.05C558.881 385.341 558.6 384.18 558.6 382.565ZM559.678 382.565C559.678 383.972 559.845 384.909 560.178 385.378C560.511 385.847 560.918 386.081 561.397 386.081C561.886 386.081 562.293 385.847 562.616 385.378C562.949 384.909 563.116 383.972 563.116 382.565C563.116 381.149 562.949 380.211 562.616 379.753C562.293 379.284 561.881 379.05 561.381 379.05C560.902 379.05 560.517 379.253 560.225 379.659C559.86 380.18 559.678 381.149 559.678 382.565Z" fill="black"/>
<path d="M653.975 386.8V384.737H650.256V383.769L654.178 378.206H655.037V383.769H656.194V384.737H655.037V386.8H653.975ZM653.975 383.769V379.909L651.287 383.769H653.975ZM660.975 386.8V384.737H657.256V383.769L661.178 378.206H662.037V383.769H663.194V384.737H662.037V386.8H660.975ZM660.975 383.769V379.909L658.287 383.769H660.975ZM666.225 382.144C665.787 381.977 665.459 381.748 665.241 381.456C665.032 381.154 664.928 380.8 664.928 380.394C664.928 379.769 665.152 379.243 665.6 378.815C666.058 378.388 666.657 378.175 667.397 378.175C668.147 378.175 668.751 378.394 669.209 378.831C669.668 379.269 669.897 379.8 669.897 380.425C669.897 380.821 669.793 381.164 669.584 381.456C669.376 381.748 669.058 381.977 668.631 382.144C669.162 382.31 669.564 382.586 669.834 382.972C670.105 383.357 670.241 383.815 670.241 384.347C670.241 385.076 669.98 385.69 669.459 386.19C668.949 386.69 668.267 386.94 667.412 386.94C666.569 386.94 665.886 386.69 665.366 386.19C664.845 385.69 664.584 385.065 664.584 384.315C664.584 383.753 664.725 383.284 665.006 382.909C665.298 382.534 665.704 382.279 666.225 382.144ZM666.006 380.347C666.006 380.753 666.136 381.086 666.397 381.347C666.668 381.607 667.011 381.737 667.428 381.737C667.834 381.737 668.168 381.612 668.428 381.362C668.689 381.102 668.819 380.784 668.819 380.409C668.819 380.024 668.683 379.701 668.412 379.44C668.142 379.17 667.808 379.034 667.412 379.034C667.006 379.034 666.668 379.164 666.397 379.425C666.136 379.685 666.006 379.993 666.006 380.347ZM665.678 384.315C665.678 384.618 665.746 384.909 665.881 385.19C666.027 385.472 666.241 385.69 666.522 385.847C666.803 386.003 667.105 386.081 667.428 386.081C667.928 386.081 668.34 385.92 668.662 385.597C668.996 385.274 669.162 384.862 669.162 384.362C669.162 383.852 668.996 383.43 668.662 383.097C668.329 382.763 667.907 382.597 667.397 382.597C666.897 382.597 666.485 382.763 666.162 383.097C665.84 383.42 665.678 383.826 665.678 384.315ZM671.6 382.565C671.6 381.545 671.704 380.727 671.912 380.112C672.121 379.487 672.428 379.008 672.834 378.675C673.251 378.341 673.772 378.175 674.397 378.175C674.855 378.175 675.256 378.269 675.6 378.456C675.954 378.644 676.246 378.914 676.475 379.269C676.704 379.612 676.881 380.034 677.006 380.534C677.131 381.034 677.194 381.711 677.194 382.565C677.194 383.576 677.09 384.388 676.881 385.003C676.683 385.618 676.376 386.097 675.959 386.44C675.553 386.774 675.032 386.94 674.397 386.94C673.574 386.94 672.923 386.644 672.444 386.05C671.881 385.341 671.6 384.18 671.6 382.565ZM672.678 382.565C672.678 383.972 672.845 384.909 673.178 385.378C673.511 385.847 673.918 386.081 674.397 386.081C674.886 386.081 675.293 385.847 675.616 385.378C675.949 384.909 676.116 383.972 676.116 382.565C676.116 381.149 675.949 380.211 675.616 379.753C675.293 379.284 674.881 379.05 674.381 379.05C673.902 379.05 673.517 379.253 673.225 379.659C672.86 380.18 672.678 381.149 672.678 382.565ZM678.6 382.565C678.6 381.545 678.704 380.727 678.912 380.112C679.121 379.487 679.428 379.008 679.834 378.675C680.251 378.341 680.772 378.175 681.397 378.175C681.855 378.175 682.256 378.269 682.6 378.456C682.954 378.644 683.246 378.914 683.475 379.269C683.704 379.612 683.881 380.034 684.006 380.534C684.131 381.034 684.194 381.711 684.194 382.565C684.194 383.576 684.09 384.388 683.881 385.003C683.683 385.618 683.376 386.097 682.959 386.44C682.553 386.774 682.032 386.94 681.397 386.94C680.574 386.94 679.923 386.644 679.444 386.05C678.881 385.341 678.6 384.18 678.6 382.565ZM679.678 382.565C679.678 383.972 679.845 384.909 680.178 385.378C680.511 385.847 680.918 386.081 681.397 386.081C681.886 386.081 682.293 385.847 682.616 385.378C682.949 384.909 683.116 383.972 683.116 382.565C683.116 381.149 682.949 380.211 682.616 379.753C682.293 379.284 681.881 379.05 681.381 379.05C680.902 379.05 680.517 379.253 680.225 379.659C679.86 380.18 679.678 381.149 679.678 382.565Z" fill="black"/>
<path d="M576.847 65.5127V66.7002H570.222C570.211 66.4085 570.258 66.1221 570.363 65.8408C570.54 65.3929 570.81 64.9502 571.175 64.5127C571.55 64.0752 572.086 63.57 572.784 62.9971C573.878 62.1012 574.613 61.3929 574.988 60.8721C575.373 60.3512 575.566 59.8564 575.566 59.3877C575.566 58.8981 575.389 58.4867 575.034 58.1533C574.691 57.82 574.243 57.6533 573.691 57.6533C573.097 57.6533 572.618 57.8304 572.253 58.1846C571.899 58.5387 571.722 59.0335 571.722 59.6689L570.456 59.5283C570.54 58.5908 570.862 57.8773 571.425 57.3877C571.998 56.8877 572.758 56.6377 573.706 56.6377C574.675 56.6377 575.435 56.9033 575.988 57.4346C576.55 57.9658 576.831 58.6273 576.831 59.4189C576.831 59.8252 576.748 60.221 576.581 60.6064C576.425 60.9919 576.154 61.3981 575.769 61.8252C575.394 62.2523 574.764 62.8408 573.878 63.5908C573.139 64.2054 572.665 64.6273 572.456 64.8564C572.248 65.0752 572.076 65.2939 571.941 65.5127H576.847ZM578.378 61.7627C578.378 60.5752 578.498 59.6221 578.738 58.9033C578.988 58.1742 579.352 57.6169 579.831 57.2314C580.31 56.8356 580.915 56.6377 581.644 56.6377C582.185 56.6377 582.659 56.7471 583.066 56.9658C583.472 57.1846 583.805 57.4971 584.066 57.9033C584.336 58.3096 584.545 58.8044 584.691 59.3877C584.836 59.971 584.909 60.7627 584.909 61.7627C584.909 62.9398 584.79 63.8877 584.55 64.6064C584.31 65.3252 583.951 65.8825 583.472 66.2783C582.993 66.6742 582.383 66.8721 581.644 66.8721C580.685 66.8721 579.93 66.5231 579.378 65.8252C578.711 64.9919 578.378 63.6377 578.378 61.7627ZM579.644 61.7627C579.644 63.4085 579.836 64.5023 580.222 65.0439C580.607 65.5856 581.081 65.8564 581.644 65.8564C582.217 65.8564 582.696 65.5856 583.081 65.0439C583.467 64.4919 583.659 63.3981 583.659 61.7627C583.659 60.1064 583.467 59.0075 583.081 58.4658C582.696 57.9242 582.211 57.6533 581.628 57.6533C581.066 57.6533 580.618 57.8929 580.284 58.3721C579.857 58.9867 579.644 60.1169 579.644 61.7627ZM592.847 65.5127V66.7002H586.222C586.211 66.4085 586.258 66.1221 586.363 65.8408C586.54 65.3929 586.81 64.9502 587.175 64.5127C587.55 64.0752 588.086 63.57 588.784 62.9971C589.878 62.1012 590.613 61.3929 590.988 60.8721C591.373 60.3512 591.566 59.8564 591.566 59.3877C591.566 58.8981 591.389 58.4867 591.034 58.1533C590.691 57.82 590.243 57.6533 589.691 57.6533C589.097 57.6533 588.618 57.8304 588.253 58.1846C587.899 58.5387 587.722 59.0335 587.722 59.6689L586.456 59.5283C586.54 58.5908 586.862 57.8773 587.425 57.3877C587.998 56.8877 588.758 56.6377 589.706 56.6377C590.675 56.6377 591.435 56.9033 591.988 57.4346C592.55 57.9658 592.831 58.6273 592.831 59.4189C592.831 59.8252 592.748 60.221 592.581 60.6064C592.425 60.9919 592.154 61.3981 591.769 61.8252C591.394 62.2523 590.764 62.8408 589.878 63.5908C589.139 64.2054 588.665 64.6273 588.456 64.8564C588.248 65.0752 588.076 65.2939 587.941 65.5127H592.847ZM600.847 65.5127V66.7002H594.222C594.211 66.4085 594.258 66.1221 594.363 65.8408C594.54 65.3929 594.81 64.9502 595.175 64.5127C595.55 64.0752 596.086 63.57 596.784 62.9971C597.878 62.1012 598.613 61.3929 598.988 60.8721C599.373 60.3512 599.566 59.8564 599.566 59.3877C599.566 58.8981 599.389 58.4867 599.034 58.1533C598.691 57.82 598.243 57.6533 597.691 57.6533C597.097 57.6533 596.618 57.8304 596.253 58.1846C595.899 58.5387 595.722 59.0335 595.722 59.6689L594.456 59.5283C594.54 58.5908 594.862 57.8773 595.425 57.3877C595.998 56.8877 596.758 56.6377 597.706 56.6377C598.675 56.6377 599.435 56.9033 599.988 57.4346C600.55 57.9658 600.831 58.6273 600.831 59.4189C600.831 59.8252 600.748 60.221 600.581 60.6064C600.425 60.9919 600.154 61.3981 599.769 61.8252C599.394 62.2523 598.764 62.8408 597.878 63.5908C597.139 64.2054 596.665 64.6273 596.456 64.8564C596.248 65.0752 596.076 65.2939 595.941 65.5127H600.847Z" fill="#999999"/>
<path d="M606.175 58.1689C605.487 59.3669 604.633 60.3669 603.612 61.1689L602.847 60.1846C604.336 59.0908 605.357 57.5075 605.909 55.4346L607.159 55.7627C607.305 55.9085 607.253 55.9971 607.003 56.0283L606.566 57.1221H614.269V58.1689H610.284V60.0283H613.566V61.0596H610.284V63.5283H614.878V64.5596H610.284V67.8564H609.191V64.5596H602.894V63.5283H605.362V60.0283H609.191V58.1689H606.175ZM606.456 63.5283H609.191V61.0596H606.456V63.5283Z" fill="#999999"/>
<path d="M616.566 64.3877L617.753 64.2783C617.847 64.8304 618.034 65.2314 618.316 65.4814C618.607 65.7314 618.972 65.8564 619.409 65.8564C619.784 65.8564 620.112 65.7731 620.394 65.6064C620.685 65.4294 620.92 65.195 621.097 64.9033C621.284 64.6117 621.441 64.221 621.566 63.7314C621.691 63.2419 621.753 62.7419 621.753 62.2314C621.753 62.1794 621.748 62.096 621.737 61.9814C621.498 62.3773 621.165 62.7002 620.737 62.9502C620.31 63.1898 619.847 63.3096 619.347 63.3096C618.514 63.3096 617.81 63.0075 617.237 62.4033C616.665 61.7992 616.378 61.0075 616.378 60.0283C616.378 59.0075 616.675 58.1898 617.269 57.5752C617.873 56.9502 618.628 56.6377 619.534 56.6377C620.18 56.6377 620.774 56.8148 621.316 57.1689C621.857 57.5127 622.269 58.0127 622.55 58.6689C622.831 59.3148 622.972 60.2523 622.972 61.4814C622.972 62.7627 622.831 63.7835 622.55 64.5439C622.279 65.3044 621.868 65.8825 621.316 66.2783C620.764 66.6742 620.118 66.8721 619.378 66.8721C618.597 66.8721 617.956 66.6533 617.456 66.2158C616.967 65.7783 616.67 65.1689 616.566 64.3877ZM621.597 59.9658C621.597 59.2575 621.409 58.695 621.034 58.2783C620.659 57.8617 620.211 57.6533 619.691 57.6533C619.139 57.6533 618.659 57.8773 618.253 58.3252C617.847 58.7731 617.644 59.3512 617.644 60.0596C617.644 60.695 617.836 61.2158 618.222 61.6221C618.607 62.0179 619.081 62.2158 619.644 62.2158C620.217 62.2158 620.685 62.0179 621.05 61.6221C621.415 61.2158 621.597 60.6637 621.597 59.9658Z" fill="#999999"/>
<path d="M633.706 63.5283H628.503C628.503 65.0908 627.701 66.57 626.097 67.9658L625.175 66.9189C626.665 65.971 627.409 64.5492 627.409 62.6533V55.9814H634.8V66.7627C634.8 67.346 634.487 67.6377 633.862 67.6377H632.55L632.331 66.4189H633.487C633.633 66.4189 633.706 66.346 633.706 66.2002V63.5283ZM628.503 62.3252H633.706V60.3564H628.503V62.3252ZM628.503 59.1533H633.706V57.1846H628.503V59.1533Z" fill="#999999"/>
<path d="M644.847 65.5127V66.7002H638.222C638.211 66.4085 638.258 66.1221 638.363 65.8408C638.54 65.3929 638.81 64.9502 639.175 64.5127C639.55 64.0752 640.086 63.57 640.784 62.9971C641.878 62.1012 642.613 61.3929 642.988 60.8721C643.373 60.3512 643.566 59.8564 643.566 59.3877C643.566 58.8981 643.389 58.4867 643.034 58.1533C642.691 57.82 642.243 57.6533 641.691 57.6533C641.097 57.6533 640.618 57.8304 640.253 58.1846C639.899 58.5387 639.722 59.0335 639.722 59.6689L638.456 59.5283C638.54 58.5908 638.862 57.8773 639.425 57.3877C639.998 56.8877 640.758 56.6377 641.706 56.6377C642.675 56.6377 643.435 56.9033 643.988 57.4346C644.55 57.9658 644.831 58.6273 644.831 59.4189C644.831 59.8252 644.748 60.221 644.581 60.6064C644.425 60.9919 644.154 61.3981 643.769 61.8252C643.394 62.2523 642.764 62.8408 641.878 63.5908C641.139 64.2054 640.665 64.6273 640.456 64.8564C640.248 65.0752 640.076 65.2939 639.941 65.5127H644.847ZM646.566 64.3877L647.753 64.2783C647.847 64.8304 648.034 65.2314 648.316 65.4814C648.607 65.7314 648.972 65.8564 649.409 65.8564C649.784 65.8564 650.113 65.7731 650.394 65.6064C650.685 65.4294 650.92 65.195 651.097 64.9033C651.284 64.6117 651.441 64.221 651.566 63.7314C651.691 63.2419 651.753 62.7419 651.753 62.2314C651.753 62.1794 651.748 62.096 651.738 61.9814C651.498 62.3773 651.165 62.7002 650.738 62.9502C650.31 63.1898 649.847 63.3096 649.347 63.3096C648.514 63.3096 647.81 63.0075 647.238 62.4033C646.665 61.7992 646.378 61.0075 646.378 60.0283C646.378 59.0075 646.675 58.1898 647.269 57.5752C647.873 56.9502 648.628 56.6377 649.534 56.6377C650.18 56.6377 650.774 56.8148 651.316 57.1689C651.857 57.5127 652.269 58.0127 652.55 58.6689C652.831 59.3148 652.972 60.2523 652.972 61.4814C652.972 62.7627 652.831 63.7835 652.55 64.5439C652.279 65.3044 651.868 65.8825 651.316 66.2783C650.764 66.6742 650.118 66.8721 649.378 66.8721C648.597 66.8721 647.956 66.6533 647.456 66.2158C646.967 65.7783 646.67 65.1689 646.566 64.3877ZM651.597 59.9658C651.597 59.2575 651.409 58.695 651.034 58.2783C650.659 57.8617 650.211 57.6533 649.691 57.6533C649.139 57.6533 648.659 57.8773 648.253 58.3252C647.847 58.7731 647.644 59.3512 647.644 60.0596C647.644 60.695 647.836 61.2158 648.222 61.6221C648.607 62.0179 649.081 62.2158 649.644 62.2158C650.217 62.2158 650.685 62.0179 651.05 61.6221C651.415 61.2158 651.597 60.6637 651.597 59.9658Z" fill="#999999"/>
<path d="M657.8 67.2002H656.534V56.6377H665.128V66.9814H663.862V66.2002H657.8V67.2002ZM663.862 60.7939V57.6689H657.8V60.7939H663.862ZM663.862 65.1689V61.8252H657.8V65.1689H663.862ZM678.081 59.8564H680.659V60.7314H678.362V61.9971H680.222V62.8721H678.362V64.1846H680.222V65.0596H678.362V66.4189H681.097V67.3096H675.566V67.8564H674.644V61.7783C674.352 62.1742 673.987 62.5387 673.55 62.8721L673.159 61.8252C674.545 60.5856 675.441 59.2939 675.847 57.9502H674.581V59.2002H673.659V57.0752H676.066C676.211 56.4919 676.336 55.8721 676.441 55.2158L677.534 55.4814C677.649 55.596 677.612 55.7054 677.425 55.8096C677.321 56.2471 677.211 56.6689 677.097 57.0752H680.987V58.9814H680.05V57.9502H676.878C676.659 58.7106 676.368 59.346 676.003 59.8564H677.159L677.862 58.2158L678.909 58.4346C679.086 58.5075 679.05 58.6012 678.8 58.7158L678.081 59.8564ZM668.847 57.3408V56.3096H673.487V57.3408H671.581C671.508 58.4762 671.269 59.5179 670.862 60.4658H673.003V66.9814H672.066V66.0908H670.644V67.5283H669.722V62.5908C669.503 62.9554 669.264 63.2835 669.003 63.5752L668.3 62.6533C669.571 61.2262 670.316 59.4554 670.534 57.3408H668.847ZM675.566 62.8721V64.1846H677.425V62.8721H675.566ZM675.566 60.7314V61.9971H677.425V60.7314H675.566ZM675.566 65.0596V66.4189H677.425V65.0596H675.566ZM670.644 61.3408V65.2158H672.066V61.3408H670.644ZM687.222 61.4502C688.566 61.0856 689.42 60.3721 689.784 59.3096L688.316 58.7158L688.691 57.7783L690.003 58.2783L690.112 56.9658H687.816V55.9189H694.378L694.269 60.6221C694.237 61.5387 693.857 61.9971 693.128 61.9971H691.862L691.753 60.9502H692.909C693.128 60.9502 693.237 60.8408 693.237 60.6221L693.347 56.9658H691.206L691.05 58.7158L692.362 59.4189L691.862 60.4033L690.769 59.8096C690.3 61.1533 689.264 62.0648 687.659 62.5439L687.222 61.4502ZM694.159 66.9189C693.868 65.8252 693.415 64.8773 692.8 64.0752L693.784 63.6377C694.586 64.6169 695.097 65.5439 695.316 66.4189L694.159 66.9189ZM686.831 63.4658V67.6846H685.909V67.3096H684.05V67.9033H683.112V63.4658H686.831ZM687.269 66.9814C687.529 66.0648 687.696 65.0231 687.769 63.8564L688.862 63.9658C688.935 63.9971 688.899 64.0856 688.753 64.2314C688.711 65.3981 688.545 66.4033 688.253 67.2471L687.269 66.9814ZM690.769 61.6689C691.279 61.9919 691.79 62.5544 692.3 63.3564L691.269 63.9658C691.008 63.4554 690.571 62.8721 689.956 62.2158L690.769 61.6689ZM683.331 55.7002H686.612V56.7471H683.331V55.7002ZM682.628 57.5596H687.331V58.6064H682.628V57.5596ZM683.331 59.5908H686.612V60.6221H683.331V59.5908ZM683.331 61.4502H686.612V62.4814H683.331V61.4502ZM684.05 64.3408V66.4189H685.909V64.3408H684.05ZM690.222 63.3096C690.514 63.3408 690.534 63.4502 690.284 63.6377V66.2002C690.284 66.4606 690.394 66.5908 690.612 66.5908H691.816C692.034 66.5908 692.159 66.4814 692.191 66.2627L692.3 65.3877L693.394 65.6533L693.175 66.8096C693.071 67.3617 692.743 67.6377 692.191 67.6377H690.112C689.498 67.6377 689.191 67.3044 689.191 66.6377V63.3096H690.222Z" fill="#999999"/>
<path d="M34.8562 30.1064C33.8667 31.4606 32.2781 32.2939 30.0906 32.6064L29.5437 31.0439C31.9917 30.6794 33.45 29.8981 33.9187 28.7002H29.9344V27.2158H33.9969V25.1846H35.4812C35.8979 25.2367 35.924 25.3929 35.5594 25.6533V27.2158H39.9344V28.7002H35.6375C36.4187 29.7939 37.9552 30.5231 40.2469 30.8877L39.8562 32.5283C37.5646 32.1637 35.8979 31.3564 34.8562 30.1064ZM39.2312 34.3252V41.8252C39.2312 42.5023 38.8927 42.8408 38.2156 42.8408H36.0281L35.7156 41.3564H37.3562C37.5646 41.3564 37.6687 41.2523 37.6687 41.0439V34.3252H29.075V32.8408H40.8719V34.3252H39.2312ZM25.5594 29.8721V25.7314H27.0437C27.4604 25.7835 27.4865 25.9398 27.1219 26.2002V29.8721H29.075V31.3564H27.1219V37.5283L29.4656 36.8252V38.3877L24.1531 40.2627C24.101 40.6794 23.9708 40.7835 23.7625 40.5752L23.1375 38.6221L25.5594 37.9971V31.3564H23.45V29.8721H25.5594ZM31.8094 40.1846V40.8877H30.4812V35.6533H35.8719V40.1846H31.8094ZM31.8094 38.9346H34.5437V36.9033H31.8094V38.9346ZM52.9031 28.3096V32.6846H58.8406V34.4033H52.9031V39.8721H60.6375V41.5908H43.8406V39.8721H51.1062V34.4033H45.7156V32.6846H51.1062V28.3096H44.7781V26.5908H59.9344V28.3096H52.9031ZM55.4812 34.8721C56.4708 35.5492 57.4083 36.5387 58.2937 37.8408L56.575 39.0127C55.8458 37.8148 55.0125 36.7992 54.075 35.9658L55.4812 34.8721ZM76.1844 37.6064C77.226 38.6481 78.7625 39.6898 80.7937 40.7314L79.8562 42.3721C78.0854 41.5387 76.4187 40.3408 74.8562 38.7783L76.1844 37.6064ZM69.3875 39.0127C68.5021 40.2627 67.1479 41.4867 65.325 42.6846L64.1531 41.2002C65.8198 40.2106 67.1479 39.0387 68.1375 37.6846L69.6219 38.5439C69.8823 38.7523 69.8042 38.9085 69.3875 39.0127ZM66.1844 36.9814V37.7627H64.6219V26.5127H66.1062C66.5229 26.5648 66.549 26.721 66.1844 26.9814V35.4971H80.5594V36.9814H73.2937V42.9971H71.4969V36.9814H66.1844ZM69.6219 33.2314H76.4187V31.7471H69.6219V33.2314ZM69.6219 30.4971H76.4187V29.2471H69.6219V30.4971ZM69.6219 27.9971H76.4187V26.7471H69.6219V27.9971ZM68.0594 34.4814V25.4971H77.9812V34.4814H68.0594ZM92.9812 30.1846C92.0958 35.3929 91.0281 38.6221 89.7781 39.8721C89.101 40.5492 88.3979 40.8877 87.6687 40.8877C86.8354 40.8877 86.1844 40.6533 85.7156 40.1846C84.4656 38.9346 83.8406 37.3721 83.8406 35.4971C83.8406 33.2054 84.6479 31.2523 86.2625 29.6377C88.0333 27.8669 90.1948 26.9814 92.7469 26.9814C95.0385 26.9814 96.8354 27.6325 98.1375 28.9346C99.5958 30.3929 100.325 32.1117 100.325 34.0908C100.325 36.2262 99.6479 37.971 98.2937 39.3252C97.4083 40.2106 96.0542 41.07 94.2312 41.9033L92.5906 40.2627C94.4135 39.6898 95.8458 38.8825 96.8875 37.8408C97.8771 36.8512 98.3719 35.6533 98.3719 34.2471C98.3719 32.5804 97.825 31.2002 96.7312 30.1064C95.6375 29.0127 93.9187 28.5179 91.575 28.6221L92.9812 29.3252C93.6062 29.5856 93.6062 29.8721 92.9812 30.1846ZM91.1844 28.7002C89.8302 29.0127 88.6583 29.6637 87.6687 30.6533C86.3146 32.0075 85.6375 33.6742 85.6375 35.6533C85.6375 36.8512 86.0281 37.8408 86.8094 38.6221C86.9656 38.7783 87.2 38.8564 87.5125 38.8564C87.825 38.8564 88.1635 38.6742 88.5281 38.3096C89.726 37.1117 90.6115 33.9085 91.1844 28.7002ZM110.325 41.5127C112.46 40.3669 113.528 38.4137 113.528 35.6533V26.6689L115.169 26.9814L119.387 25.6533L120.559 27.2158C120.664 27.5283 120.481 27.5804 120.012 27.3721L115.091 28.3096V31.6689H121.262V33.1533H118.919V42.9189H117.356V33.1533H115.091V36.1221C115.091 39.195 113.789 41.4867 111.184 42.9971L110.325 41.5127ZM108.841 42.9971H107.278V38.3096C106.445 39.6637 105.533 40.7314 104.544 41.5127L103.372 40.1064C104.83 39.0648 106.054 37.7627 107.044 36.2002H103.762V34.7158H107.278V32.9971H103.294V31.5127H108.762L109.622 28.7002H103.841V27.2158H107.278V25.0283H108.762C109.179 25.0804 109.205 25.2367 108.841 25.4971V27.2158H112.278V28.7002H111.262L110.169 31.5127H112.669V32.9971H108.841V34.7158H112.278V36.2002H108.841V36.9033C109.57 37.1117 110.585 37.6585 111.887 38.5439L110.95 40.1064C110.221 39.3773 109.518 38.8044 108.841 38.3877V42.9971ZM105.716 31.3564C105.507 30.6273 105.221 29.9242 104.856 29.2471L106.341 28.7783C106.757 29.4554 107.07 30.1585 107.278 30.8877L105.716 31.3564ZM138.45 33.5439H133.372V35.2627H138.45V33.5439ZM136.341 36.7471H134.934V37.5283C134.934 40.7575 133.085 42.6585 129.387 43.2314L128.919 41.5908C131.887 41.2262 133.372 39.82 133.372 37.3721V36.7471H132.591H131.809V25.8096H140.012V36.7471H137.903V40.6533C137.903 41.07 138.085 41.2783 138.45 41.2783H139.231C139.492 41.2783 139.648 41.0179 139.7 40.4971L139.856 39.1689L141.419 39.6377L141.184 41.4346C141.08 42.32 140.585 42.7627 139.7 42.7627H137.747C136.809 42.7627 136.341 42.32 136.341 41.4346V36.7471ZM133.372 32.0596H138.45V30.4189H133.372V32.0596ZM133.372 28.9346H138.45V27.2939H133.372V28.9346ZM127.747 35.8877C128.789 36.3564 130.012 37.2158 131.419 38.4658L130.325 40.1064C129.231 38.9085 128.268 38.0231 127.434 37.4502C126.914 39.7419 125.82 41.5387 124.153 42.8408L122.981 41.4346C125.273 39.5075 126.367 37.0075 126.262 33.9346H123.294V32.4502H126.341V29.6377H123.841V28.1533H126.341V25.0283H127.825C128.242 25.0804 128.268 25.2367 127.903 25.4971V28.1533H130.637V29.6377H127.903V32.4502H131.028V33.9346H127.825C127.825 34.7679 127.799 35.4189 127.747 35.8877ZM147.825 32.1377C148.815 33.4919 149.309 34.8981 149.309 36.3564C149.309 38.3877 148.71 39.4033 147.512 39.4033H146.575L146.262 37.8408H147.044C147.565 37.8408 147.799 37.2939 147.747 36.2002C147.695 34.6898 147.226 33.3617 146.341 32.2158L147.903 27.1377H145.481V42.7627H143.919V25.8877H148.294L148.606 25.4971L149.934 26.6689L149.622 26.9814L147.825 32.1377ZM159.153 36.5127H158.372C157.539 40.3148 154.752 42.5023 150.012 43.0752L149.544 41.5908C153.606 41.2783 156.054 39.5856 156.887 36.5127H155.794C154.908 38.7002 153.033 40.0283 150.169 40.4971L149.7 39.1689C152.096 38.6481 153.58 37.7627 154.153 36.5127H152.903C152.174 37.2419 151.236 37.8148 150.091 38.2314L149.466 36.9033C151.132 36.3825 152.278 35.3929 152.903 33.9346H149.387V32.6846H161.106V33.9346H154.544C154.335 34.4033 154.075 34.846 153.762 35.2627H160.637L160.481 40.1846C160.429 41.8512 159.83 42.6846 158.684 42.6846H157.122L156.887 41.2002H158.216C158.684 41.2002 158.945 40.8877 158.997 40.2627L159.153 36.5127ZM152.512 30.4189H157.825V29.0908H152.512V30.4189ZM152.512 27.8408H157.825V26.5908H152.512V27.8408ZM159.153 25.3408V31.6689H151.184V25.3408H159.153ZM172.434 29.3252H174.544V25.2627H176.028C176.445 25.3148 176.471 25.471 176.106 25.7314V29.3252H180.325V30.8096H176.106V34.5596H180.091V36.0439H176.106V40.6533H181.262V42.1377H169.309V40.6533H174.544V36.0439H170.716V34.5596H174.544V30.8096H171.966C171.601 31.8512 171.028 32.8929 170.247 33.9346L168.919 32.9189C170.273 31.1481 171.158 29.0127 171.575 26.5127L173.059 26.8252C173.476 26.9814 173.476 27.1377 173.059 27.2939L172.434 29.3252ZM165.794 25.0283H167.278C167.695 25.0804 167.721 25.2367 167.356 25.4971V42.8408H165.794V25.0283ZM168.762 28.2314C169.231 28.8564 169.622 29.5596 169.934 30.3408L168.684 31.2002C168.32 30.3148 167.955 29.5856 167.591 29.0127L168.762 28.2314ZM165.325 29.0908C165.69 29.195 165.69 29.3512 165.325 29.5596C165.221 31.2262 164.986 32.7887 164.622 34.2471L163.137 33.7783C163.554 32.4762 163.789 30.8356 163.841 28.8564L165.325 29.0908ZM198.137 33.6221V42.6846H196.575V41.9033H189.544V42.9189H187.981V35.8096C186.627 36.5387 185.169 37.1117 183.606 37.5283L183.059 36.1221C184.518 35.7575 186.158 35.1064 187.981 34.1689V33.6221H189.075C190.169 32.9971 191.106 32.3721 191.887 31.7471H183.684V30.2627H190.559V28.3877H185.716V26.9033H190.559V25.0283H192.044C192.46 25.0804 192.486 25.2367 192.122 25.4971V26.9033H195.872V28.2314C196.497 27.5544 197.122 26.7992 197.747 25.9658L198.841 26.6689C199.205 26.9294 199.153 27.0856 198.684 27.1377C197.695 28.3356 196.705 29.3773 195.716 30.2627H201.106V31.7471H194.075C193.033 32.6325 192.2 33.2575 191.575 33.6221H198.137ZM193.606 30.2627C194.231 29.7939 194.934 29.1689 195.716 28.3877H192.122V30.2627H193.606ZM189.544 36.9814H196.575V34.8721H189.544V36.9814ZM189.544 40.6533H196.575V38.2314H189.544V40.6533ZM216.731 36.9033C217.46 35.4971 217.903 33.3617 218.059 30.4971H215.403C215.559 33.3617 216.002 35.4971 216.731 36.9033ZM219.622 30.4971C219.518 33.7262 218.893 36.3304 217.747 38.3096C218.58 39.3512 219.752 40.2627 221.262 41.0439L220.247 42.7627C218.58 41.6689 217.408 40.6273 216.731 39.6377C215.533 40.9919 213.684 42.1637 211.184 43.1533L210.403 41.5908C213.111 40.4971 214.908 39.3773 215.794 38.2314C214.908 36.5127 214.414 34.7939 214.309 33.0752C213.997 33.8564 213.684 34.4554 213.372 34.8721L212.044 33.8564C213.606 31.5648 214.544 28.7262 214.856 25.3408L216.497 25.7314C216.809 25.9398 216.731 26.096 216.262 26.2002C216.106 27.1377 215.898 28.0752 215.637 29.0127H220.95V30.4971H219.622ZM212.356 26.7471C212.044 27.5283 211.679 28.1794 211.262 28.7002L210.012 27.9971C210.429 27.32 210.82 26.5387 211.184 25.6533L212.591 26.3564C212.799 26.5648 212.721 26.695 212.356 26.7471ZM207.356 37.7627C208.085 37.971 208.736 38.2054 209.309 38.4658C209.726 37.9971 210.065 37.2939 210.325 36.3564H208.059C207.851 36.8252 207.617 37.2939 207.356 37.7627ZM206.262 39.7158L205.012 39.0127C205.533 38.2314 206.054 37.346 206.575 36.3564H203.606V35.1064H207.044C207.356 34.4294 207.591 33.8564 207.747 33.3877L209.231 33.7783C209.44 33.9867 209.361 34.1169 208.997 34.1689L208.528 35.1064H212.981V36.3564H211.809C211.549 37.3981 211.158 38.2835 210.637 39.0127C211.106 39.221 211.601 39.4814 212.122 39.7939L211.419 41.0439C210.846 40.6794 210.325 40.3929 209.856 40.1846C208.502 41.5387 206.679 42.3721 204.387 42.6846L203.841 41.2783C205.872 41.07 207.434 40.4971 208.528 39.5596C207.955 39.2992 207.382 39.0648 206.809 38.8564L206.262 39.7158ZM207.825 25.0283H209.075C209.492 25.0804 209.518 25.2367 209.153 25.4971V28.8564H213.137V30.1064H209.856C210.429 30.7835 211.315 31.4346 212.512 32.0596L211.653 33.3877C210.768 32.8669 209.934 32.1377 209.153 31.2002V33.0752H207.825V31.5908C206.992 32.6325 205.846 33.57 204.387 34.4033L203.372 33.1533C204.986 32.32 206.315 31.3044 207.356 30.1064H203.762V28.8564H207.825V25.0283ZM205.637 28.6221C205.273 27.8408 204.804 27.1637 204.231 26.5908L205.481 25.8096C206.106 26.4346 206.575 27.0856 206.887 27.7627L205.637 28.6221ZM232.981 30.1846C232.096 35.3929 231.028 38.6221 229.778 39.8721C229.101 40.5492 228.398 40.8877 227.669 40.8877C226.835 40.8877 226.184 40.6533 225.716 40.1846C224.466 38.9346 223.841 37.3721 223.841 35.4971C223.841 33.2054 224.648 31.2523 226.262 29.6377C228.033 27.8669 230.195 26.9814 232.747 26.9814C235.039 26.9814 236.835 27.6325 238.137 28.9346C239.596 30.3929 240.325 32.1117 240.325 34.0908C240.325 36.2262 239.648 37.971 238.294 39.3252C237.408 40.2106 236.054 41.07 234.231 41.9033L232.591 40.2627C234.414 39.6898 235.846 38.8825 236.887 37.8408C237.877 36.8512 238.372 35.6533 238.372 34.2471C238.372 32.5804 237.825 31.2002 236.731 30.1064C235.637 29.0127 233.919 28.5179 231.575 28.6221L232.981 29.3252C233.606 29.5856 233.606 29.8721 232.981 30.1846ZM231.184 28.7002C229.83 29.0127 228.658 29.6637 227.669 30.6533C226.315 32.0075 225.637 33.6742 225.637 35.6533C225.637 36.8512 226.028 37.8408 226.809 38.6221C226.966 38.7783 227.2 38.8564 227.512 38.8564C227.825 38.8564 228.164 38.6742 228.528 38.3096C229.726 37.1117 230.611 33.9085 231.184 28.7002ZM248.762 31.8252C250.481 30.2106 251.809 27.8669 252.747 24.7939L254.309 25.2627C254.57 25.471 254.518 25.6012 254.153 25.6533C253.736 26.695 253.32 27.6585 252.903 28.5439H255.247C255.82 27.346 256.263 26.2783 256.575 25.3408L258.059 25.8877C258.268 26.096 258.19 26.2262 257.825 26.2783C257.46 27.1117 257.096 27.8669 256.731 28.5439H260.716V30.0283H256.731V32.4502H259.934V33.9346H256.731V36.4346H259.934V37.9189H256.731V40.8096H261.184V42.2939H252.591V42.9971H251.028V31.6689C250.664 32.1898 250.273 32.6585 249.856 33.0752L248.762 31.8252ZM244.856 42.8408L244.544 41.3564H245.872C246.08 41.3564 246.184 41.2523 246.184 41.0439V36.2002L244.153 36.6689C244.101 37.0335 243.971 37.1117 243.762 36.9033L243.45 35.1064L246.184 34.5596V30.4189H243.762V28.9346H246.184V24.9502H247.669C248.085 25.0023 248.111 25.1585 247.747 25.4189V28.9346H249.778V30.4189H247.747V34.2471L249.778 33.7002L250.012 35.1064L247.747 35.8096V41.5908C247.747 42.4242 247.33 42.8408 246.497 42.8408H244.856ZM252.591 40.8096H255.169V37.9189H252.591V40.8096ZM252.591 36.4346H255.169V33.9346H252.591V36.4346ZM252.591 32.4502H255.169V30.0283H252.591V32.4502ZM278.841 27.1377L279.075 26.8252L280.325 27.8408L280.091 28.0752C278.736 30.4189 277.408 31.9814 276.106 32.7627L276.888 32.9971C277.252 33.1533 277.226 33.3096 276.809 33.4658C276.705 33.8304 276.575 34.1429 276.419 34.4033H279.778L280.012 34.0908L281.419 35.1064L281.106 35.4189C279.44 39.846 276.054 42.346 270.95 42.9189L270.325 41.4346C272.773 41.1742 274.7 40.5231 276.106 39.4814C275.377 38.7523 274.648 38.1273 273.919 37.6064C273.242 38.1794 272.33 38.7002 271.184 39.1689L270.481 37.7627C273.033 36.721 274.7 35.1325 275.481 32.9971C274.7 33.7262 273.294 34.3512 271.263 34.8721L270.559 33.4658C272.539 33.0492 274.023 32.5023 275.013 31.8252C274.492 31.2002 273.867 30.6533 273.138 30.1846C272.773 30.5492 272.408 30.8617 272.044 31.1221L270.95 29.9502C272.669 28.4919 273.763 26.9294 274.231 25.2627L275.638 25.7314C276.002 25.8877 275.976 26.0439 275.559 26.2002C275.507 26.5127 275.377 26.8252 275.169 27.1377H278.841ZM268.216 30.1846H270.794V31.6689H268.216V33.6221C269.257 34.0908 270.247 34.7939 271.184 35.7314L270.169 37.1377C269.335 36.3044 268.684 35.7054 268.216 35.3408V42.9189H266.653V35.1846C266.341 36.2262 265.481 37.5544 264.075 39.1689L262.903 37.6846C264.83 35.8617 266.028 33.8564 266.497 31.6689H263.45V30.1846H266.653V27.6064C265.611 27.7627 264.674 27.8929 263.841 27.9971L263.45 26.5127C265.533 26.3044 267.695 25.8877 269.934 25.2627L270.794 26.4346C271.002 26.7471 270.872 26.8512 270.403 26.7471C269.674 26.9554 268.945 27.1377 268.216 27.2939V30.1846ZM273.919 29.2471C274.7 29.6637 275.455 30.1846 276.184 30.8096C276.966 30.0804 277.617 29.2731 278.138 28.3877H274.544C274.335 28.7523 274.127 29.0387 273.919 29.2471ZM274.778 36.6689C275.507 37.0856 276.341 37.7106 277.278 38.5439C278.059 37.971 278.736 37.0075 279.309 35.6533H275.716C275.403 36.07 275.091 36.4085 274.778 36.6689ZM286.809 29.3252C287.382 28.1273 288.346 26.9033 289.7 25.6533L290.559 26.4346C289.257 27.6325 288.346 28.7783 287.825 29.8721C287.252 31.07 286.966 32.5023 286.966 34.1689C286.966 35.5752 287.252 36.9033 287.825 38.1533C288.346 39.2992 289.257 40.5752 290.559 41.9814L289.7 42.8408C288.398 41.3825 287.434 40.0023 286.809 38.7002C286.132 37.2939 285.794 35.7835 285.794 34.1689C285.794 32.346 286.132 30.7314 286.809 29.3252ZM297.903 41.9033H296.106V26.8252H308.372V41.5908H306.575V40.4971H297.903V41.9033ZM306.575 32.7627V28.3096H297.903V32.7627H306.575ZM306.575 39.0127V34.2471H297.903V39.0127H306.575ZM321.341 35.8096H318.372C317.903 38.7783 316.497 41.1221 314.153 42.8408L313.372 41.3564C315.664 39.7419 316.914 37.346 317.122 34.1689L317.278 31.7471H316.184V32.7627H314.622V26.0439H322.512V32.4502H320.95V31.7471H318.684L318.528 34.3252H322.903L322.512 40.4971C322.408 41.7471 321.888 42.3721 320.95 42.3721H318.841L318.606 40.8877H320.325C320.794 40.8877 321.054 40.6273 321.106 40.1064L321.341 35.8096ZM329.778 41.2002C329.778 42.0856 329.361 42.5283 328.528 42.5283H326.809L326.497 41.0439H327.981C328.138 41.0439 328.216 40.9658 328.216 40.8096V25.8096H329.7C330.117 25.8617 330.143 26.0179 329.778 26.2783V41.2002ZM326.028 27.6846C326.445 27.7367 326.471 27.8929 326.106 28.1533V38.8564H324.544V27.6846H326.028ZM320.95 30.4971V27.2939H316.184V30.4971H320.95ZM337.512 38.7002C336.887 40.0023 335.924 41.3825 334.622 42.8408L333.762 41.9814C335.065 40.5752 335.976 39.2992 336.497 38.1533C337.07 36.9033 337.356 35.5752 337.356 34.1689C337.356 32.5023 337.07 31.07 336.497 29.8721C335.976 28.7783 335.065 27.6325 333.762 26.4346L334.622 25.6533C335.976 26.9033 336.94 28.1273 337.512 29.3252C338.19 30.7314 338.528 32.346 338.528 34.1689C338.528 35.7835 338.19 37.2939 337.512 38.7002Z" fill="#757575"/>
</g>
<rect x="2" y="2" width="714" height="440" stroke="black" stroke-width="4"/>
<defs>
<clipPath id="clip0_7_31150">
<rect width="718" height="444" fill="white"/>
</clipPath>
</defs>
</svg>
