<svg width="718" height="444" viewBox="0 0 718 444" fill="none" xmlns="http://www.w3.org/2000/svg">
<g clip-path="url(#clip0_7_34250)">
<path d="M0 0H718V444H0V0Z" fill="white"/>
<path d="M181.5 91.5V369.5" stroke="#CCCCCC" stroke-miterlimit="10"/>
<path d="M303.5 91.5V369.5" stroke="#CCCCCC" stroke-miterlimit="10"/>
<path d="M424.5 91.5V369.5" stroke="#CCCCCC" stroke-miterlimit="10"/>
<path d="M545.5 91.5V369.5" stroke="#CCCCCC" stroke-miterlimit="10"/>
<path d="M667.5 91.5V369.5" stroke="#CCCCCC" stroke-miterlimit="10"/>
<path d="M88.5 369.5H695.5" stroke="#333333" stroke-miterlimit="10"/>
<path d="M88.5 300.5H695.5" stroke="#CCCCCC" stroke-miterlimit="10"/>
<path d="M88.5 230.5H695.5" stroke="#CCCCCC" stroke-miterlimit="10"/>
<path d="M88.5 161.5H695.5" stroke="#CCCCCC" stroke-miterlimit="10"/>
<path d="M88.5 91.5H695.5" stroke="#CCCCCC" stroke-miterlimit="10"/>
<path d="M88.2 369.8H88.807H89.414H90.021H90.628H91.235H91.842H92.449H93.0559H93.6629H94.2699H94.8769H95.4839H96.0909H96.6979H97.3049H97.9119H98.5189H99.1259H99.7329H100.34H100.947H101.554H102.161H102.768H103.375H103.982H104.589H105.196H105.803H106.41H107.017H107.624H108.231H108.838H109.445H110.052H110.659H111.266H111.873H112.48H113.087H113.694L114.301 369.765L114.908 369.8H115.515H116.122H116.729H117.336H117.943H118.55H119.157H119.764H120.371L120.978 369.765L121.585 369.8L122.192 369.765L122.799 369.8H123.406H124.013H124.62H125.227H125.834H126.441H127.048H127.655H128.262H128.869H129.476H130.083H130.69H131.297H131.904H132.51L133.117 369.661L133.724 369.765L134.331 369.661L134.938 369.765L135.545 369.73L136.152 369.765L136.759 369.8H137.366L137.973 369.626H138.58H139.187H139.794L140.401 369.73H141.008L141.615 369.626L142.222 369.765H142.829L143.436 369.8L144.043 369.73L144.65 369.8L145.257 369.696L145.864 369.8H146.471L147.078 369.661L147.685 369.765H148.292H148.899H149.506H150.113L150.72 369.626L151.327 369.765L151.934 369.696L152.541 369.73L153.148 369.8H153.755H154.362H154.969H155.576H156.183H156.79H157.397H158.004H158.611H159.218H159.825H160.432H161.039H161.646H162.253H162.86H163.467H164.074L164.681 369.765L165.288 369.8H165.895L166.502 369.765L167.109 369.8H167.716H168.323L168.93 369.765L169.537 369.8H170.144H170.751H171.358H171.965H172.572H173.179H173.786H174.393H175H175.607H176.214L176.821 369.765H177.428L178.035 369.8H178.642H179.249H179.856L180.463 369.765H181.07L181.677 369.8L182.284 369.765L182.891 369.8H183.498H184.105H184.712H185.319H185.926H186.533H187.14H187.747L188.354 369.765L188.961 369.8H189.568H190.175L190.782 369.626L191.389 369.8H191.996H192.603L193.21 369.73L193.817 369.765L194.424 369.73L195.031 369.765L195.638 369.8L196.245 369.73L196.852 369.8L197.459 369.73L198.066 369.765L198.673 369.73L199.28 369.696L199.887 369.73L200.494 369.661L201.101 369.765L201.708 369.626H202.315H202.922L203.529 369.556L204.136 368.756L204.743 368.93L205.35 369.313L205.957 369.174L206.564 369.243H207.171L207.778 369.139L208.385 369.104L208.992 369.174L209.599 369.73L210.206 369.243L210.813 369.487H211.42L212.027 369.73L212.634 369.556L213.241 369.383L213.848 369.591L214.455 369.556L215.062 369.452L215.669 369.696L216.276 369.487L216.883 369.417L217.49 369.556L218.096 369.765L218.703 369.556L219.31 369.591L219.917 369.73L220.524 369.8L221.131 369.591L221.738 369.626H222.345L222.952 369.556H223.559L224.166 369.383L224.773 369.591L225.38 369.73L225.987 369.8H226.594L227.201 369.73H227.808L228.415 369.765L229.022 369.73L229.629 369.556L230.236 369.8H230.843H231.45L232.057 369.626L232.664 369.661L233.271 369.765L233.878 369.8H234.485H235.092L235.699 369.73L236.306 369.626L236.913 369.696L237.52 369.626L238.127 369.73L238.734 369.696L239.341 369.8H239.948H240.555H241.162L241.769 369.661H242.376L242.983 369.73L243.59 369.8L244.197 369.73L244.804 369.556H245.411L246.018 369.696L246.625 369.591L247.232 369.765L247.839 369.8H248.446L249.053 369.591L249.66 369.765L250.267 369.8L250.874 369.765L251.481 369.8L252.088 369.765L252.695 369.8L253.302 369.765L253.909 369.661L254.516 369.696H255.123L255.73 369.8L256.337 369.73L256.944 369.8L257.551 369.696L258.158 369.73L258.765 369.696L259.372 369.661L259.979 369.8L260.586 369.661L261.193 369.487L261.8 369.278L262.407 369.243L263.014 369.452H263.621L264.228 369.661L264.835 369.765L265.442 369.313L266.049 369.626L266.656 369.452L267.263 369.209L267.87 368.756L268.477 369.348L269.084 369.591L269.691 369.243L270.298 369.069L270.905 369.348L271.512 369.243L272.119 368.548L272.726 368.965L273.333 369.383L273.94 369.278L274.547 367.191L275.154 367.26L275.761 367.747L276.368 367.713L276.975 368.269L277.582 368.165L278.189 368.861L278.796 367.887L279.403 367.295L280.01 367.782L280.617 366.982L281.224 367.504L281.831 368.339H282.438L283.045 367.782L283.652 367.574L284.259 368.374L284.866 368.617L285.473 368.408L286.08 368.582L286.687 369.104L287.294 368.478L287.901 368.234L288.508 368.93L289.115 368.478L289.722 368.617L290.329 368.861L290.936 368.965L291.543 368.722L292.15 368.513L292.757 368.965L293.364 368.756L293.971 369.278L294.578 369.348L295.185 368.756L295.792 368.582L296.399 368.478L297.006 368.826L297.613 368.722L298.22 368.965L298.827 369.383L299.434 368.861L300.041 368.2L300.648 368.861L301.255 368.548L301.862 368.374L302.469 368.791L303.076 368.617H303.683L304.29 366.773L304.897 366.947L305.504 366.599L306.111 365.765L306.717 365.382L307.324 367.956L307.931 368.443L308.538 366.599L309.145 365.973L309.752 366.669L310.359 366.808L310.966 367.469L311.573 368.861L312.18 368.408L312.787 367.156L313.394 367.713L314.001 367.365L314.608 368.374L315.215 368.026L315.822 368.687L316.429 368.234L317.036 367.713L317.643 366.704L318.25 368.478L318.857 368.095L319.464 369.278L320.071 369.174L320.678 369.035L321.285 368.965L321.892 369.035L322.499 368.617L323.106 368.861L323.713 369.417L324.32 369.556L324.927 369.069L325.534 369.452L326.141 369.278L326.748 369.522L327.355 369.278L327.962 369L328.569 369.452L329.176 369.278L329.783 368.687L330.39 369L330.997 368.548L331.604 369.035L332.211 369.174L332.818 369.383L333.425 368.722L334.032 368.896L334.639 369.452L335.246 369.174L335.853 368.896L336.46 369.278L337.067 369.452L337.674 369.174L338.281 369.069L338.888 369.487L339.495 369L340.102 369.487L340.709 368.965L341.316 369.383L341.923 369.313L342.53 368.061L343.137 368.861L343.744 369.209L344.351 369.174L344.958 369.626L345.565 369.522L346.172 368.93L346.779 369.487L347.386 369.348H347.993L348.6 369L349.207 369.522L349.814 369.591L350.421 369.035L351.028 368.861L351.635 369.035L352.242 368.652L352.849 368.93L353.456 369.209L354.063 369.104L354.67 369.139L355.277 368.756L355.884 368.93L356.491 368.756L357.098 368.443L357.705 369.035L358.312 369.487L358.919 369.383L359.526 369.069L360.133 368.756L360.74 369L361.347 369.209L361.954 368.965L362.561 369.417L363.168 369.209L363.775 368.339L364.382 368.304L364.989 368.687L365.596 368.93L366.203 369.069L366.81 369.313L367.417 369.035L368.024 368.965L368.631 369L369.238 368.826L369.845 368.861L370.452 368.93L371.059 369.522L371.666 368.722L372.273 368.965L372.88 367.887L373.487 368.93L374.094 368.582L374.701 368.061L375.308 369.139L375.915 368.304L376.522 368.652L377.129 368.791L377.736 368.13L378.343 367.539L378.95 367.991L379.557 367.887L380.164 367.469L380.771 366.669L381.378 365.556L381.985 366.391L382.592 365.625L383.199 366.878L383.806 368.165L384.413 367.365L385.02 367.226L385.627 367.747L386.234 367.574L386.841 366.773L387.448 367.4L388.055 368.095L388.662 367.643L389.269 367.052H389.876L390.483 367.887L391.09 367.782L391.697 368.339L392.304 368.791L392.911 368.304L393.518 368.408L394.124 368.269L394.731 368.617L395.338 368.061L395.945 368.478L396.552 369L397.159 368.965L397.766 368.374L398.373 368.443L398.98 368.408L399.587 368.861L400.194 368.756L400.801 369.452L401.408 369L402.015 368.687L402.622 368.652L403.229 368.756L403.836 368.826L404.443 369.209L405.05 369.278L405.657 369.174L406.264 368.478L406.871 368.826L407.478 368.13L408.085 368.548L408.692 368.722L409.299 369.417L409.906 368.965L410.513 368.791L411.12 368.513L411.727 369.069L412.334 369.174L412.941 369.348H413.548L414.155 368.965L414.762 368.652L415.369 368.617L415.976 368.304L416.583 368.513L417.19 369.348L417.797 369.104L418.404 368.269L419.011 368.408L419.618 368.304L420.225 368.339L420.832 368.861L421.439 369.069L422.046 369.383L422.653 368.165L423.26 367.817L423.867 367.087L424.474 367.921L425.081 367.782L425.688 367.295L426.295 367.782L426.902 366.356L427.509 365.625L428.116 366.043L428.723 365.591L429.33 363.956L429.937 366.495L430.544 367.295L431.151 364.269L431.758 362.773L432.365 363.503L432.972 362.008L433.579 361.59L434.186 362.634L434.793 364.13L435.4 363.643L436.007 359.781L436.614 357.485L437.221 356.615L437.828 358.738L438.435 356.128L439.042 361.207L439.649 354.667L440.256 349.275L440.863 346.284L441.47 348.232L442.077 347.814L442.684 353.137L443.291 358.633L443.898 350.841L444.505 347.606L445.112 350.736L445.719 347.536L446.326 348.823L446.933 352.441L447.54 361.451L448.147 353.276L448.754 353.102L449.361 354.876L449.968 355.189L450.575 359.329L451.182 362.112L451.789 365.104L452.396 362.39L453.003 362.147L453.61 363.782L454.217 363.677L454.824 365.138L455.431 366.356L456.038 368.095L456.645 364.964L457.252 363.677L457.859 364.338L458.466 366.495L459.073 366.947L459.68 368.13L460.287 369.104L460.894 369.209L461.501 367.434L462.108 367.539L462.715 368.861H463.322L463.929 368.687L464.536 369.313L465.143 368.478L465.75 368.652L466.357 368.93L466.964 369.313L467.571 369.139L468.178 369.661L468.785 369.591L469.392 369.661L469.999 369.313L470.606 369.522L471.213 369.591L471.82 369.487L472.427 369.626H473.034L473.641 369.661L474.248 369.626L474.855 369.661L475.462 369.591H476.069L476.676 369.661H477.283L477.89 369.591L478.497 369.556L479.104 369.661L479.71 369.8L480.317 369.765L480.924 369.73L481.531 369.8L482.138 369.765H482.745H483.352L483.959 369.73L484.566 369.696L485.173 369.765L485.78 369.8L486.387 369.696L486.994 369.626L487.601 369.8L488.208 369.765L488.815 369.73H489.422L490.029 369.8L490.636 369.626L491.243 369.765H491.85L492.457 369.73L493.064 369.522L493.671 369.8H494.278L494.885 369.73H495.492L496.099 369.8H496.706H497.313L497.92 369.765L498.527 369.8L499.134 369.696L499.741 369.8L500.348 369.73L500.955 369.8H501.562H502.169H502.776L503.383 369.765L503.99 369.73H504.597H505.204L505.811 369.522L506.418 369.8H507.025L507.632 369.522H508.239L508.846 369.487L509.453 369.522L510.06 369.452L510.667 369.765H511.274L511.881 369.417L512.488 369.73L513.095 369.661L513.702 369.696L514.309 369.8L514.916 369.765H515.523L516.13 369.556L516.737 369.73H517.344L517.951 369.765L518.558 369.73L519.165 369.8H519.772L520.379 369.626H520.986L521.593 369.73L522.2 369.696L522.807 369.661H523.414L524.021 369.626L524.628 369.696L525.235 368.965L525.842 368.408L526.449 366.599L527.056 364.93L527.663 365.556L528.27 367.295L528.877 367.678L529.484 360.79L530.091 354.702L530.698 350.771L531.305 348.51L531.912 350.702L532.519 359.12L533.126 343.709L533.733 332.543L534.34 328.298L534.947 328.055L535.554 325.829L536.161 333.343L536.768 348.858L537.375 311.983L537.982 316.958L538.589 314.975L539.196 315.601L539.803 311.427L540.41 328.194L541.017 349.588L541.624 300.608L542.231 306.73L542.838 314.279L543.445 315.288L544.052 307.287L544.659 329.133L545.266 351.223L545.873 293.685L546.48 304.191L547.087 316.123L547.694 315.149L548.301 343.814L548.908 319.288L549.515 347.466L550.122 300.19L550.729 308.887L551.336 321.237L551.943 323.289L552.55 319.184L553.157 334.595L553.764 350.876L554.371 303.565L554.978 304.713L555.585 349.867L556.192 311.218L556.799 316.506L557.406 333.447L558.013 354.563L558.62 314.418L559.227 315.253L559.834 327.29L560.441 329.481L561.048 328.02L561.655 337.691L562.262 356.685L562.869 313.618L563.476 319.532L564.083 330.073L564.689 331.568L565.296 325.62L565.903 336.682L566.51 358.946L567.117 313.862L567.724 317.688L568.331 335.047L568.938 337.517L569.545 342.561L570.152 347.292L570.759 359.364L571.366 361.277L571.973 328.403L572.58 332.229L573.187 340.996L573.794 338.109L574.401 347.919L575.008 361.312L575.615 323.463L576.222 328.959L576.829 333.169H577.436L578.043 335.465L578.65 344.544L579.257 358.772L579.864 328.751L580.471 329.099L581.078 334.734L581.685 338.387L582.292 335.256L582.899 343.396L583.506 358.494L584.113 329.516L584.72 330.525L585.327 338.665L585.934 342.422L586.541 341.866L587.148 351.363L587.755 362.738L588.362 337.308L588.969 334.351L589.576 339.083L590.183 346.005L590.79 342.527L591.397 353.937L592.004 362.251L592.611 339.465L593.218 340.961L593.825 346.805L594.432 348.336L595.039 363.225L595.646 356.233L596.253 363.538L596.86 341.344L597.467 359.051L598.074 358.946L598.681 359.085L599.288 329.307L599.895 340.613L600.502 357.137L601.109 319.845L601.716 328.264L602.323 334.734L602.93 338.561L603.537 336.926L604.144 344.022L604.751 361.416L605.358 322.489L605.965 329.864L606.572 336.856L607.179 339.222L607.786 336.439L608.393 346.423L609 361.312L609.607 336.508L610.214 341.553L610.821 344.614L611.428 351.676L612.035 351.536L612.642 356.859L613.249 365.034L613.856 346.945L614.463 350.041L615.07 352.406L615.677 355.398L616.284 354.911L616.891 360.581L617.498 366.495L618.105 352.685L618.712 357.45L619.319 358.772L619.926 359.398L620.533 358.598L621.14 362.738L621.747 366.947L622.354 356.615L622.961 359.503L623.568 362.703L624.175 362.355L624.782 363.121L625.389 364.651L625.996 367.017L626.603 358.633L627.21 359.746L627.817 360.477L628.424 360.964L629.031 360.547L629.638 363.121L630.245 365.939L630.852 355.085L631.459 354.563L632.066 356.929L632.673 356.789L633.28 354.111L633.887 356.094L634.494 363.712L635.101 346.214L635.708 340.126L636.315 338.7L636.922 333.83L637.529 325.202L638.136 329.794L638.743 349.067L639.35 304.33L639.957 293.441L640.564 291.528L641.171 291.806L641.778 275.456L642.385 285.997L642.992 318.871L643.599 320.541L644.206 240.251L644.813 205.116L645.42 164.902L646.027 146.29L646.634 237.955L647.241 316.784L647.848 159.266L648.455 206.368L649.062 182.991L649.669 177.669L650.275 167.545L650.882 236.077L651.489 297.616L652.096 142.951L652.703 115.155L653.31 124.931L653.917 142.498L654.524 151.578L655.131 206.299L655.738 299.808L656.345 150.152L656.952 123.191L657.559 162.919L658.166 272.395L658.773 175.964L659.38 227.902L659.987 296.955L660.594 172.45L661.201 120.408L661.808 125.87L662.415 122.809L663.022 121.278L663.629 195.793L664.236 299.32L664.843 130.288L665.45 92.5088L666.057 173.459L666.664 200.976L667.271 188.418L667.878 224.945L668.485 305.373L669.092 186.679L669.699 199.515L670.306 255.349L670.913 235.938L671.52 243.834L672.127 257.784L672.734 322.385L673.341 240.704L673.948 219.761L674.555 255.488L675.162 274.517L675.769 258.654L676.376 302.904L676.983 325.933L677.59 259.141L678.197 247.8L678.804 274.517L679.411 295.598L680.018 305.06L680.625 301.651L681.232 348.719L681.839 350.284L682.446 288.536L683.053 283.005L683.66 311.879L684.267 342.561L684.874 320.228L685.481 345.414L686.088 351.049L686.695 316.923L687.302 327.081L687.909 335.291L688.516 336.474L689.123 342.527L689.73 352.511L690.337 346.84L690.944 324.472L691.551 335.012L692.158 340.752L692.765 341.553L693.372 347.64L693.979 356.233L694.586 361.973L695.193 337.1L695.8 322.35" stroke="#4285F4" stroke-width="2" stroke-miterlimit="10"/>
<path d="M379.922 418.8V410.206H382.891C383.557 410.206 384.068 410.248 384.422 410.331C384.911 410.446 385.328 410.649 385.672 410.94C386.13 411.326 386.469 411.821 386.688 412.425C386.917 413.019 387.031 413.696 387.031 414.456C387.031 415.112 386.953 415.69 386.797 416.19C386.651 416.69 386.458 417.107 386.219 417.44C385.979 417.774 385.714 418.034 385.422 418.222C385.141 418.409 384.802 418.555 384.406 418.659C384.01 418.753 383.552 418.8 383.031 418.8H379.922ZM381.062 417.784H382.891C383.464 417.784 383.911 417.732 384.234 417.628C384.557 417.524 384.812 417.373 385 417.175C385.271 416.914 385.479 416.555 385.625 416.097C385.781 415.638 385.859 415.086 385.859 414.44C385.859 413.545 385.708 412.857 385.406 412.378C385.115 411.888 384.76 411.56 384.344 411.394C384.031 411.279 383.542 411.222 382.875 411.222H381.062V417.784ZM392.859 418.034C392.464 418.368 392.083 418.602 391.719 418.737C391.365 418.873 390.979 418.94 390.562 418.94C389.875 418.94 389.349 418.774 388.984 418.44C388.62 418.107 388.438 417.68 388.438 417.159C388.438 416.857 388.505 416.581 388.641 416.331C388.776 416.071 388.958 415.868 389.188 415.722C389.417 415.565 389.672 415.451 389.953 415.378C390.151 415.315 390.464 415.258 390.891 415.206C391.734 415.112 392.359 414.993 392.766 414.847C392.766 414.701 392.766 414.612 392.766 414.581C392.766 414.144 392.667 413.836 392.469 413.659C392.198 413.43 391.797 413.315 391.266 413.315C390.776 413.315 390.411 413.404 390.172 413.581C389.932 413.748 389.755 414.05 389.641 414.487L388.609 414.347C388.703 413.909 388.859 413.555 389.078 413.284C389.297 413.013 389.609 412.805 390.016 412.659C390.422 412.513 390.891 412.44 391.422 412.44C391.953 412.44 392.385 412.503 392.719 412.628C393.052 412.753 393.297 412.909 393.453 413.097C393.609 413.284 393.719 413.524 393.781 413.815C393.812 413.993 393.828 414.315 393.828 414.784V416.19C393.828 417.17 393.849 417.789 393.891 418.05C393.943 418.31 394.036 418.56 394.172 418.8H393.062C392.958 418.581 392.891 418.326 392.859 418.034ZM392.766 415.675C392.38 415.831 391.807 415.966 391.047 416.081C390.609 416.144 390.302 416.216 390.125 416.3C389.948 416.373 389.807 416.482 389.703 416.628C389.609 416.774 389.562 416.94 389.562 417.128C389.562 417.409 389.667 417.644 389.875 417.831C390.094 418.019 390.406 418.112 390.812 418.112C391.219 418.112 391.578 418.024 391.891 417.847C392.214 417.67 392.448 417.425 392.594 417.112C392.708 416.873 392.766 416.524 392.766 416.065V415.675ZM398.094 417.862L398.25 418.784C397.948 418.847 397.682 418.878 397.453 418.878C397.068 418.878 396.771 418.821 396.562 418.706C396.354 418.581 396.203 418.42 396.109 418.222C396.026 418.024 395.984 417.607 395.984 416.972V413.394H395.219V412.581H395.984V411.034L397.031 410.409V412.581H398.094V413.394H397.031V417.034C397.031 417.336 397.047 417.529 397.078 417.612C397.12 417.696 397.182 417.763 397.266 417.815C397.349 417.868 397.469 417.894 397.625 417.894C397.75 417.894 397.906 417.883 398.094 417.862ZM403.047 416.8L404.141 416.925C403.974 417.56 403.656 418.055 403.188 418.409C402.719 418.763 402.125 418.94 401.406 418.94C400.5 418.94 399.776 418.659 399.234 418.097C398.703 417.534 398.438 416.748 398.438 415.737C398.438 414.696 398.708 413.888 399.25 413.315C399.792 412.732 400.49 412.44 401.344 412.44C402.177 412.44 402.854 412.722 403.375 413.284C403.906 413.847 404.172 414.644 404.172 415.675C404.172 415.737 404.172 415.831 404.172 415.956H399.531C399.573 416.644 399.766 417.17 400.109 417.534C400.453 417.888 400.885 418.065 401.406 418.065C401.792 418.065 402.12 417.966 402.391 417.769C402.672 417.56 402.891 417.237 403.047 416.8ZM399.594 415.097H403.062C403.021 414.565 402.891 414.17 402.672 413.909C402.328 413.503 401.891 413.3 401.359 413.3C400.87 413.3 400.458 413.461 400.125 413.784C399.802 414.107 399.625 414.545 399.594 415.097Z" fill="black"/>
<path d="M30.4344 261.604L30.3406 260.541C30.7781 260.489 31.1323 260.369 31.4031 260.182C31.6739 259.994 31.8979 259.708 32.075 259.322C32.2417 258.926 32.325 258.484 32.325 257.994C32.325 257.567 32.2625 257.187 32.1375 256.854C32.0021 256.52 31.825 256.275 31.6062 256.119C31.3771 255.952 31.1323 255.869 30.8719 255.869C30.601 255.869 30.3666 255.947 30.1687 256.104C29.9604 256.26 29.7885 256.515 29.6531 256.869C29.5594 257.109 29.4187 257.624 29.2312 258.416C29.0437 259.197 28.8666 259.744 28.7 260.057C28.4812 260.473 28.2156 260.781 27.9031 260.979C27.5802 261.176 27.2208 261.275 26.825 261.275C26.3979 261.275 25.9969 261.156 25.6219 260.916C25.2364 260.666 24.95 260.307 24.7625 259.838C24.5646 259.359 24.4656 258.833 24.4656 258.26C24.4656 257.624 24.5698 257.062 24.7781 256.572C24.976 256.083 25.2781 255.708 25.6844 255.447C26.0802 255.187 26.5281 255.046 27.0281 255.025L27.1062 256.119C26.5646 256.182 26.1583 256.385 25.8875 256.729C25.6062 257.062 25.4656 257.557 25.4656 258.213C25.4656 258.9 25.5906 259.4 25.8406 259.713C26.0906 260.025 26.3927 260.182 26.7469 260.182C27.0594 260.182 27.3146 260.072 27.5125 259.854C27.7104 259.635 27.9135 259.067 28.1219 258.15C28.3302 257.223 28.5125 256.588 28.6687 256.244C28.9083 255.744 29.2052 255.374 29.5594 255.135C29.9031 254.895 30.3094 254.775 30.7781 254.775C31.2364 254.775 31.6687 254.906 32.075 255.166C32.4708 255.426 32.7833 255.801 33.0125 256.291C33.2312 256.781 33.3406 257.333 33.3406 257.947C33.3406 258.729 33.2312 259.385 33.0125 259.916C32.7833 260.437 32.4396 260.848 31.9812 261.15C31.5229 261.442 31.0073 261.593 30.4344 261.604ZM33.2 253.354H24.6062V252.307H27.6844C27.1219 251.817 26.8406 251.197 26.8406 250.447C26.8406 249.979 26.9344 249.577 27.1219 249.244C27.2989 248.9 27.5489 248.656 27.8719 248.51C28.1844 248.364 28.6479 248.291 29.2625 248.291H33.2V249.338H29.2625C28.7312 249.338 28.3458 249.452 28.1062 249.682C27.8666 249.911 27.7469 250.234 27.7469 250.65C27.7469 250.963 27.8302 251.26 27.9969 251.541C28.1531 251.812 28.3719 252.01 28.6531 252.135C28.9239 252.249 29.3041 252.307 29.7937 252.307H33.2V253.354ZM25.825 246.354H24.6062V245.291H25.825V246.354ZM33.2 246.354H26.9812V245.291H33.2V246.354ZM33.2 243.916H32.3406L27.7937 239.947C27.8146 240.406 27.825 240.807 27.825 241.15V243.682H26.9812V238.588H27.6687L31.6219 241.963L32.3406 242.619C32.3094 242.14 32.2937 241.697 32.2937 241.291V238.4H33.2V243.916ZM33.2 234.275H32.2781C32.9864 234.765 33.3406 235.426 33.3406 236.26C33.3406 236.624 33.2729 236.968 33.1375 237.291C32.9917 237.604 32.8146 237.838 32.6062 237.994C32.3875 238.15 32.1219 238.26 31.8094 238.322C31.6114 238.364 31.2833 238.385 30.825 238.385H26.9812V237.322H30.4344C30.976 237.322 31.3458 237.301 31.5437 237.26C31.8146 237.197 32.0333 237.062 32.2 236.854C32.3562 236.635 32.4344 236.364 32.4344 236.041C32.4344 235.729 32.3562 235.437 32.2 235.166C32.0333 234.885 31.8094 234.687 31.5281 234.572C31.2469 234.447 30.8406 234.385 30.3094 234.385H26.9812V233.338H33.2V234.275ZM30.0906 231.744C28.9344 231.744 28.0802 231.426 27.5281 230.791C27.0698 230.26 26.8406 229.609 26.8406 228.838C26.8406 227.984 27.1219 227.286 27.6844 226.744C28.2364 226.192 29.0073 225.916 29.9969 225.916C30.7989 225.916 31.4291 226.036 31.8875 226.275C32.3458 226.515 32.7052 226.869 32.9656 227.338C33.2156 227.796 33.3406 228.296 33.3406 228.838C33.3406 229.702 33.0646 230.406 32.5125 230.947C31.95 231.479 31.1427 231.744 30.0906 231.744ZM30.0906 230.666C30.8823 230.666 31.476 230.494 31.8719 230.15C32.2677 229.796 32.4656 229.359 32.4656 228.838C32.4656 228.307 32.2677 227.869 31.8719 227.525C31.476 227.182 30.8719 227.01 30.0594 227.01C29.2885 227.01 28.7052 227.187 28.3094 227.541C27.9135 227.885 27.7156 228.317 27.7156 228.838C27.7156 229.359 27.9135 229.796 28.3094 230.15C28.6948 230.494 29.2885 230.666 30.0906 230.666ZM33.2 224.354H24.6062V223.291H29.5125L26.9812 220.807V219.432L29.2781 221.822L33.2 219.197V220.494L30.0125 222.557L30.7312 223.291H33.2V224.354ZM32.4344 214.291C32.7677 214.687 33.0021 215.067 33.1375 215.432C33.2729 215.786 33.3406 216.171 33.3406 216.588C33.3406 217.275 33.1739 217.801 32.8406 218.166C32.5073 218.531 32.0802 218.713 31.5594 218.713C31.2573 218.713 30.9812 218.645 30.7312 218.51C30.4708 218.374 30.2677 218.192 30.1219 217.963C29.9656 217.734 29.851 217.479 29.7781 217.197C29.7156 216.999 29.6583 216.687 29.6062 216.26C29.5125 215.416 29.3927 214.791 29.2469 214.385C29.101 214.385 29.0125 214.385 28.9812 214.385C28.5437 214.385 28.2364 214.484 28.0594 214.682C27.8302 214.952 27.7156 215.354 27.7156 215.885C27.7156 216.374 27.8041 216.739 27.9812 216.979C28.1479 217.218 28.45 217.395 28.8875 217.51L28.7469 218.541C28.3094 218.447 27.9552 218.291 27.6844 218.072C27.4135 217.854 27.2052 217.541 27.0594 217.135C26.9135 216.729 26.8406 216.26 26.8406 215.729C26.8406 215.197 26.9031 214.765 27.0281 214.432C27.1531 214.098 27.3094 213.854 27.4969 213.697C27.6844 213.541 27.9239 213.432 28.2156 213.369C28.3927 213.338 28.7156 213.322 29.1844 213.322H30.5906C31.5698 213.322 32.1896 213.301 32.45 213.26C32.7104 213.208 32.9604 213.114 33.2 212.979V214.088C32.9812 214.192 32.726 214.26 32.4344 214.291ZM30.075 214.385C30.2312 214.77 30.3666 215.343 30.4812 216.104C30.5437 216.541 30.6166 216.848 30.7 217.025C30.7729 217.202 30.8823 217.343 31.0281 217.447C31.1739 217.541 31.3406 217.588 31.5281 217.588C31.8094 217.588 32.0437 217.484 32.2312 217.275C32.4187 217.057 32.5125 216.744 32.5125 216.338C32.5125 215.932 32.4239 215.572 32.2469 215.26C32.0698 214.937 31.825 214.702 31.5125 214.557C31.2729 214.442 30.9239 214.385 30.4656 214.385H30.075Z" fill="black"/>
<path d="M75.7 369.565C75.7 368.545 75.8042 367.727 76.0125 367.112C76.2208 366.487 76.5281 366.008 76.9344 365.675C77.351 365.341 77.8719 365.175 78.4969 365.175C78.9552 365.175 79.3562 365.269 79.7 365.456C80.0542 365.644 80.3458 365.914 80.575 366.269C80.8042 366.612 80.9812 367.034 81.1062 367.534C81.2312 368.034 81.2937 368.711 81.2937 369.565C81.2937 370.576 81.1896 371.388 80.9812 372.003C80.7833 372.618 80.476 373.097 80.0594 373.44C79.6531 373.774 79.1323 373.94 78.4969 373.94C77.674 373.94 77.0229 373.644 76.5437 373.05C75.9812 372.341 75.7 371.18 75.7 369.565ZM76.7781 369.565C76.7781 370.972 76.9448 371.909 77.2781 372.378C77.6115 372.847 78.0177 373.081 78.4969 373.081C78.9865 373.081 79.3927 372.847 79.7156 372.378C80.049 371.909 80.2156 370.972 80.2156 369.565C80.2156 368.149 80.049 367.211 79.7156 366.753C79.3927 366.284 78.9812 366.05 78.4812 366.05C78.0021 366.05 77.6167 366.253 77.325 366.659C76.9604 367.18 76.7781 368.149 76.7781 369.565Z" fill="black"/>
<path d="M60.2469 303.209V304.225H54.5594C54.5594 303.975 54.601 303.73 54.6844 303.49C54.8302 303.105 55.0594 302.725 55.3719 302.35C55.6948 301.975 56.1583 301.542 56.7625 301.053C57.7 300.282 58.3302 299.673 58.6531 299.225C58.9865 298.777 59.1531 298.355 59.1531 297.959C59.1531 297.542 59.0021 297.193 58.7 296.912C58.3979 296.62 58.0073 296.475 57.5281 296.475C57.0177 296.475 56.6115 296.626 56.3094 296.928C56.0073 297.23 55.851 297.652 55.8406 298.193L54.7625 298.084C54.8354 297.271 55.1115 296.657 55.5906 296.24C56.0802 295.813 56.7365 295.6 57.5594 295.6C58.3823 295.6 59.0333 295.829 59.5125 296.287C59.9917 296.745 60.2312 297.313 60.2312 297.99C60.2312 298.334 60.1583 298.673 60.0125 299.006C59.8771 299.329 59.6427 299.678 59.3094 300.053C58.9865 300.417 58.45 300.917 57.7 301.553C57.0646 302.084 56.6531 302.449 56.4656 302.646C56.2885 302.834 56.1427 303.021 56.0281 303.209H60.2469ZM61.7 299.99C61.7 298.969 61.8042 298.152 62.0125 297.537C62.2208 296.912 62.5281 296.433 62.9344 296.1C63.351 295.766 63.8719 295.6 64.4969 295.6C64.9552 295.6 65.3562 295.693 65.7 295.881C66.0542 296.068 66.3458 296.339 66.575 296.693C66.8042 297.037 66.9812 297.459 67.1062 297.959C67.2312 298.459 67.2937 299.136 67.2937 299.99C67.2937 301.001 67.1896 301.813 66.9812 302.428C66.7833 303.042 66.476 303.521 66.0594 303.865C65.6531 304.199 65.1323 304.365 64.4969 304.365C63.674 304.365 63.0229 304.068 62.5437 303.475C61.9812 302.766 61.7 301.605 61.7 299.99ZM62.7781 299.99C62.7781 301.396 62.9448 302.334 63.2781 302.803C63.6115 303.271 64.0177 303.506 64.4969 303.506C64.9865 303.506 65.3927 303.271 65.7156 302.803C66.049 302.334 66.2156 301.396 66.2156 299.99C66.2156 298.574 66.049 297.636 65.7156 297.178C65.3927 296.709 64.9812 296.475 64.4812 296.475C64.0021 296.475 63.6167 296.678 63.325 297.084C62.9604 297.605 62.7781 298.574 62.7781 299.99ZM68.7 299.99C68.7 298.969 68.8042 298.152 69.0125 297.537C69.2208 296.912 69.5281 296.433 69.9344 296.1C70.351 295.766 70.8719 295.6 71.4969 295.6C71.9552 295.6 72.3562 295.693 72.7 295.881C73.0542 296.068 73.3458 296.339 73.575 296.693C73.8042 297.037 73.9812 297.459 74.1062 297.959C74.2312 298.459 74.2937 299.136 74.2937 299.99C74.2937 301.001 74.1896 301.813 73.9812 302.428C73.7833 303.042 73.476 303.521 73.0594 303.865C72.6531 304.199 72.1323 304.365 71.4969 304.365C70.674 304.365 70.0229 304.068 69.5437 303.475C68.9812 302.766 68.7 301.605 68.7 299.99ZM69.7781 299.99C69.7781 301.396 69.9448 302.334 70.2781 302.803C70.6115 303.271 71.0177 303.506 71.4969 303.506C71.9865 303.506 72.3927 303.271 72.7156 302.803C73.049 302.334 73.2156 301.396 73.2156 299.99C73.2156 298.574 73.049 297.636 72.7156 297.178C72.3927 296.709 71.9812 296.475 71.4812 296.475C71.0021 296.475 70.6167 296.678 70.325 297.084C69.9604 297.605 69.7781 298.574 69.7781 299.99ZM75.7 299.99C75.7 298.969 75.8042 298.152 76.0125 297.537C76.2208 296.912 76.5281 296.433 76.9344 296.1C77.351 295.766 77.8719 295.6 78.4969 295.6C78.9552 295.6 79.3562 295.693 79.7 295.881C80.0542 296.068 80.3458 296.339 80.575 296.693C80.8042 297.037 80.9812 297.459 81.1062 297.959C81.2312 298.459 81.2937 299.136 81.2937 299.99C81.2937 301.001 81.1896 301.813 80.9812 302.428C80.7833 303.042 80.476 303.521 80.0594 303.865C79.6531 304.199 79.1323 304.365 78.4969 304.365C77.674 304.365 77.0229 304.068 76.5437 303.475C75.9812 302.766 75.7 301.605 75.7 299.99ZM76.7781 299.99C76.7781 301.396 76.9448 302.334 77.2781 302.803C77.6115 303.271 78.0177 303.506 78.4969 303.506C78.9865 303.506 79.3927 303.271 79.7156 302.803C80.049 302.334 80.2156 301.396 80.2156 299.99C80.2156 298.574 80.049 297.636 79.7156 297.178C79.3927 296.709 78.9812 296.475 78.4812 296.475C78.0021 296.475 77.6167 296.678 77.325 297.084C76.9604 297.605 76.7781 298.574 76.7781 299.99Z" fill="black"/>
<path d="M58.075 234.65V232.588H54.3562V231.619L58.2781 226.057H59.1375V231.619H60.2937V232.588H59.1375V234.65H58.075ZM58.075 231.619V227.76L55.3875 231.619H58.075ZM61.7 230.416C61.7 229.395 61.8042 228.577 62.0125 227.963C62.2208 227.338 62.5281 226.859 62.9344 226.525C63.351 226.192 63.8719 226.025 64.4969 226.025C64.9552 226.025 65.3562 226.119 65.7 226.307C66.0542 226.494 66.3458 226.765 66.575 227.119C66.8042 227.463 66.9812 227.885 67.1062 228.385C67.2312 228.885 67.2937 229.562 67.2937 230.416C67.2937 231.426 67.1896 232.239 66.9812 232.854C66.7833 233.468 66.476 233.947 66.0594 234.291C65.6531 234.624 65.1323 234.791 64.4969 234.791C63.674 234.791 63.0229 234.494 62.5437 233.9C61.9812 233.192 61.7 232.031 61.7 230.416ZM62.7781 230.416C62.7781 231.822 62.9448 232.76 63.2781 233.229C63.6115 233.697 64.0177 233.932 64.4969 233.932C64.9865 233.932 65.3927 233.697 65.7156 233.229C66.049 232.76 66.2156 231.822 66.2156 230.416C66.2156 228.999 66.049 228.062 65.7156 227.604C65.3927 227.135 64.9812 226.9 64.4812 226.9C64.0021 226.9 63.6167 227.104 63.325 227.51C62.9604 228.031 62.7781 228.999 62.7781 230.416ZM68.7 230.416C68.7 229.395 68.8042 228.577 69.0125 227.963C69.2208 227.338 69.5281 226.859 69.9344 226.525C70.351 226.192 70.8719 226.025 71.4969 226.025C71.9552 226.025 72.3562 226.119 72.7 226.307C73.0542 226.494 73.3458 226.765 73.575 227.119C73.8042 227.463 73.9812 227.885 74.1062 228.385C74.2312 228.885 74.2937 229.562 74.2937 230.416C74.2937 231.426 74.1896 232.239 73.9812 232.854C73.7833 233.468 73.476 233.947 73.0594 234.291C72.6531 234.624 72.1323 234.791 71.4969 234.791C70.674 234.791 70.0229 234.494 69.5437 233.9C68.9812 233.192 68.7 232.031 68.7 230.416ZM69.7781 230.416C69.7781 231.822 69.9448 232.76 70.2781 233.229C70.6115 233.697 71.0177 233.932 71.4969 233.932C71.9865 233.932 72.3927 233.697 72.7156 233.229C73.049 232.76 73.2156 231.822 73.2156 230.416C73.2156 228.999 73.049 228.062 72.7156 227.604C72.3927 227.135 71.9812 226.9 71.4812 226.9C71.0021 226.9 70.6167 227.104 70.325 227.51C69.9604 228.031 69.7781 228.999 69.7781 230.416ZM75.7 230.416C75.7 229.395 75.8042 228.577 76.0125 227.963C76.2208 227.338 76.5281 226.859 76.9344 226.525C77.351 226.192 77.8719 226.025 78.4969 226.025C78.9552 226.025 79.3562 226.119 79.7 226.307C80.0542 226.494 80.3458 226.765 80.575 227.119C80.8042 227.463 80.9812 227.885 81.1062 228.385C81.2312 228.885 81.2937 229.562 81.2937 230.416C81.2937 231.426 81.1896 232.239 80.9812 232.854C80.7833 233.468 80.476 233.947 80.0594 234.291C79.6531 234.624 79.1323 234.791 78.4969 234.791C77.674 234.791 77.0229 234.494 76.5437 233.9C75.9812 233.192 75.7 232.031 75.7 230.416ZM76.7781 230.416C76.7781 231.822 76.9448 232.76 77.2781 233.229C77.6115 233.697 78.0177 233.932 78.4969 233.932C78.9865 233.932 79.3927 233.697 79.7156 233.229C80.049 232.76 80.2156 231.822 80.2156 230.416C80.2156 228.999 80.049 228.062 79.7156 227.604C79.3927 227.135 78.9812 226.9 78.4812 226.9C78.0021 226.9 77.6167 227.104 77.325 227.51C76.9604 228.031 76.7781 228.999 76.7781 230.416Z" fill="black"/>
<path d="M60.1687 158.591L59.1219 158.669C59.0281 158.252 58.8979 157.95 58.7312 157.763C58.4396 157.461 58.0854 157.31 57.6687 157.31C57.3354 157.31 57.0385 157.403 56.7781 157.591C56.4552 157.841 56.1948 158.2 55.9969 158.669C55.8094 159.127 55.7104 159.784 55.7 160.638C55.95 160.252 56.2573 159.966 56.6219 159.778C56.9969 159.591 57.3875 159.497 57.7937 159.497C58.4917 159.497 59.0854 159.757 59.575 160.278C60.075 160.799 60.325 161.466 60.325 162.278C60.325 162.82 60.2052 163.325 59.9656 163.794C59.7365 164.252 59.4187 164.606 59.0125 164.856C58.6062 165.096 58.1479 165.216 57.6375 165.216C56.7521 165.216 56.0333 164.893 55.4812 164.247C54.9292 163.601 54.6531 162.539 54.6531 161.06C54.6531 159.393 54.9604 158.185 55.575 157.435C56.1062 156.778 56.825 156.45 57.7312 156.45C58.4083 156.45 58.9604 156.643 59.3875 157.028C59.825 157.403 60.0854 157.924 60.1687 158.591ZM55.8719 162.294C55.8719 162.659 55.9448 163.007 56.0906 163.341C56.2469 163.664 56.4604 163.914 56.7312 164.091C57.0125 164.268 57.3094 164.356 57.6219 164.356C58.0594 164.356 58.4396 164.179 58.7625 163.825C59.0854 163.461 59.2469 162.971 59.2469 162.356C59.2469 161.763 59.0854 161.294 58.7625 160.95C58.45 160.606 58.0542 160.435 57.575 160.435C57.0958 160.435 56.6896 160.606 56.3562 160.95C56.0333 161.294 55.8719 161.742 55.8719 162.294ZM61.7 160.841C61.7 159.82 61.8042 159.002 62.0125 158.388C62.2208 157.763 62.5281 157.284 62.9344 156.95C63.351 156.617 63.8719 156.45 64.4969 156.45C64.9552 156.45 65.3562 156.544 65.7 156.731C66.0542 156.919 66.3458 157.19 66.575 157.544C66.8042 157.888 66.9812 158.31 67.1062 158.81C67.2312 159.31 67.2937 159.987 67.2937 160.841C67.2937 161.851 67.1896 162.664 66.9812 163.278C66.7833 163.893 66.476 164.372 66.0594 164.716C65.6531 165.049 65.1323 165.216 64.4969 165.216C63.674 165.216 63.0229 164.919 62.5437 164.325C61.9812 163.617 61.7 162.455 61.7 160.841ZM62.7781 160.841C62.7781 162.247 62.9448 163.185 63.2781 163.653C63.6115 164.122 64.0177 164.356 64.4969 164.356C64.9865 164.356 65.3927 164.122 65.7156 163.653C66.049 163.185 66.2156 162.247 66.2156 160.841C66.2156 159.424 66.049 158.487 65.7156 158.028C65.3927 157.56 64.9812 157.325 64.4812 157.325C64.0021 157.325 63.6167 157.528 63.325 157.935C62.9604 158.455 62.7781 159.424 62.7781 160.841ZM68.7 160.841C68.7 159.82 68.8042 159.002 69.0125 158.388C69.2208 157.763 69.5281 157.284 69.9344 156.95C70.351 156.617 70.8719 156.45 71.4969 156.45C71.9552 156.45 72.3562 156.544 72.7 156.731C73.0542 156.919 73.3458 157.19 73.575 157.544C73.8042 157.888 73.9812 158.31 74.1062 158.81C74.2312 159.31 74.2937 159.987 74.2937 160.841C74.2937 161.851 74.1896 162.664 73.9812 163.278C73.7833 163.893 73.476 164.372 73.0594 164.716C72.6531 165.049 72.1323 165.216 71.4969 165.216C70.674 165.216 70.0229 164.919 69.5437 164.325C68.9812 163.617 68.7 162.455 68.7 160.841ZM69.7781 160.841C69.7781 162.247 69.9448 163.185 70.2781 163.653C70.6115 164.122 71.0177 164.356 71.4969 164.356C71.9865 164.356 72.3927 164.122 72.7156 163.653C73.049 163.185 73.2156 162.247 73.2156 160.841C73.2156 159.424 73.049 158.487 72.7156 158.028C72.3927 157.56 71.9812 157.325 71.4812 157.325C71.0021 157.325 70.6167 157.528 70.325 157.935C69.9604 158.455 69.7781 159.424 69.7781 160.841ZM75.7 160.841C75.7 159.82 75.8042 159.002 76.0125 158.388C76.2208 157.763 76.5281 157.284 76.9344 156.95C77.351 156.617 77.8719 156.45 78.4969 156.45C78.9552 156.45 79.3562 156.544 79.7 156.731C80.0542 156.919 80.3458 157.19 80.575 157.544C80.8042 157.888 80.9812 158.31 81.1062 158.81C81.2312 159.31 81.2937 159.987 81.2937 160.841C81.2937 161.851 81.1896 162.664 80.9812 163.278C80.7833 163.893 80.476 164.372 80.0594 164.716C79.6531 165.049 79.1323 165.216 78.4969 165.216C77.674 165.216 77.0229 164.919 76.5437 164.325C75.9812 163.617 75.7 162.455 75.7 160.841ZM76.7781 160.841C76.7781 162.247 76.9448 163.185 77.2781 163.653C77.6115 164.122 78.0177 164.356 78.4969 164.356C78.9865 164.356 79.3927 164.122 79.7156 163.653C80.049 163.185 80.2156 162.247 80.2156 160.841C80.2156 159.424 80.049 158.487 79.7156 158.028C79.3927 157.56 78.9812 157.325 78.4812 157.325C78.0021 157.325 77.6167 157.528 77.325 157.935C76.9604 158.455 76.7781 159.424 76.7781 160.841Z" fill="black"/>
<path d="M56.325 90.8438C55.8875 90.6771 55.5594 90.4479 55.3406 90.1562C55.1323 89.8542 55.0281 89.5 55.0281 89.0938C55.0281 88.4688 55.2521 87.9427 55.7 87.5156C56.1583 87.0885 56.7573 86.875 57.4969 86.875C58.2469 86.875 58.851 87.0938 59.3094 87.5312C59.7677 87.9688 59.9969 88.5 59.9969 89.125C59.9969 89.5208 59.8927 89.8646 59.6844 90.1562C59.476 90.4479 59.1583 90.6771 58.7312 90.8438C59.2625 91.0104 59.6635 91.2865 59.9344 91.6719C60.2052 92.0573 60.3406 92.5156 60.3406 93.0469C60.3406 93.776 60.0802 94.3906 59.5594 94.8906C59.049 95.3906 58.3667 95.6406 57.5125 95.6406C56.6687 95.6406 55.9865 95.3906 55.4656 94.8906C54.9448 94.3906 54.6844 93.7656 54.6844 93.0156C54.6844 92.4531 54.825 91.9844 55.1062 91.6094C55.3979 91.2344 55.8042 90.9792 56.325 90.8438ZM56.1062 89.0469C56.1062 89.4531 56.2365 89.7865 56.4969 90.0469C56.7677 90.3073 57.1115 90.4375 57.5281 90.4375C57.9344 90.4375 58.2677 90.3125 58.5281 90.0625C58.7885 89.8021 58.9187 89.4844 58.9187 89.1094C58.9187 88.724 58.7833 88.401 58.5125 88.1406C58.2417 87.8698 57.9083 87.7344 57.5125 87.7344C57.1062 87.7344 56.7677 87.8646 56.4969 88.125C56.2365 88.3854 56.1062 88.6927 56.1062 89.0469ZM55.7781 93.0156C55.7781 93.3177 55.8458 93.6094 55.9812 93.8906C56.1271 94.1719 56.3406 94.3906 56.6219 94.5469C56.9031 94.7031 57.2052 94.7812 57.5281 94.7812C58.0281 94.7812 58.4396 94.6198 58.7625 94.2969C59.0958 93.974 59.2625 93.5625 59.2625 93.0625C59.2625 92.5521 59.0958 92.1302 58.7625 91.7969C58.4292 91.4635 58.0073 91.2969 57.4969 91.2969C56.9969 91.2969 56.5854 91.4635 56.2625 91.7969C55.9396 92.1198 55.7781 92.526 55.7781 93.0156ZM61.7 91.2656C61.7 90.2448 61.8042 89.4271 62.0125 88.8125C62.2208 88.1875 62.5281 87.7083 62.9344 87.375C63.351 87.0417 63.8719 86.875 64.4969 86.875C64.9552 86.875 65.3562 86.9688 65.7 87.1562C66.0542 87.3438 66.3458 87.6146 66.575 87.9688C66.8042 88.3125 66.9812 88.7344 67.1062 89.2344C67.2312 89.7344 67.2937 90.4115 67.2937 91.2656C67.2937 92.276 67.1896 93.0885 66.9812 93.7031C66.7833 94.3177 66.476 94.7969 66.0594 95.1406C65.6531 95.474 65.1323 95.6406 64.4969 95.6406C63.674 95.6406 63.0229 95.3438 62.5437 94.75C61.9812 94.0417 61.7 92.8802 61.7 91.2656ZM62.7781 91.2656C62.7781 92.6719 62.9448 93.6094 63.2781 94.0781C63.6115 94.5469 64.0177 94.7812 64.4969 94.7812C64.9865 94.7812 65.3927 94.5469 65.7156 94.0781C66.049 93.6094 66.2156 92.6719 66.2156 91.2656C66.2156 89.849 66.049 88.9115 65.7156 88.4531C65.3927 87.9844 64.9812 87.75 64.4812 87.75C64.0021 87.75 63.6167 87.9531 63.325 88.3594C62.9604 88.8802 62.7781 89.849 62.7781 91.2656ZM68.7 91.2656C68.7 90.2448 68.8042 89.4271 69.0125 88.8125C69.2208 88.1875 69.5281 87.7083 69.9344 87.375C70.351 87.0417 70.8719 86.875 71.4969 86.875C71.9552 86.875 72.3562 86.9688 72.7 87.1562C73.0542 87.3438 73.3458 87.6146 73.575 87.9688C73.8042 88.3125 73.9812 88.7344 74.1062 89.2344C74.2312 89.7344 74.2937 90.4115 74.2937 91.2656C74.2937 92.276 74.1896 93.0885 73.9812 93.7031C73.7833 94.3177 73.476 94.7969 73.0594 95.1406C72.6531 95.474 72.1323 95.6406 71.4969 95.6406C70.674 95.6406 70.0229 95.3438 69.5437 94.75C68.9812 94.0417 68.7 92.8802 68.7 91.2656ZM69.7781 91.2656C69.7781 92.6719 69.9448 93.6094 70.2781 94.0781C70.6115 94.5469 71.0177 94.7812 71.4969 94.7812C71.9865 94.7812 72.3927 94.5469 72.7156 94.0781C73.049 93.6094 73.2156 92.6719 73.2156 91.2656C73.2156 89.849 73.049 88.9115 72.7156 88.4531C72.3927 87.9844 71.9812 87.75 71.4812 87.75C71.0021 87.75 70.6167 87.9531 70.325 88.3594C69.9604 88.8802 69.7781 89.849 69.7781 91.2656ZM75.7 91.2656C75.7 90.2448 75.8042 89.4271 76.0125 88.8125C76.2208 88.1875 76.5281 87.7083 76.9344 87.375C77.351 87.0417 77.8719 86.875 78.4969 86.875C78.9552 86.875 79.3562 86.9688 79.7 87.1562C80.0542 87.3438 80.3458 87.6146 80.575 87.9688C80.8042 88.3125 80.9812 88.7344 81.1062 89.2344C81.2312 89.7344 81.2937 90.4115 81.2937 91.2656C81.2937 92.276 81.1896 93.0885 80.9812 93.7031C80.7833 94.3177 80.476 94.7969 80.0594 95.1406C79.6531 95.474 79.1323 95.6406 78.4969 95.6406C77.674 95.6406 77.0229 95.3438 76.5437 94.75C75.9812 94.0417 75.7 92.8802 75.7 91.2656ZM76.7781 91.2656C76.7781 92.6719 76.9448 93.6094 77.2781 94.0781C77.6115 94.5469 78.0177 94.7812 78.4969 94.7812C78.9865 94.7812 79.3927 94.5469 79.7156 94.0781C80.049 93.6094 80.2156 92.6719 80.2156 91.2656C80.2156 89.849 80.049 88.9115 79.7156 88.4531C79.3927 87.9844 78.9812 87.75 78.4812 87.75C78.0021 87.75 77.6167 87.9531 77.325 88.3594C76.9604 88.8802 76.7781 89.849 76.7781 91.2656Z" fill="black"/>
<path d="M168.052 386.8V384.737H164.333V383.769L168.255 378.206H169.114V383.769H170.271V384.737H169.114V386.8H168.052ZM168.052 383.769V379.909L165.364 383.769H168.052ZM175.052 386.8V384.737H171.333V383.769L175.255 378.206H176.114V383.769H177.271V384.737H176.114V386.8H175.052ZM175.052 383.769V379.909L172.364 383.769H175.052ZM178.677 382.565C178.677 381.545 178.781 380.727 178.989 380.112C179.198 379.487 179.505 379.008 179.911 378.675C180.328 378.341 180.849 378.175 181.474 378.175C181.932 378.175 182.333 378.269 182.677 378.456C183.031 378.644 183.323 378.914 183.552 379.269C183.781 379.612 183.958 380.034 184.083 380.534C184.208 381.034 184.271 381.711 184.271 382.565C184.271 383.576 184.167 384.388 183.958 385.003C183.76 385.618 183.453 386.097 183.036 386.44C182.63 386.774 182.109 386.94 181.474 386.94C180.651 386.94 180 386.644 179.521 386.05C178.958 385.341 178.677 384.18 178.677 382.565ZM179.755 382.565C179.755 383.972 179.922 384.909 180.255 385.378C180.588 385.847 180.995 386.081 181.474 386.081C181.963 386.081 182.37 385.847 182.693 385.378C183.026 384.909 183.193 383.972 183.193 382.565C183.193 381.149 183.026 380.211 182.693 379.753C182.37 379.284 181.958 379.05 181.458 379.05C180.979 379.05 180.594 379.253 180.302 379.659C179.937 380.18 179.755 381.149 179.755 382.565ZM185.677 382.565C185.677 381.545 185.781 380.727 185.989 380.112C186.198 379.487 186.505 379.008 186.911 378.675C187.328 378.341 187.849 378.175 188.474 378.175C188.932 378.175 189.333 378.269 189.677 378.456C190.031 378.644 190.323 378.914 190.552 379.269C190.781 379.612 190.958 380.034 191.083 380.534C191.208 381.034 191.271 381.711 191.271 382.565C191.271 383.576 191.167 384.388 190.958 385.003C190.76 385.618 190.453 386.097 190.036 386.44C189.63 386.774 189.109 386.94 188.474 386.94C187.651 386.94 187 386.644 186.521 386.05C185.958 385.341 185.677 384.18 185.677 382.565ZM186.755 382.565C186.755 383.972 186.922 384.909 187.255 385.378C187.588 385.847 187.995 386.081 188.474 386.081C188.963 386.081 189.37 385.847 189.693 385.378C190.026 384.909 190.193 383.972 190.193 382.565C190.193 381.149 190.026 380.211 189.693 379.753C189.37 379.284 188.958 379.05 188.458 379.05C187.979 379.05 187.594 379.253 187.302 379.659C186.937 380.18 186.755 381.149 186.755 382.565ZM192.677 382.565C192.677 381.545 192.781 380.727 192.989 380.112C193.198 379.487 193.505 379.008 193.911 378.675C194.328 378.341 194.849 378.175 195.474 378.175C195.932 378.175 196.333 378.269 196.677 378.456C197.031 378.644 197.323 378.914 197.552 379.269C197.781 379.612 197.958 380.034 198.083 380.534C198.208 381.034 198.271 381.711 198.271 382.565C198.271 383.576 198.167 384.388 197.958 385.003C197.76 385.618 197.453 386.097 197.036 386.44C196.63 386.774 196.109 386.94 195.474 386.94C194.651 386.94 194 386.644 193.521 386.05C192.958 385.341 192.677 384.18 192.677 382.565ZM193.755 382.565C193.755 383.972 193.922 384.909 194.255 385.378C194.588 385.847 194.995 386.081 195.474 386.081C195.963 386.081 196.37 385.847 196.693 385.378C197.026 384.909 197.193 383.972 197.193 382.565C197.193 381.149 197.026 380.211 196.693 379.753C196.37 379.284 195.958 379.05 195.458 379.05C194.979 379.05 194.594 379.253 194.302 379.659C193.937 380.18 193.755 381.149 193.755 382.565Z" fill="black"/>
<path d="M289.451 386.8V384.737H285.732V383.769L289.654 378.206H290.513V383.769H291.669V384.737H290.513V386.8H289.451ZM289.451 383.769V379.909L286.763 383.769H289.451ZM296.451 386.8V384.737H292.732V383.769L296.654 378.206H297.513V383.769H298.669V384.737H297.513V386.8H296.451ZM296.451 383.769V379.909L293.763 383.769H296.451ZM305.622 385.784V386.8H299.935C299.935 386.55 299.977 386.305 300.06 386.065C300.206 385.68 300.435 385.3 300.747 384.925C301.07 384.55 301.534 384.118 302.138 383.628C303.076 382.857 303.706 382.248 304.029 381.8C304.362 381.352 304.529 380.93 304.529 380.534C304.529 380.118 304.378 379.769 304.076 379.487C303.773 379.196 303.383 379.05 302.904 379.05C302.393 379.05 301.987 379.201 301.685 379.503C301.383 379.805 301.227 380.227 301.216 380.769L300.138 380.659C300.211 379.847 300.487 379.232 300.966 378.815C301.456 378.388 302.112 378.175 302.935 378.175C303.758 378.175 304.409 378.404 304.888 378.862C305.367 379.321 305.607 379.888 305.607 380.565C305.607 380.909 305.534 381.248 305.388 381.581C305.253 381.904 305.018 382.253 304.685 382.628C304.362 382.993 303.826 383.493 303.076 384.128C302.44 384.659 302.029 385.024 301.841 385.222C301.664 385.409 301.518 385.597 301.404 385.784H305.622ZM307.076 382.565C307.076 381.545 307.18 380.727 307.388 380.112C307.596 379.487 307.904 379.008 308.31 378.675C308.727 378.341 309.247 378.175 309.872 378.175C310.331 378.175 310.732 378.269 311.076 378.456C311.43 378.644 311.721 378.914 311.951 379.269C312.18 379.612 312.357 380.034 312.482 380.534C312.607 381.034 312.669 381.711 312.669 382.565C312.669 383.576 312.565 384.388 312.357 385.003C312.159 385.618 311.852 386.097 311.435 386.44C311.029 386.774 310.508 386.94 309.872 386.94C309.049 386.94 308.398 386.644 307.919 386.05C307.357 385.341 307.076 384.18 307.076 382.565ZM308.154 382.565C308.154 383.972 308.32 384.909 308.654 385.378C308.987 385.847 309.393 386.081 309.872 386.081C310.362 386.081 310.768 385.847 311.091 385.378C311.424 384.909 311.591 383.972 311.591 382.565C311.591 381.149 311.424 380.211 311.091 379.753C310.768 379.284 310.357 379.05 309.857 379.05C309.378 379.05 308.992 379.253 308.701 379.659C308.336 380.18 308.154 381.149 308.154 382.565ZM314.076 382.565C314.076 381.545 314.18 380.727 314.388 380.112C314.596 379.487 314.904 379.008 315.31 378.675C315.727 378.341 316.247 378.175 316.872 378.175C317.331 378.175 317.732 378.269 318.076 378.456C318.43 378.644 318.721 378.914 318.951 379.269C319.18 379.612 319.357 380.034 319.482 380.534C319.607 381.034 319.669 381.711 319.669 382.565C319.669 383.576 319.565 384.388 319.357 385.003C319.159 385.618 318.852 386.097 318.435 386.44C318.029 386.774 317.508 386.94 316.872 386.94C316.049 386.94 315.398 386.644 314.919 386.05C314.357 385.341 314.076 384.18 314.076 382.565ZM315.154 382.565C315.154 383.972 315.32 384.909 315.654 385.378C315.987 385.847 316.393 386.081 316.872 386.081C317.362 386.081 317.768 385.847 318.091 385.378C318.424 384.909 318.591 383.972 318.591 382.565C318.591 381.149 318.424 380.211 318.091 379.753C317.768 379.284 317.357 379.05 316.857 379.05C316.378 379.05 315.992 379.253 315.701 379.659C315.336 380.18 315.154 381.149 315.154 382.565Z" fill="black"/>
<path d="M410.849 386.8V384.737H407.13V383.769L411.052 378.206H411.912V383.769H413.068V384.737H411.912V386.8H410.849ZM410.849 383.769V379.909L408.162 383.769H410.849ZM417.849 386.8V384.737H414.13V383.769L418.052 378.206H418.912V383.769H420.068V384.737H418.912V386.8H417.849ZM417.849 383.769V379.909L415.162 383.769H417.849ZM424.849 386.8V384.737H421.13V383.769L425.052 378.206H425.912V383.769H427.068V384.737H425.912V386.8H424.849ZM424.849 383.769V379.909L422.162 383.769H424.849ZM428.474 382.565C428.474 381.545 428.578 380.727 428.787 380.112C428.995 379.487 429.302 379.008 429.708 378.675C430.125 378.341 430.646 378.175 431.271 378.175C431.729 378.175 432.13 378.269 432.474 378.456C432.828 378.644 433.12 378.914 433.349 379.269C433.578 379.612 433.755 380.034 433.88 380.534C434.005 381.034 434.068 381.711 434.068 382.565C434.068 383.576 433.964 384.388 433.755 385.003C433.557 385.618 433.25 386.097 432.833 386.44C432.427 386.774 431.906 386.94 431.271 386.94C430.448 386.94 429.797 386.644 429.318 386.05C428.755 385.341 428.474 384.18 428.474 382.565ZM429.552 382.565C429.552 383.972 429.719 384.909 430.052 385.378C430.386 385.847 430.792 386.081 431.271 386.081C431.761 386.081 432.167 385.847 432.49 385.378C432.823 384.909 432.99 383.972 432.99 382.565C432.99 381.149 432.823 380.211 432.49 379.753C432.167 379.284 431.755 379.05 431.255 379.05C430.776 379.05 430.391 379.253 430.099 379.659C429.735 380.18 429.552 381.149 429.552 382.565ZM435.474 382.565C435.474 381.545 435.578 380.727 435.787 380.112C435.995 379.487 436.302 379.008 436.708 378.675C437.125 378.341 437.646 378.175 438.271 378.175C438.729 378.175 439.13 378.269 439.474 378.456C439.828 378.644 440.12 378.914 440.349 379.269C440.578 379.612 440.755 380.034 440.88 380.534C441.005 381.034 441.068 381.711 441.068 382.565C441.068 383.576 440.964 384.388 440.755 385.003C440.557 385.618 440.25 386.097 439.833 386.44C439.427 386.774 438.906 386.94 438.271 386.94C437.448 386.94 436.797 386.644 436.318 386.05C435.755 385.341 435.474 384.18 435.474 382.565ZM436.552 382.565C436.552 383.972 436.719 384.909 437.052 385.378C437.386 385.847 437.792 386.081 438.271 386.081C438.761 386.081 439.167 385.847 439.49 385.378C439.823 384.909 439.99 383.972 439.99 382.565C439.99 381.149 439.823 380.211 439.49 379.753C439.167 379.284 438.755 379.05 438.255 379.05C437.776 379.05 437.391 379.253 437.099 379.659C436.735 380.18 436.552 381.149 436.552 382.565Z" fill="black"/>
<path d="M532.248 386.8V384.737H528.529V383.769L532.451 378.206H533.31V383.769H534.466V384.737H533.31V386.8H532.248ZM532.248 383.769V379.909L529.56 383.769H532.248ZM539.248 386.8V384.737H535.529V383.769L539.451 378.206H540.31V383.769H541.466V384.737H540.31V386.8H539.248ZM539.248 383.769V379.909L536.56 383.769H539.248ZM548.341 380.315L547.295 380.394C547.201 379.977 547.071 379.675 546.904 379.487C546.612 379.185 546.258 379.034 545.841 379.034C545.508 379.034 545.211 379.128 544.951 379.315C544.628 379.565 544.368 379.925 544.17 380.394C543.982 380.852 543.883 381.508 543.873 382.362C544.123 381.977 544.43 381.69 544.795 381.503C545.17 381.315 545.56 381.222 545.966 381.222C546.664 381.222 547.258 381.482 547.748 382.003C548.248 382.524 548.498 383.19 548.498 384.003C548.498 384.545 548.378 385.05 548.138 385.519C547.909 385.977 547.591 386.331 547.185 386.581C546.779 386.821 546.321 386.94 545.81 386.94C544.925 386.94 544.206 386.618 543.654 385.972C543.102 385.326 542.826 384.263 542.826 382.784C542.826 381.118 543.133 379.909 543.748 379.159C544.279 378.503 544.998 378.175 545.904 378.175C546.581 378.175 547.133 378.368 547.56 378.753C547.998 379.128 548.258 379.649 548.341 380.315ZM544.045 384.019C544.045 384.383 544.118 384.732 544.263 385.065C544.42 385.388 544.633 385.638 544.904 385.815C545.185 385.993 545.482 386.081 545.795 386.081C546.232 386.081 546.612 385.904 546.935 385.55C547.258 385.185 547.42 384.696 547.42 384.081C547.42 383.487 547.258 383.019 546.935 382.675C546.623 382.331 546.227 382.159 545.748 382.159C545.269 382.159 544.862 382.331 544.529 382.675C544.206 383.019 544.045 383.466 544.045 384.019ZM549.873 382.565C549.873 381.545 549.977 380.727 550.185 380.112C550.394 379.487 550.701 379.008 551.107 378.675C551.524 378.341 552.045 378.175 552.67 378.175C553.128 378.175 553.529 378.269 553.873 378.456C554.227 378.644 554.519 378.914 554.748 379.269C554.977 379.612 555.154 380.034 555.279 380.534C555.404 381.034 555.466 381.711 555.466 382.565C555.466 383.576 555.362 384.388 555.154 385.003C554.956 385.618 554.649 386.097 554.232 386.44C553.826 386.774 553.305 386.94 552.67 386.94C551.847 386.94 551.196 386.644 550.716 386.05C550.154 385.341 549.873 384.18 549.873 382.565ZM550.951 382.565C550.951 383.972 551.118 384.909 551.451 385.378C551.784 385.847 552.19 386.081 552.67 386.081C553.159 386.081 553.565 385.847 553.888 385.378C554.222 384.909 554.388 383.972 554.388 382.565C554.388 381.149 554.222 380.211 553.888 379.753C553.565 379.284 553.154 379.05 552.654 379.05C552.175 379.05 551.789 379.253 551.498 379.659C551.133 380.18 550.951 381.149 550.951 382.565ZM556.873 382.565C556.873 381.545 556.977 380.727 557.185 380.112C557.394 379.487 557.701 379.008 558.107 378.675C558.524 378.341 559.045 378.175 559.67 378.175C560.128 378.175 560.529 378.269 560.873 378.456C561.227 378.644 561.519 378.914 561.748 379.269C561.977 379.612 562.154 380.034 562.279 380.534C562.404 381.034 562.466 381.711 562.466 382.565C562.466 383.576 562.362 384.388 562.154 385.003C561.956 385.618 561.649 386.097 561.232 386.44C560.826 386.774 560.305 386.94 559.67 386.94C558.847 386.94 558.196 386.644 557.716 386.05C557.154 385.341 556.873 384.18 556.873 382.565ZM557.951 382.565C557.951 383.972 558.118 384.909 558.451 385.378C558.784 385.847 559.19 386.081 559.67 386.081C560.159 386.081 560.565 385.847 560.888 385.378C561.222 384.909 561.388 383.972 561.388 382.565C561.388 381.149 561.222 380.211 560.888 379.753C560.565 379.284 560.154 379.05 559.654 379.05C559.175 379.05 558.789 379.253 558.498 379.659C558.133 380.18 557.951 381.149 557.951 382.565Z" fill="black"/>
<path d="M653.646 386.8V384.737H649.928V383.769L653.849 378.206H654.709V383.769H655.865V384.737H654.709V386.8H653.646ZM653.646 383.769V379.909L650.959 383.769H653.646ZM660.646 386.8V384.737H656.928V383.769L660.849 378.206H661.709V383.769H662.865V384.737H661.709V386.8H660.646ZM660.646 383.769V379.909L657.959 383.769H660.646ZM665.896 382.144C665.459 381.977 665.131 381.748 664.912 381.456C664.704 381.154 664.599 380.8 664.599 380.394C664.599 379.769 664.823 379.243 665.271 378.815C665.73 378.388 666.329 378.175 667.068 378.175C667.818 378.175 668.422 378.394 668.881 378.831C669.339 379.269 669.568 379.8 669.568 380.425C669.568 380.821 669.464 381.164 669.256 381.456C669.047 381.748 668.73 381.977 668.303 382.144C668.834 382.31 669.235 382.586 669.506 382.972C669.776 383.357 669.912 383.815 669.912 384.347C669.912 385.076 669.651 385.69 669.131 386.19C668.62 386.69 667.938 386.94 667.084 386.94C666.24 386.94 665.558 386.69 665.037 386.19C664.516 385.69 664.256 385.065 664.256 384.315C664.256 383.753 664.396 383.284 664.678 382.909C664.969 382.534 665.375 382.279 665.896 382.144ZM665.678 380.347C665.678 380.753 665.808 381.086 666.068 381.347C666.339 381.607 666.683 381.737 667.099 381.737C667.506 381.737 667.839 381.612 668.099 381.362C668.36 381.102 668.49 380.784 668.49 380.409C668.49 380.024 668.355 379.701 668.084 379.44C667.813 379.17 667.48 379.034 667.084 379.034C666.678 379.034 666.339 379.164 666.068 379.425C665.808 379.685 665.678 379.993 665.678 380.347ZM665.349 384.315C665.349 384.618 665.417 384.909 665.553 385.19C665.698 385.472 665.912 385.69 666.193 385.847C666.474 386.003 666.777 386.081 667.099 386.081C667.599 386.081 668.011 385.92 668.334 385.597C668.667 385.274 668.834 384.862 668.834 384.362C668.834 383.852 668.667 383.43 668.334 383.097C668 382.763 667.579 382.597 667.068 382.597C666.568 382.597 666.157 382.763 665.834 383.097C665.511 383.42 665.349 383.826 665.349 384.315ZM671.271 382.565C671.271 381.545 671.375 380.727 671.584 380.112C671.792 379.487 672.099 379.008 672.506 378.675C672.922 378.341 673.443 378.175 674.068 378.175C674.527 378.175 674.928 378.269 675.271 378.456C675.625 378.644 675.917 378.914 676.146 379.269C676.375 379.612 676.553 380.034 676.678 380.534C676.803 381.034 676.865 381.711 676.865 382.565C676.865 383.576 676.761 384.388 676.553 385.003C676.355 385.618 676.047 386.097 675.631 386.44C675.224 386.774 674.704 386.94 674.068 386.94C673.245 386.94 672.594 386.644 672.115 386.05C671.553 385.341 671.271 384.18 671.271 382.565ZM672.349 382.565C672.349 383.972 672.516 384.909 672.849 385.378C673.183 385.847 673.589 386.081 674.068 386.081C674.558 386.081 674.964 385.847 675.287 385.378C675.62 384.909 675.787 383.972 675.787 382.565C675.787 381.149 675.62 380.211 675.287 379.753C674.964 379.284 674.553 379.05 674.053 379.05C673.573 379.05 673.188 379.253 672.896 379.659C672.532 380.18 672.349 381.149 672.349 382.565ZM678.271 382.565C678.271 381.545 678.375 380.727 678.584 380.112C678.792 379.487 679.099 379.008 679.506 378.675C679.922 378.341 680.443 378.175 681.068 378.175C681.527 378.175 681.928 378.269 682.271 378.456C682.625 378.644 682.917 378.914 683.146 379.269C683.375 379.612 683.553 380.034 683.678 380.534C683.803 381.034 683.865 381.711 683.865 382.565C683.865 383.576 683.761 384.388 683.553 385.003C683.355 385.618 683.047 386.097 682.631 386.44C682.224 386.774 681.704 386.94 681.068 386.94C680.245 386.94 679.594 386.644 679.115 386.05C678.553 385.341 678.271 384.18 678.271 382.565ZM679.349 382.565C679.349 383.972 679.516 384.909 679.849 385.378C680.183 385.847 680.589 386.081 681.068 386.081C681.558 386.081 681.964 385.847 682.287 385.378C682.62 384.909 682.787 383.972 682.787 382.565C682.787 381.149 682.62 380.211 682.287 379.753C681.964 379.284 681.553 379.05 681.053 379.05C680.573 379.05 680.188 379.253 679.896 379.659C679.532 380.18 679.349 381.149 679.349 382.565Z" fill="black"/>
<path d="M576.847 65.5127V66.7002H570.222C570.211 66.4085 570.258 66.1221 570.363 65.8408C570.54 65.3929 570.81 64.9502 571.175 64.5127C571.55 64.0752 572.086 63.57 572.784 62.9971C573.878 62.1012 574.613 61.3929 574.988 60.8721C575.373 60.3512 575.566 59.8564 575.566 59.3877C575.566 58.8981 575.389 58.4867 575.034 58.1533C574.691 57.82 574.243 57.6533 573.691 57.6533C573.097 57.6533 572.618 57.8304 572.253 58.1846C571.899 58.5387 571.722 59.0335 571.722 59.6689L570.456 59.5283C570.54 58.5908 570.862 57.8773 571.425 57.3877C571.998 56.8877 572.758 56.6377 573.706 56.6377C574.675 56.6377 575.435 56.9033 575.988 57.4346C576.55 57.9658 576.831 58.6273 576.831 59.4189C576.831 59.8252 576.748 60.221 576.581 60.6064C576.425 60.9919 576.154 61.3981 575.769 61.8252C575.394 62.2523 574.764 62.8408 573.878 63.5908C573.139 64.2054 572.665 64.6273 572.456 64.8564C572.248 65.0752 572.076 65.2939 571.941 65.5127H576.847ZM578.378 61.7627C578.378 60.5752 578.498 59.6221 578.738 58.9033C578.988 58.1742 579.352 57.6169 579.831 57.2314C580.31 56.8356 580.915 56.6377 581.644 56.6377C582.185 56.6377 582.659 56.7471 583.066 56.9658C583.472 57.1846 583.805 57.4971 584.066 57.9033C584.336 58.3096 584.545 58.8044 584.691 59.3877C584.836 59.971 584.909 60.7627 584.909 61.7627C584.909 62.9398 584.79 63.8877 584.55 64.6064C584.31 65.3252 583.951 65.8825 583.472 66.2783C582.993 66.6742 582.383 66.8721 581.644 66.8721C580.685 66.8721 579.93 66.5231 579.378 65.8252C578.711 64.9919 578.378 63.6377 578.378 61.7627ZM579.644 61.7627C579.644 63.4085 579.836 64.5023 580.222 65.0439C580.607 65.5856 581.081 65.8564 581.644 65.8564C582.217 65.8564 582.696 65.5856 583.081 65.0439C583.467 64.4919 583.659 63.3981 583.659 61.7627C583.659 60.1064 583.467 59.0075 583.081 58.4658C582.696 57.9242 582.211 57.6533 581.628 57.6533C581.066 57.6533 580.618 57.8929 580.284 58.3721C579.857 58.9867 579.644 60.1169 579.644 61.7627ZM592.847 65.5127V66.7002H586.222C586.211 66.4085 586.258 66.1221 586.363 65.8408C586.54 65.3929 586.81 64.9502 587.175 64.5127C587.55 64.0752 588.086 63.57 588.784 62.9971C589.878 62.1012 590.613 61.3929 590.988 60.8721C591.373 60.3512 591.566 59.8564 591.566 59.3877C591.566 58.8981 591.389 58.4867 591.034 58.1533C590.691 57.82 590.243 57.6533 589.691 57.6533C589.097 57.6533 588.618 57.8304 588.253 58.1846C587.899 58.5387 587.722 59.0335 587.722 59.6689L586.456 59.5283C586.54 58.5908 586.862 57.8773 587.425 57.3877C587.998 56.8877 588.758 56.6377 589.706 56.6377C590.675 56.6377 591.435 56.9033 591.988 57.4346C592.55 57.9658 592.831 58.6273 592.831 59.4189C592.831 59.8252 592.748 60.221 592.581 60.6064C592.425 60.9919 592.154 61.3981 591.769 61.8252C591.394 62.2523 590.764 62.8408 589.878 63.5908C589.139 64.2054 588.665 64.6273 588.456 64.8564C588.248 65.0752 588.076 65.2939 587.941 65.5127H592.847ZM600.847 65.5127V66.7002H594.222C594.211 66.4085 594.258 66.1221 594.363 65.8408C594.54 65.3929 594.81 64.9502 595.175 64.5127C595.55 64.0752 596.086 63.57 596.784 62.9971C597.878 62.1012 598.613 61.3929 598.988 60.8721C599.373 60.3512 599.566 59.8564 599.566 59.3877C599.566 58.8981 599.389 58.4867 599.034 58.1533C598.691 57.82 598.243 57.6533 597.691 57.6533C597.097 57.6533 596.618 57.8304 596.253 58.1846C595.899 58.5387 595.722 59.0335 595.722 59.6689L594.456 59.5283C594.54 58.5908 594.862 57.8773 595.425 57.3877C595.998 56.8877 596.758 56.6377 597.706 56.6377C598.675 56.6377 599.435 56.9033 599.988 57.4346C600.55 57.9658 600.831 58.6273 600.831 59.4189C600.831 59.8252 600.748 60.221 600.581 60.6064C600.425 60.9919 600.154 61.3981 599.769 61.8252C599.394 62.2523 598.764 62.8408 597.878 63.5908C597.139 64.2054 596.665 64.6273 596.456 64.8564C596.248 65.0752 596.076 65.2939 595.941 65.5127H600.847Z" fill="#999999"/>
<path d="M606.175 58.1689C605.487 59.3669 604.633 60.3669 603.612 61.1689L602.847 60.1846C604.336 59.0908 605.357 57.5075 605.909 55.4346L607.159 55.7627C607.305 55.9085 607.253 55.9971 607.003 56.0283L606.566 57.1221H614.269V58.1689H610.284V60.0283H613.566V61.0596H610.284V63.5283H614.878V64.5596H610.284V67.8564H609.191V64.5596H602.894V63.5283H605.362V60.0283H609.191V58.1689H606.175ZM606.456 63.5283H609.191V61.0596H606.456V63.5283Z" fill="#999999"/>
<path d="M616.566 64.3877L617.753 64.2783C617.847 64.8304 618.034 65.2314 618.316 65.4814C618.607 65.7314 618.972 65.8564 619.409 65.8564C619.784 65.8564 620.112 65.7731 620.394 65.6064C620.685 65.4294 620.92 65.195 621.097 64.9033C621.284 64.6117 621.441 64.221 621.566 63.7314C621.691 63.2419 621.753 62.7419 621.753 62.2314C621.753 62.1794 621.748 62.096 621.737 61.9814C621.498 62.3773 621.165 62.7002 620.737 62.9502C620.31 63.1898 619.847 63.3096 619.347 63.3096C618.514 63.3096 617.81 63.0075 617.237 62.4033C616.665 61.7992 616.378 61.0075 616.378 60.0283C616.378 59.0075 616.675 58.1898 617.269 57.5752C617.873 56.9502 618.628 56.6377 619.534 56.6377C620.18 56.6377 620.774 56.8148 621.316 57.1689C621.857 57.5127 622.269 58.0127 622.55 58.6689C622.831 59.3148 622.972 60.2523 622.972 61.4814C622.972 62.7627 622.831 63.7835 622.55 64.5439C622.279 65.3044 621.868 65.8825 621.316 66.2783C620.764 66.6742 620.118 66.8721 619.378 66.8721C618.597 66.8721 617.956 66.6533 617.456 66.2158C616.967 65.7783 616.67 65.1689 616.566 64.3877ZM621.597 59.9658C621.597 59.2575 621.409 58.695 621.034 58.2783C620.659 57.8617 620.211 57.6533 619.691 57.6533C619.139 57.6533 618.659 57.8773 618.253 58.3252C617.847 58.7731 617.644 59.3512 617.644 60.0596C617.644 60.695 617.836 61.2158 618.222 61.6221C618.607 62.0179 619.081 62.2158 619.644 62.2158C620.217 62.2158 620.685 62.0179 621.05 61.6221C621.415 61.2158 621.597 60.6637 621.597 59.9658Z" fill="#999999"/>
<path d="M633.706 63.5283H628.503C628.503 65.0908 627.701 66.57 626.097 67.9658L625.175 66.9189C626.665 65.971 627.409 64.5492 627.409 62.6533V55.9814H634.8V66.7627C634.8 67.346 634.487 67.6377 633.862 67.6377H632.55L632.331 66.4189H633.487C633.633 66.4189 633.706 66.346 633.706 66.2002V63.5283ZM628.503 62.3252H633.706V60.3564H628.503V62.3252ZM628.503 59.1533H633.706V57.1846H628.503V59.1533Z" fill="#999999"/>
<path d="M644.847 65.5127V66.7002H638.222C638.211 66.4085 638.258 66.1221 638.363 65.8408C638.54 65.3929 638.81 64.9502 639.175 64.5127C639.55 64.0752 640.086 63.57 640.784 62.9971C641.878 62.1012 642.613 61.3929 642.988 60.8721C643.373 60.3512 643.566 59.8564 643.566 59.3877C643.566 58.8981 643.389 58.4867 643.034 58.1533C642.691 57.82 642.243 57.6533 641.691 57.6533C641.097 57.6533 640.618 57.8304 640.253 58.1846C639.899 58.5387 639.722 59.0335 639.722 59.6689L638.456 59.5283C638.54 58.5908 638.862 57.8773 639.425 57.3877C639.998 56.8877 640.758 56.6377 641.706 56.6377C642.675 56.6377 643.435 56.9033 643.988 57.4346C644.55 57.9658 644.831 58.6273 644.831 59.4189C644.831 59.8252 644.748 60.221 644.581 60.6064C644.425 60.9919 644.154 61.3981 643.769 61.8252C643.394 62.2523 642.764 62.8408 641.878 63.5908C641.139 64.2054 640.665 64.6273 640.456 64.8564C640.248 65.0752 640.076 65.2939 639.941 65.5127H644.847ZM646.566 64.3877L647.753 64.2783C647.847 64.8304 648.034 65.2314 648.316 65.4814C648.607 65.7314 648.972 65.8564 649.409 65.8564C649.784 65.8564 650.113 65.7731 650.394 65.6064C650.685 65.4294 650.92 65.195 651.097 64.9033C651.284 64.6117 651.441 64.221 651.566 63.7314C651.691 63.2419 651.753 62.7419 651.753 62.2314C651.753 62.1794 651.748 62.096 651.738 61.9814C651.498 62.3773 651.165 62.7002 650.738 62.9502C650.31 63.1898 649.847 63.3096 649.347 63.3096C648.514 63.3096 647.81 63.0075 647.238 62.4033C646.665 61.7992 646.378 61.0075 646.378 60.0283C646.378 59.0075 646.675 58.1898 647.269 57.5752C647.873 56.9502 648.628 56.6377 649.534 56.6377C650.18 56.6377 650.774 56.8148 651.316 57.1689C651.857 57.5127 652.269 58.0127 652.55 58.6689C652.831 59.3148 652.972 60.2523 652.972 61.4814C652.972 62.7627 652.831 63.7835 652.55 64.5439C652.279 65.3044 651.868 65.8825 651.316 66.2783C650.764 66.6742 650.118 66.8721 649.378 66.8721C648.597 66.8721 647.956 66.6533 647.456 66.2158C646.967 65.7783 646.67 65.1689 646.566 64.3877ZM651.597 59.9658C651.597 59.2575 651.409 58.695 651.034 58.2783C650.659 57.8617 650.211 57.6533 649.691 57.6533C649.139 57.6533 648.659 57.8773 648.253 58.3252C647.847 58.7731 647.644 59.3512 647.644 60.0596C647.644 60.695 647.836 61.2158 648.222 61.6221C648.607 62.0179 649.081 62.2158 649.644 62.2158C650.217 62.2158 650.685 62.0179 651.05 61.6221C651.415 61.2158 651.597 60.6637 651.597 59.9658Z" fill="#999999"/>
<path d="M657.8 67.2002H656.534V56.6377H665.128V66.9814H663.862V66.2002H657.8V67.2002ZM663.862 60.7939V57.6689H657.8V60.7939H663.862ZM663.862 65.1689V61.8252H657.8V65.1689H663.862ZM678.081 59.8564H680.659V60.7314H678.362V61.9971H680.222V62.8721H678.362V64.1846H680.222V65.0596H678.362V66.4189H681.097V67.3096H675.566V67.8564H674.644V61.7783C674.352 62.1742 673.987 62.5387 673.55 62.8721L673.159 61.8252C674.545 60.5856 675.441 59.2939 675.847 57.9502H674.581V59.2002H673.659V57.0752H676.066C676.211 56.4919 676.336 55.8721 676.441 55.2158L677.534 55.4814C677.649 55.596 677.612 55.7054 677.425 55.8096C677.321 56.2471 677.211 56.6689 677.097 57.0752H680.987V58.9814H680.05V57.9502H676.878C676.659 58.7106 676.368 59.346 676.003 59.8564H677.159L677.862 58.2158L678.909 58.4346C679.086 58.5075 679.05 58.6012 678.8 58.7158L678.081 59.8564ZM668.847 57.3408V56.3096H673.487V57.3408H671.581C671.508 58.4762 671.269 59.5179 670.862 60.4658H673.003V66.9814H672.066V66.0908H670.644V67.5283H669.722V62.5908C669.503 62.9554 669.264 63.2835 669.003 63.5752L668.3 62.6533C669.571 61.2262 670.316 59.4554 670.534 57.3408H668.847ZM675.566 62.8721V64.1846H677.425V62.8721H675.566ZM675.566 60.7314V61.9971H677.425V60.7314H675.566ZM675.566 65.0596V66.4189H677.425V65.0596H675.566ZM670.644 61.3408V65.2158H672.066V61.3408H670.644ZM687.222 61.4502C688.566 61.0856 689.42 60.3721 689.784 59.3096L688.316 58.7158L688.691 57.7783L690.003 58.2783L690.112 56.9658H687.816V55.9189H694.378L694.269 60.6221C694.237 61.5387 693.857 61.9971 693.128 61.9971H691.862L691.753 60.9502H692.909C693.128 60.9502 693.237 60.8408 693.237 60.6221L693.347 56.9658H691.206L691.05 58.7158L692.362 59.4189L691.862 60.4033L690.769 59.8096C690.3 61.1533 689.264 62.0648 687.659 62.5439L687.222 61.4502ZM694.159 66.9189C693.868 65.8252 693.415 64.8773 692.8 64.0752L693.784 63.6377C694.586 64.6169 695.097 65.5439 695.316 66.4189L694.159 66.9189ZM686.831 63.4658V67.6846H685.909V67.3096H684.05V67.9033H683.112V63.4658H686.831ZM687.269 66.9814C687.529 66.0648 687.696 65.0231 687.769 63.8564L688.862 63.9658C688.935 63.9971 688.899 64.0856 688.753 64.2314C688.711 65.3981 688.545 66.4033 688.253 67.2471L687.269 66.9814ZM690.769 61.6689C691.279 61.9919 691.79 62.5544 692.3 63.3564L691.269 63.9658C691.008 63.4554 690.571 62.8721 689.956 62.2158L690.769 61.6689ZM683.331 55.7002H686.612V56.7471H683.331V55.7002ZM682.628 57.5596H687.331V58.6064H682.628V57.5596ZM683.331 59.5908H686.612V60.6221H683.331V59.5908ZM683.331 61.4502H686.612V62.4814H683.331V61.4502ZM684.05 64.3408V66.4189H685.909V64.3408H684.05ZM690.222 63.3096C690.514 63.3408 690.534 63.4502 690.284 63.6377V66.2002C690.284 66.4606 690.394 66.5908 690.612 66.5908H691.816C692.034 66.5908 692.159 66.4814 692.191 66.2627L692.3 65.3877L693.394 65.6533L693.175 66.8096C693.071 67.3617 692.743 67.6377 692.191 67.6377H690.112C689.498 67.6377 689.191 67.3044 689.191 66.6377V63.3096H690.222Z" fill="#999999"/>
<path d="M35.4031 26.5908H37.825L37.9813 26.3564L39.2313 27.1377C39.4396 27.346 39.3615 27.4762 38.9969 27.5283L37.0438 30.3408H40.1688V33.3877H41.2625V34.6377H40.1688V38.3877H38.8406V37.6846H37.0438V41.6689C37.0438 42.3981 36.7052 42.7627 36.0281 42.7627H34.6219L34.3875 41.2783H35.1688C35.3771 41.2783 35.4813 41.1742 35.4813 40.9658V37.6846H32.9031V36.4346H35.4813V34.6377H31.8094V33.3877H35.4813V31.5908H33.2156V30.4971C32.9552 30.8617 32.6948 31.1481 32.4344 31.3564L31.3406 30.4189C32.7469 29.0127 33.8146 27.1637 34.5438 24.8721L36.1063 25.1846C36.3146 25.3929 36.2365 25.5231 35.8719 25.5752L35.4031 26.5908ZM34.9344 27.8408C34.6219 28.5179 34.075 29.3512 33.2938 30.3408H35.4813L37.2 27.8408H34.9344ZM28.2938 41.5127H29.1531C29.3615 41.5127 29.4656 41.4085 29.4656 41.2002V39.4033H25.95V42.8408H24.6219V33.6221H30.7938V41.5908C30.7938 42.3721 30.4813 42.7627 29.8563 42.7627H28.5281L28.2938 41.5127ZM28.3719 31.3564H31.8094V32.6064H23.3719V31.3564H26.8094V30.2627H24.3875V29.0127H26.8094V27.9189H23.8406V26.6689H26.8094V24.9502H28.2938C28.7104 25.0023 28.7365 25.1585 28.3719 25.4189V26.6689H31.6531V27.9189H28.3719V29.0127H31.1844V30.2627H28.3719V31.3564ZM29.4656 37.1377H25.95V38.1533H29.4656V37.1377ZM29.4656 34.8721H25.95V35.8877H29.4656V34.8721ZM38.8406 31.5908H37.0438V33.3877H38.8406V31.5908ZM38.8406 34.6377H37.0438V36.4346H38.8406V34.6377ZM49.4656 28.0752C50.0386 28.5439 50.5333 29.221 50.95 30.1064L49.6219 30.9658C49.2573 30.2367 48.7886 29.5335 48.2156 28.8564L49.4656 28.0752ZM55.7156 28.4658C55.924 28.7262 55.8458 28.8825 55.4813 28.9346L54.3875 31.2002H57.7469V32.6846H52.9031V38.3096H55.0125V34.0908H56.4969C56.9136 34.1429 56.9396 34.2992 56.575 34.5596V40.0283H55.0125V39.7939H49.2313V40.4971H47.6688V34.0908H49.1531C49.5698 34.1429 49.5958 34.2992 49.2313 34.5596V38.3096H51.3406V32.6846H46.575V31.2002H52.9813L54.2313 27.9189L55.7156 28.4658ZM44.2313 25.8877H60.0125V41.2783C60.0125 42.1117 59.5958 42.5283 58.7625 42.5283H56.9656L56.575 40.8096H58.1375C58.3458 40.8096 58.45 40.7054 58.45 40.4971V27.3721H45.7938V42.6064H44.2313V25.8877ZM76.1844 37.6064C77.2261 38.6481 78.7625 39.6898 80.7938 40.7314L79.8563 42.3721C78.0854 41.5387 76.4188 40.3408 74.8563 38.7783L76.1844 37.6064ZM69.3875 39.0127C68.5021 40.2627 67.1479 41.4867 65.325 42.6846L64.1531 41.2002C65.8198 40.2106 67.1479 39.0387 68.1375 37.6846L69.6219 38.5439C69.8823 38.7523 69.8042 38.9085 69.3875 39.0127ZM66.1844 36.9814V37.7627H64.6219V26.5127H66.1063C66.5229 26.5648 66.549 26.721 66.1844 26.9814V35.4971H80.5594V36.9814H73.2938V42.9971H71.4969V36.9814H66.1844ZM69.6219 33.2314H76.4188V31.7471H69.6219V33.2314ZM69.6219 30.4971H76.4188V29.2471H69.6219V30.4971ZM69.6219 27.9971H76.4188V26.7471H69.6219V27.9971ZM68.0594 34.4814V25.4971H77.9813V34.4814H68.0594ZM92.9813 30.1846C92.0958 35.3929 91.0281 38.6221 89.7781 39.8721C89.1011 40.5492 88.3979 40.8877 87.6688 40.8877C86.8354 40.8877 86.1844 40.6533 85.7156 40.1846C84.4656 38.9346 83.8406 37.3721 83.8406 35.4971C83.8406 33.2054 84.6479 31.2523 86.2625 29.6377C88.0333 27.8669 90.1948 26.9814 92.7469 26.9814C95.0386 26.9814 96.8354 27.6325 98.1375 28.9346C99.5958 30.3929 100.325 32.1117 100.325 34.0908C100.325 36.2262 99.6479 37.971 98.2938 39.3252C97.4083 40.2106 96.0542 41.07 94.2313 41.9033L92.5906 40.2627C94.4136 39.6898 95.8458 38.8825 96.8875 37.8408C97.8771 36.8512 98.3719 35.6533 98.3719 34.2471C98.3719 32.5804 97.825 31.2002 96.7313 30.1064C95.6375 29.0127 93.9188 28.5179 91.575 28.6221L92.9813 29.3252C93.6063 29.5856 93.6063 29.8721 92.9813 30.1846ZM91.1844 28.7002C89.8302 29.0127 88.6583 29.6637 87.6688 30.6533C86.3146 32.0075 85.6375 33.6742 85.6375 35.6533C85.6375 36.8512 86.0281 37.8408 86.8094 38.6221C86.9656 38.7783 87.2 38.8564 87.5125 38.8564C87.825 38.8564 88.1636 38.6742 88.5281 38.3096C89.7261 37.1117 90.6115 33.9085 91.1844 28.7002ZM110.325 41.5127C112.46 40.3669 113.528 38.4137 113.528 35.6533V26.6689L115.169 26.9814L119.388 25.6533L120.559 27.2158C120.664 27.5283 120.481 27.5804 120.013 27.3721L115.091 28.3096V31.6689H121.263V33.1533H118.919V42.9189H117.356V33.1533H115.091V36.1221C115.091 39.195 113.789 41.4867 111.184 42.9971L110.325 41.5127ZM108.841 42.9971H107.278V38.3096C106.445 39.6637 105.533 40.7314 104.544 41.5127L103.372 40.1064C104.83 39.0648 106.054 37.7627 107.044 36.2002H103.763V34.7158H107.278V32.9971H103.294V31.5127H108.763L109.622 28.7002H103.841V27.2158H107.278V25.0283H108.763C109.179 25.0804 109.205 25.2367 108.841 25.4971V27.2158H112.278V28.7002H111.263L110.169 31.5127H112.669V32.9971H108.841V34.7158H112.278V36.2002H108.841V36.9033C109.57 37.1117 110.585 37.6585 111.888 38.5439L110.95 40.1064C110.221 39.3773 109.518 38.8044 108.841 38.3877V42.9971ZM105.716 31.3564C105.507 30.6273 105.221 29.9242 104.856 29.2471L106.341 28.7783C106.757 29.4554 107.07 30.1585 107.278 30.8877L105.716 31.3564ZM138.45 33.5439H133.372V35.2627H138.45V33.5439ZM136.341 36.7471H134.934V37.5283C134.934 40.7575 133.085 42.6585 129.388 43.2314L128.919 41.5908C131.888 41.2262 133.372 39.82 133.372 37.3721V36.7471H132.591H131.809V25.8096H140.013V36.7471H137.903V40.6533C137.903 41.07 138.085 41.2783 138.45 41.2783H139.231C139.492 41.2783 139.648 41.0179 139.7 40.4971L139.856 39.1689L141.419 39.6377L141.184 41.4346C141.08 42.32 140.585 42.7627 139.7 42.7627H137.747C136.809 42.7627 136.341 42.32 136.341 41.4346V36.7471ZM133.372 32.0596H138.45V30.4189H133.372V32.0596ZM133.372 28.9346H138.45V27.2939H133.372V28.9346ZM127.747 35.8877C128.789 36.3564 130.013 37.2158 131.419 38.4658L130.325 40.1064C129.231 38.9085 128.268 38.0231 127.434 37.4502C126.914 39.7419 125.82 41.5387 124.153 42.8408L122.981 41.4346C125.273 39.5075 126.367 37.0075 126.263 33.9346H123.294V32.4502H126.341V29.6377H123.841V28.1533H126.341V25.0283H127.825C128.242 25.0804 128.268 25.2367 127.903 25.4971V28.1533H130.638V29.6377H127.903V32.4502H131.028V33.9346H127.825C127.825 34.7679 127.799 35.4189 127.747 35.8877ZM147.825 32.1377C148.815 33.4919 149.309 34.8981 149.309 36.3564C149.309 38.3877 148.71 39.4033 147.513 39.4033H146.575L146.263 37.8408H147.044C147.565 37.8408 147.799 37.2939 147.747 36.2002C147.695 34.6898 147.226 33.3617 146.341 32.2158L147.903 27.1377H145.481V42.7627H143.919V25.8877H148.294L148.606 25.4971L149.934 26.6689L149.622 26.9814L147.825 32.1377ZM159.153 36.5127H158.372C157.539 40.3148 154.752 42.5023 150.013 43.0752L149.544 41.5908C153.606 41.2783 156.054 39.5856 156.888 36.5127H155.794C154.908 38.7002 153.033 40.0283 150.169 40.4971L149.7 39.1689C152.096 38.6481 153.58 37.7627 154.153 36.5127H152.903C152.174 37.2419 151.236 37.8148 150.091 38.2314L149.466 36.9033C151.132 36.3825 152.278 35.3929 152.903 33.9346H149.388V32.6846H161.106V33.9346H154.544C154.335 34.4033 154.075 34.846 153.763 35.2627H160.638L160.481 40.1846C160.429 41.8512 159.83 42.6846 158.684 42.6846H157.122L156.888 41.2002H158.216C158.684 41.2002 158.945 40.8877 158.997 40.2627L159.153 36.5127ZM152.513 30.4189H157.825V29.0908H152.513V30.4189ZM152.513 27.8408H157.825V26.5908H152.513V27.8408ZM159.153 25.3408V31.6689H151.184V25.3408H159.153ZM172.434 29.3252H174.544V25.2627H176.028C176.445 25.3148 176.471 25.471 176.106 25.7314V29.3252H180.325V30.8096H176.106V34.5596H180.091V36.0439H176.106V40.6533H181.263V42.1377H169.309V40.6533H174.544V36.0439H170.716V34.5596H174.544V30.8096H171.966C171.601 31.8512 171.028 32.8929 170.247 33.9346L168.919 32.9189C170.273 31.1481 171.158 29.0127 171.575 26.5127L173.059 26.8252C173.476 26.9814 173.476 27.1377 173.059 27.2939L172.434 29.3252ZM165.794 25.0283H167.278C167.695 25.0804 167.721 25.2367 167.356 25.4971V42.8408H165.794V25.0283ZM168.763 28.2314C169.231 28.8564 169.622 29.5596 169.934 30.3408L168.684 31.2002C168.32 30.3148 167.955 29.5856 167.591 29.0127L168.763 28.2314ZM165.325 29.0908C165.69 29.195 165.69 29.3512 165.325 29.5596C165.221 31.2262 164.986 32.7887 164.622 34.2471L163.138 33.7783C163.554 32.4762 163.789 30.8356 163.841 28.8564L165.325 29.0908ZM198.138 33.6221V42.6846H196.575V41.9033H189.544V42.9189H187.981V35.8096C186.627 36.5387 185.169 37.1117 183.606 37.5283L183.059 36.1221C184.518 35.7575 186.158 35.1064 187.981 34.1689V33.6221H189.075C190.169 32.9971 191.106 32.3721 191.888 31.7471H183.684V30.2627H190.559V28.3877H185.716V26.9033H190.559V25.0283H192.044C192.46 25.0804 192.486 25.2367 192.122 25.4971V26.9033H195.872V28.2314C196.497 27.5544 197.122 26.7992 197.747 25.9658L198.841 26.6689C199.205 26.9294 199.153 27.0856 198.684 27.1377C197.695 28.3356 196.705 29.3773 195.716 30.2627H201.106V31.7471H194.075C193.033 32.6325 192.2 33.2575 191.575 33.6221H198.138ZM193.606 30.2627C194.231 29.7939 194.934 29.1689 195.716 28.3877H192.122V30.2627H193.606ZM189.544 36.9814H196.575V34.8721H189.544V36.9814ZM189.544 40.6533H196.575V38.2314H189.544V40.6533ZM216.731 36.9033C217.46 35.4971 217.903 33.3617 218.059 30.4971H215.403C215.559 33.3617 216.002 35.4971 216.731 36.9033ZM219.622 30.4971C219.518 33.7262 218.893 36.3304 217.747 38.3096C218.58 39.3512 219.752 40.2627 221.263 41.0439L220.247 42.7627C218.58 41.6689 217.408 40.6273 216.731 39.6377C215.533 40.9919 213.684 42.1637 211.184 43.1533L210.403 41.5908C213.111 40.4971 214.908 39.3773 215.794 38.2314C214.908 36.5127 214.414 34.7939 214.309 33.0752C213.997 33.8564 213.684 34.4554 213.372 34.8721L212.044 33.8564C213.606 31.5648 214.544 28.7262 214.856 25.3408L216.497 25.7314C216.809 25.9398 216.731 26.096 216.263 26.2002C216.106 27.1377 215.898 28.0752 215.638 29.0127H220.95V30.4971H219.622ZM212.356 26.7471C212.044 27.5283 211.679 28.1794 211.263 28.7002L210.013 27.9971C210.429 27.32 210.82 26.5387 211.184 25.6533L212.591 26.3564C212.799 26.5648 212.721 26.695 212.356 26.7471ZM207.356 37.7627C208.085 37.971 208.736 38.2054 209.309 38.4658C209.726 37.9971 210.065 37.2939 210.325 36.3564H208.059C207.851 36.8252 207.617 37.2939 207.356 37.7627ZM206.263 39.7158L205.013 39.0127C205.533 38.2314 206.054 37.346 206.575 36.3564H203.606V35.1064H207.044C207.356 34.4294 207.591 33.8564 207.747 33.3877L209.231 33.7783C209.44 33.9867 209.361 34.1169 208.997 34.1689L208.528 35.1064H212.981V36.3564H211.809C211.549 37.3981 211.158 38.2835 210.638 39.0127C211.106 39.221 211.601 39.4814 212.122 39.7939L211.419 41.0439C210.846 40.6794 210.325 40.3929 209.856 40.1846C208.502 41.5387 206.679 42.3721 204.388 42.6846L203.841 41.2783C205.872 41.07 207.434 40.4971 208.528 39.5596C207.955 39.2992 207.382 39.0648 206.809 38.8564L206.263 39.7158ZM207.825 25.0283H209.075C209.492 25.0804 209.518 25.2367 209.153 25.4971V28.8564H213.138V30.1064H209.856C210.429 30.7835 211.315 31.4346 212.513 32.0596L211.653 33.3877C210.768 32.8669 209.934 32.1377 209.153 31.2002V33.0752H207.825V31.5908C206.992 32.6325 205.846 33.57 204.388 34.4033L203.372 33.1533C204.986 32.32 206.315 31.3044 207.356 30.1064H203.763V28.8564H207.825V25.0283ZM205.638 28.6221C205.273 27.8408 204.804 27.1637 204.231 26.5908L205.481 25.8096C206.106 26.4346 206.575 27.0856 206.888 27.7627L205.638 28.6221ZM232.981 30.1846C232.096 35.3929 231.028 38.6221 229.778 39.8721C229.101 40.5492 228.398 40.8877 227.669 40.8877C226.835 40.8877 226.184 40.6533 225.716 40.1846C224.466 38.9346 223.841 37.3721 223.841 35.4971C223.841 33.2054 224.648 31.2523 226.263 29.6377C228.033 27.8669 230.195 26.9814 232.747 26.9814C235.039 26.9814 236.835 27.6325 238.138 28.9346C239.596 30.3929 240.325 32.1117 240.325 34.0908C240.325 36.2262 239.648 37.971 238.294 39.3252C237.408 40.2106 236.054 41.07 234.231 41.9033L232.591 40.2627C234.414 39.6898 235.846 38.8825 236.888 37.8408C237.877 36.8512 238.372 35.6533 238.372 34.2471C238.372 32.5804 237.825 31.2002 236.731 30.1064C235.638 29.0127 233.919 28.5179 231.575 28.6221L232.981 29.3252C233.606 29.5856 233.606 29.8721 232.981 30.1846ZM231.184 28.7002C229.83 29.0127 228.658 29.6637 227.669 30.6533C226.315 32.0075 225.638 33.6742 225.638 35.6533C225.638 36.8512 226.028 37.8408 226.809 38.6221C226.966 38.7783 227.2 38.8564 227.513 38.8564C227.825 38.8564 228.164 38.6742 228.528 38.3096C229.726 37.1117 230.611 33.9085 231.184 28.7002ZM248.763 31.8252C250.481 30.2106 251.809 27.8669 252.747 24.7939L254.309 25.2627C254.57 25.471 254.518 25.6012 254.153 25.6533C253.736 26.695 253.32 27.6585 252.903 28.5439H255.247C255.82 27.346 256.263 26.2783 256.575 25.3408L258.059 25.8877C258.268 26.096 258.19 26.2262 257.825 26.2783C257.46 27.1117 257.096 27.8669 256.731 28.5439H260.716V30.0283H256.731V32.4502H259.934V33.9346H256.731V36.4346H259.934V37.9189H256.731V40.8096H261.184V42.2939H252.591V42.9971H251.028V31.6689C250.664 32.1898 250.273 32.6585 249.856 33.0752L248.763 31.8252ZM244.856 42.8408L244.544 41.3564H245.872C246.08 41.3564 246.184 41.2523 246.184 41.0439V36.2002L244.153 36.6689C244.101 37.0335 243.971 37.1117 243.763 36.9033L243.45 35.1064L246.184 34.5596V30.4189H243.763V28.9346H246.184V24.9502H247.669C248.085 25.0023 248.111 25.1585 247.747 25.4189V28.9346H249.778V30.4189H247.747V34.2471L249.778 33.7002L250.013 35.1064L247.747 35.8096V41.5908C247.747 42.4242 247.33 42.8408 246.497 42.8408H244.856ZM252.591 40.8096H255.169V37.9189H252.591V40.8096ZM252.591 36.4346H255.169V33.9346H252.591V36.4346ZM252.591 32.4502H255.169V30.0283H252.591V32.4502ZM278.841 27.1377L279.075 26.8252L280.325 27.8408L280.091 28.0752C278.736 30.4189 277.408 31.9814 276.106 32.7627L276.888 32.9971C277.252 33.1533 277.226 33.3096 276.809 33.4658C276.705 33.8304 276.575 34.1429 276.419 34.4033H279.778L280.013 34.0908L281.419 35.1064L281.106 35.4189C279.44 39.846 276.054 42.346 270.95 42.9189L270.325 41.4346C272.773 41.1742 274.7 40.5231 276.106 39.4814C275.377 38.7523 274.648 38.1273 273.919 37.6064C273.242 38.1794 272.33 38.7002 271.184 39.1689L270.481 37.7627C273.033 36.721 274.7 35.1325 275.481 32.9971C274.7 33.7262 273.294 34.3512 271.263 34.8721L270.559 33.4658C272.539 33.0492 274.023 32.5023 275.013 31.8252C274.492 31.2002 273.867 30.6533 273.138 30.1846C272.773 30.5492 272.408 30.8617 272.044 31.1221L270.95 29.9502C272.669 28.4919 273.763 26.9294 274.231 25.2627L275.638 25.7314C276.002 25.8877 275.976 26.0439 275.559 26.2002C275.507 26.5127 275.377 26.8252 275.169 27.1377H278.841ZM268.216 30.1846H270.794V31.6689H268.216V33.6221C269.257 34.0908 270.247 34.7939 271.184 35.7314L270.169 37.1377C269.335 36.3044 268.684 35.7054 268.216 35.3408V42.9189H266.653V35.1846C266.341 36.2262 265.481 37.5544 264.075 39.1689L262.903 37.6846C264.83 35.8617 266.028 33.8564 266.497 31.6689H263.45V30.1846H266.653V27.6064C265.611 27.7627 264.674 27.8929 263.841 27.9971L263.45 26.5127C265.533 26.3044 267.695 25.8877 269.934 25.2627L270.794 26.4346C271.002 26.7471 270.872 26.8512 270.403 26.7471C269.674 26.9554 268.945 27.1377 268.216 27.2939V30.1846ZM273.919 29.2471C274.7 29.6637 275.455 30.1846 276.184 30.8096C276.966 30.0804 277.617 29.2731 278.138 28.3877H274.544C274.335 28.7523 274.127 29.0387 273.919 29.2471ZM274.778 36.6689C275.507 37.0856 276.341 37.7106 277.278 38.5439C278.059 37.971 278.736 37.0075 279.309 35.6533H275.716C275.403 36.07 275.091 36.4085 274.778 36.6689ZM286.809 29.3252C287.382 28.1273 288.346 26.9033 289.7 25.6533L290.559 26.4346C289.257 27.6325 288.346 28.7783 287.825 29.8721C287.252 31.07 286.966 32.5023 286.966 34.1689C286.966 35.5752 287.252 36.9033 287.825 38.1533C288.346 39.2992 289.257 40.5752 290.559 41.9814L289.7 42.8408C288.398 41.3825 287.434 40.0023 286.809 38.7002C286.132 37.2939 285.794 35.7835 285.794 34.1689C285.794 32.346 286.132 30.7314 286.809 29.3252ZM297.903 41.9033H296.106V26.8252H308.372V41.5908H306.575V40.4971H297.903V41.9033ZM306.575 32.7627V28.3096H297.903V32.7627H306.575ZM306.575 39.0127V34.2471H297.903V39.0127H306.575ZM321.341 35.8096H318.372C317.903 38.7783 316.497 41.1221 314.153 42.8408L313.372 41.3564C315.664 39.7419 316.914 37.346 317.122 34.1689L317.278 31.7471H316.184V32.7627H314.622V26.0439H322.513V32.4502H320.95V31.7471H318.684L318.528 34.3252H322.903L322.513 40.4971C322.408 41.7471 321.888 42.3721 320.95 42.3721H318.841L318.606 40.8877H320.325C320.794 40.8877 321.054 40.6273 321.106 40.1064L321.341 35.8096ZM329.778 41.2002C329.778 42.0856 329.361 42.5283 328.528 42.5283H326.809L326.497 41.0439H327.981C328.138 41.0439 328.216 40.9658 328.216 40.8096V25.8096H329.7C330.117 25.8617 330.143 26.0179 329.778 26.2783V41.2002ZM326.028 27.6846C326.445 27.7367 326.471 27.8929 326.106 28.1533V38.8564H324.544V27.6846H326.028ZM320.95 30.4971V27.2939H316.184V30.4971H320.95ZM337.513 38.7002C336.888 40.0023 335.924 41.3825 334.622 42.8408L333.763 41.9814C335.065 40.5752 335.976 39.2992 336.497 38.1533C337.07 36.9033 337.356 35.5752 337.356 34.1689C337.356 32.5023 337.07 31.07 336.497 29.8721C335.976 28.7783 335.065 27.6325 333.763 26.4346L334.622 25.6533C335.976 26.9033 336.94 28.1273 337.513 29.3252C338.19 30.7314 338.528 32.346 338.528 34.1689C338.528 35.7835 338.19 37.2939 337.513 38.7002Z" fill="#757575"/>
</g>
<rect x="2" y="2" width="714" height="440" stroke="black" stroke-width="4"/>
<defs>
<clipPath id="clip0_7_34250">
<rect width="718" height="444" fill="white"/>
</clipPath>
</defs>
</svg>
