<svg width="718" height="444" viewBox="0 0 718 444" fill="none" xmlns="http://www.w3.org/2000/svg">
<g clip-path="url(#clip0_1_2)">
<path d="M0 0H718V444H0V0Z" fill="white"/>
<path d="M187.5 91.5V369.5" stroke="#CCCCCC" stroke-miterlimit="10"/>
<path d="M307.5 91.5V369.5" stroke="#CCCCCC" stroke-miterlimit="10"/>
<path d="M427.5 91.5V369.5" stroke="#CCCCCC" stroke-miterlimit="10"/>
<path d="M547.5 91.5V369.5" stroke="#CCCCCC" stroke-miterlimit="10"/>
<path d="M667.5 91.5V369.5" stroke="#CCCCCC" stroke-miterlimit="10"/>
<path d="M95.5 369.5H695.5" stroke="#333333" stroke-miterlimit="10"/>
<path d="M95.5 314.5H695.5" stroke="#CCCCCC" stroke-miterlimit="10"/>
<path d="M95.5 258.5H695.5" stroke="#CCCCCC" stroke-miterlimit="10"/>
<path d="M95.5 202.5H695.5" stroke="#CCCCCC" stroke-miterlimit="10"/>
<path d="M95.5 147.5H695.5" stroke="#CCCCCC" stroke-miterlimit="10"/>
<path d="M95.5 91.5H695.5" stroke="#CCCCCC" stroke-miterlimit="10"/>
<path d="M95.2 369.8H95.8H96.4H97H97.6H98.2H98.8H99.4L100 369.794H100.6L101.2 369.8H101.8H102.4H103L103.6 369.794L104.2 369.8H104.8H105.4H106H106.6H107.2H107.8H108.4H109H109.6H110.2H110.8H111.4H112H112.6H113.2H113.8H114.4L115 369.783H115.6L116.2 369.8L116.8 369.783L117.4 369.794L118 369.8L118.6 369.783L119.2 369.8L119.8 369.783L120.4 369.794L121 369.8L121.6 369.794L122.2 369.789L122.8 369.8L123.4 369.794L124 369.778L124.6 369.755L125.2 369.767H125.8L126.4 369.8H127L127.6 369.783L128.2 369.767L128.8 369.789H129.4L130 369.744L130.6 369.783L131.2 369.8L131.8 369.733L132.4 369.75L133 369.761L133.6 369.739L134.2 369.761L134.8 369.783L135.4 369.711L136 369.6L136.6 369.572L137.2 369.544L137.8 369.683L138.4 369.444L139 369.399L139.6 369.733L140.2 369.36L140.8 369.427L141.4 369.255L142 369.288L142.6 369.143L143.2 369.015L143.8 369.327L144.4 369.316L145 368.937L145.6 368.787L146.2 368.692L146.8 368.687L147.4 368.832L148 369.243L148.6 368.915L149.2 369.093L149.8 368.965L150.4 368.665L151 368.77L151.6 369.199L152.2 369.232L152.8 369.104L153.4 369.115L154 369.054L154.6 368.848L155.2 369.138L155.8 369.344L156.4 369.572L157 369.165L157.6 369.544L158.2 369.472L158.8 368.882L159.4 368.943L160 369.282L160.6 369.31L161.2 369.483L161.8 369.594L162.4 369.672L163 369.583L163.6 369.6L164.2 369.678L164.8 369.717L165.4 369.65L166 369.744L166.6 369.633L167.2 369.75L167.8 369.722L168.4 369.772L169 369.744L169.6 369.772H170.2L170.8 369.739L171.4 369.789L172 369.783L172.6 369.722L173.2 369.755L173.8 369.744L174.4 369.739L175 369.717L175.6 369.683L176.2 369.722L176.8 369.772L177.4 369.728L178 369.611L178.6 369.733L179.2 369.644L179.8 369.689L180.4 369.655L181 369.722L181.6 369.728L182.2 369.733L182.8 369.7L183.4 369.678L184 369.661L184.6 369.666L185.2 369.538L185.8 369.533L186.4 369.65L187 369.711L187.6 369.572L188.2 369.605L188.8 369.583L189.4 369.611L190 369.639L190.6 369.627L191.2 369.494L191.8 369.533L192.4 369.499L193 369.483L193.6 369.466L194.2 369.477L194.8 369.499L195.4 369.427L196 369.204L196.6 369.11L197.2 369.071L197.8 369.182L198.4 369.232L199 369.21L199.6 369.383L200.2 368.553L200.8 368.447L201.4 368.653H202L202.6 369.143L203.2 369.004L203.8 368.882L204.4 368.208L205 368.169L205.6 368.186L206.2 368.754L206.8 368.865L207.4 368.481L208 368.475L208.6 367.763L209.2 368.353L209.8 368.158L210.4 368.47L211 369.071L211.6 368.319L212.2 368.409L212.8 367.757L213.4 367.229L214 367.173L214.6 368.175L215.2 368.364L215.8 368.08L216.4 368.336L217 367.796L217.6 367.234L218.2 367.412L218.8 367.958L219.4 368.703L220 368.754L220.6 368.564L221.2 368.653L221.8 367.635L222.4 367.657L223 368.353L223.6 368.904L224.2 368.648L224.8 368.765L225.4 367.913L226 368.364L226.6 368.375L227.2 368.62L227.8 369.271L228.4 368.787L229 368.486L229.6 368.409L230.2 368.542L230.8 368.425L231.4 368.976L232 369.243L232.6 368.854L233.2 369.015L233.8 368.626L234.4 369.043L235 368.793L235.6 369.154L236.2 369.377L236.8 368.854L237.4 368.971L238 368.264L238.6 368.759L239.2 368.542L239.8 368.987L240.4 369.355L241 368.737L241.6 368.893L242.2 368.848L242.8 368.575L243.4 368.587L244 368.898L244.6 369.26L245.2 369.31L245.8 369.472L246.4 368.726L247 368.715L247.6 368.303L248.2 368.999L248.8 369.366L249.4 368.626L250 368.72L250.6 368.498L251.2 368.709L251.8 368.659L252.4 369.204L253 369.438L253.6 368.82L254.2 369.021L254.8 368.42L255.4 368.67L256 368.42L256.6 368.987L257.2 369.366L257.8 368.876L258.4 368.815L259 368.219L259.6 368.781L260.2 368.492L260.8 369.065L261.4 369.366L262 369.026L262.6 368.993L263.2 368.77L263.8 368.765L264.4 368.681L265 369.11L265.6 369.232L266.2 368.921L266.8 368.848L267.4 368.575L268 368.67L268.6 368.603L269.2 369.154L269.8 369.316L270.4 368.637L271 369.121L271.6 368.303L272.2 368.453L272.8 368.164L273.4 368.748L274 368.932L274.6 368.169L275.2 368.041L275.8 367.618L276.4 367.718L277 367.841L277.6 368.381L278.2 368.798L278.8 368.141L279.4 367.095L280 366.844L280.6 366.895L281.2 366.8L281.8 367.629L282.4 368.047L283 368.754L283.6 367.562L284.2 367.117L284.8 366.627L285.4 366.677L286 367.468L286.6 368.063L287.2 367.741L287.8 367.011L288.4 366.839L289 367.245L289.6 366.549L290.2 367.974L290.8 368.125L291.4 367.83L292 366.605L292.6 366.455L293.2 366.483L293.8 366.344L294.4 367.123L295 368.102L295.6 367.256L296.2 366.01L296.8 365.225L297.4 366.104L298 365.703L298.6 366.705L299.2 367.59L299.8 366.627L300.4 365.581L301 364.818L301.6 364.846L302.2 364.49L302.8 365.859L303.4 367.067L304 364.963L304.6 364.451L305.2 362.269L305.8 365.386L306.4 365.186L307 365.202L307.6 364.763L308.2 362.481L308.8 360.672L309.4 355.774L310 356.113L310.6 356.82L311.2 361.395L311.8 362.831L312.4 364.095L313 361.562L313.6 361.162L314.2 358.423L314.8 359.564L315.4 360.922L316 363.026L316.6 362.826L317.2 362.642L317.8 361.534L318.4 363.21L319 363.794L319.6 364.312L320.2 366.355L320.8 364.089L321.4 364.368L322 363.872L322.6 364.952L323.2 365.514L323.8 366.271L324.4 367.613L325 366.705L325.6 366.037L326.2 365.715L326.8 366.588L327.4 366.243L328 367.412L328.6 368.264L329.2 367.507L329.8 367.067L330.4 367.384L331 368.091L331.6 367.746L332.2 367.735L332.8 368.319L333.4 367.852L334 367.696L334.6 367.323L335.2 367.835L335.8 367.98L336.4 368.286L337 368.809L337.6 368.269L338.2 368.614L338.8 367.908L339.4 368.297L340 367.924L340.6 367.969L341.2 369.127L341.8 368.509L342.4 368.041L343 368.247L343.6 368.125L344.2 368.169L344.8 368.481L345.4 369.154L346 368.186L346.6 367.908L347.2 367.935L347.8 368.108L348.4 367.963L349 368.47L349.6 368.826L350.2 368.13L350.8 367.523L351.4 368.002L352 368.113L352.6 367.896L353.2 368.375L353.8 368.759L354.4 367.924L355 367.462L355.6 367.607L356.2 367.707L356.8 367.407L357.4 368.058L358 368.498L358.6 367.774L359.2 367.496L359.8 367.156L360.4 367.368L361 367.318L361.6 367.83L362.2 368.42L362.8 367.59L363.4 366.716L364 366.778L364.6 366.811L365.2 366.627L365.8 367.457L366.4 368.086L367 366.956L367.6 366.51L368.2 365.748L368.8 366.093L369.4 365.581L370 366.789L370.6 367.551L371.2 365.848L371.8 365.113L372.4 365.013L373 365.581L373.6 364.93L374.2 366.277L374.8 367.434L375.4 365.18L376 364.64L376.6 364.078L377.2 365.915L377.8 363.945L378.4 364.919L379 365.859L379.6 366.433L380.2 366.36L380.8 366.516L381.4 364.746L382 363.533L382.6 364.05L383.2 366.605L383.8 364.657L384.4 364.395L385 364.173L385.6 365.052L386.2 365.509L386.8 366.778L387.4 367.462L388 365.726L388.6 365.52L389.2 365.102L389.8 366.199L390.4 366.46L391 366.839L391.6 367.908L392.2 366.794L392.8 365.659L393.4 366.015L394 366.388L394.6 366.789L395.2 367.318L395.8 368.358L396.4 367.178L397 367.089L397.6 366.967L398.2 367.173L398.8 367.379L399.4 367.852L400 368.481L400.6 367.741L401.2 367.351L401.8 367.373L402.4 367.379L403 367.201L403.6 368.119L404.2 368.642L404.8 367.924L405.4 367.017L406 367.284L406.6 367.279L407.2 367.64L407.8 367.713L408.4 368.486L409 367.373L409.6 366.349L410.2 366.627L410.8 366.666L411.4 366.822L412 367.652L412.6 368.036L413.2 367.151L413.8 365.826L414.4 366.049L415 366.126L415.6 365.82L416.2 366.917L416.8 367.896L417.4 366.505L418 364.679L418.6 364.813L419.2 365.219L419.8 364.507L420.4 366.388L421 367L421.6 365.186L422.2 363.399L422.8 362.514L423.4 362.72L424 361.946L424.6 364.189L425.2 365.754L425.8 362.058L426.4 359.564L427 358.757L427.6 362.191L428.2 363.41L428.8 359.865L429.4 361.735L430 353.72L430.6 351.8L431.2 347.981L431.8 350.954L432.4 346.74L433 352.356L433.6 357.098L434.2 348.66L434.8 345.777L435.4 341.141L436 343.707L436.6 343.907L437.2 346.762L437.8 353.258L438.4 354.354L439 345.17L439.6 341.23L440.2 336.916L440.8 340.584L441.4 345.543L442 352.44L442.6 344.564L443.2 338.814L443.8 337.912L444.4 339.026L445 340.595L445.6 345.042L446.2 355.679L446.8 345.71L447.4 345.677L448 343.178L448.6 345.588L449.2 349.256L449.8 352.412L450.4 358.841L451 353.514L451.6 352.122L452.2 352.562L452.8 355.696L453.4 356.609L454 359.481L454.6 364.379L455.2 360.705L455.8 359.559L456.4 360.466L457 362.865L457.6 362.698L458.2 363.766L458.8 366.9L459.4 364.379L460 363.855L460.6 365.358L461.2 365.893L461.8 365.831L462.4 366.889L463 368.358L463.6 368.703L464.2 367.29L464.8 366.783L465.4 368.642L466 367.846L466.6 368.164L467.2 369.104L467.8 368.453L468.4 368.353L469 368.653L469.6 368.737L470.2 368.742L470.8 369.104L471.4 369.305L472 369.204L472.6 368.893L473.2 369.015L473.8 369.249L474.4 369.366L475 369.494L475.6 369.611L476.2 369.527L476.8 369.416L477.4 369.522L478 369.494L478.6 369.427L479.2 369.572L479.8 369.694L480.4 369.594L481 369.566L481.6 369.633L482.2 369.655L482.8 369.611L483.4 369.705L484 369.722L484.6 369.65L485.2 369.611L485.8 369.678L486.4 369.666L487 369.672L487.6 369.7L488.2 369.739L488.8 369.694L489.4 369.639L490 369.728L490.6 369.689L491.2 369.622L491.8 369.678L492.4 369.717L493 369.666L493.6 369.678L494.2 369.666L494.8 369.672L495.4 369.666L496 369.7L496.6 369.755L497.2 369.728L497.8 369.655L498.4 369.683L499 369.705L499.6 369.694L500.2 369.678L500.8 369.778L501.4 369.728L502 369.761L502.6 369.666L503.2 369.694H503.8L504.4 369.755L505 369.761L505.6 369.689L506.2 369.683L506.8 369.733L507.4 369.722L508 369.683L508.6 369.717L509.2 369.778L509.8 369.717L510.4 369.678L511 369.655L511.6 369.711L512.2 369.672L512.8 369.728L513.4 369.75L514 369.639L514.6 369.627L515.2 369.644L515.8 369.689L516.4 369.622L517 369.627L517.6 369.755L518.2 369.6L518.8 369.611L519.4 369.583L520 369.633L520.6 369.527L521.2 369.605L521.8 369.594L522.4 369.488L523 369.332L523.6 369.366L524.2 369.371L524.8 369.321L525.4 369.438L526 369.076L526.6 368.96L527.2 367.407L527.8 365.859L528.4 364.178L529 362.063L529.6 362.598L530.2 364.362L530.8 364.69L531.4 356.336L532 348.504L532.6 345.671L533.2 340.651L533.8 341.168L534.4 352.484L535 331.456L535.6 319.639L536.2 311.936L536.8 310.867L537.4 300.331L538 310.322L538.6 332.28L539.2 281.05L539.8 282.815L540.4 277.638L541 272.495L541.6 265.07L542.2 280.994L542.8 318.125L543.4 265.092L544 266.54L544.6 264.285L545.2 259.454L545.8 258.92L546.4 282.692L547 319.283L547.6 258.263L548.2 269.306L548.8 267.152L549.4 279.709L550 325.522L550.6 289.906L551.2 329.536L551.8 270.447L552.4 278.395L553 278.323L553.6 293.785L554.2 293.501L554.8 308.824L555.4 337.89L556 291.408L556.6 289.633L557.2 332.747L557.8 300.565L558.4 295.833L559 314.953L559.6 339.265L560.2 297.13L560.8 302.073L561.4 308.017L562 317.68L562.6 312.721L563.2 326.602L563.8 347.681L564.4 311.318L565 313.595L565.6 318.47L566.2 325.445L566.8 321.704L567.4 331.278L568 349.2L568.6 315.159L569.2 318.07L569.8 324.571L570.4 330.849L571 329.953L571.6 338.475L572.2 351.493L572.8 353.108L573.4 322.361L574 322.261L574.6 328.294L575.2 326.363L575.8 333.109L576.4 349.011L577 318.214L577.6 318.142L578.2 322.144L578.8 328.383L579.4 323.257L580 332.664L580.6 350.954L581.2 321.571L581.8 318.237L582.4 320.619L583 325.984L583.6 323.151L584.2 332.641L584.8 350.018L585.4 319.572L586 320.747L586.6 327.933L587.2 334.172L587.8 334.807L588.4 343.99L589 356.648L589.6 332.101L590.2 331.484L590.8 335.797L591.4 339.766L592 337.656L592.6 345.137L593.2 356.364L593.8 336.899L594.4 337.656L595 342.738L595.6 346.824L596.2 357.299L596.8 351.928L597.4 358.746L598 347.486L598.6 354.872L599.2 356.408L599.8 356.169L600.4 343.189L601 346.278L601.6 355.991L602.2 341.77L602.8 343.311L603.4 346.734L604 348.504L604.6 347.586L605.2 352.011L605.8 360.199L606.4 345.799L607 344.653L607.6 348.627L608.2 350.052L608.8 347.898L609.4 353.748L610 361.434L610.6 348.421L611.2 348.955L611.8 352.941L612.4 355.078L613 355.573L613.6 359.058L614.2 364.011L614.8 355.173L615.4 355.946L616 357.238L616.6 358.618L617.2 358.924L617.8 361.679L618.4 365.342L619 358.79L619.6 358.312L620.2 360.221L620.8 360.883L621.4 360.65L622 362.33L622.6 365.347L623.2 359.264L623.8 358.885L624.4 360.299L625 360.85L625.6 359.236L626.2 361.523L626.8 365.191L627.4 357.265L628 355.879L628.6 356.82L629.2 358.106L629.8 356.731L630.4 358.902L631 363.171L631.6 351.933L632.2 348.204L632.8 349.072L633.4 350.063L634 349.673L634.6 348.716L635.2 354.371L635.8 340.289L636.4 323.374L637 322.328L637.6 320.947L638.2 315.721L638.8 317.023L639.4 335.118L640 305.73L640.6 275.857L641.2 277.059L641.8 263.718L642.4 264.497L643 270.781L643.6 299.134L644.2 308.474L644.8 256.248L645.4 192.367L646 175.018L646.6 187.803L647.2 213.329L647.8 245.194L648.4 193.953L649 208.186L649.6 144.9L650.2 164.893L650.8 183.528L651.4 194.243L652 247.582L652.6 198.133L653.2 153.06L653.8 173.103L654.4 159.589L655 197.421L655.6 223.342L656.2 270.258L656.8 207.746L657.4 179.203L658 195.879L658.6 256.248L659.2 237.479L659.8 243.229L660.4 241.031L661 238.938L661.6 206.071L662.2 216.997L662.8 215.755L663.4 229.108L664 231.875L664.6 285.837L665.2 248.628L665.8 228.179L666.4 241.064L667 267.258L667.6 274.477L668.2 281.668L668.8 314.808L669.4 290.657L670 283.928L670.6 289.366L671.2 300.709L671.8 299.885L672.4 316.172L673 329.19L673.6 317.001L674.2 294.281L674.8 310.578L675.4 318.37L676 314.207L676.6 326.664L677.2 338.33L677.8 320.513L678.4 310.839L679 320.68L679.6 321.732L680.2 325.172L680.8 324.843L681.4 347.152L682 348.683L682.6 330.51L683.2 320.541L683.8 327.727L684.4 342.777L685 338.514L685.6 334.645L686.2 340.595L686.8 340.183L687.4 341.792L688 344.43L688.6 348.46L689.2 353.542L689.8 360.488L690.4 345.822L691 347.163L691.6 352.868L692.2 350.018L692.8 355.301L693.4 357.315L694 362.163L694.6 361.429L695.2 343.139L695.8 345.655" stroke="#4285F4" stroke-width="2" stroke-miterlimit="10"/>
<path d="M383.422 418.8V410.206H386.391C387.057 410.206 387.568 410.248 387.922 410.331C388.411 410.446 388.828 410.649 389.172 410.941C389.63 411.326 389.969 411.821 390.188 412.425C390.417 413.019 390.531 413.696 390.531 414.456C390.531 415.112 390.453 415.691 390.297 416.191C390.151 416.691 389.958 417.107 389.719 417.441C389.479 417.774 389.214 418.034 388.922 418.222C388.641 418.409 388.302 418.555 387.906 418.659C387.51 418.753 387.052 418.8 386.531 418.8H383.422ZM384.562 417.784H386.391C386.964 417.784 387.411 417.732 387.734 417.628C388.057 417.524 388.312 417.373 388.5 417.175C388.771 416.915 388.979 416.555 389.125 416.097C389.281 415.639 389.359 415.086 389.359 414.441C389.359 413.545 389.208 412.857 388.906 412.378C388.615 411.889 388.26 411.56 387.844 411.394C387.531 411.279 387.042 411.222 386.375 411.222H384.562V417.784ZM396.359 418.034C395.964 418.368 395.583 418.602 395.219 418.737C394.865 418.873 394.479 418.941 394.062 418.941C393.375 418.941 392.849 418.774 392.484 418.441C392.12 418.107 391.938 417.68 391.938 417.159C391.938 416.857 392.005 416.581 392.141 416.331C392.276 416.071 392.458 415.868 392.688 415.722C392.917 415.566 393.172 415.451 393.453 415.378C393.651 415.316 393.964 415.258 394.391 415.206C395.234 415.112 395.859 414.993 396.266 414.847C396.266 414.701 396.266 414.612 396.266 414.581C396.266 414.144 396.167 413.836 395.969 413.659C395.698 413.43 395.297 413.316 394.766 413.316C394.276 413.316 393.911 413.404 393.672 413.581C393.432 413.748 393.255 414.05 393.141 414.487L392.109 414.347C392.203 413.909 392.359 413.555 392.578 413.284C392.797 413.014 393.109 412.805 393.516 412.659C393.922 412.514 394.391 412.441 394.922 412.441C395.453 412.441 395.885 412.503 396.219 412.628C396.552 412.753 396.797 412.909 396.953 413.097C397.109 413.284 397.219 413.524 397.281 413.816C397.312 413.993 397.328 414.316 397.328 414.784V416.191C397.328 417.17 397.349 417.79 397.391 418.05C397.443 418.31 397.536 418.56 397.672 418.8H396.562C396.458 418.581 396.391 418.326 396.359 418.034ZM396.266 415.675C395.88 415.831 395.307 415.967 394.547 416.081C394.109 416.144 393.802 416.217 393.625 416.3C393.448 416.373 393.307 416.482 393.203 416.628C393.109 416.774 393.062 416.941 393.062 417.128C393.062 417.409 393.167 417.644 393.375 417.831C393.594 418.019 393.906 418.112 394.312 418.112C394.719 418.112 395.078 418.024 395.391 417.847C395.714 417.67 395.948 417.425 396.094 417.112C396.208 416.873 396.266 416.524 396.266 416.066V415.675ZM401.594 417.862L401.75 418.784C401.448 418.847 401.182 418.878 400.953 418.878C400.568 418.878 400.271 418.821 400.062 418.706C399.854 418.581 399.703 418.42 399.609 418.222C399.526 418.024 399.484 417.607 399.484 416.972V413.394H398.719V412.581H399.484V411.034L400.531 410.409V412.581H401.594V413.394H400.531V417.034C400.531 417.336 400.547 417.529 400.578 417.612C400.62 417.696 400.682 417.764 400.766 417.816C400.849 417.868 400.969 417.894 401.125 417.894C401.25 417.894 401.406 417.883 401.594 417.862ZM406.547 416.8L407.641 416.925C407.474 417.56 407.156 418.055 406.688 418.409C406.219 418.764 405.625 418.941 404.906 418.941C404 418.941 403.276 418.659 402.734 418.097C402.203 417.534 401.938 416.748 401.938 415.737C401.938 414.696 402.208 413.889 402.75 413.316C403.292 412.732 403.99 412.441 404.844 412.441C405.677 412.441 406.354 412.722 406.875 413.284C407.406 413.847 407.672 414.644 407.672 415.675C407.672 415.737 407.672 415.831 407.672 415.956H403.031C403.073 416.644 403.266 417.17 403.609 417.534C403.953 417.889 404.385 418.066 404.906 418.066C405.292 418.066 405.62 417.967 405.891 417.769C406.172 417.56 406.391 417.237 406.547 416.8ZM403.094 415.097H406.562C406.521 414.566 406.391 414.17 406.172 413.909C405.828 413.503 405.391 413.3 404.859 413.3C404.37 413.3 403.958 413.461 403.625 413.784C403.302 414.107 403.125 414.545 403.094 415.097Z" fill="black"/>
<path d="M33.2 250.041H25.6219V252.869H24.6062V246.056H25.6219V248.9H33.2V250.041ZM30.0906 245.744C28.9344 245.744 28.0802 245.426 27.5281 244.791C27.0698 244.259 26.8406 243.608 26.8406 242.837C26.8406 241.983 27.1219 241.285 27.6844 240.744C28.2364 240.192 29.0073 239.916 29.9969 239.916C30.7989 239.916 31.4291 240.035 31.8875 240.275C32.3458 240.515 32.7052 240.869 32.9656 241.337C33.2156 241.796 33.3406 242.296 33.3406 242.837C33.3406 243.702 33.0646 244.405 32.5125 244.947C31.95 245.478 31.1427 245.744 30.0906 245.744ZM30.0906 244.666C30.8823 244.666 31.476 244.494 31.8719 244.15C32.2677 243.796 32.4656 243.358 32.4656 242.837C32.4656 242.306 32.2677 241.869 31.8719 241.525C31.476 241.181 30.8719 241.009 30.0594 241.009C29.2885 241.009 28.7052 241.186 28.3094 241.541C27.9135 241.884 27.7156 242.317 27.7156 242.837C27.7156 243.358 27.9135 243.796 28.3094 244.15C28.6948 244.494 29.2885 244.666 30.0906 244.666ZM33.2 238.353H24.6062V237.291H29.5125L26.9812 234.806V233.431L29.2781 235.822L33.2 233.197V234.494L30.0125 236.556L30.7312 237.291H33.2V238.353ZM35.5906 232.4L34.6062 232.525C34.6687 232.296 34.7 232.093 34.7 231.916C34.7 231.686 34.6583 231.504 34.575 231.369C34.5021 231.223 34.3979 231.103 34.2625 231.009C34.1479 230.947 33.8823 230.837 33.4656 230.681C33.4135 230.671 33.3302 230.64 33.2156 230.587L26.9812 232.962V231.822L30.575 230.525C31.0333 230.358 31.5177 230.207 32.0281 230.072C31.5385 229.947 31.0646 229.801 30.6062 229.634L26.9812 228.306V227.259L33.3094 229.619C33.9864 229.879 34.4552 230.077 34.7156 230.212C35.0698 230.4 35.325 230.619 35.4812 230.869C35.6479 231.108 35.7312 231.395 35.7312 231.728C35.7312 231.926 35.6844 232.15 35.5906 232.4ZM30.0906 227.744C28.9344 227.744 28.0802 227.426 27.5281 226.791C27.0698 226.259 26.8406 225.608 26.8406 224.837C26.8406 223.983 27.1219 223.285 27.6844 222.744C28.2364 222.192 29.0073 221.916 29.9969 221.916C30.7989 221.916 31.4291 222.035 31.8875 222.275C32.3458 222.515 32.7052 222.869 32.9656 223.337C33.2156 223.796 33.3406 224.296 33.3406 224.837C33.3406 225.702 33.0646 226.405 32.5125 226.947C31.95 227.478 31.1427 227.744 30.0906 227.744ZM30.0906 226.666C30.8823 226.666 31.476 226.494 31.8719 226.15C32.2677 225.796 32.4656 225.358 32.4656 224.837C32.4656 224.306 32.2677 223.869 31.8719 223.525C31.476 223.181 30.8719 223.009 30.0594 223.009C29.2885 223.009 28.7052 223.186 28.3094 223.541C27.9135 223.884 27.7156 224.317 27.7156 224.837C27.7156 225.358 27.9135 225.796 28.3094 226.15C28.6948 226.494 29.2885 226.666 30.0906 226.666Z" fill="black"/>
<path d="M82.7 369.566C82.7 368.545 82.8042 367.727 83.0125 367.112C83.2208 366.487 83.5281 366.008 83.9344 365.675C84.3511 365.342 84.8719 365.175 85.4969 365.175C85.9552 365.175 86.3563 365.269 86.7 365.456C87.0542 365.644 87.3458 365.915 87.575 366.269C87.8042 366.612 87.9813 367.034 88.1063 367.534C88.2313 368.034 88.2938 368.711 88.2938 369.566C88.2938 370.576 88.1896 371.389 87.9813 372.003C87.7833 372.618 87.4761 373.097 87.0594 373.441C86.6531 373.774 86.1323 373.941 85.4969 373.941C84.674 373.941 84.0229 373.644 83.5438 373.05C82.9813 372.342 82.7 371.18 82.7 369.566ZM83.7781 369.566C83.7781 370.972 83.9448 371.909 84.2781 372.378C84.6115 372.847 85.0177 373.081 85.4969 373.081C85.9865 373.081 86.3927 372.847 86.7156 372.378C87.049 371.909 87.2156 370.972 87.2156 369.566C87.2156 368.149 87.049 367.211 86.7156 366.753C86.3927 366.284 85.9813 366.05 85.4813 366.05C85.0021 366.05 84.6167 366.253 84.325 366.659C83.9604 367.18 83.7781 368.149 83.7781 369.566Z" fill="black"/>
<path d="M58.6688 318.14H57.6219V311.421C57.3615 311.661 57.0229 311.906 56.6063 312.156C56.2 312.395 55.8354 312.572 55.5125 312.687V311.671C56.0958 311.39 56.6063 311.057 57.0438 310.671C57.4917 310.275 57.8094 309.89 57.9969 309.515H58.6688V318.14ZM61.7 313.906C61.7 312.885 61.8042 312.067 62.0125 311.453C62.2208 310.828 62.5281 310.348 62.9344 310.015C63.3511 309.682 63.8719 309.515 64.4969 309.515C64.9552 309.515 65.3563 309.609 65.7 309.796C66.0542 309.984 66.3458 310.255 66.575 310.609C66.8042 310.953 66.9813 311.374 67.1063 311.874C67.2313 312.374 67.2938 313.051 67.2938 313.906C67.2938 314.916 67.1896 315.729 66.9813 316.343C66.7833 316.958 66.4761 317.437 66.0594 317.781C65.6531 318.114 65.1323 318.281 64.4969 318.281C63.674 318.281 63.0229 317.984 62.5438 317.39C61.9813 316.682 61.7 315.52 61.7 313.906ZM62.7781 313.906C62.7781 315.312 62.9448 316.249 63.2781 316.718C63.6115 317.187 64.0177 317.421 64.4969 317.421C64.9865 317.421 65.3927 317.187 65.7156 316.718C66.049 316.249 66.2156 315.312 66.2156 313.906C66.2156 312.489 66.049 311.551 65.7156 311.093C65.3927 310.624 64.9813 310.39 64.4813 310.39C64.0021 310.39 63.6167 310.593 63.325 310.999C62.9604 311.52 62.7781 312.489 62.7781 313.906ZM68.7 313.906C68.7 312.885 68.8042 312.067 69.0125 311.453C69.2208 310.828 69.5281 310.348 69.9344 310.015C70.3511 309.682 70.8719 309.515 71.4969 309.515C71.9552 309.515 72.3563 309.609 72.7 309.796C73.0542 309.984 73.3458 310.255 73.575 310.609C73.8042 310.953 73.9813 311.374 74.1063 311.874C74.2313 312.374 74.2938 313.051 74.2938 313.906C74.2938 314.916 74.1896 315.729 73.9813 316.343C73.7833 316.958 73.4761 317.437 73.0594 317.781C72.6531 318.114 72.1323 318.281 71.4969 318.281C70.674 318.281 70.0229 317.984 69.5438 317.39C68.9813 316.682 68.7 315.52 68.7 313.906ZM69.7781 313.906C69.7781 315.312 69.9448 316.249 70.2781 316.718C70.6115 317.187 71.0177 317.421 71.4969 317.421C71.9865 317.421 72.3927 317.187 72.7156 316.718C73.049 316.249 73.2156 315.312 73.2156 313.906C73.2156 312.489 73.049 311.551 72.7156 311.093C72.3927 310.624 71.9813 310.39 71.4813 310.39C71.0021 310.39 70.6167 310.593 70.325 310.999C69.9604 311.52 69.7781 312.489 69.7781 313.906ZM75.7 313.906C75.7 312.885 75.8042 312.067 76.0125 311.453C76.2208 310.828 76.5281 310.348 76.9344 310.015C77.3511 309.682 77.8719 309.515 78.4969 309.515C78.9552 309.515 79.3563 309.609 79.7 309.796C80.0542 309.984 80.3458 310.255 80.575 310.609C80.8042 310.953 80.9813 311.374 81.1063 311.874C81.2313 312.374 81.2938 313.051 81.2938 313.906C81.2938 314.916 81.1896 315.729 80.9813 316.343C80.7833 316.958 80.4761 317.437 80.0594 317.781C79.6531 318.114 79.1323 318.281 78.4969 318.281C77.674 318.281 77.0229 317.984 76.5438 317.39C75.9813 316.682 75.7 315.52 75.7 313.906ZM76.7781 313.906C76.7781 315.312 76.9448 316.249 77.2781 316.718C77.6115 317.187 78.0177 317.421 78.4969 317.421C78.9865 317.421 79.3927 317.187 79.7156 316.718C80.049 316.249 80.2156 315.312 80.2156 313.906C80.2156 312.489 80.049 311.551 79.7156 311.093C79.3927 310.624 78.9813 310.39 78.4813 310.39C78.0021 310.39 77.6167 310.593 77.325 310.999C76.9604 311.52 76.7781 312.489 76.7781 313.906ZM82.7 313.906C82.7 312.885 82.8042 312.067 83.0125 311.453C83.2208 310.828 83.5281 310.348 83.9344 310.015C84.3511 309.682 84.8719 309.515 85.4969 309.515C85.9552 309.515 86.3563 309.609 86.7 309.796C87.0542 309.984 87.3458 310.255 87.575 310.609C87.8042 310.953 87.9813 311.374 88.1063 311.874C88.2313 312.374 88.2938 313.051 88.2938 313.906C88.2938 314.916 88.1896 315.729 87.9813 316.343C87.7833 316.958 87.4761 317.437 87.0594 317.781C86.6531 318.114 86.1323 318.281 85.4969 318.281C84.674 318.281 84.0229 317.984 83.5438 317.39C82.9813 316.682 82.7 315.52 82.7 313.906ZM83.7781 313.906C83.7781 315.312 83.9448 316.249 84.2781 316.718C84.6115 317.187 85.0177 317.421 85.4969 317.421C85.9865 317.421 86.3927 317.187 86.7156 316.718C87.049 316.249 87.2156 315.312 87.2156 313.906C87.2156 312.489 87.049 311.551 86.7156 311.093C86.3927 310.624 85.9813 310.39 85.4813 310.39C85.0021 310.39 84.6167 310.593 84.325 310.999C83.9604 311.52 83.7781 312.489 83.7781 313.906Z" fill="black"/>
<path d="M60.2469 261.464V262.48H54.5594C54.5594 262.23 54.6011 261.985 54.6844 261.746C54.8302 261.36 55.0594 260.98 55.3719 260.605C55.6948 260.23 56.1583 259.798 56.7625 259.308C57.7 258.537 58.3302 257.928 58.6531 257.48C58.9865 257.032 59.1531 256.61 59.1531 256.214C59.1531 255.798 59.0021 255.449 58.7 255.168C58.3979 254.876 58.0073 254.73 57.5281 254.73C57.0177 254.73 56.6115 254.881 56.3094 255.183C56.0073 255.485 55.8511 255.907 55.8406 256.449L54.7625 256.339C54.8354 255.527 55.1115 254.912 55.5906 254.496C56.0802 254.069 56.7365 253.855 57.5594 253.855C58.3823 253.855 59.0333 254.084 59.5125 254.543C59.9917 255.001 60.2313 255.569 60.2313 256.246C60.2313 256.589 60.1583 256.928 60.0125 257.261C59.8771 257.584 59.6427 257.933 59.3094 258.308C58.9865 258.673 58.45 259.173 57.7 259.808C57.0646 260.339 56.6531 260.704 56.4656 260.902C56.2886 261.089 56.1427 261.277 56.0281 261.464H60.2469ZM61.7 258.246C61.7 257.225 61.8042 256.407 62.0125 255.793C62.2208 255.168 62.5281 254.688 62.9344 254.355C63.3511 254.022 63.8719 253.855 64.4969 253.855C64.9552 253.855 65.3563 253.949 65.7 254.136C66.0542 254.324 66.3458 254.595 66.575 254.949C66.8042 255.293 66.9813 255.714 67.1063 256.214C67.2313 256.714 67.2938 257.391 67.2938 258.246C67.2938 259.256 67.1896 260.069 66.9813 260.683C66.7833 261.298 66.4761 261.777 66.0594 262.121C65.6531 262.454 65.1323 262.621 64.4969 262.621C63.674 262.621 63.0229 262.324 62.5438 261.73C61.9813 261.022 61.7 259.86 61.7 258.246ZM62.7781 258.246C62.7781 259.652 62.9448 260.589 63.2781 261.058C63.6115 261.527 64.0177 261.761 64.4969 261.761C64.9865 261.761 65.3927 261.527 65.7156 261.058C66.049 260.589 66.2156 259.652 66.2156 258.246C66.2156 256.829 66.049 255.891 65.7156 255.433C65.3927 254.964 64.9813 254.73 64.4813 254.73C64.0021 254.73 63.6167 254.933 63.325 255.339C62.9604 255.86 62.7781 256.829 62.7781 258.246ZM68.7 258.246C68.7 257.225 68.8042 256.407 69.0125 255.793C69.2208 255.168 69.5281 254.688 69.9344 254.355C70.3511 254.022 70.8719 253.855 71.4969 253.855C71.9552 253.855 72.3563 253.949 72.7 254.136C73.0542 254.324 73.3458 254.595 73.575 254.949C73.8042 255.293 73.9813 255.714 74.1063 256.214C74.2313 256.714 74.2938 257.391 74.2938 258.246C74.2938 259.256 74.1896 260.069 73.9813 260.683C73.7833 261.298 73.4761 261.777 73.0594 262.121C72.6531 262.454 72.1323 262.621 71.4969 262.621C70.674 262.621 70.0229 262.324 69.5438 261.73C68.9813 261.022 68.7 259.86 68.7 258.246ZM69.7781 258.246C69.7781 259.652 69.9448 260.589 70.2781 261.058C70.6115 261.527 71.0177 261.761 71.4969 261.761C71.9865 261.761 72.3927 261.527 72.7156 261.058C73.049 260.589 73.2156 259.652 73.2156 258.246C73.2156 256.829 73.049 255.891 72.7156 255.433C72.3927 254.964 71.9813 254.73 71.4813 254.73C71.0021 254.73 70.6167 254.933 70.325 255.339C69.9604 255.86 69.7781 256.829 69.7781 258.246ZM75.7 258.246C75.7 257.225 75.8042 256.407 76.0125 255.793C76.2208 255.168 76.5281 254.688 76.9344 254.355C77.3511 254.022 77.8719 253.855 78.4969 253.855C78.9552 253.855 79.3563 253.949 79.7 254.136C80.0542 254.324 80.3458 254.595 80.575 254.949C80.8042 255.293 80.9813 255.714 81.1063 256.214C81.2313 256.714 81.2938 257.391 81.2938 258.246C81.2938 259.256 81.1896 260.069 80.9813 260.683C80.7833 261.298 80.4761 261.777 80.0594 262.121C79.6531 262.454 79.1323 262.621 78.4969 262.621C77.674 262.621 77.0229 262.324 76.5438 261.73C75.9813 261.022 75.7 259.86 75.7 258.246ZM76.7781 258.246C76.7781 259.652 76.9448 260.589 77.2781 261.058C77.6115 261.527 78.0177 261.761 78.4969 261.761C78.9865 261.761 79.3927 261.527 79.7156 261.058C80.049 260.589 80.2156 259.652 80.2156 258.246C80.2156 256.829 80.049 255.891 79.7156 255.433C79.3927 254.964 78.9813 254.73 78.4813 254.73C78.0021 254.73 77.6167 254.933 77.325 255.339C76.9604 255.86 76.7781 256.829 76.7781 258.246ZM82.7 258.246C82.7 257.225 82.8042 256.407 83.0125 255.793C83.2208 255.168 83.5281 254.688 83.9344 254.355C84.3511 254.022 84.8719 253.855 85.4969 253.855C85.9552 253.855 86.3563 253.949 86.7 254.136C87.0542 254.324 87.3458 254.595 87.575 254.949C87.8042 255.293 87.9813 255.714 88.1063 256.214C88.2313 256.714 88.2938 257.391 88.2938 258.246C88.2938 259.256 88.1896 260.069 87.9813 260.683C87.7833 261.298 87.4761 261.777 87.0594 262.121C86.6531 262.454 86.1323 262.621 85.4969 262.621C84.674 262.621 84.0229 262.324 83.5438 261.73C82.9813 261.022 82.7 259.86 82.7 258.246ZM83.7781 258.246C83.7781 259.652 83.9448 260.589 84.2781 261.058C84.6115 261.527 85.0177 261.761 85.4969 261.761C85.9865 261.761 86.3927 261.527 86.7156 261.058C87.049 260.589 87.2156 259.652 87.2156 258.246C87.2156 256.829 87.049 255.891 86.7156 255.433C86.3927 254.964 85.9813 254.73 85.4813 254.73C85.0021 254.73 84.6167 254.933 84.325 255.339C83.9604 255.86 83.7781 256.829 83.7781 258.246Z" fill="black"/>
<path d="M54.7 204.554L55.7625 204.414C55.8771 205.008 56.0802 205.44 56.3719 205.711C56.6636 205.971 57.0177 206.101 57.4344 206.101C57.9344 206.101 58.3563 205.929 58.7 205.586C59.0438 205.242 59.2156 204.815 59.2156 204.304C59.2156 203.825 59.0542 203.429 58.7313 203.117C58.4188 202.794 58.0177 202.633 57.5281 202.633C57.3302 202.633 57.0802 202.674 56.7781 202.758L56.9031 201.82C56.9761 201.83 57.0333 201.836 57.075 201.836C57.5229 201.836 57.924 201.721 58.2781 201.492C58.6427 201.252 58.825 200.888 58.825 200.398C58.825 200.013 58.6948 199.695 58.4344 199.445C58.174 199.185 57.8354 199.054 57.4188 199.054C57.0125 199.054 56.6688 199.185 56.3875 199.445C56.1167 199.705 55.9448 200.091 55.8719 200.601L54.8094 200.414C54.9344 199.716 55.2261 199.174 55.6844 198.789C56.1427 198.393 56.7104 198.195 57.3875 198.195C57.8563 198.195 58.2886 198.299 58.6844 198.508C59.0802 198.705 59.3823 198.976 59.5906 199.32C59.799 199.664 59.9031 200.034 59.9031 200.429C59.9031 200.794 59.8042 201.133 59.6063 201.445C59.4083 201.747 59.1167 201.987 58.7313 202.164C59.2313 202.278 59.6219 202.523 59.9031 202.898C60.1844 203.263 60.325 203.726 60.325 204.289C60.325 205.039 60.049 205.674 59.4969 206.195C58.9552 206.716 58.2677 206.976 57.4344 206.976C56.6844 206.976 56.0594 206.752 55.5594 206.304C55.0594 205.846 54.7729 205.263 54.7 204.554ZM61.7 202.586C61.7 201.565 61.8042 200.747 62.0125 200.133C62.2208 199.508 62.5281 199.028 62.9344 198.695C63.3511 198.362 63.8719 198.195 64.4969 198.195C64.9552 198.195 65.3563 198.289 65.7 198.476C66.0542 198.664 66.3458 198.935 66.575 199.289C66.8042 199.633 66.9813 200.054 67.1063 200.554C67.2313 201.054 67.2938 201.731 67.2938 202.586C67.2938 203.596 67.1896 204.409 66.9813 205.023C66.7833 205.638 66.4761 206.117 66.0594 206.461C65.6531 206.794 65.1323 206.961 64.4969 206.961C63.674 206.961 63.0229 206.664 62.5438 206.07C61.9813 205.362 61.7 204.2 61.7 202.586ZM62.7781 202.586C62.7781 203.992 62.9448 204.929 63.2781 205.398C63.6115 205.867 64.0177 206.101 64.4969 206.101C64.9865 206.101 65.3927 205.867 65.7156 205.398C66.049 204.929 66.2156 203.992 66.2156 202.586C66.2156 201.169 66.049 200.231 65.7156 199.773C65.3927 199.304 64.9813 199.07 64.4813 199.07C64.0021 199.07 63.6167 199.273 63.325 199.679C62.9604 200.2 62.7781 201.169 62.7781 202.586ZM68.7 202.586C68.7 201.565 68.8042 200.747 69.0125 200.133C69.2208 199.508 69.5281 199.028 69.9344 198.695C70.3511 198.362 70.8719 198.195 71.4969 198.195C71.9552 198.195 72.3563 198.289 72.7 198.476C73.0542 198.664 73.3458 198.935 73.575 199.289C73.8042 199.633 73.9813 200.054 74.1063 200.554C74.2313 201.054 74.2938 201.731 74.2938 202.586C74.2938 203.596 74.1896 204.409 73.9813 205.023C73.7833 205.638 73.4761 206.117 73.0594 206.461C72.6531 206.794 72.1323 206.961 71.4969 206.961C70.674 206.961 70.0229 206.664 69.5438 206.07C68.9813 205.362 68.7 204.2 68.7 202.586ZM69.7781 202.586C69.7781 203.992 69.9448 204.929 70.2781 205.398C70.6115 205.867 71.0177 206.101 71.4969 206.101C71.9865 206.101 72.3927 205.867 72.7156 205.398C73.049 204.929 73.2156 203.992 73.2156 202.586C73.2156 201.169 73.049 200.231 72.7156 199.773C72.3927 199.304 71.9813 199.07 71.4813 199.07C71.0021 199.07 70.6167 199.273 70.325 199.679C69.9604 200.2 69.7781 201.169 69.7781 202.586ZM75.7 202.586C75.7 201.565 75.8042 200.747 76.0125 200.133C76.2208 199.508 76.5281 199.028 76.9344 198.695C77.3511 198.362 77.8719 198.195 78.4969 198.195C78.9552 198.195 79.3563 198.289 79.7 198.476C80.0542 198.664 80.3458 198.935 80.575 199.289C80.8042 199.633 80.9813 200.054 81.1063 200.554C81.2313 201.054 81.2938 201.731 81.2938 202.586C81.2938 203.596 81.1896 204.409 80.9813 205.023C80.7833 205.638 80.4761 206.117 80.0594 206.461C79.6531 206.794 79.1323 206.961 78.4969 206.961C77.674 206.961 77.0229 206.664 76.5438 206.07C75.9813 205.362 75.7 204.2 75.7 202.586ZM76.7781 202.586C76.7781 203.992 76.9448 204.929 77.2781 205.398C77.6115 205.867 78.0177 206.101 78.4969 206.101C78.9865 206.101 79.3927 205.867 79.7156 205.398C80.049 204.929 80.2156 203.992 80.2156 202.586C80.2156 201.169 80.049 200.231 79.7156 199.773C79.3927 199.304 78.9813 199.07 78.4813 199.07C78.0021 199.07 77.6167 199.273 77.325 199.679C76.9604 200.2 76.7781 201.169 76.7781 202.586ZM82.7 202.586C82.7 201.565 82.8042 200.747 83.0125 200.133C83.2208 199.508 83.5281 199.028 83.9344 198.695C84.3511 198.362 84.8719 198.195 85.4969 198.195C85.9552 198.195 86.3563 198.289 86.7 198.476C87.0542 198.664 87.3458 198.935 87.575 199.289C87.8042 199.633 87.9813 200.054 88.1063 200.554C88.2313 201.054 88.2938 201.731 88.2938 202.586C88.2938 203.596 88.1896 204.409 87.9813 205.023C87.7833 205.638 87.4761 206.117 87.0594 206.461C86.6531 206.794 86.1323 206.961 85.4969 206.961C84.674 206.961 84.0229 206.664 83.5438 206.07C82.9813 205.362 82.7 204.2 82.7 202.586ZM83.7781 202.586C83.7781 203.992 83.9448 204.929 84.2781 205.398C84.6115 205.867 85.0177 206.101 85.4969 206.101C85.9865 206.101 86.3927 205.867 86.7156 205.398C87.049 204.929 87.2156 203.992 87.2156 202.586C87.2156 201.169 87.049 200.231 86.7156 199.773C86.3927 199.304 85.9813 199.07 85.4813 199.07C85.0021 199.07 84.6167 199.273 84.325 199.679C83.9604 200.2 83.7781 201.169 83.7781 202.586Z" fill="black"/>
<path d="M58.075 151.16V149.098H54.3563V148.129L58.2781 142.566H59.1375V148.129H60.2938V149.098H59.1375V151.16H58.075ZM58.075 148.129V144.269L55.3875 148.129H58.075ZM61.7 146.926C61.7 145.905 61.8042 145.087 62.0125 144.473C62.2208 143.848 62.5281 143.368 62.9344 143.035C63.3511 142.702 63.8719 142.535 64.4969 142.535C64.9552 142.535 65.3563 142.629 65.7 142.816C66.0542 143.004 66.3458 143.275 66.575 143.629C66.8042 143.973 66.9813 144.394 67.1063 144.894C67.2313 145.394 67.2938 146.071 67.2938 146.926C67.2938 147.936 67.1896 148.749 66.9813 149.363C66.7833 149.978 66.4761 150.457 66.0594 150.801C65.6531 151.134 65.1323 151.301 64.4969 151.301C63.674 151.301 63.0229 151.004 62.5438 150.41C61.9813 149.702 61.7 148.54 61.7 146.926ZM62.7781 146.926C62.7781 148.332 62.9448 149.269 63.2781 149.738C63.6115 150.207 64.0177 150.441 64.4969 150.441C64.9865 150.441 65.3927 150.207 65.7156 149.738C66.049 149.269 66.2156 148.332 66.2156 146.926C66.2156 145.509 66.049 144.571 65.7156 144.113C65.3927 143.644 64.9813 143.41 64.4813 143.41C64.0021 143.41 63.6167 143.613 63.325 144.019C62.9604 144.54 62.7781 145.509 62.7781 146.926ZM68.7 146.926C68.7 145.905 68.8042 145.087 69.0125 144.473C69.2208 143.848 69.5281 143.368 69.9344 143.035C70.3511 142.702 70.8719 142.535 71.4969 142.535C71.9552 142.535 72.3563 142.629 72.7 142.816C73.0542 143.004 73.3458 143.275 73.575 143.629C73.8042 143.973 73.9813 144.394 74.1063 144.894C74.2313 145.394 74.2938 146.071 74.2938 146.926C74.2938 147.936 74.1896 148.749 73.9813 149.363C73.7833 149.978 73.4761 150.457 73.0594 150.801C72.6531 151.134 72.1323 151.301 71.4969 151.301C70.674 151.301 70.0229 151.004 69.5438 150.41C68.9813 149.702 68.7 148.54 68.7 146.926ZM69.7781 146.926C69.7781 148.332 69.9448 149.269 70.2781 149.738C70.6115 150.207 71.0177 150.441 71.4969 150.441C71.9865 150.441 72.3927 150.207 72.7156 149.738C73.049 149.269 73.2156 148.332 73.2156 146.926C73.2156 145.509 73.049 144.571 72.7156 144.113C72.3927 143.644 71.9813 143.41 71.4813 143.41C71.0021 143.41 70.6167 143.613 70.325 144.019C69.9604 144.54 69.7781 145.509 69.7781 146.926ZM75.7 146.926C75.7 145.905 75.8042 145.087 76.0125 144.473C76.2208 143.848 76.5281 143.368 76.9344 143.035C77.3511 142.702 77.8719 142.535 78.4969 142.535C78.9552 142.535 79.3563 142.629 79.7 142.816C80.0542 143.004 80.3458 143.275 80.575 143.629C80.8042 143.973 80.9813 144.394 81.1063 144.894C81.2313 145.394 81.2938 146.071 81.2938 146.926C81.2938 147.936 81.1896 148.749 80.9813 149.363C80.7833 149.978 80.4761 150.457 80.0594 150.801C79.6531 151.134 79.1323 151.301 78.4969 151.301C77.674 151.301 77.0229 151.004 76.5438 150.41C75.9813 149.702 75.7 148.54 75.7 146.926ZM76.7781 146.926C76.7781 148.332 76.9448 149.269 77.2781 149.738C77.6115 150.207 78.0177 150.441 78.4969 150.441C78.9865 150.441 79.3927 150.207 79.7156 149.738C80.049 149.269 80.2156 148.332 80.2156 146.926C80.2156 145.509 80.049 144.571 79.7156 144.113C79.3927 143.644 78.9813 143.41 78.4813 143.41C78.0021 143.41 77.6167 143.613 77.325 144.019C76.9604 144.54 76.7781 145.509 76.7781 146.926ZM82.7 146.926C82.7 145.905 82.8042 145.087 83.0125 144.473C83.2208 143.848 83.5281 143.368 83.9344 143.035C84.3511 142.702 84.8719 142.535 85.4969 142.535C85.9552 142.535 86.3563 142.629 86.7 142.816C87.0542 143.004 87.3458 143.275 87.575 143.629C87.8042 143.973 87.9813 144.394 88.1063 144.894C88.2313 145.394 88.2938 146.071 88.2938 146.926C88.2938 147.936 88.1896 148.749 87.9813 149.363C87.7833 149.978 87.4761 150.457 87.0594 150.801C86.6531 151.134 86.1323 151.301 85.4969 151.301C84.674 151.301 84.0229 151.004 83.5438 150.41C82.9813 149.702 82.7 148.54 82.7 146.926ZM83.7781 146.926C83.7781 148.332 83.9448 149.269 84.2781 149.738C84.6115 150.207 85.0177 150.441 85.4969 150.441C85.9865 150.441 86.3927 150.207 86.7156 149.738C87.049 149.269 87.2156 148.332 87.2156 146.926C87.2156 145.509 87.049 144.571 86.7156 144.113C86.3927 143.644 85.9813 143.41 85.4813 143.41C85.0021 143.41 84.6167 143.613 84.325 144.019C83.9604 144.54 83.7781 145.509 83.7781 146.926Z" fill="black"/>
<path d="M54.7 93.25L55.8094 93.1562C55.8927 93.6979 56.0802 94.1042 56.3719 94.375C56.674 94.6458 57.0386 94.7812 57.4656 94.7812C57.9656 94.7812 58.3927 94.5885 58.7469 94.2031C59.1011 93.8177 59.2781 93.3125 59.2781 92.6875C59.2781 92.0833 59.1063 91.6094 58.7625 91.2656C58.4292 90.9115 57.9865 90.7344 57.4344 90.7344C57.1011 90.7344 56.7938 90.8125 56.5125 90.9688C56.2417 91.125 56.0281 91.3229 55.8719 91.5625L54.8875 91.4375L55.7156 87.0312H59.9969V88.0312H56.5594L56.1063 90.3438C56.6167 89.9792 57.1531 89.7969 57.7156 89.7969C58.4656 89.7969 59.0958 90.0573 59.6063 90.5781C60.1271 91.099 60.3875 91.7708 60.3875 92.5938C60.3875 93.3646 60.1636 94.0365 59.7156 94.6094C59.1636 95.2969 58.4136 95.6406 57.4656 95.6406C56.6844 95.6406 56.0438 95.4219 55.5438 94.9844C55.0542 94.5469 54.7729 93.9688 54.7 93.25ZM61.7 91.2656C61.7 90.2448 61.8042 89.4271 62.0125 88.8125C62.2208 88.1875 62.5281 87.7083 62.9344 87.375C63.3511 87.0417 63.8719 86.875 64.4969 86.875C64.9552 86.875 65.3563 86.9688 65.7 87.1562C66.0542 87.3438 66.3458 87.6146 66.575 87.9688C66.8042 88.3125 66.9813 88.7344 67.1063 89.2344C67.2313 89.7344 67.2938 90.4115 67.2938 91.2656C67.2938 92.276 67.1896 93.0885 66.9813 93.7031C66.7833 94.3177 66.4761 94.7969 66.0594 95.1406C65.6531 95.474 65.1323 95.6406 64.4969 95.6406C63.674 95.6406 63.0229 95.3438 62.5438 94.75C61.9813 94.0417 61.7 92.8802 61.7 91.2656ZM62.7781 91.2656C62.7781 92.6719 62.9448 93.6094 63.2781 94.0781C63.6115 94.5469 64.0177 94.7812 64.4969 94.7812C64.9865 94.7812 65.3927 94.5469 65.7156 94.0781C66.049 93.6094 66.2156 92.6719 66.2156 91.2656C66.2156 89.849 66.049 88.9115 65.7156 88.4531C65.3927 87.9844 64.9813 87.75 64.4813 87.75C64.0021 87.75 63.6167 87.9531 63.325 88.3594C62.9604 88.8802 62.7781 89.849 62.7781 91.2656ZM68.7 91.2656C68.7 90.2448 68.8042 89.4271 69.0125 88.8125C69.2208 88.1875 69.5281 87.7083 69.9344 87.375C70.3511 87.0417 70.8719 86.875 71.4969 86.875C71.9552 86.875 72.3563 86.9688 72.7 87.1562C73.0542 87.3438 73.3458 87.6146 73.575 87.9688C73.8042 88.3125 73.9813 88.7344 74.1063 89.2344C74.2313 89.7344 74.2938 90.4115 74.2938 91.2656C74.2938 92.276 74.1896 93.0885 73.9813 93.7031C73.7833 94.3177 73.4761 94.7969 73.0594 95.1406C72.6531 95.474 72.1323 95.6406 71.4969 95.6406C70.674 95.6406 70.0229 95.3438 69.5438 94.75C68.9813 94.0417 68.7 92.8802 68.7 91.2656ZM69.7781 91.2656C69.7781 92.6719 69.9448 93.6094 70.2781 94.0781C70.6115 94.5469 71.0177 94.7812 71.4969 94.7812C71.9865 94.7812 72.3927 94.5469 72.7156 94.0781C73.049 93.6094 73.2156 92.6719 73.2156 91.2656C73.2156 89.849 73.049 88.9115 72.7156 88.4531C72.3927 87.9844 71.9813 87.75 71.4813 87.75C71.0021 87.75 70.6167 87.9531 70.325 88.3594C69.9604 88.8802 69.7781 89.849 69.7781 91.2656ZM75.7 91.2656C75.7 90.2448 75.8042 89.4271 76.0125 88.8125C76.2208 88.1875 76.5281 87.7083 76.9344 87.375C77.3511 87.0417 77.8719 86.875 78.4969 86.875C78.9552 86.875 79.3563 86.9688 79.7 87.1562C80.0542 87.3438 80.3458 87.6146 80.575 87.9688C80.8042 88.3125 80.9813 88.7344 81.1063 89.2344C81.2313 89.7344 81.2938 90.4115 81.2938 91.2656C81.2938 92.276 81.1896 93.0885 80.9813 93.7031C80.7833 94.3177 80.4761 94.7969 80.0594 95.1406C79.6531 95.474 79.1323 95.6406 78.4969 95.6406C77.674 95.6406 77.0229 95.3438 76.5438 94.75C75.9813 94.0417 75.7 92.8802 75.7 91.2656ZM76.7781 91.2656C76.7781 92.6719 76.9448 93.6094 77.2781 94.0781C77.6115 94.5469 78.0177 94.7812 78.4969 94.7812C78.9865 94.7812 79.3927 94.5469 79.7156 94.0781C80.049 93.6094 80.2156 92.6719 80.2156 91.2656C80.2156 89.849 80.049 88.9115 79.7156 88.4531C79.3927 87.9844 78.9813 87.75 78.4813 87.75C78.0021 87.75 77.6167 87.9531 77.325 88.3594C76.9604 88.8802 76.7781 89.849 76.7781 91.2656ZM82.7 91.2656C82.7 90.2448 82.8042 89.4271 83.0125 88.8125C83.2208 88.1875 83.5281 87.7083 83.9344 87.375C84.3511 87.0417 84.8719 86.875 85.4969 86.875C85.9552 86.875 86.3563 86.9688 86.7 87.1562C87.0542 87.3438 87.3458 87.6146 87.575 87.9688C87.8042 88.3125 87.9813 88.7344 88.1063 89.2344C88.2313 89.7344 88.2938 90.4115 88.2938 91.2656C88.2938 92.276 88.1896 93.0885 87.9813 93.7031C87.7833 94.3177 87.4761 94.7969 87.0594 95.1406C86.6531 95.474 86.1323 95.6406 85.4969 95.6406C84.674 95.6406 84.0229 95.3438 83.5438 94.75C82.9813 94.0417 82.7 92.8802 82.7 91.2656ZM83.7781 91.2656C83.7781 92.6719 83.9448 93.6094 84.2781 94.0781C84.6115 94.5469 85.0177 94.7812 85.4969 94.7812C85.9865 94.7812 86.3927 94.5469 86.7156 94.0781C87.049 93.6094 87.2156 92.6719 87.2156 91.2656C87.2156 89.849 87.049 88.9115 86.7156 88.4531C86.3927 87.9844 85.9813 87.75 85.4813 87.75C85.0021 87.75 84.6167 87.9531 84.325 88.3594C83.9604 88.8802 83.7781 89.849 83.7781 91.2656Z" fill="black"/>
<path d="M173.975 386.8V384.737H170.256V383.769L174.178 378.206H175.038V383.769H176.194V384.737H175.038V386.8H173.975ZM173.975 383.769V379.909L171.288 383.769H173.975ZM180.975 386.8V384.737H177.256V383.769L181.178 378.206H182.038V383.769H183.194V384.737H182.038V386.8H180.975ZM180.975 383.769V379.909L178.288 383.769H180.975ZM184.6 382.566C184.6 381.545 184.704 380.727 184.913 380.112C185.121 379.487 185.428 379.008 185.834 378.675C186.251 378.342 186.772 378.175 187.397 378.175C187.855 378.175 188.256 378.269 188.6 378.456C188.954 378.644 189.246 378.915 189.475 379.269C189.704 379.612 189.881 380.034 190.006 380.534C190.131 381.034 190.194 381.711 190.194 382.566C190.194 383.576 190.09 384.389 189.881 385.003C189.683 385.618 189.376 386.097 188.959 386.441C188.553 386.774 188.032 386.941 187.397 386.941C186.574 386.941 185.923 386.644 185.444 386.05C184.881 385.342 184.6 384.18 184.6 382.566ZM185.678 382.566C185.678 383.972 185.845 384.909 186.178 385.378C186.511 385.847 186.918 386.081 187.397 386.081C187.886 386.081 188.293 385.847 188.616 385.378C188.949 384.909 189.116 383.972 189.116 382.566C189.116 381.149 188.949 380.211 188.616 379.753C188.293 379.284 187.881 379.05 187.381 379.05C186.902 379.05 186.517 379.253 186.225 379.659C185.86 380.18 185.678 381.149 185.678 382.566ZM191.6 382.566C191.6 381.545 191.704 380.727 191.913 380.112C192.121 379.487 192.428 379.008 192.834 378.675C193.251 378.342 193.772 378.175 194.397 378.175C194.855 378.175 195.256 378.269 195.6 378.456C195.954 378.644 196.246 378.915 196.475 379.269C196.704 379.612 196.881 380.034 197.006 380.534C197.131 381.034 197.194 381.711 197.194 382.566C197.194 383.576 197.09 384.389 196.881 385.003C196.683 385.618 196.376 386.097 195.959 386.441C195.553 386.774 195.032 386.941 194.397 386.941C193.574 386.941 192.923 386.644 192.444 386.05C191.881 385.342 191.6 384.18 191.6 382.566ZM192.678 382.566C192.678 383.972 192.845 384.909 193.178 385.378C193.511 385.847 193.918 386.081 194.397 386.081C194.886 386.081 195.293 385.847 195.616 385.378C195.949 384.909 196.116 383.972 196.116 382.566C196.116 381.149 195.949 380.211 195.616 379.753C195.293 379.284 194.881 379.05 194.381 379.05C193.902 379.05 193.517 379.253 193.225 379.659C192.86 380.18 192.678 381.149 192.678 382.566ZM198.6 382.566C198.6 381.545 198.704 380.727 198.913 380.112C199.121 379.487 199.428 379.008 199.834 378.675C200.251 378.342 200.772 378.175 201.397 378.175C201.855 378.175 202.256 378.269 202.6 378.456C202.954 378.644 203.246 378.915 203.475 379.269C203.704 379.612 203.881 380.034 204.006 380.534C204.131 381.034 204.194 381.711 204.194 382.566C204.194 383.576 204.09 384.389 203.881 385.003C203.683 385.618 203.376 386.097 202.959 386.441C202.553 386.774 202.032 386.941 201.397 386.941C200.574 386.941 199.923 386.644 199.444 386.05C198.881 385.342 198.6 384.18 198.6 382.566ZM199.678 382.566C199.678 383.972 199.845 384.909 200.178 385.378C200.511 385.847 200.918 386.081 201.397 386.081C201.886 386.081 202.293 385.847 202.616 385.378C202.949 384.909 203.116 383.972 203.116 382.566C203.116 381.149 202.949 380.211 202.616 379.753C202.293 379.284 201.881 379.05 201.381 379.05C200.902 379.05 200.517 379.253 200.225 379.659C199.86 380.18 199.678 381.149 199.678 382.566Z" fill="black"/>
<path d="M293.975 386.8V384.737H290.256V383.769L294.178 378.206H295.037V383.769H296.194V384.737H295.037V386.8H293.975ZM293.975 383.769V379.909L291.287 383.769H293.975ZM300.975 386.8V384.737H297.256V383.769L301.178 378.206H302.037V383.769H303.194V384.737H302.037V386.8H300.975ZM300.975 383.769V379.909L298.287 383.769H300.975ZM310.147 385.784V386.8H304.459C304.459 386.55 304.501 386.305 304.584 386.066C304.73 385.68 304.959 385.3 305.272 384.925C305.595 384.55 306.058 384.118 306.662 383.628C307.6 382.857 308.23 382.248 308.553 381.8C308.886 381.352 309.053 380.93 309.053 380.534C309.053 380.118 308.902 379.769 308.6 379.487C308.298 379.196 307.907 379.05 307.428 379.05C306.918 379.05 306.511 379.201 306.209 379.503C305.907 379.805 305.751 380.227 305.741 380.769L304.662 380.659C304.735 379.847 305.011 379.232 305.491 378.816C305.98 378.389 306.636 378.175 307.459 378.175C308.282 378.175 308.933 378.404 309.412 378.862C309.892 379.321 310.131 379.889 310.131 380.566C310.131 380.909 310.058 381.248 309.912 381.581C309.777 381.904 309.543 382.253 309.209 382.628C308.886 382.993 308.35 383.493 307.6 384.128C306.965 384.659 306.553 385.024 306.366 385.222C306.189 385.409 306.043 385.597 305.928 385.784H310.147ZM311.6 382.566C311.6 381.545 311.704 380.727 311.912 380.112C312.121 379.487 312.428 379.008 312.834 378.675C313.251 378.342 313.772 378.175 314.397 378.175C314.855 378.175 315.256 378.269 315.6 378.456C315.954 378.644 316.246 378.915 316.475 379.269C316.704 379.612 316.881 380.034 317.006 380.534C317.131 381.034 317.194 381.711 317.194 382.566C317.194 383.576 317.09 384.389 316.881 385.003C316.683 385.618 316.376 386.097 315.959 386.441C315.553 386.774 315.032 386.941 314.397 386.941C313.574 386.941 312.923 386.644 312.444 386.05C311.881 385.342 311.6 384.18 311.6 382.566ZM312.678 382.566C312.678 383.972 312.845 384.909 313.178 385.378C313.511 385.847 313.918 386.081 314.397 386.081C314.886 386.081 315.293 385.847 315.616 385.378C315.949 384.909 316.116 383.972 316.116 382.566C316.116 381.149 315.949 380.211 315.616 379.753C315.293 379.284 314.881 379.05 314.381 379.05C313.902 379.05 313.517 379.253 313.225 379.659C312.86 380.18 312.678 381.149 312.678 382.566ZM318.6 382.566C318.6 381.545 318.704 380.727 318.912 380.112C319.121 379.487 319.428 379.008 319.834 378.675C320.251 378.342 320.772 378.175 321.397 378.175C321.855 378.175 322.256 378.269 322.6 378.456C322.954 378.644 323.246 378.915 323.475 379.269C323.704 379.612 323.881 380.034 324.006 380.534C324.131 381.034 324.194 381.711 324.194 382.566C324.194 383.576 324.09 384.389 323.881 385.003C323.683 385.618 323.376 386.097 322.959 386.441C322.553 386.774 322.032 386.941 321.397 386.941C320.574 386.941 319.923 386.644 319.444 386.05C318.881 385.342 318.6 384.18 318.6 382.566ZM319.678 382.566C319.678 383.972 319.845 384.909 320.178 385.378C320.511 385.847 320.918 386.081 321.397 386.081C321.886 386.081 322.293 385.847 322.616 385.378C322.949 384.909 323.116 383.972 323.116 382.566C323.116 381.149 322.949 380.211 322.616 379.753C322.293 379.284 321.881 379.05 321.381 379.05C320.902 379.05 320.517 379.253 320.225 379.659C319.86 380.18 319.678 381.149 319.678 382.566Z" fill="black"/>
<path d="M413.975 386.8V384.737H410.256V383.769L414.178 378.206H415.037V383.769H416.194V384.737H415.037V386.8H413.975ZM413.975 383.769V379.909L411.287 383.769H413.975ZM420.975 386.8V384.737H417.256V383.769L421.178 378.206H422.037V383.769H423.194V384.737H422.037V386.8H420.975ZM420.975 383.769V379.909L418.287 383.769H420.975ZM427.975 386.8V384.737H424.256V383.769L428.178 378.206H429.037V383.769H430.194V384.737H429.037V386.8H427.975ZM427.975 383.769V379.909L425.287 383.769H427.975ZM431.6 382.566C431.6 381.545 431.704 380.727 431.912 380.112C432.121 379.487 432.428 379.008 432.834 378.675C433.251 378.342 433.772 378.175 434.397 378.175C434.855 378.175 435.256 378.269 435.6 378.456C435.954 378.644 436.246 378.915 436.475 379.269C436.704 379.612 436.881 380.034 437.006 380.534C437.131 381.034 437.194 381.711 437.194 382.566C437.194 383.576 437.09 384.389 436.881 385.003C436.683 385.618 436.376 386.097 435.959 386.441C435.553 386.774 435.032 386.941 434.397 386.941C433.574 386.941 432.923 386.644 432.444 386.05C431.881 385.342 431.6 384.18 431.6 382.566ZM432.678 382.566C432.678 383.972 432.845 384.909 433.178 385.378C433.511 385.847 433.918 386.081 434.397 386.081C434.886 386.081 435.293 385.847 435.616 385.378C435.949 384.909 436.116 383.972 436.116 382.566C436.116 381.149 435.949 380.211 435.616 379.753C435.293 379.284 434.881 379.05 434.381 379.05C433.902 379.05 433.517 379.253 433.225 379.659C432.86 380.18 432.678 381.149 432.678 382.566ZM438.6 382.566C438.6 381.545 438.704 380.727 438.912 380.112C439.121 379.487 439.428 379.008 439.834 378.675C440.251 378.342 440.772 378.175 441.397 378.175C441.855 378.175 442.256 378.269 442.6 378.456C442.954 378.644 443.246 378.915 443.475 379.269C443.704 379.612 443.881 380.034 444.006 380.534C444.131 381.034 444.194 381.711 444.194 382.566C444.194 383.576 444.09 384.389 443.881 385.003C443.683 385.618 443.376 386.097 442.959 386.441C442.553 386.774 442.032 386.941 441.397 386.941C440.574 386.941 439.923 386.644 439.444 386.05C438.881 385.342 438.6 384.18 438.6 382.566ZM439.678 382.566C439.678 383.972 439.845 384.909 440.178 385.378C440.511 385.847 440.918 386.081 441.397 386.081C441.886 386.081 442.293 385.847 442.616 385.378C442.949 384.909 443.116 383.972 443.116 382.566C443.116 381.149 442.949 380.211 442.616 379.753C442.293 379.284 441.881 379.05 441.381 379.05C440.902 379.05 440.517 379.253 440.225 379.659C439.86 380.18 439.678 381.149 439.678 382.566Z" fill="black"/>
<path d="M533.975 386.8V384.737H530.256V383.769L534.178 378.206H535.037V383.769H536.194V384.737H535.037V386.8H533.975ZM533.975 383.769V379.909L531.287 383.769H533.975ZM540.975 386.8V384.737H537.256V383.769L541.178 378.206H542.037V383.769H543.194V384.737H542.037V386.8H540.975ZM540.975 383.769V379.909L538.287 383.769H540.975ZM550.069 380.316L549.022 380.394C548.928 379.977 548.798 379.675 548.631 379.487C548.34 379.185 547.985 379.034 547.569 379.034C547.235 379.034 546.939 379.128 546.678 379.316C546.355 379.566 546.095 379.925 545.897 380.394C545.709 380.852 545.61 381.508 545.6 382.362C545.85 381.977 546.157 381.691 546.522 381.503C546.897 381.316 547.287 381.222 547.694 381.222C548.392 381.222 548.985 381.482 549.475 382.003C549.975 382.524 550.225 383.191 550.225 384.003C550.225 384.545 550.105 385.05 549.866 385.519C549.636 385.977 549.319 386.331 548.912 386.581C548.506 386.821 548.048 386.941 547.537 386.941C546.652 386.941 545.933 386.618 545.381 385.972C544.829 385.326 544.553 384.264 544.553 382.784C544.553 381.118 544.86 379.909 545.475 379.159C546.006 378.503 546.725 378.175 547.631 378.175C548.308 378.175 548.86 378.368 549.287 378.753C549.725 379.128 549.985 379.649 550.069 380.316ZM545.772 384.019C545.772 384.383 545.845 384.732 545.991 385.066C546.147 385.389 546.36 385.639 546.631 385.816C546.912 385.993 547.209 386.081 547.522 386.081C547.959 386.081 548.34 385.904 548.662 385.55C548.985 385.185 549.147 384.696 549.147 384.081C549.147 383.487 548.985 383.019 548.662 382.675C548.35 382.331 547.954 382.159 547.475 382.159C546.996 382.159 546.59 382.331 546.256 382.675C545.933 383.019 545.772 383.467 545.772 384.019ZM551.6 382.566C551.6 381.545 551.704 380.727 551.912 380.112C552.121 379.487 552.428 379.008 552.834 378.675C553.251 378.342 553.772 378.175 554.397 378.175C554.855 378.175 555.256 378.269 555.6 378.456C555.954 378.644 556.246 378.915 556.475 379.269C556.704 379.612 556.881 380.034 557.006 380.534C557.131 381.034 557.194 381.711 557.194 382.566C557.194 383.576 557.09 384.389 556.881 385.003C556.683 385.618 556.376 386.097 555.959 386.441C555.553 386.774 555.032 386.941 554.397 386.941C553.574 386.941 552.923 386.644 552.444 386.05C551.881 385.342 551.6 384.18 551.6 382.566ZM552.678 382.566C552.678 383.972 552.845 384.909 553.178 385.378C553.511 385.847 553.918 386.081 554.397 386.081C554.886 386.081 555.293 385.847 555.616 385.378C555.949 384.909 556.116 383.972 556.116 382.566C556.116 381.149 555.949 380.211 555.616 379.753C555.293 379.284 554.881 379.05 554.381 379.05C553.902 379.05 553.517 379.253 553.225 379.659C552.86 380.18 552.678 381.149 552.678 382.566ZM558.6 382.566C558.6 381.545 558.704 380.727 558.912 380.112C559.121 379.487 559.428 379.008 559.834 378.675C560.251 378.342 560.772 378.175 561.397 378.175C561.855 378.175 562.256 378.269 562.6 378.456C562.954 378.644 563.246 378.915 563.475 379.269C563.704 379.612 563.881 380.034 564.006 380.534C564.131 381.034 564.194 381.711 564.194 382.566C564.194 383.576 564.09 384.389 563.881 385.003C563.683 385.618 563.376 386.097 562.959 386.441C562.553 386.774 562.032 386.941 561.397 386.941C560.574 386.941 559.923 386.644 559.444 386.05C558.881 385.342 558.6 384.18 558.6 382.566ZM559.678 382.566C559.678 383.972 559.845 384.909 560.178 385.378C560.511 385.847 560.918 386.081 561.397 386.081C561.886 386.081 562.293 385.847 562.616 385.378C562.949 384.909 563.116 383.972 563.116 382.566C563.116 381.149 562.949 380.211 562.616 379.753C562.293 379.284 561.881 379.05 561.381 379.05C560.902 379.05 560.517 379.253 560.225 379.659C559.86 380.18 559.678 381.149 559.678 382.566Z" fill="black"/>
<path d="M653.975 386.8V384.737H650.256V383.769L654.178 378.206H655.037V383.769H656.194V384.737H655.037V386.8H653.975ZM653.975 383.769V379.909L651.287 383.769H653.975ZM660.975 386.8V384.737H657.256V383.769L661.178 378.206H662.037V383.769H663.194V384.737H662.037V386.8H660.975ZM660.975 383.769V379.909L658.287 383.769H660.975ZM666.225 382.144C665.787 381.977 665.459 381.748 665.241 381.456C665.032 381.154 664.928 380.8 664.928 380.394C664.928 379.769 665.152 379.243 665.6 378.816C666.058 378.389 666.657 378.175 667.397 378.175C668.147 378.175 668.751 378.394 669.209 378.831C669.668 379.269 669.897 379.8 669.897 380.425C669.897 380.821 669.793 381.165 669.584 381.456C669.376 381.748 669.058 381.977 668.631 382.144C669.162 382.31 669.564 382.586 669.834 382.972C670.105 383.357 670.241 383.816 670.241 384.347C670.241 385.076 669.98 385.691 669.459 386.191C668.949 386.691 668.267 386.941 667.412 386.941C666.569 386.941 665.886 386.691 665.366 386.191C664.845 385.691 664.584 385.066 664.584 384.316C664.584 383.753 664.725 383.284 665.006 382.909C665.298 382.534 665.704 382.279 666.225 382.144ZM666.006 380.347C666.006 380.753 666.136 381.086 666.397 381.347C666.668 381.607 667.011 381.737 667.428 381.737C667.834 381.737 668.168 381.612 668.428 381.362C668.689 381.102 668.819 380.784 668.819 380.409C668.819 380.024 668.683 379.701 668.412 379.441C668.142 379.17 667.808 379.034 667.412 379.034C667.006 379.034 666.668 379.165 666.397 379.425C666.136 379.685 666.006 379.993 666.006 380.347ZM665.678 384.316C665.678 384.618 665.746 384.909 665.881 385.191C666.027 385.472 666.241 385.691 666.522 385.847C666.803 386.003 667.105 386.081 667.428 386.081C667.928 386.081 668.34 385.92 668.662 385.597C668.996 385.274 669.162 384.862 669.162 384.362C669.162 383.852 668.996 383.43 668.662 383.097C668.329 382.764 667.907 382.597 667.397 382.597C666.897 382.597 666.485 382.764 666.162 383.097C665.84 383.42 665.678 383.826 665.678 384.316ZM671.6 382.566C671.6 381.545 671.704 380.727 671.912 380.112C672.121 379.487 672.428 379.008 672.834 378.675C673.251 378.342 673.772 378.175 674.397 378.175C674.855 378.175 675.256 378.269 675.6 378.456C675.954 378.644 676.246 378.915 676.475 379.269C676.704 379.612 676.881 380.034 677.006 380.534C677.131 381.034 677.194 381.711 677.194 382.566C677.194 383.576 677.09 384.389 676.881 385.003C676.683 385.618 676.376 386.097 675.959 386.441C675.553 386.774 675.032 386.941 674.397 386.941C673.574 386.941 672.923 386.644 672.444 386.05C671.881 385.342 671.6 384.18 671.6 382.566ZM672.678 382.566C672.678 383.972 672.845 384.909 673.178 385.378C673.511 385.847 673.918 386.081 674.397 386.081C674.886 386.081 675.293 385.847 675.616 385.378C675.949 384.909 676.116 383.972 676.116 382.566C676.116 381.149 675.949 380.211 675.616 379.753C675.293 379.284 674.881 379.05 674.381 379.05C673.902 379.05 673.517 379.253 673.225 379.659C672.86 380.18 672.678 381.149 672.678 382.566ZM678.6 382.566C678.6 381.545 678.704 380.727 678.912 380.112C679.121 379.487 679.428 379.008 679.834 378.675C680.251 378.342 680.772 378.175 681.397 378.175C681.855 378.175 682.256 378.269 682.6 378.456C682.954 378.644 683.246 378.915 683.475 379.269C683.704 379.612 683.881 380.034 684.006 380.534C684.131 381.034 684.194 381.711 684.194 382.566C684.194 383.576 684.09 384.389 683.881 385.003C683.683 385.618 683.376 386.097 682.959 386.441C682.553 386.774 682.032 386.941 681.397 386.941C680.574 386.941 679.923 386.644 679.444 386.05C678.881 385.342 678.6 384.18 678.6 382.566ZM679.678 382.566C679.678 383.972 679.845 384.909 680.178 385.378C680.511 385.847 680.918 386.081 681.397 386.081C681.886 386.081 682.293 385.847 682.616 385.378C682.949 384.909 683.116 383.972 683.116 382.566C683.116 381.149 682.949 380.211 682.616 379.753C682.293 379.284 681.881 379.05 681.381 379.05C680.902 379.05 680.517 379.253 680.225 379.659C679.86 380.18 679.678 381.149 679.678 382.566Z" fill="black"/>
<path d="M575.847 61.5125V62.7H569.222C569.211 62.4083 569.258 62.1219 569.363 61.8406C569.54 61.3927 569.81 60.95 570.175 60.5125C570.55 60.075 571.086 59.5698 571.784 58.9969C572.878 58.101 573.613 57.3927 573.988 56.8719C574.373 56.351 574.566 55.8563 574.566 55.3875C574.566 54.8979 574.389 54.4865 574.034 54.1531C573.691 53.8198 573.243 53.6531 572.691 53.6531C572.097 53.6531 571.618 53.8302 571.253 54.1844C570.899 54.5385 570.722 55.0333 570.722 55.6688L569.456 55.5281C569.54 54.5906 569.862 53.8771 570.425 53.3875C570.998 52.8875 571.758 52.6375 572.706 52.6375C573.675 52.6375 574.435 52.9031 574.988 53.4344C575.55 53.9656 575.831 54.6271 575.831 55.4188C575.831 55.825 575.748 56.2208 575.581 56.6063C575.425 56.9917 575.154 57.3979 574.769 57.825C574.394 58.2521 573.764 58.8406 572.878 59.5906C572.139 60.2052 571.665 60.6271 571.456 60.8563C571.248 61.075 571.076 61.2938 570.941 61.5125H575.847ZM577.378 57.7625C577.378 56.575 577.498 55.6219 577.738 54.9031C577.988 54.174 578.352 53.6167 578.831 53.2313C579.31 52.8354 579.915 52.6375 580.644 52.6375C581.185 52.6375 581.659 52.7469 582.066 52.9656C582.472 53.1844 582.805 53.4969 583.066 53.9031C583.336 54.3094 583.545 54.8042 583.691 55.3875C583.836 55.9708 583.909 56.7625 583.909 57.7625C583.909 58.9396 583.79 59.8875 583.55 60.6063C583.31 61.325 582.951 61.8823 582.472 62.2781C581.993 62.674 581.383 62.8719 580.644 62.8719C579.685 62.8719 578.93 62.5229 578.378 61.825C577.711 60.9917 577.378 59.6375 577.378 57.7625ZM578.644 57.7625C578.644 59.4083 578.836 60.5021 579.222 61.0438C579.607 61.5854 580.081 61.8563 580.644 61.8563C581.217 61.8563 581.696 61.5854 582.081 61.0438C582.467 60.4917 582.659 59.3979 582.659 57.7625C582.659 56.1063 582.467 55.0073 582.081 54.4656C581.696 53.924 581.211 53.6531 580.628 53.6531C580.066 53.6531 579.618 53.8927 579.284 54.3719C578.857 54.9865 578.644 56.1167 578.644 57.7625ZM591.847 61.5125V62.7H585.222C585.211 62.4083 585.258 62.1219 585.363 61.8406C585.54 61.3927 585.81 60.95 586.175 60.5125C586.55 60.075 587.086 59.5698 587.784 58.9969C588.878 58.101 589.613 57.3927 589.988 56.8719C590.373 56.351 590.566 55.8563 590.566 55.3875C590.566 54.8979 590.389 54.4865 590.034 54.1531C589.691 53.8198 589.243 53.6531 588.691 53.6531C588.097 53.6531 587.618 53.8302 587.253 54.1844C586.899 54.5385 586.722 55.0333 586.722 55.6688L585.456 55.5281C585.54 54.5906 585.862 53.8771 586.425 53.3875C586.998 52.8875 587.758 52.6375 588.706 52.6375C589.675 52.6375 590.435 52.9031 590.988 53.4344C591.55 53.9656 591.831 54.6271 591.831 55.4188C591.831 55.825 591.748 56.2208 591.581 56.6063C591.425 56.9917 591.154 57.3979 590.769 57.825C590.394 58.2521 589.764 58.8406 588.878 59.5906C588.139 60.2052 587.665 60.6271 587.456 60.8563C587.248 61.075 587.076 61.2938 586.941 61.5125H591.847ZM599.847 61.5125V62.7H593.222C593.211 62.4083 593.258 62.1219 593.363 61.8406C593.54 61.3927 593.81 60.95 594.175 60.5125C594.55 60.075 595.086 59.5698 595.784 58.9969C596.878 58.101 597.613 57.3927 597.988 56.8719C598.373 56.351 598.566 55.8563 598.566 55.3875C598.566 54.8979 598.389 54.4865 598.034 54.1531C597.691 53.8198 597.243 53.6531 596.691 53.6531C596.097 53.6531 595.618 53.8302 595.253 54.1844C594.899 54.5385 594.722 55.0333 594.722 55.6688L593.456 55.5281C593.54 54.5906 593.862 53.8771 594.425 53.3875C594.998 52.8875 595.758 52.6375 596.706 52.6375C597.675 52.6375 598.435 52.9031 598.988 53.4344C599.55 53.9656 599.831 54.6271 599.831 55.4188C599.831 55.825 599.748 56.2208 599.581 56.6063C599.425 56.9917 599.154 57.3979 598.769 57.825C598.394 58.2521 597.764 58.8406 596.878 59.5906C596.139 60.2052 595.665 60.6271 595.456 60.8563C595.248 61.075 595.076 61.2938 594.941 61.5125H599.847Z" fill="#999999"/>
<path d="M605.175 54.1687C604.487 55.3667 603.633 56.3667 602.612 57.1687L601.847 56.1844C603.336 55.0906 604.357 53.5073 604.909 51.4344L606.159 51.7625C606.305 51.9083 606.253 51.9969 606.003 52.0281L605.566 53.1219H613.269V54.1687H609.284V56.0281H612.566V57.0594H609.284V59.5281H613.878V60.5594H609.284V63.8562H608.191V60.5594H601.894V59.5281H604.362V56.0281H608.191V54.1687H605.175ZM605.456 59.5281H608.191V57.0594H605.456V59.5281Z" fill="#999999"/>
<path d="M615.566 60.3875L616.753 60.2781C616.847 60.8302 617.034 61.2313 617.316 61.4813C617.607 61.7313 617.972 61.8563 618.409 61.8563C618.784 61.8563 619.112 61.7729 619.394 61.6063C619.685 61.4292 619.92 61.1948 620.097 60.9031C620.284 60.6115 620.441 60.2208 620.566 59.7313C620.691 59.2417 620.753 58.7417 620.753 58.2313C620.753 58.1792 620.748 58.0958 620.737 57.9813C620.498 58.3771 620.165 58.7 619.737 58.95C619.31 59.1896 618.847 59.3094 618.347 59.3094C617.514 59.3094 616.81 59.0073 616.237 58.4031C615.665 57.799 615.378 57.0073 615.378 56.0281C615.378 55.0073 615.675 54.1896 616.269 53.575C616.873 52.95 617.628 52.6375 618.534 52.6375C619.18 52.6375 619.774 52.8146 620.316 53.1688C620.857 53.5125 621.269 54.0125 621.55 54.6688C621.831 55.3146 621.972 56.2521 621.972 57.4813C621.972 58.7625 621.831 59.7833 621.55 60.5438C621.279 61.3042 620.868 61.8823 620.316 62.2781C619.764 62.674 619.118 62.8719 618.378 62.8719C617.597 62.8719 616.956 62.6531 616.456 62.2156C615.967 61.7781 615.67 61.1688 615.566 60.3875ZM620.597 55.9656C620.597 55.2573 620.409 54.6948 620.034 54.2781C619.659 53.8615 619.211 53.6531 618.691 53.6531C618.139 53.6531 617.659 53.8771 617.253 54.325C616.847 54.7729 616.644 55.351 616.644 56.0594C616.644 56.6948 616.836 57.2156 617.222 57.6219C617.607 58.0177 618.081 58.2156 618.644 58.2156C619.217 58.2156 619.685 58.0177 620.05 57.6219C620.415 57.2156 620.597 56.6635 620.597 55.9656Z" fill="#999999"/>
<path d="M632.706 59.5281H627.503C627.503 61.0906 626.701 62.5698 625.097 63.9656L624.175 62.9187C625.665 61.9708 626.409 60.549 626.409 58.6531V51.9812H633.8V62.7625C633.8 63.3458 633.487 63.6375 632.862 63.6375H631.55L631.331 62.4187H632.487C632.633 62.4187 632.706 62.3458 632.706 62.2V59.5281ZM627.503 58.325H632.706V56.3562H627.503V58.325ZM627.503 55.1531H632.706V53.1844H627.503V55.1531Z" fill="#999999"/>
<path d="M643.847 61.5125V62.7H637.222C637.211 62.4083 637.258 62.1219 637.363 61.8406C637.54 61.3927 637.81 60.95 638.175 60.5125C638.55 60.075 639.086 59.5698 639.784 58.9969C640.878 58.101 641.613 57.3927 641.988 56.8719C642.373 56.351 642.566 55.8563 642.566 55.3875C642.566 54.8979 642.389 54.4865 642.034 54.1531C641.691 53.8198 641.243 53.6531 640.691 53.6531C640.097 53.6531 639.618 53.8302 639.253 54.1844C638.899 54.5385 638.722 55.0333 638.722 55.6688L637.456 55.5281C637.54 54.5906 637.862 53.8771 638.425 53.3875C638.998 52.8875 639.758 52.6375 640.706 52.6375C641.675 52.6375 642.435 52.9031 642.988 53.4344C643.55 53.9656 643.831 54.6271 643.831 55.4188C643.831 55.825 643.748 56.2208 643.581 56.6063C643.425 56.9917 643.154 57.3979 642.769 57.825C642.394 58.2521 641.764 58.8406 640.878 59.5906C640.139 60.2052 639.665 60.6271 639.456 60.8563C639.248 61.075 639.076 61.2938 638.941 61.5125H643.847ZM645.566 60.3875L646.753 60.2781C646.847 60.8302 647.034 61.2313 647.316 61.4813C647.607 61.7313 647.972 61.8563 648.409 61.8563C648.784 61.8563 649.113 61.7729 649.394 61.6063C649.685 61.4292 649.92 61.1948 650.097 60.9031C650.284 60.6115 650.441 60.2208 650.566 59.7313C650.691 59.2417 650.753 58.7417 650.753 58.2313C650.753 58.1792 650.748 58.0958 650.738 57.9813C650.498 58.3771 650.165 58.7 649.738 58.95C649.31 59.1896 648.847 59.3094 648.347 59.3094C647.514 59.3094 646.81 59.0073 646.238 58.4031C645.665 57.799 645.378 57.0073 645.378 56.0281C645.378 55.0073 645.675 54.1896 646.269 53.575C646.873 52.95 647.628 52.6375 648.534 52.6375C649.18 52.6375 649.774 52.8146 650.316 53.1688C650.857 53.5125 651.269 54.0125 651.55 54.6688C651.831 55.3146 651.972 56.2521 651.972 57.4813C651.972 58.7625 651.831 59.7833 651.55 60.5438C651.279 61.3042 650.868 61.8823 650.316 62.2781C649.764 62.674 649.118 62.8719 648.378 62.8719C647.597 62.8719 646.956 62.6531 646.456 62.2156C645.967 61.7781 645.67 61.1688 645.566 60.3875ZM650.597 55.9656C650.597 55.2573 650.409 54.6948 650.034 54.2781C649.659 53.8615 649.211 53.6531 648.691 53.6531C648.139 53.6531 647.659 53.8771 647.253 54.325C646.847 54.7729 646.644 55.351 646.644 56.0594C646.644 56.6948 646.836 57.2156 647.222 57.6219C647.607 58.0177 648.081 58.2156 648.644 58.2156C649.217 58.2156 649.685 58.0177 650.05 57.6219C650.415 57.2156 650.597 56.6635 650.597 55.9656Z" fill="#999999"/>
<path d="M656.8 63.2H655.534V52.6375H664.128V62.9812H662.862V62.2H656.8V63.2ZM662.862 56.7937V53.6687H656.8V56.7937H662.862ZM662.862 61.1687V57.825H656.8V61.1687H662.862ZM677.081 55.8562H679.659V56.7312H677.362V57.9969H679.222V58.8719H677.362V60.1844H679.222V61.0594H677.362V62.4187H680.097V63.3094H674.566V63.8562H673.644V57.7781C673.352 58.174 672.987 58.5385 672.55 58.8719L672.159 57.825C673.545 56.5854 674.441 55.2937 674.847 53.95H673.581V55.2H672.659V53.075H675.066C675.211 52.4917 675.336 51.8719 675.441 51.2156L676.534 51.4812C676.649 51.5958 676.612 51.7052 676.425 51.8094C676.321 52.2469 676.211 52.6687 676.097 53.075H679.987V54.9812H679.05V53.95H675.878C675.659 54.7104 675.368 55.3458 675.003 55.8562H676.159L676.862 54.2156L677.909 54.4344C678.086 54.5073 678.05 54.601 677.8 54.7156L677.081 55.8562ZM667.847 53.3406V52.3094H672.487V53.3406H670.581C670.508 54.476 670.269 55.5177 669.862 56.4656H672.003V62.9812H671.066V62.0906H669.644V63.5281H668.722V58.5906C668.503 58.9552 668.264 59.2833 668.003 59.575L667.3 58.6531C668.571 57.226 669.316 55.4552 669.534 53.3406H667.847ZM674.566 58.8719V60.1844H676.425V58.8719H674.566ZM674.566 56.7312V57.9969H676.425V56.7312H674.566ZM674.566 61.0594V62.4187H676.425V61.0594H674.566ZM669.644 57.3406V61.2156H671.066V57.3406H669.644ZM686.222 57.45C687.566 57.0854 688.42 56.3719 688.784 55.3094L687.316 54.7156L687.691 53.7781L689.003 54.2781L689.112 52.9656H686.816V51.9187H693.378L693.269 56.6219C693.237 57.5385 692.857 57.9969 692.128 57.9969H690.862L690.753 56.95H691.909C692.128 56.95 692.237 56.8406 692.237 56.6219L692.347 52.9656H690.206L690.05 54.7156L691.362 55.4187L690.862 56.4031L689.769 55.8094C689.3 57.1531 688.264 58.0646 686.659 58.5437L686.222 57.45ZM693.159 62.9187C692.868 61.825 692.415 60.8771 691.8 60.075L692.784 59.6375C693.586 60.6167 694.097 61.5437 694.316 62.4187L693.159 62.9187ZM685.831 59.4656V63.6844H684.909V63.3094H683.05V63.9031H682.112V59.4656H685.831ZM686.269 62.9812C686.529 62.0646 686.696 61.0229 686.769 59.8562L687.862 59.9656C687.935 59.9969 687.899 60.0854 687.753 60.2312C687.711 61.3979 687.545 62.4031 687.253 63.2469L686.269 62.9812ZM689.769 57.6687C690.279 57.9917 690.79 58.5542 691.3 59.3562L690.269 59.9656C690.008 59.4552 689.571 58.8719 688.956 58.2156L689.769 57.6687ZM682.331 51.7H685.612V52.7469H682.331V51.7ZM681.628 53.5594H686.331V54.6062H681.628V53.5594ZM682.331 55.5906H685.612V56.6219H682.331V55.5906ZM682.331 57.45H685.612V58.4812H682.331V57.45ZM683.05 60.3406V62.4187H684.909V60.3406H683.05ZM689.222 59.3094C689.514 59.3406 689.534 59.45 689.284 59.6375V62.2C689.284 62.4604 689.394 62.5906 689.612 62.5906H690.816C691.034 62.5906 691.159 62.4812 691.191 62.2625L691.3 61.3875L692.394 61.6531L692.175 62.8094C692.071 63.3615 691.743 63.6375 691.191 63.6375H689.112C688.498 63.6375 688.191 63.3042 688.191 62.6375V59.3094H689.222Z" fill="#999999"/>
<path d="M32.9813 31.3875V32.7156H38.2938V40.0594H36.7313V39.5906H33.5281C35.7156 41.4135 38.2417 42.6896 41.1063 43.4187L40.325 45.2937C37.9292 44.6687 35.4813 43.1844 32.9813 40.8406V45.9969H31.4188V41.1531C29.5958 43.1323 27.2521 44.5906 24.3875 45.5281L23.6063 43.8875C26.7313 42.8979 29.2052 41.4656 31.0281 39.5906H27.6688V40.2937H26.1063V32.7156H31.4188V31.3875H23.6844V29.9031H31.4188V28.1062H32.9031C33.3198 28.1583 33.3458 28.3146 32.9813 28.575V29.9031H40.5594V31.3875H32.9813ZM32.9813 38.3406H36.7313V36.7781H32.9813V38.3406ZM32.9813 35.5281H36.7313V33.9656H32.9813V35.5281ZM27.6688 38.3406H31.4188V36.7781H27.6688V38.3406ZM27.6688 35.5281H31.4188V33.9656H27.6688V35.5281ZM49.075 41.7C47.8771 43.1062 46.3146 44.3042 44.3875 45.2937L43.45 43.4969C45.4292 42.5594 46.9917 41.4135 48.1375 40.0594L49.5438 41.3875C49.7 41.6479 49.5438 41.7521 49.075 41.7ZM59.6219 45.0594C57.4865 44.2781 55.7938 42.976 54.5438 41.1531L55.95 40.0594C57.0438 41.5177 58.6063 42.6115 60.6375 43.3406L59.6219 45.0594ZM52.9031 28.1062C53.424 28.2104 53.45 28.4187 52.9813 28.7312V30.2937H60.7938V31.7781H43.5281V30.2937H51.1844V28.1062H52.9031ZM56.4969 38.8875H53.1375V44.6687C53.1375 45.5021 52.7208 45.9187 51.8875 45.9187H49.8563L49.5438 44.2H51.2625C51.4708 44.2 51.575 44.0958 51.575 43.8875V38.8875H47.6688V39.5906H46.1063V33.2625H58.0594V39.3562H56.4969V38.8875ZM47.6688 34.7469V37.4031H56.4969V34.7469H47.6688ZM79.2313 39.3562C78.9708 38.2625 78.2938 37.0646 77.2 35.7625L78.6063 30.9187H76.2625V45.9187H74.7V29.4344H78.9969L79.1531 29.0437L80.7938 30.1375L80.4813 30.3719L78.7625 35.45C79.9083 36.6479 80.6115 37.7417 80.8719 38.7312C81.6531 41.9083 81.0281 43.4969 78.9969 43.4969H77.6688L77.3563 41.7781H78.5281C79.3615 41.7781 79.5958 40.9708 79.2313 39.3562ZM71.2625 31.7C71.7313 31.0229 72.2261 30.1115 72.7469 28.9656L74.1531 29.9812C74.5177 30.2417 74.4396 30.3979 73.9188 30.45C73.1375 31.7521 72.2781 32.8979 71.3406 33.8875H73.9188V35.3719H70.2469C69.674 35.9448 69.075 36.4656 68.45 36.9344H72.825V45.6844H71.2625V44.7469H67.2781V45.9969H65.7156V39.2C64.9865 39.7208 64.2573 40.1375 63.5281 40.45L62.825 38.8094C64.5958 38.1323 66.3667 36.9865 68.1375 35.3719H63.6844V33.8875H67.3563V31.8562H64.5438V30.3719H67.3563V27.8719H68.8406C69.2573 27.924 69.2833 28.0802 68.9188 28.3406V30.3719H71.2625V31.7ZM71.2625 41.4656H67.2781V43.4969H71.2625V41.4656ZM67.2781 38.1844V40.2156H71.2625V38.1844H67.2781ZM69.3875 33.8875C69.8563 33.4708 70.4552 32.7937 71.1844 31.8562H68.9188V33.8875H69.3875ZM92.9813 33.1844C92.0958 38.3927 91.0281 41.6219 89.7781 42.8719C89.1011 43.549 88.3979 43.8875 87.6688 43.8875C86.8354 43.8875 86.1844 43.6531 85.7156 43.1844C84.4656 41.9344 83.8406 40.3719 83.8406 38.4969C83.8406 36.2052 84.6479 34.2521 86.2625 32.6375C88.0333 30.8667 90.1948 29.9812 92.7469 29.9812C95.0386 29.9812 96.8354 30.6323 98.1375 31.9344C99.5958 33.3927 100.325 35.1115 100.325 37.0906C100.325 39.226 99.6479 40.9708 98.2938 42.325C97.4083 43.2104 96.0542 44.0698 94.2313 44.9031L92.5906 43.2625C94.4136 42.6896 95.8458 41.8823 96.8875 40.8406C97.8771 39.851 98.3719 38.6531 98.3719 37.2469C98.3719 35.5802 97.825 34.2 96.7313 33.1062C95.6375 32.0125 93.9188 31.5177 91.575 31.6219L92.9813 32.325C93.6063 32.5854 93.6063 32.8719 92.9813 33.1844ZM91.1844 31.7C89.8302 32.0125 88.6583 32.6635 87.6688 33.6531C86.3146 35.0073 85.6375 36.674 85.6375 38.6531C85.6375 39.851 86.0281 40.8406 86.8094 41.6219C86.9656 41.7781 87.2 41.8562 87.5125 41.8562C87.825 41.8562 88.1636 41.674 88.5281 41.3094C89.7261 40.1115 90.6115 36.9083 91.1844 31.7ZM110.325 44.5125C112.46 43.3667 113.528 41.4135 113.528 38.6531V29.6687L115.169 29.9812L119.388 28.6531L120.559 30.2156C120.664 30.5281 120.481 30.5802 120.013 30.3719L115.091 31.3094V34.6687H121.263V36.1531H118.919V45.9187H117.356V36.1531H115.091V39.1219C115.091 42.1948 113.789 44.4865 111.184 45.9969L110.325 44.5125ZM108.841 45.9969H107.278V41.3094C106.445 42.6635 105.533 43.7312 104.544 44.5125L103.372 43.1062C104.83 42.0646 106.054 40.7625 107.044 39.2H103.763V37.7156H107.278V35.9969H103.294V34.5125H108.763L109.622 31.7H103.841V30.2156H107.278V28.0281H108.763C109.179 28.0802 109.205 28.2365 108.841 28.4969V30.2156H112.278V31.7H111.263L110.169 34.5125H112.669V35.9969H108.841V37.7156H112.278V39.2H108.841V39.9031C109.57 40.1115 110.585 40.6583 111.888 41.5437L110.95 43.1062C110.221 42.3771 109.518 41.8042 108.841 41.3875V45.9969ZM105.716 34.3562C105.507 33.6271 105.221 32.924 104.856 32.2469L106.341 31.7781C106.757 32.4552 107.07 33.1583 107.278 33.8875L105.716 34.3562ZM138.45 36.5437H133.372V38.2625H138.45V36.5437ZM136.341 39.7469H134.934V40.5281C134.934 43.7573 133.085 45.6583 129.388 46.2312L128.919 44.5906C131.888 44.226 133.372 42.8198 133.372 40.3719V39.7469H132.591H131.809V28.8094H140.013V39.7469H137.903V43.6531C137.903 44.0698 138.085 44.2781 138.45 44.2781H139.231C139.492 44.2781 139.648 44.0177 139.7 43.4969L139.856 42.1687L141.419 42.6375L141.184 44.4344C141.08 45.3198 140.585 45.7625 139.7 45.7625H137.747C136.809 45.7625 136.341 45.3198 136.341 44.4344V39.7469ZM133.372 35.0594H138.45V33.4187H133.372V35.0594ZM133.372 31.9344H138.45V30.2937H133.372V31.9344ZM127.747 38.8875C128.789 39.3562 130.013 40.2156 131.419 41.4656L130.325 43.1062C129.231 41.9083 128.268 41.0229 127.434 40.45C126.914 42.7417 125.82 44.5385 124.153 45.8406L122.981 44.4344C125.273 42.5073 126.367 40.0073 126.263 36.9344H123.294V35.45H126.341V32.6375H123.841V31.1531H126.341V28.0281H127.825C128.242 28.0802 128.268 28.2365 127.903 28.4969V31.1531H130.638V32.6375H127.903V35.45H131.028V36.9344H127.825C127.825 37.7677 127.799 38.4187 127.747 38.8875ZM147.825 35.1375C148.815 36.4917 149.309 37.8979 149.309 39.3562C149.309 41.3875 148.71 42.4031 147.513 42.4031H146.575L146.263 40.8406H147.044C147.565 40.8406 147.799 40.2937 147.747 39.2C147.695 37.6896 147.226 36.3615 146.341 35.2156L147.903 30.1375H145.481V45.7625H143.919V28.8875H148.294L148.606 28.4969L149.934 29.6687L149.622 29.9812L147.825 35.1375ZM159.153 39.5125H158.372C157.539 43.3146 154.752 45.5021 150.013 46.075L149.544 44.5906C153.606 44.2781 156.054 42.5854 156.888 39.5125H155.794C154.908 41.7 153.033 43.0281 150.169 43.4969L149.7 42.1687C152.096 41.6479 153.58 40.7625 154.153 39.5125H152.903C152.174 40.2417 151.236 40.8146 150.091 41.2312L149.466 39.9031C151.132 39.3823 152.278 38.3927 152.903 36.9344H149.388V35.6844H161.106V36.9344H154.544C154.335 37.4031 154.075 37.8458 153.763 38.2625H160.638L160.481 43.1844C160.429 44.851 159.83 45.6844 158.684 45.6844H157.122L156.888 44.2H158.216C158.684 44.2 158.945 43.8875 158.997 43.2625L159.153 39.5125ZM152.513 33.4187H157.825V32.0906H152.513V33.4187ZM152.513 30.8406H157.825V29.5906H152.513V30.8406ZM159.153 28.3406V34.6687H151.184V28.3406H159.153ZM172.434 32.325H174.544V28.2625H176.028C176.445 28.3146 176.471 28.4708 176.106 28.7312V32.325H180.325V33.8094H176.106V37.5594H180.091V39.0437H176.106V43.6531H181.263V45.1375H169.309V43.6531H174.544V39.0437H170.716V37.5594H174.544V33.8094H171.966C171.601 34.851 171.028 35.8927 170.247 36.9344L168.919 35.9187C170.273 34.1479 171.158 32.0125 171.575 29.5125L173.059 29.825C173.476 29.9812 173.476 30.1375 173.059 30.2937L172.434 32.325ZM165.794 28.0281H167.278C167.695 28.0802 167.721 28.2365 167.356 28.4969V45.8406H165.794V28.0281ZM168.763 31.2312C169.231 31.8562 169.622 32.5594 169.934 33.3406L168.684 34.2C168.32 33.3146 167.955 32.5854 167.591 32.0125L168.763 31.2312ZM165.325 32.0906C165.69 32.1948 165.69 32.351 165.325 32.5594C165.221 34.226 164.986 35.7885 164.622 37.2469L163.138 36.7781C163.554 35.476 163.789 33.8354 163.841 31.8562L165.325 32.0906ZM198.138 36.6219V45.6844H196.575V44.9031H189.544V45.9187H187.981V38.8094C186.627 39.5385 185.169 40.1115 183.606 40.5281L183.059 39.1219C184.518 38.7573 186.158 38.1062 187.981 37.1687V36.6219H189.075C190.169 35.9969 191.106 35.3719 191.888 34.7469H183.684V33.2625H190.559V31.3875H185.716V29.9031H190.559V28.0281H192.044C192.46 28.0802 192.486 28.2365 192.122 28.4969V29.9031H195.872V31.2312C196.497 30.5542 197.122 29.799 197.747 28.9656L198.841 29.6687C199.205 29.9292 199.153 30.0854 198.684 30.1375C197.695 31.3354 196.705 32.3771 195.716 33.2625H201.106V34.7469H194.075C193.033 35.6323 192.2 36.2573 191.575 36.6219H198.138ZM193.606 33.2625C194.231 32.7937 194.934 32.1687 195.716 31.3875H192.122V33.2625H193.606ZM189.544 39.9812H196.575V37.8719H189.544V39.9812ZM189.544 43.6531H196.575V41.2312H189.544V43.6531ZM216.731 39.9031C217.46 38.4969 217.903 36.3615 218.059 33.4969H215.403C215.559 36.3615 216.002 38.4969 216.731 39.9031ZM219.622 33.4969C219.518 36.726 218.893 39.3302 217.747 41.3094C218.58 42.351 219.752 43.2625 221.263 44.0437L220.247 45.7625C218.58 44.6687 217.408 43.6271 216.731 42.6375C215.533 43.9917 213.684 45.1635 211.184 46.1531L210.403 44.5906C213.111 43.4969 214.908 42.3771 215.794 41.2312C214.908 39.5125 214.414 37.7937 214.309 36.075C213.997 36.8562 213.684 37.4552 213.372 37.8719L212.044 36.8562C213.606 34.5646 214.544 31.726 214.856 28.3406L216.497 28.7312C216.809 28.9396 216.731 29.0958 216.263 29.2C216.106 30.1375 215.898 31.075 215.638 32.0125H220.95V33.4969H219.622ZM212.356 29.7469C212.044 30.5281 211.679 31.1792 211.263 31.7L210.013 30.9969C210.429 30.3198 210.82 29.5385 211.184 28.6531L212.591 29.3562C212.799 29.5646 212.721 29.6948 212.356 29.7469ZM207.356 40.7625C208.085 40.9708 208.736 41.2052 209.309 41.4656C209.726 40.9969 210.065 40.2937 210.325 39.3562H208.059C207.851 39.825 207.617 40.2937 207.356 40.7625ZM206.263 42.7156L205.013 42.0125C205.533 41.2312 206.054 40.3458 206.575 39.3562H203.606V38.1062H207.044C207.356 37.4292 207.591 36.8562 207.747 36.3875L209.231 36.7781C209.44 36.9865 209.361 37.1167 208.997 37.1687L208.528 38.1062H212.981V39.3562H211.809C211.549 40.3979 211.158 41.2833 210.638 42.0125C211.106 42.2208 211.601 42.4812 212.122 42.7937L211.419 44.0437C210.846 43.6792 210.325 43.3927 209.856 43.1844C208.502 44.5385 206.679 45.3719 204.388 45.6844L203.841 44.2781C205.872 44.0698 207.434 43.4969 208.528 42.5594C207.955 42.299 207.382 42.0646 206.809 41.8562L206.263 42.7156ZM207.825 28.0281H209.075C209.492 28.0802 209.518 28.2365 209.153 28.4969V31.8562H213.138V33.1062H209.856C210.429 33.7833 211.315 34.4344 212.513 35.0594L211.653 36.3875C210.768 35.8667 209.934 35.1375 209.153 34.2V36.075H207.825V34.5906C206.992 35.6323 205.846 36.5698 204.388 37.4031L203.372 36.1531C204.986 35.3198 206.315 34.3042 207.356 33.1062H203.763V31.8562H207.825V28.0281ZM205.638 31.6219C205.273 30.8406 204.804 30.1635 204.231 29.5906L205.481 28.8094C206.106 29.4344 206.575 30.0854 206.888 30.7625L205.638 31.6219ZM232.981 33.1844C232.096 38.3927 231.028 41.6219 229.778 42.8719C229.101 43.549 228.398 43.8875 227.669 43.8875C226.835 43.8875 226.184 43.6531 225.716 43.1844C224.466 41.9344 223.841 40.3719 223.841 38.4969C223.841 36.2052 224.648 34.2521 226.263 32.6375C228.033 30.8667 230.195 29.9812 232.747 29.9812C235.039 29.9812 236.835 30.6323 238.138 31.9344C239.596 33.3927 240.325 35.1115 240.325 37.0906C240.325 39.226 239.648 40.9708 238.294 42.325C237.408 43.2104 236.054 44.0698 234.231 44.9031L232.591 43.2625C234.414 42.6896 235.846 41.8823 236.888 40.8406C237.877 39.851 238.372 38.6531 238.372 37.2469C238.372 35.5802 237.825 34.2 236.731 33.1062C235.638 32.0125 233.919 31.5177 231.575 31.6219L232.981 32.325C233.606 32.5854 233.606 32.8719 232.981 33.1844ZM231.184 31.7C229.83 32.0125 228.658 32.6635 227.669 33.6531C226.315 35.0073 225.638 36.674 225.638 38.6531C225.638 39.851 226.028 40.8406 226.809 41.6219C226.966 41.7781 227.2 41.8562 227.513 41.8562C227.825 41.8562 228.164 41.674 228.528 41.3094C229.726 40.1115 230.611 36.9083 231.184 31.7ZM248.763 34.825C250.481 33.2104 251.809 30.8667 252.747 27.7937L254.309 28.2625C254.57 28.4708 254.518 28.601 254.153 28.6531C253.736 29.6948 253.32 30.6583 252.903 31.5437H255.247C255.82 30.3458 256.263 29.2781 256.575 28.3406L258.059 28.8875C258.268 29.0958 258.19 29.226 257.825 29.2781C257.46 30.1115 257.096 30.8667 256.731 31.5437H260.716V33.0281H256.731V35.45H259.934V36.9344H256.731V39.4344H259.934V40.9187H256.731V43.8094H261.184V45.2937H252.591V45.9969H251.028V34.6687C250.664 35.1896 250.273 35.6583 249.856 36.075L248.763 34.825ZM244.856 45.8406L244.544 44.3562H245.872C246.08 44.3562 246.184 44.2521 246.184 44.0437V39.2L244.153 39.6687C244.101 40.0333 243.971 40.1115 243.763 39.9031L243.45 38.1062L246.184 37.5594V33.4187H243.763V31.9344H246.184V27.95H247.669C248.085 28.0021 248.111 28.1583 247.747 28.4187V31.9344H249.778V33.4187H247.747V37.2469L249.778 36.7L250.013 38.1062L247.747 38.8094V44.5906C247.747 45.424 247.33 45.8406 246.497 45.8406H244.856ZM252.591 43.8094H255.169V40.9187H252.591V43.8094ZM252.591 39.4344H255.169V36.9344H252.591V39.4344ZM252.591 35.45H255.169V33.0281H252.591V35.45ZM278.841 30.1375L279.075 29.825L280.325 30.8406L280.091 31.075C278.736 33.4187 277.408 34.9812 276.106 35.7625L276.888 35.9969C277.252 36.1531 277.226 36.3094 276.809 36.4656C276.705 36.8302 276.575 37.1427 276.419 37.4031H279.778L280.013 37.0906L281.419 38.1062L281.106 38.4187C279.44 42.8458 276.054 45.3458 270.95 45.9187L270.325 44.4344C272.773 44.174 274.7 43.5229 276.106 42.4812C275.377 41.7521 274.648 41.1271 273.919 40.6062C273.242 41.1792 272.33 41.7 271.184 42.1687L270.481 40.7625C273.033 39.7208 274.7 38.1323 275.481 35.9969C274.7 36.726 273.294 37.351 271.263 37.8719L270.559 36.4656C272.539 36.049 274.023 35.5021 275.013 34.825C274.492 34.2 273.867 33.6531 273.138 33.1844C272.773 33.549 272.408 33.8615 272.044 34.1219L270.95 32.95C272.669 31.4917 273.763 29.9292 274.231 28.2625L275.638 28.7312C276.002 28.8875 275.976 29.0437 275.559 29.2C275.507 29.5125 275.377 29.825 275.169 30.1375H278.841ZM268.216 33.1844H270.794V34.6687H268.216V36.6219C269.257 37.0906 270.247 37.7937 271.184 38.7312L270.169 40.1375C269.335 39.3042 268.684 38.7052 268.216 38.3406V45.9187H266.653V38.1844C266.341 39.226 265.481 40.5542 264.075 42.1687L262.903 40.6844C264.83 38.8615 266.028 36.8562 266.497 34.6687H263.45V33.1844H266.653V30.6062C265.611 30.7625 264.674 30.8927 263.841 30.9969L263.45 29.5125C265.533 29.3042 267.695 28.8875 269.934 28.2625L270.794 29.4344C271.002 29.7469 270.872 29.851 270.403 29.7469C269.674 29.9552 268.945 30.1375 268.216 30.2937V33.1844ZM273.919 32.2469C274.7 32.6635 275.455 33.1844 276.184 33.8094C276.966 33.0802 277.617 32.2729 278.138 31.3875H274.544C274.335 31.7521 274.127 32.0385 273.919 32.2469ZM274.778 39.6687C275.507 40.0854 276.341 40.7104 277.278 41.5437C278.059 40.9708 278.736 40.0073 279.309 38.6531H275.716C275.403 39.0698 275.091 39.4083 274.778 39.6687ZM286.809 32.325C287.382 31.1271 288.346 29.9031 289.7 28.6531L290.559 29.4344C289.257 30.6323 288.346 31.7781 287.825 32.8719C287.252 34.0698 286.966 35.5021 286.966 37.1687C286.966 38.575 287.252 39.9031 287.825 41.1531C288.346 42.299 289.257 43.575 290.559 44.9812L289.7 45.8406C288.398 44.3823 287.434 43.0021 286.809 41.7C286.132 40.2937 285.794 38.7833 285.794 37.1687C285.794 35.3458 286.132 33.7312 286.809 32.325ZM297.903 44.9031H296.106V29.825H308.372V44.5906H306.575V43.4969H297.903V44.9031ZM306.575 35.7625V31.3094H297.903V35.7625H306.575ZM306.575 42.0125V37.2469H297.903V42.0125H306.575ZM321.341 38.8094H318.372C317.903 41.7781 316.497 44.1219 314.153 45.8406L313.372 44.3562C315.664 42.7417 316.914 40.3458 317.122 37.1687L317.278 34.7469H316.184V35.7625H314.622V29.0437H322.513V35.45H320.95V34.7469H318.684L318.528 37.325H322.903L322.513 43.4969C322.408 44.7469 321.888 45.3719 320.95 45.3719H318.841L318.606 43.8875H320.325C320.794 43.8875 321.054 43.6271 321.106 43.1062L321.341 38.8094ZM329.778 44.2C329.778 45.0854 329.361 45.5281 328.528 45.5281H326.809L326.497 44.0437H327.981C328.138 44.0437 328.216 43.9656 328.216 43.8094V28.8094H329.7C330.117 28.8615 330.143 29.0177 329.778 29.2781V44.2ZM326.028 30.6844C326.445 30.7365 326.471 30.8927 326.106 31.1531V41.8562H324.544V30.6844H326.028ZM320.95 33.4969V30.2937H316.184V33.4969H320.95ZM337.513 41.7C336.888 43.0021 335.924 44.3823 334.622 45.8406L333.763 44.9812C335.065 43.575 335.976 42.299 336.497 41.1531C337.07 39.9031 337.356 38.575 337.356 37.1687C337.356 35.5021 337.07 34.0698 336.497 32.8719C335.976 31.7781 335.065 30.6323 333.763 29.4344L334.622 28.6531C335.976 29.9031 336.94 31.1271 337.513 32.325C338.19 33.7312 338.528 35.3458 338.528 37.1687C338.528 38.7833 338.19 40.2937 337.513 41.7Z" fill="#757575"/>
</g>
<rect x="2" y="2" width="714" height="440" stroke="black" stroke-width="4"/>
<defs>
<clipPath id="clip0_1_2">
<rect width="718" height="444" fill="white"/>
</clipPath>
</defs>
</svg>
