<svg width="718" height="444" viewBox="0 0 718 444" fill="none" xmlns="http://www.w3.org/2000/svg">
<g clip-path="url(#clip0_7_38388)">
<path d="M0 0H718V444H0V0Z" fill="white"/>
<path d="M181.5 91.5V369.5" stroke="#CCCCCC" stroke-miterlimit="10"/>
<path d="M303.5 91.5V369.5" stroke="#CCCCCC" stroke-miterlimit="10"/>
<path d="M424.5 91.5V369.5" stroke="#CCCCCC" stroke-miterlimit="10"/>
<path d="M545.5 91.5V369.5" stroke="#CCCCCC" stroke-miterlimit="10"/>
<path d="M667.5 91.5V369.5" stroke="#CCCCCC" stroke-miterlimit="10"/>
<path d="M88.5 369.5H695.5" stroke="#333333" stroke-miterlimit="10"/>
<path d="M88.5 277.5H695.5" stroke="#CCCCCC" stroke-miterlimit="10"/>
<path d="M88.5 184.5H695.5" stroke="#CCCCCC" stroke-miterlimit="10"/>
<path d="M88.5 91.5H695.5" stroke="#CCCCCC" stroke-miterlimit="10"/>
<path d="M88.2 369.8H88.807H89.414H90.021H90.628H91.235H91.842H92.449H93.0559H93.6629H94.2699H94.8769H95.4839H96.0909H96.6979H97.3049H97.9119H98.5189H99.1259H99.7329H100.34H100.947H101.554H102.161H102.768H103.375H103.982H104.589H105.196H105.803H106.41H107.017H107.624H108.231H108.838H109.445H110.052H110.659H111.266H111.873H112.48H113.087H113.694H114.301H114.908H115.515H116.122H116.729H117.336H117.943H118.55H119.157H119.764H120.371H120.978H121.585H122.192H122.799H123.406H124.013H124.62H125.227H125.834H126.441H127.048H127.655H128.262H128.869H129.476H130.083H130.69H131.297H131.904H132.51H133.117L133.724 369.614L134.331 369.521H134.938L135.545 369.8L136.152 369.614L136.759 369.8L137.366 369.707H137.973L138.58 369.614L139.187 369.15L139.794 369.614L140.401 369.15L141.008 369.8L141.615 368.037L142.222 369.707L142.829 369.336L143.436 368.872L144.043 368.501L144.65 369.521L145.257 368.872L145.864 369.429L146.471 368.037L147.078 367.759L147.685 368.687L148.292 369.15L148.899 368.594L149.506 369.058L150.113 369.614H150.72L151.327 368.965L151.934 369.15L152.541 369.429H153.148H153.755L154.362 369.521H154.969L155.576 369.707L156.183 369.8L156.79 369.707L157.397 369.429L158.004 369.8H158.611H159.218L159.825 369.707L160.432 369.614L161.039 369.8L161.646 369.707L162.253 369.8L162.86 369.614L163.467 369.8H164.074H164.681H165.288H165.895H166.502H167.109H167.716H168.323H168.93H169.537H170.144H170.751H171.358H171.965H172.572H173.179H173.786H174.393H175H175.607H176.214H176.821H177.428H178.035H178.642H179.249H179.856H180.463H181.07H181.677H182.284H182.891H183.498H184.105H184.712H185.319H185.926H186.533H187.14H187.747H188.354H188.961H189.568L190.175 369.707L190.782 369.8H191.389H191.996H192.603L193.21 369.707L193.817 369.8L194.424 369.707L195.031 369.8H195.638H196.245H196.852H197.459H198.066H198.673H199.28L199.887 369.707L200.494 369.8H201.101L201.708 369.614L202.315 369.707H202.922L203.529 369.8H204.136H204.743L205.35 369.707L205.957 369.8H206.564L207.171 369.614L207.778 369.8L208.385 369.336L208.992 369.707L209.599 369.429L210.206 369.243L210.813 369.15L211.42 369.336H212.027L212.634 368.779L213.241 369.243L213.848 369.707L214.455 369.429L215.062 369.8L215.669 369.336L216.276 369.521L216.883 369.243L217.49 369.8L218.096 369.707L218.703 368.779L219.31 369.058L219.917 369.243L220.524 369.521L221.131 369.614H221.738L222.345 369.707L222.952 369.058H223.559L224.166 368.779L224.773 369.614L225.38 368.965L225.987 369.429H226.594L227.201 369.15L227.808 369.614L228.415 369.429L229.022 369.707H229.629L230.236 369.8H230.843L231.45 369.521L232.057 369.614L232.664 369.8L233.271 369.707L233.878 369.8H234.485H235.092H235.699H236.306H236.913L237.52 369.707H238.127L238.734 369.8H239.341H239.948H240.555H241.162H241.769L242.376 369.614L242.983 369.8H243.59L244.197 369.336L244.804 369.707H245.411L246.018 369.614L246.625 369.707L247.232 369.8H247.839H248.446H249.053H249.66H250.267H250.874H251.481H252.088H252.695H253.302H253.909H254.516H255.123H255.73H256.337H256.944H257.551H258.158H258.765H259.372H259.979H260.586H261.193H261.8H262.407L263.014 369.707L263.621 369.8H264.228H264.835H265.442H266.049H266.656L267.263 369.707L267.87 369.8H268.477H269.084H269.691L270.298 369.707L270.905 369.8H271.512H272.119L272.726 369.521L273.333 369.8L273.94 369.707H274.547L275.154 369.336H275.761L276.368 369.707H276.975L277.582 369.521L278.189 369.707H278.796L279.403 369.521H280.01L280.617 369.429L281.224 369.707H281.831L282.438 369.8L283.045 369.707H283.652L284.259 369.8H284.866L285.473 369.707L286.08 369.8H286.687H287.294L287.901 369.614L288.508 369.243L289.115 369.8L289.722 369.429L290.329 369.707H290.936L291.543 369.614L292.15 369.521L292.757 369.429L293.364 369.521L293.971 369.336L294.578 368.779L295.185 369.8L295.792 369.429L296.399 367.852L297.006 368.872L297.613 369.707L298.22 369.521L298.827 369.243L299.434 369.8L300.041 369.521L300.648 368.965L301.255 369.336L301.862 368.965L302.469 369.521L303.076 368.501L303.683 368.037L304.29 366.275L304.897 368.223L305.504 367.481L306.111 369.15L306.717 367.481L307.324 368.779L307.931 368.408L308.538 368.779L309.145 368.501L309.752 368.594L310.359 368.687L310.966 369.243L311.573 369.058L312.18 369.336L312.787 368.872L313.394 369.058L314.001 369.15L314.608 369.429H315.215L315.822 369.707H316.429L317.036 369.058L317.643 369.243L318.25 369.336L318.857 369.614H319.464L320.071 369.707L320.678 369.521L321.285 369.8L321.892 369.614H322.499L323.106 369.8L323.713 369.707H324.32H324.927H325.534L326.141 369.614L326.748 369.707L327.355 369.8L327.962 369.707L328.569 369.429L329.176 369.521L329.783 369.8L330.39 369.614L330.997 369.707L331.604 369.429L332.211 369.8L332.818 369.707L333.425 369.614L334.032 369.8H334.639H335.246H335.853H336.46H337.067H337.674H338.281L338.888 369.614L339.495 369.8L340.102 369.707H340.709L341.316 369.8H341.923H342.53H343.137H343.744L344.351 369.521L344.958 369.8H345.565L346.172 369.707L346.779 369.614L347.386 369.8H347.993L348.6 369.336L349.207 369.707L349.814 369.8L350.421 369.614L351.028 369.429L351.635 369.521L352.242 369.8L352.849 369.521L353.456 369.707H354.063L354.67 369.521L355.277 369.614L355.884 369.707L356.491 369.521L357.098 369.243L357.705 369.521L358.312 368.872L358.919 369.429L359.526 367.109L360.133 369.15L360.74 368.315L361.347 368.13L361.954 369.15L362.561 369.058L363.168 369.336L363.775 368.779L364.382 368.501L364.989 367.944H365.596L366.203 367.573L366.81 368.872L367.417 368.779L368.024 367.852L368.631 368.315L369.238 367.295L369.845 368.408L370.452 368.872L371.059 368.965L371.666 368.315L372.273 368.687L372.88 368.594L373.487 368.408L374.094 368.501L374.701 368.223L375.308 368.779L375.915 368.965L376.522 369.243L377.129 369.429L377.736 369.058L378.343 368.872H378.95L379.557 368.687L380.164 369.058L380.771 368.223L381.378 369.243L381.985 368.501L382.592 367.481L383.199 367.944L383.806 368.13L384.413 367.852L385.02 366.646L385.627 366.924L386.234 367.017L386.841 366.831L387.448 363.863L388.055 368.037L388.662 368.408L389.269 367.388L389.876 367.944L390.483 367.852L391.09 368.037L391.697 369.243H392.304L392.911 368.501L393.518 368.872L394.124 369.15H394.731L395.338 368.965L395.945 369.243L396.552 369.429L397.159 368.872L397.766 369.15L398.373 369.336L398.98 369.707L399.587 369.336H400.194H400.801H401.408H402.015L402.622 368.779L403.229 368.408L403.836 369.243L404.443 369.521L405.05 369.058L405.657 369.707L406.264 369.058L406.871 369.521L407.478 369.336L408.085 369.614L408.692 369.707L409.299 369.8L409.906 369.521L410.513 369.707H411.12L411.727 369.8H412.334H412.941L413.548 369.521L414.155 369.429L414.762 369.614L415.369 369.336L415.976 369.707H416.583L417.19 369.8L417.797 369.707L418.404 369.15L419.011 369.614L419.618 369.429L420.225 369.521L420.832 369.429L421.439 369.243L422.046 369.614L422.653 368.408L423.26 368.965L423.867 368.687L424.474 368.408L425.081 369.521L425.688 368.408H426.295L426.902 369.15L427.509 367.852L428.116 367.573L428.723 366.367L429.33 367.295L429.937 367.852L430.544 368.501L431.151 368.037L431.758 366.924L432.365 364.883L432.972 363.863L433.579 365.532L434.186 365.44L434.793 366.738L435.4 366.553L436.007 365.532L436.614 363.213L437.221 363.955L437.828 364.234L438.435 363.306L439.042 362.657L439.649 362.564L440.256 358.575L440.863 356.163L441.47 358.946L442.077 357.555L442.684 360.059L443.291 363.306L443.898 363.492L444.505 358.668L445.112 361.358L445.719 361.822L446.326 362.749L446.933 365.532L447.54 365.904L448.147 366.46L448.754 365.532L449.361 366.367L449.968 366.275L450.575 365.44L451.182 367.573H451.789L452.396 367.852L453.003 367.759L453.61 368.501L454.217 369.058L454.824 367.759L455.431 369.243L456.038 369.336L456.645 368.872L457.252 368.13L457.859 369.243L458.466 369.058L459.073 369.243L459.68 369.058L460.287 369.429L460.894 369.336L461.501 369.15L462.108 368.872L462.715 369.614L463.322 368.965L463.929 369.429H464.536L465.143 368.965L465.75 369.336L466.357 369.429L466.964 369.707L467.571 369.614L468.178 369.707L468.785 369.243L469.392 369.15L469.999 369.336L470.606 369.429H471.213L471.82 369.058L472.427 369.8L473.034 369.614L473.641 369.058L474.248 369.429L474.855 367.573L475.462 369.058L476.069 369.521H476.676L477.283 369.707L477.89 369.8L478.497 369.707L479.104 369.8H479.71L480.317 369.521L480.924 369.8L481.531 369.707L482.138 369.614L482.745 369.521L483.352 368.687L483.959 369.429L484.566 369.243L485.173 369.707L485.78 369.8L486.387 369.707L486.994 369.8H487.601L488.208 368.408L488.815 369.8H489.422H490.029H490.636H491.243H491.85H492.457H493.064H493.671H494.278H494.885H495.492H496.099H496.706H497.313H497.92H498.527H499.134H499.741H500.348H500.955L501.562 369.707L502.169 369.8H502.776H503.383L503.99 369.521L504.597 369.8H505.204H505.811H506.418H507.025H507.632H508.239H508.846H509.453H510.06H510.667H511.274H511.881H512.488H513.095H513.702H514.309H514.916H515.523H516.13H516.737L517.344 369.707L517.951 369.8H518.558H519.165H519.772H520.379H520.986H521.593H522.2H522.807H523.414H524.021L524.628 369.707L525.235 369.8L525.842 369.521L526.449 368.687L527.056 368.872L527.663 368.223L528.27 367.759L528.877 367.944L529.484 367.295L530.091 367.202L530.698 367.295L531.305 366.46L531.912 367.944L532.519 368.594L533.126 366.182L533.733 364.512L534.34 364.048L534.947 360.801L535.554 359.317L536.161 364.326L536.768 362.749L537.375 354.122L537.982 356.905L538.589 349.577L539.196 348.185L539.803 349.484L540.41 351.154L541.017 361.358L541.624 348.649L542.231 344.753L542.838 341.691L543.445 345.495L544.052 343.176L544.659 348.834L545.266 352.36L545.873 337.888L546.48 329.075L547.087 331.394L547.694 331.58L548.301 346.979L548.908 346.886L549.515 348.927L550.122 319.242L550.729 322.581L551.336 321.468L551.943 331.951L552.55 326.849L553.157 347.165L553.764 353.751L554.371 322.21L554.978 321.19L555.585 350.133L556.192 324.901L556.799 316.181L557.406 346.144L558.013 347.35L558.62 317.108L559.227 314.325L559.834 323.416L560.441 332.508L561.048 332.044L561.655 342.619L562.262 352.081L562.869 323.324L563.476 330.374L564.083 335.569L564.689 335.105L565.296 331.302L565.903 350.504L566.51 350.783L567.117 332.6L567.724 336.96L568.331 342.99L568.938 345.309L569.545 334.177L570.152 354.029L570.759 359.874L571.366 360.894L571.973 336.404L572.58 350.968L573.187 348.185L573.794 345.588L574.401 356.627L575.008 361.915L575.615 347.165L576.222 347.814L576.829 346.237L577.436 352.081L578.043 348.649L578.65 359.317L579.257 361.822L579.864 353.751L580.471 350.875L581.078 353.102L581.685 355.143L582.292 353.009L582.899 362.007L583.506 365.718L584.113 355.699L584.72 354.308L585.327 354.586L585.934 360.338L586.541 358.111L587.148 361.451L587.755 366.831L588.362 354.029L588.969 355.235L589.576 358.946L590.183 358.668L590.79 358.018L591.397 360.894L592.004 365.996L592.611 358.575L593.218 356.07L593.825 359.039L594.432 358.297L595.039 364.976L595.646 361.265L596.253 365.069L596.86 355.792L597.467 362.842L598.074 365.069L598.681 363.677L599.288 348.834L599.895 356.256L600.502 360.523L601.109 346.051H601.716L602.323 349.206L602.93 347.443L603.537 346.701L604.144 352.174L604.751 359.874L605.358 345.959L605.965 346.144L606.572 348.278L607.179 346.608L607.786 348.371L608.393 356.627L609 362.935L609.607 349.298L610.214 350.968L610.821 354.957L611.428 357.091L612.035 357.833L612.642 362.657L613.249 365.996L613.856 359.595L614.463 357.555L615.07 361.729L615.677 360.801L616.284 358.111L616.891 362.193L617.498 364.79L618.105 355.977L618.712 357.276L619.319 358.482L619.926 361.543L620.533 358.111L621.14 363.306L621.747 366.553L622.354 354.493L622.961 358.482L623.568 359.503L624.175 357.276L624.782 359.41L625.389 362.378L625.996 363.955L626.603 358.018L627.21 359.874L627.817 360.894L628.424 363.213L629.031 358.204L629.638 365.069L630.245 367.481L630.852 357.555L631.459 360.43L632.066 362.564L632.673 363.584L633.28 359.317L633.887 360.152L634.494 363.399L635.101 352.731L635.708 346.423L636.315 350.226L636.922 347.257L637.529 345.773L638.136 348.371L638.743 357.183L639.35 340.022L639.957 330.281L640.564 330.559L641.171 326.014L641.778 327.127L642.385 331.487L642.992 342.526L643.599 348.278L644.206 294.009L644.813 236.03L645.42 267.942L646.027 277.404L646.634 267.849L647.241 304.956L647.848 282.135L648.455 191.317L649.062 229.629L649.669 246.42L650.275 256.532L650.882 273.601L651.489 319.52L652.096 268.777L652.703 213.395L653.31 239.555L653.917 243.544L654.524 253.749L655.131 271.931L655.738 301.152L656.345 250.502L656.952 194.007L657.559 218.59L658.166 276.94L658.773 254.676L659.38 222.115L659.987 291.597L660.594 250.78L661.201 222.115L661.808 137.141L662.415 101.24L663.022 121.278L663.629 159.405L664.236 281.671L664.843 189.74L665.45 117.938L666.057 152.262L666.664 203.098L667.271 208.664L667.878 236.958L668.485 310.893L669.092 233.247L669.699 189.276L670.306 237.886L670.913 258.572L671.52 272.487L672.127 276.755L672.734 341.691L673.341 262.098L673.948 237.236L674.555 264.695L675.162 271.374L675.769 286.402L676.376 293.546L676.983 339.187L677.59 287.33L678.197 272.116L678.804 302.173L679.411 314.789L680.018 316.552L680.625 324.437L681.232 348.463L681.839 348L682.446 309.965L683.053 315.16L683.66 323.231L684.267 347.721L684.874 333.621L685.481 343.64L686.088 323.88L686.695 322.581L687.302 327.776L687.909 333.435H688.516L689.123 341.599L689.73 361.08L690.337 319.335L690.944 324.53L691.551 339.558L692.158 341.691L692.765 343.083L693.372 348L693.979 364.326L694.586 352.267L695.193 316.552L695.8 319.149" stroke="#4285F4" stroke-width="2" stroke-miterlimit="10"/>
<path d="M379.922 418.8V410.206H382.891C383.557 410.206 384.068 410.248 384.422 410.331C384.911 410.446 385.328 410.649 385.672 410.94C386.13 411.326 386.469 411.821 386.688 412.425C386.917 413.019 387.031 413.696 387.031 414.456C387.031 415.112 386.953 415.69 386.797 416.19C386.651 416.69 386.458 417.107 386.219 417.44C385.979 417.774 385.714 418.034 385.422 418.222C385.141 418.409 384.802 418.555 384.406 418.659C384.01 418.753 383.552 418.8 383.031 418.8H379.922ZM381.062 417.784H382.891C383.464 417.784 383.911 417.732 384.234 417.628C384.557 417.524 384.812 417.373 385 417.175C385.271 416.914 385.479 416.555 385.625 416.097C385.781 415.638 385.859 415.086 385.859 414.44C385.859 413.545 385.708 412.857 385.406 412.378C385.115 411.888 384.76 411.56 384.344 411.394C384.031 411.279 383.542 411.222 382.875 411.222H381.062V417.784ZM392.859 418.034C392.464 418.368 392.083 418.602 391.719 418.737C391.365 418.873 390.979 418.94 390.562 418.94C389.875 418.94 389.349 418.774 388.984 418.44C388.62 418.107 388.438 417.68 388.438 417.159C388.438 416.857 388.505 416.581 388.641 416.331C388.776 416.071 388.958 415.868 389.188 415.722C389.417 415.565 389.672 415.451 389.953 415.378C390.151 415.315 390.464 415.258 390.891 415.206C391.734 415.112 392.359 414.993 392.766 414.847C392.766 414.701 392.766 414.612 392.766 414.581C392.766 414.144 392.667 413.836 392.469 413.659C392.198 413.43 391.797 413.315 391.266 413.315C390.776 413.315 390.411 413.404 390.172 413.581C389.932 413.748 389.755 414.05 389.641 414.487L388.609 414.347C388.703 413.909 388.859 413.555 389.078 413.284C389.297 413.013 389.609 412.805 390.016 412.659C390.422 412.513 390.891 412.44 391.422 412.44C391.953 412.44 392.385 412.503 392.719 412.628C393.052 412.753 393.297 412.909 393.453 413.097C393.609 413.284 393.719 413.524 393.781 413.815C393.812 413.993 393.828 414.315 393.828 414.784V416.19C393.828 417.17 393.849 417.789 393.891 418.05C393.943 418.31 394.036 418.56 394.172 418.8H393.062C392.958 418.581 392.891 418.326 392.859 418.034ZM392.766 415.675C392.38 415.831 391.807 415.966 391.047 416.081C390.609 416.144 390.302 416.216 390.125 416.3C389.948 416.373 389.807 416.482 389.703 416.628C389.609 416.774 389.562 416.94 389.562 417.128C389.562 417.409 389.667 417.644 389.875 417.831C390.094 418.019 390.406 418.112 390.812 418.112C391.219 418.112 391.578 418.024 391.891 417.847C392.214 417.67 392.448 417.425 392.594 417.112C392.708 416.873 392.766 416.524 392.766 416.065V415.675ZM398.094 417.862L398.25 418.784C397.948 418.847 397.682 418.878 397.453 418.878C397.068 418.878 396.771 418.821 396.562 418.706C396.354 418.581 396.203 418.42 396.109 418.222C396.026 418.024 395.984 417.607 395.984 416.972V413.394H395.219V412.581H395.984V411.034L397.031 410.409V412.581H398.094V413.394H397.031V417.034C397.031 417.336 397.047 417.529 397.078 417.612C397.12 417.696 397.182 417.763 397.266 417.815C397.349 417.868 397.469 417.894 397.625 417.894C397.75 417.894 397.906 417.883 398.094 417.862ZM403.047 416.8L404.141 416.925C403.974 417.56 403.656 418.055 403.188 418.409C402.719 418.763 402.125 418.94 401.406 418.94C400.5 418.94 399.776 418.659 399.234 418.097C398.703 417.534 398.438 416.748 398.438 415.737C398.438 414.696 398.708 413.888 399.25 413.315C399.792 412.732 400.49 412.44 401.344 412.44C402.177 412.44 402.854 412.722 403.375 413.284C403.906 413.847 404.172 414.644 404.172 415.675C404.172 415.737 404.172 415.831 404.172 415.956H399.531C399.573 416.644 399.766 417.17 400.109 417.534C400.453 417.888 400.885 418.065 401.406 418.065C401.792 418.065 402.12 417.966 402.391 417.769C402.672 417.56 402.891 417.237 403.047 416.8ZM399.594 415.097H403.062C403.021 414.565 402.891 414.17 402.672 413.909C402.328 413.503 401.891 413.3 401.359 413.3C400.87 413.3 400.458 413.461 400.125 413.784C399.802 414.107 399.625 414.545 399.594 415.097Z" fill="black"/>
<path d="M33.2 256.041H25.6219V258.869H24.6062V252.057H25.6219V254.9H33.2V256.041ZM30.0906 251.744C28.9344 251.744 28.0802 251.426 27.5281 250.791C27.0698 250.26 26.8406 249.609 26.8406 248.838C26.8406 247.984 27.1219 247.286 27.6844 246.744C28.2364 246.192 29.0073 245.916 29.9969 245.916C30.7989 245.916 31.4291 246.036 31.8875 246.275C32.3458 246.515 32.7052 246.869 32.9656 247.338C33.2156 247.796 33.3406 248.296 33.3406 248.838C33.3406 249.702 33.0646 250.406 32.5125 250.947C31.95 251.479 31.1427 251.744 30.0906 251.744ZM30.0906 250.666C30.8823 250.666 31.476 250.494 31.8719 250.15C32.2677 249.796 32.4656 249.359 32.4656 248.838C32.4656 248.307 32.2677 247.869 31.8719 247.525C31.476 247.182 30.8719 247.01 30.0594 247.01C29.2885 247.01 28.7052 247.187 28.3094 247.541C27.9135 247.885 27.7156 248.317 27.7156 248.838C27.7156 249.359 27.9135 249.796 28.3094 250.15C28.6948 250.494 29.2885 250.666 30.0906 250.666ZM35.5906 244.4L34.6062 244.525C34.6687 244.296 34.7 244.093 34.7 243.916C34.7 243.687 34.6583 243.505 34.575 243.369C34.5021 243.223 34.3979 243.104 34.2625 243.01C34.1479 242.947 33.8823 242.838 33.4656 242.682C33.4135 242.671 33.3302 242.64 33.2156 242.588L26.9812 244.963V243.822L30.575 242.525C31.0333 242.359 31.5177 242.208 32.0281 242.072C31.5385 241.947 31.0646 241.801 30.6062 241.635L26.9812 240.307V239.26L33.3094 241.619C33.9864 241.88 34.4552 242.077 34.7156 242.213C35.0698 242.4 35.325 242.619 35.4812 242.869C35.6479 243.109 35.7312 243.395 35.7312 243.729C35.7312 243.926 35.6844 244.15 35.5906 244.4ZM32.4344 235.291C32.7677 235.687 33.0021 236.067 33.1375 236.432C33.2729 236.786 33.3406 237.171 33.3406 237.588C33.3406 238.275 33.1739 238.801 32.8406 239.166C32.5073 239.531 32.0802 239.713 31.5594 239.713C31.2573 239.713 30.9812 239.645 30.7312 239.51C30.4708 239.374 30.2677 239.192 30.1219 238.963C29.9656 238.734 29.851 238.479 29.7781 238.197C29.7156 237.999 29.6583 237.687 29.6062 237.26C29.5125 236.416 29.3927 235.791 29.2469 235.385C29.101 235.385 29.0125 235.385 28.9812 235.385C28.5437 235.385 28.2364 235.484 28.0594 235.682C27.8302 235.952 27.7156 236.354 27.7156 236.885C27.7156 237.374 27.8041 237.739 27.9812 237.979C28.1479 238.218 28.45 238.395 28.8875 238.51L28.7469 239.541C28.3094 239.447 27.9552 239.291 27.6844 239.072C27.4135 238.854 27.2052 238.541 27.0594 238.135C26.9135 237.729 26.8406 237.26 26.8406 236.729C26.8406 236.197 26.9031 235.765 27.0281 235.432C27.1531 235.098 27.3094 234.854 27.4969 234.697C27.6844 234.541 27.9239 234.432 28.2156 234.369C28.3927 234.338 28.7156 234.322 29.1844 234.322H30.5906C31.5698 234.322 32.1896 234.301 32.45 234.26C32.7104 234.208 32.9604 234.114 33.2 233.979V235.088C32.9812 235.192 32.726 235.26 32.4344 235.291ZM30.075 235.385C30.2312 235.77 30.3666 236.343 30.4812 237.104C30.5437 237.541 30.6166 237.848 30.7 238.025C30.7729 238.202 30.8823 238.343 31.0281 238.447C31.1739 238.541 31.3406 238.588 31.5281 238.588C31.8094 238.588 32.0437 238.484 32.2312 238.275C32.4187 238.057 32.5125 237.744 32.5125 237.338C32.5125 236.932 32.4239 236.572 32.2469 236.26C32.0698 235.937 31.825 235.702 31.5125 235.557C31.2729 235.442 30.9239 235.385 30.4656 235.385H30.075ZM33.2 232.354H26.9812V231.416H27.8562C27.5437 231.218 27.2989 230.958 27.1219 230.635C26.9344 230.312 26.8406 229.942 26.8406 229.525C26.8406 229.067 26.9344 228.692 27.1219 228.4C27.3094 228.098 27.575 227.89 27.9187 227.775C27.2 227.275 26.8406 226.635 26.8406 225.854C26.8406 225.229 27.0125 224.755 27.3562 224.432C27.6896 224.098 28.2156 223.932 28.9344 223.932H33.2V224.979H29.2781C28.8614 224.979 28.5594 225.015 28.3719 225.088C28.1844 225.15 28.0333 225.27 27.9187 225.447C27.8041 225.624 27.7469 225.838 27.7469 226.088C27.7469 226.525 27.8927 226.89 28.1844 227.182C28.476 227.463 28.9448 227.604 29.5906 227.604H33.2V228.666H29.1531C28.6844 228.666 28.3354 228.755 28.1062 228.932C27.8666 229.098 27.7469 229.374 27.7469 229.76C27.7469 230.062 27.825 230.338 27.9812 230.588C28.1375 230.838 28.3666 231.02 28.6687 231.135C28.9708 231.249 29.4031 231.307 29.9656 231.307H33.2V232.354ZM32.4344 217.291C32.7677 217.687 33.0021 218.067 33.1375 218.432C33.2729 218.786 33.3406 219.171 33.3406 219.588C33.3406 220.275 33.1739 220.801 32.8406 221.166C32.5073 221.531 32.0802 221.713 31.5594 221.713C31.2573 221.713 30.9812 221.645 30.7312 221.51C30.4708 221.374 30.2677 221.192 30.1219 220.963C29.9656 220.734 29.851 220.479 29.7781 220.197C29.7156 219.999 29.6583 219.687 29.6062 219.26C29.5125 218.416 29.3927 217.791 29.2469 217.385C29.101 217.385 29.0125 217.385 28.9812 217.385C28.5437 217.385 28.2364 217.484 28.0594 217.682C27.8302 217.952 27.7156 218.354 27.7156 218.885C27.7156 219.374 27.8041 219.739 27.9812 219.979C28.1479 220.218 28.45 220.395 28.8875 220.51L28.7469 221.541C28.3094 221.447 27.9552 221.291 27.6844 221.072C27.4135 220.854 27.2052 220.541 27.0594 220.135C26.9135 219.729 26.8406 219.26 26.8406 218.729C26.8406 218.197 26.9031 217.765 27.0281 217.432C27.1531 217.098 27.3094 216.854 27.4969 216.697C27.6844 216.541 27.9239 216.432 28.2156 216.369C28.3927 216.338 28.7156 216.322 29.1844 216.322H30.5906C31.5698 216.322 32.1896 216.301 32.45 216.26C32.7104 216.208 32.9604 216.114 33.2 215.979V217.088C32.9812 217.192 32.726 217.26 32.4344 217.291ZM30.075 217.385C30.2312 217.77 30.3666 218.343 30.4812 219.104C30.5437 219.541 30.6166 219.848 30.7 220.025C30.7729 220.202 30.8823 220.343 31.0281 220.447C31.1739 220.541 31.3406 220.588 31.5281 220.588C31.8094 220.588 32.0437 220.484 32.2312 220.275C32.4187 220.057 32.5125 219.744 32.5125 219.338C32.5125 218.932 32.4239 218.572 32.2469 218.26C32.0698 217.937 31.825 217.702 31.5125 217.557C31.2729 217.442 30.9239 217.385 30.4656 217.385H30.075Z" fill="black"/>
<path d="M75.7 369.565C75.7 368.545 75.8042 367.727 76.0125 367.112C76.2208 366.487 76.5281 366.008 76.9344 365.675C77.351 365.341 77.8719 365.175 78.4969 365.175C78.9552 365.175 79.3562 365.269 79.7 365.456C80.0542 365.644 80.3458 365.914 80.575 366.269C80.8042 366.612 80.9812 367.034 81.1062 367.534C81.2312 368.034 81.2937 368.711 81.2937 369.565C81.2937 370.576 81.1896 371.388 80.9812 372.003C80.7833 372.618 80.476 373.097 80.0594 373.44C79.6531 373.774 79.1323 373.94 78.4969 373.94C77.674 373.94 77.0229 373.644 76.5437 373.05C75.9812 372.341 75.7 371.18 75.7 369.565ZM76.7781 369.565C76.7781 370.972 76.9448 371.909 77.2781 372.378C77.6115 372.847 78.0177 373.081 78.4969 373.081C78.9865 373.081 79.3927 372.847 79.7156 372.378C80.049 371.909 80.2156 370.972 80.2156 369.565C80.2156 368.149 80.049 367.211 79.7156 366.753C79.3927 366.284 78.9812 366.05 78.4812 366.05C78.0021 366.05 77.6167 366.253 77.325 366.659C76.9604 367.18 76.7781 368.149 76.7781 369.565Z" fill="black"/>
<path d="M58.6687 281.033H57.6219V274.314C57.3615 274.554 57.0229 274.799 56.6062 275.049C56.2 275.288 55.8354 275.465 55.5125 275.58V274.564C56.0958 274.283 56.6062 273.95 57.0437 273.564C57.4917 273.169 57.8094 272.783 57.9969 272.408H58.6687V281.033ZM61.7 276.799C61.7 275.778 61.8042 274.96 62.0125 274.346C62.2208 273.721 62.5281 273.242 62.9344 272.908C63.351 272.575 63.8719 272.408 64.4969 272.408C64.9552 272.408 65.3562 272.502 65.7 272.689C66.0542 272.877 66.3458 273.148 66.575 273.502C66.8042 273.846 66.9812 274.268 67.1062 274.768C67.2312 275.268 67.2937 275.945 67.2937 276.799C67.2937 277.809 67.1896 278.622 66.9812 279.236C66.7833 279.851 66.476 280.33 66.0594 280.674C65.6531 281.007 65.1323 281.174 64.4969 281.174C63.674 281.174 63.0229 280.877 62.5437 280.283C61.9812 279.575 61.7 278.413 61.7 276.799ZM62.7781 276.799C62.7781 278.205 62.9448 279.143 63.2781 279.611C63.6115 280.08 64.0177 280.314 64.4969 280.314C64.9865 280.314 65.3927 280.08 65.7156 279.611C66.049 279.143 66.2156 278.205 66.2156 276.799C66.2156 275.382 66.049 274.445 65.7156 273.986C65.3927 273.518 64.9812 273.283 64.4812 273.283C64.0021 273.283 63.6167 273.486 63.325 273.893C62.9604 274.413 62.7781 275.382 62.7781 276.799ZM68.7 276.799C68.7 275.778 68.8042 274.96 69.0125 274.346C69.2208 273.721 69.5281 273.242 69.9344 272.908C70.351 272.575 70.8719 272.408 71.4969 272.408C71.9552 272.408 72.3562 272.502 72.7 272.689C73.0542 272.877 73.3458 273.148 73.575 273.502C73.8042 273.846 73.9812 274.268 74.1062 274.768C74.2312 275.268 74.2937 275.945 74.2937 276.799C74.2937 277.809 74.1896 278.622 73.9812 279.236C73.7833 279.851 73.476 280.33 73.0594 280.674C72.6531 281.007 72.1323 281.174 71.4969 281.174C70.674 281.174 70.0229 280.877 69.5437 280.283C68.9812 279.575 68.7 278.413 68.7 276.799ZM69.7781 276.799C69.7781 278.205 69.9448 279.143 70.2781 279.611C70.6115 280.08 71.0177 280.314 71.4969 280.314C71.9865 280.314 72.3927 280.08 72.7156 279.611C73.049 279.143 73.2156 278.205 73.2156 276.799C73.2156 275.382 73.049 274.445 72.7156 273.986C72.3927 273.518 71.9812 273.283 71.4812 273.283C71.0021 273.283 70.6167 273.486 70.325 273.893C69.9604 274.413 69.7781 275.382 69.7781 276.799ZM75.7 276.799C75.7 275.778 75.8042 274.96 76.0125 274.346C76.2208 273.721 76.5281 273.242 76.9344 272.908C77.351 272.575 77.8719 272.408 78.4969 272.408C78.9552 272.408 79.3562 272.502 79.7 272.689C80.0542 272.877 80.3458 273.148 80.575 273.502C80.8042 273.846 80.9812 274.268 81.1062 274.768C81.2312 275.268 81.2937 275.945 81.2937 276.799C81.2937 277.809 81.1896 278.622 80.9812 279.236C80.7833 279.851 80.476 280.33 80.0594 280.674C79.6531 281.007 79.1323 281.174 78.4969 281.174C77.674 281.174 77.0229 280.877 76.5437 280.283C75.9812 279.575 75.7 278.413 75.7 276.799ZM76.7781 276.799C76.7781 278.205 76.9448 279.143 77.2781 279.611C77.6115 280.08 78.0177 280.314 78.4969 280.314C78.9865 280.314 79.3927 280.08 79.7156 279.611C80.049 279.143 80.2156 278.205 80.2156 276.799C80.2156 275.382 80.049 274.445 79.7156 273.986C79.3927 273.518 78.9812 273.283 78.4812 273.283C78.0021 273.283 77.6167 273.486 77.325 273.893C76.9604 274.413 76.7781 275.382 76.7781 276.799Z" fill="black"/>
<path d="M60.2469 187.251V188.267H54.5594C54.5594 188.017 54.601 187.772 54.6844 187.532C54.8302 187.147 55.0594 186.767 55.3719 186.392C55.6948 186.017 56.1583 185.584 56.7625 185.095C57.7 184.324 58.3302 183.715 58.6531 183.267C58.9865 182.819 59.1531 182.397 59.1531 182.001C59.1531 181.584 59.0021 181.235 58.7 180.954C58.3979 180.662 58.0073 180.517 57.5281 180.517C57.0177 180.517 56.6115 180.668 56.3094 180.97C56.0073 181.272 55.851 181.694 55.8406 182.235L54.7625 182.126C54.8354 181.313 55.1115 180.699 55.5906 180.282C56.0802 179.855 56.7365 179.642 57.5594 179.642C58.3823 179.642 59.0333 179.871 59.5125 180.329C59.9917 180.787 60.2312 181.355 60.2312 182.032C60.2312 182.376 60.1583 182.715 60.0125 183.048C59.8771 183.371 59.6427 183.72 59.3094 184.095C58.9865 184.459 58.45 184.959 57.7 185.595C57.0646 186.126 56.6531 186.491 56.4656 186.688C56.2885 186.876 56.1427 187.063 56.0281 187.251H60.2469ZM61.7 184.032C61.7 183.011 61.8042 182.194 62.0125 181.579C62.2208 180.954 62.5281 180.475 62.9344 180.142C63.351 179.808 63.8719 179.642 64.4969 179.642C64.9552 179.642 65.3562 179.735 65.7 179.923C66.0542 180.11 66.3458 180.381 66.575 180.735C66.8042 181.079 66.9812 181.501 67.1062 182.001C67.2312 182.501 67.2937 183.178 67.2937 184.032C67.2937 185.043 67.1896 185.855 66.9812 186.47C66.7833 187.084 66.476 187.563 66.0594 187.907C65.6531 188.241 65.1323 188.407 64.4969 188.407C63.674 188.407 63.0229 188.11 62.5437 187.517C61.9812 186.808 61.7 185.647 61.7 184.032ZM62.7781 184.032C62.7781 185.438 62.9448 186.376 63.2781 186.845C63.6115 187.313 64.0177 187.548 64.4969 187.548C64.9865 187.548 65.3927 187.313 65.7156 186.845C66.049 186.376 66.2156 185.438 66.2156 184.032C66.2156 182.616 66.049 181.678 65.7156 181.22C65.3927 180.751 64.9812 180.517 64.4812 180.517C64.0021 180.517 63.6167 180.72 63.325 181.126C62.9604 181.647 62.7781 182.616 62.7781 184.032ZM68.7 184.032C68.7 183.011 68.8042 182.194 69.0125 181.579C69.2208 180.954 69.5281 180.475 69.9344 180.142C70.351 179.808 70.8719 179.642 71.4969 179.642C71.9552 179.642 72.3562 179.735 72.7 179.923C73.0542 180.11 73.3458 180.381 73.575 180.735C73.8042 181.079 73.9812 181.501 74.1062 182.001C74.2312 182.501 74.2937 183.178 74.2937 184.032C74.2937 185.043 74.1896 185.855 73.9812 186.47C73.7833 187.084 73.476 187.563 73.0594 187.907C72.6531 188.241 72.1323 188.407 71.4969 188.407C70.674 188.407 70.0229 188.11 69.5437 187.517C68.9812 186.808 68.7 185.647 68.7 184.032ZM69.7781 184.032C69.7781 185.438 69.9448 186.376 70.2781 186.845C70.6115 187.313 71.0177 187.548 71.4969 187.548C71.9865 187.548 72.3927 187.313 72.7156 186.845C73.049 186.376 73.2156 185.438 73.2156 184.032C73.2156 182.616 73.049 181.678 72.7156 181.22C72.3927 180.751 71.9812 180.517 71.4812 180.517C71.0021 180.517 70.6167 180.72 70.325 181.126C69.9604 181.647 69.7781 182.616 69.7781 184.032ZM75.7 184.032C75.7 183.011 75.8042 182.194 76.0125 181.579C76.2208 180.954 76.5281 180.475 76.9344 180.142C77.351 179.808 77.8719 179.642 78.4969 179.642C78.9552 179.642 79.3562 179.735 79.7 179.923C80.0542 180.11 80.3458 180.381 80.575 180.735C80.8042 181.079 80.9812 181.501 81.1062 182.001C81.2312 182.501 81.2937 183.178 81.2937 184.032C81.2937 185.043 81.1896 185.855 80.9812 186.47C80.7833 187.084 80.476 187.563 80.0594 187.907C79.6531 188.241 79.1323 188.407 78.4969 188.407C77.674 188.407 77.0229 188.11 76.5437 187.517C75.9812 186.808 75.7 185.647 75.7 184.032ZM76.7781 184.032C76.7781 185.438 76.9448 186.376 77.2781 186.845C77.6115 187.313 78.0177 187.548 78.4969 187.548C78.9865 187.548 79.3927 187.313 79.7156 186.845C80.049 186.376 80.2156 185.438 80.2156 184.032C80.2156 182.616 80.049 181.678 79.7156 181.22C79.3927 180.751 78.9812 180.517 78.4812 180.517C78.0021 180.517 77.6167 180.72 77.325 181.126C76.9604 181.647 76.7781 182.616 76.7781 184.032Z" fill="black"/>
<path d="M54.7 93.2344L55.7625 93.0938C55.8771 93.6875 56.0802 94.1198 56.3719 94.3906C56.6635 94.651 57.0177 94.7812 57.4344 94.7812C57.9344 94.7812 58.3562 94.6094 58.7 94.2656C59.0437 93.9219 59.2156 93.4948 59.2156 92.9844C59.2156 92.5052 59.0542 92.1094 58.7312 91.7969C58.4187 91.474 58.0177 91.3125 57.5281 91.3125C57.3302 91.3125 57.0802 91.3542 56.7781 91.4375L56.9031 90.5C56.976 90.5104 57.0333 90.5156 57.075 90.5156C57.5229 90.5156 57.924 90.401 58.2781 90.1719C58.6427 89.9323 58.825 89.5677 58.825 89.0781C58.825 88.6927 58.6948 88.375 58.4344 88.125C58.174 87.8646 57.8354 87.7344 57.4187 87.7344C57.0125 87.7344 56.6687 87.8646 56.3875 88.125C56.1167 88.3854 55.9448 88.7708 55.8719 89.2812L54.8094 89.0938C54.9344 88.3958 55.226 87.8542 55.6844 87.4688C56.1427 87.0729 56.7104 86.875 57.3875 86.875C57.8562 86.875 58.2885 86.9792 58.6844 87.1875C59.0802 87.3854 59.3823 87.6562 59.5906 88C59.799 88.3438 59.9031 88.7135 59.9031 89.1094C59.9031 89.474 59.8042 89.8125 59.6062 90.125C59.4083 90.4271 59.1167 90.6667 58.7312 90.8438C59.2312 90.9583 59.6219 91.2031 59.9031 91.5781C60.1844 91.9427 60.325 92.4062 60.325 92.9688C60.325 93.7188 60.049 94.3542 59.4969 94.875C58.9552 95.3958 58.2677 95.6562 57.4344 95.6562C56.6844 95.6562 56.0594 95.4323 55.5594 94.9844C55.0594 94.526 54.7729 93.9427 54.7 93.2344ZM61.7 91.2656C61.7 90.2448 61.8042 89.4271 62.0125 88.8125C62.2208 88.1875 62.5281 87.7083 62.9344 87.375C63.351 87.0417 63.8719 86.875 64.4969 86.875C64.9552 86.875 65.3562 86.9688 65.7 87.1562C66.0542 87.3438 66.3458 87.6146 66.575 87.9688C66.8042 88.3125 66.9812 88.7344 67.1062 89.2344C67.2312 89.7344 67.2937 90.4115 67.2937 91.2656C67.2937 92.276 67.1896 93.0885 66.9812 93.7031C66.7833 94.3177 66.476 94.7969 66.0594 95.1406C65.6531 95.474 65.1323 95.6406 64.4969 95.6406C63.674 95.6406 63.0229 95.3438 62.5437 94.75C61.9812 94.0417 61.7 92.8802 61.7 91.2656ZM62.7781 91.2656C62.7781 92.6719 62.9448 93.6094 63.2781 94.0781C63.6115 94.5469 64.0177 94.7812 64.4969 94.7812C64.9865 94.7812 65.3927 94.5469 65.7156 94.0781C66.049 93.6094 66.2156 92.6719 66.2156 91.2656C66.2156 89.849 66.049 88.9115 65.7156 88.4531C65.3927 87.9844 64.9812 87.75 64.4812 87.75C64.0021 87.75 63.6167 87.9531 63.325 88.3594C62.9604 88.8802 62.7781 89.849 62.7781 91.2656ZM68.7 91.2656C68.7 90.2448 68.8042 89.4271 69.0125 88.8125C69.2208 88.1875 69.5281 87.7083 69.9344 87.375C70.351 87.0417 70.8719 86.875 71.4969 86.875C71.9552 86.875 72.3562 86.9688 72.7 87.1562C73.0542 87.3438 73.3458 87.6146 73.575 87.9688C73.8042 88.3125 73.9812 88.7344 74.1062 89.2344C74.2312 89.7344 74.2937 90.4115 74.2937 91.2656C74.2937 92.276 74.1896 93.0885 73.9812 93.7031C73.7833 94.3177 73.476 94.7969 73.0594 95.1406C72.6531 95.474 72.1323 95.6406 71.4969 95.6406C70.674 95.6406 70.0229 95.3438 69.5437 94.75C68.9812 94.0417 68.7 92.8802 68.7 91.2656ZM69.7781 91.2656C69.7781 92.6719 69.9448 93.6094 70.2781 94.0781C70.6115 94.5469 71.0177 94.7812 71.4969 94.7812C71.9865 94.7812 72.3927 94.5469 72.7156 94.0781C73.049 93.6094 73.2156 92.6719 73.2156 91.2656C73.2156 89.849 73.049 88.9115 72.7156 88.4531C72.3927 87.9844 71.9812 87.75 71.4812 87.75C71.0021 87.75 70.6167 87.9531 70.325 88.3594C69.9604 88.8802 69.7781 89.849 69.7781 91.2656ZM75.7 91.2656C75.7 90.2448 75.8042 89.4271 76.0125 88.8125C76.2208 88.1875 76.5281 87.7083 76.9344 87.375C77.351 87.0417 77.8719 86.875 78.4969 86.875C78.9552 86.875 79.3562 86.9688 79.7 87.1562C80.0542 87.3438 80.3458 87.6146 80.575 87.9688C80.8042 88.3125 80.9812 88.7344 81.1062 89.2344C81.2312 89.7344 81.2937 90.4115 81.2937 91.2656C81.2937 92.276 81.1896 93.0885 80.9812 93.7031C80.7833 94.3177 80.476 94.7969 80.0594 95.1406C79.6531 95.474 79.1323 95.6406 78.4969 95.6406C77.674 95.6406 77.0229 95.3438 76.5437 94.75C75.9812 94.0417 75.7 92.8802 75.7 91.2656ZM76.7781 91.2656C76.7781 92.6719 76.9448 93.6094 77.2781 94.0781C77.6115 94.5469 78.0177 94.7812 78.4969 94.7812C78.9865 94.7812 79.3927 94.5469 79.7156 94.0781C80.049 93.6094 80.2156 92.6719 80.2156 91.2656C80.2156 89.849 80.049 88.9115 79.7156 88.4531C79.3927 87.9844 78.9812 87.75 78.4812 87.75C78.0021 87.75 77.6167 87.9531 77.325 88.3594C76.9604 88.8802 76.7781 89.849 76.7781 91.2656Z" fill="black"/>
<path d="M168.052 386.8V384.737H164.333V383.769L168.255 378.206H169.114V383.769H170.271V384.737H169.114V386.8H168.052ZM168.052 383.769V379.909L165.364 383.769H168.052ZM175.052 386.8V384.737H171.333V383.769L175.255 378.206H176.114V383.769H177.271V384.737H176.114V386.8H175.052ZM175.052 383.769V379.909L172.364 383.769H175.052ZM178.677 382.565C178.677 381.545 178.781 380.727 178.989 380.112C179.198 379.487 179.505 379.008 179.911 378.675C180.328 378.341 180.849 378.175 181.474 378.175C181.932 378.175 182.333 378.269 182.677 378.456C183.031 378.644 183.323 378.914 183.552 379.269C183.781 379.612 183.958 380.034 184.083 380.534C184.208 381.034 184.271 381.711 184.271 382.565C184.271 383.576 184.167 384.388 183.958 385.003C183.76 385.618 183.453 386.097 183.036 386.44C182.63 386.774 182.109 386.94 181.474 386.94C180.651 386.94 180 386.644 179.521 386.05C178.958 385.341 178.677 384.18 178.677 382.565ZM179.755 382.565C179.755 383.972 179.922 384.909 180.255 385.378C180.588 385.847 180.995 386.081 181.474 386.081C181.963 386.081 182.37 385.847 182.693 385.378C183.026 384.909 183.193 383.972 183.193 382.565C183.193 381.149 183.026 380.211 182.693 379.753C182.37 379.284 181.958 379.05 181.458 379.05C180.979 379.05 180.594 379.253 180.302 379.659C179.937 380.18 179.755 381.149 179.755 382.565ZM185.677 382.565C185.677 381.545 185.781 380.727 185.989 380.112C186.198 379.487 186.505 379.008 186.911 378.675C187.328 378.341 187.849 378.175 188.474 378.175C188.932 378.175 189.333 378.269 189.677 378.456C190.031 378.644 190.323 378.914 190.552 379.269C190.781 379.612 190.958 380.034 191.083 380.534C191.208 381.034 191.271 381.711 191.271 382.565C191.271 383.576 191.167 384.388 190.958 385.003C190.76 385.618 190.453 386.097 190.036 386.44C189.63 386.774 189.109 386.94 188.474 386.94C187.651 386.94 187 386.644 186.521 386.05C185.958 385.341 185.677 384.18 185.677 382.565ZM186.755 382.565C186.755 383.972 186.922 384.909 187.255 385.378C187.588 385.847 187.995 386.081 188.474 386.081C188.963 386.081 189.37 385.847 189.693 385.378C190.026 384.909 190.193 383.972 190.193 382.565C190.193 381.149 190.026 380.211 189.693 379.753C189.37 379.284 188.958 379.05 188.458 379.05C187.979 379.05 187.594 379.253 187.302 379.659C186.937 380.18 186.755 381.149 186.755 382.565ZM192.677 382.565C192.677 381.545 192.781 380.727 192.989 380.112C193.198 379.487 193.505 379.008 193.911 378.675C194.328 378.341 194.849 378.175 195.474 378.175C195.932 378.175 196.333 378.269 196.677 378.456C197.031 378.644 197.323 378.914 197.552 379.269C197.781 379.612 197.958 380.034 198.083 380.534C198.208 381.034 198.271 381.711 198.271 382.565C198.271 383.576 198.167 384.388 197.958 385.003C197.76 385.618 197.453 386.097 197.036 386.44C196.63 386.774 196.109 386.94 195.474 386.94C194.651 386.94 194 386.644 193.521 386.05C192.958 385.341 192.677 384.18 192.677 382.565ZM193.755 382.565C193.755 383.972 193.922 384.909 194.255 385.378C194.588 385.847 194.995 386.081 195.474 386.081C195.963 386.081 196.37 385.847 196.693 385.378C197.026 384.909 197.193 383.972 197.193 382.565C197.193 381.149 197.026 380.211 196.693 379.753C196.37 379.284 195.958 379.05 195.458 379.05C194.979 379.05 194.594 379.253 194.302 379.659C193.937 380.18 193.755 381.149 193.755 382.565Z" fill="black"/>
<path d="M289.451 386.8V384.737H285.732V383.769L289.654 378.206H290.513V383.769H291.669V384.737H290.513V386.8H289.451ZM289.451 383.769V379.909L286.763 383.769H289.451ZM296.451 386.8V384.737H292.732V383.769L296.654 378.206H297.513V383.769H298.669V384.737H297.513V386.8H296.451ZM296.451 383.769V379.909L293.763 383.769H296.451ZM305.622 385.784V386.8H299.935C299.935 386.55 299.977 386.305 300.06 386.065C300.206 385.68 300.435 385.3 300.747 384.925C301.07 384.55 301.534 384.118 302.138 383.628C303.076 382.857 303.706 382.248 304.029 381.8C304.362 381.352 304.529 380.93 304.529 380.534C304.529 380.118 304.378 379.769 304.076 379.487C303.773 379.196 303.383 379.05 302.904 379.05C302.393 379.05 301.987 379.201 301.685 379.503C301.383 379.805 301.227 380.227 301.216 380.769L300.138 380.659C300.211 379.847 300.487 379.232 300.966 378.815C301.456 378.388 302.112 378.175 302.935 378.175C303.758 378.175 304.409 378.404 304.888 378.862C305.367 379.321 305.607 379.888 305.607 380.565C305.607 380.909 305.534 381.248 305.388 381.581C305.253 381.904 305.018 382.253 304.685 382.628C304.362 382.993 303.826 383.493 303.076 384.128C302.44 384.659 302.029 385.024 301.841 385.222C301.664 385.409 301.518 385.597 301.404 385.784H305.622ZM307.076 382.565C307.076 381.545 307.18 380.727 307.388 380.112C307.596 379.487 307.904 379.008 308.31 378.675C308.727 378.341 309.247 378.175 309.872 378.175C310.331 378.175 310.732 378.269 311.076 378.456C311.43 378.644 311.721 378.914 311.951 379.269C312.18 379.612 312.357 380.034 312.482 380.534C312.607 381.034 312.669 381.711 312.669 382.565C312.669 383.576 312.565 384.388 312.357 385.003C312.159 385.618 311.852 386.097 311.435 386.44C311.029 386.774 310.508 386.94 309.872 386.94C309.049 386.94 308.398 386.644 307.919 386.05C307.357 385.341 307.076 384.18 307.076 382.565ZM308.154 382.565C308.154 383.972 308.32 384.909 308.654 385.378C308.987 385.847 309.393 386.081 309.872 386.081C310.362 386.081 310.768 385.847 311.091 385.378C311.424 384.909 311.591 383.972 311.591 382.565C311.591 381.149 311.424 380.211 311.091 379.753C310.768 379.284 310.357 379.05 309.857 379.05C309.378 379.05 308.992 379.253 308.701 379.659C308.336 380.18 308.154 381.149 308.154 382.565ZM314.076 382.565C314.076 381.545 314.18 380.727 314.388 380.112C314.596 379.487 314.904 379.008 315.31 378.675C315.727 378.341 316.247 378.175 316.872 378.175C317.331 378.175 317.732 378.269 318.076 378.456C318.43 378.644 318.721 378.914 318.951 379.269C319.18 379.612 319.357 380.034 319.482 380.534C319.607 381.034 319.669 381.711 319.669 382.565C319.669 383.576 319.565 384.388 319.357 385.003C319.159 385.618 318.852 386.097 318.435 386.44C318.029 386.774 317.508 386.94 316.872 386.94C316.049 386.94 315.398 386.644 314.919 386.05C314.357 385.341 314.076 384.18 314.076 382.565ZM315.154 382.565C315.154 383.972 315.32 384.909 315.654 385.378C315.987 385.847 316.393 386.081 316.872 386.081C317.362 386.081 317.768 385.847 318.091 385.378C318.424 384.909 318.591 383.972 318.591 382.565C318.591 381.149 318.424 380.211 318.091 379.753C317.768 379.284 317.357 379.05 316.857 379.05C316.378 379.05 315.992 379.253 315.701 379.659C315.336 380.18 315.154 381.149 315.154 382.565Z" fill="black"/>
<path d="M410.849 386.8V384.737H407.13V383.769L411.052 378.206H411.912V383.769H413.068V384.737H411.912V386.8H410.849ZM410.849 383.769V379.909L408.162 383.769H410.849ZM417.849 386.8V384.737H414.13V383.769L418.052 378.206H418.912V383.769H420.068V384.737H418.912V386.8H417.849ZM417.849 383.769V379.909L415.162 383.769H417.849ZM424.849 386.8V384.737H421.13V383.769L425.052 378.206H425.912V383.769H427.068V384.737H425.912V386.8H424.849ZM424.849 383.769V379.909L422.162 383.769H424.849ZM428.474 382.565C428.474 381.545 428.578 380.727 428.787 380.112C428.995 379.487 429.302 379.008 429.708 378.675C430.125 378.341 430.646 378.175 431.271 378.175C431.729 378.175 432.13 378.269 432.474 378.456C432.828 378.644 433.12 378.914 433.349 379.269C433.578 379.612 433.755 380.034 433.88 380.534C434.005 381.034 434.068 381.711 434.068 382.565C434.068 383.576 433.964 384.388 433.755 385.003C433.557 385.618 433.25 386.097 432.833 386.44C432.427 386.774 431.906 386.94 431.271 386.94C430.448 386.94 429.797 386.644 429.318 386.05C428.755 385.341 428.474 384.18 428.474 382.565ZM429.552 382.565C429.552 383.972 429.719 384.909 430.052 385.378C430.386 385.847 430.792 386.081 431.271 386.081C431.761 386.081 432.167 385.847 432.49 385.378C432.823 384.909 432.99 383.972 432.99 382.565C432.99 381.149 432.823 380.211 432.49 379.753C432.167 379.284 431.755 379.05 431.255 379.05C430.776 379.05 430.391 379.253 430.099 379.659C429.735 380.18 429.552 381.149 429.552 382.565ZM435.474 382.565C435.474 381.545 435.578 380.727 435.787 380.112C435.995 379.487 436.302 379.008 436.708 378.675C437.125 378.341 437.646 378.175 438.271 378.175C438.729 378.175 439.13 378.269 439.474 378.456C439.828 378.644 440.12 378.914 440.349 379.269C440.578 379.612 440.755 380.034 440.88 380.534C441.005 381.034 441.068 381.711 441.068 382.565C441.068 383.576 440.964 384.388 440.755 385.003C440.557 385.618 440.25 386.097 439.833 386.44C439.427 386.774 438.906 386.94 438.271 386.94C437.448 386.94 436.797 386.644 436.318 386.05C435.755 385.341 435.474 384.18 435.474 382.565ZM436.552 382.565C436.552 383.972 436.719 384.909 437.052 385.378C437.386 385.847 437.792 386.081 438.271 386.081C438.761 386.081 439.167 385.847 439.49 385.378C439.823 384.909 439.99 383.972 439.99 382.565C439.99 381.149 439.823 380.211 439.49 379.753C439.167 379.284 438.755 379.05 438.255 379.05C437.776 379.05 437.391 379.253 437.099 379.659C436.735 380.18 436.552 381.149 436.552 382.565Z" fill="black"/>
<path d="M532.248 386.8V384.737H528.529V383.769L532.451 378.206H533.31V383.769H534.466V384.737H533.31V386.8H532.248ZM532.248 383.769V379.909L529.56 383.769H532.248ZM539.248 386.8V384.737H535.529V383.769L539.451 378.206H540.31V383.769H541.466V384.737H540.31V386.8H539.248ZM539.248 383.769V379.909L536.56 383.769H539.248ZM548.341 380.315L547.295 380.394C547.201 379.977 547.071 379.675 546.904 379.487C546.612 379.185 546.258 379.034 545.841 379.034C545.508 379.034 545.211 379.128 544.951 379.315C544.628 379.565 544.368 379.925 544.17 380.394C543.982 380.852 543.883 381.508 543.873 382.362C544.123 381.977 544.43 381.69 544.795 381.503C545.17 381.315 545.56 381.222 545.966 381.222C546.664 381.222 547.258 381.482 547.748 382.003C548.248 382.524 548.498 383.19 548.498 384.003C548.498 384.545 548.378 385.05 548.138 385.519C547.909 385.977 547.591 386.331 547.185 386.581C546.779 386.821 546.321 386.94 545.81 386.94C544.925 386.94 544.206 386.618 543.654 385.972C543.102 385.326 542.826 384.263 542.826 382.784C542.826 381.118 543.133 379.909 543.748 379.159C544.279 378.503 544.998 378.175 545.904 378.175C546.581 378.175 547.133 378.368 547.56 378.753C547.998 379.128 548.258 379.649 548.341 380.315ZM544.045 384.019C544.045 384.383 544.118 384.732 544.263 385.065C544.42 385.388 544.633 385.638 544.904 385.815C545.185 385.993 545.482 386.081 545.795 386.081C546.232 386.081 546.612 385.904 546.935 385.55C547.258 385.185 547.42 384.696 547.42 384.081C547.42 383.487 547.258 383.019 546.935 382.675C546.623 382.331 546.227 382.159 545.748 382.159C545.269 382.159 544.862 382.331 544.529 382.675C544.206 383.019 544.045 383.466 544.045 384.019ZM549.873 382.565C549.873 381.545 549.977 380.727 550.185 380.112C550.394 379.487 550.701 379.008 551.107 378.675C551.524 378.341 552.045 378.175 552.67 378.175C553.128 378.175 553.529 378.269 553.873 378.456C554.227 378.644 554.519 378.914 554.748 379.269C554.977 379.612 555.154 380.034 555.279 380.534C555.404 381.034 555.466 381.711 555.466 382.565C555.466 383.576 555.362 384.388 555.154 385.003C554.956 385.618 554.649 386.097 554.232 386.44C553.826 386.774 553.305 386.94 552.67 386.94C551.847 386.94 551.196 386.644 550.716 386.05C550.154 385.341 549.873 384.18 549.873 382.565ZM550.951 382.565C550.951 383.972 551.118 384.909 551.451 385.378C551.784 385.847 552.19 386.081 552.67 386.081C553.159 386.081 553.565 385.847 553.888 385.378C554.222 384.909 554.388 383.972 554.388 382.565C554.388 381.149 554.222 380.211 553.888 379.753C553.565 379.284 553.154 379.05 552.654 379.05C552.175 379.05 551.789 379.253 551.498 379.659C551.133 380.18 550.951 381.149 550.951 382.565ZM556.873 382.565C556.873 381.545 556.977 380.727 557.185 380.112C557.394 379.487 557.701 379.008 558.107 378.675C558.524 378.341 559.045 378.175 559.67 378.175C560.128 378.175 560.529 378.269 560.873 378.456C561.227 378.644 561.519 378.914 561.748 379.269C561.977 379.612 562.154 380.034 562.279 380.534C562.404 381.034 562.466 381.711 562.466 382.565C562.466 383.576 562.362 384.388 562.154 385.003C561.956 385.618 561.649 386.097 561.232 386.44C560.826 386.774 560.305 386.94 559.67 386.94C558.847 386.94 558.196 386.644 557.716 386.05C557.154 385.341 556.873 384.18 556.873 382.565ZM557.951 382.565C557.951 383.972 558.118 384.909 558.451 385.378C558.784 385.847 559.19 386.081 559.67 386.081C560.159 386.081 560.565 385.847 560.888 385.378C561.222 384.909 561.388 383.972 561.388 382.565C561.388 381.149 561.222 380.211 560.888 379.753C560.565 379.284 560.154 379.05 559.654 379.05C559.175 379.05 558.789 379.253 558.498 379.659C558.133 380.18 557.951 381.149 557.951 382.565Z" fill="black"/>
<path d="M653.646 386.8V384.737H649.928V383.769L653.849 378.206H654.709V383.769H655.865V384.737H654.709V386.8H653.646ZM653.646 383.769V379.909L650.959 383.769H653.646ZM660.646 386.8V384.737H656.928V383.769L660.849 378.206H661.709V383.769H662.865V384.737H661.709V386.8H660.646ZM660.646 383.769V379.909L657.959 383.769H660.646ZM665.896 382.144C665.459 381.977 665.131 381.748 664.912 381.456C664.704 381.154 664.599 380.8 664.599 380.394C664.599 379.769 664.823 379.243 665.271 378.815C665.73 378.388 666.329 378.175 667.068 378.175C667.818 378.175 668.422 378.394 668.881 378.831C669.339 379.269 669.568 379.8 669.568 380.425C669.568 380.821 669.464 381.164 669.256 381.456C669.047 381.748 668.73 381.977 668.303 382.144C668.834 382.31 669.235 382.586 669.506 382.972C669.776 383.357 669.912 383.815 669.912 384.347C669.912 385.076 669.651 385.69 669.131 386.19C668.62 386.69 667.938 386.94 667.084 386.94C666.24 386.94 665.558 386.69 665.037 386.19C664.516 385.69 664.256 385.065 664.256 384.315C664.256 383.753 664.396 383.284 664.678 382.909C664.969 382.534 665.375 382.279 665.896 382.144ZM665.678 380.347C665.678 380.753 665.808 381.086 666.068 381.347C666.339 381.607 666.683 381.737 667.099 381.737C667.506 381.737 667.839 381.612 668.099 381.362C668.36 381.102 668.49 380.784 668.49 380.409C668.49 380.024 668.355 379.701 668.084 379.44C667.813 379.17 667.48 379.034 667.084 379.034C666.678 379.034 666.339 379.164 666.068 379.425C665.808 379.685 665.678 379.993 665.678 380.347ZM665.349 384.315C665.349 384.618 665.417 384.909 665.553 385.19C665.698 385.472 665.912 385.69 666.193 385.847C666.474 386.003 666.777 386.081 667.099 386.081C667.599 386.081 668.011 385.92 668.334 385.597C668.667 385.274 668.834 384.862 668.834 384.362C668.834 383.852 668.667 383.43 668.334 383.097C668 382.763 667.579 382.597 667.068 382.597C666.568 382.597 666.157 382.763 665.834 383.097C665.511 383.42 665.349 383.826 665.349 384.315ZM671.271 382.565C671.271 381.545 671.375 380.727 671.584 380.112C671.792 379.487 672.099 379.008 672.506 378.675C672.922 378.341 673.443 378.175 674.068 378.175C674.527 378.175 674.928 378.269 675.271 378.456C675.625 378.644 675.917 378.914 676.146 379.269C676.375 379.612 676.553 380.034 676.678 380.534C676.803 381.034 676.865 381.711 676.865 382.565C676.865 383.576 676.761 384.388 676.553 385.003C676.355 385.618 676.047 386.097 675.631 386.44C675.224 386.774 674.704 386.94 674.068 386.94C673.245 386.94 672.594 386.644 672.115 386.05C671.553 385.341 671.271 384.18 671.271 382.565ZM672.349 382.565C672.349 383.972 672.516 384.909 672.849 385.378C673.183 385.847 673.589 386.081 674.068 386.081C674.558 386.081 674.964 385.847 675.287 385.378C675.62 384.909 675.787 383.972 675.787 382.565C675.787 381.149 675.62 380.211 675.287 379.753C674.964 379.284 674.553 379.05 674.053 379.05C673.573 379.05 673.188 379.253 672.896 379.659C672.532 380.18 672.349 381.149 672.349 382.565ZM678.271 382.565C678.271 381.545 678.375 380.727 678.584 380.112C678.792 379.487 679.099 379.008 679.506 378.675C679.922 378.341 680.443 378.175 681.068 378.175C681.527 378.175 681.928 378.269 682.271 378.456C682.625 378.644 682.917 378.914 683.146 379.269C683.375 379.612 683.553 380.034 683.678 380.534C683.803 381.034 683.865 381.711 683.865 382.565C683.865 383.576 683.761 384.388 683.553 385.003C683.355 385.618 683.047 386.097 682.631 386.44C682.224 386.774 681.704 386.94 681.068 386.94C680.245 386.94 679.594 386.644 679.115 386.05C678.553 385.341 678.271 384.18 678.271 382.565ZM679.349 382.565C679.349 383.972 679.516 384.909 679.849 385.378C680.183 385.847 680.589 386.081 681.068 386.081C681.558 386.081 681.964 385.847 682.287 385.378C682.62 384.909 682.787 383.972 682.787 382.565C682.787 381.149 682.62 380.211 682.287 379.753C681.964 379.284 681.553 379.05 681.053 379.05C680.573 379.05 680.188 379.253 679.896 379.659C679.532 380.18 679.349 381.149 679.349 382.565Z" fill="black"/>
<path d="M576.847 65.5127V66.7002H570.222C570.211 66.4085 570.258 66.1221 570.363 65.8408C570.54 65.3929 570.81 64.9502 571.175 64.5127C571.55 64.0752 572.086 63.57 572.784 62.9971C573.878 62.1012 574.613 61.3929 574.988 60.8721C575.373 60.3512 575.566 59.8564 575.566 59.3877C575.566 58.8981 575.389 58.4867 575.034 58.1533C574.691 57.82 574.243 57.6533 573.691 57.6533C573.097 57.6533 572.618 57.8304 572.253 58.1846C571.899 58.5387 571.722 59.0335 571.722 59.6689L570.456 59.5283C570.54 58.5908 570.862 57.8773 571.425 57.3877C571.998 56.8877 572.758 56.6377 573.706 56.6377C574.675 56.6377 575.435 56.9033 575.988 57.4346C576.55 57.9658 576.831 58.6273 576.831 59.4189C576.831 59.8252 576.748 60.221 576.581 60.6064C576.425 60.9919 576.154 61.3981 575.769 61.8252C575.394 62.2523 574.764 62.8408 573.878 63.5908C573.139 64.2054 572.665 64.6273 572.456 64.8564C572.248 65.0752 572.076 65.2939 571.941 65.5127H576.847ZM578.378 61.7627C578.378 60.5752 578.498 59.6221 578.738 58.9033C578.988 58.1742 579.352 57.6169 579.831 57.2314C580.31 56.8356 580.915 56.6377 581.644 56.6377C582.185 56.6377 582.659 56.7471 583.066 56.9658C583.472 57.1846 583.805 57.4971 584.066 57.9033C584.336 58.3096 584.545 58.8044 584.691 59.3877C584.836 59.971 584.909 60.7627 584.909 61.7627C584.909 62.9398 584.79 63.8877 584.55 64.6064C584.31 65.3252 583.951 65.8825 583.472 66.2783C582.993 66.6742 582.383 66.8721 581.644 66.8721C580.685 66.8721 579.93 66.5231 579.378 65.8252C578.711 64.9919 578.378 63.6377 578.378 61.7627ZM579.644 61.7627C579.644 63.4085 579.836 64.5023 580.222 65.0439C580.607 65.5856 581.081 65.8564 581.644 65.8564C582.217 65.8564 582.696 65.5856 583.081 65.0439C583.467 64.4919 583.659 63.3981 583.659 61.7627C583.659 60.1064 583.467 59.0075 583.081 58.4658C582.696 57.9242 582.211 57.6533 581.628 57.6533C581.066 57.6533 580.618 57.8929 580.284 58.3721C579.857 58.9867 579.644 60.1169 579.644 61.7627ZM592.847 65.5127V66.7002H586.222C586.211 66.4085 586.258 66.1221 586.363 65.8408C586.54 65.3929 586.81 64.9502 587.175 64.5127C587.55 64.0752 588.086 63.57 588.784 62.9971C589.878 62.1012 590.613 61.3929 590.988 60.8721C591.373 60.3512 591.566 59.8564 591.566 59.3877C591.566 58.8981 591.389 58.4867 591.034 58.1533C590.691 57.82 590.243 57.6533 589.691 57.6533C589.097 57.6533 588.618 57.8304 588.253 58.1846C587.899 58.5387 587.722 59.0335 587.722 59.6689L586.456 59.5283C586.54 58.5908 586.862 57.8773 587.425 57.3877C587.998 56.8877 588.758 56.6377 589.706 56.6377C590.675 56.6377 591.435 56.9033 591.988 57.4346C592.55 57.9658 592.831 58.6273 592.831 59.4189C592.831 59.8252 592.748 60.221 592.581 60.6064C592.425 60.9919 592.154 61.3981 591.769 61.8252C591.394 62.2523 590.764 62.8408 589.878 63.5908C589.139 64.2054 588.665 64.6273 588.456 64.8564C588.248 65.0752 588.076 65.2939 587.941 65.5127H592.847ZM600.847 65.5127V66.7002H594.222C594.211 66.4085 594.258 66.1221 594.363 65.8408C594.54 65.3929 594.81 64.9502 595.175 64.5127C595.55 64.0752 596.086 63.57 596.784 62.9971C597.878 62.1012 598.613 61.3929 598.988 60.8721C599.373 60.3512 599.566 59.8564 599.566 59.3877C599.566 58.8981 599.389 58.4867 599.034 58.1533C598.691 57.82 598.243 57.6533 597.691 57.6533C597.097 57.6533 596.618 57.8304 596.253 58.1846C595.899 58.5387 595.722 59.0335 595.722 59.6689L594.456 59.5283C594.54 58.5908 594.862 57.8773 595.425 57.3877C595.998 56.8877 596.758 56.6377 597.706 56.6377C598.675 56.6377 599.435 56.9033 599.988 57.4346C600.55 57.9658 600.831 58.6273 600.831 59.4189C600.831 59.8252 600.748 60.221 600.581 60.6064C600.425 60.9919 600.154 61.3981 599.769 61.8252C599.394 62.2523 598.764 62.8408 597.878 63.5908C597.139 64.2054 596.665 64.6273 596.456 64.8564C596.248 65.0752 596.076 65.2939 595.941 65.5127H600.847Z" fill="#999999"/>
<path d="M606.175 58.1689C605.487 59.3669 604.633 60.3669 603.612 61.1689L602.847 60.1846C604.336 59.0908 605.357 57.5075 605.909 55.4346L607.159 55.7627C607.305 55.9085 607.253 55.9971 607.003 56.0283L606.566 57.1221H614.269V58.1689H610.284V60.0283H613.566V61.0596H610.284V63.5283H614.878V64.5596H610.284V67.8564H609.191V64.5596H602.894V63.5283H605.362V60.0283H609.191V58.1689H606.175ZM606.456 63.5283H609.191V61.0596H606.456V63.5283Z" fill="#999999"/>
<path d="M616.566 64.3877L617.753 64.2783C617.847 64.8304 618.034 65.2314 618.316 65.4814C618.607 65.7314 618.972 65.8564 619.409 65.8564C619.784 65.8564 620.112 65.7731 620.394 65.6064C620.685 65.4294 620.92 65.195 621.097 64.9033C621.284 64.6117 621.441 64.221 621.566 63.7314C621.691 63.2419 621.753 62.7419 621.753 62.2314C621.753 62.1794 621.748 62.096 621.737 61.9814C621.498 62.3773 621.165 62.7002 620.737 62.9502C620.31 63.1898 619.847 63.3096 619.347 63.3096C618.514 63.3096 617.81 63.0075 617.237 62.4033C616.665 61.7992 616.378 61.0075 616.378 60.0283C616.378 59.0075 616.675 58.1898 617.269 57.5752C617.873 56.9502 618.628 56.6377 619.534 56.6377C620.18 56.6377 620.774 56.8148 621.316 57.1689C621.857 57.5127 622.269 58.0127 622.55 58.6689C622.831 59.3148 622.972 60.2523 622.972 61.4814C622.972 62.7627 622.831 63.7835 622.55 64.5439C622.279 65.3044 621.868 65.8825 621.316 66.2783C620.764 66.6742 620.118 66.8721 619.378 66.8721C618.597 66.8721 617.956 66.6533 617.456 66.2158C616.967 65.7783 616.67 65.1689 616.566 64.3877ZM621.597 59.9658C621.597 59.2575 621.409 58.695 621.034 58.2783C620.659 57.8617 620.211 57.6533 619.691 57.6533C619.139 57.6533 618.659 57.8773 618.253 58.3252C617.847 58.7731 617.644 59.3512 617.644 60.0596C617.644 60.695 617.836 61.2158 618.222 61.6221C618.607 62.0179 619.081 62.2158 619.644 62.2158C620.217 62.2158 620.685 62.0179 621.05 61.6221C621.415 61.2158 621.597 60.6637 621.597 59.9658Z" fill="#999999"/>
<path d="M633.706 63.5283H628.503C628.503 65.0908 627.701 66.57 626.097 67.9658L625.175 66.9189C626.665 65.971 627.409 64.5492 627.409 62.6533V55.9814H634.8V66.7627C634.8 67.346 634.487 67.6377 633.862 67.6377H632.55L632.331 66.4189H633.487C633.633 66.4189 633.706 66.346 633.706 66.2002V63.5283ZM628.503 62.3252H633.706V60.3564H628.503V62.3252ZM628.503 59.1533H633.706V57.1846H628.503V59.1533Z" fill="#999999"/>
<path d="M644.847 65.5127V66.7002H638.222C638.211 66.4085 638.258 66.1221 638.363 65.8408C638.54 65.3929 638.81 64.9502 639.175 64.5127C639.55 64.0752 640.086 63.57 640.784 62.9971C641.878 62.1012 642.613 61.3929 642.988 60.8721C643.373 60.3512 643.566 59.8564 643.566 59.3877C643.566 58.8981 643.389 58.4867 643.034 58.1533C642.691 57.82 642.243 57.6533 641.691 57.6533C641.097 57.6533 640.618 57.8304 640.253 58.1846C639.899 58.5387 639.722 59.0335 639.722 59.6689L638.456 59.5283C638.54 58.5908 638.862 57.8773 639.425 57.3877C639.998 56.8877 640.758 56.6377 641.706 56.6377C642.675 56.6377 643.435 56.9033 643.988 57.4346C644.55 57.9658 644.831 58.6273 644.831 59.4189C644.831 59.8252 644.748 60.221 644.581 60.6064C644.425 60.9919 644.154 61.3981 643.769 61.8252C643.394 62.2523 642.764 62.8408 641.878 63.5908C641.139 64.2054 640.665 64.6273 640.456 64.8564C640.248 65.0752 640.076 65.2939 639.941 65.5127H644.847ZM646.566 64.3877L647.753 64.2783C647.847 64.8304 648.034 65.2314 648.316 65.4814C648.607 65.7314 648.972 65.8564 649.409 65.8564C649.784 65.8564 650.113 65.7731 650.394 65.6064C650.685 65.4294 650.92 65.195 651.097 64.9033C651.284 64.6117 651.441 64.221 651.566 63.7314C651.691 63.2419 651.753 62.7419 651.753 62.2314C651.753 62.1794 651.748 62.096 651.738 61.9814C651.498 62.3773 651.165 62.7002 650.738 62.9502C650.31 63.1898 649.847 63.3096 649.347 63.3096C648.514 63.3096 647.81 63.0075 647.238 62.4033C646.665 61.7992 646.378 61.0075 646.378 60.0283C646.378 59.0075 646.675 58.1898 647.269 57.5752C647.873 56.9502 648.628 56.6377 649.534 56.6377C650.18 56.6377 650.774 56.8148 651.316 57.1689C651.857 57.5127 652.269 58.0127 652.55 58.6689C652.831 59.3148 652.972 60.2523 652.972 61.4814C652.972 62.7627 652.831 63.7835 652.55 64.5439C652.279 65.3044 651.868 65.8825 651.316 66.2783C650.764 66.6742 650.118 66.8721 649.378 66.8721C648.597 66.8721 647.956 66.6533 647.456 66.2158C646.967 65.7783 646.67 65.1689 646.566 64.3877ZM651.597 59.9658C651.597 59.2575 651.409 58.695 651.034 58.2783C650.659 57.8617 650.211 57.6533 649.691 57.6533C649.139 57.6533 648.659 57.8773 648.253 58.3252C647.847 58.7731 647.644 59.3512 647.644 60.0596C647.644 60.695 647.836 61.2158 648.222 61.6221C648.607 62.0179 649.081 62.2158 649.644 62.2158C650.217 62.2158 650.685 62.0179 651.05 61.6221C651.415 61.2158 651.597 60.6637 651.597 59.9658Z" fill="#999999"/>
<path d="M657.8 67.2002H656.534V56.6377H665.128V66.9814H663.862V66.2002H657.8V67.2002ZM663.862 60.7939V57.6689H657.8V60.7939H663.862ZM663.862 65.1689V61.8252H657.8V65.1689H663.862ZM678.081 59.8564H680.659V60.7314H678.362V61.9971H680.222V62.8721H678.362V64.1846H680.222V65.0596H678.362V66.4189H681.097V67.3096H675.566V67.8564H674.644V61.7783C674.352 62.1742 673.987 62.5387 673.55 62.8721L673.159 61.8252C674.545 60.5856 675.441 59.2939 675.847 57.9502H674.581V59.2002H673.659V57.0752H676.066C676.211 56.4919 676.336 55.8721 676.441 55.2158L677.534 55.4814C677.649 55.596 677.612 55.7054 677.425 55.8096C677.321 56.2471 677.211 56.6689 677.097 57.0752H680.987V58.9814H680.05V57.9502H676.878C676.659 58.7106 676.368 59.346 676.003 59.8564H677.159L677.862 58.2158L678.909 58.4346C679.086 58.5075 679.05 58.6012 678.8 58.7158L678.081 59.8564ZM668.847 57.3408V56.3096H673.487V57.3408H671.581C671.508 58.4762 671.269 59.5179 670.862 60.4658H673.003V66.9814H672.066V66.0908H670.644V67.5283H669.722V62.5908C669.503 62.9554 669.264 63.2835 669.003 63.5752L668.3 62.6533C669.571 61.2262 670.316 59.4554 670.534 57.3408H668.847ZM675.566 62.8721V64.1846H677.425V62.8721H675.566ZM675.566 60.7314V61.9971H677.425V60.7314H675.566ZM675.566 65.0596V66.4189H677.425V65.0596H675.566ZM670.644 61.3408V65.2158H672.066V61.3408H670.644ZM687.222 61.4502C688.566 61.0856 689.42 60.3721 689.784 59.3096L688.316 58.7158L688.691 57.7783L690.003 58.2783L690.112 56.9658H687.816V55.9189H694.378L694.269 60.6221C694.237 61.5387 693.857 61.9971 693.128 61.9971H691.862L691.753 60.9502H692.909C693.128 60.9502 693.237 60.8408 693.237 60.6221L693.347 56.9658H691.206L691.05 58.7158L692.362 59.4189L691.862 60.4033L690.769 59.8096C690.3 61.1533 689.264 62.0648 687.659 62.5439L687.222 61.4502ZM694.159 66.9189C693.868 65.8252 693.415 64.8773 692.8 64.0752L693.784 63.6377C694.586 64.6169 695.097 65.5439 695.316 66.4189L694.159 66.9189ZM686.831 63.4658V67.6846H685.909V67.3096H684.05V67.9033H683.112V63.4658H686.831ZM687.269 66.9814C687.529 66.0648 687.696 65.0231 687.769 63.8564L688.862 63.9658C688.935 63.9971 688.899 64.0856 688.753 64.2314C688.711 65.3981 688.545 66.4033 688.253 67.2471L687.269 66.9814ZM690.769 61.6689C691.279 61.9919 691.79 62.5544 692.3 63.3564L691.269 63.9658C691.008 63.4554 690.571 62.8721 689.956 62.2158L690.769 61.6689ZM683.331 55.7002H686.612V56.7471H683.331V55.7002ZM682.628 57.5596H687.331V58.6064H682.628V57.5596ZM683.331 59.5908H686.612V60.6221H683.331V59.5908ZM683.331 61.4502H686.612V62.4814H683.331V61.4502ZM684.05 64.3408V66.4189H685.909V64.3408H684.05ZM690.222 63.3096C690.514 63.3408 690.534 63.4502 690.284 63.6377V66.2002C690.284 66.4606 690.394 66.5908 690.612 66.5908H691.816C692.034 66.5908 692.159 66.4814 692.191 66.2627L692.3 65.3877L693.394 65.6533L693.175 66.8096C693.071 67.3617 692.743 67.6377 692.191 67.6377H690.112C689.498 67.6377 689.191 67.3044 689.191 66.6377V63.3096H690.222Z" fill="#999999"/>
<path d="M38.1109 42.5283H36.5484V42.1377H25.5327V42.9189H23.9702V35.8877H38.1109V42.5283ZM36.939 30.2627H25.064V29.0127H36.939V30.2627ZM31.7046 24.8721C32.1213 24.9242 32.1473 25.0804 31.7827 25.3408V26.5127H39.439V29.7939H37.8765V27.7627H24.0484V30.0283H22.4859V26.5127H30.2202V24.8721H31.7046ZM34.6734 33.9346V32.3721H27.3296V33.9346H34.6734ZM36.2359 31.4346V34.8721H25.7671V31.4346H36.2359ZM36.5484 40.8877V39.4814H31.7827V40.8877H36.5484ZM36.5484 38.5439V37.1377H31.7827V38.5439H36.5484ZM30.2202 38.5439V37.1377H25.5327V38.5439H30.2202ZM30.2202 40.8877V39.4814H25.5327V40.8877H30.2202ZM58.7359 28.9346C59.2567 29.0387 59.2827 29.2471 58.814 29.5596V42.0596H57.0171V40.8096H45.064V42.3721H43.2671V28.9346H44.9859C45.5067 29.0387 45.5327 29.2471 45.064 29.5596V39.0908H50.064V25.6533H51.7827C52.3036 25.7575 52.3296 25.9658 51.8609 26.2783V39.0908H57.0171V28.9346H58.7359ZM74.9859 37.6064C76.0275 38.6481 77.564 39.6898 79.5952 40.7314L78.6577 42.3721C76.8869 41.5387 75.2202 40.3408 73.6577 38.7783L74.9859 37.6064ZM68.189 39.0127C67.3036 40.2627 65.9494 41.4867 64.1265 42.6846L62.9546 41.2002C64.6213 40.2106 65.9494 39.0387 66.939 37.6846L68.4234 38.5439C68.6838 38.7523 68.6057 38.9085 68.189 39.0127ZM64.9859 36.9814V37.7627H63.4234V26.5127H64.9077C65.3244 26.5648 65.3504 26.721 64.9859 26.9814V35.4971H79.3609V36.9814H72.0952V42.9971H70.2984V36.9814H64.9859ZM68.4234 33.2314H75.2202V31.7471H68.4234V33.2314ZM68.4234 30.4971H75.2202V29.2471H68.4234V30.4971ZM68.4234 27.9971H75.2202V26.7471H68.4234V27.9971ZM66.8609 34.4814V25.4971H76.7827V34.4814H66.8609ZM91.7827 30.1846C90.8973 35.3929 89.8296 38.6221 88.5796 39.8721C87.9025 40.5492 87.1994 40.8877 86.4702 40.8877C85.6369 40.8877 84.9859 40.6533 84.5171 40.1846C83.2671 38.9346 82.6421 37.3721 82.6421 35.4971C82.6421 33.2054 83.4494 31.2523 85.064 29.6377C86.8348 27.8669 88.9963 26.9814 91.5484 26.9814C93.84 26.9814 95.6369 27.6325 96.939 28.9346C98.3973 30.3929 99.1265 32.1117 99.1265 34.0908C99.1265 36.2262 98.4494 37.971 97.0952 39.3252C96.2098 40.2106 94.8557 41.07 93.0327 41.9033L91.3921 40.2627C93.215 39.6898 94.6473 38.8825 95.689 37.8408C96.6786 36.8512 97.1734 35.6533 97.1734 34.2471C97.1734 32.5804 96.6265 31.2002 95.5327 30.1064C94.439 29.0127 92.7202 28.5179 90.3765 28.6221L91.7827 29.3252C92.4077 29.5856 92.4077 29.8721 91.7827 30.1846ZM89.9859 28.7002C88.6317 29.0127 87.4598 29.6637 86.4702 30.6533C85.1161 32.0075 84.439 33.6742 84.439 35.6533C84.439 36.8512 84.8296 37.8408 85.6109 38.6221C85.7671 38.7783 86.0015 38.8564 86.314 38.8564C86.6265 38.8564 86.965 38.6742 87.3296 38.3096C88.5275 37.1117 89.413 33.9085 89.9859 28.7002ZM109.126 41.5127C111.262 40.3669 112.33 38.4137 112.33 35.6533V26.6689L113.97 26.9814L118.189 25.6533L119.361 27.2158C119.465 27.5283 119.283 27.5804 118.814 27.3721L113.892 28.3096V31.6689H120.064V33.1533H117.72V42.9189H116.158V33.1533H113.892V36.1221C113.892 39.195 112.59 41.4867 109.986 42.9971L109.126 41.5127ZM107.642 42.9971H106.08V38.3096C105.246 39.6637 104.335 40.7314 103.345 41.5127L102.173 40.1064C103.632 39.0648 104.856 37.7627 105.845 36.2002H102.564V34.7158H106.08V32.9971H102.095V31.5127H107.564L108.423 28.7002H102.642V27.2158H106.08V25.0283H107.564C107.981 25.0804 108.007 25.2367 107.642 25.4971V27.2158H111.08V28.7002H110.064L108.97 31.5127H111.47V32.9971H107.642V34.7158H111.08V36.2002H107.642V36.9033C108.371 37.1117 109.387 37.6585 110.689 38.5439L109.751 40.1064C109.022 39.3773 108.319 38.8044 107.642 38.3877V42.9971ZM104.517 31.3564C104.309 30.6273 104.022 29.9242 103.658 29.2471L105.142 28.7783C105.559 29.4554 105.871 30.1585 106.08 30.8877L104.517 31.3564ZM137.251 33.5439H132.173V35.2627H137.251V33.5439ZM135.142 36.7471H133.736V37.5283C133.736 40.7575 131.887 42.6585 128.189 43.2314L127.72 41.5908C130.689 41.2262 132.173 39.82 132.173 37.3721V36.7471H131.392H130.611V25.8096H138.814V36.7471H136.705V40.6533C136.705 41.07 136.887 41.2783 137.251 41.2783H138.033C138.293 41.2783 138.449 41.0179 138.501 40.4971L138.658 39.1689L140.22 39.6377L139.986 41.4346C139.882 42.32 139.387 42.7627 138.501 42.7627H136.548C135.611 42.7627 135.142 42.32 135.142 41.4346V36.7471ZM132.173 32.0596H137.251V30.4189H132.173V32.0596ZM132.173 28.9346H137.251V27.2939H132.173V28.9346ZM126.548 35.8877C127.59 36.3564 128.814 37.2158 130.22 38.4658L129.126 40.1064C128.033 38.9085 127.069 38.0231 126.236 37.4502C125.715 39.7419 124.621 41.5387 122.955 42.8408L121.783 41.4346C124.074 39.5075 125.168 37.0075 125.064 33.9346H122.095V32.4502H125.142V29.6377H122.642V28.1533H125.142V25.0283H126.626C127.043 25.0804 127.069 25.2367 126.705 25.4971V28.1533H129.439V29.6377H126.705V32.4502H129.83V33.9346H126.626C126.626 34.7679 126.6 35.4189 126.548 35.8877ZM146.626 32.1377C147.616 33.4919 148.111 34.8981 148.111 36.3564C148.111 38.3877 147.512 39.4033 146.314 39.4033H145.376L145.064 37.8408H145.845C146.366 37.8408 146.6 37.2939 146.548 36.2002C146.496 34.6898 146.028 33.3617 145.142 32.2158L146.705 27.1377H144.283V42.7627H142.72V25.8877H147.095L147.408 25.4971L148.736 26.6689L148.423 26.9814L146.626 32.1377ZM157.955 36.5127H157.173C156.34 40.3148 153.554 42.5023 148.814 43.0752L148.345 41.5908C152.408 41.2783 154.856 39.5856 155.689 36.5127H154.595C153.71 38.7002 151.835 40.0283 148.97 40.4971L148.501 39.1689C150.897 38.6481 152.382 37.7627 152.955 36.5127H151.705C150.975 37.2419 150.038 37.8148 148.892 38.2314L148.267 36.9033C149.934 36.3825 151.08 35.3929 151.705 33.9346H148.189V32.6846H159.908V33.9346H153.345C153.137 34.4033 152.876 34.846 152.564 35.2627H159.439L159.283 40.1846C159.231 41.8512 158.632 42.6846 157.486 42.6846H155.923L155.689 41.2002H157.017C157.486 41.2002 157.746 40.8877 157.798 40.2627L157.955 36.5127ZM151.314 30.4189H156.626V29.0908H151.314V30.4189ZM151.314 27.8408H156.626V26.5908H151.314V27.8408ZM157.955 25.3408V31.6689H149.986V25.3408H157.955ZM171.236 29.3252H173.345V25.2627H174.83C175.246 25.3148 175.272 25.471 174.908 25.7314V29.3252H179.126V30.8096H174.908V34.5596H178.892V36.0439H174.908V40.6533H180.064V42.1377H168.111V40.6533H173.345V36.0439H169.517V34.5596H173.345V30.8096H170.767C170.403 31.8512 169.83 32.8929 169.048 33.9346L167.72 32.9189C169.074 31.1481 169.96 29.0127 170.376 26.5127L171.861 26.8252C172.278 26.9814 172.278 27.1377 171.861 27.2939L171.236 29.3252ZM164.595 25.0283H166.08C166.496 25.0804 166.522 25.2367 166.158 25.4971V42.8408H164.595V25.0283ZM167.564 28.2314C168.033 28.8564 168.423 29.5596 168.736 30.3408L167.486 31.2002C167.121 30.3148 166.757 29.5856 166.392 29.0127L167.564 28.2314ZM164.126 29.0908C164.491 29.195 164.491 29.3512 164.126 29.5596C164.022 31.2262 163.788 32.7887 163.423 34.2471L161.939 33.7783C162.356 32.4762 162.59 30.8356 162.642 28.8564L164.126 29.0908ZM196.939 33.6221V42.6846H195.376V41.9033H188.345V42.9189H186.783V35.8096C185.429 36.5387 183.97 37.1117 182.408 37.5283L181.861 36.1221C183.319 35.7575 184.96 35.1064 186.783 34.1689V33.6221H187.876C188.97 32.9971 189.908 32.3721 190.689 31.7471H182.486V30.2627H189.361V28.3877H184.517V26.9033H189.361V25.0283H190.845C191.262 25.0804 191.288 25.2367 190.923 25.4971V26.9033H194.673V28.2314C195.298 27.5544 195.923 26.7992 196.548 25.9658L197.642 26.6689C198.007 26.9294 197.955 27.0856 197.486 27.1377C196.496 28.3356 195.507 29.3773 194.517 30.2627H199.908V31.7471H192.876C191.835 32.6325 191.001 33.2575 190.376 33.6221H196.939ZM192.408 30.2627C193.033 29.7939 193.736 29.1689 194.517 28.3877H190.923V30.2627H192.408ZM188.345 36.9814H195.376V34.8721H188.345V36.9814ZM188.345 40.6533H195.376V38.2314H188.345V40.6533ZM215.533 36.9033C216.262 35.4971 216.705 33.3617 216.861 30.4971H214.205C214.361 33.3617 214.804 35.4971 215.533 36.9033ZM218.423 30.4971C218.319 33.7262 217.694 36.3304 216.548 38.3096C217.382 39.3512 218.554 40.2627 220.064 41.0439L219.048 42.7627C217.382 41.6689 216.21 40.6273 215.533 39.6377C214.335 40.9919 212.486 42.1637 209.986 43.1533L209.205 41.5908C211.913 40.4971 213.71 39.3773 214.595 38.2314C213.71 36.5127 213.215 34.7939 213.111 33.0752C212.798 33.8564 212.486 34.4554 212.173 34.8721L210.845 33.8564C212.408 31.5648 213.345 28.7262 213.658 25.3408L215.298 25.7314C215.611 25.9398 215.533 26.096 215.064 26.2002C214.908 27.1377 214.699 28.0752 214.439 29.0127H219.751V30.4971H218.423ZM211.158 26.7471C210.845 27.5283 210.481 28.1794 210.064 28.7002L208.814 27.9971C209.231 27.32 209.621 26.5387 209.986 25.6533L211.392 26.3564C211.6 26.5648 211.522 26.695 211.158 26.7471ZM206.158 37.7627C206.887 37.971 207.538 38.2054 208.111 38.4658C208.528 37.9971 208.866 37.2939 209.126 36.3564H206.861C206.653 36.8252 206.418 37.2939 206.158 37.7627ZM205.064 39.7158L203.814 39.0127C204.335 38.2314 204.856 37.346 205.376 36.3564H202.408V35.1064H205.845C206.158 34.4294 206.392 33.8564 206.548 33.3877L208.033 33.7783C208.241 33.9867 208.163 34.1169 207.798 34.1689L207.33 35.1064H211.783V36.3564H210.611C210.35 37.3981 209.96 38.2835 209.439 39.0127C209.908 39.221 210.403 39.4814 210.923 39.7939L210.22 41.0439C209.647 40.6794 209.126 40.3929 208.658 40.1846C207.304 41.5387 205.481 42.3721 203.189 42.6846L202.642 41.2783C204.673 41.07 206.236 40.4971 207.33 39.5596C206.757 39.2992 206.184 39.0648 205.611 38.8564L205.064 39.7158ZM206.626 25.0283H207.876C208.293 25.0804 208.319 25.2367 207.955 25.4971V28.8564H211.939V30.1064H208.658C209.231 30.7835 210.116 31.4346 211.314 32.0596L210.455 33.3877C209.569 32.8669 208.736 32.1377 207.955 31.2002V33.0752H206.626V31.5908C205.793 32.6325 204.647 33.57 203.189 34.4033L202.173 33.1533C203.788 32.32 205.116 31.3044 206.158 30.1064H202.564V28.8564H206.626V25.0283ZM204.439 28.6221C204.074 27.8408 203.606 27.1637 203.033 26.5908L204.283 25.8096C204.908 26.4346 205.376 27.0856 205.689 27.7627L204.439 28.6221ZM231.783 30.1846C230.897 35.3929 229.83 38.6221 228.58 39.8721C227.903 40.5492 227.199 40.8877 226.47 40.8877C225.637 40.8877 224.986 40.6533 224.517 40.1846C223.267 38.9346 222.642 37.3721 222.642 35.4971C222.642 33.2054 223.449 31.2523 225.064 29.6377C226.835 27.8669 228.996 26.9814 231.548 26.9814C233.84 26.9814 235.637 27.6325 236.939 28.9346C238.397 30.3929 239.126 32.1117 239.126 34.0908C239.126 36.2262 238.449 37.971 237.095 39.3252C236.21 40.2106 234.856 41.07 233.033 41.9033L231.392 40.2627C233.215 39.6898 234.647 38.8825 235.689 37.8408C236.679 36.8512 237.173 35.6533 237.173 34.2471C237.173 32.5804 236.626 31.2002 235.533 30.1064C234.439 29.0127 232.72 28.5179 230.376 28.6221L231.783 29.3252C232.408 29.5856 232.408 29.8721 231.783 30.1846ZM229.986 28.7002C228.632 29.0127 227.46 29.6637 226.47 30.6533C225.116 32.0075 224.439 33.6742 224.439 35.6533C224.439 36.8512 224.83 37.8408 225.611 38.6221C225.767 38.7783 226.001 38.8564 226.314 38.8564C226.626 38.8564 226.965 38.6742 227.33 38.3096C228.528 37.1117 229.413 33.9085 229.986 28.7002ZM247.564 31.8252C249.283 30.2106 250.611 27.8669 251.548 24.7939L253.111 25.2627C253.371 25.471 253.319 25.6012 252.955 25.6533C252.538 26.695 252.121 27.6585 251.705 28.5439H254.048C254.621 27.346 255.064 26.2783 255.376 25.3408L256.861 25.8877C257.069 26.096 256.991 26.2262 256.626 26.2783C256.262 27.1117 255.897 27.8669 255.533 28.5439H259.517V30.0283H255.533V32.4502H258.736V33.9346H255.533V36.4346H258.736V37.9189H255.533V40.8096H259.986V42.2939H251.392V42.9971H249.83V31.6689C249.465 32.1898 249.074 32.6585 248.658 33.0752L247.564 31.8252ZM243.658 42.8408L243.345 41.3564H244.673C244.882 41.3564 244.986 41.2523 244.986 41.0439V36.2002L242.955 36.6689C242.903 37.0335 242.772 37.1117 242.564 36.9033L242.251 35.1064L244.986 34.5596V30.4189H242.564V28.9346H244.986V24.9502H246.47C246.887 25.0023 246.913 25.1585 246.548 25.4189V28.9346H248.58V30.4189H246.548V34.2471L248.58 33.7002L248.814 35.1064L246.548 35.8096V41.5908C246.548 42.4242 246.132 42.8408 245.298 42.8408H243.658ZM251.392 40.8096H253.97V37.9189H251.392V40.8096ZM251.392 36.4346H253.97V33.9346H251.392V36.4346ZM251.392 32.4502H253.97V30.0283H251.392V32.4502ZM277.642 27.1377L277.876 26.8252L279.126 27.8408L278.892 28.0752C277.538 30.4189 276.21 31.9814 274.908 32.7627L275.689 32.9971C276.054 33.1533 276.028 33.3096 275.611 33.4658C275.507 33.8304 275.376 34.1429 275.22 34.4033H278.58L278.814 34.0908L280.22 35.1064L279.908 35.4189C278.241 39.846 274.856 42.346 269.751 42.9189L269.126 41.4346C271.574 41.1742 273.501 40.5231 274.908 39.4814C274.179 38.7523 273.449 38.1273 272.72 37.6064C272.043 38.1794 271.132 38.7002 269.986 39.1689L269.283 37.7627C271.835 36.721 273.501 35.1325 274.283 32.9971C273.501 33.7262 272.095 34.3512 270.064 34.8721L269.361 33.4658C271.34 33.0492 272.824 32.5023 273.814 31.8252C273.293 31.2002 272.668 30.6533 271.939 30.1846C271.574 30.5492 271.21 30.8617 270.845 31.1221L269.751 29.9502C271.47 28.4919 272.564 26.9294 273.033 25.2627L274.439 25.7314C274.804 25.8877 274.778 26.0439 274.361 26.2002C274.309 26.5127 274.179 26.8252 273.97 27.1377H277.642ZM267.017 30.1846H269.595V31.6689H267.017V33.6221C268.059 34.0908 269.048 34.7939 269.986 35.7314L268.97 37.1377C268.137 36.3044 267.486 35.7054 267.017 35.3408V42.9189H265.455V35.1846C265.142 36.2262 264.283 37.5544 262.876 39.1689L261.705 37.6846C263.632 35.8617 264.83 33.8564 265.298 31.6689H262.251V30.1846H265.455V27.6064C264.413 27.7627 263.475 27.8929 262.642 27.9971L262.251 26.5127C264.335 26.3044 266.496 25.8877 268.736 25.2627L269.595 26.4346C269.804 26.7471 269.673 26.8512 269.205 26.7471C268.475 26.9554 267.746 27.1377 267.017 27.2939V30.1846ZM272.72 29.2471C273.501 29.6637 274.257 30.1846 274.986 30.8096C275.767 30.0804 276.418 29.2731 276.939 28.3877H273.345C273.137 28.7523 272.929 29.0387 272.72 29.2471ZM273.58 36.6689C274.309 37.0856 275.142 37.7106 276.08 38.5439C276.861 37.971 277.538 37.0075 278.111 35.6533H274.517C274.205 36.07 273.892 36.4085 273.58 36.6689ZM285.611 29.3252C286.184 28.1273 287.147 26.9033 288.501 25.6533L289.361 26.4346C288.059 27.6325 287.147 28.7783 286.626 29.8721C286.054 31.07 285.767 32.5023 285.767 34.1689C285.767 35.5752 286.054 36.9033 286.626 38.1533C287.147 39.2992 288.059 40.5752 289.361 41.9814L288.501 42.8408C287.199 41.3825 286.236 40.0023 285.611 38.7002C284.934 37.2939 284.595 35.7835 284.595 34.1689C284.595 32.346 284.934 30.7314 285.611 29.3252ZM296.705 41.9033H294.908V26.8252H307.173V41.5908H305.376V40.4971H296.705V41.9033ZM305.376 32.7627V28.3096H296.705V32.7627H305.376ZM305.376 39.0127V34.2471H296.705V39.0127H305.376ZM320.142 35.8096H317.173C316.705 38.7783 315.298 41.1221 312.955 42.8408L312.173 41.3564C314.465 39.7419 315.715 37.346 315.923 34.1689L316.08 31.7471H314.986V32.7627H313.423V26.0439H321.314V32.4502H319.751V31.7471H317.486L317.33 34.3252H321.705L321.314 40.4971C321.21 41.7471 320.689 42.3721 319.751 42.3721H317.642L317.408 40.8877H319.126C319.595 40.8877 319.856 40.6273 319.908 40.1064L320.142 35.8096ZM328.58 41.2002C328.58 42.0856 328.163 42.5283 327.33 42.5283H325.611L325.298 41.0439H326.783C326.939 41.0439 327.017 40.9658 327.017 40.8096V25.8096H328.501C328.918 25.8617 328.944 26.0179 328.58 26.2783V41.2002ZM324.83 27.6846C325.246 27.7367 325.272 27.8929 324.908 28.1533V38.8564H323.345V27.6846H324.83ZM319.751 30.4971V27.2939H314.986V30.4971H319.751ZM336.314 38.7002C335.689 40.0023 334.725 41.3825 333.423 42.8408L332.564 41.9814C333.866 40.5752 334.778 39.2992 335.298 38.1533C335.871 36.9033 336.158 35.5752 336.158 34.1689C336.158 32.5023 335.871 31.07 335.298 29.8721C334.778 28.7783 333.866 27.6325 332.564 26.4346L333.423 25.6533C334.778 26.9033 335.741 28.1273 336.314 29.3252C336.991 30.7314 337.33 32.346 337.33 34.1689C337.33 35.7835 336.991 37.2939 336.314 38.7002Z" fill="#757575"/>
</g>
<rect x="2" y="2" width="714" height="440" stroke="black" stroke-width="4"/>
<defs>
<clipPath id="clip0_7_38388">
<rect width="718" height="444" fill="white"/>
</clipPath>
</defs>
</svg>
