<svg width="718" height="444" viewBox="0 0 718 444" fill="none" xmlns="http://www.w3.org/2000/svg">
<g clip-path="url(#clip0_7_39420)">
<path d="M0 0H718V444H0V0Z" fill="white"/>
<path d="M181.5 91.5V369.5" stroke="#CCCCCC" stroke-miterlimit="10"/>
<path d="M303.5 91.5V369.5" stroke="#CCCCCC" stroke-miterlimit="10"/>
<path d="M424.5 91.5V369.5" stroke="#CCCCCC" stroke-miterlimit="10"/>
<path d="M545.5 91.5V369.5" stroke="#CCCCCC" stroke-miterlimit="10"/>
<path d="M667.5 91.5V369.5" stroke="#CCCCCC" stroke-miterlimit="10"/>
<path d="M88.5 369.5H695.5" stroke="#333333" stroke-miterlimit="10"/>
<path d="M88.5 314.5H695.5" stroke="#CCCCCC" stroke-miterlimit="10"/>
<path d="M88.5 258.5H695.5" stroke="#CCCCCC" stroke-miterlimit="10"/>
<path d="M88.5 202.5H695.5" stroke="#CCCCCC" stroke-miterlimit="10"/>
<path d="M88.5 147.5H695.5" stroke="#CCCCCC" stroke-miterlimit="10"/>
<path d="M88.5 91.5H695.5" stroke="#CCCCCC" stroke-miterlimit="10"/>
<path d="M88.2 369.8H88.807H89.414H90.021H90.628H91.235H91.842H92.449H93.0559H93.6629H94.2699H94.8769H95.4839H96.0909H96.6979H97.3049H97.9119H98.5189H99.1259H99.7329H100.34H100.947H101.554H102.161H102.768H103.375H103.982H104.589L105.196 369.689H105.803L106.41 369.466L107.017 369.8L107.624 369.355L108.231 369.466L108.838 369.8H109.445H110.052L110.659 369.689L111.266 369.8H111.873H112.48H113.087H113.694H114.301H114.908H115.515H116.122H116.729H117.336L117.943 369.689L118.55 369.8H119.157H119.764H120.371H120.978H121.585H122.192H122.799H123.406L124.013 369.689L124.62 369.8H125.227H125.834L126.441 369.577L127.048 369.8H127.655H128.262H128.869H129.476H130.083H130.69H131.297H131.904H132.51L133.117 369.689L133.724 369.8L134.331 369.689L134.938 369.577L135.545 369.689L136.152 369.8L136.759 369.577L137.366 369.243L137.973 369.577L138.58 369.466H139.187L139.794 369.689L140.401 369.8L141.008 369.689L141.615 369.8L142.222 369.577H142.829L143.436 369.689L144.043 369.8L144.65 369.689L145.257 369.8H145.864L146.471 369.577H147.078L147.685 369.689L148.292 369.243L148.899 369.577L149.506 369.689H150.113H150.72L151.327 369.8L151.934 369.577L152.541 369.8H153.148H153.755H154.362H154.969H155.576H156.183H156.79H157.397H158.004H158.611L159.218 369.577L159.825 369.8H160.432H161.039H161.646H162.253H162.86H163.467H164.074H164.681H165.288H165.895H166.502H167.109H167.716H168.323H168.93H169.537H170.144H170.751H171.358H171.965H172.572H173.179H173.786H174.393H175H175.607H176.214H176.821H177.428H178.035H178.642H179.249H179.856H180.463H181.07H181.677H182.284H182.891H183.498H184.105L184.712 369.689L185.319 369.8H185.926H186.533H187.14H187.747H188.354H188.961H189.568H190.175H190.782H191.389H191.996H192.603H193.21H193.817L194.424 369.577L195.031 369.243L195.638 369.355L196.245 369.243L196.852 369.466L197.459 369.689L198.066 369.8H198.673L199.28 369.466L199.887 369.577L200.494 369.8L201.101 369.355L201.708 369.466L202.315 369.355L202.922 368.798L203.529 369.466L204.136 369.355L204.743 369.132L205.35 368.909L205.957 369.355L206.564 369.132L207.171 369.577L207.778 368.909L208.385 368.353L208.992 369.355L209.599 369.577L210.206 369.689L210.813 369.466L211.42 369.8H212.027L212.634 369.689L213.241 369.243L213.848 369.466L214.455 369.577H215.062L215.669 369.466L216.276 369.689L216.883 369.355L217.49 369.577H218.096L218.703 368.575L219.31 369.132L219.917 369.355H220.524L221.131 369.577L221.738 369.8L222.345 369.577L222.952 369.8L223.559 369.689L224.166 369.8H224.773L225.38 369.577L225.987 369.8H226.594H227.201L227.808 369.689L228.415 369.8H229.022L229.629 369.689H230.236H230.843H231.45L232.057 369.8H232.664L233.271 369.689L233.878 369.8H234.485H235.092H235.699H236.306H236.913H237.52H238.127H238.734H239.341L239.948 369.689H240.555L241.162 369.8H241.769H242.376L242.983 369.577L243.59 369.8L244.197 369.689H244.804L245.411 369.8H246.018H246.625H247.232H247.839L248.446 369.689L249.053 369.8L249.66 369.689L250.267 369.132L250.874 369.8H251.481H252.088L252.695 369.466L253.302 369.8L253.909 369.577L254.516 369.8L255.123 369.689L255.73 369.8H256.337L256.944 369.355L257.551 369.689L258.158 369.132L258.765 369.577H259.372H259.979L260.586 369.8H261.193L261.8 369.689L262.407 369.8L263.014 369.689H263.621L264.228 369.8L264.835 369.577L265.442 369.8L266.049 369.689L266.656 369.577L267.263 369.8L267.87 369.132L268.477 369.577L269.084 369.689L269.691 369.577L270.298 369.021L270.905 369.132L271.512 369.243L272.119 368.687L272.726 368.909L273.333 369.021L273.94 369.243L274.547 368.909L275.154 368.13L275.761 368.575L276.368 369.021L276.975 369.243L277.582 368.575L278.189 368.909L278.796 369.243L279.403 369.132L280.01 368.242L280.617 368.909L281.224 368.687L281.831 369.132L282.438 368.687L283.045 368.798L283.652 369.021H284.259L284.866 369.243L285.473 368.353L286.08 369.355L286.687 368.798L287.294 368.464L287.901 368.687L288.508 369.021L289.115 369.132L289.722 369.466H290.329L290.936 369.243L291.543 369.132L292.15 369.577H292.757L293.364 369.689L293.971 369.243L294.578 369.355L295.185 369.243L295.792 369.466L296.399 369.8L297.006 369.689L297.613 369.466L298.22 369.577H298.827H299.434L300.041 369.021L300.648 368.798L301.255 368.353L301.862 368.575L302.469 368.464L303.076 368.798L303.683 367.908L304.29 367.796L304.897 367.462L305.504 368.019L306.111 368.13H306.717L307.324 368.242L307.931 368.798L308.538 368.464L309.145 367.462L309.752 367.908L310.359 368.019L310.966 368.353L311.573 367.574L312.18 367.685L312.787 367.128L313.394 367.574L314.001 367.908L314.608 368.687L315.215 367.908L315.822 368.798L316.429 368.687L317.036 368.353L317.643 368.909L318.25 368.13L318.857 369.021L319.464 368.798L320.071 369.577L320.678 369.132L321.285 368.242L321.892 369.132L322.499 369.021L323.106 368.909L323.713 369.577L324.32 369.466L324.927 369.577L325.534 369.243L326.141 368.575H326.748L327.355 369.466L327.962 369.355H328.569L329.176 369.577L329.783 369.689L330.39 369.577H330.997L331.604 369.689L332.211 369.8H332.818L333.425 369.689H334.032L334.639 369.8H335.246L335.853 369.689H336.46H337.067L337.674 369.8H338.281L338.888 369.577L339.495 369.689L340.102 369.8H340.709H341.316L341.923 369.689L342.53 369.577L343.137 369.689H343.744L344.351 369.8L344.958 369.132L345.565 369.689L346.172 369.466L346.779 369.243L347.386 369.577H347.993L348.6 369.132L349.207 369.243L349.814 369.577L350.421 368.798L351.028 369.021L351.635 368.909L352.242 368.575L352.849 369.243L353.456 369.355L354.063 368.798L354.67 368.019L355.277 368.242L355.884 367.908L356.491 368.13L357.098 367.908L357.705 368.242H358.312L358.919 367.574L359.526 365.57L360.133 366.238L360.74 364.902L361.347 367.24L361.954 366.683L362.561 368.687L363.168 366.46L363.775 364.902L364.382 366.126H364.989L365.596 365.904L366.203 364.902L366.81 366.572L367.417 363.677L368.024 365.792L368.631 364.791L369.238 365.792L369.845 366.349L370.452 367.24L371.059 368.019L371.666 366.794L372.273 366.906L372.88 365.792L373.487 367.574L374.094 367.128L374.701 365.459L375.308 368.13L375.915 367.351L376.522 367.24H377.129L377.736 367.685H378.343L378.95 367.908L379.557 368.575L380.164 367.685L380.771 367.017L381.378 366.683L381.985 368.464L382.592 367.908L383.199 368.464L383.806 369.355L384.413 368.019L385.02 368.242L385.627 368.687L386.234 368.13L386.841 367.796L387.448 369.466L388.055 369.355L388.662 369.021L389.269 368.464L389.876 368.909L390.483 369.689L391.09 367.908L391.697 369.243L392.304 369.689L392.911 369.466L393.518 368.909L394.124 369.355L394.731 369.8L395.338 369.577H395.945L396.552 369.689L397.159 369.577H397.766L398.373 369.132L398.98 369.689L399.587 369.466L400.194 369.689L400.801 369.8L401.408 369.577L402.015 369.8L402.622 369.689H403.229H403.836L404.443 369.466L405.05 369.8L405.657 369.466H406.264L406.871 369.243L407.478 369.8L408.085 369.689H408.692L409.299 369.466L409.906 369.355L410.513 369.466L411.12 369.132L411.727 369.689L412.334 369.466L412.941 369.8H413.548H414.155L414.762 369.355L415.369 369.466H415.976L416.583 369.689L417.19 369.132L417.797 369.577L418.404 369.466L419.011 369.689L419.618 369.132L420.225 369.577L420.832 369.132L421.439 368.464L422.046 369.132L422.653 369.466L423.26 368.909L423.867 368.687L424.474 368.019L425.081 368.687L425.688 368.798H426.295L426.902 368.019L427.509 366.794L428.116 365.013L428.723 365.57L429.33 366.015L429.937 366.126L430.544 365.347L431.151 366.126L431.758 365.459L432.365 367.017L432.972 366.46L433.579 365.681L434.186 367.017L434.793 367.574L435.4 367.685L436.007 365.792L436.614 366.349L437.221 364.791L437.828 365.347L438.435 364.123L439.042 365.125L439.649 362.342L440.256 362.676L440.863 360.449L441.47 359.781L442.077 360.894L442.684 361.562L443.291 362.342L443.898 359.781L444.505 360.338L445.112 361.451L445.719 363.677L446.326 361.896L446.933 365.57L447.54 365.125L448.147 362.23H448.754L449.361 363.455L449.968 363.566L450.575 361.562L451.182 365.459L451.789 366.906L452.396 365.125L453.003 366.238L453.61 367.462L454.217 366.126L454.824 367.574L455.431 368.575L456.038 369.355L456.645 366.794L457.252 367.574L457.859 368.575L458.466 365.347L459.073 368.242L459.68 366.906L460.287 369.021L460.894 369.132L461.501 369.577L462.108 367.128L462.715 367.685L463.322 366.46L463.929 369.466L464.536 367.24L465.143 369.021L465.75 368.909L466.357 369.8L466.964 369.355L467.571 368.575L468.178 369.577L468.785 369.355L469.392 368.575L469.999 369.243L470.606 369.132L471.213 369.577L471.82 369.243L472.427 369.8L473.034 369.689H473.641H474.248L474.855 369.355L475.462 369.577L476.069 369.8H476.676H477.283H477.89L478.497 369.577L479.104 369.8L479.71 369.577L480.317 369.689L480.924 369.8L481.531 369.689H482.138L482.745 369.8L483.352 369.689L483.959 369.8L484.566 369.689L485.173 369.8H485.78L486.387 369.466L486.994 369.8H487.601H488.208H488.815H489.422H490.029L490.636 369.689L491.243 369.8H491.85L492.457 369.689L493.064 369.8L493.671 369.689H494.278L494.885 369.8H495.492H496.099H496.706H497.313H497.92H498.527L499.134 369.689L499.741 369.8H500.348H500.955L501.562 369.577L502.169 369.8H502.776H503.383L503.99 369.689L504.597 369.8H505.204H505.811H506.418H507.025H507.632L508.239 369.689L508.846 369.8H509.453H510.06H510.667H511.274H511.881H512.488H513.095H513.702H514.309H514.916H515.523H516.13H516.737H517.344H517.951H518.558H519.165H519.772H520.379L520.986 369.689H521.593L522.2 369.8L522.807 369.689L523.414 369.8H524.021L524.628 369.577L525.235 369.243L525.842 368.464L526.449 369.132L527.056 368.909L527.663 367.574L528.27 368.353L528.877 365.792L529.484 358.779L530.091 355.217L530.698 355.885L531.305 350.876L531.912 358.223L532.519 353.77L533.126 338.853L533.733 345.087L534.34 349.762L534.947 336.293L535.554 330.949L536.161 338.742L536.768 340.857L537.375 322.6L537.982 320.151L538.589 309.91L539.196 322.6L539.803 310.244L540.41 326.719L541.017 339.41L541.624 300.893L542.231 316.032L542.838 315.031L543.445 318.593L544.052 311.357L544.659 329.613L545.266 339.187L545.873 297.999L546.48 316.144L547.087 319.261L547.694 323.602L548.301 335.625L548.908 322.044L549.515 349.762L550.122 314.251L550.729 321.376L551.336 334.289L551.943 336.293L552.55 341.191L553.157 341.079L553.764 351.544L554.371 321.264L554.978 338.185L555.585 356.776L556.192 336.07L556.799 343.528L557.406 350.764L558.013 355.885L558.62 339.966L559.227 341.97L559.834 348.315L560.441 351.989L561.048 345.755L561.655 352.991L562.262 358.891L562.869 346.979L563.476 350.987L564.083 349.651L564.689 353.659L565.296 352.991L565.903 358.668L566.51 358.111L567.117 347.647L567.724 356.664L568.331 353.659L568.938 355.551L569.545 359.002L570.152 358.891L570.759 358.445L571.366 363.121L571.973 347.87L572.58 353.77L573.187 354.104L573.794 358L574.401 355.774L575.008 361.228L575.615 343.195L576.222 346.757L576.829 350.764L577.436 349.762L578.043 347.647L578.65 358.779L579.257 359.67L579.864 340.078L580.471 346.2L581.078 340.078L581.685 349.985L582.292 350.542L582.899 358.668L583.506 351.321L584.113 325.94L584.72 326.385L585.327 334.957L585.934 345.644L586.541 345.532L587.148 350.319L587.755 359.225L588.362 329.057L588.969 343.083L589.576 350.208L590.183 349.317L590.79 337.74L591.397 355.328L592.004 361.228L592.611 337.851L593.218 341.859L593.825 348.649L594.432 350.653L595.039 360.672L595.646 356.998L596.253 359.002L596.86 342.638L597.467 357.555L598.074 356.442L598.681 354.994L599.288 344.53L599.895 344.642L600.502 352.768L601.109 330.727L601.716 339.966L602.323 346.757L602.93 335.736L603.537 341.747L604.144 352.545L604.751 360.115L605.358 336.738L605.965 339.855L606.572 345.644L607.179 345.755L607.786 344.753L608.393 359.559L609 349.762L609.607 347.425L610.214 342.972L610.821 355.996L611.428 354.883L612.035 354.66L612.642 360.449L613.249 366.015L613.856 357.777L614.463 359.893L615.07 362.898L615.677 358L616.284 361.006L616.891 362.787L617.498 366.126L618.105 356.776L618.712 362.564L619.319 363.789H619.926L620.533 363.9L621.14 364.123L621.747 365.792L622.354 362.787L622.961 362.342L623.568 364.234L624.175 362.676L624.782 364.568L625.389 364.123L625.996 364.679L626.603 361.006L627.21 360.449L627.817 360.894L628.424 362.008L629.031 361.451L629.638 361.006L630.245 363.455L630.852 350.653L631.459 355.44L632.066 348.427L632.673 348.872L633.28 348.761L633.887 345.421L634.494 355.328L635.101 338.742L635.708 336.404L636.315 334.846L636.922 322.823L637.529 325.049L638.136 323.714L638.743 329.613L639.35 302.006L639.957 299.668L640.564 305.791L641.171 299.446L641.778 298.11L642.385 281.746L642.992 319.817L643.599 326.385L644.206 286.755L644.813 215.733L645.42 237.886L646.027 276.18L646.634 232.431L647.241 305.902L647.848 241.448L648.455 233.433L649.062 221.744L649.669 212.505L650.275 236.773L650.882 225.307L651.489 276.403L652.096 213.173L652.703 184.675L653.31 196.252L653.917 205.714L654.524 222.635L655.131 186.679L655.738 182.114L656.345 150.166L656.952 178.107L657.559 153.728L658.166 152.949L658.773 218.182L659.38 211.726L659.987 208.72L660.594 215.399L661.201 197.254L661.808 125.898L662.415 104.747L663.022 109.979L663.629 152.503L664.236 212.727L664.843 188.571L665.45 174.433L666.057 145.268L666.664 174.211L667.271 216.178L667.878 215.51L668.485 267.942L669.092 257.144L669.699 190.352L670.306 255.14L670.913 279.408L671.52 263.601L672.127 279.297L672.734 310.021L673.341 290.985L673.948 245.901L674.555 268.276L675.162 293.101L675.769 311.914L676.376 282.748L676.983 327.832L677.59 296.329L678.197 296.217L678.804 294.993L679.411 312.804L680.018 318.036L680.625 321.487L681.232 322.934L681.839 348.649L682.446 303.119L683.053 291.987L683.66 327.164L684.267 327.053L684.874 333.287L685.481 338.519L686.088 355.106L686.695 329.725L687.302 338.742L687.909 337.962L688.516 343.64L689.123 337.74L689.73 353.993L690.337 346.2L690.944 340.523L691.551 335.179L692.158 342.861L692.765 347.202L693.372 343.417L693.979 351.544L694.586 356.219L695.193 347.091L695.8 313.138" stroke="#4285F4" stroke-width="2" stroke-miterlimit="10"/>
<path d="M379.922 418.8V410.206H382.891C383.557 410.206 384.068 410.248 384.422 410.331C384.911 410.446 385.328 410.649 385.672 410.94C386.13 411.326 386.469 411.821 386.688 412.425C386.917 413.019 387.031 413.696 387.031 414.456C387.031 415.112 386.953 415.69 386.797 416.19C386.651 416.69 386.458 417.107 386.219 417.44C385.979 417.774 385.714 418.034 385.422 418.222C385.141 418.409 384.802 418.555 384.406 418.659C384.01 418.753 383.552 418.8 383.031 418.8H379.922ZM381.062 417.784H382.891C383.464 417.784 383.911 417.732 384.234 417.628C384.557 417.524 384.812 417.373 385 417.175C385.271 416.914 385.479 416.555 385.625 416.097C385.781 415.638 385.859 415.086 385.859 414.44C385.859 413.545 385.708 412.857 385.406 412.378C385.115 411.888 384.76 411.56 384.344 411.394C384.031 411.279 383.542 411.222 382.875 411.222H381.062V417.784ZM392.859 418.034C392.464 418.368 392.083 418.602 391.719 418.737C391.365 418.873 390.979 418.94 390.562 418.94C389.875 418.94 389.349 418.774 388.984 418.44C388.62 418.107 388.438 417.68 388.438 417.159C388.438 416.857 388.505 416.581 388.641 416.331C388.776 416.071 388.958 415.868 389.188 415.722C389.417 415.565 389.672 415.451 389.953 415.378C390.151 415.315 390.464 415.258 390.891 415.206C391.734 415.112 392.359 414.993 392.766 414.847C392.766 414.701 392.766 414.612 392.766 414.581C392.766 414.144 392.667 413.836 392.469 413.659C392.198 413.43 391.797 413.315 391.266 413.315C390.776 413.315 390.411 413.404 390.172 413.581C389.932 413.748 389.755 414.05 389.641 414.487L388.609 414.347C388.703 413.909 388.859 413.555 389.078 413.284C389.297 413.013 389.609 412.805 390.016 412.659C390.422 412.513 390.891 412.44 391.422 412.44C391.953 412.44 392.385 412.503 392.719 412.628C393.052 412.753 393.297 412.909 393.453 413.097C393.609 413.284 393.719 413.524 393.781 413.815C393.812 413.993 393.828 414.315 393.828 414.784V416.19C393.828 417.17 393.849 417.789 393.891 418.05C393.943 418.31 394.036 418.56 394.172 418.8H393.062C392.958 418.581 392.891 418.326 392.859 418.034ZM392.766 415.675C392.38 415.831 391.807 415.966 391.047 416.081C390.609 416.144 390.302 416.216 390.125 416.3C389.948 416.373 389.807 416.482 389.703 416.628C389.609 416.774 389.562 416.94 389.562 417.128C389.562 417.409 389.667 417.644 389.875 417.831C390.094 418.019 390.406 418.112 390.812 418.112C391.219 418.112 391.578 418.024 391.891 417.847C392.214 417.67 392.448 417.425 392.594 417.112C392.708 416.873 392.766 416.524 392.766 416.065V415.675ZM398.094 417.862L398.25 418.784C397.948 418.847 397.682 418.878 397.453 418.878C397.068 418.878 396.771 418.821 396.562 418.706C396.354 418.581 396.203 418.42 396.109 418.222C396.026 418.024 395.984 417.607 395.984 416.972V413.394H395.219V412.581H395.984V411.034L397.031 410.409V412.581H398.094V413.394H397.031V417.034C397.031 417.336 397.047 417.529 397.078 417.612C397.12 417.696 397.182 417.763 397.266 417.815C397.349 417.868 397.469 417.894 397.625 417.894C397.75 417.894 397.906 417.883 398.094 417.862ZM403.047 416.8L404.141 416.925C403.974 417.56 403.656 418.055 403.188 418.409C402.719 418.763 402.125 418.94 401.406 418.94C400.5 418.94 399.776 418.659 399.234 418.097C398.703 417.534 398.438 416.748 398.438 415.737C398.438 414.696 398.708 413.888 399.25 413.315C399.792 412.732 400.49 412.44 401.344 412.44C402.177 412.44 402.854 412.722 403.375 413.284C403.906 413.847 404.172 414.644 404.172 415.675C404.172 415.737 404.172 415.831 404.172 415.956H399.531C399.573 416.644 399.766 417.17 400.109 417.534C400.453 417.888 400.885 418.065 401.406 418.065C401.792 418.065 402.12 417.966 402.391 417.769C402.672 417.56 402.891 417.237 403.047 416.8ZM399.594 415.097H403.062C403.021 414.565 402.891 414.17 402.672 413.909C402.328 413.503 401.891 413.3 401.359 413.3C400.87 413.3 400.458 413.461 400.125 413.784C399.802 414.107 399.625 414.545 399.594 415.097Z" fill="black"/>
<path d="M33.2 265.229L24.6062 267.51V266.338L30.2469 265.025C30.8302 264.89 31.4135 264.77 31.9969 264.666C31.0802 264.447 30.5489 264.317 30.4031 264.275L24.6062 262.65V261.275L28.95 260.041C30.0333 259.739 31.0489 259.515 31.9969 259.369C31.4552 259.265 30.8302 259.124 30.1219 258.947L24.6062 257.604V256.463L33.2 258.807V259.916L26.6531 261.713C26.1114 261.869 25.7781 261.963 25.6531 261.994C26.0385 262.077 26.3719 262.161 26.6531 262.244L33.2 264.057V265.229ZM32.4344 251.791C32.7677 252.187 33.0021 252.567 33.1375 252.932C33.2729 253.286 33.3406 253.671 33.3406 254.088C33.3406 254.775 33.1739 255.301 32.8406 255.666C32.5073 256.031 32.0802 256.213 31.5594 256.213C31.2573 256.213 30.9812 256.145 30.7312 256.01C30.4708 255.874 30.2677 255.692 30.1219 255.463C29.9656 255.234 29.851 254.979 29.7781 254.697C29.7156 254.499 29.6583 254.187 29.6062 253.76C29.5125 252.916 29.3927 252.291 29.2469 251.885C29.101 251.885 29.0125 251.885 28.9812 251.885C28.5437 251.885 28.2364 251.984 28.0594 252.182C27.8302 252.452 27.7156 252.854 27.7156 253.385C27.7156 253.874 27.8041 254.239 27.9812 254.479C28.1479 254.718 28.45 254.895 28.8875 255.01L28.7469 256.041C28.3094 255.947 27.9552 255.791 27.6844 255.572C27.4135 255.354 27.2052 255.041 27.0594 254.635C26.9135 254.229 26.8406 253.76 26.8406 253.229C26.8406 252.697 26.9031 252.265 27.0281 251.932C27.1531 251.598 27.3094 251.354 27.4969 251.197C27.6844 251.041 27.9239 250.932 28.2156 250.869C28.3927 250.838 28.7156 250.822 29.1844 250.822H30.5906C31.5698 250.822 32.1896 250.801 32.45 250.76C32.7104 250.708 32.9604 250.614 33.2 250.479V251.588C32.9812 251.692 32.726 251.76 32.4344 251.791ZM30.075 251.885C30.2312 252.27 30.3666 252.843 30.4812 253.604C30.5437 254.041 30.6166 254.348 30.7 254.525C30.7729 254.702 30.8823 254.843 31.0281 254.947C31.1739 255.041 31.3406 255.088 31.5281 255.088C31.8094 255.088 32.0437 254.984 32.2312 254.775C32.4187 254.557 32.5125 254.244 32.5125 253.838C32.5125 253.432 32.4239 253.072 32.2469 252.76C32.0698 252.437 31.825 252.202 31.5125 252.057C31.2729 251.942 30.9239 251.885 30.4656 251.885H30.075ZM33.2 248.854H24.6062V247.791H29.5125L26.9812 245.307V243.932L29.2781 246.322L33.2 243.697V244.994L30.0125 247.057L30.7312 247.791H33.2V248.854ZM32.4344 238.791C32.7677 239.187 33.0021 239.567 33.1375 239.932C33.2729 240.286 33.3406 240.671 33.3406 241.088C33.3406 241.775 33.1739 242.301 32.8406 242.666C32.5073 243.031 32.0802 243.213 31.5594 243.213C31.2573 243.213 30.9812 243.145 30.7312 243.01C30.4708 242.874 30.2677 242.692 30.1219 242.463C29.9656 242.234 29.851 241.979 29.7781 241.697C29.7156 241.499 29.6583 241.187 29.6062 240.76C29.5125 239.916 29.3927 239.291 29.2469 238.885C29.101 238.885 29.0125 238.885 28.9812 238.885C28.5437 238.885 28.2364 238.984 28.0594 239.182C27.8302 239.452 27.7156 239.854 27.7156 240.385C27.7156 240.874 27.8041 241.239 27.9812 241.479C28.1479 241.718 28.45 241.895 28.8875 242.01L28.7469 243.041C28.3094 242.947 27.9552 242.791 27.6844 242.572C27.4135 242.354 27.2052 242.041 27.0594 241.635C26.9135 241.229 26.8406 240.76 26.8406 240.229C26.8406 239.697 26.9031 239.265 27.0281 238.932C27.1531 238.598 27.3094 238.354 27.4969 238.197C27.6844 238.041 27.9239 237.932 28.2156 237.869C28.3927 237.838 28.7156 237.822 29.1844 237.822H30.5906C31.5698 237.822 32.1896 237.801 32.45 237.76C32.7104 237.708 32.9604 237.614 33.2 237.479V238.588C32.9812 238.692 32.726 238.76 32.4344 238.791ZM30.075 238.885C30.2312 239.27 30.3666 239.843 30.4812 240.604C30.5437 241.041 30.6166 241.348 30.7 241.525C30.7729 241.702 30.8823 241.843 31.0281 241.947C31.1739 242.041 31.3406 242.088 31.5281 242.088C31.8094 242.088 32.0437 241.984 32.2312 241.775C32.4187 241.557 32.5125 241.244 32.5125 240.838C32.5125 240.432 32.4239 240.072 32.2469 239.76C32.0698 239.437 31.825 239.202 31.5125 239.057C31.2729 238.942 30.9239 238.885 30.4656 238.885H30.075ZM35.5906 235.9L34.6062 236.025C34.6687 235.796 34.7 235.593 34.7 235.416C34.7 235.187 34.6583 235.005 34.575 234.869C34.5021 234.723 34.3979 234.604 34.2625 234.51C34.1479 234.447 33.8823 234.338 33.4656 234.182C33.4135 234.171 33.3302 234.14 33.2156 234.088L26.9812 236.463V235.322L30.575 234.025C31.0333 233.859 31.5177 233.708 32.0281 233.572C31.5385 233.447 31.0646 233.301 30.6062 233.135L26.9812 231.807V230.76L33.3094 233.119C33.9864 233.38 34.4552 233.577 34.7156 233.713C35.0698 233.9 35.325 234.119 35.4812 234.369C35.6479 234.609 35.7312 234.895 35.7312 235.229C35.7312 235.426 35.6844 235.65 35.5906 235.9ZM32.4344 226.791C32.7677 227.187 33.0021 227.567 33.1375 227.932C33.2729 228.286 33.3406 228.671 33.3406 229.088C33.3406 229.775 33.1739 230.301 32.8406 230.666C32.5073 231.031 32.0802 231.213 31.5594 231.213C31.2573 231.213 30.9812 231.145 30.7312 231.01C30.4708 230.874 30.2677 230.692 30.1219 230.463C29.9656 230.234 29.851 229.979 29.7781 229.697C29.7156 229.499 29.6583 229.187 29.6062 228.76C29.5125 227.916 29.3927 227.291 29.2469 226.885C29.101 226.885 29.0125 226.885 28.9812 226.885C28.5437 226.885 28.2364 226.984 28.0594 227.182C27.8302 227.452 27.7156 227.854 27.7156 228.385C27.7156 228.874 27.8041 229.239 27.9812 229.479C28.1479 229.718 28.45 229.895 28.8875 230.01L28.7469 231.041C28.3094 230.947 27.9552 230.791 27.6844 230.572C27.4135 230.354 27.2052 230.041 27.0594 229.635C26.9135 229.229 26.8406 228.76 26.8406 228.229C26.8406 227.697 26.9031 227.265 27.0281 226.932C27.1531 226.598 27.3094 226.354 27.4969 226.197C27.6844 226.041 27.9239 225.932 28.2156 225.869C28.3927 225.838 28.7156 225.822 29.1844 225.822H30.5906C31.5698 225.822 32.1896 225.801 32.45 225.76C32.7104 225.708 32.9604 225.614 33.2 225.479V226.588C32.9812 226.692 32.726 226.76 32.4344 226.791ZM30.075 226.885C30.2312 227.27 30.3666 227.843 30.4812 228.604C30.5437 229.041 30.6166 229.348 30.7 229.525C30.7729 229.702 30.8823 229.843 31.0281 229.947C31.1739 230.041 31.3406 230.088 31.5281 230.088C31.8094 230.088 32.0437 229.984 32.2312 229.775C32.4187 229.557 32.5125 229.244 32.5125 228.838C32.5125 228.432 32.4239 228.072 32.2469 227.76C32.0698 227.437 31.825 227.202 31.5125 227.057C31.2729 226.942 30.9239 226.885 30.4656 226.885H30.075ZM33.2 223.854H26.9812V222.916H27.8562C27.5437 222.718 27.2989 222.458 27.1219 222.135C26.9344 221.812 26.8406 221.442 26.8406 221.025C26.8406 220.567 26.9344 220.192 27.1219 219.9C27.3094 219.598 27.575 219.39 27.9187 219.275C27.2 218.775 26.8406 218.135 26.8406 217.354C26.8406 216.729 27.0125 216.255 27.3562 215.932C27.6896 215.598 28.2156 215.432 28.9344 215.432H33.2V216.479H29.2781C28.8614 216.479 28.5594 216.515 28.3719 216.588C28.1844 216.65 28.0333 216.77 27.9187 216.947C27.8041 217.124 27.7469 217.338 27.7469 217.588C27.7469 218.025 27.8927 218.39 28.1844 218.682C28.476 218.963 28.9448 219.104 29.5906 219.104H33.2V220.166H29.1531C28.6844 220.166 28.3354 220.255 28.1062 220.432C27.8666 220.598 27.7469 220.874 27.7469 221.26C27.7469 221.562 27.825 221.838 27.9812 222.088C28.1375 222.338 28.3666 222.52 28.6687 222.635C28.9708 222.749 29.4031 222.807 29.9656 222.807H33.2V223.854ZM32.4344 208.791C32.7677 209.187 33.0021 209.567 33.1375 209.932C33.2729 210.286 33.3406 210.671 33.3406 211.088C33.3406 211.775 33.1739 212.301 32.8406 212.666C32.5073 213.031 32.0802 213.213 31.5594 213.213C31.2573 213.213 30.9812 213.145 30.7312 213.01C30.4708 212.874 30.2677 212.692 30.1219 212.463C29.9656 212.234 29.851 211.979 29.7781 211.697C29.7156 211.499 29.6583 211.187 29.6062 210.76C29.5125 209.916 29.3927 209.291 29.2469 208.885C29.101 208.885 29.0125 208.885 28.9812 208.885C28.5437 208.885 28.2364 208.984 28.0594 209.182C27.8302 209.452 27.7156 209.854 27.7156 210.385C27.7156 210.874 27.8041 211.239 27.9812 211.479C28.1479 211.718 28.45 211.895 28.8875 212.01L28.7469 213.041C28.3094 212.947 27.9552 212.791 27.6844 212.572C27.4135 212.354 27.2052 212.041 27.0594 211.635C26.9135 211.229 26.8406 210.76 26.8406 210.229C26.8406 209.697 26.9031 209.265 27.0281 208.932C27.1531 208.598 27.3094 208.354 27.4969 208.197C27.6844 208.041 27.9239 207.932 28.2156 207.869C28.3927 207.838 28.7156 207.822 29.1844 207.822H30.5906C31.5698 207.822 32.1896 207.801 32.45 207.76C32.7104 207.708 32.9604 207.614 33.2 207.479V208.588C32.9812 208.692 32.726 208.76 32.4344 208.791ZM30.075 208.885C30.2312 209.27 30.3666 209.843 30.4812 210.604C30.5437 211.041 30.6166 211.348 30.7 211.525C30.7729 211.702 30.8823 211.843 31.0281 211.947C31.1739 212.041 31.3406 212.088 31.5281 212.088C31.8094 212.088 32.0437 211.984 32.2312 211.775C32.4187 211.557 32.5125 211.244 32.5125 210.838C32.5125 210.432 32.4239 210.072 32.2469 209.76C32.0698 209.437 31.825 209.202 31.5125 209.057C31.2729 208.942 30.9239 208.885 30.4656 208.885H30.075Z" fill="black"/>
<path d="M75.7 369.565C75.7 368.545 75.8042 367.727 76.0125 367.112C76.2208 366.487 76.5281 366.008 76.9344 365.675C77.351 365.341 77.8719 365.175 78.4969 365.175C78.9552 365.175 79.3562 365.269 79.7 365.456C80.0542 365.644 80.3458 365.914 80.575 366.269C80.8042 366.612 80.9812 367.034 81.1062 367.534C81.2312 368.034 81.2937 368.711 81.2937 369.565C81.2937 370.576 81.1896 371.388 80.9812 372.003C80.7833 372.618 80.476 373.097 80.0594 373.44C79.6531 373.774 79.1323 373.94 78.4969 373.94C77.674 373.94 77.0229 373.644 76.5437 373.05C75.9812 372.341 75.7 371.18 75.7 369.565ZM76.7781 369.565C76.7781 370.972 76.9448 371.909 77.2781 372.378C77.6115 372.847 78.0177 373.081 78.4969 373.081C78.9865 373.081 79.3927 372.847 79.7156 372.378C80.049 371.909 80.2156 370.972 80.2156 369.565C80.2156 368.149 80.049 367.211 79.7156 366.753C79.3927 366.284 78.9812 366.05 78.4812 366.05C78.0021 366.05 77.6167 366.253 77.325 366.659C76.9604 367.18 76.7781 368.149 76.7781 369.565Z" fill="black"/>
<path d="M61.7 315.89L62.8094 315.796C62.8927 316.338 63.0802 316.744 63.3719 317.015C63.674 317.285 64.0385 317.421 64.4656 317.421C64.9656 317.421 65.3927 317.228 65.7469 316.843C66.101 316.457 66.2781 315.952 66.2781 315.327C66.2781 314.723 66.1062 314.249 65.7625 313.905C65.4292 313.551 64.9865 313.374 64.4344 313.374C64.101 313.374 63.7937 313.452 63.5125 313.608C63.2417 313.765 63.0281 313.963 62.8719 314.202L61.8875 314.077L62.7156 309.671H66.9969V310.671H63.5594L63.1062 312.983C63.6167 312.619 64.1531 312.437 64.7156 312.437C65.4656 312.437 66.0958 312.697 66.6062 313.218C67.1271 313.739 67.3875 314.41 67.3875 315.233C67.3875 316.004 67.1635 316.676 66.7156 317.249C66.1635 317.937 65.4135 318.28 64.4656 318.28C63.6844 318.28 63.0437 318.062 62.5437 317.624C62.0542 317.187 61.7729 316.608 61.7 315.89ZM68.7 313.905C68.7 312.884 68.8042 312.067 69.0125 311.452C69.2208 310.827 69.5281 310.348 69.9344 310.015C70.351 309.681 70.8719 309.515 71.4969 309.515C71.9552 309.515 72.3562 309.608 72.7 309.796C73.0542 309.983 73.3458 310.254 73.575 310.608C73.8042 310.952 73.9812 311.374 74.1062 311.874C74.2312 312.374 74.2937 313.051 74.2937 313.905C74.2937 314.916 74.1896 315.728 73.9812 316.343C73.7833 316.957 73.476 317.437 73.0594 317.78C72.6531 318.114 72.1323 318.28 71.4969 318.28C70.674 318.28 70.0229 317.983 69.5437 317.39C68.9812 316.681 68.7 315.52 68.7 313.905ZM69.7781 313.905C69.7781 315.312 69.9448 316.249 70.2781 316.718C70.6115 317.187 71.0177 317.421 71.4969 317.421C71.9865 317.421 72.3927 317.187 72.7156 316.718C73.049 316.249 73.2156 315.312 73.2156 313.905C73.2156 312.489 73.049 311.551 72.7156 311.093C72.3927 310.624 71.9812 310.39 71.4812 310.39C71.0021 310.39 70.6167 310.593 70.325 310.999C69.9604 311.52 69.7781 312.489 69.7781 313.905ZM75.7 313.905C75.7 312.884 75.8042 312.067 76.0125 311.452C76.2208 310.827 76.5281 310.348 76.9344 310.015C77.351 309.681 77.8719 309.515 78.4969 309.515C78.9552 309.515 79.3562 309.608 79.7 309.796C80.0542 309.983 80.3458 310.254 80.575 310.608C80.8042 310.952 80.9812 311.374 81.1062 311.874C81.2312 312.374 81.2937 313.051 81.2937 313.905C81.2937 314.916 81.1896 315.728 80.9812 316.343C80.7833 316.957 80.476 317.437 80.0594 317.78C79.6531 318.114 79.1323 318.28 78.4969 318.28C77.674 318.28 77.0229 317.983 76.5437 317.39C75.9812 316.681 75.7 315.52 75.7 313.905ZM76.7781 313.905C76.7781 315.312 76.9448 316.249 77.2781 316.718C77.6115 317.187 78.0177 317.421 78.4969 317.421C78.9865 317.421 79.3927 317.187 79.7156 316.718C80.049 316.249 80.2156 315.312 80.2156 313.905C80.2156 312.489 80.049 311.551 79.7156 311.093C79.3927 310.624 78.9812 310.39 78.4812 310.39C78.0021 310.39 77.6167 310.593 77.325 310.999C76.9604 311.52 76.7781 312.489 76.7781 313.905Z" fill="black"/>
<path d="M58.6687 262.48H57.6219V255.762C57.3615 256.001 57.0229 256.246 56.6062 256.496C56.2 256.736 55.8354 256.913 55.5125 257.027V256.012C56.0958 255.73 56.6062 255.397 57.0437 255.012C57.4917 254.616 57.8094 254.23 57.9969 253.855H58.6687V262.48ZM61.7 258.246C61.7 257.225 61.8042 256.408 62.0125 255.793C62.2208 255.168 62.5281 254.689 62.9344 254.355C63.351 254.022 63.8719 253.855 64.4969 253.855C64.9552 253.855 65.3562 253.949 65.7 254.137C66.0542 254.324 66.3458 254.595 66.575 254.949C66.8042 255.293 66.9812 255.715 67.1062 256.215C67.2312 256.715 67.2937 257.392 67.2937 258.246C67.2937 259.257 67.1896 260.069 66.9812 260.684C66.7833 261.298 66.476 261.777 66.0594 262.121C65.6531 262.454 65.1323 262.621 64.4969 262.621C63.674 262.621 63.0229 262.324 62.5437 261.73C61.9812 261.022 61.7 259.861 61.7 258.246ZM62.7781 258.246C62.7781 259.652 62.9448 260.59 63.2781 261.059C63.6115 261.527 64.0177 261.762 64.4969 261.762C64.9865 261.762 65.3927 261.527 65.7156 261.059C66.049 260.59 66.2156 259.652 66.2156 258.246C66.2156 256.829 66.049 255.892 65.7156 255.434C65.3927 254.965 64.9812 254.73 64.4812 254.73C64.0021 254.73 63.6167 254.934 63.325 255.34C62.9604 255.861 62.7781 256.829 62.7781 258.246ZM68.7 258.246C68.7 257.225 68.8042 256.408 69.0125 255.793C69.2208 255.168 69.5281 254.689 69.9344 254.355C70.351 254.022 70.8719 253.855 71.4969 253.855C71.9552 253.855 72.3562 253.949 72.7 254.137C73.0542 254.324 73.3458 254.595 73.575 254.949C73.8042 255.293 73.9812 255.715 74.1062 256.215C74.2312 256.715 74.2937 257.392 74.2937 258.246C74.2937 259.257 74.1896 260.069 73.9812 260.684C73.7833 261.298 73.476 261.777 73.0594 262.121C72.6531 262.454 72.1323 262.621 71.4969 262.621C70.674 262.621 70.0229 262.324 69.5437 261.73C68.9812 261.022 68.7 259.861 68.7 258.246ZM69.7781 258.246C69.7781 259.652 69.9448 260.59 70.2781 261.059C70.6115 261.527 71.0177 261.762 71.4969 261.762C71.9865 261.762 72.3927 261.527 72.7156 261.059C73.049 260.59 73.2156 259.652 73.2156 258.246C73.2156 256.829 73.049 255.892 72.7156 255.434C72.3927 254.965 71.9812 254.73 71.4812 254.73C71.0021 254.73 70.6167 254.934 70.325 255.34C69.9604 255.861 69.7781 256.829 69.7781 258.246ZM75.7 258.246C75.7 257.225 75.8042 256.408 76.0125 255.793C76.2208 255.168 76.5281 254.689 76.9344 254.355C77.351 254.022 77.8719 253.855 78.4969 253.855C78.9552 253.855 79.3562 253.949 79.7 254.137C80.0542 254.324 80.3458 254.595 80.575 254.949C80.8042 255.293 80.9812 255.715 81.1062 256.215C81.2312 256.715 81.2937 257.392 81.2937 258.246C81.2937 259.257 81.1896 260.069 80.9812 260.684C80.7833 261.298 80.476 261.777 80.0594 262.121C79.6531 262.454 79.1323 262.621 78.4969 262.621C77.674 262.621 77.0229 262.324 76.5437 261.73C75.9812 261.022 75.7 259.861 75.7 258.246ZM76.7781 258.246C76.7781 259.652 76.9448 260.59 77.2781 261.059C77.6115 261.527 78.0177 261.762 78.4969 261.762C78.9865 261.762 79.3927 261.527 79.7156 261.059C80.049 260.59 80.2156 259.652 80.2156 258.246C80.2156 256.829 80.049 255.892 79.7156 255.434C79.3927 254.965 78.9812 254.73 78.4812 254.73C78.0021 254.73 77.6167 254.934 77.325 255.34C76.9604 255.861 76.7781 256.829 76.7781 258.246Z" fill="black"/>
<path d="M58.6687 206.82H57.6219V200.102C57.3615 200.341 57.0229 200.586 56.6062 200.836C56.2 201.076 55.8354 201.253 55.5125 201.367V200.352C56.0958 200.07 56.6062 199.737 57.0437 199.352C57.4917 198.956 57.8094 198.57 57.9969 198.195H58.6687V206.82ZM61.7 204.57L62.8094 204.477C62.8927 205.018 63.0802 205.424 63.3719 205.695C63.674 205.966 64.0385 206.102 64.4656 206.102C64.9656 206.102 65.3927 205.909 65.7469 205.523C66.101 205.138 66.2781 204.633 66.2781 204.008C66.2781 203.404 66.1062 202.93 65.7625 202.586C65.4292 202.232 64.9865 202.055 64.4344 202.055C64.101 202.055 63.7937 202.133 63.5125 202.289C63.2417 202.445 63.0281 202.643 62.8719 202.883L61.8875 202.758L62.7156 198.352H66.9969V199.352H63.5594L63.1062 201.664C63.6167 201.299 64.1531 201.117 64.7156 201.117C65.4656 201.117 66.0958 201.378 66.6062 201.898C67.1271 202.419 67.3875 203.091 67.3875 203.914C67.3875 204.685 67.1635 205.357 66.7156 205.93C66.1635 206.617 65.4135 206.961 64.4656 206.961C63.6844 206.961 63.0437 206.742 62.5437 206.305C62.0542 205.867 61.7729 205.289 61.7 204.57ZM68.7 202.586C68.7 201.565 68.8042 200.747 69.0125 200.133C69.2208 199.508 69.5281 199.029 69.9344 198.695C70.351 198.362 70.8719 198.195 71.4969 198.195C71.9552 198.195 72.3562 198.289 72.7 198.477C73.0542 198.664 73.3458 198.935 73.575 199.289C73.8042 199.633 73.9812 200.055 74.1062 200.555C74.2312 201.055 74.2937 201.732 74.2937 202.586C74.2937 203.596 74.1896 204.409 73.9812 205.023C73.7833 205.638 73.476 206.117 73.0594 206.461C72.6531 206.794 72.1323 206.961 71.4969 206.961C70.674 206.961 70.0229 206.664 69.5437 206.07C68.9812 205.362 68.7 204.201 68.7 202.586ZM69.7781 202.586C69.7781 203.992 69.9448 204.93 70.2781 205.398C70.6115 205.867 71.0177 206.102 71.4969 206.102C71.9865 206.102 72.3927 205.867 72.7156 205.398C73.049 204.93 73.2156 203.992 73.2156 202.586C73.2156 201.169 73.049 200.232 72.7156 199.773C72.3927 199.305 71.9812 199.07 71.4812 199.07C71.0021 199.07 70.6167 199.273 70.325 199.68C69.9604 200.201 69.7781 201.169 69.7781 202.586ZM75.7 202.586C75.7 201.565 75.8042 200.747 76.0125 200.133C76.2208 199.508 76.5281 199.029 76.9344 198.695C77.351 198.362 77.8719 198.195 78.4969 198.195C78.9552 198.195 79.3562 198.289 79.7 198.477C80.0542 198.664 80.3458 198.935 80.575 199.289C80.8042 199.633 80.9812 200.055 81.1062 200.555C81.2312 201.055 81.2937 201.732 81.2937 202.586C81.2937 203.596 81.1896 204.409 80.9812 205.023C80.7833 205.638 80.476 206.117 80.0594 206.461C79.6531 206.794 79.1323 206.961 78.4969 206.961C77.674 206.961 77.0229 206.664 76.5437 206.07C75.9812 205.362 75.7 204.201 75.7 202.586ZM76.7781 202.586C76.7781 203.992 76.9448 204.93 77.2781 205.398C77.6115 205.867 78.0177 206.102 78.4969 206.102C78.9865 206.102 79.3927 205.867 79.7156 205.398C80.049 204.93 80.2156 203.992 80.2156 202.586C80.2156 201.169 80.049 200.232 79.7156 199.773C79.3927 199.305 78.9812 199.07 78.4812 199.07C78.0021 199.07 77.6167 199.273 77.325 199.68C76.9604 200.201 76.7781 201.169 76.7781 202.586Z" fill="black"/>
<path d="M60.2469 150.145V151.16H54.5594C54.5594 150.91 54.601 150.665 54.6844 150.426C54.8302 150.04 55.0594 149.66 55.3719 149.285C55.6948 148.91 56.1583 148.478 56.7625 147.988C57.7 147.217 58.3302 146.608 58.6531 146.16C58.9865 145.712 59.1531 145.29 59.1531 144.895C59.1531 144.478 59.0021 144.129 58.7 143.848C58.3979 143.556 58.0073 143.41 57.5281 143.41C57.0177 143.41 56.6115 143.561 56.3094 143.863C56.0073 144.165 55.851 144.587 55.8406 145.129L54.7625 145.02C54.8354 144.207 55.1115 143.592 55.5906 143.176C56.0802 142.749 56.7365 142.535 57.5594 142.535C58.3823 142.535 59.0333 142.764 59.5125 143.223C59.9917 143.681 60.2312 144.249 60.2312 144.926C60.2312 145.27 60.1583 145.608 60.0125 145.941C59.8771 146.264 59.6427 146.613 59.3094 146.988C58.9865 147.353 58.45 147.853 57.7 148.488C57.0646 149.02 56.6531 149.384 56.4656 149.582C56.2885 149.77 56.1427 149.957 56.0281 150.145H60.2469ZM61.7 146.926C61.7 145.905 61.8042 145.087 62.0125 144.473C62.2208 143.848 62.5281 143.368 62.9344 143.035C63.351 142.702 63.8719 142.535 64.4969 142.535C64.9552 142.535 65.3562 142.629 65.7 142.816C66.0542 143.004 66.3458 143.275 66.575 143.629C66.8042 143.973 66.9812 144.395 67.1062 144.895C67.2312 145.395 67.2937 146.072 67.2937 146.926C67.2937 147.936 67.1896 148.749 66.9812 149.363C66.7833 149.978 66.476 150.457 66.0594 150.801C65.6531 151.134 65.1323 151.301 64.4969 151.301C63.674 151.301 63.0229 151.004 62.5437 150.41C61.9812 149.702 61.7 148.54 61.7 146.926ZM62.7781 146.926C62.7781 148.332 62.9448 149.27 63.2781 149.738C63.6115 150.207 64.0177 150.441 64.4969 150.441C64.9865 150.441 65.3927 150.207 65.7156 149.738C66.049 149.27 66.2156 148.332 66.2156 146.926C66.2156 145.509 66.049 144.572 65.7156 144.113C65.3927 143.645 64.9812 143.41 64.4812 143.41C64.0021 143.41 63.6167 143.613 63.325 144.02C62.9604 144.54 62.7781 145.509 62.7781 146.926ZM68.7 146.926C68.7 145.905 68.8042 145.087 69.0125 144.473C69.2208 143.848 69.5281 143.368 69.9344 143.035C70.351 142.702 70.8719 142.535 71.4969 142.535C71.9552 142.535 72.3562 142.629 72.7 142.816C73.0542 143.004 73.3458 143.275 73.575 143.629C73.8042 143.973 73.9812 144.395 74.1062 144.895C74.2312 145.395 74.2937 146.072 74.2937 146.926C74.2937 147.936 74.1896 148.749 73.9812 149.363C73.7833 149.978 73.476 150.457 73.0594 150.801C72.6531 151.134 72.1323 151.301 71.4969 151.301C70.674 151.301 70.0229 151.004 69.5437 150.41C68.9812 149.702 68.7 148.54 68.7 146.926ZM69.7781 146.926C69.7781 148.332 69.9448 149.27 70.2781 149.738C70.6115 150.207 71.0177 150.441 71.4969 150.441C71.9865 150.441 72.3927 150.207 72.7156 149.738C73.049 149.27 73.2156 148.332 73.2156 146.926C73.2156 145.509 73.049 144.572 72.7156 144.113C72.3927 143.645 71.9812 143.41 71.4812 143.41C71.0021 143.41 70.6167 143.613 70.325 144.02C69.9604 144.54 69.7781 145.509 69.7781 146.926ZM75.7 146.926C75.7 145.905 75.8042 145.087 76.0125 144.473C76.2208 143.848 76.5281 143.368 76.9344 143.035C77.351 142.702 77.8719 142.535 78.4969 142.535C78.9552 142.535 79.3562 142.629 79.7 142.816C80.0542 143.004 80.3458 143.275 80.575 143.629C80.8042 143.973 80.9812 144.395 81.1062 144.895C81.2312 145.395 81.2937 146.072 81.2937 146.926C81.2937 147.936 81.1896 148.749 80.9812 149.363C80.7833 149.978 80.476 150.457 80.0594 150.801C79.6531 151.134 79.1323 151.301 78.4969 151.301C77.674 151.301 77.0229 151.004 76.5437 150.41C75.9812 149.702 75.7 148.54 75.7 146.926ZM76.7781 146.926C76.7781 148.332 76.9448 149.27 77.2781 149.738C77.6115 150.207 78.0177 150.441 78.4969 150.441C78.9865 150.441 79.3927 150.207 79.7156 149.738C80.049 149.27 80.2156 148.332 80.2156 146.926C80.2156 145.509 80.049 144.572 79.7156 144.113C79.3927 143.645 78.9812 143.41 78.4812 143.41C78.0021 143.41 77.6167 143.613 77.325 144.02C76.9604 144.54 76.7781 145.509 76.7781 146.926Z" fill="black"/>
<path d="M60.2469 94.4844V95.5H54.5594C54.5594 95.25 54.601 95.0052 54.6844 94.7656C54.8302 94.3802 55.0594 94 55.3719 93.625C55.6948 93.25 56.1583 92.8177 56.7625 92.3281C57.7 91.5573 58.3302 90.9479 58.6531 90.5C58.9865 90.0521 59.1531 89.6302 59.1531 89.2344C59.1531 88.8177 59.0021 88.4688 58.7 88.1875C58.3979 87.8958 58.0073 87.75 57.5281 87.75C57.0177 87.75 56.6115 87.901 56.3094 88.2031C56.0073 88.5052 55.851 88.9271 55.8406 89.4688L54.7625 89.3594C54.8354 88.5469 55.1115 87.9323 55.5906 87.5156C56.0802 87.0885 56.7365 86.875 57.5594 86.875C58.3823 86.875 59.0333 87.1042 59.5125 87.5625C59.9917 88.0208 60.2312 88.5885 60.2312 89.2656C60.2312 89.6094 60.1583 89.9479 60.0125 90.2812C59.8771 90.6042 59.6427 90.9531 59.3094 91.3281C58.9865 91.6927 58.45 92.1927 57.7 92.8281C57.0646 93.3594 56.6531 93.724 56.4656 93.9219C56.2885 94.1094 56.1427 94.2969 56.0281 94.4844H60.2469ZM61.7 93.25L62.8094 93.1562C62.8927 93.6979 63.0802 94.1042 63.3719 94.375C63.674 94.6458 64.0385 94.7812 64.4656 94.7812C64.9656 94.7812 65.3927 94.5885 65.7469 94.2031C66.101 93.8177 66.2781 93.3125 66.2781 92.6875C66.2781 92.0833 66.1062 91.6094 65.7625 91.2656C65.4292 90.9115 64.9865 90.7344 64.4344 90.7344C64.101 90.7344 63.7937 90.8125 63.5125 90.9688C63.2417 91.125 63.0281 91.3229 62.8719 91.5625L61.8875 91.4375L62.7156 87.0312H66.9969V88.0312H63.5594L63.1062 90.3438C63.6167 89.9792 64.1531 89.7969 64.7156 89.7969C65.4656 89.7969 66.0958 90.0573 66.6062 90.5781C67.1271 91.099 67.3875 91.7708 67.3875 92.5938C67.3875 93.3646 67.1635 94.0365 66.7156 94.6094C66.1635 95.2969 65.4135 95.6406 64.4656 95.6406C63.6844 95.6406 63.0437 95.4219 62.5437 94.9844C62.0542 94.5469 61.7729 93.9688 61.7 93.25ZM68.7 91.2656C68.7 90.2448 68.8042 89.4271 69.0125 88.8125C69.2208 88.1875 69.5281 87.7083 69.9344 87.375C70.351 87.0417 70.8719 86.875 71.4969 86.875C71.9552 86.875 72.3562 86.9688 72.7 87.1562C73.0542 87.3438 73.3458 87.6146 73.575 87.9688C73.8042 88.3125 73.9812 88.7344 74.1062 89.2344C74.2312 89.7344 74.2937 90.4115 74.2937 91.2656C74.2937 92.276 74.1896 93.0885 73.9812 93.7031C73.7833 94.3177 73.476 94.7969 73.0594 95.1406C72.6531 95.474 72.1323 95.6406 71.4969 95.6406C70.674 95.6406 70.0229 95.3438 69.5437 94.75C68.9812 94.0417 68.7 92.8802 68.7 91.2656ZM69.7781 91.2656C69.7781 92.6719 69.9448 93.6094 70.2781 94.0781C70.6115 94.5469 71.0177 94.7812 71.4969 94.7812C71.9865 94.7812 72.3927 94.5469 72.7156 94.0781C73.049 93.6094 73.2156 92.6719 73.2156 91.2656C73.2156 89.849 73.049 88.9115 72.7156 88.4531C72.3927 87.9844 71.9812 87.75 71.4812 87.75C71.0021 87.75 70.6167 87.9531 70.325 88.3594C69.9604 88.8802 69.7781 89.849 69.7781 91.2656ZM75.7 91.2656C75.7 90.2448 75.8042 89.4271 76.0125 88.8125C76.2208 88.1875 76.5281 87.7083 76.9344 87.375C77.351 87.0417 77.8719 86.875 78.4969 86.875C78.9552 86.875 79.3562 86.9688 79.7 87.1562C80.0542 87.3438 80.3458 87.6146 80.575 87.9688C80.8042 88.3125 80.9812 88.7344 81.1062 89.2344C81.2312 89.7344 81.2937 90.4115 81.2937 91.2656C81.2937 92.276 81.1896 93.0885 80.9812 93.7031C80.7833 94.3177 80.476 94.7969 80.0594 95.1406C79.6531 95.474 79.1323 95.6406 78.4969 95.6406C77.674 95.6406 77.0229 95.3438 76.5437 94.75C75.9812 94.0417 75.7 92.8802 75.7 91.2656ZM76.7781 91.2656C76.7781 92.6719 76.9448 93.6094 77.2781 94.0781C77.6115 94.5469 78.0177 94.7812 78.4969 94.7812C78.9865 94.7812 79.3927 94.5469 79.7156 94.0781C80.049 93.6094 80.2156 92.6719 80.2156 91.2656C80.2156 89.849 80.049 88.9115 79.7156 88.4531C79.3927 87.9844 78.9812 87.75 78.4812 87.75C78.0021 87.75 77.6167 87.9531 77.325 88.3594C76.9604 88.8802 76.7781 89.849 76.7781 91.2656Z" fill="black"/>
<path d="M168.052 386.8V384.737H164.333V383.769L168.255 378.206H169.114V383.769H170.271V384.737H169.114V386.8H168.052ZM168.052 383.769V379.909L165.364 383.769H168.052ZM175.052 386.8V384.737H171.333V383.769L175.255 378.206H176.114V383.769H177.271V384.737H176.114V386.8H175.052ZM175.052 383.769V379.909L172.364 383.769H175.052ZM178.677 382.565C178.677 381.545 178.781 380.727 178.989 380.112C179.198 379.487 179.505 379.008 179.911 378.675C180.328 378.341 180.849 378.175 181.474 378.175C181.932 378.175 182.333 378.269 182.677 378.456C183.031 378.644 183.323 378.914 183.552 379.269C183.781 379.612 183.958 380.034 184.083 380.534C184.208 381.034 184.271 381.711 184.271 382.565C184.271 383.576 184.167 384.388 183.958 385.003C183.76 385.618 183.453 386.097 183.036 386.44C182.63 386.774 182.109 386.94 181.474 386.94C180.651 386.94 180 386.644 179.521 386.05C178.958 385.341 178.677 384.18 178.677 382.565ZM179.755 382.565C179.755 383.972 179.922 384.909 180.255 385.378C180.588 385.847 180.995 386.081 181.474 386.081C181.963 386.081 182.37 385.847 182.693 385.378C183.026 384.909 183.193 383.972 183.193 382.565C183.193 381.149 183.026 380.211 182.693 379.753C182.37 379.284 181.958 379.05 181.458 379.05C180.979 379.05 180.594 379.253 180.302 379.659C179.937 380.18 179.755 381.149 179.755 382.565ZM185.677 382.565C185.677 381.545 185.781 380.727 185.989 380.112C186.198 379.487 186.505 379.008 186.911 378.675C187.328 378.341 187.849 378.175 188.474 378.175C188.932 378.175 189.333 378.269 189.677 378.456C190.031 378.644 190.323 378.914 190.552 379.269C190.781 379.612 190.958 380.034 191.083 380.534C191.208 381.034 191.271 381.711 191.271 382.565C191.271 383.576 191.167 384.388 190.958 385.003C190.76 385.618 190.453 386.097 190.036 386.44C189.63 386.774 189.109 386.94 188.474 386.94C187.651 386.94 187 386.644 186.521 386.05C185.958 385.341 185.677 384.18 185.677 382.565ZM186.755 382.565C186.755 383.972 186.922 384.909 187.255 385.378C187.588 385.847 187.995 386.081 188.474 386.081C188.963 386.081 189.37 385.847 189.693 385.378C190.026 384.909 190.193 383.972 190.193 382.565C190.193 381.149 190.026 380.211 189.693 379.753C189.37 379.284 188.958 379.05 188.458 379.05C187.979 379.05 187.594 379.253 187.302 379.659C186.937 380.18 186.755 381.149 186.755 382.565ZM192.677 382.565C192.677 381.545 192.781 380.727 192.989 380.112C193.198 379.487 193.505 379.008 193.911 378.675C194.328 378.341 194.849 378.175 195.474 378.175C195.932 378.175 196.333 378.269 196.677 378.456C197.031 378.644 197.323 378.914 197.552 379.269C197.781 379.612 197.958 380.034 198.083 380.534C198.208 381.034 198.271 381.711 198.271 382.565C198.271 383.576 198.167 384.388 197.958 385.003C197.76 385.618 197.453 386.097 197.036 386.44C196.63 386.774 196.109 386.94 195.474 386.94C194.651 386.94 194 386.644 193.521 386.05C192.958 385.341 192.677 384.18 192.677 382.565ZM193.755 382.565C193.755 383.972 193.922 384.909 194.255 385.378C194.588 385.847 194.995 386.081 195.474 386.081C195.963 386.081 196.37 385.847 196.693 385.378C197.026 384.909 197.193 383.972 197.193 382.565C197.193 381.149 197.026 380.211 196.693 379.753C196.37 379.284 195.958 379.05 195.458 379.05C194.979 379.05 194.594 379.253 194.302 379.659C193.937 380.18 193.755 381.149 193.755 382.565Z" fill="black"/>
<path d="M289.451 386.8V384.737H285.732V383.769L289.654 378.206H290.513V383.769H291.669V384.737H290.513V386.8H289.451ZM289.451 383.769V379.909L286.763 383.769H289.451ZM296.451 386.8V384.737H292.732V383.769L296.654 378.206H297.513V383.769H298.669V384.737H297.513V386.8H296.451ZM296.451 383.769V379.909L293.763 383.769H296.451ZM305.622 385.784V386.8H299.935C299.935 386.55 299.977 386.305 300.06 386.065C300.206 385.68 300.435 385.3 300.747 384.925C301.07 384.55 301.534 384.118 302.138 383.628C303.076 382.857 303.706 382.248 304.029 381.8C304.362 381.352 304.529 380.93 304.529 380.534C304.529 380.118 304.378 379.769 304.076 379.487C303.773 379.196 303.383 379.05 302.904 379.05C302.393 379.05 301.987 379.201 301.685 379.503C301.383 379.805 301.227 380.227 301.216 380.769L300.138 380.659C300.211 379.847 300.487 379.232 300.966 378.815C301.456 378.388 302.112 378.175 302.935 378.175C303.758 378.175 304.409 378.404 304.888 378.862C305.367 379.321 305.607 379.888 305.607 380.565C305.607 380.909 305.534 381.248 305.388 381.581C305.253 381.904 305.018 382.253 304.685 382.628C304.362 382.993 303.826 383.493 303.076 384.128C302.44 384.659 302.029 385.024 301.841 385.222C301.664 385.409 301.518 385.597 301.404 385.784H305.622ZM307.076 382.565C307.076 381.545 307.18 380.727 307.388 380.112C307.596 379.487 307.904 379.008 308.31 378.675C308.727 378.341 309.247 378.175 309.872 378.175C310.331 378.175 310.732 378.269 311.076 378.456C311.43 378.644 311.721 378.914 311.951 379.269C312.18 379.612 312.357 380.034 312.482 380.534C312.607 381.034 312.669 381.711 312.669 382.565C312.669 383.576 312.565 384.388 312.357 385.003C312.159 385.618 311.852 386.097 311.435 386.44C311.029 386.774 310.508 386.94 309.872 386.94C309.049 386.94 308.398 386.644 307.919 386.05C307.357 385.341 307.076 384.18 307.076 382.565ZM308.154 382.565C308.154 383.972 308.32 384.909 308.654 385.378C308.987 385.847 309.393 386.081 309.872 386.081C310.362 386.081 310.768 385.847 311.091 385.378C311.424 384.909 311.591 383.972 311.591 382.565C311.591 381.149 311.424 380.211 311.091 379.753C310.768 379.284 310.357 379.05 309.857 379.05C309.378 379.05 308.992 379.253 308.701 379.659C308.336 380.18 308.154 381.149 308.154 382.565ZM314.076 382.565C314.076 381.545 314.18 380.727 314.388 380.112C314.596 379.487 314.904 379.008 315.31 378.675C315.727 378.341 316.247 378.175 316.872 378.175C317.331 378.175 317.732 378.269 318.076 378.456C318.43 378.644 318.721 378.914 318.951 379.269C319.18 379.612 319.357 380.034 319.482 380.534C319.607 381.034 319.669 381.711 319.669 382.565C319.669 383.576 319.565 384.388 319.357 385.003C319.159 385.618 318.852 386.097 318.435 386.44C318.029 386.774 317.508 386.94 316.872 386.94C316.049 386.94 315.398 386.644 314.919 386.05C314.357 385.341 314.076 384.18 314.076 382.565ZM315.154 382.565C315.154 383.972 315.32 384.909 315.654 385.378C315.987 385.847 316.393 386.081 316.872 386.081C317.362 386.081 317.768 385.847 318.091 385.378C318.424 384.909 318.591 383.972 318.591 382.565C318.591 381.149 318.424 380.211 318.091 379.753C317.768 379.284 317.357 379.05 316.857 379.05C316.378 379.05 315.992 379.253 315.701 379.659C315.336 380.18 315.154 381.149 315.154 382.565Z" fill="black"/>
<path d="M410.849 386.8V384.737H407.13V383.769L411.052 378.206H411.912V383.769H413.068V384.737H411.912V386.8H410.849ZM410.849 383.769V379.909L408.162 383.769H410.849ZM417.849 386.8V384.737H414.13V383.769L418.052 378.206H418.912V383.769H420.068V384.737H418.912V386.8H417.849ZM417.849 383.769V379.909L415.162 383.769H417.849ZM424.849 386.8V384.737H421.13V383.769L425.052 378.206H425.912V383.769H427.068V384.737H425.912V386.8H424.849ZM424.849 383.769V379.909L422.162 383.769H424.849ZM428.474 382.565C428.474 381.545 428.578 380.727 428.787 380.112C428.995 379.487 429.302 379.008 429.708 378.675C430.125 378.341 430.646 378.175 431.271 378.175C431.729 378.175 432.13 378.269 432.474 378.456C432.828 378.644 433.12 378.914 433.349 379.269C433.578 379.612 433.755 380.034 433.88 380.534C434.005 381.034 434.068 381.711 434.068 382.565C434.068 383.576 433.964 384.388 433.755 385.003C433.557 385.618 433.25 386.097 432.833 386.44C432.427 386.774 431.906 386.94 431.271 386.94C430.448 386.94 429.797 386.644 429.318 386.05C428.755 385.341 428.474 384.18 428.474 382.565ZM429.552 382.565C429.552 383.972 429.719 384.909 430.052 385.378C430.386 385.847 430.792 386.081 431.271 386.081C431.761 386.081 432.167 385.847 432.49 385.378C432.823 384.909 432.99 383.972 432.99 382.565C432.99 381.149 432.823 380.211 432.49 379.753C432.167 379.284 431.755 379.05 431.255 379.05C430.776 379.05 430.391 379.253 430.099 379.659C429.735 380.18 429.552 381.149 429.552 382.565ZM435.474 382.565C435.474 381.545 435.578 380.727 435.787 380.112C435.995 379.487 436.302 379.008 436.708 378.675C437.125 378.341 437.646 378.175 438.271 378.175C438.729 378.175 439.13 378.269 439.474 378.456C439.828 378.644 440.12 378.914 440.349 379.269C440.578 379.612 440.755 380.034 440.88 380.534C441.005 381.034 441.068 381.711 441.068 382.565C441.068 383.576 440.964 384.388 440.755 385.003C440.557 385.618 440.25 386.097 439.833 386.44C439.427 386.774 438.906 386.94 438.271 386.94C437.448 386.94 436.797 386.644 436.318 386.05C435.755 385.341 435.474 384.18 435.474 382.565ZM436.552 382.565C436.552 383.972 436.719 384.909 437.052 385.378C437.386 385.847 437.792 386.081 438.271 386.081C438.761 386.081 439.167 385.847 439.49 385.378C439.823 384.909 439.99 383.972 439.99 382.565C439.99 381.149 439.823 380.211 439.49 379.753C439.167 379.284 438.755 379.05 438.255 379.05C437.776 379.05 437.391 379.253 437.099 379.659C436.735 380.18 436.552 381.149 436.552 382.565Z" fill="black"/>
<path d="M532.248 386.8V384.737H528.529V383.769L532.451 378.206H533.31V383.769H534.466V384.737H533.31V386.8H532.248ZM532.248 383.769V379.909L529.56 383.769H532.248ZM539.248 386.8V384.737H535.529V383.769L539.451 378.206H540.31V383.769H541.466V384.737H540.31V386.8H539.248ZM539.248 383.769V379.909L536.56 383.769H539.248ZM548.341 380.315L547.295 380.394C547.201 379.977 547.071 379.675 546.904 379.487C546.612 379.185 546.258 379.034 545.841 379.034C545.508 379.034 545.211 379.128 544.951 379.315C544.628 379.565 544.368 379.925 544.17 380.394C543.982 380.852 543.883 381.508 543.873 382.362C544.123 381.977 544.43 381.69 544.795 381.503C545.17 381.315 545.56 381.222 545.966 381.222C546.664 381.222 547.258 381.482 547.748 382.003C548.248 382.524 548.498 383.19 548.498 384.003C548.498 384.545 548.378 385.05 548.138 385.519C547.909 385.977 547.591 386.331 547.185 386.581C546.779 386.821 546.321 386.94 545.81 386.94C544.925 386.94 544.206 386.618 543.654 385.972C543.102 385.326 542.826 384.263 542.826 382.784C542.826 381.118 543.133 379.909 543.748 379.159C544.279 378.503 544.998 378.175 545.904 378.175C546.581 378.175 547.133 378.368 547.56 378.753C547.998 379.128 548.258 379.649 548.341 380.315ZM544.045 384.019C544.045 384.383 544.118 384.732 544.263 385.065C544.42 385.388 544.633 385.638 544.904 385.815C545.185 385.993 545.482 386.081 545.795 386.081C546.232 386.081 546.612 385.904 546.935 385.55C547.258 385.185 547.42 384.696 547.42 384.081C547.42 383.487 547.258 383.019 546.935 382.675C546.623 382.331 546.227 382.159 545.748 382.159C545.269 382.159 544.862 382.331 544.529 382.675C544.206 383.019 544.045 383.466 544.045 384.019ZM549.873 382.565C549.873 381.545 549.977 380.727 550.185 380.112C550.394 379.487 550.701 379.008 551.107 378.675C551.524 378.341 552.045 378.175 552.67 378.175C553.128 378.175 553.529 378.269 553.873 378.456C554.227 378.644 554.519 378.914 554.748 379.269C554.977 379.612 555.154 380.034 555.279 380.534C555.404 381.034 555.466 381.711 555.466 382.565C555.466 383.576 555.362 384.388 555.154 385.003C554.956 385.618 554.649 386.097 554.232 386.44C553.826 386.774 553.305 386.94 552.67 386.94C551.847 386.94 551.196 386.644 550.716 386.05C550.154 385.341 549.873 384.18 549.873 382.565ZM550.951 382.565C550.951 383.972 551.118 384.909 551.451 385.378C551.784 385.847 552.19 386.081 552.67 386.081C553.159 386.081 553.565 385.847 553.888 385.378C554.222 384.909 554.388 383.972 554.388 382.565C554.388 381.149 554.222 380.211 553.888 379.753C553.565 379.284 553.154 379.05 552.654 379.05C552.175 379.05 551.789 379.253 551.498 379.659C551.133 380.18 550.951 381.149 550.951 382.565ZM556.873 382.565C556.873 381.545 556.977 380.727 557.185 380.112C557.394 379.487 557.701 379.008 558.107 378.675C558.524 378.341 559.045 378.175 559.67 378.175C560.128 378.175 560.529 378.269 560.873 378.456C561.227 378.644 561.519 378.914 561.748 379.269C561.977 379.612 562.154 380.034 562.279 380.534C562.404 381.034 562.466 381.711 562.466 382.565C562.466 383.576 562.362 384.388 562.154 385.003C561.956 385.618 561.649 386.097 561.232 386.44C560.826 386.774 560.305 386.94 559.67 386.94C558.847 386.94 558.196 386.644 557.716 386.05C557.154 385.341 556.873 384.18 556.873 382.565ZM557.951 382.565C557.951 383.972 558.118 384.909 558.451 385.378C558.784 385.847 559.19 386.081 559.67 386.081C560.159 386.081 560.565 385.847 560.888 385.378C561.222 384.909 561.388 383.972 561.388 382.565C561.388 381.149 561.222 380.211 560.888 379.753C560.565 379.284 560.154 379.05 559.654 379.05C559.175 379.05 558.789 379.253 558.498 379.659C558.133 380.18 557.951 381.149 557.951 382.565Z" fill="black"/>
<path d="M653.646 386.8V384.737H649.928V383.769L653.849 378.206H654.709V383.769H655.865V384.737H654.709V386.8H653.646ZM653.646 383.769V379.909L650.959 383.769H653.646ZM660.646 386.8V384.737H656.928V383.769L660.849 378.206H661.709V383.769H662.865V384.737H661.709V386.8H660.646ZM660.646 383.769V379.909L657.959 383.769H660.646ZM665.896 382.144C665.459 381.977 665.131 381.748 664.912 381.456C664.704 381.154 664.599 380.8 664.599 380.394C664.599 379.769 664.823 379.243 665.271 378.815C665.73 378.388 666.329 378.175 667.068 378.175C667.818 378.175 668.422 378.394 668.881 378.831C669.339 379.269 669.568 379.8 669.568 380.425C669.568 380.821 669.464 381.164 669.256 381.456C669.047 381.748 668.73 381.977 668.303 382.144C668.834 382.31 669.235 382.586 669.506 382.972C669.776 383.357 669.912 383.815 669.912 384.347C669.912 385.076 669.651 385.69 669.131 386.19C668.62 386.69 667.938 386.94 667.084 386.94C666.24 386.94 665.558 386.69 665.037 386.19C664.516 385.69 664.256 385.065 664.256 384.315C664.256 383.753 664.396 383.284 664.678 382.909C664.969 382.534 665.375 382.279 665.896 382.144ZM665.678 380.347C665.678 380.753 665.808 381.086 666.068 381.347C666.339 381.607 666.683 381.737 667.099 381.737C667.506 381.737 667.839 381.612 668.099 381.362C668.36 381.102 668.49 380.784 668.49 380.409C668.49 380.024 668.355 379.701 668.084 379.44C667.813 379.17 667.48 379.034 667.084 379.034C666.678 379.034 666.339 379.164 666.068 379.425C665.808 379.685 665.678 379.993 665.678 380.347ZM665.349 384.315C665.349 384.618 665.417 384.909 665.553 385.19C665.698 385.472 665.912 385.69 666.193 385.847C666.474 386.003 666.777 386.081 667.099 386.081C667.599 386.081 668.011 385.92 668.334 385.597C668.667 385.274 668.834 384.862 668.834 384.362C668.834 383.852 668.667 383.43 668.334 383.097C668 382.763 667.579 382.597 667.068 382.597C666.568 382.597 666.157 382.763 665.834 383.097C665.511 383.42 665.349 383.826 665.349 384.315ZM671.271 382.565C671.271 381.545 671.375 380.727 671.584 380.112C671.792 379.487 672.099 379.008 672.506 378.675C672.922 378.341 673.443 378.175 674.068 378.175C674.527 378.175 674.928 378.269 675.271 378.456C675.625 378.644 675.917 378.914 676.146 379.269C676.375 379.612 676.553 380.034 676.678 380.534C676.803 381.034 676.865 381.711 676.865 382.565C676.865 383.576 676.761 384.388 676.553 385.003C676.355 385.618 676.047 386.097 675.631 386.44C675.224 386.774 674.704 386.94 674.068 386.94C673.245 386.94 672.594 386.644 672.115 386.05C671.553 385.341 671.271 384.18 671.271 382.565ZM672.349 382.565C672.349 383.972 672.516 384.909 672.849 385.378C673.183 385.847 673.589 386.081 674.068 386.081C674.558 386.081 674.964 385.847 675.287 385.378C675.62 384.909 675.787 383.972 675.787 382.565C675.787 381.149 675.62 380.211 675.287 379.753C674.964 379.284 674.553 379.05 674.053 379.05C673.573 379.05 673.188 379.253 672.896 379.659C672.532 380.18 672.349 381.149 672.349 382.565ZM678.271 382.565C678.271 381.545 678.375 380.727 678.584 380.112C678.792 379.487 679.099 379.008 679.506 378.675C679.922 378.341 680.443 378.175 681.068 378.175C681.527 378.175 681.928 378.269 682.271 378.456C682.625 378.644 682.917 378.914 683.146 379.269C683.375 379.612 683.553 380.034 683.678 380.534C683.803 381.034 683.865 381.711 683.865 382.565C683.865 383.576 683.761 384.388 683.553 385.003C683.355 385.618 683.047 386.097 682.631 386.44C682.224 386.774 681.704 386.94 681.068 386.94C680.245 386.94 679.594 386.644 679.115 386.05C678.553 385.341 678.271 384.18 678.271 382.565ZM679.349 382.565C679.349 383.972 679.516 384.909 679.849 385.378C680.183 385.847 680.589 386.081 681.068 386.081C681.558 386.081 681.964 385.847 682.287 385.378C682.62 384.909 682.787 383.972 682.787 382.565C682.787 381.149 682.62 380.211 682.287 379.753C681.964 379.284 681.553 379.05 681.053 379.05C680.573 379.05 680.188 379.253 679.896 379.659C679.532 380.18 679.349 381.149 679.349 382.565Z" fill="black"/>
<path d="M576.847 65.5127V66.7002H570.222C570.211 66.4085 570.258 66.1221 570.363 65.8408C570.54 65.3929 570.81 64.9502 571.175 64.5127C571.55 64.0752 572.086 63.57 572.784 62.9971C573.878 62.1012 574.613 61.3929 574.988 60.8721C575.373 60.3512 575.566 59.8564 575.566 59.3877C575.566 58.8981 575.389 58.4867 575.034 58.1533C574.691 57.82 574.243 57.6533 573.691 57.6533C573.097 57.6533 572.618 57.8304 572.253 58.1846C571.899 58.5387 571.722 59.0335 571.722 59.6689L570.456 59.5283C570.54 58.5908 570.862 57.8773 571.425 57.3877C571.998 56.8877 572.758 56.6377 573.706 56.6377C574.675 56.6377 575.435 56.9033 575.988 57.4346C576.55 57.9658 576.831 58.6273 576.831 59.4189C576.831 59.8252 576.748 60.221 576.581 60.6064C576.425 60.9919 576.154 61.3981 575.769 61.8252C575.394 62.2523 574.764 62.8408 573.878 63.5908C573.139 64.2054 572.665 64.6273 572.456 64.8564C572.248 65.0752 572.076 65.2939 571.941 65.5127H576.847ZM578.378 61.7627C578.378 60.5752 578.498 59.6221 578.738 58.9033C578.988 58.1742 579.352 57.6169 579.831 57.2314C580.31 56.8356 580.915 56.6377 581.644 56.6377C582.185 56.6377 582.659 56.7471 583.066 56.9658C583.472 57.1846 583.805 57.4971 584.066 57.9033C584.336 58.3096 584.545 58.8044 584.691 59.3877C584.836 59.971 584.909 60.7627 584.909 61.7627C584.909 62.9398 584.79 63.8877 584.55 64.6064C584.31 65.3252 583.951 65.8825 583.472 66.2783C582.993 66.6742 582.383 66.8721 581.644 66.8721C580.685 66.8721 579.93 66.5231 579.378 65.8252C578.711 64.9919 578.378 63.6377 578.378 61.7627ZM579.644 61.7627C579.644 63.4085 579.836 64.5023 580.222 65.0439C580.607 65.5856 581.081 65.8564 581.644 65.8564C582.217 65.8564 582.696 65.5856 583.081 65.0439C583.467 64.4919 583.659 63.3981 583.659 61.7627C583.659 60.1064 583.467 59.0075 583.081 58.4658C582.696 57.9242 582.211 57.6533 581.628 57.6533C581.066 57.6533 580.618 57.8929 580.284 58.3721C579.857 58.9867 579.644 60.1169 579.644 61.7627ZM592.847 65.5127V66.7002H586.222C586.211 66.4085 586.258 66.1221 586.363 65.8408C586.54 65.3929 586.81 64.9502 587.175 64.5127C587.55 64.0752 588.086 63.57 588.784 62.9971C589.878 62.1012 590.613 61.3929 590.988 60.8721C591.373 60.3512 591.566 59.8564 591.566 59.3877C591.566 58.8981 591.389 58.4867 591.034 58.1533C590.691 57.82 590.243 57.6533 589.691 57.6533C589.097 57.6533 588.618 57.8304 588.253 58.1846C587.899 58.5387 587.722 59.0335 587.722 59.6689L586.456 59.5283C586.54 58.5908 586.862 57.8773 587.425 57.3877C587.998 56.8877 588.758 56.6377 589.706 56.6377C590.675 56.6377 591.435 56.9033 591.988 57.4346C592.55 57.9658 592.831 58.6273 592.831 59.4189C592.831 59.8252 592.748 60.221 592.581 60.6064C592.425 60.9919 592.154 61.3981 591.769 61.8252C591.394 62.2523 590.764 62.8408 589.878 63.5908C589.139 64.2054 588.665 64.6273 588.456 64.8564C588.248 65.0752 588.076 65.2939 587.941 65.5127H592.847ZM600.847 65.5127V66.7002H594.222C594.211 66.4085 594.258 66.1221 594.363 65.8408C594.54 65.3929 594.81 64.9502 595.175 64.5127C595.55 64.0752 596.086 63.57 596.784 62.9971C597.878 62.1012 598.613 61.3929 598.988 60.8721C599.373 60.3512 599.566 59.8564 599.566 59.3877C599.566 58.8981 599.389 58.4867 599.034 58.1533C598.691 57.82 598.243 57.6533 597.691 57.6533C597.097 57.6533 596.618 57.8304 596.253 58.1846C595.899 58.5387 595.722 59.0335 595.722 59.6689L594.456 59.5283C594.54 58.5908 594.862 57.8773 595.425 57.3877C595.998 56.8877 596.758 56.6377 597.706 56.6377C598.675 56.6377 599.435 56.9033 599.988 57.4346C600.55 57.9658 600.831 58.6273 600.831 59.4189C600.831 59.8252 600.748 60.221 600.581 60.6064C600.425 60.9919 600.154 61.3981 599.769 61.8252C599.394 62.2523 598.764 62.8408 597.878 63.5908C597.139 64.2054 596.665 64.6273 596.456 64.8564C596.248 65.0752 596.076 65.2939 595.941 65.5127H600.847Z" fill="#999999"/>
<path d="M606.175 58.1689C605.487 59.3669 604.633 60.3669 603.612 61.1689L602.847 60.1846C604.336 59.0908 605.357 57.5075 605.909 55.4346L607.159 55.7627C607.305 55.9085 607.253 55.9971 607.003 56.0283L606.566 57.1221H614.269V58.1689H610.284V60.0283H613.566V61.0596H610.284V63.5283H614.878V64.5596H610.284V67.8564H609.191V64.5596H602.894V63.5283H605.362V60.0283H609.191V58.1689H606.175ZM606.456 63.5283H609.191V61.0596H606.456V63.5283Z" fill="#999999"/>
<path d="M616.566 64.3877L617.753 64.2783C617.847 64.8304 618.034 65.2314 618.316 65.4814C618.607 65.7314 618.972 65.8564 619.409 65.8564C619.784 65.8564 620.112 65.7731 620.394 65.6064C620.685 65.4294 620.92 65.195 621.097 64.9033C621.284 64.6117 621.441 64.221 621.566 63.7314C621.691 63.2419 621.753 62.7419 621.753 62.2314C621.753 62.1794 621.748 62.096 621.737 61.9814C621.498 62.3773 621.165 62.7002 620.737 62.9502C620.31 63.1898 619.847 63.3096 619.347 63.3096C618.514 63.3096 617.81 63.0075 617.237 62.4033C616.665 61.7992 616.378 61.0075 616.378 60.0283C616.378 59.0075 616.675 58.1898 617.269 57.5752C617.873 56.9502 618.628 56.6377 619.534 56.6377C620.18 56.6377 620.774 56.8148 621.316 57.1689C621.857 57.5127 622.269 58.0127 622.55 58.6689C622.831 59.3148 622.972 60.2523 622.972 61.4814C622.972 62.7627 622.831 63.7835 622.55 64.5439C622.279 65.3044 621.868 65.8825 621.316 66.2783C620.764 66.6742 620.118 66.8721 619.378 66.8721C618.597 66.8721 617.956 66.6533 617.456 66.2158C616.967 65.7783 616.67 65.1689 616.566 64.3877ZM621.597 59.9658C621.597 59.2575 621.409 58.695 621.034 58.2783C620.659 57.8617 620.211 57.6533 619.691 57.6533C619.139 57.6533 618.659 57.8773 618.253 58.3252C617.847 58.7731 617.644 59.3512 617.644 60.0596C617.644 60.695 617.836 61.2158 618.222 61.6221C618.607 62.0179 619.081 62.2158 619.644 62.2158C620.217 62.2158 620.685 62.0179 621.05 61.6221C621.415 61.2158 621.597 60.6637 621.597 59.9658Z" fill="#999999"/>
<path d="M633.706 63.5283H628.503C628.503 65.0908 627.701 66.57 626.097 67.9658L625.175 66.9189C626.665 65.971 627.409 64.5492 627.409 62.6533V55.9814H634.8V66.7627C634.8 67.346 634.487 67.6377 633.862 67.6377H632.55L632.331 66.4189H633.487C633.633 66.4189 633.706 66.346 633.706 66.2002V63.5283ZM628.503 62.3252H633.706V60.3564H628.503V62.3252ZM628.503 59.1533H633.706V57.1846H628.503V59.1533Z" fill="#999999"/>
<path d="M644.847 65.5127V66.7002H638.222C638.211 66.4085 638.258 66.1221 638.363 65.8408C638.54 65.3929 638.81 64.9502 639.175 64.5127C639.55 64.0752 640.086 63.57 640.784 62.9971C641.878 62.1012 642.613 61.3929 642.988 60.8721C643.373 60.3512 643.566 59.8564 643.566 59.3877C643.566 58.8981 643.389 58.4867 643.034 58.1533C642.691 57.82 642.243 57.6533 641.691 57.6533C641.097 57.6533 640.618 57.8304 640.253 58.1846C639.899 58.5387 639.722 59.0335 639.722 59.6689L638.456 59.5283C638.54 58.5908 638.862 57.8773 639.425 57.3877C639.998 56.8877 640.758 56.6377 641.706 56.6377C642.675 56.6377 643.435 56.9033 643.988 57.4346C644.55 57.9658 644.831 58.6273 644.831 59.4189C644.831 59.8252 644.748 60.221 644.581 60.6064C644.425 60.9919 644.154 61.3981 643.769 61.8252C643.394 62.2523 642.764 62.8408 641.878 63.5908C641.139 64.2054 640.665 64.6273 640.456 64.8564C640.248 65.0752 640.076 65.2939 639.941 65.5127H644.847ZM646.566 64.3877L647.753 64.2783C647.847 64.8304 648.034 65.2314 648.316 65.4814C648.607 65.7314 648.972 65.8564 649.409 65.8564C649.784 65.8564 650.113 65.7731 650.394 65.6064C650.685 65.4294 650.92 65.195 651.097 64.9033C651.284 64.6117 651.441 64.221 651.566 63.7314C651.691 63.2419 651.753 62.7419 651.753 62.2314C651.753 62.1794 651.748 62.096 651.738 61.9814C651.498 62.3773 651.165 62.7002 650.738 62.9502C650.31 63.1898 649.847 63.3096 649.347 63.3096C648.514 63.3096 647.81 63.0075 647.238 62.4033C646.665 61.7992 646.378 61.0075 646.378 60.0283C646.378 59.0075 646.675 58.1898 647.269 57.5752C647.873 56.9502 648.628 56.6377 649.534 56.6377C650.18 56.6377 650.774 56.8148 651.316 57.1689C651.857 57.5127 652.269 58.0127 652.55 58.6689C652.831 59.3148 652.972 60.2523 652.972 61.4814C652.972 62.7627 652.831 63.7835 652.55 64.5439C652.279 65.3044 651.868 65.8825 651.316 66.2783C650.764 66.6742 650.118 66.8721 649.378 66.8721C648.597 66.8721 647.956 66.6533 647.456 66.2158C646.967 65.7783 646.67 65.1689 646.566 64.3877ZM651.597 59.9658C651.597 59.2575 651.409 58.695 651.034 58.2783C650.659 57.8617 650.211 57.6533 649.691 57.6533C649.139 57.6533 648.659 57.8773 648.253 58.3252C647.847 58.7731 647.644 59.3512 647.644 60.0596C647.644 60.695 647.836 61.2158 648.222 61.6221C648.607 62.0179 649.081 62.2158 649.644 62.2158C650.217 62.2158 650.685 62.0179 651.05 61.6221C651.415 61.2158 651.597 60.6637 651.597 59.9658Z" fill="#999999"/>
<path d="M657.8 67.2002H656.534V56.6377H665.128V66.9814H663.862V66.2002H657.8V67.2002ZM663.862 60.7939V57.6689H657.8V60.7939H663.862ZM663.862 65.1689V61.8252H657.8V65.1689H663.862ZM678.081 59.8564H680.659V60.7314H678.362V61.9971H680.222V62.8721H678.362V64.1846H680.222V65.0596H678.362V66.4189H681.097V67.3096H675.566V67.8564H674.644V61.7783C674.352 62.1742 673.987 62.5387 673.55 62.8721L673.159 61.8252C674.545 60.5856 675.441 59.2939 675.847 57.9502H674.581V59.2002H673.659V57.0752H676.066C676.211 56.4919 676.336 55.8721 676.441 55.2158L677.534 55.4814C677.649 55.596 677.612 55.7054 677.425 55.8096C677.321 56.2471 677.211 56.6689 677.097 57.0752H680.987V58.9814H680.05V57.9502H676.878C676.659 58.7106 676.368 59.346 676.003 59.8564H677.159L677.862 58.2158L678.909 58.4346C679.086 58.5075 679.05 58.6012 678.8 58.7158L678.081 59.8564ZM668.847 57.3408V56.3096H673.487V57.3408H671.581C671.508 58.4762 671.269 59.5179 670.862 60.4658H673.003V66.9814H672.066V66.0908H670.644V67.5283H669.722V62.5908C669.503 62.9554 669.264 63.2835 669.003 63.5752L668.3 62.6533C669.571 61.2262 670.316 59.4554 670.534 57.3408H668.847ZM675.566 62.8721V64.1846H677.425V62.8721H675.566ZM675.566 60.7314V61.9971H677.425V60.7314H675.566ZM675.566 65.0596V66.4189H677.425V65.0596H675.566ZM670.644 61.3408V65.2158H672.066V61.3408H670.644ZM687.222 61.4502C688.566 61.0856 689.42 60.3721 689.784 59.3096L688.316 58.7158L688.691 57.7783L690.003 58.2783L690.112 56.9658H687.816V55.9189H694.378L694.269 60.6221C694.237 61.5387 693.857 61.9971 693.128 61.9971H691.862L691.753 60.9502H692.909C693.128 60.9502 693.237 60.8408 693.237 60.6221L693.347 56.9658H691.206L691.05 58.7158L692.362 59.4189L691.862 60.4033L690.769 59.8096C690.3 61.1533 689.264 62.0648 687.659 62.5439L687.222 61.4502ZM694.159 66.9189C693.868 65.8252 693.415 64.8773 692.8 64.0752L693.784 63.6377C694.586 64.6169 695.097 65.5439 695.316 66.4189L694.159 66.9189ZM686.831 63.4658V67.6846H685.909V67.3096H684.05V67.9033H683.112V63.4658H686.831ZM687.269 66.9814C687.529 66.0648 687.696 65.0231 687.769 63.8564L688.862 63.9658C688.935 63.9971 688.899 64.0856 688.753 64.2314C688.711 65.3981 688.545 66.4033 688.253 67.2471L687.269 66.9814ZM690.769 61.6689C691.279 61.9919 691.79 62.5544 692.3 63.3564L691.269 63.9658C691.008 63.4554 690.571 62.8721 689.956 62.2158L690.769 61.6689ZM683.331 55.7002H686.612V56.7471H683.331V55.7002ZM682.628 57.5596H687.331V58.6064H682.628V57.5596ZM683.331 59.5908H686.612V60.6221H683.331V59.5908ZM683.331 61.4502H686.612V62.4814H683.331V61.4502ZM684.05 64.3408V66.4189H685.909V64.3408H684.05ZM690.222 63.3096C690.514 63.3408 690.534 63.4502 690.284 63.6377V66.2002C690.284 66.4606 690.394 66.5908 690.612 66.5908H691.816C692.034 66.5908 692.159 66.4814 692.191 66.2627L692.3 65.3877L693.394 65.6533L693.175 66.8096C693.071 67.3617 692.743 67.6377 692.191 67.6377H690.112C689.498 67.6377 689.191 67.3044 689.191 66.6377V63.3096H690.222Z" fill="#999999"/>
<path d="M21.2111 31.8252V30.3408H24.883V27.9189C23.5809 28.1273 22.5653 28.2575 21.8361 28.3096L21.2111 26.9033C23.8673 26.6429 26.2371 26.1221 28.3205 25.3408L29.258 26.7471C29.31 27.1117 29.1538 27.1898 28.7892 26.9814L26.4455 27.6064V30.3408H29.9611V31.8252H26.4455V33.4658C28.008 34.1429 29.2059 34.9762 30.0392 35.9658L29.0236 37.4502C28.0861 36.4085 27.2267 35.6273 26.4455 35.1064V42.8408H24.883V35.3408C24.1017 36.9033 23.1121 38.2835 21.9142 39.4814L20.7423 38.0752C22.6694 36.2523 24.0236 34.1689 24.8048 31.8252H21.2111ZM30.7423 27.6846H38.1642V41.9814H36.6017V40.9658H32.3048V42.4502H30.7423V27.6846ZM32.3048 29.1689V39.4814H36.6017V29.1689H32.3048ZM54.1017 36.9814C53.4767 39.1689 52.1746 41.1221 50.1955 42.8408L49.1798 41.3564C51.8361 39.3252 53.1642 36.8252 53.1642 33.8564V29.8721H52.4611C52.2528 30.6533 51.784 31.695 51.0548 32.9971L49.7267 32.2939C50.9246 30.5752 51.6798 28.2314 51.9923 25.2627L53.4767 25.4971C53.7892 25.5492 53.7632 25.7054 53.3986 25.9658C53.0861 27.32 52.8778 28.2054 52.7736 28.6221H57.0705L57.2267 28.2314L58.7111 29.1689C58.8673 29.2731 58.8153 29.4033 58.5548 29.5596C58.1382 31.4346 57.5653 33.1012 56.8361 34.5596L55.508 34.0127C56.2371 32.5544 56.7319 31.1742 56.9923 29.8721H54.7267V33.6221C54.7267 36.5908 56.0809 39.1169 58.7892 41.2002L57.6173 42.5283C55.7944 40.8617 54.6225 39.0127 54.1017 36.9814ZM49.0236 41.5908C49.0236 42.3721 48.633 42.7627 47.8517 42.7627H45.8986L45.6642 41.2783H47.383C47.5913 41.2783 47.6955 41.1742 47.6955 40.9658V35.3408H40.8205V33.8564H50.508V35.3408H49.0236V41.5908ZM49.0236 32.0596C49.0236 32.8929 48.685 33.3096 48.008 33.3096H46.6798L46.5236 32.0596H47.383C47.5913 32.0596 47.6955 31.9554 47.6955 31.7471V27.2939H41.3673V25.8096H50.4298V27.2939H49.0236V32.0596ZM45.2736 29.1689H43.3986V30.8096H45.2736V29.1689ZM46.3673 28.2314V31.7471H43.3986V32.4502H42.3048V28.2314H46.3673ZM45.3517 37.2158H43.1642V39.1689H45.3517V37.2158ZM46.4455 36.2783V40.1064H43.1642V40.9658H42.0705V36.2783H46.4455ZM77.5392 28.9346C78.06 29.0387 78.0861 29.2471 77.6173 29.5596V42.0596H75.8205V40.8096H63.8673V42.3721H62.0705V28.9346H63.7892C64.3101 29.0387 64.3361 29.2471 63.8673 29.5596V39.0908H68.8673V25.6533H70.5861C71.1069 25.7575 71.133 25.9658 70.6642 26.2783V39.0908H75.8205V28.9346H77.5392ZM93.7892 37.6064C94.8309 38.6481 96.3673 39.6898 98.3986 40.7314L97.4611 42.3721C95.6903 41.5387 94.0236 40.3408 92.4611 38.7783L93.7892 37.6064ZM86.9923 39.0127C86.1069 40.2627 84.7528 41.4867 82.9298 42.6846L81.758 41.2002C83.4246 40.2106 84.7528 39.0387 85.7423 37.6846L87.2267 38.5439C87.4871 38.7523 87.409 38.9085 86.9923 39.0127ZM83.7892 36.9814V37.7627H82.2267V26.5127H83.7111C84.1278 26.5648 84.1538 26.721 83.7892 26.9814V35.4971H98.1642V36.9814H90.8986V42.9971H89.1017V36.9814H83.7892ZM87.2267 33.2314H94.0236V31.7471H87.2267V33.2314ZM87.2267 30.4971H94.0236V29.2471H87.2267V30.4971ZM87.2267 27.9971H94.0236V26.7471H87.2267V27.9971ZM85.6642 34.4814V25.4971H95.5861V34.4814H85.6642ZM110.586 30.1846C109.701 35.3929 108.633 38.6221 107.383 39.8721C106.706 40.5492 106.003 40.8877 105.274 40.8877C104.44 40.8877 103.789 40.6533 103.32 40.1846C102.07 38.9346 101.445 37.3721 101.445 35.4971C101.445 33.2054 102.253 31.2523 103.867 29.6377C105.638 27.8669 107.8 26.9814 110.352 26.9814C112.643 26.9814 114.44 27.6325 115.742 28.9346C117.201 30.3929 117.93 32.1117 117.93 34.0908C117.93 36.2262 117.253 37.971 115.899 39.3252C115.013 40.2106 113.659 41.07 111.836 41.9033L110.195 40.2627C112.018 39.6898 113.451 38.8825 114.492 37.8408C115.482 36.8512 115.977 35.6533 115.977 34.2471C115.977 32.5804 115.43 31.2002 114.336 30.1064C113.242 29.0127 111.524 28.5179 109.18 28.6221L110.586 29.3252C111.211 29.5856 111.211 29.8721 110.586 30.1846ZM108.789 28.7002C107.435 29.0127 106.263 29.6637 105.274 30.6533C103.919 32.0075 103.242 33.6742 103.242 35.6533C103.242 36.8512 103.633 37.8408 104.414 38.6221C104.57 38.7783 104.805 38.8564 105.117 38.8564C105.43 38.8564 105.768 38.6742 106.133 38.3096C107.331 37.1117 108.216 33.9085 108.789 28.7002ZM127.93 41.5127C130.065 40.3669 131.133 38.4137 131.133 35.6533V26.6689L132.774 26.9814L136.992 25.6533L138.164 27.2158C138.268 27.5283 138.086 27.5804 137.617 27.3721L132.695 28.3096V31.6689H138.867V33.1533H136.524V42.9189H134.961V33.1533H132.695V36.1221C132.695 39.195 131.393 41.4867 128.789 42.9971L127.93 41.5127ZM126.445 42.9971H124.883V38.3096C124.05 39.6637 123.138 40.7314 122.149 41.5127L120.977 40.1064C122.435 39.0648 123.659 37.7627 124.649 36.2002H121.367V34.7158H124.883V32.9971H120.899V31.5127H126.367L127.227 28.7002H121.445V27.2158H124.883V25.0283H126.367C126.784 25.0804 126.81 25.2367 126.445 25.4971V27.2158H129.883V28.7002H128.867L127.774 31.5127H130.274V32.9971H126.445V34.7158H129.883V36.2002H126.445V36.9033C127.175 37.1117 128.19 37.6585 129.492 38.5439L128.555 40.1064C127.826 39.3773 127.123 38.8044 126.445 38.3877V42.9971ZM123.32 31.3564C123.112 30.6273 122.826 29.9242 122.461 29.2471L123.945 28.7783C124.362 29.4554 124.675 30.1585 124.883 30.8877L123.32 31.3564ZM156.055 33.5439H150.977V35.2627H156.055V33.5439ZM153.945 36.7471H152.539V37.5283C152.539 40.7575 150.69 42.6585 146.992 43.2314L146.524 41.5908C149.492 41.2262 150.977 39.82 150.977 37.3721V36.7471H150.195H149.414V25.8096H157.617V36.7471H155.508V40.6533C155.508 41.07 155.69 41.2783 156.055 41.2783H156.836C157.097 41.2783 157.253 41.0179 157.305 40.4971L157.461 39.1689L159.024 39.6377L158.789 41.4346C158.685 42.32 158.19 42.7627 157.305 42.7627H155.352C154.414 42.7627 153.945 42.32 153.945 41.4346V36.7471ZM150.977 32.0596H156.055V30.4189H150.977V32.0596ZM150.977 28.9346H156.055V27.2939H150.977V28.9346ZM145.352 35.8877C146.393 36.3564 147.617 37.2158 149.024 38.4658L147.93 40.1064C146.836 38.9085 145.873 38.0231 145.039 37.4502C144.518 39.7419 143.425 41.5387 141.758 42.8408L140.586 41.4346C142.878 39.5075 143.972 37.0075 143.867 33.9346H140.899V32.4502H143.945V29.6377H141.445V28.1533H143.945V25.0283H145.43C145.847 25.0804 145.873 25.2367 145.508 25.4971V28.1533H148.242V29.6377H145.508V32.4502H148.633V33.9346H145.43C145.43 34.7679 145.404 35.4189 145.352 35.8877ZM165.43 32.1377C166.419 33.4919 166.914 34.8981 166.914 36.3564C166.914 38.3877 166.315 39.4033 165.117 39.4033H164.18L163.867 37.8408H164.649C165.169 37.8408 165.404 37.2939 165.352 36.2002C165.3 34.6898 164.831 33.3617 163.945 32.2158L165.508 27.1377H163.086V42.7627H161.524V25.8877H165.899L166.211 25.4971L167.539 26.6689L167.227 26.9814L165.43 32.1377ZM176.758 36.5127H175.977C175.143 40.3148 172.357 42.5023 167.617 43.0752L167.149 41.5908C171.211 41.2783 173.659 39.5856 174.492 36.5127H173.399C172.513 38.7002 170.638 40.0283 167.774 40.4971L167.305 39.1689C169.701 38.6481 171.185 37.7627 171.758 36.5127H170.508C169.779 37.2419 168.841 37.8148 167.695 38.2314L167.07 36.9033C168.737 36.3825 169.883 35.3929 170.508 33.9346H166.992V32.6846H178.711V33.9346H172.149C171.94 34.4033 171.68 34.846 171.367 35.2627H178.242L178.086 40.1846C178.034 41.8512 177.435 42.6846 176.289 42.6846H174.727L174.492 41.2002H175.82C176.289 41.2002 176.55 40.8877 176.602 40.2627L176.758 36.5127ZM170.117 30.4189H175.43V29.0908H170.117V30.4189ZM170.117 27.8408H175.43V26.5908H170.117V27.8408ZM176.758 25.3408V31.6689H168.789V25.3408H176.758ZM190.039 29.3252H192.149V25.2627H193.633C194.05 25.3148 194.076 25.471 193.711 25.7314V29.3252H197.93V30.8096H193.711V34.5596H197.695V36.0439H193.711V40.6533H198.867V42.1377H186.914V40.6533H192.149V36.0439H188.32V34.5596H192.149V30.8096H189.57C189.206 31.8512 188.633 32.8929 187.852 33.9346L186.524 32.9189C187.878 31.1481 188.763 29.0127 189.18 26.5127L190.664 26.8252C191.081 26.9814 191.081 27.1377 190.664 27.2939L190.039 29.3252ZM183.399 25.0283H184.883C185.3 25.0804 185.326 25.2367 184.961 25.4971V42.8408H183.399V25.0283ZM186.367 28.2314C186.836 28.8564 187.227 29.5596 187.539 30.3408L186.289 31.2002C185.925 30.3148 185.56 29.5856 185.195 29.0127L186.367 28.2314ZM182.93 29.0908C183.294 29.195 183.294 29.3512 182.93 29.5596C182.826 31.2262 182.591 32.7887 182.227 34.2471L180.742 33.7783C181.159 32.4762 181.393 30.8356 181.445 28.8564L182.93 29.0908ZM215.742 33.6221V42.6846H214.18V41.9033H207.149V42.9189H205.586V35.8096C204.232 36.5387 202.774 37.1117 201.211 37.5283L200.664 36.1221C202.123 35.7575 203.763 35.1064 205.586 34.1689V33.6221H206.68C207.774 32.9971 208.711 32.3721 209.492 31.7471H201.289V30.2627H208.164V28.3877H203.32V26.9033H208.164V25.0283H209.649C210.065 25.0804 210.091 25.2367 209.727 25.4971V26.9033H213.477V28.2314C214.102 27.5544 214.727 26.7992 215.352 25.9658L216.445 26.6689C216.81 26.9294 216.758 27.0856 216.289 27.1377C215.3 28.3356 214.31 29.3773 213.32 30.2627H218.711V31.7471H211.68C210.638 32.6325 209.805 33.2575 209.18 33.6221H215.742ZM211.211 30.2627C211.836 29.7939 212.539 29.1689 213.32 28.3877H209.727V30.2627H211.211ZM207.149 36.9814H214.18V34.8721H207.149V36.9814ZM207.149 40.6533H214.18V38.2314H207.149V40.6533ZM234.336 36.9033C235.065 35.4971 235.508 33.3617 235.664 30.4971H233.008C233.164 33.3617 233.607 35.4971 234.336 36.9033ZM237.227 30.4971C237.123 33.7262 236.498 36.3304 235.352 38.3096C236.185 39.3512 237.357 40.2627 238.867 41.0439L237.852 42.7627C236.185 41.6689 235.013 40.6273 234.336 39.6377C233.138 40.9919 231.289 42.1637 228.789 43.1533L228.008 41.5908C230.716 40.4971 232.513 39.3773 233.399 38.2314C232.513 36.5127 232.018 34.7939 231.914 33.0752C231.602 33.8564 231.289 34.4554 230.977 34.8721L229.649 33.8564C231.211 31.5648 232.149 28.7262 232.461 25.3408L234.102 25.7314C234.414 25.9398 234.336 26.096 233.867 26.2002C233.711 27.1377 233.503 28.0752 233.242 29.0127H238.555V30.4971H237.227ZM229.961 26.7471C229.649 27.5283 229.284 28.1794 228.867 28.7002L227.617 27.9971C228.034 27.32 228.425 26.5387 228.789 25.6533L230.195 26.3564C230.404 26.5648 230.326 26.695 229.961 26.7471ZM224.961 37.7627C225.69 37.971 226.341 38.2054 226.914 38.4658C227.331 37.9971 227.669 37.2939 227.93 36.3564H225.664C225.456 36.8252 225.222 37.2939 224.961 37.7627ZM223.867 39.7158L222.617 39.0127C223.138 38.2314 223.659 37.346 224.18 36.3564H221.211V35.1064H224.649C224.961 34.4294 225.195 33.8564 225.352 33.3877L226.836 33.7783C227.044 33.9867 226.966 34.1169 226.602 34.1689L226.133 35.1064H230.586V36.3564H229.414C229.154 37.3981 228.763 38.2835 228.242 39.0127C228.711 39.221 229.206 39.4814 229.727 39.7939L229.024 41.0439C228.451 40.6794 227.93 40.3929 227.461 40.1846C226.107 41.5387 224.284 42.3721 221.992 42.6846L221.445 41.2783C223.477 41.07 225.039 40.4971 226.133 39.5596C225.56 39.2992 224.987 39.0648 224.414 38.8564L223.867 39.7158ZM225.43 25.0283H226.68C227.097 25.0804 227.123 25.2367 226.758 25.4971V28.8564H230.742V30.1064H227.461C228.034 30.7835 228.919 31.4346 230.117 32.0596L229.258 33.3877C228.373 32.8669 227.539 32.1377 226.758 31.2002V33.0752H225.43V31.5908C224.597 32.6325 223.451 33.57 221.992 34.4033L220.977 33.1533C222.591 32.32 223.919 31.3044 224.961 30.1064H221.367V28.8564H225.43V25.0283ZM223.242 28.6221C222.878 27.8408 222.409 27.1637 221.836 26.5908L223.086 25.8096C223.711 26.4346 224.18 27.0856 224.492 27.7627L223.242 28.6221ZM250.586 30.1846C249.701 35.3929 248.633 38.6221 247.383 39.8721C246.706 40.5492 246.003 40.8877 245.274 40.8877C244.44 40.8877 243.789 40.6533 243.32 40.1846C242.07 38.9346 241.445 37.3721 241.445 35.4971C241.445 33.2054 242.253 31.2523 243.867 29.6377C245.638 27.8669 247.8 26.9814 250.352 26.9814C252.643 26.9814 254.44 27.6325 255.742 28.9346C257.201 30.3929 257.93 32.1117 257.93 34.0908C257.93 36.2262 257.253 37.971 255.899 39.3252C255.013 40.2106 253.659 41.07 251.836 41.9033L250.195 40.2627C252.018 39.6898 253.451 38.8825 254.492 37.8408C255.482 36.8512 255.977 35.6533 255.977 34.2471C255.977 32.5804 255.43 31.2002 254.336 30.1064C253.242 29.0127 251.524 28.5179 249.18 28.6221L250.586 29.3252C251.211 29.5856 251.211 29.8721 250.586 30.1846ZM248.789 28.7002C247.435 29.0127 246.263 29.6637 245.274 30.6533C243.919 32.0075 243.242 33.6742 243.242 35.6533C243.242 36.8512 243.633 37.8408 244.414 38.6221C244.57 38.7783 244.805 38.8564 245.117 38.8564C245.43 38.8564 245.768 38.6742 246.133 38.3096C247.331 37.1117 248.216 33.9085 248.789 28.7002ZM266.367 31.8252C268.086 30.2106 269.414 27.8669 270.352 24.7939L271.914 25.2627C272.175 25.471 272.123 25.6012 271.758 25.6533C271.341 26.695 270.925 27.6585 270.508 28.5439H272.852C273.425 27.346 273.867 26.2783 274.18 25.3408L275.664 25.8877C275.873 26.096 275.794 26.2262 275.43 26.2783C275.065 27.1117 274.701 27.8669 274.336 28.5439H278.32V30.0283H274.336V32.4502H277.539V33.9346H274.336V36.4346H277.539V37.9189H274.336V40.8096H278.789V42.2939H270.195V42.9971H268.633V31.6689C268.268 32.1898 267.878 32.6585 267.461 33.0752L266.367 31.8252ZM262.461 42.8408L262.149 41.3564H263.477C263.685 41.3564 263.789 41.2523 263.789 41.0439V36.2002L261.758 36.6689C261.706 37.0335 261.576 37.1117 261.367 36.9033L261.055 35.1064L263.789 34.5596V30.4189H261.367V28.9346H263.789V24.9502H265.274C265.69 25.0023 265.716 25.1585 265.352 25.4189V28.9346H267.383V30.4189H265.352V34.2471L267.383 33.7002L267.617 35.1064L265.352 35.8096V41.5908C265.352 42.4242 264.935 42.8408 264.102 42.8408H262.461ZM270.195 40.8096H272.774V37.9189H270.195V40.8096ZM270.195 36.4346H272.774V33.9346H270.195V36.4346ZM270.195 32.4502H272.774V30.0283H270.195V32.4502ZM296.445 27.1377L296.68 26.8252L297.93 27.8408L297.695 28.0752C296.341 30.4189 295.013 31.9814 293.711 32.7627L294.492 32.9971C294.857 33.1533 294.831 33.3096 294.414 33.4658C294.31 33.8304 294.18 34.1429 294.024 34.4033H297.383L297.617 34.0908L299.024 35.1064L298.711 35.4189C297.044 39.846 293.659 42.346 288.555 42.9189L287.93 41.4346C290.378 41.1742 292.305 40.5231 293.711 39.4814C292.982 38.7523 292.253 38.1273 291.524 37.6064C290.847 38.1794 289.935 38.7002 288.789 39.1689L288.086 37.7627C290.638 36.721 292.305 35.1325 293.086 32.9971C292.305 33.7262 290.899 34.3512 288.867 34.8721L288.164 33.4658C290.143 33.0492 291.628 32.5023 292.617 31.8252C292.097 31.2002 291.472 30.6533 290.742 30.1846C290.378 30.5492 290.013 30.8617 289.649 31.1221L288.555 29.9502C290.274 28.4919 291.367 26.9294 291.836 25.2627L293.242 25.7314C293.607 25.8877 293.581 26.0439 293.164 26.2002C293.112 26.5127 292.982 26.8252 292.774 27.1377H296.445ZM285.82 30.1846H288.399V31.6689H285.82V33.6221C286.862 34.0908 287.852 34.7939 288.789 35.7314L287.774 37.1377C286.94 36.3044 286.289 35.7054 285.82 35.3408V42.9189H284.258V35.1846C283.945 36.2262 283.086 37.5544 281.68 39.1689L280.508 37.6846C282.435 35.8617 283.633 33.8564 284.102 31.6689H281.055V30.1846H284.258V27.6064C283.216 27.7627 282.279 27.8929 281.445 27.9971L281.055 26.5127C283.138 26.3044 285.3 25.8877 287.539 25.2627L288.399 26.4346C288.607 26.7471 288.477 26.8512 288.008 26.7471C287.279 26.9554 286.55 27.1377 285.82 27.2939V30.1846ZM291.524 29.2471C292.305 29.6637 293.06 30.1846 293.789 30.8096C294.57 30.0804 295.222 29.2731 295.742 28.3877H292.149C291.94 28.7523 291.732 29.0387 291.524 29.2471ZM292.383 36.6689C293.112 37.0856 293.945 37.7106 294.883 38.5439C295.664 37.971 296.341 37.0075 296.914 35.6533H293.32C293.008 36.07 292.695 36.4085 292.383 36.6689ZM304.414 29.3252C304.987 28.1273 305.951 26.9033 307.305 25.6533L308.164 26.4346C306.862 27.6325 305.951 28.7783 305.43 29.8721C304.857 31.07 304.57 32.5023 304.57 34.1689C304.57 35.5752 304.857 36.9033 305.43 38.1533C305.951 39.2992 306.862 40.5752 308.164 41.9814L307.305 42.8408C306.003 41.3825 305.039 40.0023 304.414 38.7002C303.737 37.2939 303.399 35.7835 303.399 34.1689C303.399 32.346 303.737 30.7314 304.414 29.3252ZM315.508 41.9033H313.711V26.8252H325.977V41.5908H324.18V40.4971H315.508V41.9033ZM324.18 32.7627V28.3096H315.508V32.7627H324.18ZM324.18 39.0127V34.2471H315.508V39.0127H324.18ZM338.945 35.8096H335.977C335.508 38.7783 334.102 41.1221 331.758 42.8408L330.977 41.3564C333.268 39.7419 334.518 37.346 334.727 34.1689L334.883 31.7471H333.789V32.7627H332.227V26.0439H340.117V32.4502H338.555V31.7471H336.289L336.133 34.3252H340.508L340.117 40.4971C340.013 41.7471 339.492 42.3721 338.555 42.3721H336.445L336.211 40.8877H337.93C338.399 40.8877 338.659 40.6273 338.711 40.1064L338.945 35.8096ZM347.383 41.2002C347.383 42.0856 346.966 42.5283 346.133 42.5283H344.414L344.102 41.0439H345.586C345.742 41.0439 345.82 40.9658 345.82 40.8096V25.8096H347.305C347.722 25.8617 347.748 26.0179 347.383 26.2783V41.2002ZM343.633 27.6846C344.05 27.7367 344.076 27.8929 343.711 28.1533V38.8564H342.149V27.6846H343.633ZM338.555 30.4971V27.2939H333.789V30.4971H338.555ZM355.117 38.7002C354.492 40.0023 353.529 41.3825 352.227 42.8408L351.367 41.9814C352.669 40.5752 353.581 39.2992 354.102 38.1533C354.675 36.9033 354.961 35.5752 354.961 34.1689C354.961 32.5023 354.675 31.07 354.102 29.8721C353.581 28.7783 352.669 27.6325 351.367 26.4346L352.227 25.6533C353.581 26.9033 354.544 28.1273 355.117 29.3252C355.794 30.7314 356.133 32.346 356.133 34.1689C356.133 35.7835 355.794 37.2939 355.117 38.7002Z" fill="#757575"/>
</g>
<rect x="2" y="2" width="714" height="440" stroke="black" stroke-width="4"/>
<defs>
<clipPath id="clip0_7_39420">
<rect width="718" height="444" fill="white"/>
</clipPath>
</defs>
</svg>
