<svg width="718" height="444" viewBox="0 0 718 444" fill="none" xmlns="http://www.w3.org/2000/svg">
<g clip-path="url(#clip0_7_40456)">
<path d="M0 0H718V444H0V0Z" fill="white"/>
<path d="M181.5 91.5V369.5" stroke="#CCCCCC" stroke-miterlimit="10"/>
<path d="M303.5 91.5V369.5" stroke="#CCCCCC" stroke-miterlimit="10"/>
<path d="M424.5 91.5V369.5" stroke="#CCCCCC" stroke-miterlimit="10"/>
<path d="M545.5 91.5V369.5" stroke="#CCCCCC" stroke-miterlimit="10"/>
<path d="M667.5 91.5V369.5" stroke="#CCCCCC" stroke-miterlimit="10"/>
<path d="M88.5 369.5H695.5" stroke="#333333" stroke-miterlimit="10"/>
<path d="M88.5 300.5H695.5" stroke="#CCCCCC" stroke-miterlimit="10"/>
<path d="M88.5 230.5H695.5" stroke="#CCCCCC" stroke-miterlimit="10"/>
<path d="M88.5 161.5H695.5" stroke="#CCCCCC" stroke-miterlimit="10"/>
<path d="M88.5 91.5H695.5" stroke="#CCCCCC" stroke-miterlimit="10"/>
<path d="M88.2 369.799H88.807H89.414H90.021H90.628H91.235H91.842H92.449H93.0559H93.6629H94.2699H94.8769H95.4839H96.0909H96.6979H97.3049H97.9119H98.5189H99.1259H99.7329H100.34H100.947H101.554H102.161H102.768H103.375H103.982H104.589H105.196H105.803H106.41H107.017H107.624H108.231H108.838H109.445H110.052H110.659H111.266H111.873H112.48H113.087H113.694H114.301H114.908H115.515H116.122H116.729H117.336H117.943H118.55H119.157H119.764H120.371H120.978H121.585H122.192H122.799H123.406H124.013H124.62H125.227H125.834H126.441H127.048H127.655H128.262H128.869H129.476H130.083H130.69H131.297H131.904H132.51H133.117L133.724 369.66H134.331H134.938L135.545 369.799L136.152 369.104L136.759 369.521L137.366 369.382L137.973 368.965L138.58 369.382L139.187 369.104H139.794L140.401 369.66L141.008 369.104L141.615 369.66L142.222 369.243L142.829 368.965L143.436 369.104L144.043 369.243L144.65 369.521L145.257 369.66L145.864 369.382L146.471 369.799L147.078 369.66L147.685 369.799L148.292 369.66L148.899 369.799H149.506H150.113L150.72 369.66H151.327L151.934 369.799H152.541H153.148H153.755L154.362 369.66L154.969 369.799H155.576H156.183H156.79H157.397H158.004H158.611H159.218H159.825H160.432H161.039H161.646H162.253H162.86H163.467H164.074H164.681H165.288H165.895H166.502H167.109H167.716H168.323H168.93H169.537H170.144H170.751H171.358H171.965H172.572H173.179H173.786H174.393H175H175.607H176.214H176.821H177.428H178.035H178.642H179.249H179.856H180.463H181.07H181.677H182.284H182.891H183.498H184.105H184.712H185.319H185.926H186.533H187.14H187.747H188.354H188.961H189.568H190.175H190.782L191.389 369.66L191.996 369.799L192.603 369.66L193.21 369.799H193.817H194.424H195.031H195.638H196.245L196.852 369.521L197.459 369.799L198.066 369.66H198.673L199.28 369.799H199.887H200.494H201.101H201.708H202.315H202.922H203.529H204.136H204.743H205.35H205.957H206.564H207.171L207.778 369.66L208.385 369.799H208.992H209.599H210.206H210.813H211.42H212.027H212.634H213.241H213.848H214.455H215.062H215.669H216.276H216.883H217.49H218.096H218.703H219.31L219.917 369.66L220.524 369.799H221.131H221.738H222.345H222.952H223.559H224.166H224.773H225.38L225.987 369.66L226.594 369.799H227.201H227.808H228.415H229.022H229.629H230.236H230.843H231.45H232.057H232.664H233.271H233.878H234.485H235.092H235.699H236.306H236.913H237.52H238.127H238.734H239.341H239.948H240.555H241.162H241.769H242.376H242.983H243.59H244.197H244.804H245.411H246.018H246.625H247.232H247.839H248.446H249.053L249.66 369.66L250.267 369.521L250.874 369.799H251.481H252.088H252.695H253.302H253.909H254.516H255.123H255.73H256.337H256.944L257.551 369.66L258.158 369.799L258.765 369.521L259.372 369.799H259.979L260.586 369.521L261.193 369.799H261.8H262.407H263.014H263.621H264.228H264.835H265.442H266.049H266.656H267.263H267.87L268.477 369.66H269.084H269.691L270.298 369.382L270.905 369.521L271.512 369.799L272.119 369.521L272.726 369.66H273.333L273.94 369.799L274.547 369.521L275.154 369.104L275.761 369.521L276.368 369.799L276.975 369.521L277.582 369.799H278.189L278.796 369.66H279.403L280.01 369.104L280.617 368.965L281.224 368.269L281.831 369.521L282.438 369.382L283.045 369.243L283.652 368.825L284.259 369.382L284.866 368.965L285.473 367.712L286.08 369.243L286.687 368.547L287.294 368.408L287.901 367.712L288.508 367.851L289.115 367.712L289.722 367.991L290.329 368.13L290.936 367.573L291.543 368.547L292.15 368.965H292.757L293.364 368.825L293.971 369.104L294.578 368.408L295.185 368.965L295.792 369.243L296.399 368.269L297.006 367.991L297.613 369.104L298.22 369.382H298.827L299.434 368.547L300.041 369.243L300.648 369.104L301.255 369.382L301.862 369.66L302.469 368.965L303.076 369.104H303.683L304.29 368.269L304.897 369.799L305.504 368.825L306.111 369.104L306.717 369.521L307.324 369.66H307.931L308.538 369.799L309.145 369.382H309.752L310.359 369.521L310.966 369.66L311.573 369.799L312.18 369.243L312.787 368.965L313.394 369.521L314.001 369.66H314.608H315.215L315.822 369.799L316.429 369.104L317.036 368.408L317.643 368.825L318.25 367.712L318.857 368.965L319.464 369.521L320.071 369.382L320.678 369.243L321.285 369.382H321.892H322.499L323.106 368.825L323.713 369.799H324.32L324.927 369.66L325.534 369.243L326.141 369.799H326.748L327.355 369.66L327.962 369.521L328.569 369.799H329.176H329.783L330.39 369.66L330.997 369.521L331.604 369.799H332.211H332.818H333.425L334.032 369.66L334.639 369.243L335.246 369.799L335.853 369.66L336.46 369.799H337.067H337.674H338.281H338.888H339.495H340.102H340.709L341.316 369.66H341.923L342.53 369.799L343.137 368.686L343.744 369.799H344.351L344.958 369.66L345.565 369.382L346.172 369.243H346.779L347.386 368.13L347.993 367.434L348.6 366.877L349.207 365.486L349.814 366.877L350.421 367.017L351.028 366.877L351.635 362.981L352.242 365.068L352.849 362.425L353.456 366.182L354.063 366.599L354.67 366.042L355.277 365.208L355.884 366.46L356.491 366.599L357.098 367.434L357.705 366.877L358.312 367.156L358.919 366.321L359.526 365.764L360.133 366.599L360.74 366.46L361.347 365.208L361.954 368.269L362.561 365.903L363.168 367.434L363.775 367.573L364.382 365.625L364.989 367.156L365.596 367.573L366.203 368.686L366.81 367.295L367.417 368.13L368.024 367.017L368.631 368.547L369.238 366.877L369.845 368.13L370.452 367.295L371.059 367.156L371.666 368.825L372.273 367.017L372.88 367.434L373.487 368.547L374.094 368.408L374.701 368.825L375.308 368.686L375.915 368.13L376.522 366.877L377.129 368.965H377.736L378.343 368.686H378.95L379.557 368.547L380.164 367.851L380.771 367.573L381.378 366.877L381.985 366.738L382.592 366.877L383.199 367.991L383.806 367.851L384.413 366.738L385.02 366.46L385.627 366.599L386.234 366.738L386.841 365.347L387.448 365.625L388.055 367.851L388.662 368.408L389.269 367.712L389.876 368.269L390.483 368.686H391.09H391.697L392.304 369.104L392.911 369.382L393.518 368.825H394.124L394.731 369.104L395.338 368.825L395.945 368.686L396.552 369.66H397.159L397.766 369.799L398.373 369.382L398.98 369.66L399.587 369.382L400.194 369.521H400.801L401.408 369.66L402.015 369.104L402.622 369.799H403.229L403.836 369.382L404.443 369.799H405.05H405.657H406.264H406.871H407.478H408.085H408.692H409.299H409.906H410.513H411.12L411.727 369.521L412.334 369.104L412.941 369.66L413.548 369.799H414.155L414.762 369.521H415.369L415.976 368.13L416.583 367.991L417.19 369.243L417.797 368.965L418.404 369.382L419.011 369.521L419.618 369.382L420.225 368.965L420.832 369.382L421.439 369.799H422.046L422.653 369.66L423.26 369.521L423.867 369.243L424.474 369.799L425.081 369.66L425.688 369.799H426.295L426.902 368.965L427.509 369.382L428.116 367.295L428.723 368.825L429.33 367.712L429.937 368.13L430.544 367.712L431.151 365.347L431.758 366.877L432.365 365.208L432.972 364.234L433.579 364.651L434.186 365.903L434.793 367.156L435.4 367.712L436.007 363.816L436.614 366.182L437.221 364.651L437.828 365.764L438.435 367.017L439.042 367.434L439.649 363.677L440.256 362.703L440.863 364.234L441.47 362.425L442.077 360.198L442.684 363.538L443.291 365.347L443.898 363.816L444.505 364.929L445.112 364.512L445.719 366.042L446.326 362.425L446.933 365.625L447.54 367.017L448.147 365.903L448.754 365.764L449.361 364.373L449.968 367.851L450.575 367.017L451.182 367.991L451.789 368.13L452.396 366.46L453.003 367.851L453.61 366.321L454.217 367.295L454.824 367.573L455.431 368.547L456.038 368.965L456.645 367.851L457.252 368.965L457.859 369.243L458.466 369.521H459.073L459.68 369.66H460.287L460.894 369.799L461.501 368.825L462.108 369.243L462.715 369.66L463.322 367.434L463.929 369.799H464.536L465.143 369.521L465.75 369.66H466.357L466.964 368.965L467.571 369.799L468.178 369.521L468.785 369.799L469.392 369.521L469.999 369.66L470.606 369.799H471.213H471.82L472.427 369.66L473.034 369.799L473.641 369.66L474.248 368.965H474.855L475.462 369.243L476.069 369.799L476.676 369.521H477.283L477.89 368.547L478.497 369.66L479.104 369.799L479.71 369.521L480.317 369.799H480.924H481.531L482.138 369.382L482.745 369.66L483.352 369.799H483.959H484.566H485.173H485.78L486.387 369.66L486.994 369.521L487.601 369.799H488.208H488.815H489.422H490.029H490.636H491.243H491.85H492.457H493.064H493.671H494.278H494.885H495.492L496.099 369.66L496.706 369.521L497.313 369.799H497.92H498.527L499.134 369.521L499.741 369.799L500.348 369.521L500.955 369.799L501.562 369.66L502.169 369.799H502.776L503.383 368.686L503.99 369.243L504.597 367.712L505.204 368.269L505.811 369.382L506.418 369.521L507.025 369.66L507.632 369.104L508.239 369.799H508.846H509.453L510.06 369.66L510.667 369.799H511.274H511.881H512.488H513.095L513.702 369.66L514.309 369.799H514.916H515.523H516.13L516.737 369.66L517.344 369.799H517.951H518.558H519.165H519.772H520.379L520.986 369.66L521.593 369.799H522.2H522.807H523.414L524.021 369.66H524.628L525.235 367.991L525.842 369.521L526.449 369.382L527.056 368.269L527.663 369.104L528.27 368.965L528.877 368.269L529.484 363.816L530.091 363.538L530.698 365.486L531.305 364.094L531.912 366.321L532.519 365.764L533.126 361.729L533.733 362.703H534.34L534.947 359.781L535.554 357.693L536.161 358.668L536.768 354.354L537.375 348.788L537.982 349.205L538.589 340.021L539.196 340.995L539.803 341.274L540.41 340.021L541.017 341.135L541.624 337.656L542.231 333.481L542.838 320.819L543.445 337.378L544.052 334.316L544.659 336.264L545.266 352.684L545.873 340.161L546.48 339.047L547.087 335.569L547.694 341.413L548.301 349.901L548.908 356.998L549.515 353.38L550.122 340.717L550.729 338.073L551.336 337.517L551.943 344.892L552.55 339.187L553.157 351.849L553.764 355.05L554.371 348.788L554.978 340.717L555.585 351.71L556.192 346.283L556.799 341.413L557.406 345.031L558.013 355.606L558.62 336.543L559.227 340.717L559.834 340.578L560.441 346.005L561.048 341.274L561.655 349.762L562.262 349.901L562.869 333.342L563.476 331.812L564.083 332.646L564.689 341.413L565.296 333.76L565.903 343.5L566.51 352.823L567.117 337.099L567.724 339.187L568.331 336.682L568.938 345.031L569.545 349.066L570.152 352.823L570.759 359.92L571.366 362.146L571.973 351.988L572.58 345.17L573.187 345.866L573.794 343.639L574.401 345.866L575.008 352.267L575.615 346.561L576.222 335.429L576.829 341.135L577.436 353.241L578.043 349.762L578.65 358.528L579.257 361.451L579.864 350.875L580.471 353.936L581.078 351.988L581.685 355.189L582.292 356.302L582.899 360.755L583.506 357.276L584.113 349.623L584.72 346.283L585.327 337.378L585.934 347.675L586.541 349.484L587.148 350.458L587.755 361.311L588.362 349.066L588.969 345.309L589.576 349.344L590.183 347.118L590.79 356.163L591.397 352.823L592.004 360.755L592.611 350.04L593.218 349.066L593.825 353.797L594.432 352.127L595.039 363.538L595.646 362.285L596.253 357.276L596.86 359.224L597.467 356.998L598.074 363.12L598.681 361.59L599.288 347.814L599.895 350.319L600.502 356.163L601.109 354.493L601.716 342.109L602.323 349.623L602.93 347.814L603.537 342.387L604.144 357.276L604.751 361.59L605.358 347.536L605.965 344.196L606.572 353.241L607.179 357.415L607.786 351.293L608.393 362.285L609 364.651L609.607 352.545L610.214 351.571L610.821 355.606L611.428 358.946L612.035 358.528L612.642 365.625L613.249 365.903L613.856 358.111L614.463 364.79L615.07 362.285L615.677 363.259L616.284 362.981L616.891 365.764L617.498 367.295L618.105 363.12L618.712 362.981L619.319 362.285L619.926 365.625L620.533 362.564L621.14 366.042H621.747L622.354 365.625L622.961 364.929L623.568 363.259H624.175L624.782 363.955L625.389 368.269L625.996 367.851L626.603 365.347L627.21 366.46L627.817 364.929L628.424 360.337L629.031 365.208L629.638 366.182L630.245 367.712L630.852 363.538L631.459 364.094L632.066 365.068L632.673 359.642L633.28 351.71L633.887 361.59L634.494 364.79L635.101 354.632L635.708 353.102L636.315 346.701L636.922 347.953L637.529 348.927L638.136 351.014L638.743 356.302L639.35 336.96L639.957 332.507L640.564 325.411L641.171 336.404L641.778 325.132L642.385 334.734L642.992 342.804L643.599 333.342L644.206 288.953L644.813 267.385L645.42 284.918L646.027 286.31L646.634 294.241L647.241 320.401L647.848 275.873L648.455 251.383L649.062 240.947L649.669 256.114L650.275 260.706L650.882 268.359L651.489 294.798L652.096 238.72L652.703 213.952H653.31L653.917 239.138L654.524 223.692L655.131 239.277L655.738 275.734L656.345 221.744L656.952 176.798L657.559 166.362L658.166 221.883L658.773 221.326L659.38 220.492L659.987 230.789L660.594 218.543L661.201 141.176L661.808 98.7353L662.415 94.5608L663.022 91.6387L663.629 118.773L664.236 215.621L664.843 171.232L665.45 118.912L666.057 105.693L666.664 174.99L667.271 145.768L667.878 183.339L668.485 264.185L669.092 185.565L669.699 135.749L670.306 129.209L670.913 181.112L671.52 196.836L672.127 218.543L672.734 274.76L673.341 217.709L673.948 187.791L674.555 196.836L675.162 224.249L675.769 242.338L676.376 255.557L676.983 302.729L677.59 249.852L678.197 203.098L678.804 253.47L679.411 281.3L680.018 286.31L680.625 311.357L681.232 318.731L681.839 322.767L682.446 245.817L683.053 280.187L683.66 298.137L684.267 320.68L684.874 298.416L685.481 319.566L686.088 265.576L686.695 295.633L687.302 291.597L687.909 303.425L688.516 299.25L689.123 327.498L689.73 346.561L690.337 278.378L690.944 306.347L691.551 301.059L692.158 312.609L692.765 328.472L693.372 329.585L693.979 344.335L694.586 338.769L695.193 226.614L695.8 263.35" stroke="#4285F4" stroke-width="2" stroke-miterlimit="10"/>
<path d="M379.922 418.8V410.206H382.891C383.557 410.206 384.068 410.248 384.422 410.331C384.911 410.446 385.328 410.649 385.672 410.94C386.13 411.326 386.469 411.821 386.688 412.425C386.917 413.019 387.031 413.696 387.031 414.456C387.031 415.112 386.953 415.69 386.797 416.19C386.651 416.69 386.458 417.107 386.219 417.44C385.979 417.774 385.714 418.034 385.422 418.222C385.141 418.409 384.802 418.555 384.406 418.659C384.01 418.753 383.552 418.8 383.031 418.8H379.922ZM381.062 417.784H382.891C383.464 417.784 383.911 417.732 384.234 417.628C384.557 417.524 384.812 417.373 385 417.175C385.271 416.914 385.479 416.555 385.625 416.097C385.781 415.638 385.859 415.086 385.859 414.44C385.859 413.545 385.708 412.857 385.406 412.378C385.115 411.888 384.76 411.56 384.344 411.394C384.031 411.279 383.542 411.222 382.875 411.222H381.062V417.784ZM392.859 418.034C392.464 418.368 392.083 418.602 391.719 418.737C391.365 418.873 390.979 418.94 390.562 418.94C389.875 418.94 389.349 418.774 388.984 418.44C388.62 418.107 388.438 417.68 388.438 417.159C388.438 416.857 388.505 416.581 388.641 416.331C388.776 416.071 388.958 415.868 389.188 415.722C389.417 415.565 389.672 415.451 389.953 415.378C390.151 415.315 390.464 415.258 390.891 415.206C391.734 415.112 392.359 414.993 392.766 414.847C392.766 414.701 392.766 414.612 392.766 414.581C392.766 414.144 392.667 413.836 392.469 413.659C392.198 413.43 391.797 413.315 391.266 413.315C390.776 413.315 390.411 413.404 390.172 413.581C389.932 413.748 389.755 414.05 389.641 414.487L388.609 414.347C388.703 413.909 388.859 413.555 389.078 413.284C389.297 413.013 389.609 412.805 390.016 412.659C390.422 412.513 390.891 412.44 391.422 412.44C391.953 412.44 392.385 412.503 392.719 412.628C393.052 412.753 393.297 412.909 393.453 413.097C393.609 413.284 393.719 413.524 393.781 413.815C393.812 413.993 393.828 414.315 393.828 414.784V416.19C393.828 417.17 393.849 417.789 393.891 418.05C393.943 418.31 394.036 418.56 394.172 418.8H393.062C392.958 418.581 392.891 418.326 392.859 418.034ZM392.766 415.675C392.38 415.831 391.807 415.966 391.047 416.081C390.609 416.144 390.302 416.216 390.125 416.3C389.948 416.373 389.807 416.482 389.703 416.628C389.609 416.774 389.562 416.94 389.562 417.128C389.562 417.409 389.667 417.644 389.875 417.831C390.094 418.019 390.406 418.112 390.812 418.112C391.219 418.112 391.578 418.024 391.891 417.847C392.214 417.67 392.448 417.425 392.594 417.112C392.708 416.873 392.766 416.524 392.766 416.065V415.675ZM398.094 417.862L398.25 418.784C397.948 418.847 397.682 418.878 397.453 418.878C397.068 418.878 396.771 418.821 396.562 418.706C396.354 418.581 396.203 418.42 396.109 418.222C396.026 418.024 395.984 417.607 395.984 416.972V413.394H395.219V412.581H395.984V411.034L397.031 410.409V412.581H398.094V413.394H397.031V417.034C397.031 417.336 397.047 417.529 397.078 417.612C397.12 417.696 397.182 417.763 397.266 417.815C397.349 417.868 397.469 417.894 397.625 417.894C397.75 417.894 397.906 417.883 398.094 417.862ZM403.047 416.8L404.141 416.925C403.974 417.56 403.656 418.055 403.188 418.409C402.719 418.763 402.125 418.94 401.406 418.94C400.5 418.94 399.776 418.659 399.234 418.097C398.703 417.534 398.438 416.748 398.438 415.737C398.438 414.696 398.708 413.888 399.25 413.315C399.792 412.732 400.49 412.44 401.344 412.44C402.177 412.44 402.854 412.722 403.375 413.284C403.906 413.847 404.172 414.644 404.172 415.675C404.172 415.737 404.172 415.831 404.172 415.956H399.531C399.573 416.644 399.766 417.17 400.109 417.534C400.453 417.888 400.885 418.065 401.406 418.065C401.792 418.065 402.12 417.966 402.391 417.769C402.672 417.56 402.891 417.237 403.047 416.8ZM399.594 415.097H403.062C403.021 414.565 402.891 414.17 402.672 413.909C402.328 413.503 401.891 413.3 401.359 413.3C400.87 413.3 400.458 413.461 400.125 413.784C399.802 414.107 399.625 414.545 399.594 415.097Z" fill="black"/>
<path d="M33.2 261.807H29.5594L24.6062 265.119V263.729L27.2 262.041C27.6791 261.729 28.1635 261.437 28.6531 261.166C28.2052 260.906 27.7 260.593 27.1375 260.229L24.6062 258.557V257.244L29.5594 260.666H33.2V261.807ZM32.4344 253.291C32.7677 253.687 33.0021 254.067 33.1375 254.432C33.2729 254.786 33.3406 255.171 33.3406 255.588C33.3406 256.275 33.1739 256.801 32.8406 257.166C32.5073 257.531 32.0802 257.713 31.5594 257.713C31.2573 257.713 30.9812 257.645 30.7312 257.51C30.4708 257.374 30.2677 257.192 30.1219 256.963C29.9656 256.734 29.851 256.479 29.7781 256.197C29.7156 255.999 29.6583 255.687 29.6062 255.26C29.5125 254.416 29.3927 253.791 29.2469 253.385C29.101 253.385 29.0125 253.385 28.9812 253.385C28.5437 253.385 28.2364 253.484 28.0594 253.682C27.8302 253.952 27.7156 254.354 27.7156 254.885C27.7156 255.374 27.8041 255.739 27.9812 255.979C28.1479 256.218 28.45 256.395 28.8875 256.51L28.7469 257.541C28.3094 257.447 27.9552 257.291 27.6844 257.072C27.4135 256.854 27.2052 256.541 27.0594 256.135C26.9135 255.729 26.8406 255.26 26.8406 254.729C26.8406 254.197 26.9031 253.765 27.0281 253.432C27.1531 253.098 27.3094 252.854 27.4969 252.697C27.6844 252.541 27.9239 252.432 28.2156 252.369C28.3927 252.338 28.7156 252.322 29.1844 252.322H30.5906C31.5698 252.322 32.1896 252.301 32.45 252.26C32.7104 252.208 32.9604 252.114 33.2 251.979V253.088C32.9812 253.192 32.726 253.26 32.4344 253.291ZM30.075 253.385C30.2312 253.77 30.3666 254.343 30.4812 255.104C30.5437 255.541 30.6166 255.848 30.7 256.025C30.7729 256.202 30.8823 256.343 31.0281 256.447C31.1739 256.541 31.3406 256.588 31.5281 256.588C31.8094 256.588 32.0437 256.484 32.2312 256.275C32.4187 256.057 32.5125 255.744 32.5125 255.338C32.5125 254.932 32.4239 254.572 32.2469 254.26C32.0698 253.937 31.825 253.702 31.5125 253.557C31.2729 253.442 30.9239 253.385 30.4656 253.385H30.075ZM33.2 250.354H26.9812V249.416H27.8562C27.5437 249.218 27.2989 248.958 27.1219 248.635C26.9344 248.312 26.8406 247.942 26.8406 247.525C26.8406 247.067 26.9344 246.692 27.1219 246.4C27.3094 246.098 27.575 245.89 27.9187 245.775C27.2 245.275 26.8406 244.635 26.8406 243.854C26.8406 243.229 27.0125 242.755 27.3562 242.432C27.6896 242.098 28.2156 241.932 28.9344 241.932H33.2V242.979H29.2781C28.8614 242.979 28.5594 243.015 28.3719 243.088C28.1844 243.15 28.0333 243.27 27.9187 243.447C27.8041 243.624 27.7469 243.838 27.7469 244.088C27.7469 244.525 27.8927 244.89 28.1844 245.182C28.476 245.463 28.9448 245.604 29.5906 245.604H33.2V246.666H29.1531C28.6844 246.666 28.3354 246.755 28.1062 246.932C27.8666 247.098 27.7469 247.374 27.7469 247.76C27.7469 248.062 27.825 248.338 27.9812 248.588C28.1375 248.838 28.3666 249.02 28.6687 249.135C28.9708 249.249 29.4031 249.307 29.9656 249.307H33.2V250.354ZM32.4344 235.291C32.7677 235.687 33.0021 236.067 33.1375 236.432C33.2729 236.786 33.3406 237.171 33.3406 237.588C33.3406 238.275 33.1739 238.801 32.8406 239.166C32.5073 239.531 32.0802 239.713 31.5594 239.713C31.2573 239.713 30.9812 239.645 30.7312 239.51C30.4708 239.374 30.2677 239.192 30.1219 238.963C29.9656 238.734 29.851 238.479 29.7781 238.197C29.7156 237.999 29.6583 237.687 29.6062 237.26C29.5125 236.416 29.3927 235.791 29.2469 235.385C29.101 235.385 29.0125 235.385 28.9812 235.385C28.5437 235.385 28.2364 235.484 28.0594 235.682C27.8302 235.952 27.7156 236.354 27.7156 236.885C27.7156 237.374 27.8041 237.739 27.9812 237.979C28.1479 238.218 28.45 238.395 28.8875 238.51L28.7469 239.541C28.3094 239.447 27.9552 239.291 27.6844 239.072C27.4135 238.854 27.2052 238.541 27.0594 238.135C26.9135 237.729 26.8406 237.26 26.8406 236.729C26.8406 236.197 26.9031 235.765 27.0281 235.432C27.1531 235.098 27.3094 234.854 27.4969 234.697C27.6844 234.541 27.9239 234.432 28.2156 234.369C28.3927 234.338 28.7156 234.322 29.1844 234.322H30.5906C31.5698 234.322 32.1896 234.301 32.45 234.26C32.7104 234.208 32.9604 234.114 33.2 233.979V235.088C32.9812 235.192 32.726 235.26 32.4344 235.291ZM30.075 235.385C30.2312 235.77 30.3666 236.343 30.4812 237.104C30.5437 237.541 30.6166 237.848 30.7 238.025C30.7729 238.202 30.8823 238.343 31.0281 238.447C31.1739 238.541 31.3406 238.588 31.5281 238.588C31.8094 238.588 32.0437 238.484 32.2312 238.275C32.4187 238.057 32.5125 237.744 32.5125 237.338C32.5125 236.932 32.4239 236.572 32.2469 236.26C32.0698 235.937 31.825 235.702 31.5125 235.557C31.2729 235.442 30.9239 235.385 30.4656 235.385H30.075ZM33.7156 232.557L33.8719 231.525C34.1844 231.484 34.4135 231.364 34.5594 231.166C34.7573 230.906 34.8562 230.551 34.8562 230.104C34.8562 229.614 34.7573 229.239 34.5594 228.979C34.3614 228.708 34.0906 228.525 33.7469 228.432C33.5281 228.369 33.075 228.343 32.3875 228.354C32.9292 228.812 33.2 229.385 33.2 230.072C33.2 230.926 32.8927 231.588 32.2781 232.057C31.6531 232.525 30.9135 232.76 30.0594 232.76C29.4656 232.76 28.9187 232.656 28.4187 232.447C27.9083 232.229 27.5177 231.916 27.2469 231.51C26.976 231.104 26.8406 230.624 26.8406 230.072C26.8406 229.333 27.1375 228.723 27.7312 228.244H26.9812V227.275H32.3562C33.325 227.275 34.0125 227.374 34.4187 227.572C34.825 227.77 35.1427 228.083 35.3719 228.51C35.6114 228.937 35.7312 229.463 35.7312 230.088C35.7312 230.827 35.5646 231.426 35.2312 231.885C34.8979 232.343 34.3927 232.567 33.7156 232.557ZM29.9812 231.682C30.7937 231.682 31.3875 231.52 31.7625 231.197C32.1375 230.874 32.325 230.468 32.325 229.979C32.325 229.489 32.1375 229.083 31.7625 228.76C31.3875 228.426 30.8041 228.26 30.0125 228.26C29.2521 228.26 28.6791 228.432 28.2937 228.775C27.9083 229.109 27.7156 229.515 27.7156 229.994C27.7156 230.463 27.9083 230.864 28.2937 231.197C28.6687 231.52 29.2312 231.682 29.9812 231.682ZM32.4344 221.291C32.7677 221.687 33.0021 222.067 33.1375 222.432C33.2729 222.786 33.3406 223.171 33.3406 223.588C33.3406 224.275 33.1739 224.801 32.8406 225.166C32.5073 225.531 32.0802 225.713 31.5594 225.713C31.2573 225.713 30.9812 225.645 30.7312 225.51C30.4708 225.374 30.2677 225.192 30.1219 224.963C29.9656 224.734 29.851 224.479 29.7781 224.197C29.7156 223.999 29.6583 223.687 29.6062 223.26C29.5125 222.416 29.3927 221.791 29.2469 221.385C29.101 221.385 29.0125 221.385 28.9812 221.385C28.5437 221.385 28.2364 221.484 28.0594 221.682C27.8302 221.952 27.7156 222.354 27.7156 222.885C27.7156 223.374 27.8041 223.739 27.9812 223.979C28.1479 224.218 28.45 224.395 28.8875 224.51L28.7469 225.541C28.3094 225.447 27.9552 225.291 27.6844 225.072C27.4135 224.854 27.2052 224.541 27.0594 224.135C26.9135 223.729 26.8406 223.26 26.8406 222.729C26.8406 222.197 26.9031 221.765 27.0281 221.432C27.1531 221.098 27.3094 220.854 27.4969 220.697C27.6844 220.541 27.9239 220.432 28.2156 220.369C28.3927 220.338 28.7156 220.322 29.1844 220.322H30.5906C31.5698 220.322 32.1896 220.301 32.45 220.26C32.7104 220.208 32.9604 220.114 33.2 219.979V221.088C32.9812 221.192 32.726 221.26 32.4344 221.291ZM30.075 221.385C30.2312 221.77 30.3666 222.343 30.4812 223.104C30.5437 223.541 30.6166 223.848 30.7 224.025C30.7729 224.202 30.8823 224.343 31.0281 224.447C31.1739 224.541 31.3406 224.588 31.5281 224.588C31.8094 224.588 32.0437 224.484 32.2312 224.275C32.4187 224.057 32.5125 223.744 32.5125 223.338C32.5125 222.932 32.4239 222.572 32.2469 222.26C32.0698 221.937 31.825 221.702 31.5125 221.557C31.2729 221.442 30.9239 221.385 30.4656 221.385H30.075ZM32.2625 216.057L33.1844 215.9C33.2469 216.202 33.2781 216.468 33.2781 216.697C33.2781 217.083 33.2208 217.38 33.1062 217.588C32.9812 217.796 32.8198 217.947 32.6219 218.041C32.4239 218.124 32.0073 218.166 31.3719 218.166H27.7937V218.932H26.9812V218.166H25.4344L24.8094 217.119H26.9812V216.057H27.7937V217.119H31.4344C31.7364 217.119 31.9291 217.104 32.0125 217.072C32.0958 217.031 32.1635 216.968 32.2156 216.885C32.2677 216.801 32.2937 216.682 32.2937 216.525C32.2937 216.4 32.2833 216.244 32.2625 216.057ZM32.4344 211.291C32.7677 211.687 33.0021 212.067 33.1375 212.432C33.2729 212.786 33.3406 213.171 33.3406 213.588C33.3406 214.275 33.1739 214.801 32.8406 215.166C32.5073 215.531 32.0802 215.713 31.5594 215.713C31.2573 215.713 30.9812 215.645 30.7312 215.51C30.4708 215.374 30.2677 215.192 30.1219 214.963C29.9656 214.734 29.851 214.479 29.7781 214.197C29.7156 213.999 29.6583 213.687 29.6062 213.26C29.5125 212.416 29.3927 211.791 29.2469 211.385C29.101 211.385 29.0125 211.385 28.9812 211.385C28.5437 211.385 28.2364 211.484 28.0594 211.682C27.8302 211.952 27.7156 212.354 27.7156 212.885C27.7156 213.374 27.8041 213.739 27.9812 213.979C28.1479 214.218 28.45 214.395 28.8875 214.51L28.7469 215.541C28.3094 215.447 27.9552 215.291 27.6844 215.072C27.4135 214.854 27.2052 214.541 27.0594 214.135C26.9135 213.729 26.8406 213.26 26.8406 212.729C26.8406 212.197 26.9031 211.765 27.0281 211.432C27.1531 211.098 27.3094 210.854 27.4969 210.697C27.6844 210.541 27.9239 210.432 28.2156 210.369C28.3927 210.338 28.7156 210.322 29.1844 210.322H30.5906C31.5698 210.322 32.1896 210.301 32.45 210.26C32.7104 210.208 32.9604 210.114 33.2 209.979V211.088C32.9812 211.192 32.726 211.26 32.4344 211.291ZM30.075 211.385C30.2312 211.77 30.3666 212.343 30.4812 213.104C30.5437 213.541 30.6166 213.848 30.7 214.025C30.7729 214.202 30.8823 214.343 31.0281 214.447C31.1739 214.541 31.3406 214.588 31.5281 214.588C31.8094 214.588 32.0437 214.484 32.2312 214.275C32.4187 214.057 32.5125 213.744 32.5125 213.338C32.5125 212.932 32.4239 212.572 32.2469 212.26C32.0698 211.937 31.825 211.702 31.5125 211.557C31.2729 211.442 30.9239 211.385 30.4656 211.385H30.075Z" fill="black"/>
<path d="M75.7 369.565C75.7 368.545 75.8042 367.727 76.0125 367.112C76.2208 366.487 76.5281 366.008 76.9344 365.675C77.351 365.341 77.8719 365.175 78.4969 365.175C78.9552 365.175 79.3562 365.269 79.7 365.456C80.0542 365.644 80.3458 365.914 80.575 366.269C80.8042 366.612 80.9812 367.034 81.1062 367.534C81.2312 368.034 81.2937 368.711 81.2937 369.565C81.2937 370.576 81.1896 371.388 80.9812 372.003C80.7833 372.618 80.476 373.097 80.0594 373.44C79.6531 373.774 79.1323 373.94 78.4969 373.94C77.674 373.94 77.0229 373.644 76.5437 373.05C75.9812 372.341 75.7 371.18 75.7 369.565ZM76.7781 369.565C76.7781 370.972 76.9448 371.909 77.2781 372.378C77.6115 372.847 78.0177 373.081 78.4969 373.081C78.9865 373.081 79.3927 372.847 79.7156 372.378C80.049 371.909 80.2156 370.972 80.2156 369.565C80.2156 368.149 80.049 367.211 79.7156 366.753C79.3927 366.284 78.9812 366.05 78.4812 366.05C78.0021 366.05 77.6167 366.253 77.325 366.659C76.9604 367.18 76.7781 368.149 76.7781 369.565Z" fill="black"/>
<path d="M61.7 301.975L62.8094 301.881C62.8927 302.423 63.0802 302.829 63.3719 303.1C63.674 303.37 64.0385 303.506 64.4656 303.506C64.9656 303.506 65.3927 303.313 65.7469 302.928C66.101 302.542 66.2781 302.037 66.2781 301.412C66.2781 300.808 66.1062 300.334 65.7625 299.99C65.4292 299.636 64.9865 299.459 64.4344 299.459C64.101 299.459 63.7937 299.537 63.5125 299.693C63.2417 299.85 63.0281 300.048 62.8719 300.287L61.8875 300.162L62.7156 295.756H66.9969V296.756H63.5594L63.1062 299.068C63.6167 298.704 64.1531 298.521 64.7156 298.521C65.4656 298.521 66.0958 298.782 66.6062 299.303C67.1271 299.824 67.3875 300.495 67.3875 301.318C67.3875 302.089 67.1635 302.761 66.7156 303.334C66.1635 304.021 65.4135 304.365 64.4656 304.365C63.6844 304.365 63.0437 304.146 62.5437 303.709C62.0542 303.271 61.7729 302.693 61.7 301.975ZM68.7 299.99C68.7 298.969 68.8042 298.152 69.0125 297.537C69.2208 296.912 69.5281 296.433 69.9344 296.1C70.351 295.766 70.8719 295.6 71.4969 295.6C71.9552 295.6 72.3562 295.693 72.7 295.881C73.0542 296.068 73.3458 296.339 73.575 296.693C73.8042 297.037 73.9812 297.459 74.1062 297.959C74.2312 298.459 74.2937 299.136 74.2937 299.99C74.2937 301.001 74.1896 301.813 73.9812 302.428C73.7833 303.042 73.476 303.521 73.0594 303.865C72.6531 304.199 72.1323 304.365 71.4969 304.365C70.674 304.365 70.0229 304.068 69.5437 303.475C68.9812 302.766 68.7 301.605 68.7 299.99ZM69.7781 299.99C69.7781 301.396 69.9448 302.334 70.2781 302.803C70.6115 303.271 71.0177 303.506 71.4969 303.506C71.9865 303.506 72.3927 303.271 72.7156 302.803C73.049 302.334 73.2156 301.396 73.2156 299.99C73.2156 298.574 73.049 297.636 72.7156 297.178C72.3927 296.709 71.9812 296.475 71.4812 296.475C71.0021 296.475 70.6167 296.678 70.325 297.084C69.9604 297.605 69.7781 298.574 69.7781 299.99ZM75.7 299.99C75.7 298.969 75.8042 298.152 76.0125 297.537C76.2208 296.912 76.5281 296.433 76.9344 296.1C77.351 295.766 77.8719 295.6 78.4969 295.6C78.9552 295.6 79.3562 295.693 79.7 295.881C80.0542 296.068 80.3458 296.339 80.575 296.693C80.8042 297.037 80.9812 297.459 81.1062 297.959C81.2312 298.459 81.2937 299.136 81.2937 299.99C81.2937 301.001 81.1896 301.813 80.9812 302.428C80.7833 303.042 80.476 303.521 80.0594 303.865C79.6531 304.199 79.1323 304.365 78.4969 304.365C77.674 304.365 77.0229 304.068 76.5437 303.475C75.9812 302.766 75.7 301.605 75.7 299.99ZM76.7781 299.99C76.7781 301.396 76.9448 302.334 77.2781 302.803C77.6115 303.271 78.0177 303.506 78.4969 303.506C78.9865 303.506 79.3927 303.271 79.7156 302.803C80.049 302.334 80.2156 301.396 80.2156 299.99C80.2156 298.574 80.049 297.636 79.7156 297.178C79.3927 296.709 78.9812 296.475 78.4812 296.475C78.0021 296.475 77.6167 296.678 77.325 297.084C76.9604 297.605 76.7781 298.574 76.7781 299.99Z" fill="black"/>
<path d="M58.6687 234.65H57.6219V227.932C57.3615 228.171 57.0229 228.416 56.6062 228.666C56.2 228.906 55.8354 229.083 55.5125 229.197V228.182C56.0958 227.9 56.6062 227.567 57.0437 227.182C57.4917 226.786 57.8094 226.4 57.9969 226.025H58.6687V234.65ZM61.7 230.416C61.7 229.395 61.8042 228.577 62.0125 227.963C62.2208 227.338 62.5281 226.859 62.9344 226.525C63.351 226.192 63.8719 226.025 64.4969 226.025C64.9552 226.025 65.3562 226.119 65.7 226.307C66.0542 226.494 66.3458 226.765 66.575 227.119C66.8042 227.463 66.9812 227.885 67.1062 228.385C67.2312 228.885 67.2937 229.562 67.2937 230.416C67.2937 231.426 67.1896 232.239 66.9812 232.854C66.7833 233.468 66.476 233.947 66.0594 234.291C65.6531 234.624 65.1323 234.791 64.4969 234.791C63.674 234.791 63.0229 234.494 62.5437 233.9C61.9812 233.192 61.7 232.031 61.7 230.416ZM62.7781 230.416C62.7781 231.822 62.9448 232.76 63.2781 233.229C63.6115 233.697 64.0177 233.932 64.4969 233.932C64.9865 233.932 65.3927 233.697 65.7156 233.229C66.049 232.76 66.2156 231.822 66.2156 230.416C66.2156 228.999 66.049 228.062 65.7156 227.604C65.3927 227.135 64.9812 226.9 64.4812 226.9C64.0021 226.9 63.6167 227.104 63.325 227.51C62.9604 228.031 62.7781 228.999 62.7781 230.416ZM68.7 230.416C68.7 229.395 68.8042 228.577 69.0125 227.963C69.2208 227.338 69.5281 226.859 69.9344 226.525C70.351 226.192 70.8719 226.025 71.4969 226.025C71.9552 226.025 72.3562 226.119 72.7 226.307C73.0542 226.494 73.3458 226.765 73.575 227.119C73.8042 227.463 73.9812 227.885 74.1062 228.385C74.2312 228.885 74.2937 229.562 74.2937 230.416C74.2937 231.426 74.1896 232.239 73.9812 232.854C73.7833 233.468 73.476 233.947 73.0594 234.291C72.6531 234.624 72.1323 234.791 71.4969 234.791C70.674 234.791 70.0229 234.494 69.5437 233.9C68.9812 233.192 68.7 232.031 68.7 230.416ZM69.7781 230.416C69.7781 231.822 69.9448 232.76 70.2781 233.229C70.6115 233.697 71.0177 233.932 71.4969 233.932C71.9865 233.932 72.3927 233.697 72.7156 233.229C73.049 232.76 73.2156 231.822 73.2156 230.416C73.2156 228.999 73.049 228.062 72.7156 227.604C72.3927 227.135 71.9812 226.9 71.4812 226.9C71.0021 226.9 70.6167 227.104 70.325 227.51C69.9604 228.031 69.7781 228.999 69.7781 230.416ZM75.7 230.416C75.7 229.395 75.8042 228.577 76.0125 227.963C76.2208 227.338 76.5281 226.859 76.9344 226.525C77.351 226.192 77.8719 226.025 78.4969 226.025C78.9552 226.025 79.3562 226.119 79.7 226.307C80.0542 226.494 80.3458 226.765 80.575 227.119C80.8042 227.463 80.9812 227.885 81.1062 228.385C81.2312 228.885 81.2937 229.562 81.2937 230.416C81.2937 231.426 81.1896 232.239 80.9812 232.854C80.7833 233.468 80.476 233.947 80.0594 234.291C79.6531 234.624 79.1323 234.791 78.4969 234.791C77.674 234.791 77.0229 234.494 76.5437 233.9C75.9812 233.192 75.7 232.031 75.7 230.416ZM76.7781 230.416C76.7781 231.822 76.9448 232.76 77.2781 233.229C77.6115 233.697 78.0177 233.932 78.4969 233.932C78.9865 233.932 79.3927 233.697 79.7156 233.229C80.049 232.76 80.2156 231.822 80.2156 230.416C80.2156 228.999 80.049 228.062 79.7156 227.604C79.3927 227.135 78.9812 226.9 78.4812 226.9C78.0021 226.9 77.6167 227.104 77.325 227.51C76.9604 228.031 76.7781 228.999 76.7781 230.416Z" fill="black"/>
<path d="M58.6687 165.075H57.6219V158.356C57.3615 158.596 57.0229 158.841 56.6062 159.091C56.2 159.33 55.8354 159.507 55.5125 159.622V158.606C56.0958 158.325 56.6062 157.992 57.0437 157.606C57.4917 157.211 57.8094 156.825 57.9969 156.45H58.6687V165.075ZM61.7 162.825L62.8094 162.731C62.8927 163.273 63.0802 163.679 63.3719 163.95C63.674 164.221 64.0385 164.356 64.4656 164.356C64.9656 164.356 65.3927 164.164 65.7469 163.778C66.101 163.393 66.2781 162.888 66.2781 162.263C66.2781 161.659 66.1062 161.185 65.7625 160.841C65.4292 160.487 64.9865 160.31 64.4344 160.31C64.101 160.31 63.7937 160.388 63.5125 160.544C63.2417 160.7 63.0281 160.898 62.8719 161.138L61.8875 161.013L62.7156 156.606H66.9969V157.606H63.5594L63.1062 159.919C63.6167 159.554 64.1531 159.372 64.7156 159.372C65.4656 159.372 66.0958 159.632 66.6062 160.153C67.1271 160.674 67.3875 161.346 67.3875 162.169C67.3875 162.94 67.1635 163.612 66.7156 164.185C66.1635 164.872 65.4135 165.216 64.4656 165.216C63.6844 165.216 63.0437 164.997 62.5437 164.56C62.0542 164.122 61.7729 163.544 61.7 162.825ZM68.7 160.841C68.7 159.82 68.8042 159.002 69.0125 158.388C69.2208 157.763 69.5281 157.284 69.9344 156.95C70.351 156.617 70.8719 156.45 71.4969 156.45C71.9552 156.45 72.3562 156.544 72.7 156.731C73.0542 156.919 73.3458 157.19 73.575 157.544C73.8042 157.888 73.9812 158.31 74.1062 158.81C74.2312 159.31 74.2937 159.987 74.2937 160.841C74.2937 161.851 74.1896 162.664 73.9812 163.278C73.7833 163.893 73.476 164.372 73.0594 164.716C72.6531 165.049 72.1323 165.216 71.4969 165.216C70.674 165.216 70.0229 164.919 69.5437 164.325C68.9812 163.617 68.7 162.455 68.7 160.841ZM69.7781 160.841C69.7781 162.247 69.9448 163.185 70.2781 163.653C70.6115 164.122 71.0177 164.356 71.4969 164.356C71.9865 164.356 72.3927 164.122 72.7156 163.653C73.049 163.185 73.2156 162.247 73.2156 160.841C73.2156 159.424 73.049 158.487 72.7156 158.028C72.3927 157.56 71.9812 157.325 71.4812 157.325C71.0021 157.325 70.6167 157.528 70.325 157.935C69.9604 158.455 69.7781 159.424 69.7781 160.841ZM75.7 160.841C75.7 159.82 75.8042 159.002 76.0125 158.388C76.2208 157.763 76.5281 157.284 76.9344 156.95C77.351 156.617 77.8719 156.45 78.4969 156.45C78.9552 156.45 79.3562 156.544 79.7 156.731C80.0542 156.919 80.3458 157.19 80.575 157.544C80.8042 157.888 80.9812 158.31 81.1062 158.81C81.2312 159.31 81.2937 159.987 81.2937 160.841C81.2937 161.851 81.1896 162.664 80.9812 163.278C80.7833 163.893 80.476 164.372 80.0594 164.716C79.6531 165.049 79.1323 165.216 78.4969 165.216C77.674 165.216 77.0229 164.919 76.5437 164.325C75.9812 163.617 75.7 162.455 75.7 160.841ZM76.7781 160.841C76.7781 162.247 76.9448 163.185 77.2781 163.653C77.6115 164.122 78.0177 164.356 78.4969 164.356C78.9865 164.356 79.3927 164.122 79.7156 163.653C80.049 163.185 80.2156 162.247 80.2156 160.841C80.2156 159.424 80.049 158.487 79.7156 158.028C79.3927 157.56 78.9812 157.325 78.4812 157.325C78.0021 157.325 77.6167 157.528 77.325 157.935C76.9604 158.455 76.7781 159.424 76.7781 160.841Z" fill="black"/>
<path d="M60.2469 94.4844V95.5H54.5594C54.5594 95.25 54.601 95.0052 54.6844 94.7656C54.8302 94.3802 55.0594 94 55.3719 93.625C55.6948 93.25 56.1583 92.8177 56.7625 92.3281C57.7 91.5573 58.3302 90.9479 58.6531 90.5C58.9865 90.0521 59.1531 89.6302 59.1531 89.2344C59.1531 88.8177 59.0021 88.4688 58.7 88.1875C58.3979 87.8958 58.0073 87.75 57.5281 87.75C57.0177 87.75 56.6115 87.901 56.3094 88.2031C56.0073 88.5052 55.851 88.9271 55.8406 89.4688L54.7625 89.3594C54.8354 88.5469 55.1115 87.9323 55.5906 87.5156C56.0802 87.0885 56.7365 86.875 57.5594 86.875C58.3823 86.875 59.0333 87.1042 59.5125 87.5625C59.9917 88.0208 60.2312 88.5885 60.2312 89.2656C60.2312 89.6094 60.1583 89.9479 60.0125 90.2812C59.8771 90.6042 59.6427 90.9531 59.3094 91.3281C58.9865 91.6927 58.45 92.1927 57.7 92.8281C57.0646 93.3594 56.6531 93.724 56.4656 93.9219C56.2885 94.1094 56.1427 94.2969 56.0281 94.4844H60.2469ZM61.7 91.2656C61.7 90.2448 61.8042 89.4271 62.0125 88.8125C62.2208 88.1875 62.5281 87.7083 62.9344 87.375C63.351 87.0417 63.8719 86.875 64.4969 86.875C64.9552 86.875 65.3562 86.9688 65.7 87.1562C66.0542 87.3438 66.3458 87.6146 66.575 87.9688C66.8042 88.3125 66.9812 88.7344 67.1062 89.2344C67.2312 89.7344 67.2937 90.4115 67.2937 91.2656C67.2937 92.276 67.1896 93.0885 66.9812 93.7031C66.7833 94.3177 66.476 94.7969 66.0594 95.1406C65.6531 95.474 65.1323 95.6406 64.4969 95.6406C63.674 95.6406 63.0229 95.3438 62.5437 94.75C61.9812 94.0417 61.7 92.8802 61.7 91.2656ZM62.7781 91.2656C62.7781 92.6719 62.9448 93.6094 63.2781 94.0781C63.6115 94.5469 64.0177 94.7812 64.4969 94.7812C64.9865 94.7812 65.3927 94.5469 65.7156 94.0781C66.049 93.6094 66.2156 92.6719 66.2156 91.2656C66.2156 89.849 66.049 88.9115 65.7156 88.4531C65.3927 87.9844 64.9812 87.75 64.4812 87.75C64.0021 87.75 63.6167 87.9531 63.325 88.3594C62.9604 88.8802 62.7781 89.849 62.7781 91.2656ZM68.7 91.2656C68.7 90.2448 68.8042 89.4271 69.0125 88.8125C69.2208 88.1875 69.5281 87.7083 69.9344 87.375C70.351 87.0417 70.8719 86.875 71.4969 86.875C71.9552 86.875 72.3562 86.9688 72.7 87.1562C73.0542 87.3438 73.3458 87.6146 73.575 87.9688C73.8042 88.3125 73.9812 88.7344 74.1062 89.2344C74.2312 89.7344 74.2937 90.4115 74.2937 91.2656C74.2937 92.276 74.1896 93.0885 73.9812 93.7031C73.7833 94.3177 73.476 94.7969 73.0594 95.1406C72.6531 95.474 72.1323 95.6406 71.4969 95.6406C70.674 95.6406 70.0229 95.3438 69.5437 94.75C68.9812 94.0417 68.7 92.8802 68.7 91.2656ZM69.7781 91.2656C69.7781 92.6719 69.9448 93.6094 70.2781 94.0781C70.6115 94.5469 71.0177 94.7812 71.4969 94.7812C71.9865 94.7812 72.3927 94.5469 72.7156 94.0781C73.049 93.6094 73.2156 92.6719 73.2156 91.2656C73.2156 89.849 73.049 88.9115 72.7156 88.4531C72.3927 87.9844 71.9812 87.75 71.4812 87.75C71.0021 87.75 70.6167 87.9531 70.325 88.3594C69.9604 88.8802 69.7781 89.849 69.7781 91.2656ZM75.7 91.2656C75.7 90.2448 75.8042 89.4271 76.0125 88.8125C76.2208 88.1875 76.5281 87.7083 76.9344 87.375C77.351 87.0417 77.8719 86.875 78.4969 86.875C78.9552 86.875 79.3562 86.9688 79.7 87.1562C80.0542 87.3438 80.3458 87.6146 80.575 87.9688C80.8042 88.3125 80.9812 88.7344 81.1062 89.2344C81.2312 89.7344 81.2937 90.4115 81.2937 91.2656C81.2937 92.276 81.1896 93.0885 80.9812 93.7031C80.7833 94.3177 80.476 94.7969 80.0594 95.1406C79.6531 95.474 79.1323 95.6406 78.4969 95.6406C77.674 95.6406 77.0229 95.3438 76.5437 94.75C75.9812 94.0417 75.7 92.8802 75.7 91.2656ZM76.7781 91.2656C76.7781 92.6719 76.9448 93.6094 77.2781 94.0781C77.6115 94.5469 78.0177 94.7812 78.4969 94.7812C78.9865 94.7812 79.3927 94.5469 79.7156 94.0781C80.049 93.6094 80.2156 92.6719 80.2156 91.2656C80.2156 89.849 80.049 88.9115 79.7156 88.4531C79.3927 87.9844 78.9812 87.75 78.4812 87.75C78.0021 87.75 77.6167 87.9531 77.325 88.3594C76.9604 88.8802 76.7781 89.849 76.7781 91.2656Z" fill="black"/>
<path d="M168.052 386.8V384.737H164.333V383.769L168.255 378.206H169.114V383.769H170.271V384.737H169.114V386.8H168.052ZM168.052 383.769V379.909L165.364 383.769H168.052ZM175.052 386.8V384.737H171.333V383.769L175.255 378.206H176.114V383.769H177.271V384.737H176.114V386.8H175.052ZM175.052 383.769V379.909L172.364 383.769H175.052ZM178.677 382.565C178.677 381.545 178.781 380.727 178.989 380.112C179.198 379.487 179.505 379.008 179.911 378.675C180.328 378.341 180.849 378.175 181.474 378.175C181.932 378.175 182.333 378.269 182.677 378.456C183.031 378.644 183.323 378.914 183.552 379.269C183.781 379.612 183.958 380.034 184.083 380.534C184.208 381.034 184.271 381.711 184.271 382.565C184.271 383.576 184.167 384.388 183.958 385.003C183.76 385.618 183.453 386.097 183.036 386.44C182.63 386.774 182.109 386.94 181.474 386.94C180.651 386.94 180 386.644 179.521 386.05C178.958 385.341 178.677 384.18 178.677 382.565ZM179.755 382.565C179.755 383.972 179.922 384.909 180.255 385.378C180.588 385.847 180.995 386.081 181.474 386.081C181.963 386.081 182.37 385.847 182.693 385.378C183.026 384.909 183.193 383.972 183.193 382.565C183.193 381.149 183.026 380.211 182.693 379.753C182.37 379.284 181.958 379.05 181.458 379.05C180.979 379.05 180.594 379.253 180.302 379.659C179.937 380.18 179.755 381.149 179.755 382.565ZM185.677 382.565C185.677 381.545 185.781 380.727 185.989 380.112C186.198 379.487 186.505 379.008 186.911 378.675C187.328 378.341 187.849 378.175 188.474 378.175C188.932 378.175 189.333 378.269 189.677 378.456C190.031 378.644 190.323 378.914 190.552 379.269C190.781 379.612 190.958 380.034 191.083 380.534C191.208 381.034 191.271 381.711 191.271 382.565C191.271 383.576 191.167 384.388 190.958 385.003C190.76 385.618 190.453 386.097 190.036 386.44C189.63 386.774 189.109 386.94 188.474 386.94C187.651 386.94 187 386.644 186.521 386.05C185.958 385.341 185.677 384.18 185.677 382.565ZM186.755 382.565C186.755 383.972 186.922 384.909 187.255 385.378C187.588 385.847 187.995 386.081 188.474 386.081C188.963 386.081 189.37 385.847 189.693 385.378C190.026 384.909 190.193 383.972 190.193 382.565C190.193 381.149 190.026 380.211 189.693 379.753C189.37 379.284 188.958 379.05 188.458 379.05C187.979 379.05 187.594 379.253 187.302 379.659C186.937 380.18 186.755 381.149 186.755 382.565ZM192.677 382.565C192.677 381.545 192.781 380.727 192.989 380.112C193.198 379.487 193.505 379.008 193.911 378.675C194.328 378.341 194.849 378.175 195.474 378.175C195.932 378.175 196.333 378.269 196.677 378.456C197.031 378.644 197.323 378.914 197.552 379.269C197.781 379.612 197.958 380.034 198.083 380.534C198.208 381.034 198.271 381.711 198.271 382.565C198.271 383.576 198.167 384.388 197.958 385.003C197.76 385.618 197.453 386.097 197.036 386.44C196.63 386.774 196.109 386.94 195.474 386.94C194.651 386.94 194 386.644 193.521 386.05C192.958 385.341 192.677 384.18 192.677 382.565ZM193.755 382.565C193.755 383.972 193.922 384.909 194.255 385.378C194.588 385.847 194.995 386.081 195.474 386.081C195.963 386.081 196.37 385.847 196.693 385.378C197.026 384.909 197.193 383.972 197.193 382.565C197.193 381.149 197.026 380.211 196.693 379.753C196.37 379.284 195.958 379.05 195.458 379.05C194.979 379.05 194.594 379.253 194.302 379.659C193.937 380.18 193.755 381.149 193.755 382.565Z" fill="black"/>
<path d="M289.451 386.8V384.737H285.732V383.769L289.654 378.206H290.513V383.769H291.669V384.737H290.513V386.8H289.451ZM289.451 383.769V379.909L286.763 383.769H289.451ZM296.451 386.8V384.737H292.732V383.769L296.654 378.206H297.513V383.769H298.669V384.737H297.513V386.8H296.451ZM296.451 383.769V379.909L293.763 383.769H296.451ZM305.622 385.784V386.8H299.935C299.935 386.55 299.977 386.305 300.06 386.065C300.206 385.68 300.435 385.3 300.747 384.925C301.07 384.55 301.534 384.118 302.138 383.628C303.076 382.857 303.706 382.248 304.029 381.8C304.362 381.352 304.529 380.93 304.529 380.534C304.529 380.118 304.378 379.769 304.076 379.487C303.773 379.196 303.383 379.05 302.904 379.05C302.393 379.05 301.987 379.201 301.685 379.503C301.383 379.805 301.227 380.227 301.216 380.769L300.138 380.659C300.211 379.847 300.487 379.232 300.966 378.815C301.456 378.388 302.112 378.175 302.935 378.175C303.758 378.175 304.409 378.404 304.888 378.862C305.367 379.321 305.607 379.888 305.607 380.565C305.607 380.909 305.534 381.248 305.388 381.581C305.253 381.904 305.018 382.253 304.685 382.628C304.362 382.993 303.826 383.493 303.076 384.128C302.44 384.659 302.029 385.024 301.841 385.222C301.664 385.409 301.518 385.597 301.404 385.784H305.622ZM307.076 382.565C307.076 381.545 307.18 380.727 307.388 380.112C307.596 379.487 307.904 379.008 308.31 378.675C308.727 378.341 309.247 378.175 309.872 378.175C310.331 378.175 310.732 378.269 311.076 378.456C311.43 378.644 311.721 378.914 311.951 379.269C312.18 379.612 312.357 380.034 312.482 380.534C312.607 381.034 312.669 381.711 312.669 382.565C312.669 383.576 312.565 384.388 312.357 385.003C312.159 385.618 311.852 386.097 311.435 386.44C311.029 386.774 310.508 386.94 309.872 386.94C309.049 386.94 308.398 386.644 307.919 386.05C307.357 385.341 307.076 384.18 307.076 382.565ZM308.154 382.565C308.154 383.972 308.32 384.909 308.654 385.378C308.987 385.847 309.393 386.081 309.872 386.081C310.362 386.081 310.768 385.847 311.091 385.378C311.424 384.909 311.591 383.972 311.591 382.565C311.591 381.149 311.424 380.211 311.091 379.753C310.768 379.284 310.357 379.05 309.857 379.05C309.378 379.05 308.992 379.253 308.701 379.659C308.336 380.18 308.154 381.149 308.154 382.565ZM314.076 382.565C314.076 381.545 314.18 380.727 314.388 380.112C314.596 379.487 314.904 379.008 315.31 378.675C315.727 378.341 316.247 378.175 316.872 378.175C317.331 378.175 317.732 378.269 318.076 378.456C318.43 378.644 318.721 378.914 318.951 379.269C319.18 379.612 319.357 380.034 319.482 380.534C319.607 381.034 319.669 381.711 319.669 382.565C319.669 383.576 319.565 384.388 319.357 385.003C319.159 385.618 318.852 386.097 318.435 386.44C318.029 386.774 317.508 386.94 316.872 386.94C316.049 386.94 315.398 386.644 314.919 386.05C314.357 385.341 314.076 384.18 314.076 382.565ZM315.154 382.565C315.154 383.972 315.32 384.909 315.654 385.378C315.987 385.847 316.393 386.081 316.872 386.081C317.362 386.081 317.768 385.847 318.091 385.378C318.424 384.909 318.591 383.972 318.591 382.565C318.591 381.149 318.424 380.211 318.091 379.753C317.768 379.284 317.357 379.05 316.857 379.05C316.378 379.05 315.992 379.253 315.701 379.659C315.336 380.18 315.154 381.149 315.154 382.565Z" fill="black"/>
<path d="M410.849 386.8V384.737H407.13V383.769L411.052 378.206H411.912V383.769H413.068V384.737H411.912V386.8H410.849ZM410.849 383.769V379.909L408.162 383.769H410.849ZM417.849 386.8V384.737H414.13V383.769L418.052 378.206H418.912V383.769H420.068V384.737H418.912V386.8H417.849ZM417.849 383.769V379.909L415.162 383.769H417.849ZM424.849 386.8V384.737H421.13V383.769L425.052 378.206H425.912V383.769H427.068V384.737H425.912V386.8H424.849ZM424.849 383.769V379.909L422.162 383.769H424.849ZM428.474 382.565C428.474 381.545 428.578 380.727 428.787 380.112C428.995 379.487 429.302 379.008 429.708 378.675C430.125 378.341 430.646 378.175 431.271 378.175C431.729 378.175 432.13 378.269 432.474 378.456C432.828 378.644 433.12 378.914 433.349 379.269C433.578 379.612 433.755 380.034 433.88 380.534C434.005 381.034 434.068 381.711 434.068 382.565C434.068 383.576 433.964 384.388 433.755 385.003C433.557 385.618 433.25 386.097 432.833 386.44C432.427 386.774 431.906 386.94 431.271 386.94C430.448 386.94 429.797 386.644 429.318 386.05C428.755 385.341 428.474 384.18 428.474 382.565ZM429.552 382.565C429.552 383.972 429.719 384.909 430.052 385.378C430.386 385.847 430.792 386.081 431.271 386.081C431.761 386.081 432.167 385.847 432.49 385.378C432.823 384.909 432.99 383.972 432.99 382.565C432.99 381.149 432.823 380.211 432.49 379.753C432.167 379.284 431.755 379.05 431.255 379.05C430.776 379.05 430.391 379.253 430.099 379.659C429.735 380.18 429.552 381.149 429.552 382.565ZM435.474 382.565C435.474 381.545 435.578 380.727 435.787 380.112C435.995 379.487 436.302 379.008 436.708 378.675C437.125 378.341 437.646 378.175 438.271 378.175C438.729 378.175 439.13 378.269 439.474 378.456C439.828 378.644 440.12 378.914 440.349 379.269C440.578 379.612 440.755 380.034 440.88 380.534C441.005 381.034 441.068 381.711 441.068 382.565C441.068 383.576 440.964 384.388 440.755 385.003C440.557 385.618 440.25 386.097 439.833 386.44C439.427 386.774 438.906 386.94 438.271 386.94C437.448 386.94 436.797 386.644 436.318 386.05C435.755 385.341 435.474 384.18 435.474 382.565ZM436.552 382.565C436.552 383.972 436.719 384.909 437.052 385.378C437.386 385.847 437.792 386.081 438.271 386.081C438.761 386.081 439.167 385.847 439.49 385.378C439.823 384.909 439.99 383.972 439.99 382.565C439.99 381.149 439.823 380.211 439.49 379.753C439.167 379.284 438.755 379.05 438.255 379.05C437.776 379.05 437.391 379.253 437.099 379.659C436.735 380.18 436.552 381.149 436.552 382.565Z" fill="black"/>
<path d="M532.248 386.8V384.737H528.529V383.769L532.451 378.206H533.31V383.769H534.466V384.737H533.31V386.8H532.248ZM532.248 383.769V379.909L529.56 383.769H532.248ZM539.248 386.8V384.737H535.529V383.769L539.451 378.206H540.31V383.769H541.466V384.737H540.31V386.8H539.248ZM539.248 383.769V379.909L536.56 383.769H539.248ZM548.341 380.315L547.295 380.394C547.201 379.977 547.071 379.675 546.904 379.487C546.612 379.185 546.258 379.034 545.841 379.034C545.508 379.034 545.211 379.128 544.951 379.315C544.628 379.565 544.368 379.925 544.17 380.394C543.982 380.852 543.883 381.508 543.873 382.362C544.123 381.977 544.43 381.69 544.795 381.503C545.17 381.315 545.56 381.222 545.966 381.222C546.664 381.222 547.258 381.482 547.748 382.003C548.248 382.524 548.498 383.19 548.498 384.003C548.498 384.545 548.378 385.05 548.138 385.519C547.909 385.977 547.591 386.331 547.185 386.581C546.779 386.821 546.321 386.94 545.81 386.94C544.925 386.94 544.206 386.618 543.654 385.972C543.102 385.326 542.826 384.263 542.826 382.784C542.826 381.118 543.133 379.909 543.748 379.159C544.279 378.503 544.998 378.175 545.904 378.175C546.581 378.175 547.133 378.368 547.56 378.753C547.998 379.128 548.258 379.649 548.341 380.315ZM544.045 384.019C544.045 384.383 544.118 384.732 544.263 385.065C544.42 385.388 544.633 385.638 544.904 385.815C545.185 385.993 545.482 386.081 545.795 386.081C546.232 386.081 546.612 385.904 546.935 385.55C547.258 385.185 547.42 384.696 547.42 384.081C547.42 383.487 547.258 383.019 546.935 382.675C546.623 382.331 546.227 382.159 545.748 382.159C545.269 382.159 544.862 382.331 544.529 382.675C544.206 383.019 544.045 383.466 544.045 384.019ZM549.873 382.565C549.873 381.545 549.977 380.727 550.185 380.112C550.394 379.487 550.701 379.008 551.107 378.675C551.524 378.341 552.045 378.175 552.67 378.175C553.128 378.175 553.529 378.269 553.873 378.456C554.227 378.644 554.519 378.914 554.748 379.269C554.977 379.612 555.154 380.034 555.279 380.534C555.404 381.034 555.466 381.711 555.466 382.565C555.466 383.576 555.362 384.388 555.154 385.003C554.956 385.618 554.649 386.097 554.232 386.44C553.826 386.774 553.305 386.94 552.67 386.94C551.847 386.94 551.196 386.644 550.716 386.05C550.154 385.341 549.873 384.18 549.873 382.565ZM550.951 382.565C550.951 383.972 551.118 384.909 551.451 385.378C551.784 385.847 552.19 386.081 552.67 386.081C553.159 386.081 553.565 385.847 553.888 385.378C554.222 384.909 554.388 383.972 554.388 382.565C554.388 381.149 554.222 380.211 553.888 379.753C553.565 379.284 553.154 379.05 552.654 379.05C552.175 379.05 551.789 379.253 551.498 379.659C551.133 380.18 550.951 381.149 550.951 382.565ZM556.873 382.565C556.873 381.545 556.977 380.727 557.185 380.112C557.394 379.487 557.701 379.008 558.107 378.675C558.524 378.341 559.045 378.175 559.67 378.175C560.128 378.175 560.529 378.269 560.873 378.456C561.227 378.644 561.519 378.914 561.748 379.269C561.977 379.612 562.154 380.034 562.279 380.534C562.404 381.034 562.466 381.711 562.466 382.565C562.466 383.576 562.362 384.388 562.154 385.003C561.956 385.618 561.649 386.097 561.232 386.44C560.826 386.774 560.305 386.94 559.67 386.94C558.847 386.94 558.196 386.644 557.716 386.05C557.154 385.341 556.873 384.18 556.873 382.565ZM557.951 382.565C557.951 383.972 558.118 384.909 558.451 385.378C558.784 385.847 559.19 386.081 559.67 386.081C560.159 386.081 560.565 385.847 560.888 385.378C561.222 384.909 561.388 383.972 561.388 382.565C561.388 381.149 561.222 380.211 560.888 379.753C560.565 379.284 560.154 379.05 559.654 379.05C559.175 379.05 558.789 379.253 558.498 379.659C558.133 380.18 557.951 381.149 557.951 382.565Z" fill="black"/>
<path d="M653.646 386.8V384.737H649.928V383.769L653.849 378.206H654.709V383.769H655.865V384.737H654.709V386.8H653.646ZM653.646 383.769V379.909L650.959 383.769H653.646ZM660.646 386.8V384.737H656.928V383.769L660.849 378.206H661.709V383.769H662.865V384.737H661.709V386.8H660.646ZM660.646 383.769V379.909L657.959 383.769H660.646ZM665.896 382.144C665.459 381.977 665.131 381.748 664.912 381.456C664.704 381.154 664.599 380.8 664.599 380.394C664.599 379.769 664.823 379.243 665.271 378.815C665.73 378.388 666.329 378.175 667.068 378.175C667.818 378.175 668.422 378.394 668.881 378.831C669.339 379.269 669.568 379.8 669.568 380.425C669.568 380.821 669.464 381.164 669.256 381.456C669.047 381.748 668.73 381.977 668.303 382.144C668.834 382.31 669.235 382.586 669.506 382.972C669.776 383.357 669.912 383.815 669.912 384.347C669.912 385.076 669.651 385.69 669.131 386.19C668.62 386.69 667.938 386.94 667.084 386.94C666.24 386.94 665.558 386.69 665.037 386.19C664.516 385.69 664.256 385.065 664.256 384.315C664.256 383.753 664.396 383.284 664.678 382.909C664.969 382.534 665.375 382.279 665.896 382.144ZM665.678 380.347C665.678 380.753 665.808 381.086 666.068 381.347C666.339 381.607 666.683 381.737 667.099 381.737C667.506 381.737 667.839 381.612 668.099 381.362C668.36 381.102 668.49 380.784 668.49 380.409C668.49 380.024 668.355 379.701 668.084 379.44C667.813 379.17 667.48 379.034 667.084 379.034C666.678 379.034 666.339 379.164 666.068 379.425C665.808 379.685 665.678 379.993 665.678 380.347ZM665.349 384.315C665.349 384.618 665.417 384.909 665.553 385.19C665.698 385.472 665.912 385.69 666.193 385.847C666.474 386.003 666.777 386.081 667.099 386.081C667.599 386.081 668.011 385.92 668.334 385.597C668.667 385.274 668.834 384.862 668.834 384.362C668.834 383.852 668.667 383.43 668.334 383.097C668 382.763 667.579 382.597 667.068 382.597C666.568 382.597 666.157 382.763 665.834 383.097C665.511 383.42 665.349 383.826 665.349 384.315ZM671.271 382.565C671.271 381.545 671.375 380.727 671.584 380.112C671.792 379.487 672.099 379.008 672.506 378.675C672.922 378.341 673.443 378.175 674.068 378.175C674.527 378.175 674.928 378.269 675.271 378.456C675.625 378.644 675.917 378.914 676.146 379.269C676.375 379.612 676.553 380.034 676.678 380.534C676.803 381.034 676.865 381.711 676.865 382.565C676.865 383.576 676.761 384.388 676.553 385.003C676.355 385.618 676.047 386.097 675.631 386.44C675.224 386.774 674.704 386.94 674.068 386.94C673.245 386.94 672.594 386.644 672.115 386.05C671.553 385.341 671.271 384.18 671.271 382.565ZM672.349 382.565C672.349 383.972 672.516 384.909 672.849 385.378C673.183 385.847 673.589 386.081 674.068 386.081C674.558 386.081 674.964 385.847 675.287 385.378C675.62 384.909 675.787 383.972 675.787 382.565C675.787 381.149 675.62 380.211 675.287 379.753C674.964 379.284 674.553 379.05 674.053 379.05C673.573 379.05 673.188 379.253 672.896 379.659C672.532 380.18 672.349 381.149 672.349 382.565ZM678.271 382.565C678.271 381.545 678.375 380.727 678.584 380.112C678.792 379.487 679.099 379.008 679.506 378.675C679.922 378.341 680.443 378.175 681.068 378.175C681.527 378.175 681.928 378.269 682.271 378.456C682.625 378.644 682.917 378.914 683.146 379.269C683.375 379.612 683.553 380.034 683.678 380.534C683.803 381.034 683.865 381.711 683.865 382.565C683.865 383.576 683.761 384.388 683.553 385.003C683.355 385.618 683.047 386.097 682.631 386.44C682.224 386.774 681.704 386.94 681.068 386.94C680.245 386.94 679.594 386.644 679.115 386.05C678.553 385.341 678.271 384.18 678.271 382.565ZM679.349 382.565C679.349 383.972 679.516 384.909 679.849 385.378C680.183 385.847 680.589 386.081 681.068 386.081C681.558 386.081 681.964 385.847 682.287 385.378C682.62 384.909 682.787 383.972 682.787 382.565C682.787 381.149 682.62 380.211 682.287 379.753C681.964 379.284 681.553 379.05 681.053 379.05C680.573 379.05 680.188 379.253 679.896 379.659C679.532 380.18 679.349 381.149 679.349 382.565Z" fill="black"/>
<path d="M576.847 65.5127V66.7002H570.222C570.211 66.4085 570.258 66.1221 570.363 65.8408C570.54 65.3929 570.81 64.9502 571.175 64.5127C571.55 64.0752 572.086 63.57 572.784 62.9971C573.878 62.1012 574.613 61.3929 574.988 60.8721C575.373 60.3512 575.566 59.8564 575.566 59.3877C575.566 58.8981 575.389 58.4867 575.034 58.1533C574.691 57.82 574.243 57.6533 573.691 57.6533C573.097 57.6533 572.618 57.8304 572.253 58.1846C571.899 58.5387 571.722 59.0335 571.722 59.6689L570.456 59.5283C570.54 58.5908 570.862 57.8773 571.425 57.3877C571.998 56.8877 572.758 56.6377 573.706 56.6377C574.675 56.6377 575.435 56.9033 575.988 57.4346C576.55 57.9658 576.831 58.6273 576.831 59.4189C576.831 59.8252 576.748 60.221 576.581 60.6064C576.425 60.9919 576.154 61.3981 575.769 61.8252C575.394 62.2523 574.764 62.8408 573.878 63.5908C573.139 64.2054 572.665 64.6273 572.456 64.8564C572.248 65.0752 572.076 65.2939 571.941 65.5127H576.847ZM578.378 61.7627C578.378 60.5752 578.498 59.6221 578.738 58.9033C578.988 58.1742 579.352 57.6169 579.831 57.2314C580.31 56.8356 580.915 56.6377 581.644 56.6377C582.185 56.6377 582.659 56.7471 583.066 56.9658C583.472 57.1846 583.805 57.4971 584.066 57.9033C584.336 58.3096 584.545 58.8044 584.691 59.3877C584.836 59.971 584.909 60.7627 584.909 61.7627C584.909 62.9398 584.79 63.8877 584.55 64.6064C584.31 65.3252 583.951 65.8825 583.472 66.2783C582.993 66.6742 582.383 66.8721 581.644 66.8721C580.685 66.8721 579.93 66.5231 579.378 65.8252C578.711 64.9919 578.378 63.6377 578.378 61.7627ZM579.644 61.7627C579.644 63.4085 579.836 64.5023 580.222 65.0439C580.607 65.5856 581.081 65.8564 581.644 65.8564C582.217 65.8564 582.696 65.5856 583.081 65.0439C583.467 64.4919 583.659 63.3981 583.659 61.7627C583.659 60.1064 583.467 59.0075 583.081 58.4658C582.696 57.9242 582.211 57.6533 581.628 57.6533C581.066 57.6533 580.618 57.8929 580.284 58.3721C579.857 58.9867 579.644 60.1169 579.644 61.7627ZM592.847 65.5127V66.7002H586.222C586.211 66.4085 586.258 66.1221 586.363 65.8408C586.54 65.3929 586.81 64.9502 587.175 64.5127C587.55 64.0752 588.086 63.57 588.784 62.9971C589.878 62.1012 590.613 61.3929 590.988 60.8721C591.373 60.3512 591.566 59.8564 591.566 59.3877C591.566 58.8981 591.389 58.4867 591.034 58.1533C590.691 57.82 590.243 57.6533 589.691 57.6533C589.097 57.6533 588.618 57.8304 588.253 58.1846C587.899 58.5387 587.722 59.0335 587.722 59.6689L586.456 59.5283C586.54 58.5908 586.862 57.8773 587.425 57.3877C587.998 56.8877 588.758 56.6377 589.706 56.6377C590.675 56.6377 591.435 56.9033 591.988 57.4346C592.55 57.9658 592.831 58.6273 592.831 59.4189C592.831 59.8252 592.748 60.221 592.581 60.6064C592.425 60.9919 592.154 61.3981 591.769 61.8252C591.394 62.2523 590.764 62.8408 589.878 63.5908C589.139 64.2054 588.665 64.6273 588.456 64.8564C588.248 65.0752 588.076 65.2939 587.941 65.5127H592.847ZM600.847 65.5127V66.7002H594.222C594.211 66.4085 594.258 66.1221 594.363 65.8408C594.54 65.3929 594.81 64.9502 595.175 64.5127C595.55 64.0752 596.086 63.57 596.784 62.9971C597.878 62.1012 598.613 61.3929 598.988 60.8721C599.373 60.3512 599.566 59.8564 599.566 59.3877C599.566 58.8981 599.389 58.4867 599.034 58.1533C598.691 57.82 598.243 57.6533 597.691 57.6533C597.097 57.6533 596.618 57.8304 596.253 58.1846C595.899 58.5387 595.722 59.0335 595.722 59.6689L594.456 59.5283C594.54 58.5908 594.862 57.8773 595.425 57.3877C595.998 56.8877 596.758 56.6377 597.706 56.6377C598.675 56.6377 599.435 56.9033 599.988 57.4346C600.55 57.9658 600.831 58.6273 600.831 59.4189C600.831 59.8252 600.748 60.221 600.581 60.6064C600.425 60.9919 600.154 61.3981 599.769 61.8252C599.394 62.2523 598.764 62.8408 597.878 63.5908C597.139 64.2054 596.665 64.6273 596.456 64.8564C596.248 65.0752 596.076 65.2939 595.941 65.5127H600.847Z" fill="#999999"/>
<path d="M606.175 58.1689C605.487 59.3669 604.633 60.3669 603.612 61.1689L602.847 60.1846C604.336 59.0908 605.357 57.5075 605.909 55.4346L607.159 55.7627C607.305 55.9085 607.253 55.9971 607.003 56.0283L606.566 57.1221H614.269V58.1689H610.284V60.0283H613.566V61.0596H610.284V63.5283H614.878V64.5596H610.284V67.8564H609.191V64.5596H602.894V63.5283H605.362V60.0283H609.191V58.1689H606.175ZM606.456 63.5283H609.191V61.0596H606.456V63.5283Z" fill="#999999"/>
<path d="M616.566 64.3877L617.753 64.2783C617.847 64.8304 618.034 65.2314 618.316 65.4814C618.607 65.7314 618.972 65.8564 619.409 65.8564C619.784 65.8564 620.112 65.7731 620.394 65.6064C620.685 65.4294 620.92 65.195 621.097 64.9033C621.284 64.6117 621.441 64.221 621.566 63.7314C621.691 63.2419 621.753 62.7419 621.753 62.2314C621.753 62.1794 621.748 62.096 621.737 61.9814C621.498 62.3773 621.165 62.7002 620.737 62.9502C620.31 63.1898 619.847 63.3096 619.347 63.3096C618.514 63.3096 617.81 63.0075 617.237 62.4033C616.665 61.7992 616.378 61.0075 616.378 60.0283C616.378 59.0075 616.675 58.1898 617.269 57.5752C617.873 56.9502 618.628 56.6377 619.534 56.6377C620.18 56.6377 620.774 56.8148 621.316 57.1689C621.857 57.5127 622.269 58.0127 622.55 58.6689C622.831 59.3148 622.972 60.2523 622.972 61.4814C622.972 62.7627 622.831 63.7835 622.55 64.5439C622.279 65.3044 621.868 65.8825 621.316 66.2783C620.764 66.6742 620.118 66.8721 619.378 66.8721C618.597 66.8721 617.956 66.6533 617.456 66.2158C616.967 65.7783 616.67 65.1689 616.566 64.3877ZM621.597 59.9658C621.597 59.2575 621.409 58.695 621.034 58.2783C620.659 57.8617 620.211 57.6533 619.691 57.6533C619.139 57.6533 618.659 57.8773 618.253 58.3252C617.847 58.7731 617.644 59.3512 617.644 60.0596C617.644 60.695 617.836 61.2158 618.222 61.6221C618.607 62.0179 619.081 62.2158 619.644 62.2158C620.217 62.2158 620.685 62.0179 621.05 61.6221C621.415 61.2158 621.597 60.6637 621.597 59.9658Z" fill="#999999"/>
<path d="M633.706 63.5283H628.503C628.503 65.0908 627.701 66.57 626.097 67.9658L625.175 66.9189C626.665 65.971 627.409 64.5492 627.409 62.6533V55.9814H634.8V66.7627C634.8 67.346 634.487 67.6377 633.862 67.6377H632.55L632.331 66.4189H633.487C633.633 66.4189 633.706 66.346 633.706 66.2002V63.5283ZM628.503 62.3252H633.706V60.3564H628.503V62.3252ZM628.503 59.1533H633.706V57.1846H628.503V59.1533Z" fill="#999999"/>
<path d="M644.847 65.5127V66.7002H638.222C638.211 66.4085 638.258 66.1221 638.363 65.8408C638.54 65.3929 638.81 64.9502 639.175 64.5127C639.55 64.0752 640.086 63.57 640.784 62.9971C641.878 62.1012 642.613 61.3929 642.988 60.8721C643.373 60.3512 643.566 59.8564 643.566 59.3877C643.566 58.8981 643.389 58.4867 643.034 58.1533C642.691 57.82 642.243 57.6533 641.691 57.6533C641.097 57.6533 640.618 57.8304 640.253 58.1846C639.899 58.5387 639.722 59.0335 639.722 59.6689L638.456 59.5283C638.54 58.5908 638.862 57.8773 639.425 57.3877C639.998 56.8877 640.758 56.6377 641.706 56.6377C642.675 56.6377 643.435 56.9033 643.988 57.4346C644.55 57.9658 644.831 58.6273 644.831 59.4189C644.831 59.8252 644.748 60.221 644.581 60.6064C644.425 60.9919 644.154 61.3981 643.769 61.8252C643.394 62.2523 642.764 62.8408 641.878 63.5908C641.139 64.2054 640.665 64.6273 640.456 64.8564C640.248 65.0752 640.076 65.2939 639.941 65.5127H644.847ZM646.566 64.3877L647.753 64.2783C647.847 64.8304 648.034 65.2314 648.316 65.4814C648.607 65.7314 648.972 65.8564 649.409 65.8564C649.784 65.8564 650.113 65.7731 650.394 65.6064C650.685 65.4294 650.92 65.195 651.097 64.9033C651.284 64.6117 651.441 64.221 651.566 63.7314C651.691 63.2419 651.753 62.7419 651.753 62.2314C651.753 62.1794 651.748 62.096 651.738 61.9814C651.498 62.3773 651.165 62.7002 650.738 62.9502C650.31 63.1898 649.847 63.3096 649.347 63.3096C648.514 63.3096 647.81 63.0075 647.238 62.4033C646.665 61.7992 646.378 61.0075 646.378 60.0283C646.378 59.0075 646.675 58.1898 647.269 57.5752C647.873 56.9502 648.628 56.6377 649.534 56.6377C650.18 56.6377 650.774 56.8148 651.316 57.1689C651.857 57.5127 652.269 58.0127 652.55 58.6689C652.831 59.3148 652.972 60.2523 652.972 61.4814C652.972 62.7627 652.831 63.7835 652.55 64.5439C652.279 65.3044 651.868 65.8825 651.316 66.2783C650.764 66.6742 650.118 66.8721 649.378 66.8721C648.597 66.8721 647.956 66.6533 647.456 66.2158C646.967 65.7783 646.67 65.1689 646.566 64.3877ZM651.597 59.9658C651.597 59.2575 651.409 58.695 651.034 58.2783C650.659 57.8617 650.211 57.6533 649.691 57.6533C649.139 57.6533 648.659 57.8773 648.253 58.3252C647.847 58.7731 647.644 59.3512 647.644 60.0596C647.644 60.695 647.836 61.2158 648.222 61.6221C648.607 62.0179 649.081 62.2158 649.644 62.2158C650.217 62.2158 650.685 62.0179 651.05 61.6221C651.415 61.2158 651.597 60.6637 651.597 59.9658Z" fill="#999999"/>
<path d="M657.8 67.2002H656.534V56.6377H665.128V66.9814H663.862V66.2002H657.8V67.2002ZM663.862 60.7939V57.6689H657.8V60.7939H663.862ZM663.862 65.1689V61.8252H657.8V65.1689H663.862ZM678.081 59.8564H680.659V60.7314H678.362V61.9971H680.222V62.8721H678.362V64.1846H680.222V65.0596H678.362V66.4189H681.097V67.3096H675.566V67.8564H674.644V61.7783C674.352 62.1742 673.987 62.5387 673.55 62.8721L673.159 61.8252C674.545 60.5856 675.441 59.2939 675.847 57.9502H674.581V59.2002H673.659V57.0752H676.066C676.211 56.4919 676.336 55.8721 676.441 55.2158L677.534 55.4814C677.649 55.596 677.612 55.7054 677.425 55.8096C677.321 56.2471 677.211 56.6689 677.097 57.0752H680.987V58.9814H680.05V57.9502H676.878C676.659 58.7106 676.368 59.346 676.003 59.8564H677.159L677.862 58.2158L678.909 58.4346C679.086 58.5075 679.05 58.6012 678.8 58.7158L678.081 59.8564ZM668.847 57.3408V56.3096H673.487V57.3408H671.581C671.508 58.4762 671.269 59.5179 670.862 60.4658H673.003V66.9814H672.066V66.0908H670.644V67.5283H669.722V62.5908C669.503 62.9554 669.264 63.2835 669.003 63.5752L668.3 62.6533C669.571 61.2262 670.316 59.4554 670.534 57.3408H668.847ZM675.566 62.8721V64.1846H677.425V62.8721H675.566ZM675.566 60.7314V61.9971H677.425V60.7314H675.566ZM675.566 65.0596V66.4189H677.425V65.0596H675.566ZM670.644 61.3408V65.2158H672.066V61.3408H670.644ZM687.222 61.4502C688.566 61.0856 689.42 60.3721 689.784 59.3096L688.316 58.7158L688.691 57.7783L690.003 58.2783L690.112 56.9658H687.816V55.9189H694.378L694.269 60.6221C694.237 61.5387 693.857 61.9971 693.128 61.9971H691.862L691.753 60.9502H692.909C693.128 60.9502 693.237 60.8408 693.237 60.6221L693.347 56.9658H691.206L691.05 58.7158L692.362 59.4189L691.862 60.4033L690.769 59.8096C690.3 61.1533 689.264 62.0648 687.659 62.5439L687.222 61.4502ZM694.159 66.9189C693.868 65.8252 693.415 64.8773 692.8 64.0752L693.784 63.6377C694.586 64.6169 695.097 65.5439 695.316 66.4189L694.159 66.9189ZM686.831 63.4658V67.6846H685.909V67.3096H684.05V67.9033H683.112V63.4658H686.831ZM687.269 66.9814C687.529 66.0648 687.696 65.0231 687.769 63.8564L688.862 63.9658C688.935 63.9971 688.899 64.0856 688.753 64.2314C688.711 65.3981 688.545 66.4033 688.253 67.2471L687.269 66.9814ZM690.769 61.6689C691.279 61.9919 691.79 62.5544 692.3 63.3564L691.269 63.9658C691.008 63.4554 690.571 62.8721 689.956 62.2158L690.769 61.6689ZM683.331 55.7002H686.612V56.7471H683.331V55.7002ZM682.628 57.5596H687.331V58.6064H682.628V57.5596ZM683.331 59.5908H686.612V60.6221H683.331V59.5908ZM683.331 61.4502H686.612V62.4814H683.331V61.4502ZM684.05 64.3408V66.4189H685.909V64.3408H684.05ZM690.222 63.3096C690.514 63.3408 690.534 63.4502 690.284 63.6377V66.2002C690.284 66.4606 690.394 66.5908 690.612 66.5908H691.816C692.034 66.5908 692.159 66.4814 692.191 66.2627L692.3 65.3877L693.394 65.6533L693.175 66.8096C693.071 67.3617 692.743 67.6377 692.191 67.6377H690.112C689.498 67.6377 689.191 67.3044 689.191 66.6377V63.3096H690.222Z" fill="#999999"/>
<path d="M39.9344 28.9346C40.4552 29.0387 40.4812 29.2471 40.0125 29.5596V42.0596H38.2156V40.8096H26.2625V42.3721H24.4656V28.9346H26.1844C26.7052 29.0387 26.7312 29.2471 26.2625 29.5596V39.0908H31.2625V25.6533H32.9812C33.5021 25.7575 33.5281 25.9658 33.0594 26.2783V39.0908H38.2156V28.9346H39.9344ZM45.8719 33.7002H43.6062V32.2158H45.8719V27.9189H44.3094V26.4346H52.5906V27.9189H51.1062V32.2158H53.3719V33.7002H51.1062V42.5283H49.5437V33.7002H47.4344V35.0283C47.4344 38.3617 46.7573 40.8617 45.4031 42.5283L43.9187 41.3564C45.2208 40.0544 45.8719 37.945 45.8719 35.0283V33.7002ZM49.5437 27.9189H47.4344V32.2158H49.5437V27.9189ZM52.9812 30.5752C55.5333 29.221 57.226 27.7627 58.0594 26.2002L59.6219 27.3721C59.7781 27.4762 59.6479 27.5804 59.2312 27.6846C58.3458 29.195 56.601 30.6794 53.9969 32.1377L52.9812 30.5752ZM52.9031 35.4189C55.8719 34.1169 57.799 32.5544 58.6844 30.7314L60.2469 31.9814C60.4031 32.0856 60.2729 32.1898 59.8562 32.2939C58.3979 34.3252 56.4448 35.9398 53.9969 37.1377L52.9031 35.4189ZM61.1844 36.2002C61.4448 36.3044 61.3146 36.4346 60.7937 36.5908C59.075 39.1429 56.601 41.0439 53.3719 42.2939L52.4344 40.5752C55.7677 39.3252 58.1635 37.4502 59.6219 34.9502L61.1844 36.2002ZM76.1844 37.6064C77.226 38.6481 78.7625 39.6898 80.7937 40.7314L79.8562 42.3721C78.0854 41.5387 76.4187 40.3408 74.8562 38.7783L76.1844 37.6064ZM69.3875 39.0127C68.5021 40.2627 67.1479 41.4867 65.325 42.6846L64.1531 41.2002C65.8198 40.2106 67.1479 39.0387 68.1375 37.6846L69.6219 38.5439C69.8823 38.7523 69.8042 38.9085 69.3875 39.0127ZM66.1844 36.9814V37.7627H64.6219V26.5127H66.1062C66.5229 26.5648 66.549 26.721 66.1844 26.9814V35.4971H80.5594V36.9814H73.2937V42.9971H71.4969V36.9814H66.1844ZM69.6219 33.2314H76.4187V31.7471H69.6219V33.2314ZM69.6219 30.4971H76.4187V29.2471H69.6219V30.4971ZM69.6219 27.9971H76.4187V26.7471H69.6219V27.9971ZM68.0594 34.4814V25.4971H77.9812V34.4814H68.0594ZM92.9812 30.1846C92.0958 35.3929 91.0281 38.6221 89.7781 39.8721C89.101 40.5492 88.3979 40.8877 87.6687 40.8877C86.8354 40.8877 86.1844 40.6533 85.7156 40.1846C84.4656 38.9346 83.8406 37.3721 83.8406 35.4971C83.8406 33.2054 84.6479 31.2523 86.2625 29.6377C88.0333 27.8669 90.1948 26.9814 92.7469 26.9814C95.0385 26.9814 96.8354 27.6325 98.1375 28.9346C99.5958 30.3929 100.325 32.1117 100.325 34.0908C100.325 36.2262 99.6479 37.971 98.2937 39.3252C97.4083 40.2106 96.0542 41.07 94.2312 41.9033L92.5906 40.2627C94.4135 39.6898 95.8458 38.8825 96.8875 37.8408C97.8771 36.8512 98.3719 35.6533 98.3719 34.2471C98.3719 32.5804 97.825 31.2002 96.7312 30.1064C95.6375 29.0127 93.9187 28.5179 91.575 28.6221L92.9812 29.3252C93.6062 29.5856 93.6062 29.8721 92.9812 30.1846ZM91.1844 28.7002C89.8302 29.0127 88.6583 29.6637 87.6687 30.6533C86.3146 32.0075 85.6375 33.6742 85.6375 35.6533C85.6375 36.8512 86.0281 37.8408 86.8094 38.6221C86.9656 38.7783 87.2 38.8564 87.5125 38.8564C87.825 38.8564 88.1635 38.6742 88.5281 38.3096C89.726 37.1117 90.6115 33.9085 91.1844 28.7002ZM110.325 41.5127C112.46 40.3669 113.528 38.4137 113.528 35.6533V26.6689L115.169 26.9814L119.387 25.6533L120.559 27.2158C120.664 27.5283 120.481 27.5804 120.012 27.3721L115.091 28.3096V31.6689H121.262V33.1533H118.919V42.9189H117.356V33.1533H115.091V36.1221C115.091 39.195 113.789 41.4867 111.184 42.9971L110.325 41.5127ZM108.841 42.9971H107.278V38.3096C106.445 39.6637 105.533 40.7314 104.544 41.5127L103.372 40.1064C104.83 39.0648 106.054 37.7627 107.044 36.2002H103.762V34.7158H107.278V32.9971H103.294V31.5127H108.762L109.622 28.7002H103.841V27.2158H107.278V25.0283H108.762C109.179 25.0804 109.205 25.2367 108.841 25.4971V27.2158H112.278V28.7002H111.262L110.169 31.5127H112.669V32.9971H108.841V34.7158H112.278V36.2002H108.841V36.9033C109.57 37.1117 110.585 37.6585 111.887 38.5439L110.95 40.1064C110.221 39.3773 109.518 38.8044 108.841 38.3877V42.9971ZM105.716 31.3564C105.507 30.6273 105.221 29.9242 104.856 29.2471L106.341 28.7783C106.757 29.4554 107.07 30.1585 107.278 30.8877L105.716 31.3564ZM138.45 33.5439H133.372V35.2627H138.45V33.5439ZM136.341 36.7471H134.934V37.5283C134.934 40.7575 133.085 42.6585 129.387 43.2314L128.919 41.5908C131.887 41.2262 133.372 39.82 133.372 37.3721V36.7471H132.591H131.809V25.8096H140.012V36.7471H137.903V40.6533C137.903 41.07 138.085 41.2783 138.45 41.2783H139.231C139.492 41.2783 139.648 41.0179 139.7 40.4971L139.856 39.1689L141.419 39.6377L141.184 41.4346C141.08 42.32 140.585 42.7627 139.7 42.7627H137.747C136.809 42.7627 136.341 42.32 136.341 41.4346V36.7471ZM133.372 32.0596H138.45V30.4189H133.372V32.0596ZM133.372 28.9346H138.45V27.2939H133.372V28.9346ZM127.747 35.8877C128.789 36.3564 130.012 37.2158 131.419 38.4658L130.325 40.1064C129.231 38.9085 128.268 38.0231 127.434 37.4502C126.914 39.7419 125.82 41.5387 124.153 42.8408L122.981 41.4346C125.273 39.5075 126.367 37.0075 126.262 33.9346H123.294V32.4502H126.341V29.6377H123.841V28.1533H126.341V25.0283H127.825C128.242 25.0804 128.268 25.2367 127.903 25.4971V28.1533H130.637V29.6377H127.903V32.4502H131.028V33.9346H127.825C127.825 34.7679 127.799 35.4189 127.747 35.8877ZM147.825 32.1377C148.815 33.4919 149.309 34.8981 149.309 36.3564C149.309 38.3877 148.71 39.4033 147.512 39.4033H146.575L146.262 37.8408H147.044C147.565 37.8408 147.799 37.2939 147.747 36.2002C147.695 34.6898 147.226 33.3617 146.341 32.2158L147.903 27.1377H145.481V42.7627H143.919V25.8877H148.294L148.606 25.4971L149.934 26.6689L149.622 26.9814L147.825 32.1377ZM159.153 36.5127H158.372C157.539 40.3148 154.752 42.5023 150.012 43.0752L149.544 41.5908C153.606 41.2783 156.054 39.5856 156.887 36.5127H155.794C154.908 38.7002 153.033 40.0283 150.169 40.4971L149.7 39.1689C152.096 38.6481 153.58 37.7627 154.153 36.5127H152.903C152.174 37.2419 151.236 37.8148 150.091 38.2314L149.466 36.9033C151.132 36.3825 152.278 35.3929 152.903 33.9346H149.387V32.6846H161.106V33.9346H154.544C154.335 34.4033 154.075 34.846 153.762 35.2627H160.637L160.481 40.1846C160.429 41.8512 159.83 42.6846 158.684 42.6846H157.122L156.887 41.2002H158.216C158.684 41.2002 158.945 40.8877 158.997 40.2627L159.153 36.5127ZM152.512 30.4189H157.825V29.0908H152.512V30.4189ZM152.512 27.8408H157.825V26.5908H152.512V27.8408ZM159.153 25.3408V31.6689H151.184V25.3408H159.153ZM172.434 29.3252H174.544V25.2627H176.028C176.445 25.3148 176.471 25.471 176.106 25.7314V29.3252H180.325V30.8096H176.106V34.5596H180.091V36.0439H176.106V40.6533H181.262V42.1377H169.309V40.6533H174.544V36.0439H170.716V34.5596H174.544V30.8096H171.966C171.601 31.8512 171.028 32.8929 170.247 33.9346L168.919 32.9189C170.273 31.1481 171.158 29.0127 171.575 26.5127L173.059 26.8252C173.476 26.9814 173.476 27.1377 173.059 27.2939L172.434 29.3252ZM165.794 25.0283H167.278C167.695 25.0804 167.721 25.2367 167.356 25.4971V42.8408H165.794V25.0283ZM168.762 28.2314C169.231 28.8564 169.622 29.5596 169.934 30.3408L168.684 31.2002C168.32 30.3148 167.955 29.5856 167.591 29.0127L168.762 28.2314ZM165.325 29.0908C165.69 29.195 165.69 29.3512 165.325 29.5596C165.221 31.2262 164.986 32.7887 164.622 34.2471L163.137 33.7783C163.554 32.4762 163.789 30.8356 163.841 28.8564L165.325 29.0908ZM198.137 33.6221V42.6846H196.575V41.9033H189.544V42.9189H187.981V35.8096C186.627 36.5387 185.169 37.1117 183.606 37.5283L183.059 36.1221C184.518 35.7575 186.158 35.1064 187.981 34.1689V33.6221H189.075C190.169 32.9971 191.106 32.3721 191.887 31.7471H183.684V30.2627H190.559V28.3877H185.716V26.9033H190.559V25.0283H192.044C192.46 25.0804 192.486 25.2367 192.122 25.4971V26.9033H195.872V28.2314C196.497 27.5544 197.122 26.7992 197.747 25.9658L198.841 26.6689C199.205 26.9294 199.153 27.0856 198.684 27.1377C197.695 28.3356 196.705 29.3773 195.716 30.2627H201.106V31.7471H194.075C193.033 32.6325 192.2 33.2575 191.575 33.6221H198.137ZM193.606 30.2627C194.231 29.7939 194.934 29.1689 195.716 28.3877H192.122V30.2627H193.606ZM189.544 36.9814H196.575V34.8721H189.544V36.9814ZM189.544 40.6533H196.575V38.2314H189.544V40.6533ZM216.731 36.9033C217.46 35.4971 217.903 33.3617 218.059 30.4971H215.403C215.559 33.3617 216.002 35.4971 216.731 36.9033ZM219.622 30.4971C219.518 33.7262 218.893 36.3304 217.747 38.3096C218.58 39.3512 219.752 40.2627 221.262 41.0439L220.247 42.7627C218.58 41.6689 217.408 40.6273 216.731 39.6377C215.533 40.9919 213.684 42.1637 211.184 43.1533L210.403 41.5908C213.111 40.4971 214.908 39.3773 215.794 38.2314C214.908 36.5127 214.414 34.7939 214.309 33.0752C213.997 33.8564 213.684 34.4554 213.372 34.8721L212.044 33.8564C213.606 31.5648 214.544 28.7262 214.856 25.3408L216.497 25.7314C216.809 25.9398 216.731 26.096 216.262 26.2002C216.106 27.1377 215.898 28.0752 215.637 29.0127H220.95V30.4971H219.622ZM212.356 26.7471C212.044 27.5283 211.679 28.1794 211.262 28.7002L210.012 27.9971C210.429 27.32 210.82 26.5387 211.184 25.6533L212.591 26.3564C212.799 26.5648 212.721 26.695 212.356 26.7471ZM207.356 37.7627C208.085 37.971 208.736 38.2054 209.309 38.4658C209.726 37.9971 210.065 37.2939 210.325 36.3564H208.059C207.851 36.8252 207.617 37.2939 207.356 37.7627ZM206.262 39.7158L205.012 39.0127C205.533 38.2314 206.054 37.346 206.575 36.3564H203.606V35.1064H207.044C207.356 34.4294 207.591 33.8564 207.747 33.3877L209.231 33.7783C209.44 33.9867 209.361 34.1169 208.997 34.1689L208.528 35.1064H212.981V36.3564H211.809C211.549 37.3981 211.158 38.2835 210.637 39.0127C211.106 39.221 211.601 39.4814 212.122 39.7939L211.419 41.0439C210.846 40.6794 210.325 40.3929 209.856 40.1846C208.502 41.5387 206.679 42.3721 204.387 42.6846L203.841 41.2783C205.872 41.07 207.434 40.4971 208.528 39.5596C207.955 39.2992 207.382 39.0648 206.809 38.8564L206.262 39.7158ZM207.825 25.0283H209.075C209.492 25.0804 209.518 25.2367 209.153 25.4971V28.8564H213.137V30.1064H209.856C210.429 30.7835 211.315 31.4346 212.512 32.0596L211.653 33.3877C210.768 32.8669 209.934 32.1377 209.153 31.2002V33.0752H207.825V31.5908C206.992 32.6325 205.846 33.57 204.387 34.4033L203.372 33.1533C204.986 32.32 206.315 31.3044 207.356 30.1064H203.762V28.8564H207.825V25.0283ZM205.637 28.6221C205.273 27.8408 204.804 27.1637 204.231 26.5908L205.481 25.8096C206.106 26.4346 206.575 27.0856 206.887 27.7627L205.637 28.6221ZM232.981 30.1846C232.096 35.3929 231.028 38.6221 229.778 39.8721C229.101 40.5492 228.398 40.8877 227.669 40.8877C226.835 40.8877 226.184 40.6533 225.716 40.1846C224.466 38.9346 223.841 37.3721 223.841 35.4971C223.841 33.2054 224.648 31.2523 226.262 29.6377C228.033 27.8669 230.195 26.9814 232.747 26.9814C235.039 26.9814 236.835 27.6325 238.137 28.9346C239.596 30.3929 240.325 32.1117 240.325 34.0908C240.325 36.2262 239.648 37.971 238.294 39.3252C237.408 40.2106 236.054 41.07 234.231 41.9033L232.591 40.2627C234.414 39.6898 235.846 38.8825 236.887 37.8408C237.877 36.8512 238.372 35.6533 238.372 34.2471C238.372 32.5804 237.825 31.2002 236.731 30.1064C235.637 29.0127 233.919 28.5179 231.575 28.6221L232.981 29.3252C233.606 29.5856 233.606 29.8721 232.981 30.1846ZM231.184 28.7002C229.83 29.0127 228.658 29.6637 227.669 30.6533C226.315 32.0075 225.637 33.6742 225.637 35.6533C225.637 36.8512 226.028 37.8408 226.809 38.6221C226.966 38.7783 227.2 38.8564 227.512 38.8564C227.825 38.8564 228.164 38.6742 228.528 38.3096C229.726 37.1117 230.611 33.9085 231.184 28.7002ZM248.762 31.8252C250.481 30.2106 251.809 27.8669 252.747 24.7939L254.309 25.2627C254.57 25.471 254.518 25.6012 254.153 25.6533C253.736 26.695 253.32 27.6585 252.903 28.5439H255.247C255.82 27.346 256.263 26.2783 256.575 25.3408L258.059 25.8877C258.268 26.096 258.19 26.2262 257.825 26.2783C257.46 27.1117 257.096 27.8669 256.731 28.5439H260.716V30.0283H256.731V32.4502H259.934V33.9346H256.731V36.4346H259.934V37.9189H256.731V40.8096H261.184V42.2939H252.591V42.9971H251.028V31.6689C250.664 32.1898 250.273 32.6585 249.856 33.0752L248.762 31.8252ZM244.856 42.8408L244.544 41.3564H245.872C246.08 41.3564 246.184 41.2523 246.184 41.0439V36.2002L244.153 36.6689C244.101 37.0335 243.971 37.1117 243.762 36.9033L243.45 35.1064L246.184 34.5596V30.4189H243.762V28.9346H246.184V24.9502H247.669C248.085 25.0023 248.111 25.1585 247.747 25.4189V28.9346H249.778V30.4189H247.747V34.2471L249.778 33.7002L250.012 35.1064L247.747 35.8096V41.5908C247.747 42.4242 247.33 42.8408 246.497 42.8408H244.856ZM252.591 40.8096H255.169V37.9189H252.591V40.8096ZM252.591 36.4346H255.169V33.9346H252.591V36.4346ZM252.591 32.4502H255.169V30.0283H252.591V32.4502ZM278.841 27.1377L279.075 26.8252L280.325 27.8408L280.091 28.0752C278.736 30.4189 277.408 31.9814 276.106 32.7627L276.888 32.9971C277.252 33.1533 277.226 33.3096 276.809 33.4658C276.705 33.8304 276.575 34.1429 276.419 34.4033H279.778L280.013 34.0908L281.419 35.1064L281.106 35.4189C279.44 39.846 276.054 42.346 270.95 42.9189L270.325 41.4346C272.773 41.1742 274.7 40.5231 276.106 39.4814C275.377 38.7523 274.648 38.1273 273.919 37.6064C273.242 38.1794 272.33 38.7002 271.184 39.1689L270.481 37.7627C273.033 36.721 274.7 35.1325 275.481 32.9971C274.7 33.7262 273.294 34.3512 271.263 34.8721L270.559 33.4658C272.539 33.0492 274.023 32.5023 275.013 31.8252C274.492 31.2002 273.867 30.6533 273.138 30.1846C272.773 30.5492 272.408 30.8617 272.044 31.1221L270.95 29.9502C272.669 28.4919 273.763 26.9294 274.231 25.2627L275.638 25.7314C276.002 25.8877 275.976 26.0439 275.559 26.2002C275.507 26.5127 275.377 26.8252 275.169 27.1377H278.841ZM268.216 30.1846H270.794V31.6689H268.216V33.6221C269.257 34.0908 270.247 34.7939 271.184 35.7314L270.169 37.1377C269.335 36.3044 268.684 35.7054 268.216 35.3408V42.9189H266.653V35.1846C266.341 36.2262 265.481 37.5544 264.075 39.1689L262.903 37.6846C264.83 35.8617 266.028 33.8564 266.497 31.6689H263.45V30.1846H266.653V27.6064C265.611 27.7627 264.674 27.8929 263.841 27.9971L263.45 26.5127C265.533 26.3044 267.695 25.8877 269.934 25.2627L270.794 26.4346C271.002 26.7471 270.872 26.8512 270.403 26.7471C269.674 26.9554 268.945 27.1377 268.216 27.2939V30.1846ZM273.919 29.2471C274.7 29.6637 275.455 30.1846 276.184 30.8096C276.966 30.0804 277.617 29.2731 278.138 28.3877H274.544C274.335 28.7523 274.127 29.0387 273.919 29.2471ZM274.778 36.6689C275.507 37.0856 276.341 37.7106 277.278 38.5439C278.059 37.971 278.736 37.0075 279.309 35.6533H275.716C275.403 36.07 275.091 36.4085 274.778 36.6689ZM286.809 29.3252C287.382 28.1273 288.346 26.9033 289.7 25.6533L290.559 26.4346C289.257 27.6325 288.346 28.7783 287.825 29.8721C287.252 31.07 286.966 32.5023 286.966 34.1689C286.966 35.5752 287.252 36.9033 287.825 38.1533C288.346 39.2992 289.257 40.5752 290.559 41.9814L289.7 42.8408C288.398 41.3825 287.434 40.0023 286.809 38.7002C286.132 37.2939 285.794 35.7835 285.794 34.1689C285.794 32.346 286.132 30.7314 286.809 29.3252ZM297.903 41.9033H296.106V26.8252H308.372V41.5908H306.575V40.4971H297.903V41.9033ZM306.575 32.7627V28.3096H297.903V32.7627H306.575ZM306.575 39.0127V34.2471H297.903V39.0127H306.575ZM321.341 35.8096H318.372C317.903 38.7783 316.497 41.1221 314.153 42.8408L313.372 41.3564C315.664 39.7419 316.914 37.346 317.122 34.1689L317.278 31.7471H316.184V32.7627H314.622V26.0439H322.512V32.4502H320.95V31.7471H318.684L318.528 34.3252H322.903L322.512 40.4971C322.408 41.7471 321.888 42.3721 320.95 42.3721H318.841L318.606 40.8877H320.325C320.794 40.8877 321.054 40.6273 321.106 40.1064L321.341 35.8096ZM329.778 41.2002C329.778 42.0856 329.361 42.5283 328.528 42.5283H326.809L326.497 41.0439H327.981C328.138 41.0439 328.216 40.9658 328.216 40.8096V25.8096H329.7C330.117 25.8617 330.143 26.0179 329.778 26.2783V41.2002ZM326.028 27.6846C326.445 27.7367 326.471 27.8929 326.106 28.1533V38.8564H324.544V27.6846H326.028ZM320.95 30.4971V27.2939H316.184V30.4971H320.95ZM337.512 38.7002C336.887 40.0023 335.924 41.3825 334.622 42.8408L333.762 41.9814C335.065 40.5752 335.976 39.2992 336.497 38.1533C337.07 36.9033 337.356 35.5752 337.356 34.1689C337.356 32.5023 337.07 31.07 336.497 29.8721C335.976 28.7783 335.065 27.6325 333.762 26.4346L334.622 25.6533C335.976 26.9033 336.94 28.1273 337.512 29.3252C338.19 30.7314 338.528 32.346 338.528 34.1689C338.528 35.7835 338.19 37.2939 337.512 38.7002Z" fill="#757575"/>
</g>
<rect x="2" y="2" width="714" height="440" stroke="black" stroke-width="4"/>
<defs>
<clipPath id="clip0_7_40456">
<rect width="718" height="444" fill="white"/>
</clipPath>
</defs>
</svg>
